ply
format ascii 1.0
element vertex 2048
property float x
property float y
property float z
end_header
-12.732592 0.709782 112.526817
-18.959347 -3.390984 87.441093
-13.545533 -7.314499 108.535629
-18.528564 -6.005696 95.253075
-11.773643 0.901646 110.824509
1.768727 5.001067 112.534653
2.569415 11.849701 87.578087
16.569777 -6.570558 96.967369
-12.373015 -10.423906 84.306145
-13.641538 -7.206272 108.415619
6.979087 12.598141 97.125381
-17.211391 4.501833 98.277740
0.876476 -11.974977 102.531944
-14.256454 8.755468 100.595375
7.277359 6.894131 107.824677
8.463758 -11.327864 102.629913
-5.359985 -9.270061 92.230446
11.593012 -7.929078 108.917709
1.264057 6.177639 113.539040
-13.482063 9.437488 92.250427
14.091763 9.747002 90.691292
9.018767 10.474353 85.842461
-4.741888 -10.833215 102.967506
14.710884 -2.309982 109.677391
11.378239 1.515089 113.221634
0.826756 -11.506459 92.707710
-0.982724 6.178195 116.871643
-11.752199 -5.824456 117.442535
-16.758484 2.374226 101.488602
16.611229 -3.520515 102.335533
-1.599263 -9.902522 87.869621
1.040025 6.093022 116.786842
-7.528831 -9.195773 111.491295
12.188672 8.503268 102.661011
-9.865692 7.136334 105.423149
18.112495 -2.350682 95.591774
-3.851434 -8.913476 83.475258
7.609929 10.761689 99.461273
-12.391439 -3.198199 116.729027
-2.126791 10.351726 83.743652
-1.302219 -12.984125 112.123466
14.750002 -5.825713 103.714760
-18.620348 -4.603275 95.883240
7.951550 -10.618985 101.317764
-8.775334 5.486474 110.163284
13.334044 -0.402806 112.548988
-10.833121 5.803781 107.999901
15.173347 9.730446 92.324135
3.777328 -10.785555 93.818565
11.903081 -7.469256 114.390579
-15.663289 -6.623204 94.149353
-14.866416 -9.436641 86.344940
-14.652868 2.540559 110.375198
12.809157 9.385827 90.725807
13.087987 5.349847 106.312637
-6.557240 -11.050261 101.176964
-6.817368 10.693544 86.845398
-5.100693 -11.216279 100.559860
9.865097 10.971944 98.306961
7.697360 4.798365 112.538330
15.719520 -5.304699 106.150558
0.624899 -13.408405 108.362320
-18.030951 -3.943035 95.896286
-10.234248 -7.529696 116.160873
-5.748482 -12.714380 104.922264
9.783830 10.571157 97.651283
9.284784 -10.111866 98.431099
1.109754 -11.928690 112.843132
-16.101286 -4.234608 103.542175
2.720420 12.646531 92.650810
-10.232362 9.662354 100.630615
-14.940663 7.004608 96.346649
3.245373 -10.332322 96.067703
9.214895 12.800361 92.994461
-8.405725 6.266264 111.434113
-5.207901 12.992826 95.290947
-14.694627 6.433567 96.331879
3.297398 11.250511 86.545464
16.374769 -2.852424 102.105515
-19.797579 1.613027 89.965775
-0.127561 -10.379473 89.134682
9.736223 9.606177 85.045395
17.057053 -7.725108 88.332886
7.606118 4.496962 114.751518
10.946882 9.850448 98.731560
11.035067 5.466457 110.720284
-10.947290 -8.940667 102.111313
-16.391979 0.344563 102.858177
-9.995090 3.294605 116.605331
7.579575 -10.065558 89.628014
6.291265 -10.880128 103.225273
-8.515172 11.798617 97.999664
-11.545359 11.352592 93.046562
-9.805104 8.300982 104.287354
-3.155449 11.562514 86.536896
5.783644 -10.648932 106.225769
-2.729676 4.977702 115.854515
15.041485 7.063289 100.722725
6.448623 10.136068 102.256668
17.467844 -8.811215 88.983490
-7.912645 10.468644 86.574104
4.586046 -13.445773 115.078300
-3.461839 -11.930910 105.553314
7.275572 -10.458864 84.858101
6.263555 7.864578 105.358261
8.538237 -9.560357 94.627846
-19.974159 -2.592974 85.412643
2.242575 5.201314 113.708305
13.684672 8.863585 91.889610
13.518544 -4.384027 111.773720
-9.753905 7.065650 105.616096
6.206734 -10.635892 90.625267
-8.023169 11.312806 87.798882
-17.140104 0.445865 95.528152
-19.097380 -3.148643 92.040901
-4.432761 6.905236 107.664948
-15.072506 -8.691212 89.424217
-9.116529 4.610016 115.427467
-19.550121 0.192904 89.902420
-17.716745 -2.691464 93.985573
0.875450 -11.200588 110.788383
-0.209299 -11.861407 105.989075
13.504029 -8.091161 95.566582
-5.482542 -11.351512 103.703972
15.896756 5.212320 97.809036
6.841493 11.305571 86.211143
-4.986546 -10.738354 99.580444
-13.147330 -7.990816 96.974777
1.524979 -13.113754 114.977303
5.168857 7.981232 105.614975
-19.739132 2.639126 85.673393
-12.279484 11.352824 97.198151
-16.891092 -3.426341 99.600067
4.004856 11.041169 86.903061
-0.981052 -7.341896 84.079071
-0.330550 -10.818600 97.301697
-4.955540 -10.835715 100.156525
12.939672 -8.901809 100.099289
-1.139621 -12.508021 99.955063
9.272509 4.213062 112.708664
19.452345 0.791851 94.824173
15.910108 -5.145847 101.373100
3.525199 12.167903 89.863396
-17.967791 1.990787 98.710831
-9.075046 4.227141 114.277184
11.079068 -9.307762 86.274055
-12.754788 -8.169052 105.423508
19.885067 3.100443 86.699074
12.660273 -6.068400 111.685242
-15.489905 -2.070787 104.246368
14.500804 -9.969705 85.981293
11.349417 12.332552 93.438087
2.724647 11.071683 99.176994
4.380461 11.733747 102.836548
10.548115 -9.612979 103.111496
-19.899141 3.186612 86.105759
5.121764 -13.889400 117.994675
-0.850570 4.852637 115.990417
-7.257095 -9.452681 96.754082
14.708994 2.151344 108.638580
0.860617 13.026262 88.956894
-6.326402 -11.022992 110.314507
17.358809 -2.096109 97.537727
4.026232 -10.129487 87.581215
0.619296 -12.553351 110.586098
-3.278830 -11.884696 115.239761
-13.751867 9.195371 86.052872
-19.611547 -4.597410 91.432434
-5.425724 8.614285 106.140915
1.374699 -11.646282 106.458244
14.365142 -1.443422 112.799110
-0.734138 -12.972191 102.303558
3.477459 12.990631 93.992210
11.556810 -8.026256 112.744202
-17.366308 -8.189561 90.606697
-8.576359 8.364914 107.112984
-5.366482 -9.251494 84.388115
11.366305 11.149157 92.467216
2.473027 12.263377 99.110336
-15.566953 -8.968414 87.462280
-8.590399 -9.614100 112.785492
-19.585003 -0.428659 90.330528
1.558574 10.460644 102.402367
0.188899 -7.169538 87.737579
13.852952 2.382881 107.574669
10.294953 -10.552995 103.900108
5.504958 -9.449047 84.481651
9.055175 -10.524990 103.406151
3.394335 -10.118939 85.832664
-4.942401 10.070860 104.122894
-19.950607 -2.030446 87.587318
-12.232025 -11.037609 85.469788
11.828931 -8.008564 111.115883
-0.540014 11.425035 88.393814
17.968655 3.257181 83.806229
18.272715 1.965205 86.624771
-18.917843 0.322028 93.214668
-8.114237 -11.712158 102.748169
15.258036 8.156157 85.988792
10.902926 3.781847 111.182945
0.689817 5.131621 118.622108
16.270464 -2.750639 102.558647
8.394889 10.176240 104.044167
1.904900 -8.785227 82.165985
7.808098 -9.917857 99.161964
2.467542 10.959092 86.797356
17.365582 -5.761846 97.641945
-18.172024 -1.133512 93.484818
-10.880177 -9.355766 106.363388
-0.530125 12.299387 98.605370
-6.530560 11.724137 100.484093
11.129609 11.541977 90.165672
-9.664133 4.633974 109.056976
3.362604 8.388904 107.344749
1.527797 -11.780781 107.949417
3.912503 5.851678 116.114525
19.593458 -3.904089 88.724632
2.079484 6.957735 112.549004
17.041025 -5.526870 96.079849
13.223081 8.548066 97.471855
-10.527604 -8.108401 114.191513
17.165812 -7.831953 90.274963
12.213612 -3.947036 118.371201
13.496140 -4.460587 109.592239
2.597793 13.785446 94.126945
-2.652416 -13.566749 108.240913
11.514544 -8.836784 96.246437
4.046729 4.928711 117.012321
-17.577269 4.728608 94.826546
19.117418 3.385019 86.801323
0.725129 -12.802518 114.066116
17.263224 4.579472 95.481247
10.052629 -9.538746 101.594696
16.612658 -0.474013 101.717331
10.942569 -9.676350 92.062790
5.255074 13.865364 95.356033
-3.727614 -11.347371 117.482254
13.765644 -4.475073 116.065498
-7.080273 11.348903 87.195671
-13.385345 1.732475 114.569229
5.539905 -10.398899 87.431236
-8.048027 10.977848 97.891136
-14.644903 0.881292 106.349648
-14.413658 -8.550004 95.286278
11.304797 2.710436 114.672890
6.117108 -9.841309 114.424011
-9.562426 10.709309 90.589439
11.034533 1.805379 115.731667
-4.989532 -9.897951 87.445801
-1.579156 12.864330 99.939003
2.154747 -11.539165 116.759392
-5.158104 -11.024106 94.022591
12.592642 -2.587390 115.857231
0.639231 -12.174613 109.631950
6.916062 11.765539 101.855370
10.254532 10.544341 101.112587
7.235803 13.069481 92.159843
14.597505 -8.318733 103.347023
-1.212348 -12.285192 99.456223
13.400249 -4.844485 110.942123
0.953750 9.929764 85.625412
8.668633 8.857679 101.924667
-13.049926 -8.830084 103.559761
15.159391 -4.587358 118.099579
7.165139 11.390673 102.060448
14.458051 2.692424 106.447411
-14.724826 -6.997769 99.445786
-13.597189 -6.977738 103.986732
3.736420 -11.547948 107.606430
-9.451041 -10.457549 90.382843
5.253734 -9.937139 85.076698
1.230651 12.791679 97.129181
-9.924932 5.633779 111.711250
10.517420 11.796610 89.389381
-15.733555 -9.271201 91.586647
15.921949 5.364065 97.560349
11.904626 -5.044641 115.080589
8.169209 8.167969 104.141792
-14.431775 3.231279 106.440735
3.023910 -11.102664 87.375198
-15.257869 1.276738 105.220963
-13.551021 -3.464329 109.564552
-8.316573 -10.201454 113.933266
-11.222297 -0.678879 116.965431
4.964464 12.806591 92.606865
15.451997 -8.778602 94.184967
12.808236 -2.680715 115.257309
-11.465791 -0.578911 115.538742
-2.934723 12.879943 93.739456
18.329914 1.299327 92.804550
12.508887 -9.738257 99.288277
12.016568 9.028356 98.172028
12.777540 -8.592466 109.795959
-16.766817 7.186765 97.561996
7.527969 -10.606590 100.728340
-3.249064 5.189996 117.950584
-13.658493 -11.506967 86.132378
6.164073 -11.184848 106.300728
-0.948776 -6.424950 88.662766
13.408928 -4.559946 110.308952
-19.639532 -0.394215 91.604134
-19.488148 2.218716 88.119705
-2.175759 13.847936 94.758575
15.089207 -3.003980 107.725555
0.463741 13.694945 94.686493
-0.718801 -13.079012 108.107140
7.345224 -8.764594 116.166702
2.043066 6.543591 115.496994
-19.560457 2.112875 86.140648
-9.163300 -9.269519 92.235367
11.066774 -0.745547 115.443405
-3.473089 10.082038 86.010048
16.973783 -5.068851 96.753738
-18.081102 -0.988512 102.205551
-10.988629 9.218348 100.725319
-15.749281 8.588481 85.950157
-16.806587 -3.944177 98.290268
-4.425485 -9.479360 89.952896
15.551286 -0.948879 101.755150
-1.949034 -7.266665 84.770607
-6.635643 -10.991109 109.964134
-1.928067 -7.293316 86.579842
4.295729 -12.817660 103.128433
10.856107 11.443386 90.618149
-3.945369 -9.673028 85.604065
-18.800741 -6.632388 88.879395
-0.596639 -13.647084 104.191063
4.067863 -10.777884 87.914970
11.848058 10.151212 88.095566
-1.482764 -8.516306 90.105118
16.737783 4.628861 85.847504
-6.512734 7.965741 110.519135
-10.952449 -8.986977 110.735405
1.213990 -12.969921 102.581436
-7.215143 8.967008 106.555794
14.565351 8.927250 91.768692
14.972783 -10.248397 84.909409
-11.400752 8.056483 105.682213
-2.924999 -9.917592 87.851700
13.287737 9.551358 87.373062
12.157011 5.118070 107.404877
-11.680678 -4.661558 111.775070
-5.224288 11.822356 86.708008
14.635548 -5.593305 108.298386
-4.712836 -10.079232 100.046013
-16.930380 -4.325840 96.898842
-15.963366 -8.798122 93.914749
1.456258 13.681908 94.106422
17.264135 4.574308 96.678970
-10.451868 11.554295 88.681778
13.406628 8.354638 85.193604
17.444996 -3.193886 97.153877
-12.723913 -3.661914 115.776787
12.976744 -9.398285 85.199234
11.325090 -10.174567 85.656830
9.245947 6.444965 108.927223
2.959004 -9.831203 82.632439
9.920587 -8.826803 110.532051
-10.010845 -8.050437 112.652466
-3.440602 5.230767 115.459816
13.235888 9.607460 95.666824
-10.638742 10.769310 96.837608
-9.621469 11.701702 100.148354
8.059449 -13.111183 117.272453
-0.944401 -12.388515 110.207672
-10.314553 2.066482 116.057770
15.593391 4.826182 99.935699
10.214890 9.773057 100.777618
-15.567747 1.047634 99.276047
-19.261190 -5.064832 84.892181
-7.888738 -10.232238 99.533051
-12.165955 -9.323505 93.609924
18.059219 -0.276664 99.070404
12.077896 -8.602476 115.881950
15.596410 4.503628 101.728325
-20.991816 -0.530985 87.660606
-11.230292 -10.148570 85.635216
3.279322 5.978817 113.304642
3.697617 12.423677 95.705894
20.234314 4.723272 88.562439
9.841341 -10.973926 105.085083
-13.713106 4.855721 103.622810
-9.871278 -8.160948 115.494545
-3.636191 -12.542512 107.449272
18.915813 -3.968765 90.039429
13.194368 -7.810710 104.645920
-0.096384 -10.286616 101.260643
15.282177 -6.283516 102.827599
-13.620646 -9.794524 85.139145
10.626429 3.075569 114.811623
12.884430 9.876222 90.910507
12.332357 9.503710 98.415695
-9.249810 3.094625 116.035011
5.134489 12.775942 94.210152
-3.923190 10.819319 88.153984
-2.357472 11.298220 98.396149
-16.648806 -9.176697 89.712677
-10.877075 8.558892 100.261734
-18.738720 -2.898602 95.244965
15.122226 5.527139 98.863991
-14.703611 -6.331566 108.833595
-3.869919 7.634139 84.480309
-9.037486 -9.101516 97.859352
0.913401 -10.760773 102.909744
-18.736940 -6.199347 89.512222
14.013169 6.261837 104.139320
-6.182076 10.873763 86.203941
-13.419960 -0.367233 120.275475
-11.535459 -9.446234 102.654388
13.542364 -5.363558 118.763962
1.632212 -10.684026 113.532219
-16.479349 4.093183 100.334190
13.970920 8.041162 94.189850
11.064548 8.064705 99.535912
-13.532330 -4.203994 111.537872
17.814571 -8.342845 90.298653
-2.176716 11.904974 88.887222
-8.916167 -10.127766 85.049820
-7.608793 3.647510 116.692749
7.518868 8.154939 106.196854
-20.076893 3.348047 89.506683
-6.159623 12.436935 90.374344
-13.201224 4.821496 107.014107
13.496995 9.513238 91.020142
11.798928 11.209367 88.066940
5.506604 -10.351434 97.554581
-6.090299 12.240005 98.154900
-2.999934 -11.609893 95.724617
12.525099 -11.071512 90.427017
13.619187 -7.251132 109.691048
3.359191 -11.209688 97.013710
3.228657 6.890897 107.539963
-1.806690 11.548319 98.750481
4.519397 -10.842619 96.705032
-6.458843 -10.986710 99.567825
-15.766809 -8.266556 95.987701
11.523599 -8.573792 91.288742
-5.228157 9.359570 105.878769
12.638679 -5.516243 114.785271
10.934797 2.641214 117.438202
-10.947202 10.002502 85.920937
14.737805 8.076844 95.947563
4.333183 10.071824 103.092735
6.129985 -10.326406 94.937508
2.185419 10.040433 85.900269
15.777993 -6.000733 99.102760
16.119490 8.249913 87.473709
12.827049 -8.661731 97.134995
-12.283206 -9.740556 101.961449
3.289768 -16.378485 112.411758
2.275609 7.989574 105.652611
3.538657 11.969044 104.004303
18.041231 -1.361393 94.330750
3.310730 -13.263103 103.616379
-16.890974 0.005186 102.816879
-3.796358 -13.482329 106.312302
7.890876 -9.923639 91.447647
15.294380 -9.478572 89.636230
-11.303213 2.704884 115.921516
13.725325 7.600769 83.864639
-5.891892 -10.112255 94.969261
-11.483174 -3.808743 115.111862
12.794121 -9.582479 102.519295
12.665434 -4.247964 113.196022
6.576876 10.572525 86.710556
10.454962 -8.529053 97.012497
-11.950084 6.988695 104.532288
13.756941 2.418545 109.049675
-12.406126 6.942371 105.724869
-12.117656 -3.646807 116.586235
-4.317380 13.274168 98.557060
0.005554 -11.406810 102.942192
-10.914900 -8.919363 104.359177
5.533827 4.405735 112.862175
-9.773251 -9.678639 86.362823
14.027406 -8.203089 97.125069
-3.401410 -12.226544 114.691704
-14.959958 -3.286062 110.318489
2.235805 6.089699 116.147324
12.414373 -8.976176 109.405449
-16.640606 7.965204 84.721535
-2.587289 -11.618496 114.274727
18.333778 4.262895 87.751297
-8.996427 -7.574147 82.858994
14.017276 8.641948 98.787422
9.287065 -11.085051 81.649269
-12.391942 -9.348346 93.197472
-7.385458 -11.425543 107.456734
-8.756144 6.396719 116.978630
7.605743 6.798199 107.082367
-2.803622 -8.147144 87.885780
-9.127856 7.676366 104.969437
1.486592 -12.281990 100.392494
9.165208 5.381310 112.005272
-5.482326 12.746092 96.634277
-16.199884 4.908328 99.576981
-3.768389 8.563025 106.090828
13.422569 7.481969 98.769638
-0.048602 5.027775 118.652916
-10.058668 5.378360 106.650475
16.251013 3.002074 103.724312
-8.568726 -10.318934 92.044525
-10.967218 -8.616200 96.087730
16.671837 6.371691 87.445610
-14.691236 -6.653389 104.484261
-16.650503 -1.446741 106.578499
-7.577561 4.410349 115.878632
-3.589813 7.284508 106.103203
17.311466 1.141573 98.867111
-16.626301 -5.468936 94.035690
3.326646 10.555260 86.564034
-6.526330 12.765330 99.294312
-17.436747 5.307346 92.193481
8.040593 10.997499 98.763268
16.936707 1.380781 102.903183
5.195173 12.717607 91.498428
10.078059 -10.179361 96.300026
-15.011086 2.936716 103.012947
-14.071669 10.276769 94.530701
2.971858 12.543858 94.345261
18.669655 0.465072 97.113174
-16.492331 5.654407 96.576881
-0.496855 8.861553 104.617599
-1.685111 11.443793 100.460373
17.639080 -3.144200 104.977547
-8.457633 -9.547073 83.778664
-16.721066 2.580473 99.012405
14.024055 -8.218170 108.013458
13.938110 7.047337 100.125946
10.850850 10.727170 85.927444
-11.930171 -8.353073 98.597069
-17.240986 5.569644 94.840202
16.633568 2.445731 99.702049
-16.262293 3.166399 99.287415
-5.736728 11.691227 101.470879
-10.164810 -9.974622 90.265648
12.488716 6.827907 105.170433
11.421430 1.963849 115.066933
-11.582035 1.474701 115.426338
-12.466817 9.944488 89.837227
-13.349316 9.484534 89.013588
-7.200955 8.108556 107.899315
7.476604 5.798410 111.024857
-7.143741 7.009373 110.372459
-5.821708 -9.812192 99.776146
-11.640828 7.466519 101.915215
2.833961 10.627506 102.275826
7.574327 9.648176 103.831375
-6.712704 12.870195 97.534698
18.182962 0.588381 100.085335
-17.507715 6.125751 95.923027
-6.413187 7.502016 109.929268
-1.395406 10.782854 102.272316
-15.673119 -6.290248 105.031013
-12.919798 5.963302 107.654709
-3.613415 10.058056 103.816132
-13.116462 9.185605 85.534851
-2.992265 -9.853255 89.317009
12.935900 10.896936 92.129982
-6.064757 -11.416250 99.767456
-16.640051 -8.657204 87.820923
14.658586 -8.034383 104.302086
1.548001 -13.008967 107.089157
0.427335 -9.481386 93.305122
-16.791561 -7.458868 81.841141
0.954241 11.676258 86.027161
-12.932619 -6.257770 110.963753
-4.014797 6.787967 114.136139
-0.842002 6.074608 113.615959
1.223052 11.838993 94.298286
-11.096716 1.806860 117.848724
6.356252 -10.654193 87.051750
-18.579437 2.768057 90.818909
-2.465691 -11.124279 99.897598
18.014902 -8.590623 90.131706
-13.436131 -9.077852 92.934151
20.788128 -1.796631 86.148445
2.087539 -12.651012 114.071083
19.834549 -2.203643 84.968178
-8.126000 11.800838 97.879494
0.408795 -6.001373 82.646111
-7.741595 -9.586133 100.074257
14.068612 7.622540 84.967621
9.672853 12.581889 91.964806
1.869956 11.667062 95.415321
14.729163 -3.840280 108.323982
14.752213 3.151968 104.490425
-4.787088 -8.960055 91.743042
16.935244 -8.059091 87.962463
-4.678646 -10.789292 106.718155
8.285117 6.048001 111.301064
8.282631 11.828069 99.051506
6.224296 -10.550397 88.806717
-17.918224 -2.720133 95.771538
16.008923 -1.707267 105.570847
7.579123 -10.883069 100.654907
1.370607 -10.858289 96.181091
8.224955 -10.792018 111.332008
-3.022209 -10.971942 91.371101
-7.898069 5.637783 112.534172
11.609829 5.811560 106.805222
10.359984 -10.042176 109.431961
-14.213095 -1.618775 110.698730
-5.540127 -11.908101 109.735374
16.133434 -6.283531 99.233902
12.304753 -0.130010 117.874542
-12.663843 -8.456866 97.612389
-9.005888 3.524825 115.793182
-15.523627 8.806953 93.407333
18.277582 5.262410 91.986313
7.241891 4.980698 117.026741
-10.360305 -10.049054 97.250420
0.109849 6.042706 111.646553
-4.692246 8.741204 105.865395
-7.001047 8.207837 106.304207
-2.173821 10.088240 103.945480
-11.825730 -7.100460 116.389687
-15.414630 -8.541131 95.165848
17.310305 -4.404358 101.181282
-17.555756 4.567735 95.117432
8.937201 -9.322198 114.720245
19.477211 -5.099197 85.553116
15.726182 0.851790 104.051170
4.394683 -13.979949 107.699814
-5.077414 7.521274 106.768906
13.059525 10.372731 97.642067
-19.250244 -4.164045 87.638428
11.877119 5.050663 119.249123
-16.611410 -3.236012 97.866257
3.279019 -10.944510 98.747269
-17.000956 4.273903 93.630135
14.901338 8.828055 89.209198
13.684833 3.669368 106.440552
-13.447534 2.358421 104.291634
0.905558 -8.138695 86.778931
18.339046 -0.432919 94.375130
18.686708 1.005173 93.858246
3.140073 6.078962 111.669365
17.143694 -2.297168 98.084160
-11.853107 9.267159 99.784958
5.697507 12.839542 93.928902
19.485008 -3.124682 89.385445
8.713060 -10.490720 107.285721
-12.852571 4.986088 107.717865
-12.953978 8.376218 101.605659
-11.894062 -9.818370 88.726486
-13.819677 -8.668442 99.628464
-16.085014 0.261233 102.675095
-1.816161 -8.774457 83.773109
-9.995534 5.656121 107.849724
14.984921 4.952867 98.455170
15.050459 8.116730 92.566154
-8.022419 -10.396115 115.237740
-3.797610 7.176968 108.830666
-15.434108 4.197635 102.547554
-12.504353 6.202384 105.269058
19.860016 -5.608247 86.234467
-20.740892 0.408504 89.165070
-15.297171 -6.012426 109.264572
-14.664362 5.250263 104.859695
4.002675 -11.164951 113.413933
-4.853862 -11.576897 109.541664
3.976061 12.919415 98.386787
12.443586 9.636215 91.587524
-3.924745 -10.076614 96.225464
12.449930 -10.020148 86.284363
7.385695 5.081280 112.586288
-7.884761 -10.962728 109.072350
11.218757 11.539846 94.517181
-0.994172 -11.540477 112.810532
16.001593 3.627523 102.185211
-16.203726 6.782951 85.655106
17.436403 -1.680421 100.655327
-15.765724 -6.542766 105.437790
-9.150825 6.355751 109.410568
-9.205850 12.572109 97.191002
4.676075 4.898328 116.157387
10.273596 -10.623838 83.143707
-8.454087 -12.196549 105.544731
20.437321 4.184783 88.104263
14.588827 6.638461 99.859642
-13.669973 6.872750 98.971825
5.949556 -9.584407 94.979439
3.130150 -12.504229 107.301849
4.572004 -11.582752 104.777611
-5.619860 -8.996945 93.212006
-2.498366 7.522576 109.834473
-17.945709 -4.041554 96.977333
-14.235899 -5.728433 109.061996
19.168102 5.168267 86.752380
4.398391 5.682714 116.446327
16.301056 7.114193 88.053360
-8.790094 12.050963 87.279869
13.895754 10.255626 94.427109
-15.262056 -8.014359 98.806900
10.081120 -9.185378 95.069588
12.304048 9.313978 97.272545
4.379311 6.831334 108.421806
11.433133 -9.667782 93.782127
12.033592 -2.910859 116.358353
16.097198 7.188470 88.106575
-9.171159 -10.429460 86.105812
-1.310897 -11.734240 115.731812
-16.836769 5.319236 89.908020
-1.090769 6.206025 111.042397
18.610176 0.714674 100.147461
14.318970 -4.331244 110.246101
-18.442677 -4.817041 86.738029
-14.254625 -6.808926 97.443192
-12.197907 8.151525 100.191704
-19.515139 -2.114746 94.961922
-9.426697 1.332619 115.986267
4.360960 11.861190 87.643150
12.644001 1.998684 111.248802
-15.702432 -4.653584 104.782700
2.707085 10.740434 99.040031
11.333951 10.927999 92.255920
5.741709 -9.185755 87.663292
2.265604 10.977370 85.041527
-13.333472 -0.916190 110.203911
-12.676770 -6.596870 109.613991
2.556586 11.853838 99.542030
-11.021119 -9.508000 101.200157
-9.841514 -10.485735 88.661667
7.499851 9.848199 105.889771
1.960380 -11.106453 94.040459
0.788636 -10.089575 88.257393
-10.125201 -10.718303 84.897697
-0.531383 -10.588490 81.505318
0.661280 -10.139623 98.071983
3.581090 -11.729259 100.366104
16.432138 1.800329 103.698280
-21.246746 -0.760698 85.663467
-17.166992 0.480597 95.887566
2.208794 -8.127723 82.136337
-3.280233 -11.660404 101.677139
-10.372891 9.950276 103.819969
4.672435 11.853992 99.042892
-1.871722 12.009339 97.396721
-14.662284 5.214749 101.458450
-2.365423 -11.112415 90.966255
-13.444754 -7.233900 107.821808
-4.631895 -10.923082 99.694748
14.077861 9.982755 91.480194
-5.014221 12.015322 99.587204
1.745371 -12.292955 102.017433
-8.805073 12.040196 91.751518
4.731231 8.285098 108.018440
-1.036085 6.531641 111.362389
-2.570603 -9.984414 91.895821
-3.482665 -11.220396 102.833344
2.540132 -13.063025 107.741608
5.397887 12.878114 99.403183
-10.149398 11.518034 88.261261
4.854526 13.137924 92.524849
-0.774735 5.735483 110.891624
-15.664863 -5.563968 103.083298
-0.237276 -10.000752 93.262405
3.251443 10.868308 88.807007
7.660687 -10.486082 104.199821
-4.229590 -10.741071 88.373573
4.597814 12.571291 97.529404
-2.954079 10.810390 86.784828
-7.734441 -9.826580 97.932091
-12.097623 4.140165 111.248230
8.708808 10.335837 101.998978
-15.618382 -7.456509 98.161392
-9.730726 4.204709 116.154678
-13.406301 -8.380608 92.566635
15.739441 -4.336583 108.797073
8.823878 5.581563 109.035042
2.952818 12.635251 90.840988
18.735052 -2.523673 94.166443
11.867655 -8.749333 95.680252
-10.886975 8.413470 100.891174
14.338150 -6.540380 107.523262
13.499013 -2.094535 109.288246
1.054693 -12.808494 107.731163
-2.951971 12.543529 96.899353
9.000016 5.015823 112.877113
-0.686863 -10.773610 91.269615
-0.203827 6.495043 85.317665
16.780502 -3.964489 102.339806
3.920974 -9.948480 91.939087
4.100852 -11.744473 103.424736
-12.841769 -10.324583 86.027992
4.607812 -10.507174 97.926819
-9.477965 -9.619984 97.454803
1.292713 -9.221000 83.593307
6.051397 12.519594 91.295128
17.348915 -9.357961 85.428879
16.826496 -2.231353 95.352127
-7.175912 12.400902 99.530334
-12.424028 -9.718837 84.927811
-16.630774 7.501760 87.523338
11.867901 12.387088 93.236427
-4.363502 10.543737 88.561462
-19.274624 1.114948 91.709724
6.925704 4.696414 116.072090
-0.446959 12.773861 90.505478
18.294390 1.009688 91.517952
3.368761 8.322936 117.596375
-14.225365 -7.907404 100.796524
3.265830 12.460230 95.252869
-1.062041 12.232552 90.326820
13.755184 9.972746 94.583252
-11.677263 -5.757878 112.738449
3.651677 10.729883 103.852631
-5.389583 7.221772 107.179298
15.480118 3.791786 102.379036
-9.066752 -10.071831 95.992889
12.607784 -1.267128 117.304100
-8.303349 -10.052365 110.559929
1.865771 -12.412613 103.113060
17.728411 -8.950994 88.867798
10.263062 -8.896737 104.619705
10.943092 6.840451 108.576645
15.045351 6.300861 96.111046
11.803600 -10.354799 92.474510
-7.231013 12.682538 91.053009
-10.520314 10.441200 87.433769
10.161041 -9.653543 111.547325
-10.926085 1.618862 114.820404
-3.404546 -12.430903 103.074959
4.314682 13.097824 89.207542
1.838014 6.413351 109.188034
-12.320614 -2.470031 115.526627
-0.812802 13.277830 94.215645
10.946648 -7.930997 112.716301
20.182123 -2.184245 85.764084
-12.166417 5.221686 103.644318
-5.630437 10.565275 103.866730
12.263517 8.359186 102.040634
2.451103 -12.361983 109.908600
5.364715 5.844556 116.674194
13.143905 -6.800426 110.304276
18.939445 -2.466167 85.093773
6.806780 -13.953522 113.833862
-17.527517 1.606431 97.963776
1.632006 -11.514654 100.828003
11.644192 10.940301 92.676636
-13.928768 10.133247 90.690765
17.950491 2.356234 97.914291
1.710407 -12.366250 110.224060
2.489453 -12.140079 100.763649
13.362664 -3.250704 113.484474
-12.667116 -4.914059 115.261406
-8.477767 -10.226462 90.560722
13.590707 10.633047 92.373047
-18.148977 4.035657 90.806412
-7.319534 9.213725 103.744583
-14.979465 -8.445688 94.267151
11.222101 -10.506450 94.967941
0.933075 -13.793303 113.574516
3.468842 -9.864213 115.758034
16.250910 -6.089973 95.663864
10.809509 6.261106 105.228409
-7.332778 -11.130798 99.793762
17.675224 -4.250775 91.573944
15.504544 -7.069812 93.905464
16.148314 -6.051302 97.780159
15.077257 6.918751 99.204048
1.762338 -9.549030 90.550209
-1.566841 -12.554067 102.499771
-10.378245 -9.681582 91.925751
-17.595188 1.967050 95.166672
-12.336445 -9.125793 89.537231
15.187672 2.283414 106.716385
3.455786 -9.871768 92.631516
4.341280 10.129786 88.045540
18.067118 2.218559 92.182137
16.900604 -1.832836 97.380646
10.707398 -9.852858 98.355957
12.911675 9.000817 97.299423
13.866339 9.063783 86.338120
-2.871542 -11.052324 93.569313
-10.152591 -8.622603 117.032654
3.316214 12.699521 91.343071
18.367916 3.361431 91.236069
10.219673 -9.534988 109.326088
-5.104589 -10.491965 87.084282
11.021018 -9.376357 92.204735
-17.371693 -2.760391 94.711884
15.207259 6.519427 97.870399
-1.627974 -10.682215 100.712105
-11.615028 -8.954659 106.031540
-1.714804 -12.230484 101.406807
16.746651 -4.640740 101.733154
-2.427254 -12.688587 104.778358
2.296084 -12.793072 104.226021
-10.230941 9.568663 87.324028
13.650130 -8.960326 94.515366
-10.615847 3.705902 113.488037
-16.925610 -0.008385 98.523651
-5.630740 -11.359292 105.017799
-4.074329 -11.673123 110.444649
-12.261227 9.648431 98.962639
19.154799 5.117428 87.379036
-10.527668 2.253752 117.087158
-15.625056 -2.342505 109.051392
3.367205 -14.614007 113.945396
-14.964485 -0.835400 108.533646
-19.727364 -0.984963 86.641327
9.148403 12.675181 90.487030
2.679676 12.889625 96.264923
-12.893476 4.268960 107.354431
-15.852583 -4.766447 106.368568
-15.498279 -9.798807 85.070107
2.985844 5.756458 109.847450
12.699973 -3.316890 116.291901
-18.291603 0.850234 96.733200
-6.602013 -10.936359 89.343422
-14.531977 8.384251 91.829971
-17.457504 -4.331391 101.924202
-12.703041 -7.201282 109.929504
1.315965 -12.349566 114.494850
14.311919 -7.439170 102.237053
-18.234722 3.477019 89.817612
-17.738533 0.598151 98.208336
12.483833 11.474671 92.445198
-14.031223 8.394749 94.400528
-14.790906 -10.029657 90.626297
10.697806 10.276738 98.213524
16.851177 -4.560743 94.264870
19.585407 -4.319482 90.723953
-0.716759 -11.648249 112.309486
2.780783 -13.072690 110.663292
7.470054 8.041739 107.374695
-5.204175 -10.917011 114.911835
17.617970 5.492044 91.398750
-14.442406 0.050090 108.868690
-11.602888 -7.825629 113.652817
-13.052513 -5.613518 110.632584
5.014787 -8.406396 83.043159
3.889461 11.835230 87.982307
0.738537 -13.824666 114.618996
-4.490815 -10.948318 97.302521
7.668023 -10.341929 96.991272
6.649977 9.540244 105.076187
11.855082 -8.619024 109.360962
-12.729445 -8.137293 111.786461
2.204124 11.438221 100.611542
-18.760944 -4.284256 87.332108
-16.595469 -0.525232 99.215103
-6.427269 10.939403 102.658653
-2.451415 -11.781272 103.755791
5.045810 6.947639 110.669495
9.804931 -1.429961 116.759003
18.543072 -0.009978 92.910439
-6.834423 -10.839473 88.952332
-19.192749 -4.878953 92.259048
8.487494 3.427076 115.063408
15.609006 -5.082382 99.266617
-17.844957 -2.579136 92.240150
-0.895541 -7.435610 87.851700
-16.571451 -4.186212 105.470093
-18.772364 -4.116426 94.157898
-3.674428 12.556805 93.110085
3.611345 11.879409 90.465805
-11.859865 10.576317 89.033142
1.759242 7.566146 119.826584
-3.100701 -11.909655 102.513222
18.393127 -6.906141 90.442947
-10.609814 5.653431 110.835968
2.530000 12.911482 93.461281
11.908050 8.990988 87.097130
9.872478 2.786868 118.093513
-13.662965 -5.142270 108.890877
-2.982614 11.361947 88.325905
0.154101 -10.160151 92.533264
-12.825350 -10.053373 86.565346
16.876095 6.625216 91.887505
13.931368 1.302817 110.093475
-18.264616 -0.509574 95.101746
17.430523 -9.365891 84.040138
16.712755 -5.822965 100.229065
10.576731 11.620112 90.291367
-5.657123 -9.884417 96.432991
14.794158 7.346306 86.562775
13.166211 -5.781248 108.829124
20.157953 -1.307276 86.110298
-5.613307 -10.857295 86.027786
10.583746 12.493180 96.004745
-10.472278 1.375791 116.389862
1.852826 -12.968052 96.375137
10.504931 8.913502 101.411072
-8.715393 -8.416282 98.050880
11.466599 -9.818641 115.973640
-16.392757 3.798953 98.103195
16.214504 5.755488 88.175858
7.573054 -9.407308 87.523590
9.063423 11.263714 87.401756
-6.509294 -10.077419 87.361107
16.293751 -8.413741 86.442078
0.327991 12.854925 91.555489
13.005713 9.837525 98.297729
-6.110762 12.470170 100.357925
14.318383 -7.904977 99.794472
5.415647 -11.712030 94.873077
-17.233461 -1.277534 103.009727
10.670419 2.397833 115.748688
20.346840 -0.174128 85.187584
-5.925178 12.579307 88.281471
15.281090 -8.160043 101.512474
-0.378883 5.433197 112.790436
-10.925536 -9.548001 106.497704
19.264471 1.189952 88.687050
8.032908 -9.437378 112.751457
14.751965 7.868002 85.914742
20.237450 -1.349820 93.144569
18.751869 -1.542040 93.609322
18.731016 -5.580125 84.774979
-12.966473 -10.195477 88.474678
-5.876763 9.551586 105.021362
11.438568 5.423148 109.588799
6.619808 7.021605 119.327286
-13.166148 -9.434229 104.229301
15.435646 -4.548602 103.616188
12.299132 4.654217 108.252571
9.787270 -10.371997 84.400665
5.820809 -10.747262 110.465263
0.643740 -11.659551 114.273109
5.802744 4.770385 115.074242
8.230842 -11.014893 83.487793
-10.179369 11.337853 91.150246
-19.819187 -4.997505 88.163170
8.373940 -9.624790 87.222343
13.437963 -9.718232 88.722679
-12.346699 -7.836538 110.910126
17.371679 2.851071 96.883812
7.349440 -8.543321 116.936485
9.079599 -9.606214 94.495514
9.666642 11.929769 94.251495
-17.286549 -3.315136 97.941948
-18.325974 2.163317 93.537224
-0.479615 -9.117337 85.453133
6.331789 -9.913154 95.126144
1.251664 -13.311431 100.840553
-15.920260 -8.161627 94.786873
15.009064 6.998410 85.029846
-2.809805 11.677386 90.768105
-14.566382 6.722667 100.012390
-11.089097 -6.491036 110.878281
-5.123252 -10.907828 94.350647
-17.107576 -8.538501 86.872223
12.942358 5.156522 105.857712
12.837375 -0.745954 114.384346
8.292252 10.617565 98.947105
1.636289 11.607824 89.357315
4.043943 6.576680 110.157806
12.042714 -7.344265 115.228264
-16.110596 -8.511663 91.040451
2.388306 -11.791593 98.636955
-1.454603 11.828620 87.098419
-9.486143 -9.236230 97.769402
17.012012 3.427145 94.067390
-11.060403 -2.182797 115.678604
15.949636 7.855020 89.853325
4.039035 -9.285949 90.226295
16.843575 7.098030 86.208160
16.450718 -8.993340 86.149887
18.964125 -5.142970 90.958916
14.442792 0.822137 109.093582
-16.623625 2.623286 100.885635
-18.817188 3.360442 90.810730
5.477151 10.732014 102.823029
5.881241 -10.373851 96.296387
-3.771072 -10.281413 91.898155
-20.608551 -0.906123 88.272003
16.719744 -6.540375 91.809090
6.996922 8.248236 108.106339
-12.054269 -7.576262 112.155235
19.154041 -5.297371 92.094772
0.527693 8.578417 105.499496
-15.418741 6.336899 98.476212
12.747683 -7.176963 110.447395
-5.207569 -12.015864 113.032028
-8.781053 12.192800 96.888664
8.309574 -9.731127 111.399940
11.889840 1.341844 112.585037
-10.970579 2.801346 119.004562
-11.930977 -2.195350 115.895088
-14.202331 5.041355 101.773636
1.178951 9.609366 103.991760
-12.168821 11.121567 91.813255
13.593582 -3.372370 107.691032
-5.959809 -9.799585 97.400055
-18.730841 2.589706 93.024139
-3.163924 -11.842223 105.569420
-6.717730 -10.997238 116.820610
5.673899 -11.021451 102.228371
15.793700 -10.681100 85.956192
1.315935 13.113703 92.987000
3.089087 10.678308 103.990105
-18.291817 -8.290110 85.458435
9.231404 12.878579 97.116325
-12.808054 6.107167 101.885857
0.119341 -10.585427 92.677002
6.469741 12.741972 93.110252
15.092361 -7.401989 97.369667
-4.724287 7.275748 111.230309
2.004915 7.039320 110.528999
16.579388 8.645601 91.383224
12.008383 -8.962021 95.720375
-10.611296 -10.164438 90.907234
-4.192073 13.370290 94.728302
-12.787050 -8.332338 84.095924
7.994430 -10.916608 110.957939
3.669151 5.776265 114.546005
-15.717548 6.459614 99.426491
1.662979 13.232907 94.285042
-15.886001 -2.566016 106.230751
-12.554436 -6.510665 111.611427
0.006631 -13.950973 114.822655
-15.471618 -2.712814 105.246262
7.117049 -10.008815 92.519012
8.035367 11.113550 92.644547
-15.073682 4.993670 105.334999
-17.750059 -5.569009 93.349434
10.481201 -9.462564 114.864372
-17.308229 -3.203794 101.502441
-11.753899 4.823085 109.731606
-19.674734 -3.084492 89.035576
17.216665 -5.190051 94.473961
5.731664 -12.715145 102.858276
-12.905244 -3.249142 118.830269
-13.536994 4.990407 105.328629
5.932476 13.169968 97.167320
-5.555561 11.396263 100.978699
16.192430 7.973810 89.901733
-3.459618 -11.899550 109.564209
-15.938375 0.439392 106.464584
12.184986 -8.476031 107.067696
4.982442 4.954646 115.882965
-4.408799 12.349029 97.612984
2.524646 -12.590224 114.575813
8.480283 -10.596006 101.835686
-8.417229 -10.423316 86.152733
-11.970432 -8.744900 108.977509
3.723118 7.242940 118.251572
9.180977 -9.462399 112.395554
18.157749 3.374041 85.825531
-6.443264 5.735136 112.158272
-0.964525 -14.077780 107.080154
16.239414 -8.493010 87.184265
14.243334 -9.893740 88.408165
-13.059932 -8.593133 102.364738
11.773848 -0.733561 114.371536
-16.097561 -8.620031 86.131798
6.288346 11.901173 94.769691
10.239604 4.864939 113.486481
13.759571 -4.195985 109.574654
-5.550390 10.069285 86.070778
1.155997 -11.173891 98.565392
-13.707128 7.193970 102.815826
5.505294 -9.424127 91.207436
0.403678 -11.738707 98.332375
-14.693232 -10.752332 90.113167
7.944490 -9.169054 114.210945
7.276984 5.720239 108.648125
12.971886 2.128113 113.164879
14.423750 -9.723640 92.846573
-16.769022 -5.910406 84.364708
-15.496714 -3.562531 103.319595
-6.173831 -10.713363 90.928337
10.502756 -9.513947 91.995590
-5.666708 -11.256892 97.346550
9.972118 11.857565 92.130753
-11.187223 -9.672941 103.657013
17.608263 2.638222 101.151268
19.347218 2.816255 85.548050
12.566165 -10.637483 92.223061
14.379457 8.378327 97.187492
-5.702803 6.172342 111.584824
-15.578993 -6.565673 107.721130
-14.285021 -7.166778 108.550247
-17.505213 3.421120 102.145752
18.333191 1.224208 96.357285
-0.498669 13.109290 91.854805
-1.593727 -12.693091 100.702164
-15.498271 -2.137614 103.448936
-15.992943 2.341121 99.730133
-11.594755 -8.836095 107.871414
9.997508 11.186052 92.345673
2.188198 -13.064130 108.433273
-19.232172 -4.067366 93.369980
2.190562 12.204873 100.647652
7.682234 -10.520598 84.869713
9.980708 9.614789 103.402061
-13.287917 -9.115421 86.380745
-2.408686 11.638398 98.804939
10.110690 6.915694 104.792656
5.794881 11.300660 98.207596
16.104237 -0.094023 100.297722
-13.767101 -7.418712 106.637192
-11.405413 -11.078179 84.014946
-4.756272 -10.726969 99.037201
-3.428052 5.227985 113.104767
-15.900125 -0.650345 103.428337
-11.209375 -8.052904 107.955276
-0.363152 10.563191 86.688568
-5.468278 -11.301873 112.474503
-17.768795 2.424116 96.371956
-15.051728 -4.198153 107.400444
-0.933607 12.755044 93.522377
-2.628501 -11.731180 115.278313
9.210900 -9.811432 107.269066
-0.485608 6.559474 110.200958
17.232674 -4.013456 102.660896
3.278392 13.940330 90.794815
5.486403 -10.381297 106.421181
15.327612 -6.416062 103.018875
-3.771648 -13.192215 104.129166
-19.956738 2.398937 91.661041
11.810703 4.514695 105.785477
-19.123436 -2.758529 86.381660
0.990600 -11.258931 90.585945
5.383381 13.923745 90.317070
-11.018970 -9.340542 95.080330
11.659581 7.533117 101.234047
-3.309673 -11.754614 115.535141
-15.515822 -3.893624 108.551163
5.923395 9.793285 85.959946
-16.922979 -0.434381 101.487495
20.918770 -0.978617 87.266983
-9.591932 -9.491282 100.132881
-11.904617 -9.888508 97.290657
3.949475 7.965704 107.502037
1.664495 10.667869 87.936455
-5.907987 -8.667073 82.697556
-20.015799 2.653559 92.627815
-3.792199 -11.123294 95.612694
12.637844 -2.879816 116.195366
-0.160601 10.839881 86.720039
0.559356 -11.871790 114.281876
-18.495792 -2.595413 98.499229
18.408960 -3.207465 91.268257
-3.689548 -10.207176 86.285973
17.220793 -5.103467 97.229576
-11.782269 7.098917 103.814117
2.374116 -10.593937 85.459030
-11.151169 9.215755 100.825211
0.653275 -8.764216 87.457497
-12.718596 5.964810 102.605843
14.704616 -0.592355 109.630402
8.490803 11.517023 97.993698
-0.361346 5.155890 109.411362
-8.633358 -8.668173 103.298294
-11.975495 -8.985546 108.884026
-1.702456 -9.371016 84.680412
-12.693556 2.488827 117.706200
-19.254642 -2.777800 91.747009
11.308619 11.353087 91.207970
-19.394499 -1.561001 86.078300
2.832065 -11.102808 111.762100
3.062933 10.415931 101.970383
-12.892673 10.465266 90.208138
15.457952 4.876101 103.184158
-14.970765 -1.861561 107.274933
-14.522990 2.488932 108.634743
-16.267717 -4.589447 102.188942
2.146075 5.746127 115.353134
2.939368 -9.935355 82.709518
17.343128 -7.202249 90.882065
0.577660 12.037716 99.260071
-9.169113 6.910344 106.669991
8.871474 -10.266160 92.341927
16.862858 7.625342 90.638306
13.544472 -8.289558 99.562080
-12.278995 3.133912 113.167870
-4.751049 -12.498137 107.260689
0.206088 -13.486631 106.020866
12.399999 -7.309246 109.810844
15.699181 5.323272 96.652306
-2.095057 -12.411284 102.799171
8.464069 11.771199 99.350601
-6.049351 -9.233382 83.027802
-16.063662 -4.653749 99.354362
-9.692779 -10.194949 90.479828
-16.251978 1.541178 100.221703
-1.850058 9.937223 86.647377
13.276742 3.140064 114.918167
13.219500 -7.331985 101.974319
-1.078117 9.407585 101.324898
-3.137372 12.887819 92.700165
1.539294 -11.939289 113.177727
5.801831 6.302422 117.659286
5.486744 -12.864916 114.927971
20.696596 -0.093314 87.559013
-15.935233 6.096174 97.107338
-12.937863 -1.258823 111.904778
-17.700237 -4.656472 94.156807
14.155521 10.318197 91.372337
-7.191969 -9.948353 115.661888
13.593369 -9.227097 92.879082
3.990674 -11.256882 100.008636
10.723117 -9.903554 83.795822
-14.580000 -7.838269 95.546638
6.991615 4.842869 112.178040
19.282433 0.666803 90.029778
15.830031 -7.941358 93.120361
-17.029902 -9.300215 89.981567
-6.006573 -9.175784 93.628113
9.521278 -8.357177 82.683823
-3.125454 -9.219287 92.333481
-2.072106 -11.325382 114.474785
6.304571 11.981797 97.998711
-4.122190 4.458184 115.627525
15.908131 -1.255522 103.730385
0.088759 -8.387858 83.599854
-12.156100 8.885809 101.825523
-17.746191 -1.680230 98.332703
0.129204 -10.182209 96.822380
0.356835 4.907941 117.033302
-18.362419 3.943044 89.780373
-10.463716 -10.119469 100.048935
-10.750928 11.796598 93.634270
-18.293951 0.220299 99.865082
16.798784 7.012309 88.456467
4.517677 -11.769084 105.165260
-18.554380 -5.944677 89.016647
13.366325 10.375424 89.330795
-11.552806 11.642243 88.032349
11.998601 4.257329 109.516090
-3.288080 10.725249 100.485344
0.364234 -10.279671 92.275650
19.285480 2.015332 88.703712
-2.803046 -13.512562 115.927811
-14.419226 -3.530931 107.992073
-10.506423 -8.527612 113.052376
-7.539492 -8.538736 98.122726
9.325831 12.010126 99.484230
14.389653 -9.760142 97.633629
-16.466434 0.608933 103.789017
6.497941 11.783520 97.642899
-12.091432 10.183841 96.384087
17.379801 1.660270 102.435173
6.866192 4.005076 116.748848
-7.700770 10.128324 101.471771
0.138104 -13.715451 112.880951
-4.502517 -10.807784 98.846123
-12.575294 2.261094 112.116966
4.218340 -9.403854 81.542114
-0.493171 -6.993793 85.619286
4.319396 11.397390 102.781769
-0.190361 -12.272619 97.654312
18.148844 -4.508335 90.177643
17.734390 -3.868397 95.724655
-10.142025 -8.869957 110.905060
2.471266 11.519163 87.171944
-9.205881 6.106930 119.183861
4.394147 -10.377964 98.139236
-3.197496 6.559179 111.823662
0.734084 -12.285556 113.540558
-12.115585 -7.372475 102.512589
-16.876892 -5.102345 98.188797
5.773535 -10.863140 100.624313
7.866216 12.298749 93.505791
14.486435 1.778060 107.427071
-11.268291 -8.231766 114.184563
2.574663 6.215715 112.283966
-2.110929 -6.646808 85.956154
-7.833427 -10.499469 117.246521
10.337777 -10.904764 92.072197
-1.002361 11.296659 101.422729
-11.166913 -9.908689 87.262474
19.461754 0.865395 87.321045
1.193842 -12.127831 97.320717
-14.764369 -8.594785 90.142876
-9.209336 11.248976 86.410225
-18.612608 -5.739352 91.969833
7.899208 11.681421 100.523392
-14.143003 10.600414 89.108177
-8.900153 10.388024 101.145256
-2.353159 11.885909 96.141441
-17.003975 4.591593 93.490479
10.787583 11.058022 98.715034
10.950326 -7.502728 119.061470
-3.354197 -11.763678 104.108627
-2.406391 -10.766209 115.436523
8.727562 9.690103 85.933151
-16.383101 -7.596636 90.543900
0.360671 -12.558854 102.476761
4.891612 -11.838163 114.102684
12.512596 10.498347 91.236992
-6.693530 -10.828203 114.766624
4.817920 -11.927981 113.411469
16.800611 -2.695349 98.681236
8.275846 7.436379 108.206894
-1.934045 -12.551997 103.201439
16.850414 2.522430 97.626343
-8.611278 -9.599966 102.896866
0.994655 7.773177 108.903885
-3.050457 11.685955 99.351158
-7.546693 3.537488 114.279968
-14.110779 8.428768 102.719818
-10.044288 4.001560 112.255035
-11.698368 -10.012018 86.901588
-5.421902 -10.038117 87.735535
-18.471020 -3.253340 90.694389
-1.227100 5.862680 114.343346
11.197352 -7.435009 113.040558
-1.439404 6.268692 112.831207
-18.655956 0.105050 92.138947
8.203728 -11.230054 82.950768
0.483088 -7.270968 83.114868
8.548477 5.611720 120.936684
-9.129151 -9.018614 99.187439
-9.359871 -10.869908 99.082108
10.340159 -11.317033 87.155815
-9.632499 4.999175 109.551895
-9.417120 3.652090 116.310112
-9.460528 -6.545228 116.401138
-12.798209 -2.167033 116.559006
1.313275 -8.315351 82.309029
17.020285 5.017896 92.967506
-5.127589 -10.253786 93.973343
-12.076399 1.365039 117.576012
3.770037 7.400836 108.441971
9.317201 -10.176431 105.503510
15.538698 -10.802155 84.590195
-14.139420 4.819262 103.588905
7.021500 -9.275472 91.470535
12.152672 -9.298000 84.562828
-13.230760 9.942434 92.143890
5.792845 13.177527 95.176910
-0.519362 -6.589837 86.449760
6.101439 -11.393014 112.924530
-10.111773 -10.200111 110.428856
7.384780 12.717100 92.991562
11.117504 1.641875 116.480881
-4.833982 12.168253 92.483177
-3.722392 13.171075 91.713356
-7.176666 -11.882252 106.038040
5.435277 -10.498301 88.253838
-18.522419 -4.196972 96.554611
-4.356395 -11.418164 108.947067
-8.858575 -9.210966 114.634689
10.066851 -9.334439 98.883781
0.281944 -12.800116 101.365807
8.109018 -9.728271 88.239288
20.532827 -2.324461 86.794846
-5.070688 -11.150071 106.814301
10.382715 -8.314519 111.742241
-10.902464 1.070801 115.902435
-7.875710 -10.226358 103.179825
3.469018 12.158479 89.039894
-15.006810 6.748649 99.436295
-17.970667 -5.246186 91.257935
-9.697219 7.615006 104.023216
-8.571934 3.450176 116.611595
-18.858870 2.632033 86.427238
17.342802 5.494422 98.757896
-18.836092 -1.119313 90.576057
7.673937 -9.796153 115.334175
-18.002914 -0.779109 97.578217
-12.775341 5.547345 104.726303
-5.423261 -11.536860 113.904037
-15.890885 -3.600636 105.894333
-11.185121 1.545251 112.841164
12.361395 9.185138 96.321510
11.041389 -7.843956 110.099182
-11.675356 11.876526 90.329605
-5.387152 -9.220862 93.021667
-12.016129 -10.910078 86.288185
-16.215469 -9.245893 87.843224
15.442401 -7.747232 95.001755
3.305430 6.440403 115.330032
8.077608 -11.002110 90.829666
-15.210142 9.047633 88.407112
-15.636765 -9.274161 90.571426
16.907820 5.350016 96.112038
14.249442 -3.958066 108.512634
13.095577 -10.276488 91.021927
-19.236458 -5.678687 89.465279
-7.438792 -9.603578 103.704163
18.019672 3.483926 89.286636
4.434876 -12.745205 99.939484
13.680471 2.963059 109.621063
-11.759386 3.037501 115.875313
-6.005520 5.037840 115.847664
7.115345 -10.032707 86.490120
1.933822 6.741427 109.172340
16.203239 4.027869 101.586685
-14.870276 8.454766 96.228874
7.031074 11.559196 101.290955
5.966454 7.245582 117.241318
-14.092257 -8.015899 103.702095
7.820268 -11.149746 106.341225
-8.053637 4.859092 109.463196
5.251815 10.882129 103.490547
8.372905 4.594454 120.053383
13.111400 -9.453128 97.018005
-14.054709 10.021914 90.835800
9.188531 -10.233572 105.905190
-0.126406 7.231096 110.312828
-10.647087 -9.996710 85.438034
-11.383101 -9.601329 116.057915
-12.405353 -3.249141 114.308586
13.098860 11.502091 87.912209
-10.490782 -10.625241 96.836731
-4.984024 11.608679 99.521683
-8.258073 7.019648 108.276863
12.536077 3.181206 112.988525
-2.364599 -8.548989 84.581581
-15.553925 1.569176 106.039993
-20.315470 -6.545707 86.106133
-8.557791 6.865905 108.942764
13.149813 4.359313 104.837906
9.729310 -8.796171 115.320778
-1.723339 13.855313 90.124718
-19.024809 -1.550664 93.313263
4.748555 -12.834252 101.808983
-3.161512 11.082179 100.894379
-9.847324 12.641748 95.602020
5.016900 8.118555 108.899055
10.032449 -9.410215 90.112389
12.604687 0.878970 115.783600
7.315242 -9.875597 110.188942
-1.436592 -7.646119 83.570755
-1.710944 6.540359 112.762367
18.366861 -0.193352 93.788261
-13.402685 -8.702728 104.924362
-5.913034 12.154203 88.522720
1.853713 -12.637224 106.722313
2.957483 6.827655 107.528763
0.399322 -13.489781 104.280243
-7.823988 9.081008 103.070969
3.959063 -11.478887 105.537239
-6.871986 -9.863170 113.535194
-0.531834 -9.811535 90.332603
2.636395 10.757583 86.698303
11.968291 -9.713322 104.719063
-4.904490 -13.037064 102.714996
-7.852662 8.131021 104.884377
-11.157004 7.442629 104.085968
-5.688889 12.448365 93.400452
4.958250 5.708909 112.472450
-0.855131 -7.452028 86.795547
16.399139 9.283557 89.468742
-5.438336 -9.820457 92.848335
1.840056 -12.294110 106.571892
12.980693 -7.255185 111.616081
-9.232606 1.832209 118.360146
-11.675276 10.221406 97.082275
-2.686424 11.038682 91.103600
-14.689070 -8.689048 95.504402
-7.666074 3.870085 117.221939
-4.926564 -10.612232 107.429962
7.027497 -8.456859 82.346855
-11.603806 12.170774 89.785217
-18.385406 -8.221639 88.608711
-7.783776 -9.460223 94.034950
18.628740 3.507755 90.668816
-7.426653 12.857645 95.189400
-15.519497 -4.418563 108.157303
-1.715181 -12.235714 99.420753
3.301872 -11.242435 91.570137
12.349337 4.755502 109.391678
-6.404893 11.460860 99.638931
1.044475 -11.894198 114.664154
10.418853 -9.631257 93.467392
-8.487513 -10.626429 111.947891
5.065778 5.695987 111.739395
-12.266705 -7.981259 111.966881
1.889664 -6.816633 82.960609
0.369827 -7.915554 85.453491
-4.714236 -10.317230 87.628929
-18.431561 -6.028014 89.388557
-9.663471 4.007545 114.266151
-16.730202 5.304644 89.697037
-19.941587 -0.855275 86.401680
-3.717405 4.783305 112.531601
12.914043 -10.261473 83.734917
18.204287 -1.433450 96.758972
-8.211216 9.081789 105.633636
-4.322462 12.622597 89.286598
-14.038445 -10.263463 93.017944
19.363176 2.262834 86.489540
19.561008 -7.317396 85.018127
10.115428 -8.851679 93.126015
-9.941328 -10.676111 92.412102
-3.591174 -10.592330 85.634201
18.856356 -0.529332 94.285400
0.972455 -12.933411 111.518227
-8.303085 -10.163080 108.233665
15.389577 -7.697575 99.722122
10.844794 0.254489 116.454079
2.117881 13.324484 98.091492
13.864786 8.646655 86.842911
18.957670 -2.051697 93.656433
11.741450 10.060514 97.329781
5.134379 5.287854 115.500877
12.931020 -4.892291 112.079376
-3.350920 6.926622 116.726219
3.350658 13.552762 92.943031
-13.921757 2.711297 108.368118
-13.652828 -8.474480 97.539307
-16.603775 1.963037 97.923851
17.195694 -8.169151 90.644791
15.975164 1.984389 101.389839
-13.492979 4.010715 107.726601
-12.947444 5.282731 108.134254
10.501570 -9.630025 95.583542
2.058213 -13.979881 116.069427
-16.790668 2.254093 97.120949
-3.122382 8.860129 106.329567
7.490382 -10.314610 103.227249
2.302323 -10.640720 85.820068
8.632059 -10.876859 84.410690
-3.538795 11.587655 101.220596
-15.918690 -5.042795 104.113930
0.510682 6.531660 107.986382
1.302133 -12.326988 103.272682
4.718462 -9.938119 96.834541
-10.847607 0.343567 117.131218
-7.015645 11.129754 86.471092
1.890643 10.559000 103.200294
6.826700 -9.838139 110.334541
7.975273 -9.615541 115.643051
-9.973909 6.118477 105.558205
11.362321 -8.624159 96.309540
0.960811 9.619715 104.694321
-13.212159 8.654833 100.564690
5.886194 -9.067324 93.204788
16.063082 8.533375 90.198624
-14.027094 7.159187 100.930962
-4.508697 5.522879 110.342339
0.077686 12.340429 97.948036
9.820720 2.432426 116.687653
-14.566350 4.407952 104.122490
-10.708275 -10.842457 117.318794
-6.831070 6.370667 118.935898
20.585064 -0.342376 89.127953
-7.999245 11.174445 88.772331
10.585530 10.069408 86.675545
0.055949 -13.292279 104.879219
-14.697073 7.551971 92.959061
-3.330855 7.670802 105.849159
-2.432436 10.163191 88.036926
13.904978 -10.628020 84.280937
12.404227 10.065755 88.383293
-9.018709 -9.912324 110.224739
0.373487 -11.825113 97.802895
0.988357 -12.864818 108.483124
7.781261 5.922671 110.233109
4.612007 11.397754 95.392311
-10.159681 -2.530005 118.548355
9.119102 -9.581705 98.384422
11.244669 -9.420622 86.205383
-13.983967 -7.387199 108.044029
-8.178068 8.280010 106.278595
-6.695705 -10.046515 118.156799
5.191654 -10.738814 89.171082
-4.493664 -11.151542 98.127617
2.968863 11.739451 100.159676
12.297186 10.784952 92.926254
15.363748 4.782022 102.139542
13.710611 -11.443168 96.110558
-10.569022 -9.208778 111.379311
9.366237 5.401611 111.600868
5.885149 -10.644832 113.239944
1.205623 12.186431 89.321274
7.616458 -10.237009 93.075119
-0.228182 -8.419115 85.539406
-3.189060 11.470833 90.775604
4.504310 -10.613877 94.623322
-2.429639 -12.072449 107.106392
14.931293 8.462073 94.490875
-12.888336 -9.699227 93.814720
-10.013206 11.479488 88.402374
-10.754573 -11.015760 108.914871
-13.795007 4.237245 103.482872
-14.259803 4.759405 104.364967
-2.762026 -10.125994 86.812279
5.364650 4.361051 116.805153
-14.905706 -7.468790 99.867622
-10.194878 7.911265 105.883804
14.890971 4.843482 103.419388
14.894071 -4.843925 113.125526
-6.801470 -11.245802 104.793877
17.148905 -3.816077 101.209671
-11.675009 1.081812 117.986153
12.950765 -11.031012 90.112724
-7.177972 -11.473113 115.127182
-0.036219 11.746884 87.474693
20.781576 2.052241 84.203201
-12.546292 -4.012887 112.709984
17.885391 4.356761 90.392654
13.426194 -6.238640 107.608589
-7.629052 -10.496081 86.982346
4.772076 5.996457 117.364288
1.952687 10.914981 91.365486
0.220209 -10.916972 112.304001
16.644875 7.770991 92.044556
4.555540 12.743254 90.085312
5.688741 -10.964961 102.354950
13.687044 -2.542159 111.580231
17.601349 6.086748 92.693542
-13.939436 1.228421 107.934883
-19.255690 1.502754 90.977997
0.032651 -7.327575 85.026299
12.507005 -0.682256 114.213936
-9.830392 -10.187797 95.410263
-1.599726 5.335896 116.862000
-6.568022 -11.439217 103.241531
-16.455055 3.367020 101.137650
17.505039 -4.034398 95.072601
11.044581 -9.635628 94.194496
14.194233 10.325352 90.823044
10.822742 -10.280359 88.098030
-12.666784 -9.273533 107.737297
6.287683 -11.303238 105.578178
8.735435 -10.581469 84.536057
17.755724 5.214185 97.148399
-2.915867 8.209271 108.087929
-1.383274 6.222486 108.944405
-5.456597 -10.287428 89.354904
3.326564 5.177265 116.391663
-10.223404 11.406735 91.167320
-0.351140 -11.829273 97.959969
1.540115 10.426120 87.112724
-14.484815 -7.378795 107.153061
8.734216 -9.235911 113.361122
13.614918 -3.315101 110.183136
5.558770 12.022286 93.772003
10.100705 4.861609 108.284134
19.395208 1.351451 87.421944
-1.984756 -10.283023 92.631912
11.224135 -9.488302 116.380730
-16.641651 -4.035325 99.655685
14.937300 3.570680 102.613167
-9.362134 11.517992 91.471519
7.911906 -8.354507 82.460129
1.149857 -13.239220 107.217468
-9.859400 5.821754 110.117699
17.659811 4.388246 95.463791
-2.498841 6.400924 111.280029
16.664045 -1.694584 101.184357
-17.520327 -0.258120 98.421021
7.664415 -11.008496 86.413734
-3.172311 4.370322 116.939827
-13.105161 -4.086361 113.665466
-9.534674 6.373465 107.836914
4.373725 -11.889833 114.133827
11.935969 -9.185538 92.940971
7.604723 -9.188989 117.256523
12.084869 -9.687626 92.477570
-0.977037 -12.151621 115.608040
-14.129747 -8.158834 95.097107
17.426937 -0.583031 96.964195
-12.449870 10.708651 94.695175
11.911582 8.862456 99.440361
12.276046 -10.865170 85.307892
-12.401970 -3.214671 112.527039
-14.946074 6.294814 104.362473
8.609018 10.025492 85.424919
-14.377205 8.291205 100.148582
11.024084 10.227550 88.044838
9.357415 -9.763422 89.267815
3.396128 9.880893 86.311516
18.745518 -0.320479 95.499138
1.774936 7.954032 108.399246
-14.489563 -4.100831 109.972084
10.782198 -10.222104 97.615082
13.060583 -8.339587 98.032234
1.623203 -12.317611 112.883316
-9.522819 -10.224522 102.885834
-7.917370 12.370209 92.888344
-13.218069 5.659744 108.082855
-9.093424 10.896289 88.221428
-5.704443 -12.320943 109.813080
2.415626 -12.588647 108.399055
-6.349509 12.240504 89.819679
-19.222385 -6.058523 87.310432
4.963801 -11.553454 99.306557
15.192619 1.314284 107.096016
-18.264515 4.375482 91.733498
18.245127 -0.218605 91.291870
-17.986494 3.019771 95.695946
2.753685 -12.991267 107.720825
9.194947 12.386800 98.180481
17.463648 -4.566336 94.831284
-11.473643 -1.624472 114.669617
11.732795 -6.681407 114.913048
13.042190 -9.547977 94.299843
-11.876887 2.902597 115.227074
-12.378698 7.249174 104.163658
-5.172837 -10.095060 86.925865
15.159095 8.248915 86.366646
11.958131 9.735503 85.998375
18.774473 1.285590 90.243958
-12.790138 -8.130564 107.262794
9.680965 -9.566035 107.637886
18.143944 -3.028322 92.064880
18.500338 -6.842551 94.610321
-19.072184 -6.115506 89.075821
-14.596198 9.068707 86.335144
15.362139 -10.015594 90.289658
11.979445 10.428426 93.588036
12.642695 -3.556577 116.045006
12.802722 -4.028981 110.835732
-18.112911 -1.260369 95.550003
-7.260324 5.073086 115.556091
-11.544484 -7.154919 115.179916
12.640424 1.942406 113.689720
17.663456 2.276548 98.191750
13.283612 8.484298 97.500969
-14.734081 8.756431 96.324493
18.417164 4.135782 87.804138
10.486673 -10.274783 88.183907
-0.019213 -13.811839 105.802025
10.232573 10.863224 98.667007
1.761676 -9.136405 86.095680
-1.237147 -11.740621 98.090096
-11.081992 5.963591 106.429405
7.684489 -10.715091 82.472984
15.856368 1.515887 105.828484
9.649693 11.947787 89.223045
-11.966485 8.106818 86.324089
6.609975 -10.601639 112.999916
-15.653441 0.667659 106.444794
-9.964780 10.106791 103.909935
9.616635 11.702904 89.525482
-12.552638 0.474533 111.585342
-5.355882 11.082938 87.736954
-14.491390 8.551617 94.799080
15.829198 -6.374815 94.299690
-15.636032 -0.733657 105.138931
5.530189 -11.965651 102.252983
-12.622754 -9.000159 105.145927
-18.280203 3.767480 91.343994
3.298781 8.273110 107.544365
18.203640 -5.016591 89.581429
2.234223 -11.421828 85.638931
-17.244646 -10.108989 84.728821
12.835474 -10.195528 90.735168
16.694035 -2.949181 105.073547
10.414908 12.404220 97.206810
-17.605795 -1.766808 102.650139
-9.784245 -9.525170 112.638947
18.321320 -7.360889 88.727051
7.226889 -10.660752 88.118019
3.630147 -10.294731 84.883453
5.439174 9.839396 104.806389
-0.328361 8.776587 106.757240
11.085094 -9.450799 91.717201
-11.570878 4.812405 109.202484
13.657304 -7.964113 108.821823
-10.364532 11.950649 90.802933
-2.360249 -11.809866 109.631004
-3.378627 -12.408260 108.504700
-20.046909 3.004344 82.096733
8.156276 -8.532927 110.941383
12.062709 -7.143621 111.202034
-12.397763 9.836405 89.550316
-16.364380 -3.221314 104.558693
-11.217392 0.380314 117.084503
4.407064 -11.514733 100.099503
-9.992281 -9.261410 92.051186
-4.673806 5.769108 112.243446
7.314866 6.268588 111.191422
7.730237 -9.338229 88.185623
-10.215180 -8.601583 100.982101
-12.141805 13.161039 93.388153
-1.038253 11.302320 86.643105
5.463191 -10.904391 84.257324
19.386681 -5.058963 85.785065
12.878635 -3.024310 115.295326
2.752183 -13.138418 110.969208
-6.816297 -9.381276 81.871490
-20.065449 0.775044 91.581421
7.189017 13.272662 93.163948
18.030451 2.195886 94.507370
7.244337 4.297547 116.405006
19.620296 0.739922 87.929482
7.375502 8.281307 106.794899
11.441522 10.175707 95.158173
10.996026 -1.614651 115.897682
-9.058927 -8.386092 92.932991
-0.266373 12.803288 90.618446
-9.718008 10.679171 86.831055
9.928199 11.345402 88.512215
-12.417982 -9.533180 84.446068
-17.115774 -8.652852 87.455009
-4.932409 -10.515290 89.278107
-18.012606 0.260949 93.979546
15.729062 -3.469039 105.144493
-3.947029 6.720780 111.856163
-13.022015 -8.122725 100.315437
5.912084 -10.325000 91.759277
16.852852 -7.293718 90.659111
-7.654214 11.347313 100.460373
-10.179497 -7.868533 114.434349
8.346191 -10.126261 102.965691
5.884541 -10.614862 94.057114
-19.556162 3.241601 86.369858
19.781229 -3.877546 87.744514
9.562342 -10.208327 103.847267
10.137068 -10.940596 99.737328
-12.891201 -7.452348 101.355835
3.696430 -11.613411 110.444344
-1.081913 6.768467 110.263115
3.692087 -12.210925 98.187149
-14.926478 8.065885 90.222961
-7.167682 -10.371577 87.003960
7.959147 -11.070177 109.364868
8.198385 -9.539213 96.854691
7.125257 -9.597631 86.863815
-15.043788 5.163983 98.421211
8.667654 9.471456 101.631645
7.815578 10.819890 86.249931
-6.531524 -10.318903 86.558853
13.999316 0.124475 110.056854
13.051223 -8.133325 96.383499
-12.202385 7.701320 86.770241
1.472918 10.591119 100.706886
13.074343 -8.239676 101.496468
11.357303 -9.400100 84.939445
-19.158560 3.038600 86.603790
10.277522 -10.288321 100.281258
16.520245 0.045602 105.236115
-17.884689 7.029625 89.209793
13.777441 2.950196 109.097183
-10.673776 -9.505280 107.174530
-22.741268 -2.564314 87.230042
-12.056635 -9.059800 116.937714
10.886636 -8.709485 103.371620
11.979019 9.177788 85.188843
-12.755754 -8.715789 107.188416
18.702482 -2.294652 92.815804
-14.914601 8.633015 87.433479
14.022324 -6.935776 97.008713
-8.929495 -8.483997 115.798363
13.816645 -6.590000 109.643066
-1.986747 -13.104074 101.267197
14.586755 -4.207130 109.590050
1.036683 8.774930 106.026161
-18.266630 -5.746527 91.657974
3.205686 -12.746606 115.318184
-21.201424 -0.898723 86.659294
2.077790 -12.728069 110.170258
4.173565 -13.038750 110.061310
2.635287 -13.326779 106.688690
-12.439753 -5.835321 114.969154
-12.710544 8.953258 99.268661
-7.054793 -10.593082 103.871712
10.768881 -0.773218 116.074829
-1.387689 -9.790543 94.426788
-7.104840 5.106471 117.734894
14.413938 2.678577 104.313148
-0.905491 -10.470748 88.841080
-19.344244 -4.906044 89.489632
3.213050 12.460276 90.707756
11.595228 11.606987 93.285995
1.654700 -10.987827 100.724335
7.390863 10.963266 87.716026
-10.482925 -10.536282 88.183189
-10.846272 -9.283727 95.375610
18.091393 2.582200 96.898743
-0.346394 -11.779294 104.981010
-19.836870 0.816957 90.146477
-16.169628 -1.375311 107.084053
12.948858 -9.044783 95.330521
11.807077 -7.569267 113.655731
-7.008768 6.756868 108.905472
12.213709 -10.033957 96.063896
-2.127514 6.083735 113.406502
5.367471 10.882859 86.425316
14.085730 -4.890777 110.029922
-14.119463 -10.992895 87.158539
11.158544 -9.834328 85.082275
12.416203 8.956056 86.151093
-2.250113 -9.780041 93.081383
-7.992809 9.214478 103.440041
-12.420938 8.183408 101.792343
-8.864170 11.748096 99.294525
-10.737407 3.567488 113.276779
-16.522518 -2.862038 103.136040
-9.309238 -6.533702 116.709984
2.306292 -9.806750 90.545647
-1.119233 -11.274089 99.129112
-16.914373 4.206549 95.351784
-16.569475 -6.098888 100.380424
9.454007 9.211162 102.483948
7.923058 -9.206884 114.685570
-16.231861 -3.504574 103.197395
-4.227769 12.818030 97.698326
-7.223094 9.629494 104.182053
1.850272 9.985966 86.037170
16.305876 7.818847 97.181412
-19.635723 -0.856901 87.698845
-2.846345 -12.932865 107.922615
6.121008 -9.980944 89.988487
-3.484822 -11.334584 101.735268
-12.007866 11.426009 86.662529
-5.309734 8.150782 107.199425
-0.021961 -14.071587 115.797104
16.333540 5.942118 89.946236
-14.502399 6.431008 102.100235
-12.539298 -10.332490 93.908928
11.358692 -9.841794 99.421280
-1.169212 9.935437 103.585228
5.563057 -11.094566 109.787613
-16.967934 -4.146530 102.897156
-13.108088 -8.252908 109.449646
-13.358836 2.807485 111.388062
0.583176 9.337443 105.340111
-4.390794 12.326009 90.328659
2.352810 3.664851 117.649933
-14.557463 -4.448455 107.958794
5.396170 7.926050 107.284973
20.089912 -0.625161 92.683983
18.418137 4.103512 87.150726
12.893696 -9.033879 97.246635
-18.456053 1.654515 91.799759
16.391441 -1.757896 100.732056
-12.054683 9.021660 97.207909
3.702183 -10.310779 82.838387
5.260245 12.220711 98.801346
-16.078354 -2.263738 108.780060
14.406569 -6.276916 110.229904
11.506882 9.791942 87.187912
-11.948757 -6.132930 115.544273
-9.835000 -9.433702 105.776848
3.018101 11.538007 88.697426
14.674484 -4.111946 104.443993
-12.005795 10.533531 92.337891
-14.602808 -9.774128 84.494209
-9.044914 13.165704 95.485367
0.586798 -10.277575 96.285156
7.495410 -11.038302 98.852798
-3.112902 12.959813 97.758278
14.580066 -6.512704 106.574852
-7.096858 -10.481446 99.942307
-11.485838 -6.792980 112.019302
-12.817575 -9.502405 106.731224
-16.995678 -5.658812 100.609680
18.871595 4.680967 87.099846
1.763667 7.719343 105.913902
14.533206 7.513792 100.839645
-7.935427 12.536980 99.259781
-1.366169 9.718368 106.035316
17.294914 -1.464243 95.847145
17.409836 -3.621712 95.909996
0.527517 11.834796 88.966728
-10.864494 2.398469 112.987419
-5.188648 13.360851 91.566994
