ply
format ascii 1.0
element vertex 2048
property float x
property float y
property float z
end_header
9.274326 -10.266938 89.847588
-10.306698 14.750806 130.196884
-9.596784 4.978573 147.405914
20.139061 -3.421477 81.577377
17.489674 -3.029086 109.287430
-11.204455 -9.746989 97.782249
-9.507728 -11.503071 130.154404
-12.950142 8.535016 46.875130
0.340479 -12.718757 111.973160
-5.728791 15.432514 137.134308
-16.516260 0.635975 98.528419
-12.026206 14.000547 131.013657
2.507320 6.793369 110.202415
-11.415792 -6.865182 71.213158
17.979122 -10.624637 74.797775
-2.391989 -14.973837 131.043350
16.670332 -4.184865 134.942123
-5.747987 -17.920933 142.217102
-3.556628 -9.396740 85.353966
-13.226007 -11.717565 135.960129
14.236174 5.210194 102.803093
-2.946343 -8.070935 87.029732
-11.389166 7.246800 128.923019
19.799126 -3.583560 87.138283
-4.487957 -14.795328 121.831680
9.178178 5.109128 122.906990
-17.164570 -5.399817 143.841324
19.665930 -3.786723 88.476845
15.807729 10.130667 80.270576
-10.337950 4.737045 153.403702
20.057285 2.866262 60.428802
-2.611262 14.692683 146.812286
19.727396 6.612922 87.341469
-0.488623 -7.657827 72.353981
-9.634669 9.887033 151.656723
1.089739 -12.430162 126.689415
-8.029358 -12.468379 109.877548
7.122655 -6.555644 56.535751
-10.941671 -10.003025 119.033119
-9.199380 -8.720704 92.690125
22.642601 -1.643269 74.039383
-16.428726 2.995744 152.622528
10.894957 14.660154 139.027542
-18.046326 6.432754 47.949814
4.107802 8.051906 64.716713
-14.115827 -3.652055 41.317112
13.378565 11.148115 53.643101
17.830494 0.037834 62.408752
-19.490587 6.081887 86.844559
5.207534 9.524582 107.202736
-15.540320 7.431547 61.929478
-4.612794 10.560478 74.027382
-8.126690 12.125648 130.599670
-11.464495 11.263907 151.796921
-1.650543 14.224624 94.360771
-0.284377 -7.971992 69.493530
-5.820104 -10.414252 136.500977
8.662437 9.100653 73.978096
22.298235 -0.959855 88.674370
-11.444130 -8.394117 64.001732
16.565392 11.612641 45.655678
-5.875230 13.985355 139.966583
10.664730 5.585993 124.584862
4.746587 -11.549384 119.718864
-9.894746 4.829438 152.665268
6.977742 7.735036 106.403572
-9.192034 -10.809713 102.030960
-1.425156 -13.695807 123.892525
11.636108 3.121968 132.742981
17.319559 -3.849886 99.433731
-10.183931 -2.259920 145.722748
-10.211779 -14.963258 133.348068
-1.086912 -7.540615 72.308464
-6.587883 -11.751534 142.596451
-13.748833 -7.260649 75.353119
-1.725889 11.702933 142.710358
5.151450 7.435214 121.842377
-7.612489 -15.588643 143.677673
17.434322 0.712728 44.703152
14.416668 9.707341 57.669727
6.634446 -7.795062 72.954514
10.798261 9.514725 101.362686
-1.377653 6.213261 116.835030
8.476172 11.075968 92.990410
-20.361317 -3.829607 53.092636
-19.867868 2.011227 60.301682
16.262890 -1.129185 141.306427
-20.952559 -1.229744 68.155586
-16.356272 6.643734 72.971252
15.318007 -1.085695 48.294746
20.100132 -2.801827 89.032761
-5.591569 14.951639 145.718231
-13.013406 -7.958435 96.801559
-3.201083 8.432115 100.649857
-14.158613 -2.349157 53.071270
-3.418952 -12.768764 123.673691
15.630523 -4.028358 56.415649
15.665602 -4.563985 56.615784
15.051601 5.803943 82.275482
-9.544933 9.147717 56.202087
-3.399180 -8.952017 73.740570
4.061379 -13.781856 121.340828
-4.455792 -19.596710 128.200256
-3.822556 -10.761253 83.528290
3.563712 -12.664504 116.014351
1.569961 -7.187011 42.692818
4.442570 4.501098 113.516106
6.309781 8.857539 70.159409
-12.109238 -5.017848 140.766800
-18.421709 -3.838484 50.142483
-10.749848 -13.328223 142.351669
-2.369555 7.836531 104.638908
15.013754 5.840740 97.223053
-14.042030 -7.282620 151.496841
-5.101356 9.566070 150.658752
16.662828 -4.441770 58.562500
-2.735789 -4.534646 54.333492
-23.102476 0.268304 85.684662
-17.077347 5.535290 69.062859
-3.528766 5.289631 122.144691
-13.461936 6.029308 129.859619
-9.188830 9.275032 148.719864
2.504926 9.933870 79.872177
-10.976572 8.363491 152.446808
16.496452 -1.967015 91.143806
1.521078 -9.793522 70.690727
-16.956112 -0.081936 95.237175
16.934401 -8.166204 73.196861
-7.739420 -5.759373 66.199860
2.186128 -4.271925 44.272736
5.235118 6.762316 112.658218
3.419619 11.343848 42.769901
-16.486494 5.666502 90.836601
0.230879 -9.827070 96.216156
7.236519 13.688631 133.653290
1.678753 -15.358497 126.360725
9.197425 -9.526036 74.550003
-8.358050 7.328834 61.629539
9.107911 1.805125 117.990974
-10.153530 -4.055641 147.891022
-2.201709 3.435284 112.011917
-16.086126 -5.076799 45.345146
-3.565948 9.830729 103.833420
10.335693 8.787345 46.786045
7.025816 9.659984 104.036545
-9.549949 10.307813 131.777252
13.528450 10.955439 79.875603
6.222250 6.781860 66.796280
-10.358603 -7.983284 119.465508
-15.265437 0.472814 134.926956
-7.294771 13.792747 135.435196
8.844007 -5.801387 61.304768
-9.867948 -9.629937 84.395195
4.773327 -3.747503 49.546574
-11.462974 6.077384 106.893135
-16.118876 2.655629 101.322952
-14.201704 -3.504124 115.320839
18.623453 0.429971 92.889404
-7.994547 -10.988865 90.093422
11.301355 -3.673557 50.091007
10.345163 10.261967 49.308971
0.995781 4.863090 109.741356
-2.790664 10.834492 66.510635
-10.005796 -6.582861 51.724167
-7.045121 11.084621 55.828594
-13.535797 -5.572869 58.894161
-8.450665 -10.540323 80.182556
19.153154 7.149106 80.524139
-14.497457 -5.997562 142.989136
-5.769785 19.111969 132.148636
8.118167 -10.420697 82.473862
-4.703753 7.885293 62.755493
10.646953 -6.448124 115.805801
16.041084 5.868517 84.557495
-9.075644 13.318043 150.191254
-6.121768 10.485637 91.103706
-7.746143 -11.080089 140.741028
-8.919376 -8.810457 118.061829
14.868618 0.879837 105.707474
-3.734159 16.080011 149.951141
-1.920492 -13.654469 131.089706
-4.245923 17.337862 129.426956
-3.759692 -17.459229 137.071426
-0.402422 -13.750229 126.621445
-14.070205 5.277567 152.114395
6.543266 -12.328624 102.206093
-14.513719 4.278485 132.298752
15.325594 6.273638 84.400063
-4.720357 -13.370074 136.882141
11.227757 9.012967 66.762833
-10.023917 11.430397 102.261841
-14.323856 8.149789 97.805695
-5.927596 -8.024379 89.652695
-18.479202 -10.795650 144.628922
7.853141 -6.661112 141.420959
-4.326861 7.570658 127.565125
-4.109961 -12.377539 117.162773
-13.394764 -6.735914 59.542671
-4.986606 12.442927 93.615143
-7.864018 -11.462492 140.945618
-6.937742 -14.158093 144.358444
-18.697544 -2.522048 52.153133
11.770757 6.908474 64.249733
-11.173306 -1.883558 147.445526
-16.211617 -7.364273 71.359230
-9.103580 11.535024 151.337631
20.044878 9.264708 46.638912
19.907772 -2.280401 54.005539
4.344474 -9.268821 67.876152
-15.899286 2.171256 127.545517
-19.810968 3.091114 80.220383
-8.919129 17.202126 134.904343
9.736961 8.977660 86.663307
7.721802 3.477167 152.820755
6.813094 8.469750 86.132462
-12.580661 -5.473815 126.234482
-16.693329 -9.435110 79.335670
6.310570 -6.115851 58.694061
-12.164801 6.336893 127.029533
8.379082 -11.454122 87.660141
-12.327862 -3.819370 141.570496
8.759698 8.005466 64.160347
-13.406975 7.870282 70.721779
-4.594213 12.381295 146.556137
13.015389 -1.575417 124.066872
18.610641 7.902142 50.022274
1.631046 -18.498034 122.721680
-4.794827 -6.960885 57.103191
-12.836125 11.098885 150.071609
17.792431 -8.031817 89.209335
12.657997 -10.650454 72.162369
10.272762 -9.217077 106.749420
-12.191392 8.486775 100.600746
-17.262762 -3.320112 54.292366
-6.631476 -7.930470 143.881424
-12.608708 -1.507542 150.819412
0.917580 16.065210 138.700684
-5.511722 -16.242931 127.299797
17.588490 -7.855767 103.733002
-0.722299 9.831273 130.117203
-9.032911 7.163765 118.409210
-11.290216 -8.628851 66.959381
-16.328924 -6.799500 98.520706
1.945779 -14.838941 133.669724
15.634780 -10.636283 92.400780
14.406713 -3.798215 111.765114
7.313545 -9.439733 78.798470
-1.680040 -12.368975 124.677879
-12.219652 -11.782001 74.414368
-18.585024 -4.175163 92.331841
-17.904436 1.103560 51.817276
-8.982192 12.339771 136.939804
-18.809132 -2.915600 87.269608
19.879908 0.728313 68.540764
-14.416124 -1.533534 124.616699
-19.892433 6.903751 76.760025
-10.867642 8.325996 155.292160
1.409019 -12.040503 118.256607
6.578157 -10.390298 123.779839
5.953752 11.934423 48.569263
7.956999 -9.795906 72.588837
14.874452 11.458553 91.574364
-16.033947 3.437500 151.700516
-12.931426 10.365204 52.239540
11.074698 -14.917528 130.072601
-1.369852 7.061495 70.373466
-14.024381 2.486310 129.223557
-1.607744 8.193805 110.724289
-6.937454 -7.887015 74.354424
12.337317 -0.439776 148.026123
13.385658 0.538983 136.192932
-9.557258 8.668209 155.898224
4.259947 -14.145742 126.830017
-5.488678 7.061399 110.228821
7.820941 -3.933939 144.087128
-11.905811 9.421459 150.087128
7.397099 -11.121491 120.749695
-19.986267 -4.847829 63.188507
15.586415 -9.041446 104.083221
-11.125157 -13.005869 131.062256
7.260608 11.256944 49.427914
16.679176 -1.925229 139.388107
-12.602958 7.115950 96.951958
8.288762 -9.957396 75.840637
3.736083 12.715041 97.733330
-13.819110 -4.969440 131.206940
-16.557035 6.348855 78.679703
-17.859419 -5.995127 64.556969
11.575599 7.338160 131.329330
5.925839 -9.439679 100.931755
9.591728 7.220018 107.313164
18.533188 -0.474073 53.031460
-3.150170 12.825586 140.645477
-13.715039 5.200299 136.791977
-3.023687 -9.540723 90.487877
10.467114 1.726226 113.323845
-13.789764 -4.323216 57.497498
-15.741941 7.953343 92.113457
-7.914006 12.691685 146.976425
-7.508996 2.529309 150.251083
-10.804852 -13.174157 145.797318
-0.242961 -11.750366 126.425919
20.543148 3.346947 47.786083
-8.981274 17.045078 145.340225
18.170618 -11.453635 87.431053
6.838422 -3.112298 61.152817
-8.860474 8.968890 79.210159
-18.090193 3.615408 74.513634
-4.637304 -4.472918 60.308804
11.457367 4.879496 110.806152
-14.265786 -0.933389 151.641205
0.811533 -13.349539 130.662918
-6.737087 20.888857 131.120575
-3.636507 16.172178 132.180893
-17.603687 -5.147117 64.302940
-14.099237 -2.304629 52.238983
3.362637 12.530486 142.444229
-3.186105 -12.259337 117.619431
-9.376904 -8.717499 138.226227
13.084426 7.444365 77.014046
8.699138 -8.357036 98.482849
7.354205 7.489282 68.561592
6.186045 -7.554052 66.519073
12.318830 -2.966803 121.903259
10.888652 -9.376854 71.450867
3.096043 -10.364569 78.528015
-18.861372 -2.972399 70.349388
2.835203 12.250422 129.554123
-18.112738 0.849575 86.055313
-12.729040 4.065846 153.585892
18.686081 -1.742937 52.943855
14.747804 -5.885484 132.396210
-12.655679 -2.791392 140.302170
19.244890 3.712378 80.450676
-17.119434 5.567594 56.393509
9.011077 -10.834102 84.291794
11.976902 9.139221 92.628983
4.554713 -9.660231 103.079445
-12.126971 -8.687269 143.841843
21.288681 -1.965516 68.857712
4.841981 -14.593295 135.303787
19.733084 -4.957204 73.405121
-9.663611 8.968598 102.235771
-7.427621 17.633009 134.914398
10.107938 6.790291 104.794937
1.936648 13.153230 47.814560
-14.234408 6.089746 152.005295
17.487028 6.005839 93.017136
-7.754362 -2.602464 148.687057
-3.156562 -16.402914 133.865662
5.051108 -13.099491 127.742157
17.641720 9.550110 48.751263
7.792850 -4.661891 56.720322
12.603528 11.575807 92.710785
-2.863431 9.454646 45.359871
18.773909 -6.939674 68.044563
-0.799471 -8.566045 81.121277
-18.838619 6.636294 76.734375
-11.682306 9.100455 86.437149
0.797508 9.601848 125.443878
12.560467 -3.899573 132.087662
-2.379404 6.559544 107.594009
-18.548397 1.088294 75.112427
19.306545 -2.992115 44.357449
14.886996 -0.181190 106.476501
-19.941135 -6.094084 81.315620
-4.214105 15.079389 141.836670
-5.980190 -19.948290 128.327301
-6.997267 -8.304953 127.010101
16.221079 4.967276 80.180870
-7.086318 15.691641 131.017792
7.798770 9.343409 150.782227
8.451239 -10.819491 98.690765
-14.538072 -2.954077 139.307892
-19.316313 5.368208 67.751869
-15.093253 -4.123566 52.497196
-10.592297 11.519922 97.289459
-1.293010 9.576290 82.087242
6.269181 10.597281 151.423950
17.476477 -6.296799 85.134834
-13.898214 -10.351474 83.186798
16.272593 -0.195186 78.362755
-7.044631 -11.934623 122.713730
4.185545 -10.761894 116.878632
-6.597463 -2.468180 150.685532
-14.362202 -2.378577 150.814240
-13.618102 9.210036 52.173954
15.277409 9.188220 73.235596
-20.185513 -6.891808 87.904106
1.735795 -10.982347 75.940475
15.954138 10.268070 85.765816
8.139915 -14.179441 133.666718
-12.582215 6.527936 128.827255
-8.574867 6.671084 150.334702
1.629473 12.760454 93.873184
-8.671223 -8.567781 78.563164
-5.078901 -12.721428 141.761597
22.635729 -1.168274 82.215401
7.672182 -11.626064 125.172363
-13.229413 7.065813 70.117203
10.438950 10.905986 48.631496
8.898961 -4.329583 146.600998
13.118361 9.702213 41.080284
-17.345711 5.476950 149.186447
-13.122229 -4.207685 150.168884
-11.836775 10.756392 153.561279
10.578652 -7.873139 114.913567
-18.950747 -5.778887 85.193214
22.850513 -4.064501 82.834137
-4.125194 -12.609509 136.558319
-12.732660 -10.289326 74.725952
-9.928481 7.827249 128.229385
-16.237610 0.635912 132.950760
-10.003778 13.338348 133.896835
18.955908 9.896654 79.828583
0.148860 13.660163 140.024185
11.719391 -5.945595 63.002914
-17.195436 -4.497073 137.777679
-17.004944 -2.028028 154.394363
-7.359893 7.384116 153.762268
21.084225 3.833149 48.394531
-10.307962 -18.871300 141.633911
7.908978 10.038798 47.409191
13.398939 2.186291 99.826485
-9.368639 -5.272277 145.083740
5.069070 9.123163 77.058922
18.190798 9.413855 48.793915
-18.134428 -2.009955 55.173149
-5.142208 -4.067406 50.264229
-11.893732 4.909035 153.206818
-2.498230 -5.256225 60.218231
-6.173288 -9.466119 142.901566
21.524773 0.456815 70.131035
18.448139 4.257750 88.346191
8.615652 -8.314857 71.633377
-14.555871 -3.308267 129.453796
-11.516539 -8.653646 132.039642
2.264669 -13.784466 136.697754
18.865404 -6.384430 85.819107
12.994083 -12.632913 134.345795
-2.389165 12.903366 48.614647
3.490727 -5.345432 46.240257
5.150632 7.694176 98.767914
-19.315557 -3.890128 59.663845
-8.121959 0.669776 150.466705
14.126440 2.729391 110.188675
-13.234593 -1.557995 145.751129
9.960155 -8.439903 135.944092
10.175528 -3.939226 47.357452
14.372123 -9.470139 65.156685
-11.281097 10.593054 151.237061
-3.722563 8.880184 100.713417
11.394491 -4.374931 52.647526
20.729601 -4.582379 75.935028
18.958258 6.721028 53.588356
-8.453839 12.575052 142.579697
-3.333612 9.851562 88.691650
-13.399077 8.829943 153.068039
-17.941000 -0.267720 46.969524
-9.547781 -8.740066 142.194504
-17.914413 5.193556 87.807281
9.159377 -9.529286 138.674240
-19.629911 2.807881 48.987133
-10.008903 -8.617297 139.834473
-22.225992 8.089777 46.883335
-12.301532 10.568871 135.081589
4.696116 10.076982 97.833397
-11.910574 0.012829 150.715591
-6.294224 8.963075 75.069290
-6.564479 -8.564137 89.148621
-13.486941 3.727630 103.095474
-13.332384 12.416149 143.048172
16.169947 -7.810657 92.651543
17.956339 7.684979 73.310448
16.889883 -4.944823 95.952263
-7.983359 -4.295357 147.236984
-8.399257 8.314425 150.857620
-22.361753 -0.613907 44.172161
3.082860 5.932874 116.283417
-10.574421 -7.156129 117.800224
-2.307200 -10.482585 81.575264
6.595453 8.676386 67.512703
-5.446129 4.926924 119.077950
8.588236 13.152017 142.629150
-4.836744 -11.875395 127.105576
-9.515734 9.936357 50.374794
7.103166 11.305362 135.779709
-2.945915 9.321600 156.428558
-3.203201 -14.399558 126.879501
12.566848 -3.340012 138.517502
13.363664 9.091124 99.383217
-7.421644 -1.086714 148.417023
-10.407260 -19.348404 130.168472
-6.044785 -20.969904 133.791443
-21.451700 2.819692 64.274460
0.773908 9.589154 86.867096
2.492365 10.531605 93.415489
-12.744104 -0.751718 144.754791
-7.851002 -9.995502 97.110519
-13.930285 7.424911 60.443741
-0.271455 -13.670107 132.256851
19.441778 3.630942 76.636726
10.929712 3.695622 119.920784
3.039227 15.116147 144.449631
-7.705532 1.703827 154.135437
6.794512 -2.601923 51.664471
2.433005 -10.049758 82.605797
-13.255322 -13.621744 138.370041
1.405146 10.051177 73.189766
14.600090 -6.380709 134.385086
-0.279721 14.112890 136.363480
9.957306 -9.686489 108.762482
-8.787214 6.888958 68.921051
2.428002 -12.887908 110.993134
-2.095526 11.588633 132.961563
-15.108545 7.713851 79.417625
-2.036287 13.384541 93.399628
11.131768 4.320917 115.002838
12.789703 1.870938 117.278778
-15.406007 -7.848181 74.767586
-0.959668 -9.548626 123.830666
-0.427033 -8.969241 64.953735
15.046989 -0.548409 45.786690
-2.335841 12.849072 144.634521
15.123168 -11.196592 83.704758
15.341546 -5.512239 57.204983
14.921317 -1.916246 43.040657
-15.828087 11.072010 132.365402
15.322255 0.694961 114.290436
14.081984 -9.080954 92.196373
-11.350446 -2.722895 127.758186
-3.402880 13.254579 142.025436
14.012081 4.847930 136.979996
-4.921675 11.149633 85.183624
-18.277813 6.895472 87.911507
8.428685 -10.600832 107.285477
18.441368 2.932464 86.109772
-8.316853 6.328600 126.097961
-11.882715 11.958068 128.538605
-0.598995 -13.329240 120.944672
-11.075942 6.964676 131.868042
-7.178583 -21.198143 135.619339
-6.463715 -7.823336 145.140427
-16.254250 -10.278272 69.024879
-12.470900 -7.287597 120.751274
-9.412395 -4.367201 150.452164
-20.809353 3.770380 93.516281
16.741058 6.281842 97.072350
-2.067902 14.856599 142.491837
-1.136443 -9.792318 99.192947
-7.932209 7.816573 153.644409
16.971556 4.367413 90.088348
-8.033329 -7.350307 75.549942
10.072257 -2.693647 47.153687
3.093403 -6.052662 56.218662
19.459824 3.157558 78.774376
0.367511 10.472237 148.730087
5.500338 12.148619 91.412041
-8.633569 13.150776 149.430450
7.758641 8.949180 102.559044
0.175697 9.865558 88.682236
-15.952015 -6.286110 69.535767
-9.598996 2.639234 151.796265
-4.539524 -13.138217 141.939163
6.558372 11.985324 90.885002
3.984921 14.824072 98.019562
-5.238681 -6.317649 66.140198
15.970770 5.756891 62.642929
5.318372 -7.934453 92.447174
-11.693894 -11.472641 75.017738
-12.662642 7.744332 67.312866
3.031261 9.508736 73.408058
-14.756608 3.735462 152.133255
-7.520555 6.721346 56.575378
-12.529800 5.585984 149.242493
-11.344966 10.310278 129.896530
10.009048 -8.917131 119.221237
-11.411421 12.820612 88.361984
11.315926 -9.469137 96.459724
-18.128786 8.111915 83.543144
-6.095658 13.160331 88.663048
1.756664 -8.495234 75.376755
11.579594 7.738289 129.484238
-2.904170 -14.239546 137.607315
18.756733 4.599511 54.504036
-12.572685 -4.532735 140.805450
14.457660 -9.410112 97.191483
-16.621914 -3.883605 56.221828
-11.343576 -10.875313 84.407173
-9.410337 3.513400 152.933517
-14.413681 -1.181149 105.121490
0.801063 10.394123 104.959534
4.977273 9.791037 66.427605
12.617748 -9.885039 134.994110
12.261164 -10.431309 75.617119
-3.020814 -4.864115 50.518574
-8.399519 5.392517 154.659943
-22.010336 2.615696 74.814896
15.300090 -4.323472 132.553299
10.801996 9.819764 82.471138
11.925385 0.275072 127.785614
-4.884295 11.704218 88.825264
-11.207758 -9.786728 73.487770
14.336882 -5.811553 121.292450
0.662982 13.028016 95.597916
-12.046492 6.003126 72.211914
-9.784807 10.971388 129.862610
13.624326 -2.241483 128.969101
-12.316501 -2.024181 138.137390
-14.592186 11.546991 149.326370
8.251985 -13.111967 127.871437
-13.010474 -1.241151 124.314980
-17.157000 -9.551274 93.397644
-14.331650 8.263488 57.093613
12.515759 -10.688983 78.243484
12.132660 -8.284454 77.498672
-9.993820 11.192284 152.804901
-5.455521 15.367441 149.561081
-10.177894 -11.776235 105.425850
-18.814991 -4.611294 59.810799
4.236227 8.330366 59.573307
-15.889805 -1.786855 136.702744
-14.887950 -9.121611 73.187576
10.633574 -14.721766 132.430161
-8.887411 -10.612010 137.573486
-14.193350 -7.562400 60.988651
-14.200499 4.948825 129.807968
-3.249597 -11.868539 86.208374
5.056192 10.506924 76.886887
17.292349 -1.877910 47.019192
-0.341512 -4.710831 55.809052
14.670899 2.984908 131.864258
21.489658 2.342752 58.966831
11.109549 9.206017 100.543129
1.906600 7.849943 111.149338
2.218152 9.502881 108.004715
13.470606 8.366042 88.688278
-10.181896 6.730582 127.106796
-11.469565 8.129405 124.381577
8.710328 10.346186 48.769890
-0.750532 18.254967 144.245544
11.416780 -6.234509 114.509850
-3.988638 -10.312907 90.822952
11.564857 -4.383105 51.710484
19.261473 2.150730 77.388138
-6.004663 -12.362106 115.418556
15.561304 -6.857943 67.183884
-16.027304 -4.395394 104.574036
15.699423 -3.192117 136.543655
-16.227818 -10.289744 82.208183
-8.620433 -10.912316 127.254967
-0.063132 -13.969076 132.336105
-13.278679 10.607634 152.786514
15.093940 11.203526 93.699883
-2.806124 9.604239 127.350487
-20.087851 11.903988 45.757980
4.692858 11.581851 141.656387
-9.376893 5.151474 118.043755
-6.013992 8.387566 74.810059
14.737139 -7.139659 90.632362
19.626007 -1.356777 47.990711
-16.086040 -4.937325 73.308113
-15.445539 8.684329 73.561890
-13.330618 1.931972 151.352676
-14.302517 -7.193531 74.316658
0.431160 9.157968 149.962189
14.537857 9.045561 53.835583
-14.851450 -9.257339 104.424232
-8.960323 -10.419256 120.962898
-9.059702 1.476779 150.161041
-2.539855 -8.496809 73.453362
-18.059816 1.474235 92.854927
11.782984 9.924322 56.056847
2.807141 -13.107117 130.816116
-17.333441 -0.572583 57.822323
6.417066 -4.578148 55.835419
-16.665560 6.246736 91.380585
-1.194072 -15.356657 122.926544
12.422938 -8.620082 89.396690
-19.667850 -1.833248 64.681038
-5.336986 17.415264 146.676697
-18.959324 0.868375 55.879276
-7.967365 9.464659 75.598747
5.285903 -9.100352 96.627068
-4.792599 -12.107497 116.644623
14.209963 4.219606 106.949928
0.316670 -8.444741 58.015575
10.458849 -11.714747 82.683846
9.343347 -9.505015 137.059769
-5.666371 12.515225 147.299408
14.014050 8.013248 96.612000
1.269931 7.927857 88.259598
-17.177547 -0.718873 102.085091
-13.524280 -4.503932 140.764725
-9.466412 -14.229681 142.805817
1.094407 14.147224 142.081650
-0.014333 14.210409 49.002209
2.384870 6.827392 112.431938
3.687708 -4.047888 47.894905
7.633047 6.782706 151.361511
-11.018360 5.423945 149.262558
-2.620536 10.970492 132.665298
-7.904336 8.497335 152.077988
4.812411 8.394637 105.624733
7.815243 11.058176 103.897438
14.105478 -7.699438 119.022690
13.324038 8.814828 99.564262
-16.207565 -3.782454 97.623123
15.621135 5.091461 99.896286
-4.642959 12.061389 142.901901
11.230427 -8.932943 93.305077
5.580550 11.854511 47.163364
15.744349 -7.308230 65.622063
-12.626493 -12.090715 135.426895
19.102507 0.216538 56.905586
-2.531382 -8.136469 88.608467
2.164237 -10.565804 82.794937
-20.366247 -5.846657 94.588753
-8.314575 4.236408 115.178162
13.833937 0.183782 129.490112
12.027498 -9.809941 75.930550
10.471583 10.680850 97.834396
4.814158 -13.737613 110.524277
-13.642597 -10.516823 95.765160
15.968569 5.275688 89.639694
-4.919056 -22.379688 136.876617
-11.232849 -8.730565 71.483093
-5.550672 8.292603 128.320755
-12.034834 -8.780675 114.590240
1.979849 11.688671 52.242073
14.507500 5.558204 95.873154
0.802799 -8.122317 121.563072
1.086764 -11.368711 102.447517
-21.895906 3.939709 78.296310
1.219714 -13.116040 114.989059
-5.119576 -8.768836 116.082901
10.143197 -12.463811 84.397339
13.419264 -6.209172 98.393326
10.703646 7.705093 110.194405
-10.893474 8.280671 47.867374
3.858446 -11.296584 91.463821
-0.151033 -7.902729 126.258698
6.531273 -9.061599 78.389404
-11.067799 9.482082 152.118179
13.547981 -1.264945 147.382492
7.879704 -11.356679 126.760536
-10.293148 -13.730928 138.360657
-21.366430 0.675080 68.118942
7.308588 -4.355968 146.729767
-1.673506 15.087724 139.651306
-12.172383 -7.084926 63.060127
-5.410717 -10.092936 140.886856
-12.708433 -4.481320 111.249763
-11.973680 9.591718 44.981735
9.337313 9.143949 99.355385
-9.556396 -8.689092 91.151848
-11.738186 -2.820512 114.265594
-7.275819 -7.117115 79.383507
-15.594629 -9.653082 143.551331
10.090973 12.711796 138.197220
-3.330676 -20.987030 143.084808
-1.629420 10.792346 103.874977
8.766929 -8.677924 108.989136
3.784083 -13.155241 133.419403
-19.403057 -3.107653 89.234444
10.533891 -8.062335 62.311642
12.336898 -8.223716 78.798523
-11.276891 4.664975 153.337753
17.094181 -1.427431 98.338188
-9.729465 9.181993 72.917297
-3.449386 -11.904797 115.500656
-15.787627 9.198780 46.787849
-17.242615 -7.507488 104.052956
-14.767143 7.261779 63.557770
1.901789 14.739103 140.452469
16.595343 4.463518 67.500954
-13.451378 7.591567 85.834435
-18.597454 3.686995 82.630676
16.781845 5.009139 86.835457
-9.011501 13.687596 140.713287
-15.819723 -10.370028 143.965073
-4.465908 -11.214555 101.684776
14.666766 10.104611 87.759132
-4.423728 -8.914204 79.324722
16.808392 -0.914324 97.373657
-16.629837 6.663423 57.050903
-18.038656 6.074113 62.581535
-12.648705 5.645214 135.796860
16.990694 -6.981046 64.743111
2.500009 11.207810 145.930206
-5.662201 10.334924 83.253036
2.471162 -16.639803 129.037476
1.798897 10.252289 72.549866
0.344042 -8.847868 71.153748
-8.097276 17.044462 146.923447
-18.719833 -1.379619 73.307480
-8.047612 15.047825 135.431824
-11.743797 -9.957585 88.301727
17.892372 8.254278 69.486244
-3.959149 -12.311459 106.745720
-17.483255 8.829201 48.311729
11.264051 11.456540 64.755127
-18.561186 -7.356782 88.609657
-3.346117 -11.168604 129.117294
-18.655462 0.642617 56.065292
3.629832 -10.738047 92.987686
17.840569 -4.688182 69.694283
-7.065473 12.695321 139.411331
9.141160 -12.580120 137.877869
-3.266552 -22.778713 131.223114
-13.763558 9.060495 79.482826
-14.268679 -2.918815 47.146042
-19.150265 -2.104552 42.178112
-3.595210 -10.436475 117.533806
-12.384863 -0.758602 153.269180
-3.554030 13.003030 141.883133
-12.160644 -4.640681 114.672226
3.743027 -4.160745 50.525021
-14.640400 8.138983 93.731194
15.164647 -1.303179 108.943497
-4.223537 9.719340 66.429985
6.660792 -8.235518 65.955360
-1.181181 18.245325 144.573135
-15.287424 10.578436 86.094704
12.324106 -1.054203 114.977287
-0.909531 13.323997 44.912373
-3.586670 -8.123591 91.781181
-6.396125 12.293086 92.202415
-8.574448 10.012127 79.137894
-18.089411 5.847034 72.036758
14.074759 7.297671 132.234009
-9.377176 8.257489 154.390305
-6.593952 11.887430 139.206696
19.950893 -8.676467 92.446571
16.525364 -0.273467 46.758709
9.970435 1.533114 153.803436
6.524966 8.474865 72.429199
-5.998287 3.565051 116.765617
0.966715 6.712967 126.849960
-8.613171 13.858490 148.968048
11.306197 -6.699498 124.912209
-3.198335 -13.036010 105.303925
0.755419 10.976234 56.733078
-6.926301 7.543574 126.178276
13.606766 -8.436518 78.735413
4.807410 -14.498101 133.254944
-14.771479 9.960067 80.712921
-5.981406 13.210488 140.093796
-11.009112 10.530323 133.685959
-8.563802 -6.722280 92.862717
-21.290701 3.846797 83.498131
-13.855512 9.257932 53.478889
-11.100414 1.840763 117.001778
7.705276 12.896493 142.117538
12.668292 -6.238606 142.590118
-18.313480 2.948919 73.699043
15.728088 3.056859 90.627991
-15.984210 5.967587 126.534729
-13.509449 7.814515 47.219948
4.384721 -10.120101 76.134544
-12.815969 3.828752 127.147057
-0.556849 15.438168 140.768463
-14.146158 -7.382818 138.117401
10.901921 8.161629 105.011559
-2.228604 -9.572351 94.334564
-3.023215 -13.555496 103.548866
-17.943087 2.447144 106.810165
-7.654183 2.053469 154.214218
11.550510 -7.007405 136.690918
18.505543 -3.963423 92.512337
5.693163 -9.293374 100.169518
-8.764724 8.613496 78.470749
-13.734735 4.816512 110.661049
21.826534 -2.787556 68.364525
11.420876 9.575316 73.296196
-9.365411 6.612437 125.830582
-15.565019 0.110557 103.241325
-4.675133 -10.556115 86.341164
15.082371 9.573988 94.913673
-10.535079 -2.825058 47.931496
-15.551504 -8.802830 75.637993
1.045190 -6.287217 49.555233
20.129137 -2.334191 63.464172
-7.809374 5.318976 156.697876
-13.211447 1.414466 138.401093
-9.720930 -8.276772 99.589661
1.477956 -15.090139 130.278168
-15.182181 -2.155200 134.211990
14.338557 -2.745124 140.285721
-18.491602 1.953612 96.357643
-10.794863 12.107693 147.199768
4.915754 -11.714051 86.724976
-4.510769 15.013405 149.778275
-1.503289 -10.036383 127.712936
0.929659 9.835004 71.554016
20.319487 -1.255529 80.910126
17.126694 7.052273 70.792152
-0.107123 -13.787278 114.910004
8.442851 10.895131 88.095955
7.691784 12.725984 145.486206
10.622748 8.386529 57.721699
2.267027 13.418983 140.314316
11.221221 -3.105260 57.728249
-18.586607 -0.378954 66.759552
-14.273164 2.849779 105.907623
-11.700701 -10.101540 100.035675
-4.507934 -16.090906 121.113297
-5.817689 10.625754 137.854752
18.846653 -4.741261 74.945877
6.081608 10.345539 84.191139
-3.532752 13.760814 140.077652
11.410664 6.348009 82.969688
0.801300 8.494581 124.201759
-19.698702 8.527356 50.126156
-16.744690 1.138454 105.112389
-9.980101 -8.149313 119.604805
11.967268 4.389637 125.282837
-12.514147 6.627052 151.080673
14.528316 -9.410007 107.600845
19.498333 -9.197602 88.842613
7.813370 9.577436 70.491203
17.076721 -7.152793 80.613235
-7.258448 6.567735 108.784683
-9.865078 -7.164663 68.000931
11.790892 2.756316 129.656799
-14.584069 3.819933 109.022293
-1.389447 7.845577 128.301498
6.772230 -12.058480 125.574280
0.889266 8.088421 68.391235
-4.205083 -12.171613 143.955490
-10.278824 -3.439318 149.505951
11.139988 -8.686659 68.464127
-2.019602 -13.268645 126.211342
-5.116559 -13.478021 124.297485
14.602692 -4.677469 52.817955
-5.610296 -9.469836 120.240547
15.865085 -1.782386 44.612259
-16.704596 -6.249644 102.803604
3.631030 7.286535 53.254902
-5.944856 13.612686 147.639404
10.876782 -8.715249 79.440216
-13.176047 -11.377006 85.426033
-9.967597 3.438233 150.161911
-1.747781 -11.999151 99.742249
12.287235 0.650160 125.834808
-19.952137 -0.366505 71.693802
22.194931 -0.003568 50.909485
-5.680515 11.862759 48.926159
-6.645328 13.959517 150.544830
-19.394688 2.590589 83.126907
-6.024667 -10.943489 78.439873
-6.037862 -8.186291 95.642136
7.655702 12.856792 93.131958
15.253406 -8.841696 131.536316
8.735932 -11.492083 137.644684
-5.387100 8.142507 104.952606
13.873740 8.024949 80.193390
-8.122172 7.200553 109.075760
3.335031 -3.050382 53.442745
-9.776748 13.372766 91.832146
10.550761 -14.321134 133.171555
1.780452 11.050959 133.943726
17.666605 -0.716155 99.817101
-8.001409 6.472285 121.896706
-0.246471 15.668355 143.317749
11.735838 -13.394174 133.334488
-13.246399 8.658861 57.821987
7.349756 -7.242057 66.747398
-11.042592 9.066175 53.462914
14.709474 9.131995 99.221970
-14.454193 -4.977580 123.964783
-6.797225 -3.618902 149.034180
-4.045209 5.663654 119.426163
-10.192172 -13.067922 134.124924
-1.626022 -10.672539 114.163826
-10.191042 14.333608 131.759506
14.871100 -1.812953 140.511063
-18.515150 2.323606 89.011620
-16.458746 8.646933 96.044945
20.708317 -4.079385 58.328541
17.446882 7.164151 50.835800
-1.571021 -16.790100 126.664246
-13.413953 -9.561272 130.820221
13.184892 1.675575 109.446404
-14.514544 10.191422 71.925934
2.315263 -6.446980 60.994816
15.904587 8.094079 86.791252
-8.614701 9.282157 156.003311
-16.984106 5.492825 84.446808
-16.420313 -1.539987 59.697529
11.619591 -0.733720 124.207100
-8.002552 -9.568221 94.279808
4.403961 8.236457 63.405201
3.378489 11.539666 89.148453
-14.532370 -9.400724 130.555206
-3.649851 -14.765689 134.482239
-8.602058 -15.352227 135.336853
-18.546867 2.356083 83.888931
-9.631374 4.846515 154.211716
1.782766 -14.795901 131.777313
-16.836872 0.052862 140.980240
0.607132 -4.693887 48.723778
-12.359166 -8.911063 71.228622
1.423103 13.495097 143.175842
-8.118602 17.529251 135.862228
12.873360 9.818496 68.527458
-16.232410 -4.656557 107.510574
0.828837 -12.087827 84.452499
-3.464322 15.670586 136.318024
-3.320483 16.164034 148.003326
17.823357 -5.540028 78.846451
-17.798628 6.792962 50.942471
-12.546152 -3.076890 121.652863
1.333753 8.388281 51.299023
-0.699498 9.935938 64.589363
-8.058596 -0.217752 151.736343
-5.376281 -19.156612 136.063232
-2.272007 11.528845 149.900070
5.469069 3.976071 114.773315
19.011919 -0.953435 52.452915
1.206467 9.387536 76.274994
13.977810 4.139507 89.319885
-14.334146 -9.749770 147.180298
-14.369243 -7.221802 96.778694
9.362832 -6.468739 57.157581
-6.123821 -10.415388 145.476608
-12.494272 -8.666926 64.505516
9.447530 -10.858292 100.471313
-7.311308 -9.309478 104.302887
-0.951522 -14.391500 130.786163
4.554120 -7.635469 67.966232
21.014153 -3.019233 73.573837
-18.095005 6.502071 90.625992
-9.814459 -9.653565 111.008705
-8.246373 -9.556352 114.391472
-2.269555 -7.788222 64.724091
20.605976 -0.078042 70.643188
-14.065363 9.295294 153.046158
17.439383 -1.945849 50.581604
-4.906665 8.937526 70.836006
-2.586960 19.971933 140.510971
0.648101 -19.844656 129.301010
-12.404857 -9.581568 92.842171
-20.540020 -2.572786 88.737244
-14.478234 -8.391920 87.917259
-8.522593 -4.025689 49.455898
-11.162695 1.381494 114.536263
-3.558583 -6.491293 50.458008
20.516888 4.076411 59.181061
-9.328167 -3.817315 142.743698
-1.094967 -16.617477 129.964676
-8.039059 3.581480 117.149910
12.595552 7.669112 97.688118
-16.866041 -3.642738 67.676857
-0.207197 -11.748925 102.939552
8.152007 -9.581595 86.091545
4.505169 4.852622 123.382103
-17.829956 6.215941 73.587196
-5.360651 16.212551 41.087872
-7.038358 6.646371 68.162407
-2.794426 -16.926670 129.742065
12.554876 -6.572818 140.648529
7.405356 6.627194 118.129028
-17.071159 7.549129 84.009048
-4.681830 12.613183 93.612488
-20.911427 -0.841940 75.358070
-15.509467 7.154171 73.942574
11.198347 5.266806 106.064522
-1.792711 7.867664 108.723801
4.012420 5.002550 115.955383
-11.851309 -10.100192 94.928055
0.171771 -9.576813 86.090530
-3.099896 -12.010991 125.016502
-11.549600 -5.856421 124.645103
-7.362700 8.691000 77.530869
-11.177527 15.375544 132.302109
-3.116393 -16.474072 139.688660
-16.657955 -4.187193 40.935223
-18.536238 -2.311023 67.075523
-9.029456 -5.165256 144.679855
3.769302 -5.526787 51.519230
-9.755246 -4.924231 54.112530
-4.025537 -7.193587 41.023384
-2.534256 12.550674 94.752426
-5.410269 -11.264468 119.411163
-1.444532 -4.759282 44.233490
-8.574713 3.771127 155.027313
12.017897 10.585120 65.471954
-6.510146 -15.051820 134.027634
2.177046 14.603166 138.715927
-15.429945 2.299337 93.730087
14.701451 -9.870874 93.924835
15.525068 8.200558 89.853394
10.527699 -10.734400 79.317818
19.006527 -2.282010 98.436203
-13.514971 -8.240981 98.514496
-5.388440 -7.286083 141.925873
-1.445345 12.394125 134.774979
-13.084940 5.296818 100.471107
10.645821 4.583401 126.172852
-8.876408 11.715323 150.095108
5.436575 8.603307 57.574425
-10.533222 7.371458 61.790878
-14.247467 8.326528 60.901978
11.353951 -6.638850 126.799919
-11.496271 -4.942276 54.304432
-16.298201 -6.733718 76.666962
-14.394159 -0.729494 125.595886
0.806903 10.737982 90.379372
-5.212993 -20.820745 141.335983
21.236933 1.511916 59.498569
5.795698 8.064289 66.890961
-5.071951 -14.095426 124.163445
-12.128634 4.569586 106.766296
-13.632174 -0.947998 114.141632
13.070486 -9.277327 80.021660
-2.775473 13.103134 96.053711
-15.388988 -9.976330 100.396568
-10.982749 10.204083 131.197327
-2.375903 11.167054 131.837997
12.966925 8.033203 70.157799
18.705782 -5.621985 92.329170
-2.430073 9.414775 109.310265
-12.213101 10.465090 127.903442
9.724304 10.114984 85.997124
-16.305517 -7.235223 92.754318
-4.755847 -10.192444 104.288132
-1.270776 -19.169653 145.412521
-19.586124 -7.320667 85.375366
14.953936 -4.558784 110.128181
11.403241 -7.716229 112.676682
1.348910 -11.866977 138.232101
11.340994 12.911999 47.507542
-19.506306 3.316459 78.819656
2.794028 7.839881 67.028175
12.890022 4.111318 104.824730
-2.525234 -13.261494 124.259781
-4.184721 17.473261 148.119888
14.677958 -5.465194 128.359344
-7.726395 11.024996 143.312820
-9.943964 5.414805 125.179924
-13.098507 -2.436448 150.646088
-9.828314 11.680642 147.376770
18.551552 -2.240755 56.048435
13.352376 -0.560308 128.184357
6.924462 -3.598155 51.252914
14.998032 -4.993130 53.693535
10.546757 -10.902405 65.254440
-12.338961 8.226611 53.196175
-11.857174 1.991269 122.662727
-7.090970 12.256230 148.742477
16.496174 1.860939 86.584122
-11.013818 -12.003922 104.192009
13.286860 0.898253 112.203667
-20.506327 -0.027225 75.275589
-7.924889 8.310354 76.297096
-10.898152 -7.620712 58.818939
-14.002860 11.231326 93.950294
-8.825286 8.088878 107.480049
-13.103553 -8.201348 131.988617
17.372860 5.356534 44.459293
0.072906 3.443710 113.761322
14.966638 2.084008 103.493713
-13.091523 -7.857223 67.438896
8.533863 8.990367 130.823975
-7.402238 -8.191746 144.544983
-7.895237 4.642235 153.059143
9.265371 -7.461766 65.332733
0.369969 -10.132931 138.787659
-10.526967 -5.735270 56.395058
-4.447227 10.377818 63.153004
-0.727050 -9.757873 67.717438
12.790026 -6.013575 124.056213
6.910114 9.805353 132.016296
13.122297 11.864758 46.157532
-15.381187 -2.017751 134.538376
9.828647 -3.419307 145.684555
8.925932 -11.100890 136.475815
11.246815 8.175508 45.403511
13.916994 -10.943606 69.810829
-5.289031 7.132367 106.616112
15.376826 8.701371 90.124229
20.789494 -4.313517 85.735405
20.974363 -3.682474 82.177895
3.569809 11.594363 90.676453
-16.655293 0.870307 100.155632
13.157471 5.653104 110.476852
-19.958626 -0.347264 85.755325
-0.482362 -6.417528 74.929855
-12.128364 0.847905 121.456207
-1.619821 -10.449417 74.841858
-2.878863 -11.760029 125.004959
-10.192021 -8.648078 68.813644
4.967966 13.378695 141.463165
-0.704812 -20.181656 131.056076
8.305868 9.438323 126.649139
-12.396949 -8.252926 106.361557
10.884955 8.199965 67.930183
18.153761 6.419151 96.351562
-9.151930 9.762670 87.497749
-13.173981 -4.632300 129.043518
20.696482 0.770329 45.432327
11.388103 -5.838442 125.559334
-2.236620 -13.699009 127.343521
8.975553 7.399429 106.830727
-13.390867 7.517201 95.393768
11.101551 10.252892 91.371704
4.827482 -11.403421 114.910500
-18.431543 -0.415673 129.227539
-5.809857 8.570419 66.237198
-2.290421 15.975112 136.731369
-9.760250 2.769345 152.212921
13.841265 7.648046 133.085144
3.628181 -5.743737 144.813156
-3.410738 -17.575144 143.089905
-14.706978 -7.406799 140.689697
-9.030826 7.487932 124.479927
-5.649189 12.635806 138.178024
11.717701 0.639821 125.678825
14.632261 -4.682397 51.991409
-17.319925 -5.561359 88.684860
-10.958294 -2.687507 151.189651
10.210354 10.148951 45.221790
-19.839520 -3.025191 74.341370
16.720949 -6.248888 103.911720
-12.753726 -2.572175 121.259941
-9.346778 -11.412451 84.472389
6.683211 -12.059706 117.897926
18.298101 -3.315245 92.577515
4.365513 7.445220 155.195419
4.871741 12.589429 149.514069
14.249604 -1.742595 117.384583
1.682935 -3.660029 56.416344
-12.377495 3.829653 104.957191
-13.333450 -1.820102 45.479996
10.136477 3.309649 125.088371
-6.975940 5.492533 121.702171
8.811829 -4.814836 45.612244
-16.622013 -9.399241 89.457932
4.439877 -4.635360 55.208580
11.100569 -4.165663 111.320251
7.752463 -13.578614 134.793320
-20.810978 -2.206894 85.205986
-12.496107 11.495594 147.480148
-13.249373 -7.983918 149.499619
-1.627869 8.155807 156.301865
-1.649568 -8.801981 143.390411
-3.010679 -8.614470 72.612869
-13.613969 2.548689 106.520409
15.067250 -5.374109 133.215210
16.028751 -2.170308 93.931526
17.420614 -4.626385 97.163765
16.723354 -3.083411 53.923374
13.899203 -2.971444 129.618225
-15.682316 5.066311 110.487015
12.608869 -13.660756 132.744888
16.408737 -3.440691 101.059853
-11.390177 3.004494 117.545303
-7.001304 -6.379418 141.462982
-3.452531 -6.384164 64.477859
2.611032 10.894915 95.080017
3.776581 -13.426618 131.147400
-7.411537 8.387278 152.202240
7.737891 12.489313 95.457458
20.109756 0.838228 85.793983
15.481685 -4.816724 105.926003
5.584818 -9.769698 75.033470
-19.756063 -0.702233 61.284237
10.621922 7.765898 87.278267
-17.588928 -2.117513 42.405148
-9.922020 2.479456 122.146049
-6.479175 -19.664534 132.371246
20.587112 -2.441193 80.064796
-13.003355 -3.177712 107.053558
-12.108275 -9.990809 128.688141
19.058270 -0.255193 99.710197
-22.446587 4.173573 153.483719
-2.435637 -9.446888 94.587227
-5.301265 9.887262 146.360825
4.836662 -8.510900 74.796646
-13.719972 0.484393 128.412567
-12.447738 5.084118 151.954514
2.757809 11.946707 50.898586
-0.682051 -6.316906 54.357918
-15.247422 -1.447912 102.137939
-18.581390 -6.836962 86.603386
18.759111 -1.982014 52.585495
-9.708876 7.587559 68.706528
19.762327 -0.472152 68.638611
3.129736 -13.223709 112.123810
6.600213 8.024201 50.150059
16.410042 -5.564700 105.357307
-9.449096 -3.460193 146.379669
8.165123 -6.216746 54.022919
15.912933 7.348605 93.212723
9.860491 10.219822 43.772030
-9.876953 9.494956 66.910675
-15.692568 -8.691226 93.749809
-19.722523 1.346755 44.885078
-10.917881 10.887281 103.709892
0.176147 10.351067 78.515976
-14.455574 -5.241702 124.861588
13.828170 10.807320 91.187943
-15.492671 -4.533987 102.524582
-20.554733 1.990639 59.820866
-6.858405 -9.962728 105.550224
16.438614 -9.317684 68.010300
-11.273317 9.429289 101.598106
5.585232 8.365550 70.767921
-4.303809 -9.162464 95.051254
1.948355 -11.389490 87.737419
13.077873 4.262806 130.588989
21.560757 3.231205 81.699356
1.053380 -11.404510 124.787964
12.353890 -0.856863 115.400482
-19.617809 3.461361 65.366356
-4.232670 -9.873775 97.936493
-21.162800 1.093646 66.201706
6.475902 10.334823 141.444244
-8.224365 -3.916037 48.060581
19.196465 5.429900 86.975433
-14.186587 -2.741368 48.504471
-17.780605 -10.133185 74.206200
-12.919218 -8.592182 69.896286
1.903872 -8.140678 69.787727
-1.715238 13.735427 144.477173
-4.086618 -8.606196 138.897095
-15.292321 -7.201530 71.443192
1.798756 -12.375175 104.375252
-21.170620 5.673313 48.389347
-3.920877 -12.591251 134.763885
-16.510750 7.671947 88.252769
-13.400607 -6.544361 131.993515
7.044784 8.582549 58.958042
-15.417369 -5.584862 64.575897
9.466670 -6.373784 57.082958
-19.272789 -4.130471 93.660896
14.238884 8.079469 77.581337
-1.176677 9.404083 125.138672
1.955945 8.321537 122.993919
-16.293741 -6.983949 98.695854
-0.085242 6.283443 109.687050
12.828127 0.244660 112.914597
18.893826 -3.359652 89.493759
8.026937 7.081390 57.620781
-6.245704 8.149915 53.419415
12.751693 -7.084439 107.846764
-6.538305 -9.170819 74.206184
11.540836 -1.547666 143.169998
8.476233 8.169523 65.522469
-14.052242 -2.838541 109.974007
17.011744 4.199842 74.712677
-8.557582 11.922496 96.082794
19.886053 -5.546318 60.523613
-5.881961 2.466598 151.948959
17.070467 -0.829969 98.964867
12.607827 3.407902 125.976540
-10.869006 8.717141 57.301521
13.918430 0.567766 135.406937
0.265778 -12.484388 139.500229
-13.181474 7.909009 130.725769
-0.618544 6.928975 124.121590
13.847267 4.966086 92.121124
-11.184481 -2.155394 148.638947
-5.691526 -10.495478 111.558556
18.880331 2.246804 46.828709
9.934933 -3.813219 143.818985
-11.910177 7.517153 127.536812
10.307155 -4.487690 52.821121
-10.703329 11.446193 134.490250
-15.184917 2.633216 104.376549
-15.148919 12.114165 151.697250
-6.894720 -19.769859 131.424133
-12.185532 -9.183744 145.949173
-4.266299 13.415804 135.958740
-9.617967 -2.373592 147.421219
9.730263 -9.333984 103.232910
11.607004 -5.149666 60.056442
17.779383 -9.071016 75.381599
10.268661 8.004409 71.333534
-18.819809 6.937070 48.591106
-5.922072 -12.674823 128.204681
-15.145367 -6.994320 145.577377
-13.694551 0.782039 146.637131
-9.455826 -12.681387 133.789139
19.774147 8.413898 45.296139
12.232798 7.489048 100.584114
-13.619981 -6.120100 143.734863
-12.646780 3.982745 105.095924
-6.143757 -18.409628 138.235062
-4.977533 -11.228244 104.895668
-11.191963 0.966757 113.972450
6.143440 -7.442662 103.853523
-19.457869 0.064530 66.186043
6.143528 10.086632 52.706841
-6.070315 3.203031 156.344086
-11.541395 11.416298 95.839043
-18.591085 3.623643 72.276031
-3.038904 13.019149 139.653976
-5.625370 -6.155635 63.361778
4.363897 9.311172 81.074104
6.676059 -5.579105 58.975422
9.476038 -5.066879 43.766865
-0.679325 9.086385 105.460045
8.079543 8.953666 65.625374
-7.852414 -0.622227 145.862442
7.456261 -7.835794 141.275253
-6.750644 -9.119910 62.373543
-7.307933 -19.149284 135.017365
-0.926855 -10.971918 97.024193
18.423326 4.818571 66.714485
-14.608080 3.363712 151.262985
-11.108311 13.046535 145.288116
-9.312237 -22.804844 132.333450
-6.156902 -13.272951 127.143875
-9.011803 -1.741201 46.213150
-13.304107 8.628202 47.195057
8.042447 5.491130 117.066605
8.120865 8.411492 51.405003
-19.229273 3.426064 46.791183
-3.756782 -10.429008 138.706497
13.645649 1.582464 145.482269
15.212675 7.070198 74.573639
-1.853412 13.137432 88.480789
-18.322475 -5.305335 68.058296
-12.264993 -8.066644 142.179245
2.406533 9.113461 80.632088
-2.693381 -15.699715 109.803619
-2.181814 9.821384 145.561295
-6.856374 12.536263 41.880913
-0.382162 7.827045 115.505379
-11.911905 5.446640 127.446205
10.121249 4.715737 117.326103
-12.730388 -2.494956 122.463524
6.517883 11.977608 134.498154
15.977774 -8.544277 130.163864
11.936827 3.014420 125.448067
7.686460 -9.014497 88.747406
-0.972206 16.279018 141.949448
-5.501020 -15.033345 139.919769
-1.493081 9.153136 60.278107
-9.706971 8.744537 72.974838
-4.002227 -13.756263 124.362946
1.233178 -12.164767 110.143715
-7.795918 -6.281729 140.652557
10.638947 7.808397 131.143127
1.741316 -10.244825 73.262482
18.574810 2.438406 64.187660
-1.422304 -12.518731 128.111649
-14.429262 -4.276233 59.497597
6.680470 11.763200 142.417999
-10.998833 -3.270209 141.171890
-22.424776 -7.979803 149.861938
-15.005123 3.203872 140.432465
-4.906466 -13.881110 135.311707
-10.702573 6.366911 130.307526
-13.667139 -9.264851 98.938629
-8.392773 14.273216 136.532578
7.620954 8.318302 86.747696
17.663467 1.207503 140.292404
-14.149328 6.760814 44.762787
-12.453659 8.801867 62.434856
-16.116783 6.609431 96.300049
15.333549 7.381907 75.196312
-4.986293 -14.869452 132.340042
11.483169 4.614561 123.104538
18.333443 4.287187 67.235207
0.041225 9.132803 51.943104
11.828762 6.549827 82.781395
-9.446782 -14.325172 138.362549
-7.008642 10.369981 52.396435
7.558445 8.150786 144.246704
11.729765 -9.834328 130.879257
-18.245062 9.874662 46.652630
-12.693749 -3.595903 144.992661
11.472103 -4.160662 143.855499
-14.737122 4.377403 105.041519
-3.791714 -10.459134 70.524155
-9.549896 -9.822393 126.799515
1.131035 13.064562 132.765594
10.737868 -2.934105 43.855270
12.555819 -3.883711 110.514053
-5.864071 16.048903 132.670425
9.896211 13.466891 139.508316
-9.633865 9.953764 152.790237
16.912823 5.637595 61.681904
-11.526881 12.400890 131.802887
10.149618 -11.763555 126.476555
-16.123062 -6.258959 58.905994
15.015629 2.540925 102.354294
14.913668 10.963025 44.905560
-3.880817 -2.128895 56.017349
3.918894 -5.994046 143.204529
7.207678 8.401443 81.135918
5.837196 -14.297602 132.803925
-2.679202 8.697804 64.336136
5.439838 -4.855608 62.943199
-6.922437 10.173611 53.033161
-10.398602 -3.617836 48.301113
18.960384 -5.637949 74.998909
-9.046284 9.932545 63.187050
-8.086583 9.311110 90.676308
-12.912897 -7.408999 106.730659
-0.488662 -12.246490 115.714485
12.407694 -7.903601 108.920433
22.602825 2.548757 82.735107
3.860751 -4.743758 55.203308
16.945116 -5.882036 55.387409
-17.917744 -0.400171 69.269333
-11.725577 -0.192593 153.235001
12.587214 -10.086787 118.936394
15.403529 -2.447349 109.696472
-10.997025 8.825294 128.694351
-1.083531 6.394206 64.008873
-15.925762 -6.404979 71.029335
-9.349302 8.379961 151.148026
17.745560 -5.234952 67.297874
-13.514586 -9.468815 140.034088
-8.970424 6.014416 127.974838
13.824575 -8.898737 76.392342
8.067905 9.556659 97.243217
-12.203505 9.134395 43.450687
-0.891135 16.920065 130.958847
-1.393068 7.104932 69.536072
-8.141499 12.853994 143.786346
19.608749 0.688872 81.293793
-1.382448 11.749045 133.385986
-4.638116 11.819207 144.844803
-22.106308 -1.627074 69.860329
-1.666601 -20.899496 133.693924
-0.262905 16.063797 136.432617
16.720703 7.264659 50.902393
5.285700 -9.374963 100.953354
-6.785304 8.020905 109.598396
4.918508 -10.067317 81.103119
-5.344286 6.946707 125.049232
15.123451 -6.445708 104.108711
-14.668140 3.471455 130.845657
-22.281815 2.129380 50.819901
18.010960 -0.067612 53.175144
-12.603466 -2.515691 144.838882
-17.139055 2.187382 134.482651
-14.618953 0.899944 107.246155
-4.366523 -18.053299 129.370346
-17.488791 -4.801302 61.327286
-2.348122 19.540648 144.194931
-8.264418 -7.356273 63.515682
-3.348164 10.955355 139.470230
13.385145 5.090019 152.884872
-12.757846 -3.601585 131.991486
8.179798 8.020973 76.237976
-12.152962 7.970293 152.784119
17.826511 9.728379 45.740788
19.152214 5.500428 56.889755
19.098150 -1.158744 64.370415
-1.991267 -9.481350 94.757889
2.801892 5.593039 112.244019
11.806242 -11.523465 136.672012
-10.328295 -6.208490 68.581017
-3.541192 -19.969128 140.642761
1.389837 -6.558708 62.026859
-13.593555 -7.704059 64.504936
22.894503 -3.264310 65.337524
15.581871 -9.489042 74.763908
-7.837821 4.528904 125.159607
15.547164 10.003919 55.100567
3.670354 12.207438 148.304291
-19.304989 -4.885934 80.512878
0.465080 -7.311490 55.647739
2.978755 6.938926 126.181641
-3.802412 -11.243815 125.111946
-8.987930 10.086329 57.540512
-11.551811 -4.065047 151.147369
-22.326109 3.108451 43.320251
-16.356808 -7.372023 90.989510
16.388699 -6.767588 61.620163
7.993942 5.554433 122.812523
9.312882 -11.659959 88.387062
-12.821593 2.040911 126.029587
9.934026 5.383094 119.412354
-13.841729 4.424205 102.091019
-9.662388 -21.782074 135.171341
-10.978308 -10.459275 106.307968
-17.016418 -1.385920 139.873352
16.430334 3.599618 60.608444
-15.138941 1.174214 106.732925
-10.425630 -3.788807 145.091461
6.951395 -7.297897 63.818771
6.453446 -11.737923 100.129272
-18.761816 1.283282 88.013741
-14.728529 5.869850 128.159088
1.251731 -11.832474 95.438644
-12.755552 8.149421 51.030418
-8.555736 4.002378 153.603607
-14.225636 6.658675 67.215172
-0.350667 -11.697191 125.622589
-15.679462 -2.626554 61.097065
-10.950216 11.475002 93.274422
-11.529088 9.669456 80.573273
-6.378071 15.623119 139.654190
-17.377256 -5.721869 68.610298
-12.380693 12.219877 49.783363
-8.062787 -23.242292 131.519608
14.799295 0.791681 104.885818
-0.938806 7.570015 56.752296
-12.557739 10.392381 49.879013
-7.416350 -7.829646 140.621719
-9.737773 9.642446 69.767471
-6.333826 -9.663630 78.922653
17.073952 5.777874 68.619392
-5.704243 -17.652046 133.366928
-12.049429 -8.163256 69.321663
-12.592899 -10.544188 107.562553
-9.045453 12.657173 146.238312
-21.441296 2.029419 58.157654
14.220472 8.585120 85.580368
-8.816833 -8.404751 142.745895
-19.228746 -3.399217 95.209885
-17.530567 -7.263548 149.983124
10.789395 5.890148 56.462292
-3.901414 7.745283 72.244881
-3.342727 6.513228 75.888329
16.014400 -3.317953 106.185310
19.149858 6.228001 52.798252
-14.588195 7.224739 80.567444
-15.167236 1.539927 126.439613
-0.041903 11.082422 93.696747
14.920743 -6.107219 135.486542
-2.914193 -15.492440 136.103989
-12.245627 9.306527 50.264927
15.890462 4.082207 95.940056
0.128170 12.122993 134.041367
-13.034344 -4.124792 51.024372
13.102113 5.931339 133.141052
-18.419994 -5.140201 82.288437
5.695981 -11.634277 90.769524
4.434063 11.087747 142.157196
2.809928 -8.435052 68.293579
-10.269587 14.040049 149.965424
19.338482 -3.931181 66.024918
-16.522552 -2.388841 51.487553
-18.579641 5.665391 48.525581
-4.786336 -9.326551 66.056183
-14.391178 2.804674 147.188232
-15.028861 -0.704198 126.762772
-0.171393 13.461531 99.682411
-17.623522 -8.626703 78.197746
-3.705197 14.696089 135.406174
6.471720 7.463110 107.427094
10.396816 8.108305 65.110840
3.017577 -13.641825 132.316177
-20.553408 2.896386 46.468464
-9.939828 -5.372773 137.816162
-12.918800 9.599931 82.884560
-14.450719 -8.054027 100.899147
-1.714856 10.264779 148.614075
-22.757027 0.531503 54.125652
-18.639334 5.440085 86.726288
-21.116980 -8.522027 87.079079
14.454206 1.299574 146.530396
-3.280904 6.888817 106.497543
3.610011 -12.554988 113.521515
-7.409955 4.295482 154.006805
-21.883654 -3.332506 65.662735
-15.074697 -4.910629 94.795738
0.500130 13.174336 92.042877
5.574610 5.636717 121.039154
7.315472 6.784127 105.386017
-17.875385 -7.268901 66.159554
-16.139643 -1.168343 42.851719
-5.681010 12.024470 90.566299
11.917925 4.549927 111.215530
-12.965587 11.094516 147.656509
-13.100462 6.811622 129.745026
20.543917 -5.057789 84.312767
2.853410 -6.200154 42.372150
18.243044 -1.428685 50.879375
-8.501340 8.218292 101.672050
0.194333 -15.767354 128.544739
11.695535 -9.286325 98.661224
-8.013646 8.984636 149.664810
-2.073269 13.683469 91.035912
-8.386479 -16.240576 134.889267
-4.945390 8.872919 151.866089
-13.663633 9.547209 76.768524
10.855538 -4.329531 142.452759
16.043871 -3.782778 105.134529
19.479790 3.643117 82.118042
10.772124 11.277211 96.323181
-11.889631 -4.481473 148.720367
-18.104670 4.208232 81.291969
0.936283 -10.006299 88.637985
-12.245043 -1.760339 120.145309
3.634053 14.673223 141.223007
17.020861 -2.021239 130.533783
19.448940 -5.686738 101.604843
-7.798842 13.561702 137.658875
-7.656658 -14.384098 140.327179
-21.624701 3.155094 43.728737
21.834717 -1.379758 83.929909
-4.853291 11.740657 146.941681
-12.601579 -0.450836 121.619301
-11.892573 10.870565 129.373886
17.772272 -1.174873 57.870018
-6.343519 4.835052 123.627892
-3.375063 -16.597176 131.750214
-4.303934 15.542535 99.372223
-0.505455 9.062374 60.050568
-9.513998 10.594547 82.267174
-21.431261 4.837203 71.768669
6.468500 11.286510 139.952377
-8.135056 -7.893239 105.116051
-9.423807 -7.363567 65.284203
-3.493061 -10.358859 86.888435
-7.325812 7.906980 121.935555
14.090289 5.608662 65.511986
-19.662216 -1.846935 42.227520
18.894239 1.306372 103.090057
-13.431573 2.682738 108.205307
-9.242034 -8.285287 92.461411
11.844116 -7.545694 137.086517
5.150131 10.208283 49.904552
-15.468510 -2.340779 150.793579
-7.600900 -10.252367 83.215111
-10.581500 13.779129 130.511047
3.233103 10.700984 40.123524
-6.894135 21.117901 135.751831
-10.122228 -20.414059 132.790771
9.116653 -10.870914 121.140762
8.405058 -12.085639 127.873802
7.742058 -8.693577 69.660789
-17.419920 1.659127 69.770432
-16.612301 1.332639 101.824379
-14.522451 5.382110 102.709297
-0.373281 8.533874 75.233040
10.748032 -10.123790 125.230888
2.645214 11.579937 52.973000
21.142122 6.780720 49.752720
0.221866 8.922705 106.364578
7.019039 12.214130 139.216095
-9.945674 -8.605837 125.066887
1.580583 -10.566594 77.510155
-13.149308 9.153872 71.073212
12.754242 -7.261152 101.390846
-1.828205 -4.364861 44.706703
8.697714 -8.657052 62.746288
-9.893262 -10.847960 138.162094
-10.550858 -8.402773 61.622509
-12.761675 -1.807339 151.190887
8.603675 -9.805658 73.996742
-2.825828 8.807264 70.392441
16.827574 -7.070702 57.485020
-7.407331 16.576984 145.046951
-3.994455 5.035038 113.007195
0.628835 -11.356954 129.281097
12.734051 -9.966811 77.060585
-12.445823 -13.046937 130.827240
12.530413 -2.340822 137.560577
-13.469975 -0.719685 136.799728
-10.659644 -3.418435 148.094131
0.319930 -17.357281 128.074554
18.774729 9.084173 37.272930
-3.874358 11.559214 137.515656
-0.889659 7.416172 52.301521
4.030254 -12.001468 128.463196
-14.726323 8.887983 84.675713
4.784728 -11.469058 133.449432
6.645216 10.366741 133.958359
5.385234 -10.226313 95.873062
6.172964 -9.759204 82.604515
-11.262020 8.204867 73.523094
7.998056 -9.600138 72.125572
-2.863902 -11.413078 130.166595
0.302831 -11.306496 120.697937
15.572399 9.454380 47.171604
-9.407660 7.251313 61.005741
-7.877036 13.795288 129.424820
-4.301231 18.749002 143.487961
20.400711 -3.736697 60.802101
-11.291737 -2.699179 43.879902
-10.181116 12.560465 94.272026
-18.336811 0.294852 65.907745
-20.058712 -1.115889 94.444290
-9.392164 14.193301 143.721878
-12.742424 -6.195405 109.296585
20.800259 0.711957 48.688530
-8.434898 -12.511102 142.228897
-12.045625 -5.436777 140.001709
-4.185307 6.063763 108.361404
5.415165 11.144453 89.009956
-8.157520 -16.529366 133.743271
-7.590834 -11.754501 72.520226
-14.292288 -1.039042 123.713470
4.857067 12.337549 151.273331
14.312809 -4.636827 106.033180
18.849678 5.088408 69.009285
-4.133627 -6.774197 70.340591
11.072600 8.030663 64.388893
-8.565342 10.363395 103.284622
19.231050 1.003598 63.331242
1.515354 -10.558466 104.054550
-12.234887 -12.027159 85.000458
13.173489 -5.691392 142.255219
-11.508099 8.607922 108.637123
-17.663187 -9.267777 86.581284
-4.393001 -6.996255 63.035164
4.085359 6.056496 121.672264
7.992507 11.481374 140.416962
0.754567 9.783907 129.791595
11.284868 0.454671 126.304268
-12.047441 -6.450419 114.939682
2.522902 -10.840919 71.848358
-9.436868 -10.827118 81.102142
-20.479927 1.070969 54.874470
3.698119 -9.906506 73.314682
12.697565 -1.978655 130.828247
-2.536080 -12.289958 119.743141
0.808864 7.780690 65.072655
1.061037 12.348583 132.001556
7.078219 -11.956961 101.194641
-2.776067 -4.002331 48.459541
15.209624 6.126266 136.243652
-16.609236 -6.732514 73.565498
-16.207741 -6.773649 61.013279
-9.030474 -6.292180 148.285812
12.567991 6.853988 69.522041
9.757209 10.981225 90.583290
-2.698268 5.779848 122.042480
13.923292 7.980384 96.783348
-10.221970 10.159220 43.370682
2.618701 -5.546291 58.583900
13.372442 -5.317541 127.366882
-5.861750 -9.827118 93.843010
-7.508576 6.853321 65.219353
19.456984 -4.578384 88.158501
-7.587590 7.575745 111.101852
-4.481155 -17.558891 142.038605
-11.001331 11.897955 149.660568
-15.649038 1.269707 110.684250
19.006771 -0.717790 89.243683
-8.188536 -10.718737 78.247002
-20.653454 2.831311 74.615166
-13.233969 -5.876423 145.105072
4.214863 14.082926 94.818733
-13.711178 -7.410087 105.867363
-10.096437 9.400330 149.254898
-12.172063 11.957059 143.712784
3.158992 11.920776 145.063629
-8.236111 8.109096 75.769295
19.583889 -0.110850 58.041111
3.115109 5.398499 112.258865
10.857346 4.317861 111.343010
-2.288508 13.001603 94.771355
-3.400067 10.549664 48.531761
-5.265273 -11.121978 139.060913
-20.522156 0.693960 80.892242
19.799292 4.004739 73.605347
19.049892 -1.957630 48.253960
-6.453314 -3.606472 45.850140
11.815645 -3.676378 146.634109
-9.203398 -9.049778 77.316154
-11.502909 -5.996264 124.430229
-17.682173 4.500317 85.703979
2.779269 10.068139 70.373512
0.099247 -8.222674 93.816544
-10.444763 -11.144375 143.456894
5.779996 4.828269 121.315292
-6.056204 -11.753399 139.476074
-18.409105 -7.471639 99.455627
0.024219 9.475442 66.574203
8.114244 -9.491915 120.306465
-13.663015 -6.245717 144.809952
3.189270 9.147975 62.473515
-8.581916 7.626544 132.191635
20.334379 1.838956 81.105667
-8.159371 8.910387 44.168262
15.957245 -9.512960 78.936058
6.084291 -8.481428 117.307426
17.368065 5.410823 95.615509
15.888618 0.104483 103.387383
5.925625 10.590266 136.323318
-2.135972 16.007971 141.413376
-11.811595 -7.817173 124.921959
8.340745 -10.757899 127.723900
-7.322813 -8.013126 70.681633
-8.858727 12.482685 128.670334
-4.558620 -16.257273 142.444168
-12.382442 -9.910508 81.194023
-1.124109 -11.311349 82.450554
-1.689479 14.582018 136.902603
13.477338 9.828358 69.837212
14.781874 8.690495 91.317200
-7.292171 -9.056910 74.666336
-9.546319 15.742993 133.429184
-8.701616 -3.225311 43.680450
5.188341 -11.484443 109.081909
-19.854012 1.652416 56.081322
17.021181 1.466831 70.394844
-3.664658 9.971663 85.568787
9.282466 12.652323 94.184517
-6.144900 -12.297851 146.915192
-13.536327 -8.759824 136.725052
-6.903325 -11.323283 137.473816
-5.628250 12.699626 149.899658
-9.506028 -10.681579 119.645149
2.760635 -10.452549 136.211472
22.716246 0.885447 83.338348
8.341365 -9.484197 105.750999
18.710546 -8.242737 70.715080
-3.702268 -9.414233 138.405579
8.562756 -2.677350 45.984917
-17.243006 5.993675 55.799370
-18.106291 -0.482572 60.330112
12.250748 -8.007538 101.853569
13.923472 -10.353557 135.824982
-5.815737 -8.162918 60.482735
-8.466338 -11.060054 96.084808
-21.683107 0.061800 50.562065
17.091820 -8.723299 88.497757
-1.672801 22.891472 140.580444
-8.982919 6.677077 153.838074
-5.759883 11.909933 150.101578
15.749721 -2.259246 140.835419
-20.614616 2.291415 54.693237
10.232867 3.819710 111.429504
8.425770 -7.001441 63.688473
-3.466196 -10.925488 101.308769
2.308357 6.879906 83.164085
-11.726179 12.947325 137.667801
19.728006 2.085524 48.040215
11.784690 2.430154 134.983398
-20.786032 -2.547159 63.409286
15.628733 -11.597373 85.575050
-13.713359 12.056971 46.189781
-15.425331 -5.241944 122.058929
-11.155851 -7.766794 116.560783
-2.396583 11.907025 137.532593
-8.329557 1.368963 122.186638
13.710174 -0.220372 141.228897
16.415161 6.440468 92.837128
-2.677999 12.865693 140.725479
14.028736 -7.874748 126.061401
-5.503526 -7.353260 78.747238
-6.230722 -22.821812 133.706268
17.039759 5.989007 67.536659
-16.331282 -7.507104 93.796631
18.583565 7.521468 46.115383
-7.680652 -18.581301 131.996124
5.175597 9.374468 71.487221
-8.804925 -7.497854 94.076416
10.668591 11.074629 151.656357
-3.522737 -17.508799 129.499878
-8.310359 9.895602 61.766052
-8.861665 7.549572 107.142181
-20.263479 -3.106295 80.167557
-19.153479 1.684746 42.722084
0.522415 -9.595595 118.389183
-3.148633 7.871712 65.921257
19.647625 2.121605 64.088844
-4.251403 11.836529 48.636196
-11.573957 8.958898 147.248718
-7.994511 -2.624074 52.222523
13.931236 7.401888 135.844986
11.138901 9.143078 103.032616
-12.910980 -0.889293 132.016357
-19.135027 6.421070 53.899700
-5.909701 -17.570843 128.609695
-11.158300 -8.366287 67.808800
3.267401 14.937340 93.267693
-11.757485 -3.663809 53.063866
2.833167 -12.374528 121.212944
20.199383 -5.288868 78.153854
16.036427 9.728740 83.886230
-1.955284 -9.252650 88.297935
-14.311911 -3.806584 127.285141
-7.473203 -10.586625 115.851814
-4.509599 -20.939438 130.869705
14.073995 -3.421441 146.819443
-0.365813 -13.189710 128.664795
7.904588 10.395064 51.499474
-6.862844 -10.525075 100.137039
-7.118050 9.592115 83.174690
5.289369 -13.634880 131.827408
15.540026 -5.957675 91.333992
-13.353936 9.851376 148.782242
-5.864855 10.925392 47.411297
-9.229637 9.623325 129.293732
-3.159020 12.934648 96.782852
-14.777013 -6.820230 64.193390
-5.180142 -11.787335 81.990814
-11.929493 -7.651151 60.789394
-12.773357 -9.868954 141.773712
-9.224732 -16.885798 139.995743
0.124591 -11.276176 137.089813
2.057880 11.954650 99.562752
-7.871671 -10.781796 90.999725
-4.494317 4.708846 123.101616
-12.059635 10.302413 125.119865
-4.430475 -14.056983 138.635742
1.912467 -10.265828 84.009674
-17.806917 -1.820154 94.319077
-9.014358 -22.651577 133.527710
15.470078 -1.915488 134.636124
-1.049472 -11.139122 77.626343
3.518471 10.339519 104.281624
8.880259 12.599961 135.655350
-12.225197 7.725767 59.412167
-2.082084 -7.958097 140.816833
5.978374 -9.218682 78.293373
-16.486137 6.146621 63.398949
8.410009 -9.512189 114.085434
-5.047874 14.656420 138.595932
12.496967 1.164056 109.129631
-17.333601 7.071157 73.739388
-3.639835 -22.145086 129.824158
-1.635518 12.445853 96.987381
15.668935 5.585814 100.831169
1.604975 8.535530 71.189056
-11.515064 -6.322766 113.536964
-0.117166 -12.824054 118.416870
13.639789 -1.475684 123.985443
-20.890459 -1.601596 81.481209
-9.244517 -6.529763 144.647751
13.326506 8.542622 129.245880
-0.194389 -17.564655 127.326859
-11.855154 -4.736394 140.142715
-3.985204 -10.681486 138.642609
15.725255 6.769156 70.953911
-11.075289 13.058964 93.302406
-11.783236 -9.668273 92.549889
15.482513 -6.138626 129.151184
12.052798 -0.285103 128.094986
11.363994 -3.023190 50.214947
-2.854347 -16.764624 129.906525
14.086082 2.475165 127.267548
-3.815552 -13.122001 123.880775
-16.546457 0.151744 46.981899
-3.619290 17.694016 136.093643
11.713839 -6.851509 138.759277
17.182346 -8.155742 93.572357
-11.683794 -8.672082 140.081482
2.969925 7.407857 122.456085
5.835268 9.671459 72.538750
-0.538283 7.345458 111.253517
-10.985600 8.153603 124.791351
7.740270 -10.872920 110.223457
-2.409978 11.523577 137.902847
-4.740916 -4.766844 142.873901
