ply
format ascii 1.0
element vertex 2048
property float x
property float y
property float z
end_header
-8.285508 11.757529 141.983337
19.054388 0.755477 90.901054
6.675303 -13.175121 130.381943
-6.187757 15.782561 135.383163
-11.753013 -15.330236 137.563309
6.309360 11.603279 85.633545
-6.327292 -9.686818 124.342415
-12.556633 -9.484200 77.461578
-3.846616 -11.144543 140.024017
-8.625619 -0.700062 150.427643
-8.364617 12.106516 138.039795
-9.876797 -5.201071 143.666763
-11.148868 -10.234164 142.627228
-15.161517 1.259131 133.834900
9.721373 -6.064467 144.181564
-6.059606 16.660866 135.533508
-10.525445 11.353100 130.490570
0.288196 17.972286 142.953613
-5.155432 12.258422 95.173630
-13.702537 -9.622272 132.684937
-4.480481 -12.017732 136.744827
-9.017428 -9.427469 113.691093
-5.339304 -15.816245 133.350433
15.862555 -7.724329 93.769730
-8.528824 -8.962337 145.415131
-9.855949 2.505070 112.316940
-18.753340 2.442378 78.397621
8.636267 8.254139 79.125237
2.478181 -10.168882 90.962059
-6.953657 -1.822299 150.656693
17.613506 4.941418 86.046967
-17.116350 -7.131810 92.582687
-7.651688 12.584466 153.194153
12.971314 8.720520 133.171860
2.841691 -9.407267 84.323036
-14.019576 -0.993907 118.189621
-7.936697 9.386472 103.341957
-13.578133 6.289156 129.488953
-6.281670 -4.765988 145.974915
7.366429 13.050088 142.588608
5.583127 -12.824611 137.840057
3.817448 10.179864 133.105972
-2.573632 16.660400 145.879059
-15.702666 -7.773417 84.714836
-13.823349 7.742881 125.789902
14.023710 -8.990995 80.376015
-8.348654 4.778450 112.238693
16.348768 -6.008135 96.547539
20.009607 -5.212235 82.986145
-13.892195 4.603102 132.056931
-17.399538 -2.355952 94.829285
10.422020 4.449340 112.432945
-10.222544 1.250594 113.060249
-12.714108 -1.889013 154.659698
17.936504 -0.162892 93.992432
-13.213166 10.817084 139.280685
8.338607 -10.618575 103.334244
-4.787554 -14.106527 131.471268
-9.490964 2.780154 154.320740
7.581491 12.919404 133.337814
-3.291013 -13.014397 126.861221
-14.066019 -8.427300 103.316223
9.673894 -8.843217 110.358871
14.926046 3.185951 104.152412
5.634748 -10.010490 102.206528
14.190988 10.317641 77.919449
-2.222406 6.630082 112.474281
-13.026603 13.547403 151.375885
-15.540779 -8.402029 129.065704
12.780581 9.165413 97.668953
9.130102 9.156793 103.045143
-11.533656 9.081958 93.863251
-12.817244 -11.843143 143.586761
-11.643170 13.233780 129.688339
-12.413222 8.692780 154.338837
15.415927 -9.265949 92.459465
16.187712 -4.717244 100.325096
-7.006420 -17.417274 133.900375
12.992094 -4.407844 118.163719
-6.430486 9.375091 104.812813
-4.849930 -4.200427 144.254013
-9.128066 5.052715 151.110168
-9.193996 12.162261 146.598038
-2.081403 -18.188532 137.134247
4.428115 7.322026 123.140884
6.579847 -9.844110 110.614182
-13.408641 0.908688 110.476761
12.322283 8.934827 136.370773
17.314234 10.849434 80.119995
-18.078495 -10.012941 86.857315
20.602379 -1.650129 79.913780
0.680882 -9.618383 78.941826
-5.612445 14.365331 143.042847
-1.074922 -18.285395 122.533424
-15.607234 -7.470140 91.472420
14.016432 -7.977561 99.299179
-7.901425 1.855969 151.527634
5.449128 9.909220 88.499603
-1.161133 4.689591 122.144516
18.021698 -4.918816 86.759827
-13.566709 -8.742400 80.270157
-2.258306 -16.829504 131.884689
10.657022 -9.907585 93.539452
-0.808130 12.081357 102.179909
3.594501 -9.912184 86.741302
3.890455 12.205010 140.250351
-17.657949 -8.330596 85.811386
-0.124189 -11.215675 116.645981
11.286943 3.280613 107.233459
-19.034302 -2.986376 92.315002
-8.748651 11.126325 131.647079
-9.788829 8.645132 154.209457
5.891562 -8.909888 98.626694
-3.980499 -11.783205 140.234467
-1.240596 8.373863 125.327148
-7.362234 13.459843 96.302254
8.100121 -9.304985 103.308838
-9.488899 -1.350859 151.353439
-5.814476 -11.411013 125.957832
-7.749129 12.938488 90.211647
9.556467 -8.947953 97.368774
14.692016 0.252892 145.879379
-13.759485 -3.671673 126.132957
-16.107643 5.683631 81.770805
5.251054 -10.869273 101.487648
-3.090982 -9.499170 98.070343
6.749037 7.792489 122.758331
-12.577398 15.989034 132.992401
0.768447 13.680439 137.672302
-3.544810 12.680696 94.207146
20.282290 2.141433 77.994392
3.309257 12.614223 94.443367
-11.161143 4.974154 107.784607
8.666812 12.469800 137.302444
-2.159034 14.667799 137.911804
-8.634656 -10.714375 121.998260
-14.637251 -10.465013 138.539825
-4.539739 -8.979542 141.298172
14.707094 8.060671 77.268158
-7.828646 9.389764 152.783646
-13.824452 4.627533 126.626862
-4.670430 -11.125942 123.197372
12.240891 8.332760 101.584717
13.034153 -9.519180 76.999954
-3.652117 10.870689 99.996918
-3.570073 -15.782067 123.090225
-5.526571 8.645887 121.910645
2.390801 -11.506442 85.684700
-18.829420 7.938384 83.875580
-13.183252 8.784250 94.882362
6.082775 -8.938851 140.560440
-4.870353 17.695677 141.910843
2.944262 13.231886 100.287064
0.131059 6.647392 106.992096
-7.550558 14.467807 144.967316
-9.636557 11.724249 135.131531
-21.519510 0.464889 80.142288
-2.994107 9.887446 106.286575
-4.532443 8.850060 103.590714
20.446623 0.476152 80.577583
-11.020128 -10.608839 123.498795
-12.634619 16.047735 129.942169
-13.406463 -9.121857 145.350037
12.296833 -8.738652 113.074852
13.214383 -9.158964 94.336632
20.418983 -5.568611 87.402061
5.000583 -11.326931 106.610275
12.658316 -6.537859 124.302536
-7.295150 -1.391518 149.032562
14.439925 0.914655 133.578659
-10.074017 13.832594 129.116898
-8.642731 -2.418659 147.235428
-9.776137 -8.573248 87.695663
-6.782047 14.037024 149.743591
4.400614 12.355403 138.472549
-15.417394 -9.391331 79.116753
10.506605 11.088604 92.588524
18.392511 -7.681273 82.118401
14.965817 0.619607 137.565628
3.622150 -13.230585 130.965302
-14.367951 9.935611 90.194336
-10.926244 0.892133 123.666435
-8.157885 -12.727630 145.180237
-8.464582 -9.262062 98.435234
3.699455 -9.996800 119.113022
-4.614812 -13.568151 126.656647
-18.315317 3.078665 88.995506
-11.140162 -10.214243 138.863556
-12.486986 -2.812966 114.702492
-3.601214 8.650862 106.052490
-9.712524 -12.559806 130.534485
7.525557 7.839379 75.624428
-7.299832 7.421879 128.752579
-9.279642 -13.818036 131.103256
4.811265 11.107108 150.872299
-8.076311 -9.556366 122.096291
-10.862367 -4.365530 147.931076
-11.120954 -10.010445 114.835686
-14.562957 -1.364309 126.636314
15.073933 -0.860219 137.237488
-3.346653 9.819820 127.486984
-4.408181 -9.593394 137.759384
-6.821492 17.713921 130.548019
-5.254619 -12.291862 119.336403
-7.867672 15.048728 132.747955
-9.931524 5.024702 125.678093
-10.302874 14.023833 151.303223
-7.021512 11.894228 90.830391
2.226831 -11.809303 122.708412
3.651836 -12.660925 130.464279
12.506536 7.526049 102.769905
-12.394600 10.641456 153.367584
15.458069 7.565937 95.006165
-1.913320 9.986052 128.430023
4.949768 -11.517920 114.137688
-14.229903 -9.912659 86.982613
-8.021235 7.866902 126.416679
-13.656057 -3.899783 149.910736
-7.261270 12.959838 133.432816
-17.533356 -9.075412 84.976753
-6.444757 14.505593 145.937973
-7.374888 -17.687006 134.346970
-7.688107 -1.250306 147.064926
-14.398098 1.528923 104.953255
-8.197360 -15.947043 128.673874
19.065578 -3.788478 87.034294
17.252527 3.406026 100.619347
10.678464 10.393833 75.896515
-6.694935 11.962819 151.931732
-4.819596 17.196280 130.544968
-0.294734 6.728458 120.082413
-3.003575 12.110875 136.445221
-19.248043 -0.955945 87.162773
-10.851916 7.637991 79.076721
-14.355039 -2.884162 152.804230
-10.704495 -10.492620 141.917358
-14.291590 -2.209107 148.867264
-6.162430 -2.132291 147.663910
1.482565 -12.210048 107.353615
0.208628 -8.844572 91.622719
-16.462854 4.459785 92.923584
17.658983 -2.270947 101.502052
-12.593184 -2.907515 149.808899
-15.151246 -2.546871 150.593826
-12.409941 0.701686 153.424103
-12.737986 8.696150 151.859634
13.364587 -1.366650 149.165359
-9.279734 -11.244172 128.605896
-13.056141 10.361240 89.035843
21.339046 -3.068506 79.457024
-4.358777 12.208346 98.529991
-15.774869 -0.716992 103.901184
14.840951 -3.779751 125.442146
18.247328 -8.441666 84.824997
18.152723 -3.499253 90.557617
10.668896 -7.797878 111.350052
-1.693440 -14.894441 136.918854
-13.591894 -0.693329 136.580841
0.721043 12.806208 99.491150
-1.707710 -12.277673 121.050522
-20.827688 -0.305726 76.923836
-15.546667 -5.972491 104.963120
9.248697 -11.562305 121.477402
-7.066336 17.017490 145.416718
13.358353 1.411876 124.567688
11.720611 -9.067432 127.795059
-5.067579 -13.495736 139.758133
-5.633237 -14.040207 132.089905
-9.366308 12.308496 151.890518
-14.830320 -7.575201 131.327789
1.182613 8.567825 84.057816
-15.257263 9.039541 134.819794
6.789705 -10.555847 90.820320
-2.319109 13.758870 139.946854
-7.418402 -12.999590 138.488739
-7.360195 -10.790496 139.352142
6.029330 -10.150080 118.895973
-0.494956 5.335576 108.181702
16.774828 -5.877525 86.758675
-9.347528 8.394897 126.783920
-14.369148 -7.467087 110.501572
-1.332752 -16.700899 132.513779
0.910720 -10.402391 78.066154
7.081123 -10.614697 129.311737
-6.568643 9.401988 84.909943
-3.703458 9.623104 127.555740
-11.888484 7.722347 126.152290
14.609651 -6.657032 134.489929
11.792292 -9.297911 86.457741
-7.219943 -10.770137 113.998436
2.898024 9.570992 125.483978
9.057729 7.367481 81.733070
12.165759 -1.772234 145.850693
6.022346 -8.495565 87.872841
-5.030137 -11.769489 137.505753
-5.237559 -7.512818 143.166397
-3.445166 -8.193764 76.649162
12.188210 -7.869072 124.581390
5.322739 -11.463987 99.831894
19.803989 -2.804034 83.534203
-0.580096 13.375445 88.358269
10.152327 -13.256650 130.956741
14.936656 0.964589 106.353081
-9.966161 -9.373984 113.501755
-8.620315 12.549782 136.311462
4.386998 12.743155 103.985680
-4.053867 8.398872 112.761833
-7.229705 -11.418237 122.844742
-5.586276 -19.095423 132.861877
-9.057041 7.524039 152.829269
-6.232579 12.017969 144.349091
-6.317469 6.634936 111.483932
-17.461346 3.710640 76.037605
-11.849464 -11.690682 135.084030
-13.669061 -8.716390 137.048035
10.428551 -6.157913 114.041283
2.265101 -13.847674 125.674232
-4.145572 5.645486 110.503647
-11.562931 8.941110 95.316933
3.212709 -10.273236 103.462822
-3.276698 5.242013 115.291527
-9.105226 10.699802 152.094040
0.476167 -11.744246 76.328026
14.445808 2.718615 130.425232
7.939566 10.694902 131.830627
-2.571217 12.381953 143.637238
-8.899795 -10.765973 120.560524
-4.732346 -19.995880 136.605820
15.052489 -2.654474 108.981743
-1.225726 10.767082 134.527847
5.702696 12.463902 98.081284
14.991636 -0.288664 138.877487
-5.766916 -11.457482 142.170639
-3.991219 8.470491 124.905495
16.084536 -1.269229 133.023987
11.578395 -10.540606 134.469574
-2.686736 -14.311169 136.516632
-10.125453 -7.192238 108.311943
-9.772658 10.205636 84.500069
-12.243810 -10.738263 105.546532
-3.383157 9.755902 135.286606
14.371188 -8.868791 89.688576
12.752546 -4.055280 111.640388
3.261059 12.651805 130.647278
-11.569057 8.609355 137.252838
-10.143110 -3.251236 150.322174
4.053864 -9.541124 81.360245
-10.653596 -5.264078 119.159180
-16.316786 7.873307 137.576920
11.031612 -9.585665 124.528419
11.443745 8.210680 132.666336
6.121701 8.259456 108.758881
-8.475052 11.953990 88.424011
-0.760754 12.126176 132.130432
5.492495 9.549965 149.357071
-4.222108 -12.428396 136.233536
6.835528 -12.695557 113.935738
-15.289309 8.178364 78.810799
-10.790215 13.050681 93.011414
11.469797 -5.292032 141.533615
11.111151 -9.628291 97.072578
-14.272142 4.860789 108.291931
3.232052 -13.744855 122.809334
-12.937161 -6.890684 144.757248
6.173474 9.811149 85.299934
9.847894 0.769431 151.976791
-11.134477 -3.916828 144.634811
16.435730 4.147267 102.038841
-8.278973 10.970596 87.905365
-6.620391 6.124393 116.728127
-4.303726 7.519906 118.802193
3.520323 7.196214 74.436790
-6.546692 15.215322 138.324905
2.747820 8.840316 81.052879
-16.658749 -3.009406 97.968460
-10.625974 -6.024724 147.857468
-2.015487 11.951486 100.869576
11.252273 -8.930582 125.474815
-9.664465 -3.494836 149.746246
17.600014 3.527133 81.483604
-0.316815 -14.052185 133.379700
-4.414210 8.087296 76.418114
13.392372 1.203281 113.659409
-16.737368 -0.022385 105.308334
-9.911261 -10.112231 90.075249
1.151826 -10.690838 114.842598
0.821550 -18.431450 126.555870
-0.258830 6.799877 113.213341
5.278493 -9.827098 122.975777
-10.359110 -8.698924 110.773659
-20.484743 -2.470778 85.173195
15.694065 -9.738091 79.882599
-20.361862 2.129832 88.365707
-15.652888 5.776964 97.076942
7.167909 -6.201313 143.999619
-14.140112 6.985481 125.950729
-10.170014 -5.648358 150.647415
14.427828 -0.150280 130.785324
-2.722594 9.504670 76.427567
-7.934842 10.699364 100.467087
-13.597900 2.526464 107.480759
16.568207 -10.816253 85.997971
-11.038992 -1.910279 119.317627
-18.278557 -6.320899 81.779465
-1.980101 -13.060685 120.836975
-11.298490 8.156980 152.320602
-0.377975 14.451357 97.455063
8.978797 6.155713 122.455002
10.052482 -8.948544 122.247726
-4.511093 12.896643 150.456009
-8.488153 -12.074898 129.508606
-5.660188 9.782169 102.486511
-18.452648 4.935385 77.420746
-23.415390 4.353531 75.176170
-9.799976 -12.036765 141.017792
-11.327768 -1.936046 115.491875
-14.054186 -4.186863 125.920074
10.963670 1.681425 115.787277
13.940909 -3.769501 113.713318
-8.556913 6.431171 152.327621
-20.080019 4.975433 87.769653
-9.486166 13.881812 142.085983
-2.218723 -13.218886 126.617744
-1.808992 15.674423 142.829575
-12.057168 -3.446151 148.947678
18.639654 5.657847 79.590973
4.538104 -8.366827 140.066299
-0.248885 -10.794424 113.872940
10.655013 10.632957 89.879570
-12.635441 -1.234502 114.278076
18.702969 1.102002 81.001610
12.299178 -4.233868 110.978264
14.848773 -0.663910 138.202164
8.808261 -8.902156 90.237251
-12.373840 -12.567311 133.320480
1.833930 -12.308047 110.691505
3.792447 7.418278 108.558990
15.982056 -8.625204 93.160995
-8.184024 -8.259965 145.409561
-8.520734 -10.721850 100.820389
-12.333686 -8.633286 143.631943
3.464496 9.564868 85.341080
-11.863491 15.901278 130.162888
-12.403956 0.343165 123.375145
-12.098169 -9.283338 96.631134
-18.902575 -7.029349 86.728615
-3.591113 -11.772896 111.144257
-1.883127 17.796974 142.529709
-5.693563 12.732097 147.535812
-11.265595 -12.725907 133.087799
-1.623949 10.551533 99.036613
-6.529905 9.481007 128.464066
-9.554992 2.821368 124.062164
-8.176803 11.896199 136.271362
-7.378920 12.858427 145.228058
-16.173609 0.360634 128.242737
9.905536 -13.538795 131.163254
-12.567468 -5.030556 143.558136
-7.880086 -10.499393 126.597313
-5.539197 -20.379507 138.182800
14.033858 -5.053030 131.911865
6.771093 8.337398 146.628830
-4.583712 14.745566 139.314606
6.950074 -10.319554 80.912392
-13.016069 10.206716 88.363457
12.505261 -7.316201 110.638329
-18.614754 0.143612 89.007080
-13.925636 12.189617 138.885208
11.190602 5.104866 109.647697
17.349270 -9.896463 90.624504
-7.800367 10.988447 147.156601
11.753827 -3.943450 142.635010
-3.918007 -18.441929 131.363449
9.729811 3.652293 114.288475
8.189969 -9.829615 103.170525
-3.032660 -15.383569 132.681473
13.336201 7.321203 99.227371
-5.362322 -7.295090 144.016846
16.837626 6.102304 99.073959
-6.678993 15.949803 137.040710
-4.609861 15.164865 147.984467
-12.067301 10.129604 153.619400
10.575636 11.283305 87.623024
14.949794 -0.051117 109.900551
11.850032 5.252708 133.629913
10.349291 4.686433 113.649590
-10.236050 -0.554117 148.812851
11.187366 -9.296691 108.488518
15.940551 -0.847281 103.839081
12.673820 -10.669345 79.622070
-9.385495 -12.065749 91.573868
-11.907624 11.169387 148.279938
-5.209382 11.530186 149.560806
-8.628833 12.565864 134.204422
-6.848953 -18.259441 127.316727
-1.093965 -13.307042 126.201172
12.666434 1.125188 149.466660
-12.856884 4.007092 111.802971
10.260036 12.439232 86.991905
-11.723308 9.547575 139.073914
2.042410 -13.101906 131.724670
10.900444 4.581303 126.700478
-18.499189 -0.931195 99.890648
-4.010803 -11.681040 142.983170
20.113556 -1.021766 86.865776
-2.517824 -8.832109 84.479660
-16.989389 2.664603 131.759567
20.933611 3.207034 87.295502
-5.277698 10.217299 75.871437
-11.774421 1.686684 121.121704
-14.637391 3.653846 108.207062
-7.794254 -10.715159 140.639755
5.979347 6.881787 123.771339
19.457556 0.626284 88.108315
-9.622444 -9.739253 113.783112
12.892497 -5.911650 117.471718
5.746236 -7.686374 140.361008
15.477263 -7.249612 137.231018
17.237415 -2.567855 103.300117
7.143262 14.139341 147.480637
-7.681845 -18.111673 136.446274
13.348143 -8.530078 135.108337
15.173017 -10.730949 76.785156
11.991722 12.897858 89.672035
-6.658612 12.822599 142.582809
15.489122 0.155857 126.536301
7.817638 -9.633396 85.527710
8.677487 -13.120993 127.314720
-18.080090 0.069673 94.756500
-10.122584 -9.245331 94.089539
-2.937464 14.725172 143.781036
5.377530 9.866821 102.299072
2.849040 -8.572173 92.101212
-12.030393 -8.159481 142.550354
7.501589 3.736548 116.630157
15.823225 -1.117373 106.686066
-16.452133 -4.367345 150.365417
18.173525 5.890254 86.405724
-15.750969 5.806583 78.294426
-14.592990 8.557975 132.672760
7.834891 -8.470765 99.972488
-2.778722 15.979698 145.535538
12.607511 4.061541 108.913490
19.532125 5.032044 78.991699
14.993152 -1.115287 138.302948
14.064024 -0.431931 110.325951
-0.248406 -9.159786 88.989014
-7.196225 -13.448815 130.298157
3.203086 -12.132920 120.425362
-1.694120 13.690324 92.152496
-9.047789 -10.137367 101.437202
17.729418 5.468692 87.339081
7.054555 -9.480359 115.520966
3.126194 14.197493 136.285370
13.794392 -2.523713 140.653381
-19.461277 -1.044974 87.601730
19.307959 -7.824403 82.414391
10.664546 7.330270 128.609085
-10.417551 -10.152608 79.971077
-7.023508 -10.576270 113.978859
7.366399 11.037653 149.744400
12.121817 -13.637236 135.321960
-6.627159 -12.954527 132.068008
5.881569 -12.330238 76.318642
11.863237 6.654038 127.208351
-1.055672 -11.360664 126.961151
-6.908815 16.091349 143.238663
13.473574 -8.539657 96.052963
3.536464 9.305283 83.409767
-6.026109 -3.798209 143.700836
-13.704009 4.473597 151.405334
-11.881961 -12.556380 133.119110
-7.671113 -7.449758 81.685837
-7.011162 5.280128 125.018471
-16.746458 -2.504320 98.925888
4.130962 -10.854525 138.092850
-6.424767 10.949300 132.158829
1.815205 12.207006 140.518204
-6.346772 5.803667 123.317368
2.470808 5.505082 116.957008
8.315498 10.511034 80.092209
-17.966194 -5.820409 92.913147
-10.613544 10.954855 89.928917
21.062649 1.004812 89.961945
-7.501660 -11.254939 125.722984
4.396912 14.176725 92.986053
-6.924964 12.501102 103.097084
2.839347 -12.182674 118.956734
-10.707136 12.323026 142.679214
-6.720509 -15.528412 135.924728
-6.675828 -10.103370 85.010193
-6.160402 -10.703219 124.718201
-11.925165 16.367210 130.020294
0.568151 -13.068309 123.612755
-6.306603 17.509569 134.046082
6.401333 9.532059 126.850616
-12.738526 -0.413121 124.618469
-12.687090 -0.072010 152.641632
2.499063 9.908709 105.603111
-14.010079 0.186021 149.664948
-11.013100 10.321409 92.494362
-15.893869 -3.912363 96.691589
-9.118539 11.035255 143.055664
-3.426823 12.869769 137.798676
-10.869561 0.746205 122.330879
-12.009068 -9.241338 127.441162
16.306368 -9.950491 77.755882
-12.885645 -11.754172 135.551971
-9.941342 14.569345 131.801880
-5.320542 -9.699716 85.178574
-7.642222 -15.699877 124.730087
18.103115 -6.995190 81.043739
-12.724441 8.518160 86.165916
-11.687712 -3.069765 115.426941
-3.948533 10.889759 134.102875
12.380941 -0.808158 123.836906
-6.092450 -11.707687 105.128296
1.288303 -11.337831 137.776779
-14.318574 -0.313037 109.684288
-3.441772 5.440450 107.492729
18.360500 4.979121 81.159767
-9.627511 6.240637 155.811630
-7.489199 -10.021020 113.823303
-0.545034 -12.679498 105.677757
-12.216641 8.717858 81.432495
-19.651434 -1.124833 92.022781
13.958788 5.971972 105.943466
5.491327 10.677697 104.096306
-13.787667 -2.398535 151.802673
14.894091 -3.448798 137.683167
13.586359 7.166327 135.143738
-14.119203 -11.489641 137.684891
-4.206357 10.872816 145.468460
17.110497 -0.092070 95.909798
-14.514178 -8.452618 79.272385
-16.051712 8.692084 83.360672
15.555326 0.792371 140.837097
16.467402 0.172840 97.797356
6.762678 13.964371 90.538406
-5.799599 -5.434289 144.752640
15.563762 -8.564248 94.006004
8.171786 -10.832909 122.207069
-11.135347 12.591906 131.433746
17.053797 -6.303460 101.649117
17.581499 -6.856656 101.865776
-3.193926 11.538592 153.588669
-11.000334 -9.359444 97.536674
6.591428 12.386318 99.142143
-3.346096 -19.944353 139.210388
12.670930 11.164229 97.549004
-6.300840 12.443916 132.157898
5.371790 7.986495 77.465927
20.219202 -3.728975 90.542419
-6.267022 7.823073 125.413673
6.027584 12.751748 140.701874
-12.231638 8.940659 101.610237
-5.592175 7.640465 81.619133
-20.799528 2.357274 79.645210
-17.763042 -3.388449 93.030113
-15.702390 -10.117240 89.797043
4.645468 12.384786 140.582962
-10.707664 -12.812541 139.112549
16.938049 -8.316669 90.688782
9.896183 2.799417 113.216003
15.717111 -10.923440 84.094200
11.017598 2.719655 120.982475
-4.260866 -7.625884 141.096924
14.063216 -2.263707 143.435181
-20.422026 -1.121228 91.129250
-0.797733 -11.665545 126.400620
-14.197632 12.918446 139.821426
12.350458 -4.340327 144.603912
-12.110087 -2.036547 152.623978
-13.182870 -0.590887 123.593109
12.977451 0.174758 126.915268
-10.421375 -8.535013 118.676460
-13.766484 8.296005 96.177528
-5.699700 10.996192 134.910812
21.314590 1.300574 90.218628
13.828662 -1.976381 132.199707
-2.236281 -13.773710 124.610092
13.936171 8.358682 82.300339
8.331529 -11.468194 112.621567
6.268729 13.550460 98.162018
16.736900 1.965429 100.653320
-12.994452 7.748395 128.910950
-8.032414 -10.164557 78.340721
-4.969488 17.282099 142.759033
16.724529 -2.666587 95.128670
0.575743 -13.290684 128.928543
-11.759398 -2.918581 141.273453
-8.299150 -10.856768 106.555832
-2.629687 7.328749 111.553459
10.158883 7.785771 130.592316
21.285065 -1.202792 78.626823
-10.809156 12.526031 151.413254
-12.039455 0.364070 126.481583
-19.314947 -0.275312 78.514160
-4.639996 -15.994057 143.678787
-4.948955 -11.100251 107.359665
14.357413 -2.097901 127.521385
-10.579728 -7.663398 141.930801
-15.973064 -1.969885 137.290894
-4.423209 -12.754510 112.729134
-3.062936 13.506130 141.164703
-14.342928 12.449070 149.794312
6.220794 7.084182 153.893173
-6.106398 -6.280817 143.917892
-2.773734 -12.063162 120.417847
1.189750 -11.027006 86.782280
13.128469 6.649320 104.019653
17.774237 4.616743 81.876549
-13.355762 -7.145334 125.802666
-8.699968 8.600121 152.225983
-6.525074 7.483426 152.951035
7.883336 -12.808582 124.848480
5.520350 4.969753 118.264435
-14.158634 -4.488153 141.283600
-4.368438 14.097211 136.248276
-8.855054 13.493629 148.800827
-12.347554 -8.451379 87.529732
-11.339390 -10.027665 110.973999
13.260596 -1.772493 130.156662
-1.175173 -12.059584 107.048683
-0.729055 12.617431 99.283577
14.844285 -8.151890 103.403503
-3.482644 4.947474 152.689880
-6.594494 2.194931 151.772766
-18.081316 0.874790 97.909035
14.125142 -8.861558 136.307495
-8.688253 -0.873315 147.525604
-6.271261 -11.679380 84.813362
0.890512 13.033296 136.627762
-7.353714 6.474782 154.854691
13.634890 2.561627 130.707169
-16.327299 -8.721772 81.705589
-18.006243 -8.895098 79.597511
-12.843341 -6.933093 127.405556
-2.066974 -15.934184 137.567413
-1.597976 -10.730621 97.810898
1.490028 -18.906340 130.001160
-11.535359 11.170439 130.605972
-12.364653 -4.819951 118.969963
6.381062 -12.143984 121.467354
-14.884356 -0.010425 135.106491
16.230913 -10.744050 89.320587
14.422915 -5.916523 104.305405
21.318687 2.906636 77.201363
-10.125909 -10.995843 136.634720
-12.734020 13.659022 149.191895
-15.323320 -10.889482 80.506874
-11.504473 -9.371888 105.313828
-14.518643 10.597822 154.316360
-6.618144 -11.552816 123.854355
19.816420 1.850639 90.426277
3.224049 -13.132277 122.952293
5.555911 -9.268414 97.569969
12.721377 -0.662959 149.812164
15.896763 -7.788412 92.560997
1.041197 -12.756566 107.390129
-4.222576 11.309555 153.688507
17.012650 -2.339926 100.107414
-16.036680 -2.677646 150.569473
-10.852797 8.280168 152.298279
-0.878784 -12.775041 108.086632
-9.888288 -10.896311 127.579666
-6.571112 -11.595834 141.787796
-10.012791 8.761013 103.608658
-17.513636 -6.274614 89.759430
-1.681765 -12.255848 112.332024
-5.342065 -5.707387 141.871902
-9.300548 2.048582 150.031006
18.892424 2.606866 97.698586
-6.199193 12.514292 133.209976
-3.738564 -13.082620 114.626190
10.739695 -10.261527 119.184937
4.757117 7.736734 123.567863
16.433256 1.116569 100.643562
2.891733 8.463361 107.369606
13.592622 -5.483463 109.655540
-1.637005 -9.211321 89.971893
14.178061 -8.815289 89.477844
-16.702452 -9.493736 78.695778
-5.255420 -10.414383 138.395737
-6.533579 -13.942030 134.071182
-0.525444 -18.184893 131.424011
-2.003190 12.378135 94.614738
-8.901633 -11.465727 125.565544
12.558985 -0.241738 146.119644
-13.162922 -9.035439 96.521790
-17.308634 -3.251510 103.401985
-10.795389 1.031260 150.133240
0.064394 -11.460957 138.862289
1.255095 -14.562490 133.344177
-13.947828 -7.629705 144.232300
5.399044 13.368786 145.782013
12.579819 1.211370 122.601128
9.599800 6.557173 127.316376
-16.599827 1.012631 99.460846
-9.737699 -11.045296 121.575569
-8.483685 12.678382 147.431183
-14.907167 -5.915862 130.542862
10.799760 5.440583 125.645889
-4.640752 15.232739 144.566162
-15.634677 -1.351306 126.251411
-7.148092 11.172542 96.244476
-6.914418 -12.288561 113.315720
14.073588 1.164865 132.415756
-7.564428 12.725641 150.492111
16.770483 7.019086 91.034386
-9.031414 -9.636641 107.537003
6.992320 -9.929825 110.832115
-15.852000 6.369078 94.182945
19.678009 -2.334710 81.972847
-17.818449 -8.805223 87.781242
3.240733 -12.294395 123.332726
6.295051 3.250488 121.271477
-6.515879 0.366332 147.740875
13.092555 -7.165978 111.970093
-3.887091 -17.566208 139.236359
14.563928 -5.808457 104.566368
-7.573558 15.725387 146.937347
-5.989551 16.685539 135.447678
-10.237217 1.044472 115.347710
-8.056506 12.095110 97.229774
-17.593325 -6.886293 80.804459
-3.852471 -8.176923 142.307251
-13.461162 -6.050903 153.759369
-8.128836 4.682868 111.116295
12.170188 10.238404 87.541451
-10.155111 12.217066 96.506996
-4.453449 -12.416767 126.204781
1.436340 -11.122553 82.500687
-9.294759 16.659033 125.687157
12.993223 3.733744 106.870850
-13.098563 -9.215960 102.751968
-15.480473 5.274610 86.158386
-5.491251 8.407329 81.757530
-14.388448 -5.281752 134.605515
12.496141 -6.577451 113.187927
-7.013604 -6.555897 142.541885
-8.165410 -14.363633 130.276535
-1.624973 -13.916291 110.005196
-10.156752 11.702744 133.361618
-12.557851 -13.047412 142.800781
-9.399450 11.791741 96.389023
-0.814958 11.392066 87.544884
0.106062 -14.135584 122.826355
4.011332 -11.002633 126.293083
13.865852 -2.119715 123.247421
-5.623275 10.817730 90.145470
-14.273013 -7.723647 88.724045
-3.312904 7.317786 110.375320
-2.742663 -12.013270 136.685287
-8.404466 16.715727 130.674759
-8.307066 -6.855304 141.521378
-16.536821 -8.813695 92.151810
-14.016294 6.742712 131.707016
-14.838390 6.456892 129.357986
-6.038404 15.514565 146.873657
9.642449 9.376582 132.447174
-13.529154 6.263886 151.921432
-0.595887 9.734258 149.909760
1.722159 7.160067 110.421211
2.947023 -12.568404 117.942291
3.749778 6.173003 109.667473
-5.540044 16.889101 133.088165
14.608385 2.048172 130.579147
8.634048 -7.696948 140.430878
12.601630 -11.504704 132.611542
-4.749957 -13.369101 143.282639
14.720576 -6.280062 131.928986
-10.791684 12.140475 87.897163
-12.167659 -4.189837 127.226685
1.304789 -11.601434 89.008522
-9.978174 15.617961 146.449753
-14.431928 8.246137 150.625381
8.425385 -12.094827 135.556061
-11.551277 -1.680529 122.216324
9.077038 10.450441 149.444061
-9.624804 -4.635255 145.876068
-0.783900 12.230211 129.386917
10.999539 0.504586 119.465302
2.771081 -16.787550 126.543839
-4.503162 -13.549071 138.795563
7.700446 7.920490 128.304779
-2.825234 -12.512945 125.187668
-8.908071 -9.118889 144.419220
12.379731 -0.405067 148.573120
6.468226 -8.727686 85.626221
3.889877 11.882548 88.799332
-2.618263 13.621714 141.905807
10.049842 -7.343763 140.022629
-19.528980 -5.440268 87.457626
-11.700035 -7.841577 121.416801
-13.771503 -9.628691 90.222588
-9.265730 0.080579 147.452682
-18.200735 -7.568370 75.484573
-17.812706 5.444941 82.479042
18.835312 -7.569512 84.071793
15.111247 0.900359 136.547073
-0.115187 13.771462 138.663483
-6.177575 6.129398 118.506119
-5.674349 -4.920376 144.296188
16.420195 -7.958182 81.346550
-6.806772 -17.805891 139.018402
3.026233 -12.328463 76.607628
3.402725 10.222430 150.799347
13.460961 -9.761202 130.926315
-6.480547 -6.790295 144.972183
7.510068 -12.861390 128.953156
-13.343563 3.388450 131.125595
-9.953053 12.853182 144.909943
16.532021 -2.552932 102.278656
-5.642008 -12.054070 140.299484
-10.276048 12.940400 133.564163
12.402061 4.224972 132.287918
-8.222520 3.710025 153.306686
1.943960 8.430729 128.646027
-7.756401 4.855296 115.491905
-5.418220 0.428762 152.685654
-1.075355 12.717133 87.704185
-2.222226 12.025269 90.389549
-2.381896 -9.970628 79.939232
-5.714359 -15.410546 142.530975
6.181530 -9.175633 87.598167
8.993915 13.056570 94.204491
5.022959 12.583037 146.630676
11.630780 7.362866 125.700829
-15.060313 -6.533860 96.098457
9.574797 14.733029 138.718658
-11.053925 13.575327 127.994682
18.419306 5.740544 88.414871
11.414422 0.391753 118.801331
11.346545 -9.448890 135.917633
18.045183 2.930037 97.830414
-0.921984 -11.392915 119.833534
-9.126090 -9.598989 86.873154
-15.540647 1.686199 152.349426
3.120698 -15.604290 126.154228
-4.611533 16.810562 137.756897
-9.187268 -8.943968 91.472702
-14.919770 -9.973873 84.315132
5.022164 -11.431680 80.713448
0.774131 10.148984 104.125885
-12.364952 -9.770471 125.875481
19.096319 5.508643 84.363037
6.018191 12.447319 135.418839
-15.316180 -1.258931 99.898689
11.954413 -4.016480 115.581169
13.933061 -3.941713 141.246933
-1.819779 -13.995770 128.538406
-6.805639 -3.049315 147.493088
-12.412994 9.879207 94.836929
5.861537 -11.822951 140.286530
-2.779401 -16.898016 134.040939
-8.730719 10.796530 85.629745
-6.935606 -11.399141 114.174171
-9.415996 13.520894 139.123367
8.120620 4.658010 116.696793
3.571024 -13.341682 125.272545
-14.582841 4.703425 150.633286
-0.536531 11.497274 132.771393
12.770370 -6.247458 117.600899
-11.743603 11.151314 154.397675
-17.097782 -10.075708 90.637314
-3.544946 -11.761703 88.029846
13.125827 -4.548954 140.367157
6.495775 -9.606324 103.804214
-5.643486 -16.601101 136.824295
17.262833 2.886414 93.941704
-13.032439 -9.174298 140.300323
-2.245766 12.306793 131.379288
-8.071287 10.586274 97.477783
0.632080 12.331469 101.054497
17.932859 -6.136250 84.575836
-4.688330 -7.898351 93.588135
-17.696035 -8.960599 91.528091
-6.603379 11.952694 150.146652
-8.207486 1.662671 150.296310
12.078612 0.535298 122.152695
-12.625219 -10.664919 140.585480
-15.356442 -2.604642 146.309662
-8.804983 13.886322 93.157036
-2.193949 16.840651 144.600540
-10.357569 -8.413895 104.359276
-9.643825 1.132189 119.414490
-20.234070 -3.440765 90.728264
10.360050 0.530907 117.245827
-19.133327 -4.748803 99.123482
10.315741 -8.490762 115.613625
4.030602 7.809848 122.645836
-9.765027 -15.137997 144.071426
12.629580 7.876897 98.603355
1.959239 -8.965335 141.638855
-1.177768 12.106154 136.712845
-11.696206 9.658512 153.461395
-4.525531 -13.096547 118.134468
-13.051979 11.090629 153.206848
11.576962 -6.464028 141.290039
-5.109461 10.925879 149.194427
3.583236 -13.332159 121.329384
11.682906 2.389679 147.527878
19.864874 -7.631739 76.399078
-11.305516 1.257512 116.589165
12.282873 3.594019 127.329872
12.328942 -8.923738 115.967117
11.870664 -10.099339 87.178291
-9.476266 -11.269314 143.443039
7.212111 -8.354610 92.552467
-11.948142 -2.907030 150.556610
-4.726557 -18.815626 128.721558
-7.872496 11.342572 137.521912
-10.799986 -7.344326 147.736847
12.321968 2.874662 109.417412
0.715296 -11.447505 96.623367
3.512900 5.457917 117.847450
-3.872009 -17.899139 121.982452
-8.863664 14.521643 143.319122
-2.121244 5.163654 114.517334
-11.480771 -3.945887 143.981781
7.790934 -10.165321 80.364464
18.734859 6.532453 85.247841
-13.379274 11.740794 136.980484
-11.829619 -8.663688 87.255173
-11.525452 10.594076 142.061874
-3.500300 -13.000926 99.391548
-12.487272 3.369863 105.799477
13.943127 -4.486804 140.550247
-12.390610 -4.920557 115.401573
11.939904 -8.081982 81.141365
10.892661 -8.770748 127.853783
-4.916790 10.208546 153.032013
11.789380 8.291484 98.409294
-10.673516 -3.863607 147.827179
14.430144 -8.301489 105.651321
-12.492462 11.053730 136.460648
-9.766997 6.447109 110.383194
-10.826238 8.211754 85.921799
9.769260 -9.225046 139.804504
-12.451192 8.379598 104.902161
12.325667 9.184017 89.959335
10.796164 -10.617935 134.293747
-20.520065 1.007664 90.236481
7.593716 5.451705 121.122719
11.952738 -4.728784 141.675323
12.288266 8.782941 132.398682
7.359886 -12.970459 136.537079
15.875931 -9.799128 82.271370
11.592093 -7.461248 115.885239
2.371791 9.531945 125.574379
-16.914249 3.665806 99.555176
-11.685641 -8.710054 149.372726
0.387655 -13.925690 107.579124
-9.631046 6.738793 108.970833
-16.897827 -7.003902 82.096718
13.843000 -5.850864 111.610748
-6.690547 14.790205 139.777969
-17.321890 -2.238793 103.522079
-16.508274 -7.663474 87.381142
-4.103232 -9.575357 76.464645
-13.860299 -5.154876 118.925270
-8.245811 -11.303679 136.018066
-15.630209 -2.698270 151.277054
-14.639963 8.928646 84.130356
14.162457 -0.245039 117.927139
14.688376 -1.264016 139.266830
0.097157 8.359562 127.726250
-11.475853 4.515026 107.751877
16.183151 -2.650268 103.837807
-0.222747 9.104554 153.706802
13.020040 -9.898276 130.025833
6.969824 -10.716461 104.544594
-19.124241 1.617272 80.644524
12.561376 -0.691053 121.352707
17.049435 -3.486291 96.271049
-5.618340 -13.297514 103.978745
-16.202381 -9.733123 83.661766
8.876604 -9.859542 127.471451
-7.382280 6.778438 152.422653
1.224212 -8.639701 86.677063
-8.726888 5.160288 151.569000
10.603331 13.727551 96.979431
13.422360 -4.540106 139.011444
10.741708 3.317132 112.395035
-12.631671 -12.241753 95.697937
-12.798308 -1.785557 152.121552
2.909038 -14.236781 128.687927
8.334142 -12.568389 135.519882
-7.037271 -12.257288 135.408630
-4.535444 12.549270 141.244659
-13.988962 -0.944290 123.810318
15.312354 -6.464099 97.823280
13.147657 9.091759 87.290581
-0.342259 -4.920491 144.876587
3.816986 -13.001220 125.399658
14.488951 5.345820 98.265877
-11.754869 9.102952 135.391068
5.178794 11.728645 136.259399
-18.408978 -3.583799 149.100037
-10.941108 -3.537288 117.589485
-15.630088 -1.216034 152.063232
2.028509 -11.865891 137.139114
17.716597 3.021672 92.588448
15.339532 0.352598 109.790367
11.333422 -9.531457 86.019852
0.925932 12.548547 99.710770
-2.354577 9.630778 103.169121
-2.312930 -10.407100 89.038231
-15.158010 9.835961 151.983139
-7.659856 14.984798 144.904205
-14.865886 9.450488 93.463684
-3.631533 -17.385321 132.872925
4.105528 10.548388 150.806030
-7.869698 10.129539 132.699646
9.116807 -3.637666 144.519608
-10.555400 11.230731 126.601509
-6.841910 12.784566 141.297424
4.488473 7.789963 107.061508
-8.682574 -3.378603 150.340179
-9.345659 15.712720 129.838608
-10.977968 7.434698 129.543793
9.476706 13.194699 92.875618
14.651565 -11.842840 85.314232
17.768515 3.875297 86.920868
-10.211239 1.659384 150.211136
-14.572269 5.950529 106.939369
-9.049994 -2.988857 149.487396
-6.458101 -13.032081 135.063171
-12.591988 9.190660 154.221954
-4.759659 -11.261222 138.608841
-2.968310 17.019615 143.564178
9.755185 -0.007650 148.620804
18.170521 7.522989 91.660316
-7.252680 -9.946348 140.503296
-7.393784 17.745928 146.456360
-5.402548 -14.192739 132.202209
-9.981621 12.429929 89.814102
-12.181765 -9.858871 93.395813
-6.291293 9.293467 75.748428
-7.131358 15.760506 129.570450
-9.669739 -13.080231 131.375656
12.392168 -1.127959 114.675926
-2.575554 -13.000305 102.848579
3.977171 -7.292837 72.924156
3.522956 -11.106153 90.422112
4.716922 10.650634 150.620392
13.987478 -5.436307 108.588188
-12.542553 -3.427332 143.188980
-12.159213 12.449613 150.386063
-8.047274 -5.468418 143.592911
12.441414 -7.715723 107.113831
-7.622694 1.779657 152.018921
-13.273499 -2.718206 129.845947
10.889833 -9.915000 90.629478
-14.393126 2.346828 152.804764
3.309858 14.780134 144.771820
-2.807952 -13.746836 139.958847
8.853096 4.240489 150.547043
-4.427437 8.369494 150.755920
-2.304240 -9.862337 139.863205
-6.037635 8.598195 104.858337
-5.007130 11.058133 151.972916
11.400234 11.352623 87.728554
12.837367 4.670806 107.212021
-0.612169 9.553419 148.934753
-9.167530 7.220281 125.631821
3.779109 -14.768498 110.965919
18.201344 9.322988 82.400993
17.778997 1.917844 97.757294
8.299806 -9.226728 115.310516
-6.378611 -10.545453 94.845451
19.587729 -7.768460 85.156944
16.436539 7.655552 78.595955
-12.238731 8.862564 152.407471
-12.092401 11.289654 151.288300
1.086807 12.272089 90.096390
11.880484 -10.411253 124.576820
-0.442581 -15.044133 126.221092
1.217324 -8.791214 92.547813
-0.247523 13.386918 137.198425
-13.668497 11.180625 88.182907
-12.173123 1.445114 151.840820
-3.881167 14.140329 142.899612
-7.406761 -12.701547 142.729584
-11.161161 -7.199417 112.796883
12.866688 -5.414016 141.670364
-1.387678 -17.736340 144.139572
-15.664719 -1.127871 147.872147
14.426500 -11.168959 132.874435
11.198360 -11.509096 134.387482
-5.257298 19.156214 139.980133
-6.430717 14.383801 149.270630
16.191179 -5.444754 137.779297
-0.507955 -11.157363 114.058281
-14.981443 -7.502928 92.814270
15.667809 -3.852810 103.888443
-5.780119 5.558310 111.701042
-15.916870 5.581353 96.489647
-12.341270 6.768405 129.381805
-8.961713 -10.802568 78.898087
11.822484 -9.230034 120.107231
13.027958 4.068620 154.101074
-7.142105 14.214464 145.957520
3.089953 -11.618464 133.867569
-2.856099 -9.136402 81.987839
1.037464 -9.335130 140.287186
-2.531402 16.589916 144.119537
-1.627291 -10.842323 119.826225
13.310760 6.637015 102.136292
5.555520 11.756832 151.505264
-4.472259 7.580259 152.131287
-14.791625 5.291202 133.105743
3.933139 -14.826773 124.338409
-11.266216 -1.142223 147.118988
-5.677480 13.125014 150.270630
19.534708 -6.056551 80.149483
-13.707211 7.200951 131.280548
13.078765 6.575047 102.692726
-17.869265 2.357244 91.720619
12.272264 1.225871 152.179947
-0.533892 -21.847576 131.015533
1.969425 -10.070783 87.979210
3.001760 -10.036443 140.063217
2.526825 -8.356218 142.099686
19.921694 2.731800 83.165771
-7.250991 -9.663062 98.456642
-0.005867 4.707798 117.159622
-4.688190 10.882065 130.960770
12.170128 -8.553374 99.160835
9.603614 12.380245 141.500778
-10.927518 -9.609107 106.965103
-5.906062 14.014801 98.137680
13.455337 2.615752 114.051247
-3.055088 12.526170 140.234802
7.359576 4.873477 118.596954
1.331108 -12.479395 118.294807
7.164362 -12.212905 84.636757
6.959376 10.063040 86.093033
3.733390 -10.454456 86.599174
7.404270 -10.779667 107.752838
0.774635 -10.262355 89.917656
13.462502 9.146048 90.337219
2.056221 10.268164 102.872063
-5.700054 -7.489900 140.078690
-6.326978 12.502315 151.360489
18.782862 5.317204 92.041153
-14.395721 -9.643048 74.657959
-13.158469 6.122227 101.131302
5.434813 8.765925 79.853256
1.673746 9.458883 79.735085
8.472759 -10.563144 122.058594
-9.386137 -11.397449 127.642418
-1.032368 19.484760 144.093643
-10.300568 6.641114 151.496750
12.237984 -8.797589 125.757668
-4.789207 12.437272 96.037148
-6.164096 13.572556 150.188492
-8.301120 -21.164433 133.687317
-12.334394 -3.252423 122.558281
-17.910198 -2.479897 99.585396
2.300980 -13.067605 135.224289
-11.995247 -12.916352 132.860947
-9.580912 -13.209145 140.215683
-2.578128 -14.828167 130.480392
-12.434593 9.204853 128.148743
-5.621197 -9.307882 96.086205
-18.581825 -2.236243 97.391357
16.945421 -1.122351 103.413162
14.495200 -5.289684 139.157455
-17.348602 3.853494 81.891220
-4.524984 5.330111 115.591721
-2.418819 9.272302 151.820175
-19.693623 -7.794490 78.143265
2.018013 11.999084 143.131226
-16.831928 6.380466 83.011101
-2.516918 8.113682 79.076637
-18.338913 -7.808575 91.879684
-2.512645 8.298855 107.191605
-14.220094 7.216107 100.863434
-1.916615 -17.561155 133.961792
14.050193 6.845053 100.222748
-14.412778 10.637637 137.408844
-20.414932 -8.486753 77.042381
-4.597734 -19.400341 138.769928
7.123484 -9.667987 110.550896
-14.735796 -6.985868 96.953506
-10.449784 2.916939 113.179031
-13.944850 -11.024592 133.812698
4.669103 -10.279500 115.389778
15.882146 9.199926 83.937004
-18.562052 -4.797716 93.090469
14.700027 -9.168505 93.533508
-9.966879 -10.311090 118.776077
-3.441179 7.890945 108.499519
-4.442380 -8.091184 91.457611
-9.566813 -11.099834 93.920982
-6.702809 15.171187 146.826691
-0.797873 10.774833 89.067352
9.828303 4.819445 109.883827
-19.874146 4.166317 81.655586
14.809299 0.873539 134.460175
-10.755101 12.746643 128.220932
-6.985669 -12.311950 104.712799
-14.261728 -7.131310 136.711533
-13.637242 9.102559 152.151443
4.636877 -12.328214 105.999664
-9.395424 15.883226 128.961212
-5.339851 7.187515 107.445450
-18.974911 -0.215713 88.009583
-1.971254 19.130789 141.649170
16.042971 -5.450089 95.822830
-1.220741 10.355544 104.170036
-1.463094 14.087983 89.715500
-7.615157 14.199737 138.350372
18.451134 4.415610 78.222130
9.443058 6.913969 153.432312
2.081046 -10.098019 87.565956
-0.432730 12.437624 98.643120
15.427807 -1.246042 108.424110
-4.920292 12.346313 146.755280
-1.469652 -6.542467 143.807922
-16.025360 -0.118207 144.775986
-0.455336 -14.686729 128.356628
2.420757 14.007084 142.056992
8.260670 11.551791 131.498169
-11.738267 -8.495415 129.081299
-8.204536 -9.312897 94.793884
0.881220 -10.565701 85.292549
-22.929571 -4.348162 87.695877
-12.942914 -2.731418 119.086258
0.758428 12.738625 95.487724
-15.947897 -1.189532 130.440094
-1.305550 -13.518710 117.974869
-15.995207 -0.584463 96.514870
-7.585587 13.718863 138.502167
8.089490 -11.640888 135.957077
-16.411474 7.453683 77.000801
-15.925699 8.234505 149.846024
-9.680458 -7.706569 149.311203
-0.497899 7.491192 126.693398
17.431406 5.790629 91.564468
-0.137037 -13.809002 127.860588
15.077573 0.915867 133.824051
-10.743340 11.797937 93.457344
-12.914706 -3.637419 121.609718
2.866554 -13.750959 134.958572
5.688177 0.422110 153.365677
7.342579 -12.463332 133.066284
-12.880655 -3.758098 122.864326
-2.559928 10.055373 130.067032
8.240489 -8.267127 99.846825
1.741481 -11.932994 122.915680
-8.881139 -15.184031 131.801422
-4.405008 10.056421 81.980118
-13.844884 -4.245773 111.162392
-9.627016 10.863447 136.946045
6.283753 -9.241109 77.147415
-0.304472 -15.707343 126.827446
7.077810 12.992435 144.913651
15.552992 4.363708 104.502937
-3.786711 11.594205 137.425354
-13.679061 -12.861895 132.664017
-3.261640 14.361841 144.658234
-12.470824 -8.877825 101.731842
-9.662403 8.805502 131.116913
3.468451 -12.882577 125.363029
2.716062 7.580063 73.527710
16.359598 -4.163171 129.581528
-6.556957 15.451676 95.233421
-5.215396 16.290991 136.778366
-4.964543 -12.447789 131.182465
20.385900 1.560017 93.052505
10.514479 1.363714 148.787613
-6.126601 15.899727 146.776428
-16.863710 2.509881 106.273689
0.782578 9.086323 82.655205
6.215578 12.990518 135.812210
-4.762432 12.941052 137.483078
-13.178728 2.683862 139.202499
-1.847894 8.322719 125.801208
-15.054451 -5.214982 130.872742
-11.317125 -8.827954 110.326744
9.998389 14.329586 133.595779
-6.459684 -17.096077 124.956749
-15.550602 -2.355786 109.189102
9.974054 -8.367373 123.135895
14.142178 -4.509841 132.233032
13.586827 -6.138453 140.418259
-14.185109 8.206717 102.159279
-13.502707 4.743279 130.839264
-9.718847 -6.150278 75.502762
16.849541 4.126738 90.761086
-3.132540 9.984249 128.762329
-5.329379 -10.821591 97.668411
-2.617573 11.760017 145.203430
-9.021005 5.881622 153.308029
-13.708466 -1.269929 148.488022
18.915077 -3.491467 82.720856
-5.599801 -10.944373 138.926712
2.513497 -10.551737 126.866486
-10.158651 13.004951 150.277985
-7.136559 -8.130673 141.865524
-11.980163 10.225987 87.865311
10.458389 -8.976208 107.062080
-17.620842 -1.689753 129.105362
-12.651019 -10.237695 80.492287
-19.111317 -4.544016 80.867035
-8.668053 -5.930964 144.674637
-6.300023 -12.030204 110.872475
-10.622446 -9.410787 74.880898
-4.796887 -7.702395 143.408737
-4.094405 -9.822406 81.345810
-4.392700 12.229598 141.565567
12.612722 -7.818996 76.497864
10.977986 -10.931367 76.351540
9.425771 -7.523119 77.291718
-6.899174 -11.213233 137.475815
12.788618 -10.048940 83.632652
-4.676071 -15.670585 123.003792
-12.874128 -9.988372 137.475159
20.967798 2.067103 80.954857
-13.409781 4.322006 108.068504
-2.724655 -14.139121 130.344269
7.322615 -11.637937 137.053391
2.528096 -13.132753 123.326462
13.697309 3.904853 103.603073
-4.295469 -18.475233 138.332169
-12.697874 -9.999002 97.057259
-13.228141 -4.990853 123.980301
-9.768168 11.022841 141.862274
19.421112 2.406249 78.320557
-7.238984 -12.029476 101.155006
7.757616 -8.617418 71.507812
-12.840158 -0.299098 151.779434
-9.466122 14.472821 132.312653
-6.039004 20.391241 128.791122
-11.151608 -9.820038 87.892517
-14.634289 -5.746165 122.537292
-6.541673 -18.082634 130.523529
-8.019306 -4.425798 146.166489
5.077137 11.060435 92.336349
-10.503824 -13.793775 143.348846
-15.729733 -4.652063 135.234039
-1.853009 -15.627078 123.096748
-10.198847 -2.796928 148.832428
-7.634155 12.112204 138.044724
-7.167066 12.733852 151.576630
-1.692657 -12.237095 101.854706
2.671975 -14.149645 128.628098
-4.217166 -17.478746 142.339890
-8.113953 10.555408 131.848190
12.750824 8.979955 84.838341
-11.410551 9.664778 152.978729
3.841980 -12.693583 130.240921
6.056283 -5.880465 142.249573
-15.987124 -5.363640 109.193481
10.424892 10.760859 135.946838
14.457272 -10.405489 131.410461
7.043084 -10.771599 120.786758
-9.559299 13.076531 147.802368
6.045471 8.207472 125.298309
1.128142 -11.223802 125.705292
-17.998121 -8.264673 75.566734
2.436749 7.428809 121.452156
13.857314 -7.653545 92.874687
10.682751 12.694061 95.839523
-4.253946 -10.730824 96.441673
-10.335545 2.872139 153.113541
-9.255145 -10.952367 85.580482
-19.659611 -2.711323 91.419518
-7.270548 12.750039 151.586121
11.186199 -0.299520 148.951736
13.435545 -3.521263 128.904327
11.886338 -7.455258 122.964844
17.356075 -6.923724 88.001656
4.845040 13.672494 97.872520
-13.001538 3.348558 127.061264
9.623533 8.226418 105.202293
4.663836 -11.327068 87.813133
12.324138 -9.120214 103.233986
-4.315027 -7.312771 142.111069
-0.785758 14.872488 138.930954
18.120260 -6.332006 93.362373
-10.246024 -2.670713 147.584702
1.049941 8.212662 125.201294
-14.162632 -9.807182 78.874489
-1.791808 10.623598 108.217667
-3.837263 -9.656317 75.950592
-2.505031 -9.112983 142.812210
-14.665180 -0.877101 131.139359
-2.992227 -13.047780 130.657700
14.737100 -2.518490 127.493355
-13.158678 3.105599 122.318848
-8.207103 9.923775 103.059006
-7.050497 -11.737281 117.549973
-7.334994 18.003807 130.851898
8.698712 -11.594472 104.943283
10.492210 7.292114 127.348297
-16.776335 -9.203450 85.692223
-12.613660 -9.098495 76.190231
-6.707403 -13.905179 106.446785
-17.916260 -7.831022 82.461800
-3.723937 15.209438 144.663742
11.845480 -10.706058 129.693039
10.674780 8.843893 107.243073
-5.046777 -13.314980 129.268723
-3.360870 12.416325 148.535461
-1.570187 -16.695206 140.355698
14.799942 7.094743 99.926620
-13.654823 1.303341 129.658020
-15.795636 4.886594 151.155548
9.821929 -9.023009 109.568062
-10.423565 9.743816 148.907639
-11.557071 3.915036 125.182838
-8.901093 11.101600 151.104401
-2.247578 13.090629 92.278587
-12.930923 11.568053 137.651810
-10.809342 10.420021 146.586685
14.369576 -0.991849 133.657730
11.203714 -9.287519 101.194992
-5.185512 -11.898149 101.625763
-12.508533 -6.241258 123.600945
10.951801 4.172268 109.730392
-5.543909 -20.092428 129.074463
5.854580 -8.425948 140.465515
-16.869749 -3.531771 134.997269
1.300845 -13.027753 134.829712
-13.007988 8.573997 152.410492
-3.635812 16.101578 135.739014
-3.654742 -11.387832 124.784081
-1.435485 13.109143 143.320999
-12.371340 -4.726280 115.932922
-5.691692 -3.572253 145.918274
-13.739539 -11.293525 138.823257
-10.501626 14.409386 131.724213
10.441425 4.006402 123.478790
-10.423488 -8.848433 106.869057
11.572165 0.949311 151.003418
2.070155 -10.615939 85.746239
15.187857 -6.520220 105.240776
-11.222854 7.718973 130.722549
3.502246 -7.807813 73.167412
12.542347 -4.166549 141.579300
-16.163404 0.553313 103.109161
-20.717915 -5.072506 73.043182
-10.775539 -5.990442 146.608368
15.138822 -0.307505 139.674423
-12.424772 3.708559 129.157684
-19.098543 -3.920329 79.713120
-10.217555 -6.777252 153.234085
-14.281040 5.806527 126.231575
-14.850204 9.449753 136.119492
12.046223 1.434660 125.177460
-12.647408 9.237152 151.712753
-7.864804 13.256219 133.340469
-14.112165 -11.469403 85.559906
-9.040176 4.316797 152.604889
-9.386757 -14.286082 145.595566
-12.245972 5.662389 100.809784
-2.846183 -12.491587 125.691208
-9.918727 10.163521 134.022385
-4.959459 4.075000 116.337494
15.677025 -10.378315 80.600105
-12.298916 5.988824 131.344116
-2.023007 -6.370467 142.790100
-8.621846 -9.474995 90.778603
-0.527311 -8.671463 89.670372
-14.744498 8.085316 95.956863
-1.080902 11.645676 148.834503
-12.967607 -9.088270 139.744171
-7.600299 14.470914 94.144974
-0.773456 12.735942 95.832542
-14.594203 4.155566 132.820206
-11.653520 -10.880395 97.429489
-7.881850 -7.551059 144.869629
0.173207 6.498177 120.575966
-19.115189 1.539522 94.860977
6.819407 -10.521296 101.461143
-11.189044 -8.124027 109.513618
0.576230 -19.125893 129.175613
0.903803 -9.561745 93.041557
-13.286715 8.123090 80.824043
-3.847966 13.612654 135.240967
-6.796884 -9.301426 95.849510
-16.627449 8.131488 134.737793
-11.290020 8.145652 102.806030
-8.919512 6.262647 109.569130
14.803364 1.314011 112.957100
-3.759984 -10.231476 78.847839
-2.333393 11.481333 100.809227
-7.993208 8.961320 109.788132
-11.487147 -3.225942 114.989311
3.502905 -10.632391 81.595009
-7.336533 10.274665 78.771141
4.378906 14.075206 97.524895
-6.641270 -12.799752 132.196533
-12.589412 8.630565 80.269943
-6.940560 6.937039 106.442070
-16.954020 5.314609 136.812622
10.641003 7.231459 106.729042
-14.532534 -7.814332 135.204071
14.464181 -1.685126 135.429138
17.292017 6.762531 90.683243
2.924857 11.283050 96.375854
-9.408899 -8.436149 75.826790
-6.835646 -21.497358 137.851318
-21.671745 0.073339 79.567169
17.812431 3.344288 84.457176
10.030929 -12.665322 136.870224
5.755691 -10.097659 103.395393
13.101779 -9.365226 89.107880
-13.807599 -6.820364 105.778877
-7.509230 -10.891750 139.468185
-12.297628 0.149297 148.792252
-21.576385 0.565904 76.695648
-8.163302 14.566713 132.045731
-2.024412 -13.231481 118.665260
-13.115930 2.029806 152.335922
-10.270001 -3.013834 149.663696
8.614813 4.708591 125.979980
0.346635 9.758204 104.910042
-9.602228 -4.696540 145.668671
-12.218343 7.118353 129.067154
-7.653670 14.308502 136.156158
-9.528936 12.812578 148.012344
-3.073679 -19.366859 138.615387
-12.287954 4.255676 125.799469
-17.061563 7.191603 80.495972
-4.584834 9.117937 157.804626
-8.453915 9.533805 152.067474
-16.087526 5.015915 153.133163
-6.620002 -8.660558 141.283615
-11.004025 7.231497 103.869057
14.532563 1.248713 132.190781
6.757990 -9.533790 117.256462
2.724946 6.865809 123.851692
0.067508 -10.128249 82.676369
3.289320 8.654834 121.596809
-12.114992 1.172019 125.294556
3.591630 -10.595359 95.421829
-12.781699 8.447753 98.199356
-1.363860 15.095895 135.581619
-13.881585 7.921401 78.800484
6.029741 9.034150 129.673721
10.668701 11.087379 96.748741
-5.601372 15.353911 136.474670
0.001620 -8.435391 92.891693
-11.291739 10.870913 99.353325
13.713108 3.236305 129.283676
-5.101538 -14.961664 129.442429
-10.320032 13.102536 145.454773
18.686108 -1.089868 91.109810
8.214457 11.602989 138.415726
8.688745 -9.079283 80.447128
14.581964 -9.295780 81.201286
13.847610 -4.984394 134.030960
-0.061762 5.982626 119.008614
1.441173 -10.617113 88.970665
16.225599 4.804147 101.196884
-4.433527 -19.195024 132.447769
-12.296919 -9.682188 140.878891
-10.347127 -10.384612 139.735474
-18.789560 -6.970430 90.703346
-20.096972 2.296080 81.640480
-13.052421 10.158175 92.471642
9.233794 -9.671477 105.848625
1.613073 6.039007 121.769745
12.950766 -0.881816 123.341621
9.120434 -10.970966 125.625069
15.656736 -0.805047 97.943016
11.339105 -4.779509 114.523201
6.660839 -8.599818 100.106651
7.859804 -12.819777 131.779846
-14.716588 -2.019097 140.819138
12.959023 3.466910 102.710640
2.533449 -10.529652 106.393280
12.897853 -8.395136 102.816612
7.274364 11.769887 90.676491
0.164847 -10.469796 77.934593
7.752881 9.106952 85.534782
3.938348 12.261021 143.105118
7.187538 6.738187 108.920303
-15.138452 -0.768797 137.034912
1.372715 -11.911843 133.496674
-10.324322 -10.226000 124.156532
-1.485530 8.686043 104.786972
-5.266952 -9.773844 84.598358
-11.236890 -1.158250 147.653900
-14.706771 9.699764 152.387787
3.831106 -10.165052 100.420479
-4.156260 13.145904 90.064316
-2.420275 -17.158028 124.818550
10.013831 6.673773 103.315620
-10.751163 -7.875818 116.758286
-3.271863 10.297900 151.681320
-5.506046 -11.173849 105.103928
-15.300830 -8.107417 92.143799
-12.379938 -4.304226 117.205986
-7.223389 10.484701 103.247742
-16.205515 0.467589 139.754593
7.702927 -11.108155 88.344620
4.051708 11.196699 87.754219
-9.261875 -11.697274 141.150070
-6.660016 -19.559181 137.835144
-6.673018 -2.931094 147.805008
2.945060 -14.593735 122.950424
9.865549 -9.365961 115.479378
7.820903 -9.948948 96.054276
11.868912 2.173403 111.777916
-12.364861 -10.136231 121.628868
-5.991490 -16.632357 126.841927
-0.720521 15.569129 138.537506
11.487431 11.347340 90.533119
-0.892205 -15.941848 134.983170
13.893747 1.787073 127.093040
-7.583655 10.097510 132.558060
-7.973177 17.288881 135.165619
-2.845576 11.739050 146.882919
-11.567489 5.226661 106.121033
4.350778 9.033680 82.364555
6.861296 -9.241333 92.718513
-4.257534 -7.423295 143.901123
16.848925 7.039045 82.222252
-12.026322 -4.242430 109.404442
-11.863778 -10.592008 131.489105
9.180069 7.683743 153.073975
-7.280943 -11.937585 128.946609
-3.989917 -9.615818 81.718170
-19.477114 2.285339 91.727013
10.642123 -10.913143 81.897614
-10.524889 -10.786984 141.992310
9.482122 -8.520267 118.702576
-5.263331 7.185271 112.896530
-17.417747 -3.964769 94.474480
5.260745 12.710812 147.023026
2.908438 -11.066693 122.129669
-7.661771 8.962118 149.955505
0.982601 -10.408546 88.051910
-6.746856 13.197347 134.833466
-9.632632 -11.134058 85.391518
-9.175599 14.629972 133.038330
-7.830754 -13.423275 141.468338
-12.958920 1.260251 120.168045
-10.803141 -8.730183 79.197060
14.008791 3.899619 106.651817
-7.627868 -8.306095 77.717026
3.675657 -10.917483 103.440559
14.277103 4.374457 133.472641
2.014952 -12.215259 124.099625
13.363147 1.016388 114.946030
-16.051228 5.684483 79.840500
13.089109 4.816047 127.540771
4.762648 -12.076320 98.277176
-5.939052 13.531878 143.749542
-17.053141 -3.136521 74.584282
-17.471380 1.400342 96.420189
-11.270913 10.022250 92.348015
10.445146 -9.666595 126.401901
-2.884032 -15.325406 134.942398
-7.325350 -12.469509 140.146225
-4.068588 -11.533562 122.518242
-3.235236 -15.076582 128.101364
-8.618110 13.430613 147.702408
2.842021 11.565268 145.645081
-16.541607 -1.694049 103.046066
-2.202320 -17.536018 139.291245
12.829168 9.558175 78.666641
-4.672025 -19.139429 126.535469
-4.588554 9.105250 151.465042
3.710713 13.509705 100.625267
-12.859842 9.442462 139.263428
10.677116 10.970287 91.120903
-13.319178 4.125563 108.440605
-6.516315 14.916231 137.393234
6.181915 -13.645002 127.849739
18.920542 2.458321 89.852127
-4.850095 15.015080 147.479874
-3.868480 -12.717264 101.551300
-6.454089 11.013284 104.155380
-12.486209 0.367051 125.391708
16.617771 -4.638817 96.839165
-10.374801 -9.617476 115.726059
-7.316168 -4.953596 147.563995
-8.739512 -9.877238 86.342773
8.275007 -8.960576 84.340919
13.610624 -6.925413 130.523849
11.771824 4.474550 109.894707
3.902959 -4.399930 144.144989
11.231794 8.576249 104.861481
11.028898 -4.529580 116.554413
10.653537 7.163631 105.442947
-14.501245 1.136704 151.917603
0.700316 -12.905481 125.934837
12.117065 10.706914 91.205315
5.141002 8.650323 127.393234
-3.239232 13.953420 136.930389
-15.483092 -7.250192 100.387390
11.067202 -6.699356 125.795982
-16.612123 -3.922930 103.634735
-1.537655 -12.686348 104.469093
-18.144062 -8.506228 86.942276
-6.976872 -9.486537 116.073837
-16.733023 0.346614 130.490219
-2.945404 -9.547284 79.261292
-7.955694 -15.230636 142.127853
9.411389 9.260257 131.074203
-18.558250 -7.753177 85.663849
-8.263691 -14.422827 132.169098
1.075904 -12.969021 131.280243
-10.875844 -2.259965 150.827332
8.500673 12.515662 87.640701
14.691024 -6.077862 135.085541
3.509431 -10.124628 85.261307
-6.314652 -15.228032 142.464050
-8.598213 9.624363 81.014328
-15.286140 4.636620 88.056923
-10.170686 -11.482580 107.114868
12.260271 -2.015317 123.756073
14.099029 5.850243 101.510239
-4.826934 16.297722 145.760345
5.855666 10.161070 148.242340
20.774303 -5.915106 80.441383
-5.360019 -11.970171 125.921532
20.630203 -2.841352 80.926620
15.174038 -8.149523 131.903107
4.578542 8.729317 151.949753
14.626913 -5.260482 134.921783
-4.148881 -13.731494 133.601364
-5.100778 8.065558 103.781784
3.450317 -11.590996 78.928680
2.822682 -11.617743 110.604721
17.609795 -4.410640 93.955681
1.078634 12.917233 144.461975
5.931838 14.252954 97.499573
-5.899076 6.292619 106.916168
-9.119914 -6.085286 144.385834
-14.421935 2.217926 129.752823
-11.483541 -8.624150 120.822098
-11.423877 -13.072630 134.585434
-10.620254 9.155148 133.922577
-3.848449 13.197965 140.222778
13.850122 -3.011744 144.165283
4.436220 8.384768 151.754852
6.507796 11.478981 142.484634
9.497521 13.081991 102.258667
-11.799300 0.738120 116.683510
-6.130614 11.501003 142.874207
-2.509027 -20.834452 131.030869
-2.093920 11.174214 103.439392
-4.584495 -13.500813 140.461029
-16.434439 -1.394689 109.637428
8.812383 8.906203 149.797928
-6.453485 10.419423 82.163910
17.086464 5.178368 95.153915
-1.746670 -9.597225 96.628403
-10.854489 13.493904 127.489082
-19.689970 -1.268600 91.409538
10.282674 -9.589998 106.703278
-12.570200 7.124305 104.128113
-5.857579 -19.937201 136.694366
21.614006 -2.341832 78.776436
5.570782 11.651136 102.162941
-10.818718 8.460532 132.302704
8.359021 11.883312 146.475983
-16.132235 -0.707842 152.526871
-3.756024 12.861081 140.585709
-14.658137 -8.037159 95.438354
10.069191 -9.184357 109.212593
-3.780774 -12.153502 106.636353
12.587889 10.530400 91.015663
-12.993950 2.602444 107.941200
-13.669538 5.088815 132.684845
0.439384 10.293688 130.180481
-4.315688 -14.821819 131.154266
15.684393 3.034232 137.968842
-21.565035 -1.350820 83.853012
20.724237 -0.985836 83.745346
8.605511 9.097597 151.209625
10.996418 10.004557 76.064850
-15.123801 7.334468 150.113235
-10.065228 15.185402 127.542313
-8.398837 11.311645 134.600311
-6.599267 10.981782 150.920395
-14.741212 -10.594826 84.662262
-11.966313 8.123169 134.360626
8.866831 8.730227 152.620834
-6.364969 18.502176 130.203995
13.749206 -7.506469 136.144333
-8.829904 13.534721 135.327179
0.223838 -12.485191 87.508797
-7.344305 10.769543 101.718506
9.050244 5.567966 152.487137
10.465049 7.218423 132.325104
-10.839097 10.289566 153.594833
-11.693665 7.024176 126.672058
-10.023394 9.410536 133.605301
-4.466005 -15.730420 135.833771
-0.365785 -11.191402 135.443436
13.271457 -4.195616 131.677780
-19.420967 -0.383790 83.657532
19.639444 -6.191298 82.313957
1.158710 -11.662683 119.837723
-2.538091 -16.785728 132.021957
5.075475 6.197133 117.320885
1.222014 10.469413 103.616936
-14.631528 -0.857865 145.820251
8.834017 -13.585351 132.549103
-11.461663 6.020396 107.086433
-14.911443 9.123824 137.405945
-9.301128 14.465625 132.210510
-8.694487 13.842596 127.505722
-4.490953 13.180198 144.132477
4.627133 -6.508879 95.114922
-8.147556 -5.385678 145.087524
-1.041144 11.210764 99.907158
-3.076634 16.519541 135.544739
-11.629789 -7.161006 114.133553
-8.490911 6.841578 124.062828
-5.650411 11.582874 100.446136
-5.775244 -8.570778 141.327972
13.647184 -5.907974 133.354553
-13.509932 -0.303980 126.270065
-6.352097 -11.560306 100.098503
4.911329 -8.091416 143.913193
-3.780131 -17.983889 137.342590
11.158993 11.576414 136.051895
-9.000239 10.888561 154.182785
0.193882 10.939992 132.181305
-12.603491 6.530135 125.498848
-4.778541 12.043819 154.248795
-5.482366 -6.411373 145.102524
-9.591547 12.207563 152.676514
-15.603694 -0.337889 109.693626
8.432248 -10.314953 89.928894
6.394260 10.238297 82.531586
8.198894 -7.581053 141.499832
-3.364760 -12.293860 115.734329
5.655797 7.007862 79.571213
-12.104834 -8.246532 109.611099
-6.375086 -13.976460 128.832779
21.563917 -1.047047 78.110367
3.065440 11.126832 96.082237
-3.168885 -9.457444 91.331543
-8.196518 8.000804 128.499847
-10.065519 14.048797 132.235504
-12.498569 -5.837651 119.685417
-8.471033 -10.702210 144.548187
-8.457123 19.488035 143.097946
16.994690 -7.032189 94.543365
13.485021 -7.052198 129.166229
-7.075086 16.482180 137.924942
-10.465310 -8.137033 140.327927
-11.901433 -5.485006 147.351273
5.401760 -9.693384 118.131409
19.533417 -3.651151 83.847771
-12.400875 0.531988 126.694313
-8.264354 14.368820 135.615570
3.541909 9.323947 75.956337
-11.831172 4.559766 118.376305
1.586961 -11.756805 110.717484
-7.253190 20.446507 131.046478
-16.913820 -7.794073 93.046104
-0.698061 13.411057 93.921371
-20.786493 -5.368978 76.328110
-8.737028 -10.696653 106.176636
-12.071568 10.715830 95.974358
-16.814728 3.982217 151.875595
14.908760 1.992662 130.859772
-7.808334 5.339730 122.083717
-6.762312 -11.543003 127.552063
10.377348 8.274599 105.170876
-12.724614 10.460002 149.104584
-8.056966 -7.196004 142.391754
0.910924 -22.637733 128.230698
-18.318090 -7.605506 90.116219
-5.630255 15.556855 138.477707
-12.409917 -0.484495 121.386688
14.106763 2.044770 108.333611
12.806630 5.746085 108.041656
-11.279938 -9.573300 95.669319
11.305309 -11.129494 129.629181
-8.956357 -6.605243 79.405373
-14.344193 -8.410814 144.285263
-4.425980 6.823593 121.762421
-6.242537 -11.166173 126.341103
-8.085959 13.039866 93.152161
-1.845702 6.944569 118.360130
20.330936 -3.123882 87.595863
13.462398 6.933537 129.370117
-14.645577 -9.877170 133.311264
-5.609478 -13.771829 140.584106
0.814872 -9.745273 91.667496
1.306307 8.114172 128.489441
10.926668 -2.141982 148.215897
-0.204528 -12.555230 137.361542
-15.626169 4.617091 100.820984
-12.831789 -1.568387 119.127930
-13.786921 3.857806 130.952942
-5.543278 7.705199 105.934639
19.396328 -4.112025 91.069176
11.051433 -8.931828 79.666138
-1.660446 9.510424 84.584663
-10.970794 4.475332 124.180023
-0.549049 -8.992693 95.875771
-12.737727 11.297449 154.760925
15.828909 -4.222007 133.714554
-12.710979 0.682199 121.811134
9.467251 -9.236670 99.194908
-8.455368 12.314610 135.353577
-9.565846 -7.606795 88.109085
12.631395 0.864357 121.799118
-14.412501 10.390664 89.319366
-18.301203 5.000801 83.227715
-6.310818 -9.924900 82.598320
10.810216 -9.321523 105.683350
-15.949668 -5.320863 97.529037
-5.960203 11.776688 145.474792
-14.207054 -8.716827 98.188965
-12.749998 -3.570803 126.980461
0.492325 9.543900 105.687302
4.813797 15.272209 93.034576
-7.128135 14.551156 150.020050
3.766651 -12.894110 128.461426
-11.056814 8.531725 133.414246
-13.479101 9.811357 97.097397
-2.234230 -5.904062 143.489090
-3.753428 -10.515490 77.786934
11.493994 -7.451180 123.022087
-3.455832 -19.753122 141.723404
-18.568449 -2.082612 91.870148
-15.026406 -4.537344 130.360199
20.105249 -3.416619 82.361618
-13.762661 3.739440 103.444885
-6.500851 9.586409 87.706703
13.930352 -4.997788 139.727020
19.458712 6.097952 85.017120
-7.391957 12.478337 132.905106
0.887745 12.808849 92.564835
-10.809349 7.806364 150.384369
10.401462 10.524276 132.625992
11.113201 10.546699 98.593948
0.606548 11.355612 96.412163
-7.743782 15.161647 135.333023
2.295798 -11.344954 120.972977
0.980334 -13.569086 137.640732
-15.766827 -7.546461 136.865555
-5.123817 11.734252 147.866013
