ply
format ascii 1.0
element vertex 2048
property float x
property float y
property float z
end_header
-13.813253 -4.091852 103.398582
11.594732 5.709064 83.527969
-1.441347 -7.965173 82.915062
14.724848 -10.094751 77.806999
14.705222 -8.921928 91.568672
5.484075 -12.159411 87.031425
14.583735 1.838857 87.525757
-13.132075 2.249177 89.204643
-13.199485 1.642416 82.460770
-11.749170 2.317072 105.300407
-7.989863 8.775888 96.102142
-2.605611 4.830165 108.135033
-9.224758 -11.400144 103.494614
-2.882489 8.226319 103.438171
-5.486067 9.358567 87.020195
-14.004906 0.312857 97.032318
-12.490138 -7.892457 96.841530
14.380866 -1.397203 84.854126
-2.308301 3.890296 80.094490
1.952097 -9.382806 90.187668
-4.199232 -10.706963 87.625458
12.813107 -11.389319 83.611183
2.745311 -10.710222 84.967194
-13.914825 -3.776220 101.031654
4.703429 -11.282101 84.600220
1.179788 -7.974159 75.699783
13.294515 -9.252900 92.364876
-15.574353 -4.381104 94.119980
-12.023360 -10.434489 96.044159
14.715672 -5.350035 82.099304
-16.700073 -1.009301 88.367195
-3.974794 10.181364 94.989967
-14.610706 3.210788 92.705933
4.269845 -12.488463 78.395905
6.587083 9.136778 91.997528
15.250212 -7.009589 82.482300
-6.359226 -11.221805 94.759445
12.594735 -8.153318 105.606857
12.631086 3.801700 100.097954
-13.668905 -1.099994 97.047501
-11.635713 5.079816 88.427711
-10.957258 2.656975 108.180237
-12.979329 2.515371 106.145195
11.107112 5.630949 95.487022
14.891968 0.792076 93.230843
-9.988337 4.551363 107.991524
0.573155 -0.352072 78.871239
14.685033 -4.520072 101.297417
14.520111 -6.138590 80.775406
13.940947 -8.574830 84.101936
-3.452130 -12.507004 96.157951
14.378864 -7.707813 78.904709
10.771929 -9.526821 103.748001
13.550733 -2.955484 104.367821
-10.821741 -10.059717 99.515305
2.361165 -13.910056 104.668449
-14.979225 -3.229126 97.518173
9.301388 9.216699 88.836060
-6.509360 10.457645 90.575790
2.681896 -12.797686 92.777550
-14.537397 -6.580096 93.143196
1.544035 -8.008482 80.643730
8.553435 8.048378 94.616440
13.202332 3.143237 98.927673
8.231136 -12.964699 102.858749
-14.152331 -6.640482 104.851028
-14.950721 -1.927936 83.421982
-0.654260 -6.340684 79.195755
5.161798 5.951174 108.165588
5.330086 5.652193 107.056976
-14.514224 -7.786955 83.318291
6.268973 -12.125213 87.204712
0.943021 -8.116286 81.656769
0.737393 3.197664 82.501541
-11.443048 -8.670395 99.969795
10.383942 -11.050769 92.023407
-6.144887 -11.708556 77.980942
-7.252541 -11.111537 85.156036
10.483351 8.652177 87.169022
14.450353 -6.459448 95.712425
2.485901 5.259879 83.842407
4.683506 9.205365 95.123924
-9.785617 7.061868 98.942314
-2.783250 2.881161 80.152756
1.685258 9.563639 88.407379
13.344323 3.765890 104.400131
14.048611 1.837891 92.090492
-15.303737 -4.659667 91.355324
1.321290 8.250761 88.530647
-12.667461 0.338282 105.375977
14.365721 1.025376 84.081726
-12.315924 2.528508 92.399910
12.590682 -6.886948 102.406448
-13.190704 -4.164835 104.283623
14.343269 0.791519 91.952423
16.721510 -1.087832 89.148186
-6.273847 -12.508096 77.892792
7.359975 -11.844922 85.376251
7.058988 -12.156370 101.381622
1.898727 -11.629479 88.809975
0.384888 -10.061485 81.952682
-12.226086 -9.403650 99.591286
-4.634279 4.876369 108.803299
-9.311876 8.180843 84.564644
-13.004177 -9.779872 78.141907
-7.925200 9.064607 85.484413
-14.567543 -5.379564 101.727448
-10.990277 6.075976 92.752876
3.926320 5.055834 81.627495
-13.642746 2.232388 81.773285
-2.361488 -9.489833 85.739029
-10.395061 -10.958489 79.268967
-10.217882 6.024486 97.761673
11.235203 7.071844 90.996391
8.906542 8.827327 84.387711
-5.918355 8.385400 83.108223
-13.886767 -0.209523 100.631340
-10.515283 9.138635 86.370796
14.419964 -5.034638 79.194107
10.227955 -10.035109 101.690674
-2.617824 5.837650 108.728630
15.515633 -3.282290 78.200897
0.858384 -11.058299 94.670174
-12.002812 3.452480 83.409904
-4.313110 10.037774 99.472694
-3.496559 7.758702 102.421753
-7.410974 -12.988373 101.677200
0.012422 7.037754 103.542595
11.354613 5.280204 93.627808
16.280285 -3.723530 89.383232
10.977743 5.379244 82.424988
-13.818551 -2.067217 99.163986
-7.739157 -10.975177 92.469772
-4.788349 -13.089261 104.702927
-14.607744 -1.955592 81.534958
-11.784480 -8.871371 102.971764
0.369017 0.839894 82.531380
-4.775875 -13.953486 100.435417
2.700711 -11.090424 83.608337
15.047647 -1.598772 82.176880
-12.522137 2.604402 104.890015
6.661789 9.709907 93.484360
9.739834 3.683155 107.679100
-7.170865 9.151104 85.221771
14.012852 1.344289 95.990211
-11.509542 6.081711 82.548225
-6.195745 10.248566 95.799858
9.683752 -11.464251 90.168579
14.989493 -5.283909 75.950417
-5.801220 10.730308 92.031601
-2.810169 6.973146 104.676102
-11.033973 4.621487 104.053444
-13.518178 2.876097 95.089012
11.966584 -6.650835 105.022751
-5.089333 9.674802 99.377861
12.737158 2.827605 87.518517
1.178458 -10.557166 78.170609
3.573092 7.766582 103.300285
14.439267 -2.185957 101.034813
13.111000 -2.308736 104.962906
7.348193 -11.191948 80.552048
12.267783 2.488897 99.418686
10.131357 6.200474 93.108643
-11.858331 -9.818252 94.816147
1.522081 9.690262 95.282600
1.499210 9.249316 92.904572
11.906216 3.430113 78.837219
14.087401 -1.261849 99.570236
-10.127395 8.017029 80.906403
12.256207 4.088642 84.031609
-15.573743 -2.117419 83.700966
13.885872 1.934229 87.341919
-9.250926 4.617268 105.067146
14.828442 0.019192 98.615891
-4.266179 -10.974942 86.370171
-2.014261 4.184866 80.857162
-14.978617 -2.668485 91.584236
13.293229 -1.756228 106.133461
2.288674 8.070802 101.248993
5.056995 6.713990 84.572685
0.149393 -5.090138 80.176109
-16.313444 -3.577915 88.537956
-11.787698 3.655405 97.466110
-9.467467 4.688919 105.398521
12.402782 -4.011936 103.872681
12.198528 1.885974 95.203293
-6.949379 7.919655 103.018509
-1.471874 -12.178164 99.968208
-13.530921 -2.787560 105.530304
-15.561037 -4.562119 82.727173
-12.885048 1.873028 100.487427
-10.618195 3.671738 107.379234
-2.791322 5.638416 84.726562
15.652244 -3.098746 93.144508
2.120993 -9.943976 87.114037
3.687326 -13.246159 101.537132
14.222886 -9.158140 78.955612
1.920420 4.021744 83.253136
-13.470408 -3.869209 104.400764
10.807974 -11.235363 92.890381
11.250792 6.514949 84.185631
-14.648764 -7.154133 95.491936
3.114365 -11.444619 86.335159
-2.565257 4.178956 81.228836
16.142540 0.674010 85.182899
14.569042 -4.205664 79.994423
7.256999 -12.698683 87.779892
14.275392 -4.832926 96.530693
14.169128 -4.125165 80.279518
10.330541 -11.134947 84.275970
7.503057 8.524366 94.859245
-4.353729 6.902645 106.744110
11.411611 5.691114 83.924240
8.500491 -11.404676 103.864815
14.543611 0.649832 93.126465
13.236243 1.419161 95.615135
-12.624247 0.255290 106.686775
-9.320770 -11.183517 103.062088
14.454772 -9.743005 84.779793
11.804760 2.118003 106.976425
8.730350 -12.292898 88.607010
-14.467736 -0.053281 81.251251
-9.321478 -12.477862 77.427307
6.538057 10.138265 98.820251
1.878266 -6.590474 76.760582
-12.693638 -9.856916 75.833351
-1.346856 -5.332134 80.301140
0.675077 -11.891426 96.136436
-12.664741 -2.305355 105.536934
-10.118059 6.495419 94.691566
3.159179 -11.739524 93.799904
2.826184 9.538703 97.774155
2.708318 -12.304180 98.445625
-6.068069 -12.269667 87.284897
-12.607530 3.476106 102.469757
4.402679 -11.950229 97.974274
-9.891654 7.416561 95.742767
5.175325 5.749941 108.991600
2.315736 -11.238651 87.179955
-1.217541 8.590568 90.722496
11.367043 1.975212 105.692818
-12.721408 3.212760 102.182518
14.285108 -6.997514 91.911957
5.575559 -10.873529 95.749672
4.922426 -11.507931 101.644676
10.813017 -11.077246 93.620560
-8.235500 7.480875 99.636826
13.964535 -8.219577 90.859909
-6.732739 -12.119576 101.137032
-7.477677 -12.010661 98.596397
-8.606347 -12.059798 94.666801
-6.470974 8.225207 102.514465
-7.999123 5.343234 105.581345
-2.737390 7.675614 105.554314
-15.719791 0.266381 85.627785
-8.815770 -11.447528 101.703529
-16.321457 -0.496128 89.239319
-9.500813 -11.229252 92.550926
2.037638 -12.418066 100.014557
-13.557308 -0.618553 105.033630
13.318059 -7.989536 96.901093
-6.934459 -12.922684 79.344193
-12.441967 4.141027 102.636475
3.288562 -10.760234 82.223671
-13.030636 -8.301422 81.847031
12.182932 4.371590 84.701027
-5.864151 -13.340903 100.845795
-5.206234 -12.362233 100.883583
-4.530306 -13.112591 103.459251
-10.896194 4.343873 105.602654
-14.751674 -4.305376 78.761642
7.809865 -9.555601 96.390549
13.506967 -3.270160 103.482285
2.389431 -13.013921 101.852341
12.788679 1.902984 103.202919
-7.214227 9.502063 90.285316
15.308506 -5.903396 84.395981
-7.874627 -13.064605 80.908340
0.229236 -1.292611 80.635536
-3.529396 10.040408 94.443153
13.780201 1.155117 86.012810
2.964336 -12.487517 96.632164
-7.018814 3.504045 108.470100
11.655869 -10.262863 96.299263
-10.697181 6.478044 88.336090
-8.425803 8.389866 97.103287
-8.731843 -13.218094 76.914574
13.614058 -0.233378 97.056908
8.153558 9.704933 78.369606
15.470222 -2.766077 83.141960
8.790188 -12.064848 78.000015
17.254156 -2.141341 91.288574
6.835915 4.981750 107.726669
10.956683 7.134348 87.484848
-1.309833 -9.019753 83.891479
10.475171 6.068635 98.272621
11.887208 1.633913 104.326439
2.107085 -9.746670 84.706795
-6.533099 -12.774899 92.203987
14.374041 -0.801757 77.867157
14.928604 -6.508819 77.219254
0.401011 -8.343803 82.694908
-13.403606 -0.381339 107.207779
-5.033866 -12.294237 102.079475
0.875948 8.525184 90.684952
3.588247 9.194649 90.479721
-2.431395 8.692225 96.265770
-7.799411 9.290917 94.822632
0.496265 7.404276 103.064316
-5.427607 -12.221457 84.526131
-1.935520 8.548233 104.631409
0.733685 9.545362 97.683762
-3.843927 5.771160 108.248550
8.237782 -12.970749 102.892670
-11.504890 5.145052 94.152145
-14.079695 -1.914950 95.679634
15.561992 -1.327414 85.278336
4.274466 -11.574338 90.894669
2.754430 9.709867 97.534073
-15.454026 -2.834962 85.819107
-14.537209 -7.212049 100.103996
7.287865 10.297548 92.921257
-7.819455 -11.685504 93.678902
-10.675678 -10.995299 96.092316
14.648746 -0.134971 86.606018
1.527828 10.092437 94.551270
12.826030 -11.582989 78.028305
-13.409778 -7.310954 104.268295
11.777364 -11.243463 81.994209
7.782090 -12.047483 79.746864
1.719269 -11.068007 92.600952
-0.042219 -4.493188 76.785500
15.068098 1.360593 84.647903
-14.804307 -2.062970 95.491295
-3.200831 -12.787074 103.794456
2.301806 6.843412 106.813126
-12.943815 -8.010001 101.765816
12.001249 3.935020 100.893539
-13.392393 0.644491 94.970055
-15.044268 -0.301953 87.884422
8.818090 -12.046416 104.352661
-12.082857 1.435535 108.411743
-5.961747 7.374411 79.857147
6.861471 -12.647476 102.760155
0.720233 6.035526 107.819756
12.159422 2.670052 78.990112
4.140212 -12.278079 101.645874
-13.787505 -9.523333 79.245476
15.231095 -5.537915 96.191292
7.616935 -12.867628 80.212631
2.836715 -13.015187 101.933762
-7.698228 5.662039 106.142914
-4.039451 -12.639119 100.802238
-7.011848 9.274177 81.097603
4.139622 9.434775 89.016350
-13.500944 -6.816648 101.382133
-14.048903 -10.412110 74.066521
1.765649 9.334850 92.922302
-1.002092 7.415578 87.505875
2.710190 -12.270006 94.074623
0.355698 -13.428772 102.680756
0.050969 -7.200254 83.150627
9.910931 4.942754 107.913124
5.817718 -11.270581 78.658829
-7.172347 9.472282 94.166061
-12.208155 2.977275 98.601593
-5.663610 7.230917 107.057030
-3.353121 -10.328926 79.881416
3.895204 -11.149380 87.853600
0.175261 10.002408 95.839546
-0.631842 -6.253737 83.086472
0.576243 -8.430289 82.604652
-5.279104 -11.173757 86.450447
-1.600811 -9.182761 85.716278
-2.728594 -9.489217 77.024307
2.768909 -10.818694 83.795662
4.006344 -11.706948 85.220016
2.776496 -13.532145 100.185097
-14.837867 -4.201774 94.388298
15.410840 -4.811003 91.812263
-3.368659 -10.882060 80.033463
-12.307784 3.801462 81.235298
11.972659 -8.949906 99.519791
-9.462190 -12.212810 83.413025
-12.635098 -7.171836 103.463470
9.779712 5.312928 104.724960
-9.048888 9.934958 80.540466
13.776804 -6.823848 94.459282
-0.343389 3.183573 83.312012
2.569311 -9.596504 87.082291
-14.330875 -9.198978 78.251305
11.831504 4.909021 93.789009
-15.612167 -3.893390 82.598557
-2.352026 -10.583771 82.017136
-5.870273 8.083743 84.070648
-11.522828 6.214249 92.497543
10.017274 7.190961 82.024178
-1.840175 9.528067 92.849968
0.028456 -0.666166 80.888977
-5.020061 4.168975 109.308456
3.618520 -13.336545 103.265472
0.239765 -4.317660 78.154388
11.197892 3.805789 81.285126
11.062249 4.800480 103.280502
-5.548995 8.864601 98.081825
8.964291 7.986417 101.867393
-10.973225 -8.423963 102.420441
-13.627019 2.925604 87.277809
11.084599 5.801759 89.361076
-11.933159 -11.742866 82.578850
-1.507751 2.794563 80.803352
-10.193047 -11.966376 94.914009
-15.222405 -3.733752 81.657875
-10.200030 -10.838259 89.357307
-5.191841 -11.545680 78.527214
4.866252 -12.701169 77.588844
2.141286 8.073987 99.820610
-0.701529 -6.437742 80.750221
-7.385879 6.531744 107.921860
-12.775398 -1.053748 104.235214
6.994655 8.473130 80.760742
7.432057 8.635859 86.515808
-14.312809 -8.813068 84.421844
3.201104 4.853708 108.723564
-15.384847 -6.253030 87.860664
12.504395 1.987351 96.029251
11.635034 -9.713009 103.356918
-10.265840 5.172231 100.890823
6.705890 8.214093 83.857300
-8.103021 -12.774847 78.342773
15.808373 -5.718720 84.822243
13.450296 -3.632901 105.368004
-1.095227 9.133507 98.662025
-4.025169 3.602586 79.958450
-14.525186 -7.478983 89.766602
-10.883639 7.561118 92.522141
14.648013 -4.421728 95.495834
-11.825911 3.921360 88.915474
11.323615 7.733312 77.648819
-0.682108 -7.500231 84.837944
15.332246 -4.523824 86.640572
7.189704 -13.178255 82.639984
-14.110231 -0.504804 86.729378
-10.885923 7.240335 93.006264
8.722252 -11.664201 104.465836
-5.121699 -11.624855 84.452415
-13.922744 -5.399661 98.850838
2.133852 -9.883288 79.325089
-15.631608 -6.405840 87.019737
8.895729 9.780616 83.708755
15.765247 -3.009171 91.504120
-14.381047 -5.813254 100.684410
-12.843161 0.615576 104.841034
7.760727 -12.587843 78.376465
-10.234052 -11.071145 101.669456
-11.355515 6.166563 96.414444
15.463447 -4.108326 86.164833
6.835087 -11.956527 104.202263
-15.746515 -8.082304 90.986984
-14.442960 -5.409045 97.867271
14.969530 -3.290097 99.859787
-5.695689 7.156052 84.900574
6.186179 -11.606662 94.395935
-10.066473 -10.711201 104.343857
-10.489746 7.515876 83.438354
12.008322 -10.534151 100.937157
0.012510 -13.941404 103.476059
-15.544472 -2.071488 98.830353
9.720347 8.168851 86.921509
14.280172 -7.002149 94.394005
14.665154 -3.626332 103.607201
-7.752869 6.161197 105.726753
-2.834739 -10.730499 95.366577
10.702332 3.802933 107.359322
13.335839 -10.332088 79.378616
-2.204029 5.611173 84.985214
-4.728963 -9.967550 89.959839
11.103004 -11.812582 77.900665
0.890624 -13.135940 99.872002
-14.682910 -2.270654 101.308670
-15.039686 -2.662065 93.255547
15.708618 -5.467923 89.857918
14.418690 2.810811 87.612709
-15.427279 -3.902143 78.058472
1.297248 -8.503522 78.650719
-14.829407 -3.800504 81.457176
10.656898 6.393473 96.768639
10.522413 6.685378 87.517258
7.400581 -12.490072 86.827042
0.937338 -10.102097 83.236275
-13.404773 -10.192037 86.059174
-10.680165 4.970290 85.400200
10.203901 5.865939 79.633202
-11.029025 4.933121 103.613800
-13.539896 2.730620 97.348114
-9.449690 5.555369 106.559135
-9.037836 -11.161255 104.058670
10.685391 -11.850974 77.760284
-10.005247 5.930356 102.374481
13.812281 -0.333120 106.243423
-12.624155 -5.145099 103.288994
-11.136241 -10.615353 100.276649
2.986445 4.519079 81.817177
-8.874597 -11.411572 88.730522
8.860844 -11.428266 100.294144
-13.806621 -9.902021 82.906548
-13.438802 -5.423551 105.185585
7.043943 9.632389 91.934593
-12.174641 4.723358 85.024902
16.391178 -2.131777 91.205521
-13.875446 1.002691 79.101784
-14.759306 -7.775524 92.578308
12.668623 -8.908516 94.821861
7.440376 -10.819981 95.733513
2.661984 -10.665706 78.057495
6.430788 9.008554 89.020271
-13.362701 -1.910323 104.795319
-0.205460 5.926545 86.594582
-14.492837 -1.434425 82.695786
-15.885410 -6.860416 88.505554
-15.295300 -5.334262 85.275169
12.806452 1.546329 99.202431
14.127347 1.169387 93.063797
-14.115754 -8.371592 81.038345
-12.454958 3.311705 88.727989
8.431925 -12.624750 79.857391
14.152272 0.916635 85.160988
4.184267 -12.509753 99.581726
0.600497 -11.487573 93.998848
-12.232702 4.513801 97.307846
2.322816 -9.713899 89.574074
10.543416 3.761110 75.483543
-7.128688 9.856467 86.569016
-13.129956 -10.369356 77.528618
14.671653 0.235242 77.303055
2.390569 -12.881307 96.175644
-1.312400 -6.468568 76.974480
6.834612 -12.427934 78.250786
-1.780927 6.350058 107.435211
7.938651 9.257789 79.388168
10.879197 4.293530 103.070091
0.278392 -11.085109 91.665268
1.425643 8.561541 91.126106
10.836721 -11.160734 101.294342
-13.193200 -2.236830 102.781204
-1.050005 -4.566561 79.344513
-6.442887 -12.804377 99.561844
-3.675527 -11.544594 82.195511
4.837307 6.845034 82.323074
8.594215 5.004339 109.017960
2.953784 -14.353102 97.646286
3.121416 5.259330 82.272995
-9.770834 -12.469853 105.481163
0.818880 -9.601781 88.217316
12.018888 5.366674 79.737488
-7.780737 -12.632541 104.884880
-10.869081 -10.785089 89.085815
-7.216799 9.005176 78.872971
8.848684 9.282999 81.303787
-11.299254 -11.598145 95.750816
12.256008 -7.867605 76.840248
-14.338362 -3.107152 85.182121
-3.579963 -13.821923 103.513313
10.434219 6.467201 83.562439
-4.178833 -10.620275 77.977577
3.527985 -12.524241 101.161018
13.300782 3.793099 90.029808
11.324946 1.415602 100.577118
-12.429485 2.553918 78.172142
-13.355364 1.728859 86.971161
-12.996628 0.895688 103.419479
1.503230 -9.457373 86.774925
-11.928780 3.378215 76.991409
2.637064 -10.256796 82.947441
-13.774879 -0.812648 79.820358
1.143140 -14.080767 102.867508
-1.278934 7.039984 106.967957
4.517307 7.775616 103.858948
11.526377 -9.593848 102.739777
-15.207541 -4.756088 82.263214
4.501040 6.137042 80.176491
10.416261 -10.498115 81.944908
-12.382662 -7.067706 97.171089
-8.098343 10.091215 84.325264
-1.136607 -12.714661 102.276001
-1.317884 -13.706656 100.197578
11.187055 -8.144296 104.870277
-0.519484 -12.043776 101.675476
6.575502 9.419153 84.811241
-6.495350 4.645292 107.474167
-11.879332 3.672280 104.569839
-15.416380 -2.532806 85.626450
-12.969267 -0.253132 105.819672
14.952082 -1.852493 91.688187
0.175644 4.831773 87.290520
-4.894978 -12.625401 103.599556
-14.322124 -0.025547 105.059708
7.222575 -13.207449 103.592201
1.190893 -13.632381 100.334106
-3.081625 9.397989 94.824814
15.538807 -5.444577 88.495857
12.983054 -2.352885 104.934151
13.027072 1.844799 101.646484
11.961848 5.716466 79.623764
4.998102 5.668738 107.054543
10.551423 -11.871935 77.932541
-3.131649 4.684869 83.709549
-5.135882 7.685983 80.227180
-6.252425 -13.283356 103.562195
3.684848 -11.218122 79.876839
-9.489302 -12.398542 91.609489
10.914678 2.928898 105.085976
-14.882731 0.085702 92.906708
12.708847 -10.951127 81.119865
-7.505827 -11.773877 96.593964
11.976368 4.584101 79.672943
-13.768701 -2.794195 104.293205
11.619138 4.055719 102.198189
5.428639 -11.562547 97.563629
-15.144248 -5.656814 88.052116
8.509049 9.109149 79.509964
10.200684 -11.191865 89.512596
16.470768 -3.505336 86.995827
11.870578 -8.792433 99.621429
10.609085 -11.098343 79.319008
-9.312767 -11.978133 100.135338
15.187118 -4.025703 82.057404
13.421803 1.184577 106.520164
-7.945376 8.384526 98.837509
-3.878308 -13.289554 102.270111
15.134499 1.000319 90.223907
-10.493113 6.756814 99.462357
14.435095 -4.302778 99.154343
-13.725759 0.306497 95.516998
-15.365886 -0.302449 90.236649
-4.496761 6.378036 106.931091
-14.297773 -3.690106 104.617088
-3.557696 8.938787 88.161720
9.666928 -10.411479 96.530746
12.824524 0.748817 105.572868
-15.740361 -2.495447 84.113777
0.326523 -13.121184 103.042282
12.113043 4.531775 91.008064
-0.514870 4.642763 108.107285
2.789340 -11.216946 91.173012
13.379138 3.449969 84.674271
16.850496 -3.111032 88.314812
-0.326448 -1.566106 78.811317
-7.130271 9.793846 88.545120
-7.352361 -11.424450 97.698830
10.765808 3.736430 104.787666
-15.252730 -5.684759 79.994453
0.532771 10.051785 95.652176
0.201388 -8.944053 85.218758
14.557920 -5.781565 98.841049
10.949510 6.527117 78.560028
13.404803 -8.096167 92.909584
14.279650 -2.757360 99.575584
13.534178 0.853206 91.389473
0.657977 0.229905 80.269241
-6.358641 9.566620 91.558525
15.053774 -6.477483 80.317009
-12.588377 3.801302 106.245682
-7.631161 -12.709627 79.193764
3.863569 -12.236211 104.847954
-13.832907 -8.426060 85.240204
-3.926945 9.147440 95.767433
-13.082830 2.583506 104.407539
-12.011776 -11.131683 93.763542
11.238219 4.149717 99.770973
-7.069909 9.522535 82.930000
-10.352917 6.429266 98.751633
-12.412741 -2.159303 107.146873
-3.058161 6.955394 107.271011
-8.422135 -12.063943 102.509590
13.983385 -4.847195 77.879288
-0.247924 -7.963663 80.189507
15.593102 -5.243279 83.748390
0.685417 1.512994 78.383469
-14.985895 -5.943496 80.503067
-6.474958 -10.288766 94.717354
-10.860076 -10.565382 103.681992
0.339875 -14.728675 101.894188
5.255394 -13.362918 77.418243
-12.521186 -11.135421 79.411018
-10.625463 -12.137763 88.690285
14.654233 -1.126919 93.225227
0.467297 9.321771 98.554298
6.249381 -11.678583 87.128914
2.326829 -11.381273 103.890236
-0.407588 8.931625 94.380287
-9.038999 -11.545444 84.328697
14.044985 2.085707 90.934723
-0.454808 -5.060769 80.742371
11.629359 6.240875 81.531685
-14.018809 -2.609162 99.816933
-9.245483 8.849428 81.164047
-2.320503 7.976750 103.389565
5.469386 -12.536472 75.287865
7.392672 5.684746 107.573425
3.441196 -12.688084 98.665451
-11.301518 6.824919 92.638733
14.032417 1.950828 86.060951
-14.533717 -6.811495 85.648003
-10.250312 -12.551238 81.672379
-12.790058 -8.730026 103.221298
4.439628 7.328933 85.066269
15.074341 -6.734901 89.490036
9.651389 -12.331467 82.366432
15.030595 -4.405306 91.731613
-13.138962 -1.703248 77.230690
1.629088 -9.197417 87.352547
-14.431312 2.293421 84.559372
3.258277 6.567873 106.901772
9.981068 6.158791 89.279396
8.815347 4.982862 107.599236
13.102780 -3.842827 105.061005
8.396878 5.079319 106.174347
-4.411007 6.617200 81.575333
3.165132 -11.983497 96.240128
14.002744 0.556898 93.124817
10.337852 6.859108 96.078011
-9.028454 -12.413168 94.737083
16.012753 -3.815484 93.273102
-8.885024 -11.412879 98.448219
13.737754 -8.059290 95.274841
-4.645911 -11.711227 89.249725
15.630464 -4.329610 82.925621
8.421049 7.082318 102.173515
-11.616585 -11.336978 89.978844
-7.434701 -10.888442 95.458984
4.099126 8.654881 90.399979
11.625204 -7.332687 104.742447
2.760323 6.949710 104.099640
7.750847 -12.310507 81.989426
0.338068 -4.020841 79.054527
0.776421 -12.559943 100.117210
9.827682 -8.701272 105.147408
9.925180 8.605422 83.657967
0.981646 -4.734735 78.296646
6.224758 -13.313975 101.479126
6.409411 8.314346 79.796921
-12.008364 -9.459762 100.950081
-5.953226 -12.074594 89.693832
11.408311 6.510891 80.395782
8.302076 11.873458 77.867126
-6.994190 -11.456286 84.335045
-11.857692 1.106121 106.700134
13.106561 1.339641 82.272339
11.932909 -10.338416 99.843773
8.496470 -11.776024 102.550377
14.453031 -3.325011 99.197792
8.433764 6.366468 101.324234
-15.190146 0.763093 87.564606
-12.758570 2.668415 106.424889
-10.329491 7.055360 82.510742
-9.186898 -11.285016 96.477959
1.882595 -12.698264 98.531532
9.018696 7.147232 96.993073
11.360115 5.372105 92.386063
-15.266725 -0.427413 93.118912
-3.738597 -11.366141 89.124046
13.306617 2.570498 93.460953
3.122685 -11.929443 95.001945
6.217660 8.579946 78.677605
8.009627 8.672400 98.395630
8.504366 9.333128 79.046661
8.624785 9.169066 78.944084
9.487120 3.748201 106.541367
-12.314639 3.347891 79.363914
13.196378 -10.429552 86.653900
15.801341 -1.889595 90.451660
12.105689 -8.429676 104.334251
3.181456 -12.733644 102.604599
3.523648 9.412275 89.623383
-1.774510 7.413591 102.597244
14.200525 -6.491334 91.559723
-0.254975 -1.109156 79.951439
-7.919811 -11.816999 104.412460
-2.636722 10.121126 91.909996
-0.378301 -8.014891 84.096893
-14.204965 -7.110190 77.149544
5.014437 -11.776316 81.469917
9.047017 -11.263069 103.102013
0.581099 -14.275432 103.836052
0.279130 1.389672 81.030426
-14.257680 1.123607 80.028351
-7.082050 -13.129289 98.444473
-12.929970 -10.377975 85.702515
5.243180 -12.955318 76.153702
11.951193 -11.753504 93.068733
1.388887 3.783046 81.642822
10.911003 5.642306 81.380714
8.925881 6.259299 102.701088
-14.925454 -5.270389 80.424767
-0.561799 1.040557 81.418991
0.738577 2.289304 83.140251
14.745232 -4.748875 98.559372
-2.661869 -12.202316 102.562515
11.719868 4.163885 105.453217
-13.117263 2.995687 89.563049
-5.827801 -12.259007 77.012749
0.316243 4.540823 85.461243
-9.813609 9.204641 91.245544
0.589873 -2.870342 78.300285
-13.979184 -10.170756 85.533180
-8.582685 -11.880781 88.626663
5.460256 -11.517737 82.574211
3.563286 -12.162910 83.466652
10.063407 9.635854 80.782143
-2.168316 2.407104 80.435722
2.292521 5.868943 85.079834
-4.578550 -9.912284 88.898140
9.471464 9.131811 81.570808
-7.073318 -12.760537 95.475479
15.084645 -1.009127 82.993294
-15.083441 -6.131218 79.740570
11.413727 1.766258 104.476234
-13.918611 2.261051 81.581261
-2.553305 6.758574 107.824745
14.036037 2.449525 86.919312
4.931754 -11.165867 78.008453
7.854655 -10.696267 103.267853
14.164742 -2.885241 101.631393
-4.754940 6.355545 81.183693
-12.159351 -11.522539 88.925636
-14.367951 -7.050542 76.918625
13.132895 -6.941092 101.704025
-12.230429 6.048268 91.889488
1.403670 -13.477346 103.030464
-11.313809 4.219800 96.122650
-12.129830 3.867737 79.168106
-1.297595 -9.742376 76.221680
-11.752417 3.089328 94.836525
-13.004309 0.239867 106.969116
7.442855 -12.484890 77.554657
5.529944 9.453790 99.349792
-0.025392 2.927847 83.216309
-13.036725 -3.176063 104.915749
14.081424 -0.582315 95.071777
-6.029255 -11.198803 96.060226
14.350469 -6.428889 98.145195
13.158663 -1.565318 103.187973
-3.730760 9.306359 97.747696
12.993497 -9.174356 98.132652
-0.691835 0.973451 81.439972
-1.413814 -2.563749 78.413200
-11.938806 -11.523747 87.010002
15.373014 -0.850277 99.137459
16.443472 -2.680998 90.732552
-12.334705 -7.646986 104.950142
0.638409 7.771941 104.798767
9.760133 6.709073 87.857307
-4.050889 9.160614 97.001335
10.933797 -12.380953 83.622047
11.131035 -10.138592 103.839104
-11.755808 4.559367 87.968071
-0.254080 -0.587826 77.995811
13.932621 -9.366011 77.526939
-3.627571 9.688742 96.870926
15.210083 0.022820 89.345535
-12.802422 3.367185 76.706535
-13.316571 -9.821673 83.213135
-5.046972 9.820664 95.987106
-11.159781 5.755178 87.013176
5.510853 -13.139204 102.574066
0.804671 -8.316891 79.943794
-13.953178 -0.510539 95.860809
14.559291 -5.019422 94.596542
2.832282 -13.055578 102.596924
-0.556177 -11.539593 90.628227
-1.189780 -13.024455 101.806671
1.379714 -10.889509 95.279533
-12.847454 -11.701722 89.003761
-5.642425 -12.358931 104.851685
-1.484458 -13.375306 100.615921
-3.994312 -12.657279 101.258720
-8.724656 9.188627 81.454575
14.225101 -7.323718 95.234444
-4.307331 8.342319 87.742859
-1.986356 8.655964 95.199669
-0.524663 -4.305641 78.122162
0.700464 5.313442 86.295906
10.657645 -11.966215 80.061989
6.491962 -12.879128 104.894211
-14.201613 -8.419620 80.606880
4.884677 -13.248796 103.257881
-13.986879 -7.260545 94.485046
-3.012894 10.596318 91.185135
6.016809 -10.944103 76.194992
-7.911335 9.552477 81.518402
-0.503707 -12.746486 101.908844
-0.654948 -11.433167 92.096306
-0.543077 5.501462 106.727615
-3.331441 6.716444 83.496140
-8.672462 -11.032587 101.158470
12.679365 2.903823 76.800957
-8.202932 9.272771 96.985031
5.751748 7.036890 80.183876
-12.938230 -2.604722 106.524567
-10.564883 6.385110 83.128815
-11.442192 -11.667148 84.023148
-13.267156 -7.858513 100.430099
-4.258023 9.497179 91.769089
0.698432 9.523361 100.372078
7.332973 9.252089 92.548798
-12.670782 -10.531659 77.032066
-3.961392 8.793525 103.065544
-13.054894 3.007699 96.753227
0.473305 -4.482994 80.169144
4.806934 -11.903873 77.510750
-3.636668 10.448337 94.743637
-4.986883 -12.609196 100.272835
7.500837 8.854277 91.737549
-7.537425 -12.339088 102.349808
4.417496 -11.694985 83.531471
2.576398 9.100480 91.776344
10.095272 7.161512 81.104126
10.934010 5.237556 84.233749
2.763542 8.943585 87.563995
11.314775 -11.509336 78.580147
-7.581138 9.082950 97.503586
4.802499 8.076468 87.238914
0.523639 -4.561298 81.229622
-8.931153 7.721001 86.397781
-13.576184 1.301405 105.165840
10.386012 7.023573 89.162285
13.506090 -0.949229 96.981339
-1.922612 4.949311 108.650894
-14.795236 -4.016568 78.625687
-12.304306 1.561920 105.939796
5.440183 -12.111906 100.000168
15.668342 -1.940367 94.537560
14.732436 -9.401591 87.773018
15.291718 -7.796199 90.102577
-7.028720 -12.334941 87.481720
-13.318740 2.993636 95.472359
13.217691 -5.488681 98.693512
-13.178865 -5.615219 96.666801
13.130719 -8.697446 105.561226
-15.364620 0.827452 84.409378
13.453889 -0.883000 104.941719
0.449924 -12.538635 96.415329
-12.569177 2.365839 85.957672
3.226516 5.936214 82.146324
-11.061909 3.241201 105.328972
2.791619 -12.322891 93.225128
-13.505858 3.652303 91.188347
-14.350706 -7.958644 86.164352
-8.821341 9.524477 85.179649
0.526645 -4.101292 74.963753
4.223424 -11.952495 95.164299
-13.805988 -1.239435 100.046051
-9.254305 6.835109 85.368980
-15.264116 -5.402918 78.661156
-11.420535 2.615878 105.756195
-10.648211 4.158534 108.122047
-10.182561 4.934881 108.010925
-13.077800 -3.168743 107.216904
0.981389 -6.474288 80.155403
-15.146532 -8.842031 92.069984
13.494221 -8.795399 90.238716
9.188669 5.036474 108.147079
9.770658 -11.911866 82.694534
2.272290 -11.922108 95.416603
14.683627 -9.051857 85.596779
7.452816 5.832313 107.473038
2.089285 -11.042451 90.506866
-0.813049 -12.572779 101.048096
14.943726 -6.763443 94.127083
10.686649 8.158675 79.845665
2.892458 8.839910 87.509735
1.464458 5.067482 108.584953
11.754315 -8.944016 75.823257
14.534059 0.180927 82.294708
11.480177 -9.805514 100.456985
-11.209690 -10.034410 94.280510
6.031379 9.890398 92.595772
4.742241 -11.514808 98.331253
-15.396892 -0.278244 85.443192
-9.058083 -12.276908 93.748634
13.196129 2.806610 86.121727
14.797746 -8.063293 93.787865
15.359433 -4.716211 80.537346
0.389828 -11.601274 95.246056
10.415534 7.100292 81.112892
5.436748 6.061301 107.707603
11.352554 -10.761950 94.219948
-11.977240 -9.865219 100.735474
13.273920 0.964370 95.319550
2.672394 -10.569525 81.349205
14.569641 -7.885422 78.065155
15.175200 -6.970153 84.625992
6.756945 -12.193330 85.347839
4.764090 8.353719 86.660393
-0.254109 7.348470 90.103470
12.937280 5.441704 87.056892
12.083652 -6.250955 104.850815
9.491270 -9.299855 104.982895
-0.238934 -6.913786 84.089790
11.970632 4.259587 93.915092
-15.744118 -5.194231 83.816170
-12.630473 3.367048 83.094429
1.914010 7.596516 108.346741
12.409152 -6.682443 102.139809
15.631647 -0.457520 90.058510
-12.006824 2.703023 82.553383
2.663338 -12.814693 94.003929
-9.549244 6.460282 104.555428
8.158107 -11.937434 100.675308
-5.886832 -12.118998 102.406158
-15.544804 -0.845250 93.179863
-6.212179 9.437765 84.117989
10.586195 7.858631 81.043373
-10.168476 7.903335 85.242424
1.247622 -12.445449 93.245667
14.654450 -6.125222 91.931648
-14.843618 -2.266671 81.511459
-13.122684 1.795199 103.130447
-14.798842 -7.581075 84.514259
5.194160 -10.583306 95.970863
8.585368 8.937472 82.193436
10.990793 5.007915 80.335289
-1.731360 2.270654 78.633080
16.230539 -4.923739 80.564293
-8.064179 9.349990 81.583672
1.414705 8.023411 102.203171
-10.705053 7.215924 81.992172
-1.239848 8.432613 104.075745
11.289926 -11.120741 80.847656
-4.599563 6.467349 85.065979
-4.824603 -11.112476 91.649361
-0.387344 -12.648835 98.483871
13.734324 -7.464380 79.374863
10.033496 -10.955977 86.487579
14.716908 -4.578273 97.192581
-13.418145 -7.553619 101.887703
-10.916861 7.277415 81.245605
1.403002 -10.886127 93.971504
3.934803 -11.453855 90.604843
3.114144 -11.117464 86.604065
14.715357 -0.905387 96.387390
12.618785 -0.295359 105.317955
-2.605237 -10.239464 89.106064
1.639101 2.806392 77.907120
-1.026165 9.775856 99.461113
5.380499 7.842199 105.506226
-9.120243 -12.335133 100.509583
10.687338 -12.464553 83.850769
-14.396317 -1.730127 100.958435
13.113143 -0.966663 104.846497
13.372282 -9.558392 93.323746
-11.626531 3.490254 78.006584
2.472069 8.759663 99.372780
12.079591 2.908661 102.013847
2.004830 -11.667771 84.499519
-10.078205 6.523272 100.506943
-3.174117 10.040979 96.078865
4.992563 -11.198908 92.473953
-8.861895 8.343700 86.657166
12.327416 3.294974 96.302734
6.929582 5.132028 108.964836
-12.431365 -8.807257 97.185333
3.881206 7.351642 103.785645
-10.433862 9.022569 89.252861
-10.217673 6.635287 86.169182
10.893485 -12.576988 92.500931
-13.113811 2.566527 100.816803
13.603762 0.175290 105.776527
5.119271 -12.352282 102.383240
5.079861 -11.094618 77.628990
-14.347746 -1.172191 95.526970
-14.533587 2.130407 89.628136
-10.463534 -10.944426 91.783897
4.468239 10.002250 97.168190
0.762105 -8.134199 85.119118
11.922106 5.569197 90.284172
-1.408858 -8.058503 76.359001
10.330130 7.744083 82.023468
-13.845101 1.512300 91.563675
8.972795 6.041497 105.722267
-3.256927 5.697462 107.608803
5.342337 -10.461612 92.725571
-3.717750 -11.123228 96.175415
-12.865055 -9.140018 78.941185
10.444815 7.025824 96.631203
-4.389443 -10.903547 86.264153
-2.398491 10.292608 91.920074
14.353911 0.059755 80.197258
6.235517 7.943831 80.302307
15.181204 -4.401514 80.725693
5.582183 -10.727333 94.737450
15.430499 -0.418093 82.611320
-14.985193 -4.982153 81.441620
9.366361 7.505309 90.096802
-13.382387 -8.345588 98.865196
15.465149 -5.266396 88.316635
-0.757201 -13.486239 102.100044
15.633964 -5.210180 90.651436
-11.239241 -12.135586 85.738876
-11.646990 5.960582 94.724632
-7.292320 9.531422 94.964745
12.716378 -8.076576 102.709480
-11.377718 4.199160 83.185883
13.560049 -9.676198 78.427483
-12.018063 -11.452838 79.163734
13.501999 0.986792 98.426430
-10.992586 5.307805 84.698387
7.376184 -13.059597 90.053833
5.947937 6.153200 78.505020
8.991158 -11.360930 101.749039
12.031021 -7.963807 100.904694
-15.356614 -3.248893 82.890678
0.545404 -12.083028 97.859161
-6.966033 -11.890583 82.471718
15.269634 -1.207330 83.691383
12.828184 2.657853 89.461929
-2.553305 10.212862 92.415619
7.696578 6.223364 103.392212
-17.211418 -0.594968 90.230133
-13.383780 2.902210 92.209297
4.391192 9.851049 89.100693
0.648170 -10.785820 93.186966
12.789826 2.448329 81.266418
-6.083336 -12.065503 91.686249
11.772247 2.981133 107.346664
0.363477 7.156210 107.422295
7.391527 -12.121661 80.109825
0.916067 7.357539 104.045555
7.641681 9.976998 96.181503
12.055290 2.942599 101.204849
-1.465639 -8.705922 76.592506
-3.662302 5.103302 83.406601
-2.328889 3.816027 82.707230
-16.041430 -4.414544 88.495140
-11.172923 8.795396 78.509377
-14.005600 -2.426317 102.024719
4.746392 9.551558 93.478127
-10.753168 5.636711 101.815536
-6.922814 -12.632214 92.740318
-9.476562 6.532985 101.089371
-13.432329 4.419557 77.757126
6.806135 5.185074 106.097900
-2.755012 9.582252 92.809540
-5.893724 -12.128441 79.378212
7.904952 9.645812 91.204430
-10.150065 8.571954 85.944695
14.266460 -9.209642 77.762955
6.793668 -11.390502 93.298660
10.240484 7.025093 89.026718
12.515264 2.382902 97.338242
4.760467 5.997061 106.583801
-12.752238 -8.892060 101.707329
-9.469965 -10.033724 103.755013
-12.653125 -7.093318 102.582443
5.998842 10.067175 99.868774
-12.782904 2.798023 82.610855
-7.711735 -12.332258 102.568855
-11.642653 -9.839422 80.816475
-6.939312 6.321355 107.196236
5.091630 -10.810804 92.550262
11.815405 -9.611403 94.890991
5.398325 -12.158774 102.918884
-9.634829 -11.632648 76.643707
7.976341 5.779892 105.796066
13.469861 1.063605 80.078690
9.162927 8.517321 78.900993
-11.234213 4.611421 98.641220
-8.021086 -13.054246 76.737869
8.720045 -10.850206 95.544006
11.705221 -7.173755 104.131302
12.172165 3.611181 90.595856
8.820312 8.129472 101.424942
8.313553 -12.292165 102.727600
13.706698 -9.166795 86.193275
-6.768095 -11.245906 94.308861
-15.911420 -1.262020 97.335739
7.652757 8.749239 82.141319
16.043926 -2.661774 86.238739
-5.459319 -11.283232 92.277946
-14.542186 -7.587109 86.731384
5.932625 6.869646 105.819214
-13.282404 -5.181092 105.429543
6.858042 -11.585481 95.258316
14.864070 -7.311985 92.880013
11.416342 6.492324 93.132980
-9.320502 -11.078862 95.782028
15.196590 -0.494903 88.634659
-0.925110 -0.059556 79.804169
5.874847 6.238291 107.715988
-11.673976 -11.402499 77.991341
10.065145 8.644821 79.233482
12.411466 4.475441 90.986076
-6.922784 -12.499941 102.597160
15.445444 -5.059354 95.030571
5.309255 10.142877 95.559052
1.936799 6.931378 108.328590
9.536160 -10.969445 101.556587
3.080835 -11.385385 93.998917
-12.733559 3.990633 89.755280
1.983287 6.087903 85.230011
12.320809 -12.245505 85.246239
12.939303 -7.811647 98.064087
13.837388 0.388392 95.710083
-14.831578 -0.416575 91.017357
8.455888 -11.217118 96.439545
9.904485 -9.729442 104.469429
-2.366596 7.474982 103.798698
-13.142878 -9.151463 95.112503
12.240493 -0.554667 108.647415
-13.994420 0.149487 101.820526
-3.953663 -10.946390 90.762123
-9.296542 -10.923261 100.352951
13.490289 1.213722 81.653702
-0.795531 0.346588 80.159248
-13.946510 -3.018380 74.814636
-7.309525 -11.056280 96.001877
5.613857 9.640263 89.016708
-6.037230 -12.660230 79.330063
15.533123 -5.081729 90.363136
-11.911370 -9.208795 93.402115
9.503722 -12.205582 90.981667
12.627099 -8.489895 103.928505
13.433655 -11.557474 80.234406
-9.953967 5.006926 104.991676
-8.954893 6.698029 104.314941
1.643376 9.128170 100.297913
-1.260576 -8.847615 80.055252
13.291625 -5.973576 99.338036
-13.451220 -9.362651 93.676674
0.926680 1.204227 80.050720
16.955334 -3.291945 86.383881
-3.309380 -10.849000 80.390663
13.358584 -10.673185 97.947624
-13.564024 -2.973301 103.978355
2.506385 9.032996 96.635651
6.236592 -9.626491 78.621033
-12.107298 -11.010181 81.785042
6.267108 8.386436 80.256668
9.693350 7.027291 88.241699
10.319614 6.497742 77.663940
-10.260952 3.879430 105.971863
15.076039 -4.737009 87.047066
14.058079 1.767097 91.450737
-13.102935 -3.643265 105.314224
11.693934 2.785419 97.721878
-11.596837 6.101859 79.743706
-12.423322 -3.400013 104.482544
13.985753 -9.367843 98.548698
-13.099018 -11.329919 76.783363
3.194158 -9.707791 79.249405
12.071061 -7.143698 104.093307
12.497048 -7.223437 102.322968
-14.542041 -6.624012 92.769958
-5.438192 -11.122618 91.742294
14.373243 -8.349641 79.576653
-13.871166 0.638249 100.725937
1.274469 7.495198 107.255005
0.359622 -12.052056 89.063095
2.272199 6.556527 106.904816
11.109173 -11.077672 83.164230
-12.002280 2.508993 102.405426
-2.068304 1.542078 82.310783
11.210443 6.074577 87.515457
-11.181665 -11.225278 90.455444
-6.430168 -12.072319 103.335968
11.782358 5.609893 95.298721
-14.526125 -8.538079 91.003036
14.307117 -5.676752 78.065552
12.659670 -0.367703 107.117783
0.816089 -12.627422 97.642654
-1.231013 10.104604 94.068230
-5.341897 -11.698579 86.287445
-8.918058 -12.314314 76.300117
3.982352 -11.613683 84.942017
-4.738913 10.036192 92.216156
13.134727 0.349432 102.399277
1.001535 7.869997 88.270683
13.930581 1.980574 83.005157
4.178348 5.717237 81.820709
0.882871 -0.520834 80.770149
15.253514 -2.748201 92.489960
-8.033010 7.000752 101.578468
9.404061 8.805712 91.071487
-14.201859 -1.375334 76.363754
9.657600 -12.219296 80.653214
8.133401 -11.179898 88.227036
2.579437 -12.212872 95.056107
-9.078103 -13.653153 82.453316
-1.496085 9.146163 87.260452
12.807883 -6.424610 103.085838
-3.609238 5.345365 80.026939
8.289263 -12.457065 90.054512
15.466878 -8.263696 85.842422
10.478187 -10.019365 104.061798
-5.516535 8.540760 82.076942
3.970003 -12.361767 99.686386
-5.832599 9.066418 86.974205
-9.183694 -10.412475 101.195213
-16.400139 -0.001239 85.789368
14.478889 -2.237545 105.024315
-12.843954 3.277809 95.254440
2.210936 -10.647677 78.505196
9.884418 -10.974387 85.345245
-0.417434 7.948265 101.645348
-8.633969 -12.460235 76.467079
10.714933 -11.275825 91.693718
6.312391 -12.418439 102.139412
0.452721 -11.305089 93.214233
6.539183 -12.786398 103.518211
15.362231 -2.408300 82.289574
0.945485 2.740704 81.116241
12.994671 -10.083941 91.651756
-1.347482 -12.179609 98.582527
-2.250211 6.520695 109.881081
-5.371242 -11.566311 85.100418
9.158645 3.394121 108.969269
9.262462 -12.062234 86.261559
13.499609 -8.316110 100.991493
3.660890 -10.472965 81.337051
9.188864 12.269096 78.511154
0.823617 3.111903 84.063210
12.126113 5.378210 83.955063
-3.353061 8.792437 99.435745
-12.880568 2.601655 106.899895
0.014199 -2.528515 79.788536
-4.808873 9.197891 89.742287
-10.919199 5.448039 107.684517
-14.367178 0.745553 82.178238
13.504881 0.399614 104.184235
-14.756676 -0.999886 87.707771
2.181766 -8.678288 77.178276
-7.695747 -12.346547 103.783173
10.740870 5.255704 91.822914
3.930961 -11.069047 88.554764
-11.042471 4.935064 85.227577
14.169872 -7.317170 79.398827
-1.606421 -12.386074 96.476151
13.035326 -9.595010 85.257172
-9.930067 7.083797 88.967354
10.385166 -11.251230 82.299828
10.275846 -11.072016 84.658554
5.443676 8.548074 103.111649
13.775507 1.654518 92.231743
-8.446625 9.241371 77.859474
0.759241 -7.787971 79.703300
5.396682 -12.055855 103.413773
-8.225002 6.756719 100.267792
-0.998743 -7.923500 82.202232
-2.341629 7.655770 105.302689
15.023206 -5.549603 82.779976
12.399347 2.062983 81.737686
-4.229852 -12.883156 100.990158
0.173705 -10.375635 89.558113
-0.914651 -5.003646 80.453613
10.853932 1.597462 105.460823
-11.919140 3.418247 105.201973
-14.448010 -7.920159 86.719505
-14.245547 -9.466453 87.181602
-3.472888 -10.320602 93.387459
-2.903107 8.120614 88.055977
-13.648665 -9.888358 89.878929
9.787210 8.537164 92.918976
12.918663 -1.695928 102.289047
2.988994 -10.481104 79.882111
4.371921 9.887844 89.831421
12.797195 -9.320573 93.282631
2.598537 -11.320738 90.287674
12.417013 4.281607 91.401115
-13.981014 1.190495 87.250343
-14.149821 -6.156587 102.749146
-14.564801 -5.610613 88.154305
-15.566783 -2.499454 85.869286
6.946413 -12.351035 104.016579
-11.098330 6.700248 81.230782
-15.190406 0.632116 86.038315
3.144689 -11.601207 84.749680
-12.055498 -12.312138 81.875755
4.663999 6.355315 80.533722
7.448241 -13.154981 81.962410
4.566856 -12.665477 96.692879
11.847820 2.860565 102.293793
-0.004386 -10.359742 87.955116
-4.214790 9.504902 92.348167
-13.309905 -5.500776 100.172150
-7.454073 -11.816965 99.839142
14.795051 -1.496137 99.716278
-6.188210 -10.710957 87.956398
1.407791 -3.946316 78.008949
13.480089 -8.295831 79.155479
11.818735 -11.263904 90.376160
-13.405011 -3.840634 102.138412
-12.053982 2.266698 104.549591
1.850622 -12.888209 96.878708
-10.249407 7.904913 82.470657
0.153296 -6.791036 81.843994
-2.707824 -9.839587 76.883118
-13.789392 -0.724872 96.179237
3.494518 10.192939 95.179688
-13.670172 -1.114413 101.083321
-11.316274 -9.835957 96.396225
-4.937407 -11.941359 105.088173
-10.193553 -11.100099 76.846313
11.925689 -8.767379 97.735741
10.847190 -12.483546 93.224281
-11.955309 -6.363093 75.318985
15.923053 -4.809933 88.637527
-2.939115 -10.597034 93.045486
13.690688 -1.342654 103.571976
-7.181330 -11.720912 104.706871
3.225486 -10.734592 89.323135
10.759265 9.803242 78.222343
-10.497744 -11.872551 80.028915
-15.158257 -3.323410 82.758499
-3.757318 -11.202444 93.724617
-5.465391 7.285478 107.798119
15.583035 -1.380723 87.872955
-6.523335 9.089646 94.727699
6.456966 -11.764483 96.221199
-13.135986 -10.088078 86.236816
0.800042 4.941279 107.892509
-2.983197 -13.827592 103.349564
12.295250 4.887309 91.121132
-4.307551 -11.386248 76.265930
-13.428571 -3.846570 103.278351
-7.130392 10.547008 94.620735
1.946726 3.073840 82.498375
-12.100881 -12.357262 79.115707
-8.129647 -11.490868 101.880936
11.063224 6.011101 96.265236
8.929969 9.648973 79.127693
5.968051 -12.395007 103.497749
-6.215307 5.110689 107.508545
-9.433035 9.280225 84.636536
-14.313000 -8.238690 80.720215
1.876062 8.000771 90.139931
-5.348841 10.442791 96.447769
2.004415 6.631620 105.824417
10.911888 -11.052979 84.271172
-2.737531 -13.077606 101.855164
4.578241 6.762664 106.509308
11.557323 6.373318 88.388489
5.126650 -12.302956 103.008774
-16.100473 -4.101148 91.264938
6.238602 7.814817 98.902817
11.064686 6.897688 91.588310
9.158528 -12.343741 85.149590
12.498447 0.099979 105.618233
9.386315 -10.552836 104.416885
-0.932530 9.408605 94.781288
-3.197199 -10.221067 77.616440
5.128288 -13.122997 105.272881
-11.722257 5.794046 83.126785
6.250947 -12.860188 81.206085
5.974988 9.641517 97.352386
-5.537528 -9.623136 93.148720
12.608038 2.633896 104.971695
9.944795 4.095326 107.488220
12.376752 3.179322 93.122643
11.124722 4.170100 99.381905
-0.459579 -9.596949 89.274750
12.743353 2.663871 80.353302
-9.189686 6.560553 87.597221
-5.795943 -12.746352 82.972748
-7.794554 -11.839768 86.233139
13.241995 -4.281172 102.418777
13.459748 -2.818129 103.666725
2.788332 -11.857111 80.118629
-12.432119 -9.641638 93.588699
-15.119319 -0.249011 93.755852
5.321702 8.588148 95.365555
-11.146907 -11.254852 82.879707
2.699409 -10.548910 89.422890
7.280217 -11.130083 98.663269
-4.633028 -11.938637 87.290588
14.675834 0.926771 87.715858
12.229831 2.249153 103.797379
12.950508 -1.494136 104.215034
-7.543869 -11.502130 102.090485
1.108939 -10.801629 91.777931
-11.897876 2.811372 84.960747
7.206928 -11.408563 104.243492
8.473123 8.802093 79.961098
12.073973 -9.121458 102.177376
-14.609512 -2.867139 96.731796
-7.912872 8.670756 98.090401
-3.725267 -12.334031 102.591225
1.397524 9.108388 91.539284
7.221887 -13.466313 79.967278
6.061690 -11.336597 91.513092
0.920181 -9.295938 86.714897
13.240870 -1.774010 104.365524
7.794724 -12.147170 103.683105
-5.241037 9.338144 89.304329
9.332314 -11.768834 81.758423
14.399490 -0.056715 81.701118
4.220592 4.912132 83.244209
-5.992707 10.126962 95.579140
6.146940 8.853682 103.580368
-15.017317 0.869859 84.730637
6.641288 -11.897222 86.276421
1.109709 -11.321885 90.506935
7.767901 7.896230 101.787308
15.090979 -2.226795 86.455635
-1.639493 -12.988063 101.642815
10.170177 6.640209 93.948547
9.290374 6.651048 102.407234
0.915841 7.896041 87.852669
9.331838 4.011383 107.488289
0.088746 -7.861173 85.685120
10.284706 7.822457 84.221596
-3.452421 10.137691 94.930878
6.522230 8.741451 78.491341
-9.861873 7.126583 88.755463
1.582360 8.597766 104.629654
14.473062 -7.752825 84.862358
5.016617 -12.119799 83.297150
-13.450130 1.521892 88.690086
7.473343 -11.206156 90.754280
-14.488305 -4.871077 96.735832
10.377962 8.441533 79.687027
-14.434925 -0.239832 80.424454
14.180875 0.769815 104.591042
-12.959581 -6.400408 103.061523
5.895150 -12.095889 98.348816
-5.066925 -11.463211 85.302063
10.427445 7.609301 80.993256
12.585719 -9.366172 97.510262
14.628224 -0.340352 99.953758
11.013509 -11.028254 84.399918
6.846251 9.504933 98.891228
-0.001522 -6.570400 79.073524
5.869125 9.105545 95.745827
7.249972 8.542539 84.863647
2.936518 6.368097 106.165466
-14.743609 -5.864527 93.259834
10.301727 -8.792591 105.742378
-7.923973 -12.900045 103.146065
5.922360 5.724980 108.355446
2.350577 3.486166 81.120979
8.172863 -11.508203 101.394890
6.116516 -12.702622 75.844704
3.702775 -11.195238 93.387428
12.665771 -10.460945 87.556664
-13.980293 1.622823 89.413101
-4.372031 9.909691 98.430824
-10.118502 10.343085 80.770264
-4.950339 -10.888091 80.893867
12.548201 -9.735278 99.543076
-2.571071 -10.420994 80.773048
8.811686 -10.713876 102.693619
12.272364 -11.318677 86.954704
13.452834 -2.114194 100.942047
5.165783 -12.901290 101.446983
13.513848 1.072302 104.695251
0.943845 4.192114 85.033470
-13.581316 -7.211633 99.704880
1.736981 1.332739 76.960503
12.110256 3.071682 107.085228
6.134863 9.512437 90.217522
12.616280 -6.078076 98.600159
12.199944 -0.272782 78.897705
-13.565902 -0.341932 96.841705
13.123592 -4.643179 98.709198
-15.838050 -3.403620 89.108063
11.159808 6.936531 87.332123
-9.359552 6.572096 100.143463
15.901290 -1.107014 87.343079
11.686778 -11.114806 81.553970
11.675754 4.479561 93.967972
-2.044285 7.608552 104.075386
-10.648257 6.385748 82.198212
-12.802488 -9.944146 85.424675
-12.558122 3.180904 103.541473
-0.711170 -8.072223 75.277802
4.970519 8.138275 86.852158
-12.899200 1.615260 97.067604
-13.942411 -6.358316 97.204659
9.692467 -10.858902 103.790398
-10.749906 5.669198 103.107941
9.558694 -11.660804 85.052681
-13.309865 -10.305942 88.297142
2.175713 8.608860 101.255760
-1.147578 -2.466916 79.156998
-13.443052 2.452061 86.401337
-4.678682 -12.552361 99.645828
11.023695 5.754884 91.014923
-0.775812 -12.525703 99.066933
-9.533634 -10.382093 103.617149
-13.597435 3.393532 94.541222
14.172844 -3.909820 104.416283
-4.872061 10.506432 96.181862
-4.935278 8.324852 95.825256
-0.966296 5.962469 107.307449
-12.943361 1.848357 97.723053
10.934295 -10.705528 95.149879
14.129580 -7.853210 92.993484
-8.018023 7.698941 102.757927
3.719945 7.162750 106.708084
14.867387 -4.211308 90.472687
-11.217360 -10.246554 104.756607
-12.905029 3.565688 87.625015
3.415195 -13.773013 95.794289
-1.323993 -9.159548 83.307686
13.315153 -8.337984 97.193130
2.095605 9.271898 97.294968
-14.083915 2.116328 106.908257
10.680872 7.880816 92.350410
14.760013 -6.182186 80.220596
2.021214 -13.413023 104.318619
-6.513772 -12.317478 78.262474
-6.007471 8.037226 101.661797
9.116152 10.336827 86.810341
-11.203972 -7.935669 102.226799
-15.908174 -2.100856 86.559128
-3.575409 9.061870 100.597694
10.213082 7.955647 92.448044
9.821718 6.247922 104.276146
-16.006563 -1.656349 85.438751
6.875424 -11.738670 87.685829
-3.832797 10.385262 94.798164
11.869270 0.214364 107.844482
-1.847420 -9.767140 83.376144
-4.532292 8.775730 85.372208
-1.178000 10.079241 97.310341
4.758314 -11.499443 94.175461
-14.600374 -1.029179 95.856911
-12.873057 -9.946639 90.034607
-13.989903 -7.369639 102.202492
-12.745853 -7.507329 102.135338
-15.777913 -4.503740 90.607094
1.074571 -7.392722 79.356956
-13.696719 -9.299047 79.984909
16.405697 -2.211753 83.894348
-0.231672 5.242189 107.784821
-12.590895 -4.133855 104.497528
11.948606 -9.873678 105.046806
12.647774 2.970713 81.702370
-6.944925 -12.404003 96.904770
-12.524849 -0.613436 105.306412
14.454154 -4.450005 97.076630
7.390727 9.123613 96.253616
14.032332 -0.058822 102.555931
-12.626888 -9.257503 78.668755
-6.874376 -11.189231 98.058708
6.714563 -11.869852 97.031555
-1.103438 -12.115005 89.063026
-14.071218 -5.416443 98.909546
-10.587730 -9.444523 96.885223
5.007753 6.056098 77.012093
8.028166 -11.972242 89.936478
15.962962 -2.215302 91.323631
10.209745 5.698795 96.293793
6.904796 -11.943393 103.724152
11.441415 3.720427 95.099792
-15.262614 -4.341333 83.490944
3.071539 9.622233 95.187592
14.590892 1.283117 88.845833
13.233922 -9.237492 77.229454
-1.935370 5.858874 108.512589
8.823084 9.062397 96.432518
10.305433 7.335578 91.364105
12.720442 2.781896 84.666290
-12.397490 -9.978603 105.406998
-14.542964 -0.323631 77.868607
-11.440117 -11.932584 94.472427
-12.902918 3.332507 99.175575
-3.096367 5.931499 108.446281
2.707243 -13.992423 103.076141
11.768496 -9.971184 99.462234
-1.403046 -9.129121 80.083908
11.318547 4.336441 104.727554
9.017509 4.906796 106.986984
3.566906 10.608427 91.380356
10.930156 -11.289488 89.553040
9.892817 -10.117907 100.310699
5.993959 6.545058 106.723366
11.302391 -10.306587 85.686203
12.687049 3.342841 78.014000
-2.394926 8.617064 102.288712
-1.384113 -5.201942 78.866425
-14.049409 0.033228 96.129753
-12.164147 -8.679281 102.438377
-13.454462 -1.021058 100.551056
-7.149937 9.119281 81.261360
-8.980062 -10.915878 90.368576
-13.287726 2.067467 80.815376
-8.252687 8.664825 95.157036
13.788518 -1.618806 79.163918
1.787529 -7.613142 79.377594
6.525893 7.477986 101.876663
-15.135592 -7.748563 80.612228
-13.687023 -5.475686 104.462082
8.605844 -10.923525 102.679115
-3.928083 6.646133 105.929253
11.400310 -9.910005 97.062584
-13.159515 3.193031 83.942368
-2.512091 2.390202 79.170509
2.023528 -0.945415 77.935768
6.584674 5.252389 107.529350
1.766521 -8.576763 85.373322
7.922311 -11.068557 102.322418
12.819216 3.664567 97.970840
8.274752 -13.332605 77.470543
-14.182586 0.069446 84.593849
2.024388 -13.554708 102.453773
-10.655449 -9.631122 102.731644
14.827670 -8.581713 86.985413
-0.359541 9.437589 92.965218
-14.708369 1.834603 90.374481
10.663000 7.161351 75.906502
-12.819526 4.806510 86.290314
6.517561 9.316854 95.457710
5.406212 -11.857690 77.273651
-2.291396 3.224444 80.435143
-1.850594 -6.704601 78.789597
-7.161503 9.072495 82.225044
10.725045 -11.290003 84.800079
12.625196 -2.214338 107.328278
-14.346865 -8.894990 83.834373
13.290139 -2.114694 106.045128
-15.978388 -0.972364 90.609161
16.030115 -4.850966 76.407372
7.402650 -11.802149 102.034302
-13.206385 -1.390426 102.791954
7.389824 9.684489 90.667603
-15.397926 -4.304708 83.936447
-14.809055 -2.393577 105.589188
0.435201 -2.401374 78.208298
7.774706 -11.236632 102.693825
2.823033 -10.776989 92.149452
4.966667 -10.561296 85.343781
-14.853576 -7.990926 89.071487
14.856448 -5.472197 82.842354
-14.271507 -2.865532 103.787125
12.841086 2.971569 100.290695
-7.506422 -12.179382 90.228165
2.593126 5.383221 109.581512
-11.711456 5.405609 86.771141
-12.799586 1.934391 101.574165
-12.644759 3.434469 89.533546
-12.661220 2.739810 82.066956
-6.855943 -11.714974 80.368774
7.176345 6.161651 78.679955
2.685288 -10.633241 83.240662
-11.911341 -6.230597 103.502083
0.345614 -1.005837 79.537689
-12.920784 -11.055869 80.202347
3.251192 -10.648218 89.629715
13.155988 -6.366641 98.064873
-13.812590 -1.105936 95.153450
2.799037 -11.896328 90.253906
-1.941203 9.093135 89.776299
-11.217695 -8.538067 102.191505
13.174022 0.584972 81.868141
5.013062 6.869986 79.041428
16.023834 -3.806727 96.013901
-14.737576 -1.181412 99.863609
3.359643 4.258762 81.308640
2.475263 -10.151067 89.491470
-6.467680 9.612610 80.627869
5.504132 4.314680 79.664307
-15.512325 -8.033196 84.007492
10.787417 2.037594 107.551933
12.207588 -10.740254 87.874710
12.044707 3.245860 79.039238
-13.812046 -0.136937 79.747070
11.546618 6.364871 81.493011
13.360949 -3.948653 102.367783
2.081967 5.933513 85.251923
-3.612685 10.735685 93.987823
-11.211718 -10.309008 93.269791
-10.953048 2.976984 107.331627
12.215466 1.859566 101.163200
10.359687 -11.197118 81.242256
-12.186292 -11.611635 79.043968
11.804474 2.904729 95.192116
-5.042928 7.080747 106.095848
9.034020 -10.540841 104.096199
-12.521979 -2.201674 102.806267
-12.570693 -6.320416 104.875259
0.945607 8.937818 98.606415
16.972206 -0.854605 86.424507
-14.912076 -6.020478 94.549248
14.697083 -0.929929 83.127495
13.627674 -3.038115 105.055740
3.908497 -10.974145 86.049568
-3.976062 -10.034725 89.402534
12.658450 -6.330672 105.281990
-9.776269 -10.253400 90.618607
-9.329906 -11.202548 97.140854
13.961247 2.314290 96.370743
5.481522 5.415288 105.440315
-3.831031 5.835552 79.828941
7.442673 5.479498 107.797615
1.692583 -11.498393 95.907684
-2.678231 5.259888 107.512321
8.325858 -11.733305 98.189957
-13.195941 0.335466 103.981346
6.752646 5.339742 106.957077
13.596520 -4.260156 102.843765
14.178333 -7.730389 87.661385
3.023250 9.477986 92.490074
-9.727139 7.000565 89.305283
-1.454440 -9.028258 87.447868
-12.062581 3.251016 79.343895
10.103681 -9.914654 96.789291
-15.657212 -1.369674 86.033035
11.073920 -9.332850 104.125694
11.481993 4.582086 104.211288
9.079721 9.689828 79.273102
-7.628029 5.031685 107.783897
-13.561769 -2.430703 104.890503
1.986882 6.514559 107.048386
-9.565042 -12.225579 94.781746
0.290629 10.473471 93.779099
-12.491450 -11.205377 88.319069
11.794517 5.294072 93.204811
2.545811 -13.872583 96.889740
3.596295 -11.197207 94.989601
11.062474 -10.222951 104.160110
-11.063069 -11.474180 91.255989
-1.842039 -11.858158 101.860741
13.156562 -8.611831 74.934586
13.975016 -4.544737 102.318161
-6.573579 4.986344 106.618561
1.550516 -11.952731 87.720459
-2.768567 4.183228 80.118950
-14.475315 -4.533137 99.817291
-5.611176 8.032117 84.773026
-1.086099 -13.107769 100.671646
-12.788725 -8.178430 96.186432
15.242097 -4.231896 93.074585
9.994892 -9.505984 101.892700
13.997313 1.802392 90.502480
5.777554 9.068009 86.351746
3.324950 6.115215 107.866707
-15.446950 -3.504879 88.021393
1.771418 -11.259910 91.179070
11.312185 -11.103808 100.155182
4.517872 -13.346634 102.915947
13.431828 3.743907 85.634117
-10.737643 5.636179 80.345573
12.555400 3.439789 101.229530
-9.364971 6.369032 100.891296
5.695266 -12.442154 77.971931
-15.671183 -1.981137 97.385757
5.170243 6.549142 84.244194
-14.661402 -1.395727 94.458336
11.002140 7.333204 93.124016
7.914621 -12.344646 88.734344
-7.698380 -11.318150 104.198601
-2.850237 9.838208 94.983948
12.921519 3.043485 104.794937
-0.286614 -0.863450 80.105820
-12.799316 -9.614385 75.593208
-4.213677 -9.761947 88.053520
-14.212760 1.494009 88.432503
10.852931 -10.689212 96.115730
2.928357 -11.795185 93.802269
-8.337667 -11.193566 90.699181
-13.142093 -8.392445 98.618309
-1.293925 -8.121984 84.355476
-13.351972 -0.674839 99.589577
5.071180 7.060250 107.371445
6.573154 -11.671218 89.195663
-7.282274 8.563317 91.412521
-6.856214 10.363581 93.119553
-1.643245 -11.681135 94.239197
10.568052 7.170002 80.972092
-6.579137 -12.290184 86.058304
14.620928 -6.793316 78.453751
4.287569 9.222586 97.953362
-8.971910 8.228065 91.950737
5.445891 4.940399 109.526543
10.717090 -12.012440 87.584000
13.937194 -0.300029 104.909103
-6.633955 -12.091031 81.666992
-6.583212 7.263629 86.126808
-14.407874 -6.819819 87.729378
-14.307367 -5.235662 87.338264
15.749522 -4.866783 95.834045
-13.654351 -4.070646 74.581398
7.158020 5.832870 105.952248
-8.474423 -11.883368 86.781181
13.515904 -8.433760 77.991119
-1.598480 -12.731125 102.607521
-11.029580 -11.724388 78.676102
-0.483398 -7.967706 77.917793
-15.721595 -7.646314 83.165268
13.125321 -10.400802 85.044128
-16.678915 -2.482981 90.069702
-12.949781 4.629754 88.631775
11.763931 -11.983630 80.686554
-10.840892 -10.113812 103.206932
8.376944 -11.658478 103.146790
-13.207168 0.477401 105.364586
-13.031722 -6.804162 101.504974
11.510285 4.053432 98.348557
-14.910220 -8.230425 88.064919
7.186018 6.558108 103.727608
14.432078 -7.011734 79.737427
-14.227134 -0.687392 103.977158
15.896232 -2.190636 85.372665
2.947191 -10.338832 83.402740
3.357708 -11.086759 91.105774
-15.624978 -5.227437 88.456116
10.540184 -10.287632 102.600273
-5.648160 6.939600 80.373268
1.591913 -13.872782 104.155159
-14.732731 -3.199664 98.717491
12.219507 0.067724 106.543114
5.694149 -10.603042 93.033424
9.129194 5.240805 107.484756
14.285510 -0.370867 92.839882
-13.062535 -9.989301 92.429390
-4.200471 -10.630661 93.338837
-0.194713 8.702754 103.059128
-14.316656 -9.323744 82.599007
-12.874761 1.881642 102.938629
0.062253 -5.437431 77.120659
2.062319 -13.497967 98.370461
10.863874 6.578646 94.888847
9.185807 5.123661 105.216682
3.324988 -10.436912 92.004761
-8.989220 8.588147 95.381767
13.827650 -3.467808 105.403122
14.682228 0.204129 96.956726
11.787579 -9.181297 105.026398
-4.750771 -11.660062 80.508049
-12.139091 -7.298762 105.863724
10.823959 4.766236 103.557175
11.696378 -11.084650 86.384125
14.769122 -8.621565 78.360664
11.133656 3.110680 105.695007
6.197266 -11.309526 103.857307
6.706136 8.062938 101.995880
10.931803 -11.313814 86.283890
-14.960923 1.082295 84.976234
-4.234565 -11.243056 96.341187
-8.174006 -11.246988 94.647247
1.619720 -13.449466 95.907768
16.346994 -0.766084 85.529373
8.823438 7.340279 102.548515
4.324611 7.948990 84.336205
2.547504 -9.804698 82.070946
-4.148097 -10.485255 76.065636
15.432261 -5.449240 86.612648
-0.423357 -6.114632 77.175720
12.899235 -10.045753 91.601601
-10.280663 -10.381081 104.796745
2.783302 -12.879164 105.114723
15.205472 -4.667216 100.747925
7.854298 9.529372 95.191238
-3.537431 5.922554 82.637894
12.309174 -1.284649 106.685989
-7.926103 8.891212 96.616318
-15.043389 -2.728030 94.886642
2.651602 -12.408477 98.661858
-13.363005 -0.530463 97.266663
3.229671 -11.816023 99.838852
-1.149935 9.854540 96.446495
-10.795403 5.340826 85.862556
13.950609 -7.693873 86.843758
-10.256533 6.338992 95.191566
1.483549 -7.642799 84.752930
0.798924 6.914834 105.839043
0.503801 -4.319129 76.912346
-12.092819 -7.452124 105.764359
3.123992 -12.898753 102.661118
14.254479 -8.794002 85.661469
-10.155127 6.930942 91.839020
8.624639 7.669857 101.690765
4.295300 -12.018171 103.200020
12.117994 6.276931 91.142403
-7.699315 9.698567 81.597618
0.644801 9.087951 90.063759
15.633221 -1.560737 81.184418
-14.611565 -6.968309 83.552002
0.345329 6.475493 106.535339
1.151921 -9.247391 86.070770
3.414631 -12.162792 92.472618
4.001242 -10.079946 87.185379
-12.006937 2.634235 78.547684
-12.141296 -1.154717 106.047798
2.565336 -8.731575 87.719452
-5.991769 -11.102077 89.438164
-13.100924 -7.279086 102.673431
1.743519 6.213992 109.437881
13.259976 0.180973 100.581291
-0.372029 -10.081032 88.952415
-11.884048 -12.048857 90.534004
-7.234307 -11.709593 88.326630
9.287549 7.754321 100.117119
-14.889477 -0.108544 97.887650
12.935637 3.089763 78.163399
-13.540901 -10.347552 94.583862
-13.438041 -9.746445 78.027672
8.243043 -11.666866 100.423851
5.699923 8.957520 90.059334
-7.354762 9.199966 82.612198
-13.593710 0.843461 102.340897
-13.010542 -6.786369 102.066528
12.069607 2.490806 97.141762
-6.681731 -13.033655 86.018051
-4.776666 -11.272606 95.024437
3.507249 6.222238 77.003960
-3.842443 10.761472 96.237610
10.978268 5.091394 106.266144
16.052561 -3.437861 93.110992
-15.484454 -4.769699 93.094490
4.294791 -13.285620 103.619957
12.257102 0.840088 103.578957
11.447509 6.148239 91.949997
4.772501 -10.643108 100.560532
-6.232110 -11.293796 98.072739
9.831541 7.052468 83.184875
15.222326 -2.628119 84.712700
1.901421 8.080672 101.410576
-3.834345 -10.356245 77.743294
-8.499540 9.475072 84.087219
9.533932 5.588371 99.392494
11.705257 -10.833358 92.935913
-0.641298 -7.397976 85.318092
0.466787 4.765698 84.254356
-14.634817 -3.629143 79.007790
-13.424735 0.307302 99.540207
8.830696 9.314746 83.242569
-15.190458 -1.622181 86.683678
7.294750 8.095621 77.299263
-4.274152 -11.360776 82.190826
-14.709886 0.940618 91.574165
16.363052 -2.522207 91.625015
-8.114974 -10.880694 96.600975
-0.772320 -11.070570 90.139984
5.291080 -11.795966 82.930199
-2.580339 -11.260383 93.896164
-12.390798 4.571712 83.141029
-9.329944 10.222892 85.351128
-8.825640 -11.845129 90.656052
-14.850780 -5.190102 97.828735
13.885078 -8.755977 83.667877
-7.651104 -12.632829 81.003128
1.693634 9.175139 100.640015
13.016417 0.044510 106.164032
9.378916 8.057294 88.258820
-10.917297 -9.473904 97.596352
-6.047726 -11.641652 88.264076
