ply
format ascii 1.0
element vertex 2048
property float x
property float y
property float z
end_header
-3.192066 7.786741 84.558678
-1.708778 -10.660185 91.943916
-12.905147 -7.354312 97.686958
2.067399 -12.071498 95.029694
-6.122813 -11.463258 90.423065
0.015411 -3.870051 81.982285
-19.021753 -0.204334 91.905441
-9.827415 -13.328279 93.658936
-0.283503 3.632375 84.588745
12.019331 -9.867974 93.670609
-6.366756 -11.414299 100.665337
14.348193 -8.084069 101.219658
-8.339662 4.480575 106.325645
11.283563 -10.385488 96.853378
-11.619960 -8.261458 105.226448
5.083630 8.809473 104.393738
-0.499631 -2.576926 78.393982
-13.412002 -8.082889 99.396248
-11.638263 -8.093588 105.514931
18.174223 -0.283661 85.041016
0.741099 -11.835714 97.004822
13.648687 -2.313103 108.088066
10.203484 6.643491 81.068893
-11.782536 -11.039566 86.397980
13.031402 -0.111620 108.678299
-14.979433 2.934669 82.494400
-13.249328 -6.423243 99.043983
12.091714 0.616218 106.652321
13.080101 -11.134993 92.831650
-6.769614 -12.135811 95.309166
-5.266187 -10.832995 92.526497
5.037330 -11.806814 104.878716
7.542029 -12.678723 77.036217
-8.578864 9.407578 98.845863
-3.748764 -13.510999 103.821373
-5.549245 7.204316 80.145164
-10.155001 -10.737054 91.787224
15.423190 3.062140 84.848244
-4.543738 -13.112217 105.146309
-13.077443 -8.530854 90.844658
-11.787748 4.418962 97.666122
-10.017127 4.592725 106.701813
-12.829522 4.086939 102.630638
-17.263699 -1.896949 97.252686
-2.011029 -12.730851 103.411247
1.151531 1.451624 78.914810
10.051119 7.344736 103.592697
0.916605 -13.092931 99.652542
-0.230667 5.137698 109.312881
-2.708753 5.373309 81.872002
12.711801 3.478618 86.368645
-1.831728 8.925608 90.313919
-14.321324 2.881159 98.236496
18.876909 0.599963 87.171295
-14.521033 -4.237654 79.892281
-6.492828 5.812253 107.296715
3.504664 -9.579259 78.173653
13.180995 -1.395963 105.580177
-12.222755 5.864320 95.557205
-4.675419 10.285384 94.823959
-12.938526 4.024533 94.215233
-3.959742 5.535931 106.519325
0.718304 -6.876624 76.371605
-13.014404 5.605816 94.534546
18.216564 -0.217896 93.673355
-12.582494 5.427566 99.183243
6.520301 3.849282 108.627342
18.219648 1.526081 83.969757
5.162700 5.903057 81.582672
-15.581046 -5.697859 84.773071
-3.875598 8.334015 85.029839
-1.603882 6.687810 107.131058
-11.910138 5.805300 104.496544
1.751275 -9.054924 78.357910
-17.449472 1.148457 83.970901
-10.289449 6.626541 85.891808
-12.591630 -11.029160 95.714844
14.421459 1.762111 93.892029
6.281759 -11.580544 94.800148
-11.980327 -6.893069 106.356316
1.799662 10.169330 91.370804
0.536150 8.391965 91.403938
13.169798 0.909011 96.939674
-1.427086 10.048698 92.446228
12.128260 1.584581 107.066093
11.797920 5.929188 83.548622
-1.296495 -13.400030 102.909058
16.234575 -3.780457 86.429024
11.285260 -12.161290 90.630615
9.705449 -11.131251 103.635246
-10.370824 -11.553528 80.918571
-14.884292 2.655658 92.452126
13.015605 -5.856856 103.906677
14.333701 5.638130 83.529648
10.467382 -11.081852 96.929253
14.362226 -7.492809 81.311432
-1.759956 6.387973 105.106850
8.417949 8.145146 90.747658
-6.406860 8.304303 101.607292
-14.931217 -6.676717 88.259354
-2.913437 -12.375677 99.877419
-6.894843 7.997663 101.906334
-6.858578 -13.143722 86.649071
17.094364 -1.171306 90.781700
12.617540 5.033150 101.737511
8.110683 -12.278640 81.876862
9.363921 4.988295 106.345634
-0.606658 0.344252 80.363007
2.905415 6.835277 83.736008
-8.858395 7.907974 90.498734
9.066985 8.920021 89.324348
-7.846094 8.480058 84.530632
11.757800 4.629315 86.139351
13.483592 -2.396266 104.855316
-2.137601 2.716913 80.349487
-2.119712 9.399397 93.452972
-10.979902 7.411228 100.947838
19.513010 -1.661551 83.919014
15.360323 -4.121782 102.328346
9.518437 8.032125 85.053352
-9.693493 8.481356 91.036934
-0.488779 7.334181 91.729767
-18.617060 -2.241338 85.973534
13.572033 -8.695182 96.819481
-11.186607 8.297318 100.176132
-7.233970 10.101363 96.231583
-3.716993 10.205886 100.705627
-6.025026 5.721095 106.844635
-0.113747 -12.004354 97.189247
11.220615 5.673213 93.536438
5.348786 11.255500 92.578354
-0.149997 -12.086364 96.865799
-12.492949 -2.626108 105.168755
-12.924867 4.221545 88.176842
-12.298580 0.373935 106.306931
-16.893200 -2.865901 89.298729
3.405430 9.687953 92.136063
12.512174 -12.524989 76.368454
-14.360523 -9.556438 78.465866
8.996970 -10.592937 104.932930
9.431853 5.784905 104.731750
-14.384878 1.993087 97.326508
13.640898 5.339764 82.397301
5.804314 -11.833213 91.514679
3.425043 -9.756299 84.806404
-9.621119 7.845827 89.378174
1.012126 -0.562723 74.319229
-13.244183 -9.194805 87.564369
-13.762076 4.123544 103.986244
0.382678 8.776153 99.414284
-13.279106 -6.732181 105.744987
2.170243 8.062422 87.201981
-4.139850 9.963381 89.227325
4.489932 -11.997621 86.365204
13.690742 2.601207 103.825394
-10.484795 7.420455 102.840195
0.270316 6.599879 87.282898
-13.077972 3.494337 84.684525
14.875412 -9.779918 85.408096
6.438051 6.197714 106.992798
-13.701538 0.204330 92.377914
-13.934819 -0.055155 98.449730
-14.467240 2.145919 104.391296
-2.269906 8.316266 88.040726
-5.766822 -12.326370 103.590515
3.183384 -11.441905 75.814774
-13.429539 -8.236074 93.958435
-11.543418 7.309687 101.528221
15.825630 -3.419468 89.225807
-7.068804 -12.851694 89.097481
9.763608 6.855608 104.169739
-10.339057 -9.875345 105.055382
-12.878714 1.116862 101.157562
11.906686 0.773590 105.895973
10.905831 -11.635413 90.523590
-15.097016 -5.136093 100.455551
9.618416 -11.483130 94.877800
-4.780205 7.894792 85.046349
8.991961 -12.066678 93.488533
-4.911309 9.641241 88.625771
10.712864 -11.424226 98.059387
-1.755193 -8.799409 81.192291
-14.835375 -6.415342 86.104202
13.036401 -6.054602 107.349609
-11.952920 7.996262 82.775749
9.576371 -12.065224 78.469414
-2.560670 -11.383942 87.469055
18.897823 -0.682365 87.572182
-2.061554 -12.569077 100.637711
2.461632 -11.253151 89.105186
-12.674820 2.322622 100.381088
-12.040483 3.513697 105.765244
-13.043958 4.254737 88.459518
8.931797 -12.458482 81.168007
0.257873 1.970134 80.907822
7.067968 9.846608 98.652588
0.077643 -6.069490 78.321556
17.289495 2.583480 87.530754
-7.066218 8.565150 81.666702
-18.829315 -1.948294 92.340256
-1.171669 -11.284703 87.831268
-10.737373 8.026581 89.691963
-3.296401 -10.932271 91.300957
-2.086685 -10.489952 89.093109
-7.167393 -12.929279 81.703552
14.033055 -9.314884 80.510834
-13.082651 -12.638144 77.010971
-10.848937 -11.820764 81.154991
-3.295872 5.422363 108.509087
0.695300 8.181661 93.173790
9.247495 -14.109225 81.294235
10.522870 6.225329 85.830124
-4.446548 -11.031215 83.516487
4.777245 8.731944 84.564415
-13.862899 -5.058742 107.045258
8.258032 -11.380669 96.190445
15.221628 -2.867610 98.751617
1.127271 7.652073 87.774635
-4.916503 9.364697 86.375053
17.461912 2.566896 87.261505
10.201368 8.287134 91.683334
15.103279 -6.353420 82.210144
-8.502265 9.466123 85.038254
10.189563 -11.586131 101.126610
-13.517909 -11.887691 94.329964
5.029524 -11.662746 104.734070
11.086484 6.876155 102.289505
1.792699 5.524060 107.822517
4.367466 10.988247 94.496841
0.494276 -3.133329 80.959038
-0.113503 -9.065031 76.319954
-14.597831 2.840530 94.472366
10.123838 -10.845493 76.760384
-1.197550 -12.758576 104.246437
2.439518 -13.432259 102.970978
1.242155 1.570905 78.287224
10.236294 6.350843 90.289497
4.074875 9.608700 97.833153
-13.535531 1.037286 105.068016
-1.977361 9.289229 90.057877
12.367397 -8.254762 107.152954
-10.568579 9.021188 83.905617
7.174826 -11.410414 92.325851
1.679495 -10.494678 89.783913
9.597349 -13.050053 84.445816
-1.265535 8.596975 99.837578
-12.659779 6.377469 90.450600
-0.607833 -8.634543 87.128265
10.968136 -11.341953 106.374039
-8.870608 -13.179317 94.156761
10.328663 7.561747 80.134956
-6.359474 -12.285825 100.550491
8.920842 -10.488573 100.849358
13.994038 -4.046240 101.431366
-0.808673 7.609321 92.750298
15.855160 3.789746 84.112167
-1.382494 -10.897538 90.818047
-8.884037 -12.866506 90.989937
16.079651 -2.992191 91.067734
0.835780 -12.771166 102.425537
-10.954062 7.660993 89.496986
0.321958 -0.180142 78.045441
-8.946231 8.936361 85.204422
-4.238158 -11.926058 81.678093
-13.771478 -7.503917 99.667595
12.323679 5.359193 81.916931
-11.764691 -11.812879 93.995155
-13.258372 -2.727654 105.619057
12.625783 -5.354230 105.270172
14.780816 -7.755752 91.091125
-7.987328 -13.332783 90.877914
-4.724023 8.643911 101.396355
-7.675013 4.304873 107.581322
6.245963 -12.007524 84.021240
-12.324534 5.840429 95.964157
13.321748 -8.442274 94.957375
12.181559 6.199714 83.124527
-15.791506 -7.903504 82.173965
-2.423442 6.572441 84.538857
-12.786670 -2.146816 107.910942
17.950773 -3.449090 96.978653
14.924272 -2.361144 103.733459
-7.811508 -13.169529 93.803490
14.262911 -8.554847 92.049713
-15.210551 -4.664184 90.654442
4.156360 -12.170983 82.101357
11.250669 3.696944 105.823647
-15.139230 -5.146193 84.740585
-13.140644 -0.672928 105.557938
-13.524217 -3.218557 105.342384
5.726041 9.093878 100.756187
18.495886 -2.110233 92.951416
8.195155 -11.448380 89.875885
-2.978771 -10.509544 74.058098
-15.848967 3.460807 83.227478
-6.485559 8.749108 89.785507
8.302042 6.967847 78.319595
0.321429 9.281713 93.393051
-0.833285 4.929951 83.874626
0.873921 -1.543038 79.518990
3.682739 7.028968 107.699211
12.682934 -11.939583 87.166077
-3.489309 5.909812 76.883110
-8.955320 -12.658578 92.495964
-15.965910 2.913975 82.417488
11.594409 6.639157 89.397041
-18.759514 -0.845806 88.127075
-0.521151 -1.522541 80.254494
-0.977848 -4.498737 78.987373
18.510195 1.245085 90.325378
-11.928548 4.896671 83.469971
14.453374 4.308757 84.499649
-8.262133 -12.295128 90.476952
11.998923 6.789299 82.217850
-7.843329 -11.627721 92.849930
-3.564133 -12.258251 102.206345
-8.219069 9.135108 95.342758
-13.936600 -9.351408 78.019646
8.284641 4.722839 108.352859
8.708885 -12.705126 77.065582
-15.809734 2.041914 97.361366
2.384996 10.084683 90.357353
2.490887 -12.330448 96.370979
6.008181 -13.332031 101.486961
4.610646 -11.691869 86.162483
12.076704 -8.739080 104.138374
-5.373317 6.568907 108.341980
-9.837505 -11.188310 92.009796
-13.805038 -9.757535 83.297874
4.438592 -11.715042 92.484390
14.994955 -1.255734 97.984444
9.784935 -11.768939 96.334259
3.301893 -10.590700 78.414230
-3.999755 7.783613 84.326141
-19.344624 -0.167376 88.537048
-7.069318 8.190774 105.131210
-12.277279 -10.153966 91.069664
15.483593 -5.444670 87.867920
-1.068705 1.604884 82.093849
-13.624272 -8.915251 97.430214
-2.291547 -12.400112 100.691559
-8.871279 -12.958923 83.241478
-8.701766 -12.328940 96.163048
-10.523044 4.998215 107.020012
13.179839 -10.113552 88.948448
-7.309667 7.955577 102.956314
4.737898 9.049306 92.564423
15.627829 3.321160 87.436974
-10.683591 6.665108 102.227890
14.090153 3.753185 84.839561
-10.781150 -11.073623 89.865852
-14.528038 -8.913815 83.823586
8.697863 8.605444 86.740936
-12.499214 -2.976877 105.191788
12.169140 1.269107 106.744843
17.571636 2.301774 89.602226
9.110504 8.074038 82.088158
-5.092609 -12.460372 94.460411
2.183393 -13.755281 103.840340
-12.244699 1.116671 106.705772
2.851526 -12.094839 96.742790
5.114450 7.501940 104.325378
5.312235 5.786519 110.123520
-9.072085 9.171407 83.242073
-11.740391 5.347060 87.406311
8.119902 -11.119466 103.485054
-16.921400 -0.663819 91.904732
1.528497 5.868415 108.934547
0.311396 -12.041925 97.248085
5.250250 7.297824 80.451180
0.126636 -4.742489 77.504219
5.973410 8.064269 104.925285
2.004124 2.990379 79.290588
14.020878 2.257540 94.979385
-1.429890 -1.319535 76.022316
14.678868 -0.296181 100.090614
11.421041 7.232587 95.621208
7.966798 -13.923798 76.111694
-6.447833 5.401642 107.037209
-10.203223 -11.195690 88.084396
11.840369 4.360498 107.330185
-0.155370 6.882325 87.999741
-9.711869 -10.760139 104.310555
10.288435 -12.886147 79.193947
-13.192841 -7.236969 81.396423
16.174923 2.910189 87.218170
8.947979 5.623123 106.491455
-2.090774 10.143292 93.741386
15.085811 2.926884 82.189789
-3.765165 -11.814182 100.710419
-8.758915 9.093957 83.832687
1.954547 -12.471120 95.153091
5.198548 8.457173 86.461792
3.633535 -10.999082 86.596069
10.339794 -11.566361 95.575882
3.109992 5.499153 107.839676
-11.737964 -11.076647 91.901482
7.218220 5.916548 105.689522
15.085033 3.175946 80.200523
15.162592 2.757024 92.203018
-2.396976 -9.394317 74.614784
0.208045 -2.589569 76.544846
13.263178 -6.421340 101.560486
15.033239 -7.222677 89.931168
5.343133 5.521150 108.421242
6.652789 8.391526 88.833824
10.304045 -11.641646 100.254379
-12.793727 5.623729 79.758018
16.737478 -2.936046 98.320938
-13.587729 -7.858032 102.392326
3.745266 -11.517283 83.362808
-2.662928 9.717772 88.140808
8.961090 -11.973789 94.600945
-13.982072 -1.470499 106.224892
-2.261431 8.514938 100.011169
-11.233833 2.293811 105.923889
15.700109 -3.963713 89.636421
-8.093822 7.650165 103.438210
15.603247 1.679915 88.830696
-8.061766 9.111092 89.869789
14.391279 -9.143399 82.773834
7.342123 -10.847935 93.624268
-6.530057 -12.219198 98.159676
3.168352 6.517771 84.942978
16.742613 4.013302 85.987114
11.875985 5.434933 82.658630
-2.246533 -9.239599 75.985306
5.403029 9.800783 92.125587
14.980126 -5.728333 89.258453
-8.031132 -10.822791 102.014603
-3.627239 -10.946608 77.665489
13.959476 -8.641323 101.586517
12.010547 -10.758445 79.390648
-2.330389 -0.249028 74.509216
13.268306 -4.923555 104.823166
8.649570 7.862872 88.514511
-14.718582 -0.271629 99.526009
13.454451 -8.546839 95.497757
9.733911 7.503564 81.411118
18.617014 -2.049619 94.470154
-7.968584 -11.816394 92.096733
-7.482733 8.384576 99.645317
12.012073 4.629103 98.820473
-4.088749 7.634588 84.257896
7.156049 -12.496244 99.913567
-13.780378 0.509869 105.183563
-12.192222 5.652010 100.683769
-14.212748 2.007643 91.249191
-18.508839 -1.529581 92.554497
-13.552740 -8.449042 95.439880
-12.136125 -11.024752 79.568314
-3.714698 -12.388487 101.258644
-3.819357 9.190073 96.909859
6.388052 9.261883 89.702843
-2.625930 -13.383698 104.032784
-6.399433 10.473995 96.134834
-13.310590 -3.869792 104.677544
2.965567 -12.814275 103.776321
-11.949294 -9.765997 79.046852
15.563128 -0.547485 100.055099
-11.582795 -11.151736 97.958534
8.998184 -11.493104 88.207977
0.180642 -5.560303 83.178413
13.927747 -7.411600 88.335220
-14.703499 -9.357813 80.511009
5.559825 9.295503 98.663574
-1.567056 -10.300086 82.846893
1.207869 -7.175012 75.538078
-12.220711 -5.984429 104.880417
0.553917 -3.487491 80.534325
-10.101698 6.806619 105.659386
-11.634166 -7.225379 105.823357
-13.567555 0.449409 106.642410
16.077209 -4.415473 88.643547
1.230458 -8.543843 77.780907
4.925217 9.276138 90.287453
15.077347 -6.764289 92.707481
-4.919308 8.804814 102.502350
2.509572 -13.498554 104.022026
12.823005 4.500590 105.498146
3.189610 -11.302018 76.938019
-9.628516 8.311918 84.668137
-14.794129 -8.344211 91.245720
1.984063 -12.699153 103.770569
17.294342 -3.700426 97.757523
-14.685581 -6.648415 89.557510
5.093049 -11.898253 95.805138
-12.410269 6.925989 80.145332
-2.269761 -13.072642 98.748688
9.714254 -12.302955 85.704208
-2.142272 8.967576 86.986855
4.971257 5.786482 79.892738
-1.423653 3.691829 80.308937
10.516668 4.174195 107.649368
13.347820 -10.548913 92.150215
16.904339 -4.376681 96.033730
-0.043519 -12.020659 98.353172
12.092842 6.090576 91.397980
9.765108 -11.448175 76.810928
-11.977150 -10.331447 100.346260
-7.054772 -11.765730 84.333557
13.382156 1.111130 105.300407
16.013224 -2.509017 93.449898
12.636613 -10.334061 90.234627
-12.210450 3.870662 104.943657
-0.015693 4.003110 83.740700
-10.708346 -10.549145 102.595879
-15.090532 -4.419504 96.970444
10.974360 7.714680 85.006790
12.685059 -11.022005 90.622772
6.836318 8.030272 101.605667
-5.134473 8.350924 85.884972
9.893358 -13.794823 85.953239
-19.282576 -0.462700 84.732147
-19.727192 -2.225789 84.476357
-1.351651 -5.340609 74.359940
6.538041 9.454117 85.628052
-15.509506 -7.226095 93.049644
12.175883 -3.774005 107.318901
-11.284723 6.338074 104.693695
8.500580 5.530925 110.621223
8.949693 7.501801 101.838402
12.095489 -11.824246 92.284637
0.620021 -7.933521 79.584305
11.037033 6.456402 102.359329
11.306007 8.079180 101.679146
3.740504 -11.817121 88.622406
-5.091533 9.986470 100.099350
1.143294 -11.484584 99.348526
-8.003223 -12.903192 79.205276
-11.808863 -9.826487 98.729378
14.452334 -2.514481 88.039513
19.009073 -0.402803 88.933426
-12.512921 -10.363061 91.934219
-10.851341 4.248607 106.876328
5.671999 -11.073281 88.416168
14.657648 -4.451978 101.552071
14.830073 -6.735401 102.942551
-13.826838 -4.244824 102.943260
15.924120 0.103615 95.567673
16.882719 -1.713698 95.414368
-13.341690 5.453458 85.755249
-1.439032 -10.376169 82.783119
16.077555 0.052948 97.637360
6.964988 6.998302 79.008835
-7.012288 7.730640 102.201859
-17.045019 0.545447 88.511276
-13.351913 -0.088552 105.150139
-12.395979 4.889081 94.751625
13.639729 3.152610 100.736824
0.332911 -4.592526 76.420593
-12.391281 -1.078971 104.653152
6.647981 5.590064 106.715500
-9.979173 -10.511140 103.970764
-6.570259 -11.641576 103.186058
14.873366 -1.189685 99.502190
-15.734474 -1.158125 93.430557
-4.864946 -12.566076 104.785530
7.964251 7.699479 99.973434
-7.065851 5.827527 107.538841
-13.932546 3.499740 86.580528
9.038017 6.652355 79.064133
-5.267437 9.761792 89.603279
-14.930864 -5.262686 96.676361
3.145274 8.688427 105.828819
15.391893 -6.948359 83.173866
19.501390 0.662501 89.833679
-14.837645 -4.415022 97.175735
14.073242 -9.747604 77.747208
-12.521528 -8.692268 100.407555
-5.451046 10.935781 95.818275
10.232446 -12.264426 97.036606
9.121567 3.731132 107.900032
-11.298787 -9.409104 100.947357
-11.274200 -10.045733 97.160240
-15.123784 -4.420626 92.025925
-2.755468 6.306372 75.158394
3.979833 10.682606 93.779442
-1.328625 -10.056058 86.009644
-1.796509 -12.974940 103.450562
-10.300753 7.425080 94.734543
4.317480 7.372549 105.517212
-11.162940 7.294739 99.502144
-14.641233 -5.937268 84.853142
-14.338182 3.991470 84.968658
-9.396792 -11.601699 103.383553
-9.365626 -11.534313 97.974945
15.075259 -1.693596 99.765495
-1.444557 8.105644 86.762459
-11.205282 8.336891 99.619354
2.650762 -11.022717 83.655487
13.285235 2.898333 92.258476
3.068433 8.825103 103.275528
-18.791496 -1.575162 92.601669
-13.850399 4.271912 91.140785
-12.628646 -2.845798 106.075661
5.295657 8.468373 102.977280
-12.845216 7.213687 80.041344
-1.751578 3.173634 77.023300
-12.446267 2.773414 101.431656
-1.136149 5.540082 84.247856
-4.910991 -11.388968 86.943832
-2.697874 10.682627 91.819511
5.926063 9.680124 88.482834
12.555571 -3.190812 107.870033
-10.227933 -12.030095 99.961662
-13.543492 -3.906589 100.975296
-0.435902 -8.299357 79.823250
14.949242 -6.161441 91.003014
-7.605137 10.109087 87.935295
-15.681958 -5.626167 94.536278
2.291567 3.675910 78.887917
-10.463317 -11.388035 96.612755
-1.699232 4.413085 82.005974
-12.588197 5.902425 101.839851
-7.727381 -11.876284 94.681023
6.393785 -12.427397 75.403908
-1.758794 -8.902528 76.739120
-9.028574 -10.463900 102.901787
4.508773 -13.456950 104.422348
12.604174 2.772110 93.477547
-12.282888 -7.513802 96.709999
15.266660 4.471228 84.589645
-7.973031 7.969996 99.670288
12.848472 -11.023951 96.428116
-14.780917 -8.086371 100.173531
14.370102 -6.536827 107.544754
-3.360740 5.815727 108.170860
3.238344 5.829544 109.334816
1.784995 -8.556005 79.022972
0.275752 -6.184186 80.450928
21.036629 -1.398420 85.711662
4.086112 9.628366 92.862030
17.689642 -2.361799 91.408936
-14.981333 4.227845 88.695068
-4.203307 -13.249062 102.276642
10.864553 -10.315048 97.332977
-8.802332 -12.663049 95.471428
11.792675 7.719007 93.255157
-9.472851 -12.376317 78.042381
12.233191 -0.217265 107.514473
-4.087495 8.239521 85.878731
-12.792480 -3.553149 106.625832
12.435758 -8.293632 105.880943
-7.044618 -10.319290 94.088730
-4.137390 -13.701350 105.101273
-2.476524 -8.399429 81.243011
17.080162 -1.140273 93.582520
4.295333 9.778960 100.500572
-2.273301 -13.247307 102.818146
-4.483774 -12.936967 104.816048
11.331472 -8.826690 103.981529
-15.289109 -4.049703 84.167023
11.099384 6.499743 85.241714
18.049486 -3.812739 96.317772
12.126604 -11.121353 77.921188
10.209071 -10.873819 97.241547
-15.156271 0.612175 92.187569
-13.343828 4.446959 88.092499
12.739887 4.414095 104.354820
-12.444334 -10.604976 91.866920
-12.668103 3.693918 104.116882
-13.367169 -10.716975 86.443474
-8.055103 -12.121754 86.752609
14.738882 -5.580520 97.680183
12.829971 6.485765 96.606232
5.641294 6.155315 108.647652
-10.888056 4.540252 95.507042
-12.504476 4.498035 104.488304
-15.277191 -0.800376 93.839691
14.122151 -8.081283 83.594452
-17.002403 1.393711 86.729912
6.324152 -12.429785 100.312225
-10.699423 -11.734121 89.385338
-16.786720 0.462177 92.377266
-15.229615 -5.689331 96.965233
-13.930478 2.126853 86.146782
-6.597099 8.624812 102.841415
-2.219982 7.263132 86.458984
7.761852 9.443805 87.713844
-2.779245 -14.580377 104.024109
4.129836 -9.878198 85.841698
-9.218629 6.686260 102.760872
1.567679 -13.070562 103.380264
15.030770 1.232981 100.536110
-3.165224 9.331788 95.278511
13.947540 -2.075882 104.897308
1.361626 -0.729906 77.695190
13.671682 -3.175736 98.870125
-9.616652 7.750792 100.207207
-10.859961 -10.932221 95.252548
-17.031847 -1.569649 87.920662
-12.331143 -9.387254 90.916565
-2.352774 -11.698904 101.064827
2.452469 -12.256124 96.112686
12.942359 -3.203408 105.795860
20.034006 -1.520865 86.229378
13.047181 0.384451 106.554199
-0.079231 6.206498 86.794136
0.035100 -2.120378 78.204689
-6.210210 -13.370889 99.288933
-15.691092 -6.460291 93.874176
11.494991 6.653185 92.534225
-18.219070 0.951056 89.284500
-1.450379 -7.301042 82.942017
17.966162 -2.395293 95.250526
7.571387 9.461424 90.375229
-4.943296 -12.022181 78.878105
9.742742 5.709930 106.719536
-11.163886 -11.325850 94.633751
3.762926 -11.704987 74.844505
9.268437 -10.616267 99.901100
-9.723190 8.096201 93.072662
7.117584 -12.154010 76.991486
5.785805 4.635883 108.649368
5.390279 6.139099 82.427521
-8.335281 -12.434400 91.732262
17.620041 -0.586365 85.383415
4.040609 6.965625 83.946754
-12.956166 3.161830 97.958717
-16.562857 2.972900 82.609657
-2.364465 3.716561 78.618553
8.305031 -11.688166 76.252205
2.210706 -9.270152 78.823837
-5.179921 9.863315 91.301399
-15.530686 2.351923 85.438721
8.441833 6.585065 105.456055
-11.480762 6.988535 89.924759
-12.078154 6.915317 82.066750
-6.670576 -12.178162 88.693993
15.929420 -1.629588 91.123009
19.900066 -1.741843 84.776634
-13.884083 -1.865853 107.319160
-1.363109 -9.358523 87.174797
-14.284013 3.715503 80.336807
1.609545 4.342468 82.131531
0.200272 -1.276782 82.237160
-14.489489 -0.594992 102.271858
-11.060243 -11.879222 90.224419
14.035615 -1.534166 102.240601
12.941830 -11.359181 89.419052
14.416323 -0.630382 95.493362
-11.619125 6.279064 102.832581
-4.153386 9.726480 88.370750
12.110681 -5.009503 106.106369
13.088072 -5.033841 99.303810
9.764094 -11.795399 97.608734
9.257298 -11.778210 88.078896
1.223983 5.466155 105.343781
-3.820432 -11.624918 96.844513
-10.221053 3.831069 107.949562
-11.293201 -11.599439 99.094528
-6.569631 9.708200 90.374069
1.998113 -8.650708 82.135437
19.655590 0.211286 91.446159
-13.649779 -1.916276 99.330147
6.952684 -12.836591 76.458107
-1.352730 8.866418 90.283478
-2.905549 -10.485627 84.646576
-4.254237 8.153544 103.946465
2.741630 8.874883 99.164177
-9.347619 7.915106 97.015633
-11.227991 5.886193 88.448860
-14.657491 -6.040564 83.579453
11.011646 6.703615 104.625198
-8.174328 7.245964 86.951027
13.922413 -5.033525 105.955528
-13.545320 -0.255111 94.863708
7.155789 -12.383200 103.192619
14.890264 -8.203698 87.659637
3.372777 -13.830363 104.007240
1.016364 4.452128 83.254578
12.134143 5.629191 94.915703
-12.059938 -10.171266 100.758888
4.935893 -11.403255 75.938217
9.284200 8.584079 95.573189
-18.014334 -1.717111 95.160294
12.334641 2.042738 106.989799
8.854037 8.276703 86.933067
-7.379512 -11.621272 88.966705
13.624497 -10.211801 76.235916
-11.919250 -9.058298 104.657555
-6.302242 7.844470 81.146515
-16.532347 -4.255579 92.616653
10.413908 -12.397731 94.756088
-15.772461 2.832845 80.795746
17.459698 1.261374 88.297104
16.289131 -4.112173 88.894592
2.797994 -10.814811 79.229103
-1.416705 9.681687 95.761848
-12.125820 -12.018108 97.320992
-5.472099 -11.845302 103.465103
3.177610 -9.748639 82.725449
8.126839 6.895407 82.010307
8.309581 -12.227603 76.628014
-15.976666 -3.702770 101.230736
-3.631273 5.523448 79.881126
-11.898822 -11.058401 81.922066
-15.260392 -0.385369 93.217461
13.983004 -2.380352 105.926826
-14.282907 3.369179 95.699028
2.288733 8.641062 100.674271
1.983153 4.325325 108.147118
11.005580 -10.264418 94.710114
13.186190 -2.851474 107.479477
-18.402479 -0.172771 89.080605
10.287814 -12.041859 78.417366
3.523958 -12.639169 104.464951
10.828899 -11.946019 100.180298
-4.889267 -11.311038 79.954010
-0.340093 -11.641468 89.931969
-11.424650 -9.579653 104.609009
7.675825 -11.773701 88.400093
9.916295 8.496413 99.097343
3.249934 -13.112857 104.833473
13.815317 1.756409 95.817444
-7.287468 -11.727057 102.274048
-14.523071 -4.911981 105.271019
5.098431 5.732169 79.057671
0.468877 6.910112 107.681808
0.070270 -1.709667 79.948433
-10.589337 4.922892 106.760193
-1.506863 8.055085 90.102295
-9.076203 8.237617 81.803780
2.889795 -10.619806 92.315567
-5.361981 10.967564 94.923271
-12.378692 6.919557 88.998085
0.964710 9.669881 93.852676
-19.790230 -0.785259 91.046013
12.000918 4.011360 92.009933
-9.928838 9.233082 99.933914
-13.349038 4.122536 95.275490
10.576230 6.325188 78.307137
-6.330829 9.951993 92.531303
-15.354124 -2.118115 100.404343
6.775396 9.919435 93.504471
15.107701 -1.437331 98.184952
-7.638094 9.564292 98.036758
-16.260921 -4.198544 100.344536
12.446577 2.322004 106.803421
11.274283 0.907608 109.204956
-10.565489 6.241053 87.754768
-0.428558 -2.999099 75.687798
-11.755328 5.600204 86.089561
20.123329 -0.836229 85.678902
-14.745117 -2.743659 104.360611
1.321995 6.856972 104.889915
-9.142060 -10.454432 104.228523
-5.453066 9.494210 92.377724
-11.070786 -12.807130 77.420624
8.217734 -12.587232 96.761406
4.193936 -11.677975 90.036308
14.222825 0.751336 92.002106
-4.700288 -11.698412 83.226601
-0.881824 -5.382700 75.451874
4.842188 10.610685 94.038055
12.098089 -11.828459 92.638191
7.352950 8.288102 103.031654
-0.078553 -5.831651 81.187111
-12.459074 -10.912527 83.043129
-8.571395 -11.634746 99.364433
15.697906 3.382990 83.773346
15.858294 -3.753659 92.482559
14.374554 -9.946042 79.929825
7.168977 -12.589344 85.458466
-11.952135 -9.143922 104.854454
-7.425400 7.717737 103.799255
-13.996338 -2.841735 102.638687
12.894542 -2.303434 106.795586
2.704835 8.134695 104.223488
-1.299891 3.450214 84.067154
9.681776 -10.691182 94.456474
13.953036 4.798043 80.893738
-5.383344 -11.445863 84.195953
-3.104576 10.497291 95.533554
1.680181 -13.479778 100.232758
-2.144940 9.495436 95.035805
-10.797226 -10.310671 97.869408
9.998068 -12.087338 92.650017
-8.538513 8.350280 99.747917
15.739165 -5.709633 91.395004
-1.419167 5.852121 83.970352
-9.865886 7.255310 85.666641
-8.011021 3.910310 109.227982
-1.084561 -12.173548 101.317268
5.636947 8.106894 101.992134
-1.306973 2.961073 80.839630
-13.906210 3.643930 91.135422
7.497676 4.791282 109.142433
3.782403 6.426328 81.567383
8.421546 8.604255 102.402832
10.651938 -9.856226 104.535378
15.166208 -6.601872 91.039886
-17.188765 -1.588543 89.286743
-17.974062 -2.351626 91.727219
15.626368 -5.031345 89.051842
-11.848529 5.543744 92.623093
-17.095535 -3.023390 96.722382
0.002561 -6.892365 82.124130
8.633337 -12.013245 100.408798
8.702307 -11.805325 102.787994
4.252371 5.672459 108.214569
7.582732 8.808783 100.996498
-1.428251 -14.312985 104.392357
12.702766 -6.961192 104.933510
9.102032 -10.745398 99.726143
-9.735017 -11.320828 98.757004
-1.196723 6.385416 102.219391
16.281549 -3.639803 93.990730
-2.721910 8.526651 104.059189
14.906941 -8.379102 79.580177
5.319862 -11.722265 94.201355
0.953836 -6.517031 81.822456
-17.864283 -2.006103 92.510956
3.891123 4.715101 81.029282
1.529716 -9.337705 83.678528
13.564238 -7.328787 99.035194
16.466120 -6.695779 84.808990
14.416297 -8.816255 99.659637
12.446579 -9.727598 91.938896
-7.458555 8.250836 87.558365
11.579848 4.628210 99.809029
-11.884119 -10.605538 96.320038
-5.510774 -12.085765 80.132217
-11.548721 4.217201 96.100151
-16.907055 -4.172272 94.213493
2.782789 8.486823 102.286392
-13.923572 -10.091830 89.563957
-14.365491 -1.655532 100.959511
-10.774871 -11.332465 96.846581
6.982839 8.846432 99.739220
-6.222687 -11.401458 77.462967
8.946069 -11.034539 96.928703
11.867721 -10.196355 96.180275
-14.230278 3.586393 96.055038
2.919222 -10.864878 92.283463
-4.156521 -11.763864 78.175659
12.323596 -10.034087 96.478638
-15.366101 -0.408442 92.440010
2.755560 5.412604 109.176598
10.836453 8.288768 99.459686
3.775249 4.258477 79.864830
-4.357194 6.893556 105.752808
-12.419685 -10.145887 97.042503
-9.005950 -10.812842 97.736412
-7.668806 5.899675 106.909805
-8.086277 5.566847 107.928223
-3.410799 -10.589497 90.496780
-2.984002 6.595324 106.870247
13.045995 0.734849 98.079758
-10.681048 -11.633652 78.710449
0.631809 -6.352800 82.927750
-0.984238 1.004923 81.654602
-7.994994 -11.691001 98.846230
-2.667132 3.499941 78.188263
-15.438708 -8.116075 85.985977
0.710751 -0.525561 82.158676
-14.492305 3.824698 96.254524
-5.386599 5.587161 107.014221
15.256428 -6.594771 90.325081
-0.642058 0.938190 79.601387
13.555233 -4.394308 101.508011
6.117502 9.173651 99.669548
-7.317651 -11.814475 104.047974
10.469410 -12.299794 83.828598
1.462503 4.500041 81.479881
-2.970212 5.671080 80.456505
-15.378954 2.935452 83.200211
-13.862437 -4.664117 96.320732
5.095109 -11.544204 83.511650
-0.670510 -3.658651 81.367645
19.351593 -1.316671 85.353233
11.194019 8.098754 87.913658
0.037001 8.669799 95.882751
-6.407507 10.038869 87.153671
7.545599 8.712622 99.638412
-12.480001 3.664664 98.128426
12.243782 -4.763969 103.474083
10.381626 7.250439 97.614296
9.009922 -12.905266 76.283897
-5.462100 4.987448 107.061195
-8.603602 8.518049 100.536064
-0.741626 -11.407175 96.901123
6.755913 7.938254 83.093895
-14.866885 3.503684 83.652901
-0.048557 -10.178169 79.127075
-15.306207 1.348223 86.592880
-16.446363 -0.248778 90.800034
5.349306 5.985886 107.200485
5.452975 10.503981 92.127419
8.859538 9.436251 95.244225
-5.098722 -10.465584 75.499504
16.420971 -5.113812 83.826599
4.168759 -10.428556 92.325310
-16.090292 -6.229982 89.149384
15.699688 -5.032353 96.510353
-11.584589 -9.945183 85.434593
12.462474 -3.235952 106.307579
3.180304 -12.283305 91.876427
13.170852 -9.927711 88.262711
-9.301878 -13.054117 79.780914
14.080291 4.947870 81.397606
-9.792179 -11.565745 90.382065
10.760777 5.822495 82.289284
6.921487 -12.092461 81.591675
-7.083070 -11.756387 98.301086
-12.653462 -10.276284 97.874298
14.181238 1.420480 99.998924
8.776331 -12.746112 82.863976
3.968449 8.164803 100.639893
-12.740397 -7.291834 103.357338
0.178307 7.441966 106.790176
1.349395 -11.600232 92.756767
16.009108 4.022397 83.648224
-17.114817 -1.824401 95.116501
-15.297401 -2.159532 91.481468
1.949522 2.420563 77.939949
4.494920 5.625250 107.615082
-14.390453 5.207762 80.999290
13.320175 -10.830118 80.370743
-17.316551 -1.589050 90.727974
14.347592 2.333403 91.836121
13.169983 -10.143998 84.811775
14.956166 -7.368857 90.331261
6.071519 5.947696 108.369690
13.905341 -6.220401 104.443672
6.113839 -11.937922 88.116028
-2.553987 -10.968223 79.830948
6.252094 8.526919 84.513817
8.598949 -11.760506 104.188759
-4.195764 -12.306959 85.741600
11.394957 -11.494303 93.138054
12.326185 1.739404 96.388100
-10.209481 6.989245 90.524063
-7.034824 5.658373 108.558182
0.966068 8.716228 89.882019
-1.418290 -12.811788 103.374001
14.270163 4.771467 82.593689
10.566420 6.775615 100.496590
-4.147562 -11.773226 99.836594
12.699154 3.814133 101.217896
-18.404301 0.921085 89.064880
-14.604484 -10.080680 95.403557
19.344883 -1.940017 87.496552
11.326530 -0.072212 106.990776
3.528009 8.819247 102.684143
-8.866761 -12.783219 93.123405
11.521071 -10.108013 82.223549
5.839043 9.231082 88.453705
-10.780342 -12.814193 96.583321
-9.838117 -12.992907 97.779694
-9.054710 -11.439563 98.423378
-15.337778 -5.204554 83.062042
-9.710417 -11.223605 90.259476
-8.930209 9.001938 95.351532
19.255358 -2.293719 89.084236
10.096303 -10.970743 92.203072
11.969818 -8.119466 104.029594
-14.486096 -6.907239 91.070518
11.829147 5.762564 89.605782
12.621387 -6.282579 106.602081
10.586299 4.801886 103.883301
13.569452 -7.728291 89.842415
1.646369 -13.070794 103.877090
5.737311 -11.985327 95.945839
-17.457396 1.626679 86.620781
-2.148195 -12.699186 102.741341
-0.374711 8.628748 89.708466
9.768871 8.089513 83.017349
13.891321 1.382907 100.585388
-13.749897 -1.631507 105.974426
14.479141 -7.671859 100.118164
-13.907399 -1.687214 99.081284
6.565191 6.821335 80.112480
7.657320 -12.558521 100.288818
9.699286 -12.248430 79.203201
12.625686 -7.434027 102.971863
0.468930 8.164660 93.162895
-7.242239 -12.148337 100.336388
4.802742 -12.211250 79.773125
0.859133 0.333476 77.192993
-5.595557 6.659767 107.336861
-14.232989 -7.797587 85.476624
16.167282 0.214908 92.475311
-15.250527 0.838711 89.006111
5.900862 8.827199 86.694412
-16.260807 -2.708995 97.249557
-10.616735 3.941649 107.379425
-14.375409 -3.056746 103.484818
-4.076467 9.743207 96.387665
-2.460346 -9.860296 93.285156
14.498493 -4.440512 100.176498
10.383049 -12.392255 76.831299
-1.776592 7.125676 106.459045
-4.171146 -10.243601 80.676712
-12.881771 5.015761 91.275124
-4.163354 -10.784920 75.991371
-11.849045 5.837822 103.906189
0.070779 3.606799 82.482262
13.379150 -7.288323 93.637650
-13.773366 -6.429672 79.457130
5.475132 4.873247 109.130486
3.158180 4.061730 80.790527
-4.786992 -10.816176 80.952881
10.390994 -11.630288 92.546036
5.668547 -11.560200 93.708916
2.073108 9.614987 92.664970
-2.413874 -10.012105 81.377304
8.050565 -12.537138 94.034393
-17.308329 0.272633 90.862610
0.974977 -6.823765 78.620636
16.485407 1.655517 89.461411
6.479534 5.016008 108.889748
6.519928 -12.311900 95.752571
-13.212483 -8.348178 97.020859
10.783170 5.565057 103.602852
-10.876636 -10.325951 93.987587
-12.349277 -7.281502 105.894196
7.002440 6.777663 81.256989
18.156908 -2.197531 93.990395
2.649758 9.558869 93.165367
13.318307 0.103840 96.364044
-11.213639 -10.006963 103.586876
16.498407 3.323627 87.742157
-10.236219 6.901315 83.172119
-9.859670 -10.812552 103.046494
18.972477 -0.850875 92.190186
6.898986 -11.475799 102.777954
14.043012 -8.299069 92.086388
9.014662 -12.688006 94.061264
-5.179369 6.132711 109.838493
-15.070415 -8.879207 85.893318
-1.851575 -10.771725 88.924126
-8.189873 9.660618 100.384888
-11.312322 -9.814212 96.703529
-12.479216 -11.161346 77.092674
0.081526 0.245935 75.051033
16.293268 -1.152483 98.092651
6.940723 -11.835704 99.214592
-17.736967 -0.639799 87.856461
-3.670802 -12.280509 92.845490
-12.359393 4.587418 95.117340
-7.830639 4.489046 109.227203
-13.785532 -3.564646 100.155815
-7.977415 9.599342 82.428268
-13.959883 4.076664 96.800491
5.808559 5.449128 108.121216
-0.213210 2.501381 82.924286
5.642954 5.886056 78.675079
8.976295 -12.253226 76.949120
-13.424318 -4.672729 105.257156
9.055360 9.569654 91.387802
10.648716 -10.852920 97.598839
8.644194 4.197402 107.882744
-15.246028 -6.669481 94.426888
3.418977 -10.318472 92.796356
-8.876271 8.753284 84.281967
-14.243532 -5.943705 84.886574
5.641288 -12.241219 103.293869
-1.008727 4.346914 108.440292
-17.013577 -2.389579 98.652672
-2.211079 6.462644 109.240204
4.209527 -11.826634 82.662766
0.041339 -13.190031 102.540039
-0.851652 1.876950 82.038528
-11.760999 -9.995773 85.213089
10.425323 3.954638 106.671127
10.183476 -11.209697 90.584885
-12.895842 2.246071 101.008018
-11.283641 -10.933381 90.845650
-14.868700 -4.655416 95.501183
0.793923 -12.182196 93.464058
-2.920214 -10.181924 92.229073
-12.004757 3.944818 95.589798
4.643783 9.304573 92.862572
5.119310 9.534631 89.701454
9.185004 -10.873797 98.081505
-9.244691 -11.083639 102.995399
-1.346997 -13.586669 104.132607
-13.918620 -8.814123 93.991257
1.833973 5.704928 107.032379
11.065851 6.843825 84.490105
-2.735277 -11.206470 90.334023
-17.130129 -2.845617 95.968033
5.406307 -12.001638 104.288414
-17.903925 -0.929690 90.670631
0.302225 -9.663727 88.278763
15.967488 -0.858719 95.546112
14.819167 1.089942 93.484505
6.907914 -13.201497 88.119118
-1.767489 -9.499054 88.599258
11.089048 5.585219 87.227150
13.945235 3.461761 89.284134
-9.502986 -11.927819 77.139755
-11.025046 -10.083432 99.018478
13.287339 -0.368757 107.539970
-6.623666 8.078284 102.557724
13.148617 -0.639091 105.264801
-14.306329 2.112564 93.088333
11.050137 -11.114158 87.038139
-8.773182 5.200074 107.461716
3.285307 4.952309 81.369766
-11.970655 6.016424 89.182129
-18.675749 2.156711 85.078835
-11.406556 7.428427 82.259224
-13.846950 -3.859819 106.509827
8.551526 8.382683 94.043915
6.697174 -12.004685 91.359230
11.948990 -2.079389 108.137230
12.605213 -8.843984 89.385422
0.162828 7.890784 105.512383
-2.719809 -11.979493 99.370071
3.286252 9.793979 89.954742
-12.971241 -8.447554 97.348923
4.131103 7.299204 85.680626
12.373042 3.506349 92.357925
-7.904749 -11.756140 91.048103
1.328403 7.288094 86.911156
12.329395 -11.761456 88.772835
6.067419 8.899865 88.214653
12.503985 -10.418330 81.393356
-1.971026 -13.485111 101.899803
-14.551551 -6.418067 83.492317
-6.606575 -11.915222 94.448990
-2.152443 -11.228545 82.569054
-7.077398 9.974980 87.179764
12.453893 4.044219 79.197388
12.720558 -3.098817 104.838867
4.974782 -12.401795 86.114151
9.163338 7.658225 90.788780
7.313517 9.900283 93.927567
-14.185705 -7.144401 92.324562
11.992797 6.772243 82.905502
-13.366008 -7.404854 108.389977
9.244284 8.970922 98.629608
0.158404 -5.544978 76.348434
-0.745525 -1.828661 79.169624
-7.577976 5.175169 109.395309
-2.199581 -11.621954 93.459373
0.461925 6.056972 107.774384
10.404021 7.726081 93.726303
16.192152 -3.759112 94.607857
16.534149 -3.784280 94.109329
13.092818 -11.078990 97.762817
1.064445 -13.059395 102.596611
-14.710739 -0.533214 103.752312
-0.105168 -9.554389 88.526222
-15.202542 -4.032189 101.706268
0.961537 -13.417363 102.677048
15.160433 4.054432 82.246735
-14.910383 1.609708 91.160744
-11.385352 -12.192634 79.312637
-10.522256 -11.685746 81.401085
-5.226050 -12.088016 96.534874
12.294068 -10.867451 78.264496
-10.996432 -10.157793 104.364120
-15.124115 1.546764 98.636551
2.204862 -8.469249 83.890839
-12.732884 -4.387918 104.391182
-6.395028 9.445726 99.340775
1.862377 4.885290 107.859871
1.082624 4.750486 84.238861
0.833838 4.337436 82.965431
0.315743 -0.892120 77.431679
12.542933 5.269034 101.224663
3.465299 -12.119493 100.150383
-0.207012 7.767754 95.823837
16.127371 3.968284 81.624397
-0.490156 -6.204760 79.878166
-9.331003 4.381363 107.717674
4.154907 -12.515546 82.474075
-13.625652 1.086381 103.610168
-4.866107 -12.050875 87.026619
7.820065 9.214753 91.622078
-6.258949 -11.579594 83.289230
12.774408 -0.069139 105.576202
-6.840355 9.953905 86.962769
-3.786273 9.412415 99.033585
-0.333359 -7.690295 83.820892
-2.917293 8.599237 102.967545
-8.738269 -11.458667 102.246567
0.228206 -4.027700 76.298325
-0.479828 -4.475615 74.634018
2.948833 8.292613 102.451210
11.326378 -9.882943 100.631485
2.105604 7.333150 85.686165
-11.137414 -12.498751 85.259735
-9.992763 5.271877 106.953232
-17.303892 -0.940165 91.028061
12.098389 3.414657 104.919540
13.542297 -5.643570 97.020760
14.554652 0.589505 94.897285
-12.667105 5.260592 93.168449
11.694176 4.760318 87.746094
10.450430 -12.456607 94.010925
16.780540 0.270098 91.132011
13.939800 -9.897602 97.058548
11.500034 7.583305 83.282875
-2.707730 7.612825 87.577629
9.929924 -10.463927 104.240204
-6.616871 9.171686 88.952858
15.497137 -2.886837 93.448067
-3.851919 -10.702943 81.874359
-11.680803 -7.975029 101.980049
6.994809 4.885926 107.890373
-14.827028 3.503850 92.916878
18.790167 0.852480 87.611206
-7.425100 8.493351 90.165649
-10.868501 -9.361199 103.027672
2.984042 6.061182 106.883774
0.403483 -5.209325 79.437469
-2.469822 -9.870142 84.514198
7.899246 -11.171874 94.176804
11.853895 -9.652742 102.569412
-13.786889 -0.177537 104.083870
17.242035 0.918073 93.634743
-12.593866 4.602337 86.470490
9.314874 -10.976060 103.335556
-3.968472 6.645303 80.467674
-7.034610 7.986616 79.524185
-14.185308 -10.520186 82.071060
-11.825651 6.344135 97.335487
1.073780 8.332979 95.814468
11.197258 -0.264962 107.936630
8.453873 8.690449 92.601318
-4.347695 6.226804 106.155289
-8.511053 -12.178906 104.450851
-0.922185 -8.087030 85.484886
2.788966 9.637426 99.680740
-5.443770 -12.821069 100.284172
-19.316427 -1.014570 87.812035
-7.187907 5.194926 106.822464
13.473500 2.198767 92.564499
0.628372 6.369811 107.555588
-9.452672 -11.214759 92.244705
1.939517 2.287160 75.756935
-17.287970 0.518964 82.617065
-9.775428 -12.437625 79.134705
-11.843451 -11.094781 91.894890
-7.340243 8.252312 101.248016
-1.277816 -10.229197 76.883759
-15.301283 -8.135807 88.584938
15.624298 -3.147555 93.638184
18.063702 -2.445074 99.384026
12.194572 -2.274088 108.331535
-10.094571 -13.013217 85.629494
-14.625703 -5.441083 83.899185
5.920466 9.222178 89.144562
0.384920 -1.494609 75.666489
0.505252 -1.960739 80.538010
7.750172 -12.447882 87.441689
1.341839 -12.149505 96.949806
-2.443929 5.685362 108.238693
19.160545 -0.049864 85.024673
7.465767 8.420505 84.800812
-15.386575 -3.834515 97.114876
-9.304399 7.801836 85.109703
14.558019 -7.447806 96.293030
-15.686591 -2.972690 90.862289
-6.680028 10.033385 83.940437
-3.993252 -12.899901 103.094742
-12.700086 3.227248 104.558540
-12.735223 5.849121 101.469345
-0.816065 -8.610523 77.193054
-4.726188 -10.856030 89.115021
-1.166565 -7.784315 78.789467
-13.707031 -8.931516 89.039673
-5.636998 8.461411 88.488060
17.579210 0.704825 83.215019
9.668536 6.698805 100.893990
-0.913741 -1.257197 79.462852
-18.134624 -0.778478 83.041985
-3.762232 8.978264 88.883865
-17.699329 -3.400892 96.872849
-8.756831 -12.160003 103.362297
-4.689152 -11.359515 79.229988
-11.664617 -11.333857 91.811684
-18.505177 -0.627855 91.091766
0.756136 -8.886312 88.255547
-12.838362 4.856041 81.928497
12.232221 5.134440 101.165283
-10.601318 -10.211171 102.845932
10.606509 -10.310177 93.506325
7.149625 8.958278 95.298141
-4.936695 8.415367 103.328987
12.233268 -0.494738 107.013489
1.203695 5.830430 108.057159
14.619990 -8.080461 89.301460
0.410895 5.151198 108.292747
2.290506 4.851944 82.690247
9.575003 9.432977 96.428581
2.047257 -10.358913 78.425980
2.710641 -12.431412 95.702972
-13.348965 -4.880225 103.846603
-9.798933 -11.751205 76.838394
-10.163440 -11.690856 91.930534
-12.602943 5.131224 98.921890
6.128471 -11.834405 84.439354
16.510906 -2.820538 95.062111
6.676734 -11.213775 96.063629
8.016682 -11.096986 102.267326
-12.921739 -8.945182 93.736534
-12.498483 -2.922851 106.124542
0.571359 -4.733871 81.616196
12.594903 4.240439 87.804420
-9.398840 -11.562152 87.649345
-2.783363 9.737206 96.680130
-9.915948 -10.621683 95.396004
-7.452936 -11.532332 89.341751
-4.919786 7.092369 104.224327
-14.318231 -7.372352 86.317215
-12.553002 5.843952 82.034241
-3.433931 4.887549 108.995575
-1.523904 -11.430377 95.277519
0.084329 0.446663 81.415016
14.983118 4.469766 83.387604
-2.628906 -12.600987 99.748657
-7.724260 9.013696 100.049942
-2.004350 -9.734276 90.041969
9.628469 -10.413291 97.932083
2.244784 9.262962 99.824837
1.096388 -9.348779 87.025345
12.820189 -10.043524 82.839874
13.931314 -4.410341 101.566872
0.638121 -8.828548 76.573624
-4.947943 9.320600 84.909920
9.730114 6.940788 86.507774
8.002337 5.312839 107.167793
-2.236681 -12.472034 100.884041
11.543626 -11.138173 79.116394
-5.375662 10.280133 97.430504
14.623297 2.914161 90.531067
-7.854747 9.499089 81.426559
2.780641 7.659188 105.904358
-15.466647 -1.525137 96.998627
-14.232796 1.198676 85.031120
6.139588 -10.816762 92.361069
4.665559 5.759775 107.538239
-2.008570 -13.242998 104.581909
7.199929 7.772890 102.358131
4.856424 -11.866225 86.368744
-7.358785 10.596630 81.602592
-1.799818 -9.541662 80.876953
0.119118 -8.357762 75.753830
-17.811840 -2.039131 92.101105
2.689476 7.272837 105.757072
12.331066 -11.582552 91.898956
6.741444 8.616145 86.975060
9.662870 7.047240 83.196312
-10.765965 4.760318 108.587456
1.312307 4.184343 81.771210
-12.776104 5.200864 96.593208
-7.416356 -13.051151 84.599953
-7.628042 -11.842491 90.760567
13.249261 -7.756855 91.379257
-3.745791 -10.975611 90.740105
15.148470 -0.936484 97.635696
0.745823 -1.965852 82.697807
13.537679 -0.640391 105.661781
-11.535979 2.749263 103.306152
10.486609 -9.585746 103.736565
-7.488389 4.640726 109.096954
10.991150 -9.075983 97.105026
4.855207 -11.852640 97.872742
-5.019995 7.045059 107.135025
-1.376676 -13.360193 98.062935
9.368869 7.367847 87.993149
-2.019452 6.738342 83.659378
3.464067 -12.123226 102.675117
16.185347 -3.861494 95.295456
9.448701 -10.778327 93.087936
-13.186815 4.182636 101.543938
-7.307607 9.322792 80.025116
17.992208 2.178826 86.414482
-0.780317 0.010042 79.795959
-18.554008 -0.809945 87.535408
9.793571 4.930136 107.497482
-18.643944 -0.404401 93.284622
9.353778 -12.300002 96.540115
-11.968451 -5.065542 104.692886
-11.663359 -8.181315 105.518288
-5.508317 7.282307 104.391449
-7.641029 8.497873 99.437881
12.169843 -11.846617 89.038994
-3.144277 8.810852 92.811142
12.334833 -2.989035 105.781036
5.564811 9.132228 89.080833
15.025856 -8.398390 80.745239
2.301232 8.412990 101.215683
-9.017918 4.842651 105.905746
-3.098204 -12.139364 75.261436
-12.259709 6.205584 84.247643
-8.438538 -12.632483 78.240196
-12.962780 -10.128044 90.586365
-0.450073 0.925575 79.699921
4.449006 10.220076 89.576714
-1.314765 -9.334437 81.549431
5.946344 9.591517 97.162697
8.677366 -12.154276 102.516510
7.141792 5.627562 79.458122
3.058043 -12.689458 102.833443
-13.697142 -7.290951 91.807083
1.946709 6.018174 107.672935
5.037820 -12.776112 104.972809
-6.202537 -12.631866 102.171570
-7.667028 -11.977204 103.262314
15.752335 -3.808333 95.142159
12.935909 -8.617876 99.170341
10.315986 7.338435 95.335594
17.183420 -0.719234 94.220627
13.611434 -6.917715 98.250984
-7.070097 9.290197 97.287476
13.004287 -11.253724 90.397697
-14.238615 -4.883132 99.365837
0.327540 -8.741164 87.744659
1.830863 6.124219 86.033997
14.007346 1.452077 100.281631
-14.625680 -9.731576 82.576477
-11.396429 7.297374 93.452553
-7.543606 -12.511569 77.341179
-10.700958 6.089715 96.644547
13.743374 -8.722369 101.759918
2.534685 10.695630 95.339409
7.103620 5.385445 109.373917
-10.972842 -10.041615 97.207047
14.018601 -3.188784 104.527847
-8.348074 9.152346 88.107399
-10.875410 -12.894218 88.682426
-9.705297 7.650200 95.190361
4.523133 -12.107290 96.720436
14.882547 -4.648868 103.771187
12.931178 -5.319662 107.948990
-1.204550 -11.730751 96.336304
-13.016473 -10.184372 97.412537
-15.983853 0.952403 88.469513
17.772758 -1.921707 97.646576
-9.881627 9.682651 81.729500
-6.875641 8.314375 100.829437
1.987365 3.645843 79.093735
10.845105 -11.141352 76.637810
1.278386 -8.076946 77.492935
-12.180340 4.710964 89.305878
14.882097 -3.249680 103.595428
-7.749854 -12.384423 77.938835
13.524987 -5.207855 102.727776
-2.816109 10.115151 91.122940
1.376607 8.066969 87.283669
-15.130355 -5.883649 95.156044
-6.531534 8.361534 82.463127
16.245029 -2.026893 92.633377
15.608975 -2.984380 91.853096
4.356538 5.858498 79.326500
14.925129 -1.656743 103.232590
-15.314386 -3.284560 98.780991
4.718513 9.476837 88.497025
-14.255178 -8.836997 101.579369
-14.599052 -0.832419 95.703880
12.855979 -10.702982 78.271790
2.824222 5.269691 108.709892
12.132398 -10.466645 81.267891
-6.632524 9.220509 81.321381
6.808819 10.622054 89.450302
-13.663766 5.259806 95.157944
-13.244757 0.426244 98.129280
8.374464 8.339838 86.384026
-14.125337 1.494754 102.533524
-9.234998 4.418434 106.974503
-14.329595 -10.486478 86.500343
16.435074 1.702904 90.817162
-10.187823 3.834587 106.783501
10.340427 -11.945415 78.778069
-8.422961 -11.227327 89.933128
12.613387 -9.861904 85.261467
7.197001 -11.894103 92.575912
-8.815163 8.137777 102.392319
-10.732588 7.840731 99.825447
-14.714508 1.202541 95.961029
-3.117038 -12.626900 102.079773
-17.621700 -2.259394 92.703491
-12.604822 -10.562009 87.386070
8.525217 9.093762 83.130424
-6.676508 -11.398134 98.385254
2.381743 9.679553 90.315926
-14.626541 -8.190763 83.802658
-9.228202 -12.032894 85.437340
14.369428 -5.140663 92.534042
16.581841 1.354378 90.711761
5.337577 7.001476 80.321121
-14.190989 2.674380 103.174988
-8.908009 -12.953404 83.597145
-13.506303 -5.460708 98.555069
-10.157313 -12.501056 85.630302
-18.538319 1.980495 80.939026
-12.100852 -8.911847 102.056091
-3.807408 -10.362482 87.110291
-15.041502 -5.451770 95.596390
-7.199934 -10.993947 103.852966
-14.801064 -0.727316 104.012939
-7.018429 5.574626 107.389481
16.483322 2.406818 84.886948
-16.658978 -3.988809 97.031387
-10.143835 2.638977 109.096878
12.328557 -10.964088 77.693825
-6.000711 9.025339 86.591637
-12.720878 -11.448203 85.208405
-15.713442 -2.265931 99.039909
10.228551 7.416299 84.663605
0.148012 -2.601324 78.023087
-1.276136 4.956169 107.679878
-13.878086 -3.996075 104.531242
-14.396196 -8.500772 93.580116
1.739391 -11.734277 94.545868
-14.457856 -6.787699 94.331909
3.102086 -13.214702 101.918159
12.589022 -8.734548 98.459320
14.014359 2.081529 102.236130
3.038022 -12.664732 102.536804
4.033091 5.973061 106.031403
-1.425809 9.713370 99.099564
0.275764 -11.188123 98.111061
-13.040796 5.659046 93.317764
6.769945 -11.755040 103.132622
-14.792179 -5.023178 94.657852
-3.650512 7.054970 84.450478
-7.140442 8.464590 94.968895
-0.467359 -5.662677 78.494202
15.133515 3.317330 87.125519
7.302683 6.292275 80.363495
-7.781840 -10.809950 104.648354
-12.739760 -10.385579 93.671707
13.932660 2.015034 88.587044
-15.271898 -6.918581 86.576073
3.099290 -11.375955 76.258034
-17.595985 1.703310 88.611809
0.744719 -10.865414 91.676720
-10.533979 0.736105 107.240112
12.052225 -10.681741 86.120285
-13.850423 4.370476 91.184059
8.471972 9.015662 95.512329
-6.200898 10.465550 91.659241
-5.082917 -12.142775 94.066917
-10.195699 7.567832 96.894615
-14.880972 -6.770712 87.044289
-7.002738 -11.808779 103.610779
-13.568268 -2.603589 101.836189
-10.545414 -9.029859 103.787956
16.690527 1.248450 88.521484
-10.850638 -8.867831 105.766518
5.989645 -11.761156 101.518974
-7.117486 9.242016 93.234993
3.115838 -9.609887 87.099663
9.953123 6.242613 96.788437
0.441735 -3.399201 81.706184
8.446012 -12.728955 83.931953
-0.588703 -2.777420 82.212120
-12.657620 5.109582 94.615990
-10.418510 -11.726654 92.889435
-2.288501 6.121498 107.507767
0.682209 -7.817132 80.000320
-12.791174 -9.510385 79.031593
12.362097 -11.251655 89.870422
18.605536 0.928982 83.267235
2.142637 9.258592 101.608047
14.974347 -7.213984 84.640472
7.387978 9.224316 96.385986
-7.234741 -12.809316 82.746323
-8.608315 -12.186179 86.736870
14.197135 -1.186488 97.938957
18.862564 0.107018 84.585739
-10.712725 -10.092895 91.026627
-12.503817 -5.636076 102.482498
-10.485281 -11.744406 97.692963
8.635845 5.845260 105.578575
-18.286045 -1.134529 83.288666
-8.958490 -11.439046 103.843674
13.013669 4.966025 101.204300
-7.664669 -12.376633 77.434418
13.530578 -9.908771 78.398926
-5.801712 5.757291 79.324463
-1.673126 7.300464 105.646828
17.750914 -2.278196 88.123207
16.901434 -2.432436 89.302315
-3.461005 8.308583 86.717308
5.588040 -12.009402 97.464539
-13.262053 5.265663 99.399834
7.526726 8.562760 87.994499
16.051367 2.571880 83.524193
1.358531 9.926792 95.691895
7.110147 -12.669847 77.508400
1.130034 2.788559 79.657509
-16.201138 -5.069559 86.242722
1.540529 1.130969 82.938065
-11.891175 2.356520 105.332863
18.237261 -0.532426 93.675987
-11.896209 -9.956745 105.579178
-11.966698 3.089202 99.290207
-1.976001 1.298449 82.390587
-12.270777 -9.786828 89.448654
-11.530740 -8.358736 92.991287
-0.105519 2.264581 82.236015
6.075682 9.797802 94.217186
7.997046 8.646482 79.807281
11.566661 -11.173512 93.805321
-9.956378 -12.108753 91.369110
4.616323 4.796485 109.504402
-14.576840 1.888866 86.906456
8.135084 -12.736138 93.639091
1.368383 1.724437 78.359291
17.950050 -1.707368 90.214943
-3.244339 -10.560020 86.031517
-12.805316 -9.760000 91.445877
-10.708983 -10.326239 103.606873
-4.335501 6.970732 83.705147
0.167839 2.520470 79.695892
-11.500495 -9.355163 104.400383
-9.263615 -11.289488 104.743187
-3.488554 -11.337132 79.341049
-8.054750 -11.625573 89.269226
-4.931343 -12.512523 93.931396
-7.162935 -11.456588 94.294830
-10.332853 7.681787 84.966492
-1.796197 -10.187560 83.949120
-1.768777 -12.766823 103.233589
12.719407 -10.961226 80.934540
7.528995 7.615128 84.711884
-12.915740 3.098759 101.027237
-12.244195 3.406615 105.659363
-9.634675 4.037134 105.594543
15.314624 4.392529 80.408691
14.593458 -5.295767 80.114525
-6.629551 -12.493186 78.647888
-12.605275 2.773292 106.052597
-6.182393 -12.747894 85.531555
-4.508407 8.537411 99.535995
1.901615 9.434811 95.099434
7.554665 8.916087 95.522018
9.268598 -10.860767 87.232193
13.950898 2.135133 102.991417
-18.393639 -1.108747 88.332596
4.245314 -11.710803 77.376923
12.414369 3.972702 90.249390
10.944146 5.721219 90.395599
-12.360182 1.352889 105.466293
-12.416342 3.735017 97.338409
-13.423575 3.176789 88.975388
-0.795710 -13.014360 104.573997
-19.569138 -0.779671 90.165337
3.925198 4.265366 79.052139
-5.400990 9.655777 102.599533
7.882482 -12.677252 92.720718
0.438861 6.682224 85.304504
-1.152772 -5.222313 78.364571
-8.511589 8.846501 85.299942
-12.084657 -11.495666 83.940880
16.783026 -2.782930 98.428596
-5.507247 9.231890 100.712463
5.929212 6.608986 106.000008
-0.480932 -7.994410 77.977928
-6.468409 4.502948 109.318939
-3.887531 7.921523 85.017426
-13.716483 -10.252095 85.371811
2.519515 5.131892 108.624359
11.077399 5.697029 105.117149
-0.175199 6.923936 104.404068
0.546433 -1.541032 80.130585
-7.603455 -10.978037 96.606979
4.609340 -12.448539 101.422997
0.094159 0.581967 80.568161
-14.042618 2.616394 86.387009
-10.310214 -10.732346 99.552132
6.549914 8.767344 100.669151
14.786196 -3.972498 94.006424
12.970843 6.374876 100.614403
9.643505 3.543788 106.349831
-2.666102 -10.611832 83.397362
9.045988 -11.991201 105.933975
-14.721655 0.527601 91.287132
-11.136582 5.640095 104.694275
-12.267184 4.733279 100.728447
5.332273 -11.689342 80.338730
0.662966 3.391101 83.783745
3.780672 -11.034837 84.310959
8.790215 -11.512273 95.133430
-2.447748 -11.927353 96.180466
11.457534 -9.055051 104.597282
-13.566490 -0.726277 106.134583
4.216108 6.713176 105.518211
-18.571609 1.061130 86.853554
2.729241 -12.922156 99.370453
-11.867301 -9.614072 101.087936
-17.461033 0.490754 89.686890
-13.645297 -2.916466 105.511551
4.049531 5.555644 84.002304
6.487671 -13.000020 82.222092
16.667959 -1.989107 97.639954
15.539310 1.220309 93.090858
15.937827 -2.827676 100.915268
17.631392 -1.867685 84.970650
-17.549753 -3.935210 98.922424
-0.343743 -1.456654 79.488525
-12.996965 -4.393631 104.946182
0.829912 8.670379 95.039185
0.319908 -6.361710 82.457275
0.021976 -4.162221 77.610649
18.785288 -2.737397 95.870064
18.191889 2.194157 89.072578
-8.556267 -11.496116 99.900467
-18.345505 0.285191 88.577751
12.235263 -10.954600 87.167244
-0.530507 -5.037639 77.882385
-17.028873 -3.650617 97.069740
7.080541 -13.572899 90.238754
5.801837 -12.655910 87.438576
-1.309557 -13.118468 104.400314
8.313346 -12.123160 97.012062
7.085877 8.689840 92.212273
-13.701125 -3.490017 106.848625
19.278757 -0.366580 91.002747
15.783852 -2.714680 101.998795
4.802510 5.637817 79.317024
-5.915501 6.271332 107.105644
16.370247 -3.160372 100.231224
0.500473 -4.596508 77.412277
15.732792 -2.727677 92.763039
-6.239913 8.999317 98.231194
0.074451 -5.555974 79.489075
6.318993 5.386082 78.298767
7.744313 -12.214153 104.470825
5.519652 7.847170 81.664017
-7.475614 9.101393 87.214333
-4.369749 -9.557038 74.366241
2.016157 -10.411649 84.942421
-5.727263 -12.059291 89.821266
-14.616907 -6.806365 79.932030
-11.271997 6.201171 82.823959
10.955421 -9.274260 102.498116
8.255907 3.763913 108.757278
-2.153020 4.455855 81.684067
14.948380 2.990994 81.721619
-0.041359 -6.883692 78.513580
-17.159157 -2.195157 91.747772
13.667494 -9.275782 95.940147
-3.651432 9.395249 88.589996
-9.379816 8.237152 96.709686
-11.308806 4.018348 106.090401
9.006539 4.547731 108.685501
-5.185749 -11.629027 91.376259
-5.981381 8.042005 80.724205
-10.541329 9.014923 79.433701
12.708246 -2.137938 104.701569
-11.136429 2.940619 104.879333
3.943266 7.757597 105.101204
-10.374488 -11.552811 92.189537
9.862833 6.824462 100.501526
-10.568502 -12.172314 76.801849
14.206163 -7.822791 89.145447
5.892586 -12.411186 87.582657
3.057005 4.708930 80.649696
12.275627 -11.700385 83.454765
-13.222095 -1.865411 106.987274
11.795604 -13.038301 80.125443
-10.337681 -9.663876 104.567238
1.248495 -4.012290 82.642670
14.296605 3.621520 88.940598
4.445661 -11.219402 77.121323
-6.720267 5.990744 107.910103
3.337106 7.816633 84.622086
-12.338807 -9.017755 97.600044
0.704017 9.170293 93.403648
-2.441317 5.026344 83.214546
-17.677702 1.554240 83.038231
-12.305768 -7.318523 102.589111
-17.599861 1.495825 86.891342
5.771126 -11.543896 94.606705
5.016158 8.677276 103.299767
-6.099237 -12.168322 96.730202
3.836834 -13.602645 102.906685
6.590085 -10.894659 91.886208
-7.197896 -12.647645 91.729103
-5.615520 -12.395460 103.697845
-7.643725 -13.039603 79.313980
0.226849 -6.242047 77.955505
-13.317883 -3.795751 105.328026
12.838696 -10.736794 83.485115
12.704883 -6.671330 102.817764
-8.081297 9.091557 95.581696
13.989042 -8.758368 96.464645
11.905971 -11.422381 84.344635
10.488972 2.533973 108.973831
1.110940 -4.276382 77.278732
-8.603337 -12.292871 81.369141
-10.682221 -12.471236 90.216438
17.149067 -1.891980 91.256981
-17.156796 -1.638817 97.504189
13.373167 -8.912370 92.237228
-3.707916 -7.666205 75.831650
13.823925 -4.312251 99.159874
-12.408630 3.680138 85.375885
12.371989 5.444962 93.981499
-2.377891 -12.591200 102.069054
-13.309850 1.456163 103.927498
14.057755 -8.108748 88.096313
5.275128 4.545171 108.894630
-1.231994 -9.119612 80.725517
16.217981 -2.417108 95.245644
-0.139724 -12.292117 100.316948
-2.911712 -11.986407 89.346527
-13.641665 2.669687 85.904053
-15.900726 -6.474092 86.412766
-4.478629 7.874578 90.024635
-9.537929 6.719503 81.154327
6.522056 8.150897 91.105537
2.650750 -10.576167 90.290894
13.483407 -4.930624 99.379929
11.960204 5.149456 96.253098
13.415851 0.496029 97.267197
-3.363783 -12.626915 102.505219
-15.937935 -1.416775 97.974030
3.966931 4.948428 108.723831
10.934469 -12.386554 83.652687
11.774659 -11.396731 79.529877
1.272279 4.689147 82.629860
4.515032 -11.466105 76.633049
13.763337 4.234810 94.429710
-0.683244 -0.999788 75.290756
-4.924267 5.033850 107.593987
-8.830641 7.997362 92.956100
11.798848 5.076699 100.864571
5.600710 9.028592 99.945587
6.647445 -12.088345 102.753082
7.519064 -11.791704 87.771660
-3.120988 1.768974 75.309494
-7.981126 9.770531 92.492722
-11.230076 1.006931 107.508942
7.634852 9.286303 96.768822
-2.416619 8.351072 104.288300
-16.017796 -5.606994 88.468277
14.583572 3.216029 86.319275
13.223996 4.368544 89.778633
-10.211805 7.849378 104.730698
12.478333 5.923736 95.310127
-0.031911 -4.519053 82.217651
-5.132236 -11.050137 76.792877
-2.843410 -10.578176 82.217873
-7.342173 -10.986812 96.646111
-2.254711 -13.481392 102.636986
16.001108 -2.250563 98.899246
-12.384616 -7.492057 91.169670
-0.534045 -9.134847 85.596550
-7.271640 -11.564491 105.106255
18.878942 1.205203 86.321899
-12.111504 -6.690004 105.793686
11.741204 5.290881 86.548409
-13.291095 -1.102933 99.117218
-0.369950 -12.706923 97.693459
-10.767982 3.550674 108.142555
6.124556 7.895525 81.009918
14.979781 -4.974813 93.101685
-4.287446 -12.746746 86.747986
-14.881241 -6.725257 95.566559
-0.124120 9.227485 89.110268
-14.034645 -8.435545 80.804581
-9.873796 -11.630692 80.573151
0.684425 0.162822 76.732277
18.455111 -1.224077 91.687004
16.585091 -0.773211 93.504044
-16.054083 2.332547 85.615158
-1.006561 0.727089 81.937134
10.368343 -12.357637 77.899940
0.817642 -0.346254 76.138313
0.283365 -11.185790 93.516106
1.602150 1.966304 82.846039
-8.772532 6.723142 104.448921
-5.796519 9.005579 83.910767
-15.332949 -4.892304 82.689697
-1.526929 2.159667 78.190865
14.302448 -1.769023 102.925163
10.649441 -11.300669 97.229668
1.053672 0.785130 83.511284
10.742523 6.497504 87.463112
12.697838 -11.091964 92.528587
6.542621 -11.574823 104.281471
-4.528038 -12.587613 84.662849
-0.202546 -5.020413 77.763557
9.294620 -11.593722 96.180794
-11.571536 -9.329194 101.383209
-0.334715 -3.449657 76.326004
1.360106 2.781924 79.499802
0.891183 7.492262 100.479179
15.735397 -4.626233 96.716362
5.376106 -11.004943 89.436371
17.042187 -1.978023 95.174187
-13.734780 -10.133280 89.913574
9.114505 9.166688 90.943344
5.905083 -12.915611 84.293610
-11.845343 7.003776 84.330315
1.757667 7.915514 90.228043
-13.241792 2.736017 104.432991
16.335852 -3.411570 99.829063
-2.756895 -13.270521 102.744720
2.945729 10.227454 98.524292
1.346287 6.925303 103.657639
-13.253855 5.156750 83.077065
9.532297 5.572428 106.031616
-14.539544 3.457264 83.318710
-15.946308 0.800103 88.753532
-13.291807 -10.096247 81.093353
15.911380 -3.348523 94.426849
-1.150837 -5.839135 78.444031
14.009577 -7.676766 100.335770
13.440389 4.579858 81.570274
-18.453411 -1.148584 93.020348
12.329611 1.326981 108.251450
14.000899 2.319061 99.617294
-9.648309 -12.599349 87.040695
8.571089 -12.557207 105.185776
2.381786 -10.570277 84.116470
5.909455 -10.725097 89.226837
-7.144391 -11.912152 97.562859
-12.526519 6.386178 92.629570
-5.099951 -11.851123 95.560028
-1.026243 -6.179630 78.950592
4.834182 4.445673 109.543716
-2.362171 3.762011 81.712814
13.040142 1.588628 106.899300
6.470784 6.020843 105.162796
10.684232 -11.130279 85.897858
3.500211 10.000581 99.129402
6.654931 -10.530932 103.287277
11.174618 -7.724595 104.561478
-14.336554 -2.228836 104.234970
-12.048442 -9.319714 105.446106
-16.274902 -5.120024 88.984390
15.742268 -1.075350 98.367355
-14.941605 -4.775108 88.131111
-13.011660 -5.546905 107.094490
-15.155772 3.550756 82.624893
-14.182195 -5.235581 98.460037
12.369124 -7.877875 101.072716
1.192911 -2.923574 75.513474
5.363013 7.283449 83.365761
14.320641 -7.121356 91.614418
-1.075695 -9.253146 87.515717
9.268515 8.861576 91.465500
0.381183 -9.576302 88.926926
-0.030119 7.919895 95.182877
-17.673557 -2.565702 84.860954
-4.236199 -12.102950 96.230873
