ply
format ascii 1.0
element vertex 2048
property float x
property float y
property float z
end_header
-7.884996 -12.706147 126.678200
-10.699556 -10.876346 98.637833
27.439880 -8.322680 74.146423
2.547527 6.561962 120.395271
3.213534 10.859586 82.324104
-7.882336 -6.986448 75.737633
-21.632292 -10.460658 73.641960
0.162036 -12.705121 81.562416
0.437821 6.553448 125.694229
-21.922565 8.264997 72.197182
-12.683496 -4.877586 116.629486
5.614362 10.085869 151.369949
13.423135 6.425450 138.145584
-13.929389 5.531301 105.321686
-27.557714 -3.106201 76.421799
9.960710 -11.077250 105.952484
12.374574 10.543359 93.765495
19.502665 7.596306 72.787361
18.785599 6.662860 89.343300
-11.446467 0.515545 118.086281
-11.462624 4.282563 117.140572
-7.086058 -9.042759 83.558891
3.532569 13.888253 84.215302
-1.719397 6.062741 122.721970
6.268964 8.777971 103.767891
-16.881025 -2.047535 134.320450
20.671150 6.509058 79.574654
-7.630470 -4.042818 73.355232
-15.259869 -8.169423 88.358719
11.516144 22.266615 80.239540
-8.589979 4.875221 112.038422
-11.212029 1.894217 116.276352
-16.831120 -8.610516 97.722710
1.492233 13.129883 95.139809
27.224562 -6.252720 81.014160
7.706645 -13.833094 130.562714
15.619353 3.083034 102.204018
0.162667 7.793623 121.384827
-5.824793 16.445892 87.804466
-8.879678 2.325860 150.207657
-0.575291 4.776005 118.342857
8.180449 -7.987094 72.138840
-1.719687 6.208069 110.628082
-23.283661 8.108410 69.723541
8.692169 -13.695072 133.735428
-1.069019 17.879734 96.507576
-12.180359 -7.931213 129.609238
-1.292417 -11.794858 96.391434
9.428833 -18.066343 72.261909
13.893769 12.565044 68.890488
23.800577 -6.764430 87.797958
-15.124824 3.661047 129.246521
4.797640 -17.383907 93.978714
20.761719 1.700975 97.685150
30.827101 -2.184073 73.558990
5.029979 -13.444660 110.782219
-1.148532 14.271255 77.050301
-2.171451 4.066505 115.134689
4.384630 -16.652420 95.601700
-12.264435 0.165744 117.692345
-5.492599 9.152600 110.582550
14.789637 8.498377 98.455734
12.983080 4.758004 125.988121
-5.929645 -10.867212 115.327209
-9.405992 3.364529 151.731049
4.407146 -24.643639 72.677002
-17.810390 9.107477 85.208504
9.068146 20.142025 75.736237
-6.133655 -13.422095 136.536697
8.971273 -15.300108 84.453217
-20.540447 9.061064 75.520966
-22.311901 -6.230851 92.883217
-20.840359 4.377698 82.517189
-3.165504 6.622280 108.048882
-11.811616 -11.997217 134.390152
-22.478979 14.993744 80.645508
-17.726597 -10.306376 74.169312
7.644389 -14.337820 133.020721
13.262037 -0.210103 113.425194
16.339298 3.911666 103.343727
19.878284 -9.304751 86.828140
-8.436481 -12.598055 93.091316
-13.398148 15.748782 88.772614
19.140614 -8.794267 75.191437
-3.014655 -11.171707 115.070450
11.962523 0.632573 114.471230
11.412385 -11.407664 78.372597
12.751382 1.405628 111.702835
-0.595509 17.606777 77.736282
-11.092826 7.886206 97.364960
-3.906563 23.020660 87.670753
3.855153 14.704428 72.398018
17.727467 4.227857 94.951256
7.598575 -13.965586 129.895721
4.492456 -20.814447 74.505707
21.554962 0.894023 92.262589
-1.117245 9.647912 105.535286
14.601818 7.932539 101.018425
14.351394 -7.201794 109.279312
-7.931591 -3.786882 142.443268
14.380583 -10.669764 82.792503
11.450716 -8.773551 125.281677
9.272900 -11.263138 100.408997
8.388181 10.338582 135.806519
-12.820434 -5.626058 129.006348
13.019201 -9.065558 91.552467
7.757018 -10.367373 127.525246
-5.646072 20.790058 69.175995
-8.426884 12.167056 79.740005
-7.473834 -8.503965 78.576813
10.120742 -8.425609 138.539932
-0.032451 -13.823684 89.467079
-12.933085 -8.741072 98.765503
19.250793 -4.980180 96.847847
-15.967834 -6.705693 133.288406
2.042167 -18.721262 86.095520
-7.488957 -14.035769 91.965836
-17.989599 -9.082418 70.673561
13.512388 20.622652 78.262543
0.345594 7.351246 110.501144
-7.443656 14.032603 86.821350
-9.682261 21.107038 75.245193
5.421462 14.536019 81.289352
16.307999 17.994335 74.364578
9.038353 6.195284 105.570671
-6.556588 15.430347 86.859833
4.658412 10.875941 98.927216
13.984170 -5.579181 135.539780
-22.152355 2.207354 73.357635
-13.615849 6.504158 131.222824
-1.060893 20.904802 81.913452
-2.633840 21.544086 82.728279
11.058922 -10.837773 135.247940
9.277094 -23.773014 71.189476
-11.221147 -6.178015 113.717209
-0.161897 13.477101 85.520241
-11.580563 13.433502 95.748566
-12.377425 10.300117 146.650330
-14.273979 2.246045 126.453926
10.768017 -3.216769 117.288651
-0.103047 19.697168 86.075943
-13.403150 -9.906121 95.215179
5.313095 -17.832979 91.656479
26.902002 2.816579 78.370827
1.972387 14.240607 78.238243
18.941154 8.808807 68.796440
0.499202 -6.496686 71.689758
-6.861650 20.916731 85.087868
-3.933341 -12.462217 105.941063
18.872282 6.751089 79.423508
13.177172 -10.191762 134.466080
3.169540 -23.631979 69.597847
8.523195 6.608643 113.828140
6.978092 -9.738482 118.575058
-17.088163 12.755765 87.657997
-7.789093 -3.837028 141.899689
2.265361 -9.374063 82.415451
-19.470284 -7.560299 81.355598
6.836486 4.805676 115.833855
2.098261 -20.948780 73.840950
20.844830 4.469926 72.280312
-26.102640 -3.663299 73.442024
14.687056 1.323688 127.159363
-12.372766 6.467168 150.793640
16.126993 18.181128 73.502174
9.003963 -12.912114 131.779800
9.519250 10.948576 145.377945
-15.805943 -10.227569 83.027412
5.553823 15.603733 86.197449
13.883273 -12.586999 132.656540
12.471851 11.398795 96.947311
-13.158373 -3.240945 115.511375
8.402840 14.396052 94.661133
10.472241 -6.783162 112.941383
11.975608 8.975746 99.147324
-9.973981 7.006321 107.921913
13.054982 -5.698481 135.288834
12.339453 -0.462173 124.588234
11.368678 -4.737048 118.774063
1.447510 11.976646 151.500732
-24.395384 -3.145167 78.131470
10.154253 20.393509 71.463272
-16.819315 4.167188 97.392433
15.329340 -9.986932 83.955772
9.284239 -10.849376 85.276161
-0.799379 5.610273 115.526085
1.219965 14.643013 70.388870
14.206218 -9.640826 105.810081
-3.296917 19.346556 92.029404
-15.250775 -10.365656 90.478172
-13.496655 1.845336 151.692535
12.050244 -8.026680 126.498589
7.591534 -11.089418 135.610992
-8.442669 -8.940438 105.219803
-2.409649 -16.221466 100.936646
-8.337173 17.111729 74.128510
2.367348 -18.198793 96.710052
-9.727851 9.681693 147.997772
7.334044 -14.251878 92.268486
11.022435 4.643919 110.828148
-6.089419 6.485981 114.067566
20.063461 -6.615710 70.281578
-13.827601 2.090330 109.745705
14.981111 5.484024 102.203812
15.398568 6.026181 94.244278
-4.685128 -7.671507 84.794159
2.587056 -10.548223 112.441322
19.882462 9.951997 72.700691
11.225311 1.038724 115.194969
1.166939 -13.038164 131.519089
-10.454257 -13.244080 102.779190
-20.623621 10.540713 84.054665
-5.438134 3.750934 117.764549
-7.995656 11.931646 143.267227
-25.605103 -6.710858 86.248383
0.413553 -12.001898 75.916451
-18.149055 13.763639 85.910126
7.742693 9.537727 105.676994
-2.893611 -12.689219 130.665009
9.814653 4.872950 109.848328
12.283150 -2.385255 122.467690
-1.349511 -15.790513 87.965897
-2.467553 -12.863902 113.373123
-5.607696 23.289116 84.855156
4.350245 5.268860 119.931999
-6.558664 25.569641 80.798401
16.366596 11.041105 89.111412
10.106664 9.794860 149.004349
-0.516371 -26.196596 71.426521
-5.382780 -13.573912 126.061745
12.332036 5.105772 105.904594
17.265812 13.148127 76.665527
-8.013078 -9.952831 97.997475
-3.750943 7.956987 125.898743
9.105839 15.252988 84.962944
7.992069 6.486063 110.374039
-13.618531 4.911384 129.340897
5.587821 -23.913353 75.788216
-1.654175 15.320440 74.375900
2.154849 11.129047 150.339767
28.543903 0.477074 77.247765
6.228223 13.540428 76.321533
6.401184 -12.478877 112.414368
10.056429 -5.235389 119.150314
3.128606 12.727839 77.802155
-17.145443 -8.947989 72.391106
-5.073189 23.599377 86.176498
2.651853 10.228368 102.012405
-13.131111 -2.700390 127.241364
16.213875 -7.980261 97.266876
1.337955 15.153565 80.044998
-8.011056 -7.630324 82.174171
-8.615941 11.158636 101.707802
-1.761172 -4.926665 80.032761
16.433363 1.367756 133.152435
-2.658077 23.399290 74.102264
6.630774 14.328066 100.422264
11.805071 21.523195 76.027359
-6.987377 23.342772 79.065758
-13.589620 -8.445717 137.270462
-1.305064 -5.371778 146.697357
-13.497563 13.743358 72.533989
3.629028 -12.904937 123.668442
11.507538 -18.650808 73.340775
-0.779290 -10.283715 90.510170
11.359037 -23.177916 71.484207
0.962857 -11.211082 80.276459
13.147865 7.921617 95.364594
-8.532891 -10.521306 86.062256
-20.402727 18.337776 75.047264
10.257234 -10.949238 104.047699
22.920250 2.852362 92.221245
-8.967886 4.536854 115.810295
-13.725234 -8.035321 98.165337
7.767648 -8.717080 113.941391
-12.102364 -3.893588 140.834610
-19.865234 -4.253081 96.519859
-1.936426 7.958157 116.163841
-5.170658 -8.360239 92.346756
-0.752622 17.807240 78.113281
18.436247 6.632822 81.899284
-4.915915 -9.662195 127.464638
-7.746551 -12.458994 132.758041
-13.478676 2.203960 123.115410
-18.950325 2.597970 92.423752
-14.500726 -4.159082 113.611908
15.328835 -7.445316 96.307549
-11.105916 -9.687667 95.635071
17.716614 4.386981 95.278313
12.680792 1.554633 150.945404
-14.446699 1.161992 134.714249
-7.182154 -12.238415 106.656128
-14.380781 10.275290 141.489532
-16.674784 15.354922 85.411629
-14.706327 8.669395 134.326172
-10.137295 -11.933948 90.891045
7.895925 6.636388 110.452957
4.964875 12.670040 95.157181
-9.252883 -8.910118 122.287224
12.769721 11.613214 92.347740
10.821308 -17.858994 70.886284
6.664488 12.100004 136.132324
-3.649148 -13.717634 129.025909
-17.618309 9.090077 84.584549
-0.844937 16.974628 84.900040
14.618131 -7.109646 105.712082
-11.748280 -9.359913 139.775772
-1.900918 -13.441593 84.036682
26.014257 -7.739293 80.525124
-13.342064 -3.180824 114.880356
-14.138118 -3.666776 109.246162
10.793648 -9.214146 101.563782
1.364937 10.744217 151.131256
-25.717066 -8.178123 70.524368
-14.964668 15.281761 87.556190
-13.721083 8.532066 142.241516
-3.923236 -7.245576 76.682869
11.558782 -10.408601 136.832367
9.192589 -16.350645 90.575058
15.949921 9.420487 80.474533
14.469496 -9.632149 71.289185
-16.022690 3.566509 98.119431
2.161917 -11.436394 80.008423
-6.566985 -9.431987 123.537567
-17.323275 -2.599960 104.350883
-8.545048 23.012739 79.538208
-19.503738 -3.711385 96.281273
19.787228 -8.971352 70.438126
-19.122141 14.080315 84.513054
5.331110 16.219675 75.902672
26.827040 -7.360017 69.798752
-6.512858 17.729013 74.050850
-3.215963 18.996040 91.325378
1.010635 12.967591 83.343323
13.695309 18.841990 75.422714
10.335044 17.965387 83.635918
9.698561 16.653744 77.540421
6.888454 11.907192 145.431961
26.037054 -6.126422 74.873474
-1.597854 -11.313972 87.005150
13.118304 -4.358022 130.636795
4.655870 -23.772442 70.802200
-0.505490 -12.325165 91.395683
-10.064560 19.410423 78.297379
-9.752210 -10.913135 100.404968
17.295031 -7.068196 82.462517
0.768174 8.466372 103.823395
0.280505 -13.503209 132.199982
19.851490 -10.029530 84.345329
-9.731556 -9.667016 120.361191
-9.251868 -8.127744 122.293671
29.107281 -0.607935 68.926804
26.340353 -8.099761 74.181564
0.683926 -9.829236 84.058289
16.526890 -10.572781 78.655899
9.462259 1.112371 115.087532
8.325738 9.234688 128.598907
2.857433 -14.645824 72.025230
-6.833477 4.104017 117.355545
28.132448 -9.325412 71.697533
17.144648 3.194073 92.259636
27.823044 -6.459071 69.261070
-6.291319 11.594754 92.949661
23.734324 2.070160 91.272308
-7.044247 -4.874582 144.733871
10.888169 -14.357854 135.629364
12.157803 16.245266 82.491608
1.792054 -8.926914 76.229744
14.687150 -2.157678 126.159355
-21.235142 5.889323 73.297142
-11.844237 -8.283418 133.169296
-7.692854 -12.376937 108.144287
-6.471019 4.517845 121.180481
17.591816 9.382165 77.600525
11.261411 13.721951 88.210594
-13.222666 -1.195360 128.174454
19.573599 -8.171684 94.304176
29.048485 -1.915121 74.914803
19.508675 12.528351 71.498726
-1.349615 -17.154564 90.515091
-0.827405 13.844625 101.961807
-13.983828 10.127969 148.426849
-8.974413 -6.621375 138.670822
6.936408 3.831980 120.015396
-3.049093 -14.843693 126.488411
24.762758 1.404625 81.802544
15.907133 -7.571628 95.384941
-10.174765 -11.352137 104.382599
9.300357 -10.886817 136.857407
-13.147882 6.118536 129.198486
-2.766692 -11.258523 98.522926
-9.871914 -11.981459 107.301163
15.887138 0.864438 106.376297
4.947328 5.759964 112.349136
6.909583 16.243139 75.657150
-4.405440 15.639493 91.539139
-21.960514 8.148889 74.905540
13.841829 7.196806 147.710556
19.010649 -0.874814 99.055450
18.776098 9.259851 74.025665
28.394188 -7.180436 74.274551
-14.144051 9.292781 99.723404
6.090801 16.437265 88.406944
-13.784698 6.783614 97.733261
-15.647318 -2.438385 100.531166
0.942701 15.043891 88.509895
7.114641 -13.151711 130.607849
-12.806374 -4.057518 139.228149
-8.506165 25.331221 76.364441
8.988085 -15.411841 96.978325
11.236044 2.123079 152.277710
14.743698 -9.531986 84.712753
-22.446030 9.034727 76.131157
-14.621548 -2.903116 122.924568
11.173194 6.256561 108.777275
14.497679 7.245221 146.252701
-2.736354 -9.350759 82.277084
0.562359 -11.912453 84.409721
-0.177669 -13.025160 86.906143
10.025505 -6.994012 141.128632
-18.785864 10.197368 84.844795
9.470930 11.468021 96.100655
-7.769263 7.868495 106.220505
1.946705 -18.106663 76.241753
6.634139 14.226871 86.601952
-0.085208 7.114913 154.776093
15.905565 13.310685 86.587463
20.942255 3.351721 84.117622
-21.805145 -11.990450 69.279968
7.381436 -24.980747 73.870171
-6.359067 16.485088 87.407310
-18.158424 -10.158075 80.745811
-12.074278 13.099817 94.886940
-4.650445 -3.102335 66.462891
-13.090052 -10.545396 132.082870
6.910080 -10.927262 114.857666
12.656549 -11.316515 91.200630
20.104059 5.790190 80.933319
6.863724 -19.651711 86.553925
22.777805 -6.205891 75.790123
-24.616318 -6.992609 74.082581
-1.093162 14.600220 95.483559
-9.138588 -10.508818 89.040428
-9.373901 -11.847715 120.423416
-5.036283 6.040465 117.068146
11.449151 18.368778 80.138847
6.704901 -22.802608 83.444145
-4.241906 12.848109 86.714996
6.311656 13.640603 79.380264
6.986515 19.773268 80.499649
-8.826307 -12.123632 117.450752
-1.631861 8.608849 103.453468
-13.486620 0.160501 129.759491
24.003748 0.784890 87.014534
8.582913 -13.354136 95.344933
-17.904530 15.005071 89.328407
-24.721764 17.517809 72.140251
-7.001782 -12.006745 113.269211
7.726238 18.240944 73.168365
-3.622916 5.099157 120.637245
20.127752 9.168660 77.433807
15.565806 0.101107 142.322418
5.540404 -2.310353 145.820480
-14.286661 -5.232576 130.965256
-1.173058 -6.410315 72.690346
-8.547442 3.822095 118.316963
-1.753971 7.976582 126.346344
16.856472 -2.837653 140.442856
0.374489 -20.454704 73.474182
-4.455614 5.916558 111.473953
-2.795385 16.466553 97.007294
-7.009129 23.206005 80.721161
24.784449 4.348022 73.946861
3.541937 12.332681 81.419655
-12.486829 -7.918524 81.600540
-11.181708 9.637744 136.360138
9.976948 -14.808999 89.968903
10.314536 15.258732 89.103508
-5.916675 -12.381979 105.300934
-9.629751 12.419391 98.819595
3.054327 11.732512 97.325035
8.845693 -14.584653 77.751526
12.781144 14.559563 91.802849
-12.249135 -10.583579 94.448395
4.593012 9.890353 97.645271
-9.051276 -0.852243 151.379135
10.494149 11.040541 149.066635
17.732264 -8.051245 96.265175
-14.310457 -7.070972 97.354233
18.447466 -9.597588 76.619576
-7.673944 18.570477 79.973145
10.962685 6.927168 104.756561
-19.829380 1.410534 93.186371
-7.765543 4.492748 108.302567
-0.778758 6.562541 115.510834
-1.182216 6.478282 117.011009
-1.853255 -11.602057 119.541512
24.369505 -2.477880 87.881462
-0.747602 -12.582074 104.767250
5.793944 14.505103 96.852661
27.941917 -1.986137 76.714104
-3.039106 4.894299 111.886833
-2.719232 -12.611044 103.851784
-9.416487 6.733875 150.886536
4.485096 -24.818413 71.905907
6.236290 -9.803472 126.862595
-8.932693 7.111087 101.711884
10.709455 1.278037 120.598267
-13.866815 -1.308268 110.897980
11.288800 19.606575 75.152313
-16.705479 1.989264 106.934692
4.761101 1.127423 151.075363
-1.232046 -11.631266 124.371078
-22.835930 13.544580 79.257935
-10.094017 -7.714443 69.678436
1.112646 13.137469 84.806458
2.472144 13.544906 88.744972
5.424709 13.990841 96.510506
11.633008 14.600258 95.603027
1.075812 7.284846 121.975975
-17.624657 -8.967259 87.486801
28.091480 -4.814845 77.617691
-0.685185 8.791368 103.946129
15.172947 13.422598 147.686905
7.930953 -26.471445 77.413887
-15.601112 -3.064573 108.030502
4.220166 11.308145 92.333038
-7.832103 15.376422 90.331741
-26.917852 -3.129482 75.795540
1.166337 14.665489 91.803421
28.450747 0.347728 71.770058
9.612171 3.856378 119.870491
28.066088 -7.816452 79.535530
5.090899 12.732698 76.424370
-11.634621 7.909361 152.714417
9.800391 -13.145296 88.745338
26.135008 -1.031103 87.072395
-11.730618 13.160467 88.977074
-13.824097 9.978497 136.957916
3.244927 -25.455975 71.415543
2.059242 8.752402 152.532104
-0.140156 15.041671 89.847382
6.111827 -10.455513 108.876503
-22.417839 21.949593 71.916801
5.098319 5.938467 110.534073
17.859262 -7.491447 101.167885
22.552076 5.746228 71.252701
3.954259 -14.782615 133.632614
13.012672 -10.138658 130.264404
5.533694 13.591758 87.255081
-19.349817 4.957081 85.238998
6.699335 7.500143 116.367081
-16.933403 8.635301 94.594826
18.718435 2.867849 96.067444
-7.666654 20.733852 78.125641
-3.477395 9.647903 127.443802
-22.104027 5.891407 72.015656
8.978191 -9.140149 110.956169
6.281580 16.227842 76.818451
-4.837337 21.361002 74.834137
15.068613 -8.935899 101.776794
6.626931 -10.580620 111.298027
17.577484 -1.156930 105.932655
8.356577 -9.113098 94.861031
4.914174 13.267990 77.108955
6.004920 -11.994803 118.709213
-17.164242 -4.095656 104.943207
9.571272 -9.720078 115.733612
15.968756 -9.335340 92.121643
-5.303405 6.305117 117.603981
12.721502 -5.136791 124.420502
8.919943 16.983944 74.870987
8.431055 -18.738911 90.634850
18.447426 16.884342 74.812958
-13.330087 3.297364 104.962082
8.979937 -14.848064 84.532921
11.443900 3.458553 153.749542
18.776060 6.840352 77.647202
6.173542 -28.808855 74.912537
21.015633 3.157733 96.444366
9.466543 8.231306 105.594070
6.815358 6.685493 121.240669
-17.495327 14.770804 82.033272
8.259873 -16.547997 90.477554
2.292572 -12.433412 102.280930
-13.343170 8.199476 151.150131
23.017052 0.039565 94.663567
-18.072792 -0.598982 97.759392
7.409194 15.578810 74.324120
-24.618845 15.554580 79.826881
-16.703939 6.067391 88.231728
-11.670525 -9.944293 75.246895
8.720339 7.013930 123.197769
-10.898934 1.188285 121.884193
-14.665200 3.136156 152.113846
-5.482684 16.927876 91.893135
-18.097616 -9.911746 87.690941
-8.298972 -7.863309 140.046387
1.800524 -17.064226 87.620125
-16.434280 4.937552 87.489235
12.114025 -10.625065 102.676651
10.941396 -8.345857 138.817368
-16.585821 0.670082 100.605835
12.770894 -10.968894 125.522636
0.301557 9.421820 107.020233
-17.363434 1.279230 102.743103
-11.498632 10.380228 132.195175
-7.035109 8.483372 150.862289
20.327358 -9.706599 74.484177
-6.022426 21.538073 80.688606
8.735375 -14.272348 92.716026
-9.573411 -5.074823 141.302155
-13.786454 15.181936 91.085182
-0.133155 -14.330122 82.962975
27.336035 0.367574 77.197914
-14.933982 -6.271751 137.965363
-24.400276 17.913984 72.142151
-10.062568 -11.971087 124.371246
-6.553114 -12.221580 114.178238
-2.023436 19.974653 77.928040
23.275946 -11.525724 71.292130
0.449337 17.028988 80.431992
1.586391 -9.683532 73.789978
-22.748945 -8.202971 70.334732
11.478462 -2.343536 146.118607
11.823174 1.441671 113.032967
8.788529 -18.085304 80.844803
5.304619 12.327295 88.703407
0.234064 21.014105 76.982147
-9.911236 -11.215634 91.541656
-12.252609 2.282355 126.190277
9.552285 -12.074314 74.527130
2.258132 12.156588 80.241745
-26.626244 -9.806295 73.817963
21.741091 0.310100 99.530998
-1.349070 -11.423782 108.331871
16.206469 11.916595 83.739746
31.583168 -4.219049 74.383377
-8.357403 19.264357 80.134361
-10.809483 -1.824907 118.365509
-14.819830 3.346352 107.088287
19.335012 -10.861178 71.699799
-3.785294 -10.702912 107.813858
3.335975 4.812247 117.814819
-28.137211 -2.636055 68.827583
-15.023492 -1.983462 105.448059
13.800250 -2.210123 130.190506
-8.777773 4.513747 117.860710
-13.569528 -2.463062 148.988983
-18.272211 -2.516442 108.533325
18.281889 -6.605442 92.278519
7.853817 15.586469 138.031601
-9.764590 -0.244357 120.869034
-11.851941 -3.867810 143.451706
8.454261 -8.749900 83.879395
-7.939070 3.294799 151.578049
-11.185452 5.757734 100.089081
14.875327 -4.174492 104.893303
-13.196899 -4.939241 127.329849
10.979150 21.272083 72.451897
-2.120365 15.670035 101.208336
-0.814883 -4.364687 146.665497
-6.502865 10.203892 122.458054
5.639520 14.639394 80.985443
-2.740757 -5.066042 77.329094
14.512636 3.037533 109.503372
-8.014814 5.958179 148.925720
-6.842596 -9.728310 103.092896
2.742050 -15.646907 83.599159
-4.887272 -10.959398 111.770531
-2.239792 24.570227 78.450890
-2.323675 -9.503459 93.762695
13.170836 -9.111224 90.084793
19.937216 -7.607101 79.281830
-9.731348 3.845070 107.800858
-0.999632 -6.108864 148.056198
-16.918127 7.299941 89.945572
-11.555771 -10.974679 102.143173
5.556676 12.761615 151.086868
12.059835 23.346373 75.192757
-11.648143 3.099019 113.104675
-4.650287 -9.054307 96.956924
-15.495435 8.199928 137.956955
-5.330379 -14.769496 133.562225
-23.679096 1.207366 75.741165
10.656969 7.816764 105.764076
11.350873 18.203836 82.267395
-0.359545 15.692073 88.240784
-24.282990 -0.122829 86.362198
-0.392716 20.007576 80.935844
7.540706 18.282114 79.154900
-6.790307 -11.733118 110.764435
-15.770992 12.007685 76.067703
10.321815 1.195928 126.854118
1.584951 -16.248592 87.563538
-22.408323 1.176157 78.029648
-1.982642 6.788251 122.821404
10.462023 -2.823177 127.133377
13.945347 -4.389020 108.605537
16.877115 -8.677377 92.254288
-3.603302 20.518053 83.576515
21.991936 6.309977 74.989525
-6.352157 -9.522699 86.990265
15.587309 -9.549601 83.318031
25.793903 -7.482297 74.861626
6.369485 -3.693074 144.412735
1.746322 -12.839168 74.159691
4.145153 -12.934779 117.855911
13.358878 1.347750 107.527367
6.710837 6.975546 116.540138
-14.942391 -7.713105 76.085617
11.584003 18.214035 80.229614
15.330358 16.160234 81.306900
-4.746943 15.677305 139.259338
7.159179 10.102581 101.621521
8.297690 -11.923272 104.782951
12.696360 6.836418 151.242722
7.191607 5.095979 122.771355
15.955702 14.331697 78.461182
-10.707492 9.928598 145.910767
8.006866 -14.197440 83.808540
9.259146 -8.211789 138.881042
12.673675 -11.694871 131.505920
6.181859 13.784903 93.104218
-12.994105 12.084428 93.292999
-9.966448 -8.977561 83.924309
-15.749918 -3.935253 98.883034
25.610506 1.356160 69.177444
1.149718 -18.147327 87.814735
-18.040499 -5.409420 98.164635
-12.728791 -11.656207 93.050346
1.051336 -7.911379 75.270882
-13.531256 -4.266884 144.186707
32.318256 -5.484455 69.908379
19.557499 -9.964994 88.081314
-6.579867 5.944243 114.482681
7.365171 21.021124 70.309364
21.652180 -8.766650 83.740799
-14.914096 9.036965 140.542206
-13.864017 -11.387396 87.940613
-8.328863 -6.815864 142.216705
8.674630 2.061875 115.245674
-8.726259 -10.524456 103.739479
6.962822 -22.340860 84.025261
-7.807332 10.719856 100.858589
-9.866100 5.172235 123.170425
8.789471 -21.650898 81.952965
13.595893 -18.501907 65.530983
-7.569856 11.494773 137.947861
5.987904 -22.829142 74.906502
9.503901 18.547659 81.972092
12.598879 9.708178 99.221260
-2.227029 20.377466 75.901680
7.246761 13.996073 80.875473
19.778704 10.830336 74.354713
-7.983223 6.050875 123.939621
-14.171088 12.435971 147.529984
-6.456687 30.147366 76.033829
-12.137522 13.606289 70.230408
10.986189 -0.250195 149.964661
14.358300 5.299708 99.800591
5.992001 -8.746021 112.811218
4.514521 -11.785479 136.698364
-19.819309 2.964047 91.491051
-12.607681 -12.883172 96.812187
-2.029974 -8.931471 89.179214
16.040899 -5.548181 104.778206
-1.225923 21.403992 79.085884
0.738684 -11.213208 126.088287
14.086226 2.788736 121.660080
-12.918735 -8.836091 138.416534
10.863505 -6.374173 102.439888
2.956496 -18.240875 79.255768
-1.974751 19.887373 94.742546
-13.035982 0.168714 113.075821
-20.821201 -7.185952 84.941841
15.956122 18.635630 69.864120
11.482175 -7.376998 107.144798
1.439203 -5.069720 68.161942
-2.538523 18.432705 95.192986
-8.754335 4.151639 151.887878
19.832237 1.677360 98.335449
4.421722 -19.078697 85.799469
-2.080869 10.587108 140.973999
-1.573222 -12.238000 125.947006
-8.905884 2.347256 125.465157
-0.334681 -9.512308 77.833649
-3.221609 -12.543009 133.257034
19.375801 7.074913 80.441925
24.232197 -4.698809 92.529266
21.099453 2.129487 89.991501
5.103562 20.994152 74.375854
-1.405766 -13.588994 98.942894
-14.890624 -3.189109 133.809692
7.135655 -10.737734 104.978073
12.207934 9.249479 97.151634
7.777349 -11.356770 109.282669
1.137793 -1.522255 145.077179
-2.101160 -9.915483 111.680244
-2.996307 17.862720 95.908768
-12.003799 1.362547 110.112076
14.082089 -0.201321 130.419769
-23.392303 14.248886 74.438492
-14.636590 14.564130 93.000000
-14.240938 7.472757 134.451508
7.225803 -15.089107 129.577927
-21.944778 -8.312992 71.064789
-5.299746 -11.228230 125.956970
-1.865886 25.833813 76.442368
27.882341 2.009478 76.671700
9.452051 -17.593454 78.153381
-7.120108 4.063445 121.804893
-9.239849 -7.624626 142.996536
-2.243539 22.456667 84.824913
16.868469 11.345999 84.000084
12.248742 6.724830 151.464966
13.456977 -2.701688 125.443840
-6.986374 7.545798 111.565453
7.031320 6.013669 121.436996
-3.872989 -3.996775 84.776978
-4.307186 7.087642 123.047302
16.234339 -1.392303 109.077492
2.882191 -12.083717 130.676331
-7.958399 -10.039709 115.658157
6.149078 -26.260302 75.204742
23.998579 -7.614869 74.367310
-17.037889 17.508001 81.403137
-1.353116 -8.211134 79.770531
-12.148187 -6.196256 141.090271
8.337698 -18.998404 77.461838
-12.083843 10.895366 147.469940
17.732588 5.173182 69.602631
18.211666 -8.197887 78.162857
-1.593007 8.684997 108.766518
-3.693471 -6.728894 75.393478
9.392658 -10.572212 94.534225
-13.007269 11.121144 137.365479
-1.487875 -12.592858 129.940918
-0.343655 18.927982 83.900795
-4.697544 -5.240168 76.020775
-10.465930 -10.004855 83.122787
-9.087767 3.411363 123.328392
-10.131635 -8.358727 139.105026
18.343269 -0.864098 98.082275
7.366805 -11.121294 140.022842
13.074665 -3.060856 113.432167
10.834723 8.505350 131.945724
-2.753793 -11.288116 121.039742
15.996361 -6.591559 100.207474
-9.262777 9.272905 102.542824
-2.088677 7.188162 123.852921
-11.209298 -0.960873 123.706093
-27.363495 -1.989834 69.653168
15.925500 20.599594 73.931396
23.877768 -7.293965 87.193863
31.318775 -7.349578 72.442924
-6.833391 24.034365 82.360863
18.627417 6.553695 131.755081
-15.483295 15.224021 88.716751
1.911594 10.716187 151.795837
-19.194342 -9.638054 87.988121
0.943955 5.137576 112.086060
11.271023 -23.174013 69.436546
-0.681415 14.050148 73.773895
19.450058 -9.547403 76.338554
9.041213 -9.919802 124.530205
-14.357475 -4.087186 138.784515
15.011140 5.634930 99.832382
-10.224642 -7.002554 84.431198
-14.176929 -1.630330 116.128059
-0.538489 17.410032 84.550255
4.309804 -24.122871 70.586716
-16.493011 -4.131623 101.487457
17.807381 3.807647 134.496902
19.816669 -5.834760 92.765869
0.000815 -12.875961 99.328453
-25.110109 1.525725 84.868088
-21.179525 13.035223 77.312462
7.974823 -0.951596 147.358582
8.041522 -11.906519 85.069397
-15.339490 14.937663 81.729965
9.091111 -10.040472 81.889168
1.963867 -10.084489 110.571747
-11.092973 -6.319025 138.607056
-12.394752 17.380096 71.097641
-18.468912 -5.271339 92.022285
10.329421 15.843904 86.323586
8.726046 12.199203 148.038437
-3.024131 5.256120 113.697350
-7.217554 21.314619 72.258003
-12.595651 4.524747 103.786507
-8.516497 -9.722116 86.184128
7.926842 19.778076 82.953835
17.893915 -7.232748 96.260994
3.024925 10.871893 137.483673
-14.210640 15.387986 72.702454
1.254166 12.123497 77.087090
13.426089 -6.143519 141.786652
0.898720 -19.062937 88.903160
1.339574 -9.166267 73.912102
8.699955 -19.030304 83.578949
6.120892 -10.553471 120.559372
4.890542 4.715986 111.514259
17.776485 -8.973870 74.161667
-13.965244 -7.775057 68.902893
1.031428 -17.611382 83.393547
-13.441170 -3.628945 114.913635
16.273428 -2.425566 107.152184
0.898088 -16.877455 71.243927
5.004448 -14.781560 103.173309
-6.462180 12.754509 139.070236
2.012498 3.568041 116.414040
13.401114 -7.631227 126.830269
-14.789391 -7.339345 129.551544
14.341446 -6.012035 136.163361
-19.705673 -11.739260 78.673241
-20.529291 -0.487830 94.651535
-9.381054 -9.466398 102.488335
-14.029567 14.385050 73.183777
-2.518894 -11.880944 135.665054
22.652855 5.098672 71.069069
-10.919164 4.606215 118.733292
-2.569433 -12.910123 110.976860
7.321791 -22.590294 81.216446
26.024548 4.830198 76.997345
1.013886 -10.556772 101.350800
-12.437525 5.668260 108.943283
21.925776 3.544906 85.839249
-6.693995 4.703442 114.975334
12.782681 6.968284 135.330673
22.672926 0.344514 79.085472
21.672323 -8.282926 91.840477
-2.661470 17.512785 93.444359
-15.824676 1.444102 130.836441
-14.102107 0.406953 135.702576
0.560973 -6.617109 69.234459
12.183529 -7.407929 130.956039
20.550541 -5.176030 96.038521
-12.314299 15.228916 74.688980
-10.628570 -8.015506 72.349251
28.923168 -1.698455 73.688072
-12.230355 -1.235077 128.753067
8.373078 15.227772 91.958031
-14.420495 -7.125852 104.652710
5.411183 15.756453 72.668015
9.373215 -19.960003 71.905846
-0.501192 -7.275388 75.550446
12.906920 -10.072793 100.798676
-13.785523 -6.535961 133.692535
5.792138 11.964150 83.910004
-18.375893 15.246529 79.030891
14.970868 -9.239713 100.659775
-22.047688 -4.328261 85.877663
-14.731757 -5.798338 105.414452
12.650060 -3.423501 112.214447
6.189837 15.696589 85.180145
4.906435 -24.877264 77.490395
0.178313 -16.029196 80.227486
9.992318 -8.867851 126.925529
-10.172300 13.886878 98.529587
-14.599544 -1.730387 105.446632
-16.464495 7.176457 136.963669
10.650575 -10.078402 101.039482
20.533558 -3.018972 95.259369
15.925787 1.017558 133.438293
7.907480 -7.661600 140.901291
-12.087907 -1.174495 117.284950
9.359189 10.955201 103.058952
-14.629043 -6.893507 67.267525
-8.094489 22.661354 76.998245
11.460068 5.090908 151.178375
11.762600 -9.328744 84.511566
12.272906 2.051826 152.033188
-9.484406 -8.586649 110.440605
-7.268021 -9.283815 129.557831
19.076235 4.940069 80.646568
22.830891 -7.524898 88.216331
11.789079 -9.498959 100.645599
1.527148 -14.746833 79.088181
-0.233741 16.734379 69.144478
17.231300 9.526793 87.693489
-10.552650 -8.244693 106.619469
24.657471 -0.018719 96.467155
14.612591 -8.225172 98.048996
7.628499 -15.250438 91.748299
2.051516 -12.311439 72.558556
13.673281 1.785763 122.210526
15.546672 1.268062 133.143234
8.800432 12.523831 84.536003
0.753959 -12.522561 130.277664
-2.026865 22.666861 75.936935
-5.841403 -7.321052 76.497307
-21.721199 -1.527652 91.268364
18.387524 -3.889695 102.236282
8.741926 10.265608 147.942398
10.347228 3.985486 154.057297
0.298420 -9.584010 80.909058
8.259497 3.025577 120.283562
-9.794714 -7.757111 138.647232
-2.428930 -4.320732 143.462677
-17.942364 1.024216 102.795616
-10.950607 -9.885581 80.623520
12.188655 12.065603 139.197937
19.042303 3.677017 100.792259
12.067009 11.222253 139.071823
-24.572344 -5.158668 87.043755
-4.639544 18.485369 94.160095
-5.672199 3.557172 114.601631
7.420171 -13.852355 120.952164
12.490371 -11.897564 80.784691
-23.944263 10.048101 72.044647
-2.996472 -7.146451 87.335548
6.988132 -12.571777 111.419540
-23.581421 4.409032 78.509514
-12.706422 10.805903 143.709045
5.163993 -11.917199 112.960564
-10.901599 -6.763071 128.487411
-1.837429 22.903990 82.537529
17.775410 9.394990 85.329857
1.392832 5.349346 114.111412
18.258659 8.589705 72.945503
11.068607 9.020797 150.469833
-22.771784 -7.876632 72.290039
24.243177 -6.284189 89.820053
14.194688 21.367296 77.475655
10.781525 1.468279 115.253235
2.108481 -15.891953 86.189178
-14.504840 13.846605 82.508057
11.347280 -8.028395 124.084793
5.752728 12.672392 98.120911
-10.941294 8.233741 101.389847
9.849323 -4.024779 118.803253
6.884460 -8.868695 112.363899
6.140250 9.447611 149.339310
4.843647 13.375614 137.728943
11.022820 -12.779282 133.833893
0.077838 12.744926 96.030060
6.375620 -12.420444 130.904938
-13.863919 12.973253 85.171753
14.004247 0.067326 126.238724
0.785477 -12.570845 119.454308
7.663366 15.350297 92.836281
20.642719 -8.112562 94.050423
-14.569429 8.327755 94.228935
19.169943 -1.587187 102.217941
27.665943 2.358997 76.482964
16.867956 17.714973 69.785942
13.236831 6.791998 136.603683
10.284647 20.084755 66.806633
-12.143740 0.154267 126.723526
11.239059 0.548933 125.664360
-7.694497 21.662670 73.571381
-1.990286 18.354918 79.552582
-2.638611 22.424013 88.705582
-1.818374 12.887324 103.454483
10.591355 18.107292 85.357239
1.724170 13.301788 99.039673
-12.015116 -0.852178 123.475487
-8.603192 26.478382 74.953773
-0.541054 -12.977441 91.571159
6.495268 5.642968 129.047394
14.810135 -1.096713 133.478485
-7.643883 21.039080 77.195198
0.991400 -5.789277 79.114151
24.046835 -2.734231 91.239670
23.640158 -8.394728 80.603134
-0.449260 -12.324799 107.177284
22.481766 2.118937 73.906815
16.730167 11.943434 74.978104
25.926512 -1.589939 79.206238
5.356385 5.081789 117.719337
14.871331 -5.060256 67.394287
-0.123084 13.192838 94.306366
7.413388 5.107918 126.385803
-21.963732 4.262943 73.977112
25.456284 -2.759086 87.670334
-20.014505 8.791194 81.624077
-11.254878 -10.793576 89.257523
-25.474590 -3.596807 75.365585
12.416781 18.354830 79.176292
22.686632 -6.302961 83.096024
-11.910834 -11.405221 98.317688
-12.231791 -8.402117 135.277863
-4.535099 25.997324 79.426048
-2.568459 -6.168955 79.836563
28.526991 -6.940561 73.604584
-15.959165 13.955741 87.170898
10.144571 -22.654654 69.459877
15.899584 5.002931 102.010902
-13.494139 -11.395626 136.667252
-2.665259 24.736879 74.134140
1.984881 -16.075888 84.227814
-11.952145 -5.641051 128.027573
-12.277501 -8.597261 96.944283
-20.515617 -7.706343 73.082420
15.171737 -4.415731 140.909912
12.034805 11.755383 97.928963
-2.241603 14.599651 92.281654
-11.249967 3.517795 123.391479
-3.699582 7.210519 121.906082
12.683559 -9.249791 99.173470
14.249161 -1.976552 144.659012
-5.281543 12.101101 97.325363
9.948119 -25.936453 73.095573
-13.191955 -2.452473 111.069702
10.515332 9.553658 101.042953
-8.871699 8.111248 104.311073
-5.592934 25.404333 81.841682
-11.573810 -12.040855 134.055130
9.832073 4.823042 107.491585
15.130779 8.583649 148.413223
-13.854872 -3.915060 110.919312
-15.877814 2.481411 97.885468
4.614943 -18.495344 91.970215
9.740852 -27.321531 71.746376
-0.266713 -17.613470 91.335014
-7.703796 11.253733 95.012619
3.704957 -11.361988 115.312889
9.973042 -17.154512 84.044586
-1.652162 -9.165541 82.941101
26.246284 0.670292 81.400696
-17.552536 4.980593 92.067444
-21.102976 -10.280420 71.096352
-2.401983 17.501123 75.948463
-19.839912 2.909643 79.615463
10.346215 -19.263142 73.356331
-3.800997 23.015190 70.853661
-9.378058 -7.705188 76.658020
-19.153500 6.587284 78.842491
-21.642714 6.096090 68.332901
-14.602149 -9.608929 134.135193
1.086230 -21.691559 75.408600
-6.382106 5.161475 121.259560
31.495569 -2.856773 74.519234
18.607183 -5.016542 106.395126
-26.931725 -5.716954 80.452400
25.283876 -5.917920 87.364418
-19.138824 -0.836209 139.630219
11.539421 -2.337611 127.585075
4.991769 -11.359003 122.295761
12.767357 0.157966 111.429733
4.350251 13.407547 137.270020
-1.727967 -10.443707 110.513741
13.397116 15.117184 150.245361
-17.663666 2.398295 98.757469
11.947531 10.799242 138.317383
-0.930015 15.251335 98.509041
-8.373525 8.247830 125.723312
9.345280 5.708857 109.383995
-11.190928 12.884503 91.864960
-12.061150 14.949217 77.921600
-6.162258 -8.789941 78.564148
0.663841 -14.595531 82.814346
-1.468987 10.801223 136.598862
-8.380280 -13.419154 133.150879
-6.674211 -6.529485 73.524841
9.414457 -18.010485 84.821777
7.099213 -20.316488 84.351776
-22.965719 -6.093758 74.736603
-6.187179 -9.665023 140.751907
-12.668813 10.645215 146.863708
7.824926 -10.653456 108.688011
9.314850 -3.675060 140.515305
17.488852 2.825624 101.690384
8.123470 4.327548 122.874008
12.756771 3.252721 111.674080
-13.295002 -8.605846 134.124329
8.778443 -7.072711 140.675797
9.381501 -4.592346 144.489334
1.666287 -11.913014 83.810745
-9.065695 2.361074 114.657646
-13.774234 15.484100 83.287575
-1.878268 21.086382 79.815964
8.796185 -12.943398 83.018860
27.837515 -0.293749 74.425911
1.565649 -23.468733 72.897644
-19.647453 2.384408 92.865150
7.969673 10.118872 148.222595
19.635723 -1.235988 94.763443
11.906373 -9.458520 121.453804
23.551935 -8.919315 70.416672
13.097166 -4.484321 138.610687
12.170505 -9.924848 103.559570
15.393597 9.603374 134.643417
10.661838 5.678010 107.453636
2.846038 -20.474070 85.696083
19.267115 -7.472029 71.368797
2.785550 8.929749 101.456757
15.752669 1.504301 104.579338
-2.832851 3.023745 113.592697
-7.614864 -8.985754 113.528442
-25.917887 -7.466305 68.774124
-4.612480 23.546682 86.109261
-3.735672 23.882320 85.299019
2.411654 12.319125 77.386215
-21.913990 1.786543 83.479675
16.405071 3.955519 101.892365
11.826636 -3.848176 119.608704
15.066335 -6.883205 140.171112
-2.136992 15.388839 84.741600
10.519991 -22.629230 71.293716
-11.171137 -2.833612 145.840637
-9.610927 14.412338 91.272423
-10.229084 -10.781210 120.983902
0.302310 -12.175988 75.302345
12.301116 -11.898454 73.171906
4.708441 5.166430 112.812660
6.976438 -20.087124 85.351700
-8.545492 -7.106073 93.158417
32.519684 -4.691494 71.670441
4.031534 -21.137718 86.293068
-7.564437 -9.392662 138.911087
12.760041 -5.820055 113.691711
-4.946787 -13.922160 110.767242
-0.593478 6.349756 107.697128
7.567408 -8.563312 99.302818
3.306362 -12.739624 131.895126
9.252016 -4.755998 141.275574
-4.252646 -3.359474 147.865662
-13.746728 3.824347 104.093307
-4.931429 5.562284 114.824234
8.720372 -8.560908 110.180984
16.495518 9.707714 76.012779
-5.837587 25.791142 81.177071
10.153026 -12.743705 80.416260
14.277761 15.359050 89.193146
-10.665003 -4.245661 118.569267
-11.114423 -4.901456 143.311188
2.650572 11.682129 80.265045
25.227825 -0.711845 88.564972
-14.150221 0.166641 107.827309
11.537229 15.211789 88.842232
2.852921 -18.144548 88.905350
12.622875 18.263781 77.875076
0.566528 -12.209877 101.950333
-19.571039 11.541389 80.988365
-21.581055 11.889271 77.937103
-0.687123 13.967970 73.143311
-4.709894 -6.249906 78.741753
-15.659004 -10.987304 83.745087
11.115777 -21.794088 75.802711
-11.296487 12.327419 146.620148
-6.574761 -13.125702 129.583145
0.812987 13.779772 84.697105
3.185686 14.844617 78.105919
0.078739 -16.306641 71.416794
-15.752420 -4.099585 100.382103
-16.656466 16.559551 77.874481
-10.172459 -9.470991 87.263634
-17.788662 -7.984080 91.203674
22.311316 0.741305 85.162926
-11.168083 7.533628 101.543266
-17.422064 15.925252 78.563660
-5.866808 12.770499 89.613960
-14.179195 2.533938 113.475853
-15.970868 -8.588835 73.821991
17.464960 -7.626040 95.568085
-23.860912 -0.313076 82.066368
10.446054 -5.756514 115.143394
-18.256508 -9.421753 83.836876
12.525419 18.502775 74.326576
14.392673 8.028893 94.997704
-18.662317 -5.124579 91.532898
12.486660 -8.186613 101.053810
-0.962568 16.967239 85.025986
18.602606 13.922161 79.340393
-25.594570 -0.426942 75.307884
2.365527 -14.830387 101.475853
-17.335684 1.545120 98.565109
15.197053 5.026245 141.511856
-21.875866 13.174019 77.834381
-13.155092 -9.406994 89.023674
13.441842 -9.773391 127.996117
-13.580682 3.505474 132.450485
-10.398254 -7.693543 73.803963
19.964573 -8.566177 83.863396
-13.293412 15.102161 75.328491
-6.757725 -7.011153 92.714943
-8.855607 -11.518159 95.067688
7.735819 -9.020808 109.162979
-1.041174 -12.291863 90.429962
-11.221471 -2.901580 149.858566
-14.609261 -9.033907 102.896767
-12.248430 1.888374 125.660507
-10.478729 -11.107000 83.125893
11.151054 -5.260597 123.878380
23.703175 -8.658658 75.847290
-3.776783 15.124588 95.760918
28.937752 -3.707200 76.322479
4.011299 -11.579798 114.096107
-11.038647 -5.703576 142.118027
8.029500 -12.158028 100.317924
-10.293394 -5.142373 140.500824
-15.285625 -9.220264 98.732834
17.429153 -10.292822 70.494255
13.351116 13.882054 84.344032
7.238733 7.718608 125.975037
-0.984616 -14.283421 115.712646
28.308155 1.287309 76.532692
-2.938887 19.920916 83.738785
-2.287697 13.947536 99.216278
-23.778379 0.535457 86.345551
-6.623609 -7.052095 82.653687
-0.519449 6.564661 117.538094
3.704433 -19.730970 82.597382
7.474874 16.112402 75.492439
9.202124 -10.312202 102.660156
3.133966 13.797554 74.712738
8.356056 -12.183784 121.675461
4.356124 -13.076930 119.813530
-4.784689 20.246830 90.931137
14.883821 7.093406 134.484711
12.546059 -9.685588 102.548210
4.340100 10.172902 106.734726
-8.710851 -14.649515 131.858536
27.382864 -6.146793 82.112473
1.955957 -19.186653 70.735855
28.707556 -6.403740 78.688904
2.461467 21.127363 68.982285
21.940762 6.517160 70.135445
10.137743 9.054272 104.737869
9.887755 -8.141843 141.484009
-8.479648 22.968224 77.867523
14.474723 10.260509 96.931572
-4.321216 -3.019650 146.124039
20.621330 -7.615253 80.331688
-8.759986 -10.112576 85.784286
1.983217 14.152604 95.448486
0.004201 -16.465542 75.615273
0.214208 -7.021647 73.057259
10.560143 3.657667 125.558075
11.559220 9.662967 132.151642
-4.290812 -11.984031 137.207336
21.487724 -6.538609 93.883919
-26.451601 0.063857 70.613029
-14.542345 -3.289690 111.505707
7.370038 -11.632529 112.248001
-4.858642 27.489416 72.574417
15.948754 9.101164 87.394424
-15.392944 -9.100896 133.990265
10.251016 -13.208188 83.135361
-8.256849 12.500783 99.546768
-19.413431 -6.541781 89.343529
-16.771753 11.501842 139.715286
6.044443 -20.252394 96.384766
8.430865 15.736341 94.098564
16.211016 -3.531365 104.841690
-12.248036 2.962696 116.616539
9.125762 3.827353 121.045464
-5.261350 23.588491 74.822899
-12.711335 12.425838 95.961594
-9.944550 3.023791 120.110527
20.356462 -9.309044 78.663948
11.372199 2.271415 129.916214
5.499796 -15.824058 97.372772
-25.497253 -4.574981 73.147827
-7.000840 7.976831 132.972534
9.136868 9.443789 104.203621
-19.388973 -3.987298 80.298447
-17.646931 10.061337 89.570160
-25.819769 -2.714335 73.587410
-7.293233 5.434652 121.325005
-0.242393 -13.996035 93.349075
15.690346 15.098784 74.391655
2.774034 -8.567065 108.595757
-16.514450 8.992327 90.692833
16.642094 11.712167 73.009735
-14.983601 5.500413 134.703918
-3.912154 25.104847 75.271301
-15.775243 16.634521 72.936363
-22.461481 11.506518 82.496925
4.274522 -26.192307 70.459427
-11.128485 12.097135 92.923645
2.907728 -15.789463 132.993729
-26.323866 -3.343599 80.038673
-9.109159 5.991138 110.918259
-13.149870 -11.452579 128.695526
-6.736389 21.503754 85.449646
11.828814 12.498626 91.519165
12.909872 7.776016 102.245338
2.548728 -8.813127 74.048836
9.959219 0.786429 149.131744
27.558868 1.306470 75.077568
10.027658 -18.198648 74.231140
-22.181377 -9.169880 79.891975
11.286047 -11.194505 101.427811
13.886037 -1.406538 111.495506
12.994402 -9.170851 80.176628
6.739398 20.162821 72.620583
-13.554172 -6.476704 114.895134
11.403152 6.070484 130.778397
-25.542147 10.560706 66.277924
-1.230648 13.850279 100.026955
6.733571 15.772922 76.500679
-12.163981 -10.859745 131.416672
-21.248396 2.487941 71.203461
-6.226919 -4.669514 69.931473
-11.315673 -9.827046 123.820541
11.566689 -13.297610 71.459198
-18.560360 -10.037987 82.049164
14.304784 -9.535085 95.015533
17.745922 -6.362420 93.380074
1.607744 -13.776814 84.168304
14.017087 -0.785461 148.183105
-8.185669 16.508490 87.015556
-14.130417 10.800000 101.769653
13.126412 -9.413518 88.262978
-9.243325 -8.767275 141.278641
10.640506 -23.704290 70.840370
-12.452893 8.554037 148.693893
-14.344764 -3.476098 119.513687
16.899984 -8.554841 96.426666
9.575596 -14.866224 75.839455
19.220182 -8.120008 77.455566
-0.276105 22.298513 72.076729
9.684226 6.004016 110.011368
22.333961 -8.235832 88.087303
-3.428945 5.155136 108.396835
5.924384 15.325074 81.607399
-11.129212 10.581197 150.281143
26.088844 1.617649 70.951805
-3.286577 -11.200365 106.531136
7.122391 -13.878306 128.670151
1.167035 7.338297 123.910095
31.533569 -3.050472 75.633270
-3.230668 -10.797318 97.419601
-0.690355 17.982264 90.753174
-2.596324 14.992044 89.693733
10.181396 1.612927 147.658371
-0.679913 -8.451364 80.871742
-9.071259 12.428339 139.382706
-0.744509 6.237221 116.652870
-21.941158 1.720723 83.532906
13.788784 -9.941332 98.797951
1.092725 -11.394953 81.950714
13.660555 7.591889 134.538483
24.313656 -4.865077 87.798218
-2.041294 -13.066464 109.918098
4.335349 -11.678656 121.807327
1.557868 12.819345 93.306999
14.459493 -1.353089 131.024857
3.610344 -11.693582 109.978302
15.559520 6.407324 91.611420
-8.641384 15.364143 74.019936
3.888808 12.547287 85.550865
9.761343 3.369972 128.027573
-10.529575 20.912148 79.909378
-0.671392 21.524422 76.074440
13.419402 -9.572142 130.574875
-14.563341 10.531027 140.678360
4.643236 5.029935 122.852386
22.200253 4.421984 74.285110
4.396056 14.513398 81.135765
24.703468 -5.659291 87.731895
-1.513682 15.320912 99.224617
-23.489010 -9.832311 72.872108
3.818766 8.237992 128.408951
7.328167 12.564192 99.045967
9.851902 3.412519 124.585419
-19.338955 12.188621 83.144913
-24.049723 -5.017451 77.239037
12.020625 2.110378 108.780289
-6.643945 19.661375 75.685379
-14.209522 4.446207 131.655426
7.325235 13.352385 79.749863
11.739743 1.555144 148.193771
-23.842373 0.968261 84.506721
-19.128172 -7.164173 89.173676
8.864713 -18.228073 81.529312
-14.129168 7.433310 98.127502
-13.621058 -11.263893 80.485069
18.224161 8.474408 71.655708
-12.615974 -10.111505 129.133530
-7.339962 10.705935 104.278572
17.479572 1.660506 104.059479
-20.107796 2.169493 82.807930
2.686235 -14.387922 70.375755
7.356091 -11.575207 131.031357
7.907892 8.837869 126.032318
-15.468866 -10.661946 67.941231
-16.396610 15.335932 82.138687
-16.658497 4.934572 90.645813
24.521584 0.213691 90.906624
-8.571583 -9.751436 86.694107
-11.619078 7.094497 151.517899
-13.538250 -1.199286 113.409966
-17.882275 0.981658 99.306488
8.756513 5.529757 109.715645
-5.863459 6.141858 114.628052
0.622080 -12.328228 102.730240
-6.260235 18.624630 81.414139
-0.702007 -13.371507 122.270988
3.217296 -12.165545 135.395126
-11.364860 -10.556346 101.817711
19.983078 -8.810572 79.721634
14.838070 -3.754534 135.262665
2.303142 -25.913019 70.652626
-8.415005 12.140824 97.928391
-11.861227 0.849680 122.844681
10.815964 -5.366199 112.763351
-0.773841 -12.858010 108.749756
-3.890457 -9.935507 123.483559
-12.270089 -6.451218 129.889069
-8.874178 -8.298069 74.920387
14.698951 9.816892 91.198769
-14.679452 -7.777571 102.713989
-1.383420 18.493973 86.700989
0.164911 -10.647528 120.584686
6.801258 9.004496 127.703903
-3.120004 22.139215 72.301788
-28.355736 -4.427462 71.986252
-19.302052 -13.222030 66.463028
9.983213 12.529452 100.245491
0.318169 -11.248032 126.342148
-23.118380 -3.291399 86.928238
-7.040126 -8.718706 125.403099
7.657799 14.541794 95.986176
-19.360495 -7.293905 89.493767
13.167644 -5.103013 143.822678
15.468084 7.147062 89.496101
12.831780 15.623295 86.958153
-1.850566 -7.717058 90.324333
10.444790 -11.451006 77.425827
-12.461481 -5.789963 131.656265
21.752590 -7.950769 82.368973
-13.670301 6.804507 153.522110
21.736004 13.272164 77.185265
8.274969 -11.713561 137.867661
9.547693 -9.782076 128.195587
8.471115 14.444236 84.733124
-0.409031 14.021378 86.051094
12.413491 -10.847693 90.013283
10.043118 -13.971040 90.010681
-24.352060 -8.292761 72.545776
4.255323 7.487433 105.149147
-10.329657 13.989466 78.498497
22.296627 0.946037 86.957291
11.132316 -21.109871 70.490868
2.339743 -15.575175 84.320122
16.132328 4.585168 128.277451
11.157181 6.755927 127.644753
-12.032157 15.414586 72.738297
-20.045126 -5.217905 90.425659
-7.282844 -1.817947 147.348282
17.365850 13.079127 70.570946
18.065140 7.026077 87.294289
-19.329651 -9.494596 87.102898
-10.536676 2.251888 125.736824
-11.894247 -8.389191 91.905945
11.462763 4.154161 122.631279
-20.401165 9.754033 80.233673
-25.113380 -0.165003 73.835632
1.546347 -13.550026 110.052208
6.518252 -10.477021 122.013474
-0.936887 -13.299268 129.954071
15.686986 14.893325 75.882248
-12.744862 -2.722200 118.070328
6.894523 -15.708307 70.153412
-8.758413 -9.280124 109.102043
7.183918 5.547573 109.995209
7.666975 -9.275643 99.150528
16.966881 -9.030046 91.065636
-18.256935 9.400290 86.113487
-5.332783 28.194292 77.820473
23.097193 -9.108133 84.122688
1.807446 -14.137601 114.391777
-8.577880 29.018076 75.035065
-4.264083 -8.782353 86.755867
17.848036 10.447817 78.585236
12.200641 -6.704814 121.111710
-2.331107 14.591890 96.168915
-1.870612 -5.300263 69.739883
12.299135 -7.915639 89.921036
-9.155791 19.735779 73.241081
-18.332207 14.170280 88.705460
5.991387 10.743050 89.157837
5.557998 5.386538 122.508858
-2.056298 -12.296439 101.469872
-9.803542 -12.049932 132.023361
6.830219 14.805904 78.222130
-10.627491 16.617071 77.398369
-19.270922 1.437105 94.662918
-12.345165 9.437072 148.411774
-12.605536 -8.917920 92.021019
-12.772816 3.370152 136.505905
-0.739385 15.672237 98.002434
2.410634 -19.347540 71.749603
-1.030943 15.836886 76.966835
-21.859793 3.989686 69.407562
2.369457 11.867645 103.749771
13.335113 -3.139452 125.081879
22.734100 -4.246695 93.343826
-3.686703 13.054662 101.501961
-21.613348 0.050416 92.992050
9.778296 0.082148 119.878807
1.903420 -9.683960 80.571228
8.670364 -16.196554 81.600632
6.852064 -12.776722 134.387909
-3.610679 11.534782 103.361786
3.747381 -10.499217 119.447021
16.356764 4.262228 98.733986
2.737966 11.774222 81.307785
-13.535699 -7.042108 95.549164
-18.035570 16.671333 78.801872
-15.404232 -6.907035 100.326576
11.178452 0.658923 113.441689
6.008673 12.839934 89.790939
11.825156 -11.042494 71.403946
12.953460 -8.900565 134.740662
16.948875 -3.212703 105.430611
-9.393379 13.023419 138.841553
-12.355701 13.568377 77.898552
1.410553 -8.613605 77.131760
5.987391 -21.628090 86.911644
9.141509 13.087417 95.947823
-17.839605 -10.591808 96.895241
7.741124 -21.456232 77.293915
21.748186 4.593688 79.156441
1.446010 12.647604 94.263786
-4.370899 10.456084 155.195755
10.555837 -14.059564 78.323853
12.492942 0.975727 119.298859
-3.803224 8.101240 105.130302
-15.143992 -11.470411 93.914825
-12.138292 -8.854504 109.165604
-7.906798 13.057391 94.236382
-8.704269 11.373909 152.103241
15.221185 3.736313 99.677544
-15.535070 -5.777767 128.390106
-2.753405 23.548542 81.981659
6.046906 6.393273 120.172066
-23.922693 10.793644 74.000839
8.628524 -11.591354 101.641418
7.412984 -12.098316 127.796959
25.772135 -6.392243 83.021446
-9.638861 -14.459413 136.314133
-12.265908 11.145653 138.749619
-10.917665 0.286240 121.628517
20.911057 3.436243 80.538521
-4.921505 -11.659810 104.912468
-1.272640 -9.642118 127.499855
-4.401321 4.970641 118.515839
-10.632169 11.958068 138.587509
15.043633 -4.036224 107.283287
14.821959 7.894624 88.935234
24.061064 0.513581 84.867752
25.584576 -8.969045 76.196999
-15.269337 4.416724 104.981827
11.561807 -0.294808 122.980255
-7.177227 21.453384 87.495850
-11.314814 -10.113969 81.400955
1.206295 6.769234 114.972710
0.883930 13.019127 100.513023
1.075219 -9.360314 79.238182
15.224803 -8.968973 91.928413
8.870197 -18.072191 71.119965
25.537436 -6.287740 86.160339
-5.241183 -12.816213 125.565025
18.627436 -8.406190 91.176544
5.106102 -19.818907 87.293289
5.580817 -11.992423 114.602936
12.085409 -7.697918 112.469070
-7.210273 -7.443901 74.699310
25.070330 1.388265 87.872276
12.157965 -7.388553 139.818405
18.292393 -7.804435 89.951805
6.875168 15.071431 81.861664
-11.897151 -2.285893 123.145279
-4.597129 18.282835 95.029480
-16.841690 -1.438903 102.140732
-9.653740 -10.499174 136.978348
0.351729 -15.211835 75.401726
-6.915408 -11.377202 105.471046
19.847334 5.067606 84.893394
1.498802 13.621288 79.908165
-4.836248 -5.350034 68.554260
-0.679565 -17.424049 88.691299
9.721575 -3.927204 146.280609
17.286570 -11.558558 75.760033
-3.927454 24.178465 82.103851
-18.396505 1.755680 92.722923
-5.016154 -7.888344 90.306892
12.348864 5.338015 133.558136
21.511599 -9.596234 87.600029
16.889835 -2.605575 106.828079
10.743719 -1.401596 116.012833
-2.992008 23.307568 79.684341
22.709810 -0.066219 98.008537
-0.649837 15.755241 78.346184
-2.210175 15.604414 96.934654
12.518354 -3.391524 113.304375
22.843185 -11.295635 70.615097
10.339217 -22.986097 70.831482
-3.574730 25.463232 77.659363
-5.611082 -12.971491 108.812431
-13.359050 6.253638 101.850533
2.551902 11.828491 100.066216
18.303078 3.752040 101.961067
14.854270 1.028859 110.486526
-18.677628 0.697845 94.474556
25.317402 0.430828 87.665459
-8.757044 -9.272750 140.398026
-17.891878 -8.997251 90.730179
-1.752830 9.799327 149.358643
-15.317687 6.639067 138.477020
-17.743492 6.720574 82.129242
-8.296253 26.777584 77.316803
-15.270151 14.360444 76.401421
7.049221 6.457871 108.537750
-9.368746 10.138428 100.341667
-3.752463 12.038629 100.095688
10.868688 -7.953607 102.728851
9.666389 11.478368 145.389816
-1.539060 -10.622417 97.064163
19.337318 5.932511 90.647499
-8.795271 12.545861 89.159363
-7.489182 8.817231 104.664413
19.457792 5.464849 84.715729
11.074373 -17.810900 76.209290
-0.022831 16.288836 85.132622
-17.021097 -5.636124 106.983643
-9.612691 16.308519 76.424362
0.667016 13.784981 93.431786
-6.567625 -9.718022 98.465424
-1.309794 4.731980 117.256760
24.887510 -0.272857 90.595840
15.444631 -10.994549 88.731270
-10.100490 4.420774 106.126419
13.254145 17.762316 78.002449
-6.676170 4.766720 116.063599
1.383882 -15.323052 88.201111
-20.370066 15.458306 73.614723
-1.277166 17.530117 88.604195
-11.992584 12.691178 87.786995
-3.619379 15.333823 90.241974
-16.142408 12.044044 87.265976
-22.005154 -7.535956 91.817863
14.859116 5.519958 96.756203
-11.984900 8.561734 137.277756
3.098971 -12.574901 120.976036
1.680914 5.744402 121.902908
-2.807046 6.395151 116.033371
5.025853 15.633691 81.658775
-2.677377 -12.496194 124.104469
7.222501 14.790575 86.913223
5.936257 10.010798 105.353844
25.811716 0.150187 78.408325
10.240637 -12.740925 77.018997
-6.903957 20.864731 73.770279
12.479538 4.060229 124.200783
-12.454628 -12.142721 131.786194
19.640335 8.734597 76.640236
-22.008493 9.213280 80.454353
9.553384 4.764386 106.827324
-1.448610 22.759472 78.423431
10.984824 11.079862 151.671234
17.235378 2.882874 101.556580
-1.586452 16.365997 96.071739
-10.004482 5.016695 152.511200
-0.026795 7.919324 120.512527
10.419874 2.757324 121.082825
-17.666147 4.733205 96.249344
9.990644 -19.655779 81.983986
10.716746 -0.041027 147.411835
-21.163746 0.991863 90.345955
-24.617899 -1.504746 77.040260
13.146872 10.178898 92.179283
-12.585743 -1.097433 111.880867
-15.133449 15.040150 79.870361
3.013052 -6.151567 68.990799
-11.468260 4.726028 107.076004
7.769623 8.079918 150.255127
-7.860207 13.190184 95.957642
0.286530 -9.921976 117.292397
26.500204 -7.127252 77.403427
-13.574718 -10.616735 74.054626
1.524600 6.747365 109.384148
-13.460616 0.111263 130.778656
7.175851 13.682178 93.180649
14.159790 2.345764 109.468292
-12.962177 -6.377745 137.163727
-21.560518 -8.691201 75.680283
21.267033 2.625055 94.125862
8.838177 -10.647058 106.713333
14.390714 -10.199205 131.949417
14.668461 13.578044 88.623405
-13.869737 1.515761 133.648453
-13.875935 -5.927324 133.387878
-6.800061 -5.913365 142.431122
-27.575895 -7.248265 68.808792
-17.058525 7.140166 93.082840
9.479682 12.043905 137.090149
24.746746 1.045461 85.806320
5.521411 14.484931 81.362206
1.374096 13.779728 96.488220
24.700453 3.834839 74.495209
9.476710 17.881529 81.650391
9.394201 -19.120010 77.954300
-20.090946 12.713066 84.277412
19.369236 11.020747 75.153862
4.382052 -18.606829 71.216568
-6.438795 8.608240 128.509827
20.415958 0.643428 99.227478
-3.222331 -4.014728 147.177109
-9.647032 13.487947 144.760880
16.191317 14.775900 73.984245
9.915617 -9.985721 71.401688
1.427601 14.475864 101.416130
23.069210 2.513905 73.639442
2.140354 -15.736244 81.417282
-11.794455 -9.632156 77.922676
-23.443714 6.144150 68.787994
9.202197 2.752661 122.438393
7.307776 -0.833831 145.446274
-2.535044 15.143416 93.736046
-13.984096 -10.624876 97.349739
21.019199 1.501261 85.159752
-7.030240 6.494776 119.763985
-20.006853 17.542908 74.268478
-10.662092 1.816744 123.079384
-7.234078 -7.628237 77.864944
-0.116681 12.353004 89.633018
-3.820653 -12.028480 99.247482
-16.510046 5.817094 95.122215
9.053983 -7.735363 139.524887
-2.088526 -13.811204 109.680801
6.061100 4.541700 117.532700
-12.230987 5.096439 131.610779
19.329418 7.823849 72.616425
4.400064 13.583527 93.986755
-1.064391 -12.110927 110.767380
1.227256 10.311800 101.929825
-6.709953 -10.564289 121.116104
22.131697 -1.119426 94.619385
3.852440 14.515000 72.126640
-23.360052 -2.719917 86.355377
16.991507 1.298794 105.597839
-13.572792 -6.751176 125.282310
-0.980646 15.883342 96.516251
-6.317614 -7.566304 84.233513
-10.725621 -8.835331 125.871696
17.379419 -8.803741 72.289017
-8.679083 -7.940437 76.107422
8.337548 -11.050215 123.898232
-8.231725 -11.366637 122.479881
-25.996391 -1.416268 73.600243
-18.811396 14.280428 84.493706
-1.686759 19.619928 79.614769
3.955765 -18.231174 72.126976
19.329082 8.402953 70.336998
3.212739 5.398050 114.443596
11.438327 5.299313 124.817970
-9.238270 -11.591789 91.133904
-18.937206 7.386625 77.921280
-14.653646 1.946347 101.780067
16.369614 4.602955 94.417458
-15.898712 16.332676 82.250862
11.870289 -19.667101 67.480583
5.919988 3.573227 115.633575
-22.402905 4.047446 87.135895
-7.401334 9.069595 103.074089
15.425988 15.956836 72.828568
16.918501 2.697498 101.220627
-4.408458 -11.360085 107.739616
-2.294893 10.026629 103.570793
5.654690 17.968973 70.174469
-13.242543 -10.081362 130.359467
-7.882886 -14.320079 127.536827
-11.621586 10.525569 141.223770
16.057419 2.189638 100.396469
-14.569643 12.261720 89.815338
5.174995 -10.744556 103.263947
12.928435 -4.898252 119.447777
8.286184 -18.216181 81.977989
-7.288064 -10.460692 107.994698
-9.315423 16.985052 78.189812
-10.676831 0.516856 149.747116
13.721582 18.296267 71.591637
-11.999354 10.904735 141.381500
-12.313233 7.734360 136.743958
-14.872269 10.238426 139.153030
6.036050 10.831079 103.388199
4.962355 -27.484734 72.695053
8.000237 -13.148783 138.051453
-15.560884 15.961661 87.897179
32.261612 -6.007468 67.149200
-3.257532 23.239651 87.059319
-3.473926 -12.901071 129.536057
-1.793169 -9.473584 87.168594
-5.302314 18.564356 91.962364
-8.603715 1.996797 117.226692
0.934376 13.726979 124.026924
-22.316574 5.056792 72.342155
-28.067656 -5.269312 72.265617
-18.857895 18.494009 73.905212
20.666857 -8.123095 76.745544
-7.072590 2.480715 116.459236
-15.896533 5.457660 90.076393
10.153733 -26.202770 69.761429
-2.821362 -12.849460 85.521873
12.338697 1.237108 147.313461
2.739767 -12.714662 125.080742
14.971601 -3.693147 111.613861
-15.460737 3.109601 105.409737
23.729488 -0.737477 92.657883
8.738585 -21.532261 73.413063
-2.561851 18.390133 93.008293
-15.660271 14.182863 80.310013
-15.971172 -0.289703 104.046959
-19.956932 -6.460382 88.564041
0.350969 -12.905016 118.125618
2.416042 -24.030651 73.827705
-13.142851 23.256985 74.163231
-5.284299 -13.455297 130.827408
14.767922 1.130905 133.492981
9.887996 -2.245857 146.545425
-10.259462 -8.728558 91.513466
-17.777643 15.524227 82.221832
4.056599 -11.893877 126.869064
-6.329956 8.436437 137.307526
-9.686762 -7.969055 77.524872
14.802924 8.366808 97.669594
8.814070 -20.693829 83.022263
10.823872 -1.071670 117.076164
-9.700403 -11.307054 102.939522
9.558017 -26.828497 71.247063
15.021036 10.440053 139.624710
2.883989 7.342637 113.347786
9.543154 -0.315673 152.324982
-13.249443 3.775527 129.113556
9.630605 17.834541 81.911575
7.350718 -16.191620 130.387405
8.099099 -12.943027 131.484024
-8.028691 23.140675 79.269180
-14.075204 9.634871 135.938583
9.436611 -7.486026 97.165916
-10.153962 2.820116 121.800285
14.894625 7.000045 135.878616
-17.544502 -12.369527 72.829765
-5.445126 -11.865773 128.102859
10.696924 -18.592857 84.555519
-8.912691 -9.228768 105.643394
6.408872 9.657167 156.347977
-6.208652 -10.676634 120.789749
-18.103964 -5.078659 95.509926
-7.860032 -10.796479 99.259171
14.887264 -6.336306 111.721207
-25.314823 -10.298451 75.373329
-14.804556 0.031443 133.330948
-10.706416 15.652451 72.472984
20.019060 -8.095575 74.748413
-2.489092 17.667110 91.395882
-25.898912 -2.489063 72.550056
-24.865936 10.874347 74.039932
10.300941 7.332843 128.200516
-16.118525 4.159900 101.666534
-20.210266 8.226485 71.981064
-8.070296 24.557791 78.142258
3.658199 -22.212791 84.479889
14.686626 -11.369202 82.515839
26.364252 2.284885 83.460228
15.095689 1.167813 132.278275
-11.496217 -10.096686 99.161331
11.925586 17.298168 89.385017
-4.533364 -9.542226 100.485222
3.340578 -17.749739 70.482208
1.314882 -8.306221 67.137024
8.891133 6.353069 153.725754
-19.043642 -9.005264 77.855453
16.328884 8.140419 140.401733
-25.402655 -5.848743 75.146011
9.263592 16.718748 146.255539
-10.695456 10.984743 144.020081
16.845774 16.291401 76.131668
-7.669023 -10.931829 132.871780
9.608912 18.236460 79.416138
-1.234730 13.322625 136.539169
6.054009 17.148979 74.736130
-6.052211 -9.600913 98.295410
22.021343 3.430820 81.792702
-21.977480 -6.809375 84.079765
-16.483919 7.652126 137.551254
12.412620 -7.274128 132.359116
-21.544321 1.827549 79.818718
-18.195498 -10.989197 78.245392
14.541827 11.935315 92.340744
3.349600 11.725914 95.768448
4.524564 7.445694 125.626442
-6.859395 -12.322536 131.969086
14.854768 5.832467 100.230255
8.161385 -10.790154 107.860893
-11.494666 -4.186348 139.793350
10.332408 -18.930058 68.663635
-10.700180 11.146762 148.183701
-11.323332 2.387915 117.074692
-20.390682 15.896056 78.218376
8.978703 20.359547 74.250999
-1.457052 -11.632408 124.808647
6.712937 12.997361 78.808174
-10.762058 6.664729 151.200027
10.080343 -7.110594 141.629456
-12.029492 -9.279915 94.949150
-2.242821 -10.991027 110.009727
-8.233565 6.771008 105.821396
-2.613292 18.087887 75.750710
25.068594 -7.493304 67.137527
9.690214 11.796681 101.815331
0.990333 -20.751989 78.717247
-15.153343 -1.821119 129.895264
-3.829047 -11.850837 96.921432
26.959007 0.426899 83.988907
13.962597 -9.839389 121.670929
3.435316 12.726943 146.501312
14.710822 -10.365018 78.487198
-13.216990 1.636162 125.909798
4.716518 -15.549459 93.993576
-2.966993 -9.062412 90.957092
7.022365 17.221807 77.420959
-1.104024 -6.549878 80.783676
9.655129 -5.932679 118.106567
23.858221 2.397722 85.891006
8.711322 8.590394 104.514534
12.779155 -3.008833 127.769699
-17.637064 -9.217233 67.360909
17.760969 0.251894 106.875046
-24.002407 -1.621915 82.214172
0.750322 14.446261 79.196823
-9.547569 -7.960313 116.659714
-22.326439 6.431950 78.529045
1.875111 -12.991013 73.613678
-14.417440 -8.146196 99.641510
-4.373133 6.394406 114.871254
-17.374281 -4.035556 103.170624
-11.518699 1.084304 146.922775
-0.720008 -8.427028 79.469093
6.439453 7.754611 108.860855
23.878767 -1.053308 92.348663
-7.151212 -8.211272 70.137306
-0.168123 -14.597695 132.589920
8.989036 3.870560 116.559998
-0.105387 14.624949 72.637138
-9.838221 -8.671803 135.276108
-17.608969 4.187214 101.721703
5.136474 -3.713849 145.349228
-16.464720 3.552673 135.634674
-8.394078 19.782990 78.628708
5.848760 -14.839352 102.303253
5.018320 -19.727448 90.914276
