ply
format ascii 1.0
element vertex 2048
property float x
property float y
property float z
end_header
-9.547675 7.128771 28.332743
-14.461334 0.307643 29.977291
-19.585815 2.243570 23.846357
-16.101662 -4.576542 27.497013
-4.871804 1.638097 28.079929
-4.982064 1.452424 42.429428
14.593863 -5.592657 35.663391
-11.868941 6.074542 93.124535
-6.463496 8.680195 99.593285
-3.396914 -5.952043 58.627846
-4.522500 -1.750088 24.610157
14.577999 1.020905 40.203224
-16.400862 -8.938406 78.774269
11.290229 6.636566 34.608433
-10.496504 -8.085900 48.991287
7.202242 -12.390813 71.958092
14.012832 -2.072630 60.429558
-11.000023 2.390138 75.452789
-10.708063 -8.208292 41.332634
11.788445 6.316667 93.909958
11.401388 -5.680837 10.184524
-2.777876 -4.637436 64.104134
-6.052864 -9.737336 67.241409
5.923257 1.799623 63.073959
1.449239 7.652122 85.189529
4.659206 3.367625 70.847885
0.945855 -6.405941 83.522232
12.447179 3.959897 10.715579
6.737762 3.366374 53.781624
2.188208 10.516841 89.740257
-8.065323 5.711813 19.002453
-17.591108 1.726158 31.938871
10.494717 1.539265 53.559345
2.082317 -10.926183 97.698433
1.745087 3.685515 72.591896
-12.311338 -9.870364 86.236603
-2.862914 -0.998135 64.135994
-12.396836 2.678919 95.196480
-5.434505 -0.999697 13.311434
-13.626281 -0.484821 103.880203
-15.569487 -1.044518 34.392506
-15.585236 -3.465544 33.893188
11.814704 4.460868 43.690037
13.767837 -6.110692 52.447792
8.801706 -11.280077 86.044060
-1.524809 10.330404 99.621208
-7.630944 -8.699718 56.153893
-1.998966 -6.730732 77.135025
5.770127 -10.379374 48.600235
-7.954665 0.996492 30.896814
4.311705 -11.594160 95.909599
3.076813 -7.595543 53.869247
10.565708 -8.420324 51.491810
12.684650 -10.349013 87.777084
-15.286390 -2.970915 62.012138
8.448837 4.334657 43.668144
8.777023 10.081299 91.781296
-5.803362 0.105726 17.286003
15.772421 -0.180414 29.225040
-14.794631 -1.864146 50.707405
-1.900269 2.288280 84.107780
-9.946663 6.563664 34.104492
10.881587 -6.856940 8.329318
15.179543 5.609433 31.107248
2.107632 -7.812124 71.628227
-7.132025 5.949103 53.225426
-13.221411 -2.793734 93.997299
13.379230 -3.138005 9.965506
-10.935342 6.835908 43.074966
-12.614926 -5.323980 29.828039
-3.838741 4.040568 76.125343
4.209999 1.214273 36.617325
-15.660677 2.666318 10.065440
-13.417325 -0.733930 98.193443
1.987455 -11.280973 91.978401
1.208404 -12.076231 94.171188
-3.307241 -8.582904 84.728928
15.030315 -2.628558 22.119539
-11.824318 -7.799636 102.806076
12.100110 6.340442 8.161445
-5.822094 3.038488 62.505600
15.737018 1.169282 10.607649
12.747200 -11.830154 86.931084
-6.670110 4.554924 50.485180
15.196693 -2.058666 5.219813
-15.549177 -6.109108 98.481392
-14.892928 2.769426 86.270195
-15.709299 -5.109384 81.726189
-14.386262 -3.517301 28.088413
7.138873 -3.292578 12.049116
-9.279122 -4.692408 14.183422
7.809472 4.096475 71.416222
-7.990203 6.043492 25.307173
-8.226514 8.987305 95.907021
-10.963788 6.571472 21.535730
10.402171 4.476884 84.320923
6.604394 3.581444 59.058296
13.980618 6.028664 33.959591
-9.716728 -10.595163 91.793724
1.229070 -6.075907 63.378635
-15.893824 -8.679963 83.634605
13.124621 -3.263344 57.475067
-9.037789 1.231848 9.619877
12.759790 -6.435260 99.205788
-4.796362 -8.366846 70.118530
-5.920010 2.192818 21.612576
-1.612987 8.926701 102.130104
-13.172263 1.245216 57.088711
-0.490364 -4.763327 68.623085
-10.306502 -9.009471 56.475571
12.864550 2.973834 5.533530
5.468599 -10.134971 88.380783
-13.525771 -2.742414 43.667957
-5.463569 -10.462110 67.217575
5.290226 -11.136672 80.653221
13.950115 -3.686659 88.136139
-10.657828 -11.287027 57.152332
-15.502113 -1.226019 49.949196
7.360462 -9.856008 60.521618
-3.249351 11.048576 101.580704
-6.495337 -6.344126 9.427254
-5.708692 1.399850 24.622404
5.846335 2.652947 40.848972
3.254260 -11.019503 74.818184
-12.301217 0.210306 9.992681
14.120539 -2.723158 86.269470
-11.524165 -9.752279 57.424557
12.642698 6.784404 94.317368
10.404800 -10.660475 64.518089
-11.323885 2.790621 76.487663
16.143480 1.645925 32.499489
-0.105177 -0.968926 82.145439
12.044474 -9.276821 98.747185
-8.318302 5.330471 39.836212
-14.118654 -10.250648 83.261467
-3.782497 0.936076 34.611073
6.562946 2.795244 53.694202
15.961682 -2.199492 88.878166
3.906383 -10.158872 69.429108
-2.305253 5.961115 86.703751
-7.336059 5.229321 64.245506
11.525112 6.553781 85.946129
-18.325891 -3.443732 92.393867
-9.123347 2.799280 5.131173
-13.997500 -0.198873 47.451813
-14.218326 3.510643 25.840918
17.126038 -3.211749 105.237579
14.326517 -7.507898 93.350296
-6.002801 3.903577 60.429157
-0.174844 -6.330776 72.691643
-10.046845 -9.816422 66.506073
3.401119 -2.628753 37.845356
-6.014205 -0.382613 23.286667
9.067405 -4.883399 29.822157
-11.058705 -7.655804 42.492859
-11.406576 2.332491 58.076954
-13.930471 -5.883556 98.127182
6.779486 2.326575 16.391712
3.853094 -1.605829 37.475800
-2.277365 -1.166250 52.704651
-11.585862 -5.330592 34.798447
2.750622 9.884346 88.444206
4.847313 0.652014 20.156208
14.990924 0.646050 48.477867
11.513493 -9.258593 88.949699
-2.166684 -12.480195 101.644653
-6.755774 -3.272496 29.371691
-15.093340 -2.794263 69.396278
5.725061 -11.194487 93.482674
8.217732 -3.449985 30.259348
-2.169087 -13.974085 102.851357
6.419353 3.142625 56.102413
8.658388 -10.127254 97.155975
10.640817 6.013800 36.413536
-1.189558 9.329096 100.854652
2.980336 -7.661948 57.877823
0.298115 -5.147326 77.947311
13.044289 -8.636270 73.145164
6.465342 -12.635422 102.876854
-0.838263 -7.848528 85.807068
10.716939 -6.380318 22.495905
10.491643 2.714353 101.192108
-15.007377 -3.522156 41.793373
8.082116 8.503768 94.714767
-13.758885 -7.118724 67.542992
-3.109046 2.204462 78.374146
6.346910 8.648646 96.372383
-14.074963 -3.997800 35.030190
-6.283206 2.934089 36.067032
-3.655206 -9.281448 69.275192
14.948240 -2.067854 33.584564
-13.730978 0.315739 106.602356
11.361217 -6.374757 47.553932
-12.850790 -7.763635 97.755287
10.574968 9.100843 88.781464
-10.541150 -13.056416 80.711792
7.183951 5.825772 39.919804
-10.052622 -10.151197 98.487877
-9.940565 -10.396846 82.432838
5.877402 -6.816329 42.424171
-7.973695 6.219863 6.841461
-3.969305 -0.384464 41.505245
13.438239 1.649605 80.267838
-9.369413 -10.830606 101.478165
13.902326 -3.069681 26.826839
-3.026919 -1.507028 41.156719
-11.163133 7.312834 13.585846
-12.445503 -11.443834 94.323936
-2.269675 10.788542 95.447235
-5.056052 -0.190773 48.189411
15.095890 4.176090 17.247824
7.514436 6.101255 35.844746
5.769752 -12.899455 98.708115
-10.399223 4.608581 77.832397
14.377822 5.716758 39.418842
9.643433 5.071317 7.868589
13.996418 4.941425 46.701942
1.338609 -11.208525 100.556793
-12.156390 -5.912848 91.818657
10.210937 3.637324 72.668419
-13.204865 3.094021 12.038826
11.473540 6.955239 86.913864
9.267240 6.934016 17.914944
1.586235 -2.470418 80.219269
5.912347 -8.765050 7.729644
13.483242 4.002436 14.306877
-5.406391 1.652297 54.361027
-15.071141 -7.737528 82.552452
10.925798 5.800725 98.915741
4.450230 -8.189856 46.635185
9.528300 6.364137 29.118330
2.852232 3.611662 50.806042
9.155411 3.683322 48.991390
12.793353 -9.543777 62.119160
-7.735805 -12.126276 79.195145
-7.313411 7.571379 96.883751
6.260625 -10.520536 77.718086
10.901424 5.871337 39.140228
-10.406377 5.641132 6.963336
-8.674141 9.901752 90.805412
-2.518239 2.424473 75.240875
9.326662 -2.705193 9.247212
4.822646 3.450551 14.768201
18.012260 1.896186 34.657677
2.028604 0.205618 49.396927
-13.258635 2.056525 5.060102
-7.176281 2.086398 22.193817
15.373983 0.910561 28.388050
3.753732 -10.138050 66.298027
11.762656 -11.586421 82.544357
7.380352 -12.064383 82.376778
-14.764511 -10.373701 59.653160
-15.863091 2.111001 29.663172
-14.207840 1.311077 72.779366
0.191526 6.650050 86.547798
11.296732 6.782335 15.718160
-8.016801 -7.257978 42.047501
-6.947248 5.017740 41.365982
15.469422 -2.825091 80.801216
-14.964640 -2.677893 33.966282
12.330028 5.597817 97.083626
14.011240 4.751487 37.848900
-1.236886 -0.981302 69.922363
4.298985 3.853755 21.157887
-6.338055 -0.329217 9.071225
12.531114 -5.500638 99.773361
-3.231733 -6.640941 63.348358
-14.010295 -7.808870 89.795532
5.984270 10.450581 90.958511
3.428111 0.123652 35.503357
-1.045046 -6.510105 63.740067
-5.484288 -11.514560 97.334557
6.862511 9.048739 87.841644
-3.365414 4.109935 85.237411
12.618444 5.419907 39.163052
5.623725 1.017264 67.175804
5.578990 0.310244 21.631538
-4.245525 7.256920 104.709724
11.946520 1.701491 72.783607
13.606849 -3.330678 22.132343
-5.422610 9.816310 91.870552
16.513769 3.705315 15.762423
8.367612 6.283140 87.427597
-14.884617 -5.662709 102.721069
0.065496 11.369514 92.045174
13.898421 0.475576 66.994812
-8.776659 4.968073 71.453987
-3.078136 2.445929 77.118240
15.458377 2.457013 12.923385
0.797626 10.261988 100.001823
-0.331423 6.019839 86.450272
14.852304 3.360279 8.748005
-15.520136 0.177342 38.230011
-12.946322 -7.601408 51.030174
-15.772285 -1.607222 33.698406
-13.320952 -4.708271 36.014427
-10.970456 -12.723480 76.521767
7.391088 -13.431390 95.571625
-8.630610 -4.876196 33.606014
1.640729 -6.147754 73.177498
-8.640817 -10.570385 60.987152
-13.057274 -3.008967 14.650566
-2.592942 -8.639880 85.915237
-9.304132 5.378500 84.965454
15.152828 -5.261035 74.122498
0.069250 -3.471718 48.134678
14.719670 -3.906860 76.203796
-3.741515 -1.637915 49.219013
13.606182 -2.051370 56.109123
-2.406273 2.640896 81.640701
-9.240729 -5.594750 37.370110
13.778929 -9.825809 93.018394
9.836659 8.389252 91.174088
-7.471920 -7.593479 37.498478
-5.726707 5.409461 60.428551
-10.781256 1.113029 66.275764
11.512511 7.182456 98.397316
-12.091000 -8.855593 72.447060
-9.990236 -3.405470 6.464113
12.622584 -5.549035 39.095337
-3.773920 -7.813154 57.041916
-13.528516 6.250313 19.987286
-10.659488 7.713955 88.050644
-12.750378 5.028645 13.814799
15.874112 2.863704 28.089008
-15.334879 0.589240 93.670212
-4.876528 -11.482308 102.066765
12.411037 6.087209 14.326138
-13.486391 -7.288175 88.169128
-0.010489 -6.792999 79.479050
1.384492 -9.204289 82.552879
-12.664493 -9.706717 72.697662
3.969409 -5.101230 39.256783
-5.129576 5.303355 49.727264
-4.969205 0.558769 61.273411
-13.885902 2.698889 6.343375
3.057920 -1.722091 58.821712
-1.969919 -6.633920 64.589775
4.100259 -10.580709 77.368118
-7.348804 4.059585 63.169441
4.612123 5.482645 23.906502
12.752387 -10.111092 81.434563
5.202589 -11.920565 83.939804
-4.264377 9.800430 96.520226
-0.897973 -2.800382 46.235981
-5.545568 9.871383 92.380569
-10.733480 6.713605 85.356430
15.038551 4.899554 31.190767
13.869265 -4.495723 41.256142
2.777990 -2.814615 56.929859
-12.573833 -3.152859 58.881145
-9.437786 -3.641597 15.942549
-5.937060 6.290898 80.764702
4.662717 0.538960 40.307491
3.802024 -7.975691 72.724876
-14.601482 3.545945 23.682947
-16.060949 -2.087650 79.738899
12.286276 -2.989441 7.447338
12.368959 6.456190 92.150749
1.809487 0.242704 58.909142
-4.321657 5.048910 30.947577
-13.906775 4.467010 14.296625
6.068363 -9.517561 94.575287
10.100595 -6.256269 43.328575
7.721881 3.936969 22.232927
3.940989 -1.584181 61.148899
-2.574392 -5.088572 43.097149
12.749420 -0.937449 101.320160
-5.886542 4.481342 24.667870
11.561300 3.948844 91.002716
-5.850127 -0.142288 12.274750
2.186509 9.831276 101.807144
-9.828364 6.670806 96.801186
-10.681952 2.729634 64.420166
2.700924 -3.545828 50.145199
-7.879782 -10.303010 87.443726
-4.016979 -2.299388 25.217094
-15.085910 2.392580 90.023972
-13.850332 -2.181550 67.534279
15.477321 -4.914047 67.236862
1.578930 -0.755079 71.118042
4.936835 -11.687388 76.366951
-5.608550 -0.104978 13.165303
11.006506 4.044130 19.842350
-14.015554 3.775692 43.229855
3.880328 -11.770804 86.052200
15.871067 2.610740 5.556462
9.729632 6.050772 85.700157
18.534069 0.583527 14.514829
-11.722371 -10.177201 99.595116
14.949724 -0.916904 75.034363
6.051693 -8.744617 57.310051
11.485805 -4.816174 11.291740
-12.365983 5.485812 38.195473
-0.423061 -2.674605 77.782257
7.530585 7.950766 88.516586
-10.467643 5.786190 94.217003
-14.080000 -11.668022 84.874863
-13.850807 -7.227787 92.331566
8.669312 -9.910156 98.125916
-9.439631 2.351198 72.946793
9.103098 2.436530 61.732700
-3.348563 0.769757 51.971127
16.675322 -1.381131 80.056305
11.452582 -6.797430 45.303680
-9.571871 3.328459 18.621740
11.834920 7.387451 96.345337
-14.417406 3.146503 48.682484
9.288905 2.619426 3.706728
0.100685 -9.303636 84.151100
-14.623004 -4.167597 72.998398
11.457332 -5.276123 31.318886
-6.646979 -9.351893 62.441219
14.466519 -10.250088 89.746620
-9.712018 2.606121 49.616192
-6.162307 3.105158 56.845863
-2.337421 12.398050 93.737694
-15.834683 1.815239 30.967840
4.621556 2.425618 65.235565
0.400233 -9.726908 81.341110
-1.513541 -0.669709 66.717224
-11.839075 5.886953 9.495911
9.532769 9.094258 90.234276
12.592787 4.768456 42.123726
2.052299 -0.659278 56.347176
4.656922 1.371655 14.850451
7.348149 1.356336 1.492173
4.057450 -10.262155 70.271286
-5.449512 0.584894 54.222050
14.715682 -5.068254 55.978016
-10.130458 -5.753958 20.478230
14.192309 -3.424315 34.892113
-10.200851 9.193501 37.981915
5.562100 -0.919286 48.564686
10.609236 -11.738262 62.764442
12.359946 7.369587 27.487942
-8.520476 8.672453 95.492203
-8.820189 -3.957711 10.248804
-11.487201 10.283797 89.086937
6.780660 10.275762 93.078285
2.063105 7.073238 86.343987
12.063888 -10.905869 85.573868
-8.379889 3.554639 13.954441
0.730926 -7.435200 64.147675
-3.825840 -2.728119 53.135334
4.958004 4.196536 23.084829
-14.339196 3.118087 36.740875
-13.243471 -2.022755 43.020718
16.139343 -4.787129 66.239952
9.004055 -12.344573 73.583206
-2.184839 -4.012909 48.512367
-16.804852 2.860313 15.147864
-6.442058 -11.802660 87.885246
3.469431 -1.921078 46.819199
12.518319 6.898089 40.804050
-15.537518 -1.100270 78.027237
16.576481 3.610498 30.317440
14.797598 -8.945745 100.817673
-14.059177 -8.434293 90.189384
6.228164 5.185065 79.381577
4.266626 -11.227836 68.361092
-15.563239 2.298886 29.038683
7.312645 -5.951326 9.221178
1.643120 -12.350266 94.311646
6.129117 0.613165 25.377808
-3.596103 0.131297 41.810272
-4.030161 -6.655232 45.663273
-9.550734 -12.240352 81.682266
5.636973 -13.740958 88.041229
-13.181155 -6.255645 57.378517
-14.464542 -2.863460 19.058235
3.155396 1.545348 56.632164
-5.981558 -14.443619 103.858345
-11.542688 3.109159 91.054451
-8.941504 2.188914 58.405312
1.731257 -9.364536 85.799995
-2.366510 -2.593530 49.042141
15.915649 5.936620 93.819748
-8.031390 3.395659 72.431114
-9.972346 2.224566 58.232529
1.686121 -7.744414 55.950188
4.138180 -8.407937 62.590439
-5.623696 -9.629917 57.890755
-14.973919 -5.807994 37.698803
5.652867 4.801127 58.365173
-5.314769 -8.921819 68.778755
5.483944 7.079669 89.370285
-4.582247 1.485392 72.074745
13.253405 3.100417 46.170773
14.983585 4.544683 38.078163
2.231867 -4.108460 55.423065
8.366291 -1.107606 14.114494
2.509342 0.323617 58.268349
10.691382 2.189925 65.913559
10.153672 -11.784072 95.467560
11.311223 3.467669 74.515396
-15.772869 -2.500055 22.628368
-13.013852 -2.302453 15.254408
3.941259 10.035000 92.577194
12.015077 0.434237 58.853664
-7.211555 7.603232 86.988655
-4.525090 -9.374480 63.429192
-8.721246 7.969606 98.931976
3.145548 4.039227 80.003281
-6.452003 4.886686 23.047449
-6.380856 3.513507 32.823380
14.232853 -6.824095 60.208614
10.643222 -11.473032 101.477287
5.859688 -11.795729 81.210007
-8.145236 -10.555743 97.251907
-1.153250 -4.372778 66.521584
8.720801 8.501221 91.458908
-14.242126 -2.635507 74.675110
-1.005920 -8.506747 77.463921
13.969487 -8.187945 88.700333
3.382680 -13.660963 74.769997
-15.030001 0.753595 97.688019
7.312445 0.599563 10.202538
5.887669 4.959037 76.428497
-3.774580 -10.710747 64.475960
-15.438784 -1.830398 36.718227
-1.664257 10.420575 92.994453
5.291701 5.279792 57.762424
-16.620895 3.152207 20.019098
-13.533374 -4.441406 68.024719
-12.875524 3.790200 91.854599
15.356407 -4.014456 11.905293
-13.641748 0.218364 53.150780
3.748522 -12.531581 83.322922
5.501230 -10.759171 66.696388
-4.288012 -0.449595 56.098015
14.788695 -6.316093 64.732422
-5.301103 -10.269966 99.322273
13.759045 4.949061 12.781165
-12.753669 5.582689 28.367577
-10.452509 -10.686171 91.693130
0.318232 -7.026995 86.249535
13.767861 1.162086 25.064560
8.533526 -0.673383 6.738277
12.415707 -9.187807 58.205353
-16.026602 -2.556325 77.595139
-3.920145 -11.146379 76.050797
7.221901 -7.129066 35.203159
-3.950781 5.299286 26.027069
-6.461833 1.451470 42.066353
5.253447 0.550529 42.258106
14.156575 -0.696336 6.898243
16.928877 2.505719 28.174322
-4.487981 11.551896 89.544098
-8.683996 8.828205 98.686539
-12.278734 -8.282083 95.731956
-16.248547 6.526608 103.220360
-0.685059 3.954838 65.411179
12.775058 -2.840332 84.571808
2.417227 -3.602665 65.840080
-14.203323 1.595055 90.004852
-7.223989 -1.257283 19.632393
4.487837 -9.197632 66.151855
-11.709621 1.005214 60.781239
-6.391771 -12.007535 70.807487
-5.265979 11.932836 90.783432
4.257601 2.720028 83.614403
7.685855 -12.345136 87.635475
-16.161135 1.611650 9.321765
9.455257 -4.755011 16.495886
-11.260222 1.351608 56.157902
-15.255849 1.846842 14.326188
-13.042394 -4.388304 39.988087
-6.411922 -11.611835 67.499542
2.737908 4.207593 86.439735
12.291794 -7.637613 49.662510
-4.379098 -5.667466 35.987061
15.918458 -2.981103 13.915510
-7.782868 9.114127 89.383041
15.689426 -3.152269 32.143650
-9.583992 8.460883 29.931211
11.810955 -9.512351 89.813850
3.845335 3.045850 23.848452
13.432393 8.994321 12.121682
-8.937408 -9.922819 66.496132
11.530562 1.829551 67.529007
-0.402747 -2.237496 67.016647
-8.975430 6.317636 99.345734
-12.602032 -9.474202 68.101151
-7.271853 -13.080907 70.534981
-12.378675 2.498690 99.728836
-8.905813 1.175750 65.047050
7.151583 4.250258 29.726097
-13.597447 3.601956 88.139717
-14.112665 0.033004 32.158852
-11.142260 2.416002 82.814835
13.131088 7.736923 19.564501
-11.077946 -9.969461 57.769798
3.518251 -2.169804 46.154152
-9.466121 3.370117 51.911945
-10.801767 -10.135116 85.604416
13.105349 -3.029447 37.459652
-14.387200 0.130772 86.125053
0.170862 0.069304 65.177429
3.924476 -5.162116 39.643879
4.951038 -9.835607 62.395157
-1.348938 -13.989232 95.110161
-11.441629 -4.435832 33.371075
-6.904789 3.073140 69.524734
-11.828242 -4.841917 35.454746
-7.801145 -9.800637 53.715542
15.264235 -0.724609 51.739773
-5.572034 11.657029 90.380692
8.226248 10.955323 87.894981
-10.597682 -7.966557 58.803623
1.760996 -0.380183 67.201492
16.559662 1.864675 33.147076
-14.435246 -0.382342 7.422320
13.682279 -5.405296 53.227314
-14.112513 -3.216926 21.551327
13.736832 -0.767184 58.952126
-14.529610 -2.841541 55.590755
-8.102440 5.865788 23.871767
4.346131 -6.829137 50.704777
-15.034365 4.421353 42.636497
-3.418108 -5.576043 49.616016
-1.204094 6.447549 103.140503
10.756797 -11.665624 67.938148
-12.514020 -4.976340 57.587719
-15.944748 -2.313232 12.408387
7.274966 -11.715679 87.849945
-9.194580 -10.834196 58.574272
12.423155 1.772627 92.809875
-7.768303 -5.541257 9.431494
0.473069 -3.115020 80.556595
14.990452 -0.047138 8.087567
0.162523 -8.880460 84.538902
7.081147 4.457546 41.606640
-8.982258 6.824431 86.759598
-2.175133 -3.407641 52.271671
-9.966979 6.717290 29.478745
-1.401017 -9.250611 62.802639
1.626026 -8.487935 73.981880
4.854503 6.623833 86.479324
5.812423 8.883539 98.659981
-5.360146 -0.730623 30.892691
-11.847890 2.304935 78.121925
14.923802 -5.641315 51.466679
-13.206846 -0.011493 71.185722
14.276982 -4.948596 28.908472
4.416900 -8.508238 68.314491
-15.521118 -6.436686 53.938343
11.390325 6.153646 87.489075
-2.708750 9.945198 100.583496
13.496767 -0.528702 8.437103
-12.509420 5.335229 87.657883
-0.283036 -4.997482 66.235466
7.888548 5.572243 66.655624
-1.015554 1.624708 84.951027
-5.119786 -3.694143 27.329714
14.627712 5.575330 19.957909
11.297561 -7.472382 95.307678
13.745213 -9.394168 84.177582
-13.031564 -2.742890 30.142609
13.743876 -5.208009 39.111179
14.668233 -0.479585 61.768631
-12.321972 -10.557605 70.862900
-7.360726 -4.211555 27.198547
15.084030 3.214457 50.791595
-5.560831 3.097800 68.010178
13.226141 2.384858 94.403473
13.170283 -5.320213 58.068672
4.716324 -7.749151 38.229519
8.203325 8.517572 93.429604
6.471635 0.633313 10.639867
-1.087170 -13.617686 99.568008
13.336271 -1.109385 52.203102
9.910126 6.640600 86.349785
-2.805334 -11.185215 80.925171
-21.469658 -2.726409 89.126122
-8.332103 -10.357576 102.563850
5.389570 3.266619 18.727533
7.784466 -0.923469 7.470309
-4.947412 -11.835019 92.917526
14.849953 -1.553599 84.681618
-2.942305 -0.512370 67.408569
-5.516992 5.481809 85.296127
-1.059541 9.927811 88.444107
-4.074764 3.110631 77.350655
-14.383726 -0.070119 66.785492
-7.390790 5.668664 42.446381
10.549847 -12.900229 71.694962
-13.187133 1.371138 69.138229
5.209433 9.010373 86.956100
-8.555379 0.972794 9.424220
7.846875 0.698256 12.508638
14.072245 1.019469 84.366814
9.265821 8.501525 92.451340
14.399363 -4.225017 39.116417
-2.436631 4.016235 82.257286
-14.122097 5.045790 24.268581
11.019639 -3.782582 15.431131
14.478355 -1.462701 22.140495
-4.849022 -14.071095 75.469284
-15.013313 -1.398067 87.556358
5.202298 3.594751 17.196915
10.641876 6.185654 29.537516
6.866471 6.428968 51.218582
8.399649 9.348882 93.010399
-16.347607 -0.097288 24.964636
14.931454 -8.126044 83.488785
-2.887381 -13.022276 89.719620
-14.983242 -4.907366 93.308975
4.951508 -9.353290 48.736134
-15.197926 1.927444 21.872021
-16.406330 5.979483 17.254715
-10.871428 -5.336003 28.660954
-8.488459 2.926272 61.321060
-8.419361 8.449195 89.517021
6.709704 -12.962742 81.776360
-15.812670 1.561875 13.224562
-8.368975 -4.881675 24.379797
14.365945 -5.519238 40.878082
-17.217184 0.841968 32.206524
17.772190 -0.897965 25.925901
1.386318 9.947884 90.486542
13.999520 -2.432348 35.685150
-1.552241 -7.815239 75.311081
0.915548 -2.681005 80.171707
0.679431 -0.187164 77.642166
4.883883 7.097891 103.693100
-13.510535 4.999328 15.488312
-14.579081 -6.755082 76.663872
14.220429 8.473158 23.211927
-8.038359 2.962950 54.430531
-8.737682 -10.350087 58.472504
-2.396696 3.437896 65.854866
2.518672 -9.497013 86.276031
-6.998338 8.950538 93.642662
9.147334 -4.814466 12.460581
-12.719055 3.092282 78.764160
-4.238827 0.676837 57.690269
-10.049354 -9.638160 58.882420
-9.137129 5.244078 8.195156
-14.635259 2.472421 47.803703
-5.749818 4.065341 58.724503
-14.621279 -8.922779 78.565407
1.156645 -10.579597 93.210854
-12.930880 -3.286767 20.012157
-3.650506 3.099579 71.755783
-4.945712 -13.367529 80.047592
-3.079692 -10.393723 105.080627
-10.306151 4.723589 48.199074
-2.804209 -1.868690 50.647232
-6.346744 -2.400182 21.450525
15.264897 -4.486443 26.043743
-1.344136 1.216040 84.309258
-0.931675 -8.732891 77.159775
7.929612 9.763564 92.198402
19.060886 -0.759106 88.884087
4.595614 0.934350 35.572971
3.989660 3.266204 47.653847
16.959900 0.965445 92.435081
13.012444 1.437617 104.396751
-13.683369 -8.112699 60.926121
-11.169209 -10.463630 88.433594
-12.584862 -2.983135 39.274323
2.144552 -0.051926 74.440994
9.295323 2.064189 12.260072
13.865870 -0.450231 51.235451
-0.401641 9.088981 98.723366
10.720819 6.123083 85.740814
7.853496 3.005530 69.758072
13.917684 4.280594 91.387016
0.383122 -11.667691 92.932022
-6.125966 -7.526975 61.680664
-9.004220 2.033486 7.082268
4.782471 -0.545236 37.752529
-14.109478 -2.327406 102.539001
-11.523962 1.765007 55.252712
6.282076 -4.976235 26.207214
-9.859672 3.595741 11.804646
7.199564 7.560265 103.070419
9.660652 -5.256026 30.748722
-4.637792 -3.627017 28.050329
-12.306143 -1.839787 100.986046
-10.529446 -4.949708 28.869520
-2.462295 1.365017 67.820709
-14.659653 1.314651 16.723043
6.356368 -11.343491 74.116829
-9.268135 -12.059861 80.819382
2.106563 -7.172179 44.863041
-5.682827 5.705932 57.840633
-10.491171 6.295467 15.473027
-14.345711 -3.481426 37.781097
-4.381964 0.317912 47.306961
-3.377231 11.232524 91.380531
-7.424994 4.795351 105.068924
-10.190121 4.801783 14.436355
6.716187 5.225467 43.408794
-1.796164 -5.480809 61.562580
14.149262 0.116832 5.109602
-11.216693 -9.514761 92.250832
-14.948915 3.002667 35.945267
12.090020 0.587526 80.968658
15.332592 -3.865226 53.266064
0.611428 -2.334373 77.328278
-13.252931 8.350992 19.936172
-11.840507 0.898060 82.502670
-15.233921 -3.508277 106.346107
-3.122307 7.534597 85.899780
-4.590423 5.414595 38.889404
1.352279 -6.329162 48.689938
1.223611 0.029564 68.359802
-9.656919 -7.035581 50.381107
-13.936385 -3.694356 102.556114
8.584223 6.109695 101.767578
11.210491 -9.682058 93.911736
-3.831780 2.549271 51.372623
8.610177 -11.097586 89.494537
-1.417926 -8.862627 73.427925
13.311127 -3.450525 58.457317
9.546242 -12.041043 80.736755
-14.053023 -3.952998 52.358608
-4.397985 2.598455 80.708313
6.348947 -6.973841 51.028000
14.872477 -3.188019 102.981453
-15.874829 -4.741626 49.975601
-4.232212 -8.639201 63.526505
-12.930326 3.654291 105.034363
-10.266124 -11.044535 80.647606
14.744617 -4.628249 77.864166
11.922590 -11.630878 75.577682
-14.254274 -6.256424 72.888748
10.549213 5.767081 104.583496
14.773511 5.664731 26.344028
-11.890079 -10.926626 81.071007
9.936186 -9.827590 101.466446
12.496285 5.058734 44.267426
0.364248 -2.635373 68.152428
13.182302 -6.234066 37.087738
1.728342 -9.567522 81.070229
-12.884850 -4.777503 39.729897
-14.352675 -5.042214 10.472493
-13.886951 -2.522531 70.693222
14.418377 -1.271443 16.636433
8.659024 8.724443 101.805786
8.765459 -6.600121 26.334846
-15.274363 1.796801 95.928101
13.256451 4.331288 101.265961
-6.793939 8.251187 87.139023
13.120757 -4.501061 10.276718
-3.003430 -12.495832 73.201950
1.477435 6.973096 100.698303
-10.733503 5.030667 7.115971
0.436948 -0.996845 69.105286
1.320767 -1.337400 67.726295
-14.374876 2.022712 36.230186
16.858532 -5.508162 96.171356
13.923851 -2.264490 56.585819
13.947519 -5.743634 54.489727
-0.253571 -0.556517 38.897232
-6.314544 2.691066 65.070465
13.927902 -2.219878 36.396202
-13.329980 -3.583212 17.805159
14.113908 4.326607 38.370304
3.090595 -4.902190 39.630928
-10.680674 5.727479 101.989159
6.042743 -10.183846 45.210876
7.674526 -9.312523 91.125137
-10.996017 -7.356984 93.945717
14.158385 -2.823243 10.188276
-14.257642 -0.170758 11.526235
-11.218885 -9.528713 99.793091
-2.952516 -1.076669 72.855324
2.664300 6.593647 85.552437
12.847366 -5.025774 7.887566
1.473509 -5.756178 69.931564
12.536473 -2.787423 40.554489
-2.798464 -7.441529 73.885773
-8.347805 6.467890 89.337936
-4.363645 -1.303811 28.224880
12.983577 3.782598 92.139648
14.424488 0.490031 8.692153
-10.436365 -5.317188 31.318956
12.584816 -9.142482 63.939423
2.545538 -8.186427 83.143723
15.874688 2.666957 25.776257
-3.452836 -0.319856 49.068775
-12.864591 -5.945071 94.770294
2.330548 4.819357 85.241257
15.283745 2.098064 41.013203
-14.361203 -9.334697 79.191330
3.568283 3.806812 55.297737
9.553451 -9.513276 52.078896
3.903298 -3.682267 32.993164
14.392166 -5.770422 51.419243
11.110273 6.315328 39.561382
1.252920 6.517868 85.707359
10.228220 -5.148456 34.694092
-12.024556 -1.370636 59.877441
-5.973959 5.538229 22.365282
-7.478687 -1.367996 8.689264
8.320321 -7.660037 47.762199
9.213517 2.867835 76.427124
13.492792 -10.687149 74.053062
8.882833 -12.554053 69.503845
11.614036 6.059857 23.060558
8.085910 6.744059 52.948933
16.101856 -6.610699 77.031731
4.120992 -4.255159 51.936867
-9.399101 -5.782545 13.571487
-9.576769 7.806256 103.508408
-14.655320 -7.670082 75.778542
11.336629 5.303432 85.383972
0.343123 6.648245 88.553841
14.269382 2.530634 94.332405
9.717646 -11.369664 89.326530
-0.532659 2.089438 72.522285
-14.693713 -8.076498 76.118774
-10.906097 7.870617 88.295341
-11.921388 -7.964153 90.473854
5.104584 -0.892884 38.480537
-11.717845 -0.994744 102.910843
-0.189670 -10.460958 84.796013
10.509962 -11.223009 75.226326
9.711267 4.362347 48.038944
6.866600 5.363964 77.931488
14.688511 3.562388 16.035929
13.567196 -3.846862 61.173763
3.496755 -0.910070 54.875565
-8.171957 -3.592010 7.867253
16.489769 -4.221749 67.483856
-13.290036 -8.649149 59.160530
7.203009 8.034142 101.721420
8.332874 6.470198 15.750021
-13.085073 -8.289130 68.251434
8.160361 -5.107302 41.392361
-6.184665 3.748335 62.109955
-2.876373 6.554552 85.465179
6.727045 3.039552 50.700188
-11.597728 5.976186 20.607735
-12.103459 -9.329007 89.292389
5.125205 2.654608 66.875336
5.421440 3.542349 28.021038
-1.346839 -5.652873 70.261650
9.403429 6.579399 23.250977
7.446889 1.493862 69.118568
-8.919119 6.414610 44.320797
-16.420937 0.085151 21.889194
-3.098790 -4.584453 42.402504
-10.600745 7.435450 101.166412
14.379531 -4.835731 101.191925
-2.255747 -5.585988 63.989357
9.211120 7.939471 95.093208
-13.468856 -2.811392 17.166674
12.513791 -9.343246 86.407997
-4.202142 2.657278 38.981079
11.799086 5.785274 90.657028
-0.242612 -7.483069 80.717216
-15.122054 -3.842661 10.717281
-2.474323 -4.105186 51.872093
15.585564 -5.512778 98.216377
-3.238922 -6.287888 60.313454
3.702594 3.933658 72.394180
-3.834751 9.972430 87.956390
10.395379 7.095282 26.687670
17.097713 4.460662 18.315905
-5.260534 3.244027 1.218066
8.225757 7.771594 102.921150
-0.325828 -5.882950 85.572433
7.189161 -0.361348 9.745879
-7.617563 5.997302 102.997330
-10.057859 -5.307922 32.426319
-5.375823 -0.989347 37.104980
-15.113903 -8.314886 75.707611
-15.447678 2.241687 25.485849
-8.599377 -9.369051 57.478306
10.056305 -11.190498 95.139183
-9.659634 -3.492265 24.039534
-16.151400 6.652090 42.642849
14.137086 3.462033 74.432335
-15.488374 -0.058443 40.122299
-13.145591 -2.016035 59.955425
10.278261 6.683182 24.735376
12.743089 6.023380 12.346266
-5.896453 6.344837 105.783234
14.188633 -5.658381 36.739235
-13.590664 1.746077 55.835197
-5.196817 -1.305394 55.642406
-3.192943 2.411906 58.517525
1.127396 -7.975520 73.696533
-3.246500 -3.048486 25.828773
-7.196881 4.219861 42.896557
-14.398540 1.428692 3.069024
8.747922 10.348894 90.158470
4.359665 3.507711 61.636337
-14.483878 4.845534 16.297522
14.401066 -1.154954 40.193394
9.734854 4.084374 66.633316
-6.612379 -9.540768 75.830322
-14.299460 -3.991503 98.985329
-10.280350 -5.068086 20.110287
14.559646 -0.106261 52.105049
5.403634 -2.646461 26.002796
-12.325456 6.690747 82.949951
-6.661906 -1.986874 20.634876
10.094351 -5.137644 19.820951
-10.750418 2.190225 72.008904
-12.101121 -9.985808 97.011574
-3.339867 -4.440806 57.583046
5.166610 0.418427 21.967220
11.355818 -0.773502 59.119102
4.646670 -10.816938 57.801529
14.954850 -5.632575 63.760395
-9.531947 -10.012395 84.650208
9.894455 6.424228 88.501480
4.149426 11.169429 95.003365
-8.030839 -4.665167 33.112335
7.980143 5.294148 81.723396
-3.942148 1.037649 51.077995
-8.458454 -3.563001 24.842541
-14.669676 -4.807151 39.497551
-7.785922 -0.779138 9.715322
-6.824229 5.005709 14.213596
-10.499842 -8.377798 51.840176
13.644030 -3.328000 37.644035
-9.454938 -4.529909 36.054951
1.555443 -1.051803 65.344421
10.984378 5.598777 92.744598
14.552105 -4.383642 89.149055
11.251236 5.296052 83.846710
13.685297 1.208865 37.458813
14.792088 -5.984234 52.586067
3.942222 1.717102 48.529537
-1.848653 -6.337537 82.748947
-6.932157 6.454720 85.601570
-9.948574 5.584891 85.806259
12.349938 6.751538 28.594404
9.007044 -4.829764 25.441444
-1.183635 -8.371576 80.114296
-13.900223 -10.405283 88.180046
14.229134 -7.290538 101.002335
5.336871 4.593166 82.466515
-8.272846 -0.929373 18.092539
-4.096782 2.858299 60.316471
-10.661016 5.001690 4.887558
10.699320 6.390162 13.140942
-10.713001 9.399271 91.034966
-5.274806 12.560035 90.136894
12.130563 -6.736746 89.273788
-13.473329 -6.125549 43.849873
-2.285075 7.524010 86.831657
11.350594 5.247330 15.520947
-13.658560 1.245500 76.568199
4.876062 -6.136415 50.733444
-8.889783 2.668444 19.680037
2.427964 -1.707332 45.604767
-7.457312 5.283630 24.045820
16.974344 0.102893 11.176054
14.855783 -8.101429 81.410164
-11.531319 5.989967 43.580360
-4.785183 -5.046908 31.990940
12.722507 -1.612137 102.233162
13.275033 0.237323 70.045044
2.182718 -10.409590 85.140465
-15.354705 4.167878 26.479403
-11.364080 -12.273996 84.603905
-18.658920 0.779561 28.832127
17.509605 -2.315092 44.659794
-8.203368 -4.416058 13.245925
-7.808410 0.649503 21.757519
15.290517 -3.131102 79.134010
0.474501 -4.920523 77.635880
2.546044 -10.005107 69.963875
-6.434562 -9.030427 54.814198
6.938977 3.885661 40.795536
15.650667 -0.909501 46.445133
-2.228542 -4.197536 57.790466
-14.642811 -5.508185 80.323593
-15.218321 0.992677 45.199551
4.415552 0.699516 54.773640
0.673392 -6.809614 46.194454
11.157327 -11.699821 66.216309
-15.133170 -9.575431 72.207329
14.249926 -6.643431 92.567390
-12.724529 1.474496 64.523514
0.045324 1.779541 82.472542
-8.074101 -10.704662 82.155762
11.401720 -0.733162 63.865440
4.711617 4.251000 29.867235
-4.914739 1.121709 58.421795
6.072217 -11.753664 84.669991
14.858704 -3.208391 68.774498
-4.050942 4.025678 77.436058
6.734480 4.324039 20.633770
-0.922431 7.425348 88.696419
16.932962 3.558624 17.948313
10.692860 2.987071 5.791136
-7.657463 3.465056 30.211329
13.670280 1.198848 15.021193
-3.815650 0.544392 10.011572
-14.417215 -0.353801 15.567768
16.775732 -0.726361 90.171112
7.073617 -8.913242 44.066181
-14.612984 1.829423 78.675934
-4.386556 -0.073687 24.899267
-3.729608 -12.657245 102.259033
-13.351209 -1.612858 101.189148
-1.507497 -6.444307 68.354813
8.952126 -10.998823 90.686920
-3.047046 -1.286390 30.223892
2.709557 -4.257113 76.301682
16.699665 -3.406582 13.626770
-12.161032 -8.837201 64.331406
-13.452261 1.774526 37.742424
12.521409 5.245404 31.200523
-13.860104 -8.223456 81.940147
-8.516829 5.910732 95.984177
13.616461 -0.055363 79.176384
-15.955567 2.770131 47.292862
-1.609863 10.467115 97.431679
-6.681739 -10.125469 100.950546
4.143152 -0.132209 38.999245
-6.391790 -3.108891 24.673552
-7.125408 2.342555 17.015089
8.093503 -4.072420 14.358789
7.759897 -5.566016 29.563681
-15.787222 -5.311399 73.026085
6.359669 2.198954 21.428362
-15.839570 3.730586 22.424736
-11.910270 -12.548506 87.029823
5.516851 8.968984 92.908875
-3.237693 -5.438950 50.268322
-13.227969 1.493529 51.817692
-3.714400 -3.843859 48.174122
13.707822 -2.354793 23.281511
-13.898713 -6.770507 59.913574
3.428813 -0.063683 42.176559
2.073714 -4.181859 46.496914
-0.708596 3.116908 86.144768
-13.887454 0.741609 52.014496
-13.864429 -4.883441 46.211685
-10.474544 -12.569722 87.320564
-14.459382 0.167409 88.313095
5.969896 0.545535 62.631950
12.991638 1.655346 76.464684
4.755173 -4.279029 42.361359
15.775868 -2.885269 14.848963
11.740281 -6.233873 7.867176
-8.003070 -12.992439 76.321777
-11.341264 3.381215 66.718842
11.122163 6.273087 15.556503
-6.265408 -0.872188 16.104979
-7.004895 -6.529307 31.457182
-12.350486 1.591498 82.970657
17.308224 4.309072 15.037152
13.363398 3.650565 90.707840
-2.591524 -11.161438 79.532471
-2.805858 1.446141 32.595848
-3.124833 0.560782 65.466759
-15.313787 -7.071350 88.545898
-2.400251 -5.709418 44.242863
12.466590 -7.741508 64.154655
3.174517 9.646992 87.276985
5.801638 2.213375 26.241037
-10.639196 5.266430 8.347425
-10.760623 6.912619 80.684013
12.549923 -5.846437 43.716942
-9.349443 9.112415 95.651970
12.909697 2.686776 89.955742
-13.310037 1.710297 94.903282
7.378674 -7.767447 40.354328
13.906200 -1.572401 78.928139
14.224666 -2.379534 96.306870
12.302664 -8.566970 90.660088
-3.341223 6.603919 84.351746
-12.100883 4.279878 84.185616
-4.298446 -1.794992 21.064003
7.302266 -13.851986 84.757957
3.155270 3.670162 76.249763
-9.606897 6.178940 76.926857
14.590148 -4.363327 67.114693
-3.785642 9.301065 98.750702
-3.301176 -10.550587 84.842369
11.357674 2.138395 66.995193
-7.926275 6.103697 31.592325
-8.148227 10.357440 91.811241
-2.733566 -7.967457 76.339043
-6.946016 -5.285093 36.403164
-12.006316 1.098688 52.048203
-8.540413 3.545738 82.007843
13.030482 -3.697023 99.475685
-0.161973 -5.141195 85.132347
-14.676267 -6.255965 97.848694
-5.636178 -10.292002 86.201538
-2.454915 9.063955 85.971893
-6.558093 4.732304 70.847885
8.303638 4.469747 59.796509
11.945904 -1.169316 21.265217
-15.118672 -1.647447 33.116905
-13.872019 -9.163496 82.387955
-14.907469 -2.513340 23.974960
-10.899878 -6.825680 48.265316
-11.848771 -10.548251 64.968140
5.861658 4.255980 27.024454
2.872391 -8.534803 56.420933
-12.940026 4.205058 32.712742
10.983759 3.196629 59.392796
6.260828 -12.592729 73.631172
4.548112 -1.315001 44.550594
-4.299001 4.966994 50.874104
-6.637595 -10.202205 59.734940
-13.319357 -10.142214 97.913658
-6.792950 -6.666499 42.368340
5.282087 2.859263 46.770985
-10.513966 -7.677136 44.413685
8.227599 -11.101511 72.978958
-0.564290 -8.979430 82.178337
-13.900776 0.747006 94.003777
-5.752793 -8.519702 53.140190
1.034164 -11.168194 99.237320
14.248970 5.204827 27.847792
-17.532944 -2.690265 7.076992
13.538701 -8.029177 62.998589
-4.709863 0.181211 50.557915
10.617539 3.028307 69.454422
10.455415 2.113827 74.267990
-2.481359 -11.529717 92.965355
9.843938 5.403899 15.122396
-13.989776 0.488506 10.171646
12.462417 -9.540789 87.867828
-12.803683 4.791590 48.400341
7.310212 -10.444051 66.472450
4.451014 1.062145 46.079121
12.461122 -7.746212 68.218781
12.412142 -5.387218 33.496704
-2.682870 -0.229204 72.217400
-13.634174 4.539440 42.827297
6.380557 -3.843458 15.968534
-11.296113 -11.969546 90.724106
14.290573 -1.225125 65.902199
-11.008434 5.455893 44.199570
-13.165353 -5.325037 32.494911
-15.011302 -3.020399 45.760456
-3.329267 -11.647532 73.918320
14.370507 -3.417521 76.379288
-7.883415 4.596014 50.576248
12.821010 -8.807155 67.093246
13.214309 5.223344 10.106555
-14.759876 -8.258894 70.803314
11.760613 5.569367 41.268520
12.948405 -2.540622 28.567690
-13.904943 -3.286441 64.175079
-13.782737 -2.030279 44.949806
4.588584 0.058875 49.249840
-10.352318 8.985847 5.048220
3.430089 2.866240 73.751617
-1.574747 -11.999055 102.981529
7.006285 4.781791 53.980568
16.259342 3.893629 11.858466
-0.478300 -6.363961 73.376572
-5.581717 -12.715644 103.756584
13.804375 -3.059510 30.338886
-8.912768 -7.030351 51.622692
3.027505 -1.008906 15.694834
4.457598 -2.754104 25.039347
7.032328 7.775289 94.971054
-1.746669 -1.603472 37.282928
11.291971 -6.957721 49.456905
14.549283 -3.024302 74.788071
-14.935870 -0.130761 21.215590
15.691952 3.500737 91.495232
-0.746782 1.225167 82.539909
-4.453945 1.583779 65.605125
-12.338379 -4.236227 36.415970
-15.096996 -3.388304 101.124634
12.755050 -3.861804 7.996902
16.565228 -6.401308 90.619095
10.246688 -10.569194 97.276817
9.229706 -3.588476 10.959730
14.268587 2.495565 87.239090
16.063364 -0.413983 52.176228
11.274593 1.369759 75.370407
11.473598 -7.998112 44.469471
-8.709261 6.183970 34.852554
6.007862 -0.103419 26.116121
4.016619 -10.971167 101.514771
-15.480710 -2.272104 76.076866
-12.790144 5.289947 40.791840
-9.180879 2.422709 47.703175
-13.671008 -7.274799 42.507423
-11.737791 6.594573 91.134018
-16.535114 -3.217427 100.894638
-13.410876 4.877928 42.258064
-3.700869 -6.958296 62.036137
10.288095 2.759991 67.593605
8.818727 -5.596397 37.726746
1.741342 0.788219 78.340187
-13.541219 -7.047194 83.021523
8.073779 3.711459 54.151314
0.419729 9.545107 90.278809
-9.353604 6.446701 91.887009
15.426803 0.683814 20.073017
-11.888156 2.209650 10.055578
-15.849610 4.766236 38.768246
8.274517 3.687305 43.672451
8.059415 -14.665507 88.208717
0.603482 -12.187622 100.469292
7.699701 -12.255284 90.494339
13.252873 -5.995026 79.263611
5.415180 -10.909477 68.662201
-3.745827 0.214809 16.897991
12.005396 5.839994 92.798546
12.558551 6.221588 26.863365
14.832565 -4.022460 78.103264
8.531311 -12.629766 89.634247
-13.015128 6.508508 31.424639
-7.601838 7.025621 86.274963
9.901926 -10.794669 93.064674
4.567134 -1.714166 32.265007
7.452220 10.558759 99.836418
12.538616 -10.452717 59.035667
16.575638 -1.326468 86.438499
-7.105264 -12.472784 75.516472
8.639330 7.738870 85.790779
16.069973 -7.546250 76.697449
8.604790 8.417538 98.992798
13.081585 -1.244133 6.599138
-16.771917 4.661498 26.997139
7.148274 9.036342 92.963982
-3.781786 -9.682737 71.165436
5.097143 4.932251 51.281384
12.022680 1.608004 5.076420
10.579486 6.189596 100.161194
-1.247989 -6.307272 78.001419
2.929481 -8.670356 67.465729
-3.288396 -0.070947 40.762669
14.287222 -9.520109 88.970360
-9.187670 8.852699 87.876228
13.090767 -7.170290 51.136513
2.718716 -11.966607 86.202438
4.128014 9.272365 97.493652
-1.771147 -2.243542 77.540276
-13.126968 -7.249084 58.365303
16.820570 2.342414 25.791885
-12.836410 -3.763453 42.406879
-11.920417 -0.638993 64.390602
-12.924788 -2.981153 92.697166
-15.373986 -6.744286 91.796799
4.298463 -9.632471 88.286346
-7.597810 -4.084094 18.417313
12.110800 5.975989 30.784534
-13.918616 -9.771215 80.011932
8.711907 6.684170 16.277714
5.261918 -8.625294 50.453941
-9.733294 -7.328452 45.354401
-1.602626 9.859102 91.060501
13.790155 0.724025 15.330799
-18.253044 -8.535844 90.752930
-2.671653 -3.168619 54.600555
13.637980 -5.178590 98.514664
2.661186 7.957084 104.622086
-11.073837 -10.012069 103.911346
10.135279 -7.664395 48.350307
5.310780 -11.900139 78.781258
-11.207155 2.109547 63.249622
-15.160702 -6.182436 97.637589
12.853604 5.830429 39.339325
-7.957554 4.104308 54.681362
-9.468228 -4.310888 8.316562
-11.573267 -6.642218 102.765671
-15.463511 -3.090152 56.481033
-14.980535 -3.951624 54.501068
12.543790 -6.124300 54.051952
-2.742579 -3.329539 58.388187
16.327917 -2.075828 33.354691
-16.635208 -4.719921 78.148781
3.701967 -2.619039 44.742180
-7.703947 3.679073 19.230761
-17.005194 -8.157271 92.297768
0.937017 9.233218 94.283699
-14.006523 -9.640581 84.451965
-9.623768 4.408820 9.853341
6.052841 1.301862 46.366070
10.616248 9.380630 88.810112
-12.658624 -9.789535 58.982853
8.155486 5.391575 42.335499
9.418622 9.981219 100.868820
0.121268 -1.330760 80.035225
2.696625 0.319472 52.637379
-8.582071 -4.008936 20.637705
-16.261791 0.416048 25.184799
11.806078 5.068982 39.397682
-6.296214 2.270839 64.950310
-6.003630 3.956739 46.658958
-7.727162 7.829544 86.191437
12.940694 1.393909 83.816780
-15.317433 5.624487 23.192263
-6.964417 3.611838 70.887047
13.026647 3.075313 92.404221
-5.954648 -12.407464 76.313240
10.623770 -12.745031 91.842880
-11.483240 3.080379 81.518127
7.002626 -9.042382 89.076439
14.403275 6.379211 25.659430
-14.072676 -4.074376 97.846664
5.973751 8.658953 100.788612
-7.044687 5.266958 48.760643
7.219629 -8.204751 55.890533
7.776308 4.133343 76.761833
13.334644 -1.242007 46.318790
2.276615 -5.993161 54.456711
9.802959 -2.258141 9.266356
17.612637 -2.317312 37.412632
-13.064026 -4.712647 39.261623
9.442840 -6.283450 21.055649
2.770694 -7.633774 49.031769
13.461643 7.540072 90.204193
11.209045 5.405244 10.697664
-6.964431 -5.163394 29.908640
13.288546 -8.630603 85.291840
-0.803206 -2.465526 75.555237
14.828970 -9.449451 95.677773
-5.744765 -6.797495 54.434494
-3.838808 4.621815 75.496918
13.140391 -9.041731 61.156757
-11.740993 -9.811645 70.411377
-0.703078 -4.546502 76.985191
-10.130468 2.465480 65.985962
-3.596562 -0.681724 35.723270
16.465870 2.059113 18.198433
16.293659 -4.491314 74.833420
6.051885 2.550696 73.004211
-2.077360 -12.803980 100.309372
-13.771542 1.055181 83.949158
8.080637 -11.792196 63.716236
16.207685 -0.322877 41.671925
11.182260 4.891168 8.186114
-17.669800 -0.277668 15.137364
-10.166501 -5.345452 32.225697
-11.344137 -4.057289 49.752453
-5.909244 -8.072129 43.073051
-5.868994 4.652034 68.890327
9.466824 -12.001954 91.703133
-1.233871 -3.523544 76.561249
-5.619818 6.779776 20.297192
6.502513 -4.142106 0.576487
-15.097174 0.669203 23.308928
17.007666 -1.368601 12.321466
14.666154 -6.038546 98.679756
17.790539 -0.824293 9.856046
-15.626783 -0.941371 87.399452
-7.248130 9.588347 87.636612
-6.068783 -5.555363 51.937855
-13.993202 -2.586913 10.729182
14.936925 -6.202552 92.470596
-10.607370 -8.361733 52.926540
-13.342861 -9.163490 93.148613
10.142582 -10.165309 60.548634
1.701602 -0.580133 42.310650
-10.424513 -5.753268 16.178774
8.100878 -3.968000 20.743162
8.463124 -8.061173 53.306042
7.411358 3.236017 68.126328
-5.165097 -3.381596 35.456318
-7.855181 3.730470 32.810947
11.305681 4.939706 40.283768
14.387842 -2.785098 92.884567
0.363421 -3.460768 72.382782
13.287334 1.601898 62.708641
4.668828 -3.171427 25.326975
8.422692 -5.080288 24.383106
-2.874418 -4.000112 51.386253
-1.201486 -2.663241 43.714920
7.743298 0.684710 8.573117
-14.503763 -1.214168 47.654015
6.373500 0.749299 30.903069
15.059000 -6.775495 61.888889
13.821630 -4.767334 62.226444
12.379503 -11.982848 93.203087
-2.896437 -8.833969 60.139629
-13.111397 -11.658368 72.741188
10.588445 6.220351 29.890680
6.896544 12.128403 96.026329
-15.525892 1.597870 8.348649
2.376157 -0.547284 65.748947
15.711504 -1.049870 17.181499
-11.861876 3.859048 9.181265
-14.678558 -3.257277 58.818298
-6.033563 10.174379 89.017120
-4.271322 -7.994711 53.400593
15.354236 -6.840203 85.941879
-4.114196 -9.297517 57.370972
-12.375475 -10.553834 69.149239
3.162192 -0.713823 60.646095
-15.519152 1.473849 13.676147
8.937947 -8.895992 102.140762
-6.850940 6.186324 36.084980
-12.945356 3.326544 37.122341
-13.030498 -2.943624 13.079763
-7.919982 -3.949579 31.570967
2.308355 -5.420033 75.223099
0.802505 9.073301 104.136787
5.989514 3.204456 11.250749
0.999956 0.285099 75.484856
5.790466 7.661126 89.985466
9.357121 -1.903124 8.437672
8.910932 4.293455 11.790881
10.953860 1.675667 62.048714
7.709748 -11.734604 101.410866
15.132185 1.925118 26.593029
15.268353 2.852091 53.254425
9.486570 3.570064 62.045502
-12.812201 -6.991584 56.586788
10.946279 3.178683 87.218605
-6.734914 3.844278 30.972435
-6.548608 -7.892790 44.315468
7.127870 -12.342186 91.023567
8.729222 2.817885 6.443290
-13.147289 1.139549 3.594030
-15.994663 6.746826 38.007256
-15.246794 3.946808 16.938408
11.669052 -3.798656 29.441624
-14.897645 3.960312 9.931014
-7.257080 5.753549 95.254448
-15.183677 -4.306273 32.079800
10.935831 4.012536 101.031883
-1.480870 1.023502 49.408810
-12.736402 -6.271975 7.148736
14.991573 3.240917 26.726490
2.132675 -2.832989 62.909393
13.520926 -0.455924 69.430573
3.477477 -10.457067 76.819214
3.037003 -10.201737 70.261070
15.860520 -5.658527 58.572174
1.022379 2.303521 54.359356
-6.269680 -6.465325 47.915726
-2.939466 2.790257 24.932384
1.165506 10.017665 93.647446
-4.202212 -11.315440 80.353317
-13.852250 -4.454811 52.072052
11.126711 0.875317 99.114967
9.801190 -9.427938 64.971237
-12.007013 4.284173 6.651334
-2.740799 2.146453 27.565050
6.233417 -12.930027 103.203041
14.416194 -3.130008 87.331779
15.135217 -2.587002 66.457573
-8.104396 3.283496 35.455811
12.526889 -0.787908 17.992125
0.022226 9.564602 86.301125
-14.028567 -0.425667 73.124939
-2.880810 -1.289203 33.412346
-2.339946 3.150507 68.675659
8.765760 -9.745099 54.268021
5.880922 9.365018 96.973061
-17.299833 1.024076 88.877083
2.095870 4.944836 56.639194
6.040459 1.238189 25.080252
1.420067 -7.222292 80.055603
-1.365684 -12.504240 97.320961
-17.360867 3.523353 14.841045
-14.497084 -7.062732 97.933693
-12.329104 -1.257714 68.714722
14.414892 -1.743560 53.106827
11.770092 3.806513 4.768140
17.217657 1.531348 27.625717
-7.291643 5.626577 10.950676
-9.549515 -6.391816 103.597076
-3.677306 8.206420 89.114960
0.623128 -3.667957 72.798119
-2.291386 1.045692 74.084175
-12.125975 -4.050809 12.197001
3.960008 -9.872751 64.054840
-8.939499 3.836832 11.319886
0.723019 -10.520069 88.258118
11.500703 -2.855680 16.237558
-3.162615 -0.269881 39.829922
-10.179947 -5.137320 22.539557
-8.283982 -10.854080 100.254570
-2.837624 -3.009611 38.441643
1.985693 9.734816 97.683197
0.461602 -4.055193 68.625412
-3.911386 1.607577 25.322044
12.029214 -0.609910 56.846424
-15.885547 -7.500338 91.718178
-13.633379 -4.665504 86.204018
6.852614 -13.175470 88.233490
6.741208 9.486345 88.277954
-14.639013 -10.495454 80.251633
13.925421 -5.225002 39.027943
-14.022723 -4.636223 65.532860
-2.242275 5.718069 83.666290
-13.871781 -3.946323 51.061283
14.664161 7.683280 29.703699
-9.016230 8.580646 94.084953
0.830825 -3.225324 80.196899
12.977281 -1.778995 18.495251
-6.098517 3.990519 37.843628
-3.660145 11.727279 89.480194
10.993545 -6.404535 6.619752
-6.713247 7.792911 104.898392
-5.487163 1.795125 12.797617
0.447815 11.281958 105.541214
15.749443 3.591424 9.059339
-3.922843 0.395832 74.893379
6.524613 4.511118 35.039810
0.078761 -2.130994 80.051811
-0.068340 -2.737340 77.130135
-8.922443 -2.628908 33.932796
4.148117 1.153973 31.748558
-11.690514 -5.687877 16.537615
13.889887 -7.128981 93.144516
-10.233025 5.603377 89.619316
-10.626116 3.193603 103.260628
8.414186 4.309774 27.394218
15.581878 -2.427545 46.950867
10.470788 -8.053154 49.141430
11.638877 -5.032413 24.857880
9.916361 -13.390100 93.523987
-6.624260 -3.372622 18.780533
10.671306 8.996800 93.224075
13.629375 -2.821478 38.554234
0.340367 -4.782248 67.443626
15.216324 3.226146 90.721931
-9.755371 4.288569 7.526083
13.542761 -9.182352 96.428612
13.011262 -3.672268 15.851328
16.499290 4.391576 22.748709
2.671435 -1.951559 33.331306
-12.915275 -10.852998 83.874245
-4.201616 -10.717401 83.492676
3.929060 4.176261 82.056870
-1.062102 -2.205557 75.742531
-2.602968 -3.946573 40.428932
-15.157885 -1.326342 95.744377
5.958963 -12.695163 80.196709
5.256212 -1.489770 65.075943
-3.802215 2.021196 47.092770
11.762182 -8.797935 71.950432
-12.508302 2.560401 52.466160
2.749107 -1.326216 71.632683
7.529879 7.371919 102.021393
11.324822 -8.568532 64.010963
-7.184003 4.452697 15.338678
-4.154500 1.968316 54.874538
5.048026 4.691153 81.434868
14.708629 -3.330219 14.194103
-14.428527 -8.327804 81.457718
-0.951779 -4.571046 56.985226
-12.759060 -7.225914 59.632233
-4.234710 -4.813794 4.070867
-8.245890 -13.559534 99.114578
-8.782966 -10.867202 68.231804
6.798898 -7.754867 53.350883
11.865425 6.505306 16.859993
6.035839 0.375895 11.831044
-5.870630 -6.807194 57.200813
-14.925815 -6.719485 95.626808
12.004040 -7.540015 106.055161
-7.696708 -9.089695 50.995667
15.863133 -3.791791 79.251396
-9.291291 -4.531950 17.078520
11.030600 2.097266 78.050995
-0.711058 0.403527 79.180901
7.834440 -0.178853 18.143373
-0.432260 -3.544770 70.294395
4.036346 4.398990 82.556107
-11.508047 -11.229317 80.008392
10.940322 -3.425520 27.478403
-13.115643 -6.590640 48.233315
10.757455 1.997867 56.378113
-15.086794 1.709015 46.112560
3.566136 -1.228023 50.946129
-14.296527 2.020051 98.588058
-5.740261 1.080451 44.948437
-4.108640 -6.803016 46.697155
-10.089979 1.700791 57.785938
15.439817 0.941717 18.090332
-13.834148 -1.292490 58.953457
2.454644 -8.000314 50.855450
-15.733686 1.010228 93.706017
7.863625 5.441783 30.416420
15.030306 3.419996 41.938030
2.901905 -0.861606 24.147621
-13.549256 -6.277306 56.008652
-16.386152 -1.076068 82.057800
-12.832874 -10.282712 69.140434
9.577864 3.697183 66.021080
-14.936312 4.421650 18.643497
-12.874856 -9.189476 100.905243
14.624115 -4.078310 70.139938
8.350340 3.564795 10.847095
-11.514859 -5.206539 9.656876
-3.382810 -0.084312 75.508476
-3.268049 3.687167 82.847130
2.940662 -7.574652 59.387161
12.020499 -8.364269 53.571850
-15.437714 4.268167 36.732254
13.362242 1.856941 48.343201
13.096971 -1.309045 29.032383
-3.236769 -10.633062 82.173592
-14.256181 0.613137 52.761585
-10.274127 5.168756 82.417068
12.966183 -9.615141 72.116776
-3.420969 -0.662531 72.110275
15.306891 6.214794 96.337135
2.924684 1.178214 71.419838
10.515107 6.711312 33.556553
9.196727 -4.846587 39.625298
-14.123390 -1.294827 9.080395
9.208564 -5.967166 33.443375
-8.407686 4.482059 49.816097
-11.013833 -8.411162 94.483856
-3.136324 2.957706 52.684460
15.402443 3.697316 9.091347
-14.279785 -5.550642 68.360687
-5.939719 -4.660379 12.335835
1.365797 0.770696 58.231110
13.621386 5.845196 27.625025
2.339961 -5.896116 66.298126
11.967041 2.168773 70.838547
-12.344101 -4.567511 90.230301
1.438909 -8.481551 74.483032
-11.721160 4.542845 39.708759
-11.980116 5.716805 6.122522
5.459056 -11.989480 99.642097
-3.574117 -1.475087 52.273140
-5.959665 1.672893 63.499557
1.082151 -5.107202 75.740265
15.344012 -0.610943 80.627022
-12.447544 -0.251382 76.824600
6.264727 -11.160054 88.623611
-7.426620 -4.292873 21.806070
-5.206646 -10.668362 67.525993
-13.595144 -3.754842 30.181837
13.014548 -4.234496 64.073402
13.807227 -5.743414 98.044350
6.102783 -1.594336 14.670044
6.423038 2.581084 32.482018
2.358793 3.616873 51.803375
10.395723 -11.282100 83.112473
13.037361 -10.996408 67.744675
15.650739 -2.995060 87.769043
-3.035215 2.912137 83.943336
-13.358192 -6.065048 74.176414
-11.253534 -5.156478 36.430454
1.226225 -2.228345 78.418404
5.980691 -12.769557 98.373726
-5.103314 3.876833 20.974672
-15.021790 -3.001027 53.653732
-13.155615 -4.696332 10.438026
-12.088631 4.708755 41.359268
-2.018442 -4.971128 58.110638
2.948423 -7.791023 37.740498
-5.419092 -1.586691 8.977649
4.635229 10.211929 89.033417
-2.224423 -1.606321 58.348919
-10.347916 2.543887 72.845909
10.779126 2.066982 72.040169
3.980821 -5.091433 38.340225
5.954403 4.232420 28.710566
-7.643122 -6.225532 35.715076
1.773450 8.322057 88.394745
-5.872008 -13.030375 82.232933
13.442993 0.552195 65.268578
2.810111 -0.155752 44.468754
2.904593 -7.281809 52.272751
14.057732 4.902966 87.068405
-0.744166 -13.613829 97.854294
8.087039 3.151769 51.084351
-13.919986 -0.253039 55.604130
-13.808228 0.173678 74.815697
-8.172629 3.195584 60.609303
15.964481 -7.382127 74.886093
3.991596 -0.636991 59.790359
-14.928088 -3.524177 30.724560
12.211114 2.131708 95.368225
14.869249 -0.843163 51.678116
14.624700 -9.824651 61.627003
15.364357 -10.321894 72.912323
11.125450 -5.688902 58.954411
-16.533268 4.392688 8.412797
-9.679626 -6.222792 40.365509
1.528868 -2.658928 56.403053
-14.428921 -6.554818 94.743195
5.687951 5.556829 85.048325
-13.212428 -2.638301 88.523224
-2.824697 -7.023972 56.022865
-6.030655 1.703468 17.367048
7.044463 3.855383 14.901674
-11.245608 4.362256 24.071333
14.222034 -6.920671 59.494289
8.486334 3.360245 67.812553
4.423674 6.627002 85.132614
8.358620 -13.948351 82.417976
-4.443678 -9.590940 77.249809
10.046104 5.503618 13.006794
4.258564 9.281219 91.290421
6.831420 5.251619 33.067371
7.133317 -8.470486 46.468094
11.817271 4.471656 102.216080
-8.105840 5.216236 39.649685
16.271587 3.026299 33.752068
10.902760 5.928784 87.666267
6.066425 -11.349017 91.368591
-8.323337 3.527732 71.046104
-12.271254 -8.914206 57.146858
-4.870059 -1.171234 35.981171
6.729985 -10.400513 100.238510
10.030649 -6.986882 14.914110
-9.425478 1.841864 67.648224
14.573045 6.588125 12.889480
-8.505077 -12.044171 67.755531
-9.021832 3.181199 11.386136
10.658409 3.730656 91.560074
-2.833344 -6.571898 46.736015
1.050789 2.035717 84.130875
14.876082 4.216104 89.715477
9.861658 -6.060941 31.600662
10.008791 -10.250722 62.715675
13.945216 -7.754408 80.958076
5.929395 -6.275630 46.818375
2.013743 -4.240663 67.693489
-5.709308 -12.235091 73.003174
-2.137712 -0.779969 38.289490
-13.718289 1.619063 6.934537
3.952607 2.241583 67.557533
-11.073146 2.461364 73.015465
8.480415 5.429256 50.629147
-17.447834 4.563752 26.307943
-3.872334 4.092346 25.407383
-14.087329 5.534762 25.027355
7.080824 -10.831667 64.163994
-9.348804 6.115007 102.554276
-11.252172 4.797839 13.250667
-1.531645 -7.381668 79.428665
14.814853 -0.373581 88.190697
-5.626060 -13.292661 75.622375
-3.264901 -2.253714 66.425171
-13.963690 -2.290578 22.923475
0.148135 1.557775 83.842255
-15.425327 -4.639353 92.575348
-11.360527 -2.512155 90.644531
3.679128 -1.889064 42.637253
-6.607866 -11.793223 91.597893
-0.408414 6.108755 87.466309
-6.278300 -2.591219 21.260609
-13.367595 -4.189555 7.908966
0.945658 -1.767157 71.246727
16.522438 -7.612722 80.180786
12.504561 -5.248680 86.858040
-7.948611 -0.058916 23.062752
14.155385 -0.208586 88.519669
-10.979223 -10.260896 81.447769
-2.743188 -11.014753 80.795387
-9.016748 -7.081955 38.213882
15.046233 -8.313119 67.174255
1.870563 -4.495715 48.831299
-3.659263 3.316805 86.537254
-1.158105 -7.857093 68.622757
-1.516868 -10.376940 81.397942
-6.102386 9.824840 89.988800
13.559840 -2.111997 35.552528
12.766721 6.780140 27.717758
-15.761247 -2.680480 79.448090
-2.853294 -7.449244 62.349125
9.489755 -5.027147 28.005262
2.308332 -7.487780 56.605869
16.187738 -6.411316 79.890518
0.988681 8.025729 99.748299
-4.670608 0.828294 47.399368
13.125288 -5.710225 71.355171
14.111797 2.542087 48.350700
-6.753799 8.205078 99.668724
-0.743993 7.555022 89.625870
-8.213602 -10.655143 62.142750
1.539277 -13.341489 92.324417
12.619233 -8.702531 62.564289
-6.979861 9.918293 86.952660
6.819462 3.385214 58.303082
12.466480 5.615416 93.519157
16.822460 1.398456 19.536905
-3.175176 -9.346256 81.644272
-10.036564 -10.170577 61.094261
3.491301 -5.987677 71.850220
-1.275618 9.765901 90.040245
-15.960593 -3.454328 95.838905
0.732034 -6.681870 82.325203
11.291275 -6.551610 45.554493
4.168919 3.545550 47.563053
-10.831084 4.087044 92.204208
-4.394012 2.997560 59.476845
14.081132 -10.785394 98.255135
-15.583105 -0.443437 32.454876
-12.510452 -3.389699 60.830727
2.223096 -3.274332 69.461586
-11.028073 -4.949950 15.326257
-12.371921 2.209817 80.993095
2.071044 -6.151603 56.164474
-7.979721 -8.360421 50.818623
16.558292 -2.077311 36.501972
17.512487 2.730851 19.902473
-13.522513 -1.439848 39.157978
8.291922 -10.203846 82.466400
-10.392981 -9.759734 52.414829
-5.964399 6.011335 44.129566
12.280200 -8.691300 56.260857
-13.177516 -1.009362 9.383766
-14.410351 -1.238869 93.965889
1.129352 -6.123528 76.775215
-15.242273 3.468886 85.959480
4.292518 8.634588 98.014030
10.901010 -5.389209 46.280735
13.948439 -2.511586 18.600311
13.609097 -5.574100 86.661255
5.774902 9.723071 94.059807
6.565528 9.973217 98.579803
-12.935498 -4.732571 100.867157
17.220375 1.589525 38.436028
-13.978530 -4.592505 69.047913
-1.415948 8.515590 89.076401
-1.382646 -4.622229 58.323498
9.739242 2.731809 50.420841
-15.596206 -2.656833 68.705917
-11.845112 -0.063893 56.369820
3.395826 -2.647110 51.143707
-13.960089 -3.975377 22.750614
12.604393 -2.561047 14.921644
14.028633 2.111570 58.207272
-9.875204 -3.819130 15.358294
-15.552939 -5.732138 43.087502
10.616771 -9.493843 66.954399
-1.419130 -3.988820 74.670410
10.776304 -10.135287 78.309517
11.477351 0.896498 53.484825
-2.260279 2.597859 60.964489
9.229655 -7.210446 42.485630
-4.707436 0.086318 29.678339
-17.994335 2.956814 28.784861
-14.303156 4.929153 22.013214
6.566411 -10.575689 96.601303
-9.358946 4.743021 12.035554
14.250230 -10.140105 80.652649
-3.312235 -0.816929 62.410763
12.617805 -9.348938 47.957176
-8.086103 -9.263111 58.983837
2.411047 6.402870 104.179565
6.500734 11.589945 90.680717
-12.799170 2.217703 15.632407
-9.297441 0.138803 101.472145
4.303700 0.113054 41.789886
13.968960 0.890439 88.273727
3.172832 -13.900880 95.392586
-13.338090 -3.233165 9.019237
9.320243 4.347629 102.493614
9.085019 7.555792 86.883720
-7.553347 3.694083 55.410301
13.667091 -0.477799 97.062103
-7.605870 -11.689310 92.458557
7.594197 -1.846170 8.543885
-11.551216 3.919457 62.068394
-7.204880 -11.606549 71.866028
-14.087199 1.015320 68.980995
6.178973 11.071838 88.053963
-8.962100 -2.257205 29.987545
-7.396401 6.378993 22.723223
4.193421 9.681403 96.361214
13.701306 -8.761029 86.964127
-9.924435 6.135109 42.812626
-3.320141 -0.497439 49.628834
1.072436 -10.055337 75.000328
10.218249 -8.443994 37.151726
-13.001217 1.272296 96.942200
-10.817200 4.556277 50.386444
10.663937 5.294041 9.336586
11.821677 -11.975831 89.162781
19.384605 0.761684 38.443146
9.977802 4.848052 31.362148
6.574440 0.061546 12.455417
2.130771 1.618030 75.928154
8.803047 5.786605 38.254505
1.231421 -4.425304 53.833054
13.484928 -7.648777 94.358047
13.754585 3.923642 83.489822
-0.659568 -8.546430 90.365311
14.534351 -0.034802 100.053810
-6.384240 0.463188 12.358193
6.988318 -6.317235 41.909691
-1.524221 -10.055206 87.638840
-7.982859 -3.547894 19.294804
-14.069448 -4.327044 104.002312
-4.219977 0.324905 56.208103
-9.617098 5.030176 15.230326
-3.082801 -11.722529 87.911842
-8.495805 -3.046046 15.610129
-7.421807 -7.600157 46.050694
13.547033 -1.107185 61.269058
-15.802093 3.495820 31.635212
-17.648102 1.173795 13.225552
4.111125 -12.005786 102.757721
12.443402 6.030145 19.306818
-3.923848 -12.566036 73.454109
-12.871901 3.782535 92.005783
14.505551 4.337810 20.981070
8.276162 4.918414 85.139709
-12.548285 5.063413 52.140282
11.860168 -8.848410 48.645336
11.769768 6.310223 22.481647
12.414990 -4.884182 47.280510
10.488729 1.031476 54.217651
6.977922 -9.996047 51.178963
16.139782 2.398882 22.299992
-3.150095 2.523403 74.760925
-1.859342 -7.343825 55.271198
-6.011309 4.598780 31.913183
0.828638 -5.280626 50.154800
-8.252069 6.433570 24.325014
-13.825586 -10.442122 96.343132
2.518440 -1.608966 78.029686
-14.776951 4.106560 21.870668
-4.185751 7.101645 101.923195
-11.222965 -6.846430 51.278873
1.075349 -2.346217 41.346092
8.213652 2.938064 72.930771
-3.295365 1.623708 29.126703
8.956919 -5.428586 29.308752
6.073572 -8.644456 38.294147
0.620899 6.945115 88.667610
-2.652235 -6.570708 72.163887
-8.667540 1.501661 64.339218
10.218807 3.640351 57.582180
11.723039 6.960969 32.741535
10.725814 2.748393 71.025414
12.812468 -7.058490 61.309204
-10.635974 6.874910 20.128778
-11.107105 3.344299 58.796345
5.068653 -5.508912 37.056580
-9.320966 7.609136 24.062803
2.691180 1.581138 61.731133
-17.201408 3.696004 104.966469
-8.198232 -10.121605 60.611858
-13.739607 2.054215 80.422630
-7.110654 -14.618568 74.897690
8.533662 -7.693395 38.388481
0.015370 -5.738422 76.423569
5.744902 -12.239854 74.250237
14.815981 2.483780 89.565750
14.463978 -5.180821 70.347702
-3.112292 2.176733 42.974976
-14.743527 -8.021477 87.034004
14.346508 6.625772 21.130497
