ply
format ascii 1.0
element vertex 2048
property float x
property float y
property float z
end_header
-15.815261 3.704420 134.438431
3.964687 -6.500702 146.753998
-4.267312 11.182233 129.729736
-1.020145 11.863530 133.132690
-11.514965 -7.759845 132.150131
-9.669839 -3.990967 149.675629
8.335526 -2.279056 149.709717
3.036242 5.953852 122.736740
7.832877 -0.499656 153.640198
21.972425 4.045570 136.333069
2.251404 11.756553 144.069870
-13.445044 0.822789 116.945435
-11.159559 -4.888892 141.781570
9.296927 -10.980289 136.112534
-3.060223 -13.588609 119.862221
-8.717546 -12.368932 126.560982
8.086894 -17.543133 123.194824
7.433605 1.267739 149.361862
23.105188 3.857063 135.964157
11.753372 3.966939 146.428009
4.143502 5.756589 118.659134
6.542674 -10.916190 119.858871
-11.823381 6.645465 148.645874
8.055074 12.775695 136.528625
-2.364614 -13.888270 123.134750
4.080330 6.309222 148.819824
-0.116672 -7.054946 145.629532
7.787830 -13.078359 128.094193
5.265337 -12.830577 125.985184
-0.452331 8.739643 132.508514
13.391703 5.837843 145.143799
-14.601080 -4.083939 126.284790
11.106528 -9.746294 121.770538
6.900877 -3.945546 148.334518
-9.754907 2.452096 117.519218
12.996952 -2.524860 145.250046
-14.023367 6.247475 147.915649
8.881725 4.996397 124.365883
-5.495113 -0.219802 148.791092
-9.839200 -11.292434 117.226196
4.611415 8.508759 146.582642
-18.996857 7.073942 138.419952
-1.374722 5.075453 117.944351
-15.676518 4.096777 143.952972
-14.420429 2.296230 131.370483
-8.546207 3.676954 114.241272
12.049230 8.249138 131.782944
-6.749443 9.564740 130.555359
14.281362 8.483685 138.245117
-7.190449 -4.557858 147.793533
-15.191504 7.952451 143.699448
14.836553 -4.084806 141.408630
-24.411293 2.536650 145.457245
-7.472604 -14.740639 118.428886
-8.533433 0.795321 153.076050
-0.157861 10.875753 125.540359
6.571108 10.037106 143.024048
-17.683638 8.926482 139.017960
-13.488005 4.292894 134.427353
23.168636 0.073979 144.181564
-12.489450 -1.749170 148.494568
6.650547 -10.140574 135.061295
-11.104804 -6.434302 144.611389
16.131950 0.540928 146.777496
14.207313 -6.197063 124.101151
23.758539 4.615807 135.977875
10.115098 3.699387 122.044968
9.128736 -10.325318 135.189468
10.505784 -17.664068 119.869102
-15.804218 -0.611876 134.742874
3.688444 -13.668758 118.162430
-12.725288 8.033096 138.893616
-1.010469 10.857616 137.788376
-2.987286 11.145151 150.640472
16.890137 6.455131 147.083862
-11.781992 -8.455471 128.652985
14.947903 1.070600 117.621056
-15.598772 -0.678241 127.251389
-1.434834 -11.509777 135.014771
12.905198 7.232366 136.919724
15.728540 -1.524514 142.224350
0.051872 11.898107 133.261337
12.326181 -4.819948 134.359512
-5.687512 6.370169 126.643707
4.263234 -8.227586 145.017807
-13.197545 0.330818 115.237679
-13.151216 -4.524454 141.622269
-25.513157 -2.183884 138.030075
7.916994 -0.456893 147.814178
-10.142739 2.449190 150.856964
-2.545535 -6.414865 147.320435
2.010150 10.841227 131.718277
-8.945255 1.257197 119.459389
-15.875350 -4.558827 123.150101
23.088287 3.446471 144.350357
8.376112 3.220291 122.693703
-3.186780 4.758238 115.985069
16.172678 -1.033143 145.716476
15.345638 -0.417291 133.891922
12.819857 6.106705 135.020905
-1.184974 8.426943 144.077682
-7.023622 2.679149 148.158264
-13.471358 1.412489 121.333466
-5.282734 13.036326 143.165787
-19.791775 4.489172 146.363358
6.947656 -8.086541 145.423340
12.329152 -5.587085 140.096542
7.332991 -4.244336 149.013351
-10.343232 2.488423 116.435928
-22.072981 -4.104513 135.434189
11.710930 -3.558812 144.478683
25.264656 5.819028 138.080368
3.752286 -14.087992 122.384132
-3.545238 9.180868 145.546951
-13.006165 -1.960484 148.152557
-7.566200 -2.022433 147.798218
-4.536730 12.005212 142.118683
15.175879 -1.261266 121.529022
13.768389 -3.231634 144.705460
-10.714285 -8.487260 129.860092
-2.041087 -7.221220 146.921173
-8.604463 -3.977365 144.990601
21.766024 8.215124 144.938995
6.731115 -2.444084 151.543823
7.203836 11.610955 140.141983
-2.451604 11.217241 130.075592
-10.527123 9.653200 132.367386
4.623089 10.313583 151.477570
27.437548 6.283662 142.514847
-17.142014 -2.638036 122.889084
-18.416586 6.461238 144.835724
16.380812 10.169714 143.945312
-14.332198 -1.544780 148.293900
-15.734056 1.816108 133.299072
-3.676745 -12.775742 125.075722
7.673853 3.129368 148.103485
3.449732 11.806217 135.179291
6.617470 8.283227 151.675354
2.681813 8.273106 147.410019
-11.649976 1.546086 148.145447
-27.217886 5.887036 144.772614
14.598156 -4.607151 126.119904
8.769355 -6.286055 151.860519
-4.235497 11.473892 138.327576
5.682637 -12.308237 127.670448
15.121293 -2.937582 116.994644
-4.532272 -11.177519 136.834900
-16.430023 5.409846 142.116501
-1.321164 9.981936 142.619339
15.366998 -0.010186 130.125748
20.586739 -4.624867 141.310883
-12.952393 1.304152 127.227409
-20.218487 -2.131186 142.599228
-28.879868 6.201464 136.237488
16.194376 -0.685185 123.077637
-17.542048 -2.097603 121.346176
-7.130564 8.277819 130.610184
7.245306 12.773734 140.064362
5.072215 -0.246921 149.430298
6.819890 4.005172 115.224670
-6.337662 -13.357791 132.361069
18.115683 8.269380 144.504959
-1.139105 10.773643 147.966385
-23.538891 4.240789 135.402100
-10.307747 -13.137305 119.998199
6.888434 3.280971 114.035332
3.764598 8.979993 143.321259
2.631183 -6.821602 148.014069
1.810859 11.746764 127.079750
-2.223941 7.137279 121.212349
2.616108 10.080783 131.487076
16.967361 -2.349695 136.201950
-3.655174 11.253491 140.847397
-7.745825 -13.070887 123.764351
-5.301322 1.247309 149.899277
-1.835952 -10.282536 135.909546
9.672494 -13.138729 124.998024
-24.814449 -0.263485 141.397827
-16.063818 -2.430782 122.619179
-16.401957 -0.224388 145.398849
26.775637 7.390843 138.388214
12.403191 12.191631 140.311447
-4.308472 -2.601990 148.923523
15.447390 4.937252 136.425949
-24.048141 5.852315 137.242630
8.666944 -3.072112 146.975632
15.132649 3.615943 145.879608
11.801503 -10.450440 132.380127
-12.009795 -5.211237 132.759949
6.231798 2.299155 151.283234
20.906422 4.631942 137.284515
-3.219548 10.946334 130.834900
10.486413 2.673253 118.073860
-15.755739 -0.261632 120.567451
-3.151185 -9.787172 140.756271
12.637671 11.632563 139.842392
-11.555481 0.216746 149.151382
8.932447 -6.410460 145.796692
-12.574152 4.709682 130.114075
19.107767 10.156753 144.981110
13.483029 -5.654494 131.730164
9.781673 -9.746390 137.019699
-13.182073 -6.735396 120.034561
-2.650501 5.873921 124.053925
-15.512971 2.556993 135.262650
11.686798 0.928533 115.126228
-2.751609 -14.275418 128.261810
-14.849277 5.792095 143.934662
-9.232111 -8.867672 127.046608
3.430055 10.837995 130.343582
-20.021143 -5.035513 136.877609
-6.051149 10.227047 150.694107
11.456938 10.766422 139.236008
3.782810 7.859831 143.320969
-6.973505 3.675979 153.242767
19.774193 -4.881580 136.162521
-12.371936 -0.465866 148.952240
2.031892 -9.766747 140.293625
3.392201 8.733567 129.178406
-8.590318 0.337030 148.088806
2.758409 -13.074619 121.145004
18.193993 5.588007 145.468918
8.004838 0.344362 150.071503
-12.961289 4.232038 150.537933
-14.370029 -2.153012 146.326675
7.514668 -6.324172 148.837616
0.967723 -9.284708 141.019379
-11.597305 0.198664 123.117012
0.644803 -7.343974 146.527756
6.186944 8.553598 128.439682
-12.693234 5.637676 134.475571
7.992896 2.975279 115.757469
-7.793839 5.808825 123.524788
-3.125876 11.140044 129.776138
-5.236702 -1.962694 151.572128
20.537119 1.514805 146.328125
1.929392 -10.232634 142.779724
14.496148 3.472021 131.006149
1.139755 10.869812 141.467743
-0.999587 -14.637088 115.286308
11.589188 10.495847 137.454147
16.845482 8.562101 141.321960
22.830807 7.046413 138.737549
9.530897 0.674767 148.083633
-9.812898 4.728387 149.740295
-14.093837 -0.066064 126.048096
-3.517637 9.758776 139.627945
6.778123 -6.376163 142.726166
-3.946149 -5.293526 149.311813
14.414534 -5.892017 140.132355
-19.796066 8.323160 137.728439
23.984856 -0.761612 145.873535
-22.480703 3.419509 144.605270
12.791177 0.543754 118.553749
-6.308618 -0.946824 148.608597
-1.532766 8.018462 145.514191
-20.114956 0.514110 144.578461
-5.554620 9.040846 126.187317
13.270744 9.381128 137.210022
9.712409 7.460601 145.769806
-18.132038 -4.700282 140.591049
-13.328336 7.076429 146.501312
-5.691383 3.851252 114.796280
12.504807 2.694330 148.915558
8.305105 4.876201 120.558823
-14.825644 6.112167 136.969315
-1.424059 -8.519503 147.165359
-15.471015 4.529707 147.629593
-9.002315 4.825110 147.104736
3.538881 5.987063 151.723297
5.603531 -6.938470 146.219315
2.841225 5.740209 122.858093
-18.597980 -4.626766 139.192734
29.283291 3.083394 138.705338
-14.891580 -1.683350 119.147217
1.162178 -10.468167 139.221680
12.271688 9.565665 139.408890
8.142209 -13.186662 120.453239
-10.463428 9.231805 143.809967
-1.752542 10.997945 151.108139
16.276859 0.942592 133.028564
-16.785639 6.543025 139.817261
-3.139385 -10.931819 134.717346
-7.778145 5.214495 149.429840
8.041780 11.935680 142.134354
6.697614 3.115399 117.678116
-21.675280 -1.786931 135.770340
-6.326177 4.460872 116.288445
14.048086 -3.632582 132.251328
-9.060429 -0.149285 148.288513
-4.059556 -8.404219 143.111526
30.988331 7.798601 140.927765
-21.617506 -2.868405 136.967392
27.072428 4.524779 144.115311
5.592781 -14.342148 126.120064
3.021987 10.635044 129.140579
24.723907 3.220292 145.934128
-19.830238 7.041973 144.548416
-15.331536 -2.646502 121.315323
24.396288 -2.291879 141.521194
-24.026850 -0.704300 136.861465
20.468266 -2.340983 134.960037
19.262844 -3.337651 136.792206
-17.913713 4.769943 142.678818
-17.016441 6.526655 139.264404
-5.620438 -11.444220 137.101151
-3.282490 4.590426 113.113197
3.444097 10.231088 139.799362
-11.028437 7.354887 145.066864
-12.064287 5.614554 126.469910
5.352600 -13.262424 130.452698
-1.229128 11.774231 129.558792
-11.418691 -2.520935 145.627670
5.693213 10.335366 140.251587
-14.079556 0.145441 127.077888
-12.477328 -6.451027 133.132904
13.140649 1.798668 146.392380
-17.882250 2.534638 135.222290
-7.100648 0.950200 147.196487
-25.882010 -0.343241 136.575485
3.473226 -7.585507 145.004974
15.834019 3.536406 133.747055
1.900680 3.996675 113.401169
-19.348209 -4.264624 136.205643
-16.366127 -0.831689 131.382706
-4.217627 -2.183764 147.105469
14.377674 6.436412 132.851624
6.476741 -9.892293 137.501877
2.878107 -13.769571 131.617828
23.764244 2.758379 145.392212
21.224545 2.473945 144.743164
-11.982662 -8.117373 131.240585
-7.342982 -6.533304 140.346954
-10.641298 -8.742026 135.360443
-14.119784 10.132082 142.671722
18.316978 -4.197749 135.240128
-27.916447 6.717881 139.960922
8.541368 -11.510386 127.575882
8.015903 4.809257 150.414062
-10.320593 -10.073197 131.965317
20.632566 7.740972 142.686813
0.165108 -6.797441 145.251877
15.426411 4.169744 146.596603
1.401362 11.863853 144.615234
-12.940378 0.627058 126.379074
-9.899762 2.071615 149.639297
0.023099 12.506956 140.659973
22.432940 -0.907274 134.247192
-1.966855 10.466541 138.736267
-3.180391 -6.131193 151.113983
-21.499218 7.008484 139.686142
-7.717983 -9.671364 134.471298
15.801888 10.096802 145.823700
-17.554487 -1.812311 144.839325
19.545420 -3.280906 140.379349
-13.580858 1.606326 118.767776
-7.922215 -9.322876 138.647629
-0.090955 -8.791120 145.963852
26.178946 1.167886 147.075562
-18.901087 1.923727 135.881516
6.787150 7.345967 126.815147
-0.143802 9.821121 136.354630
-5.518069 10.746024 145.216248
-0.749615 -11.734548 135.924393
-4.809298 12.218406 136.565186
-13.100119 5.647857 129.720032
11.133670 -7.925556 134.750244
7.976790 -12.286834 131.249969
-26.819756 7.556952 138.440582
-2.892514 4.147311 118.622475
-8.848652 9.918847 142.465317
-7.085017 4.961425 126.789841
-6.873324 8.967021 128.612045
3.064757 8.724121 125.058594
6.630088 -7.959338 142.428452
27.031277 6.973941 141.527695
-9.818695 -0.603754 147.466934
12.245920 0.143424 148.666809
-2.797757 -4.670390 150.388382
18.947426 8.838979 144.135300
-26.813686 7.659705 139.797974
13.798847 6.285240 145.622742
15.149794 0.262745 121.538887
-0.239389 -12.737609 119.235657
15.159169 -2.890932 123.427299
-6.370483 -6.228823 150.156265
-22.940062 2.696022 146.708252
11.707567 -8.422461 118.969948
24.620554 -2.012605 142.021866
-6.131807 3.029064 146.325150
6.681433 -0.936382 147.758072
-23.830946 6.665302 142.643127
-10.487603 1.405147 121.211700
-6.412044 6.189406 120.745010
-4.775659 -2.453861 146.900330
19.428320 2.687382 133.487961
-25.998510 -1.836733 143.915421
10.531521 -1.907569 149.312836
-5.024458 8.353173 126.566940
-11.785231 -7.431995 118.758774
3.239460 -13.739406 121.859642
-10.269894 1.440024 147.896454
6.467708 6.691298 147.814133
-17.944998 -2.276355 143.496750
-13.067297 6.811585 147.658905
4.766232 4.873825 117.638672
-4.613852 6.449829 151.033798
25.046356 -0.248204 135.429337
-2.495748 9.041804 145.355621
-0.465541 -8.604202 147.111618
-12.936631 -4.885122 119.298569
-15.707458 5.211973 134.715836
-28.168968 7.945961 140.628799
-9.737375 2.196789 122.051048
-13.260038 0.439205 115.319855
-6.152712 1.348106 151.166306
-18.170216 3.072289 145.251389
-11.479187 1.472237 115.354195
1.370756 6.342554 114.678513
-0.586159 10.757722 129.609344
7.039804 9.779460 134.403336
12.650441 11.083766 145.884811
-16.965210 -4.548125 143.070847
-22.661964 5.189595 137.671814
-13.366949 4.782656 129.677155
-6.703553 -13.082457 128.226288
-25.045156 -0.255483 144.342880
-9.353819 2.255719 147.588943
13.450795 6.064850 144.055405
15.203906 7.935745 138.715591
-0.987679 10.794788 134.645782
-6.799870 3.891802 114.298325
-3.825124 -3.241250 150.088501
2.649224 8.931637 148.918961
11.210765 1.249847 147.898102
-7.242687 3.728341 115.445374
-5.666754 5.273824 122.002014
14.983967 -2.353979 126.571014
15.807664 2.000026 134.856461
23.154867 -3.227807 134.882339
-13.260681 -1.481619 147.161331
2.225841 11.955531 130.873642
-5.228917 3.471189 112.997017
17.132597 -3.794173 140.311890
0.800221 11.513981 139.082642
16.203751 11.423059 142.705643
12.364729 0.157424 148.210037
-22.780115 5.198889 138.177872
2.854706 11.998117 132.077606
-9.593235 -10.016726 134.170731
22.049675 6.654708 141.932800
-2.766632 -7.899714 141.147034
-2.597134 4.820609 113.396194
7.257246 11.792316 137.995758
-10.460149 -1.145403 148.732193
9.399066 6.239494 146.215546
6.685184 -5.590570 147.413696
14.670406 -6.519807 116.811218
-1.177680 7.147152 124.033607
13.330505 -3.368983 141.070374
5.276564 -9.742588 144.402725
11.904890 -7.987432 125.423256
-9.067871 -12.306848 127.872993
-5.643904 -8.300254 139.191956
-5.825865 3.335085 117.104752
1.558099 7.434355 124.162666
2.738130 8.796184 124.953171
11.952706 -8.498865 125.062386
-19.428295 6.765427 142.729874
-15.089492 -1.361222 116.929436
-13.404016 -5.569752 140.891510
15.192254 1.714649 132.146698
10.390869 5.946190 123.498924
9.612594 0.738286 147.893204
-1.455829 8.420532 140.284683
-7.911286 -3.201526 149.063141
-9.327922 -3.374249 147.931244
5.289477 4.024627 123.091293
-4.015134 9.727936 151.205154
5.386700 8.795897 131.250092
-4.291410 7.670444 145.061279
8.586964 -2.508615 150.193420
-11.736902 -5.920422 131.191345
2.104957 7.338507 145.042587
-6.053694 8.668096 126.898758
-13.649028 0.263663 113.832100
-13.451921 2.843918 148.804428
-3.978172 6.510053 126.222900
-25.266445 0.714664 144.081299
5.226853 13.638941 136.159286
-7.878584 2.162770 112.413338
8.299125 -13.157343 128.694656
-4.767338 -13.000770 118.480583
-6.158772 -7.422121 143.468231
-17.734661 -4.326087 139.326202
-1.843658 4.521343 112.199547
5.628571 -3.379141 151.040802
-24.058037 -1.450090 132.820129
19.756796 0.045098 144.767609
-12.336550 -4.112934 120.894928
-15.588467 -1.301784 117.929253
1.996427 9.948586 142.321396
11.128149 -9.650682 134.519287
-25.963867 -0.072228 138.075836
0.255884 10.051126 137.663559
7.453890 -9.333760 140.907013
-3.560615 10.690664 132.239166
-14.672101 -3.705889 142.673660
23.837044 5.211484 142.896591
-3.504078 11.309700 143.088379
16.238136 5.791645 137.443085
6.144098 7.693245 126.111824
-10.431879 0.692838 121.926262
-3.534570 5.808230 123.922760
-8.816353 5.507922 145.767242
-7.567457 -13.042728 123.706810
26.130028 7.248553 143.203995
8.163457 -3.748880 150.802460
-27.422997 6.537380 140.421783
-10.676897 -7.338733 121.742172
23.582722 -2.339924 141.154144
-19.851788 -3.109633 140.082886
-7.980454 0.451176 152.667984
7.076361 -14.030705 124.185814
12.317317 0.983166 124.051437
12.787897 5.522983 145.813461
-20.962624 9.556077 139.707047
20.120138 -1.586892 135.559189
5.327090 11.828900 139.512527
4.906971 -2.417484 152.411392
9.167622 -10.714872 129.180115
-8.266621 7.373795 128.109329
-13.706863 0.329648 126.015808
18.122721 7.009807 136.795853
19.457283 -3.479878 141.751160
-12.206462 10.195436 140.686295
6.574585 -1.669296 151.425385
6.907249 -0.677178 149.700699
17.824701 -4.238128 136.862167
18.678703 6.064955 137.004791
24.463964 -1.875774 143.057480
5.258761 -1.234010 150.070786
-1.823607 13.543512 148.855698
13.717625 -2.456137 120.177574
-12.561542 -6.117194 121.777740
3.597648 -7.684146 145.200806
5.761662 10.100852 143.161896
5.474276 7.737368 152.063644
8.294499 -2.479211 148.961578
-15.248075 -1.999590 130.248871
11.775658 -9.312242 124.320168
12.983834 2.773513 148.135437
9.383399 -12.467923 124.403603
-24.290241 7.809519 139.122498
-3.517844 12.792045 142.778076
1.404091 5.676738 115.698700
4.479130 -12.409665 132.057693
-11.736624 6.286024 133.725616
-13.468759 0.808471 114.269844
-1.311865 -10.592588 143.333267
-27.117090 2.162866 144.349243
18.407528 2.953591 145.973907
-1.083805 -11.931130 123.506767
3.557399 7.934319 147.942413
7.135055 -2.329968 151.249664
-14.433654 -0.239155 127.452797
8.002037 -8.133374 140.063797
0.918581 -13.167748 123.601646
0.604932 -14.109920 118.959229
6.660587 6.018920 147.431870
-14.804761 5.983331 134.871948
23.798975 3.161303 137.227600
-12.412482 -5.416252 116.658676
-0.748294 -11.654999 137.617737
0.392289 -8.859959 143.086304
0.872073 12.105827 130.560730
-20.988956 6.294146 139.867645
3.908644 10.874357 138.586884
-13.646276 -5.339705 124.064667
-8.827777 9.134287 130.890823
-5.456222 2.828108 121.152199
-9.511335 -7.580232 136.218628
-14.128741 -6.202837 136.990723
-11.132105 -6.038850 119.460434
19.097683 1.524224 135.451874
1.657510 11.488347 130.577606
-14.304748 -4.787166 134.339447
-12.068913 6.893935 132.465393
17.275505 -4.013495 138.826645
-6.360612 11.755016 144.817886
-4.473991 4.537077 147.515701
-20.996769 -1.373327 143.664124
-14.519321 -4.771331 115.492889
8.572210 -9.288857 137.522186
2.997741 -13.100307 130.549301
15.529961 -7.096927 114.104492
-15.582178 5.434812 144.175598
-3.727179 7.901052 149.734451
15.029151 6.929998 135.933807
-28.230659 -1.761602 141.089035
-5.004521 -0.600111 150.632477
-10.902548 9.051167 143.877274
5.917183 9.999832 140.486359
15.749438 5.699222 147.059143
-8.761504 8.373499 144.167740
15.631182 -3.614795 134.297897
9.259483 2.213750 115.061935
-5.896201 -13.729674 122.612022
-11.221006 -9.060155 131.462906
-13.154690 -5.533980 121.768692
-8.539190 9.319679 135.505783
14.100756 -6.696659 118.634186
16.464146 9.182872 143.315918
5.829556 -3.135448 150.977356
-14.249018 4.661965 134.603714
-9.983146 2.798015 115.515961
-4.244747 7.090276 152.245926
-16.130665 -3.299442 136.658356
-0.541848 -10.876190 144.000381
17.035620 9.220478 141.177917
19.060272 -1.766859 141.439209
14.693707 -7.189236 133.896042
23.532934 1.145325 136.475876
27.418800 5.689854 138.251724
8.634268 -3.287570 146.879211
-16.060715 -0.989565 132.944824
-9.512998 -11.129371 121.827629
-7.845613 -4.879004 149.153076
15.478284 -6.490006 117.527672
-10.024022 -10.052985 117.533768
7.346352 -8.085499 145.024078
-14.780961 -2.709257 123.355728
17.936764 -3.771339 141.174225
2.172741 10.252586 126.111473
16.741978 8.228524 145.187714
-12.589769 -2.869886 146.417023
-13.602429 -0.708730 117.215912
15.327787 -3.413642 141.295425
27.170719 7.699687 140.268967
9.545788 -2.909373 151.391861
-2.905561 11.570086 133.901001
1.433731 -10.007267 136.896347
-12.252377 0.761652 120.004738
-11.030271 -8.579630 132.187088
-1.326188 -11.051112 137.844055
-5.251369 8.486657 147.461975
-21.978720 0.984058 144.132019
18.380892 -4.581089 136.603592
9.010962 -7.351357 145.315079
13.954979 7.473029 137.570786
-13.569184 -1.767316 149.112549
-21.100241 -1.537708 143.600418
-1.724433 -10.612911 135.746582
-11.459536 -4.661271 121.697220
8.925817 -11.578218 122.590126
-14.331068 -6.961962 132.195969
-26.727232 5.912537 137.879837
-15.651065 -5.021656 137.045624
5.695047 -4.330763 148.736145
11.538802 6.698689 133.196396
0.776202 10.909068 151.043457
15.773270 -3.913203 134.403900
-25.968037 -2.157358 139.473022
-17.306532 -1.918798 144.689392
15.481523 -3.193259 116.939384
17.297354 -2.882297 124.218666
14.174029 -4.725359 128.679794
-9.832922 0.172083 149.004333
2.648116 -13.429350 121.181938
18.781092 -0.782694 144.982681
24.729179 8.804732 141.433990
-12.238812 -6.297060 123.513535
-4.332107 10.253461 143.119659
-16.700462 -0.171360 145.758102
13.613014 -5.118925 133.467957
-6.202580 4.820694 145.889297
16.118324 -0.348440 144.799591
-14.924717 9.099324 143.254883
-24.567753 8.367068 142.200150
-7.408007 5.680538 127.765129
25.407534 3.912483 136.678757
8.161880 8.177663 132.317535
12.225960 -7.198434 122.667572
13.399696 -5.388170 133.770401
-24.996778 2.327384 142.709061
4.238575 -5.806756 147.813080
-5.916551 7.683566 151.218964
1.001639 -7.796193 146.908859
24.992050 -1.667960 142.233261
-12.469586 -3.187065 148.331161
9.706963 3.911431 145.841537
-9.691607 -12.201948 121.963844
-15.256231 -0.564589 145.147675
-5.483361 -2.198046 145.500870
16.209682 7.121645 139.296997
3.258744 5.717948 121.819756
20.533602 5.914220 137.537445
-1.365133 8.686527 136.757217
7.951371 12.498398 142.275681
14.890642 -0.869020 123.491035
1.264748 -10.834105 137.561325
-26.581375 4.757110 136.870956
15.044381 -1.932316 115.811867
-5.335980 -13.153516 120.248589
15.445512 -0.385966 131.591843
-4.400244 9.047782 145.499069
-14.819503 8.157730 144.621506
7.072569 -15.768207 117.393211
-8.099978 2.010872 148.566360
8.923285 -11.168198 135.008255
-19.489397 2.444039 146.237350
-15.956041 -1.627691 145.939133
-22.118061 0.649736 142.377090
20.977839 7.789288 141.676666
6.944240 2.661774 116.047043
22.462513 7.078055 139.970932
25.852352 2.848849 144.948380
4.527018 3.904619 122.495369
-17.264154 -5.120117 138.630859
4.512408 5.136033 118.887833
28.134060 5.474404 138.679688
7.951810 -1.318245 149.451782
9.294007 -1.053559 147.484634
-20.414654 4.643127 145.931335
-14.350336 -4.268447 120.121063
-6.591939 4.174626 149.615433
14.482202 0.279097 146.466537
-7.498916 -12.067369 131.988937
5.288824 -8.533917 146.269516
14.399210 3.175018 145.258972
-9.356419 4.110389 120.593636
-0.667895 -9.125504 139.946503
-6.633020 -9.528336 135.410782
-6.470317 -4.685640 151.766754
14.156522 3.360778 147.041641
10.478051 -9.485368 119.893967
-16.423073 -1.241815 130.074432
-1.652493 -9.501068 144.205643
10.532196 8.305194 132.005722
-6.873616 2.955231 150.478012
-7.550115 -14.883346 118.826385
13.784859 1.231009 147.635086
12.176652 2.570080 145.386765
-21.076221 -3.618468 137.530548
4.785535 6.166309 151.683365
20.139765 7.156170 141.440384
15.264853 3.299007 146.538712
4.972027 4.293058 111.874596
-1.450077 -11.968004 130.042923
-12.082705 10.146547 137.992310
-6.611407 3.123537 148.228516
15.016176 -5.895850 128.030121
26.473944 6.486314 138.898727
4.571148 4.811411 118.793503
-9.265800 -0.044574 148.076736
-19.857626 9.008180 140.256439
-20.748100 -4.097910 137.216263
11.281595 3.467705 126.121284
-24.197796 2.721915 135.598450
-6.965432 11.772359 136.275421
14.468478 -0.415484 114.544952
10.422290 8.627004 145.810074
5.647970 12.486367 139.676910
-14.608312 0.534637 147.746262
-8.424334 -8.460187 137.541016
-25.408407 2.710209 146.782196
25.037319 -0.886500 143.014191
7.369727 10.381426 133.569412
-23.060596 -3.026668 136.046478
17.067192 8.450012 140.885559
1.196026 11.232427 129.467743
18.881502 7.002731 141.740540
20.157597 -0.849762 143.421783
20.709406 -1.044618 144.101776
-14.530410 1.157830 121.717506
1.352221 8.971673 149.453796
-10.621931 4.842444 147.200470
15.246758 -5.543982 137.530411
-6.784882 2.115244 150.460480
-4.681220 4.822653 151.108978
8.959166 -11.827977 125.290695
-2.093884 -13.778908 126.280807
-4.087214 -6.992388 146.587769
8.136962 12.187301 139.888168
-12.531014 1.828117 118.944351
12.717600 -5.092902 129.493546
22.940220 7.110197 141.770142
16.139545 2.866992 132.389954
0.676535 -13.279881 123.457840
5.221910 5.920774 146.532150
22.673056 -2.713343 136.969604
0.650518 10.408827 150.237518
10.414531 -9.049888 126.451141
9.583743 6.157874 126.903679
-7.841311 -9.058805 115.060745
-16.244846 -1.005816 131.793152
-10.255328 -7.717383 139.366287
2.114552 9.205887 146.529907
-14.016430 5.437798 128.536697
26.981810 0.939531 144.913040
10.018757 6.344385 128.153076
3.786340 -6.843360 145.534073
-11.271576 7.862495 135.660461
-22.002512 4.320130 145.797546
-9.883801 -9.840821 130.151871
18.153709 7.978372 137.834732
6.802120 5.521921 124.066971
-18.045816 -3.933565 141.432785
-9.146078 5.482384 128.672287
8.198612 -4.541414 148.489212
-0.905296 4.299174 117.339409
-8.391689 -3.777652 145.870651
-7.560162 7.044632 146.823517
14.624331 1.268764 133.147629
-6.339305 -1.997263 152.912964
-8.618138 8.686277 129.848511
8.330394 -8.931318 140.149292
-17.445410 -0.191940 125.702827
5.350326 7.460687 126.309227
11.443698 1.191064 121.412407
-0.565429 7.358333 124.406784
15.014340 -3.101351 135.830490
-5.925969 -2.159089 147.815765
-13.134737 -5.959621 120.351189
-11.929385 -7.785018 131.634415
11.117602 1.703791 112.495766
-9.141165 4.005141 113.514534
-13.213852 -6.577930 117.113457
6.675496 5.906119 117.995407
-21.041006 -0.949660 143.364639
13.589405 9.783519 141.147797
7.740277 -9.675872 137.574493
-14.602761 -1.687552 124.245308
6.099289 -7.409610 145.758835
-13.815268 -4.945831 139.420380
-12.347275 5.542379 130.622772
4.144576 6.906850 124.954117
5.227360 11.024894 141.306030
1.260394 -12.876769 125.668472
-13.894910 -2.304579 146.448181
3.017493 10.578712 142.294403
-1.899079 -8.769856 145.188248
-11.533349 6.669056 133.771881
10.619418 5.970986 127.896042
-0.669244 -11.847554 134.269089
4.744034 5.575073 123.487892
-11.952920 -6.763595 128.601395
22.601774 4.185100 144.362793
13.637334 0.833055 129.305420
26.178070 -1.289054 141.798538
13.031313 -6.088127 118.064873
-5.499398 10.066428 145.368698
-0.063873 10.235540 143.185425
26.467712 1.099310 137.875824
0.441313 8.127300 150.241760
-4.213427 -6.611336 149.805145
13.033982 -5.899611 135.406601
13.973747 -4.391565 135.514206
14.187276 2.633305 148.108734
11.877727 3.305358 147.278000
-19.070381 -0.757441 144.432236
4.619005 -6.019573 147.399612
-8.172810 -10.524884 137.739899
-7.767643 -5.075063 145.836136
9.938443 -2.956265 147.298035
-8.109995 -11.304845 131.779358
-17.620558 9.828773 140.917892
10.087209 -1.911962 147.646225
-0.574317 -15.012155 119.066956
1.761138 -12.692974 134.994553
-13.716765 3.318818 127.056274
16.790384 -0.905723 133.998718
-9.486721 9.302092 144.084396
5.985834 3.670133 151.079178
-8.776086 9.239482 146.098129
-17.061995 6.325684 143.005707
-24.349566 -1.983546 136.689926
20.157757 -4.312423 137.640076
-7.686789 4.567377 118.822037
-11.408351 3.668701 149.908401
6.227716 3.721189 148.866333
-16.596535 9.344577 142.878220
10.191756 3.169331 122.970741
6.620425 -4.842192 147.313583
8.480764 -2.673391 148.380783
-16.929600 5.632666 142.596405
-9.031516 0.292023 116.301163
5.728016 10.230626 141.004120
5.053155 3.089896 114.315796
-14.706884 -4.648655 118.153290
-11.982435 6.978077 147.579376
12.966365 1.151261 125.420959
11.157500 -8.164792 137.248672
-15.553370 -1.977068 129.673141
14.601250 -8.605494 116.633217
14.675161 1.513943 132.207260
4.368252 -1.643465 147.531876
1.221503 -12.696177 123.398857
0.261806 -8.836070 144.333374
-1.178746 -13.491750 128.879105
-24.717995 -1.044574 138.459244
-7.363512 1.446425 117.098915
-10.980355 9.506012 140.882553
-11.948489 6.987513 133.481628
-19.298569 -4.333243 140.028183
1.085605 -12.708907 126.909729
-0.982157 2.024561 112.577789
-4.369373 3.455255 113.895729
4.639411 9.914294 133.780167
-25.608738 5.824368 138.237045
16.168531 3.355283 145.336517
6.589256 0.554109 150.129791
13.409937 5.417529 148.310242
7.248799 1.290391 151.529633
27.244631 1.292868 143.883774
-9.444078 -11.477134 119.107307
9.596455 8.360669 134.453995
-5.763485 -5.834248 144.434036
-12.768219 -6.787909 136.634445
5.315917 7.490251 150.038132
-4.921687 -12.511964 131.373718
13.466592 5.082635 132.546448
11.694639 2.159576 117.063690
-12.337120 -7.225563 126.414536
-21.676062 -4.522868 138.595673
-24.754583 -1.980385 140.494141
-6.398108 -14.418903 121.564522
1.933779 6.412146 148.254944
14.598841 3.553750 135.484390
14.781574 -6.766330 132.093353
9.740050 -7.444331 140.188095
-5.899662 -8.086088 144.154068
-21.121508 -3.271144 140.984177
-1.400356 -4.555076 152.192825
-11.444474 7.501281 146.046585
14.756474 -3.383394 131.364029
26.884136 6.303620 138.484726
-16.851957 -3.031102 143.664490
-12.204462 -6.284606 133.614578
-14.854563 0.375546 128.722351
-7.476832 -16.830210 116.092987
-10.540511 -9.943110 129.665390
1.008087 -13.601200 129.597321
1.177412 -9.395198 145.754593
-12.877339 -4.058954 131.027008
25.570911 -0.012379 135.943130
7.123218 -14.996488 120.354126
2.108407 -13.001731 127.777672
6.825483 4.459722 120.482712
-12.994725 0.264150 116.510002
-4.378714 8.609103 146.752777
-28.015995 5.951127 144.655609
17.447262 -1.325595 143.769730
-3.388043 5.237911 113.054474
1.335914 6.817297 123.850868
-19.631588 8.161524 141.504776
9.933352 6.418347 129.476303
-23.841997 -1.025894 142.943283
-4.718162 6.041180 122.231926
10.017907 -11.396647 126.807106
14.254774 -4.118249 144.240906
-3.730935 -10.464944 137.456940
13.370433 9.970241 144.334595
2.233698 9.445378 139.378082
-8.074368 1.184870 118.913902
6.254868 10.492218 139.684891
-10.698044 3.575073 123.598885
24.806250 1.102703 145.708817
4.720966 6.190508 151.002686
6.910751 4.110090 152.484177
14.140539 -2.786799 134.854309
4.252867 9.046750 129.238739
-13.101259 6.146330 133.764374
14.798791 -4.748013 140.770584
8.398801 8.046084 124.352417
7.641410 10.718396 134.505081
-5.624008 -10.383939 139.923843
13.283567 -6.702090 129.933472
-9.108888 5.837993 148.129669
-13.166521 7.386007 145.790207
-6.648593 9.224998 129.687241
5.946714 0.929891 151.422546
-19.165403 3.259932 143.256256
-12.507435 4.976348 148.362381
8.020500 5.908521 124.612061
-13.438746 -5.085140 143.493271
-19.657955 -4.013889 136.539764
-10.142191 7.333986 127.995712
13.279491 -4.599677 143.282898
13.273048 10.463072 141.171524
-8.851565 1.004580 120.106689
-5.991168 7.446576 128.215027
7.342605 11.384172 140.782852
18.008308 8.622698 141.733994
12.005363 0.941317 123.723831
-10.360795 8.908426 135.825775
-7.154075 -5.778598 142.590179
6.475632 3.121011 148.518997
-4.344125 9.631191 150.971786
0.012854 4.184350 118.142273
-10.724222 -10.108462 115.899208
-13.991509 5.920684 147.074051
23.312534 4.528472 137.158157
20.391129 1.396946 145.029510
26.594027 -1.288752 144.592484
-26.033825 8.532459 142.284866
-5.807484 -6.065571 146.494064
12.493784 10.600259 137.315674
-15.211305 10.552341 144.818970
9.829432 5.097686 121.504799
-2.986663 -4.306582 148.893387
-1.011852 11.108477 132.832138
-12.634228 -1.571034 148.990768
17.368183 8.536149 140.706009
14.573309 -3.312427 126.711067
9.665846 -12.898172 126.339294
9.215103 -5.018823 142.114548
-3.594850 -12.767566 129.098114
11.191628 1.527119 125.099098
-7.705107 12.195175 135.926636
-10.723846 -10.018319 127.912109
7.295883 12.166866 138.365662
-15.244914 5.222085 144.279083
6.170805 3.263578 114.521965
14.428709 -0.034185 117.318428
17.066355 3.183369 135.630463
-14.513546 4.343829 132.818604
-5.835841 10.944961 131.196411
-1.913396 9.992323 143.840103
-25.042149 4.633948 143.527359
13.064240 -5.201012 143.124268
-25.822054 2.889910 135.223099
-5.434259 -14.319781 126.818520
3.754691 -2.272111 149.313736
19.013964 9.221459 143.732056
4.136846 -9.505799 137.698959
-19.678455 8.293668 140.366058
-6.951611 -1.536302 148.502197
3.365208 9.446559 128.484833
-10.884315 1.767837 149.681290
-15.117138 8.987865 143.990616
-9.363900 2.546799 119.537056
3.934229 7.348753 122.768639
12.165073 5.352014 129.266281
0.516721 -8.204972 143.770828
9.320235 -13.668926 123.542175
7.601340 9.511333 132.002228
-18.309929 -0.100253 134.527863
-10.194475 -5.028973 144.763840
16.121948 4.929570 135.093674
9.744152 6.570535 124.362213
0.310649 8.790030 136.751526
-8.553425 -12.834512 122.156197
-23.952475 5.077367 138.356140
13.150713 1.181604 122.435501
-8.737555 4.644016 123.228760
-10.727683 2.296686 113.242378
-10.783945 -8.840964 122.315498
-5.014441 11.588646 145.887268
-13.587059 -4.011826 126.501724
-11.237564 5.634099 129.442322
19.207066 8.539588 143.132462
18.587608 -4.089563 137.032150
-6.544020 6.183300 147.618439
-28.701349 7.368345 141.594162
-9.674799 -0.570741 148.584961
-15.789473 -3.838946 139.342270
-25.967857 3.530473 145.575333
5.085219 8.220133 142.872009
-3.556384 9.536123 139.172424
14.787971 4.234404 133.080170
3.377373 0.634382 147.853424
15.082320 2.475304 132.267838
0.511332 9.792773 150.678741
-28.603428 5.938957 142.958267
27.519819 4.190845 139.250916
23.424850 -0.969618 142.765671
-14.947285 4.179672 145.801956
17.544180 -1.454859 136.572891
-1.573326 9.137128 134.039932
5.501881 -3.762680 150.353943
-23.825050 5.565932 139.516357
-8.456164 9.274035 144.267105
-7.726107 3.964088 118.757896
7.080418 -2.333112 146.431183
-16.088093 2.312991 133.069916
-0.226490 -12.633342 134.318481
-1.531360 -11.008920 131.818237
-10.070414 7.374150 141.940918
-11.737383 1.537154 122.744499
5.786295 4.757994 148.692474
17.628687 0.315139 145.226013
-14.730390 3.301859 147.531754
-5.327652 -13.379103 132.195740
9.862896 11.103914 135.956146
10.407385 2.217844 148.114105
-12.310916 -7.224134 122.351379
12.099831 -7.858691 136.736816
5.488211 2.435571 150.043915
-1.939297 8.721481 150.311432
-15.347727 0.367687 116.244164
-8.847643 10.962499 136.094177
-16.331820 5.250413 136.054688
12.299548 0.322026 115.837158
10.863495 7.145064 129.614120
-4.562969 -3.934661 151.629898
-19.419586 -0.993788 135.308075
-1.520305 -12.467640 133.590637
4.828583 8.137569 149.217911
-10.697821 6.219107 148.340042
15.623538 4.547657 146.720123
-12.842263 -0.241724 115.230370
10.969634 -10.344754 124.343399
5.633225 5.490464 148.926163
23.518970 -4.070379 137.382797
-5.058475 -7.759557 141.161896
6.402707 -13.989933 121.941109
4.271806 -9.667113 138.286148
18.990841 -3.911388 139.115921
2.213396 10.477677 149.003723
26.018532 7.559199 138.605713
23.005384 -3.030066 136.592285
7.904790 9.185402 146.074356
15.276872 -2.800356 145.152512
2.145000 -5.556107 148.679810
-18.881247 2.251791 135.081985
0.997769 -13.836377 121.306068
11.725216 7.338740 135.669449
1.123685 7.814783 124.742462
-11.593355 -5.185155 131.521408
4.532908 10.316904 133.775787
-4.468169 -6.143468 151.542221
-14.113592 3.214742 145.651367
18.809782 9.962149 143.134933
15.865003 5.123024 136.142380
15.944057 7.068479 143.389099
20.620848 -1.713755 135.926590
23.806208 -0.460117 137.129196
-0.337692 9.774282 145.147858
-10.634706 -4.375449 121.342628
-0.365336 6.012970 116.467377
23.301472 -2.857612 136.065247
13.478021 -0.272392 116.749908
12.446181 1.442965 124.075645
1.457865 10.585971 129.346725
-2.797443 -8.769509 140.712631
-14.310067 -5.002495 130.369629
-23.213339 -5.046245 134.752625
3.534061 -4.928834 149.157043
22.945347 3.447393 145.708099
10.876057 2.511810 124.855560
-18.797424 3.258832 143.308105
-12.759583 10.361387 143.856964
-26.438410 0.190823 144.587372
-13.944850 -4.234230 145.229034
-4.215512 12.018013 134.123154
9.175920 7.902854 130.490295
-23.895685 -4.405547 134.177963
-0.901527 9.392863 127.166145
16.393444 3.953331 133.332535
-1.333357 -13.419831 125.248589
-14.631371 3.120908 147.171036
5.171435 4.380301 147.869995
3.575786 9.081579 149.160477
-11.726876 4.098541 123.908791
-5.411468 2.387082 113.942963
-4.285045 -3.348326 149.895828
8.712354 10.098033 145.407700
24.443481 -3.648190 137.935684
7.828909 -2.853699 150.227753
18.826599 3.857795 135.599335
28.529018 6.337155 142.504486
12.927915 2.325146 126.649338
0.253365 -13.191089 120.126389
-0.502718 12.047739 130.300583
-4.149736 11.415914 140.626053
-7.218618 9.704518 145.891037
13.060453 5.347713 133.406403
20.112076 1.067866 134.988113
10.139828 -9.515514 120.409637
25.650047 -0.739328 143.057678
11.231400 8.274176 146.502350
1.191963 13.131190 146.385132
-7.770896 5.348012 120.979553
22.072935 5.356422 145.020889
9.941440 -12.657269 120.038544
-11.160864 -10.099804 132.093887
-0.361540 -10.263635 139.921127
-10.931510 -6.042924 138.898010
-9.140498 -10.174578 133.148468
2.843662 9.524722 138.790054
-7.701040 1.573672 117.048523
-11.512868 -6.029096 139.843704
7.320428 -12.621913 131.443695
-4.729729 3.491406 119.272758
-23.664623 9.893946 142.953720
2.121035 6.390139 112.850006
11.161056 -3.285953 145.431396
-21.441242 7.182563 143.005569
-10.672033 -6.408267 124.628029
-8.144531 1.325611 151.909180
18.058075 3.627352 135.685333
-12.470988 -8.367632 135.908005
17.735376 7.009754 137.331909
4.196548 -9.618076 135.301178
7.692763 10.331392 140.981155
-3.919386 9.445830 146.349548
0.692368 10.804070 150.578705
14.282537 1.165263 147.630676
22.857439 7.149804 143.415268
10.813710 5.874588 129.133041
1.437628 7.233964 123.035141
11.434729 -6.022813 116.216957
-24.087605 -2.129642 134.920288
1.807284 -14.618087 117.000580
-22.176207 4.747853 136.485733
-5.769856 -8.705356 146.234039
19.508228 6.000283 144.576569
-5.862906 11.592059 133.038681
-21.919964 2.632150 137.661331
9.176739 8.262876 144.527252
-26.670364 -0.788462 144.866684
2.195579 -9.139049 139.537979
-6.127780 -7.859873 144.485413
4.493274 9.236123 147.411041
-3.344936 -13.328683 119.203995
3.876714 7.874740 124.424500
-13.147992 0.904814 119.436432
25.614798 -0.913636 137.747391
-18.207691 -3.970936 141.404221
-26.008894 4.453012 138.889221
6.589523 -5.341868 149.178833
-12.547087 -0.030734 118.539246
-26.994562 3.957845 138.034744
23.491196 -3.356887 140.815369
13.326147 4.961627 131.283798
11.139672 -2.305150 145.823624
15.346147 -2.086466 130.006073
10.605672 -8.662431 135.197235
1.905479 4.902395 123.873726
-1.044966 9.343646 144.777832
-5.720212 8.492941 150.223801
4.447371 -16.547579 119.335274
10.661047 -10.582388 133.266022
3.139627 8.527146 125.814369
-17.214485 -4.971539 139.192780
4.544685 -7.183663 146.869156
-3.555586 -13.143669 126.940758
-7.262232 -4.290244 150.151016
21.830374 1.220754 135.168060
-17.230705 8.657006 141.565674
11.323677 -7.659116 123.356911
1.439965 -12.933587 122.573494
15.864480 -0.671716 144.780762
-11.715823 -0.092369 118.169273
-13.118805 -6.875747 125.949623
-10.710526 1.355253 117.292267
-10.565079 4.337962 124.144913
0.850583 10.656004 135.953735
14.509648 -5.149503 139.856888
-15.491386 -3.663541 122.896461
-8.429241 -7.771164 140.711288
17.432657 -3.754555 141.205826
13.568251 -6.173297 131.026260
-7.340681 2.473279 151.701172
17.551281 6.276608 139.169250
-24.338652 -1.759024 133.318665
3.848799 4.800802 113.093491
2.674134 10.479988 131.030960
5.930471 8.141758 130.611618
-3.708451 9.838888 133.334976
-0.379496 12.793078 149.250183
-18.025753 6.675754 142.286438
21.961950 6.984766 139.969513
-1.945967 8.253425 147.916367
2.704614 8.366094 123.617577
-10.383406 7.529804 134.194611
4.678905 7.436331 126.181297
-12.412812 -6.652736 135.251373
15.790276 -4.545631 140.784790
-7.830020 -12.875368 122.642578
-15.532703 7.589497 137.448517
-2.069376 11.967965 131.847183
-18.571215 -0.421181 145.457123
-7.769735 -8.204476 151.542313
-13.971617 -3.847651 127.449089
-17.399256 8.474061 140.553848
-22.695978 -3.583274 135.144958
15.332926 -3.610151 129.220886
15.212377 -3.873655 128.594879
-9.639059 -13.799341 121.015144
14.431339 8.869556 137.619827
26.308702 7.119577 140.775131
-25.269213 -1.318714 143.519150
13.034128 -8.603721 117.137466
15.974382 -2.039438 144.713974
2.755837 11.049914 132.791565
-0.403237 -12.879025 121.755478
5.705897 -12.690742 126.469009
-20.846376 7.618009 145.101791
12.408033 -0.516612 118.698502
9.662755 9.251527 144.096130
-6.125113 -14.115641 125.009636
4.196258 4.759476 115.300385
8.090159 -13.204206 121.024559
5.870510 4.454422 112.141640
6.330547 -13.838266 123.478516
-14.085375 -4.868284 140.134094
6.784692 11.267417 140.014786
11.928522 2.007102 117.359917
-6.116402 5.153584 119.396027
-7.527062 6.555832 127.636597
-10.712308 -8.230630 123.892410
18.636017 4.467932 143.157928
9.475719 -12.936491 125.855232
-10.171391 -12.184817 130.335800
15.831157 -5.179429 135.626724
1.307081 11.753716 139.999649
9.715877 10.903500 142.218170
4.537138 6.885819 124.066147
-19.397345 5.962986 143.426651
-5.789210 -12.873158 117.884232
15.824727 6.868702 136.948181
10.520648 -9.649715 136.865356
14.001285 0.883930 117.950829
1.042427 -10.568548 137.815994
4.450159 9.089189 150.064163
-25.022589 7.776256 140.572296
1.372701 13.210135 149.412766
6.250889 -8.457370 143.690704
-12.114461 -3.903068 122.604988
-0.372142 -12.310358 133.518005
-17.378132 1.429886 146.033829
10.820273 -0.338318 149.024292
12.351755 -5.322298 139.114166
-9.279394 -3.273882 148.010635
26.071207 0.557484 144.061691
9.518995 -2.038627 146.763596
-9.644055 9.093218 138.559769
-11.605929 -5.428088 139.522659
-1.582466 -11.063663 136.349014
10.944358 -11.259911 129.677475
-0.352431 -10.997378 139.459747
6.871364 7.691344 147.542648
-13.361445 -5.662413 133.255768
-6.226923 4.145589 120.436058
10.325372 7.043259 134.957321
-6.313021 12.294827 135.446548
-10.033426 -11.291619 129.112198
1.278289 3.762638 122.148216
8.617844 10.661407 137.416916
-10.867094 -8.414154 131.650940
8.422454 6.602339 124.088242
-5.473020 3.720806 112.561073
6.367283 -12.005083 132.944733
14.525985 4.693605 148.356598
-14.758745 1.378909 119.681686
-15.927581 0.202145 145.231583
-23.331974 0.392105 144.620926
12.894740 -6.772048 122.965782
-6.016324 -11.756638 124.885696
18.017456 2.006620 145.670395
13.317698 1.317905 127.274200
-7.534132 9.058998 143.900650
-8.922157 -12.583396 125.215454
-6.661158 -11.523050 126.554016
5.899614 4.169868 121.422798
-8.318180 8.476718 131.092545
-5.530206 -13.353501 129.078461
23.179409 2.927811 144.877472
10.140170 -8.447776 127.807838
-12.160105 -0.902709 149.299194
-23.088228 -0.915064 141.803085
6.826940 4.305276 150.337845
-6.794258 7.568628 124.050919
1.323018 11.537549 130.121063
-7.223917 3.398009 119.680397
8.960408 -3.390083 145.491653
-3.427488 -7.301696 147.862946
8.538832 2.687967 118.682846
-8.235764 -0.910803 150.603912
8.971663 10.507352 134.892014
-4.286467 10.669250 145.424988
-3.991040 6.033237 149.548035
-20.545029 -3.760300 141.824890
21.558531 3.621550 144.135452
2.025244 -10.331435 142.013733
15.977771 -4.336473 136.910309
5.322686 -9.958245 145.227386
-10.160526 -9.571327 119.872673
16.269789 -5.528518 138.769272
6.253849 9.678151 132.745483
-2.062140 -14.327724 122.573090
14.305137 -3.643735 125.402596
-25.225809 7.435987 141.843613
16.343317 -0.957413 116.133865
-15.749273 -2.959459 133.229172
16.554222 3.547336 147.353790
-1.722184 11.551602 133.113831
1.239720 8.608204 126.548897
26.024750 5.410326 143.740341
-15.281952 -4.495349 135.873322
-14.294141 -2.422736 131.601959
-4.947915 12.085517 135.795029
-4.040117 -3.971041 148.831635
8.843445 -12.299910 130.744415
-10.519203 2.070944 149.312607
13.067386 3.903841 147.065323
1.163756 -9.503142 147.621841
-11.007710 8.527279 134.024933
-7.705295 8.531098 146.451233
15.041143 -2.843488 116.800682
23.617479 -3.494754 137.119537
-23.001144 6.830238 142.729248
-16.284269 -2.435320 128.191574
-2.327396 10.140997 145.535263
15.088154 -1.697028 128.193573
10.067564 7.865596 130.438782
12.981880 4.445055 128.046432
-9.254967 -10.486876 133.930725
-16.044653 8.349801 143.184952
7.860393 -11.986347 119.808838
13.468568 -0.310710 126.379585
13.923194 8.581564 144.732559
4.874199 1.925744 151.016861
-7.728152 10.013120 140.771927
-2.706875 -13.461040 120.286400
-5.263996 12.428623 144.030075
19.242237 6.687290 143.455688
21.249197 4.765036 144.962357
-23.300600 0.230722 137.420807
-7.369874 -13.419318 125.647858
27.325493 -1.708568 142.333618
-7.535950 12.185064 140.326096
-2.650986 -12.930510 128.500122
10.103001 -3.061681 148.113403
12.854117 0.638857 146.259644
9.213084 -15.895923 119.644165
-3.331244 -7.238836 144.783188
14.967688 -5.773092 137.447586
-6.786663 6.695208 146.519058
-9.178213 -10.390038 137.187164
19.277826 -1.933177 141.820389
14.889533 10.426885 144.972931
-22.260231 6.243418 144.074997
-4.911403 -13.497375 120.360847
8.229123 -3.466258 146.656326
-3.448841 6.461324 123.913353
10.754517 0.902924 122.155663
8.137176 8.758232 132.542648
2.984676 9.689591 129.350739
-16.460033 1.280192 131.677521
5.533335 4.475293 118.167679
-5.175734 -11.753090 134.955368
-3.376873 10.297953 140.136398
-7.636162 -13.703475 126.774551
22.704115 -3.464145 137.995956
-16.301004 -2.240128 127.400208
14.384804 -2.068911 118.749786
-27.400074 5.572368 139.425217
-20.342497 5.574553 145.215714
11.788281 10.224055 137.864899
-12.607603 -5.252275 137.983414
23.249298 7.345354 139.278519
5.648738 -12.754433 125.569176
3.664680 11.721387 138.335617
-8.614580 -6.540334 144.013260
2.713138 9.745667 150.441879
-22.638563 6.407441 143.389175
4.680480 -14.767186 118.705666
-1.025004 -9.071462 142.704773
3.704555 4.143966 119.051361
-6.394674 -14.191422 118.750610
-9.009038 2.154257 149.494858
-21.779301 -3.271760 140.270615
-5.446414 4.917848 122.548027
22.175491 5.196226 147.056732
14.830534 -3.854673 143.322311
-11.928463 -6.423003 120.888023
5.743936 12.584309 136.159958
-9.718749 -9.831631 126.953987
-16.606077 1.550451 145.943436
-5.106897 -2.818699 149.063644
-10.759474 -11.464344 125.699417
-23.644070 9.262918 141.124344
-13.314761 -6.686795 123.778183
-3.608402 -13.704388 126.681862
16.220676 -3.740512 118.755096
24.065414 4.026398 137.407013
23.066483 7.208355 138.734619
-5.824363 8.619324 129.604996
-5.805572 -0.655734 149.132965
-6.911627 0.220191 146.952301
5.918974 4.094936 118.342934
-20.036970 -4.426008 135.036011
10.491597 1.185270 122.481956
-18.778522 -4.143255 139.062943
19.539787 -0.857587 136.428925
-0.704308 -14.052344 123.481377
-4.392507 4.708210 120.067200
9.822050 -13.785514 129.923172
27.420370 0.311170 143.178101
-7.936893 -10.726094 137.808380
-10.462170 2.559628 152.057449
14.409439 -4.922495 129.914658
16.854746 8.625502 141.891678
22.701971 0.836487 136.714874
-5.783316 10.942488 131.010345
-6.283518 3.805862 114.072372
5.013949 3.395566 149.847687
5.579073 5.132314 151.130951
1.838044 4.403197 117.622490
-15.843327 2.800678 145.253250
-14.901314 -3.302428 125.079620
24.527487 5.517664 138.530746
-0.326278 10.795954 129.607452
-3.227671 -7.320755 148.337814
10.587223 -9.949580 127.759003
6.323485 1.750713 149.798111
-5.038735 5.551105 148.644547
21.442093 5.629560 145.024170
-1.777021 10.473427 137.326752
5.741488 11.897182 142.998322
-8.459236 5.563854 145.875702
5.468586 3.145991 114.356750
22.188566 7.364150 140.925018
-2.026593 9.531571 150.411331
-0.558216 5.383086 124.506218
-7.226989 7.064584 125.757812
-9.092471 8.762089 131.319412
-22.828976 -3.778397 138.255264
-13.534860 0.235420 116.535057
-6.482992 -12.396074 124.122231
7.931976 -4.108765 148.316406
19.520784 -2.411811 135.246384
-29.018068 6.319169 141.390259
-2.520723 -12.010650 126.644447
-12.457911 3.533241 125.640167
6.634910 -3.799222 147.159378
19.794130 5.608388 135.996292
6.462832 -12.880748 126.466576
-0.772718 -10.489773 139.951004
14.194762 6.984612 135.304276
20.403959 8.457503 139.919632
-12.766205 -0.035908 113.751823
9.338143 7.459781 131.875641
15.702482 -3.539891 129.919098
-0.138327 10.412155 142.256744
-11.340018 1.200226 123.294945
22.358757 -2.467900 142.403259
0.622730 6.431870 117.663948
0.844659 10.299045 133.778000
15.354635 -1.715304 126.323647
14.246433 -0.551977 145.673843
-20.298845 3.677772 145.060791
5.212022 -12.698089 134.258865
-6.932519 8.606605 129.402237
23.280720 -3.663248 140.883453
2.410459 4.718557 108.902969
-8.200408 -6.685150 142.961441
-7.489927 7.945210 130.867523
3.524048 -3.854016 148.972656
4.116525 11.212470 137.642731
2.511250 11.714190 143.536911
-22.065966 3.051919 136.092911
-17.656624 5.537676 137.074631
-0.771470 10.673894 145.043304
9.751134 -7.337931 140.496780
-2.208782 4.468321 118.430801
-0.695261 9.779408 148.446198
-13.265265 -6.507548 141.282639
15.848368 -3.083315 126.251747
-7.158424 9.538017 146.577469
20.870277 3.688754 134.910049
-9.741308 -3.683016 148.455765
-17.624195 1.812663 145.009552
13.746420 -1.129479 144.383392
5.119568 9.489627 132.940704
-20.115862 2.133324 146.312500
-20.631477 -4.117468 137.017212
9.641369 -5.608893 138.432343
15.103061 -0.257468 117.572014
13.651017 -6.655237 134.340088
13.727741 -4.646897 127.676369
1.681032 -13.843030 119.234215
-15.569037 8.994878 143.290115
3.502535 4.094059 152.159317
8.164850 -8.593898 142.090912
17.208408 -0.685008 143.402100
-13.855550 -5.475718 132.352554
-14.610640 -4.482866 130.763840
4.684495 -13.676497 131.990387
3.502421 6.944821 147.924545
3.591831 -8.954309 138.904480
12.842068 4.947435 130.695938
-6.535102 4.092102 148.619675
1.988763 10.125735 149.749878
9.459641 -6.513882 142.382980
8.697145 -1.258988 148.359100
12.357167 -8.508603 127.979843
-1.702426 8.017597 140.364761
5.990200 4.436303 120.198898
-9.590845 -9.473248 137.833786
-15.091334 0.413874 126.841087
17.148548 0.016434 144.158249
-17.368853 2.015050 133.270096
9.373468 -5.156486 141.549957
24.403400 7.848844 142.278061
13.899558 -4.817935 135.642639
6.152063 4.712734 150.104111
-26.464149 6.587204 146.405914
-18.790434 1.122389 134.807556
-6.978965 2.991568 124.104767
-25.725067 1.105960 143.754013
5.134925 6.299820 146.632797
15.578896 -5.811077 121.000381
3.076421 -10.980639 134.093918
-9.230479 3.350779 149.078064
-14.423223 4.000476 132.619705
19.331861 -2.003029 143.710983
-16.358894 -5.197940 139.710129
-0.411690 -9.346726 143.219620
-17.887848 7.581383 141.119446
7.326333 7.573536 147.986542
-1.793192 -5.445728 148.990753
-5.429307 8.871099 150.781311
-21.275219 7.438223 139.831696
-7.364400 -5.510619 148.704468
-18.762644 -0.978219 136.034470
-14.696439 3.426228 145.561691
2.120884 8.250546 149.529083
-5.364631 5.296111 116.667038
9.634190 -14.346052 126.969032
12.807940 -7.534500 131.892136
14.910903 5.842578 147.508560
2.221646 12.121155 139.059875
4.272439 -10.950840 135.554367
4.238636 -12.733348 132.832962
6.649466 -5.486752 147.755905
15.333180 0.467857 127.591812
-28.486874 1.856847 144.008987
-7.483541 9.856482 144.741241
9.728497 -10.922097 129.513107
-23.276127 6.337679 142.684448
4.047146 6.977215 148.206238
9.698905 9.313509 143.944885
-5.676983 -3.438113 150.126633
28.269024 7.373055 140.383972
-2.243717 -14.637975 122.625435
12.881824 6.403026 132.022491
13.907490 9.360225 139.035065
-17.282536 5.645652 140.892136
5.077117 -12.608731 133.168869
20.621363 -3.856035 141.211777
9.802268 5.263241 146.203461
-9.342199 7.561090 148.215790
-2.440279 -5.908451 147.701309
6.234115 -5.289154 145.899918
12.497142 -8.497039 121.598152
6.829334 2.633784 151.955429
13.718140 -3.822101 129.591232
-5.839198 -4.373980 149.169632
-25.023048 3.415595 136.373947
-21.053886 -3.264024 138.283127
-11.442375 2.519285 149.729721
4.411856 9.546343 141.704803
6.329135 -6.033388 146.861725
-1.970809 6.428567 147.893997
15.552121 -2.832145 131.815308
3.037331 9.618548 132.793015
10.980515 -4.585770 144.565948
4.528177 6.989563 150.339951
-23.682301 -4.406366 137.516190
-5.078773 12.645529 134.614777
1.510707 12.566563 138.243851
-13.697650 0.001364 130.317154
14.888743 -0.506362 117.828262
-16.494429 -0.663700 132.182144
-6.177413 10.921022 134.646011
-7.552661 -8.828808 137.459564
-7.256107 8.669413 141.549194
1.086702 -13.671215 118.817886
15.584419 -0.145298 134.845795
4.291701 9.233173 150.921036
-0.616441 5.257544 121.699051
11.777174 -8.824309 123.669624
-9.349473 -9.371899 127.263855
-26.183029 5.172694 144.606995
-4.545012 11.819788 129.826401
-19.732611 8.171803 139.042465
-8.902550 7.513791 127.397888
8.258085 3.958876 120.560829
4.581658 -11.729080 135.686325
-3.730440 10.598722 132.952667
19.969954 7.267214 140.223740
3.846985 6.118993 121.043518
2.002514 9.658565 150.378967
17.677094 6.993964 144.502075
-1.843159 -6.834011 148.149139
-10.273653 -12.682384 122.620384
11.546621 -7.281672 122.402199
-20.437727 5.384098 137.123840
-15.710732 -0.053767 125.209984
-1.006765 8.132040 122.024086
19.566364 -2.928257 136.426804
-14.263710 8.948243 141.979523
5.443051 -12.182894 133.677719
10.834192 -11.488483 128.282333
-4.617195 0.011165 149.012039
-1.424862 8.210086 123.983986
-9.482993 -4.191916 147.651245
18.962671 -1.382460 143.599976
-9.292201 -4.527987 147.556076
-10.212842 6.606457 148.246292
24.863043 2.672360 136.105026
1.217522 4.425734 112.954285
-3.915296 -10.369841 142.407822
13.023878 -6.812233 129.599197
18.039890 7.531579 140.487228
8.927011 1.810847 149.639755
2.795858 10.937968 140.276871
-10.568639 6.746481 148.078156
-20.890215 -4.139235 135.724884
9.529449 -0.530750 148.250641
-10.207213 -7.167158 140.459457
1.354592 11.410537 143.877090
24.073463 5.296607 142.905945
-5.429147 4.160035 120.366074
13.114573 10.455377 138.623642
-0.252641 12.341208 128.554520
-14.284478 6.107708 135.025269
7.853612 -9.336433 137.828552
0.647322 -15.008759 123.823608
5.682162 3.363595 151.619797
-8.109401 -2.506117 150.913177
-14.934237 -4.412322 130.898132
21.149456 6.933064 140.901321
12.521049 -6.317266 129.155533
-9.910280 -11.467228 129.186951
-1.315849 5.261472 120.441483
-10.539905 6.623247 130.418060
-14.555823 8.112912 139.637375
-12.858242 -7.169795 133.866074
-4.853857 10.863582 136.068588
-13.470633 0.183345 120.274529
9.288304 -1.086204 148.462891
4.051271 10.237609 132.255325
-22.521320 -2.850294 137.986328
-10.249039 -12.723069 119.252434
-16.559017 8.713075 137.887680
-14.417313 -1.954336 146.134766
3.705405 11.294791 132.700256
3.209446 7.107206 122.809715
-12.046118 9.505456 137.661331
13.701701 10.518165 145.218216
16.662798 6.338597 145.303436
26.903263 6.650330 141.877853
11.716041 -15.487720 119.701530
4.357378 -8.403290 142.543488
6.739594 -13.748290 122.009377
-10.062789 -11.946132 131.312866
14.771442 -4.969931 130.724243
11.432854 6.921551 146.227783
2.871976 8.757549 126.035431
-1.933088 -11.564598 128.333435
-8.759304 8.432756 129.508484
2.993824 -11.577148 134.140472
4.845725 5.171389 150.126831
11.807887 -0.547104 146.408646
5.188324 10.072844 142.949860
8.720727 -8.700393 137.339096
0.810160 10.528389 149.256119
-3.453634 10.239558 138.421326
3.123785 9.790085 143.685440
9.648945 -0.190591 114.393784
-12.411592 2.210668 124.479073
10.563948 -5.327707 141.953018
-28.113987 5.353751 142.887360
0.293610 -13.300506 121.823158
5.370246 11.068583 135.181396
-15.373573 5.200978 135.240814
4.719868 -13.808781 131.303024
-5.058607 4.769245 119.587852
10.935790 -8.636809 122.224762
-18.277048 -4.115637 139.291595
-4.199397 -11.115107 139.278503
31.253105 3.105216 142.818283
-13.301553 6.055528 137.075806
-0.446050 -5.546344 149.124146
-0.368447 11.459323 134.290771
-2.684396 -11.394376 118.243294
12.907516 1.978783 128.885468
-12.292007 2.052147 149.160690
8.804014 2.167104 122.731331
13.736486 0.363837 116.641685
3.210481 6.747274 149.860550
-6.911082 -9.965371 136.911285
11.082710 -12.292089 120.086723
-0.940753 -11.169767 138.672531
17.627249 1.255786 145.341583
-20.402338 -4.098548 140.809357
-0.237714 6.625423 122.543587
11.785907 -7.684738 124.551552
-19.422718 -0.764664 143.182297
-4.133002 -12.385448 118.090630
-12.402968 9.299753 139.367142
-7.438270 4.706517 145.140045
13.009620 -7.083798 116.429024
-7.761921 -12.335795 127.211021
-2.512309 -13.146461 130.146881
8.618464 4.242981 149.138214
-12.439864 0.948954 116.079231
-5.673316 -11.044947 138.056564
-0.437312 -15.225136 119.193565
3.432998 11.547079 149.160538
3.761523 10.151045 137.376633
-13.152142 -5.998360 140.721756
5.648132 -2.926105 149.268082
10.877533 -7.998296 118.851097
-4.592660 -11.511507 135.885681
23.256268 7.634645 140.609161
4.054264 -14.334211 122.157097
-12.514640 5.920819 128.236038
-2.676770 -6.968495 146.060089
-20.890898 -3.166626 140.661346
-21.046829 2.255909 145.635986
11.875879 1.517141 128.045090
-16.277822 -2.160676 127.267746
13.209873 6.277805 133.873642
-9.530848 -12.068492 119.603127
-10.578415 1.935882 150.646515
15.584500 2.799084 131.599167
-6.823520 8.800542 134.006180
17.529631 1.666692 146.593826
-4.649731 -12.399750 132.487061
13.495395 -8.372040 124.999382
8.394202 2.956409 113.631042
14.135382 -1.826543 145.575699
-11.527707 -9.783230 130.011841
27.002710 -1.208286 140.689560
3.511044 6.295197 144.704239
14.623852 1.701032 134.560211
-8.210268 2.688887 119.514809
1.006264 -10.654453 146.786530
-12.351493 -5.226406 130.752701
3.343833 5.225904 151.941742
13.626172 1.720227 147.511887
-19.454123 4.579740 145.711395
-12.251231 -6.247473 126.300583
5.970939 12.942881 141.362686
-20.309177 -3.810810 141.072937
-7.607429 -12.878873 120.364967
-5.488133 -12.427710 129.996216
16.846991 -4.707892 116.663490
11.131041 -8.870078 132.540726
14.803738 -5.767890 118.216927
18.837433 -3.854117 137.495865
-8.481420 -0.304884 151.470901
-12.375288 8.153343 135.485764
12.219275 0.972900 125.125191
-3.244948 -12.111996 127.854759
16.730604 10.238274 140.761505
-11.217437 -2.411345 147.288895
-17.264801 7.238880 136.833206
-13.703920 0.891360 116.004166
-5.125049 3.389788 113.277519
16.763910 6.541210 144.784958
-3.876127 -12.195531 132.131256
15.130740 3.379674 133.999023
-10.458882 8.799389 135.759781
14.065782 0.826393 116.275398
-7.674651 8.070655 145.225723
-10.399589 3.467579 149.997452
5.678123 3.951321 115.959114
-13.442417 0.996988 148.339600
23.569595 -3.209332 137.615662
-15.545716 7.833742 142.057770
26.686758 1.311727 143.715576
2.416965 -13.934967 122.287743
11.087849 -8.406680 133.198425
14.931600 -5.259529 138.017059
-16.761307 5.931304 141.815491
13.669327 -6.599130 117.203491
12.555634 -6.326136 136.186981
-24.139042 4.847056 137.055237
12.900844 -4.704771 141.330841
9.006723 -5.178643 144.262421
7.814712 -7.044850 140.584183
2.819485 8.387883 126.903122
-5.862480 -7.142573 145.966644
3.162071 -14.625487 119.772705
6.361087 3.828420 122.989883
-21.810940 2.645430 146.369675
21.921192 -2.324517 135.315399
4.535820 6.329754 148.407104
-8.775322 -7.766846 140.070099
9.551471 12.661219 138.351166
4.148530 5.918769 147.840347
-7.478376 -12.300074 130.564377
11.703269 -8.281569 129.620483
11.218388 0.883564 131.379700
-8.256350 -14.515625 121.658791
8.161727 0.697430 146.616608
-5.741339 12.581845 139.131714
12.282063 0.831413 117.409111
-20.921078 -1.763192 143.842590
-9.294964 9.172567 132.059570
13.421313 1.939922 147.845886
2.644570 10.674079 142.398605
-7.821995 9.901581 130.127563
-15.990880 -0.193561 134.034775
-7.685312 10.597226 140.091843
19.255838 8.014742 140.464722
11.776395 -0.953639 148.981613
3.646510 -12.842643 129.012619
-11.225407 -7.779609 121.176804
-10.347068 8.018665 142.802216
8.043203 -12.721191 128.787384
6.860532 6.508876 146.786987
-20.633883 -2.222049 140.826782
-5.585294 -3.377467 151.601273
-13.625398 6.649196 135.822021
11.911848 -4.410208 136.682373
-4.286248 -9.397177 141.958099
-11.710551 2.499483 118.698517
21.363905 2.069276 144.440521
-8.624398 1.727386 146.700638
9.478317 5.725298 127.550888
13.163178 8.380738 134.195877
-15.973856 -2.519099 122.502426
12.842584 2.080401 126.988426
5.881723 -1.734375 146.739807
14.474607 1.037996 130.207123
11.126783 9.334647 135.060562
-5.664385 6.765812 151.150803
8.361607 6.637605 128.025436
-21.438765 7.925631 140.882690
11.626805 -0.573770 146.773148
-0.129804 -13.124294 131.304321
-1.341698 -10.388334 143.873840
-23.291607 0.460973 137.135025
-2.357628 -12.549140 137.313904
-15.009829 5.175426 132.992188
1.875786 6.042462 145.704117
7.068759 8.852716 144.988403
-29.349165 0.462567 143.003220
-7.324885 12.146190 135.259293
16.129421 8.167161 139.268661
4.155803 -8.827638 143.241028
6.739495 10.644646 129.933624
12.631790 -6.218283 126.005280
-9.412914 7.409522 130.546341
1.597603 -12.124706 134.696518
23.607380 5.661984 142.687531
-9.076649 1.803444 146.161850
9.403381 7.124550 129.737839
-10.119928 1.127019 117.712181
0.112632 -5.548526 147.216217
-2.089122 -13.946354 124.793869
10.633514 1.808867 148.167892
18.238722 7.956083 144.472794
-6.208947 5.564116 126.181725
-9.973769 4.738937 122.506195
-10.407948 -9.197314 136.076843
-2.691029 3.956392 117.528023
8.563076 -0.002149 146.673965
-1.221263 -9.054153 145.695862
-15.855171 -3.278972 118.823776
16.096865 -3.666215 114.231514
8.126313 -11.733683 131.534210
-5.079728 -6.017788 147.796860
-2.976490 -10.241116 139.174057
-5.534245 12.173235 140.653030
-21.444792 -2.778381 138.449600
-8.516021 5.164565 123.940269
-6.602858 10.036407 143.874649
24.150887 7.423347 141.411652
-5.584239 -13.107319 129.146683
-2.785512 10.250577 149.997360
-23.054989 2.501626 145.569321
-8.599363 7.689944 147.762100
1.734835 7.577454 144.559311
2.480155 7.509929 124.083389
-6.897882 -12.483992 130.830063
5.960318 -4.742968 150.919022
24.217518 -2.268393 140.207504
7.786700 -7.573363 142.945190
13.270571 8.936218 138.362167
-13.317067 8.965051 141.402573
-17.839855 0.515282 143.650528
-7.588971 4.711875 151.367981
2.526124 -12.289224 126.344711
13.194766 10.222682 139.677429
-20.730688 7.772078 140.634186
14.563869 -3.914669 127.996178
5.012924 7.360225 128.827820
7.181449 8.456324 146.711685
14.530834 -5.155828 127.019951
-10.908634 9.028783 142.446762
14.031603 -3.049796 120.407127
17.660261 4.545750 135.667465
-0.271839 -6.015071 145.338943
-0.002464 7.834404 148.843445
-7.855852 -9.867994 130.770630
5.670632 2.628044 150.374542
8.524143 9.531280 133.364868
-11.808354 -3.636939 144.033249
6.466962 -0.600157 150.660187
1.473652 11.076065 128.458252
-15.627915 0.028867 130.316299
11.142218 -13.083027 122.842590
-6.022213 -4.870522 147.430359
17.801575 9.152524 145.080231
-3.618213 6.502246 120.562500
-6.422467 -11.734406 130.671692
-28.464607 4.731636 138.293015
-11.819828 5.268503 127.969215
15.390408 -0.762797 126.957191
14.389037 4.390747 133.066086
-3.454029 -5.492196 147.043243
0.572633 11.695820 129.200119
-15.305769 -3.790794 136.342255
5.814224 5.647490 117.128639
-8.137869 0.463285 147.738739
2.154119 5.468507 114.424995
17.952105 3.868574 136.681839
17.687452 -2.546005 143.824387
1.319367 4.636912 121.617264
-7.444810 -2.840176 149.565750
13.493809 -5.571589 127.866051
-7.109576 -13.300205 127.672119
-4.472880 12.475230 142.885086
1.581915 2.948209 122.449257
-10.840178 -8.164572 123.777702
-10.706995 1.217789 120.443871
-7.920238 4.409467 119.861168
9.572074 3.230898 145.561218
-16.021072 1.517501 147.770294
-1.072037 -8.650567 142.658936
6.165586 -4.664731 150.379288
2.458818 -5.810218 146.007370
-10.406566 -8.181355 126.239998
8.655103 5.089698 119.950768
17.326687 0.127278 145.018280
8.003682 3.860362 119.569321
16.003271 8.245153 146.395721
-21.617172 -3.160452 142.327728
3.030118 -2.344063 149.772675
