ply
format ascii 1.0
element vertex 2048
property float x
property float y
property float z
end_header
17.515106 -8.151769 76.248428
-2.243067 3.378904 81.139236
7.211389 -11.789265 84.667824
-3.761681 -12.386109 102.634087
13.597445 2.417042 103.370613
11.107593 8.031547 86.220123
-7.585523 9.434792 92.310677
-7.641340 3.061736 64.464607
11.188761 1.325685 61.836781
-9.052752 -12.904140 67.411247
-12.620903 -8.399821 64.203392
12.943984 -0.964248 106.281204
15.196354 -4.552651 72.784683
3.770023 -5.692227 55.633869
-4.631177 -12.342492 87.977356
15.559999 -5.018618 74.460426
-9.628240 6.022436 79.925171
-1.478775 -0.682963 77.577888
14.320883 0.428240 75.549522
-2.866002 -10.621522 92.876060
8.182576 -9.628999 65.771851
-6.038791 3.025524 62.500954
0.893603 -8.671321 84.544525
14.214914 -4.745313 88.466156
-13.071020 -3.215311 107.226585
9.864294 -11.226750 68.379387
11.340013 -9.083446 105.744995
-0.311737 -0.705220 78.181587
14.983257 -1.103373 89.196770
14.532696 -4.409108 72.045807
-5.463074 -13.009283 103.663216
-0.888263 -4.995925 75.041542
15.047652 -5.330238 91.656662
7.304877 4.142846 76.474968
-7.448219 -11.795119 82.380066
10.999796 4.401838 82.010284
15.055154 -3.904133 106.654068
-2.029083 -6.366154 79.414940
2.671575 4.226763 109.268700
-17.143314 -5.355702 86.921165
11.148445 -13.621042 78.207428
-6.819149 -11.940746 77.664787
9.839145 7.799629 93.323410
13.561350 -2.617100 67.468735
-4.371521 4.430595 79.658630
10.912506 7.528330 87.646614
11.814795 -8.136524 54.663258
10.871666 -13.142438 80.614807
11.583055 5.406367 95.116806
-15.076024 0.308090 85.906197
11.844114 -0.949447 109.175125
-1.238468 8.837420 92.324249
14.043869 -6.996484 67.969986
12.518038 1.474491 69.012321
-5.252163 4.305281 109.476913
14.599262 -10.795434 86.150749
-10.240803 3.681644 109.010109
12.904922 -10.238147 69.748062
7.118831 10.068975 90.021133
-0.014174 -8.429331 78.411789
4.345062 -0.903494 54.500214
17.307690 -6.526972 88.584518
-1.946317 -13.632028 100.797348
14.056281 2.451180 83.553619
15.502107 -6.636350 94.573196
9.096568 6.241213 90.198555
-12.878470 -9.761023 68.191574
7.501135 -11.593295 104.283081
-11.131570 -10.482975 67.008476
4.852903 -9.032879 87.405350
8.592932 -9.907319 54.792583
3.784173 1.085227 69.365196
14.380577 -1.846907 65.803345
13.669118 -1.024384 80.360023
12.347581 3.029444 67.882790
-9.941736 5.547047 96.238434
7.490403 6.329703 105.213112
0.234972 8.809016 94.099915
6.908842 4.953990 73.742439
-12.571577 0.293719 62.229820
-14.889050 -2.721978 66.773178
-13.600424 -4.814289 66.881332
-11.669425 -11.874142 95.892380
3.338671 4.880538 81.446915
13.583802 -8.245856 74.672173
14.386651 -9.278247 82.753456
-5.810484 -12.154601 74.967247
-5.203269 2.269411 59.130314
-11.803480 -8.730597 55.784111
-9.314766 9.541753 92.839630
12.595247 -10.712029 89.216156
-18.486336 -8.853992 84.756744
-13.504248 -3.583968 101.554596
-13.390663 -5.820409 66.377098
-3.453087 -11.221506 96.323776
10.642074 2.241266 68.416573
-15.232183 -4.075689 67.112053
-9.170210 3.318127 72.828636
7.154809 -12.864141 87.848038
15.404940 -3.898543 97.017548
12.540902 -3.960687 107.237663
-14.772487 -3.900875 68.025589
-2.703892 -3.199018 63.690399
4.800519 3.633440 71.997742
-12.489876 1.646032 81.647522
11.200919 3.280203 92.342712
-8.186943 -11.999650 84.014481
8.782207 1.468579 56.097549
12.926785 -9.471182 93.514801
-10.580407 -10.175523 104.396202
-12.146257 -7.717055 70.877251
9.551373 -11.559175 85.711464
-13.905444 -10.316434 90.962700
13.447183 -11.422107 89.917953
11.454899 5.694946 102.786041
0.408878 -12.953621 100.812675
8.260787 8.516473 85.060135
-11.835262 1.021646 107.519089
3.270278 -7.209792 64.967377
-1.524494 -8.639998 74.367416
13.348042 -2.594739 58.910164
19.347498 -5.792989 87.212196
8.574444 -8.114372 56.022442
17.734991 -7.521935 81.649414
-5.871572 -12.313073 104.943008
-8.416172 3.484472 65.102806
13.801699 -7.782331 100.677643
-14.794148 -9.240889 96.486107
-17.077230 -1.419639 87.895424
-10.185410 -8.694139 100.692474
-2.535986 -0.669434 57.300350
14.460934 0.865983 95.658890
-6.818207 -11.519594 93.792160
-9.809549 -12.993299 84.394264
-12.137661 -8.719296 106.489708
14.157717 0.283506 78.374481
-3.472019 -12.055790 94.775360
1.152569 6.897192 104.233170
16.458952 -7.395264 75.750618
-7.221742 4.677793 74.557274
2.656758 -9.429811 79.042267
-18.749577 -4.598544 92.859795
-17.859903 -5.742241 81.109917
-14.868660 -6.873010 65.104393
17.399805 -5.033423 87.779060
-14.074948 1.189921 107.409790
19.005880 -7.321726 82.719139
1.403809 -0.589319 79.823631
5.485005 7.955212 101.124092
-10.733622 5.068511 79.400047
-7.025012 2.473589 55.397190
16.720783 -4.922899 100.235794
13.041796 -3.396513 104.556625
-5.163932 1.543181 56.349262
16.159845 -3.181068 82.389320
4.925625 4.238037 69.533554
-6.725735 -8.713067 57.855465
-4.828884 1.666743 69.836037
-1.284238 -2.640010 79.523430
0.910746 -1.508518 74.743576
-5.125838 3.270699 72.983734
4.443670 -11.989457 98.123604
6.052585 -10.142386 66.463646
-9.927071 -11.453249 107.424217
13.199884 -9.557567 93.757500
-14.861522 -4.285571 79.718178
-15.925886 -3.765831 91.336540
-11.299661 -11.648415 92.348862
14.194890 -12.195289 98.364754
-8.767061 -11.749553 89.604370
-11.081503 -11.633860 82.266747
9.084636 -10.216004 61.583996
-11.294191 0.374354 62.159489
11.064099 -9.272920 59.594975
2.613057 0.781019 64.818352
11.045659 -14.204349 81.040817
12.661328 -1.282087 108.732269
-14.538598 -2.347787 56.299099
-5.494321 10.040743 92.460266
-10.392785 -9.093081 102.538223
9.343031 3.624363 73.868034
13.934434 3.809266 84.769272
16.871191 -2.675836 94.451103
-14.171081 -1.606129 74.902191
9.544075 5.856087 80.012421
17.509411 -6.107969 88.088127
0.057244 3.945536 85.524048
3.602454 -11.000614 84.549484
-8.453383 -10.045285 60.034878
-5.347212 -6.166749 56.207432
2.591698 7.710037 86.785019
2.413269 0.266035 69.032616
-3.239548 -9.998874 85.906380
3.137083 9.764052 87.949524
14.180083 -8.963020 93.165680
0.675699 -10.215487 86.466492
-6.280532 4.995341 77.738083
-10.928304 -9.748983 105.296448
0.882658 -10.990058 93.773621
13.772013 -7.937435 81.115196
-8.005049 -13.527814 87.867699
-5.870179 -12.583076 103.081749
-2.933308 -2.267075 67.683762
11.039300 6.839786 87.564629
-11.317607 5.007985 94.434746
9.046097 6.525469 83.290001
-15.224594 -0.644760 83.319420
-5.172052 3.242398 77.474724
-1.124508 -11.643250 103.723656
13.902169 -9.143255 80.301666
-1.303217 -8.973526 83.535912
6.026334 -12.738178 104.379852
6.510007 3.832099 73.095428
2.826132 -7.336281 64.718658
14.257401 2.042091 86.653412
-1.780406 9.293889 89.561127
5.347153 3.354575 72.314308
11.866738 -12.792940 73.733841
-8.215244 6.458514 102.046066
-8.564255 -11.872752 65.345253
7.935213 7.432759 99.371094
-18.797461 -9.058442 84.146217
4.730124 2.221469 60.720818
-10.844813 -10.060655 101.415558
2.108988 7.692385 87.480812
10.768366 -11.568051 90.159302
3.629846 2.489900 70.787407
3.600890 -11.184457 96.283134
11.578690 4.490443 104.682953
-13.695628 -2.718054 67.302612
12.376344 3.714653 99.662148
-13.508549 1.788556 73.712677
13.809810 -5.248327 65.555046
10.716043 2.536580 107.482315
6.615666 -12.426217 99.821281
-8.954529 -12.518195 100.940567
-13.010685 -5.342817 63.286976
-2.204976 -0.444860 68.283913
-12.810209 2.966812 104.627548
-3.495808 8.433349 97.279694
-12.935485 -12.501724 85.537727
-8.874570 8.752161 90.401398
5.117726 3.301087 73.427010
-12.500459 -0.117530 108.455452
-10.830104 -10.449539 87.207558
2.769520 10.351654 96.502533
-5.856546 -10.234111 92.236984
-13.077420 -0.355830 63.116074
3.697160 2.268057 65.804565
-12.306386 -12.105706 81.196709
1.331948 -12.209522 95.533379
3.976144 -11.047821 87.211548
-4.115744 5.460642 81.072990
-14.823502 -2.588232 106.021423
-15.628434 -8.315256 79.809814
-16.724398 -6.623555 80.165649
5.098304 5.649006 110.632347
1.390720 5.710897 106.241104
-11.167332 7.639051 90.252403
-10.400816 1.713366 68.155235
-2.153111 -1.069521 64.700325
-11.262695 -8.217571 57.244862
14.972851 -4.685638 76.592545
7.083905 -12.831859 78.984123
-11.454683 -11.708861 77.389473
-8.467908 4.561399 109.367134
13.283008 -2.765710 62.152912
13.537287 -2.504137 62.658611
9.840878 7.714189 99.130302
-1.947097 -2.608422 72.925034
-12.250734 -12.695399 77.941498
-10.405190 -0.146586 110.510826
-0.818727 -7.632294 73.930183
-15.045881 -5.989413 101.448311
-0.608347 0.572564 80.992828
-2.346987 -12.801806 101.392159
1.301252 -6.529223 73.095940
-4.520081 -12.132154 99.582596
13.485346 -8.755104 104.694160
0.905255 6.602064 84.470284
-0.976964 -14.237959 103.249062
7.370670 4.688920 69.360954
5.136080 8.843234 92.573456
-17.839306 -7.424784 88.830399
-15.587504 1.374344 91.720863
0.944604 2.021425 80.924477
0.763728 -12.206951 95.521957
-17.568825 -8.666993 88.045303
-15.429333 -8.197453 89.238564
6.251843 4.648853 109.347992
-13.533019 0.825946 83.516212
11.496819 2.276552 72.055733
3.238292 -0.980378 61.725174
10.220458 4.812100 107.897667
-13.781367 -1.786165 70.266525
-2.226156 8.443568 101.323242
13.504478 -5.774595 104.629601
-14.991997 -1.728018 80.766502
-13.896612 -8.128450 64.174774
0.968241 -12.373327 98.619080
3.172114 -11.214217 82.563522
-7.115984 -11.673983 98.076744
-15.273262 -1.113323 99.033333
14.224228 -0.769514 92.995834
-15.058529 -2.941279 72.177628
15.932180 -3.284582 94.190796
0.548069 -9.372168 82.604416
-10.300297 6.134509 101.087746
4.788914 -12.114293 104.025002
9.990609 -11.343964 100.221184
-14.691791 -2.299682 75.869637
10.651547 5.786399 104.563118
4.789810 5.394663 110.586891
-3.674997 5.196256 106.362862
12.153771 0.331622 108.278763
5.739352 3.432250 72.365349
-9.405452 -12.829749 73.485664
-2.573777 -3.731823 65.470718
9.267323 -10.323731 57.040611
-2.700283 -5.473481 73.222206
-0.832547 -7.371659 68.250595
-11.854151 -12.583491 77.088699
10.915705 8.154254 92.931656
-4.080052 -13.015547 101.576263
-11.080683 2.439233 79.460106
10.610247 -10.861223 72.422295
4.626511 -11.745716 97.641205
13.417922 -7.485518 70.413338
5.617248 -10.436210 55.229454
-12.806602 4.842727 100.931778
2.164289 0.286288 69.188499
4.193363 -12.337470 100.735329
-3.525734 3.537930 72.851517
-10.026220 2.349070 68.177055
1.604141 -9.220872 79.371933
7.186651 4.794434 79.785873
3.255416 7.141933 83.676216
-4.049235 10.090839 101.344254
5.022846 -7.091296 54.174942
-0.794412 -7.090826 75.630180
5.575789 6.561765 83.237640
-14.259092 -9.939219 79.543945
13.912096 1.167394 84.721275
-14.681457 -2.036083 90.483414
-3.604307 3.162543 78.420570
9.052032 6.084203 79.856522
-12.840391 3.231859 98.852478
-1.191734 -7.036448 76.542969
-7.235097 -12.001582 75.653648
-17.897432 -5.275075 92.583313
3.888025 -5.420231 57.943409
2.422393 9.335627 100.311501
8.584310 6.581493 103.479340
11.125928 -11.167031 104.927406
11.382121 3.954382 102.966812
-5.518436 7.270938 83.614655
-10.655364 -9.423579 107.723183
13.174894 -6.804795 106.754433
-11.837093 2.206894 74.758797
-4.280077 0.443973 57.473919
12.729750 1.954565 99.001007
16.587076 -5.151134 76.130630
-0.497125 4.812220 85.044724
-10.238291 0.294206 59.487434
15.636815 -2.658035 69.433250
10.235019 -10.101464 106.686203
-0.669816 8.243867 107.753868
-13.325592 -1.790490 106.853043
4.991127 -6.539700 64.318855
-6.795996 2.510178 66.346680
3.546320 -10.983996 82.588676
-11.294971 -10.334752 94.696014
-11.504508 5.478861 101.375206
-15.200138 -5.509648 76.446495
-12.077731 1.505979 69.795044
1.616823 -12.710704 104.535416
11.319485 4.945349 82.327110
-5.192879 -10.885882 84.604401
8.808463 -9.714421 55.305302
13.807056 -5.020215 74.288025
0.959407 -7.144687 74.876259
-7.658637 3.305169 73.536911
-12.671408 -3.055231 107.729744
4.268767 6.194594 106.217331
4.528359 2.211462 60.959774
12.022511 3.964455 84.352432
-12.842477 -7.934247 104.042572
2.544869 -6.544447 63.800377
1.574667 -0.199024 75.343765
-10.064070 -11.773385 90.168488
-11.786765 -10.159105 67.447838
-7.924972 9.444489 92.832817
-11.972422 -10.193848 90.022385
6.951170 -11.779791 89.836761
4.641392 1.275124 61.968021
-3.844250 5.353458 83.866463
17.385599 -6.549209 82.554977
8.933830 7.611054 98.633446
-2.708742 -12.451841 98.249443
14.829190 1.276040 95.359787
12.829169 -0.116690 105.946030
10.850267 1.765545 73.325203
2.416201 9.579171 98.249352
-13.753110 4.641759 85.534981
-2.751369 -3.881958 60.606598
-12.571542 -3.636583 58.239491
6.671794 7.244328 103.629532
-5.265972 -13.336520 101.890816
17.232714 -7.281586 90.484886
10.450082 2.519145 69.306686
-7.770351 -11.521318 70.063820
-10.469471 -11.986495 69.413795
0.453174 -2.766348 81.331894
6.652735 8.363810 96.730408
-3.812951 8.652013 102.525795
13.819391 -0.312622 80.388397
14.276581 -5.698148 104.680000
0.249090 9.224514 89.151375
1.241092 8.672223 88.842903
2.912523 -1.968771 59.767860
3.505820 0.869114 73.672478
-11.492229 -12.735402 94.363152
2.101779 0.070329 68.840691
-11.694337 -8.652628 59.573158
6.149545 -13.077744 85.740265
-6.373232 8.253894 103.349808
-2.914257 -5.246430 67.154854
12.366976 -1.620457 61.656525
-8.045781 -13.101907 81.144897
-13.793112 -3.388136 63.269928
10.054469 7.958538 92.831078
2.588500 -2.528574 62.673737
-13.953252 -10.678171 77.852043
0.773810 -5.361354 77.579124
17.026882 -6.801218 74.084740
14.073841 -7.622600 101.971687
-7.090816 3.978286 73.840591
-5.392020 -12.468412 100.061783
0.972356 -0.235283 79.607246
-14.158692 -3.844872 63.903427
-13.939202 -0.069949 88.615425
1.565555 8.980429 89.154076
10.995617 2.363570 106.825027
-9.190950 3.329863 106.253822
4.304339 -10.967572 87.897163
-2.132183 4.402006 108.933037
-8.396604 3.809464 74.328575
12.989996 0.718465 94.719315
-14.489672 1.760443 95.855537
-8.469593 5.629119 108.767281
-7.614115 -9.891788 58.043709
-8.469532 -10.931255 87.644173
14.503528 -3.435192 76.504013
5.962701 -11.611816 72.200462
-7.328161 -11.824554 104.674942
0.784297 8.920117 92.828308
2.626385 -10.003422 80.069458
-1.332599 -12.083844 91.613579
-18.041983 -4.918461 86.058762
-13.474422 -9.997505 73.504402
-2.181063 -10.058718 81.474564
5.488727 -12.410227 72.605232
-8.051238 4.193409 71.157082
1.141067 -0.096109 70.485176
-11.203191 3.699307 75.622810
12.580714 -0.143149 106.074348
9.787900 3.032386 57.000988
-18.108160 -8.492849 83.919510
11.726383 -8.538175 104.167923
10.825395 -13.511673 81.907600
-7.930660 2.343149 57.616177
10.882010 -7.867418 106.606697
4.065567 -4.147554 60.583843
13.871449 -6.763028 96.387497
-8.597898 9.238892 86.129410
13.492870 0.506218 92.401215
-12.440461 6.523561 93.144043
11.917683 -9.562298 99.334450
5.567363 -11.541806 78.556068
15.224006 -9.454662 80.549294
-15.488323 -1.233842 88.791603
-12.190666 1.301087 68.643456
11.216044 2.557758 108.142006
-11.617086 5.113886 82.046951
-13.693435 4.574142 91.725571
11.887413 -11.307024 68.049423
-18.005289 -3.188007 86.413284
-14.921453 -1.498936 61.555435
6.348811 9.320086 90.624504
9.835812 -10.143852 103.489113
11.055478 0.375207 66.186111
-12.938596 -9.576234 84.674232
-12.774027 2.380061 107.163734
6.011798 -12.121898 83.511269
14.014630 -10.952199 93.510834
16.917351 -6.673970 73.415474
-8.460382 3.933875 109.118118
7.352344 5.537318 109.914642
-8.858025 -11.035695 63.957458
11.179045 -12.143619 69.460938
-12.866568 -3.378710 104.577797
10.981339 -9.018354 105.339348
-3.337547 6.516638 110.214241
5.711960 -7.734390 56.149651
-14.079038 -10.293015 80.344383
-0.972093 7.743217 105.523537
-14.765686 -10.323980 83.047371
-14.430656 -5.441971 98.191048
-5.675579 -10.786245 83.831825
14.883480 -6.869894 65.201210
-17.189470 -2.984052 97.723473
-5.379482 1.717549 60.621780
-17.728165 -5.103672 93.335724
-0.080215 1.442189 82.522385
11.215720 -8.098015 106.469269
-11.574274 1.953579 70.855011
11.756757 1.953863 70.893707
14.351090 -7.717796 94.864792
10.381731 3.282015 106.944313
8.609295 9.352805 92.874786
0.537581 3.484003 81.457794
10.908803 -10.723417 75.763725
4.434444 4.658439 109.022202
-7.460315 -11.871139 75.585205
-14.636920 -1.638343 63.475750
4.013317 7.995946 102.351486
-6.275571 9.701127 87.021103
4.643018 -12.235118 87.514000
-5.408156 2.614885 73.485062
13.040792 1.148510 67.196518
-6.494545 9.017824 89.246887
-2.485132 1.512399 69.234642
6.200888 -12.091047 98.616272
-2.409240 2.625509 79.777046
-11.668473 -10.648394 71.499718
-5.109491 8.516043 86.645317
-10.359798 -11.805215 73.884834
-4.433556 5.424479 84.367149
12.683716 2.217232 59.213036
4.455596 -11.703466 95.208641
1.660246 -7.328536 71.656822
-12.572388 1.109053 108.388573
5.660358 2.765323 69.926353
-8.811782 -11.896749 93.154175
12.643529 3.301476 86.724861
1.500323 9.174129 91.401901
13.348431 -9.862864 57.167358
4.579953 2.459964 66.014198
-1.995361 6.204519 84.085732
-5.057779 -11.620050 80.847000
9.286237 -13.006954 72.930962
-12.673727 0.181852 75.212868
6.316448 1.646337 62.135319
-13.819739 -7.983621 86.488174
-1.710390 4.626165 81.614304
15.775740 -8.304468 85.799873
4.843857 2.976463 69.240456
3.678970 -3.503694 58.922146
-13.726612 2.809779 86.669769
-18.697842 -6.316142 83.479195
-10.438332 4.588630 80.114563
15.014192 -8.072010 96.052322
-1.340896 -4.887933 63.505402
8.976473 -10.360106 62.181770
-13.740108 0.176746 78.506447
9.662788 -9.898167 103.980667
13.706507 -0.390359 84.378143
0.703094 -9.737520 87.864220
-2.660723 -7.310755 63.708302
10.724013 -0.251288 108.067169
4.616204 5.164271 111.111351
18.703297 -5.624623 85.614250
0.206341 -9.668108 78.998268
12.600578 -10.585258 97.249001
7.396671 2.034145 57.002144
-13.277330 1.080251 70.684532
9.698009 2.832484 110.081184
13.677787 1.707215 104.003677
14.956304 -10.716125 93.809479
-4.347490 -12.006658 84.427025
-16.074589 -2.248657 93.136269
-11.454395 -9.239077 98.281853
0.426504 -11.283257 89.603577
11.458351 -10.130617 77.018547
-4.191659 6.705912 81.162544
17.551842 -3.369602 91.728333
14.227153 -1.375159 63.247051
3.373624 7.792142 104.083931
-15.552991 -2.662560 78.706680
6.165288 7.402376 106.340782
5.118966 -10.832767 79.628578
1.373925 -0.611986 74.633575
-14.339790 -9.884804 86.408638
11.608550 2.807510 80.420662
2.612074 6.680871 86.278633
8.222681 3.602507 61.466583
-0.403864 -11.990265 90.665466
-2.696547 -7.219377 68.870438
15.452432 -3.976523 71.719597
-4.749869 8.756227 87.638474
-2.179552 -1.064466 69.024147
13.444244 -9.547445 66.578018
2.067588 -12.215157 94.065308
1.082777 0.601009 80.830864
-1.375595 -2.761461 67.827461
14.213164 -10.714911 79.699066
-7.287681 6.252637 106.505821
-13.269629 1.445876 105.536507
-0.987554 -1.125426 74.232849
-13.910097 -3.826343 100.853264
8.401464 -10.921517 107.020378
-8.821055 3.171557 107.229607
0.580349 -8.425982 74.455383
15.957322 -8.960765 58.792786
10.759786 6.731917 97.897072
-2.438446 0.379652 71.395958
-12.424789 -12.172165 88.062218
1.928091 -6.139166 64.936844
15.224987 -8.268126 66.682281
-0.412150 -5.790277 80.962021
-3.257483 10.581832 90.069405
-6.213796 -10.530942 97.871735
13.229404 -10.953508 93.721619
-10.083777 1.269444 59.770508
14.336631 -4.485599 75.699768
-3.326400 -10.888113 72.600410
-12.169468 -9.592239 104.862251
-4.610806 -5.787931 59.706112
13.102065 1.667386 71.139366
-3.253324 -11.114283 96.674088
-15.082168 -8.482334 91.011169
-4.373232 -11.466631 79.774269
4.296165 -13.011632 100.164017
11.477911 -7.516874 58.413570
13.178662 -1.816502 101.113396
-9.302293 6.710821 105.359406
15.838923 -4.987587 80.974571
-9.616194 -10.929009 105.591751
16.148813 -4.191449 94.716652
3.143030 -11.009453 81.934547
13.697468 3.171468 97.741844
-13.606627 -10.427000 104.345131
15.172205 -11.432609 84.553864
-16.050800 -1.719396 100.164589
1.950606 -13.071289 104.368362
12.168765 -2.681214 107.189346
-6.180462 -13.249927 76.088463
10.105660 -10.415162 104.930115
14.779942 -2.985860 72.194481
-3.141029 10.892807 90.635643
-6.039905 -12.580425 77.489449
2.658766 6.999032 103.551239
1.738082 -6.704838 71.886726
12.707857 -9.148806 89.256371
-3.936194 -12.063221 105.148247
-7.095677 8.752284 95.011032
13.796854 -0.713197 98.147751
-4.485494 -10.186155 83.366020
-14.007347 -3.302906 61.877110
14.109035 -9.331752 87.419189
-8.007411 -11.886421 68.436241
-5.500344 -11.905607 105.275787
-16.566082 -6.968725 93.496979
11.573018 6.737029 96.748131
17.402998 -4.312831 97.159302
-16.167486 -3.600154 86.314346
2.817317 -6.268295 70.771988
-2.219074 4.726544 107.641853
-16.279697 -5.319537 79.560699
-5.387350 -13.033808 103.838989
15.301628 -6.033398 78.956398
2.859911 0.828726 67.543571
-6.026060 -0.420649 55.588676
-15.128159 0.667402 92.275368
5.170042 3.539536 69.909103
10.004427 6.532673 90.129532
-2.492953 -10.230947 79.344345
11.396274 -11.933214 77.231468
-17.803158 -5.265854 93.401276
-11.027130 -10.804882 63.952969
-0.459823 0.496868 79.204834
-5.276072 -12.640393 74.286018
-6.102658 4.649093 75.877304
-9.096660 -10.311323 63.291176
8.215202 -12.767307 85.714966
-12.823795 -11.984788 91.426941
13.340223 4.635115 86.716209
1.500614 -4.246576 74.138458
-14.084098 -7.221287 67.363396
8.206283 4.166938 108.033974
2.779670 8.369174 90.299812
4.745008 -10.210973 91.496780
-10.063677 1.084788 65.594254
14.903992 -4.951327 107.215134
-12.581458 3.373152 98.132675
0.839432 -1.562647 81.107094
-4.454234 9.338617 99.405235
11.267014 -9.418895 96.381828
7.339282 6.111264 82.214485
-12.142931 5.460203 91.915382
13.609161 -2.798548 68.316223
17.430361 -5.732890 83.015602
-6.988367 2.313582 57.627831
4.713686 1.367833 58.401161
5.111167 5.258473 108.433800
13.453814 1.841643 94.457367
-12.165591 -3.779277 103.082726
14.582008 -0.000938 84.326874
7.766271 -11.727912 102.291870
10.047111 -9.039259 108.039619
-14.007471 -6.048365 101.885391
8.457453 9.118095 86.986153
14.082620 -3.064202 64.717529
-2.941171 -10.298732 79.428513
-11.523781 0.391859 61.890373
0.917242 5.321801 85.572815
-9.702065 -9.703792 104.480972
4.477485 -11.944327 77.580223
13.397220 -11.524548 94.892334
7.624972 -10.135530 63.205128
6.019840 -7.779494 56.756207
13.985616 -4.311158 62.338909
-11.738691 0.154561 108.934685
12.354881 -8.522926 106.780334
-14.493419 -5.872666 55.400703
-7.590518 3.764239 73.983467
-18.815741 -5.274290 87.188728
6.138340 9.418207 88.926453
-6.961503 -10.792004 90.274849
-1.176230 -3.998453 73.692917
7.709389 9.211711 91.102280
11.920824 -12.182693 83.397087
-14.854092 -2.813779 69.271370
10.621902 7.594182 97.712502
-9.811358 -11.138844 72.753159
-10.439589 7.210540 92.791237
-8.577394 -11.610924 91.165031
-1.370558 -13.440779 103.474777
4.722935 -10.637734 72.248894
-11.551543 6.651865 90.263374
3.979898 -5.889493 60.900818
-0.001141 -9.654860 87.396240
8.554669 -8.702927 59.326389
3.782342 -10.862963 65.392799
-11.167193 6.345726 105.282135
-13.720909 -2.443607 103.234482
12.874117 0.604398 108.607300
14.761686 0.012937 85.256126
15.397895 -2.247576 95.330093
0.064487 -13.048050 100.305656
13.353793 -3.046988 68.569794
-12.843721 -0.885322 105.107574
-0.898646 7.900962 92.336601
12.573455 -7.559545 64.567741
12.640669 -7.256134 96.601624
2.677163 -10.858706 82.202095
11.351939 -8.847372 104.262962
5.557180 -6.598834 59.332592
1.188868 -1.318436 75.305824
-2.949247 -11.368063 81.738754
17.138931 -2.452380 94.601105
-3.004992 -4.906498 65.364677
2.588273 -1.336324 66.428703
17.437799 -7.800452 82.989662
13.299625 -4.695631 105.078476
11.959102 3.285131 103.033493
-18.206553 -5.403090 89.387589
-11.865761 3.861333 96.003784
-15.014810 -9.005677 82.701897
-9.383459 1.756306 70.195938
12.644810 0.193315 65.800255
2.297924 -10.308575 75.611771
13.826530 0.419338 80.065422
12.073215 -11.654241 106.228035
14.815399 1.117660 87.729202
8.370746 5.360265 79.141418
-3.887822 6.165536 79.354637
-3.713216 -11.430413 92.471977
10.757714 3.234073 109.464264
4.772591 9.800258 97.993629
-1.451866 -2.118739 66.261276
14.018078 -9.063399 89.082985
11.963186 -5.972021 106.585823
-7.815526 -12.553736 78.445900
6.446667 -12.158298 91.580711
17.039030 -3.950705 88.006805
-14.539421 0.508870 97.874779
14.164293 0.137780 80.706734
-1.750944 -8.629618 80.190353
-11.452980 4.152401 104.752388
15.740292 -1.031369 93.238556
10.156452 -11.375825 97.992790
7.844091 -13.219625 91.290710
11.629234 -11.381020 67.451134
-2.893334 3.767585 79.962814
14.952236 -5.975944 94.549248
8.367025 5.977052 81.253609
-11.265210 -7.674232 105.955208
-11.514400 3.104965 72.468658
11.516646 4.390760 80.106972
2.637003 0.289904 63.779835
3.859917 3.847175 80.686684
15.517813 -4.268088 79.693550
19.455530 -5.767790 86.598915
-4.022237 -10.267228 76.430946
5.944882 7.570354 85.929672
-2.094489 -6.557291 66.926666
4.754753 1.787080 62.032871
11.671021 4.034184 97.086823
-13.248020 3.292852 107.048698
-13.240372 2.459002 79.254898
-10.266850 -9.482828 103.860367
0.285163 1.120564 80.000702
-2.884650 -0.754647 57.458313
8.892605 -11.885627 96.012718
-13.485347 0.803187 83.942337
-18.347475 -6.908196 91.562141
-5.203172 4.932956 108.567551
16.788767 -3.745635 90.998421
8.115837 -9.467560 65.603867
10.437995 -8.628463 96.875092
-9.725307 -10.397435 67.361504
11.082384 -12.509833 96.752991
14.531471 -4.871077 75.492355
2.909755 9.842507 89.774193
16.877882 -3.489471 102.974884
14.740026 -2.580512 98.108299
-5.957870 9.393036 96.428635
-18.170942 -5.036783 87.474998
-8.824611 -10.507148 60.065567
11.572863 -9.494302 107.321022
-17.396166 -5.306288 91.108253
-6.159830 6.824552 101.806244
-13.127669 -9.185255 66.871841
-0.848329 10.543108 90.387428
14.117935 -8.418774 72.393036
-14.100881 -10.518501 96.017105
-14.548108 -4.015092 103.175949
6.004096 1.484328 59.467213
-15.781263 -2.746271 95.725266
11.081128 -12.378136 77.283409
-3.183178 8.422029 86.035820
-15.241655 -4.034645 67.546097
8.427197 -12.156899 67.834633
-1.897171 -1.083942 61.874546
5.521655 5.544489 78.094070
16.561968 -4.419500 85.116798
-2.068613 10.507261 101.251831
14.957867 -6.010112 99.665543
6.069405 9.651831 95.594521
7.415741 -11.555526 104.913017
6.477098 5.369851 109.793259
-14.332821 -11.009850 95.098846
-12.191071 2.114286 96.830322
-14.292869 -4.738799 64.677963
-12.788109 -1.412156 105.976357
15.772614 -5.209267 94.000870
-9.351355 -11.873212 82.296791
-14.413814 -9.345973 81.987236
-3.645655 2.211611 67.135048
10.705812 -11.145972 63.740479
15.818945 -8.171626 88.776833
11.279843 -8.279282 58.419548
-13.602044 -7.622511 64.849655
-9.864446 -12.248589 90.321594
-11.337453 3.600927 76.901756
-12.049104 -11.714454 86.905327
-11.245243 -11.963630 75.898483
8.842361 -9.701382 61.691833
-3.951004 -11.797552 105.976212
-4.533639 9.396435 90.713722
6.407708 -10.158303 57.449245
-0.641275 -13.812028 103.259171
-5.645775 8.578755 97.336380
-10.915545 1.519316 62.212280
10.146495 0.944658 60.877926
10.653305 1.938527 108.284203
-11.960584 -10.534601 70.015938
16.936750 -3.239647 95.910141
13.137883 -1.119962 72.902168
-6.097355 10.004830 93.835747
9.526501 8.155352 88.528389
3.202820 -6.642811 62.775341
-13.765134 -2.070706 58.854347
-12.840489 -3.411981 70.958496
9.778831 -11.816659 92.355141
8.133744 3.765081 110.513664
3.089556 -10.284617 90.186775
-13.602993 -10.110152 83.877434
-10.583376 5.998814 88.037498
10.066235 7.593172 89.248184
3.521023 -0.352322 57.810734
-17.597221 -6.534114 95.117989
-8.475863 8.848455 92.091080
0.839014 -5.452231 64.876114
2.938877 -8.376222 67.687164
12.302546 -2.796280 107.042976
3.093456 2.229259 74.279510
-8.895619 3.768342 65.107605
14.199839 -5.689241 76.603455
3.739556 -12.503999 100.530075
-10.115895 -10.881530 100.515945
-6.353405 -10.380157 63.349613
-6.030571 -9.860005 93.172386
-9.703717 -10.611472 57.295994
3.408135 -7.713268 74.173477
3.889582 2.075058 69.575783
7.570020 9.234117 92.339691
-3.330770 4.372441 80.203400
4.394980 1.601666 62.152954
-15.917926 -9.043514 92.336128
-12.999126 -6.746719 59.934998
10.341990 -11.169867 63.297749
-8.178554 -11.725365 81.781609
-9.199260 2.137666 62.574600
-4.527214 0.302927 60.698200
19.318134 -6.851173 89.117821
5.725004 8.272685 101.483910
12.661455 -2.792656 65.888908
-14.535931 -1.375430 75.202423
6.771135 4.613915 111.204185
-7.251131 -9.549125 60.096809
-13.388814 0.962452 78.955399
6.246145 3.153935 72.137825
15.758366 -7.983663 76.839081
-3.851837 -10.319769 69.312584
-3.088503 -3.778487 59.293343
2.324201 8.471622 100.405807
-3.876637 7.752529 87.098831
10.540889 -10.990149 100.002396
-2.973395 -8.687665 64.170303
6.975750 -9.372655 61.363625
14.508537 -1.907737 106.977661
9.862939 9.359600 87.579971
14.868425 -7.113211 73.998436
3.127181 -9.679170 86.664764
13.793811 -0.118578 72.971970
10.081153 -12.392798 80.418228
-1.533702 -12.859188 99.446106
-9.501176 0.732719 58.438503
-13.477156 4.372113 96.539406
-8.987981 -12.172002 82.259789
-14.371476 -4.859429 67.643417
-6.020431 -11.234882 87.534142
12.983894 3.461854 95.244202
17.761656 -7.379029 93.118965
-11.204141 -11.736753 92.986359
-12.866877 -6.143335 106.195045
-8.127586 -12.244442 91.262238
12.458044 1.214603 79.429222
6.551970 4.025367 109.860687
-14.104263 -6.144338 62.832870
15.380446 -9.563786 80.855591
-9.541430 -11.020237 96.124420
2.039474 -5.479009 66.052132
-3.375832 -11.074996 69.682022
-14.193153 -9.324980 73.552353
-6.032917 -11.972141 78.227264
-12.333979 4.908897 96.885048
1.927909 -1.025371 67.682144
10.725686 2.673864 79.414284
-2.159903 9.289822 94.294998
-13.944489 -7.617279 73.880371
15.009139 -4.855025 83.672501
13.050806 1.147873 107.735367
-4.824435 4.946617 80.396362
14.214640 1.507801 73.082649
3.012009 -1.790221 56.121529
-17.340494 -6.097900 93.410408
-0.429656 -2.754303 80.605392
10.043089 -11.604855 68.784439
13.038873 -2.574315 107.579002
-15.952986 -9.271135 87.338242
-4.976284 -6.487464 57.032310
-13.901885 1.173062 74.815178
-14.978409 -1.372476 95.651512
-18.264088 -4.628071 90.608536
0.588996 -6.868227 76.584244
-15.377624 -6.744936 73.003983
-2.792119 -10.838630 82.281998
-11.186304 1.816824 107.665092
-3.070857 -0.448240 67.092110
-11.136995 1.352275 109.887314
-10.691245 -10.947122 94.289894
9.012654 5.105684 76.129845
1.554040 -12.422209 91.857613
-7.029189 -10.359897 93.952133
11.123967 -6.392882 54.768162
14.750833 -9.537377 89.704155
10.128476 -9.906390 63.181664
-3.094315 -10.378104 78.660324
9.823719 6.334222 99.841583
14.738154 -7.045572 92.608925
-13.285516 -3.684535 65.446884
-7.808108 -11.250278 105.179810
6.795770 -11.099762 61.298401
-3.368807 -12.356638 103.598267
-2.191695 -10.459763 90.606667
-5.491604 -9.067854 65.626534
-2.750660 -12.633648 106.010117
1.886029 7.579972 102.961693
9.507383 -12.636795 100.654274
-2.455920 -8.363471 72.011162
6.153468 -9.816094 61.738880
12.686568 -13.011853 83.511200
-14.595759 -6.109492 64.430077
9.272163 -12.954911 98.514061
16.124538 -6.684702 87.318787
14.466834 -6.524085 100.050926
7.590653 -13.924635 86.139824
-9.906775 3.380871 70.075943
13.608703 -0.268262 69.220497
-13.871190 -2.195743 97.318558
-13.789174 -11.355546 87.955116
-3.491306 -6.206108 62.520744
-4.552330 6.076134 107.526817
-13.846601 -8.919321 87.432800
14.666107 -8.096383 71.504395
9.127822 1.345790 73.940376
13.018501 -4.135149 58.618137
-6.989610 9.139794 103.768692
-3.118700 -1.375454 58.168774
8.202022 -12.503212 95.749001
-12.514758 -7.786979 102.505043
-5.380686 4.356579 109.139305
2.961493 6.734103 107.433029
-2.606362 -6.416649 65.450043
-12.641151 3.893778 100.134521
-0.509150 -0.313960 79.456047
-12.237698 -8.783903 99.180153
14.139443 -11.046180 89.316429
10.129630 4.694816 101.710266
2.869342 -10.744407 80.578697
-3.697538 3.865597 110.524483
-6.609073 6.914614 106.941185
13.375478 -0.997556 67.791046
10.548412 -9.730926 60.221157
4.391418 1.713193 66.751869
11.106413 4.092993 74.426941
2.859559 -5.904107 67.211639
9.075748 -12.486636 99.839241
-14.517648 -10.646660 89.259560
8.844340 8.987171 96.879288
11.284361 -8.740714 100.479645
-10.924404 -11.233628 77.909981
2.587578 6.014802 83.833229
12.125589 -10.261703 69.496742
14.386977 -7.701160 67.389320
-0.387941 -6.034332 83.572456
-19.099333 -9.188259 84.057259
11.471953 -11.726100 84.441711
4.837993 -12.503223 103.478714
7.038279 -10.040959 65.231972
9.978189 2.442740 72.199959
-11.572605 5.342554 102.973030
-0.885822 -13.082644 105.123970
14.486126 -5.134845 65.689232
-13.685078 -7.039537 57.890041
14.488968 1.459738 83.318413
-4.312589 -12.975122 103.695503
1.352324 -12.099207 97.602615
-10.187051 1.052588 62.488667
-17.951303 -8.302928 82.626556
-12.338600 -10.544511 77.332474
13.437487 -6.338487 64.395065
-3.178081 -1.802603 61.691818
-5.995112 2.931663 65.872154
10.101008 6.490258 81.773247
-10.786859 -11.761202 73.889359
10.856606 -10.581161 102.617188
13.592544 -0.683175 102.389748
-5.026489 4.642507 75.515823
0.364907 -4.059676 80.834877
0.149043 5.711832 85.950233
-11.197937 -9.311618 55.831326
-13.374167 -10.162294 82.945343
-8.060191 -11.600833 66.691238
-4.252606 -9.942019 63.560535
-13.552811 -0.216524 59.564865
-3.354491 -0.727307 58.078075
-11.600506 3.901894 82.223381
14.587832 -6.369572 69.094734
15.980965 -3.847675 75.869698
-2.538063 -12.762098 106.867691
-2.189889 9.459817 92.083382
5.861969 5.523861 105.653351
-11.296455 -10.539428 90.420219
12.937408 -9.771624 100.211479
4.415908 -11.353880 71.063248
12.330294 -8.838128 99.299324
-14.280887 -4.475776 66.708931
13.906972 -10.707196 89.898514
-9.303885 2.605917 65.251450
-4.422601 -10.966398 67.242561
-8.065965 3.830524 64.236565
15.713811 -4.731713 80.014000
12.203901 -8.675916 103.745598
11.619568 -8.598639 58.792244
5.788203 -8.364625 54.112816
-14.717083 -4.329081 99.278366
-14.145435 -6.272489 58.094280
15.149514 0.105452 88.176003
10.260336 7.528308 93.149971
-2.787119 9.577743 86.324661
-13.759480 -0.603255 106.676735
-10.322579 4.489594 77.416588
12.250496 5.569317 100.220757
5.902693 6.631591 84.531105
-5.260991 2.784539 71.930244
6.884865 -8.509525 55.388992
11.074920 -10.705847 61.939117
12.240637 -11.126726 91.332603
10.121267 4.047192 104.378716
11.134518 1.109424 69.787453
11.423588 0.929480 107.852127
-15.611578 -0.505660 83.864098
-16.814800 -6.042625 87.704544
1.258036 -5.464060 68.172836
-15.760352 -7.854286 78.143036
10.711761 3.988899 103.992844
-12.019322 -6.285359 104.717636
13.745038 -6.367826 61.843102
-14.169666 -2.606603 76.111900
14.698985 -7.934607 97.933136
-9.328289 -10.984406 99.816483
-11.524126 -10.205327 97.234619
18.992708 -6.453500 89.901932
-9.768666 4.080024 110.012054
-12.842773 -10.058049 93.064186
-11.128764 3.819288 102.038338
-13.090979 -11.297222 75.625221
-11.358136 -10.854776 93.211349
-14.562951 -2.108144 98.285248
17.715645 -8.193045 86.879364
6.082105 -11.172782 78.823486
14.449496 -1.613341 80.463791
7.854914 4.270389 72.852547
-7.140442 -11.423810 67.105698
11.045377 0.725775 60.423626
-0.859447 -8.967378 81.831497
9.387695 1.520173 58.961697
-12.286185 -2.649183 107.561455
-1.773799 -13.981258 103.152725
-18.116367 -7.236224 89.724190
-1.615720 -5.962147 72.198936
14.621065 -1.637210 99.955223
-2.966065 -2.046021 73.458183
13.481920 -6.037963 107.499512
-0.524474 -5.892019 70.835136
-4.178569 8.904693 83.988106
11.815353 0.574817 107.447861
-7.390380 7.288351 101.263077
7.762094 -9.441931 56.472794
-12.501812 3.151148 103.971764
2.663262 -3.890725 60.630646
-3.100062 10.138076 97.831154
-9.217639 -11.413753 91.413292
4.447283 -11.245354 105.252129
-14.100806 -3.401586 96.276680
13.843456 1.737503 95.944717
-3.607423 -7.942660 71.134399
-7.501757 4.031781 76.275604
-10.515608 4.638293 83.181152
13.614974 3.371430 92.640480
4.117337 -13.106779 100.871758
0.962526 -7.600426 77.180046
10.370569 8.646770 99.273499
10.011121 -10.898902 62.940121
4.041529 -11.312222 89.901627
-11.963593 -10.615626 71.046837
-11.359579 3.751698 106.948006
15.288029 -1.524444 88.926147
14.812830 -2.526619 61.090382
-0.611914 -13.251308 97.551163
-16.574650 -8.763815 78.122002
-5.100517 2.411212 71.619537
-0.741839 -6.449465 72.444885
14.232080 2.720192 86.829224
-9.573669 -11.181008 66.221741
5.989914 -11.198089 93.395554
-13.150224 -9.737089 98.972229
-4.814299 9.360990 88.035576
3.851133 -0.348224 59.626545
5.073416 7.113714 84.235817
13.001475 1.605543 88.235817
-12.170776 -8.697019 61.459835
14.656851 -6.628365 100.303215
-5.839341 10.546009 101.484070
-2.189698 -3.668436 70.196716
5.888859 6.444209 81.632477
-0.591953 -12.361513 104.475975
-12.456434 5.190679 83.866432
-6.601352 8.937384 88.709686
-14.008333 -2.589707 74.271072
-11.999619 -8.987403 65.627960
-11.076348 2.459835 57.788723
-7.976729 7.956346 105.126595
10.816335 1.704847 72.616463
-13.334738 -8.701970 101.268349
4.664657 7.024431 103.352547
5.575463 -9.524453 60.192516
-10.018607 6.614914 93.042763
4.048283 -7.027023 63.514957
-0.034708 -14.077568 102.704651
15.095516 -5.671034 80.359154
-14.292537 -4.899194 69.357681
8.970084 -13.100531 89.962135
-10.946165 2.181861 74.403160
5.854713 8.025013 85.310188
-4.153840 -7.502906 60.514050
12.724612 -7.298991 58.675716
-8.927487 1.783422 58.403034
-3.679891 -11.339355 93.348984
1.388786 -12.813591 104.910103
-5.758211 10.475642 96.423820
-0.701424 -2.284849 81.733185
12.625762 -11.235344 89.871330
6.670763 -12.459330 94.844872
3.906621 -11.496649 82.120758
-17.827076 -8.589245 77.027550
3.334416 7.434496 103.238167
4.942195 -11.789992 95.148643
1.192895 -8.417836 74.258224
14.170876 -11.340937 87.257004
-11.676374 -8.518985 98.604912
10.741197 2.823238 79.023216
-13.589013 -1.296845 56.234650
-8.612301 4.222813 107.003593
5.794909 5.315708 108.598007
8.832289 0.812258 58.505070
-4.624840 2.392468 65.880859
-18.411764 -2.795119 95.359734
4.121016 -11.252626 77.972641
9.677575 -11.974672 84.189606
-5.768013 -9.628666 59.916824
11.503428 -8.059327 57.469532
-4.215877 -7.716575 62.320618
13.730131 -8.570612 65.523079
-10.152271 6.947321 90.426163
-0.141661 -0.323894 78.186386
-10.760670 5.162343 90.099983
14.525255 -6.291101 72.575836
-18.052122 -7.662628 87.388779
5.272010 9.340692 92.212463
4.909535 11.157640 94.260841
-3.866723 11.555650 96.884972
-5.849658 -11.754896 72.132164
-16.284939 -4.782397 71.422859
2.019452 2.445568 79.008331
-3.926467 1.880819 70.711647
-10.802605 -11.206304 87.636742
-0.991073 3.968187 109.828545
-6.932666 7.312342 85.874619
15.354666 -7.520489 93.228401
14.081793 -7.744897 71.589691
3.617789 -3.640451 56.976131
-6.150895 9.705496 90.376381
1.143205 7.637597 89.397820
-17.022209 -3.474634 85.315048
4.330972 -10.691666 73.626923
-12.666318 -9.203810 99.515106
-0.080731 -0.912041 81.683838
10.629070 3.475286 70.872437
-14.434464 0.004245 89.422157
-12.332220 -10.284752 61.007133
9.587781 7.513268 90.245956
-3.850114 6.848467 82.958931
1.982274 3.189929 77.762215
11.383551 4.250116 85.123795
-1.362816 -11.023684 80.159637
-12.042151 0.979313 68.884377
18.132624 -7.929178 85.567383
10.670039 -12.050524 98.274673
12.949000 -8.888775 96.985489
7.636975 -10.662208 62.620617
-2.248278 -10.761927 90.162201
-9.906924 8.433379 90.497238
15.494384 -4.191263 100.745270
16.134590 -8.755676 76.179680
-7.581039 -10.455544 102.076149
-0.481723 1.317567 81.496643
-2.786093 -4.185637 62.323746
11.512983 -9.129226 59.898193
0.553563 -5.934868 81.576828
-17.327692 -6.442191 95.871948
11.017839 1.987150 109.793129
5.637127 9.045257 98.786720
1.447428 -13.706964 102.683411
5.730293 -6.225958 58.151730
-2.713194 7.963222 89.133247
17.675886 -3.674497 96.497620
-4.286588 -11.132004 93.264168
-15.726147 -7.272512 95.095070
-6.895653 7.948403 100.679955
-6.171982 -11.844120 88.403122
-4.033394 -5.580986 63.175510
9.881469 4.045345 107.654572
18.671652 -4.139673 89.300407
12.206165 2.578136 78.469284
12.270461 -11.098956 76.727188
-6.214267 -11.297223 86.002480
12.879138 -10.183899 72.387756
-0.111128 1.343827 80.223244
-4.216674 3.762954 75.557831
-14.013761 -3.834244 93.925926
5.883099 -10.277931 93.607910
-16.813688 -4.350493 79.281570
12.764727 -1.238300 60.901867
-15.451720 -8.636771 76.401855
10.623430 6.837333 90.980644
-1.539933 -1.206144 74.680176
9.825623 8.122559 91.515488
-3.759725 0.998494 57.759613
-12.105404 3.802474 81.625580
-13.853145 -7.542519 62.109341
-17.550333 -6.556114 85.505478
-10.030783 -11.051092 103.719658
3.703507 0.028181 69.060020
9.406367 6.667367 100.521515
-7.770994 7.990053 98.915054
-3.622050 -13.199895 103.810211
-2.722001 7.191357 106.642471
1.802850 -1.193325 67.458626
1.204407 -8.644889 82.602486
-2.418959 -9.227164 90.388016
-1.373084 -6.806340 72.847740
11.765852 -0.646335 109.736511
-13.069214 -11.063112 78.265480
-0.913253 4.986094 107.846756
7.679039 -12.719048 78.004356
-5.609307 6.938787 83.287895
6.294644 -12.621774 76.623199
-2.716367 10.278587 95.719872
-1.252654 8.200603 86.813301
9.857677 -10.298697 58.581741
11.435107 4.819361 105.475769
-6.186004 -9.001227 57.506851
5.783979 9.657180 92.930946
17.172430 -5.220177 82.589569
12.950989 -4.885079 54.973076
14.148883 -6.689636 67.784912
9.704138 4.795021 93.418251
-15.347638 -4.739669 62.271984
-1.970437 9.403786 94.057632
3.449948 5.610784 80.976616
-3.966723 9.251548 88.596146
-13.877411 -1.237957 98.485573
-14.797512 -7.731298 94.213684
14.301232 0.467439 100.814674
13.832430 3.614566 88.547348
14.215938 -1.915092 73.927628
-8.768718 5.814312 105.929443
12.377309 -1.322096 61.213371
-6.013843 3.222575 71.443108
9.825407 3.626281 73.887932
2.282823 -3.970932 68.125160
-11.534403 3.638329 78.826439
-1.524988 -13.221435 94.549904
18.031862 -7.588567 88.937881
11.506017 3.236885 76.388397
-12.737310 6.325888 90.343307
2.697677 -12.191538 98.435776
-14.893632 -5.137143 68.421593
-5.940402 1.933511 58.359844
13.630075 -0.701597 71.842239
14.035184 -1.377659 102.839752
10.483983 0.808615 65.451309
1.236356 -1.320028 73.550972
14.658105 1.538801 97.623650
-9.571683 -10.896023 80.996559
8.701438 -10.138926 107.340721
-18.141031 -3.268703 86.141960
11.907294 2.080142 78.316811
-11.306171 -11.508526 62.900570
4.614925 5.609020 106.594208
14.979171 -5.996308 101.300545
9.317305 4.300970 109.400925
14.040734 -6.942088 63.927620
7.420452 3.478622 57.392616
12.363244 -11.742280 87.862198
15.383918 -1.465256 91.588257
-15.672323 -2.205405 93.894623
2.547374 -9.034698 72.353935
14.072851 1.714486 96.569923
-12.436153 4.490468 102.565201
-6.361735 -11.360274 80.566299
15.717867 -5.291914 85.640938
-11.852268 1.046376 60.242065
7.779088 -11.370807 71.003670
-17.818779 -1.085305 100.947289
13.848756 1.366471 101.273453
14.991834 -6.279653 71.568802
-11.829033 -10.633895 85.289581
-7.656176 -10.898430 105.220131
17.900007 -4.751406 82.771599
11.945648 -2.461749 108.806068
12.752151 0.399098 99.863724
10.770920 7.844095 85.378143
3.593410 -2.951088 60.264153
4.149504 8.804611 88.599899
3.392497 6.641671 105.753807
-18.904921 -2.460528 86.206886
-2.850216 -13.912412 101.860634
5.652040 4.713468 72.991287
-10.997335 0.441876 60.318363
-12.537992 0.074568 107.806091
16.372787 -4.913256 97.461708
14.342281 2.658731 90.093452
-1.000531 -1.218600 79.041016
16.771523 -4.035601 97.685883
-0.444478 -2.348016 78.371780
-3.201966 7.145801 83.632278
12.782484 3.925935 91.485245
4.376602 3.487452 107.717850
9.036994 5.021768 106.170639
-4.880842 -11.566586 71.074898
14.131060 1.130084 101.301842
-11.033539 7.071932 88.812401
-18.752069 -6.431273 80.276031
15.820201 -5.562354 58.396935
5.226279 -7.524552 55.202503
-13.582871 0.062301 71.377083
13.203349 0.931941 78.412483
-11.811115 2.483510 69.966698
12.165477 0.404252 57.845901
3.100200 -13.415579 98.263390
-2.101762 1.003852 79.935364
9.574900 3.831262 79.144722
5.282749 0.490962 59.328327
9.086838 -11.988444 89.085197
-9.233127 1.902760 63.889965
-4.839234 -2.989578 51.866379
5.118591 8.706534 97.591087
-6.675705 6.784124 82.318588
-10.087600 -11.132434 98.841652
-13.290961 -8.367918 61.171734
-8.129406 -10.362514 65.280022
-10.031649 5.959803 100.876770
10.734197 -12.071495 82.482880
12.222295 -7.852558 60.212078
-4.309216 4.554062 77.649551
-12.288047 -10.724070 82.492706
-2.060272 -5.757939 63.760490
-15.769635 -8.772133 73.608856
-13.542446 -2.949651 67.388084
16.709146 -3.047049 99.172127
-12.850834 3.094554 100.705437
14.559156 2.656535 94.721985
-0.719448 -4.497262 79.542854
-13.545009 -2.072607 57.311783
0.040303 -12.130734 100.431252
12.921516 -11.171875 70.423622
2.809301 9.797865 96.362602
2.460241 -4.468111 63.741283
13.788145 -1.688838 106.081108
4.172665 5.700656 110.574379
-10.082112 6.905924 89.976372
13.291086 -7.517981 60.953945
0.371521 -12.680343 94.843445
13.144482 4.237339 101.013489
14.513236 -9.857874 86.233109
-16.226513 -6.933014 76.368866
-12.952153 -0.083780 66.079552
8.395003 8.214002 96.438629
4.724870 -10.058485 68.550659
10.849209 8.634930 88.975693
12.769615 1.470014 80.758835
2.927026 -1.912784 63.760700
12.591251 1.182333 74.699234
13.738312 -6.950801 58.433502
-12.961591 -5.080677 107.059959
-0.741772 -3.291386 81.242119
15.604648 -6.744438 94.443146
12.218630 3.407287 104.002556
-16.302019 -1.225590 101.551239
-5.198330 -12.532866 78.723839
12.101525 3.728352 78.234032
8.668392 9.014729 96.033295
16.986168 -7.748723 84.134087
-2.445830 -3.829263 69.730995
-14.025385 -11.052492 87.312965
-10.116013 -8.295556 106.125122
-11.712138 1.905310 107.444405
-17.144997 -4.156972 86.533829
-12.362435 0.321678 74.347839
-7.118981 -12.972582 73.422142
-9.994388 -10.859764 83.957016
-10.463711 2.280328 108.390305
-4.017201 1.055800 61.438606
8.647429 3.435592 73.549698
17.508949 -4.770140 90.760468
15.041035 -0.242508 90.244331
-14.035870 -0.698199 81.033035
2.808473 -12.893872 97.375244
-10.658795 -8.151145 104.680901
-16.810238 -4.762467 81.609764
1.545097 -13.690590 101.872887
2.179912 -8.681051 68.920876
-10.943948 5.472321 98.955475
13.430884 -0.352535 62.548355
10.117085 1.893044 69.609695
10.030235 -9.030348 58.146046
7.290828 -12.352083 85.773117
-15.427547 -3.121578 90.630013
-14.390769 -1.705111 101.240318
4.201406 -7.972595 65.764854
5.886011 -8.355535 59.020157
-7.925752 4.144047 108.869011
15.100307 -3.594652 89.856262
12.221766 -10.985757 87.287651
-1.948104 -6.284131 67.724396
14.143581 -3.526566 61.197079
-11.596667 -7.877475 104.398224
0.133107 -13.203003 100.897400
13.779799 -1.802822 66.119598
-5.319497 -8.193653 62.691311
-16.349108 -8.938820 86.656296
-13.964510 -0.366930 83.160362
5.624686 1.365403 58.637943
4.226044 -2.945647 54.442936
13.952179 1.577083 83.185577
12.628114 -10.562021 96.174812
14.513278 -1.910419 99.556862
8.023777 7.424354 87.994194
-7.952977 8.638745 97.981491
-10.276371 -12.050274 98.263901
13.064629 4.092773 86.961937
-1.546737 5.577664 107.529015
-15.357027 -8.792718 73.545868
-13.152070 -7.927075 103.294708
-7.991574 -11.587940 101.327576
-3.177924 5.157776 108.655945
11.009929 1.157328 62.065506
10.917336 -10.286870 67.670326
3.736868 1.357581 67.497528
-6.775734 -12.516964 81.460434
13.892812 -3.203081 77.995827
10.268818 -7.898138 57.513027
-2.204206 6.666831 106.288124
5.319789 8.486498 85.336739
4.966813 -11.264956 78.277496
-13.163605 -9.268491 87.526100
-9.141090 3.846276 67.243919
15.467104 -1.898132 85.003174
12.469371 -12.008513 85.981956
-15.699176 -4.886891 79.553101
12.964594 0.395727 73.869080
12.117624 -11.710016 77.887367
-18.010998 -5.562868 86.074654
-14.295809 2.726877 103.028755
-9.258596 -12.160655 72.475571
18.186007 -7.080961 91.670135
-8.243910 8.237924 86.587311
15.407587 -3.599041 56.188839
-0.876256 8.435578 97.742104
-7.563794 -10.934268 104.507278
3.337207 -10.821415 79.937180
-3.556498 9.751742 95.613670
-8.077370 10.390894 90.128578
13.323653 -1.402153 107.642570
0.494324 -9.939120 78.926674
0.978902 -10.725293 85.976799
4.118174 0.673263 58.177387
11.816114 4.574506 102.857544
-11.618337 0.243029 60.773697
18.070644 -6.444543 82.881439
-4.095866 -11.268031 91.871460
13.441545 1.061986 103.770363
-1.866037 4.464481 83.958786
4.546328 1.162020 56.418480
-14.804998 -2.439418 97.413460
-18.245682 -8.124435 79.207199
11.774440 -11.922343 66.878265
13.615326 -8.354663 69.329018
-4.452004 -10.266307 69.291801
16.382597 -7.403265 88.431473
2.445729 0.892835 70.318764
-12.979475 4.425004 100.002190
6.000281 7.955847 101.047218
4.730531 -13.310051 103.738220
-3.993119 -9.570395 95.502724
-4.265787 10.156754 94.458580
13.568856 -1.768047 107.271027
1.724683 -5.173136 61.798733
2.566955 -0.649955 65.115631
-12.427562 -10.196211 72.334023
17.057482 -3.868598 89.244423
19.080860 -6.870414 88.545837
10.307029 4.310422 78.782623
-11.286024 -9.589408 103.338997
-2.940379 -12.461121 87.178772
-13.212340 1.280460 102.652687
-12.774023 -9.125926 84.583626
13.065995 0.888995 99.849014
11.043387 -10.273714 67.214706
-14.447162 -1.466180 72.132896
-0.419295 -3.575233 79.958122
16.894333 -6.238720 93.849281
-16.173019 -7.036018 93.307358
-13.986695 -8.646394 66.738647
12.965307 -11.086133 91.653664
-4.001634 -11.787210 98.542519
-13.148498 -11.723046 79.818741
11.372847 2.864041 62.356510
-2.704721 -11.387470 96.088287
-16.943501 -6.491746 82.934608
12.741520 4.125021 91.402702
10.111264 2.818011 69.420151
-14.447209 -2.797398 65.437645
12.610736 -10.586815 94.124207
-9.363126 -12.223839 103.532127
1.127671 -11.357846 93.126022
-14.947044 -4.075978 102.728188
-5.316208 6.099907 108.694565
-15.419477 -2.314976 97.165482
10.130783 -11.167767 72.197701
9.937375 2.175191 71.963432
-0.830862 -5.087080 78.643906
13.099664 0.306089 66.601204
3.115426 -9.604577 79.669731
4.621578 -6.046119 59.247330
-16.648270 -6.104856 83.437454
14.347914 -4.185222 62.227230
10.786643 -11.353377 65.238022
13.919909 -6.775404 61.994915
-3.201058 7.735412 101.323067
11.983710 5.392056 81.962334
10.656868 -10.598177 67.938171
-2.032123 -1.681919 68.497932
16.794476 -5.613599 93.086235
0.768250 -11.807091 91.014267
4.984655 2.844608 68.098785
-1.357342 8.336928 96.931175
-12.723268 2.441988 88.174232
0.595193 -9.110818 84.846710
-0.796308 -4.746887 79.981087
5.985742 -11.578928 95.331223
5.137155 -5.528352 57.847942
-5.684634 -11.037022 88.469826
10.538902 -9.978119 106.120575
18.433950 -3.620644 94.143921
16.011793 -1.585117 79.013397
-11.342309 -2.089029 59.813847
13.156463 -11.318775 80.436035
7.161506 -11.966039 101.052559
-14.131309 -3.963667 94.000999
14.409068 -10.200930 81.655891
13.471678 -2.844360 62.004562
-0.396847 8.162842 100.838333
-7.795489 4.008029 69.809776
-13.289675 -1.539618 63.409843
1.742426 8.414139 89.072639
-4.608069 -11.743552 90.661926
7.172639 8.284153 100.954147
11.350071 -11.159869 67.913086
-13.095296 -3.346591 105.874748
-6.571823 9.701857 90.322060
3.694303 -10.128378 88.567307
8.319748 -12.906900 82.071671
3.312788 -8.288397 67.142242
-0.277032 9.036542 94.198189
12.064404 -11.632830 89.485489
15.089661 -7.513093 75.586891
6.187220 -11.871069 80.628555
4.070491 5.102186 80.956398
-11.325659 -9.852512 62.200089
-6.699395 -12.553479 104.160416
-12.146260 5.172488 89.234024
0.392578 2.644800 82.941010
16.996944 -7.087218 92.153870
-10.150661 -7.747796 55.667351
-7.777565 -11.684678 90.607086
10.454782 -12.866547 82.694832
-3.464067 0.796169 56.724594
16.479971 -4.335097 78.397644
-13.084986 -10.102069 94.807884
13.886653 1.254087 86.955559
-17.275696 -2.138582 88.251060
-0.287291 -10.033918 88.987175
15.989014 -3.974008 95.477745
11.818504 3.644671 104.813965
11.358702 -0.005014 73.233109
-14.248174 -2.597266 98.319649
14.051847 -9.676452 90.681572
18.698179 -5.181489 84.600540
14.988919 -2.915910 104.534576
11.988334 6.758423 84.760620
12.017822 0.450735 69.860222
-10.408307 -10.301166 65.270042
16.037691 -4.041320 99.701714
2.654341 -5.006598 62.592785
-10.062902 5.050532 109.383377
3.540360 9.410172 88.075821
-10.576586 5.283633 83.930641
-12.898428 -3.877937 74.292969
7.960537 3.591802 70.162666
3.175199 -9.353102 70.028084
-5.308497 -9.649690 63.518929
4.958786 5.663847 107.385742
14.120811 -4.365076 61.542255
8.574270 3.962338 76.266136
14.361954 -1.889723 104.254478
14.092543 1.409615 94.374153
-12.941524 -2.904820 60.327473
15.174115 -3.302344 95.030289
-8.787153 -11.754139 91.539970
-2.349322 6.959206 104.795860
13.470099 1.977799 80.253494
-2.101750 -6.955312 70.506348
3.973654 -5.572413 64.927849
0.165951 -8.489447 84.565392
15.692703 -7.105790 80.402199
-3.268431 1.955569 75.484344
-13.336307 -10.445117 71.125511
3.642564 0.274023 64.892487
15.591800 -6.215680 70.588272
-7.811168 -12.018066 79.638863
-12.075109 -12.192903 94.669571
-7.354423 -11.647387 106.984802
-15.278837 -1.316403 93.257568
-8.293212 -12.516133 68.580299
-2.589223 -13.181828 104.548103
-14.123946 1.543267 89.701416
-6.186146 5.082417 106.214592
-12.693591 2.459983 107.167923
16.118538 -6.993758 69.955437
-0.353357 7.518319 103.586281
-9.438080 5.273129 108.015213
-2.960161 -1.968268 66.905510
-3.141081 -1.306132 56.469257
-17.218639 -6.618474 91.212662
-3.746936 -11.246243 74.496185
11.404211 -1.402157 70.310410
11.236382 1.554548 70.714668
-11.312397 2.544779 105.890160
-11.817680 -13.305674 81.632111
-11.326776 -13.062712 76.842751
-12.499117 1.440007 62.761753
-16.604900 -7.658655 93.461296
12.517492 -10.134361 86.442795
-2.838791 -9.408477 71.697250
16.583067 -5.524176 80.011551
13.190843 -10.559737 98.036926
11.241998 1.899705 66.529160
-13.171023 -0.818369 105.937462
14.090990 -2.033370 96.461655
-4.675766 -11.712863 68.030235
-0.542393 -12.361963 91.510185
-0.521742 -2.288717 81.039780
-14.696373 -9.030651 97.677635
13.202285 0.852737 78.159447
6.173949 6.505234 106.124710
18.925871 -5.991852 88.106461
-15.070139 -6.966273 91.757652
13.680535 1.811495 77.816231
12.245785 2.487654 99.108414
9.400749 7.055976 94.269035
1.027275 -11.181239 96.785812
-9.907610 -12.496074 77.191605
10.733057 4.477583 76.194229
15.138519 -8.504902 81.777184
14.187921 -1.752841 102.009491
12.287133 -12.819298 92.837486
-5.874148 -10.185319 67.584435
14.388244 -7.961828 93.049591
1.120907 9.606769 95.701958
3.360603 -9.438046 79.896561
7.189973 7.140018 97.076698
-13.636487 -3.520181 64.848625
3.648856 2.163234 68.206528
5.276683 -12.205716 80.171387
-4.597999 10.183781 89.887154
9.380962 1.899494 66.424492
-18.829905 -6.164017 92.168053
12.637162 -0.510553 103.432190
1.564123 -11.104143 90.685905
3.749403 -9.904870 82.917183
-6.512403 1.548731 58.109997
-0.652098 0.580033 78.139381
-17.555037 -9.208691 90.253937
14.624380 -7.167885 73.929817
-4.548642 -11.079575 70.107445
4.814433 4.123464 72.845802
-10.377496 1.770204 63.088867
7.414377 8.276033 103.215401
11.884589 -8.599402 62.545815
-0.704085 8.708999 100.432106
4.875453 -12.799301 87.568756
-4.025494 -12.080246 90.189186
12.233747 2.631209 76.678734
11.384501 -9.692390 104.494629
10.362237 8.241201 99.029724
-3.036058 5.944820 107.138786
0.747255 7.641215 89.524139
15.363152 1.891048 84.419861
-1.010325 5.143230 110.257088
-11.239509 -12.924649 83.660713
18.230797 -6.717412 89.084686
13.851075 -6.469880 75.427032
-4.510759 8.591489 87.644775
17.026129 -3.752310 92.758499
2.489255 3.429937 78.572014
-14.261539 -1.440444 95.507309
13.744242 -1.323732 93.722511
-7.116176 -11.773280 96.253220
7.632897 -13.820246 103.721817
11.373004 -10.961747 104.965370
-11.513991 -8.777034 107.837097
12.990429 -10.588081 79.955193
10.999963 -10.143467 85.458649
-19.319508 -6.476248 83.859467
7.028940 2.950590 65.533684
18.299068 -6.754878 86.824409
0.582926 0.715157 74.579208
-5.623219 4.934938 79.475418
11.114174 -10.122677 66.612221
1.129896 -0.411783 80.001549
-0.302688 -11.492047 98.507645
-2.210202 -1.842525 65.210945
-16.566944 -3.209288 87.636833
-2.999449 2.713209 79.729790
13.305328 -9.969107 68.738289
-18.997869 -7.202482 85.116745
14.801971 -8.961951 72.734840
-4.826178 -6.771000 57.942719
-8.929389 3.009851 57.575573
2.287544 -10.206912 76.491165
13.599046 -6.545023 67.222115
9.213857 -11.246107 102.568886
14.543761 1.503423 92.055328
-13.152577 -0.796133 109.626503
-3.543446 -3.715025 59.615437
-8.585100 4.162665 77.771156
13.315241 2.268472 95.643158
13.135846 -1.080317 107.251320
-1.338319 1.090783 73.549263
1.244470 -2.459073 72.026657
-12.178090 0.665090 76.733032
13.080697 -3.242859 106.261147
2.080380 -12.193854 99.965004
10.730391 -11.030378 99.813339
10.548780 -9.197988 99.425476
12.467418 -7.062311 102.021149
-12.832665 5.310688 91.431213
16.937799 -7.593375 78.500214
8.746026 -11.109918 106.460304
11.961203 -8.450512 106.110855
17.102560 -6.520719 91.368820
1.284166 -0.370552 80.666916
7.152232 -12.182361 102.594795
3.122873 -9.254361 71.164299
-11.281588 -9.043116 104.995743
-4.274877 1.549625 55.929295
13.145975 -9.855469 67.338707
13.135058 0.564934 104.954208
-5.320777 -12.605462 100.183342
8.721636 4.828498 108.517784
12.077942 -7.160495 58.589039
-12.242101 -1.735011 98.322227
1.322829 -7.137476 77.953659
9.314716 5.589079 82.818573
13.396285 -6.730711 63.175243
-15.771206 -3.551960 94.874283
-1.217618 7.557368 99.551018
-16.086023 -8.848265 85.178146
-18.652445 -5.531981 92.960861
-11.386624 -11.809097 96.326912
-8.259156 3.745414 109.692551
13.072414 2.981422 97.227470
4.616494 -10.825963 70.241325
1.355514 8.307457 102.781281
-13.959048 -3.829097 63.347244
9.397593 -12.350776 95.038429
-5.820884 6.245527 78.970627
-8.827844 -13.007331 85.864395
-10.538973 1.013452 58.026848
-1.542535 -12.175631 104.185959
2.595810 7.153372 85.967537
6.418437 -13.616419 74.182159
-2.950910 9.806783 86.900078
-14.173710 1.115653 97.708176
11.836340 -10.814758 93.471130
10.692921 -9.905041 101.716026
-13.556249 -9.709704 95.498375
-14.196730 -8.963270 83.986679
-3.557579 -9.245540 79.324112
15.305293 -8.655190 86.676437
15.068769 -4.067404 68.078606
2.411895 -5.631057 72.424316
-3.821757 0.917832 58.150665
10.840325 0.874768 109.339287
-1.802353 -13.964493 101.168419
-12.687578 -10.677050 94.540527
5.257868 10.214591 93.693947
-15.552645 -4.395499 100.072968
-12.092914 -11.795434 94.755508
5.494398 -10.765774 98.072365
-16.153811 -0.838627 92.051529
-12.353477 -11.589271 90.662018
-11.709206 -10.714059 69.706406
-8.283944 3.421232 109.376724
13.035035 0.451315 66.034531
8.905413 1.872836 56.488258
11.641903 -9.991955 97.261444
7.462529 -12.813768 81.477509
1.102157 -11.142897 91.787010
-7.394692 -11.897122 105.784607
-16.212812 -10.593272 85.931709
14.321449 1.744050 92.136810
18.477390 -7.708181 81.384918
-13.168128 2.175173 104.953316
16.514154 -7.951022 88.913162
2.914531 -4.387551 61.671917
5.254908 -0.585321 61.740181
13.472496 -1.103611 99.278419
12.099939 -9.911636 104.887268
-1.862415 -3.672990 56.134712
3.489327 10.395597 97.413361
3.834165 9.975288 96.824806
4.874096 -10.224211 69.819267
3.667839 -13.240145 97.732796
-13.156493 -10.490162 96.123863
17.575172 -4.441946 91.417343
14.698790 0.763741 98.825745
-7.154506 -10.422224 64.923859
-11.817282 4.865174 104.337585
-5.893135 -11.919780 87.879295
-0.060332 -2.539190 81.883682
-0.363352 -12.426130 105.293030
9.719789 4.950119 103.546097
10.972028 5.493182 95.001572
1.721736 7.146213 86.774490
-14.184979 -0.926114 60.114491
5.686033 -12.967338 103.780701
-12.906119 3.061879 104.128723
-0.295656 3.395948 82.926125
-13.977235 -0.684696 101.918396
-10.759962 -8.231985 55.177094
-3.404653 -8.488498 74.375755
-15.872589 0.345482 81.872337
3.940590 -12.116568 69.978203
19.561914 -6.540771 85.443733
-11.166096 -11.129576 98.700645
6.386734 -7.435120 57.445873
7.046555 2.667007 67.827850
11.368511 -3.111593 107.936882
1.018097 -4.652145 81.693268
3.395417 -2.371648 55.620384
-17.819414 -6.001823 95.079750
-2.191611 -10.564951 85.129059
-18.407509 -3.802581 89.903587
12.229603 1.119662 63.757240
5.870573 -11.204578 92.348351
-0.608380 6.529122 85.092377
5.829982 -8.326838 59.087154
5.013225 3.054978 70.847015
14.933920 -3.241186 87.279984
17.430414 -4.393676 85.368477
9.613651 -11.327171 63.883171
-1.905769 -12.352695 103.137398
-8.008896 -8.311033 57.564533
-17.359617 -6.342854 80.811409
-0.692934 -6.542599 74.705132
-17.338758 -3.562089 94.049286
1.182866 -9.621469 81.164223
16.106720 -7.778584 74.501671
6.701149 4.885849 80.993858
0.861892 4.511061 85.732483
-8.430988 7.790348 88.877716
-6.603323 8.214107 101.872734
7.211102 7.420942 87.623459
8.243130 7.723811 102.069389
14.550198 -2.209099 100.944305
5.607772 4.065491 107.610306
9.128038 2.676520 68.904411
0.631639 -1.733410 69.019112
-4.908699 -12.582349 83.506882
1.630028 -6.356343 63.400352
15.170297 -9.193428 91.487808
-9.270348 -12.705483 78.898727
-16.694630 -5.891538 94.580070
14.396706 -6.282145 68.175720
11.343602 1.440820 105.976936
17.444712 -7.259368 76.708824
3.599490 9.167914 97.207993
14.920419 -3.988750 90.229446
0.869019 -12.269857 98.752892
-3.812018 3.523015 79.695290
-7.750683 -12.257761 88.714806
18.590611 -4.466729 90.804565
-4.372916 -0.085685 57.578987
12.091854 -11.548469 73.432281
11.766893 3.388554 71.534462
18.149878 -4.892192 92.183563
16.573738 -5.371906 97.196709
-3.422738 -10.118291 73.974541
15.726657 -2.622615 82.705574
-11.339748 1.350864 67.956177
3.591177 1.985318 71.625778
-7.665670 -9.930877 60.428867
-0.386755 2.690034 110.670624
9.143861 -12.289273 92.140419
-12.437062 -1.742002 107.075134
-3.607635 -5.882089 62.829323
0.885465 -4.606049 80.534302
-10.538512 9.946702 92.965263
-8.038223 7.009089 82.607315
-0.013441 -9.588018 86.303879
15.682216 -6.379017 74.886299
3.843194 -10.455920 75.321228
4.719806 -12.123206 75.316391
-17.599844 -7.680115 77.869484
15.229071 -0.659176 93.784889
0.944610 0.537766 78.016205
12.457596 1.454805 81.863319
-12.596468 2.376840 74.951225
-0.602129 8.353112 99.568077
14.445778 0.130321 75.342842
-7.777550 -12.554157 86.110161
-5.811333 5.746020 110.360214
15.602922 -4.272816 66.778816
-9.534488 -10.486880 91.154022
1.542509 -12.076174 97.369019
-3.232453 -0.806008 70.266502
-4.777587 7.707071 105.268265
-9.675452 -11.168224 65.152039
-4.058105 2.308053 70.967964
1.929323 -7.432343 65.555702
-17.348879 -7.783425 91.843582
-6.928443 -8.570408 62.282394
13.914925 -5.399372 68.174377
-5.022602 -11.638610 82.623589
15.203876 -2.796094 104.273865
-0.592465 -12.512112 103.061691
3.582517 -12.007681 104.098915
-5.535695 9.508821 97.628815
12.214478 2.725882 107.718529
-8.990300 -11.316674 94.428696
-5.474342 4.687349 109.830437
-8.640328 -12.692910 89.098892
-2.755225 -10.458038 84.629570
-12.253074 5.356378 97.998497
9.933732 3.728955 68.627663
4.721215 -11.984286 91.653305
-0.166788 -2.246608 81.631912
13.905438 -5.286919 67.383850
0.806229 -0.965216 77.237701
2.800793 -5.886554 59.275242
