ply
format ascii 1.0
element vertex 2048
property float x
property float y
property float z
end_header
-3.154311 -13.727721 104.672119
-13.320620 6.721380 126.466553
-14.912200 0.233404 149.881271
8.000485 -6.217570 142.378052
6.581334 -15.356712 96.581848
-18.614609 6.685286 105.264694
21.228687 -4.636440 136.523682
23.019600 8.488552 134.628677
3.370954 -9.771186 117.889275
-16.758617 2.365749 149.998901
0.746135 -10.185687 137.485352
7.064291 12.476767 144.110306
-19.974098 0.070987 141.857819
1.692268 7.870433 155.198135
-18.844139 -2.448914 102.026451
10.105336 0.124748 150.892075
-5.647739 -7.606494 148.573517
-11.720919 -11.823825 140.450058
-5.552304 -1.200413 148.221252
10.814192 -11.969368 118.885529
-7.984088 10.883057 129.304153
7.171616 5.589313 119.665092
-11.423358 2.503847 118.878571
-15.113426 -5.354193 108.025398
20.733656 -2.280161 134.011383
10.103654 13.225928 147.101120
-16.437359 8.388886 96.075241
-11.097466 -6.412065 140.412659
-10.858398 -10.077904 112.152451
14.778945 -4.860237 122.997322
14.701213 -11.113647 118.699959
19.181419 4.881100 145.751389
-7.501957 7.601707 156.328430
-8.602580 7.981135 96.950600
-14.108149 -1.985337 131.424866
4.279981 14.593141 97.060966
-15.951247 -1.145797 145.130493
9.770277 -12.589667 123.257263
-15.154888 -2.437670 129.029526
20.779177 -4.898540 141.788895
17.757866 6.731574 141.013168
12.985669 -10.767573 129.734879
-4.640120 7.633779 154.228836
-9.295586 -12.968753 141.150757
-18.584301 -0.821419 144.475220
8.911777 -4.984943 141.264679
2.441052 8.617316 117.318855
-14.646509 0.326496 141.869858
14.267374 4.560224 94.946648
9.646561 -9.993137 127.456291
6.171478 -14.779078 102.878059
17.587521 -9.842071 90.574387
13.230739 -12.132486 102.852448
14.790583 4.393812 133.362991
12.729924 -9.006001 117.467804
0.829020 15.349707 141.740479
19.520174 -0.837707 142.458618
5.787445 11.607626 136.226624
13.115943 -8.662358 108.330330
-10.331327 2.643163 152.838120
7.664588 -11.682569 104.981155
-15.015453 -1.388876 134.827332
-10.003228 -8.918816 111.315208
17.865826 -3.306806 92.408073
-5.699728 6.651525 152.351562
3.208602 14.318640 137.683640
-6.189647 8.374360 123.914375
5.674559 13.396066 138.237991
8.683304 -11.756380 126.710228
12.993033 -6.490850 119.713097
18.256994 2.844767 131.831985
2.469552 -13.483635 100.894905
-9.016438 16.266409 142.028442
8.925416 -8.266515 138.575439
-19.556396 -6.647511 91.705086
14.355152 -1.875743 145.242264
1.266642 9.486898 122.687195
0.106550 8.683757 152.312241
14.577246 -3.190996 103.510628
11.134665 -14.723667 107.487022
11.797398 1.400754 124.806015
12.278193 -3.583565 116.760719
3.611995 -16.253141 97.580650
2.566608 10.509643 150.394073
13.472444 -11.981077 91.372871
4.163071 -18.006210 91.762093
-7.520229 -10.168129 104.478889
3.261138 -4.897918 145.776688
20.620028 -0.919955 146.766968
-23.178242 13.094478 140.505844
17.300669 1.472560 144.478607
15.570327 5.734303 97.436417
0.924685 -16.856644 108.320457
3.659513 7.071429 156.294373
10.094418 0.464361 116.011116
-24.848412 -2.535761 136.098938
-3.446798 5.331783 156.400116
16.180082 -2.725335 105.323059
10.154037 11.858408 94.318092
-0.612170 13.612729 91.788994
-18.605207 -1.669545 144.647934
12.390667 -10.123608 107.277977
-15.372087 8.773749 149.507080
9.533109 12.452874 95.108704
-1.184191 11.779105 132.078201
24.343575 5.492742 139.244812
31.010071 8.822846 134.805786
-15.755610 -7.986089 97.229660
18.842848 6.043323 136.991470
-7.760454 0.799731 150.786377
5.076015 12.010106 98.522469
-21.924032 2.328809 141.075668
7.882250 -13.157195 101.328529
3.530738 9.742457 121.817276
-4.488776 11.222140 110.051620
11.936402 6.020479 103.806137
-8.614424 -12.266190 115.233597
-16.893156 -3.522590 144.097122
7.168586 -4.858504 144.238205
-4.306963 11.906571 105.302834
1.700120 7.022892 114.689644
-0.935578 7.245282 121.343651
-13.535215 5.412007 104.924171
-5.324095 -13.477014 92.989006
12.118949 -4.518954 119.177437
-4.938571 -10.232332 127.447777
14.869270 11.128149 98.724777
13.661576 -2.150289 118.178497
-9.283099 -13.466287 131.936691
19.975206 -2.110935 144.520477
5.242713 5.610660 157.935135
0.784774 -14.812127 125.504944
16.046751 3.680026 109.331306
5.379998 12.634454 97.584732
-10.020003 11.565417 97.442696
16.661142 -1.090443 143.926804
-7.528245 4.279364 156.134628
-2.412119 -11.575367 120.896240
8.266258 0.555773 150.654999
7.624315 3.089360 153.099030
21.216290 3.878046 148.689178
-9.038775 -6.455701 115.481071
3.809138 12.775895 135.674637
-9.948664 15.469693 145.074036
8.485529 13.431765 134.251450
-12.730242 -5.593390 127.477798
24.394188 7.675755 141.272430
-16.642120 -0.199549 96.338959
-3.738667 -4.822553 149.007492
7.258584 -10.125608 99.810593
9.140236 -13.497351 102.496384
1.591407 11.892608 125.662621
-6.356194 -7.281613 143.600128
2.956814 -13.352757 129.229416
-13.720641 -1.081209 110.797218
-18.496527 -3.038921 132.586197
20.183207 4.327506 133.345734
19.072966 -0.710462 145.021271
17.354092 -5.251281 104.718864
-16.554373 10.338648 148.714203
-11.487254 12.773715 103.928146
18.462273 -4.475571 108.629211
11.264080 -12.667185 95.242523
13.227340 8.237383 139.656158
-15.436337 7.576654 142.425705
1.107320 3.787907 2.038637
4.012602 9.664276 99.898491
10.132924 -10.447324 119.182121
6.581590 -14.322119 117.193649
-9.019007 11.192317 92.892365
6.647498 -9.414457 122.875397
9.316372 5.769261 120.707352
-7.757044 9.132067 156.070496
-4.702926 10.919445 153.135696
-19.691854 10.407591 142.992126
3.714930 11.266926 136.205551
-10.616418 5.897669 125.677849
-5.335480 -12.305799 108.796974
-19.339588 3.692744 144.525894
6.683981 -1.150603 147.584854
-14.472278 9.025490 100.401237
7.045230 -13.834040 98.009308
-13.637074 -8.492021 141.724136
-16.143021 3.664069 133.423660
-23.719099 -1.865048 137.982544
-4.903565 -13.468211 101.229973
21.268021 2.277550 142.697540
-4.121277 -13.791910 128.904877
-24.831577 -1.264963 96.379837
-15.044515 -10.743036 94.155350
16.672871 2.626645 105.548218
12.303616 -0.033686 116.319504
13.889048 -5.462385 106.534691
-20.402563 1.409928 140.361481
0.851964 -11.066570 118.440193
13.941057 7.140025 136.602829
-6.621119 -12.882741 135.985870
-0.844868 -12.406936 108.379990
-5.617351 -14.619102 133.270493
-12.494149 -8.477105 141.154816
-10.865203 -0.350483 117.771805
-14.639194 -3.374176 127.377792
9.539979 -15.039703 88.332283
4.225116 -15.719643 122.581154
-15.002266 -1.995492 109.120842
12.793184 2.928941 131.393082
15.887789 -2.902307 103.216217
15.815928 7.126374 97.508034
-14.443451 3.608471 105.080215
-12.976106 -6.879929 128.953262
-14.191319 -3.749055 113.346375
8.668145 11.652916 151.471313
-13.303195 -8.795939 130.672546
19.017408 1.798956 140.717667
15.282988 -3.032525 89.380714
-9.926147 11.883598 130.846985
20.270288 4.314350 136.422928
16.041552 -5.247069 141.961777
-9.289698 -12.016109 138.771637
17.519796 5.176204 134.563919
-13.541409 -6.571187 100.364273
21.038883 -0.496560 141.962860
11.052582 4.237519 119.899269
-14.729282 2.215617 106.148102
-3.899982 -13.771029 101.177811
8.013183 4.100310 158.068954
-1.541258 9.046861 126.683846
-4.819635 7.688423 153.877777
12.731064 -12.514845 95.096001
10.487068 2.139555 124.133591
11.356503 14.034727 149.998917
12.457356 10.142820 135.989792
-14.612420 -6.891086 131.894119
8.941864 -1.274750 150.351715
-12.580842 -7.977743 133.449951
-0.270914 -15.350766 114.949661
6.157381 -14.232916 93.225365
14.099261 -2.499401 109.130554
-10.350095 -9.608252 139.962814
-3.039532 9.186815 90.982002
-18.249346 0.094519 107.605148
4.330387 -9.170348 94.389793
-8.673781 -14.117403 133.729599
2.963499 -8.864098 138.625610
-4.984565 5.428034 116.592804
-18.306980 -1.482679 126.301323
-11.253263 -0.952190 147.997360
-6.515280 -4.457747 149.491241
-5.152529 9.155871 114.858200
7.181984 -14.366650 93.774963
4.568424 -18.670736 102.012428
16.505060 -1.613150 98.879707
8.012183 9.618700 150.288437
-12.953266 8.632815 139.729050
-12.589921 -8.371111 118.824806
11.890523 1.691834 124.663429
-18.050970 2.796770 153.424667
-7.038033 12.624813 146.062805
14.650167 -6.913625 142.387405
-10.748664 -9.732678 122.785339
-6.033867 -14.241618 118.046303
17.776257 -6.119904 132.879852
11.893564 -18.341465 93.109123
-13.014154 -4.942388 122.130928
-1.341974 6.625516 118.202576
3.484354 9.778792 90.516739
-16.872967 -13.236959 138.701645
20.253105 10.932953 139.578918
-14.122742 0.731031 147.506134
13.329079 3.656911 107.836418
-4.860905 -11.539452 122.306023
2.306349 9.131020 128.005890
-12.907758 -6.391453 111.610573
-13.146558 3.672290 153.758453
-12.425425 -7.024105 107.902031
-9.775235 5.475902 154.679947
14.783419 2.537540 108.937523
-17.538771 7.838385 137.321030
-11.956834 7.456733 102.422256
-5.691922 -12.748714 117.910118
-0.035556 8.892945 108.588715
23.940294 5.216984 145.784698
19.192007 4.830766 133.779694
-14.672204 -3.358623 110.407249
-10.104303 13.218844 140.555557
6.126567 -8.783455 120.137566
-2.303280 -11.712255 110.233810
10.509878 8.043932 102.829910
9.954948 -17.137318 96.720993
-4.186539 -4.253013 150.801132
7.530345 9.252736 153.765686
12.005520 -6.335259 100.683319
19.762156 10.865182 141.713272
9.034844 -1.314462 115.457924
-10.637213 -5.114637 122.054512
-4.393155 -9.101020 116.351494
1.594259 -13.788402 108.884811
-5.927460 -12.969522 93.168732
-3.825267 -1.857289 154.594116
-17.700483 14.778612 143.179214
-16.479977 -2.172105 135.992004
-14.754761 -2.647997 145.417221
16.043976 -9.210000 109.325882
-6.512009 7.519967 149.166626
-8.573550 -12.789968 106.302742
-11.242984 9.280245 97.730255
1.604324 -14.099176 113.171234
-7.648839 8.073676 128.338806
18.956734 2.280862 131.774826
-7.571741 6.142984 156.891373
-15.533367 0.156935 137.278442
-9.043954 -15.282354 135.174072
-7.871692 -14.775826 128.642120
-15.094093 -9.348776 135.920898
9.151308 12.572191 103.706657
-2.468215 -5.251285 142.991547
-7.894587 13.337520 106.358261
-20.428368 2.898798 147.356491
-5.497901 -7.055983 145.450455
-11.433712 5.798553 122.379745
-18.611883 -0.018730 145.066330
0.096842 -14.657799 118.306557
12.188798 -14.529557 131.350327
-17.130632 6.657775 136.104889
9.410522 11.680181 91.677475
3.704901 13.128417 140.828445
-10.990908 -1.422165 148.560120
-8.359072 -12.993129 98.053123
-0.106672 -14.184826 98.305519
4.031791 10.404914 154.121704
-9.942701 9.945808 100.214462
-6.288995 9.034970 143.579987
3.981659 9.214092 94.966118
6.115634 -17.692131 101.601402
10.040785 7.967900 130.415909
-4.516893 -13.454317 109.849098
13.620188 -2.343359 133.196381
-0.281829 -15.974877 111.349152
13.613909 -7.220422 92.459282
-0.566857 -17.769089 105.726280
9.715142 -1.649704 120.853767
8.730233 -10.379948 139.617020
-8.878800 1.933815 155.481995
13.606429 -9.472474 138.496399
-21.081213 16.087126 139.346085
14.465277 -3.786499 122.690002
15.338103 9.247156 95.955925
-15.107797 4.515252 105.749069
-11.923064 2.778508 124.086227
19.566233 -6.320627 135.538971
-19.367758 4.480344 92.357277
10.757519 3.163594 155.826065
9.355308 -12.882660 91.123596
-24.305578 1.007777 140.409454
13.511865 -1.273057 134.707703
19.935837 10.523633 140.630219
20.579489 2.193240 149.240799
8.884260 7.977100 115.523483
16.270004 -8.022506 108.000740
-15.289377 4.387593 130.771927
11.627665 -12.171027 118.332962
-0.632397 -14.579572 119.395454
5.365012 13.959113 96.851402
8.904837 1.262134 151.630859
-14.094489 -11.580227 105.871025
10.369974 3.915552 117.326515
-17.155382 -6.352135 96.153793
-1.081267 -14.195193 114.685379
12.585956 -6.877076 104.182030
-14.371710 -7.387177 137.896927
25.168890 -3.508769 138.254807
16.461384 0.184783 137.142105
9.673930 -8.508982 96.277138
-17.309198 -0.805960 144.888596
-3.800699 -8.588681 129.812103
4.042946 11.824751 143.866272
2.247139 -14.783074 105.298187
-8.636654 5.950895 128.969666
8.085234 10.035953 126.735222
-2.172320 7.591565 124.977585
-0.628051 7.290936 122.890434
-21.567202 -2.862332 142.861008
-6.320296 1.114800 152.284637
-9.077147 -14.206374 96.344223
17.289486 -0.775965 104.962120
5.386963 12.116532 133.902359
-8.890690 9.608524 90.935684
13.733934 -11.781270 137.109055
-5.090651 7.833149 156.541718
-6.421965 -10.662384 121.977890
28.385336 0.928796 138.882141
-0.655293 16.402092 140.334396
10.517327 -13.370627 127.912468
6.929942 -13.123773 104.584274
-16.356459 -5.161276 136.834518
10.328983 8.434655 156.685181
17.051765 -8.818643 130.252335
3.333827 -8.130119 143.575165
17.402855 -2.860848 143.633408
10.025618 -12.214889 108.656563
-17.009495 -1.531650 108.728493
-9.444839 13.467670 100.819107
-5.205708 9.334480 150.105042
23.845991 -0.361906 138.539566
-14.802559 -3.074029 128.937531
16.136017 6.874487 133.479691
-11.207211 -4.048087 109.401535
20.343983 4.552429 133.798630
3.436518 11.384498 128.805664
-11.140966 -9.694175 139.790054
-6.156606 -8.895147 111.750496
12.972020 0.718763 104.774727
4.816337 15.470779 138.899612
-9.852348 -0.737294 151.122772
-14.070318 8.391054 134.504471
-12.809665 10.448675 127.886673
15.519258 -6.950583 112.173286
4.174094 4.577992 110.450447
-13.067414 -10.723617 105.422554
-1.922529 6.090229 120.353325
-0.143609 13.623114 142.096115
-9.458328 -11.095164 97.855957
0.511052 -7.585810 140.210678
-2.866898 -12.452491 107.549332
-14.259329 11.521918 145.978241
-26.181900 4.370324 140.508224
15.177128 -6.536333 134.555466
8.341619 4.875005 156.400818
13.240324 -7.535349 115.633919
22.124006 -0.828579 140.880600
-14.860283 1.092238 122.813606
13.080023 2.441689 149.024246
-8.585495 -5.631742 100.481194
8.502472 2.876809 120.566704
-10.986406 1.397810 116.059662
-18.814072 1.120590 136.274796
-14.062867 -10.178356 113.089233
4.852294 -16.430271 104.235336
12.532598 9.493602 89.503029
9.589492 -12.876262 123.133240
23.394209 7.499850 143.563019
14.152207 4.840145 101.543640
-21.442341 -1.215460 144.162628
-10.682153 -0.963212 154.612610
-24.478176 6.187543 141.322372
3.463289 -5.468783 149.601578
-15.219838 9.560665 96.428253
9.108080 5.420418 110.197472
14.891319 6.136072 98.189308
13.056428 -4.525078 130.282013
22.614517 9.971755 136.548004
19.150635 5.952781 149.659286
-14.622232 7.673384 130.776230
-2.820152 11.732391 146.062515
-15.221838 2.627454 150.623428
1.149290 -11.758272 121.282753
-0.280932 11.243083 138.557434
8.947099 9.538406 105.657455
-15.420386 5.979937 99.751373
-21.044439 -0.741807 147.402863
-8.787669 -13.025393 136.502655
-17.283127 -6.991789 96.464951
9.798937 -14.646299 108.528824
13.580916 6.607683 132.393326
-10.277738 11.872308 90.237442
8.845465 8.226250 152.375290
17.508375 11.707733 148.456116
7.488762 11.068757 100.342957
-7.507992 15.829352 140.117783
12.640320 -8.692570 140.194611
-21.942703 2.123995 147.872513
17.412664 5.551498 137.098480
-6.768028 11.866467 97.757660
-14.834168 -11.083177 98.932953
11.255530 -14.403031 100.948730
-12.939647 -5.308954 136.528534
-3.637386 9.077778 116.535667
11.475806 13.592458 92.821060
0.112406 -8.105951 140.922211
7.301523 10.442825 145.751450
-16.777548 5.635196 105.889526
-5.593427 12.517654 104.715492
0.830448 13.647665 129.444305
-7.606881 9.122754 140.610168
-14.147221 10.169120 139.367142
5.518264 -10.569277 101.035339
-8.328203 6.846876 106.558273
-8.226312 15.561575 96.490585
-9.779734 6.800324 107.679619
13.358040 7.847921 96.563843
6.943220 9.282488 115.712677
-18.377039 -1.101626 142.613327
11.321709 -11.621260 98.630241
-7.737646 11.900367 148.340805
20.692598 9.902416 141.179276
-24.439650 10.328513 137.179688
15.734891 0.991958 124.183456
2.286878 14.285564 132.778015
18.414738 6.101114 96.777260
-12.924034 3.974447 119.980888
-15.016281 -6.901794 142.071564
-10.108768 -13.557503 93.895180
18.774450 2.603990 94.954926
3.522852 2.553567 152.585236
7.876109 -15.199101 131.829315
-6.293166 9.355103 127.632370
-23.423063 -0.804782 139.627975
11.768045 10.045832 102.092033
-13.733803 -3.365738 140.878235
14.335336 -3.377581 110.901123
0.531828 -14.847820 131.000183
14.568171 -9.782024 100.658684
-5.058484 10.973392 154.032410
-14.441504 3.446580 105.502235
13.660739 -13.366635 99.469810
-5.573203 0.591762 157.188095
5.012648 -14.215636 133.754379
-15.199545 3.771255 106.812859
14.006769 -9.997483 94.539665
-6.066494 -12.811226 103.231812
-3.880236 9.007186 104.101570
-14.121000 -6.166145 105.999901
-12.090866 4.877276 128.595154
15.609221 -8.267857 96.436577
15.404778 5.282219 149.523743
14.123720 12.936838 139.308868
-12.873949 9.585979 97.032272
18.381039 -10.032964 89.240234
11.022302 -8.490692 116.779449
17.599752 0.481978 98.513069
-2.458076 10.399623 128.855209
6.549362 -11.414545 102.182625
2.869335 -10.114908 120.635597
-0.259617 13.597426 136.211029
15.450169 -5.928674 117.349854
3.869264 -13.619521 133.279877
10.018416 10.405987 146.406998
-10.414836 -8.809929 140.761459
11.128682 16.049667 98.147652
-13.317634 -5.128014 114.884193
-1.104508 -13.898672 118.226791
-9.646811 -11.646018 93.474945
-16.436266 8.586218 137.614517
25.631035 5.551898 139.433273
-13.539937 9.795519 98.887001
5.579713 -9.572878 134.235504
-11.428065 0.255153 120.377754
15.596902 -3.230808 111.508347
-10.007187 -10.081390 125.346611
23.512295 0.057559 140.653442
14.975395 5.972994 130.542694
-4.967189 15.244642 137.519165
-1.719226 -13.287115 105.367371
14.058056 10.423861 144.523590
-12.291647 -10.620218 93.530975
-3.407124 15.149826 152.424637
6.712720 6.310133 119.277359
-20.872593 5.595098 144.208313
4.857570 -7.281539 141.524445
10.649008 -11.291428 94.703217
16.909019 0.370878 106.977386
8.105709 9.247458 107.293602
6.777103 -9.966862 98.307434
19.492794 -1.030633 132.880432
-15.094459 -3.166008 141.417938
2.637015 -15.106402 126.137589
13.084065 -9.197909 134.764023
15.034531 -3.218439 146.486267
9.049555 4.661587 119.671570
21.486383 7.043180 148.859009
1.984267 12.044411 95.119568
13.199007 -1.978068 116.745506
2.330838 -7.980744 117.032959
0.591797 -11.796269 88.586945
18.429741 7.418847 134.422440
-2.628979 -11.421217 107.069260
5.166996 -11.115802 136.601501
10.831830 7.228135 130.351608
15.834474 8.943803 151.864731
-10.603363 12.870411 135.876877
-19.015797 -4.764302 98.873375
9.011418 0.250300 155.178223
8.347055 -12.059061 100.747948
14.516418 6.477820 134.460693
-20.034933 1.264022 150.373856
-7.818235 5.141928 154.307999
-10.999477 -8.122005 115.196060
-13.303880 13.939855 138.311523
17.070366 3.380498 150.695251
-19.993803 1.108768 145.622131
22.866024 -3.810560 134.075836
5.334585 15.895875 93.097153
9.912871 4.697502 107.311485
6.754936 -17.799707 102.680969
7.959859 4.399076 108.383217
15.344170 1.217564 131.727646
-10.535117 7.905427 112.507454
-18.287466 -0.697793 94.872910
6.175691 11.378374 104.118782
6.309185 -11.914218 120.086838
9.086998 11.127337 97.108902
-8.666433 4.478490 112.293831
-18.558702 10.803328 146.283722
15.045182 -6.660748 104.951569
14.067196 -0.465881 151.951096
15.099092 7.912554 108.879326
0.488381 -6.432979 143.068161
13.321455 0.126319 117.839928
-19.093552 -2.112983 101.042023
26.979179 1.120779 145.146774
-5.470074 4.497369 115.042336
2.827613 11.626126 96.333725
14.858962 11.314798 136.997833
-6.423575 -11.272480 120.639313
22.031019 11.403348 142.483154
16.134262 8.963625 143.097900
18.697632 5.140519 145.578323
-4.151061 11.703274 96.863518
9.319864 5.879115 154.812241
-11.522527 -3.597342 127.356865
-4.477893 6.515970 154.193726
5.351937 9.351780 156.266190
-5.307066 -13.611425 128.190643
-7.176156 -11.274453 123.345566
12.821090 -10.794464 129.578903
-1.720819 8.919518 130.914398
-8.223678 11.154838 139.272491
-20.402760 7.993292 150.595474
-17.702112 5.532546 96.913795
-15.899300 -10.361259 97.649551
15.477036 -0.760963 130.756805
-6.244966 -10.817354 102.243134
6.794878 8.165044 106.376297
25.166502 2.032617 140.321854
12.966067 -4.486909 126.179420
-2.340531 -7.665830 154.510849
3.865349 12.088717 100.226700
-3.053465 12.492497 137.133652
-13.976976 3.256769 148.983994
1.983281 -11.986303 116.450195
5.540476 12.766884 102.779449
18.389145 -5.557201 100.962006
-21.261942 9.944581 136.759583
11.831074 2.602889 128.258240
-13.270271 -3.830519 118.506493
-15.181235 -4.704569 101.622803
-5.767805 6.817411 105.532036
13.407335 -5.356140 89.089012
16.520472 6.237033 137.751663
8.669959 6.336106 152.241791
4.169797 -14.292218 96.151199
4.254123 -12.673965 127.352036
8.890989 -10.638806 137.976700
-6.742426 -9.469831 122.645432
-14.612848 2.626876 118.409286
9.584445 1.217054 150.989029
9.945507 6.485962 150.159363
8.612246 6.379706 125.654198
20.077160 -7.324593 93.451927
-9.170965 -12.660266 103.595284
-2.667228 14.029679 131.847443
15.951972 -10.765759 96.766579
6.815212 6.714105 114.698105
13.582021 -1.702019 115.066193
18.613752 -2.302190 146.320496
-9.857789 10.538192 148.820602
11.517862 13.672632 149.586044
11.433315 -9.962417 123.851784
-12.672498 -4.424993 122.821960
-12.185282 -7.367886 127.258568
14.344998 -3.129998 137.404800
11.083549 1.821941 125.867943
-4.759552 11.663411 144.726028
-2.228754 -12.132164 127.571564
-5.402479 -11.176556 103.065193
15.106723 8.294614 85.686447
11.181644 -6.338355 101.470932
-6.633070 0.255054 150.078171
19.847036 7.882551 146.123917
-21.367636 3.594888 132.659286
-17.004858 -8.915096 96.544678
13.963239 -4.119911 140.558197
16.567907 9.658628 146.523499
-11.993167 3.489506 119.542786
23.886436 8.064490 138.735703
-9.865337 -3.248997 146.817871
17.954121 6.177601 133.911896
13.678730 3.167828 128.894440
9.569743 11.003369 131.463150
2.418072 9.100683 94.772041
16.961353 2.720819 130.411835
-8.730341 15.119014 142.682205
-20.096447 -3.043295 137.929672
-7.834030 11.586133 95.165627
-17.653757 -5.377205 144.088440
-11.284048 -2.948962 121.915634
-11.628006 -10.024890 94.267609
13.855736 -3.206905 111.254135
2.062848 -3.817303 146.932999
17.492594 7.616518 149.625519
-6.727553 10.243449 141.133438
7.689435 5.070735 114.793762
10.051775 -13.081880 112.311417
9.387057 11.263782 152.274979
-12.821144 6.756002 152.401535
-3.873281 -12.086150 106.799438
-9.540848 10.249805 152.553177
-17.266459 -3.290185 142.262222
-1.654151 12.264307 143.203247
-5.818983 -13.086267 136.744293
6.545103 -14.273896 116.146759
-8.992486 8.453921 156.445404
6.519203 -5.898533 141.357544
8.812140 13.208867 140.349365
-13.407107 -11.039565 140.245529
-10.054832 -2.744818 151.298843
12.416210 -7.392897 117.611153
5.704948 9.717880 103.542946
1.817375 -15.437958 96.009140
0.591846 -10.470450 141.653519
20.390406 -3.536750 89.872688
5.797108 -10.618317 124.576454
-12.368597 -1.517943 122.712517
14.163902 -6.883986 117.122620
-2.139635 -16.566505 102.677078
-11.659552 13.057286 146.806366
-13.963409 -4.512037 124.544502
-8.884506 7.614350 130.793396
13.701105 1.414988 131.788971
-12.107291 8.601569 148.812790
-6.141325 6.505369 153.598587
9.481155 -12.527536 103.916512
-14.137258 -13.054926 100.853424
25.116882 6.526875 140.451004
-18.487902 -3.449272 136.604538
-9.833046 9.448592 148.730789
14.250841 8.802424 128.628708
-11.287974 -11.475782 129.472275
-12.573395 -0.652582 114.825157
6.745789 -9.977088 116.820389
13.080727 -3.152532 145.218704
-4.008319 8.782995 126.515587
7.830507 6.604486 114.103882
1.452884 10.934123 132.096741
-5.938066 12.675528 148.009506
16.783129 2.404599 146.691833
-13.217997 6.296361 128.569855
22.211824 6.754660 138.785919
-12.755696 -5.297926 138.103302
4.543668 9.924702 107.493439
-11.565504 -5.819534 141.042465
4.160643 7.837848 118.905762
-4.387138 -15.972767 96.987801
1.451386 13.906314 137.450348
9.636850 -11.529314 130.715973
13.773296 -1.091321 111.372101
-4.484959 -12.099143 120.165863
-8.158531 3.325976 149.544373
-9.097762 4.064428 114.407585
-2.258729 -9.534086 137.593124
0.742256 11.381927 96.173904
1.131719 10.138882 102.911880
8.708103 -9.741224 132.947006
-10.680450 -9.353501 92.259178
6.526915 7.282635 111.654373
2.834563 -16.560356 107.034615
6.786075 3.454000 156.565262
-2.524992 -12.222502 104.870361
-12.934253 -7.080807 121.426628
-24.009300 0.646388 141.927856
9.456981 6.343663 152.044586
-16.732023 -4.064013 140.156509
16.626608 -1.523444 94.394524
-23.078314 0.262992 141.386002
16.558275 -1.022102 129.212921
-14.437199 -4.873016 107.167915
15.065665 -8.742867 97.112030
-10.142582 -8.353550 102.838509
-0.814452 13.598975 131.464874
8.349181 10.553509 135.284897
0.164248 10.607210 124.737045
20.848431 10.541301 141.406357
10.952531 9.737028 95.235405
-15.244929 -1.018985 132.254898
15.132135 -2.757303 125.257263
-13.101322 -14.939475 132.609100
14.519771 2.440430 150.011124
-2.421055 -12.596489 103.400452
16.146891 3.721453 92.663177
-14.188005 -8.281909 144.363281
-11.424006 5.453672 109.741592
0.495309 -14.014528 122.477219
8.942732 -0.829457 120.414551
8.404150 -9.569540 139.246048
-12.930526 -4.348607 97.015297
-4.875843 -9.825839 113.337685
-18.252958 -2.987646 92.979958
-16.392403 1.392657 133.892059
15.408181 -8.499769 97.737595
18.020464 -5.369645 97.862968
16.688747 0.250756 94.387871
3.218210 -7.793366 114.928520
3.171008 -7.001980 143.574203
-5.329055 -13.420121 110.576813
11.186700 6.909798 147.493301
-15.481260 -4.518032 126.583389
-11.870618 8.887186 155.242676
16.954268 3.665117 134.570251
0.099352 -10.789348 139.490555
24.569422 6.114558 135.239456
3.419040 -10.832921 116.552528
0.628581 -17.803129 93.063515
13.772580 -10.465216 112.411186
3.361400 12.708196 146.309067
15.924995 7.743776 147.956116
8.119348 -7.842828 144.116653
18.791136 -3.145902 140.373032
-5.304301 11.580704 93.077690
10.649999 7.370531 99.134659
-4.382012 8.874763 118.679832
-6.097794 13.034518 102.742607
-0.696219 7.726084 155.651337
1.782172 -15.837872 107.097610
10.523875 2.218167 151.696793
-3.852954 9.067032 159.633072
-12.878663 -1.728147 122.340569
4.282161 -2.520906 153.350372
13.860666 3.383739 150.834824
17.252056 -3.050960 103.098999
12.296542 -7.875776 119.609566
-8.365112 12.543011 146.846649
1.984140 -15.541383 137.762924
-5.791092 9.395276 106.516556
-5.811067 4.857489 114.747444
2.054116 4.021978 111.443810
6.832003 8.570044 99.783157
11.543787 7.077655 128.374847
18.323006 -7.522331 92.013100
-3.473533 -10.764503 110.225693
-9.787941 -12.168768 104.492699
9.101050 -9.298313 101.317253
8.121563 11.850218 142.844955
8.676104 -13.352241 93.686630
-15.890085 8.449664 138.646225
-15.732699 5.630698 132.926285
10.479824 -1.873418 151.519699
-10.448669 1.201984 118.805023
-16.177975 2.797302 96.862701
8.288754 3.975408 115.588440
-4.205515 6.129409 157.034302
16.059540 12.409218 146.746201
23.135820 7.495996 138.721756
6.927892 -8.168748 148.715347
-0.988698 -11.471680 114.566444
-5.636811 -4.831147 154.501617
19.371050 1.480308 145.731628
-0.630572 9.689444 124.339752
4.356886 -12.872252 115.280754
-8.067195 3.650496 156.542847
11.608788 1.643624 106.248817
-8.141379 -14.660228 93.738068
-5.914108 -13.004223 131.265198
-16.141090 3.883646 151.794510
7.442419 13.554603 136.514313
6.768704 -2.806457 143.689636
-8.929852 9.121883 133.528717
15.917564 8.349878 95.201180
8.341244 12.440168 152.026611
-7.426604 -13.895205 109.955841
-5.076486 0.801602 149.666809
4.978079 15.067274 138.956818
-8.401656 6.429198 105.723557
19.312855 0.549660 101.794540
-2.940656 -9.039675 124.753311
-6.431399 11.332990 141.640244
-15.765994 0.944188 135.586761
12.930011 -7.609895 131.897949
12.919373 10.591676 150.532944
8.604698 1.180338 148.772064
-9.706924 5.743337 108.278419
11.101904 7.561892 98.776566
-11.280993 0.893513 122.283829
7.591121 6.046562 121.151924
-3.252002 -13.704095 106.731796
-1.079217 7.548278 118.423286
2.244439 -18.849115 98.416382
19.616926 3.206953 93.739296
-16.798193 3.259599 131.775406
13.792593 1.576948 118.039040
13.638145 4.601541 106.505325
1.094026 -12.596423 105.680061
7.965306 9.423691 146.050720
14.839284 -10.172974 106.941147
9.879958 8.854362 103.522392
1.514976 -9.288671 95.367088
28.061298 2.997234 140.216141
-17.377205 -0.404008 143.740967
6.136037 -9.415332 139.447113
12.180196 6.236296 152.301422
7.796336 -14.575571 117.162964
-2.960574 7.502588 118.095627
-15.366358 -0.231149 123.088943
-15.857906 3.410467 152.957001
-14.481730 -2.260653 127.102783
-11.138287 12.678329 134.086304
-23.933517 5.487520 145.767868
-19.849558 4.924773 150.460251
-21.545555 8.772699 134.357346
-16.970659 -7.664438 98.282310
-7.883508 5.689582 154.736740
13.555748 7.516797 93.743301
10.758564 -9.854744 100.449844
-9.635169 8.770047 125.416199
16.501801 9.621203 134.497147
7.639345 -15.480723 107.359871
0.758273 -8.043550 141.069290
17.199286 -7.418004 133.988159
9.044097 -7.605134 115.349098
-6.844966 2.183339 155.538254
-21.847813 6.951163 136.518356
-12.625581 -3.705509 143.429245
9.113528 11.773337 95.642365
-17.810335 -1.850995 144.599854
12.473834 8.409232 99.286301
-6.060818 12.787685 140.614838
-9.952075 9.109521 149.831024
0.710677 14.369475 94.209808
16.282885 -7.010975 134.339661
17.197577 7.142440 95.593697
6.364645 13.503407 144.065247
-4.788192 13.554914 133.899902
14.128578 11.028005 149.340652
2.058676 9.759924 155.118042
-19.341127 7.093416 136.763489
-16.487574 4.710340 134.757629
-6.596970 12.811164 95.549255
15.875766 -9.074871 95.157814
16.686213 -4.369959 109.808998
17.354475 0.009594 143.361084
-12.354465 -11.166682 137.023773
9.404265 8.722244 119.524689
-12.461536 9.224435 134.431793
-12.099035 11.652488 143.255997
-3.565544 15.498858 146.124786
7.644016 14.236235 149.992355
-14.159832 2.120875 148.703766
-10.793063 -1.360508 109.421822
-9.733251 -14.023543 132.198013
5.705334 -9.757393 122.247414
23.895260 4.340143 143.327209
-1.701197 -9.113900 117.129753
10.383260 7.666109 130.021912
18.585896 3.263846 131.731903
1.590351 -13.718309 102.492737
-13.301165 10.939774 139.929779
20.862511 -6.988323 99.107300
12.261972 -16.333086 96.473663
-10.262350 1.472757 153.412842
-8.853389 -14.133963 128.664185
-11.918720 2.507005 130.514023
-6.879000 8.775670 100.025215
-16.171392 5.672526 137.125427
-1.399507 -18.353130 130.474655
-10.367944 9.323197 109.352798
0.695672 -14.422124 115.657677
5.462214 10.593408 108.603363
-10.649756 -10.302424 115.757965
-8.454275 -9.894587 142.126678
7.640925 -11.497711 138.069336
-12.260550 -12.976226 125.630180
17.105446 -9.751750 100.054863
16.341351 -4.196661 95.453896
11.643213 -7.099279 115.527290
-0.617760 -8.956727 144.389313
3.370207 7.783606 158.019180
-6.639101 5.904297 120.027512
-16.188736 1.103748 102.025597
-6.437171 -9.809658 141.782867
15.368993 -11.789132 100.311340
-16.345972 5.397396 149.443481
-4.847564 -11.843674 114.526848
7.689867 -12.201288 135.890228
-25.208042 4.357390 141.713074
7.992994 11.746653 147.284561
-3.665577 -5.405516 147.613785
-5.197227 -7.181148 142.737350
0.613361 -3.858931 144.587463
-10.911867 -10.739104 121.693810
-2.233000 5.363532 117.185143
-4.675695 9.488051 112.239815
-14.929087 -4.482363 135.212418
-9.341658 3.344961 113.474251
-6.964647 -14.222910 103.690338
1.663650 9.117483 159.188934
-8.592145 -4.934219 144.817642
-20.980732 5.150723 142.680023
-8.703884 -16.221199 100.146095
-5.049741 -19.066442 91.142738
-16.523119 7.673010 103.644325
-2.911652 5.835010 120.553207
-9.942769 3.219482 112.867966
-10.576323 -10.593646 94.693024
-5.983258 -11.506786 121.140862
12.697980 -8.345768 140.790131
-6.344183 -11.535335 113.909119
7.564078 1.218895 153.370651
5.981181 -16.990587 137.840408
-2.646044 8.025732 151.634735
10.512224 1.763927 118.016762
4.500154 -15.711680 121.716507
-19.782791 9.699364 138.022476
13.713635 6.689431 103.894920
14.648133 -3.027612 105.929390
-4.346134 -11.753044 131.202194
-5.229599 -14.706306 136.197754
18.328205 -1.532517 103.037842
-17.910542 -6.751600 135.158463
-18.049164 8.401787 145.003311
9.737077 10.509859 97.700180
13.293596 2.117056 152.819550
22.030487 12.732317 140.954391
-21.209564 -0.256622 136.828430
1.313161 12.473334 155.071564
10.866016 -2.483807 126.854324
-17.988510 6.065782 134.710388
-11.890226 3.247526 151.162140
-15.496906 -0.541503 106.847198
9.429655 -12.674334 117.127365
6.947615 -16.491470 132.434830
13.544136 -6.474348 93.535164
-13.361176 -0.399283 102.596649
-16.207548 5.464343 126.331810
15.464660 7.315249 132.651184
14.915339 9.676332 150.144333
-12.039354 13.775584 92.815651
8.719313 12.215153 139.504013
16.267744 1.315304 109.346252
17.087084 0.613545 104.765289
15.882688 0.029353 110.595375
-6.819843 12.653511 90.671623
-9.197983 -10.259058 132.042084
-8.669293 6.120941 155.795410
-5.839630 5.724149 154.966217
27.059595 -0.566569 136.946716
3.567401 -10.976065 131.084229
-19.193445 0.366785 133.254425
21.097227 0.857831 101.432251
14.874567 -15.947278 92.805016
6.250368 -9.346021 128.062866
8.068546 -11.319016 139.932907
7.305192 6.506805 154.165848
23.456173 6.825048 133.339432
-5.113147 -2.542343 151.986023
-18.389603 0.571907 89.815178
-10.613274 4.373253 101.620750
-20.609926 5.559598 146.750122
-5.421388 -1.886388 150.830887
-18.270000 9.622475 144.357651
8.118112 11.034980 149.422592
15.193761 2.954525 110.774017
-13.104775 10.209498 90.997353
17.582493 0.160622 107.269257
0.757476 8.806309 118.569817
-10.808979 -14.631124 100.325310
8.194821 -12.125873 96.603485
16.995132 9.929467 144.371902
4.104967 9.684627 158.066605
17.653477 0.580719 95.800301
13.765247 4.063673 127.917725
5.813972 12.877040 133.871048
-7.350151 11.732537 127.461411
-6.168550 -10.954620 121.864830
2.557137 -13.792273 132.638504
-3.664268 -13.963516 134.477066
9.080099 -11.440335 101.022530
-16.382183 -3.353975 143.731171
7.037035 -3.975929 147.951782
-11.350069 -14.090831 92.037521
8.795121 -18.941334 102.014595
12.504349 5.290205 109.263046
10.647538 -10.844139 111.233345
5.144286 15.798008 135.541901
4.238462 -10.347662 127.238029
-6.301022 -12.076982 111.788620
13.085996 9.784833 99.301949
-17.233597 7.570142 138.723145
-2.852103 9.554471 105.047302
-19.507536 0.124791 135.163681
4.172937 13.486499 95.621666
4.249365 9.911081 111.430290
-14.287902 -10.415411 133.588089
-6.797537 -10.984837 139.543686
-27.390089 7.576596 133.592407
-26.620096 9.230306 138.189651
-6.106418 6.054090 125.374382
16.484821 -7.529046 136.810989
-3.612482 10.505793 141.904968
-18.894581 7.760897 150.877670
-17.284470 2.173575 94.465050
-13.165751 -10.297573 135.275085
-1.231079 -10.486660 91.483162
8.499389 7.962856 120.168411
8.723094 12.868854 132.538696
-21.082619 -2.462489 137.668625
-15.630223 8.344566 93.221786
9.319749 -14.206781 96.314308
-16.102093 2.379297 106.910370
1.673274 -12.536487 118.956093
-14.537707 -11.986390 129.119247
1.110170 -14.484874 104.683548
1.630396 -13.682731 115.863464
5.022531 13.802422 145.416443
6.118830 -17.068563 87.756325
3.917511 -7.738648 147.718033
12.309048 -4.700355 121.706978
13.437518 8.037316 108.251595
-5.630337 13.042581 144.697067
-10.649212 0.577358 156.392532
0.392576 -12.787910 111.476288
-8.949361 -12.273088 92.264511
-11.195683 -1.202547 90.060257
-22.313835 5.444647 144.677856
-27.039824 3.142968 139.994736
9.119823 -11.393840 97.004272
-3.356943 -1.915683 151.330490
-7.615417 -10.803329 116.815163
2.400380 13.058648 95.060455
-15.422698 -5.064964 142.495438
-19.935431 9.906182 139.321930
1.297494 12.797272 96.258469
12.291512 -9.919051 102.814369
12.506186 -12.059509 97.162804
-10.918217 -1.236212 124.826805
-18.527143 0.803814 132.623596
-13.794566 2.753233 150.282669
0.215112 16.043783 95.076225
24.125174 6.225855 146.899750
-18.665606 -1.428482 133.479309
-19.949797 6.101553 89.565941
5.608230 -15.035536 107.518135
-7.532233 -17.048145 94.100845
0.021689 -11.468184 97.828636
17.249146 11.660581 143.905777
-0.664042 -13.483397 115.501350
-18.139393 -5.495801 136.486267
16.043741 3.013227 91.331589
-6.769829 3.394572 150.159103
-17.894203 6.348365 99.547920
-1.907506 9.904305 110.799614
4.651246 -10.228269 128.566544
-11.757279 6.051462 110.339790
-16.562620 -3.871889 130.691345
-0.763976 10.997164 143.240005
16.422369 -1.899019 144.039276
-9.242315 -12.137256 141.686630
-11.394949 -8.101281 118.475410
-5.368344 -13.691183 128.216843
9.696000 12.941196 141.058182
-12.378002 -5.694041 123.428810
-4.322115 -12.657836 133.916458
4.821024 -15.229380 108.245705
-12.760312 -5.675479 134.284897
0.180055 -13.338694 93.876076
5.523677 9.921871 105.719872
1.973318 -11.840312 130.590561
5.010695 0.133491 150.537491
11.064775 -9.868812 132.759201
-15.593960 5.759306 103.735229
5.986403 -13.086348 106.605423
-14.639863 -6.748358 123.093025
-16.963289 -7.221471 95.036957
12.214189 -10.263010 116.461426
11.230656 -8.592031 129.488312
-14.686914 -3.191411 142.281158
16.774548 -6.338714 93.037407
-4.091554 -14.307202 112.889725
-4.245166 14.266571 97.682121
24.554155 -1.408080 136.976746
-12.809683 -1.308352 144.975403
-16.806021 -2.040130 109.630569
2.874638 8.947866 113.350052
-5.375204 8.971951 103.601608
13.652025 3.976228 103.416008
3.654243 12.317277 128.968246
-3.178160 -18.066208 100.271515
17.569750 8.241341 149.871811
-11.840144 10.348307 103.368576
-7.802698 8.872311 122.395622
-2.211246 9.382960 128.284775
-13.655937 5.824230 105.757462
-8.377927 6.910435 113.854134
5.472525 -14.215157 119.105247
12.760042 12.731451 151.667587
27.374918 6.186860 140.270325
24.412985 4.780380 143.730682
-7.732995 -6.397757 144.033386
13.037284 -13.745427 103.188599
16.242882 -3.485131 133.440414
-7.275732 -9.150509 112.374718
-7.471208 -14.286222 104.945236
13.414537 0.683314 124.613892
12.082899 -10.589140 102.709587
9.405204 0.472572 151.464188
-2.626954 7.984840 114.949287
10.942697 -9.380455 123.136543
-9.222325 -8.814551 143.514053
13.596196 -6.803420 116.491241
-2.399404 15.919622 150.508469
-24.961224 6.148017 139.693619
-1.563749 -16.765009 112.370117
20.293737 3.353804 144.661255
3.301028 -15.165711 108.463669
12.727774 -11.478710 90.648666
-10.331503 -4.149355 142.186172
-1.210914 -14.686769 96.207169
-13.577313 7.477682 141.700500
18.483887 8.298525 137.476379
6.356174 -16.770391 103.949188
-13.679028 -7.287774 139.815979
11.597998 5.605756 152.301773
-9.198660 12.385782 102.311844
12.132478 13.143412 138.721481
11.948088 3.966814 106.384567
-8.811258 8.654741 89.498657
-4.471570 0.337841 155.197906
7.532089 -16.272429 101.601402
16.589121 9.214660 136.594818
-14.480707 0.999030 104.089981
-5.893192 8.940392 106.809105
-7.877932 13.414864 149.479431
14.738966 -5.987277 131.961929
-2.967975 -11.093765 119.879074
-10.083940 9.513885 150.895233
20.089077 -2.124809 142.229324
-19.752535 7.181471 145.417389
11.656562 -10.309484 133.810730
-14.045259 -0.175530 150.445297
14.423285 -1.145481 145.138977
-10.126594 4.769910 118.706963
-2.928980 -12.454843 119.157600
9.006436 7.799505 134.342392
-7.156481 -3.205494 148.062866
3.454950 2.071546 156.620941
10.770230 -8.835880 136.782486
5.625831 14.155541 91.799782
11.640297 -5.693494 127.128448
7.146493 13.260959 94.512299
3.290740 -11.210422 118.819672
15.206700 4.774687 135.600998
17.397154 -3.461998 93.173355
-14.352390 5.187620 106.899086
-13.025904 -10.690848 130.273911
-22.377226 10.353425 137.892242
6.951774 2.524894 156.984253
-11.105362 -7.616362 93.496132
-4.640891 -6.202018 140.519730
-17.389048 -0.266631 105.128548
-12.024683 -11.126223 94.384155
-12.955794 2.853176 120.081512
-10.557341 5.277528 126.262566
12.920295 -3.895690 117.931236
11.786129 -10.429785 91.278030
11.935298 10.911938 144.981079
1.270942 -13.638478 131.949127
-10.834774 12.695290 146.415756
-22.452888 0.405958 139.317429
9.050827 -8.907571 139.803970
-7.295332 -12.853903 139.370605
11.231757 -21.799656 89.418541
-18.123425 -5.523004 97.023232
-5.026130 6.414048 157.015549
-14.023977 -6.631395 129.155869
10.528035 2.929877 116.393440
-15.356769 -1.086090 111.407265
12.513338 -3.942251 124.293312
-10.189713 8.817889 132.765564
-7.627361 8.151863 155.323013
10.690945 -10.859191 134.221771
-17.561581 10.378763 147.081390
-26.790144 9.679884 132.185898
-13.002751 -6.352375 110.300110
-8.200535 -16.423645 116.740570
-12.648418 2.217666 110.674568
-12.559299 -8.516848 111.723244
13.539380 -10.133308 127.832825
-0.624714 12.897618 141.408615
8.319383 -8.178476 140.034637
-9.379240 -9.602523 139.833801
14.224445 2.799081 134.479630
-14.757127 5.229815 151.756088
-20.804516 8.723225 148.503281
11.359162 10.709640 148.215958
-12.489795 -2.178710 117.909897
-2.601589 -11.677068 133.618591
1.782578 6.042866 113.785782
9.926575 -14.511368 128.043915
18.164137 -7.992632 100.095055
4.389862 10.689833 99.091469
3.704386 10.553356 131.344742
-7.091898 -14.477534 106.310722
8.619485 12.372940 147.879639
4.467435 -1.468672 151.025757
7.448600 -12.814981 104.584366
-9.783115 -14.481256 94.291702
2.265129 11.948313 149.082489
-13.541428 0.431003 122.044090
-24.182154 0.953114 138.719147
-24.226437 5.668545 136.542221
-5.669333 9.572367 127.984779
-12.916361 0.520405 128.227066
12.090204 8.152743 96.209999
2.483067 12.631908 106.473671
3.810001 -10.190055 141.323654
-5.902966 10.932634 135.096008
-4.043583 0.013797 155.734619
1.575490 -13.206358 93.719986
8.681026 -4.505336 141.411011
24.300764 1.015411 140.939423
-13.956629 -10.107432 89.620026
5.982010 -15.460010 116.955612
14.562687 3.332484 96.613411
8.232731 -7.907752 138.351135
2.232738 6.115854 109.994278
-15.903654 -1.501613 131.013962
3.656043 -3.698942 145.317825
-6.140555 7.092114 154.911728
16.897621 4.091934 148.411957
-1.576801 -11.694385 139.125320
-2.922276 13.097747 128.716003
1.751832 -1.484948 -0.168837
-4.796341 -16.487953 104.368210
-17.411076 7.863530 95.706902
-19.789707 1.488787 135.773926
4.765253 -11.303811 115.199791
-12.292894 -7.431465 131.093002
-12.895065 9.104678 92.684669
12.364862 9.263092 136.174652
6.423527 -11.300968 129.147919
4.224652 6.221215 109.660942
-16.556271 7.712509 101.319908
-23.763594 -2.061194 137.814835
0.123173 12.118112 153.108536
9.588012 5.520276 109.211990
14.520000 0.308327 124.458969
13.662073 -8.678518 135.815002
-20.304054 11.542013 143.967957
-9.202286 14.638894 146.717377
5.834675 11.191477 128.859909
-4.620088 6.891107 153.316132
2.247671 12.863419 99.688705
6.478826 -13.784744 131.195511
-4.369836 15.483500 134.807907
2.838212 9.596278 115.128387
-12.518201 -5.962638 111.619400
-12.087639 10.970992 98.750977
-5.297599 7.631355 114.451912
7.863025 10.809213 89.115768
-14.380432 3.171772 91.980774
-7.484108 -0.622566 154.179199
25.736740 8.136160 137.278275
4.983078 -11.987029 123.909058
-4.983243 9.318774 131.582382
15.101954 -4.493082 131.696198
10.381423 -1.259757 115.280502
17.453094 4.326596 131.978806
-18.712143 10.673431 139.572021
18.825193 -1.572330 95.181602
0.425671 13.073386 144.702988
-2.772781 -6.212385 140.509888
5.750031 -10.224148 144.255051
-0.587904 7.027366 157.145020
4.628286 14.144492 93.722275
-5.924856 7.756422 115.835876
-18.732010 7.154401 150.637512
13.744531 6.880438 98.011459
-1.086321 -7.109190 138.593887
-15.971630 14.305179 141.413635
7.522085 -10.498124 137.859360
0.591777 6.191783 108.982498
15.690434 0.443696 95.655586
9.953100 -13.363096 90.368835
-13.250033 -10.469851 126.722511
-10.752165 -7.832082 113.196556
7.715866 12.558097 138.852280
-17.786505 2.264772 147.055786
9.367828 -8.097438 123.652893
2.582150 -8.854851 145.616608
-15.128347 -4.384883 108.925018
2.106739 -6.154187 136.789902
-9.889329 2.155180 155.535431
9.031615 9.497985 106.338844
-1.196459 -10.709847 110.244110
0.192872 12.452712 146.476974
-5.490278 -7.068148 140.920578
24.386343 1.170525 138.633987
14.944316 -3.168280 132.642044
21.548615 -4.820606 136.972610
1.244707 -13.587897 121.995537
11.342113 10.532140 91.050552
-17.063383 9.087025 147.080872
-5.330748 1.858772 158.089050
-6.834034 11.239786 105.647804
6.340117 8.564365 114.143517
2.053977 4.309460 114.770248
-2.811674 12.457118 139.351151
-14.246516 8.744122 99.873138
-21.999620 8.134035 147.815613
-9.405844 0.923176 125.045532
15.796011 7.478351 135.207443
6.821168 -11.176066 117.250626
-18.018240 10.073158 139.012146
4.612779 10.275107 155.738098
-19.257977 7.488045 137.848465
-21.543221 4.144553 142.788834
-18.922358 6.520635 93.356392
11.289576 -6.971500 84.944038
-21.255663 -0.427300 93.481903
23.280914 -0.870041 146.331757
10.285457 2.527097 157.105438
8.326685 11.544295 131.948257
11.190290 10.756851 141.423492
9.286042 -13.351315 127.986214
-5.487926 -11.269011 130.570724
10.990664 -6.132493 141.218201
-4.006858 -12.006631 107.517365
9.623446 -10.422146 89.356575
5.948310 8.516413 123.629890
-8.706053 9.183914 101.317886
-5.888999 -1.685656 156.122711
-11.458315 8.836212 123.087402
14.057030 -2.061880 133.932755
-15.010960 -11.591191 133.447540
10.593879 -4.581263 143.187744
-12.155207 3.585313 125.575317
-5.103565 8.971764 156.664261
19.870459 -1.536321 145.974960
-22.622757 10.093222 145.639404
15.773404 -8.380989 104.298317
17.255518 -2.416902 107.612282
16.079517 9.960855 142.861084
6.029073 -13.745239 96.367691
-19.538433 2.163038 150.230164
-10.300458 -11.404883 124.195129
-4.738336 11.885503 100.614037
13.066563 -0.636398 115.724419
0.573842 12.019403 131.107666
8.215080 10.839179 151.945572
0.088009 -11.710793 124.434593
-12.832189 8.292665 97.637314
0.566536 -13.408705 114.347443
-2.662365 -13.662214 100.401779
10.760579 -7.815888 122.925072
5.796635 0.534839 152.382935
6.723450 10.075152 108.408073
15.909229 -9.033101 128.905624
-20.868900 -0.012167 145.488937
4.559752 -7.086978 149.031403
6.568753 -4.987418 143.658707
-9.691782 -2.308407 114.980522
-8.070267 -8.829742 136.988785
10.414204 -9.791245 110.192482
-23.544006 4.819312 145.098389
-13.845812 0.840621 113.721138
4.274185 -11.326683 120.294762
-0.861254 -14.568463 109.643608
-15.593849 -2.372606 111.520576
-3.086910 -0.636717 149.417313
-4.360805 -13.126097 128.449982
-6.862663 8.893565 90.166298
-5.281285 -9.581599 118.475975
14.487091 -7.680838 100.982941
9.046787 3.304382 116.986923
6.263774 12.540423 102.319237
11.372009 -1.494645 115.990173
-4.296063 7.544071 153.816284
-6.462049 0.827419 154.863205
0.226847 -11.363433 120.082237
-19.705608 1.390759 148.898819
2.792234 -15.469271 98.997604
-10.214712 -0.015514 146.963211
-15.688562 6.808922 151.705032
18.088497 -3.403385 137.551407
26.007872 10.194633 132.245224
-3.507282 -10.811922 138.015594
7.844899 8.663155 146.811844
-0.750568 11.385717 150.780991
-14.293858 -5.329935 142.392548
9.649508 12.068829 144.412613
-15.192670 2.629721 104.873558
12.304358 -8.239312 135.165314
-7.106872 -8.216347 115.947815
-11.146185 -12.118362 128.346680
5.641888 10.630781 159.866516
15.399577 -5.960604 144.340195
1.733493 6.319841 104.317307
13.088959 -3.369350 113.543533
-13.166809 10.266428 146.384674
-2.592795 11.431014 133.606857
9.483309 -12.906672 94.946213
0.418133 -14.438538 94.755341
9.207440 -3.569979 122.870865
-6.200146 6.525880 120.491692
11.342489 12.512429 93.542648
21.631832 3.667136 132.375137
-7.627891 1.435008 152.700378
-1.528839 9.841626 132.823364
-21.564869 10.369747 135.417694
0.321125 -14.010682 112.595795
6.443460 0.061764 156.452225
-17.791624 10.980973 146.153320
18.043818 0.637204 145.403717
-15.780190 -3.240790 88.907814
6.400164 4.275357 111.341644
-1.937735 -4.514914 149.719910
13.213383 13.119994 139.454910
-12.545217 -6.792543 117.505028
-3.363482 9.863415 113.691704
-14.670307 2.253283 98.734901
16.154619 1.465529 92.258263
-15.342526 1.174008 151.157120
-5.027177 -1.450663 156.605988
-12.826609 3.883362 110.468124
3.768531 8.186135 107.383415
2.911316 9.170052 130.981750
-8.936786 -13.285029 130.912567
15.217665 7.823197 149.804123
-5.598693 8.512030 156.922211
-1.528742 -8.326818 138.462143
18.074047 -8.840289 111.892685
-3.196803 -14.526113 120.216553
-18.729971 6.374298 99.406143
-16.459860 -1.573819 135.260651
-9.667523 -13.484738 130.927216
-10.215242 -13.835287 108.796600
1.855100 11.616774 104.138451
0.572160 7.901279 150.329544
-2.420088 -15.092558 110.192406
7.871252 -13.238772 134.765076
-22.929705 1.530610 143.467102
8.916349 9.069520 154.166824
-4.509995 11.121780 127.746986
-17.894049 5.356369 90.122459
-8.939620 9.854460 102.467308
-16.227055 -6.585030 98.345123
12.300693 9.731560 145.866028
17.400209 -4.526288 141.557632
0.529029 13.128877 137.138687
4.026999 -15.482797 104.546089
-14.169697 10.554738 147.670670
-24.494236 9.310118 140.170319
7.347143 -9.721907 124.355331
-12.242114 -7.903773 96.505890
-17.371048 -6.501693 97.313881
-0.090895 7.601523 108.486259
4.970322 10.045297 105.664948
-10.555490 14.702909 143.236877
-21.546162 9.725233 139.221909
1.849484 14.092947 92.646141
-10.238993 8.208122 105.000885
9.580775 -11.535971 98.930794
12.136221 -2.236078 121.818802
-9.592603 2.458793 119.636528
4.168149 9.219930 89.706734
13.145609 -1.282054 126.850899
-7.647111 -13.488997 94.896927
15.390553 8.843749 151.013947
-11.860476 -7.980812 112.196617
12.227616 9.900743 141.773224
18.682816 -5.765730 103.472252
2.638593 8.089973 110.097412
3.137198 10.242751 128.527069
-7.935353 -8.225107 109.085663
13.024413 -7.586889 122.322716
-0.954387 12.421742 144.380234
-12.320795 2.630646 147.266953
-15.159182 1.680646 145.646469
16.822966 0.155753 144.762344
3.100405 -13.539048 95.729034
-7.806041 12.910913 141.221161
3.265774 10.508193 98.674393
1.024477 10.141014 123.343231
-4.211933 -1.809610 150.899506
13.871205 7.563154 148.015533
8.931469 3.102839 146.972473
6.625934 10.146285 109.038239
11.119781 -13.560086 131.315140
-2.412631 -11.850125 97.112854
5.450206 12.450267 131.598328
20.449266 4.643198 131.855118
-10.687338 -10.017001 128.861618
-7.579511 13.218055 102.124229
-26.173067 4.960099 145.670044
-12.683242 -10.800621 98.126518
13.706451 -11.177429 114.043938
4.790021 14.065649 147.062973
12.043005 -1.998967 123.157028
-7.831528 -12.793451 101.471092
4.464360 -3.709798 109.830772
6.277101 -3.819551 146.011566
-11.692253 -11.102383 98.774155
-14.179858 0.662031 112.760384
10.505723 9.151401 97.419006
6.051343 -16.178425 100.137337
-8.370522 -1.175081 149.650635
-9.748519 -14.700929 97.917801
12.733681 3.367096 105.751419
-4.236222 13.907324 139.817337
7.661285 -10.360332 121.973312
-8.968264 8.761088 132.799606
10.626566 0.219014 121.226631
13.729866 -11.771050 96.278839
-13.212713 10.283221 95.311249
-2.038458 -12.264023 139.621567
17.919712 5.922396 96.064262
-18.725430 -1.167191 140.602844
-13.194138 -9.789659 139.838684
-1.123731 -13.556654 105.843643
-15.228014 -4.921045 129.862747
18.836245 -7.232169 94.180450
-11.313807 4.594721 122.822289
-13.500088 -10.434236 113.836586
5.692680 -9.255876 117.368996
13.858693 0.736598 129.821045
23.411409 -4.586254 138.035660
-5.761652 -1.195009 139.313049
-14.304610 0.454710 147.522095
21.307335 5.913183 140.356750
6.906484 -15.489193 96.278519
-7.182739 2.641627 149.384354
2.539846 8.753797 112.636040
-15.589363 -2.393700 123.616371
-11.459462 7.207695 110.234749
-8.238724 9.112601 99.207771
-0.040222 -11.430245 140.204376
-7.998099 -9.847301 92.538208
-13.903436 -10.300980 97.038368
-0.942663 -14.629112 126.208527
19.390343 -8.035128 88.166252
-16.047178 1.179534 130.182709
-10.008313 -10.621017 124.979881
-11.724193 -3.249654 116.676163
-18.336967 -6.661034 95.299744
15.359737 -0.647440 126.234161
6.115562 -13.424059 126.381027
7.539762 12.159032 93.155548
13.323032 13.281782 144.340668
-15.808712 4.325802 151.644043
12.258141 -10.070839 101.459297
-10.886989 -9.624431 103.374496
25.340284 2.339086 142.311417
-2.447834 10.653535 129.066299
5.389694 1.778172 155.563812
12.166427 0.774942 150.206284
-10.757151 7.290111 118.575462
10.285952 4.369337 109.355537
-4.364218 10.488898 151.941040
-17.249624 10.628673 138.411972
-17.434143 -4.197965 93.850792
2.837970 -14.491728 109.064064
-0.016293 -14.208014 99.698433
-12.251581 6.489936 154.206009
12.552713 -9.286975 89.831779
4.079409 -17.719669 91.793335
12.770308 13.263973 149.890839
7.519212 0.101617 147.193634
9.587710 12.708398 143.057877
8.065571 8.679149 121.068886
-16.227468 1.498824 94.747757
10.860564 0.666745 147.222519
-8.141802 10.868896 132.952118
-18.872168 10.880748 141.149246
-8.090887 -0.813101 145.593170
-26.446348 7.407619 137.582062
9.772656 8.774292 135.002258
-8.976212 -10.593090 130.119461
-10.293974 3.579820 155.996170
9.720469 -12.793181 130.277802
-5.774990 15.355279 144.184586
5.135065 -7.324302 141.529922
-9.261229 2.788517 151.418167
8.307960 7.941493 111.224731
6.528118 -15.998116 100.447762
-2.239672 12.779615 103.993820
-6.580932 -5.972785 154.034195
-6.896354 0.699311 156.376175
-11.658105 0.392301 119.265816
-23.648851 4.410885 141.725403
8.583369 -10.483588 95.191345
14.363346 -8.296041 119.316223
10.333280 9.600844 150.898712
-11.553864 2.270106 118.983437
-11.391828 -8.583867 90.866875
13.455024 10.359214 97.144302
-7.480833 -12.057642 105.056137
4.396546 11.703328 151.584030
-8.807554 10.735613 151.442871
-3.529410 5.205298 113.987862
-13.250976 -6.951311 111.721527
17.490768 -1.974527 143.989258
-1.836547 -13.717997 104.364388
8.930756 -6.882936 139.889771
-9.901131 8.391058 106.957855
19.324814 -0.606000 139.749023
-4.575279 10.973946 138.626633
6.403055 12.426577 99.544090
-14.346467 4.200284 136.246017
6.701579 -9.819032 119.159683
-2.594093 -11.037371 97.873871
12.235825 8.362617 102.742851
-14.279305 -13.992558 98.833282
1.074240 13.768970 138.183624
-4.755668 -11.743854 115.440002
18.687983 11.638931 134.749344
-6.268452 10.720491 153.023575
-12.478274 -4.781273 127.289291
-2.763218 -15.137298 105.180603
19.044485 1.515462 150.842087
5.453438 -13.416598 112.338257
-6.008072 10.373197 150.983307
19.137018 3.794410 134.323792
-9.266978 4.591771 154.141373
11.198247 4.882806 113.809586
-9.328528 -3.795254 142.975845
-13.191639 7.485190 94.540977
7.234210 -12.609440 132.465057
8.468527 11.225188 141.187363
26.123911 -0.705079 140.554520
18.268383 3.473879 148.554077
-17.529053 0.304171 148.647369
-16.269875 10.786678 150.586929
3.869789 -1.777006 153.361542
-11.520945 11.346857 104.892059
6.671677 15.035999 98.008446
23.860216 0.553808 138.066605
13.044368 -8.074916 107.933228
9.837807 -13.278841 93.392540
-15.056000 6.597888 150.382309
-8.001564 12.770299 103.042892
-12.539927 3.194384 110.491623
11.136488 -6.653215 121.775650
5.636392 -10.781882 138.329666
11.357518 -12.995088 119.582565
-10.668587 11.957469 96.539001
1.636186 -15.549488 99.156731
9.152177 -12.906636 120.863007
17.226690 7.261924 95.290649
-3.395769 9.313767 97.189468
-14.640425 -0.579575 87.607361
17.633881 5.043900 136.985641
16.334064 8.350212 93.375374
-17.797176 -2.981756 138.673477
-6.146021 4.185835 155.337296
-8.498744 -9.784575 142.162262
-1.289881 9.374835 118.306450
-10.002103 3.096943 152.577026
22.086615 11.643481 136.660095
11.750589 -1.631655 149.037064
1.770756 -16.422268 115.649818
15.945498 5.406974 133.729736
16.945255 -0.383331 100.645187
-10.379365 -8.839209 116.761261
-15.315580 -4.918502 131.740540
7.912142 -12.793015 116.992531
-0.838058 11.836452 151.170517
-5.380223 -7.119889 137.454300
14.548570 -1.697021 140.949692
-8.256858 9.911860 146.484619
4.663417 -20.318419 102.315407
6.306396 12.274354 98.829269
-7.957742 -12.044114 97.274239
5.065511 4.638583 157.758194
-11.484721 5.541710 105.605202
-6.761511 -9.196154 119.533768
2.223375 4.370770 119.167343
-6.735781 -13.362325 110.162674
-8.828773 2.492563 151.007599
0.827980 -13.261497 113.663979
21.154819 8.721745 141.736740
-2.349941 -13.933819 107.525734
11.010966 0.418294 117.568825
-19.027843 4.623630 90.563171
-1.155416 -9.641776 141.103851
4.145816 6.496054 158.321304
12.669381 -7.342889 131.787186
-4.122793 4.812023 119.612740
6.433527 12.078103 104.749512
1.092103 -15.494025 94.059151
-12.248743 2.419404 156.851212
-1.602036 11.183907 144.685120
-0.721619 -11.766952 118.889091
15.132629 -11.197324 126.649681
12.918989 7.898453 93.281326
9.556975 13.007758 93.271805
21.838161 10.759377 136.084625
-13.573349 10.133097 139.510315
-20.575821 10.769107 137.299561
-8.278606 -8.721262 150.410538
2.731217 -21.059162 92.736382
-6.815907 9.863917 120.050301
-15.637272 -5.199272 96.336578
10.719577 12.740033 139.028992
-0.566721 11.047125 104.050583
12.140308 -5.410743 116.438210
20.613527 9.206267 131.038376
-3.201718 -12.075734 139.639481
-6.706510 7.440053 122.078651
8.816080 8.049799 103.779343
-9.470624 2.926909 153.008606
-12.954686 5.319629 126.298157
11.285831 6.388333 105.970528
13.709568 1.073647 111.714645
-12.747676 4.793561 103.715523
-16.657705 5.420761 137.905472
7.964369 9.234247 97.537300
-8.024113 11.426665 137.869537
4.841073 12.825893 102.050262
12.082392 -7.025800 123.734383
4.688287 -14.911622 94.475746
-16.352886 2.980070 94.628365
14.681259 -5.355511 102.283798
0.835643 14.683348 95.941185
19.533569 -0.516678 103.709099
13.929536 -4.192097 108.742706
-19.362982 6.350962 136.491104
11.840602 13.260334 147.494598
-7.440164 8.511061 131.465195
14.958937 -0.904076 100.931740
-5.715470 10.377711 126.070465
-16.307621 -5.885705 136.985397
9.270422 -12.965340 134.831772
11.742917 -3.263777 105.311462
-4.147375 9.076829 153.716354
-14.296942 -0.248271 109.754509
13.802574 8.598275 136.272141
13.019671 6.433403 123.328789
-0.961430 10.372066 128.277954
1.361175 -16.715967 111.230667
13.474689 7.404390 96.224487
10.657059 -0.822150 150.359375
13.775208 0.125754 121.421585
-14.337345 9.050553 147.739059
9.586495 -12.837438 110.604759
6.217772 -10.507309 140.197235
-16.061350 -4.960911 97.062325
1.975423 15.122743 142.623215
7.131622 -12.827524 110.560341
3.383711 10.612841 106.795326
16.781137 -3.264356 132.284119
12.108754 8.456150 105.865196
-15.246977 -7.469271 130.981979
-8.733587 10.338407 130.934631
-10.196817 -17.273939 98.512085
-4.779426 3.571606 151.635651
-11.055456 0.717980 119.010246
-13.359222 3.037963 102.935280
13.205029 0.960495 132.556030
12.354814 6.021420 149.480957
-16.621130 0.061314 134.749695
-0.943492 12.055724 91.684883
-14.580399 -8.143414 135.560196
-3.274365 10.034078 134.740448
-11.149236 14.726071 136.077133
-17.756308 2.998081 91.272270
-15.242665 -0.171588 132.677032
17.159346 -1.596859 133.769180
-8.368842 1.615262 153.108368
-6.693618 -14.023882 105.411263
-14.998440 8.615157 103.065964
-16.972952 -2.524873 107.895889
13.420043 4.453457 127.471428
2.190288 7.641910 156.752487
13.506756 -4.981335 136.931747
18.077085 -12.590573 99.120804
-10.857621 7.631644 146.970947
-8.467062 -6.571027 143.642792
-5.130002 13.033319 93.329109
11.183689 -6.807000 116.621613
8.202046 -15.121672 135.133820
13.209727 8.768862 143.297958
-14.318371 -0.286666 114.963669
8.148519 4.528348 154.689407
-14.491236 -8.177215 143.547470
9.965268 -10.222881 130.961090
1.376015 -14.819291 129.364838
11.241291 4.276587 111.326668
8.602746 -15.237367 106.694023
-2.277488 -21.650864 92.115120
-14.100683 10.392893 149.284988
-10.836374 2.099344 150.339981
21.593067 9.682052 137.302811
-5.232326 3.684501 155.656891
12.615906 8.249334 131.753693
-18.373959 -6.107479 133.924942
21.091734 10.533345 136.569946
9.078928 10.086955 114.977112
-0.630728 -15.089807 123.946037
6.593801 8.269156 127.345093
6.122725 5.472844 112.346352
8.539852 9.020680 137.033798
-16.068228 -6.730042 138.948029
17.258268 -7.355385 103.913506
2.139847 -10.962422 91.279663
17.959602 2.247346 137.301163
3.896808 8.759955 108.778160
-10.572827 -1.605821 114.567673
-19.168503 9.600582 134.209381
10.834098 9.041616 89.547867
-3.456203 -15.846873 94.743767
9.864054 0.217757 154.041809
15.868903 6.913797 103.642601
9.693488 -11.254962 140.316437
-13.413040 3.821941 128.936127
-5.612702 -12.763813 100.004990
-22.414124 11.424819 138.387863
22.311287 4.974679 147.530380
4.867455 -8.611995 122.955307
18.309519 5.555346 136.294830
-6.457305 3.522976 159.117233
-9.015627 9.086761 147.184433
-12.639030 12.153991 146.348297
25.193419 3.252699 139.339722
-13.480003 -4.929095 144.803772
12.009584 7.468496 95.966293
1.128871 -8.327381 139.596344
-14.839048 7.605630 109.213280
10.706107 -11.005716 119.096329
-6.045087 -4.786307 146.272034
10.223291 -16.699530 109.434288
-10.375367 5.020561 153.559082
3.478491 -16.574192 96.593941
12.138838 3.307977 126.794235
-3.317426 11.050727 130.311783
-11.820373 -8.978800 118.416206
-20.382751 1.596468 136.683548
-7.747410 12.317336 97.551872
-11.600983 5.955949 150.014328
-14.797196 -5.975643 125.428680
22.253448 0.167050 137.409470
6.366428 -12.798481 107.398354
-16.383240 -4.192425 139.559830
18.268517 -0.114364 141.916656
-0.913531 -15.079606 102.215981
-7.183458 15.742551 135.175690
-16.202873 5.005603 133.874054
17.418364 -3.945649 138.095261
-10.365318 -15.879308 128.681763
-8.729507 -3.334976 128.686066
12.761678 -11.749059 100.985680
14.366814 8.597522 100.191704
-1.195611 5.060632 114.737831
-14.110882 13.832403 142.398911
8.611892 -12.297439 93.756775
10.849107 -8.799222 114.013878
-4.658823 7.761814 123.907051
-16.732935 -2.440915 143.737564
11.660823 -11.439044 121.854080
-9.884026 11.331557 141.003082
-11.115520 1.899466 151.587036
-13.407986 4.734123 105.977394
-15.627006 6.224739 137.895340
-7.631777 8.262864 159.122650
4.699119 11.788407 94.928467
-17.798422 -3.347571 96.305206
2.137958 8.871084 153.658859
10.846819 -15.918547 111.985870
-2.227686 9.580032 154.677017
23.914827 9.683927 136.744583
3.439011 -8.387401 143.052399
-6.896166 12.850502 135.921112
-19.408566 -0.086431 94.984016
-6.516998 9.259911 152.310181
13.643158 -0.277661 119.241066
-8.010769 9.226550 120.960205
-6.979208 10.167446 130.361862
-18.094065 -0.011964 99.860413
7.154068 6.837820 123.945732
-13.672297 1.509400 123.422745
1.688355 -14.643131 93.783882
-8.634249 10.281929 132.218597
1.680691 -14.069535 95.007881
-2.643360 6.984996 109.562164
5.929586 15.387810 96.041290
20.014872 1.749043 150.968674
-19.943325 10.040372 133.870331
12.979897 -1.206586 107.117966
4.894767 -15.339462 101.767281
-11.144009 -13.710241 137.171890
8.976356 12.516729 140.146179
25.500771 8.819035 144.942627
-4.313355 9.153399 104.202782
11.657271 -8.454795 136.128922
24.159710 3.786758 139.636597
1.964466 14.115054 144.297867
6.077171 8.589826 151.978333
-12.116326 0.070957 119.921730
12.881021 2.714365 102.749245
4.217259 -10.771489 108.755386
-8.411491 7.947951 151.221771
3.875268 9.655041 126.191216
-14.543159 -2.235204 100.362404
14.703703 -9.938814 129.304016
9.428837 -13.495720 94.427170
-5.792975 -3.320649 147.397751
-12.570544 -8.887030 122.621330
8.908478 -11.904566 139.879227
3.565371 9.550829 129.047455
-18.212984 -4.434111 96.482475
-9.592697 8.022587 105.402733
-12.243440 1.934157 115.511230
16.647352 -2.958861 110.246315
-10.408453 9.450889 100.337395
2.262009 7.815183 112.075302
-0.881948 10.553453 129.985474
13.725272 -1.737092 111.453773
4.624837 8.355534 132.232315
-13.635037 -9.536180 96.418465
17.852945 -4.573608 96.358078
-6.701396 -19.446726 96.911407
-1.967125 -5.338219 142.154785
8.141423 -7.161287 146.028519
-7.070605 7.998384 152.533005
3.091385 -12.624579 131.281158
-4.221581 10.048251 149.781982
-3.861018 -13.876430 136.294983
0.245268 -0.911444 147.990067
11.522890 12.926505 85.115074
2.011639 -10.461467 108.446487
17.828426 3.812911 103.170692
-11.520786 -10.936615 102.883240
-11.322819 8.188931 153.948395
-11.565274 3.755300 127.751625
7.085689 4.141920 157.684937
-13.307382 0.938180 149.743164
-7.555676 1.169345 151.401642
7.798619 14.416897 97.558525
13.658143 -10.154160 140.429230
17.372021 -8.230605 101.868652
19.508789 -1.021331 138.537369
16.197477 5.895264 129.966629
11.586751 -14.360892 94.475998
-11.157989 -4.836123 112.140099
17.892208 0.693103 100.138733
-7.166313 7.967182 154.946625
-0.180997 5.337255 119.429901
-11.250113 -14.744297 108.348114
1.750359 9.590309 122.134247
12.728779 5.497180 155.907211
13.232266 -6.905746 129.905151
