ply
format ascii 1.0
element vertex 2048
property float x
property float y
property float z
end_header
0.816719 11.278324 127.829727
10.972638 7.505525 143.401154
25.447878 -0.655500 134.610550
-12.365340 -6.592698 141.513153
-2.036556 -12.284645 111.827026
-4.933994 2.548950 149.436356
8.714214 -10.518838 126.844803
4.392871 1.219326 147.635986
1.812050 -11.957879 108.128418
5.855777 8.743487 131.252960
17.647766 5.620498 144.274078
14.776421 -5.320546 139.696594
15.669160 -5.077925 135.570709
6.849874 -2.398126 146.856018
21.442064 2.383872 145.263947
-6.266824 4.216519 116.573463
18.713696 7.663146 135.741852
2.338803 -11.713838 137.096512
-8.003175 1.826230 113.121422
14.775043 -1.204330 133.500214
7.206257 -12.363322 121.192451
-12.148885 -7.252574 108.090431
-7.251608 -10.488052 130.114365
17.798443 4.692564 145.038513
-1.900347 -12.888174 122.696068
-5.092886 -12.737782 138.045624
-3.285336 -13.578439 111.810265
-0.352666 9.311891 143.383896
0.194079 -11.696087 137.183319
8.122770 9.580672 142.454544
0.198191 7.768814 140.366028
0.336323 -5.728414 149.933670
-29.596596 -2.342494 137.506058
-20.598463 3.053006 144.310974
15.991075 -1.750163 133.427765
-16.384861 5.247022 134.821762
0.032714 11.896021 129.136063
-0.762760 -12.347477 132.957504
-6.054764 -12.099356 110.602051
22.049215 -0.320877 144.204041
-7.651815 -11.491679 107.582359
-12.834885 9.487118 138.919418
9.470386 2.881265 147.098755
10.905980 -7.493296 126.488739
-6.781456 -10.387904 112.706383
13.589184 -4.128262 128.501846
-14.117650 -7.009354 129.725601
14.951268 2.568327 131.310516
-16.451561 6.338013 143.645981
4.414440 9.016187 140.684372
5.822820 5.020780 112.372635
1.439078 -14.068682 130.002365
-8.089396 5.708464 110.473465
-29.450068 6.620904 138.684814
-9.964586 5.697979 126.882133
-7.823999 -11.861223 112.662819
-10.704650 5.054434 123.935829
10.236074 -0.698449 125.215363
4.224091 -10.849806 138.655899
13.459025 -0.969360 121.772766
-4.749955 4.958747 104.757004
6.454747 3.384832 147.002243
19.331585 -2.155013 144.621948
-0.599998 -14.405404 120.223610
5.138060 9.714570 128.381317
-1.104423 12.191451 145.675125
5.213910 9.690430 126.370071
13.446272 1.542172 134.017395
-4.456603 -8.882071 139.306335
14.936203 4.714635 135.065887
-5.069829 -11.779083 115.173470
18.431656 5.980555 145.069122
3.790427 -12.400617 133.147705
4.954400 -3.888022 149.171692
5.283970 5.980735 117.178116
-2.615066 9.932721 144.023117
-4.535983 12.567213 127.272888
-4.866849 -12.357173 126.463745
0.363389 -13.169112 122.420494
-2.245872 8.867582 148.349884
14.417265 -1.471797 130.406296
3.012012 -9.957199 135.975647
10.064846 -2.701860 114.865982
-29.781624 5.583806 144.237396
7.334354 3.338201 112.717812
-8.369601 10.279533 128.301926
17.839720 0.982837 133.722183
-4.767259 -1.342368 149.486526
11.989811 -6.740584 139.057144
-13.737503 7.675906 138.526978
-3.247333 -7.435549 147.749512
-13.927600 5.035826 144.566956
-16.698219 2.030114 146.332535
-2.658449 5.583649 119.323555
30.334278 0.200038 144.053757
13.232534 0.441464 146.485947
-9.616946 -5.162971 145.056976
-26.029310 7.335499 143.068970
-0.284963 9.460129 142.749924
9.416105 8.546566 144.848068
-29.608881 -3.423609 135.405777
-0.729417 5.837544 117.482742
-5.109775 0.421448 150.944504
-11.509104 -7.378451 135.217331
0.180398 4.735797 114.234039
18.747681 -2.393593 138.023438
12.355358 10.115388 139.741760
-16.077427 -1.749218 146.134720
8.959705 9.809593 137.657318
11.111296 -9.867112 132.434814
-22.560894 4.404525 137.496735
9.511244 5.314861 106.923752
17.468510 -1.250830 145.413116
-7.994181 6.382247 126.876854
17.128857 -7.489079 139.874908
-0.348716 11.714177 127.060905
-8.383626 -11.649658 134.020798
10.054320 -9.666022 108.903755
16.218672 7.656951 136.855804
13.503307 -4.373880 129.096710
-12.776331 -2.756237 120.413689
-9.178136 9.519716 142.023956
1.117715 9.803473 146.825058
16.090406 1.590094 133.530273
-14.953880 8.891568 137.084946
-14.199632 -2.991048 144.547241
11.954539 0.828246 123.509232
5.082369 -13.491085 111.003235
7.339390 10.146122 130.360428
-1.389027 3.648776 119.681633
8.336338 7.903917 126.321190
-12.646179 -5.421006 120.678505
10.106686 9.680419 140.660675
6.794554 -10.651809 118.766571
15.190573 2.173136 129.260513
11.173414 8.338399 140.088409
-16.937551 -3.992758 137.502487
-5.975005 6.212585 146.405045
0.497597 10.522362 146.760757
-3.882647 5.234402 149.823502
3.707589 4.430263 118.859352
-7.414246 -10.225307 120.386925
-14.119494 -0.801080 126.101967
31.002966 1.439282 144.689560
-15.215949 -3.631833 135.119064
14.699069 -7.540433 111.384377
-10.990782 -8.199906 111.702156
-11.191146 1.785612 124.139557
17.034702 -1.416222 133.569412
-4.145725 -3.261354 149.966049
14.006454 -1.642448 129.295364
11.351154 -8.288630 110.060707
10.749977 -0.169013 120.294319
-15.589974 2.590846 146.130844
15.047789 -3.314787 123.110191
-7.606856 7.351580 126.354263
20.536177 6.871473 144.847855
-5.376912 3.963193 112.687027
-5.848447 -13.201271 124.222046
-22.936769 6.846472 137.025848
-12.040956 2.221255 129.799149
-7.145145 -10.909464 133.490601
-15.506823 -4.279302 133.838898
-5.317072 -10.323556 138.825943
30.214802 -2.720369 139.156952
8.768879 -2.329753 146.045166
-11.976025 -6.422432 107.148201
-5.357008 10.052123 141.544601
-0.562650 11.240688 140.146164
-10.982361 0.907386 147.476685
24.656441 3.445418 143.792633
10.310398 3.119050 121.928200
12.908936 -0.707461 121.313736
14.910748 0.804641 127.880219
19.513554 -2.102344 135.714310
10.725745 -0.131166 114.967468
17.642033 0.156088 132.514160
-9.306963 3.890624 126.865227
8.150872 -9.010868 118.873291
-9.681888 -10.871545 133.773407
7.530615 -10.749454 109.140701
0.848413 -11.197484 136.299545
-6.290739 4.919920 118.004181
-12.647078 -7.868692 136.724670
-8.807071 2.127715 113.872749
4.567923 -10.693372 131.041077
31.036180 1.522193 144.682846
5.556275 2.159208 150.156128
8.433223 -9.328197 112.999359
-7.840097 -12.619735 123.260330
-6.819050 6.926228 152.586670
-11.657729 5.773586 129.272202
9.047761 6.135532 105.680763
9.203110 -11.399835 107.480316
-10.929440 -9.779869 113.401405
6.148789 4.515871 117.972977
5.727085 6.784826 111.313286
-12.443873 -1.009911 114.349350
-20.416986 0.758736 134.477982
12.835989 -5.892253 111.535347
15.289567 2.273227 130.525894
0.891178 -12.250186 110.410027
5.635274 -10.384825 138.894836
-7.170675 2.972309 148.297150
7.895042 -2.123103 146.419373
4.119116 6.935339 108.468124
-14.443844 -0.375402 104.012405
-21.508038 -2.774466 144.090881
28.936470 4.866562 141.610657
0.621528 12.099839 152.401962
1.403283 -11.698604 119.661453
11.044379 -6.732766 125.625801
-5.351115 9.599496 126.517105
3.987870 2.254971 150.946045
24.881929 -3.472826 138.377548
1.633736 -10.160369 141.670120
-28.231279 -0.871168 141.709686
4.537153 -2.761988 149.209930
0.930818 12.370502 138.407013
4.478946 -12.134562 128.951157
-0.867432 -14.103578 109.103569
-2.909183 -11.820990 136.309097
1.042308 8.338279 140.795135
-13.329315 0.099795 129.824036
2.647478 7.503687 150.008820
7.189173 4.048320 118.984497
-16.018078 2.962603 133.456223
11.454680 3.145856 124.867287
5.412980 3.755884 115.179649
21.023750 -2.743701 135.863617
-13.348289 8.036269 135.819717
11.791992 4.208591 107.915382
4.944379 -7.826195 142.498764
-7.959474 -9.963283 136.638885
-5.437161 -11.367700 111.925507
1.479528 -6.887447 146.768463
12.270010 -1.792893 121.255035
10.207885 9.990014 141.747330
2.262020 9.002907 140.763702
11.001731 -6.414500 121.532433
33.870617 2.383981 146.219727
-9.539356 -11.481161 112.617844
15.825735 8.915574 140.585709
20.792356 7.090014 138.778488
-28.851889 5.160704 140.315308
6.946686 3.851435 147.899719
11.259121 4.235174 106.352097
3.010023 -7.667809 145.780212
-2.017290 10.155943 153.689529
-2.688779 -13.930229 114.167191
-9.716543 3.455742 147.129929
-14.344178 -5.907296 142.992676
-0.464286 9.205920 123.879608
8.386271 -11.351329 131.023514
-5.448562 -10.751893 106.616241
7.431884 5.166551 123.865646
-18.260933 7.584322 141.068710
-35.031036 -0.049834 134.449921
-5.794013 9.066934 143.295074
-8.128768 4.120058 109.301888
16.121656 3.177647 135.567093
-1.127308 -12.792219 110.337662
-13.172652 6.579639 132.091385
-8.293301 -12.773252 131.202255
8.314384 10.053519 141.107025
4.874629 -11.249422 131.810303
14.746779 -0.367362 129.243896
-31.194397 -0.513599 141.943939
24.404108 2.371533 136.640518
-6.151306 -11.269875 136.786636
8.532323 -3.869673 147.914078
-2.825586 9.487260 123.447594
-12.281827 -4.477133 107.171944
13.118473 8.226003 138.424103
8.172990 5.382419 111.894165
-11.188448 -9.072423 130.778381
14.332797 -1.361613 130.601151
-0.260361 -13.121193 113.210045
-18.036524 -1.336998 138.934204
-0.154272 7.687346 113.231308
2.698099 -12.652060 129.307373
13.713231 -4.269017 121.353310
21.891666 -2.709530 137.292206
0.259890 5.880179 150.890717
-13.830749 -4.087080 104.450462
-5.916081 -10.900381 117.384171
3.193535 3.091070 151.135162
9.147383 5.940835 118.089073
-22.866764 2.903942 144.141281
22.418520 1.549264 134.217087
-14.216006 8.835242 135.811462
-11.256636 -3.821102 112.446404
21.286654 5.755846 142.079178
-2.305418 11.488170 139.763779
7.728673 -2.617400 146.017410
-5.935281 -12.757159 112.151741
-4.988807 1.140412 153.217758
8.057886 -6.496955 143.569290
-10.730993 2.281273 110.084015
0.184159 7.905919 117.064026
11.815022 6.419285 134.118896
-6.268239 -12.891809 113.776070
-30.890783 2.809896 143.735489
2.154414 10.625616 128.099594
-29.777985 7.134102 141.096222
-11.366354 4.383276 129.289536
12.312238 -5.704371 142.513931
-10.801978 2.578514 110.685997
-14.191275 -3.882833 133.958694
2.801844 2.928462 114.413376
-26.470682 -3.077758 138.591965
-13.495101 0.238688 111.936165
-12.069121 -9.719645 130.900986
12.112924 -0.768921 123.809547
-17.727551 -2.577834 133.419693
6.473181 -1.521216 150.384735
-1.839175 -10.364493 136.440857
17.959545 7.172712 141.765900
-25.561884 4.683193 136.850494
30.626474 -2.198423 138.746811
12.597328 -2.874202 108.731377
17.353449 5.898834 140.052017
-4.933342 3.930538 119.487518
-8.590237 7.460793 124.514008
28.466341 -2.350307 140.052048
20.863426 -3.761904 137.334564
17.601955 -3.824277 141.716629
12.764601 -0.432990 110.743721
30.325481 1.881589 133.957504
-24.667095 1.770799 145.056046
-3.007222 6.333294 112.721069
-2.952921 10.214011 133.904175
5.411498 -11.013060 123.277115
20.785397 3.313633 134.693161
12.271433 -9.551807 107.460205
12.267255 4.404526 130.002808
14.794052 5.639458 138.664688
-1.045462 9.686139 147.043976
5.248822 -7.220471 142.337265
-11.607381 -10.109589 122.956596
13.173829 4.630219 133.300812
1.007820 8.148204 144.330353
-17.986275 -2.343870 134.951263
-19.539457 -3.795011 143.755646
-12.686834 8.025234 144.398499
-1.266705 -8.714005 140.697311
-9.187591 -0.296130 114.186203
6.295166 -0.961808 150.916306
10.810361 -9.874640 131.599213
14.795480 8.606010 137.378021
9.293476 -9.313486 136.950485
8.757830 -9.209085 124.211662
12.215087 -7.314627 124.620186
17.993546 -2.459764 134.393723
5.802554 4.483658 151.788605
6.653688 -11.721580 135.157150
4.013762 -8.044137 141.461975
-5.593999 -15.061417 120.890251
13.797209 -1.743607 147.072205
11.600294 -6.137831 140.788071
11.729602 0.576548 118.670349
-1.988371 8.780385 149.657120
-9.711369 10.116256 137.997391
-24.785088 -1.289388 139.236832
5.862019 -12.371483 109.784050
-2.065450 6.747492 110.209282
-2.703659 6.877604 106.406052
-0.777571 -12.690449 135.066422
24.892008 -2.485254 140.779037
-6.651008 -7.076516 140.648529
-12.751165 -3.496415 120.530075
4.413481 8.353359 130.893890
11.954631 -0.001090 118.631462
17.061573 1.729900 133.726303
28.459938 8.123330 139.758896
-14.585327 5.082417 144.497910
13.981196 1.763468 131.066803
14.900037 -0.021459 129.183762
-23.668581 0.781651 133.727280
-5.490496 0.076909 152.837051
-23.796515 -2.507133 139.404861
12.149024 0.411777 124.825104
11.349113 -8.643454 118.314201
15.293612 5.977328 135.608307
10.170540 9.362515 134.958389
17.480757 6.306540 136.156998
-11.145890 -8.116823 124.510757
0.957507 7.126326 150.775543
18.525661 7.141991 137.781143
-3.323643 9.215378 148.573517
6.383284 -13.610136 108.728691
-23.670851 4.000687 136.421967
-31.409611 6.164008 138.475235
-0.766880 -13.380095 130.448929
0.847700 12.729726 131.692688
11.770670 8.494782 142.530579
-9.677222 -6.196265 143.340103
6.391421 -10.542843 114.431290
14.339989 -7.184336 132.865189
1.116803 10.443432 128.597778
21.686634 -1.852051 143.490845
30.343019 -1.362110 138.105820
-6.118191 -12.564908 117.979698
0.214134 11.433660 137.411209
19.248848 -3.169858 134.266464
-9.417161 6.854578 144.262451
12.761609 -5.408290 143.843933
-11.015511 -7.079565 126.311340
-6.579896 4.247720 112.113564
-7.740074 -9.247199 113.162163
30.195034 0.617929 142.866806
-12.602171 -6.283431 139.406891
-6.718235 -2.308948 146.134567
-24.771496 -2.895678 136.174393
-4.740225 -11.953161 111.002045
-16.577351 -2.502039 144.048325
-6.995002 4.821599 150.266190
22.401945 1.668841 136.805496
-6.825527 -10.359974 141.464905
0.320693 6.376919 117.516518
15.294766 -4.489771 142.936462
17.419159 6.160595 134.064926
14.748469 -3.086045 128.885330
-12.497557 1.427291 113.423584
22.815626 7.394317 141.180267
-12.700943 -5.061620 104.927277
-28.034504 1.801280 144.218399
-16.773985 7.532316 142.526550
10.121100 -10.905767 125.742981
26.935268 4.882943 142.466995
-9.007539 -10.154260 136.162964
23.578144 -0.533452 144.562607
-4.393911 9.112725 146.522751
11.251392 7.444889 130.787201
-9.314304 6.994172 125.626236
-10.315268 -7.822035 125.454216
-9.818667 5.789151 118.186157
-17.578579 -3.629089 131.163345
-4.931440 2.654291 150.554153
15.202259 5.341895 134.952271
11.314688 0.657101 121.405128
-2.259201 7.773129 152.230362
-5.563006 -1.963970 150.659363
23.591312 2.286033 135.342010
11.281599 -3.227139 144.716690
-10.775482 -9.448633 128.505234
5.031675 10.573679 150.028549
15.531344 -2.715159 136.139069
-13.370737 8.163700 136.245026
-7.043099 -9.720517 137.147552
-10.577390 3.869595 125.928223
-3.575004 13.878413 130.500626
-4.242219 -14.654504 113.062088
-29.481741 5.663947 142.731049
-7.377553 -10.275569 111.760574
-1.993042 9.112521 136.537231
3.602511 -12.176119 134.393494
-7.627241 -11.696161 128.379745
5.503397 -12.981590 115.286995
5.105660 9.203472 131.087906
0.637571 10.915216 129.220551
-3.643293 -13.106768 115.738739
21.608873 2.575166 136.054108
19.699495 -1.061415 134.078674
-4.384716 8.834560 145.425919
-28.653229 -0.665291 133.425308
-4.856482 3.937449 150.945374
12.545655 -2.565152 123.454826
-0.318938 9.699376 151.685791
4.662679 -12.721841 129.997284
-7.544105 5.444373 124.092804
10.665453 -4.267983 123.964684
-4.792097 -12.652640 132.077927
-14.683378 -3.942008 142.626114
32.535099 7.575809 141.989746
8.726162 5.507917 124.804062
-2.762263 -4.245114 150.012726
-4.072453 -12.438316 115.457977
12.718808 0.804956 106.601120
6.990365 5.695868 111.533623
-16.055517 0.920270 144.262192
-11.005446 -8.636944 123.015778
4.519915 9.574308 123.773300
-7.911022 12.260562 135.353210
11.139544 9.083016 138.520386
-22.782026 4.584527 144.497162
2.865005 -13.846334 127.996246
-2.505000 -10.127680 140.494522
-8.181017 -8.195502 118.788063
-12.144011 -5.582047 108.951195
18.498026 3.371708 145.043823
-8.091864 11.123592 128.074051
-20.537529 -0.834793 135.218582
-11.408311 -10.550894 107.327583
22.767933 -0.965465 133.424225
-13.937625 -0.443536 146.118896
26.975847 2.269346 135.766937
-8.680536 2.319584 151.364548
22.618719 -2.216080 140.236725
15.000452 -1.395200 119.845863
-29.540808 -2.083551 139.586517
0.724432 9.992620 150.850555
-22.458076 -1.914232 136.238785
-5.874359 -0.334520 152.263229
-30.947309 4.569706 136.176682
13.064600 -3.894953 129.723099
-8.089723 -10.247693 134.973846
-9.447709 6.307485 144.758835
-13.571377 -4.309777 117.121902
30.764385 -1.610718 139.232773
18.209238 6.643404 141.800751
-13.456509 -4.243143 114.465439
-15.108534 5.585554 131.914200
11.481135 -8.544653 125.507072
11.042730 3.741782 121.161530
-30.618954 0.882036 135.428452
0.621860 10.985552 135.807495
3.041268 -12.820397 116.303833
-2.799647 10.018867 125.209129
21.766644 -3.419845 142.476944
-28.590372 6.584465 138.659225
21.829945 8.644156 138.763031
-28.752361 0.349235 143.206573
8.678773 10.296247 141.179184
-1.065841 8.425667 122.385345
-17.182777 0.067095 131.252975
4.079214 -3.768221 150.650574
-13.345994 4.023714 129.576355
-28.170744 0.172896 133.818268
-6.184389 4.396793 119.471542
-15.205950 -4.010026 113.350235
6.078065 5.105408 111.215210
9.874426 -2.044727 114.810364
-8.693776 -7.534677 144.391510
10.243618 -3.621978 144.396545
-8.639729 4.926913 105.486198
10.979525 0.838927 122.035004
14.576589 -5.890741 141.954178
12.885655 -2.202884 126.929077
-4.678593 -4.963465 146.276306
12.337069 0.862012 120.746727
18.357019 5.225030 143.595978
-2.680763 3.612578 120.636742
20.209078 5.537322 144.291611
-20.523800 -1.885294 141.817795
-0.481291 9.173702 138.417068
-2.258233 -12.658717 116.560593
-7.712857 3.029602 114.701019
3.703168 10.615027 134.457947
4.030356 6.369900 110.615761
-13.146232 -5.953977 126.787804
14.722694 -7.788733 137.832230
-18.840246 7.996259 138.220718
3.290270 7.584961 148.542435
-17.565310 -2.196637 139.774582
-0.546587 9.124496 153.331726
2.546401 10.713013 154.358139
18.188091 5.220764 143.294006
4.238527 -6.678077 142.142242
-20.184607 6.343494 142.185455
-0.802394 -12.489197 124.070343
5.491100 -3.162144 146.986694
-16.555750 -1.950624 130.792877
-28.629221 -0.249015 142.369919
1.888981 5.058841 110.026161
0.124685 -14.687613 110.437141
0.974108 8.081328 148.187027
-28.187952 6.070214 143.410828
3.707473 -4.834202 145.206955
-12.069517 6.268991 144.787323
-13.388165 0.758633 145.369995
10.609319 -0.272300 109.340836
-10.097167 3.470160 105.645424
-31.059303 -2.261595 137.697250
1.284766 11.833828 150.771225
-10.061169 -10.145164 112.680779
-27.783220 1.332201 142.578018
-3.787984 6.980786 140.392883
-15.797736 7.724177 140.128586
-15.183369 6.406400 135.916000
-7.912545 11.763537 135.425186
-7.008666 5.829760 126.685158
-10.761869 -7.206428 139.862198
-12.186201 -2.020800 125.483841
0.432844 12.202752 131.928802
4.498378 -11.372327 116.172638
28.790548 2.322398 143.978394
22.264154 -1.392262 133.883423
6.304684 6.254967 122.585960
6.421010 7.919984 131.978409
-5.171968 -5.046935 146.802399
6.262953 -0.730839 148.168182
10.798609 2.071645 118.561562
10.580545 4.316017 118.835411
29.118521 0.031012 142.459885
-9.575191 3.321858 121.560928
-6.263230 4.396652 145.977875
-5.537931 10.515012 127.976921
-4.181173 7.286809 152.134689
-15.384619 6.794979 142.439377
4.480968 6.665055 106.902763
-9.670160 1.109748 147.552917
-12.383920 7.554764 139.786072
-21.950363 0.570630 147.156723
28.700560 4.741480 139.122955
9.358808 6.469922 125.753593
-14.122014 -3.141884 112.041054
-4.996667 6.708082 106.516548
-6.024953 -14.223529 119.824074
-19.625772 -3.874775 142.908173
10.766399 0.300661 119.067909
10.378455 -10.555574 132.352570
-21.921841 6.379473 142.927521
-4.857141 8.621169 126.396645
-6.874063 -2.145285 147.734787
13.169842 -2.371903 117.467049
-23.748907 3.894215 137.286758
15.160344 4.283190 136.496719
-17.007814 7.235376 136.329086
-16.833523 0.880772 145.628098
7.320022 7.541908 142.437637
-16.732407 -3.199267 143.612350
-10.581765 -7.690891 141.703705
-15.341614 -3.292186 118.424995
-1.002814 -14.817001 122.702736
-12.944073 -1.276813 114.825600
12.405293 1.077963 130.659058
-4.574914 3.522071 148.969238
-15.020338 -5.428050 132.832169
-6.893846 2.752860 117.511841
12.374972 -2.205904 125.900230
-4.410825 10.777486 132.089203
-21.237440 5.091176 142.538345
14.784794 5.931272 133.413956
-4.716999 5.737870 117.790703
-19.298769 0.522184 144.795853
-6.257005 -4.730553 147.591629
-12.533023 -8.077972 113.650383
30.825922 -1.769762 141.265060
-11.306482 -1.958225 109.566597
-13.853071 -2.607721 124.385391
-21.678989 -1.317872 134.127502
-5.650076 5.214215 116.818192
20.936428 5.590072 136.868652
12.828250 5.422494 146.090530
13.596742 1.245253 124.752029
-6.661094 -7.961816 142.121719
-9.949747 -10.516218 128.796387
-27.738998 2.978801 144.098892
-30.745975 5.900451 143.678207
5.617950 -12.864432 109.155907
11.478254 -9.683839 129.706924
10.251978 8.269463 140.683624
5.980800 -11.982096 132.567322
-7.185967 -4.751958 147.860382
-7.754822 5.808106 146.255554
6.980604 -13.314081 130.174301
0.552910 6.984494 141.955185
-7.962302 10.463313 134.440506
12.875905 7.828867 134.249496
-20.041880 1.925756 135.290421
20.625988 5.144468 144.884857
5.094147 -9.474683 140.267334
-20.691910 5.767254 143.216919
-15.825198 -4.196724 140.804459
1.126606 -12.633528 117.366127
-4.662686 -12.417080 108.098511
9.498238 4.167804 124.421997
4.489923 -13.240086 126.015778
8.382847 -10.184659 116.560295
-20.136597 -1.994075 134.227859
2.096935 8.532887 120.692772
10.295173 -7.286081 120.047592
-13.631326 -1.857460 111.870193
-0.187499 -11.495111 134.821838
5.672603 3.059804 150.656357
-28.897558 5.437571 143.823105
-5.973686 4.874488 111.818489
27.240114 3.520418 145.937805
-1.263705 8.763743 147.896774
13.230536 9.325258 141.165436
1.227190 10.188229 139.717758
-11.298804 -8.169640 132.763702
13.043953 -0.974725 126.031158
-12.744576 -1.647260 104.595619
3.873145 3.425572 114.109215
7.509631 8.627530 135.131714
8.447145 -11.995782 121.913986
16.640707 4.058064 136.973389
-29.021826 -3.010547 135.398987
-15.615123 8.685907 133.266846
12.824604 -1.038013 121.977440
-0.399687 -13.686077 128.266144
12.253270 -5.817955 108.017143
19.328562 6.712350 137.083954
7.725533 -9.392153 131.529053
-16.413372 -1.242199 134.251938
2.548557 -8.710437 147.827332
-0.515985 13.083762 138.752640
-14.141376 6.016324 141.743530
15.480356 -4.227316 138.539261
5.082514 -12.869938 124.653069
4.384943 -4.285425 152.177231
-10.946603 -8.966323 106.278946
1.870853 7.188024 107.318016
3.389290 -7.645546 143.831985
1.439813 9.966718 140.498917
11.010212 -7.392460 113.109024
9.484476 2.358167 120.635162
12.084533 -0.745626 120.486877
0.158152 9.550787 154.363205
-12.554983 9.456697 141.787018
31.132803 0.598699 144.361115
4.266314 2.502339 116.613945
-2.135381 9.975072 139.852432
-3.167181 -11.687525 109.663704
17.508354 -5.723034 142.387146
0.031059 -12.174960 110.236565
-11.373236 9.135204 140.245636
-24.399759 -1.804703 142.954819
4.333373 -12.879641 111.855965
-11.686207 -9.991117 136.754379
17.449200 8.473360 143.514069
11.772587 -3.265132 115.946426
-25.364637 1.108454 134.933640
-8.566069 8.792216 140.850891
-0.211845 5.781301 109.313576
-1.260869 11.731063 130.280869
-5.654571 -10.039342 138.564560
10.631692 2.078835 111.139496
-24.302361 -2.612160 142.674423
-10.488987 -3.686466 145.583008
-24.470299 7.967278 139.028427
14.488765 -3.525345 133.050461
0.229084 5.007393 118.275757
29.408497 4.979219 136.748688
-9.604903 4.661073 109.740616
-4.836547 -13.672998 115.161369
-11.516427 2.997832 107.336960
-1.742064 -5.627859 148.163727
-17.343592 -1.972012 140.170456
-15.159060 4.391373 144.445175
-8.775088 -10.130937 134.234024
-1.061439 9.876383 153.268250
-5.536929 3.300840 114.652214
28.370886 0.196568 144.159271
10.157794 -7.604659 122.921196
-25.803446 8.062261 143.315689
4.515749 2.420611 147.891464
8.943768 -9.697139 125.472076
-11.947694 3.436978 107.249535
12.050188 1.027604 117.465614
-4.643353 1.409339 152.341537
14.503113 -1.242810 126.713478
-10.072009 -8.219311 118.715057
28.983809 6.893363 139.876282
10.801293 -4.905302 107.955917
-3.562307 7.780940 121.713890
-9.755761 0.943515 115.012222
5.158078 -13.315814 117.759163
-15.640678 -5.869571 120.354614
25.219086 3.236001 144.835434
6.550024 4.883135 109.421677
13.988619 -0.118214 128.522034
-11.038158 -5.982440 141.834839
-0.217435 -7.314163 142.515244
-4.481701 6.782537 121.200989
3.470635 8.880554 134.622391
-0.334831 6.644283 120.996185
16.922478 -0.383653 145.632370
-8.796556 -11.292987 112.287186
8.906317 6.351321 122.606636
9.523524 -3.203441 147.409103
8.261677 -5.506725 147.364014
5.290523 2.227543 149.022614
7.571155 -11.779096 111.836540
0.694427 3.809609 111.866508
-6.926740 3.312159 148.976440
11.050811 8.415015 132.555923
12.097726 -4.868535 106.944962
-8.570351 -8.988342 120.949135
5.146465 8.624152 154.645767
12.897466 2.731387 127.922356
-5.264956 4.059280 120.890343
1.141967 5.336879 117.612045
1.485160 -14.143473 126.418312
11.154367 3.236102 110.008942
13.136738 -7.778575 114.530792
15.909274 -2.044550 136.201721
6.704598 10.792773 138.402451
15.588236 -6.383628 142.604874
14.328375 -4.374428 119.300835
-6.363735 11.051783 134.321472
-8.484093 4.565507 106.439911
-16.101395 -0.709117 144.035889
24.871828 6.661584 144.045181
-5.571594 -8.835517 138.828629
-6.618019 -5.030048 149.275375
-26.429586 -0.512272 134.786026
3.746081 5.885578 113.204178
-10.639011 9.095031 137.236298
1.019995 -14.243552 125.132713
4.314476 -12.945704 128.362061
14.331727 4.218777 129.106705
13.270099 -5.145068 108.314140
-30.549942 4.483926 138.411835
-5.609872 10.926375 130.235168
-1.868061 -14.512441 113.143471
6.933149 -3.797925 148.232376
-9.259109 5.236673 112.333359
-5.440730 -11.777613 126.608253
-5.947680 3.259942 118.194237
-13.257804 1.039766 106.845688
10.404769 8.289536 136.743088
1.462833 -9.977449 131.553848
2.419941 -13.528443 120.177528
-29.020538 -3.529088 134.124710
9.572871 9.204471 141.317413
21.711460 3.554238 138.113098
-20.498026 4.505590 136.861816
-7.670707 -12.143874 106.476006
0.840029 -7.575508 141.886551
16.944235 -5.562574 144.037949
10.377208 9.687396 139.921082
-14.146964 -7.350211 111.468330
2.209437 7.604092 138.735611
-5.371818 -12.163280 127.035042
-14.217541 -6.027309 138.721985
5.261417 -12.656641 129.339096
21.357306 7.549941 138.305389
5.338451 -7.165826 145.184982
-0.245501 -10.029856 139.409042
-2.182400 10.402439 136.706848
-14.003824 2.056095 144.629547
13.448245 -4.430494 114.307190
-5.534555 0.398659 146.930481
-0.475102 9.871481 138.723480
12.898706 -5.542471 117.253204
7.197338 -13.062433 133.336746
5.604813 8.060659 126.144653
17.164721 5.469109 137.042206
29.286594 -3.169415 139.530518
4.892723 -11.788456 128.465225
13.593764 -6.624339 128.424515
1.753395 -13.454984 106.272301
-3.940262 -12.577703 128.825821
-11.783160 6.565302 145.027405
-29.468843 -3.104012 134.800781
1.509563 4.196619 108.602379
6.715722 -7.532401 145.702774
-5.617598 -13.564285 130.848221
0.127014 10.111723 136.893768
-4.963311 -4.934339 149.447647
-10.834123 7.733706 136.754272
-7.839027 5.307355 110.197014
-31.081192 1.718486 144.822250
-11.597193 -1.522772 122.597382
15.400857 -3.162642 144.880035
-2.510343 -9.283850 140.739761
29.433903 4.710763 135.122620
7.963899 -11.085662 107.919006
12.720901 6.178581 144.138809
-3.946914 -14.561755 122.563393
4.072736 -9.541917 140.174850
7.363355 -11.450762 115.858376
30.893143 2.586350 145.056244
13.428064 1.951573 126.467613
-5.741834 -1.090497 149.993759
4.501051 -6.845342 148.166534
8.080749 0.306188 147.441101
-15.530066 1.073976 129.086761
7.449634 4.837118 119.296577
11.959213 -0.891034 120.468636
-12.659165 -5.824305 126.311302
4.777004 -11.355667 114.696754
-25.687147 -2.779053 140.029709
9.477899 9.313371 129.970657
-29.738951 -1.499752 135.631668
-8.271069 5.546992 108.105087
-10.870731 -8.801423 108.950165
19.367926 1.625724 143.982239
4.031056 3.234750 114.733582
15.027522 -2.325308 130.137238
-3.800065 -7.570609 144.613113
-3.951684 -6.265393 147.735062
21.712738 -0.177058 143.141678
22.904030 -2.152412 134.372910
6.858809 8.056755 126.038094
-10.101521 1.791998 118.723183
-7.445576 0.942523 116.302765
-5.366471 -11.440357 135.794861
-4.180345 6.158076 121.580231
-5.129385 -9.857674 143.244568
2.857218 3.197191 151.512650
-9.002367 6.382653 146.906052
-9.879393 -9.797446 136.099808
-8.345734 -10.081508 123.471260
-25.799398 -2.334253 138.083847
11.572777 -0.627788 110.969391
29.164808 5.960952 139.379272
-3.828603 8.046427 142.902084
28.518641 -1.062117 140.902039
27.269911 3.660759 145.185150
-13.757387 -2.601899 113.139206
28.441259 3.192341 145.038254
-9.376312 5.626061 147.689072
14.869584 -3.949704 144.365402
11.650024 2.088222 128.975845
-23.094641 3.289730 136.415817
14.235893 4.172553 146.240662
4.909038 8.224296 136.727203
3.662033 10.364140 127.674553
14.763546 -5.811424 137.360962
-11.331918 -8.328856 123.431854
20.474955 7.774277 141.327179
-10.872578 10.630980 143.113403
-6.806517 5.334239 124.386513
-10.154073 1.632763 119.132942
-9.230916 1.059009 116.408974
-0.777449 11.759631 142.024353
10.774947 -7.115536 131.626251
-5.331171 -13.077972 112.698418
17.341045 0.127119 134.448303
5.303703 -12.636818 106.977921
15.312956 5.852639 143.704254
-0.439406 12.257560 140.747589
-3.669636 5.797060 110.677864
16.131443 3.775009 136.424850
-0.596623 8.063052 151.403717
1.036891 -7.238458 144.428589
14.091601 10.118773 139.557999
11.590605 0.812287 148.251724
-10.310337 0.380448 146.346146
-8.694894 -9.600741 139.531342
-5.019065 3.201680 152.974289
-8.237239 -12.313554 128.179733
5.114595 -1.505490 152.261368
7.260221 -3.334001 152.195267
-1.634747 10.254718 126.475121
-6.511998 10.635572 141.743103
-0.679328 -10.898599 135.438400
16.875481 -2.350738 133.596039
2.307781 -7.381550 145.714386
19.828943 5.631018 138.112823
9.490897 -9.297618 137.238571
4.793512 6.265055 145.611450
-13.778665 -1.195444 130.889999
-1.532252 7.420705 150.536362
-10.718575 -9.244880 124.473282
25.750765 0.047112 134.739105
0.127273 -10.725884 142.188919
-26.605967 -1.836898 138.953659
-6.629904 8.930876 140.323395
26.825514 5.815353 143.804428
-11.538388 9.359405 134.057327
1.195003 5.825737 149.319489
29.992180 7.085454 141.733627
13.681087 -6.948243 139.987030
-3.872602 -13.188546 109.285782
-15.614954 -4.090268 143.239655
11.943430 7.159691 129.491959
11.932652 -7.636643 117.414925
9.930018 1.817548 147.495682
-19.788136 -3.142198 139.768799
-6.900689 -8.743835 144.253052
-1.086555 -9.115479 146.860199
23.415606 4.229450 137.936874
-0.200586 -11.843195 134.963562
-4.140019 -14.280368 112.903412
-11.154909 -7.149887 119.919807
-12.783293 -5.245893 106.611427
9.361814 -9.133583 116.663681
10.527403 1.257007 117.910477
-10.849043 -0.948604 120.916130
14.567597 -0.255155 129.693726
-15.221051 -4.224953 131.197281
-26.250298 -1.317677 142.402130
-10.614824 -10.003700 116.198776
-30.115648 -2.669385 139.401901
-13.764223 1.104265 128.197998
-27.190657 0.178961 145.299179
0.798681 10.186497 140.466721
-10.678165 0.811226 119.440170
11.649542 -5.688684 110.476295
0.095952 -12.042436 119.150467
7.656811 -7.791913 137.857788
-2.778953 -13.411309 127.699890
-3.644307 5.820260 150.571411
-14.658791 9.078673 137.294891
-8.459717 -9.476199 137.049042
7.102935 6.928332 122.905418
6.712942 4.357285 106.259995
-26.679102 8.218212 139.050858
-7.824949 9.420506 129.990326
-0.110948 5.967917 114.072205
7.103720 2.253806 147.506653
-13.527875 3.525642 130.672287
8.401013 10.405766 135.731308
-24.064558 -2.897353 138.649261
3.402777 5.150966 111.308228
-8.324188 -11.781620 127.797630
28.931772 0.895994 142.341568
-16.683184 0.463408 144.052200
-23.056919 1.950904 135.189285
12.681031 -2.053497 125.532234
-4.339409 1.667830 151.216217
-7.340205 4.802911 146.581360
9.310719 -11.652428 126.808968
-13.191257 -8.194404 139.700974
-7.679284 0.884956 148.877533
16.378025 1.421736 143.319382
7.460559 4.425004 107.847000
5.010836 10.301470 137.731888
-9.922181 9.751257 142.106339
-13.759747 -0.574574 104.106010
-12.857976 -5.489796 144.797684
0.166340 -13.703295 126.261742
-14.984346 -2.684572 117.867134
10.073751 -1.112408 116.106522
-13.011069 -4.545066 119.113884
-2.182514 -14.156060 111.394516
-1.768753 5.782290 120.826454
25.749559 -3.645503 135.799164
7.681963 -1.696183 146.828735
4.637743 9.674816 137.755829
5.600890 0.774588 152.856705
-1.364948 7.991491 121.860153
14.022977 3.408168 132.964905
-11.116931 -8.909401 117.670311
21.964596 2.738761 144.881424
8.680538 3.289168 112.980621
-7.156479 7.775978 146.231323
-16.602583 0.527411 132.648209
-9.933270 -10.512155 112.775726
-26.412127 -3.493376 135.080231
11.272738 -1.740998 114.943474
-23.631992 2.722796 134.708817
-1.635327 -9.005155 136.988403
1.458212 6.714806 105.827103
-10.709777 2.986988 121.716263
-28.159016 -1.126415 134.137802
-29.943609 5.281959 144.686844
-21.507679 7.499048 142.669220
-13.576176 -6.560695 121.053383
-0.120025 4.390263 118.444160
2.174732 9.012788 124.988289
-5.609426 6.596180 125.540642
-9.104897 3.639637 121.387802
2.323870 -11.985744 138.683716
-8.710453 3.115874 106.878242
4.445799 8.380345 130.134415
-1.362533 -9.949686 137.908630
-15.172002 2.316521 132.882248
-14.140758 -6.820958 123.032616
-17.203821 2.401053 144.322479
-2.536534 8.013919 151.855392
-10.678515 -9.934498 110.340874
9.517356 5.234252 114.498711
10.598910 -7.943223 136.424408
8.865130 -5.892667 146.674332
22.908461 3.191917 144.322281
-9.641265 -5.716294 140.908752
12.329370 -3.328262 108.364365
-3.633770 8.160357 154.103104
-0.963195 9.224838 152.002426
3.824844 9.977865 138.547119
-20.695137 6.258943 143.239716
-0.108485 13.663956 141.510681
-0.880582 12.365027 143.030594
5.032453 -1.620387 152.151917
-0.106237 5.514791 114.380264
10.891768 -9.040779 125.879341
-16.894091 -4.789283 138.740173
-11.178010 -10.541738 130.101425
-25.544380 4.297467 136.848816
-10.382732 4.449387 145.024399
8.610516 7.712783 145.760025
-10.473313 10.062978 137.649918
-25.768795 8.194871 141.341934
-5.466118 -10.566042 110.701828
25.348511 5.868855 144.496994
-12.268401 -4.334124 145.506729
11.551049 -7.211763 141.231201
-11.138057 -7.380050 110.266258
-29.349869 1.718560 136.349686
-13.730409 0.233748 146.058746
6.115203 1.817556 150.473495
11.953661 -2.271405 120.287926
-13.674591 -5.110227 116.604126
-4.046529 11.831599 133.256058
2.344759 -3.244377 151.819321
19.182222 7.454216 142.059082
5.823696 6.584155 121.647408
10.513576 5.311207 120.339928
12.144298 7.280921 134.206146
12.587477 8.661239 144.952835
-9.589315 -2.443781 146.561325
30.192724 6.151501 141.682953
20.118296 5.361973 144.783066
-6.339242 -7.153434 146.915833
5.038401 5.293891 112.558846
13.983516 -3.629269 129.959427
-7.595219 4.762679 123.386200
11.834171 -4.708282 127.625526
-10.822111 1.035345 147.071503
-12.135813 9.801904 140.450241
12.288425 1.483048 120.449486
8.828336 -9.340166 109.004181
-17.200390 -5.752843 143.217514
30.997490 2.820896 143.480667
-26.884405 -1.214624 135.110245
-9.666192 5.749552 146.923599
15.767517 -1.076184 144.303986
19.392435 -1.856388 135.662079
9.289150 -14.160936 106.817551
1.426515 -10.231878 140.325241
-3.700784 9.819619 148.692276
27.578957 -2.425662 138.114471
-1.775741 11.924335 133.407639
3.657355 6.439993 115.965515
-1.542952 12.491977 133.751083
-29.966593 -1.013296 134.518646
22.580519 6.579455 143.383011
-0.924487 -8.139686 146.130936
1.086931 -13.208447 107.648743
-17.366953 1.991348 144.642792
5.268679 6.925036 124.252106
7.151261 -10.630138 116.229034
-12.024152 -10.362694 128.078049
10.896209 3.217330 106.437912
7.919345 -7.550594 139.565338
-0.160450 8.665798 148.338837
8.390406 9.138021 134.053375
-28.881931 -3.598029 140.189453
-8.422837 6.017794 112.843491
9.772096 -9.078182 109.694641
-1.439609 8.439069 147.981323
-9.752487 3.231545 121.070847
-3.035568 8.638411 145.711243
13.522606 8.022470 136.623611
7.535880 -10.251385 137.054077
-13.247367 -0.903664 114.448738
-9.168289 2.789645 106.852341
-11.418968 -2.103018 106.778954
-9.846710 1.007285 146.490753
-8.307486 -10.504568 120.091888
5.499359 10.311972 129.990509
20.660025 6.808781 140.064850
3.944738 5.130912 112.596375
-7.161299 -9.689601 113.647392
-24.451479 5.248236 137.014160
20.455458 -1.657778 143.644714
-5.136316 10.640259 126.984520
10.816529 -8.339220 117.597054
6.280179 -5.187539 146.703522
7.608003 4.959246 147.007584
-4.899804 -9.268649 137.212006
12.490557 -5.736396 107.546570
-6.079505 5.059590 111.358475
11.274935 6.842880 134.780060
31.492302 1.575564 144.282913
17.191292 8.506291 138.776031
6.158029 -3.232576 149.033066
8.029177 3.674347 112.693031
0.965910 9.804433 140.984589
-14.421931 -3.379239 135.119904
9.191360 2.256513 118.811241
-11.596232 -7.664473 135.193390
-0.398761 -13.051032 129.958557
-14.722580 -6.198207 134.707947
-14.457373 -5.991768 135.435410
24.759962 3.864552 137.603867
15.868670 7.561087 137.188171
-10.698978 -8.702503 122.142944
-2.266423 -12.941320 107.026390
-15.784360 1.033309 132.731140
-2.642536 10.427618 136.557495
-4.197509 -10.405678 140.308807
-23.632303 -1.024877 144.673737
-17.718201 -4.115481 137.837570
28.980814 5.796021 143.229767
16.763178 7.334991 139.006714
15.394636 8.601030 140.130997
29.755697 -1.939997 141.680161
9.900628 1.448720 112.531921
-20.785162 -0.899997 132.652542
-1.477219 -6.488743 146.911758
6.344569 -1.829163 148.460464
15.930464 2.801658 146.802658
16.760546 8.331770 140.023422
8.917802 5.823768 143.638016
-14.060124 -1.335528 110.586235
32.902714 2.893775 141.126068
-10.075075 -11.376015 132.094604
5.130200 2.623299 148.176636
25.208134 3.132622 145.381210
-7.217179 -11.154364 119.061424
2.572439 8.373877 119.869156
7.974650 -10.915137 108.662819
4.029267 -14.359062 124.674866
-5.501972 -9.312079 140.883163
0.205261 4.572389 116.254837
-22.223141 -1.483367 137.375214
-1.081723 -12.693931 119.285889
11.205144 -4.127267 118.930801
-5.432990 -12.483968 125.737648
9.055948 3.441562 145.219910
-4.759177 -12.837236 118.967705
-13.706180 0.427269 130.322708
-1.249220 -13.037586 132.605804
-3.965862 -13.543122 128.887955
5.266316 -4.533209 149.541000
7.343531 9.821570 127.126564
8.640053 6.149522 122.204491
30.398848 -1.304024 138.185181
-4.717920 6.606741 115.298187
3.392586 5.345479 113.775726
-18.772053 -1.285705 143.957870
-7.278822 3.966145 150.476318
7.957416 -10.880866 111.237518
7.348147 1.601854 147.817749
3.020318 4.841030 153.290314
13.189350 -2.178804 124.697342
-17.425518 -4.136354 138.762421
7.106679 -10.628531 135.132355
-8.602931 -9.327033 123.159447
10.040489 0.644230 109.835304
-12.000871 8.457961 136.391510
-13.309545 -4.928205 103.201775
9.745300 -8.658486 128.806610
-9.601851 3.857957 148.051804
22.787861 6.126018 144.275208
-4.147690 -9.138904 144.643066
2.837637 8.181206 138.170990
-14.901467 6.944144 142.587585
-6.580417 11.749023 132.298660
12.596410 -3.420016 114.520615
-2.423587 3.700474 121.377296
-22.820988 -0.853980 142.587387
-30.248396 -0.222686 141.850967
-12.497962 5.917661 142.591568
-23.597876 -0.705084 143.013748
-6.954914 -13.408453 115.857002
2.870170 10.679701 140.875046
-5.482764 1.952318 112.671600
-6.862494 -0.824417 147.121841
-19.956718 -0.142566 144.091400
-22.589228 5.188938 141.322433
-12.295807 9.435174 135.001511
9.282645 -11.752709 108.125305
24.888716 4.994946 137.506409
-1.279350 -9.419506 140.761993
28.637869 -2.331275 143.492722
-27.181488 3.902860 145.632263
-18.352306 5.400551 144.236023
12.275406 -2.934527 122.642151
2.491835 7.378202 111.392311
-19.900730 4.401340 143.264786
13.677740 -4.791427 127.964050
15.389990 6.626941 135.360580
6.816316 -12.900912 122.661064
-3.940688 7.241032 108.572411
-19.148012 -4.688096 141.077789
-9.471861 -8.729304 137.933533
6.138661 6.208857 120.330734
-11.709680 -7.739366 118.605843
-5.311879 1.243839 152.552551
-12.579688 5.981865 130.388138
7.323525 -8.446515 141.161499
9.242266 10.781990 143.488007
12.580334 -2.110111 123.292381
6.217701 3.097054 147.925278
-9.742009 4.097647 148.058456
-8.787170 9.583523 135.201935
9.439037 -10.677622 110.807892
-7.093849 5.595319 106.894257
-23.097013 -3.548340 140.483826
32.298649 -0.720661 142.557602
-28.037704 -3.725343 135.972839
3.486754 4.324969 114.324783
21.582123 -2.434521 143.397598
18.576334 2.706217 142.978027
11.965266 -3.754586 114.346306
5.455770 -0.122022 148.717712
0.441749 -6.610276 148.029755
-9.863057 7.973090 129.217422
-7.636776 3.098207 114.032181
16.423210 3.035453 134.409225
-4.712085 7.970299 152.270462
-20.267384 1.359351 144.735138
-19.327999 -1.852183 143.963821
-1.989836 -8.439332 146.580093
-4.884426 7.018068 125.870911
-13.006741 -3.262080 109.246109
-15.501682 -3.453455 137.601791
10.356903 0.159729 119.058701
-10.949401 -8.488213 138.015121
-14.408921 -1.572137 106.933434
-0.762694 8.240798 143.323700
-6.469134 -12.350788 126.876419
27.590336 -0.806804 142.742462
-4.575292 4.452511 151.451340
8.026520 8.081881 125.051491
-2.175882 11.189969 137.350311
10.594928 2.996065 127.849792
-24.414879 -1.269030 144.395050
31.009569 6.109411 141.081650
6.180956 2.425188 154.786255
14.885958 3.792172 132.577957
0.984987 12.107649 134.284698
-2.137718 4.676924 112.923477
17.810251 5.657326 136.077484
-21.228989 4.632329 144.154495
3.374698 -7.019903 146.398727
-3.237973 6.157688 149.627853
-22.978670 -2.009867 141.063599
1.037742 10.755291 147.764053
20.305569 -1.945558 136.269379
9.343107 -9.278962 138.642914
-6.345908 10.373319 136.971725
11.087843 -8.717992 118.576729
17.570515 5.955221 137.186646
-13.851273 -0.967076 124.578842
-1.574732 12.182570 132.663147
-3.267758 0.497144 149.660126
-2.730237 9.257186 143.579086
-10.620941 -10.849038 129.367767
3.650083 -12.126352 106.358162
-24.300142 0.244361 143.114441
-9.504341 2.513311 113.551086
24.872677 2.661825 134.913193
11.577537 8.686591 136.618698
-8.503341 -2.842421 146.708572
-1.665266 11.242895 127.850777
3.872957 -13.215688 128.515335
11.102962 0.171252 120.813515
-10.393185 4.636961 104.819778
0.947424 -14.504758 115.206001
-29.551266 1.570765 143.303848
-11.437147 -8.055850 109.242065
26.962393 1.284010 136.437225
3.642954 8.304247 105.206184
-18.296616 -0.269998 144.909271
19.348669 -1.354423 144.192795
-0.472724 5.363273 113.800957
24.701077 7.525417 137.743896
10.327685 6.461657 144.826080
15.978867 -6.650794 142.866302
-9.710255 8.870009 137.628815
-18.390203 -5.074160 141.076508
11.104368 -10.235106 131.400620
26.779041 0.250732 133.618332
-27.878908 0.062761 134.556717
-12.933423 7.408119 131.815735
7.169260 10.508933 137.342758
-23.026468 -0.685226 140.260193
-9.158505 -7.449382 141.578308
-9.693193 2.793211 151.438629
7.333732 9.901722 138.188705
-8.654974 -9.899805 120.256866
29.337673 7.513346 140.255188
-6.692111 10.852044 135.767700
11.221189 10.743177 141.101227
-21.612823 3.256660 136.610718
7.375419 4.136494 108.937714
1.793263 4.461785 114.531639
17.137939 2.452309 137.350479
4.850754 -13.194856 125.039879
6.202116 3.222789 117.630531
9.330760 -6.412696 140.414139
-15.168725 7.302001 143.074844
-10.667391 -10.384303 110.596046
4.011101 9.187801 132.971756
21.337027 3.260547 145.625885
12.522446 -1.969520 119.410049
-20.380402 -0.269782 135.577454
-14.330437 -4.682268 130.386902
-12.508821 -6.591657 141.272186
28.821560 5.738701 143.516708
6.228080 5.872279 146.994553
14.186225 -2.836180 126.201889
-13.979168 -2.784131 105.420746
24.744549 -3.188360 137.970856
6.711349 9.861546 129.351166
-26.238327 4.311231 144.388412
5.119648 4.437862 113.250679
28.487656 -1.331826 137.505020
2.189075 -6.640104 149.301575
0.450709 -14.788463 112.124489
-0.496473 -13.117738 126.568626
26.826115 4.116516 135.249786
-13.801121 -6.945813 122.823090
-9.896700 8.272346 129.755875
-7.533419 4.074260 146.177963
1.409371 -14.249080 116.609749
-8.421933 -3.788611 147.502518
6.411990 0.683082 149.246567
-7.768353 8.891919 141.499680
-11.600900 -7.984832 136.936432
-22.768948 6.846627 139.125443
-3.116157 9.947028 147.308395
-12.674392 -5.069942 123.535812
30.066227 2.963032 144.472595
13.530053 -1.220183 126.467422
4.607973 -12.331366 116.059280
24.738358 0.917049 144.256180
7.075265 1.908308 147.986923
8.653515 2.426046 123.666977
-27.862906 -1.238218 135.366959
5.575531 -3.926676 146.749985
-6.274037 2.736708 149.453278
-1.357237 10.318324 126.063683
-11.879441 -8.655591 107.871216
-13.102063 -9.150768 107.216042
2.356303 5.318059 149.485474
12.753244 -6.769006 119.986801
-10.951786 3.396694 124.234039
21.296679 7.110229 139.533173
0.714874 -4.354654 151.393494
-28.674913 1.269135 136.734619
-12.307873 1.422960 130.022842
4.791041 -12.901248 107.151894
-6.232580 -11.709461 120.527771
18.978746 -2.184072 139.036789
1.868038 6.974460 151.396912
11.304200 -8.022769 123.874947
-3.348231 8.099754 123.278358
3.393441 10.427823 138.766891
-19.429905 -1.960700 137.722000
-10.697694 -9.126097 135.692627
-24.439062 6.511869 143.259445
-9.100824 -9.887979 107.745789
-9.635464 9.995909 141.617676
9.093753 -12.104793 132.324829
5.314037 -10.193999 139.014404
6.020492 8.962286 130.358093
7.129155 8.925884 133.915176
0.298508 7.400582 151.166153
3.436405 -13.022742 111.053268
13.011398 -4.069758 114.810982
-17.246134 6.384194 142.839066
6.732735 4.624538 109.062660
-1.002250 -11.939748 126.689583
9.950489 -9.811201 122.428528
-13.979814 -4.327870 135.132385
14.655139 1.727094 133.632492
-2.502439 14.171668 132.267593
-10.112261 -11.442539 106.667923
-7.876805 -11.610275 110.002235
-7.053194 -12.881511 115.627014
20.077818 -3.248731 134.449356
16.709805 -2.224780 134.197556
-25.831371 4.836767 141.962112
-8.430658 8.998682 127.491386
9.701792 0.321475 115.803909
16.829153 1.221926 135.088272
14.937458 -5.783653 130.054031
-7.906305 -10.254621 114.434158
1.826031 2.893142 119.419266
16.921415 -0.798406 133.668549
0.476375 9.435927 150.299789
-9.439222 0.435307 146.335312
11.160979 -5.570663 139.910461
19.750036 -3.519302 141.039383
-11.582318 0.280031 108.873566
3.304698 -16.017746 119.364777
0.257308 4.897922 121.009666
17.599396 5.786617 144.857559
-16.162817 7.121870 134.717072
-3.421837 6.095437 124.052963
-14.403250 -2.437338 107.531769
26.493793 -1.367889 133.952423
11.322472 1.364487 109.502632
-13.559986 -8.608058 123.092018
7.951871 9.372014 137.553986
2.712908 -12.980781 112.132278
-5.132113 10.580745 138.625122
-11.765863 -6.804511 124.709976
15.234821 -5.499524 133.252655
2.592355 -12.548712 128.986206
6.521183 -12.852985 126.711769
-16.673292 4.074134 145.522034
4.152608 -11.602080 110.708534
1.512749 5.443562 116.515427
-23.952797 4.304905 136.684540
16.027592 1.587481 145.791656
-24.086884 -2.130240 132.926117
-8.392449 4.662313 119.379074
26.805340 1.644956 144.277222
-13.775500 -3.883693 108.780472
-20.908474 -1.300631 142.182220
-8.157324 -11.480221 104.629311
9.186245 4.044570 115.665436
-3.923074 11.289428 135.792328
-28.089331 -2.353631 135.971268
-23.026760 4.634006 144.919159
3.444352 -12.677856 133.116013
15.607763 -2.312531 134.197617
1.470968 -11.992244 133.572876
-12.080703 -10.556607 134.829819
1.457996 9.339235 132.617920
-11.932409 2.953370 147.325760
-2.526653 8.813877 136.907867
13.896388 5.646528 145.512009
-6.026682 11.442902 138.724792
-7.129375 -9.353068 115.083702
13.503510 4.585047 130.903168
6.127472 8.103270 128.090363
-3.797011 1.790794 152.991043
-8.667266 -11.146625 130.868073
-14.279289 -5.488816 142.012543
-10.602916 9.085270 138.870987
-14.792753 8.461323 136.807083
15.676019 5.192335 145.162964
-4.013852 9.870740 143.916916
5.996511 -12.722336 118.449120
-15.229189 0.125753 131.833054
-4.822073 5.196652 117.603233
-19.529730 6.860829 143.449509
-28.749077 -1.337419 137.904434
8.199298 1.038097 148.105209
-6.837884 4.047647 116.616081
-25.524546 6.081285 138.586777
-10.559666 3.792547 113.043907
11.847007 -6.944121 119.706909
-4.398365 8.438632 152.692276
-2.794881 -4.069201 149.256042
5.616716 -11.803894 114.325874
-0.543592 8.542576 142.144653
-0.678831 7.978664 151.348801
-27.260612 4.748527 137.147263
3.469272 -13.188483 108.473747
-25.281857 -3.471699 138.404434
-5.599288 -10.480852 112.454567
14.168477 8.247212 142.234299
11.266159 -8.838391 110.996941
5.489553 4.276541 120.374092
23.799431 -1.481658 141.143768
-5.540932 6.628221 122.546555
8.754861 -9.099613 121.244324
27.164959 3.323156 136.605972
-4.346266 -12.071092 117.634239
29.684103 -1.343860 139.657288
7.837305 10.650378 139.430847
-15.043138 5.759447 132.024017
-1.876183 -14.255263 122.276566
16.144558 9.452814 139.985321
-3.686741 6.128262 147.335312
-11.582765 -8.655314 136.518997
4.267251 -12.784894 111.994484
11.775917 8.702635 141.738525
4.113283 5.594997 113.910095
3.928255 9.173191 122.870003
23.218937 5.361474 144.312729
-20.577385 -2.889814 139.194382
-33.218060 6.272684 137.355545
-2.163050 -9.776742 136.937622
10.367850 8.303329 128.132996
-12.665617 1.160780 121.809608
0.719799 -6.955981 145.557800
13.850079 -7.238379 116.525101
-1.567633 5.470383 113.468201
-11.950362 0.833331 106.732559
7.468799 2.967825 146.774002
-4.852693 3.111812 111.885849
-22.216427 -3.711559 135.421112
-13.009502 0.734617 147.854874
5.697453 5.621029 148.178253
1.278003 8.659900 152.898178
5.394732 2.754445 115.000725
-0.719115 6.999442 106.789238
16.810890 2.246021 131.904373
17.269512 -1.953996 143.652939
-3.870618 -11.119391 128.424530
6.387631 7.222544 116.128975
-18.003948 5.552127 136.164764
21.397270 5.522940 143.218918
-7.250572 1.009821 152.642822
1.025438 11.164249 134.291916
-14.904929 8.854815 137.679520
4.321208 -13.419224 129.451538
11.281825 2.668044 117.826332
13.020655 2.952130 147.162155
-7.004630 7.822888 105.551071
-15.477940 4.616711 133.038162
-6.736231 -0.106810 152.702911
7.725126 -12.534289 128.398529
8.215135 8.681050 138.798859
19.059309 -1.857702 139.526352
6.771101 -6.064989 146.067368
-12.788635 7.220642 130.092651
-14.246922 -1.463829 129.127411
-5.409961 -4.088454 147.981018
6.630969 -11.476846 132.927979
12.372977 -4.220155 113.193954
-12.212893 -6.324656 133.318848
13.608822 -1.199239 126.738838
14.837480 -3.389964 122.738503
33.211418 5.373136 142.635773
1.202384 -5.700629 147.991959
7.801015 5.476554 105.323608
3.349070 7.418542 145.359024
-0.022496 -13.925970 110.683296
-11.622407 -7.997817 134.891937
-7.702923 -8.552347 139.019424
-15.243711 7.507168 144.458405
18.853205 8.123347 139.427063
-30.460598 -2.638030 138.518585
11.667683 -1.040169 110.780998
3.540294 -5.931978 142.836716
-2.966278 8.108515 122.493263
5.840720 0.154199 153.423340
-6.965287 -3.318486 146.149200
17.532200 -1.607624 141.766983
-3.158722 -10.835573 138.088593
-13.704337 -3.864697 128.904327
-23.302143 -1.796288 136.175278
19.510963 1.441105 144.849747
1.936074 -8.169707 147.584106
9.028050 -10.097269 135.225739
10.153167 -0.832896 116.484505
2.141629 -4.577381 150.115097
-19.344481 -2.551408 134.628967
3.738089 9.289045 137.707108
4.889529 5.658262 109.062798
25.386782 2.510839 137.943359
8.439125 7.358339 144.623749
-6.173132 3.425674 147.802597
28.278177 -0.597367 135.933075
9.002908 5.186163 146.065567
-7.075210 6.058553 123.942078
-3.373211 11.270535 132.415817
-3.704948 -5.217865 149.261841
-10.321254 -0.358014 146.365662
-3.444706 3.254065 118.638008
-9.748137 8.516312 135.330399
-20.640648 7.825971 140.432159
-4.874496 6.076997 109.753632
-19.345278 3.093014 145.144974
-22.909191 7.545429 140.645340
-2.983153 6.246714 116.074486
2.746044 -13.151844 129.408783
-4.046958 -9.632531 137.409256
-13.614278 7.227850 141.828415
-17.388697 -3.371085 139.432678
-13.977040 5.404846 142.678574
11.717699 -7.487723 133.436371
-7.937143 10.108315 136.848175
-12.534328 -3.210073 123.170410
10.116039 5.508604 110.830292
19.376146 -2.261947 141.101639
-15.668972 -7.863314 121.590393
-11.985035 7.331427 141.060776
-3.356155 -14.012226 117.500160
-20.462521 5.532559 145.235321
11.371226 3.374086 122.447502
-15.879212 3.425270 133.803864
-11.704082 -8.683044 112.620453
-26.041058 -3.548967 135.433182
-24.651901 0.483046 133.799561
26.001131 5.324573 137.192932
-0.739558 11.743196 140.642181
-17.839706 0.044790 134.271118
-7.306286 -12.902865 125.548553
6.043822 4.056142 148.137192
-7.581047 5.947796 148.130325
10.279049 -1.426011 148.456055
-6.571447 4.174529 110.244980
-4.458931 10.434884 141.684906
12.242045 -3.499989 125.279846
4.817211 8.169126 123.352913
1.582591 7.811723 141.670013
-2.751567 -14.567014 113.767281
-23.536711 7.697597 141.392899
-5.541244 8.002350 124.668282
8.914505 2.717342 146.558960
-9.346275 7.275280 142.515228
11.511931 -7.965639 111.400490
10.345061 5.303333 106.688240
-6.324929 5.955868 117.447105
27.099930 -1.449737 139.629288
-30.194546 -2.423529 141.809311
-23.495430 0.288265 133.725464
6.708253 -12.413866 129.139893
12.698006 -6.163333 142.038544
20.975447 6.046351 136.005157
16.909184 1.886784 132.783188
-29.282732 -3.021982 135.029755
1.032364 9.987101 136.460648
-27.129604 3.289820 146.007660
26.063936 3.460356 144.990204
-10.220798 -8.488502 120.622070
-0.009627 9.057470 136.309143
12.895179 -4.393282 115.803322
2.909000 10.888978 127.811470
-5.351202 -14.465831 107.457809
-7.778187 -7.752755 141.750412
8.940291 5.569913 119.941002
-19.084517 -1.475843 144.084152
8.643868 -9.770499 119.281578
6.505418 10.780071 128.181366
5.410922 3.273493 116.738564
-3.119780 5.873648 111.415535
29.345230 -2.194484 140.703522
-19.405855 0.441367 134.586899
15.969792 -1.336651 132.665451
-4.775574 -12.880647 129.562195
8.098028 8.384403 133.776550
-4.074634 -0.287077 149.447891
-10.259040 -9.087816 124.949249
-6.607345 4.489395 105.700554
0.175316 -13.677501 122.477890
0.403957 10.985358 133.987045
15.328526 5.242685 134.055893
-10.102663 -8.691101 116.101059
-6.299073 -14.205681 131.964752
8.933859 3.151457 121.751152
2.301538 -13.269416 130.593338
-28.701519 6.091738 137.367996
-16.827589 -0.450194 145.871811
31.202805 -2.362552 140.071625
-13.908697 -4.797004 128.168411
-13.236861 -3.075035 145.646271
12.194850 -2.288337 146.693756
10.626902 0.942366 111.649712
0.542094 10.792239 126.895042
-1.400085 6.316396 106.842819
-26.364676 -0.496813 143.950363
-6.737256 -10.263263 120.840286
13.424685 2.343133 125.704254
6.706826 -12.552694 127.126358
-13.697613 -4.628589 116.305458
11.727372 -0.713234 112.770653
16.149887 1.360099 133.429855
-0.896887 4.692796 112.659546
3.898855 -7.782122 143.445908
12.018797 5.963367 134.187943
-12.744823 -4.308877 106.327461
-14.527369 -3.732044 119.744080
28.909142 5.497253 139.387878
21.438852 4.650777 144.012939
-25.122236 -2.840286 138.373505
10.146925 7.157466 130.433716
-2.098051 5.960071 108.328392
-5.761472 -13.682647 127.488708
-10.033732 -4.559237 142.207642
4.579741 -3.333755 151.308929
6.782145 -11.993943 106.974731
14.191183 -6.816433 137.992172
-9.897924 7.772133 136.257339
3.167118 8.084886 124.370522
-15.206815 -3.775791 138.026535
10.449175 -8.117748 115.471428
13.883301 -6.058763 113.998520
8.641091 -1.562906 145.815109
13.889851 -2.757641 121.263855
27.315577 -4.117615 140.266571
29.330002 -1.217303 141.394180
19.008379 -2.186189 132.937256
-2.126101 7.811790 113.127602
9.790068 -9.997379 131.678940
16.359028 9.561841 137.692749
-11.827942 -1.404493 113.397064
-8.346372 1.485474 146.139236
-25.510462 0.629618 141.785217
12.162362 2.164322 107.641106
-5.804122 10.928309 130.612030
-4.466768 -2.509466 150.648666
9.382296 -8.108186 137.318817
-13.221381 -7.863916 122.072166
5.634287 7.547980 126.227928
11.033571 -7.975644 128.321381
0.322065 -10.016684 143.644379
8.204798 -10.832488 134.827621
0.495226 -13.812552 113.156448
1.315925 -12.780987 127.518112
10.243254 9.250811 144.825363
-22.508303 -1.581992 134.493500
-13.805561 -3.622639 125.157356
11.760572 -9.571826 106.600784
-14.731796 1.135277 130.199142
5.784084 9.458638 140.407364
10.055624 -2.815449 145.991348
13.697062 2.605202 128.373413
8.716148 -11.619617 128.232117
10.028794 5.294347 104.135139
-14.473458 4.454330 145.289795
7.350384 -1.264611 145.198425
-2.230898 6.950738 122.236984
6.297570 -11.954227 120.894974
-0.450284 -13.203667 108.878807
24.960064 6.713565 138.843796
14.511294 -2.576033 125.002365
0.427168 -11.275764 114.012299
-26.296354 -2.448628 138.740829
-5.838219 8.767091 142.960800
-15.275894 6.442778 132.380966
1.048013 11.258100 135.222687
-17.060215 -6.513548 137.591949
33.855110 -0.299359 143.694565
11.853829 6.413815 130.515350
-8.874212 -3.593415 146.901520
-2.920931 -14.283279 110.295853
6.573536 6.902968 143.609756
-0.801896 9.364137 141.425171
0.669747 8.764526 148.860550
-9.347833 -10.761179 127.023315
17.245790 7.040726 137.647186
1.413706 -10.812908 138.128891
9.109310 -11.771914 128.038971
-21.346256 5.420990 142.368683
-12.168541 9.113997 140.112595
6.976431 9.162446 140.291580
17.609425 -6.752218 142.891937
14.357978 2.854771 130.854416
-16.069876 0.725960 132.559525
19.021988 -3.207249 143.639069
-23.217367 3.125224 144.276871
14.883125 -2.110008 145.806808
-12.170539 -8.281192 111.636208
27.896381 -3.261446 140.593552
20.545767 2.605043 135.505219
26.403360 -0.214469 143.639313
-7.852933 4.382049 147.321243
-21.385572 6.619404 136.755402
9.394523 1.550557 109.071190
7.675014 -0.841235 149.223801
17.139076 7.464715 140.785858
20.554283 7.024701 142.859192
-23.367964 1.393663 145.255569
-4.240874 6.495776 148.142502
2.896645 -11.191991 135.064926
-27.474388 -2.341785 133.576187
-4.646760 -12.399118 130.392487
-16.304279 -1.491471 130.785309
-7.177499 10.647017 136.163101
-31.825245 2.266548 136.502411
9.997878 2.568390 115.494240
-9.441613 6.382323 146.888809
-0.026753 7.355246 152.287476
7.449361 10.694141 136.038971
12.817660 -5.211096 117.265617
-23.465778 1.555920 147.111954
9.880781 9.040174 129.503769
-4.481537 2.682654 112.728989
-9.177568 8.870093 125.178246
10.275609 9.164497 141.444962
-30.195236 4.798225 141.376892
2.385611 -11.818462 135.887070
0.503872 11.211429 131.227875
-13.373794 0.001101 129.470001
16.258284 7.254597 138.459229
5.243747 -1.293945 147.548172
10.640749 -11.787700 128.113678
6.680923 9.006127 135.105118
-2.082399 7.139943 149.368256
-16.905195 -5.281998 138.840912
14.041824 8.079932 140.415436
-13.250261 -7.596300 111.396980
-0.155225 -11.871565 107.495743
-2.973753 -3.484295 151.545975
-5.052032 -9.345767 135.822021
-24.274370 0.739655 144.142197
16.461523 -2.984528 130.360367
15.654742 6.359354 141.862442
12.001908 8.728207 141.501266
-10.953806 -7.325589 141.517838
-18.595011 3.445755 135.759598
11.333275 2.795700 143.880615
15.926100 -0.425085 133.087173
11.135388 -9.099888 140.209732
-12.404325 0.734821 146.330643
-11.431338 7.319252 141.488770
20.690008 -0.708859 133.371216
8.237968 4.718106 109.218040
-1.012833 6.376997 117.007477
13.468673 -3.281833 114.903969
17.348808 8.383969 140.579437
1.855171 7.732438 144.567291
32.051197 3.326395 143.621155
31.506243 6.637908 134.727859
-15.596248 7.730888 139.210800
10.202335 -4.089885 142.933517
-3.728924 -9.793611 143.200439
-10.960166 -8.846427 127.323891
-8.651845 2.760650 116.236435
-30.185396 5.071535 144.296799
9.147367 4.726694 124.365227
0.671608 5.681093 105.945274
6.890542 10.573118 135.650146
5.530070 -3.357728 146.939606
-2.160181 5.400287 152.843353
-6.074188 -0.576788 149.134155
-7.775493 5.195986 106.070160
8.897760 7.706220 127.944405
3.670345 -5.161338 150.248871
-9.649612 1.674729 117.982903
-18.846357 6.543086 144.742599
-5.152338 3.767361 108.874237
-1.027670 -13.230299 114.687721
-26.338881 4.332055 144.931381
21.456293 3.960449 145.992737
2.133023 6.356257 117.391434
-2.820161 -1.822847 148.227982
-15.067222 -3.028932 124.311668
32.344162 2.209072 144.188248
3.462645 9.208987 137.219330
-8.157603 3.707423 111.040123
13.716636 7.486653 135.410110
17.652842 7.422783 139.174469
-20.535971 -2.458992 135.653946
4.218293 3.357905 149.717484
-11.625374 2.075721 111.966446
-11.293692 4.079601 145.579651
-3.980539 -8.728728 141.046402
-24.799587 6.043347 136.528671
-23.086775 3.588368 145.131454
-12.076486 4.928270 145.955429
13.625443 -3.366549 144.652664
1.590113 10.772302 135.062561
1.633233 8.705131 135.954361
11.738700 -8.529837 128.685974
2.658057 -12.316816 108.659073
-11.043922 -9.201247 110.725655
11.685562 -0.053261 122.118904
-23.213863 1.038409 136.001434
-13.993252 -4.966740 117.185516
-5.882146 -3.182336 152.381744
30.480371 -0.670070 142.572235
-7.392515 10.172423 142.143524
2.637866 -3.999262 152.409378
-0.006699 -7.177920 147.436325
7.125857 -11.900221 127.703033
4.927597 8.430863 142.398056
-6.548620 6.241636 119.577347
-29.897551 6.209049 144.321091
6.990823 6.719409 123.476395
-8.428226 7.932835 126.901169
-8.368436 1.685440 112.324966
27.893263 -1.143119 142.792892
0.516431 9.549997 125.126923
12.031904 -1.598022 123.866455
12.542918 -5.631464 141.351379
0.479105 10.618231 138.272491
16.305908 1.467158 134.585297
14.015616 -6.209707 135.375778
-19.232725 7.103943 138.823380
-4.215478 7.505774 125.942970
12.758704 8.305512 143.759995
-7.856462 5.069519 118.240448
2.740165 -9.032968 136.343262
1.167486 6.675384 122.333023
10.701079 2.651479 105.790604
0.600172 -12.264276 113.235352
-16.286777 4.029137 133.911728
14.005812 -5.161989 109.738281
0.918903 -13.190426 116.898697
-3.372333 9.801178 126.543190
3.219426 6.947412 144.617569
-15.195456 3.899748 133.938568
-8.956947 -7.807330 138.367950
3.114737 -12.346800 120.133568
16.233212 -0.203414 147.072998
10.173964 8.187022 133.364410
26.637445 1.655956 144.265457
-14.104342 6.971253 137.079758
13.883995 -6.799615 130.556274
23.025171 1.111718 135.254318
18.158588 8.662117 140.697266
27.065609 -3.020493 138.374557
-12.573680 4.281808 108.975258
6.369253 6.552077 124.782753
-7.340817 -3.389859 147.024902
19.052328 -4.288731 138.650223
13.737201 1.854874 146.779556
-2.198955 7.867821 123.892982
-3.080679 9.196925 139.771362
7.431614 -4.417319 147.873093
7.135789 -10.176379 117.736404
-3.700293 5.969387 111.380295
-12.712621 -2.542790 124.091179
-14.532615 -4.054652 124.724991
-6.228728 10.770006 129.343262
6.873456 -7.350150 144.133865
-9.750347 0.127488 147.212723
26.968863 0.334870 134.416580
4.545371 9.478294 134.241302
-2.642477 5.924994 117.768761
-28.063635 -0.399338 144.742126
-9.125938 4.728246 145.448273
8.688011 1.965135 122.198700
-8.764862 -10.361617 127.767525
20.562017 0.433131 146.582916
-31.510353 7.993421 142.819611
11.792777 5.231882 128.239349
-1.179381 11.579735 142.032364
-2.601562 -6.644470 145.458618
3.657720 3.827229 115.153709
-15.528861 8.573548 135.248505
17.215244 -0.811077 144.722763
-4.480153 6.278670 151.943909
-12.384193 2.572426 108.432175
-4.972560 -6.201142 145.707794
-12.852968 -2.264328 124.915451
11.017880 8.404709 143.656479
-2.284236 8.553813 147.157776
2.230112 -4.266003 149.563873
-6.826943 -9.309717 142.756302
9.362435 4.570727 115.073914
-2.061286 10.793530 127.954414
9.760818 0.538247 113.933601
9.669239 -8.414130 140.111389
-22.561878 1.757852 145.075531
-8.413603 -4.774250 144.741760
32.317764 3.057500 145.082855
2.594429 5.744902 118.553314
15.905716 5.982761 142.843460
-4.645235 8.794732 136.860641
11.402787 1.386695 126.010216
-4.287994 -14.821329 121.806572
-8.267062 8.371342 146.328186
-1.671449 -5.944240 149.496826
10.142148 9.674086 144.845581
6.393882 -11.256171 121.016243
19.876858 7.800279 138.751022
-7.713926 11.005793 132.148376
-7.613571 6.273601 121.434792
8.192084 2.086488 117.335373
-6.640717 -8.339583 141.319168
-20.439276 -3.201317 141.745010
-1.380296 -11.996552 134.367889
-30.563406 -2.315511 139.900711
12.449745 -1.794369 123.193558
5.578973 -1.003312 147.454025
4.057781 5.376555 107.726624
8.098542 -10.400515 120.051079
-20.115191 1.752069 133.854462
21.651428 -1.244951 133.270828
2.065137 -9.654561 138.188705
21.568092 5.147529 135.888596
32.044849 4.588401 143.748047
-8.903620 -6.194232 141.469009
22.972927 0.910855 145.672226
0.127769 5.128239 118.757278
-6.447701 -10.322474 140.615372
8.503466 3.346362 116.399620
-8.269997 -12.444562 107.888817
9.545713 5.035586 123.378006
