ply
format ascii 1.0
element vertex 2048
property float x
property float y
property float z
end_header
-16.338722 -2.850446 139.144348
-8.297010 -1.607775 146.623901
-14.470026 2.751866 151.641678
-12.784706 -10.303968 127.343712
13.302581 -5.669162 135.641235
-10.107382 9.738657 131.000504
14.992457 -9.668333 130.667694
-3.048168 -11.856114 127.547928
-12.566607 -4.792779 116.089745
8.341450 -2.471690 146.278519
12.868826 -3.087697 144.757614
15.706419 1.363745 126.660820
-3.837978 -12.453841 137.063965
9.595133 8.447960 127.861877
11.676626 -7.402747 118.339188
5.567592 -7.465299 140.937775
14.380730 8.692680 136.893051
12.204753 -4.113382 117.909462
13.934296 -4.426196 138.926422
9.500209 0.405523 148.907059
-4.785640 -12.288830 133.501724
-8.596572 -3.976180 146.143250
-15.291946 5.274693 127.288933
13.493767 -5.386548 140.552933
-12.105338 -8.784451 126.448242
15.930932 1.739528 151.124359
-16.262705 5.648348 130.962570
15.218292 -1.480642 138.243164
-1.901176 5.550516 117.068245
-10.856875 11.860046 148.425430
-3.911640 12.326547 132.820160
11.801183 2.772152 151.079559
-14.901258 11.315507 140.678711
-5.610900 8.216895 121.828186
-1.711942 -12.800918 119.603958
11.197457 -3.423778 144.291779
10.426798 2.044330 119.477623
10.410200 -11.848806 126.297562
-13.140094 -6.103574 139.747803
1.870666 12.921073 138.552139
-10.796672 -0.881640 149.103317
10.128518 -10.861568 139.292038
-1.329200 9.184791 125.711060
-16.211586 -6.645622 131.754715
15.584476 -1.157527 125.031975
-13.390255 -0.372190 123.062439
-9.598576 -10.230629 119.834724
3.138283 -13.097905 122.943405
-9.455317 -13.000093 127.399788
-10.339564 11.497411 149.014618
-10.398171 -12.560358 127.221024
-4.322298 9.888808 128.118286
14.776423 -8.602372 135.427002
-13.389956 9.351551 148.473419
-5.274848 10.656981 129.654678
-12.196121 -6.582768 118.740540
10.463464 2.737662 151.290894
-4.716666 10.609947 132.183212
-13.830006 11.105400 148.681335
15.129830 -0.000019 151.338730
-14.555275 -1.947146 124.839172
13.360968 -10.079722 126.825188
-8.238788 9.027943 127.122620
10.605353 10.901454 146.482132
-12.145783 4.144541 123.646820
-15.018634 -1.150655 134.969849
15.027592 10.788831 138.796555
13.303775 3.358785 153.557175
1.007437 11.921958 137.624084
-13.532995 -2.943820 115.316574
14.390255 7.589138 151.346054
10.574422 11.612238 146.167175
-16.767464 -2.195710 130.836304
-5.255763 -13.041749 132.220566
-11.121114 0.720452 116.372383
-11.929979 1.316216 150.020950
4.241675 7.307328 122.140602
-5.003363 5.726798 116.859245
3.009563 7.174786 120.289719
7.198109 -11.542600 115.126938
9.381045 -3.147287 145.624634
9.566016 -9.335220 117.992126
11.357376 11.017393 135.506027
4.443087 11.093481 127.925262
-7.657944 0.337278 150.145340
-11.836320 8.109790 126.287773
-13.801809 -1.158642 149.283203
-16.095718 -0.502057 129.269409
-15.223627 0.245899 126.406967
-15.445169 8.328097 135.532608
-15.847579 3.169646 133.288864
3.508374 9.945707 125.353683
-15.079412 10.581889 142.680252
14.448298 -3.796816 130.046448
-12.260717 0.857287 122.965088
-7.944735 -3.530601 146.161331
-8.633632 -6.846677 143.083054
-1.957399 7.336394 117.574242
12.740856 -1.134212 115.418259
-16.279837 4.198058 139.803711
-4.870683 6.038832 114.452110
3.352974 -13.016804 125.161957
-6.913155 12.605794 140.149780
-1.685933 -12.091581 117.755394
-15.473648 -0.757386 122.933975
4.295898 -13.189287 134.636337
-9.622190 1.825621 117.564682
-5.772661 7.291707 122.157753
7.114903 7.318615 124.785660
9.162689 -12.849681 121.631966
-4.831443 -12.547240 138.884857
6.256139 -12.897779 129.390442
1.369451 -10.587024 139.771530
9.778193 7.029243 125.497925
13.006069 3.461581 114.216011
4.883673 -13.874902 127.625137
-14.669800 -6.194630 135.464951
-3.958840 -7.839905 141.936157
8.093124 -12.753314 129.688080
13.675283 11.389617 138.929642
11.990802 -5.181151 143.116867
3.851829 -11.889627 126.553551
-14.790802 -2.256078 145.006134
10.726337 9.772246 131.599106
-7.557559 -12.428818 137.979462
-13.423578 -1.138485 147.010025
14.273470 -1.053372 150.034195
-15.382522 -1.672425 137.677750
1.702834 14.241074 142.112000
-14.338530 -8.639109 134.067047
13.578343 -3.650975 138.935135
-1.091494 -13.878839 128.099182
-15.985282 -3.209147 127.192299
-12.009970 8.816954 132.462112
3.653920 8.628463 112.517807
12.740559 -4.482182 144.479736
-12.906942 -3.707490 113.654427
2.363964 6.669287 118.256638
-6.069776 4.800949 116.095345
-12.417680 -10.428751 136.770844
9.844232 -8.309800 141.501678
10.232889 3.630447 121.852028
-14.502905 5.277238 129.353561
16.643827 5.175231 131.834244
16.919605 0.633034 127.414474
11.039937 9.707073 127.945831
15.496267 -8.043434 123.458130
0.867181 10.852522 127.414696
-13.061552 7.469945 133.325546
-13.047790 5.872175 130.274521
4.129001 12.154408 137.079453
-11.403928 10.146665 130.739853
16.703835 6.360003 135.452164
-12.389709 -2.790820 142.834122
-9.650076 4.182215 122.969162
-11.248215 10.768123 135.935272
14.138308 -2.838257 121.068100
-8.079006 11.071425 133.033325
-9.273542 -9.925015 122.169006
3.217561 -12.145340 135.665909
-6.256400 10.424068 131.881287
-12.378651 -4.751174 121.679001
-10.067722 -11.613762 127.018219
-12.595823 -0.439820 121.244812
4.460402 -13.743842 130.461548
-14.378908 3.862605 153.146332
15.238945 -3.030164 124.147415
-14.025428 -2.873829 137.077103
15.791986 10.535214 141.081909
-9.763326 -3.099598 146.515671
-18.125885 2.578408 135.390839
-7.247819 -12.895576 134.075699
1.395216 -12.442804 123.653053
10.465242 12.048247 144.001648
-12.217529 -6.955664 141.372070
7.140949 10.645776 130.189316
9.509511 -3.667482 145.934296
16.213905 3.123057 151.466995
11.812491 -6.848172 139.272079
-6.521932 8.211648 123.601234
-16.327795 1.511681 135.695602
-11.184361 -7.767297 114.530449
16.265682 0.440860 125.497658
16.697479 0.217945 132.743744
13.052700 11.231872 143.245010
13.618560 -2.961271 115.993225
11.210962 1.982372 150.387146
-0.757248 8.328854 128.525894
-8.625719 -12.176597 135.615128
-14.000424 1.708298 150.260986
11.509438 0.207899 117.507271
-11.055859 6.413305 128.383392
-14.062973 -10.208923 133.549271
-10.371191 11.444888 134.715073
-2.295618 -11.850929 124.450432
12.452785 -10.361335 125.143059
9.880355 -5.466154 142.585419
7.914949 4.839688 120.890388
9.514045 -9.370570 122.734055
-7.502655 12.263903 136.691116
4.605892 12.263265 135.159515
11.167507 9.370793 141.169556
-15.241084 -5.003552 139.318222
-15.191850 8.343470 132.385040
11.520055 9.817047 131.638916
10.870883 1.154984 120.044998
6.892535 -12.383740 124.220345
-10.942404 12.241914 137.354279
-0.831112 -12.187866 117.938339
-8.953798 4.712991 114.059547
-4.790367 -10.929846 121.028961
-16.898645 -3.350873 130.025223
3.200977 8.882644 125.770317
15.094132 -1.623279 136.865494
-2.315392 -11.895608 120.508606
-9.666096 11.434856 134.529709
3.106287 8.864150 127.118042
14.700977 -4.132821 139.801743
13.086105 12.301672 145.954788
14.787014 2.776195 127.805008
-12.066323 4.127361 121.314034
7.587592 -10.724512 119.086617
-12.117723 7.573538 152.372101
9.751040 -5.854043 143.200928
-16.003727 3.737855 128.218094
9.228675 -10.763988 122.224846
4.629554 5.617428 118.445641
-10.799585 3.638276 116.371529
-15.542876 -3.191594 126.357399
11.901358 -11.594410 129.500076
-2.797202 12.610155 139.716354
-10.297785 2.506972 113.161217
7.453160 12.624503 140.471573
3.770693 -12.684610 138.128983
13.459943 6.404727 151.915863
14.680531 -1.567322 137.319641
16.062580 10.888486 143.953278
-13.447374 11.053651 145.629578
-1.673066 -8.285587 140.799057
2.240158 6.880580 119.463341
-10.774570 -11.126835 129.780350
9.227474 -13.292028 131.400391
-3.399195 10.469495 127.716866
-7.103305 -12.960993 127.304436
-15.993454 0.870076 136.806671
-8.757815 2.225534 151.976685
-1.177920 5.659671 114.822449
-8.811844 -2.148908 147.728333
-6.529823 7.116315 121.622757
-4.444320 6.401640 119.523987
10.434868 -2.921165 146.316116
8.770389 0.264718 149.894379
8.355890 8.952464 128.196609
10.492991 2.644600 119.109001
6.897677 8.872528 123.018448
12.938863 -2.456978 116.182976
9.294885 10.888860 134.253815
-5.623506 -14.023337 133.068436
10.668269 -8.731647 139.587234
-15.990080 9.343647 139.334366
-6.648541 4.358767 115.328072
-10.496264 3.525334 110.898346
-4.948763 4.978532 117.873207
-3.918447 -12.389007 118.222275
9.617326 3.480685 114.737732
-7.547582 4.987701 117.483002
-11.679961 -9.621002 123.644554
14.122945 5.217614 132.576599
10.715963 11.911944 138.751480
8.891723 -13.304514 132.107635
-5.847258 6.492294 114.062759
8.479040 11.246490 134.541885
14.405723 5.799395 133.871658
-15.054084 -6.872795 134.285324
-13.226220 10.110226 151.343796
-12.918526 -5.782454 125.985832
7.133422 -13.405676 135.213104
-15.763801 -3.013112 138.216095
11.976531 10.978661 147.283707
12.515149 -3.030560 141.277969
6.725409 -11.070508 118.206619
-10.165759 -2.871986 144.108109
-12.078897 4.904629 151.276169
12.219696 -6.978606 121.068832
11.390892 12.301913 141.928711
9.948852 5.375085 126.649216
-3.212723 6.927193 121.351936
10.615146 11.824288 138.762985
-12.723644 -3.384097 144.365555
9.929024 8.381330 150.862366
-15.665790 5.487934 137.565186
12.387815 -5.817850 115.424171
-11.978330 -1.321040 146.674377
-12.428610 -7.671887 127.559517
-9.830159 3.959974 122.192825
15.909257 -0.011407 132.907410
0.965429 -12.230522 131.618454
13.846186 5.794826 125.729599
11.385515 0.782856 150.913330
-11.859165 -7.595422 113.718079
3.026740 5.348072 119.789536
7.993656 9.182059 129.176605
-10.766958 -9.791081 118.143059
13.496338 -3.050310 143.895248
15.430188 3.921114 152.562149
16.301620 3.375048 128.358475
7.102766 3.930693 116.019257
7.593521 -3.367680 146.792404
16.981274 -3.657312 130.683243
9.164588 -0.491147 146.864227
-12.893527 4.804603 124.233963
-14.489910 -7.381529 130.997864
13.124999 1.110521 149.091782
-9.725459 3.370414 151.678116
6.818989 -10.390352 126.494682
11.960261 -3.234708 119.149635
-14.286494 4.084120 151.484253
14.212635 5.901575 151.940689
15.519035 -5.290965 135.276459
1.423007 -12.721639 128.782669
9.055441 4.882853 124.331650
-13.154223 0.677341 148.948654
-12.287955 -4.884722 118.775826
-12.044457 -8.194363 120.615685
12.419757 -7.692834 114.420860
-2.261260 -13.302697 134.918594
8.673790 5.632764 121.841492
4.021917 -14.004410 135.620193
14.277143 7.242094 151.599716
-12.365174 -10.149852 135.492889
12.388760 11.248140 147.950058
15.495916 10.245941 140.960342
-12.417225 2.882413 121.476067
-10.012369 -9.867563 117.733612
11.616937 -3.364544 144.778015
-11.647198 -1.908478 144.556137
13.162275 7.664253 128.259811
5.533247 -13.085796 130.579758
-12.458725 -10.987039 130.493851
10.421576 3.750600 114.657295
13.172475 -7.569890 138.864090
-10.554112 0.237185 149.641800
10.490955 -3.716374 144.988770
15.270533 3.567869 129.207703
-17.064493 -2.261636 128.370377
12.035736 -5.828389 142.128296
-9.819736 1.002330 150.368607
9.506630 8.539791 149.910126
-14.356212 -6.207712 128.705963
2.117748 -12.388520 131.343109
-4.544342 -13.164262 127.921204
13.047503 -6.043362 117.426224
-9.586406 5.699911 152.448151
-13.917933 -4.568783 121.863426
-12.112447 -1.717909 147.965714
8.490635 -11.166449 125.991447
15.037140 -0.964096 149.000824
-8.580766 -7.948346 141.527527
2.280674 6.063627 117.135132
-16.179979 2.714677 137.334900
16.671095 9.559438 148.773224
-12.773969 -4.231370 116.409462
-11.869252 0.429797 150.371628
8.585899 13.340364 135.701218
11.472974 2.338228 120.114822
-2.883099 5.300517 114.299492
9.131846 10.773973 132.407440
13.049911 7.821782 130.810333
-12.953594 -4.485163 118.460495
14.523884 6.221678 133.336395
11.223896 13.305093 141.414581
10.575654 -12.318164 128.099991
1.086795 -11.927430 120.196213
-15.981928 -6.579338 131.204788
5.367843 6.614302 116.961845
4.707115 6.809932 115.909767
1.563373 9.647111 125.887741
8.205791 -13.360319 134.973312
8.653799 9.084851 128.841934
14.628784 10.299212 140.384872
-13.875684 -10.237633 133.227722
-15.240334 -2.842808 128.990860
5.061331 7.636971 122.869431
14.108080 3.071097 124.609932
-13.403731 0.235899 122.724808
-3.818257 6.735120 119.014809
-2.245841 7.006903 114.161400
11.795734 -1.019145 147.734207
10.708982 9.514699 149.112488
-14.209756 -9.096968 130.238815
-5.534643 11.247515 135.148865
3.547635 -12.741423 133.054642
-11.364717 -7.675310 116.524246
14.222783 -3.192715 121.467354
10.301752 -4.914793 144.299911
-5.755993 12.395707 133.235733
-8.015872 -10.557203 124.234970
12.747133 7.164443 150.602051
15.813650 6.972918 136.378372
-14.001031 -2.749108 122.928749
13.161657 -3.536393 116.790733
-9.884750 8.904631 150.311035
-8.683257 -7.058609 141.367111
11.545968 3.325086 151.585464
16.368948 3.162501 129.938858
-6.129910 12.641299 137.857956
-2.535491 -13.089789 117.619057
4.841542 -12.841029 125.046150
-6.747515 5.537639 120.924339
16.385693 7.899104 137.779129
-7.104068 -11.027960 139.602203
-12.532528 -5.886850 117.658707
14.106900 9.081711 134.640121
-3.847707 12.659505 141.187927
-4.765697 6.700759 118.770073
17.187927 10.081604 141.199524
-15.348285 0.783215 126.283699
-12.346648 5.048443 125.926910
16.958626 8.012104 136.571045
-2.370896 -12.838506 126.648697
15.926295 4.093084 130.732452
-0.899827 -11.886212 119.940430
16.454878 10.846292 145.527405
-9.789650 4.080384 117.527107
13.339667 8.610466 135.026749
11.548317 -4.713486 142.137863
-11.458807 -0.697037 148.935501
6.428383 -5.295197 142.298706
5.202006 12.136860 132.960205
0.203376 -11.046655 136.141174
9.126015 3.557752 117.959335
-12.030922 -8.340865 124.113136
8.219535 11.854258 136.908310
13.577261 1.511224 150.899261
-14.359759 -9.348720 135.478271
4.176311 -13.722267 129.442673
4.342165 6.772261 119.152763
3.664577 5.605281 114.935364
13.210371 9.745942 135.264343
2.239430 -12.023603 119.430191
-10.332426 -8.665907 139.650330
-8.575149 4.487242 120.425659
-1.875992 -13.710513 122.629616
-7.940068 11.266989 130.735245
0.254464 -9.891912 137.889282
-17.285133 2.680606 135.226303
1.982789 -13.271797 127.660660
6.665226 -14.110802 130.928268
-3.975910 -12.656768 137.817093
1.299860 -13.908627 128.828430
9.078644 -3.182645 144.699234
-10.267983 13.036102 147.137619
16.436354 8.344770 149.527893
12.026737 11.502118 138.533554
13.543136 10.767545 148.306305
11.266614 -6.724688 121.750191
13.810127 -4.536248 120.814514
-9.032118 1.473775 152.217117
-13.125502 9.650925 150.268829
-12.956706 -11.709079 135.040726
-12.176471 2.307300 114.671684
-10.744792 10.999827 147.866302
4.092431 -14.435246 130.385498
7.612469 -11.029509 113.816452
-4.678491 -13.398927 132.517944
-13.712875 10.895444 141.783813
11.333827 3.352563 115.206215
6.554654 6.934385 122.701973
14.882561 0.173318 126.279716
-2.511917 -11.740232 116.545937
12.267319 6.530367 128.261780
-16.367908 9.987463 143.711060
-13.511082 -7.456287 126.893036
-0.946850 13.341468 138.150345
-10.035484 1.404344 150.517410
-2.453886 6.202901 114.098000
16.284121 -2.966052 123.010353
-9.183513 3.872946 152.811340
6.083290 12.848874 137.598618
12.521248 8.543765 130.981369
16.129055 2.324371 134.950714
-10.444995 6.916906 153.202026
10.328165 -4.539784 143.415970
0.396020 -12.856226 121.102348
-7.305335 -1.716738 148.607315
-7.152555 -4.285239 146.022354
13.713806 -2.650509 140.795731
-9.931818 3.525229 114.943489
10.062773 -7.278066 139.565765
8.249041 12.449463 140.425690
1.954972 6.379107 117.988930
-12.357135 -0.013773 120.803436
10.113230 -2.599809 145.926514
6.854378 -11.714757 122.573540
-12.198338 -7.909173 121.291443
12.785067 11.443356 146.787552
13.724855 -1.058392 149.521378
4.487822 -12.941393 136.879135
-12.324157 -4.940010 118.981186
-12.950747 5.052272 127.517242
1.873584 -12.727686 119.907524
6.223649 -14.227370 130.066757
-5.855523 -13.909181 128.713715
12.652180 0.426451 150.110336
-16.169264 4.738908 135.887955
-13.118799 -10.370186 131.907272
-15.454404 -2.128336 139.046066
-15.864454 7.661111 151.750336
11.921219 11.288611 144.693329
-12.326180 -2.495961 143.010468
6.005854 12.471032 137.435150
9.651922 3.514610 152.184998
1.944743 5.300031 119.631897
-18.299610 6.020900 136.058212
-12.543406 -0.348568 119.558243
-5.339733 10.132738 129.791046
-11.931204 4.519776 126.148140
-15.675226 8.666574 150.231995
9.974611 1.792397 119.429947
5.575991 11.457926 129.355835
12.700864 8.416185 130.092133
6.914412 5.883590 120.756958
-2.013945 -11.876958 132.542465
6.438848 -13.595016 135.651642
-9.114316 -7.659157 114.587067
11.403749 -0.666161 148.616455
-8.381177 8.816665 128.697815
2.549442 -12.002705 115.584839
7.364910 -2.736057 149.747375
-13.671240 1.235588 149.921204
0.807883 -13.394391 115.376648
-9.053538 -10.300606 138.752670
-7.356783 4.466232 119.670662
2.221209 -12.946473 120.744614
3.825508 10.331241 129.760880
10.788224 -12.680545 134.627213
-10.167551 2.968121 151.929626
16.330610 2.400008 126.730408
9.193058 -11.229423 122.501610
-12.362595 6.655631 152.278320
-15.021154 2.236963 137.673004
-5.229297 12.964090 139.756836
13.999919 -1.535763 123.070900
-10.264898 12.292811 139.748871
-12.388680 -11.454535 134.932861
9.263034 -3.508601 146.051971
-13.903350 -3.347450 122.357826
-1.078481 6.377314 121.226883
4.850474 -14.063087 132.758987
-13.402460 -4.130248 124.728622
-0.960420 -12.362394 128.495056
-2.644406 -11.604598 127.028175
1.003435 -12.387700 123.903717
11.268308 -12.273672 134.699966
-9.401007 -13.053440 128.680649
-12.157790 10.288869 148.411011
-14.290015 -2.612939 136.593079
0.587303 -10.546230 118.587479
7.576822 12.512796 131.883652
-1.024158 10.613616 127.321899
-13.214147 -8.092678 124.056969
13.831749 -12.240939 129.855927
-7.179826 -10.761587 118.066010
16.022573 3.749668 131.748978
-7.657500 -11.478470 120.316246
-5.972402 -11.328177 118.244446
11.391275 -14.298746 133.666931
-12.216425 11.242377 141.368393
-12.179516 -6.379287 115.105888
10.681457 -8.639847 116.828712
13.348885 -3.552638 117.855331
-2.735626 9.138405 122.557045
-12.427154 -4.120691 121.730942
9.282043 -1.335794 147.250061
12.747509 11.090535 146.852264
16.518585 9.433146 143.168900
-13.766348 10.773832 142.160400
-11.040359 9.777422 149.321487
6.559736 6.850002 123.425255
-4.510736 9.534294 128.811493
0.030702 10.332811 133.161346
-3.873802 -11.980776 134.149094
12.879734 -10.624950 129.913452
16.628796 1.765702 136.398178
8.838466 -13.358514 133.806030
6.536827 -10.644373 116.943718
-14.277568 0.122861 150.397964
2.511460 -11.463658 115.989967
-14.122949 4.306323 151.336777
-4.194077 -12.164250 117.862663
-13.443754 -2.474818 146.602539
13.090231 -8.182806 121.781067
14.746457 7.001670 150.386414
15.128310 -8.125485 136.077957
-7.443578 -13.414939 127.399406
-13.553770 -9.474985 129.502625
-2.474355 12.698426 137.467468
-8.835252 -2.132705 148.783951
-8.760198 1.928482 149.969086
16.355997 2.691533 128.020538
3.749788 7.799610 121.570068
1.073047 11.626953 133.901505
-11.963356 5.483356 126.009766
7.373063 4.608371 116.065781
-7.332586 11.423894 133.890152
4.726950 11.829866 132.289062
-13.518288 -1.887641 146.408096
-11.892022 -8.363349 115.584076
12.274915 -4.665740 115.772171
-11.889851 -8.215048 117.945168
12.336307 9.374122 149.312714
-13.499660 11.530786 147.344177
10.577964 -9.409494 118.158684
-7.887661 -11.374979 137.496109
11.964137 -8.072454 118.804375
-14.787824 2.947596 127.257744
-12.970566 -2.888746 143.213852
15.293645 -3.109703 135.627853
13.695928 -3.092900 122.828369
-12.627022 -6.285910 128.258545
14.921499 -9.940356 133.571564
8.115819 4.636378 116.191177
17.555002 -4.271800 129.329971
14.589020 11.306606 144.379456
9.355216 11.772014 143.011353
-1.206854 -12.145529 120.486824
13.262690 0.769063 116.066307
-10.532910 -10.907788 127.541283
13.610126 -1.346565 118.171112
-2.458034 -12.828362 118.017014
10.926428 6.151841 124.311913
10.074409 12.361821 140.574310
-10.436543 2.671756 118.886299
-13.985574 -2.381969 122.431122
-10.837131 9.730323 150.414703
1.717872 12.534150 133.986649
-3.178577 6.121110 113.615379
12.916761 -9.501592 124.454300
7.340374 -11.647593 122.043068
-13.448556 -9.585605 128.923523
-10.087518 12.234033 141.859055
13.841595 4.300322 125.445854
-6.126639 5.668049 119.342880
-15.612936 3.400113 130.718155
17.777901 -0.377418 132.999924
-2.651061 6.179851 112.985954
-13.047940 -7.790248 128.486267
-10.352275 11.900716 140.230347
13.595666 -2.570359 146.175186
-11.083668 0.432635 150.069626
-9.576349 6.914644 123.659279
-5.515377 -13.049655 121.552818
-13.124068 -2.550119 144.097275
-16.835241 -2.097050 130.059540
11.345516 -8.779557 123.074013
17.659132 0.095802 132.888931
1.043720 11.129390 127.338936
-14.799642 0.462579 127.246223
11.918083 8.255194 151.629044
-7.456031 -11.646572 137.438293
-9.069066 -9.358816 115.124138
12.680267 -2.250414 120.986572
-14.331606 -1.043110 150.780991
7.043407 6.572143 118.126595
-15.202643 5.694592 142.023972
3.365259 12.906697 138.868484
2.633302 -12.010020 130.930115
9.376297 -9.611256 116.886154
13.392646 6.661958 136.973755
8.505807 10.458010 133.327911
11.656273 -10.376813 137.594116
-3.931299 5.281153 114.714752
-15.463848 -0.677734 132.214188
-8.610986 4.652318 118.739418
11.789845 -8.253108 113.863144
8.460499 -13.249643 134.146622
-13.028203 -9.478188 135.668686
-8.324557 5.013539 120.895821
9.574875 4.246556 115.825729
-14.393600 -6.178175 126.195137
-8.596578 4.768660 114.900330
1.440861 -10.441152 141.156372
-14.073123 11.369122 143.014847
-6.036708 -10.966760 117.346512
-0.215644 -14.024623 134.667999
13.064496 -9.677578 123.594559
13.185675 -2.106052 145.493652
12.205174 -2.872381 115.393044
13.377359 2.154786 151.693726
-14.659803 9.052388 150.086548
-4.389982 -12.088934 117.036697
5.516399 11.140159 135.683411
4.897463 12.325249 130.429413
13.345123 -7.798871 112.767906
15.887241 2.484869 137.837097
-1.128049 -13.706759 131.794281
10.405160 -3.010208 142.898682
-11.315112 -7.708310 114.811836
-16.167791 3.067650 133.442139
8.802671 5.430722 121.140373
11.690908 3.963754 124.012459
1.979096 13.506790 137.786224
-11.251767 -0.045033 120.707695
-3.259755 -12.129068 117.504471
-10.050699 10.553846 134.752090
14.570234 -6.475881 136.061752
11.338821 2.654158 119.419983
13.242915 7.579068 128.874817
8.604038 5.127163 121.414536
3.437485 12.967655 135.917068
14.466226 -1.152237 148.433578
10.164354 -9.611596 119.825859
11.050919 12.957866 143.524948
-15.753035 -1.520146 135.669327
6.435523 11.806613 133.819122
-1.102664 12.361780 137.048828
-10.203356 8.965899 126.623238
-9.676332 4.563938 111.651749
-8.878778 -2.516137 147.153183
7.303035 -10.369964 116.076042
1.141131 12.382964 132.610764
10.384677 0.472983 147.157059
15.302964 4.845077 135.743149
9.117127 3.698541 119.568359
-10.813097 1.712668 118.156998
6.434872 -10.223351 117.086922
0.155339 -11.080025 137.332245
4.876370 -12.254980 116.743729
10.021531 -12.559076 128.733871
-4.228475 -8.710836 141.077606
0.463088 5.054834 114.553391
-10.253358 -12.563922 127.800499
12.386700 0.051830 114.854507
-12.499243 0.946195 121.658607
9.488917 -11.471282 124.304169
-7.780764 6.205529 121.626343
-14.959339 -5.223196 128.562622
-11.059931 9.169456 132.135620
5.873285 -11.454551 139.913040
-4.508242 -12.034247 118.996742
-7.772630 12.297183 138.973572
16.757769 -2.927537 131.466599
16.857244 0.117307 132.843521
16.218370 3.618661 127.833870
-2.516709 9.500333 125.924736
16.755503 4.077786 131.705399
11.056255 1.330271 118.475395
13.287160 10.387812 151.418213
0.582835 8.791450 123.435112
16.794771 3.860894 152.010590
-10.650030 9.980007 133.776474
13.793554 3.230961 151.595398
4.859740 8.080392 120.568306
-10.245276 12.553276 142.458466
16.487883 7.161683 135.256104
-18.070816 5.272840 134.334396
-12.074125 -9.951310 136.172348
-14.151606 6.526776 129.692368
11.502340 -10.249196 119.186554
-14.921246 -2.605609 137.960999
7.939409 12.490324 132.297455
13.495074 -4.343306 117.713081
-16.977320 8.706014 150.202484
7.597077 5.025094 117.872971
-13.288762 8.175076 151.160385
-11.702332 -0.751152 148.803436
-2.110056 12.958857 139.011108
15.828880 -7.314333 131.755951
-13.846905 7.187796 128.772568
10.309062 -5.888819 143.113419
-7.371937 8.587690 123.275963
-12.401663 11.292279 142.167831
14.281713 0.973951 138.474640
-8.298497 8.416406 127.118958
-14.563660 10.436975 147.263824
15.208220 10.040526 140.933548
9.705251 -10.004317 121.331871
15.460333 -3.458050 136.398376
9.796618 12.286015 140.277237
-4.849986 -12.318090 121.535912
-5.645399 6.867885 116.133919
3.117505 6.710934 113.385674
-11.530039 -4.048167 118.061562
-9.244548 11.833088 138.421768
-16.571022 3.615847 136.463318
-0.649906 -12.425234 134.602798
-14.917999 9.823929 139.753906
7.444860 -11.872499 128.185242
5.013525 12.745359 138.894775
16.310417 -0.167405 125.046165
-16.327568 4.579854 151.855392
-8.918428 4.579945 116.691132
4.121324 -9.167015 139.963348
-12.718637 -9.288785 121.773094
-8.942720 3.579159 118.069611
-3.912016 5.201822 117.896118
17.091125 -0.539456 127.688713
4.222675 9.286109 123.093559
11.683072 -10.829690 136.642303
-12.614382 -9.836699 136.614075
-14.772125 -4.269687 125.419891
-5.837391 -8.940954 139.074554
9.336673 -3.367001 144.925415
11.112296 9.201500 130.457993
17.461857 7.744713 151.827911
-16.299238 5.304005 128.932831
-1.834952 11.711809 135.108093
-9.008070 -10.025402 138.604385
14.724845 9.922374 138.761322
-3.159746 -12.531784 122.513855
-10.703852 11.934709 140.542465
-12.810257 -1.272926 148.368179
12.874144 -2.107456 115.207153
10.644934 -9.037566 119.842438
-13.681799 1.751320 151.842667
8.493895 -8.521579 141.000656
-14.184862 -9.882615 132.136276
13.897125 -4.058510 124.204041
-6.658418 -14.293090 132.087891
13.849463 0.874151 150.634109
-10.325472 -3.934886 145.123169
-12.450837 -6.419413 114.487244
15.601954 4.038292 152.175186
14.360721 0.885840 150.333481
-17.408880 -0.646901 134.754257
8.426647 3.255177 114.724373
-14.325144 -8.971420 130.760559
17.141768 1.899444 130.113815
-15.925267 10.141380 145.792557
6.075530 5.064495 119.487999
15.135029 -0.607598 149.493958
-12.026171 -1.306126 146.962738
-11.153871 -8.530412 138.624435
-12.877526 -10.579762 128.261124
-3.703907 -11.319628 137.879425
9.420538 11.322496 147.044159
12.003387 -6.514842 117.137268
-1.411674 7.976321 123.571625
-10.979205 0.293627 118.350723
11.662883 2.412286 114.893784
13.327714 0.129873 121.012886
16.369976 8.399291 136.745071
15.232713 -8.279819 131.080643
-10.880019 -11.105789 135.836136
3.833544 -12.022915 124.029358
-0.926176 -13.306327 121.712006
9.717930 -9.467415 124.501762
-3.253682 -14.065394 132.058441
-8.269067 -14.153320 133.131332
0.194345 6.273325 117.488983
8.160855 -4.774208 143.924393
6.159536 -5.938180 143.843964
-4.452667 11.089904 131.929123
12.556166 -11.192686 134.942093
9.612411 10.273617 150.849442
-2.919341 -11.876365 122.695816
-12.137258 12.233585 136.991959
-8.008699 5.163310 114.693268
13.565138 -3.186907 124.038239
-11.055167 7.204319 151.271194
14.081022 -6.857027 124.347427
12.075269 -0.959403 121.137848
-0.298773 -12.163030 117.065552
-7.901520 -2.833617 145.620377
-13.631597 10.017822 150.672424
-9.892115 -10.111259 139.410980
-4.423087 -10.485767 140.185974
-7.050268 -9.191414 140.100647
-12.778243 -9.430285 129.545441
-9.185565 -9.965308 118.640739
15.207034 -1.796205 148.092621
-13.012362 -10.993229 132.218811
-8.397244 -9.888393 120.338219
12.658027 -2.499867 119.736458
-10.127567 5.681019 123.825020
-8.927129 8.130317 122.958069
-14.586802 4.942471 128.138062
2.833358 -13.100528 131.083328
-1.059876 -12.559050 117.140732
12.358343 10.189823 137.911697
8.844740 -11.545792 128.125305
10.602647 -10.015978 118.247238
15.958288 1.767620 126.260674
13.105446 -5.664231 126.189964
-10.483445 -8.533459 113.371353
-10.651618 12.457523 143.185074
-12.878850 11.099834 139.133926
-11.869719 -7.060384 118.864960
-13.747616 3.001757 151.837585
13.205763 -7.760140 126.407967
-2.764225 -12.018106 126.191757
-8.006602 -0.457787 150.780182
7.147609 -13.601119 131.550339
-5.714783 4.610182 115.891541
-13.769239 10.864567 143.470520
-16.506235 -3.123019 129.011978
-13.909407 -0.694080 148.501648
8.284244 -9.033915 139.295578
-16.269279 9.240508 149.984650
13.691050 -7.220564 124.592712
1.142398 -13.774486 125.648186
1.343695 -13.030499 122.859550
2.772295 7.488241 120.645569
9.255011 -0.189394 148.323669
11.081189 9.590002 150.568771
-9.016550 -11.875481 124.459137
4.775428 -12.210629 131.562576
12.230360 10.015528 150.795166
-15.527526 -2.499774 138.967361
13.246418 7.403789 150.931610
-1.322489 10.900576 128.649963
4.796611 7.201946 117.693207
-12.149521 -1.449204 118.943466
7.380692 12.543756 132.805542
-13.321230 -9.745706 113.943153
-16.077084 2.322440 128.327164
10.373668 12.933366 142.822174
7.610664 6.614765 119.854668
10.636154 8.343944 127.561058
-15.481704 6.051251 137.912399
3.750656 -12.308201 116.275063
-5.497904 -11.011343 115.997795
10.981462 -12.224954 133.993851
6.602205 -13.900604 131.789871
13.823392 -6.507379 124.375946
14.770648 -6.399925 134.587540
15.270350 11.576278 143.377243
15.271485 10.154912 139.448517
-15.674494 1.172928 136.060364
12.915498 -5.489775 138.965164
15.090160 0.599958 134.683121
2.028661 8.925376 125.754478
-17.182701 6.193908 137.194458
-0.786277 -13.079833 127.159653
11.550462 -1.930776 146.894608
-16.926514 0.192091 135.538849
8.206758 11.875476 135.463211
-12.898428 -5.958332 139.664169
2.873266 -9.611902 141.938522
6.302640 12.736416 136.990417
-2.843917 10.712488 131.219070
-6.035391 -13.921500 128.630249
1.717906 -11.082732 138.657654
15.742102 -4.580369 128.892944
-9.472707 -10.566690 125.718048
-9.346925 -7.705163 141.346710
-10.205259 11.059946 148.369034
7.732585 12.108402 136.987045
8.238221 -4.642091 144.584106
-11.087191 -8.865474 124.699623
1.732858 -12.381429 119.580841
-0.943332 -12.860161 124.299896
12.364537 -7.411008 122.390869
-13.146896 -9.069904 125.784126
-13.850729 -2.873828 139.203140
-12.679848 10.710124 146.333740
-7.546161 -6.777083 141.276993
-9.994796 -3.160630 145.684570
-12.582472 -2.666307 145.591599
2.052937 -13.304102 128.162613
14.300111 8.777987 132.824493
-15.457264 7.276339 131.764542
2.289627 6.418189 119.387001
1.209183 -12.135320 125.166130
-6.460958 -11.375853 125.948692
14.461945 5.085510 152.276459
12.204120 -3.071026 142.253967
-1.569229 8.698651 128.916718
3.452096 8.710414 126.256042
-4.672731 7.786344 126.421242
5.653315 11.936255 137.722458
12.553414 -3.361085 118.519760
-1.944646 11.971066 136.272263
-2.648314 9.852424 128.786667
17.886984 2.871977 130.946518
8.046957 -13.338629 130.450928
-10.969224 -6.924891 124.893242
1.456826 -10.373817 137.396378
9.993582 -7.614698 140.061035
-10.867393 -7.501241 116.823555
-7.086703 -5.442998 143.492554
-3.035742 7.255678 121.177231
17.380684 -2.080771 129.341248
11.124439 11.970433 142.584961
-0.527673 -12.795314 135.323975
-10.544173 3.766847 124.035110
-9.357152 -3.917561 145.997650
-3.632332 -10.842889 137.412018
-12.768262 3.525234 122.966057
-0.026512 6.860066 115.737480
8.183270 -10.072061 125.666000
-0.551944 -11.315698 119.001808
-7.116702 5.084911 114.594421
4.173577 12.213943 137.317154
3.090677 -12.825019 136.381638
14.019572 -1.241233 144.518661
-15.981143 -4.489869 128.972961
-13.545956 -1.385800 113.495384
6.818198 -9.254983 141.595551
9.886351 -10.245616 114.748466
-9.885560 -1.679995 146.426285
7.551157 -1.059586 148.142197
-16.376816 -3.090931 127.802757
12.290727 -1.579337 117.001854
-15.336961 10.972822 146.542679
-14.895579 0.191007 128.409363
-10.554004 -7.468575 115.252396
-6.281798 -14.039150 132.555725
14.170185 9.891654 144.606369
3.630796 -11.253612 139.246307
15.039659 2.251562 139.689133
13.859203 8.597387 151.683807
-7.361344 8.532152 124.263580
-4.865419 8.781041 125.225197
12.876697 -8.975366 137.271194
12.214116 -1.387007 145.903473
0.135353 -12.917974 123.450127
10.631017 -9.424967 116.777100
-2.389408 -13.566314 130.616928
7.924634 -2.425781 149.091080
11.185529 12.519308 146.715469
15.873318 -5.371862 128.356247
-1.656611 11.560011 136.616196
14.139487 -8.385244 126.464859
-10.508816 -0.558034 148.693069
-6.706471 -5.493069 144.238052
-6.008995 -12.617583 118.599556
-9.347860 6.413067 122.860634
-14.479021 -9.351037 132.445251
2.793855 -11.957342 120.113594
-11.981673 -4.086373 118.705299
15.394062 -0.206580 149.331085
11.045976 5.495440 124.547539
-5.785211 -10.571857 119.690582
-2.817168 -12.468234 138.098282
10.897264 4.766913 120.811943
-4.923060 10.693107 129.684753
0.906527 6.425155 119.491745
-16.068705 10.721278 147.470352
-1.462696 8.376655 127.529129
11.184448 0.364118 118.059540
13.478221 1.122037 124.491058
-12.198453 1.135597 150.862106
-12.752887 -1.734783 119.709290
14.013465 -3.291152 138.468033
1.142792 -13.336369 117.278854
-4.655301 -10.464314 139.257462
13.923074 6.671540 152.955002
-13.001584 -4.798475 118.934441
-2.659232 11.333029 136.493408
-10.564471 1.724522 152.410858
4.446517 -11.909791 116.156837
12.886123 9.914777 133.326752
-13.248876 -3.389690 119.418358
13.073079 -8.742289 136.999130
16.234224 0.563893 138.076843
16.513933 11.475964 144.221970
4.547753 7.115307 121.018303
15.911929 -7.491067 130.297379
-14.067301 2.608991 152.283997
2.123744 8.371366 123.221054
-17.597263 3.273247 132.939667
-11.206174 0.264506 116.931244
-11.463701 11.204182 138.430420
-4.100112 5.984632 120.043396
-7.262562 4.295681 115.632019
-14.068214 -1.606228 122.966927
16.007397 0.765554 133.426086
-14.376632 -0.131691 126.920898
16.073662 11.798852 145.465698
-8.635218 3.867868 118.457672
6.090057 -12.290732 117.797775
-3.929507 6.473382 119.352585
-0.650702 8.204418 125.240547
0.837222 9.373528 124.960785
8.226384 -10.908084 118.924004
-12.369846 -1.391997 146.772247
10.874117 11.550029 134.354904
-13.308738 8.546229 132.871445
-13.111269 -3.178116 120.106743
-11.204039 -7.724589 113.884056
14.804570 5.607136 152.304031
-8.139968 -10.283221 140.722824
-10.124447 10.814917 148.457748
-13.272470 -4.633117 120.375923
16.408918 5.157646 153.145340
4.356433 9.969769 130.626953
12.235448 -0.022845 149.264954
15.927428 9.750496 138.550919
15.689939 8.806789 139.757660
9.880659 13.163131 137.851379
-14.477946 -0.816663 124.453957
17.597975 3.694306 134.109344
13.859063 -2.329874 116.016747
-9.597165 10.701808 133.031494
-14.359502 9.519102 138.031586
-6.441659 -12.542686 124.489143
-0.389528 -9.977788 141.690140
-1.383486 11.517009 135.802719
11.331895 1.138951 150.095047
17.891464 1.235623 136.818253
-18.461723 0.040634 134.285782
-12.752237 6.994612 152.911575
-4.236579 5.653897 116.263954
-3.898200 11.501817 132.921173
-8.037680 -6.693345 142.172165
8.990559 -13.584138 135.104004
-15.417415 3.232213 130.627090
-5.490156 -12.883083 130.839920
-15.612647 3.862351 136.358047
13.647773 10.583795 137.528732
-2.819976 -11.965174 117.389809
-8.837771 -2.845157 145.421829
-11.832347 2.956291 113.610023
5.092463 13.581683 134.735031
-8.219846 5.751004 115.528534
-15.731089 8.443974 138.752380
12.399323 -6.182857 121.701431
-13.738055 -8.099077 134.182175
15.546035 -5.417940 128.999374
2.906871 -13.376385 131.760727
-1.202059 6.169624 115.107681
-13.773014 1.252044 125.889420
5.880805 -5.896119 141.634689
-10.505618 -8.646405 116.722328
-0.183908 7.060823 120.620659
-6.519406 12.238590 136.668945
7.434759 -5.800488 143.930084
15.180231 -8.730988 125.738503
11.949201 2.004173 114.817078
8.413716 12.254718 134.840881
10.641367 10.813154 133.137680
12.122259 -3.429905 143.068008
-0.959071 9.584270 129.221909
13.265214 8.430094 149.967331
-5.490663 -12.533272 122.148514
-7.368159 -13.345484 123.464645
6.874812 11.254230 131.401245
-6.516614 -11.819248 125.578438
11.555939 10.209847 148.791122
-4.726457 -10.811656 137.624390
13.638566 0.194874 114.784721
4.516090 -7.259468 141.975998
7.373374 9.279618 125.677071
-4.394289 -13.977337 131.295227
4.111855 -13.509585 130.964111
-16.643541 5.243510 135.785660
-6.231783 5.989510 121.178139
-7.934904 -4.296431 146.071915
-6.741540 -12.100903 119.742638
3.194035 -10.411559 139.915649
8.742181 -5.060715 145.776810
-12.704571 11.677200 142.486862
-12.407587 10.197900 146.984207
-15.934114 -1.911641 128.266129
-12.043775 -3.596539 118.852539
-0.023490 8.355954 123.529907
-17.770660 1.224992 133.729507
-11.496683 11.231755 136.956772
2.196399 -12.473036 124.147163
10.264056 0.392595 149.087051
-4.519205 -11.624751 139.218628
3.301928 11.971716 133.401672
8.307392 10.390125 132.964859
15.330398 -2.270806 126.110565
-11.278603 -11.505509 130.115860
5.377599 5.868512 120.764435
-4.628834 -13.327502 132.700974
-14.208197 2.541936 149.988495
-12.414621 10.830126 146.009201
16.127666 6.245837 138.259766
-10.534733 10.546449 132.214310
2.293753 13.163574 145.452484
0.576442 6.340447 120.645195
3.129027 -12.465189 116.675301
-11.554087 -9.578712 124.400986
0.755731 -12.308741 122.602737
8.284138 3.581630 116.133163
-16.507757 -2.155441 126.141823
1.812854 7.998578 122.354980
-14.687395 3.334256 126.405060
-9.673245 10.128098 128.374573
15.645896 -5.436855 131.201157
-10.825976 -8.809369 116.245293
-6.914333 -7.793292 140.548401
3.635105 -14.127795 129.696991
-11.823319 -8.899436 114.076683
-0.963561 7.129846 122.736008
-8.344730 10.217890 129.963913
16.827301 -7.547553 130.465790
-9.460854 -1.130024 147.552399
-11.168042 -10.644576 114.647621
-8.178146 8.716281 127.238037
-7.269207 3.871040 117.190926
-14.421223 -3.453733 139.765808
10.233962 5.828380 152.342941
-2.673475 -11.091047 139.329651
10.508353 10.123433 149.855118
-10.281533 4.265565 120.405685
-14.593823 4.898239 127.553574
11.301104 -1.484660 148.159058
14.800471 -6.679071 134.716888
-14.719845 -6.182598 135.500504
-5.841033 -14.149325 132.581635
-2.670850 12.188116 132.920029
-13.076218 2.794248 124.991325
-11.653789 8.109633 131.409012
-7.193374 -11.646146 117.695030
9.778152 4.902143 152.947266
-9.543029 -8.048075 142.558762
-9.206973 0.071316 150.504425
13.391576 5.751638 127.386314
-12.139865 -9.102219 125.166618
-7.389976 -7.545701 140.358612
3.950288 -13.369301 128.253677
10.058950 -11.462799 136.363541
-6.001750 -12.038960 127.333786
0.710903 -13.213140 128.516525
14.730585 1.705590 134.339737
3.780683 7.241900 123.106140
9.731812 -9.009366 115.838982
-14.476287 -2.970792 127.585274
-14.351309 8.106522 132.534393
0.860676 12.561105 138.221298
-6.600548 6.391705 114.082512
-9.725747 3.394303 118.531570
9.507685 -13.070447 133.893692
15.789556 -9.282772 131.816330
-12.645582 4.895582 128.262329
6.069149 -11.309064 137.333679
11.041947 2.638393 118.003014
-12.054515 -0.316578 118.249054
16.371849 3.304858 151.304321
-9.667228 7.029781 126.110817
-13.585583 8.449553 150.694397
-1.185989 12.356592 135.638702
2.965009 -12.176590 135.600983
-14.301309 10.266128 138.504776
12.650522 -11.719587 134.211914
10.515916 9.290010 149.941376
10.400738 -12.878836 130.152634
15.856314 1.714296 128.081268
6.621299 -12.185212 120.722748
-5.020132 -12.398866 125.799438
-3.679280 7.037662 116.630531
3.844142 12.252504 137.143723
-9.270345 -10.791482 119.807098
11.218029 -8.396657 139.106140
9.992831 4.490108 150.985184
8.819499 12.581217 137.014740
-0.695543 7.250355 118.102867
-12.709419 -7.797647 116.399300
5.723259 -11.510651 120.573158
7.950294 6.182407 123.219223
11.729051 9.113320 130.153854
-8.858337 -3.292171 145.818100
-8.406528 -10.349697 121.159271
15.906811 0.388935 136.649536
-11.196804 1.224183 114.668030
0.302267 -13.743933 121.843971
0.148106 -13.074953 120.839706
0.077689 -12.777076 132.892197
0.647697 6.272533 120.365540
-11.163143 -8.330758 119.021843
10.815039 -6.547501 114.105019
-3.066430 -13.146082 125.794693
8.853915 -9.701755 113.551399
12.643462 -9.606005 127.047523
15.420261 4.815763 132.018677
5.161673 -12.728674 121.431458
10.505835 -9.114031 116.674698
10.159204 -8.708026 113.354622
-13.135920 -1.336719 114.906525
-8.652946 -10.553795 115.532837
-11.813654 0.564257 118.789688
12.193612 4.627274 152.494232
-17.337412 4.088146 136.497360
-17.432272 8.694779 143.954605
13.817468 -6.994718 136.522095
11.830462 -4.383145 118.777077
-6.843364 11.906559 134.442291
-9.262378 4.504977 152.099991
-7.143188 -11.534552 118.123222
8.346049 -2.239254 148.060593
-7.329444 7.130359 123.894478
-13.787529 4.130276 123.725533
-5.204205 -10.281505 138.694397
-12.251914 1.618967 151.291275
6.724648 -12.422394 134.439117
-10.809756 9.261666 151.537094
-4.926553 -9.626077 142.362564
0.910775 4.341168 116.331261
-7.974394 4.101289 113.086449
3.667952 -12.363775 127.445320
4.004361 -13.197147 137.465347
-13.022292 -4.266241 120.531540
6.645988 9.726519 129.092743
-13.358603 1.220797 114.039604
13.141517 -6.640824 119.057213
6.402952 10.527756 130.357407
-9.586159 5.645942 123.488808
-6.005418 -10.697016 138.422516
16.366013 5.967255 137.780258
-10.844072 -3.916156 142.668121
-11.153144 0.860324 150.130356
2.832836 11.868125 132.789581
-15.706645 8.810837 137.174484
-7.270402 -11.854510 120.003113
-13.519121 -0.295349 148.045807
9.826716 5.498970 152.302963
15.869314 -1.715719 134.013931
-15.138676 -3.025201 140.903381
0.023096 5.329648 116.349182
-8.280321 -2.511205 147.620468
10.029649 11.012815 134.122482
-13.867411 3.457218 151.888733
-2.111038 -11.426676 134.947235
-17.405865 2.486478 136.697327
-9.201642 3.336632 151.647980
-4.607816 -12.472760 123.789238
-13.708455 -3.646492 113.184082
9.206909 2.748834 119.939850
13.520848 1.079898 150.675491
18.045902 2.260118 134.619705
-1.911236 -12.506539 118.421356
15.658137 -0.308592 139.187531
8.828892 -11.390206 137.772202
-16.323856 7.001099 138.146912
1.200805 14.339417 139.103882
-15.973337 7.625267 152.906937
9.624763 2.312955 150.710510
-9.807242 9.762307 147.608887
-8.777990 -9.090764 119.177574
-13.396688 -0.926266 124.986595
9.765805 -8.877471 117.689972
14.069626 -10.631287 134.686752
-8.755410 -11.536403 137.951797
0.519151 -12.532431 129.038971
-1.812412 12.071083 137.581726
9.778653 2.588351 151.441757
-0.786938 -13.352056 129.746643
14.756043 -0.194245 124.840218
-5.247566 6.018867 115.495148
14.230428 -4.363325 138.340958
-9.498258 -9.449867 139.589188
-14.362576 -1.591584 123.519684
-2.924609 -12.392531 121.527794
7.064629 -11.022134 120.509079
-13.523397 -6.654153 129.378784
-2.543825 9.223875 126.768845
18.161707 6.937150 139.177856
-10.593676 -8.559486 119.342812
-8.898404 -13.791575 131.286911
-3.694287 -11.922145 124.173752
-9.883630 9.132208 131.780273
-16.431417 5.371382 135.527206
11.347803 3.015857 120.652252
7.905715 9.089642 128.705338
12.678521 -11.384354 128.436874
11.031804 -10.805342 125.581627
-14.837742 6.695961 151.382294
15.653125 3.653969 129.967667
-9.995145 12.676339 146.362076
12.656916 7.881934 150.358368
-5.581244 5.573009 113.469803
-16.245134 -5.107872 128.377731
-12.978463 -8.403514 135.910110
10.563382 2.353305 116.866844
-0.972162 -12.032239 117.230072
14.747258 10.437830 137.593277
-8.855305 5.331617 125.645004
-14.139911 -3.511079 115.595337
-5.907963 -12.221595 122.139816
16.204147 -0.516223 140.073807
-16.757893 10.953481 138.760666
16.515621 -2.656941 124.838432
18.465601 1.832603 133.817734
-16.206202 -2.663724 140.745605
-5.779162 11.723903 134.073074
-13.105524 -3.883815 119.912613
2.529478 -13.151881 119.569382
11.280166 12.727859 144.008224
-10.613009 -12.976276 126.748619
-3.591316 -12.355221 127.245758
4.836174 -12.587163 115.592476
12.761116 -8.389748 128.035324
-5.124238 -12.665839 128.995590
5.161441 8.629768 125.477783
15.408729 10.120596 142.577332
10.257805 2.907116 115.678238
13.088696 -5.306630 120.448402
-11.167399 0.405709 116.187447
-2.166345 -8.943378 139.855453
-5.252479 6.005512 117.465637
2.700106 10.823299 129.292252
-14.912148 6.204944 152.058395
11.410378 0.645790 116.628784
13.832860 11.044147 139.779633
-2.514137 -12.572524 134.584595
5.434143 -11.113001 137.796677
14.689650 7.092316 133.782364
-8.601819 -6.607381 142.248093
-8.259577 0.884985 149.009750
-17.245258 5.039692 135.560867
5.909928 -10.056938 140.389786
-14.424994 -0.516351 124.390785
8.355782 -10.253762 126.133522
-3.653540 -13.128517 121.569298
-4.246755 6.953931 118.804161
-14.090923 -2.023103 143.810486
-14.255881 3.853188 125.033600
-10.230435 -9.563532 115.901756
10.935569 -2.894584 143.969543
-11.664194 11.741683 146.466156
-4.611156 -11.103416 138.969681
3.771713 12.979559 139.282822
0.143643 -11.364153 114.671509
-16.141441 -2.888719 130.966705
-14.161693 5.987891 129.718842
-10.428198 -10.938439 137.162155
-3.084087 -13.341775 137.642548
10.240396 -2.543307 146.159073
-14.354891 6.158011 127.914650
-10.182130 -10.550461 137.158295
-7.735714 3.997848 151.879410
-16.595749 1.334401 134.574661
9.469028 6.282824 124.642662
-12.338078 -12.353093 131.070572
-16.535347 9.907774 150.036972
-5.744287 -8.485422 139.650513
-11.987295 -5.656434 121.039162
-14.794207 -0.573922 137.864304
4.682677 5.434928 113.961143
9.504142 5.900226 122.795219
-14.414536 7.495121 131.042526
4.328612 -12.309413 135.744675
-9.895462 -9.655898 115.235657
16.476683 -2.361556 127.227531
3.080325 -13.916702 125.071968
2.295778 6.799405 116.843254
15.474211 -1.740485 136.277863
-3.920114 8.799603 125.154182
-11.917060 2.014275 120.959305
-11.149673 -12.315496 134.066895
9.475094 2.880942 114.496552
-0.474678 -12.296122 136.373413
3.559610 -11.508159 118.467148
10.920529 3.347628 117.805267
-5.705990 -7.149210 142.238434
-11.583405 -2.870874 119.684921
15.113962 2.044556 124.975098
1.070082 -12.296168 124.298431
-9.124503 -10.202287 116.356110
14.139462 4.521398 125.423668
-9.495092 -10.704256 117.362984
-13.324952 3.541310 151.243729
-11.168412 -9.179039 124.552505
-5.026714 6.578441 121.087448
-7.464515 -10.319459 139.761536
10.152219 9.654588 151.997711
0.763458 -13.282199 129.471283
12.232034 0.831149 117.279991
12.915279 -1.337511 114.863243
-11.281244 10.293936 134.048904
11.550858 -2.553659 147.686676
-0.748723 11.997135 136.408081
11.346191 -9.674799 118.377304
-10.646760 -13.433242 128.837158
-12.401197 -3.547217 142.477875
-9.223104 -9.502468 117.319214
-12.811721 -5.738118 118.606834
-11.990427 -5.376997 118.217865
-12.323665 8.053688 134.965546
12.495841 -11.819686 130.168518
12.201428 9.915549 132.778580
6.599258 -10.761203 114.994804
2.151109 5.628748 117.955139
-10.193268 4.661682 151.760895
15.813766 -4.785092 137.205093
-15.166488 0.347306 136.257401
-2.028393 -12.424761 118.691414
-13.587831 -3.269029 124.316391
3.437341 11.712614 136.429504
9.876472 -13.798078 133.383163
8.854845 1.339913 151.291977
-3.310613 8.496924 123.168663
-3.885641 8.124482 124.651085
10.665516 -1.974844 149.015427
16.140959 4.674760 138.832077
-9.441719 -10.469668 139.600479
14.186790 2.465910 138.832672
-11.730815 12.017110 143.656540
10.348311 3.629201 115.220726
13.352370 12.313868 142.050293
-17.361021 -1.624586 133.976227
6.189257 4.893663 117.694115
17.412708 5.390171 135.700470
-11.218525 -10.853010 126.760391
8.612204 5.067008 119.841835
-6.756355 -10.361242 117.187744
-13.425838 2.906137 150.745911
17.421762 1.614308 133.248322
14.717987 -5.245752 133.028732
4.971493 8.783920 125.259644
-12.616658 9.668246 134.244736
11.702398 -11.082064 127.211258
15.603011 -5.351676 133.898270
9.984122 9.990458 150.606186
-5.081852 5.724546 118.996437
3.957417 -11.893003 121.751785
15.906005 1.498323 124.246590
12.921310 7.999988 130.147751
13.513850 -12.174880 133.362518
-14.240493 9.565103 133.788834
5.699826 -12.095133 115.695984
-11.631508 11.334746 140.291321
10.335910 12.878144 142.903610
12.474679 9.108707 151.636475
-16.861286 2.880837 128.409271
-7.387353 -10.354061 116.986145
11.528445 4.451203 125.121185
-8.815377 9.805862 129.154083
16.225723 10.966020 148.006027
-6.352326 14.019857 136.474030
-12.209296 -9.389823 123.581970
13.052366 -3.795283 121.883926
15.289387 -4.806015 128.611038
9.500291 2.638617 116.843674
-6.867547 -13.145263 129.530106
-3.013863 -12.106933 125.576729
12.645052 2.396221 151.750381
-10.768357 -11.585209 135.394348
16.611990 10.706862 142.499420
-3.150085 6.308101 116.899483
-15.738872 9.210959 138.231064
-9.904179 1.097864 148.629471
2.561009 -12.508366 131.759247
-12.105003 -8.390158 114.469978
12.452147 -11.600539 136.172928
8.711009 -13.607523 131.207062
-2.358564 -12.277728 136.963516
-5.160653 11.175331 128.323929
-5.846043 6.837977 124.187454
17.979671 2.589506 133.639832
-14.466528 5.418660 151.776398
16.155437 11.056872 147.675247
-1.563952 10.785132 131.813538
14.395010 -3.842037 134.117859
2.831538 12.977201 134.414429
12.248977 7.767361 151.183884
-15.752645 1.418722 127.785950
1.310951 6.551251 119.000427
13.081120 8.021383 151.566086
-12.736760 -8.311167 139.456879
10.131116 -7.748941 114.803711
10.957640 -10.289474 119.999153
-15.534920 11.043094 144.741882
-13.826520 -5.323821 126.668030
-8.683843 -5.764160 142.944565
-6.035256 -9.137164 140.586243
3.859004 -8.853932 139.598785
-1.059245 6.469712 122.488281
14.220952 9.750476 148.627670
13.267561 -9.281879 126.607292
2.226312 6.080593 119.312531
4.227372 -14.114121 125.954933
-14.749810 -0.420774 149.123367
2.934249 -12.753944 122.519958
-12.992469 -6.670717 122.154961
-15.293773 -3.730795 138.392700
-11.721458 2.924318 115.603729
13.813119 -6.018445 139.178802
15.020433 -5.683393 135.130966
-8.645794 -10.377714 119.318832
5.354711 6.002140 118.025749
15.933035 0.748821 134.711060
2.243661 7.872917 118.455421
-8.217249 -14.304596 132.846298
-15.895036 3.342836 129.244904
11.881267 -1.341108 120.399651
-1.406139 6.351927 115.136414
-1.866681 7.965188 120.409279
5.280208 -12.951872 125.688156
12.731139 -10.735345 134.156143
8.667741 11.928453 140.610092
-6.159237 -9.431648 140.695633
12.577309 1.008750 114.330208
-9.773193 -1.232368 148.941879
1.097479 -10.285254 136.977829
9.376747 -10.190002 117.599197
-16.372618 13.081696 142.864792
-13.643888 11.682454 141.562057
3.081118 11.223830 129.381149
15.356814 1.959778 137.850098
14.566582 8.598346 138.999893
-12.478470 9.723455 134.021744
-13.299900 -5.070471 120.277916
16.287146 -4.158186 131.039597
-12.643216 -5.950215 121.233498
6.266337 -11.744511 125.140533
-12.716156 -8.749445 122.923401
10.551277 5.504704 151.215805
-11.751959 -1.874325 146.939499
15.486407 8.140077 150.457672
11.298729 -12.655930 133.188599
14.491053 -0.629641 149.221222
-11.458801 1.170377 120.762337
14.098467 -1.883491 115.364777
-12.314795 1.753572 151.448624
-12.490126 -10.803364 134.983566
-0.517988 -11.553903 135.748367
-11.707323 -10.101116 116.766121
4.226642 12.005082 128.641876
5.855426 -12.120512 137.538040
-3.613401 -13.813912 134.858215
3.048773 7.583466 119.170502
-13.295317 11.017055 141.532990
16.272354 -0.605594 124.987572
-11.772159 10.662704 147.271378
10.788998 9.413284 130.119614
-10.484265 8.176479 126.946045
8.873484 11.979382 138.002899
11.548200 -8.918737 139.337357
3.409020 6.463870 118.097923
12.723989 1.699990 150.786835
10.504565 11.212965 142.549026
17.035013 2.282794 128.477844
0.480601 12.671715 135.316040
-0.171145 -11.214208 122.393288
-14.987187 -3.083515 141.534882
11.197199 -6.923472 140.796387
-14.936474 -4.962877 129.876892
-12.559833 -11.413489 134.108139
6.225983 4.856829 120.696037
-9.887123 -10.449773 120.163040
-0.730204 -10.601907 137.145630
-10.144414 9.829436 152.524811
-14.661325 3.619749 152.670013
12.560900 9.844968 150.337540
-15.831833 8.150456 152.980164
-7.843269 4.229868 115.927620
3.171443 11.671222 136.278275
13.643927 -4.666740 120.726372
-2.145269 -12.745360 129.037247
10.473398 -6.606482 115.793755
4.052773 -9.265295 139.801788
-5.631465 -11.446313 136.136246
-3.048983 -12.610663 124.481956
-9.893234 -13.124821 129.389771
9.010929 6.650750 152.032791
12.902431 -11.314364 128.907913
12.414099 -10.294576 126.408714
9.740081 -10.695001 138.245773
13.666478 -0.561702 149.194656
10.618213 12.484613 142.459290
-14.542480 -3.600335 137.561615
-9.805880 -9.553969 126.489571
-14.337542 -3.816472 113.656967
-15.743977 6.162342 137.307800
-13.643250 -7.726905 136.395187
2.203000 -12.105858 124.789879
-0.148054 -11.662565 136.026840
-13.166371 -1.025970 116.474815
-5.630305 -11.142154 116.269577
11.243791 -10.141438 117.250809
0.266791 13.336602 139.957886
-12.955609 0.121776 150.657898
-2.244519 -10.691453 138.318588
-11.448602 -12.769075 132.991425
-11.553472 -1.809447 116.585510
12.531294 -8.014556 114.822258
16.054184 -1.715570 135.387268
-15.245700 8.661225 149.719345
0.662156 -10.189794 139.326309
16.446960 -1.429525 129.173355
-8.616570 3.192823 118.497528
6.344826 6.529110 121.238342
8.678151 5.254154 120.198112
-13.758698 -2.599258 114.779770
4.101025 -5.171373 143.080490
-12.514674 10.351542 135.856628
-9.991030 9.921232 143.604858
4.373746 -12.869523 118.194481
-11.816443 -1.031058 147.188431
-8.531396 -11.219396 121.771042
-10.368318 5.829285 123.670326
10.117886 -7.463992 139.762970
-16.116787 0.989958 129.947906
-4.059429 11.086722 129.314758
-15.308760 11.111528 146.247971
9.834841 -9.393182 118.475861
15.430099 3.666471 127.435242
-13.612134 -6.433272 121.945709
-2.613588 -13.725299 125.408218
15.956980 -2.383347 136.870529
-14.242685 -10.647403 130.274216
14.303957 4.580606 124.704117
1.810965 -12.880373 116.354065
-12.152349 -8.223501 121.229065
15.274055 -5.134686 132.234756
-8.021496 4.519787 114.216354
-17.380093 3.507245 136.719254
-16.068390 -2.536925 134.046112
-13.969951 -0.256996 149.264847
1.706792 -13.340881 128.473175
6.372868 -11.059748 117.042305
11.740664 2.268653 115.912300
5.214109 5.751598 115.084976
-12.416186 -8.403734 119.144508
9.073797 -1.669019 145.807953
10.260295 -4.897541 144.887939
10.555796 6.240111 153.079178
3.962541 5.941308 119.369049
-11.239455 -1.792185 147.367279
9.398525 4.965410 116.077919
-7.269754 -12.743663 135.807449
-12.825287 -3.578628 115.789101
-14.572330 6.689050 151.694626
12.997671 -2.602953 119.743423
17.292948 -0.299558 130.739212
-15.091372 6.950924 130.465607
-6.440151 7.540943 124.795601
-4.434869 -8.790042 140.687729
-3.642552 -8.917734 141.624161
-5.720479 10.487288 126.997650
-9.361886 -5.022881 143.021851
2.922655 -13.680024 132.882858
-8.142907 5.385416 121.547363
-11.912926 2.854759 121.373306
7.541504 -3.291387 145.804749
-14.782926 10.093564 147.437164
-14.021714 10.791968 149.490921
-9.919166 -12.767877 125.772247
10.580951 1.729660 151.742554
-12.650938 -7.675949 136.791199
-16.883078 -5.052151 132.326294
-10.757385 6.668410 124.886024
-11.645334 -2.689472 145.245041
-13.595887 -7.557940 124.755997
2.656055 10.579684 133.892563
-2.458282 -11.585168 117.411194
-14.141729 0.023931 148.029266
10.616567 7.586699 150.201462
-12.360210 2.969201 152.297089
-10.994353 -2.050261 148.327240
4.604659 10.802585 129.664719
-10.999935 10.239249 150.558792
14.939089 -1.496515 134.822525
-12.689690 -7.451605 125.039764
-4.234048 -12.437661 136.464157
15.825070 7.801322 151.316269
12.591704 -11.737348 133.575134
11.282993 -8.783800 139.524536
-3.500675 -11.905739 122.029968
-6.526712 11.544997 130.278183
-10.510064 -6.211838 141.175537
-1.878050 -11.715569 129.556244
13.144259 -4.595859 122.080894
0.453737 11.696363 132.372650
14.353165 -8.068240 121.641716
9.316693 -8.676928 141.324005
-11.696300 -4.309842 142.097565
-10.633071 1.270011 150.741531
-3.557546 6.486657 113.864891
6.478663 5.391153 118.831932
4.687968 -12.704746 130.692612
-10.157442 -11.720694 125.719719
-7.639033 -10.916486 119.208984
14.599524 -10.682444 129.026688
-12.517864 -6.195086 116.599258
16.708488 -0.041088 136.355865
-13.129342 8.048698 151.027710
-10.526935 -12.162435 128.526794
5.762368 -14.226112 128.989761
-10.860705 9.290915 132.849136
-9.973196 -9.268838 118.717506
3.580086 -11.673024 122.813835
7.968117 -10.703747 114.254448
-1.279608 7.271156 118.658134
-5.396238 -11.903930 117.580170
16.252241 -2.360577 125.776634
-17.053473 5.317335 136.044662
9.623311 -0.428460 147.436386
-15.062055 -2.920149 140.107361
-0.204737 5.970453 117.507843
-4.935967 -12.207799 118.275238
-11.364222 -0.809137 146.436386
14.302323 -7.898215 127.783287
-11.891241 10.734008 146.327469
-11.832457 -1.302637 117.245476
7.506138 -10.973990 121.037819
-12.854575 -3.592896 118.790497
-7.805128 11.743158 132.563812
-9.834536 2.976066 114.798889
11.053738 -1.271402 145.988190
6.145415 -11.472364 119.755836
-3.369064 9.005712 126.697311
-15.040318 -2.706955 139.904694
-12.590331 -9.597387 139.029648
-13.286500 -7.789761 137.846329
-2.629385 -11.827582 117.592049
-4.202637 -13.223929 132.270477
-9.817217 5.840982 121.881912
-8.182055 -12.481996 128.780640
16.785669 1.758604 132.106491
-11.194695 -9.275237 115.949699
-15.522300 -1.352701 130.266327
3.321738 8.480314 126.861656
15.570013 6.853084 153.300430
15.516878 8.294923 150.942139
15.782662 -1.846972 136.326401
-13.026625 -4.986303 140.440796
15.829009 -0.044751 126.298393
12.713857 8.422269 131.682510
15.829686 0.953814 137.289185
2.801224 -12.890574 133.806595
-9.376844 2.645381 151.420349
14.205482 9.701709 149.543793
-8.094908 -4.232917 144.490005
8.129172 6.904305 124.401810
-4.423777 -12.643132 133.169266
11.734796 -7.412727 117.431252
6.348511 11.478076 132.617157
1.604839 -12.627243 124.717056
9.297475 5.036068 114.224564
-5.997556 -10.998568 120.026901
-2.200751 -12.823759 134.626312
-1.698994 13.033921 139.267151
1.002347 -12.652745 117.078300
17.063925 -0.322848 134.224396
-16.205332 10.692835 142.380035
13.523303 0.084719 148.865036
13.227466 -4.377793 119.557312
-0.169415 7.711381 120.426399
7.301351 8.191170 129.821976
-10.503188 3.706764 113.680595
-5.643372 9.914759 128.204529
-16.423162 7.498861 134.865219
14.769955 -6.653749 133.222443
16.626673 -3.698491 140.829712
12.752299 9.386113 130.761002
-8.461915 -14.447557 130.460632
5.288811 6.861448 118.534447
-12.041761 11.573108 146.424301
13.741056 0.095521 149.092331
-10.153645 -9.821699 123.152313
15.968521 2.978339 139.228912
-7.749230 -4.533714 143.814209
17.025679 2.719709 135.670685
13.923309 -10.046903 131.962158
12.991264 1.953752 151.024658
5.588229 -13.705487 123.534103
-8.201714 -1.725356 148.279800
15.597799 11.810385 142.714554
6.920432 4.435903 120.255371
6.326756 -7.398826 140.944962
-10.435106 12.499728 144.903625
9.970537 -2.053368 146.454788
16.068861 -0.663736 133.171158
-12.183595 -7.480924 118.404900
7.516150 6.370071 151.307510
-10.790926 4.092178 122.913933
-13.721417 -10.236861 132.348495
13.601863 -8.356363 122.386772
16.348238 0.061190 130.293289
13.477505 -7.048539 117.510727
15.593945 3.237393 133.630447
-3.789526 10.348259 128.150040
-2.005738 -13.737290 130.350220
12.008726 -5.770649 119.132965
-16.929276 2.286678 132.169296
12.576256 -7.215119 118.958733
7.390487 -13.266235 127.420784
2.186368 -12.287742 120.682320
-5.768118 -12.293039 124.217491
14.716831 -6.372997 128.978210
-13.707955 -0.659768 148.962662
10.324587 -9.611164 122.255394
9.400463 -4.612399 145.212585
8.848047 -10.447071 125.503639
-13.294088 5.202335 126.066170
-3.324574 -12.980551 122.098549
4.056965 6.239261 114.374474
-2.025884 -11.888865 137.326385
6.749094 5.184130 119.199181
-11.856975 10.448081 148.514359
-11.713593 12.059286 141.493225
7.753917 7.054470 123.309425
14.805572 -3.115328 147.041397
6.089281 11.835291 129.794724
4.495170 6.528862 114.329323
17.127050 -3.199560 132.707474
16.043449 10.680217 147.925278
-8.163865 -11.114611 115.503738
10.644893 11.706072 141.373199
-14.892481 -2.739794 144.920288
-8.393876 -10.861760 125.104538
-3.182616 -10.911071 115.086761
-15.482327 3.978933 130.742004
-12.610096 1.838965 149.494202
-13.447630 6.030913 150.744064
-13.529610 11.601755 143.286377
-3.772007 -13.013676 128.095261
-14.594055 4.719343 151.928299
12.341209 -2.271009 145.024124
16.227251 9.354736 137.371185
12.774220 -2.402871 117.592964
3.693921 -11.812391 135.571442
-16.515446 -2.107728 134.878418
14.160200 -6.301161 134.512604
13.797239 -11.311245 134.283447
-12.398023 -0.031805 120.752388
9.451998 3.792831 114.546486
-9.220347 8.315069 125.123459
-16.346798 3.892078 129.143158
1.493261 -11.522881 136.724457
-7.282969 11.603144 135.966766
9.632082 12.754033 136.495331
-14.125717 -3.285832 125.975159
1.089365 -12.360674 125.831711
9.995801 -11.027559 137.191742
8.091325 -10.183081 117.186325
0.252719 10.075930 130.869080
-14.015221 -4.511014 120.380829
-14.607653 0.681996 125.077843
-13.175570 -2.056925 116.474030
11.519740 -9.487797 119.694717
-13.423835 -8.492484 135.675293
3.665104 13.540467 141.167236
-9.398632 -13.527282 131.524811
-7.489603 -12.159584 116.950203
-14.913503 -5.556888 129.394150
1.807095 6.162026 114.489128
-15.719013 2.047804 137.310074
-4.790226 5.691222 115.422264
-10.283450 -12.576363 126.668434
-10.480687 -5.065808 143.389694
8.748473 -11.874272 137.733154
8.157480 12.410057 133.618225
15.826176 -3.519660 124.276779
8.936740 -10.763480 137.930054
-8.716133 -10.307485 120.417320
12.666754 6.291797 125.304047
-14.499316 -1.080131 143.429794
-6.411948 -13.628509 135.914307
-10.704955 6.563228 152.117554
11.854522 -6.546113 114.460068
12.565867 3.614538 123.701363
-10.140918 10.281016 150.545135
11.141699 3.320117 122.959885
6.845619 11.738243 134.815506
1.548587 -11.539512 123.486450
0.482969 -12.194001 120.334091
-4.765819 4.175520 114.487778
-5.688009 5.772743 116.340309
-11.441267 -4.918803 144.476654
9.858345 4.105701 118.302094
15.890874 2.675674 134.642120
-12.074088 1.032112 147.612015
-14.884323 -0.103523 138.546036
5.409433 -9.573490 138.847244
15.556074 -3.786515 123.804924
-14.345551 2.048147 151.617981
-11.378273 3.742823 121.000404
-12.917768 -10.693995 129.204803
-16.331875 3.764616 154.460266
14.647750 -3.724659 127.634048
-7.351645 7.708193 125.542648
15.727307 -1.874839 137.693146
10.208032 1.274639 119.253044
10.616326 -8.007303 118.759361
1.425374 -11.916333 124.781021
9.983875 -12.540359 129.368820
-6.337082 6.110254 117.927605
-6.422388 -13.343185 127.634430
10.150354 -2.901595 146.148315
-11.527875 -7.417585 114.536339
0.833534 -10.246072 137.002701
0.776883 -12.683598 120.626221
-2.415569 -12.432551 119.844589
-0.074650 9.922326 131.095001
15.427978 1.212392 137.014297
-10.867568 1.310250 150.491867
-11.996900 7.125965 153.080414
0.201042 12.212336 136.240631
-3.445361 8.084999 122.266945
-10.553987 -12.088720 126.793793
5.661332 11.024165 129.202728
-11.625484 -3.673627 141.212692
-15.532811 11.094064 140.052979
10.172725 -10.354873 124.309715
-9.169062 -3.107290 145.675186
12.684256 5.850191 124.807037
14.149695 2.004901 151.408630
-14.290312 -3.769202 139.057449
1.085035 14.051195 141.417282
-7.119792 7.120347 123.385864
-4.351500 12.798194 139.580231
16.083208 -6.908378 130.179901
-13.139696 -6.806943 115.465698
-12.111906 3.173596 151.225342
-9.417004 6.897288 122.846748
12.163046 -5.614525 120.452583
-13.331407 9.913950 147.949600
4.309516 -11.266795 138.456635
-13.400496 8.499846 152.216644
-5.392862 -13.606945 125.211884
-9.022356 10.429041 132.730881
2.470676 12.267523 131.395050
-0.383682 -14.093795 135.868713
-11.295532 8.862053 132.652771
-9.939778 13.267113 140.619858
-12.795290 -3.636963 146.268845
-7.889714 -1.599128 149.229568
0.429790 -11.944337 119.312981
-2.898349 -12.417973 122.030876
3.595618 -13.311811 130.021912
14.610867 -7.229345 131.817749
0.210970 8.472186 128.862076
-8.594579 -13.648561 130.500809
-9.637124 -10.111305 120.099022
12.548909 -6.297013 113.871758
0.853037 12.853703 134.657394
8.376501 -6.354923 142.610336
11.413089 11.157896 146.565125
-14.136456 -0.666302 148.541763
5.265126 -12.065960 127.743690
1.882361 6.898983 121.242203
-12.406600 -10.869967 136.302505
4.828250 -7.362576 142.670502
-6.800825 4.165886 117.611366
11.388488 3.475206 116.409172
9.257867 5.568975 114.434425
13.159412 11.595881 144.265610
8.934619 9.681960 131.288361
10.726359 -10.313273 138.095490
-13.130697 -5.424942 118.140511
-10.676708 -10.884199 137.413406
13.293194 -9.840943 127.262856
-6.229863 -10.602784 138.942200
-7.839770 -10.326171 123.257599
-13.760979 7.447465 150.410751
11.915858 -0.274882 114.203690
-10.206282 12.267930 132.490799
-16.394516 6.150634 133.365463
-0.766177 -12.182252 118.741013
8.731210 -9.518359 114.732277
-2.023688 -12.344989 122.189240
