ply
format ascii 1.0
element vertex 2048
property float x
property float y
property float z
end_header
-13.769898 -6.855673 129.356277
14.670185 -4.712472 130.649979
-26.171776 -5.480124 131.804794
-12.955136 9.996891 137.180984
-2.440294 10.330157 125.398499
-9.267948 5.626191 120.008698
13.391361 -4.595259 123.031189
-12.008040 -5.084002 139.499435
9.038268 -2.628060 149.680222
8.490502 10.547683 128.910721
15.658372 11.351768 146.807419
13.947820 -4.506076 138.214081
24.771997 8.951054 139.866714
15.000259 0.086367 122.164864
-16.145180 -1.818029 143.481598
15.393744 -1.351022 127.081436
-23.129570 3.327398 143.219864
14.983305 -11.438819 124.413239
-23.416988 5.863041 143.645966
-4.362137 -6.528954 141.111404
-15.005112 4.456478 135.665482
25.770708 2.372293 138.246902
-14.919734 3.482275 131.054535
-21.684330 5.057242 131.231750
7.817423 7.821361 118.854935
18.772171 11.167914 143.414551
-5.867847 -4.416578 146.352554
-13.275493 -12.696982 127.653679
24.081041 11.891078 132.920532
-17.134716 7.773591 136.824234
31.273129 -3.078726 130.882965
12.075608 -15.659678 127.267616
-30.362984 6.774977 127.981407
-28.838182 6.405246 136.553497
-12.735252 -9.687994 118.312569
-4.929029 -14.658092 131.479874
-18.981510 2.325800 148.344452
-2.225456 12.320242 137.375427
-12.035891 1.394602 126.145325
19.184221 10.206526 144.380005
27.317905 -2.040043 136.351761
-14.805448 -9.558199 122.799484
-15.368645 -3.742202 136.689194
11.263671 -17.481092 123.748116
-24.975506 4.849796 127.621536
-13.816108 -11.975608 131.392075
18.159611 10.618708 139.894440
10.016682 2.210738 121.700211
26.343050 0.813714 125.101822
7.275603 -15.753450 123.948372
20.143192 2.897136 130.350967
13.950912 -0.116439 115.762215
27.284290 -0.066771 136.507584
16.920563 -2.566730 129.909790
21.016823 -3.737573 142.245026
15.147396 -0.609355 130.719818
15.084682 6.664510 151.676575
-21.477257 -1.383222 142.844254
14.397237 5.629369 151.830582
17.038801 8.794485 146.379471
24.308498 6.545434 127.557411
-6.692623 11.732782 133.682556
4.976586 -14.511828 135.341537
14.524094 13.020035 145.068771
-20.462898 5.205425 149.683792
27.102661 8.325369 135.930191
25.963497 2.491645 127.439751
7.530000 9.819654 124.020508
12.059922 10.394201 136.693665
3.687734 5.608224 110.024399
26.581430 -3.497405 132.936264
21.844954 3.795681 131.308975
1.389066 12.199663 133.379471
-8.131952 4.343823 122.842583
25.000568 -2.714426 140.016220
2.856448 -13.059339 131.053345
-12.303822 1.592425 124.742439
-9.021427 11.087491 136.924103
16.842991 0.017670 132.482483
-9.384047 6.678597 120.844528
-19.855680 -0.507411 134.623047
-22.159081 5.248861 133.394913
0.025809 6.890089 118.575127
23.683657 -2.980833 138.812653
-12.676443 -12.494148 132.361954
14.146628 1.716309 151.230865
-15.474835 -6.777813 124.345261
9.604408 -1.973072 148.964081
-3.753602 -15.994139 125.534256
14.174891 0.429890 131.123108
-21.187168 5.811640 147.621552
-0.781685 -8.840060 140.387665
-24.162306 5.209900 128.947662
-2.727295 15.671167 143.622910
30.603121 7.419457 131.071075
19.574327 -2.362924 139.721359
-8.561736 11.199809 137.856277
14.030513 -5.323105 123.971756
-11.935231 -11.793217 126.263321
13.120523 -13.400111 121.200630
-25.940250 7.247187 126.768982
12.871083 -10.927940 132.689133
22.762663 10.677642 137.053131
-23.968346 -0.348224 129.388596
-25.307846 10.423019 132.574692
14.594140 -15.229854 124.107384
15.247636 -3.146780 144.300812
-14.674767 -1.022015 139.757370
14.627199 7.519535 138.056046
-21.404732 2.146430 132.217712
13.754079 10.665740 141.651703
-0.546633 -9.575608 141.382477
1.871827 -13.521762 129.741547
-13.353559 -3.330990 119.886383
0.335502 -4.330565 148.170792
29.209417 0.107816 132.199203
12.666351 -13.780024 124.070343
-12.032187 -3.212797 145.993958
6.492621 6.929806 117.769447
-11.239966 2.431641 115.242867
8.344079 10.743178 138.889893
-18.307987 1.466142 134.342377
-24.777514 5.274100 129.810699
-12.888318 2.357421 114.669861
-22.647810 -1.440247 137.744644
8.370814 5.562869 116.224304
13.122568 -16.135750 128.867615
26.295727 -4.041281 136.445419
22.946480 -4.016685 131.570770
-25.268183 -2.301246 132.536438
14.334803 -11.279460 120.524063
-6.822312 -10.810363 138.720337
0.259866 8.305542 121.203415
-13.252932 -2.271516 143.386688
13.060244 -8.861513 121.936005
15.043771 -3.890034 125.003166
2.556256 9.682026 121.588272
27.626274 8.219920 136.780991
16.768215 3.753155 137.736313
6.268950 -6.093199 146.478012
3.118129 -14.809812 124.143394
-1.811736 7.607264 118.853844
-16.774126 2.212648 136.248749
27.829336 8.579014 135.194824
21.070126 -2.974056 138.917374
-29.498583 7.397574 132.062653
-28.237682 11.351023 131.731750
22.120371 10.741216 135.311111
12.774371 -8.802444 127.858582
27.405193 5.252897 139.022552
24.074446 4.527238 129.418762
-0.648818 -7.512745 145.062683
-1.993828 -6.621513 144.329880
-13.457439 -1.188168 118.462730
-18.230843 10.051188 147.379623
-15.039140 9.699608 139.141556
24.901295 8.950451 141.314407
-15.954453 2.996232 138.764008
-20.315264 3.563287 132.325577
6.565903 11.325736 138.076660
13.756929 -8.278385 119.540276
13.573852 2.473949 117.776131
21.182796 -1.208874 143.356613
-7.897479 -15.960981 125.003296
-7.678635 -18.035500 121.227928
16.685612 -0.622193 144.738052
-23.932133 4.547013 144.693909
14.514934 -1.940711 139.552414
-13.220987 -2.199491 149.470337
17.582304 5.906900 133.897064
-23.363262 2.237151 129.566422
-0.368300 -14.529626 134.481995
-22.886915 -4.813701 131.157166
-21.628189 4.468857 146.741287
-3.767745 -14.775316 127.848648
26.716778 0.378947 135.755310
0.014181 -13.206758 129.161377
-20.781115 8.827213 149.507492
4.663652 8.256510 122.759293
-26.497566 -4.111461 130.984116
1.871398 7.865045 117.903595
-8.829137 3.053265 112.209953
-12.410687 -12.464278 119.946930
-14.624664 -1.084492 142.470596
19.907440 9.545337 144.282166
26.669775 6.409487 126.477539
-24.805548 3.219217 128.559799
-14.396367 -1.884218 137.420181
9.147285 7.564192 125.616058
-5.796421 -7.035816 142.673096
21.244909 0.050995 143.633102
-8.422278 -15.280168 126.964264
18.192501 5.088900 133.263992
-7.229609 -14.516657 130.509293
-1.537035 12.079981 139.951004
12.707436 -16.885038 122.210930
28.303682 -2.104616 131.795105
9.008819 14.725391 137.343399
16.315821 -1.559212 137.033112
12.836891 -4.796822 143.453140
-2.592028 -8.906006 140.510147
8.979742 -9.272967 139.615112
-12.203304 -12.744583 119.168633
9.393716 12.143323 143.632660
16.909071 9.830628 139.395950
-14.094277 7.793862 148.698761
17.249664 5.599538 134.892914
-6.105198 11.592827 134.694870
-0.830780 -4.493668 146.021713
5.393069 10.599753 124.899605
-20.423214 7.688645 134.381760
18.628872 8.918891 138.441940
20.085535 9.975006 136.281479
-1.253433 6.167252 114.310196
18.826796 12.045819 143.415009
-0.981247 9.418477 121.258614
-5.525969 10.665593 131.949768
-9.305067 -3.520810 144.533325
15.210211 0.144312 148.248505
24.216415 9.208426 129.729965
-2.027277 -5.144464 146.781738
-7.310580 13.221166 137.376953
24.173159 3.251848 127.501846
12.139733 -6.965724 139.672775
15.992186 7.767390 136.744797
-17.519939 -0.746620 139.860031
-0.767237 -14.051075 127.427254
25.385353 -1.962587 136.204559
27.393978 -4.111381 131.766846
5.427076 -6.812967 143.241409
5.023389 -13.098545 131.217941
-18.515808 8.923232 145.222305
10.380299 12.463661 142.628067
6.212136 -9.686448 140.354065
0.241440 11.213654 133.810760
13.152302 3.344656 120.347137
15.273991 3.364280 136.120056
-5.369766 -14.758362 135.267548
27.382973 1.846989 128.447159
-12.761705 -10.336604 130.214203
21.946468 6.878866 132.185425
6.110925 -14.940241 125.153008
20.650812 9.895112 140.885605
1.654402 12.237365 139.773605
-4.017973 -11.417307 136.195480
-4.690157 5.379868 118.040276
23.615782 7.544917 137.569626
22.522423 3.960276 130.692963
-23.459517 2.020665 142.341248
25.874910 -5.239284 132.513565
15.390654 -0.712453 127.913811
-11.055334 -16.568695 128.298218
-14.366461 6.308581 150.029922
-3.494890 -4.844338 146.768585
0.334939 -14.536549 132.507080
15.260898 4.512743 150.656158
18.450706 12.152970 138.679184
24.819418 7.399386 128.593903
14.797504 -1.616411 115.828026
-17.355991 12.784716 142.197784
5.805062 12.438369 131.186157
13.105543 0.619861 125.830711
-18.235188 0.403664 146.429306
23.240059 10.937698 139.794205
-27.449675 9.686489 129.430008
22.589031 0.862694 147.091614
-13.011145 -2.489140 120.109764
-25.462988 1.736166 139.427414
-14.978340 2.194551 150.447021
29.399546 6.531196 134.615707
19.862276 -3.690261 135.543076
9.553970 12.224379 138.888947
-13.733470 -2.220155 123.002716
-9.349204 11.432480 132.510727
14.702919 -1.618296 139.135590
16.332174 10.636167 140.557373
12.318448 5.506710 127.779381
-11.418003 2.757628 123.345238
-10.153789 4.138740 119.170372
-10.624055 5.268896 127.346497
-9.328094 -16.265949 125.659630
18.308693 6.350338 148.913605
26.748419 7.666448 135.636841
-18.846432 -3.790776 143.918869
17.537889 8.375129 145.926804
10.575094 0.071566 149.574432
-4.671321 -3.739989 147.591400
-2.418391 -15.916193 125.442802
-13.240021 11.864300 145.032394
4.596132 -14.097254 130.965408
-29.811956 1.652375 133.705231
-5.603083 6.097584 116.796883
1.197156 -9.776657 140.124756
31.441282 -6.244244 128.537964
-13.768680 0.768976 127.340111
11.492583 2.419879 122.227432
-4.096621 -15.001553 127.108208
26.574373 9.711609 128.894211
19.809807 11.358445 141.215866
-16.945473 3.476095 136.350784
11.808257 11.490456 139.372833
10.394792 -2.875842 145.997528
18.654036 5.161450 132.651718
16.545996 7.951240 149.922501
-23.929893 3.140190 142.082214
1.076837 11.347468 136.327515
14.079494 0.936522 151.128464
14.104600 -1.487516 115.658142
-19.143436 5.296223 148.205887
20.532927 0.294317 135.331757
-0.672334 -14.470861 127.257240
-14.649800 -0.711564 136.118118
2.103842 -13.580879 125.171852
15.324889 7.619949 134.743134
-25.177357 0.898389 140.483688
-19.230017 12.220299 138.751526
-27.342760 -3.408185 129.622635
8.753544 -9.286863 139.010132
-21.254881 1.488155 132.493546
-11.329391 -11.517564 121.454742
-11.593803 -7.388453 139.592957
-29.267551 0.818062 133.913528
15.808265 -8.841854 134.438873
-15.351935 3.969783 153.381226
-18.401264 -0.380924 148.199036
12.361068 -15.445700 121.040466
-8.165001 9.433652 125.330238
-10.185097 -17.455534 126.099571
-5.231345 9.761583 125.508034
-20.700251 -3.946341 141.807114
-14.068464 -2.585971 141.159515
6.303634 6.508763 114.892494
0.997981 4.966442 116.544762
-5.484462 -14.316106 133.149582
20.076899 -1.813435 132.313370
23.006649 -4.080642 130.956772
8.784195 6.064405 118.021950
-25.326878 9.700449 130.383789
-15.925029 -6.326471 128.906250
27.178925 4.278768 139.776123
-13.226334 -9.550128 135.094040
30.843733 6.806388 133.522293
11.742815 -9.334899 118.156265
10.512259 -1.771172 147.769318
-26.610849 1.070152 127.204475
3.568965 13.517508 136.803757
6.369681 -4.558671 147.057571
-25.504923 -3.196560 127.039696
-21.494637 6.770761 147.941605
-13.444153 -16.194920 121.357964
4.719347 10.123771 129.819183
-7.964581 11.351746 136.514801
-8.366041 4.919173 120.921158
-22.977062 -6.424558 135.058472
-12.692525 10.805835 139.257736
-4.917793 -16.672764 123.210243
9.442929 -15.305517 128.798523
-13.746523 7.209428 136.872086
14.547436 -1.568841 127.517990
3.378524 -15.947509 126.483109
-15.692378 -3.103877 142.515045
-11.989662 10.276834 137.771820
5.528469 6.266158 114.930084
-4.689157 -3.567625 147.045319
3.129250 -4.669591 145.271194
-7.465209 10.548450 130.750107
6.234854 5.505390 112.430878
18.782488 10.460809 140.346542
8.442902 11.676743 136.376801
3.581125 11.414179 124.949509
-11.751219 -0.253482 117.698410
12.503445 -4.912614 115.124916
0.819237 -8.069490 140.336151
13.774652 0.933237 114.185631
16.188189 -0.917760 149.320908
-14.092473 -6.747946 124.948227
-23.820547 5.125815 129.643509
13.333963 11.338007 140.772217
-13.019905 10.603706 136.078842
-10.505742 -3.508693 145.929184
-13.342708 -11.567815 132.308868
6.493986 -22.950104 123.130798
18.728539 -1.406879 142.406448
13.855166 -11.082916 121.022545
-20.123259 1.549809 144.657028
-21.600199 0.389749 131.042969
-0.038823 -9.512021 140.424515
28.117271 -1.674142 132.762177
-28.427408 6.796590 132.854385
-14.883882 0.178709 130.282837
2.627155 13.172531 139.648453
-12.341013 -2.847719 146.014938
-6.101987 7.757895 123.585686
12.738017 -15.496888 125.346458
20.027866 -1.829210 139.018921
-17.861210 11.139752 145.386734
6.315759 -14.510730 134.386887
1.594265 -17.749163 130.270935
14.569149 -2.360148 129.719345
-9.353848 3.276683 119.393349
-11.044029 -14.359531 120.061897
-3.323939 -13.474586 132.780579
21.953625 -5.147048 135.822159
13.498915 -2.345198 141.886993
14.883381 -5.950116 136.029694
14.045113 -8.809886 129.076508
3.605704 -13.732419 129.568542
-3.863088 -13.420094 132.969574
-5.895952 -16.103891 126.604675
12.604013 -13.182588 129.479279
-19.776598 3.716246 149.784317
11.828229 -17.182480 124.674034
-25.612051 -0.657907 136.633942
-20.805626 2.036344 141.653992
17.399305 -0.599383 142.485229
-3.917356 7.906566 113.699165
21.560398 8.385561 131.300125
-27.416142 5.158189 137.825333
-11.524421 -1.027704 118.057663
-26.808577 -2.517918 127.343140
22.257330 -3.634330 131.074890
2.509540 -9.111686 138.538773
14.370027 -10.663921 125.327888
-16.786987 2.322481 138.696930
-9.675886 -9.167468 139.451004
-27.105701 7.667141 138.263168
10.428949 -12.044789 136.306534
30.693506 3.966907 133.681015
-32.086514 0.053564 131.663605
-16.162445 1.272988 148.605362
10.466187 -18.527508 123.598198
15.473158 -1.125147 131.606033
17.851418 9.523803 146.601013
-15.098615 -8.090102 131.408371
13.236137 -5.070409 128.401917
-16.512779 -0.878223 139.810822
-10.396263 -8.786092 117.133568
-12.860336 -7.390928 138.538589
-25.264639 9.940201 127.415581
-0.787426 -5.402608 144.418289
7.236451 -2.527939 147.988602
5.759006 11.954788 135.959534
-12.826097 -9.027535 122.170715
10.035254 9.320168 127.860909
-10.186367 -5.508917 143.974579
-6.167992 -2.062337 147.909882
-14.381694 5.882795 150.835007
-16.412846 -3.986146 133.186279
13.588358 -13.611603 127.113914
14.538033 5.094585 134.919586
-3.018107 -4.990074 145.007599
7.380514 -7.300221 141.977310
14.223960 11.819322 145.271347
6.970030 -5.927928 145.571182
1.309248 6.943559 112.808144
13.754645 -7.362511 130.576157
-15.565771 6.476090 152.536362
7.677645 -16.996759 120.130989
10.793132 12.142238 137.912323
21.525269 6.049429 129.349960
-17.664433 12.942951 144.325180
27.347372 2.558384 137.056244
9.241515 4.573551 113.808189
-17.804966 5.746432 151.263794
20.694557 6.979891 146.515137
-16.413855 1.137060 148.012238
-0.128810 8.712948 118.451981
-18.009447 11.566978 139.607880
-21.805002 0.722824 139.861115
10.078864 -12.760251 135.280533
3.138273 -12.079094 130.690506
10.971117 6.316418 128.287628
11.638868 -3.078797 143.953964
-19.464643 0.060387 147.221497
-14.937999 10.333352 141.273987
-20.051725 9.831765 134.903168
9.884508 12.706614 144.862366
9.298563 -8.152213 143.745377
12.046841 5.140827 151.792297
23.557680 5.431413 143.034851
22.700150 10.006255 132.279861
-28.207462 8.023388 130.983292
-20.557144 2.394759 147.915695
12.949439 -14.088792 130.511063
20.927801 -4.789832 136.805679
-6.405281 -4.181595 146.632797
4.899277 6.815887 117.981590
3.768950 10.946752 123.067780
-14.454926 -3.282961 136.225418
-10.571047 10.910993 136.159500
19.110146 5.107549 135.456635
-14.551508 -12.192365 131.540741
8.795720 6.123683 117.352242
-11.671938 11.641135 136.549408
-13.501468 2.498003 127.777351
15.696029 11.870366 139.428345
-5.021137 7.166341 123.749268
22.020559 -3.795764 132.504776
12.485486 -16.414026 121.816078
0.518244 8.057424 119.544632
-5.487698 9.738522 127.319633
-15.305480 -8.510354 127.813835
16.451218 1.690943 135.235458
-11.390781 2.388842 115.378609
12.212045 4.986507 126.223289
-7.663069 9.106095 127.878700
15.529593 1.900846 135.130264
24.668709 -5.928794 137.062698
-6.517887 -14.324591 131.105713
4.132408 8.237427 127.076920
15.984806 -2.113032 141.403870
17.397722 0.242785 134.754974
-14.028241 -12.803982 127.936432
-1.947864 6.276149 112.951706
-17.620342 5.171970 135.751236
7.850882 -9.400117 139.492294
22.969625 -0.189616 129.186127
-13.611352 10.955688 141.433853
-18.600937 9.180861 147.755615
8.343369 -6.956573 141.305374
13.485912 0.063393 124.983681
-21.125887 1.294222 146.000748
-10.111587 9.978886 132.053955
-14.036891 -8.831283 130.690491
-18.740231 12.134465 141.768097
-14.260807 -3.550920 138.631241
17.027456 -2.144546 144.634399
4.418507 7.624117 115.728592
5.777631 7.059767 122.907082
25.351255 -2.466000 133.152466
6.076028 7.069184 120.374008
12.562349 5.676066 151.693130
-23.850012 7.851878 140.789017
-18.460796 -0.176689 138.985062
-20.880117 -0.947639 144.035583
3.363460 9.930287 129.605011
-23.944042 -3.007555 137.812057
3.877484 8.980300 119.352600
11.061171 -3.184394 148.465561
-22.210979 3.708495 130.842392
29.486631 -3.711881 129.757233
-1.638765 -15.666745 123.789696
-19.627016 10.670946 143.714081
10.769327 7.800778 125.935547
7.829886 -5.237597 144.742889
-25.139828 -2.447250 134.015945
16.432482 8.434608 141.019165
-15.118670 11.208510 148.691238
16.117100 4.508505 136.715561
-12.364788 0.832804 120.297836
18.801405 11.289455 139.958405
-4.639999 -5.392086 145.426208
14.560470 8.260619 138.169495
-9.172539 5.572517 120.320892
13.141617 -6.807002 125.839882
-5.607412 12.314767 138.505646
-2.265972 13.317848 139.440781
11.375996 -8.842267 139.667679
-16.181389 -2.804026 132.519226
12.149298 -15.725925 123.859344
-5.824286 -12.916951 136.198425
-28.077581 6.849602 137.225082
-6.722544 9.925295 129.952698
-19.732185 11.064472 141.421158
-7.331772 -14.981629 130.140015
-17.227877 8.907593 148.197662
-17.600067 6.240104 152.035233
13.623529 -6.196564 126.442146
20.044025 -2.631753 139.707047
-26.915241 -4.161253 126.044235
-7.126131 8.591525 127.224907
11.962614 -16.392317 125.362068
-17.984035 -0.573382 143.071396
15.183664 0.651658 128.732635
25.605499 6.810152 140.024796
-13.139303 11.862511 140.863892
-18.521942 -1.126820 147.748932
-10.898623 -15.068310 127.767395
-4.442795 -14.337922 133.714996
-11.650949 -17.682259 123.165855
17.044470 1.227908 139.260391
-22.549006 -3.724929 133.268219
-15.403119 11.793963 143.521591
-24.511040 11.205054 135.064346
29.018814 4.827920 136.272903
6.451271 -13.043889 135.187592
-2.927577 -14.191005 129.144073
5.184098 -5.362550 146.197693
-15.318484 0.481394 146.954025
12.172610 13.503047 142.215393
12.804114 -7.151702 122.091835
-4.996442 -14.328925 129.725327
-9.782594 6.167834 124.659904
-12.869994 1.025327 119.263138
-23.477261 -0.364915 130.621307
12.433913 -14.886985 125.685158
-30.141367 7.929908 132.186401
-12.567610 -10.499875 121.164673
24.213762 8.588487 135.820953
-1.661946 10.707108 133.720261
13.611835 2.120916 124.191368
-4.661475 -3.939518 146.871002
-7.706546 7.616582 128.290680
-3.894994 6.887441 112.926224
-25.453365 9.612106 139.063904
14.821454 -2.041079 137.761795
5.290699 -5.620053 144.072235
-13.648105 -7.874932 120.359573
0.008509 -6.668005 142.842789
-0.856746 9.576313 122.761047
9.808395 -7.142128 142.462051
-28.961601 0.664927 132.955490
-23.863541 -1.656139 129.273834
-1.206461 10.668287 131.890610
-14.136974 -1.073660 126.649544
9.223338 -14.546700 128.041138
5.679380 11.185142 134.778992
-5.618117 -16.773186 121.195526
20.327770 -1.902264 141.722122
13.797639 -7.428298 125.431290
-2.415777 -8.242633 144.553970
2.799860 10.702867 127.584740
-15.465751 6.010328 137.978027
15.526438 13.086636 140.481155
-13.098255 -1.320052 113.867294
-14.984899 5.250142 151.317337
-2.419945 -15.829857 123.906326
14.183355 -2.563201 129.839005
3.515452 9.009569 124.377090
11.962146 5.953394 127.850151
5.327445 -11.655602 135.373962
25.684839 -1.320119 135.847733
22.921810 -5.150951 131.585693
-13.075695 -7.297877 121.485695
1.968397 10.353615 122.854271
23.511822 9.387482 143.355911
13.988710 10.787950 137.240417
12.777360 -4.749688 115.937843
14.308268 1.961986 115.431648
4.107359 -7.335929 145.084702
-15.298194 -4.104942 122.051788
-8.370638 12.654749 134.551682
8.646319 -13.976278 129.771469
12.035321 -2.256625 146.465515
-13.360930 -1.094929 117.183449
13.823197 5.030239 153.099701
-17.018766 0.078067 149.735260
-9.717573 15.209498 144.481354
-9.281780 11.771634 133.278488
-2.679649 -7.802336 143.064377
15.484374 6.252141 137.343033
-20.352224 -0.340114 146.473206
-18.775331 -2.498364 145.296555
1.040315 -8.488577 142.631332
-7.635602 -17.857197 122.505196
-14.446772 -2.764221 134.635712
20.465113 -1.390944 144.245255
13.859285 6.235625 131.851624
14.569611 -2.030186 123.669441
23.448404 -2.571468 140.111450
-25.604961 2.935585 141.492020
-23.068319 5.845780 130.055710
-28.022800 1.635187 136.621674
-12.585438 2.118752 126.039940
-9.253780 10.503522 134.545624
8.344042 -17.904642 124.298248
9.902461 -8.936587 139.330917
23.720865 2.760375 127.851585
-19.516478 10.448504 137.287415
14.876986 9.734824 139.573914
-16.082413 2.063842 150.115372
-13.762401 -2.701844 118.207870
20.113718 10.665497 137.460968
-0.567340 10.011208 126.827095
-25.977240 5.667523 126.807663
14.933823 0.246319 124.061333
-5.997926 13.984850 139.670609
15.307668 -9.298564 134.369904
13.824724 -2.832147 140.026855
12.809946 -4.788445 117.845818
10.846259 3.346193 118.928307
-15.343657 -1.863307 135.099487
-13.689987 -2.437288 145.956436
23.046396 1.366954 132.994095
16.310228 11.080999 147.107086
-21.565758 7.973513 143.215378
29.954365 7.742089 126.891403
-12.293797 4.132591 151.128967
-8.362564 9.499157 129.451187
-16.200588 0.755857 138.199280
-13.925824 9.469245 138.923904
-8.525102 10.934123 133.478104
19.965183 -3.060080 141.150909
8.614658 4.207189 117.473282
-8.696169 3.674886 118.900993
-0.792255 9.350231 120.737320
14.849322 -4.261276 128.305588
-18.417719 0.912490 148.390625
14.341890 6.939229 151.380310
-24.321377 4.644325 142.867783
13.151015 -3.480328 113.291443
-11.802380 11.423600 144.272034
13.872788 -2.382197 131.036591
27.008623 9.675218 131.134140
22.909063 -2.840359 129.213470
-21.366518 11.784611 137.032715
-16.420132 -4.987864 123.096832
19.929655 2.968875 150.749146
14.365920 -2.640321 144.533173
28.101540 6.100909 137.989044
-14.494560 -3.996827 119.492569
26.675528 -0.340167 140.338272
-8.016204 -10.404908 137.095657
-14.843099 5.415154 150.175674
4.212348 -14.079686 132.280731
12.581293 3.980804 123.449615
-19.417435 0.694260 145.078598
-13.530316 -0.359113 123.383995
7.661744 -16.000402 128.715332
-24.147757 10.250279 141.531464
-18.903543 0.825327 134.370956
21.258375 4.262892 128.557770
-1.591767 -16.202272 125.062912
-20.691168 -1.674162 141.857483
-12.021318 -8.109289 136.132507
9.275239 -0.905346 150.042297
-0.937065 -13.701214 129.666397
19.989853 10.492473 141.635849
7.541667 12.277691 136.345520
12.815378 -4.204101 115.479156
-8.896613 -15.343312 130.191162
11.784407 12.327378 142.046448
3.008378 -13.184116 137.286469
-25.840021 4.711780 139.670639
-27.306660 6.255494 137.741486
17.528379 9.220517 134.525116
-16.631163 -0.841607 146.419144
22.989305 7.335743 143.921326
14.131106 -18.927225 122.965271
23.654182 10.077638 134.032104
-23.196810 -3.869060 135.029129
20.568491 10.277377 139.581070
24.111938 -7.115975 128.925797
25.055737 -0.274053 142.833221
-4.648098 -14.733929 136.512253
13.285567 -8.315978 115.414345
4.156114 -8.693035 142.621689
11.578451 6.623342 124.698334
-18.590578 -2.151692 142.348495
-3.490669 10.539560 135.110825
-19.019072 9.901321 137.141998
-7.543089 -7.392042 141.676483
-7.864800 9.955425 130.653076
-24.248856 0.419177 128.274124
-4.278841 7.650068 114.859642
2.095137 -2.952819 147.266296
-15.119593 8.601327 152.037537
-14.598224 7.861761 136.210663
7.488382 10.293371 128.509827
-18.416622 5.977587 149.198502
22.188835 -3.591238 124.067833
12.798212 8.307779 150.223587
-3.634186 -14.705515 128.619995
11.261984 14.235711 141.322006
11.431452 13.128118 141.574173
26.737509 -7.558305 131.964203
-10.039284 2.901378 114.935760
9.840995 -18.150993 124.721848
10.150512 -18.158382 123.627861
19.640224 11.351775 140.940796
-9.910131 -5.472055 143.750153
-18.649050 -0.665921 139.382629
11.044485 3.044750 121.958878
-6.082426 -5.403881 142.975906
-19.328691 -2.968479 137.775192
14.022846 -6.003679 124.117912
24.893385 0.815296 130.162476
11.724034 -0.323849 150.242355
-6.434787 -15.920126 122.941208
-3.939210 7.727960 115.871468
21.489014 5.114899 131.262268
-7.717333 -6.495835 141.817001
-13.293706 4.605871 132.699936
5.880814 -11.433812 135.217728
-18.204556 3.366209 133.118195
-12.811464 -3.061504 145.165436
9.677207 -8.334774 141.117493
-11.527838 -13.525248 119.074905
-23.652943 7.027887 130.883011
10.593773 7.833039 125.399429
19.523718 0.385385 145.723328
-12.130263 0.886746 123.928978
-19.778397 -3.237359 137.945129
17.340193 5.376171 134.237640
-10.315356 4.753218 124.335396
25.119726 0.615123 139.060883
19.169060 -1.467338 142.296997
-30.223597 7.849486 132.033905
-4.867227 10.603134 133.048355
-10.558269 11.386190 135.803635
-12.605544 -2.281210 123.632446
-30.628088 4.513697 133.292282
-8.137840 4.601841 116.093887
25.982821 8.000909 134.697662
-14.444769 -9.144619 135.867722
-10.752180 3.152822 114.184349
3.315007 -14.738122 132.101425
21.462820 5.479903 131.743774
14.507366 5.329723 130.778320
3.546333 6.515587 114.810692
-24.090252 -0.826403 135.818512
13.991290 -9.326837 130.265411
22.421093 -4.109986 134.396896
-8.943285 -2.371739 148.810257
8.780087 6.446467 124.652802
-29.340597 5.696587 136.202789
-13.177152 7.409861 132.203186
4.989789 7.585132 118.339073
-13.665907 -5.227348 115.790665
-13.585995 10.480925 146.087173
-31.676695 8.084242 131.603653
23.672991 4.287628 143.542923
-22.239084 7.524430 143.779144
30.166416 6.408971 133.387848
9.690825 -6.995801 143.331924
-24.011929 -0.182075 140.259964
-11.636776 5.240971 123.125298
6.480361 -5.924897 143.281570
3.217443 7.466215 112.486763
-14.776161 -11.352446 133.556564
-27.356525 0.709280 136.263763
-15.966096 -6.087232 125.061150
-11.373913 10.564862 148.027344
-12.329608 11.774399 144.503662
-11.764550 1.004681 112.681229
29.014654 8.052276 132.766281
-12.786446 0.817798 128.348801
-18.334513 9.717973 137.021164
26.950983 5.658056 138.514114
-24.966215 9.291057 131.802994
25.298225 -7.357174 134.634186
-24.542309 8.922985 134.274170
-9.806008 6.990259 126.531067
25.458488 8.656459 132.243256
-17.813982 4.118575 135.023621
-13.505422 -11.045605 128.514938
-27.789692 9.511261 131.749344
-13.539263 -8.037081 131.679321
-10.630711 -9.360332 136.939941
-4.700042 -5.698997 143.695923
-14.247654 9.665965 137.684799
-16.302513 8.149214 137.206039
31.645475 3.662068 131.972809
15.444604 9.350609 151.516052
14.327540 -2.239965 139.783691
13.908019 -4.759560 135.021454
-8.749969 -3.631655 147.120773
-26.684216 -2.511176 131.033478
-14.239159 -7.582030 116.873047
-2.408505 -15.053205 122.814743
-5.710671 5.634726 119.313972
31.481983 7.410307 134.255722
-3.005025 -14.676887 128.777405
-0.140524 8.280860 120.201424
-18.097486 -2.827585 141.929840
8.844091 9.663431 130.151947
14.670192 -2.890144 124.642372
-12.864527 -1.787306 122.139786
-4.288630 10.217758 127.584404
1.510320 11.817524 128.065277
-16.085161 9.939211 137.500763
-3.964410 6.147689 116.818169
19.700167 -3.681421 145.880249
-24.482862 8.817706 140.602921
11.221219 -3.795532 143.243484
-13.289607 7.485530 130.836975
-16.191469 13.245978 144.404358
-11.519367 -4.992006 141.714478
-13.949625 -5.591633 127.317841
16.352562 11.493223 139.882706
17.986700 9.641526 148.904404
27.893137 7.898812 130.332306
31.022020 8.350800 131.685226
-3.552057 -15.509236 131.310638
-20.740692 4.035115 131.171051
-6.203143 4.502652 116.045319
23.189924 11.338694 137.173172
6.013099 11.455815 136.467545
25.286888 -1.349300 128.711197
3.077704 8.409893 122.278297
-14.861238 10.622997 148.623352
10.397046 12.711239 137.771332
-1.292768 10.889413 132.148117
16.130051 7.291367 136.838837
-14.186372 -7.312903 118.224228
9.248945 7.353939 125.054619
10.609314 2.435672 119.606873
18.659496 2.773505 151.300949
23.604033 9.360997 139.192108
-14.817212 10.259061 139.697098
7.965675 -15.112465 123.553780
-22.728289 -1.877823 139.373459
-14.551721 10.043739 143.726044
10.208734 -16.778975 127.666901
2.685694 4.555586 117.183990
17.287306 -1.157300 146.712891
20.865953 -2.593975 135.808456
-4.515253 -3.384715 147.367310
16.568340 -5.224621 139.235382
-16.588247 11.930424 147.508072
-20.185972 0.391122 144.536118
-12.482699 8.243051 130.191360
-13.144624 3.502968 125.372284
13.310139 -13.820214 119.260284
14.956927 1.286753 129.424957
2.222969 -13.377140 130.244858
-7.280580 8.694427 125.188026
-23.466719 1.075541 140.883408
11.003959 -9.338435 138.400146
21.746098 6.903281 145.588974
-11.456869 -7.150696 140.794998
-16.074841 -3.845098 125.000702
-21.689054 -4.619905 135.504913
12.695279 -17.776558 121.157379
-3.797323 -14.136483 129.322281
-4.873250 12.111136 136.314941
14.582880 5.662629 133.499344
26.035343 9.337379 135.134354
2.369866 8.051901 120.270531
-21.970219 -0.273004 130.223694
-16.441912 -2.042249 148.119415
-10.331838 -11.851430 135.702286
-21.432531 -1.976139 141.969559
27.967287 8.146429 130.886047
-10.084686 11.637264 135.118378
-11.943532 -18.108421 121.905807
26.516891 6.193846 136.116058
0.445637 -13.067338 133.826324
12.389450 12.272048 145.533432
32.917763 7.878294 131.070221
9.345379 -13.042572 136.234863
-14.385589 -5.911167 115.781883
24.311331 0.718525 138.967300
9.286448 8.729264 128.213547
11.135816 10.726491 134.840439
12.619692 -6.907102 136.623398
-12.240708 -13.274773 120.461533
13.744852 1.022263 121.876282
5.074131 -5.639105 146.881821
-14.552022 -0.314347 137.513321
18.344730 8.998697 141.201767
-3.355046 -15.783718 125.792030
-26.682178 -6.914784 130.813568
-13.892269 -7.297984 134.005249
-27.341070 1.758248 136.815414
-9.859891 3.979923 113.946129
8.126182 -16.779705 124.786674
15.762975 6.015330 140.027252
-2.650826 13.313819 140.617111
-25.555517 9.077161 130.228470
-18.807863 10.172215 145.506210
7.671588 6.297398 119.537285
-26.607130 0.924292 134.924408
1.066131 -8.186647 140.321640
9.830717 -14.644965 129.152740
-6.597091 -12.742751 135.196075
-10.741324 -8.538468 139.999985
-7.153455 -1.712432 147.917938
9.127431 -3.665709 147.482529
-15.673392 -7.843884 127.570274
16.482079 0.288591 142.703918
13.649884 4.546378 150.852234
22.656460 9.701827 131.902618
18.144888 4.491948 134.043152
30.988127 2.365956 131.854019
11.174791 -8.707459 116.181931
13.340093 0.485293 124.617592
-9.598635 -17.060028 123.771690
25.004469 -3.629329 138.650238
14.200245 -3.012336 128.049606
-13.592940 -1.249091 148.362564
-3.828354 -12.114010 138.071915
4.996037 11.639205 134.811447
13.359764 -3.571503 121.453537
-24.724232 9.071810 139.617950
14.818956 10.603316 145.732544
-6.675829 -14.947709 130.886002
-2.377481 12.164074 132.266418
-28.001076 -2.268229 134.162079
7.660929 -9.403436 140.312698
12.719631 7.810065 125.208397
9.624268 -6.517929 145.434433
8.071065 -4.137437 147.699707
8.879049 4.742005 114.548195
13.264763 13.332683 143.000412
20.377293 10.355814 139.175018
8.055933 6.408101 123.891075
-26.422836 -2.255180 131.694138
-27.136896 -5.829617 129.484177
-15.664146 -2.266219 124.403831
-6.685369 -13.752651 130.778198
4.438993 7.290614 115.071121
27.531775 -4.305654 134.098999
-19.828384 5.405122 134.942734
8.467517 -15.996785 130.258820
13.047360 -7.521013 121.594551
-11.204771 -5.445062 141.678940
-12.844687 2.352925 123.410103
-17.628342 12.035904 141.251404
-10.353970 -6.109285 143.853043
-14.952765 5.342640 135.064438
-5.601474 -6.183559 143.791016
11.347009 13.144643 140.165283
14.864136 11.996982 146.724030
1.234369 5.943572 111.634827
-2.178484 9.108720 122.610214
23.380205 6.981888 143.280457
11.543464 3.870054 117.850739
21.841490 -3.220087 133.439407
23.293272 8.298744 129.644730
13.633836 -1.820196 131.608948
-0.003618 -7.474632 142.778107
13.294142 3.734142 124.054932
-18.377579 -2.382005 144.701172
12.988268 -10.405355 125.139900
17.411772 -2.512244 147.132721
24.811989 9.799295 133.677155
-20.696009 -3.418410 137.361694
28.198244 8.903378 132.906113
-16.072786 12.809842 143.343765
24.129696 0.544562 139.849396
14.546258 -9.607018 125.778549
-7.702960 4.432447 118.949699
15.659620 -0.250120 149.085556
6.841332 9.775221 127.438622
18.742249 -1.014726 145.669571
-22.970249 -0.630130 132.647568
-25.479177 0.712604 132.557922
-18.596148 -2.233124 142.848999
25.317556 5.557034 141.551697
5.612141 -7.135277 143.189102
-25.863319 -1.634237 128.433197
12.153454 -11.416223 132.517838
7.008327 13.201980 127.613396
-19.866913 10.869918 141.394211
-3.629819 7.773807 115.050095
14.804926 1.740706 134.012451
8.230556 7.078328 124.699928
-15.462258 13.732265 147.902359
-7.806530 -16.831533 128.309860
-5.159440 10.717785 121.335777
19.507334 -2.584570 140.426575
13.393184 -3.097577 122.394867
14.702305 -7.770958 128.100372
-5.815868 8.515254 128.536606
-13.479740 12.875105 138.296356
-9.895321 -5.896988 143.168869
-27.203281 6.313457 140.629242
14.474548 -11.887936 128.530136
-0.324550 -14.205979 121.195786
15.321232 -8.982571 129.717819
22.212337 9.100810 138.107529
-6.793684 11.785348 137.120621
-10.322485 3.786493 123.021622
1.922663 10.719028 123.503784
-4.626104 11.544970 130.406113
1.090540 -13.566870 136.127380
-26.913452 -3.184517 130.069794
29.563477 6.186415 134.656876
-16.715694 4.020155 137.269989
18.966934 2.398073 148.512024
-12.795500 -6.966558 136.448044
-13.072588 -0.652314 123.045670
-11.471250 -7.372236 139.847412
4.488187 -5.105771 145.654083
3.320884 8.779271 124.269012
25.433182 2.608749 142.917374
6.175406 -15.029977 122.025467
-24.427559 2.715207 142.349731
14.633608 0.067640 124.592880
14.748173 -8.148805 118.515480
-13.919441 7.100197 134.253433
23.902836 10.322283 137.275406
-5.825316 13.993302 135.697418
14.232090 -5.034568 130.449844
14.710295 0.161449 140.834717
9.512259 11.344584 138.408875
7.190609 9.154992 125.835289
-1.140226 9.656329 125.065826
19.443878 5.977140 148.709991
-17.425589 9.855860 147.936691
-4.342989 -7.371620 143.495590
-14.426636 10.462862 144.758331
-3.914250 6.793705 115.870270
3.822871 4.808547 116.691917
8.026419 -15.826626 130.345856
-29.164167 4.648290 137.495682
-13.480204 2.240218 117.514420
-19.883579 9.504957 145.209351
-20.298861 2.528112 134.021896
-5.479587 13.850085 139.589630
-3.589083 7.630414 111.951698
-6.119252 6.305491 123.755737
12.250570 -1.689714 117.065239
-13.702448 -2.978733 121.606613
0.818552 12.224016 133.384064
-33.234867 6.320639 132.693008
-10.507361 2.599954 115.821922
14.184383 -7.633055 121.881775
-12.501327 4.320026 126.440117
-14.565079 -9.870219 130.619629
-10.067925 4.954055 123.650970
0.506690 12.432539 139.070328
30.803930 0.815635 131.538086
17.718805 7.392463 137.743301
-7.255079 6.097524 110.407372
13.464177 -0.954150 117.605293
17.803171 10.101092 140.385986
-25.059603 -3.192162 136.507446
-27.208447 7.201252 137.176743
9.851849 4.153500 117.186554
6.002751 14.060601 138.961960
14.875798 -3.473733 126.700432
14.157608 -4.154450 130.428604
-9.632497 -17.912415 125.326668
9.960834 -8.808154 139.278397
-15.429251 -5.478182 124.746933
-9.211676 -14.651969 131.100891
28.411064 5.323015 136.874268
-17.256878 11.608022 148.870239
27.163818 -4.223629 132.564941
-11.504853 -13.818779 133.305664
-24.801935 0.146605 137.447357
-10.242416 -13.852473 119.531403
12.968642 0.619062 149.850372
14.049557 13.467257 144.233673
23.362654 3.406304 128.361465
12.725535 -6.873525 140.063522
1.211274 7.950949 115.530151
9.488294 -7.821897 140.515167
-28.540823 4.519748 137.257721
14.877068 6.511098 135.174728
13.946844 -8.753352 119.863625
-11.826122 -1.383368 115.979561
20.497444 3.361493 131.131363
-29.320120 0.667124 130.707016
23.507475 -3.295464 135.702545
18.803661 13.119594 140.886307
-12.727872 0.940139 127.010178
14.936524 5.163258 149.913239
7.764894 6.029142 119.147751
-28.238585 8.200078 136.454803
10.732326 7.492595 125.040565
8.100016 4.303001 123.382057
-13.583718 -6.603233 119.098305
-23.553118 4.451612 128.379150
-27.704966 7.064157 132.133148
13.412717 1.927038 119.591797
-14.462490 4.059203 131.015823
13.956002 -5.125853 119.199173
9.153369 -5.190143 146.202118
-6.219320 -10.725290 139.145248
-13.594606 10.702264 145.274841
-20.009207 10.842099 136.601730
17.234035 9.007075 139.092621
-15.183796 -0.976123 121.440048
-6.187653 6.638919 121.590431
14.314623 -2.988870 136.061737
12.842486 10.188609 146.222519
-9.692377 0.862108 150.260269
1.666661 7.699405 116.630424
6.186398 6.521382 113.933182
-7.358323 -13.649506 129.997162
-8.032825 11.420359 133.192169
25.286264 10.050784 128.137955
9.772833 7.252410 122.185638
-9.313228 -13.589162 130.345154
-7.805369 -16.033716 128.214142
-12.511532 7.235089 131.519150
26.929644 5.831661 138.880096
-22.994783 3.491600 130.306931
-11.490235 -6.220037 141.647247
6.365562 11.895984 140.260925
14.669805 3.823983 137.027847
8.295073 -11.227031 139.003632
13.523812 -10.372255 123.742935
9.850773 -16.452282 125.089584
-18.929411 6.550828 133.778061
17.290222 -1.468426 148.802261
15.675959 6.984250 136.546692
-7.016240 7.789436 123.881248
-27.620625 3.193786 137.563339
19.276541 9.912064 136.773804
-7.304911 10.208919 135.349731
15.197289 1.970502 139.709534
-21.385622 7.678677 145.417633
27.147552 8.391532 132.970154
13.361500 -11.902857 132.945923
11.714106 -16.082092 127.929092
19.541332 8.468610 135.957138
12.400952 3.675084 128.246384
20.674908 1.274164 131.537720
-12.977255 -1.907106 120.147629
-19.244305 6.155224 132.399216
19.899397 9.658978 136.456009
14.106935 6.772484 137.450867
2.504088 -13.963389 126.599709
-11.015015 -15.973009 128.353195
-11.502877 12.510437 145.988220
-7.416731 -6.213615 145.493591
-18.779470 3.795937 149.770508
16.641783 5.834323 138.494171
-15.725794 -3.830054 130.234634
-19.984819 -4.053606 138.300278
12.494631 -0.090849 118.672989
-15.477426 10.957047 148.631424
16.136225 1.374334 138.496323
11.662611 3.333996 117.114845
15.939419 12.033723 139.964386
17.767124 8.005394 135.236877
-21.011667 -4.142008 136.955536
15.283203 -8.481711 124.438614
29.570824 7.531921 129.762039
-13.850939 -1.163766 139.261978
2.233990 12.287910 135.112259
19.876612 5.760880 147.350143
13.321949 -3.235417 114.834808
-6.893547 -3.490207 146.241776
17.342131 12.478023 139.965378
11.543659 -13.446858 132.125610
12.578307 1.433927 124.375481
17.514229 7.830307 149.840393
9.366645 9.332597 128.172791
-16.519358 -3.743871 130.113998
-0.205348 -16.406336 122.536789
-15.081408 5.269482 136.961349
-3.762760 8.305923 121.957024
18.845524 -1.078194 134.181183
-0.224592 -11.864487 137.589935
15.423389 -0.476155 136.379303
-14.744108 -11.303302 135.368500
12.725869 -4.242938 114.265984
-12.819025 5.948713 152.134308
21.673887 8.668839 141.612656
2.034461 -9.379937 141.658615
11.638470 -17.391960 122.643784
24.789021 2.991529 140.774582
13.890385 7.562489 129.290024
-17.656267 7.422826 151.325531
-32.914413 4.066836 129.907776
15.227083 -14.390460 122.754105
-0.044292 12.430943 134.167755
-3.805650 -8.264972 141.758972
-23.326189 -5.937929 129.204910
-0.148314 -8.482976 141.935013
32.487129 8.724813 129.617004
11.614872 8.777103 128.513580
9.492647 10.672926 135.069046
26.963251 5.339296 140.563049
10.564669 11.481871 135.964645
-0.170106 11.517156 135.851883
-12.610810 0.511299 122.529716
25.748096 -4.694842 138.936340
-8.576926 -11.589915 135.905243
11.225737 7.545349 122.426819
-9.290908 10.669509 133.270218
-17.684593 11.509377 142.131912
14.499725 -3.703765 117.745705
15.308598 6.570404 137.477982
-11.714145 -15.175863 126.882942
5.735016 -16.212639 128.761185
4.555914 10.172775 125.067451
15.320311 12.608575 142.109879
-14.958822 3.123973 133.687256
-30.537712 4.857356 132.370987
14.401650 -4.149440 126.049309
11.848519 2.642269 116.183510
-3.902605 9.111291 125.171982
-12.232177 4.748562 124.532196
-9.779424 6.657950 125.435600
-20.449463 9.548198 135.121078
-25.008680 9.382730 136.054367
-25.405251 0.543754 134.713943
9.757996 9.351809 134.064453
-13.178473 -1.632004 117.117348
-26.018829 -2.581050 134.500549
-13.793589 -16.216263 123.292679
11.239612 -16.648695 127.014954
-25.340944 2.845713 142.436890
-19.226131 -2.950341 140.455185
-33.145000 2.015583 129.343094
-10.665617 -18.164850 125.209259
0.221159 -13.326087 131.456970
8.966416 -16.462358 123.910797
-23.442226 2.120208 140.533035
2.896813 12.283738 138.965164
-1.660138 -13.800507 131.789001
-24.838726 1.265110 139.259720
-18.206640 -1.321454 147.804230
-14.626059 -7.665404 133.111923
23.647848 -2.506961 130.595749
-8.103290 -15.779244 128.259598
14.743712 -2.203899 147.228424
-10.282577 -19.552462 122.290092
14.892353 -5.897479 136.402054
27.733458 -1.803263 132.516693
-12.515818 -1.271949 125.432724
-12.170623 -12.130035 132.858856
22.491432 3.482569 129.971283
-0.480698 11.464996 137.158142
-12.722748 4.045521 128.239822
-4.610003 11.271077 122.508408
2.274456 -13.466851 130.658981
26.106710 1.805293 138.121597
19.973814 0.073235 148.967377
-22.504515 -0.775766 136.343399
6.839922 9.323190 126.996223
21.938581 -4.891587 132.159073
-20.619783 -3.731700 131.665695
-13.497978 0.704661 126.727104
-22.478594 2.434555 145.600266
-10.871439 -5.536505 144.398102
13.944743 12.153633 143.780731
2.805997 6.779649 120.172195
-15.925922 -1.912784 134.476959
13.462902 5.708382 127.430534
8.361477 -6.311239 142.932251
0.745465 12.312282 135.482361
-3.980889 -3.138352 146.056183
-6.383187 -4.390839 145.465332
19.704624 8.523657 147.014679
0.034436 -12.383593 124.782944
-14.972592 3.557875 135.549606
14.857957 -5.098885 125.908791
-14.806521 -0.096673 121.927948
-6.618876 5.082246 115.417648
17.076813 0.516161 139.362350
12.937997 -11.787697 130.155945
-14.504802 -2.562760 148.600571
5.525375 11.336561 132.020065
-4.614748 -8.806958 140.993500
18.753284 3.023411 149.558304
19.995863 -0.677046 145.459351
-2.091868 7.900986 116.634865
-13.586264 -14.366291 118.930176
-13.613458 -6.150973 124.255348
-26.244993 1.091198 136.609619
-12.329031 -17.299524 124.129951
-7.634798 -1.376917 147.104050
7.912555 6.219721 120.718559
-22.890944 -5.655844 134.768631
-1.479775 -9.078295 138.582947
-24.679825 8.855166 133.197739
-18.310001 9.664952 145.028015
23.779804 9.231172 135.699768
-7.594175 -2.408134 147.503159
12.846292 -8.631248 132.914536
-19.979631 4.653460 150.960159
-18.589745 4.669813 151.262833
5.407423 -5.092961 145.365982
-8.608609 10.587809 142.782303
0.653094 -12.287241 136.807907
14.354668 -12.444678 127.965706
8.275091 -12.285661 138.046860
13.427795 2.053046 114.922714
-9.766637 4.045120 114.543037
-6.592536 -5.390124 145.338287
25.246185 10.425803 133.457260
6.688375 -9.628675 138.435394
0.391723 5.184991 113.408989
-13.966707 -2.244179 133.611603
-13.277666 -9.000279 118.652649
14.000340 3.479645 131.470856
2.986892 11.162386 127.970016
-2.036821 -7.412462 142.024216
-9.813425 -3.584998 147.959961
-2.561719 11.474726 130.453049
-6.666699 9.082028 125.696236
16.621857 2.362548 137.570496
13.756577 -9.794278 119.261971
-9.074568 -6.337382 144.551315
-22.528297 4.590594 144.523911
12.040645 -15.070702 130.655289
7.671788 -14.863991 131.080154
12.212317 -11.580855 126.724678
-4.315193 -13.565117 132.185638
14.577879 -1.767011 132.346725
-23.754433 -1.812268 133.431564
-24.119396 0.112056 137.241882
-2.727202 -15.106388 125.354416
1.276966 8.023341 119.432693
-11.731830 2.896801 115.756638
11.637045 -12.794719 133.849991
13.485465 -7.870105 120.261147
-23.884783 2.252179 129.006302
-1.492752 12.904906 136.589111
-6.225853 14.502279 142.494003
-17.585527 10.920410 140.580276
12.774584 5.324342 126.540909
-21.932934 9.944139 131.375259
-26.357800 -3.184195 129.275955
18.100973 9.690269 151.209396
-13.133474 -5.366463 137.959671
-20.565926 -0.400232 142.657425
22.942097 -4.851256 132.479752
-4.520585 -11.525161 138.117188
-17.431078 -2.437655 145.747528
18.883917 -1.774192 147.455048
6.997138 11.853106 142.279388
-3.019201 10.169967 126.571892
-25.931211 9.453027 132.988754
6.136294 -2.417697 146.519714
1.561871 10.464394 130.564529
-16.393021 11.282951 138.791458
11.524664 1.940627 116.662834
12.418359 -10.980341 136.228439
-13.360432 -16.567291 121.906898
14.107476 8.977211 138.839676
16.962994 -0.629487 145.800705
12.869607 3.185354 113.238632
7.005951 -16.097027 129.300720
-11.357203 -1.586784 115.060661
25.754915 2.631074 128.473312
-5.251697 -15.034178 124.098503
7.374187 -14.130056 133.137115
-12.589556 1.239411 116.262627
-24.458828 -4.374197 130.301758
-8.329594 -14.190657 128.504517
23.767139 -1.254780 144.362610
-0.593737 -14.149773 127.340202
12.704333 -13.969361 123.827721
-15.425329 -4.511043 123.575470
-13.409730 -1.998548 145.403549
-14.722719 -8.400228 135.239304
-24.478493 3.500068 141.598938
11.627145 -9.397706 138.130753
14.984221 1.294743 132.571991
-13.196030 -9.073055 121.957146
13.877574 -13.465091 122.604607
-14.591522 -3.984173 128.768646
13.605815 -11.945989 128.151520
12.944202 0.246756 148.721176
-19.537201 10.385800 139.264694
-0.430205 -11.258569 137.512329
11.863564 -6.636268 125.131317
-12.209063 5.434071 129.800735
3.601137 -8.835994 139.895203
28.028904 5.466200 136.096329
-30.723745 9.023873 126.191971
15.093296 -1.700442 139.289627
11.424512 3.007747 112.604607
-22.768721 0.737794 145.343246
13.590651 -5.337766 138.881821
-28.561638 2.547087 137.112305
13.203327 9.899511 137.411774
-26.513197 1.331149 138.348633
-20.305126 8.660601 134.302078
-12.780149 -17.135277 122.737358
-15.661976 -6.945814 132.020554
-29.735949 1.106681 130.514603
-22.229742 -0.545693 138.880188
-14.626499 -6.258957 129.058884
-14.858723 1.240666 132.077316
-31.189518 6.660046 135.224167
-20.091902 -2.112542 139.429703
-2.365109 10.287475 128.997345
-27.856073 7.511722 134.168777
-16.118256 1.957208 136.164200
-13.050266 4.558277 129.145630
6.738242 -14.292020 132.963333
-17.239666 14.030416 138.743317
13.751970 -6.484799 126.253685
1.496067 -11.323812 139.346008
14.473970 -0.714889 124.025192
-10.394754 -13.407743 122.724266
-12.298385 9.131405 132.536209
0.264218 -13.889903 127.189751
-16.062923 3.218394 135.252853
-12.191485 -9.826178 117.802429
-5.107335 11.677851 135.752701
25.400799 7.251028 140.256226
23.829823 -3.868941 128.480179
24.698402 7.760563 139.968567
-14.126965 6.726727 133.903809
-18.406738 13.502574 139.383820
13.233162 -4.605638 139.953857
12.993013 5.540742 127.742676
-13.934779 -0.502215 138.511215
20.260199 -2.881005 138.866455
18.297367 -2.838716 147.237396
-5.315557 -9.821610 141.057037
8.738394 6.963242 116.121262
17.984509 11.101456 139.979065
0.796354 -14.998273 129.824112
-24.110992 -6.728214 131.146362
1.876083 -7.743521 142.766281
-28.376085 1.867854 137.525894
31.534725 6.465703 125.732658
-24.061554 -4.144735 130.121262
11.626473 2.770757 151.302795
7.612060 10.765949 126.497849
7.614021 7.414102 111.773308
13.981177 3.935904 127.970329
2.926556 -13.369097 132.813629
-26.876616 5.392852 139.317444
15.952102 -1.848663 146.812256
22.842663 -3.859785 130.482544
14.402311 -9.776220 133.591339
-20.790586 -2.066375 141.761719
-20.389118 10.773647 141.964127
-2.941486 -14.529263 124.767685
-26.404617 10.130846 127.655380
12.115919 11.759958 146.432938
-0.897582 -13.609577 135.247635
-13.282752 10.539850 147.621277
-5.273486 -8.460073 142.660263
10.708562 12.710934 143.584045
-2.685294 7.908906 118.560806
-11.985590 -18.304340 125.291779
13.836342 -4.615706 139.633911
-14.496501 -8.091757 129.075165
14.457241 11.194060 141.042786
13.585834 2.328712 116.702255
-14.540097 2.802657 150.999298
-3.768671 -15.166075 124.260384
-5.068957 -8.028612 139.779663
-15.181978 -3.237988 124.316383
-12.756536 -12.648352 129.271851
-7.187867 9.820045 130.246857
14.783580 -9.205814 122.891121
-15.831077 -2.179050 148.524979
-13.449712 2.696736 127.817398
-6.300355 -16.439362 123.080078
-12.386353 12.038375 140.424942
15.475376 -11.819901 127.294228
13.748866 4.862208 133.481827
-13.371569 -0.795617 124.882812
9.309566 -10.217416 138.209976
-19.548788 12.483027 138.133102
-4.939874 9.572014 123.388084
-2.215975 -10.562878 138.447205
-5.523359 12.540097 136.383835
14.445230 11.434319 147.763565
11.019214 -15.711073 129.891296
-18.813366 0.041212 147.666977
2.486864 9.514271 121.973961
-10.216452 12.904064 138.096725
15.176392 -5.070786 137.699677
10.443067 -5.814186 144.872955
-29.625977 8.318531 131.057861
0.778177 5.007107 112.572289
13.529940 -7.380841 121.130066
13.962081 7.414151 149.715271
-22.049877 0.252808 132.704742
-20.551176 6.755130 147.356079
10.159953 -14.572620 129.856628
11.127377 -3.954372 147.427063
-13.694258 9.546271 139.970840
-24.187878 2.171743 128.385406
-11.146256 10.675740 137.093277
-5.315956 11.636607 139.173462
-13.684798 -5.829788 132.692581
-20.739300 -0.774791 130.892319
8.081468 8.343109 129.198059
-27.615257 10.689135 132.939484
-23.793791 8.383867 138.899231
22.319967 2.251852 130.952530
-0.277795 -14.410707 124.287712
-8.627367 11.166378 127.624260
5.759878 5.923680 113.774841
-23.803318 -1.749775 132.337967
11.311983 1.219522 152.915909
13.341425 -6.716412 119.944283
-31.105787 8.857519 127.091171
-24.992796 -1.586635 134.713776
-12.678642 11.793040 136.900909
15.280585 9.152442 138.411987
-3.423434 9.268934 123.594994
13.257326 9.811579 135.944839
-17.688437 9.818457 145.721359
21.226727 9.227512 137.381622
15.195852 0.575057 122.515961
-12.717077 -13.962040 131.369339
-13.847618 -2.968593 116.793182
-9.607572 -9.210395 136.540283
-22.162703 0.204217 142.601013
8.795521 -12.878782 134.652496
-4.487410 10.321208 135.986862
-20.546307 -0.904333 142.894760
9.970790 -15.676053 131.332199
-24.770100 -3.775781 135.980530
-31.272129 7.599745 130.115768
8.337182 6.373911 118.048370
-0.546383 -15.448076 122.419334
9.969424 9.409678 131.105606
12.174503 -8.194046 119.515793
22.034340 0.541836 145.862778
26.637974 2.580986 139.487213
-9.733739 3.185466 115.247879
-21.609938 3.650256 146.856735
-3.175723 -9.710346 142.159424
13.434449 -9.331005 122.684662
4.557363 6.263585 118.815941
22.981009 -3.773617 129.562149
-14.697023 6.516491 152.053268
-21.393810 -0.272409 133.799469
14.208801 -1.696750 125.537689
-14.557158 -3.336167 131.521896
1.385359 -14.155986 133.654816
-23.310991 2.720073 142.278854
15.500538 3.471893 137.038773
-16.314640 1.912198 136.217896
6.815058 5.872897 112.959099
-11.766320 3.722084 121.157555
-1.628100 7.871334 120.404945
17.455868 5.893286 134.226196
-3.981555 9.550582 124.717758
-9.933105 13.086701 137.937286
8.110565 5.757118 117.569046
-19.122309 -3.075765 143.525970
23.294958 1.285647 131.433838
-0.090316 6.394696 116.607910
12.746177 -8.736272 126.857681
-14.300949 -8.933583 132.248657
-15.289816 -5.781620 127.356522
18.843533 -1.767060 137.728668
7.470122 -9.410855 138.072021
11.631932 -5.595950 145.836212
19.932253 -0.567859 131.794067
14.542000 -0.833037 127.548622
12.602770 1.957356 115.677391
-0.676224 -13.534098 130.067627
-18.064310 7.325147 136.516922
-22.652695 -5.297452 131.480652
3.011568 11.108168 131.747360
0.076087 11.300676 131.264328
3.456450 -5.126852 145.092331
2.908032 13.136911 136.094574
-2.293306 11.123061 125.014641
12.045811 -13.999847 131.898788
0.043699 7.366655 116.822968
-9.094627 -14.144379 129.939850
12.612800 8.633612 130.330032
6.183860 14.126041 141.945877
11.928931 -11.928979 135.623962
-2.314569 -16.289009 121.816231
2.555530 7.202630 112.903847
14.289308 4.469773 130.218185
-13.733046 2.063411 130.290878
-11.112921 -11.442245 138.428040
-14.955361 -6.979594 133.956589
21.654011 10.029697 132.298096
-14.202910 10.523852 143.956573
-9.927477 11.850873 135.767151
16.803062 4.466081 137.001831
15.764669 -12.900043 128.523117
-18.943279 6.547433 134.049072
-11.950865 5.424813 127.744980
19.667002 6.875742 145.745178
26.843662 -1.679917 134.373657
-24.578915 2.283834 136.985764
23.906147 -4.229414 137.803406
24.235109 11.184196 135.363922
-6.140575 -13.906799 130.317596
30.351343 3.424846 134.957336
-16.435059 12.400464 144.598343
-8.013416 -17.487299 124.875412
22.034132 1.600805 131.700485
-6.044100 9.969205 127.927223
5.586817 6.154180 122.676247
-12.666277 -2.068365 144.181519
5.886232 -5.776307 143.833008
15.379610 -5.660090 123.454735
21.005005 9.137204 133.480682
14.993907 5.844381 133.907837
-11.584988 -15.280513 129.764038
-15.213194 5.210757 134.643524
-22.320564 -3.007024 138.304337
14.011829 -1.199648 132.460403
-9.345451 4.759383 121.906967
-9.210203 12.915811 140.082138
21.413921 3.014176 145.375000
-19.079685 4.225375 149.116455
15.024570 -3.643080 118.362144
28.308783 9.126513 131.860947
3.645581 -15.572925 126.209305
1.330405 9.381721 122.351921
14.178435 -10.523249 120.839256
-15.179405 -9.721374 134.031647
-3.141607 -8.964305 140.855667
-14.859907 2.844372 135.276962
15.001214 -4.471768 124.028839
-21.013468 10.683440 139.588455
13.169304 1.877675 118.641861
-18.527826 1.269678 134.487106
-15.725626 10.946788 140.349426
5.483797 -4.011986 147.661636
-7.817130 -14.902136 127.160706
15.918498 -3.254427 130.317703
-3.537418 -7.585490 144.262024
6.361494 13.944426 139.078995
7.444426 10.605850 128.398788
10.940960 -17.676168 125.111038
-25.437944 10.251461 132.325333
-14.239935 -6.430007 129.324951
-14.045900 4.924460 151.612213
10.696637 11.057315 135.286255
18.567467 6.634551 133.543411
4.383957 -14.668794 128.711044
-12.343132 -12.299895 125.318619
10.803520 7.683150 119.425003
12.986981 11.224197 138.451157
13.511623 -12.538244 127.536354
-5.836725 13.617782 140.251617
6.277740 -12.907537 135.857971
-17.365894 11.822023 143.232666
10.381847 3.585083 115.978348
-15.205870 -2.216347 124.949837
11.694457 -12.331249 135.395477
-13.191916 -1.377707 125.025566
-11.586931 -10.056181 121.716660
-10.067977 -12.394917 135.066025
15.457580 -6.896325 135.069290
2.001115 -14.957479 135.296341
-12.635055 -2.431211 122.141220
-5.077313 12.527461 139.023056
-0.130427 -6.961514 142.695084
-11.210455 12.027061 142.202637
15.280081 -2.359701 148.549606
14.820934 5.182337 136.195816
-13.868073 -1.637284 146.700195
-4.888375 -11.053254 138.648178
-24.892147 -5.361598 133.480698
-1.830605 13.012344 138.395233
8.419482 -16.845013 124.834427
-11.169815 11.501899 136.028549
16.603668 2.910557 135.697266
-11.434031 -13.565854 133.189087
19.678867 4.167932 130.921158
12.402044 7.811538 127.113861
-25.066092 -4.427045 132.291794
-24.685095 5.996870 143.307297
-25.586006 3.865432 139.329147
7.054389 -15.280230 129.658768
10.080781 4.515471 114.990883
-0.853766 -13.867970 133.826462
1.269545 7.810452 118.442276
-29.511578 9.820156 129.290604
13.868834 7.198511 138.954437
8.622524 -9.946055 139.084900
-17.714146 2.991978 150.573700
11.364248 -18.059168 120.437912
11.801802 -10.219287 135.321945
6.110652 6.994403 121.775078
27.105145 -5.655456 129.899887
-11.266896 8.697853 132.655243
-8.381066 8.301234 129.108337
-10.452294 -7.440857 140.220917
-31.105076 5.451630 132.663376
13.666425 -4.447603 138.792252
-18.434776 5.743708 133.580902
-24.473541 -4.727676 132.954590
-13.989655 10.548237 138.164932
23.397474 -4.023414 136.490005
-14.118055 -3.550381 119.747719
3.852960 13.968246 141.377914
23.902853 8.084508 131.212433
2.739496 -14.787934 124.317978
-9.835813 -11.788080 132.198654
-12.645423 -0.645017 123.963783
15.223420 9.912559 146.335724
-9.550586 3.996463 115.582115
-3.520388 12.067570 128.845169
-11.701864 9.170847 148.834213
-20.797937 8.670715 145.264465
-21.399307 2.825337 132.749466
12.557473 10.982866 142.239319
-21.060640 -1.210714 144.105270
27.540628 5.635237 137.494965
11.425996 -17.491241 124.513428
13.887674 -0.008010 133.033035
-6.119658 -18.968386 123.974777
-10.028159 2.906617 112.961769
-20.304955 0.414340 146.362122
13.211666 -7.810329 126.512138
20.325871 0.978594 133.486221
19.782700 2.169700 148.607376
-7.565763 6.415733 120.615433
-19.477648 7.520233 134.896103
-25.581209 6.781166 140.353806
1.885769 -10.893023 140.165863
-14.754730 2.644742 136.289902
-14.717930 -1.206022 138.566559
16.921469 8.912484 137.222977
-7.080070 -17.222750 123.479622
11.059650 7.665962 130.825089
25.215242 -0.856026 123.632523
13.366783 -4.915681 140.401993
14.002525 -8.358080 137.212097
-15.338614 2.502221 153.266891
12.736305 -2.120817 114.993248
-2.121601 9.466129 124.316780
4.237557 11.553659 133.835251
14.968333 4.481330 135.837662
13.131207 -8.495683 133.713074
-8.670377 -13.087598 137.690369
-21.567953 6.621560 147.558868
-6.815743 8.790491 124.814804
21.384438 9.035770 132.936722
-11.518193 0.840511 150.920425
-16.383253 1.402255 147.691788
-18.488504 8.881112 147.554626
-9.776584 -8.392074 139.816605
5.129469 9.830351 130.228836
30.120743 0.315301 132.873917
5.219934 9.807708 125.106430
-12.507685 -0.956817 122.989014
28.799761 7.793633 133.490067
-12.561861 -2.969329 144.780228
-11.238739 -10.877942 120.183876
14.106693 3.983136 131.152954
14.404085 -1.666441 129.373978
15.390617 2.626865 134.084045
-21.844711 -4.350016 139.731323
-22.141541 9.416528 133.781693
13.914942 3.526939 153.379425
-15.429117 3.845201 133.760880
14.562995 -10.653557 126.581497
-4.953656 14.348907 137.914963
-5.542409 11.127788 130.529785
12.700568 -8.556859 121.529037
18.744976 10.961406 138.760498
-13.437711 10.362282 135.105286
12.490041 12.839684 142.524887
13.830103 1.594871 113.520538
-10.200136 6.784799 121.953140
-21.143732 -2.280900 144.074234
-26.102415 8.416491 139.207336
-9.115962 -14.303486 129.830353
-2.174258 7.252303 114.257484
12.709761 -8.787531 124.995209
-12.723949 12.097286 144.815811
-0.110303 11.914196 127.009399
14.105692 11.748960 148.554108
9.931091 -16.655928 127.282173
14.331917 8.734769 149.858566
17.167379 7.533472 135.556503
-28.387051 0.273172 133.811310
13.387287 -2.372345 134.915390
-11.961575 7.557200 132.375656
14.330596 3.129908 151.542328
25.032705 -5.295009 129.856094
-12.252852 1.782470 119.150429
-23.132427 3.214709 130.041367
13.725237 -2.833561 142.888184
13.647471 4.296153 129.459335
-21.083965 7.998902 133.468155
6.685125 -8.777547 142.597031
-16.899256 3.919455 135.634445
-19.335392 9.387759 140.061203
12.806701 -12.790470 126.728035
24.655888 -2.759126 136.736160
-18.453218 5.402068 135.002487
-25.669502 7.076737 127.894539
2.296280 -13.733506 135.860657
6.057357 9.207078 128.581985
16.234730 -3.201228 146.829391
-9.513605 11.900675 141.520599
13.729519 -8.618293 121.069016
22.953049 9.461269 140.404190
-13.022015 -0.657514 125.657310
10.466499 5.723531 124.393471
-2.683505 -5.454052 143.824997
-14.331583 -2.731241 134.194183
18.016750 11.126371 140.997681
13.714646 10.900076 132.077271
-12.788358 -13.115200 126.210930
13.156084 -8.970484 135.086914
15.324499 1.906785 139.262421
-18.312023 -2.619731 145.791580
-14.683065 -9.077472 118.683167
3.433249 6.976671 118.852264
7.434768 -15.434113 128.881744
-12.262499 -15.492587 121.171196
5.414108 -11.637539 136.841324
-10.506659 10.642667 147.695557
-29.657791 2.297773 127.634331
15.676951 8.439730 140.098877
-7.423531 12.991355 142.730743
-23.828068 -4.358252 135.154938
-26.325090 7.549680 140.064072
-3.911868 7.071419 115.737411
-19.050858 7.083807 134.522888
-5.331814 12.060063 134.839905
-5.449161 -3.507782 148.589874
-13.704692 -4.709596 140.969681
10.092561 -16.101002 128.893677
-9.007257 -14.719283 131.543274
-13.456440 -8.285759 136.120209
-14.445078 -3.269994 133.976456
-12.690785 -1.415382 147.502701
4.899031 7.190228 120.845192
11.809087 -11.922165 134.166763
-7.346982 4.825057 120.329094
-22.652121 8.747928 132.147751
4.764050 -9.408629 139.367538
-28.014086 0.503390 137.854935
-22.844639 7.136588 145.218033
-3.673920 -11.234928 137.949966
23.121605 6.324109 130.055328
-12.432884 2.251351 124.992462
7.004731 -1.525576 147.739777
14.727429 -5.961603 123.974640
-24.495914 8.201031 140.279953
-26.221519 2.668600 140.754333
25.699755 8.593026 139.062424
15.900904 9.772698 141.790085
12.101142 -2.000437 147.751114
15.108815 -6.371984 133.242340
16.954849 2.010451 138.977905
-1.957220 -14.164669 136.923477
-13.455164 -0.439468 132.851059
-27.453920 7.839239 128.535156
16.102755 -2.488113 148.898880
-19.798088 4.783326 150.386887
21.298874 0.260595 144.459549
8.237902 -8.808845 141.113220
9.733953 3.613976 115.870842
-2.311460 -13.235771 128.094482
13.771535 5.469853 127.113426
-15.653513 1.339505 135.485352
8.594848 9.889247 128.932465
18.630375 7.622328 147.663376
-13.180379 -0.958326 116.940933
-7.570613 13.082274 138.934967
-1.544089 6.193128 110.716133
-17.742382 2.516894 148.155762
-11.090250 9.767142 133.632339
16.444136 3.030493 138.206573
-21.872440 -4.196016 133.437866
-13.969137 0.902454 151.937790
-12.195228 10.550382 141.624847
13.990175 11.160977 142.095108
10.535635 -6.643712 141.110397
9.053048 11.111342 136.257645
-14.110933 -4.037024 138.944580
-25.562796 2.844960 140.111298
-16.250456 6.634837 133.917068
-12.560768 -0.731476 123.013153
14.770662 -13.398030 127.918785
-19.549837 11.234296 138.136307
18.477919 9.187376 148.922195
-19.004225 5.296977 135.284546
11.313899 -12.263782 132.346466
14.714331 -1.948183 136.949966
-19.245001 1.344295 135.018494
8.949476 11.327619 128.297592
8.355929 -2.781374 148.585968
-19.598995 9.545335 141.147095
-4.781304 12.991210 139.406189
0.544737 -15.764529 121.555832
23.726805 -1.715768 129.491211
-11.589640 2.467538 120.176125
-14.771695 -5.159485 129.029083
0.243350 6.453230 115.671448
-24.800177 -3.756436 128.622620
9.061751 -3.644191 143.980240
-25.313473 0.640616 128.996155
4.818587 -10.392501 138.648926
-15.725139 2.835577 151.083359
9.863688 6.665241 127.400269
15.198833 -9.415386 125.467194
-14.550961 -6.617042 138.328278
3.193264 -8.770463 139.567993
1.737886 -8.354442 142.271423
19.651970 4.616244 147.993912
-18.899416 1.625704 147.307953
23.704769 7.255588 128.681519
22.345549 6.464196 145.312943
-14.844842 -7.554683 129.883469
19.880371 10.489026 141.267502
15.306294 10.608964 144.538834
16.628881 11.839944 144.748505
10.394758 6.707714 121.630585
1.141889 -7.827505 141.166672
9.127013 -5.046338 145.741440
3.512167 -5.296992 149.057434
22.146017 3.074549 131.714508
13.279805 -11.770825 128.721039
-18.600676 10.216088 136.693817
-10.855101 -2.763439 144.811707
-5.255458 6.364484 120.336945
-14.940418 -4.699382 126.003128
23.815691 -5.399388 139.209824
23.391758 -7.425550 135.888092
-31.121901 -1.197634 130.367645
19.708382 1.116337 133.666351
-16.467232 10.786595 138.472092
-10.320104 -14.975939 132.686310
-12.562341 12.697477 137.811996
-12.316943 -0.241029 124.775368
8.195024 -3.739150 144.247070
-23.442255 -4.589808 134.042526
-3.080801 -13.857941 126.920433
-12.377688 -8.950681 137.777756
4.017749 -14.892725 125.365532
16.517879 2.665669 138.354019
8.886767 13.084709 139.369629
24.365885 4.241184 142.939743
13.763917 0.826749 127.153847
15.488979 -3.597314 133.271439
14.419714 4.121106 138.121567
-14.998341 -6.797026 117.957214
-11.650472 -4.435450 141.477722
0.855587 9.943070 122.035225
-23.761396 7.657373 142.545959
-4.788906 -10.081931 138.379715
10.059483 10.256174 130.276245
2.572145 8.427505 122.046967
-13.086292 3.537435 115.044312
-6.291170 8.819147 127.976936
5.783233 -10.020712 137.109665
-12.990516 8.744730 133.564316
12.796646 -3.219280 113.529846
11.304989 -16.431341 124.402718
9.775974 -5.540429 143.868546
15.134109 -11.595604 121.991425
13.324600 -3.551251 121.621529
-15.758612 6.956283 112.831276
-12.776358 -7.565406 118.541702
-0.097868 11.854513 124.245636
7.286052 -7.297266 141.239624
-11.331967 10.946811 135.881577
14.017289 8.482912 134.152710
-14.999018 -1.723718 147.678894
29.536205 6.200906 135.156464
-11.582445 -8.220475 138.360184
-24.048824 1.345495 137.855347
18.823454 8.182283 143.623184
-15.279121 -2.110811 133.730057
15.103660 1.990863 135.363388
13.151898 3.625956 122.407204
21.164761 8.020249 132.800262
21.413193 11.154545 135.691925
14.812133 6.591385 133.036667
-8.356117 -12.605991 134.839096
22.032497 9.321836 133.964096
26.058802 4.286892 141.796371
