ply
format ascii 1.0
element vertex 2048
property float x
property float y
property float z
end_header
0.119797 -0.037194 0.655380
0.074582 0.040437 0.330489
0.065294 0.082643 0.937614
-0.013906 0.041073 1.032349
-0.032207 -0.090698 0.618700
-0.089847 -0.090017 0.495180
-0.095522 0.029949 0.926616
0.132016 -0.077481 0.655103
-0.130132 0.020595 0.991845
-0.003430 -0.082320 0.964065
0.014334 -0.104033 0.374964
0.091971 0.023357 0.914674
-0.305622 -0.063169 0.769889
-0.121826 -0.092497 0.452470
-0.014349 -0.074705 0.965437
-0.125869 0.003576 0.410531
0.075070 0.075553 0.590861
0.076608 -0.098938 0.660241
0.278533 -0.060486 0.773165
-0.270109 -0.056831 0.758175
0.090618 -0.117471 0.242633
0.095623 0.072872 0.457658
-0.092784 0.042105 0.850304
-0.024247 -0.109403 0.355616
0.277331 -0.109441 0.774105
-0.080950 0.014493 0.745670
0.001065 -0.100472 0.531032
-0.285944 -0.038398 0.803242
0.137237 -0.053923 0.964606
-0.094828 -0.118225 0.357124
-0.106391 -0.014071 0.801465
-0.125512 -0.010889 0.542745
0.326676 -0.111048 0.777824
0.065173 0.102722 0.190285
-0.082974 0.051162 0.390301
-0.219132 0.035204 0.832413
-0.005077 -0.091512 0.365134
0.141156 -0.031980 0.338629
-0.029254 0.078158 0.450861
0.030449 0.076329 0.524951
-0.053249 -0.124535 0.323953
-0.068700 0.030083 0.715627
-0.142048 0.009447 0.240542
-0.137930 -0.033718 0.943603
-0.066803 0.040190 0.723265
-0.103618 -0.099532 0.439004
-0.173653 -0.012783 0.247551
-0.012390 -0.057453 0.993819
0.126814 0.022179 0.401123
0.039583 -0.032570 1.043998
0.131259 0.004161 0.676267
-0.141436 -0.029276 0.573372
0.017883 -0.099953 0.290147
0.103128 0.041658 1.026889
0.106981 -0.139352 0.238727
-0.134532 -0.027684 0.996492
-0.161403 -0.016324 0.939790
0.020314 -0.035458 1.046937
-0.046938 0.064793 0.675382
-0.309752 -0.042324 0.827801
-0.073103 0.023535 1.000057
0.126804 0.024120 0.994612
-0.026324 0.011936 0.791735
0.013535 0.096258 0.374671
-0.093000 -0.041216 0.807288
0.007368 -0.094441 0.487746
0.242966 -0.005077 0.851450
0.188742 -0.038296 0.911058
0.130877 -0.020836 0.538533
0.227636 0.004872 0.880698
-0.145630 -0.101970 0.267104
0.135048 -0.010529 0.221182
0.101355 -0.118945 0.611583
-0.045717 -0.091550 0.704668
-0.020056 0.103272 0.293800
0.148370 -0.042144 0.448964
0.042720 0.064373 0.429408
-0.099084 0.028390 0.692919
0.169212 -0.030955 0.277930
-0.014961 -0.111910 0.405784
0.105952 0.013845 0.447409
-0.107127 -0.080064 0.615447
0.343792 -0.100256 0.773084
-0.141622 -0.064305 0.201029
0.096736 -0.098656 0.413606
0.101283 0.043024 0.321272
0.142077 -0.058934 0.370755
-0.147586 -0.051401 0.285253
-0.155239 -0.039261 0.263836
0.028754 0.034884 1.044146
0.239915 -0.015871 0.875858
-0.221032 -0.039894 0.865589
-0.039940 -0.084532 0.806247
0.044238 0.016834 1.046311
0.206154 -0.003920 0.886959
-0.103801 0.032415 0.395664
0.050947 -0.083717 0.737081
-0.086527 -0.110225 0.454474
0.129405 0.005159 1.011799
-0.259161 -0.044836 0.769073
0.143059 -0.078601 0.251237
0.333319 -0.121989 0.752614
-0.108872 0.002848 0.725424
-0.084138 0.031318 0.570284
0.067942 0.035658 0.935810
0.151510 -0.006699 1.004248
0.093376 0.065884 0.945422
0.039219 -0.108294 0.578016
0.093810 -0.010940 0.754492
-0.135987 -0.085629 0.674155
-0.064682 -0.120465 0.556432
-0.104749 0.008376 0.495614
-0.100963 -0.010515 0.686605
-0.050625 0.016626 0.689159
-0.266047 -0.029983 0.860174
0.243893 -0.048026 0.785160
-0.141230 -0.071148 0.287773
0.059018 -0.123038 0.503356
-0.002574 0.029119 0.750610
0.010431 0.039689 0.759326
0.097650 0.047245 0.648161
-0.046317 -0.090055 0.542206
-0.115435 -0.012651 0.466592
-0.312858 -0.120072 0.748260
-0.104289 0.016628 0.721699
0.084297 0.070060 0.303238
-0.100592 0.048767 0.333034
0.100708 0.053913 0.959973
0.142147 -0.029154 0.651171
0.175073 -0.049522 0.268829
0.060834 0.063468 0.900753
-0.295967 -0.083279 0.797091
-0.077162 -0.097930 0.635509
0.305279 -0.053124 0.777233
0.125767 0.026087 0.403519
0.086547 -0.116139 0.331743
0.076774 -0.090781 0.557268
0.113333 -0.108645 0.657232
-0.127314 0.003827 0.432880
0.174009 -0.002109 0.865626
-0.085093 -0.061165 0.931470
0.113905 -0.072624 0.612786
-0.099245 0.038094 0.967653
0.105427 -0.111938 0.371068
0.006515 0.048904 0.960803
-0.157267 -0.035859 0.357442
0.069629 -0.098906 0.655603
0.099609 0.063464 0.361427
0.073014 0.061325 0.409607
-0.062556 -0.085860 0.792249
-0.239843 -0.006020 0.830071
-0.058003 0.054222 0.534728
-0.122742 0.019877 0.344215
0.159090 -0.023130 0.409943
-0.084270 -0.077639 0.875755
0.239690 -0.065325 0.797736
0.086498 0.059644 0.333235
-0.030261 0.037268 0.662632
-0.074496 -0.088958 0.771479
-0.271174 -0.047036 0.772630
0.055343 0.086137 0.398420
0.176411 -0.042262 0.215149
0.052289 0.075905 0.315462
-0.092557 -0.053854 0.765614
0.054413 -0.105470 0.754335
-0.218298 0.001797 0.826813
-0.315570 -0.066501 0.749287
0.043375 -0.084071 0.768145
-0.051411 0.076534 0.941599
-0.103499 0.059279 0.236343
0.034700 -0.094218 0.896940
-0.099871 -0.119924 0.613890
0.015862 0.099514 0.294176
0.011634 -0.097706 0.438281
0.083274 -0.116586 0.538619
0.108642 0.047845 0.304189
-0.121560 -0.001637 0.403875
-0.122039 -0.056615 0.930071
0.067934 -0.095312 0.885424
-0.153397 0.017262 0.568689
-0.183626 0.005601 0.890414
-0.142837 -0.039998 0.611462
0.080633 -0.099482 0.515790
0.013677 -0.103378 0.909432
-0.009040 0.054471 1.016279
0.041778 0.002592 1.025401
-0.009987 -0.097788 0.914284
0.091270 -0.113415 0.245879
-0.134639 0.020669 0.917611
0.011384 -0.067396 0.991012
-0.252499 0.004391 0.851417
0.127073 -0.021563 0.898236
0.117217 -0.008417 0.562323
-0.149642 -0.022477 0.414280
0.024257 -0.097780 0.708973
-0.179329 -0.007087 0.955633
-0.063793 -0.079240 0.895047
-0.322992 -0.103093 0.724430
0.128307 -0.081043 0.241384
-0.141810 -0.069688 0.445539
-0.140011 -0.029506 0.297646
0.075133 -0.112920 0.390830
0.322743 -0.107458 0.748002
0.176855 -0.009609 0.960388
0.005831 -0.102129 0.533424
-0.037206 0.064586 0.959588
0.104919 -0.132883 0.501639
-0.029724 0.051038 1.030206
-0.171526 -0.096912 0.154024
-0.041320 0.065089 0.257567
-0.073953 0.060226 0.481292
0.080350 -0.093983 0.614841
0.233527 0.010380 0.840361
0.089515 0.085074 0.213370
0.114755 0.029563 0.423964
0.133447 -0.098244 0.191876
-0.013684 0.068629 0.584267
0.167932 -0.050175 0.933087
-0.144970 -0.003178 0.624454
-0.120850 -0.017579 0.700505
0.153971 -0.019310 0.308453
-0.115474 -0.060492 0.671199
-0.127511 -0.007719 0.315660
0.245437 -0.072217 0.851693
-0.120649 -0.044960 0.952872
-0.234715 0.003105 0.846802
-0.072074 -0.043420 0.825915
0.106012 0.041394 0.420342
0.272513 -0.056914 0.804843
-0.039716 -0.027791 1.021581
0.060907 0.012006 0.852246
0.222276 -0.039084 0.835374
0.034063 -0.058803 0.983179
-0.119126 -0.097032 0.471278
0.136529 0.026587 0.991263
-0.043750 -0.047169 1.047677
0.228103 -0.010967 0.805517
-0.021224 0.054135 0.860249
-0.260456 -0.030999 0.849420
-0.037907 0.080846 0.467644
0.116433 -0.096703 0.309547
-0.225180 -0.019025 0.787401
0.128866 -0.014281 0.888665
-0.041680 -0.119244 0.196345
0.038458 0.026485 0.749490
0.025407 0.050043 0.708101
-0.109389 -0.075252 0.486301
0.144053 -0.038246 0.982549
0.069432 -0.045494 0.859341
0.015482 0.093008 0.448429
0.135164 0.019365 1.025730
0.137023 -0.066106 0.434947
-0.029946 0.055949 0.996137
-0.112970 -0.074994 0.669143
-0.006291 0.015056 1.060660
-0.112186 -0.092297 0.697765
0.076591 0.062327 0.200403
0.133488 -0.102631 0.401731
-0.033242 0.077598 0.478800
-0.026467 -0.101832 0.457325
-0.146213 -0.033043 0.545677
-0.077583 -0.112644 0.548071
-0.050159 0.081948 0.257040
0.056399 -0.119241 0.395089
0.026399 0.077411 0.266956
-0.137778 0.009715 0.544076
0.102994 -0.005557 0.731305
-0.084053 -0.054629 0.999486
0.070756 0.081668 0.239987
-0.164902 0.027307 0.910514
0.283146 -0.108400 0.751410
0.091970 -0.022476 0.764072
-0.020517 -0.085306 0.913314
0.135154 0.029386 0.979471
0.119189 -0.062615 0.628832
0.100977 0.005849 0.885889
0.119082 -0.037025 0.655977
0.104190 0.030767 0.609733
-0.109208 0.009363 0.416173
-0.158556 -0.044777 0.343298
0.051942 -0.066211 0.967890
-0.075638 -0.083320 0.740095
-0.035789 0.064232 0.644880
0.030485 -0.110308 0.629921
0.105153 0.029754 0.236790
-0.060951 -0.098982 0.544058
-0.282091 -0.055292 0.818850
0.054276 0.073825 0.432786
-0.082991 0.003406 0.826585
-0.127078 -0.000105 0.442620
0.115713 -0.074716 0.435466
-0.080919 0.050486 0.330738
0.160472 -0.045752 0.295997
-0.124964 -0.050841 0.476990
0.044838 0.100581 0.215918
-0.060504 -0.113371 0.246481
0.109338 0.010361 0.671791
-0.089820 -0.084742 0.509877
-0.078966 0.028859 0.856010
0.182035 -0.003994 0.915988
-0.151807 -0.030771 0.165863
0.085141 -0.085584 0.861197
0.028791 -0.046415 1.061667
0.131543 -0.003737 0.262587
-0.162213 -0.026581 0.414005
-0.043282 0.079678 0.579562
0.106199 0.034306 0.499953
0.108143 -0.006923 0.471093
0.143543 -0.033893 0.206311
0.067476 -0.100682 0.876418
0.062764 -0.115246 0.278460
0.068232 -0.028282 0.997023
0.064826 0.054290 1.002607
0.085490 0.056955 0.183662
-0.017111 0.069096 0.381223
0.095388 -0.001667 0.749174
-0.179040 -0.030630 0.300494
-0.164059 0.010394 0.866638
0.225024 -0.028860 0.884389
-0.129940 0.037329 0.244164
0.292561 -0.108869 0.761910
-0.004933 -0.071924 0.982723
-0.129955 -0.045655 0.648269
-0.099642 0.035410 0.607939
0.040977 -0.140382 0.208805
-0.008882 0.056812 0.664680
-0.025406 -0.096589 0.707275
0.218572 -0.036618 0.868767
-0.133631 0.037978 0.968802
0.117592 -0.098420 0.390155
-0.100314 0.064201 0.352577
0.088496 0.037376 0.660275
-0.082611 -0.115024 0.356691
-0.185947 -0.011399 0.859251
-0.033346 0.076218 0.242200
-0.166140 -0.015913 0.843300
0.019835 -0.101573 0.720345
-0.061326 -0.133072 0.477191
0.013637 0.121345 0.190863
0.111019 -0.070143 0.630245
-0.069823 0.065048 0.666785
0.141760 0.015913 1.017793
0.116447 0.010230 0.649107
0.058590 0.078438 0.251628
-0.084342 -0.007885 1.039393
0.043583 -0.104316 0.277487
0.190826 0.009951 0.855020
-0.131300 -0.095912 0.296327
-0.065095 0.052392 0.634109
-0.296690 -0.066822 0.744874
0.001079 0.040735 0.631954
-0.112447 -0.011712 0.839498
-0.121075 -0.056077 0.604815
0.285368 -0.040524 0.826284
0.013812 0.061423 0.367777
0.027896 -0.111968 0.259348
0.073501 -0.109662 0.530914
0.153196 -0.024988 0.971196
0.100917 0.027116 0.834853
-0.086594 0.045135 0.249402
-0.154944 -0.027922 1.004224
0.139651 -0.049964 0.558145
0.175536 -0.068222 0.284166
-0.272062 -0.063069 0.812112
0.087947 -0.123687 0.573157
-0.116592 -0.038257 0.678264
0.044701 0.032451 0.834058
-0.082346 -0.127884 0.437461
0.036254 -0.088640 0.688901
-0.067655 0.091645 0.199807
0.091661 -0.113857 0.630319
0.111513 0.017511 1.007885
-0.260997 -0.047560 0.769824
-0.083488 -0.091597 0.501143
0.011331 -0.121465 0.374094
0.121947 0.013369 1.002753
0.088872 -0.043719 0.828422
0.048412 0.062995 0.512008
-0.006852 0.091827 0.301560
0.088815 0.073555 0.536469
-0.045123 -0.127126 0.328465
-0.013392 0.025030 0.743479
0.095437 0.032004 0.287857
0.100511 0.048132 0.569739
-0.077117 -0.116280 0.345761
0.112313 -0.051411 0.722909
0.172645 -0.078974 0.344658
-0.096046 0.041845 0.553918
0.128436 0.009396 1.016756
-0.313617 -0.113192 0.756595
-0.127665 -0.058559 0.984235
0.039250 -0.100217 0.386976
-0.121346 0.041317 1.004792
0.020080 0.058379 0.860331
0.082809 -0.072400 0.728812
-0.134424 -0.016897 0.326143
-0.066919 -0.063000 0.963274
-0.139058 0.002221 0.453659
0.116216 -0.093291 0.624108
0.237038 0.023547 0.848954
0.092819 0.061486 0.351439
0.080033 0.037884 0.662787
0.043029 -0.115014 0.645800
-0.157179 -0.048613 0.273602
0.266820 -0.021545 0.819544
0.118761 -0.084502 0.597556
0.100074 0.032933 0.984817
-0.023623 0.023696 0.776197
0.090288 -0.049483 0.847081
0.228694 0.031794 0.882250
-0.115663 0.007106 0.918950
0.147693 -0.073912 0.392085
-0.073205 -0.080793 0.855304
-0.028535 -0.127458 0.482442
0.113067 0.014204 0.563605
-0.149765 -0.067424 0.327671
-0.148862 0.002997 0.284228
-0.096415 -0.113805 0.494575
0.025963 -0.111331 0.472618
-0.080431 -0.062104 0.993893
0.032399 0.090024 0.130320
-0.006352 -0.116080 0.530886
0.086707 -0.097166 0.503282
0.080501 -0.102630 0.644432
-0.257943 -0.069327 0.772341
-0.094798 0.060258 0.945174
0.121736 -0.008529 0.402898
0.142905 -0.071679 0.232739
0.148073 -0.058067 0.187888
0.137894 -0.078599 0.459640
-0.056191 0.077500 0.326169
0.086802 0.016291 0.861659
-0.122269 0.011053 0.400875
0.254713 -0.049542 0.794158
0.147027 -0.079030 0.500865
-0.000510 -0.090567 0.810569
-0.021202 -0.114425 0.294909
0.204862 -0.016261 0.958309
0.060055 0.060230 0.881074
-0.288447 -0.061334 0.798230
-0.083228 -0.095819 0.554951
0.165710 -0.000834 0.906860
-0.126983 0.026380 0.203206
-0.093176 -0.112523 0.320154
-0.135445 -0.034000 0.329282
0.222634 -0.017815 0.800933
0.055822 0.077754 0.484055
-0.066094 0.050430 0.677215
0.186632 -0.014106 0.911954
-0.013141 0.061869 0.915365
0.151729 -0.017682 0.323062
-0.082197 -0.091839 0.905720
0.109790 -0.106206 0.402989
0.142502 0.027901 0.241497
-0.097612 -0.045335 0.679237
0.084564 0.019852 0.520867
0.070265 0.016550 0.739930
-0.257294 -0.026967 0.813627
-0.161370 -0.023375 0.220315
0.153572 -0.013834 0.323189
-0.111482 -0.114745 0.324690
0.035384 0.082752 0.415711
-0.032183 0.043964 0.513526
0.228254 -0.025894 0.886065
-0.107461 -0.006440 0.847137
-0.009813 -0.062262 0.942318
-0.297867 -0.115545 0.758372
0.029478 -0.048041 1.056426
-0.067204 0.065034 0.400070
0.062361 -0.070903 1.000995
0.041580 0.025627 1.047504
0.145699 -0.088753 0.426308
0.247885 0.007691 0.870921
-0.053064 -0.074765 0.955469
0.188805 -0.060155 0.207510
-0.122443 -0.073977 0.597205
-0.100024 0.045795 0.361420
0.158077 -0.052685 0.317542
-0.077218 0.031277 0.789981
0.001483 -0.110799 0.393066
0.235768 0.015578 0.860996
-0.059526 0.023451 0.855965
0.160700 -0.040358 0.185486
0.243289 -0.032678 0.799074
-0.065836 0.070555 0.223328
0.273627 -0.058181 0.847205
0.011171 0.049528 0.737699
0.071094 -0.126815 0.551767
0.044977 0.063399 0.195593
-0.057033 -0.109652 0.395923
-0.135272 0.051954 0.940508
-0.046754 -0.104422 0.834379
-0.016382 -0.103738 0.312720
-0.038409 -0.102927 0.607418
0.142867 -0.031168 0.249920
-0.196805 -0.013329 0.848207
-0.066419 0.066084 0.477926
-0.232207 0.006045 0.866196
-0.037509 0.024337 1.010700
0.138831 -0.012296 0.448144
0.033680 0.065169 0.969748
-0.318532 -0.082784 0.748234
0.192246 -0.025762 0.828621
0.295820 -0.104355 0.812853
0.116294 0.024138 0.667814
-0.021017 -0.106291 0.598336
-0.099432 0.012974 0.900869
-0.100849 -0.037431 0.882084
0.145562 -0.011414 0.275987
-0.041196 0.024375 0.732672
-0.105988 0.026651 0.610233
-0.142211 -0.075381 0.327121
0.169221 -0.023532 0.192017
0.073453 0.036602 0.718975
-0.319390 -0.105114 0.755442
0.314040 -0.082037 0.751191
-0.016752 -0.105833 0.386613
0.023304 0.059850 0.916705
0.097517 0.039822 0.546820
-0.190856 -0.018662 0.319348
-0.161685 -0.006303 0.300316
0.106742 0.001328 0.389453
0.098527 0.055854 0.938363
-0.030772 0.037088 1.023589
-0.121751 -0.072404 0.639117
-0.083353 0.037575 0.935639
-0.117820 -0.003212 0.288269
0.013113 0.063112 0.933311
-0.050832 -0.116883 0.543338
-0.116913 -0.042089 0.632044
0.060871 0.030366 0.992100
0.147186 -0.078692 0.302878
-0.112848 0.042028 0.355782
-0.104678 0.040981 0.465158
0.105722 -0.113311 0.556235
-0.137837 -0.032601 0.446563
0.099697 0.064019 0.303067
-0.093326 -0.143326 0.202029
-0.112770 -0.104077 0.277780
0.106093 -0.099664 0.610875
-0.080827 -0.111683 0.579230
0.286497 -0.037418 0.779586
0.092151 0.027145 0.696414
0.236173 -0.014681 0.887283
0.013337 0.101348 0.186663
-0.110230 -0.045973 0.566735
-0.003873 -0.004010 1.044635
0.026595 -0.107895 0.585257
-0.199322 0.005867 0.822864
-0.201703 -0.031049 0.825912
0.082568 -0.074997 0.895597
-0.052047 0.093342 0.305972
0.147071 -0.050759 0.627459
-0.077580 -0.118986 0.359760
-0.170918 -0.001534 0.968114
0.093359 -0.018856 0.893191
-0.040983 -0.106043 0.321707
0.080539 0.071559 0.565620
0.075747 0.064206 0.224679
0.009897 -0.114971 0.259326
-0.079787 -0.078779 0.822564
-0.118597 -0.100493 0.592175
0.043071 -0.018360 1.038424
-0.168777 -0.037460 0.276196
-0.123470 -0.007081 0.652284
-0.120095 -0.062180 0.637006
-0.015425 -0.105312 0.717967
-0.005842 -0.082180 0.982871
0.003966 -0.113106 0.903986
-0.094635 0.046854 0.273126
-0.064187 -0.097375 0.895727
-0.315536 -0.082903 0.804986
-0.296103 -0.080839 0.804701
0.154775 -0.029210 0.327225
-0.097904 -0.016458 1.006989
0.083777 -0.114006 0.275789
-0.128614 -0.024327 0.941134
0.087013 -0.064520 0.888077
0.108219 0.032453 0.577772
0.252001 -0.023598 0.825378
-0.301135 -0.111796 0.760132
-0.038577 0.095536 0.907247
0.014580 0.053562 1.028115
-0.035052 0.044226 0.619445
-0.120606 0.007142 0.221289
-0.139494 -0.009190 1.005563
-0.022874 -0.090530 0.540801
-0.142850 -0.087501 0.559349
-0.077934 -0.107761 0.675216
-0.165770 -0.026730 0.230127
-0.028319 -0.113525 0.452732
0.153434 -0.035547 0.307653
0.157996 -0.016631 0.320373
0.056044 0.058547 0.629290
-0.052100 0.013273 0.810698
0.137874 -0.097106 0.442527
0.147209 -0.056972 0.392118
-0.071557 -0.076017 0.974904
0.291747 -0.088255 0.782417
-0.310866 -0.024625 0.816504
0.039119 -0.085029 0.782112
-0.058275 0.064629 0.211466
0.137452 -0.022042 0.227689
-0.105428 -0.089672 0.191764
-0.101900 -0.083031 0.260579
-0.019357 0.029514 1.050443
0.114599 -0.046415 0.732882
0.107840 0.030253 0.600970
-0.084868 -0.073807 0.812329
-0.100809 -0.054502 0.987881
-0.085382 -0.100986 0.563827
0.038094 0.092851 0.342844
-0.140830 0.007802 0.436630
-0.015171 0.024396 1.028778
-0.120368 0.004790 0.892116
0.144679 -0.030035 0.579217
0.147955 -0.026091 0.528143
-0.008979 0.071785 0.455881
-0.021735 0.085824 0.304434
0.120676 0.037379 0.594298
-0.109068 -0.013541 0.859438
0.282864 -0.031018 0.779274
0.138685 -0.087047 0.392248
0.293441 -0.104711 0.749714
0.061585 0.046085 0.533493
0.081554 -0.079395 0.931129
-0.069409 0.041767 0.681797
0.087721 -0.012899 1.046099
-0.057544 0.079668 0.179873
-0.309895 -0.122673 0.724128
-0.015630 0.032607 1.073739
0.093580 -0.014939 0.806414
0.055068 -0.099725 0.440887
-0.057230 -0.133031 0.307503
0.057546 0.070859 0.506634
-0.149786 0.000747 0.945927
-0.201183 0.007784 0.848074
0.145877 -0.023331 0.240888
-0.135603 -0.053470 0.496146
0.072718 0.045533 0.707586
-0.093343 -0.020545 0.759621
0.155504 -0.021057 0.551950
-0.008380 0.080605 0.180482
0.114719 0.007086 0.341782
0.170458 -0.032242 0.327413
0.075172 0.040288 0.647105
-0.106752 -0.125294 0.214121
0.024161 0.034917 0.820293
-0.217916 -0.022779 0.825884
0.049991 0.085155 0.208745
-0.122489 -0.031090 1.034090
0.062833 0.067825 0.874973
0.010865 0.056714 0.850103
-0.010924 0.018773 0.669433
0.122683 -0.017059 1.031937
-0.095821 -0.032446 0.896639
0.159546 -0.045465 0.191545
-0.113726 -0.078719 0.611977
0.043021 0.062864 0.178556
0.055639 -0.139808 0.207369
0.096860 0.067964 0.381252
-0.043432 -0.106673 0.573483
0.168610 -0.018177 0.318265
-0.261533 -0.018587 0.833541
-0.130757 -0.097004 0.231240
0.189347 0.007375 0.915717
-0.056194 -0.023144 1.065139
0.028635 0.071575 0.448804
-0.053530 -0.093914 0.948469
-0.151669 -0.028878 0.417047
-0.117885 0.030833 0.918728
-0.022554 -0.108396 0.842314
0.028401 0.005175 1.066412
0.063200 -0.105290 0.513995
0.132471 -0.036655 0.670028
0.053107 0.095700 0.335336
0.133684 -0.021426 1.007602
-0.172096 -0.026021 0.952858
-0.095944 0.003307 0.582598
-0.063461 -0.096849 0.925776
0.043849 0.071561 0.668283
-0.116272 -0.050141 0.656914
-0.030621 0.019519 1.037942
-0.083617 -0.051315 0.845518
0.342764 -0.097454 0.767481
0.156741 -0.028249 0.648502
-0.094439 0.043994 0.852274
0.100782 0.039723 0.917154
-0.126850 -0.017149 0.496030
-0.117638 -0.013832 1.018965
0.089757 0.003805 0.931258
-0.110280 -0.117413 0.377835
-0.009602 0.038262 0.892840
0.097476 0.049372 0.919501
-0.242280 -0.055403 0.850306
0.107097 0.041502 0.456502
-0.082714 -0.132572 0.322668
0.081518 -0.102817 0.389594
0.209413 0.018903 0.875855
0.100265 -0.025397 0.862534
0.124546 -0.092199 0.497459
0.019100 0.066965 0.599869
0.046823 0.031017 0.667607
0.168251 0.032439 0.894149
-0.056579 0.085161 0.262728
-0.096369 -0.036517 0.725668
0.000521 -0.105030 0.882601
-0.100312 0.056889 0.928619
0.070171 0.071958 0.502299
0.017271 0.029688 0.778785
0.083083 -0.117300 0.494597
-0.048163 0.063383 0.956016
0.068826 0.080976 0.288161
-0.181465 -0.001089 1.009377
0.150858 -0.054931 0.485103
0.316458 -0.101478 0.756900
-0.064554 -0.120560 0.386034
-0.281444 -0.091095 0.745326
-0.016881 0.099271 0.196014
-0.082918 -0.122949 0.343057
0.067741 -0.130521 0.553176
0.076294 -0.100300 0.306411
-0.112604 0.011595 0.939448
-0.094658 0.041284 0.283759
-0.034333 -0.087724 0.983139
0.115815 0.008529 0.375210
-0.101151 0.064439 0.222311
0.083500 -0.053995 0.862822
0.113864 -0.096230 0.252834
-0.044037 -0.116879 0.269770
0.042674 -0.149244 0.205995
-0.101481 0.029015 0.874120
0.337590 -0.076837 0.761189
-0.109912 0.004297 0.482915
0.121341 -0.042709 0.989764
-0.063628 0.032286 0.784708
-0.077825 0.040975 0.609027
-0.155828 -0.013569 0.300427
-0.085841 0.044459 0.921305
-0.128226 -0.001547 0.507136
0.022101 -0.095845 0.931279
-0.045340 -0.092174 0.881659
0.037795 -0.009147 1.045355
-0.083963 0.011215 0.871838
-0.115092 0.042545 0.965653
-0.074623 -0.026705 0.804991
0.025314 -0.105425 0.607998
0.266664 -0.067444 0.827993
-0.125380 -0.072401 0.547007
-0.319917 -0.053352 0.786557
0.210505 0.000096 0.890156
-0.275344 -0.119633 0.766966
0.151166 -0.074147 0.353759
0.120697 -0.068789 0.547941
-0.161385 0.004106 0.957846
0.101113 0.026553 0.311355
-0.086151 0.050603 0.919297
0.069161 -0.073620 0.934740
0.131521 -0.042020 0.625997
-0.167749 -0.013833 0.957432
0.019531 -0.104473 0.522285
-0.204782 -0.012737 0.855469
-0.056227 -0.130646 0.610212
0.117312 -0.021770 0.419018
0.183698 0.007212 0.843543
-0.320524 -0.042636 0.785604
-0.099071 -0.125876 0.207788
-0.090622 -0.016382 0.756792
0.091668 0.003997 0.875073
0.057777 -0.056635 0.788005
-0.112733 -0.104965 0.503812
-0.193189 0.024005 0.935166
-0.081920 0.049542 0.225066
0.112791 -0.096308 0.204675
-0.121072 -0.107972 0.526760
0.026817 0.040097 0.620978
-0.155941 -0.046899 0.310108
0.030942 -0.115858 0.454625
0.062831 -0.006077 0.823757
-0.005744 -0.106081 0.570184
0.149779 -0.087931 0.203758
-0.002082 0.091493 0.423004
-0.264639 -0.044171 0.775909
0.137294 0.007186 0.422436
0.068507 -0.121389 0.535582
-0.021548 0.064226 0.562394
0.000082 -0.047555 1.027801
0.038851 -0.119393 0.584503
0.032308 0.044045 0.777233
0.033502 -0.126357 0.410707
-0.084742 0.035169 0.909440
0.134346 -0.036793 0.609351
0.073289 -0.069859 0.976204
0.257866 -0.026261 0.813816
0.177676 0.018935 0.885784
0.106439 0.056949 0.260729
-0.030465 0.106823 0.375998
0.139047 -0.031317 0.278046
-0.017936 -0.119570 0.180375
0.043019 -0.119442 0.378373
-0.024140 0.088419 0.219991
-0.075280 0.061939 0.451946
0.144323 0.040749 0.943104
0.192544 -0.029341 0.870772
0.117567 0.004732 0.456807
0.021905 0.070048 0.653177
-0.174953 -0.035802 0.872476
-0.282776 -0.075025 0.836905
0.044803 -0.088649 0.827832
0.072809 -0.065808 0.947947
-0.102073 -0.111584 0.548290
-0.024246 -0.087389 0.919932
-0.060781 -0.023289 1.031729
-0.079276 0.063670 0.409551
0.021911 0.075596 0.524033
-0.055003 0.056048 0.901011
0.078801 0.053943 0.305259
-0.232898 -0.008333 0.808019
-0.012622 0.037466 0.788808
-0.114560 -0.064520 0.205411
0.167256 0.001110 0.922464
-0.189611 0.009395 0.882657
0.093230 -0.135984 0.218371
0.004583 0.051660 0.550151
-0.105884 -0.049684 0.945225
0.070630 0.032784 0.870437
0.161134 -0.069434 0.221155
0.302346 -0.056095 0.814807
-0.141780 -0.023429 0.282925
-0.056986 0.069188 0.185983
0.128780 -0.042611 0.497315
-0.005463 -0.066406 0.125739
-0.263640 -0.021892 0.842385
-0.058406 -0.094495 0.940683
-0.109930 -0.012784 0.699909
-0.101191 0.026090 0.975150
0.066895 0.021439 0.827297
0.104772 -0.018929 0.565318
0.039123 0.020124 0.742330
-0.284814 -0.023064 0.797420
0.048931 -0.129784 0.361630
0.219844 0.027622 0.895684
-0.066651 0.079675 0.537349
0.034115 0.065933 0.910410
0.042916 -0.093375 0.920746
-0.014269 0.029472 0.765295
0.020245 -0.117093 0.306855
0.125117 -0.039801 0.666473
0.303810 -0.096090 0.753315
0.019961 0.073505 0.555812
0.170255 -0.015777 0.987802
-0.179094 -0.023981 0.404157
0.255770 -0.057398 0.801419
-0.100191 0.006534 0.941312
-0.079097 -0.005643 0.793785
-0.035343 0.050344 0.807273
-0.156516 -0.020625 0.994783
0.166742 -0.010708 0.879668
0.092527 -0.055308 0.978886
0.059221 -0.119339 0.239906
0.024903 -0.101051 0.269130
-0.138139 -0.039136 0.394264
-0.313610 -0.112174 0.787086
-0.116433 -0.078437 0.403138
0.103103 -0.115835 0.239466
0.115953 -0.071984 0.560083
-0.145957 -0.049398 0.494949
0.133183 -0.083688 0.378574
0.180456 -0.103861 0.167800
-0.001952 -0.049370 1.030108
0.091144 -0.056869 0.980672
-0.192042 -0.047308 0.851694
-0.240721 -0.010421 0.893740
0.034825 -0.089423 0.892932
0.026832 0.062509 0.642109
0.088884 -0.019821 0.819450
0.101800 -0.026938 0.753688
0.103071 0.033322 0.214844
-0.020004 0.111235 0.173354
-0.037071 -0.118845 0.584621
0.250648 -0.008520 0.790196
-0.111654 0.028191 0.595795
-0.006253 0.073396 0.360909
0.046420 -0.085458 0.899731
0.089780 -0.048041 0.998239
-0.059964 0.052609 0.812343
-0.147521 0.024736 0.328399
-0.119175 0.025559 0.345589
-0.021248 0.088437 0.222071
0.079135 -0.112492 0.517582
0.156002 -0.031958 0.251884
0.084347 0.084947 0.202199
-0.028076 -0.068166 0.985765
0.266231 0.009337 0.832781
0.093080 0.015710 0.428103
0.124589 0.028819 1.004423
0.195181 0.041445 0.895984
0.264890 -0.012154 0.867912
0.089213 -0.125057 0.303495
-0.041677 -0.089114 0.797726
-0.177606 -0.049769 0.938359
-0.108871 -0.078955 0.572554
-0.035323 0.027850 0.708094
-0.053467 0.067046 0.566582
-0.000828 -0.087006 0.608666
0.164302 -0.034937 0.181973
0.045971 -0.007442 1.035376
-0.328719 -0.107857 0.796496
-0.130384 -0.089405 0.272064
0.055336 -0.101614 0.342039
-0.019587 0.065205 0.483586
0.090947 -0.023298 0.766297
-0.068797 -0.102005 0.660922
-0.132346 -0.062665 0.607253
-0.045120 0.066069 0.683177
0.123689 -0.006374 0.569718
-0.090313 0.037731 0.892588
0.261852 -0.108461 0.770595
-0.015458 0.054197 0.635541
-0.128284 0.034719 0.969071
0.094263 0.036056 0.467127
-0.131835 -0.054409 0.228632
-0.115082 -0.028351 1.031093
-0.071974 -0.134806 0.255968
0.134320 -0.059154 0.973757
0.040957 0.078309 0.335739
-0.072904 -0.024685 0.862137
-0.081343 0.063854 0.344778
0.083029 0.048140 0.962185
0.199765 0.014756 0.920442
-0.153547 -0.039887 0.929334
0.078760 -0.100089 0.691583
-0.132477 -0.057805 0.524364
0.075735 -0.028637 0.824687
-0.099469 0.034133 0.508637
-0.129463 0.011729 0.479741
-0.105243 -0.059202 0.946306
-0.143824 -0.062979 0.434167
0.118338 -0.020090 0.648087
-0.147991 -0.042094 0.323182
0.156630 -0.047550 0.483766
0.049363 -0.105957 0.274932
-0.095914 -0.072982 0.872025
-0.107191 0.029890 0.626674
-0.025481 -0.109380 0.256239
-0.122167 -0.107374 0.362712
-0.122622 0.034376 0.198440
0.077351 -0.026327 0.797208
-0.055940 0.062746 0.436647
-0.126729 0.016570 0.255641
-0.089337 0.021187 0.832217
0.026910 0.101803 0.277393
-0.060683 -0.022044 1.049896
0.273088 -0.039725 0.843271
0.165536 -0.061650 0.943989
-0.020783 -0.103449 0.259735
-0.022084 -0.061193 1.012758
-0.074394 -0.118951 0.291782
0.212603 0.020073 0.834898
0.050004 -0.119039 0.602667
0.065266 0.045842 0.891463
0.012383 0.082903 0.470887
-0.114299 -0.026070 0.645807
0.105887 0.007382 0.908728
-0.085625 -0.040408 0.823872
0.122037 -0.080879 0.452358
0.113450 -0.004048 0.897444
-0.222933 0.039583 0.867377
0.075054 0.039702 0.564031
-0.167579 -0.022709 0.344549
0.078320 -0.066243 0.909600
0.199774 -0.035167 0.886029
0.043873 0.026999 0.764532
-0.067579 0.030822 0.900178
-0.112967 -0.047875 0.549020
-0.121122 -0.087265 0.271861
0.110053 -0.080706 0.629383
0.040947 0.050426 0.832810
-0.093753 0.068772 0.596327
-0.131675 -0.095393 0.570665
-0.030008 -0.110141 0.461115
-0.128440 -0.023381 0.984175
-0.129423 -0.031746 0.970179
-0.105983 0.005456 0.618187
0.081693 -0.104425 0.918125
0.088269 0.035194 0.262958
-0.042798 0.052215 0.520587
0.107760 0.015417 0.352655
0.032369 0.086604 0.424605
0.073316 -0.063178 0.977092
-0.052902 0.066230 0.628534
-0.033005 0.028950 0.862391
-0.147131 -0.020691 0.477395
-0.146472 -0.058441 0.436286
-0.127814 -0.067416 0.551274
-0.049672 -0.100395 0.440699
-0.129031 -0.096058 0.589136
0.128110 -0.012278 0.659217
-0.217655 0.015919 0.861351
-0.018313 0.103306 0.207757
0.083937 0.068788 0.951896
0.145269 -0.031214 0.373960
-0.235982 -0.031125 0.880230
-0.035623 -0.091367 0.953409
-0.223923 -0.039647 0.902559
-0.120904 0.004554 0.374914
-0.150334 0.003241 0.310968
0.312938 -0.142374 0.749901
0.098612 -0.124795 0.268117
0.281903 -0.015402 0.822424
-0.032558 -0.094142 0.230051
-0.086318 -0.023071 0.903840
-0.063097 0.037137 0.801831
-0.102148 -0.010663 0.768688
-0.216896 0.034481 0.893236
-0.011767 0.028983 0.766443
-0.021153 0.045363 0.854945
0.010548 -0.105222 0.369211
0.264840 -0.074936 0.824918
-0.046447 0.053520 0.562399
-0.116362 -0.106566 0.220672
0.148917 0.004893 0.240482
-0.121878 0.030611 0.409935
0.110332 0.017523 0.463887
0.137703 0.016741 0.944152
0.291304 -0.136324 0.766108
0.029504 -0.104305 0.587222
0.108908 0.045485 0.294434
-0.099697 0.007869 0.850785
0.099420 -0.006075 0.770134
-0.103813 -0.013857 0.919992
0.115316 -0.128630 0.284702
0.083765 -0.069054 0.888118
-0.184178 -0.027620 0.872356
-0.087666 -0.102142 0.381164
-0.083205 0.031910 0.635252
0.251032 -0.030129 0.838845
-0.024149 -0.104670 0.489691
-0.282682 -0.054988 0.766225
-0.055254 0.045304 1.020415
-0.102448 -0.088302 0.546894
0.213131 0.006040 0.820768
-0.040077 0.016964 0.801353
-0.057640 -0.104419 0.888336
0.110638 -0.082748 0.590699
0.111769 0.021531 0.646987
0.133319 0.004719 0.210311
-0.076734 0.056467 0.526573
0.105808 -0.026417 0.842706
-0.155138 -0.029189 0.901769
0.125593 -0.036027 0.605026
0.125182 -0.023686 0.541567
-0.087490 -0.034946 0.877959
-0.087098 0.009304 0.784673
-0.098382 -0.016942 0.696300
0.079887 0.032355 0.830832
0.089617 -0.007878 0.726519
-0.075972 0.022537 0.710098
0.230259 -0.008841 0.804634
0.143547 -0.052795 0.622717
-0.083666 -0.094722 0.958632
-0.009876 0.066168 0.660745
-0.089331 0.014030 1.024805
0.244886 -0.049574 0.790348
-0.005706 0.054099 0.665191
0.036383 -0.108757 0.234655
-0.062668 0.056725 0.913089
0.121522 -0.090868 0.480942
-0.095281 -0.139912 0.388037
-0.027880 -0.076289 0.311832
0.032212 -0.116485 0.249747
0.057774 -0.128592 0.278985
0.123453 0.007682 0.335222
0.070884 0.055335 0.986429
-0.194244 -0.048370 0.944980
-0.020807 0.051249 0.877801
0.010661 -0.047866 1.061481
-0.114505 0.008898 0.925175
-0.021945 -0.096732 0.521714
-0.174997 -0.049404 0.889923
-0.051624 -0.099175 0.558937
-0.154985 -0.097398 0.236776
0.013176 0.028228 0.821209
0.097448 0.046001 0.351982
-0.039666 0.055022 0.655020
-0.253676 0.007557 0.832204
0.127480 -0.100829 0.258391
0.124858 0.005745 0.472887
0.265060 -0.075376 0.785068
-0.167557 -0.019674 0.375153
0.057579 0.091381 0.238820
-0.034045 0.076475 0.489637
0.015128 0.048267 0.724195
-0.135406 0.007492 0.186678
0.114058 -0.002779 0.231257
0.089558 -0.031564 0.707596
0.024925 -0.098544 0.803486
-0.099985 0.018030 0.529919
-0.009773 -0.005624 1.073308
-0.019739 0.084978 0.499309
0.047830 0.071401 0.295431
0.281991 -0.046079 0.845030
0.078163 0.071812 0.314005
0.107571 0.025998 0.403582
0.121900 -0.014133 0.360472
-0.039582 -0.131559 0.267258
-0.090320 0.049870 0.452935
-0.022058 0.053559 0.666916
0.316165 -0.124169 0.780826
-0.057736 -0.131551 0.194977
-0.112189 0.021138 0.548763
-0.032334 -0.122274 0.655346
-0.021226 0.088051 0.335971
0.175342 -0.053571 0.219633
-0.038505 -0.106333 0.600780
0.323157 -0.114420 0.738843
-0.074403 0.037652 0.879256
0.141786 -0.028568 0.885088
-0.194983 -0.008018 0.944177
-0.256228 -0.023439 0.797803
0.070197 0.068205 0.680266
0.010427 -0.084882 0.878197
0.299704 -0.097176 0.739592
0.161008 -0.071842 0.442759
0.005934 0.075172 0.424367
-0.077558 0.050632 0.488908
-0.015688 -0.078065 0.824831
0.096506 0.056019 0.341345
-0.100577 -0.029879 0.846450
-0.018415 -0.086913 0.261890
-0.105410 -0.038999 0.818882
-0.193812 -0.008091 0.932619
0.222759 -0.023891 0.822182
0.040390 -0.109269 0.672336
0.244991 0.002703 0.818528
-0.080427 -0.123620 0.532360
-0.017845 -0.107829 0.683871
-0.092354 0.034329 0.527686
0.158812 -0.021729 0.886024
-0.017799 0.021891 0.751967
0.111673 -0.089513 0.654208
-0.095115 0.056806 0.444862
0.076231 -0.071825 0.783912
0.046310 -0.146324 0.186247
-0.112471 0.003436 0.907252
0.095794 -0.099239 0.417082
-0.085769 0.026940 0.724757
-0.116666 0.003110 0.418305
0.176959 -0.035515 0.926942
0.070748 0.046563 0.861289
-0.077531 0.049869 0.676992
-0.227073 -0.035583 0.828296
-0.151059 -0.019023 0.479194
-0.070326 -0.129765 0.218825
-0.096948 -0.057285 1.018331
0.252028 -0.042746 0.805464
-0.065798 0.056526 0.953422
0.051753 0.050588 0.707713
-0.028423 0.075553 0.430821
0.081145 0.062536 0.246975
-0.153378 -0.050685 0.597385
0.209943 -0.000847 0.925958
-0.119373 -0.018679 0.885464
0.074852 0.055043 0.620256
-0.085998 -0.064834 0.772471
0.144137 -0.017194 0.463942
-0.105311 -0.002933 0.741045
-0.196728 0.049463 0.878583
0.127650 -0.018722 0.367008
-0.231487 0.034267 0.843060
0.128279 -0.051260 0.450035
-0.107110 0.012002 0.167247
0.076334 -0.027882 1.021961
-0.071327 0.054759 0.324977
-0.213582 0.022791 0.908619
0.126099 -0.037786 0.339193
0.205248 0.026182 0.909221
0.024399 0.059992 0.865020
0.081129 0.001748 0.727785
0.045439 -0.120172 0.488257
0.057671 0.047736 0.650770
-0.136109 -0.065373 0.464882
-0.030482 -0.095124 0.764006
0.065385 -0.083427 0.917471
0.081739 -0.120279 0.320679
0.007604 0.033452 0.669472
0.067174 -0.115564 0.382287
-0.100401 0.029290 0.396839
-0.039335 -0.115462 0.528738
-0.004031 0.043458 1.002201
-0.072236 -0.117639 0.243058
-0.115367 -0.093582 0.470003
-0.089813 0.003760 0.397949
-0.107178 -0.107686 0.346127
-0.004813 -0.097870 0.215040
0.216663 -0.043243 0.872237
-0.179055 0.025451 0.871677
0.038738 -0.101459 0.289124
-0.320642 -0.108688 0.766680
-0.055555 -0.063125 0.777375
-0.213525 0.015597 0.849522
0.054344 0.066941 0.578153
-0.024643 -0.063539 1.024235
-0.124708 0.012978 0.554928
-0.075528 0.076463 0.214033
0.133377 -0.043618 0.916497
-0.134542 -0.038334 0.663107
0.069475 0.031539 0.827802
-0.038569 0.030058 0.697771
-0.103434 -0.005719 0.476470
0.288781 -0.076091 0.779044
-0.078398 -0.104758 0.333416
0.015563 0.067425 0.915484
0.084031 0.036962 0.243721
0.031817 -0.130167 0.914427
0.078045 -0.003539 1.049374
0.010839 0.074418 0.634311
0.037249 0.045335 0.875819
-0.147858 -0.041025 0.220707
0.137483 -0.099700 0.476574
0.143243 -0.059637 0.522728
-0.020013 -0.116776 0.256288
0.014382 0.083001 0.166380
0.201980 0.000326 0.919069
0.125741 -0.057762 0.634265
-0.155167 -0.066028 0.230425
-0.262004 -0.047087 0.784348
0.043256 -0.107675 0.504727
0.172088 -0.035104 0.286785
0.151713 -0.069773 0.290220
0.015702 -0.112184 0.412066
0.012477 0.098626 0.259326
-0.041114 0.057455 0.877085
0.124813 -0.024425 0.326607
-0.109334 0.040526 0.974991
0.250329 0.000602 0.817622
-0.077404 0.067674 0.306553
-0.063429 0.073744 0.979173
0.033589 0.059722 0.903347
0.078834 -0.020910 0.859718
-0.110436 -0.092014 0.340785
-0.017309 -0.108388 0.326265
-0.055290 -0.104583 0.478183
-0.092610 -0.110465 0.649951
-0.235410 -0.000374 0.819218
-0.120194 -0.011591 0.903990
-0.114741 -0.008280 0.863764
-0.063796 -0.126054 0.206978
-0.018017 0.070106 0.877789
-0.105202 0.030602 0.986140
-0.073733 -0.096888 0.766039
0.098762 -0.095893 0.494468
0.107921 -0.065609 0.659642
-0.107051 0.042607 0.563721
0.125932 0.000727 0.580895
-0.060856 -0.097678 0.907107
-0.073734 0.048979 0.608846
-0.021182 0.081902 0.528329
-0.032189 0.066129 0.342112
0.287203 -0.085194 0.805876
-0.121941 0.008983 0.216457
-0.268328 -0.073225 0.761658
0.024001 0.033573 1.042868
-0.085742 -0.094170 0.470994
0.032459 0.097979 0.184532
-0.032433 -0.109216 0.458293
-0.099331 -0.057091 0.948679
-0.058454 0.063382 0.532784
-0.111767 0.062988 0.179595
-0.077540 -0.107723 0.575114
0.050102 0.063203 0.460181
-0.082574 0.025569 0.682577
-0.098301 -0.003605 0.860224
-0.019602 0.058455 0.820610
-0.062342 0.070528 0.569406
0.097770 -0.105667 0.346671
0.020227 0.063350 0.976814
0.083378 0.055402 0.498115
0.152101 -0.031233 0.370334
-0.117953 -0.005223 0.553324
0.031703 -0.121876 0.266151
-0.072589 -0.103631 0.548648
0.151834 -0.037215 0.337269
-0.159331 -0.067017 0.415609
0.135808 -0.086287 0.478974
-0.189508 -0.031404 0.359230
-0.035163 0.071669 0.214994
-0.045273 0.024930 0.724167
-0.272565 -0.015226 0.821009
0.090894 -0.069050 0.815677
0.031584 -0.101340 0.890991
0.046992 -0.121677 0.545997
-0.017057 -0.103981 0.427994
-0.023799 0.057389 0.820641
-0.154122 0.008160 0.885061
-0.141078 -0.029198 0.572566
-0.131552 -0.024410 0.405675
0.071945 0.076810 0.325372
0.063607 0.052164 0.597527
-0.054547 0.069393 0.976110
0.114509 -0.000014 0.542026
0.062119 0.039810 0.800733
-0.071515 -0.072073 0.670788
0.032812 0.093861 0.237802
0.073836 0.061175 0.457958
-0.098251 0.080355 0.202418
-0.136765 0.026203 0.252337
0.139435 -0.112655 0.223723
-0.148480 -0.028049 0.400545
0.016090 -0.077927 0.959256
-0.088700 -0.048104 0.805899
-0.097004 -0.052434 0.882413
0.111883 -0.076069 0.511874
0.028864 -0.112819 0.390274
0.081718 0.051208 0.614401
-0.128165 -0.016437 0.909138
0.116417 -0.039849 0.915437
0.093064 -0.105316 0.194377
0.084043 -0.102548 0.167331
-0.138286 -0.090455 0.412201
0.059083 -0.098625 0.646443
-0.051688 0.020334 0.749984
-0.094548 -0.097960 0.427460
-0.000150 0.079448 0.328172
-0.291244 -0.045700 0.789702
-0.011742 -0.062993 1.000073
0.001450 -0.091621 0.694717
-0.015836 -0.111754 0.885347
-0.103118 0.027013 0.716021
-0.125132 -0.001986 0.691672
-0.128427 0.018318 0.587949
-0.120015 0.002818 1.018558
0.116582 -0.061214 0.499733
0.188283 -0.020416 0.902464
-0.230257 -0.053565 0.885844
-0.073097 -0.073223 0.966629
0.063443 0.008785 0.838520
-0.266592 -0.088137 0.772256
0.121124 -0.001743 0.352026
0.018403 -0.096306 0.939905
-0.133806 0.024057 0.944675
0.083488 -0.077180 0.860029
0.015020 0.041121 0.803543
-0.151740 -0.080686 0.378496
0.006954 0.092734 0.308637
-0.026409 -0.091299 0.888220
-0.301372 -0.063488 0.813003
0.078625 -0.057896 0.831087
0.110724 -0.070710 0.332274
0.124446 -0.098722 0.553326
0.301357 -0.065014 0.813819
-0.143519 -0.059129 0.310146
0.107375 -0.035241 0.897801
-0.036177 -0.091620 0.932102
0.071439 0.013967 1.047827
-0.013433 -0.098858 0.897296
0.059467 -0.121929 0.710116
-0.132577 -0.067627 0.593786
0.098377 -0.120646 0.432668
0.072586 -0.083125 0.842414
0.155902 -0.046775 0.234002
0.259859 -0.028721 0.768189
0.159879 -0.061923 0.324215
-0.056983 0.034986 0.666314
0.026075 0.037060 0.684451
0.055532 0.082478 0.317440
-0.045406 0.049668 0.785686
-0.149981 -0.075835 0.235499
-0.117129 -0.131469 0.210880
-0.104669 -0.004231 0.301098
0.133801 0.021404 0.202091
0.084851 0.059388 0.183161
0.095593 0.019325 0.885761
0.055396 -0.098509 0.591684
0.033680 -0.107433 0.905905
-0.010690 0.047942 0.988016
0.065914 0.066750 0.906792
-0.104626 0.038572 0.365307
-0.053520 0.091076 0.244093
-0.026525 0.090540 0.244982
-0.097180 -0.061476 0.690615
-0.143798 -0.088532 0.224583
-0.066811 -0.112493 0.288061
-0.138793 -0.074573 0.224316
-0.003702 0.063670 0.947974
0.283375 -0.093445 0.775632
-0.062873 -0.092683 0.590529
-0.138596 -0.054115 0.489012
-0.084159 -0.126875 0.435634
-0.113294 0.029620 0.471980
0.045381 -0.109420 0.259650
0.055876 -0.090826 0.284881
-0.069518 0.066388 0.427602
-0.152349 -0.011217 0.151122
-0.241231 -0.041456 0.792730
0.106736 0.006338 0.201229
-0.035196 -0.111788 0.311095
-0.074876 -0.085711 0.880899
-0.000072 -0.073512 0.783725
0.063742 -0.131930 0.636997
-0.059289 -0.152656 0.249433
0.025797 0.053116 0.924207
-0.044716 0.048280 0.991378
0.105061 -0.083575 0.350661
0.124141 0.030657 0.984192
0.107085 -0.121253 0.304446
0.161503 -0.014232 0.237969
0.013877 0.093154 0.235762
0.109499 0.011047 0.463322
0.020174 -0.092491 0.639290
0.085356 -0.103168 0.566119
0.008853 -0.095875 0.834026
-0.095086 -0.123864 0.290454
0.206028 0.015695 0.852776
-0.001577 0.032902 0.803633
0.035853 0.085247 0.335474
0.265607 -0.029020 0.821608
0.289546 -0.108698 0.754068
-0.090302 0.009354 0.756463
-0.225277 -0.035441 0.815121
-0.055450 0.043253 0.685544
-0.173402 -0.049685 0.471954
-0.220079 -0.017553 0.918939
0.334356 -0.098297 0.775211
0.003769 -0.096619 0.811601
-0.066153 -0.131479 0.274606
0.031738 -0.120975 0.236237
-0.078012 0.078382 0.259574
0.095812 -0.091491 0.641142
0.073882 -0.053603 0.969537
0.097405 0.059422 0.537062
0.121310 -0.018900 0.621707
-0.124017 -0.069799 0.498937
0.088212 -0.118142 0.248557
0.067514 0.052572 0.882455
0.098846 0.016768 0.666743
-0.102486 -0.073031 0.799786
0.214178 -0.039785 0.826723
0.003688 -0.125419 0.889319
-0.042759 -0.087050 0.415652
0.066664 0.052377 0.438417
-0.147802 0.020170 0.990390
-0.210254 -0.040857 0.886541
0.125692 -0.011774 0.527241
0.076652 -0.081703 0.926817
0.092512 0.037434 0.319736
0.191332 -0.029572 0.897657
-0.223635 -0.017177 0.835605
0.095564 0.023326 0.904200
0.113246 0.037403 0.422658
-0.037596 -0.104871 0.522288
0.072117 -0.128706 0.421034
0.171918 -0.021878 0.352324
0.118621 0.000367 0.380239
-0.179850 -0.011608 0.857215
0.167210 -0.026068 0.874073
0.083705 0.080755 0.268764
-0.020115 0.081593 0.549373
-0.020959 -0.118005 0.339847
0.080914 0.054275 0.385515
0.312702 -0.077461 0.789825
-0.138595 -0.075899 0.500021
-0.101159 -0.075795 0.695270
0.099656 0.032656 0.280824
-0.133339 -0.067261 0.964535
0.300492 -0.087305 0.804136
-0.040937 -0.119064 0.594130
0.010104 -0.090394 0.384952
0.087649 -0.007851 0.818680
0.082376 0.014040 0.588070
-0.101290 -0.094845 0.434043
0.043033 0.071210 0.977468
0.017612 -0.100334 0.552041
-0.015489 0.093929 0.259071
-0.157086 -0.081863 0.241622
-0.057324 -0.099810 0.671734
-0.103275 0.041193 1.001218
0.029571 -0.052249 0.993952
0.014280 0.062351 0.990870
-0.076960 0.057927 0.484015
0.116440 -0.050597 0.999167
0.085980 -0.062456 0.808793
0.325117 -0.062085 0.801748
0.088777 0.050962 0.589476
-0.151969 -0.013985 0.997527
0.107535 0.013197 0.716632
-0.163649 0.007438 0.868274
0.003435 -0.112355 0.590001
-0.115658 -0.082047 0.886902
0.051711 -0.096532 0.925046
-0.031534 0.049833 0.644871
0.095115 0.048494 0.284601
-0.095277 0.016699 1.024701
0.059011 -0.010210 0.795126
0.087684 -0.039509 0.790080
0.138609 0.010025 0.379634
-0.028468 -0.105113 0.527811
-0.246617 -0.022921 0.887042
-0.022794 0.099458 0.260851
0.105053 -0.060570 0.930097
0.006327 0.077571 0.966233
0.245113 -0.055271 0.780958
0.092319 0.017359 0.618804
0.104664 0.056871 0.256523
-0.126566 -0.048728 0.433978
0.090873 -0.117745 0.235682
-0.127998 -0.000896 0.279261
0.086686 -0.043575 0.807548
0.146109 -0.011481 0.304616
-0.244488 -0.082401 0.818725
-0.074196 -0.077510 0.747616
-0.086574 0.063723 0.340628
0.003177 -0.079071 0.815363
-0.147863 -0.050453 0.414524
0.076847 -0.102589 0.621072
-0.019578 0.044469 0.631320
-0.160481 -0.014920 0.895610
-0.222603 -0.000943 0.813722
-0.086440 0.026866 0.567145
0.126940 -0.081257 0.597139
-0.077940 -0.103845 0.402960
0.064913 -0.102664 0.540512
-0.021491 -0.139665 0.262823
0.183310 -0.038712 0.844380
0.144949 0.014515 0.896319
-0.145922 0.031616 0.948190
-0.029633 -0.076999 0.625741
-0.085838 0.028524 0.579788
0.145883 -0.067687 0.506206
0.001338 0.051321 0.489669
-0.079630 -0.128201 0.534416
-0.228212 0.013647 0.820293
0.146051 -0.111283 0.166105
0.022060 0.091926 0.228246
0.061577 -0.110660 0.268412
-0.167915 -0.010477 0.409111
-0.049828 0.074659 0.662101
-0.153378 0.026943 0.898975
-0.151047 -0.013829 0.234480
0.051513 0.038920 0.738164
0.037356 -0.109356 0.884688
-0.066731 0.064318 0.914109
0.148866 -0.055332 0.370339
0.060381 -0.106898 0.669768
0.148458 -0.107183 0.331005
0.024168 0.067711 0.983741
0.171441 -0.018988 0.936525
-0.120818 -0.062847 0.308309
-0.088850 -0.040392 0.874659
0.062767 -0.118554 0.559044
-0.033229 0.060590 0.507048
-0.096763 -0.058382 0.985169
-0.026807 0.069504 0.531691
-0.132161 0.001029 0.996886
0.139720 -0.015866 0.889520
-0.004113 -0.118307 0.728737
-0.054455 -0.120070 0.221979
0.028122 -0.103004 0.218941
-0.168725 0.013702 0.896022
0.074617 -0.021511 1.038439
-0.100738 -0.010070 0.912132
-0.118364 0.025891 0.380800
0.115619 -0.095656 0.493060
-0.029719 0.040320 0.979497
-0.108632 -0.112727 0.561641
-0.062989 -0.105250 0.877451
-0.045593 0.030724 1.031316
-0.075435 -0.092459 0.561874
-0.134906 -0.006907 0.414039
-0.008620 -0.120247 0.891397
0.074079 -0.044977 0.978254
0.167028 0.024606 0.946114
-0.106884 0.012287 0.405791
0.291337 -0.117559 0.788066
-0.223987 0.011536 0.864930
-0.303211 -0.132188 0.781190
0.129117 -0.057441 0.620523
-0.083457 -0.130536 0.193381
0.044605 -0.105039 0.271363
-0.120884 -0.082379 0.542539
-0.277315 -0.003902 0.776209
-0.019327 -0.096394 0.766837
-0.073445 -0.045942 0.863374
0.138149 -0.033817 0.596187
-0.028199 0.124591 0.208868
-0.128284 0.004926 0.561563
-0.076546 -0.145339 0.150564
-0.102974 -0.106205 0.216883
-0.096284 0.020163 0.323268
0.239700 0.012795 0.846388
-0.061370 -0.080631 0.981775
-0.138799 -0.064991 0.615910
0.112138 0.031089 0.465354
-0.019106 -0.049529 1.011915
-0.093227 -0.051269 0.816501
-0.101878 -0.121366 0.332542
-0.100315 -0.105902 0.462661
0.076109 0.060141 0.902086
0.271561 -0.027115 0.797634
-0.105963 0.052394 0.473119
-0.013190 0.065746 0.429085
-0.117252 0.010398 0.700785
0.088985 0.020577 0.904827
-0.119238 -0.051206 0.653558
0.082289 0.028749 0.870127
-0.234758 0.004330 0.878309
-0.004686 0.101629 0.307360
0.042962 -0.079744 0.700825
0.088526 0.039480 0.860814
-0.116976 -0.062426 0.976164
-0.103384 0.066361 0.504508
-0.007706 -0.070073 0.535855
-0.085211 0.060468 0.503369
-0.291931 -0.089365 0.810557
-0.078698 -0.057573 0.781857
0.052384 -0.103855 0.560275
-0.141127 0.010887 0.287534
0.044302 -0.104123 0.609826
0.012895 -0.080558 0.861064
-0.125183 0.014924 0.317293
-0.110407 0.034303 0.359753
-0.098640 -0.047880 0.993806
0.132678 -0.096294 0.267687
-0.132930 -0.010211 0.901620
-0.008029 -0.045503 1.043664
-0.091312 -0.118441 0.466434
0.036467 0.117456 0.283117
-0.196119 -0.004626 0.908627
0.257240 -0.058252 0.774047
-0.330878 -0.124042 0.756771
-0.114025 -0.092771 0.452344
0.018373 0.111161 0.235197
-0.136843 -0.088651 0.232311
0.031094 0.072412 0.548594
0.014087 -0.115279 0.278491
0.013022 0.091062 0.327351
0.034265 -0.095848 0.574939
0.032103 0.079297 0.246906
0.215863 0.027971 0.858294
0.118400 0.021964 0.454800
0.207266 -0.033318 0.860837
0.104145 0.057784 0.479908
-0.070059 0.078499 0.445875
0.066063 -0.040395 0.993831
0.094341 -0.051932 0.866216
-0.052824 -0.105004 0.463305
0.008917 0.070135 0.967163
0.077670 0.058739 0.972058
0.102213 0.039210 0.496169
0.232020 -0.053714 0.854413
-0.207412 -0.002549 0.813122
-0.083662 -0.070418 0.778034
-0.057464 -0.081632 0.842985
0.108482 -0.101456 0.587759
-0.124606 -0.003273 0.188259
0.062680 -0.117843 0.418229
-0.106344 -0.130716 0.454201
-0.164839 -0.006736 0.298021
0.223256 0.007804 0.864110
0.075187 0.055944 0.414672
-0.328958 -0.081501 0.766682
-0.052232 -0.124958 0.477778
0.066935 0.072891 0.555526
0.161870 -0.021298 0.351542
0.104340 0.051363 0.918559
-0.149597 -0.002199 0.452015
-0.110755 0.012967 0.449478
0.099208 0.025589 0.924334
-0.290810 -0.099488 0.769754
0.099954 -0.113522 0.319778
-0.085095 0.065740 0.211960
-0.120137 -0.034064 0.710449
0.195980 -0.052065 0.282126
-0.088466 0.044373 0.881397
-0.121224 -0.094095 0.457213
-0.138897 -0.006370 0.405707
-0.043063 -0.002312 1.049032
-0.025527 0.051650 1.001730
0.282041 -0.087615 0.809965
-0.026224 -0.082698 0.774360
0.156347 -0.015944 0.945226
0.116295 -0.051100 0.572831
-0.116147 0.036977 0.294657
-0.015216 0.071338 0.386272
-0.090989 0.049658 0.263562
-0.064681 0.021126 0.691579
0.047298 -0.122723 0.266601
-0.115044 -0.025204 0.713816
-0.114800 0.013774 0.382337
-0.016986 0.052719 1.038716
-0.027923 0.043813 0.764517
0.013215 -0.098821 0.510982
-0.140327 -0.003398 0.991664
0.148452 -0.051885 0.259757
0.179431 -0.017815 0.923595
-0.039296 -0.098592 0.427608
-0.033891 0.058208 0.828464
0.099833 0.000606 0.464772
-0.023486 0.096054 0.206832
-0.248492 -0.036283 0.857548
-0.156290 -0.034123 0.449989
0.057453 -0.110729 0.567810
-0.123424 0.011762 0.430860
-0.092703 -0.118872 0.620858
0.059520 0.066245 0.497405
-0.132746 -0.075381 0.638034
-0.134778 -0.054152 0.548045
-0.150288 -0.002831 0.945047
-0.145088 -0.018477 0.461799
-0.117107 -0.096890 0.532063
-0.125470 -0.063019 0.576003
0.121302 -0.003489 0.488616
-0.184933 -0.007087 0.853865
0.111825 0.004828 1.014922
-0.126958 -0.079291 0.597772
0.111895 -0.102197 0.462414
0.193981 -0.038457 0.843208
0.050313 -0.113065 0.655270
0.095260 0.038809 0.260588
-0.115017 -0.117065 0.610179
-0.079203 -0.096249 0.549656
-0.263847 -0.019912 0.814883
-0.140954 -0.072188 0.231631
-0.151059 0.028733 0.902671
-0.121446 -0.050362 0.671554
-0.212412 0.022231 0.855830
0.090474 -0.011717 0.904889
-0.072710 -0.086351 0.222452
0.097152 0.040141 0.207508
-0.098304 -0.085534 0.515783
-0.012460 -0.108933 0.882364
-0.023733 -0.101739 0.456540
-0.085566 -0.106833 0.562760
0.159468 -0.066641 0.265043
-0.129806 -0.055297 0.569449
-0.069069 -0.053443 0.972425
-0.157787 -0.034487 0.260305
-0.137061 -0.002811 0.950240
0.162137 -0.043127 0.498647
0.267887 -0.020360 0.829912
0.330316 -0.079801 0.749225
0.045268 -0.136226 0.466384
0.252986 -0.052760 0.847345
0.106769 0.014696 0.918478
-0.014418 0.086024 0.445140
-0.102113 -0.091609 0.600634
0.319060 -0.128374 0.754817
-0.060582 -0.121206 0.205130
0.083815 -0.118436 0.388528
-0.058285 0.054214 0.428841
0.159866 -0.063608 0.398395
-0.095051 -0.070335 0.901624
0.080082 0.049970 0.642479
-0.123010 -0.037998 0.994065
0.097394 0.024047 0.904120
0.001099 -0.110612 0.418800
0.062170 -0.084163 0.772056
0.125973 -0.008534 0.263212
0.102445 0.009169 0.198805
-0.266078 -0.065105 0.797749
-0.109725 -0.007734 0.729752
-0.077824 0.025348 0.684547
-0.196803 -0.041805 0.875499
-0.174905 -0.032107 0.349589
-0.058471 -0.119698 0.547371
0.120335 -0.109210 0.400055
-0.239142 -0.054904 0.820001
-0.052491 -0.103613 0.182874
0.180497 -0.049987 0.250594
-0.019249 -0.110155 0.324425
-0.071983 0.047514 0.343538
-0.279485 -0.076858 0.818500
0.032369 0.082595 0.362960
0.034627 -0.086558 0.792108
-0.153445 -0.056811 0.241203
0.229519 -0.048609 0.873597
-0.132758 -0.069401 0.316822
-0.064891 0.052869 0.914381
0.099793 0.052939 0.522110
-0.142727 -0.072018 0.333744
0.168107 -0.007591 0.944966
-0.040386 0.055145 0.669956
0.098747 -0.063616 0.703607
-0.082051 0.036217 0.281049
0.080392 0.008345 0.486944
0.100892 -0.094571 0.462986
0.096370 -0.086212 0.633193
-0.137202 -0.064517 0.374751
-0.238833 0.030867 0.846811
-0.221201 -0.042553 0.855686
0.303266 -0.049237 0.781323
0.026464 0.062847 0.522329
-0.298811 -0.048818 0.762889
0.089309 0.009229 0.852949
0.118678 0.016876 0.386442
-0.320210 -0.105262 0.754917
-0.228402 -0.063570 0.833965
0.120681 0.055757 0.346815
0.140259 -0.086013 0.212056
-0.128671 0.028355 0.184832
-0.111092 -0.097517 0.257213
-0.097889 -0.054942 0.792847
0.051383 0.065155 0.317976
0.071108 0.050889 0.680399
0.043255 -0.115559 0.598405
-0.103594 -0.032156 0.765402
-0.092291 -0.116431 0.225313
0.108848 -0.036663 0.999143
0.005416 0.082189 0.572581
-0.032087 0.050183 0.875799
0.006057 0.064693 1.008390
-0.293549 -0.054731 0.829179
-0.079717 -0.040927 0.902490
-0.150694 -0.013096 0.220531
0.084239 -0.068788 0.848958
-0.032351 -0.103487 0.366366
-0.081505 0.050649 0.649761
0.001780 0.053381 0.646766
-0.127368 0.026457 0.987095
0.098531 -0.099051 0.645421
0.008170 0.098365 0.478135
0.172198 -0.037563 0.867436
-0.128067 -0.063712 0.651998
0.005352 0.066560 0.572373
-0.150111 -0.044305 0.541860
0.139334 -0.004342 1.033051
-0.053196 -0.096970 0.517253
-0.116744 0.031740 0.581731
0.060733 -0.068401 0.829662
0.140474 0.020863 1.007922
0.130783 -0.085604 0.628319
-0.078786 -0.135111 0.177773
0.077025 0.035965 0.691250
0.089381 0.030996 0.435774
-0.134742 -0.025458 0.968750
0.051639 0.044758 0.696734
-0.144386 -0.035446 0.438424
-0.049365 0.059757 0.536891
-0.044384 0.055091 1.017065
0.141467 -0.001760 0.323921
-0.226237 0.018116 0.914568
-0.354395 -0.095135 0.760923
0.278294 -0.040753 0.802349
-0.131566 0.017168 0.598340
-0.085538 -0.055426 0.823061
0.030640 -0.094405 0.606411
0.023600 0.026305 0.888238
0.140533 -0.073180 0.281535
-0.071349 -0.038847 0.806389
-0.004050 0.034938 0.822065
-0.050895 0.069197 0.324204
-0.062731 -0.064113 0.780308
0.014887 -0.122656 0.623790
-0.094330 -0.030641 0.769032
-0.084083 0.040353 1.021685
0.010080 0.044015 0.834706
0.011313 0.004057 1.053344
-0.294561 -0.034241 0.785420
-0.016034 0.097707 0.445567
-0.039555 -0.116532 0.602476
0.153980 -0.038864 0.469055
-0.090752 0.058195 0.322311
-0.093529 0.045574 0.924579
-0.154545 -0.014843 0.316943
0.010035 -0.090455 0.960983
0.095980 -0.093486 0.438092
-0.109898 -0.047410 0.607548
0.172252 -0.034743 0.196172
-0.115596 0.009216 0.539147
-0.040483 0.047841 0.864286
-0.052056 0.035178 1.033271
-0.099226 -0.085663 0.605229
-0.116646 -0.088462 0.207931
0.098292 -0.016837 0.739015
0.122249 -0.039529 0.712035
-0.027080 -0.100507 0.758909
0.103240 0.041526 0.303368
0.153196 -0.016955 1.004176
0.008236 -0.100901 0.929361
-0.143766 -0.030307 0.566073
0.184641 -0.044557 0.172495
-0.149899 -0.051697 0.276898
-0.069933 -0.063116 0.920921
0.111263 0.013619 0.543791
0.043036 -0.138115 0.433458
-0.054055 0.078530 0.311851
-0.286190 -0.061284 0.767119
-0.031512 -0.125515 0.482641
-0.226834 -0.042156 0.828452
-0.140723 0.001681 0.258906
-0.050419 0.077755 0.338037
0.092040 -0.108596 0.624722
0.264684 -0.059124 0.809345
0.123686 -0.035774 0.850595
-0.038968 0.036035 0.770029
0.058081 0.065969 0.544637
-0.288581 -0.015194 0.803316
0.012267 0.055243 1.018462
0.128246 -0.087767 0.488390
0.128382 -0.013479 0.662804
0.181072 0.011572 0.889246
0.272433 -0.084756 0.811575
-0.312881 -0.070343 0.757140
0.230504 0.023302 0.881881
-0.082270 0.052792 0.522382
-0.072707 0.008613 0.789189
0.089372 -0.034138 1.029575
-0.082764 0.038048 0.741935
-0.118469 -0.067397 0.705381
0.014964 0.070385 0.905272
-0.108439 -0.102993 0.466827
0.090906 -0.023219 0.808634
-0.075192 0.059348 0.607252
-0.001384 -0.088353 0.924084
-0.088927 -0.134280 0.218234
-0.081250 -0.034237 0.769877
-0.269171 -0.096271 0.800634
0.102257 -0.056594 0.542526
-0.039951 -0.125657 0.492919
-0.018901 -0.097079 0.913013
-0.067039 -0.008977 0.774424
-0.047582 0.007241 1.045893
-0.224610 -0.037645 0.792351
-0.055558 0.059519 0.547344
-0.009725 0.051510 0.963987
-0.148112 0.024414 0.962297
-0.029624 0.073477 0.395996
0.093748 -0.127749 0.213421
0.119470 0.031999 0.676383
-0.197256 0.011367 0.858663
-0.033542 -0.092481 0.649858
0.122717 0.008862 0.474828
0.083787 -0.060286 0.764945
-0.324565 -0.084100 0.792452
-0.124666 -0.012062 0.599099
0.076265 -0.094231 0.609565
0.241965 0.001011 0.815566
-0.311330 -0.060400 0.758557
-0.039090 -0.005892 1.050590
0.102127 0.055086 0.329626
0.071066 0.068442 0.300163
-0.034316 0.094765 0.508799
-0.072454 -0.034097 0.844534
-0.056337 0.015533 1.027350
0.068836 -0.079635 0.766275
-0.108859 0.048162 0.490181
0.099098 0.032754 0.372755
-0.036823 -0.121047 0.388913
-0.001271 0.098020 0.222443
-0.084602 0.042985 0.247237
0.321990 -0.086737 0.746729
-0.116143 -0.087066 0.484622
0.113502 0.031485 0.955464
-0.073749 -0.049402 0.984001
0.215024 -0.039518 0.796869
-0.028828 -0.081123 0.615081
-0.140794 -0.080199 0.343509
0.024927 0.087920 0.413707
-0.011535 -0.101742 0.622291
-0.277548 -0.057445 0.765867
0.086014 0.062039 0.382656
0.002382 -0.094160 0.809599
-0.056160 0.078398 0.237238
0.084963 0.046585 0.859765
0.053047 0.041092 0.860415
0.104113 0.062578 0.526538
0.036329 -0.107938 0.652992
0.281056 -0.061637 0.771028
0.077305 -0.047061 0.929377
0.114608 -0.089024 0.640571
0.047759 0.071518 0.327259
-0.120876 0.023298 0.190714
-0.043586 -0.096168 0.949924
-0.183751 0.018467 0.883261
-0.010557 -0.110488 0.657801
0.000820 0.088173 0.432389
-0.202180 -0.086516 0.186401
0.023365 0.062102 0.835262
0.266504 -0.028479 0.766931
0.128998 -0.095251 0.242025
0.041567 0.030697 0.779135
0.063702 0.057048 0.936667
-0.102208 0.051810 0.319631
0.155718 -0.027076 0.401757
-0.082185 -0.078658 0.726848
0.102848 0.051201 0.269658
0.071055 -0.048744 1.003864
0.063178 0.083177 0.574394
-0.140215 -0.068285 0.588438
-0.045960 -0.125042 0.348365
-0.224384 0.023399 0.838261
-0.148161 -0.033733 0.177590
-0.185755 0.025028 0.851328
0.110870 0.011669 0.916645
-0.172652 -0.074717 0.249250
0.108935 -0.083936 0.542580
0.108836 0.030444 0.256349
-0.161424 -0.050924 0.963234
-0.052079 -0.109557 0.233371
-0.024389 0.015033 0.765535
0.135328 0.009303 0.327159
0.019264 -0.110651 0.443187
0.099080 0.029139 0.458150
0.060231 0.053997 0.654991
-0.057578 0.044721 0.671298
0.110416 -0.095919 0.411882
-0.087563 -0.099343 0.612185
-0.165815 -0.011825 0.869659
0.163794 -0.110397 0.224848
0.055291 0.018044 1.026423
0.299538 -0.039521 0.833692
-0.121171 0.028070 0.429098
-0.078396 0.059295 0.998608
0.104035 -0.041042 0.773503
-0.147945 0.010752 0.928801
0.019149 -0.093561 0.443556
-0.137856 0.000568 0.659049
-0.127395 -0.027765 0.566869
0.078508 -0.117142 0.337008
-0.313367 -0.069495 0.812642
0.110407 0.038083 0.662876
0.143824 -0.109412 0.152814
-0.146247 -0.022611 0.500936
-0.048281 0.039145 0.885407
0.126119 0.025872 0.274432
0.066956 -0.115172 0.567585
-0.080125 0.061719 0.575227
0.159276 -0.029925 0.356958
-0.079881 -0.096814 0.427886
-0.084408 0.072098 0.586988
-0.235434 -0.009986 0.801563
-0.164500 -0.033901 0.922127
-0.064306 0.042535 0.693485
0.130016 -0.043634 0.926098
0.098485 0.028235 0.381574
0.035140 0.056642 0.673075
-0.073989 -0.093996 0.726133
0.300674 -0.095637 0.805387
0.137511 -0.018355 0.578639
0.053322 -0.097083 0.885741
-0.033529 -0.114158 0.508688
-0.084345 -0.008818 0.793810
-0.025093 0.054289 0.561243
-0.063312 -0.088793 0.764211
-0.136995 -0.003514 0.589045
-0.275585 -0.046029 0.785361
0.077122 -0.075182 0.789706
-0.260747 -0.028636 0.849278
