ply
format ascii 1.0
element vertex 2048
property float x
property float y
property float z
end_header
60.404800 0.687601 146.321182
-14.002362 1.169335 39.368309
-15.884864 -4.862840 141.353683
15.886825 -8.800229 86.029678
1.744712 7.494261 85.322426
-7.059803 -2.926944 147.546097
16.254736 -3.278014 139.857758
12.781974 -1.130623 32.310772
5.612481 10.162030 85.035545
-38.279415 5.541672 145.815796
-10.066524 8.053353 100.755974
-60.282608 -0.011575 141.365280
12.132689 -13.802698 61.704227
-14.025928 -1.564744 52.686203
-76.670998 6.469747 139.832535
17.296429 3.500244 27.642975
48.189716 6.967535 148.075333
11.017729 -2.957307 125.255974
-6.821955 4.216049 85.745247
-78.182999 11.224967 142.287094
2.893468 -5.342387 45.743771
3.418736 5.791732 82.477966
4.988884 4.577362 118.295586
-2.855787 6.279527 149.905746
-9.179611 1.554271 73.581642
2.369380 3.623420 105.932854
-65.177551 3.640275 144.131561
5.483341 6.905264 139.854935
14.894619 -6.185621 98.024086
12.291069 -5.613355 103.872513
-9.107531 8.722431 25.025976
41.152664 0.045276 138.051193
-14.196535 6.635177 16.424366
-10.444873 5.175628 100.761787
8.287292 0.837339 148.515823
16.450550 -8.550761 90.488113
4.327631 -0.561334 58.547256
-16.810242 1.022447 66.096603
6.373375 -0.745664 63.703957
15.537655 -2.217312 79.892914
-2.479299 -0.658524 85.773079
-10.959297 -12.424707 125.977264
-8.258205 -11.942527 79.550331
13.451803 3.966014 67.604233
5.893575 -1.649773 25.731331
-29.665787 -1.962611 140.201202
9.780252 7.890204 27.437363
14.544970 -4.447612 61.884754
-0.432697 -11.108176 78.012604
-11.326486 -6.838524 35.860634
63.293499 -4.781812 137.867874
-21.594656 -1.445225 146.071655
-6.003622 2.666822 37.593670
-11.880877 2.118822 19.716160
-13.353990 -3.796101 70.282539
9.663953 -9.642602 137.612320
-14.612867 -0.923804 81.488083
-4.778094 -13.075335 131.419006
11.780822 -0.775518 62.758553
-51.302708 3.712709 142.628128
6.054766 9.891726 95.343437
14.983271 -7.128352 56.706264
4.325531 -10.669789 140.685898
-58.439026 -7.687903 144.195114
11.987991 -5.266548 115.051140
-0.197036 -2.377789 77.382149
7.137370 -6.051529 43.887611
-51.501415 1.883571 134.743683
-3.823979 -6.967620 30.666641
-12.824174 -2.602603 109.393639
8.407356 5.213318 151.576004
-7.458564 -13.325369 112.807053
-52.249004 8.032186 144.219833
-13.075264 7.200024 147.730148
1.149068 -5.135312 74.233192
-0.863100 10.895414 143.643707
-53.219021 0.557871 146.754639
65.189339 7.347466 141.956909
-31.188841 6.920894 147.129135
-10.616581 5.700996 94.849960
9.629061 1.342946 118.762062
-2.697208 -0.466432 24.010632
-11.183705 2.947672 48.638683
5.556977 -8.762734 88.871002
18.766197 -0.329023 10.509232
15.455649 -7.114183 77.136116
-16.140377 -3.672817 144.217026
-3.549588 -10.814185 61.475128
-1.702054 -9.728563 71.685349
-4.453435 -8.068121 149.268463
-52.149261 -3.829253 140.991058
13.181880 9.020932 32.281448
16.794695 -9.157412 87.755653
7.759417 8.106948 42.673534
-11.729193 -10.086411 115.276566
-15.643208 -8.612659 10.039149
-8.462086 7.506720 83.830910
-10.806429 2.802517 39.235603
-5.582484 -19.882410 77.132080
0.052252 -12.304883 114.154762
-11.580475 -10.208524 132.125946
12.525987 2.197943 15.812173
13.057229 -2.503123 113.714813
-14.592497 -10.926472 71.896149
17.237650 1.752712 136.525040
-3.108655 -3.173966 82.460617
-11.453906 1.882521 37.014534
41.871746 -0.257153 136.898209
-14.419697 0.741303 115.604355
10.702365 -2.771184 115.855186
39.068501 2.897511 144.295944
-7.986260 2.536302 22.713928
-3.773534 -8.502218 59.065022
16.026424 3.112675 12.474347
-7.873790 -4.826362 26.559402
6.963652 4.277553 16.620863
-15.254757 0.136479 42.647160
-4.504726 3.818304 42.268379
-52.401726 3.418261 140.382965
-9.918216 4.959913 40.268887
-1.273872 2.899590 85.166664
35.247143 -1.454712 136.578918
1.726681 -14.256491 94.733040
6.157674 -14.222154 106.065460
8.187323 0.186275 15.826688
-67.663582 4.004227 141.432312
8.341736 2.459627 148.930328
-1.000393 6.858417 107.443245
-2.987904 -6.777609 145.698349
-10.944791 -8.232208 64.925247
-8.928118 -10.810419 118.307869
0.053628 -1.556471 46.966957
7.658498 4.058883 81.143005
5.079700 8.314380 137.237259
13.557062 -5.981514 53.990364
11.778794 3.363646 132.050156
18.747950 -0.348018 33.053562
13.239629 -0.017517 63.101273
-14.038895 0.424964 36.164299
-0.408227 3.537919 112.927124
13.034966 14.243641 132.136337
10.910967 -3.981040 116.839760
-5.971219 -15.766892 131.224396
16.594776 1.030206 46.740200
5.793862 6.271187 87.010773
59.977951 2.521411 136.845093
9.823689 -10.926432 138.827042
-16.271751 7.002402 6.573313
-20.994337 6.197306 139.126175
-6.233051 -13.191898 67.485001
10.745358 -15.986259 64.445633
17.610312 -2.826679 12.823029
75.031075 3.194943 140.156021
-1.898287 10.920736 148.576447
-15.232794 -0.923198 125.443108
6.098891 -8.829004 144.378250
14.550869 -6.825810 143.169266
2.239547 -9.174152 76.462288
9.040773 -1.632565 149.312805
-15.565585 5.396263 44.220501
3.564784 3.035597 124.133171
6.652709 -9.321670 133.482071
69.731987 -1.641740 136.150894
16.109087 -5.463755 144.187759
66.762787 2.128185 134.333710
-39.921131 -0.326005 143.390472
9.193268 3.580537 63.481762
-10.277765 5.049709 29.388527
-2.194043 3.348635 89.805382
13.972264 -10.347378 89.013885
48.290638 -3.522824 137.359146
12.404444 -5.003865 133.863892
-28.850155 -1.212963 147.384857
-74.187454 3.062482 136.407333
-8.316688 -7.127846 144.725220
10.166362 5.733040 81.657677
-18.429443 -2.556891 56.744564
-10.512951 -8.828661 51.423328
28.511017 6.503656 135.293701
-4.367987 -12.242158 108.601883
13.240224 -7.212635 89.722878
-15.156152 2.846460 62.555832
19.577963 7.102674 140.107391
21.049618 -2.982372 144.059631
-69.740173 -6.395785 141.048996
-17.569185 -3.608890 116.934875
66.719612 -8.109815 144.921112
-21.988834 -1.281556 19.338768
8.356147 -2.512735 29.422756
6.618698 0.474722 70.794785
41.633583 -0.672364 138.614624
-14.496063 -9.458277 141.480911
13.897314 -4.984943 106.799728
-4.342957 -6.985226 143.819046
16.743757 5.475781 46.214397
-11.234348 8.477715 90.871521
-11.897592 -7.828709 53.945087
5.283597 5.382565 144.326538
21.054237 0.466689 136.499603
54.662659 4.394410 142.829437
9.043355 -8.275692 132.999054
1.916686 1.093434 72.304039
-45.871162 3.497084 134.877533
-5.527829 -13.056099 76.279533
70.364159 6.718366 143.879730
14.250961 -1.246311 129.506973
-5.574089 -3.213437 149.198273
17.085548 4.037705 11.423021
8.233761 -4.299122 44.271477
-7.207129 -14.912662 126.310295
-63.284504 -5.343081 139.022293
-12.683473 8.665806 31.008345
3.670596 -1.135965 80.644585
-21.766590 2.949366 145.516815
-6.963130 -11.445662 111.519142
-38.311550 3.054833 135.537979
2.499098 1.676176 45.461163
49.912292 1.883247 145.424561
-11.476303 -0.230701 112.758766
3.507553 1.620312 79.554237
-8.418664 -8.639672 57.535358
-13.061891 6.645167 20.396883
-14.153658 -5.181245 22.206932
9.519001 4.922398 74.398308
-0.869948 -9.290120 74.720306
4.020492 5.870678 108.298714
-12.317226 -12.430382 89.181740
-3.785574 3.083740 148.379150
-41.671185 0.338917 144.619949
0.076711 -10.177154 95.642929
-10.664539 -13.644518 62.555824
8.284507 -3.442295 32.937984
-7.332780 -3.570456 22.930082
0.153833 -4.286139 46.007877
-17.746365 5.245083 145.455460
4.956404 2.871439 66.000237
-1.456010 -7.536518 52.623341
14.095563 -1.951853 96.311340
-14.403045 -3.636857 133.819275
-43.697823 9.094812 142.048599
-74.288795 3.232179 143.465286
-1.586496 1.865487 83.042976
-12.752528 6.544189 30.098549
10.207443 -9.936981 88.459267
9.624807 -15.072361 86.676895
-18.082415 4.701905 146.064056
7.016562 4.488887 79.027489
-19.839245 6.663516 144.860626
-3.119822 4.658740 108.716934
-46.091698 -2.647103 138.787888
-11.136309 -9.813991 48.205265
-9.012978 -8.452642 45.104904
11.323503 -9.394154 120.034691
0.125587 -9.673306 98.250198
5.465700 0.245074 68.059517
-38.286243 5.325461 144.126053
-10.152154 -8.839168 53.962563
6.725186 7.710279 103.112709
3.480295 6.025493 107.055153
-43.931942 2.898404 140.863602
16.204533 3.054461 16.801434
67.094795 5.224620 142.153412
9.905379 -15.176375 104.007385
14.752508 -7.904950 80.392456
7.775295 0.507441 37.426628
-18.767519 5.885268 135.576538
-12.902358 -5.198163 33.367203
-12.576740 2.254856 146.564194
-15.414490 4.161452 42.055046
2.091924 3.734470 87.495773
11.629469 12.578722 147.160873
3.131778 4.503126 113.878517
53.114391 0.370807 136.328354
6.268710 -12.718953 124.533684
12.570171 9.468155 82.911194
6.389914 8.541031 36.434105
35.788193 2.920370 139.170746
5.044727 -14.982009 83.828392
-10.493624 10.404305 44.650043
-11.680630 4.955539 116.831947
-15.215593 -7.195970 65.385902
-7.971546 -1.425012 13.483252
5.395042 2.438867 38.611774
7.540316 3.828554 65.673225
-51.075703 6.244659 141.964050
-11.344021 -2.453899 98.252609
65.977295 4.584746 142.940720
-9.025527 7.199423 19.083630
-6.102032 -9.685868 138.480560
14.720466 -10.503786 78.233421
-16.010855 -3.157431 53.211140
-42.188828 -1.427794 139.813995
5.716104 -11.073507 125.279762
-3.383528 9.151480 143.426239
4.077848 -13.559533 127.579102
4.517231 4.112906 60.204575
13.632189 -11.431600 74.979485
-1.309166 -7.791500 69.667137
-15.365655 2.920864 136.229263
14.958302 -1.351454 27.741150
-11.434838 6.122956 140.446823
-17.749538 -7.231547 77.036873
-8.533953 -7.799803 25.409552
-41.698994 -4.024379 140.774124
9.775378 12.498575 134.803070
12.111484 2.822277 88.142387
25.025711 2.601633 145.394089
-72.258041 -1.916647 136.712601
10.439857 2.851315 19.316458
48.703533 7.127446 143.106812
4.907733 6.162941 26.547123
-22.691603 2.519625 144.703171
10.246101 0.236949 116.522591
6.822945 -15.794768 125.718887
-16.979300 1.208513 119.717697
2.713531 -11.379535 80.868126
2.601292 -11.140794 139.663605
0.281311 -4.084690 81.100967
-9.869599 4.420404 26.788269
1.533408 -9.655773 122.884178
29.363035 2.912536 143.636322
-45.168922 -1.337984 139.789673
-14.457284 -4.454354 42.187714
9.743900 -11.876915 69.452309
-67.142975 5.202300 143.542450
-6.663127 1.243004 122.931091
10.468037 -10.221603 96.334106
13.355414 -1.373320 76.225357
-21.630665 2.967396 144.572556
-13.867579 -1.423725 58.057915
14.645093 3.129430 106.894791
14.255068 -10.185396 78.819099
1.176364 -4.077523 71.143852
10.492354 -7.925889 121.563744
-45.313274 2.015758 145.373703
-12.091509 -11.762403 59.289299
-46.782646 6.039827 141.540527
32.272732 10.621734 137.544846
-6.615714 -7.970417 100.643204
17.187418 4.727357 136.391815
-2.047382 1.089287 64.268173
-23.732649 8.078357 134.750504
-11.673735 4.477045 53.506992
-12.705883 -9.303993 47.520142
-6.635798 -7.021625 56.113457
12.491885 0.625947 54.102238
14.666830 -7.571802 65.113930
9.278990 7.087273 134.055496
2.169130 3.095841 44.444553
18.870480 6.214621 17.038277
-2.276234 -2.945502 47.594143
-21.705147 3.223991 149.620651
23.390633 -0.851067 144.023895
9.235361 4.504523 33.314251
-12.622500 -6.695276 51.691811
-5.568100 -5.299011 48.727470
-11.878391 -8.662593 116.567368
9.974190 -1.946599 36.072369
-14.930469 -10.822067 75.432442
4.601329 2.524653 21.862978
-19.179817 2.699102 9.834074
7.817325 -9.810941 78.084427
-2.853786 2.263858 49.672112
6.784295 -7.836555 112.072693
2.599785 -12.946232 141.898163
-0.074748 -3.101365 74.163635
-5.720181 6.125559 63.836975
-48.268196 9.158215 145.429276
-14.503026 -6.540435 82.448715
-3.915123 -11.803347 116.178223
-10.567280 1.695333 101.544533
5.115337 -12.234700 78.915527
-13.240280 -4.257019 132.145782
-42.539108 -3.109753 144.602646
-0.685017 -7.461103 79.451157
13.116012 -3.165413 24.865911
11.526958 -8.424808 18.413061
5.594522 2.277208 60.552616
-16.202799 -1.595497 73.916695
4.409650 8.159774 40.957943
27.386265 -0.848784 144.181335
-10.233764 1.048153 121.928993
6.971538 0.413784 19.992426
15.516510 -8.304139 142.293808
17.322311 -4.441222 91.729958
-12.117432 -3.656736 106.428429
-3.803766 10.952906 145.382126
-6.686504 8.178202 96.113434
0.397168 -12.609288 94.915886
-1.967622 -11.919110 100.294502
-14.150646 -4.150029 42.495136
9.673901 -11.705702 47.911339
-65.467125 -1.299782 144.243729
-15.471327 8.587320 139.778030
14.453866 4.644628 30.033197
-11.082086 -0.986115 108.366051
-63.825371 -2.709114 149.018051
40.987358 1.340387 136.018112
-10.786649 0.253608 116.705330
15.188947 -9.399363 32.726810
-2.712279 9.081223 105.891464
-3.812563 -1.773687 45.906250
-38.452724 6.426739 135.092361
-7.523557 4.619291 20.183723
15.907668 -5.491552 45.362843
-2.226275 4.783656 107.485367
-7.224563 6.755036 26.869358
0.538818 10.637959 120.228119
16.465504 -3.582886 71.181313
64.133423 4.432083 141.786743
-50.931770 2.681911 135.669250
-13.349058 -1.464101 75.196465
-8.160728 2.567755 74.336029
-8.945749 3.626790 9.372181
8.952881 -10.245591 107.336182
2.474747 8.970722 118.232536
-3.110175 9.300051 117.319214
12.885904 -10.047872 72.316238
33.406338 8.345931 142.763901
-14.374701 -1.499836 129.896774
69.986404 -1.806239 141.307907
9.176658 8.676360 142.043854
13.614933 0.215056 121.469360
-9.895845 3.318218 104.830833
-64.500275 0.018157 140.018997
-2.782069 8.608891 125.964882
-1.699568 -7.949091 65.960526
-10.662058 -3.625334 8.733477
13.882094 3.052165 17.431408
14.851272 -4.027986 38.092728
14.884216 -6.127587 10.794569
13.686727 -0.437375 46.622841
2.457545 1.803936 74.919151
-15.685005 -1.420395 23.635096
13.652772 6.609943 43.872684
-17.550749 8.109497 141.049408
46.184155 -1.254181 139.270020
-10.520920 -5.048585 51.356724
0.714272 8.148212 124.792053
20.197662 7.052832 143.354752
-1.727650 0.742709 62.007717
-67.040627 2.108820 141.324112
-6.033435 6.875440 76.302910
14.805393 4.487278 126.394775
-14.201138 0.444286 10.170606
-0.445073 -7.181748 71.205528
0.834399 -7.625354 61.790855
35.697319 -0.899323 142.729614
-14.578708 4.934323 97.903358
14.504016 -8.489218 74.221069
55.118820 7.033988 135.474380
-31.329311 -1.298580 139.814255
72.887306 -4.964420 144.080811
2.446096 11.572458 100.679352
-41.204643 7.548839 138.054276
-5.843015 9.066689 134.803268
-57.790863 -4.164526 144.927673
-9.449402 5.709139 37.354927
5.083889 -5.890826 51.169403
11.801791 -11.792689 67.662407
10.530847 -1.414190 107.677238
-10.131812 6.684719 125.386475
11.247984 -6.924212 128.589172
-18.800320 1.643845 139.716812
-9.794165 3.493798 60.363747
7.344918 3.545717 76.214554
-14.589736 -6.473631 94.689751
29.369953 1.920943 142.326004
-52.006824 0.646268 134.687210
14.403753 -1.589714 123.283043
15.175083 -4.178689 108.298134
-73.557579 -3.798815 141.234451
-14.529975 -4.033934 49.077141
15.050307 -8.488248 87.863602
6.733291 0.800050 148.170746
-42.228989 5.694973 138.031067
1.979240 0.957122 65.732506
-9.832304 -13.129925 125.692261
-12.951096 -0.425852 80.523834
-57.291225 -1.735935 140.594864
-1.401516 -6.483535 48.628418
16.271732 -7.562888 27.816559
-4.406318 -9.053280 88.090096
-49.840691 6.715795 145.628952
-7.893888 6.765410 102.388672
-2.486087 3.220102 37.857204
-59.212181 -0.776960 142.241882
3.448134 -17.042074 127.866676
55.912914 4.065613 145.224365
18.006117 -0.321210 145.411819
14.306511 -2.452255 96.586212
35.759506 -1.789589 143.585190
-51.773964 4.044578 137.831009
5.099895 -7.888122 62.164356
11.549346 3.080724 67.696907
6.994395 5.827979 50.397381
11.671078 1.249790 112.759102
-37.862736 -2.309432 141.351242
-6.470912 -8.004170 45.870628
-69.865227 -6.545839 144.440857
13.210258 -5.552103 69.728188
11.271782 2.641037 71.507042
53.103737 4.408721 138.769196
10.939711 -8.196053 24.705437
6.453683 4.405877 124.865875
9.983122 -9.160397 145.038391
11.295550 -8.112540 136.981903
16.001282 -10.392911 53.857498
-16.491669 5.784117 137.651154
-13.778296 7.652946 88.960983
-11.073428 -0.895582 94.967178
-11.350030 -11.853136 73.468376
-30.688328 -2.944998 136.124557
-39.153713 -1.513107 138.312103
-17.818907 -3.880304 46.428505
19.496357 -2.197820 102.406738
14.432030 -7.559174 68.425598
4.521888 3.787766 152.288940
36.072941 3.245392 133.404327
6.851539 -13.735080 89.543640
16.220142 -5.701389 71.397369
-14.739603 -5.449280 32.116463
2.270749 1.284070 67.161186
8.546120 5.470334 66.328667
0.294628 9.365212 87.386047
-25.495007 2.539389 147.858887
10.459757 3.756280 67.891472
-9.732785 -11.493063 61.101734
32.971924 7.131322 139.431427
16.814987 -5.847972 62.021164
0.278534 -7.100119 87.197006
-3.605387 -12.034898 135.551285
-16.165245 -1.963982 95.492790
3.020127 -14.981050 102.954651
14.854353 -1.698926 34.280815
-0.377957 -0.521619 84.340782
-3.933303 6.146716 152.869476
-4.085194 5.416357 88.734810
-13.326231 6.193926 31.387257
65.777077 2.338432 142.431686
-0.424260 -18.292749 115.306526
12.144363 -13.759818 83.690788
8.474201 -10.482571 118.937775
69.370506 0.058763 145.886154
5.630814 6.211919 46.346523
13.518059 4.735111 125.690697
18.487871 1.135920 79.578484
6.793075 -2.758728 23.196766
17.103336 3.330959 65.044769
7.394756 -15.166777 72.788567
18.478592 9.216027 142.666275
-14.309827 0.663257 12.210192
16.616602 -1.410640 28.680231
-41.864590 -3.193111 143.152634
9.252226 -8.759511 124.686607
9.536737 1.189548 89.004837
-51.230541 9.673462 141.117386
6.810822 -10.024699 46.924862
12.968662 -11.756280 92.968559
10.170101 0.670417 28.015186
-36.594349 4.896998 145.639191
9.902138 -11.688963 88.310181
5.871541 2.794707 150.509064
1.521062 1.930594 58.356758
-5.121290 2.600110 27.896358
-59.840488 1.486526 141.157516
-5.263381 -14.377254 72.590935
-3.240655 2.699484 83.862030
29.618025 5.921899 137.071777
-37.210995 0.476994 144.483612
-12.262115 -4.499653 46.385117
-46.369781 5.252844 138.632324
-9.664500 -6.524609 29.352962
-2.828216 9.706587 127.775101
13.107863 -9.612497 84.878372
6.690272 -5.127181 123.436462
14.803735 -8.356649 63.147587
-9.419966 1.799571 75.149117
-70.949852 3.828605 142.247223
-12.109293 -5.419483 41.288048
-11.488822 -7.066168 55.861195
42.438923 6.128861 144.536316
-16.081589 3.048789 15.485086
-6.411637 -6.618014 38.647739
3.232726 -18.729774 122.132652
13.052790 -5.788943 51.000916
17.096972 -0.931489 90.545601
-9.506495 0.597641 45.062511
31.529352 2.311784 137.897049
11.158657 2.230286 56.574730
-6.281538 1.008716 42.926346
0.228303 -17.881374 116.772705
-29.918468 4.030900 143.593185
13.385842 4.260847 19.540155
5.433982 -4.638977 30.286371
-6.752584 1.470085 148.053253
-11.388927 8.305582 100.035156
-2.988741 -8.601620 57.567162
7.395350 6.306956 91.777763
-1.324065 -4.747268 78.579369
-2.378339 -1.935706 84.603203
-11.663947 -3.450913 125.726143
-76.150154 -2.348182 142.669983
-17.280781 -10.769922 89.510071
-0.918219 7.305991 147.362061
-40.193848 5.038570 141.767609
9.277300 -0.392906 135.159256
-14.683233 -6.615647 135.412445
36.763947 5.954093 148.408508
4.827098 -14.358044 125.855034
-39.611294 3.930308 140.806046
53.058147 5.199677 138.544449
18.118792 -4.959315 140.992508
-27.965727 4.591944 138.348389
-59.365017 1.251860 140.963425
-14.399812 3.450194 24.979828
-2.894099 -3.669181 148.193130
11.653967 6.182289 95.312279
-14.852407 -1.093375 77.976570
7.516345 -14.343528 121.262100
-32.675182 -0.126558 138.458710
12.071690 -5.387785 111.111565
56.903740 1.037320 139.486923
9.714935 3.488315 76.121346
36.087627 5.189028 137.882339
-16.785265 -0.707611 27.910391
9.668759 3.217479 124.903076
-12.429714 -1.135020 117.078041
-15.064624 -1.065880 76.805992
9.625351 -9.750077 99.539909
12.860429 3.727790 85.566109
9.221250 -6.153800 38.062317
22.539753 -12.127391 75.691841
-13.440277 -4.666216 131.511795
-13.159976 -7.212941 64.370773
-11.323253 -8.765003 95.751030
-17.288139 -2.966967 131.471832
-17.331047 0.206728 27.066694
49.678120 -2.662205 141.385361
2.765325 11.593257 133.709351
9.461470 7.831146 118.280052
15.503515 -11.243490 89.006485
-16.730654 -9.449976 54.162167
13.754650 -4.330464 146.696014
5.135992 -3.646354 46.522221
-2.002201 7.214771 97.890984
-0.747703 -14.645411 126.765495
6.290180 5.750450 148.568100
11.118506 -3.448939 106.388123
-15.585755 -6.642734 79.965057
-9.569261 6.269504 123.701546
-35.061207 3.760557 142.963470
-58.077568 -4.456647 142.600037
9.654072 -4.903820 36.704380
-14.549459 -6.888691 140.885315
8.178751 8.614530 20.062471
-5.476307 3.718684 107.213943
54.343281 2.308100 148.928452
18.064621 1.229149 144.235367
-37.237354 2.501622 145.817963
-3.861071 -8.427948 67.013268
-4.418274 -3.400217 60.608452
4.767340 2.983321 73.125008
-9.178489 -1.846508 109.813446
9.862267 -6.705489 102.488884
-26.573648 0.454825 144.203537
7.151363 -0.120135 34.374386
5.015889 -11.043331 90.497742
-27.699493 4.022758 136.740067
16.259134 -0.014337 136.877899
30.974876 -0.089830 136.955688
16.524071 6.921026 135.533539
-11.801503 3.288023 59.422516
-11.728012 -11.245635 122.456223
-7.555755 12.470601 133.247986
-14.298987 2.454389 74.614037
2.003082 -4.222316 59.290154
-12.286077 -1.302787 25.650139
45.617687 -0.395703 137.554413
8.673640 -11.416513 84.473534
5.423728 -1.211308 40.130768
4.071970 -10.564524 67.273994
43.781479 11.470286 136.929153
-12.468754 -11.966905 84.209435
-4.434657 -10.302860 95.859978
8.326301 -15.518733 64.539268
5.567502 1.518610 28.250156
40.532600 -1.300917 141.879440
11.738936 -13.786674 74.036140
9.099619 -0.401601 24.322309
46.964317 -0.951968 144.480408
12.913162 -1.120182 131.140533
15.116806 4.001265 136.092026
31.597887 3.836507 142.398422
-41.288548 2.766529 139.010437
-15.816257 -0.089810 81.935837
-43.727425 1.199243 145.346756
8.930147 10.159103 93.999458
15.373923 -10.008919 52.844948
-6.524139 -11.020201 66.625481
-12.541967 -5.866043 116.111290
-57.553368 4.438854 141.026978
-33.637688 -1.198726 145.532211
13.232527 2.738492 50.617561
-25.393919 8.102920 137.985580
48.802055 1.347622 135.390884
11.793645 5.175542 35.001957
-5.425319 -8.196316 144.492584
-14.767903 7.520908 138.721725
13.081481 0.530346 87.259727
4.110786 3.624988 112.054337
1.105440 0.923024 117.300682
-9.039240 9.659020 101.190529
8.375928 -0.813927 20.298742
-6.332547 -10.560160 46.135403
-9.245610 10.455757 100.169075
-11.250281 -11.117527 82.080353
4.854970 -3.040822 57.336815
-8.101102 -7.305788 130.793213
8.356086 -13.971407 87.216072
-8.763350 -1.891797 145.433701
-5.750446 -13.551161 114.376862
-18.297348 -1.827598 39.503769
11.310825 6.792666 69.110725
-12.509023 2.031315 126.794037
-14.040599 -5.312043 73.814362
35.037987 7.293403 145.989075
-0.764165 -1.559677 73.609482
34.587555 7.118320 134.121124
-31.155848 4.265832 146.215286
28.924042 -2.450549 144.861816
60.301521 -2.113063 138.273666
1.663159 -14.455886 132.473221
-5.322588 -4.467843 123.814430
-12.301499 2.903177 98.467781
-0.833655 0.532952 81.732933
41.328938 -0.091395 146.690811
32.270378 4.786978 136.076736
-9.740922 -9.165320 133.758514
5.838747 -4.138474 39.786545
0.310456 7.963347 142.100037
1.951917 -5.548996 60.589993
14.269672 1.388618 116.309608
-1.559422 -12.753888 65.824532
8.405863 2.097142 117.072647
-15.442603 3.443245 28.378874
12.476974 -4.310870 24.746958
-3.821917 -3.371427 54.269180
6.350642 -10.408807 113.311996
-12.926735 9.111957 88.432335
-12.048453 2.802512 41.088455
-0.018273 10.575604 98.325874
-7.010707 8.456203 82.304199
-15.080328 9.851480 19.883499
-13.476877 -1.822105 44.756550
-24.377335 3.982405 145.616943
-9.194674 -7.845998 11.814807
-8.376003 1.880160 31.730703
1.248739 -4.012526 68.438454
-11.792936 -12.819211 69.655960
3.114427 3.572828 53.481030
9.867867 -9.337911 114.415825
41.979298 -0.739945 148.729691
15.381817 -0.514941 83.547058
-5.667250 6.754353 80.155258
-15.466904 6.142847 127.905762
54.379768 -1.148951 143.194641
23.581715 -2.292690 141.055069
-8.056095 10.864266 128.234085
-0.595047 -8.203299 73.664841
56.119118 -4.674800 146.086258
2.874962 0.230419 46.730991
3.486150 0.421493 57.921867
19.138393 -4.347747 29.785374
16.419861 -2.806132 130.064194
-2.632096 -14.195888 132.151993
-10.884512 -13.772659 80.232002
8.398293 11.596338 92.481918
4.575564 0.745302 81.882324
-5.783224 -12.394113 81.746689
35.590973 -6.877250 138.036301
-6.647819 -2.457656 44.395641
-4.530736 -14.632580 56.266289
13.256338 3.449799 15.188952
-9.027846 -11.530157 91.763611
-0.365771 2.494548 115.467316
-7.099536 -5.012177 5.003075
-42.208366 2.836415 135.485886
-30.922306 0.960952 144.347122
-5.991735 8.222597 131.089340
2.888210 -15.438625 120.676132
4.766510 11.251892 91.442604
-18.630980 -8.413932 87.488792
56.182854 -1.505774 136.347046
-12.788696 -11.265590 103.117012
5.774700 2.854226 54.948242
-44.300884 -2.521502 140.131226
-12.132098 4.550283 8.313586
3.645073 3.696093 64.496422
9.679348 0.619485 74.779266
-24.800953 -0.578605 139.454895
18.211721 -4.258857 13.223941
-7.004327 -4.915462 51.118080
17.006092 0.761097 18.081831
5.724869 -13.268211 86.076904
44.222313 1.015804 142.509232
-13.268739 2.298591 84.598915
-8.435032 -8.244366 110.534904
7.015545 -2.868458 22.902870
-11.743188 -6.315267 118.068390
-15.732028 -6.164044 42.789234
-10.596031 -10.779434 129.054413
-77.876228 6.945876 139.761978
37.160545 3.150786 137.367355
-45.621204 0.174781 140.369965
-52.946625 3.502201 136.344452
-0.512484 -9.750301 89.213890
-13.226119 3.452189 126.096298
8.284620 8.651623 92.083664
21.981787 4.220944 143.676544
9.772534 6.827317 98.395287
-1.752184 13.177060 134.908478
15.469584 1.368919 87.555573
-14.917489 5.835825 145.075027
-16.008293 1.711372 101.355751
-17.459198 2.154096 22.393019
-13.473350 -1.150039 106.062096
-4.855924 2.490618 36.945946
-3.542993 -10.253512 118.093002
-1.588234 9.515910 100.311943
2.583536 -7.393027 56.020782
-8.995900 4.264636 16.593643
1.497799 -17.388924 120.995140
-37.153160 -3.611312 149.642654
5.131795 -4.639945 37.591045
-3.428138 -2.884728 61.337734
-0.504350 9.467932 143.931381
12.923381 -4.639707 146.141052
10.649131 -15.370816 82.897461
10.552670 -6.432626 53.127411
3.931992 5.538315 80.310616
16.300449 2.417572 87.209671
17.758472 6.906941 24.327608
-4.759878 -5.959113 147.813736
-4.406520 1.593634 84.600220
16.343689 -5.934640 56.996838
-16.517618 -10.379242 50.827274
-10.485466 -4.682835 152.764877
-10.167663 0.280214 62.849945
-4.785496 -11.368897 125.956123
-24.605223 -1.005678 142.972260
7.518476 3.472590 127.397751
2.025203 -10.030438 108.799332
-7.637966 4.348051 20.272890
-3.027794 -8.634111 86.103302
-8.677728 -10.606833 69.777985
7.952088 -6.522910 40.558979
11.602958 2.175915 98.088776
-2.504659 6.965702 111.298660
-68.981369 -0.900484 142.483475
11.179524 2.481735 114.258232
7.398370 8.199748 123.442848
-54.110588 0.805236 136.425827
12.821650 -12.087135 86.807716
-47.021763 -1.148494 140.092148
-14.330895 -5.579048 131.269531
6.080528 6.394665 42.189648
14.633563 -8.163194 24.137222
-12.798637 -9.998744 138.848846
11.989407 7.207578 139.405975
-14.276974 7.137598 139.691864
-11.325774 -11.002225 77.018341
12.485215 2.117910 62.059254
5.976191 9.189776 91.095757
-19.470047 -0.310145 48.712009
-4.438090 -1.308473 31.224533
-16.772039 -6.106616 69.337227
-6.399139 2.241744 78.640015
-14.104782 -8.467282 60.254608
-13.490541 2.238961 57.457012
-6.079984 2.395613 60.329243
13.163861 -0.114876 144.826370
-13.892241 -2.477110 24.320831
-11.840383 5.538079 112.766869
12.292791 -8.374485 118.051300
14.076231 -15.998304 97.576172
-15.228846 -8.580307 140.189011
-17.954700 -8.134941 57.309677
8.894927 1.393297 11.758506
-9.236991 -2.845328 115.186127
18.096107 -5.917982 48.467007
2.995501 -6.311467 70.376190
-25.984503 10.311298 138.208115
-4.322491 10.496443 78.839096
-11.046348 0.611948 100.422363
-4.382515 3.962897 84.900291
-0.385781 -7.332847 79.213608
-4.141960 2.669781 144.072815
-2.172319 -2.325599 34.845402
-3.674060 -13.292612 79.875839
12.032239 5.289160 82.992271
-13.004564 7.253808 29.918684
9.547452 -1.058548 19.056479
3.085428 -16.358128 123.838913
-1.066580 3.299954 117.426163
-9.737733 -10.203874 54.972401
-1.422898 -6.713445 82.803055
-65.955269 3.784612 147.177963
8.466064 -15.374191 117.242439
-9.573528 -10.323448 128.095551
-13.587369 -0.493013 119.997780
4.938413 -1.340938 19.250141
-13.555738 -10.870593 60.861103
-14.298995 1.531930 36.050785
5.360545 -11.365715 107.824646
-6.580215 -12.032105 91.003471
9.541833 -7.245456 131.687424
3.512555 -16.003973 120.900475
5.243591 1.365241 58.652172
0.833859 7.061760 130.709534
-11.305221 4.750061 19.585484
7.175213 -2.930297 37.305069
-18.200270 -2.540889 17.999363
-6.379951 -17.037806 119.110794
-5.407461 10.741275 131.090073
-9.576519 -11.134229 88.075966
6.225929 5.099110 52.888523
3.968572 0.549381 78.072777
-4.004478 -0.020980 151.437866
0.154722 5.891473 84.837128
-70.087448 -1.437168 142.682922
16.337326 -5.263396 75.990074
-4.406996 -3.980230 25.612028
7.187078 8.619915 122.156647
19.018965 -2.394635 26.043802
-5.830392 3.036626 81.612289
-0.340730 -1.859141 70.230888
-36.438335 -0.540814 137.703430
-12.487190 5.304733 80.539337
-60.113224 6.575704 137.813583
-7.314863 5.185460 127.731323
17.451651 -2.039272 87.754036
-14.675754 -6.365859 119.537682
9.415247 6.596942 134.569305
12.561761 10.107051 39.525555
10.409246 0.614666 72.445724
-25.734827 2.853647 135.146698
-6.052215 2.926615 112.132812
-76.097038 1.692334 139.507095
-1.690167 -2.894839 43.064194
7.128946 6.398447 129.400375
13.238480 -3.783425 58.532654
5.543951 3.297052 61.022400
-7.402514 -1.441892 38.769344
-20.579411 1.249141 143.883057
-14.197908 -3.120992 140.159195
-67.357048 5.375889 138.367889
-15.265210 -9.150745 84.176109
-6.892729 2.071096 78.124794
8.754354 0.524761 112.570122
-63.588673 -1.924968 140.913223
-4.560382 -18.478598 124.299149
5.189770 10.478731 94.617920
2.657828 -3.566947 82.472160
-42.250481 12.600327 138.883224
-11.441781 10.505291 30.631386
4.315982 -8.530135 82.998230
11.701776 2.321691 131.169296
-8.111349 5.409037 128.523804
-7.937130 1.031311 117.260857
-7.472195 4.816858 109.686729
-29.179190 -1.270654 141.155685
-18.809322 -4.312048 141.139679
-59.924385 7.015811 140.244492
-6.702699 1.575386 47.824432
5.924001 -10.358837 59.904812
-7.574134 -15.650055 107.147781
-13.376015 2.901725 19.313950
36.118481 -3.794575 143.525345
13.096653 0.901589 67.836792
11.185525 8.982932 88.102425
-35.962498 -3.822266 143.402908
-1.855793 -4.725477 76.083885
-21.225861 4.421131 145.548431
6.161686 -10.851576 85.338425
-12.098839 5.359117 24.042822
13.136141 -0.820273 7.583140
-15.390457 5.268179 36.395809
-17.632034 -9.373432 83.244835
-14.532454 -0.662145 48.439331
4.396269 10.452294 101.393372
8.097135 -5.372424 144.914124
15.244043 4.099262 30.569237
11.039934 -12.781956 68.648117
6.172153 9.143987 94.564392
15.625555 -7.234778 138.782669
10.262821 1.236586 52.426044
11.241958 -11.772753 90.721542
-1.807069 2.182866 67.337830
18.071857 -2.388920 63.418392
0.934603 7.878407 150.615952
-37.437202 3.273717 142.383377
2.362067 -6.214748 62.278500
-55.973888 0.095913 146.045959
-11.584240 -9.588914 77.777893
5.407503 2.031040 115.402084
20.952381 10.025891 140.139984
-1.827741 0.994264 36.864887
-13.402896 -7.397135 19.353775
7.025871 3.527183 54.802891
12.688751 3.849465 21.176640
10.439589 -6.020922 137.148590
-5.728601 -14.880755 136.249634
1.254631 -14.634768 121.681396
-18.921085 -0.928647 47.071655
11.705503 -13.197374 79.527122
5.148669 -2.621280 42.502575
-17.130125 3.141811 22.792055
-12.769796 -2.428942 80.070396
-57.593563 -1.702701 139.103317
9.022236 3.246835 57.683624
-63.137897 -7.218242 145.252258
9.217782 -6.078764 147.216599
2.455393 -7.071843 86.232201
14.350735 -1.356110 81.032806
-8.997174 -9.047856 96.963181
9.072151 7.714573 78.228264
-10.596447 -7.566665 132.485352
18.189583 6.785924 143.327835
6.296706 3.512888 145.886520
10.412999 2.390322 101.941162
-71.813538 3.193763 142.436508
-0.456929 7.417484 90.881950
10.851972 -6.278393 146.136459
46.166569 4.030869 146.169144
-5.584633 8.322294 141.440353
5.420291 9.527101 91.267685
14.785420 2.001470 82.931885
-39.668556 1.704337 143.618790
-40.647316 -0.053093 134.395401
5.762837 10.496552 93.829781
-7.069691 -15.824267 73.708305
2.214620 -4.811993 41.140026
-68.905243 1.773885 138.868851
-8.887238 12.150882 135.871506
15.028050 -1.433620 75.449287
-16.707581 -1.912985 38.285530
-11.829145 -7.797329 37.991360
13.633100 -11.747637 67.290070
-10.832111 3.032831 144.613800
10.235561 -8.064008 14.613081
5.065003 -8.119268 120.035667
14.939479 3.294684 146.426697
-20.591183 0.209534 13.958254
-43.736691 4.176783 134.395752
9.172262 -9.010496 102.087463
-54.890007 -5.302903 147.407486
-3.726634 6.302892 124.714844
-13.281727 3.516740 17.431042
-7.721612 -7.950237 141.925308
-10.975446 -6.333369 91.805161
5.938157 -8.167136 94.653374
13.697792 -2.194328 34.631569
-0.370145 -3.166850 66.366295
12.551021 0.772849 105.704468
-11.707092 6.658003 93.572777
-3.288252 9.119184 149.309860
-7.280827 7.469661 86.845016
63.859718 -4.314112 139.265106
-40.217045 3.662076 144.822540
0.636634 3.036285 150.581223
22.131310 -2.661656 138.532547
3.206874 -7.458150 65.918823
12.818569 -3.048964 118.358910
65.493813 -2.674169 142.803070
-11.351238 -8.994356 61.630024
10.799002 5.938635 30.725657
-8.124678 -4.732522 9.517755
51.901520 3.476499 137.602814
13.167985 3.371079 16.549276
-14.242428 4.685021 29.656002
4.991144 -7.625340 63.403648
-0.978253 -1.269697 83.032043
17.775208 2.689935 35.147976
-44.966320 0.121390 145.609375
5.228183 10.706712 144.887253
14.350453 9.550808 139.941559
5.748233 -7.033792 147.380432
-8.317861 -2.152802 17.158577
5.190715 -11.428217 115.759727
4.565955 0.585250 67.147133
45.446831 8.092804 146.044098
-8.942735 4.560791 60.530693
-14.340799 -0.140188 72.974983
-8.000034 -2.141738 117.746841
-7.617446 3.464364 7.648907
3.429548 -11.959950 137.727814
-7.803484 3.454965 74.526344
-8.289087 4.918378 47.982185
0.777607 11.198423 136.136063
6.047500 11.817240 119.791512
8.434067 -11.603517 118.676643
-12.758470 -7.393749 21.858871
-54.235649 4.232660 142.374283
-6.362147 -11.087048 137.175156
16.585396 -2.144383 113.986115
-8.935956 -10.259871 39.083717
1.656289 10.825171 83.804733
0.527811 -0.353674 73.144249
32.064976 -1.069153 139.889481
13.288239 6.660685 146.913254
-6.681254 10.376743 34.472363
14.239862 1.560067 18.875315
11.712261 -4.958477 32.875782
62.528625 1.734410 144.447983
3.223071 -16.123138 83.465714
15.916653 2.471975 128.755463
-34.000652 5.274129 138.101013
-30.164532 0.153210 136.319641
10.385223 10.221353 72.665787
-4.062900 5.953580 81.143082
7.435260 8.829505 139.979492
8.464323 -11.224523 91.935280
32.577560 1.623542 139.626236
-68.378853 4.418726 137.687607
6.926095 0.504866 25.317488
-40.083134 5.109139 143.660400
-25.892263 -5.167280 138.323059
-37.564701 -3.666193 133.058640
-11.964012 6.539805 144.132111
-7.792999 4.648312 77.904251
34.419796 3.341455 141.967316
13.341143 -3.715444 137.725708
13.257689 2.359564 50.597412
-12.776831 1.734349 45.483799
-3.308758 8.386807 128.831207
21.391237 6.194046 138.874893
11.677320 5.251478 82.646034
-7.778598 4.021422 7.509129
50.187401 -4.377120 145.933014
9.121261 2.810318 148.359970
-11.985839 5.634041 87.192017
-0.129875 3.171001 115.631371
1.319776 6.373857 113.129921
-9.243017 -2.071923 24.952822
-8.433907 3.992873 21.556314
-15.697984 0.417222 137.120972
-13.172825 8.043105 28.367802
-8.758364 -3.721868 55.801300
-10.070266 -2.167564 52.762386
-0.003313 -5.105135 85.398163
9.295534 -7.901502 135.184357
-16.827198 4.886271 43.471905
-0.842139 -13.691194 111.371826
76.950813 0.681883 139.905624
11.727382 -6.841565 120.817009
19.675743 -0.229732 144.578735
-10.083119 -0.208022 54.286858
-14.708138 -0.580414 22.290167
12.102895 -4.742865 135.600464
-7.263539 -10.734050 88.520798
-8.185684 -13.140167 89.269043
-11.773912 3.720607 104.655792
-5.807375 3.375653 148.219696
-13.335335 -7.686904 10.265753
-9.807824 -4.020874 138.404495
53.929165 0.540336 149.291672
-5.915257 4.541230 121.869186
-9.174431 1.316451 26.621939
12.041132 -8.797435 135.944016
13.006624 6.520627 35.218403
-7.938918 1.653177 70.444298
8.282162 6.071064 47.269653
16.235018 -6.465626 138.460464
-1.111713 -10.428587 78.348358
-10.057103 -1.574066 144.762848
13.218513 -7.348572 34.978161
2.670203 2.790328 112.209930
-5.334702 4.164327 80.234932
-5.761482 6.479112 142.364395
7.011556 -14.362772 113.720421
-1.906427 3.061900 80.630508
-16.938656 -1.448504 19.052620
28.519140 2.317398 137.370514
-27.358715 3.180111 136.472824
18.405392 -1.591552 97.747757
14.773394 11.448137 133.071030
9.252653 -12.314493 81.468193
-4.824847 4.702286 18.859190
-3.104295 3.101596 79.925415
8.844450 -11.561927 131.041748
2.918438 4.273263 61.835060
0.550665 -14.126932 132.890686
3.835419 6.616457 115.375893
8.248562 -10.246783 118.448166
-4.747128 5.476392 86.599442
12.854949 -3.450487 128.267609
3.206077 -13.731359 70.520119
6.487765 4.024534 10.656720
-8.640936 -11.901998 95.725746
0.770450 -14.029853 126.721275
10.951724 -1.699520 145.164246
-1.888730 13.088352 144.604584
-52.283424 9.316402 140.664413
-2.062192 -6.736315 70.690559
13.605026 -0.773710 8.877874
-16.716190 -2.845275 102.379997
-14.847881 5.171464 147.183548
-0.736446 -9.679487 143.164429
-6.012436 4.574166 116.810333
-8.611415 -3.542474 30.574741
-14.432076 -8.555676 54.500534
51.400146 6.693195 146.335678
18.067539 2.975308 26.354797
-74.166893 -2.506417 141.365982
-0.027169 -1.125572 76.923363
5.381017 2.199201 108.491249
49.215538 4.749671 142.022278
-3.979312 1.394357 64.778511
26.268074 1.737957 133.750946
15.539919 -4.131888 85.105324
10.973804 6.815005 15.766585
13.142557 5.865705 41.571873
-57.645668 1.805464 142.906418
4.729858 -4.747106 74.030258
-18.338680 -3.255572 37.924526
-31.306726 -5.229279 141.601944
1.869575 -1.024799 55.912956
63.916290 0.501393 143.819595
15.204246 0.193662 147.926346
-0.205629 -0.363468 73.939392
31.916960 1.754068 141.966248
-10.636139 -10.223719 141.181046
-13.330398 -6.027700 140.773422
-11.252066 6.428295 112.419128
-2.571945 0.274754 68.651443
5.819384 -5.218205 147.874512
11.820514 -1.051719 67.084137
-0.672359 9.303351 103.913361
-12.968223 -5.486817 88.409576
-77.260216 2.350906 143.217270
14.757508 4.041569 29.590912
-3.960073 6.835849 85.016434
-12.744404 6.782669 90.298759
-7.015175 4.043598 144.510437
-9.352159 -9.405308 121.682442
-5.586091 0.227057 35.728500
14.185752 0.708888 12.684902
8.041596 -8.141266 130.704865
-7.343001 -1.413546 68.076584
16.282118 -3.258494 12.379930
-2.528098 -9.027657 146.066803
-0.305966 6.807046 86.789101
-1.931892 1.951822 118.976173
-13.702491 -15.957232 58.315357
28.205774 1.194296 136.638214
-16.506907 1.940820 13.791968
-13.249112 -10.846820 58.666531
-7.111065 -2.609249 38.700378
-13.545403 -13.331154 67.002693
-60.667381 1.247614 142.035141
-66.534233 -4.309536 140.513321
-74.458298 -2.707429 137.356689
-13.142111 7.867528 35.577881
-6.029975 9.113981 142.433716
-2.914344 5.728927 84.351395
-12.833547 -4.855105 108.778648
11.119968 -2.869957 118.338837
-1.474037 -4.871007 71.561485
4.323829 8.653296 131.389954
-3.194566 -4.342681 58.110798
-3.309205 10.031627 107.086235
36.680290 1.941675 135.758331
1.973717 7.359996 99.721786
-61.218048 7.128376 144.422577
-11.990579 -8.667138 70.995407
-6.841400 0.469741 18.062958
5.168746 -14.656404 84.162338
9.711081 -8.629536 37.186890
8.224789 11.884645 139.290192
-9.596692 -8.682715 97.605240
8.192352 0.371394 149.284088
7.643155 -16.718060 123.732597
12.541330 -3.964647 80.027962
-9.604753 12.509351 140.551712
12.479087 4.278790 31.485706
-76.536232 1.332076 144.411224
11.523801 -6.325912 71.048149
2.165282 -17.297899 123.633293
-9.032910 -5.474068 148.250198
-12.319384 -0.614361 81.120560
-14.151329 -8.380261 50.283531
-9.493292 -6.174576 121.374413
-7.463572 -9.260314 98.333656
-6.046245 -14.548665 112.087051
0.532893 -7.399363 61.401070
14.820969 5.647301 17.314035
16.253231 -1.301217 144.288223
-14.032774 -2.764469 136.304596
52.592995 -3.033244 140.453033
-16.542953 -1.749965 135.521530
-3.770186 6.087354 107.718575
50.277309 5.951952 141.457443
51.948517 -1.156864 140.709763
17.075121 -1.214517 93.234848
6.767150 -8.427712 94.339775
7.562716 0.281619 151.959854
4.036547 -8.124812 145.268234
0.688892 -1.920998 44.490482
-4.358090 -3.948617 71.656158
-13.263387 7.172608 83.960632
-9.576992 -12.786860 138.148499
3.494531 -14.793983 115.582474
-10.909415 -8.313313 140.669235
-0.582484 -4.573753 80.129662
10.960012 9.088133 130.474457
-3.256912 -9.083701 151.059097
15.725014 0.111354 74.155228
-10.258906 0.137447 103.715042
14.388013 -2.451245 114.146103
71.437111 0.952977 145.745407
7.382257 -0.848633 12.742602
-4.489204 -18.830912 120.108742
25.971094 7.466402 142.784271
-56.334080 6.602022 139.429352
24.762419 6.074536 140.702789
8.752836 -11.101262 45.896946
-16.041281 -7.577549 57.353153
55.060192 2.775633 146.275116
-1.221624 -7.363783 81.728683
-10.454004 -12.025265 89.812218
8.423534 -14.585931 136.309967
-58.170094 -0.860693 143.633255
4.022143 -12.133117 79.716286
3.088552 -7.389915 72.716774
-0.891030 -10.094852 84.264343
11.738138 -1.826823 19.099253
8.075556 -0.895846 26.822823
-7.256328 -5.242683 11.321869
-4.372281 -7.704528 71.789604
14.914963 -9.328586 72.985634
17.398731 0.911091 35.652542
-59.671970 4.031754 147.929230
3.949308 6.005903 84.608131
0.520859 2.751399 55.366474
-5.323708 1.177944 68.458908
-9.730553 -13.171218 116.792015
2.742299 -9.100298 66.790062
6.940509 10.980947 92.660675
1.837513 -0.714659 70.993530
16.019327 -1.652627 89.134270
-15.355207 4.277649 101.935196
-6.723217 -1.879007 40.695030
10.545093 -10.535018 103.392204
-7.437159 -1.015087 10.729295
46.814716 9.912019 136.817368
6.974781 0.964347 60.251141
-13.601590 2.090210 11.766281
52.263908 1.115605 142.555466
6.192344 -10.419745 53.219353
13.277370 -7.369591 84.916435
7.694553 9.105816 84.157448
13.588270 1.850533 93.354431
-18.721369 1.164619 138.767929
4.556124 -13.848760 56.111195
4.598033 0.000592 27.696249
-7.127544 1.800271 8.187291
-34.366875 3.942452 138.172928
-2.759904 -9.112041 85.958427
-43.448803 9.598485 139.426910
14.658785 -7.987799 140.821091
9.386973 2.872871 75.933517
-2.086283 5.769833 86.467987
1.752869 -7.969537 60.286858
10.152582 5.382115 46.096558
-17.344275 2.473626 44.698856
69.855537 -1.558247 135.810623
11.928500 -2.541087 125.763832
-62.593666 -0.516857 145.510056
-5.458727 10.219777 139.205063
-30.721972 5.650138 136.463699
3.476530 1.404555 146.265945
12.758069 -0.425468 120.915413
6.498265 -8.162532 114.838638
62.997082 3.955997 140.413086
-6.947031 -13.426920 113.491585
-49.070862 -3.004342 141.785370
-25.257656 -1.896559 141.856155
7.243225 8.913568 99.874199
14.484328 7.057357 81.506897
2.491880 3.363522 39.524471
4.010264 6.328964 87.270744
-10.841158 -8.400402 111.546310
1.386226 -10.817574 117.879036
-49.819672 0.751633 137.952179
0.356652 -13.560378 93.396339
-8.709407 5.041967 109.640327
-3.090265 -8.622992 63.733601
45.615345 7.601271 143.003525
4.989574 -13.153051 105.697983
5.749216 4.108463 17.518391
13.835084 -12.070809 83.861443
-4.548919 2.361186 22.663986
10.152586 1.485315 59.041756
-3.989589 -8.097800 72.260345
-8.169950 -11.777107 124.533867
11.090799 -3.817086 66.476151
10.707675 -8.747018 115.325500
-15.729861 6.339307 46.312393
-3.915049 -5.139893 69.115646
-11.438323 -11.903809 75.475525
-10.685040 -8.897212 131.086380
65.376289 5.958282 139.052460
-12.653060 3.298079 111.272530
-14.912832 4.889821 144.822083
13.646748 -7.643864 51.175179
15.796779 7.218744 137.816559
12.428093 -7.018012 11.378009
3.539783 -1.863250 113.656296
13.625380 11.031137 93.846153
-0.180914 3.212771 82.936317
2.653609 7.969281 128.398010
-3.595440 4.607086 79.584358
14.863433 -5.311166 25.586069
-35.647255 2.059533 134.312134
5.965303 0.772495 31.859730
9.647960 3.876976 118.199821
61.717583 4.057349 138.524490
2.167879 -14.757496 120.633530
4.190869 -1.591907 118.223442
-3.219434 4.776674 111.980133
1.812207 1.569643 73.013298
7.690366 -1.984614 145.033783
-7.524123 -2.215281 38.365211
-10.580030 7.878097 33.329723
10.067476 3.206046 23.524391
5.943608 -12.772127 85.736824
-37.254299 2.690955 140.244827
9.579478 6.625714 119.642349
-9.013092 7.608041 96.615341
-11.920265 -11.580580 85.132607
-1.751467 -12.965090 146.994110
-4.971783 -13.336285 95.556061
16.506409 3.584327 93.719315
15.809918 -10.526358 85.306717
43.542526 5.945387 140.747284
11.887151 -4.078574 131.806717
-17.004862 -6.010136 77.718468
14.371443 -11.035485 59.422207
2.993082 -8.302208 58.748875
-69.073280 -2.503606 143.238480
-9.229400 6.326573 124.128456
-4.641204 5.245467 153.125168
7.150191 8.417671 26.493937
-28.842775 6.662404 141.135880
-17.128326 -5.478110 93.214897
-13.177505 0.199464 95.368141
-2.053446 -7.907786 117.142860
-4.944765 5.469316 76.603333
11.097788 -5.596224 96.782768
-5.538620 -12.566628 117.042236
4.684578 12.932265 90.701630
-9.783976 6.882091 44.354855
8.430960 0.165450 52.583050
7.135416 -2.035136 66.886566
30.721344 6.208192 142.238678
-4.841561 6.212790 116.934242
-1.626339 3.152102 117.428223
15.042591 0.621997 74.746315
7.214128 2.054280 67.602371
11.904411 -1.841095 147.305557
13.535623 -7.634423 123.648308
-13.529686 7.135823 30.438349
-70.274727 -6.652219 139.173767
-17.564560 9.892643 139.526794
48.457996 5.052102 142.288177
11.863512 -11.404196 103.793129
-14.628972 -3.774540 87.186905
-4.334555 -11.767676 118.641426
-62.376644 2.433199 142.636719
10.788527 -0.472874 116.446724
6.516331 3.176248 145.223022
9.499458 -8.211089 75.129135
5.309239 6.014647 147.171097
20.907681 1.532466 55.777176
15.629523 -4.406157 58.769501
-11.130039 -11.825754 90.658714
67.879845 6.419043 141.628204
7.592719 -15.832804 118.350082
14.524389 5.392294 22.510817
-72.392799 5.274121 145.158157
31.219557 5.223464 141.067825
-2.715898 -7.398150 67.574883
-3.748631 -14.853084 83.543373
-11.041760 2.719468 127.598946
8.167665 6.120224 63.600616
-5.951927 -9.035203 45.823357
51.014027 4.965399 137.904007
1.466027 4.941508 146.330093
30.308081 2.666981 142.487045
16.912270 -2.232635 27.070477
-61.191227 -1.760321 144.931168
10.042202 9.207721 32.805988
-32.860447 4.948551 140.656586
-15.030502 8.027128 131.769104
-14.346880 4.716793 14.757912
-62.899654 0.778315 138.913559
0.953615 4.116645 78.237236
-2.021273 -9.769633 120.548798
-30.275227 -3.112392 136.568954
-19.701340 -3.934127 134.833099
27.712103 4.187468 141.958603
-9.949415 6.212906 138.835098
-15.292830 -6.983035 46.966881
9.605737 -2.168823 9.948997
14.681788 2.127392 132.989731
12.972990 -3.052646 34.442081
11.227408 -10.761486 85.205528
13.763801 -4.766382 96.239998
12.419466 -4.920435 123.335442
-4.581078 3.102028 78.918045
3.512879 -0.001094 109.248985
10.134361 -8.694703 70.052406
63.078571 -2.273863 137.622238
-1.450155 7.249462 95.013130
6.950788 9.138349 37.383316
8.870239 4.523232 147.640106
9.494301 4.638934 84.720825
-5.009683 0.709967 8.248219
4.535416 -1.389158 60.360386
-16.154871 -0.613095 26.889627
-1.663131 -8.050906 136.438751
11.516321 -6.360860 100.147934
-41.997955 7.252923 144.094788
-7.625162 5.546032 112.579384
3.768524 -12.932999 94.323967
1.746759 -13.548528 75.216835
-9.743547 -8.308161 142.974396
-6.420067 -16.177601 95.547226
0.510855 8.798939 93.357376
44.415417 2.900693 134.764267
8.419785 4.984175 21.265299
13.574397 -8.070955 129.421127
0.630828 5.399494 113.552605
-12.688799 -5.596005 128.187973
-9.217429 -6.700174 135.205322
-2.595315 10.964631 101.756523
-14.128234 -2.095702 76.750031
3.785367 2.866957 37.168350
-11.458367 -14.763350 121.922523
-25.724094 6.423717 137.500519
2.265089 -3.114094 71.108231
11.107103 -3.330475 134.270508
7.983075 0.268448 74.346771
9.531073 5.213851 47.302624
54.355961 5.763067 135.432022
-8.499920 -12.572970 127.454674
-5.299508 0.102521 64.934265
-5.061983 0.349769 115.304909
13.372169 -14.197614 83.712242
-76.966789 0.524769 136.924515
1.173985 -1.102483 71.441376
42.326191 7.901236 133.997406
3.118143 -8.791583 90.106728
-59.437729 -5.270158 141.749573
6.701107 -13.598956 65.992142
-21.414824 0.715885 143.198914
54.795979 -0.360172 143.240707
11.677991 7.951109 49.936798
72.638405 -2.693964 135.657898
-2.058621 6.873950 114.036766
1.985132 -10.202673 106.709984
13.952639 -2.740221 89.758522
-42.117298 1.592024 133.869141
55.790894 4.936373 136.134445
-15.216286 5.232448 142.628708
-7.272326 -1.345851 143.367813
61.007339 0.846151 141.267578
-11.651565 -6.161182 146.261780
-3.417248 2.624716 63.127316
-3.563119 3.519542 21.072119
-58.583076 5.282402 149.402283
-21.185373 5.844985 139.368683
34.722599 3.054388 138.189117
-16.265783 -1.021458 31.111082
-11.131085 -13.381268 71.652901
-15.339342 -8.703120 41.932625
4.905319 -2.308518 37.549805
17.295706 -3.525139 137.824829
14.174858 -4.822929 26.384924
-52.761753 0.221759 145.154617
22.194506 8.722135 141.203156
-3.182505 -8.551154 72.267120
-3.517089 3.259427 115.354263
45.230492 7.601025 139.989471
-6.792766 4.199042 119.557228
0.235077 9.194903 115.054085
4.526183 -10.092713 141.966858
14.518419 -4.080207 101.852974
-13.340274 6.100326 134.274612
2.042026 8.490356 96.823303
-38.325249 -1.542361 142.235992
7.866507 6.852798 37.209049
-19.433748 -2.829669 138.965836
-0.347496 -16.178183 115.623528
-9.288131 -14.498270 73.919662
-20.201633 1.372506 142.000580
1.188619 -11.203085 84.122536
16.925888 -5.513581 138.178879
-5.313384 7.433372 69.803581
-14.178040 -5.767250 43.409164
8.188614 -7.478445 40.103184
-13.997526 -8.228576 107.250298
11.509260 -4.008432 35.500526
-9.654515 0.720219 119.046562
-14.776317 -11.645692 83.229485
-55.811321 -0.925016 141.543701
4.305160 -15.891575 124.184807
29.101282 1.425845 142.345383
-2.890510 -12.373832 130.836807
47.344540 1.210743 142.594345
15.767957 3.369160 97.811447
64.216377 -1.635158 142.198608
-6.607073 3.572088 21.887611
-15.198836 -0.129888 34.596447
35.090466 -2.264990 135.298325
-50.040070 -0.845850 140.984940
4.911002 5.350687 145.931290
-3.624442 10.093056 125.445854
-6.712062 -11.092141 110.781403
38.169987 -1.024427 142.606079
10.830467 5.445980 34.558834
-0.999515 9.686798 84.116699
-0.602772 -12.119034 114.012764
16.168894 -0.868187 31.331661
-9.376267 -6.577521 55.148373
-14.907448 -6.589526 52.322289
2.680685 -1.814137 53.008129
-15.959968 -5.279839 145.272629
7.900753 0.654850 16.079592
-8.733087 -4.253789 27.041519
-19.143921 -5.359725 45.175903
7.818534 -5.413826 34.021992
74.073151 -4.636426 134.943741
57.880020 -3.425911 145.021759
-20.866844 0.030975 71.453690
9.617250 -5.740907 24.780630
-14.597721 -5.212406 125.471947
8.430202 4.493260 98.612541
9.850819 -4.262539 37.380306
12.135893 -10.398503 62.885017
3.738565 2.165586 51.841705
11.168705 -10.104093 40.476532
-7.735014 -14.551001 137.259171
11.860648 -5.771687 95.137505
10.087234 13.098385 136.670273
6.593281 5.200233 5.462276
15.223103 -1.519192 137.572754
-4.411786 -12.830471 82.770172
-2.337740 12.168770 97.804817
8.317916 -13.572735 67.132172
-9.699000 -11.167758 103.142822
-15.575124 0.695450 71.303452
-16.206240 -7.060542 80.250893
12.064505 2.149671 56.404949
-9.544563 -8.827968 131.871231
56.360935 -3.088103 142.480133
11.012018 4.375244 119.501198
-13.246959 -8.893724 49.899254
-13.086997 -4.877094 107.820946
-13.128838 -6.331998 48.423721
-11.798822 -5.393879 62.061489
13.014809 -7.543144 135.140442
0.578016 -12.194246 114.189369
-14.023187 0.325135 97.654411
7.697088 -11.162263 118.049675
12.828156 -0.716415 70.411285
-16.118940 -0.990664 128.933243
8.688993 -9.717497 58.264179
5.498029 12.909157 95.833046
-4.789818 -5.568321 144.080719
-11.418610 -10.447362 134.724060
-10.683610 -9.954569 108.827545
11.698691 -9.462237 87.400154
10.819914 -6.562018 111.041039
26.263439 -3.360317 144.394714
16.969872 -12.441009 59.870754
4.423696 6.937377 73.151749
14.189955 3.341563 96.621948
-3.979831 8.168715 47.864319
-11.238686 1.891624 60.411709
39.487801 1.218743 145.934494
-8.677076 -0.241934 115.989304
12.191524 6.377403 81.789124
2.305579 -11.977545 70.640549
57.173626 0.247823 136.496414
2.615641 -6.535368 85.196884
-7.599037 4.098280 60.147938
-7.336705 -8.538169 135.827988
-17.602732 3.614703 48.011871
-6.588738 6.513362 105.105446
-10.629404 -3.145806 15.283223
-17.146235 -6.296901 98.244629
3.058358 -4.175479 49.608570
-2.425170 11.981253 131.159363
39.478580 -2.776645 138.636536
6.223102 -1.638827 35.767979
0.852999 6.772241 124.947601
-12.817156 -6.370704 49.829617
-41.368702 -1.871029 141.175003
-14.951780 4.156553 143.727448
-9.322063 -0.479335 43.116673
-14.723274 -2.520150 116.656281
-11.621765 -10.697124 64.107452
-3.750022 -10.980675 86.738899
-1.977108 2.922568 83.236801
-5.797251 -12.221566 65.751419
0.513840 -6.126068 39.887211
10.897079 5.688899 39.807632
-23.192202 2.307122 147.402359
-11.292514 -10.055150 130.397629
1.130452 -0.017273 33.610607
-16.100832 -11.236483 67.172905
13.984519 4.271312 52.545578
-2.816833 7.448627 94.413368
-23.426687 7.319557 134.739258
0.025402 8.961104 111.302994
-17.469427 8.869497 143.703873
19.166874 -4.535042 129.030853
-0.486347 -6.397629 57.864193
2.325357 7.042082 107.501801
14.063503 6.078452 36.365990
10.300716 -15.721992 129.090775
12.095827 -0.139289 50.987549
-65.624565 -1.963491 146.402252
15.355553 -5.607904 22.950823
-4.524465 3.032879 119.875954
-12.335888 0.747158 69.831757
-39.109535 3.146672 133.262802
9.996675 -10.977356 77.450363
61.571735 -1.118495 145.728134
8.974431 -1.206658 29.189411
10.792728 2.778220 144.163177
-8.501632 6.500808 62.198177
-0.695915 -1.309224 74.060379
8.818769 -0.501782 15.606101
-2.084925 3.861197 127.485054
-59.621387 -5.041602 147.320862
46.074951 7.100822 139.999084
-4.398950 1.410892 148.167328
7.977850 8.628004 131.481155
-1.163772 -10.112498 142.158295
11.196274 -5.352136 26.318674
0.575996 -8.995789 82.165344
-10.029941 4.367512 84.375862
14.771244 -6.278389 32.896278
-65.914291 1.335806 139.075531
-2.827962 7.689799 138.511520
15.882395 1.127749 85.640114
-0.943054 -11.663690 134.703384
15.254847 4.166801 143.845963
-0.930805 12.544196 126.055161
41.865524 3.726746 148.279419
-3.848289 2.731637 54.144238
-63.530357 -3.147142 139.837738
-5.737544 7.932236 115.088684
-16.446596 -1.601180 91.678612
2.763647 7.633707 150.692078
5.761361 -7.944156 75.059883
-15.169391 -4.181050 58.812393
-2.684782 4.233980 115.166306
-2.329113 -6.241583 76.271461
5.690466 -9.256648 51.198200
23.508141 3.429654 143.324585
-11.339702 8.122664 40.266476
16.936026 -2.126754 82.995224
10.502552 -3.463951 25.029953
-12.779582 -14.038982 121.469299
-0.082345 9.028401 142.516525
5.976150 10.855659 128.763046
13.800463 -10.513503 119.899834
-6.358202 1.958206 41.833672
3.505688 0.384154 53.172470
-57.597572 2.794007 139.973312
-4.363418 -10.336604 88.831589
47.535465 4.415653 135.738602
-14.183205 -0.521789 50.872940
-18.669161 2.707125 16.507841
-14.997955 1.196394 63.599026
-12.915689 -1.625337 60.650799
-13.481558 -13.597081 117.251465
-0.592319 -1.073384 69.482574
12.297804 3.047582 39.579494
16.579634 2.970003 18.319145
-16.230612 -9.686749 83.912552
-34.147690 6.939806 141.989487
66.774200 3.238149 139.001038
-16.831213 2.977908 44.073063
12.652345 -5.368938 112.748283
9.876805 5.443290 141.646225
-7.201557 -6.999361 141.717453
-11.208167 8.894469 101.058334
-10.759649 -9.907457 98.481316
3.661421 8.633810 142.402054
-42.219986 4.315274 136.443085
-51.054131 0.481111 141.793564
-19.275387 -8.391453 84.412682
-14.235354 6.026639 43.087040
13.506131 -9.173600 56.228687
-7.762465 -8.586947 114.424904
-17.190506 2.521815 42.531021
13.892834 -3.035332 26.162489
64.111099 -3.127013 142.240387
9.808614 -3.035026 38.114357
-14.124410 -12.359247 95.961472
2.732768 -8.686131 143.765152
-39.977169 -0.434403 140.312607
9.500822 -7.494276 27.614067
31.761774 1.503000 147.006516
57.345501 6.323886 140.698090
-3.952908 1.533720 52.912819
14.245635 -1.696399 141.502975
-0.194608 -7.696041 98.501358
0.230261 7.217798 152.456390
-23.049572 1.695727 135.745239
-8.178457 2.535679 110.551842
6.464264 -12.901375 134.656677
13.371489 2.283320 46.397221
-14.681773 -3.187909 132.916550
-9.614984 6.844669 33.347126
-11.831145 -1.131174 117.329277
-8.213473 0.098930 146.877090
41.230797 -0.800783 139.362213
15.595196 4.130656 23.329988
-3.537674 3.704558 67.143288
-8.572853 -8.303423 120.774414
8.207627 2.543651 109.751945
-48.547565 2.657925 139.977173
63.951187 6.929808 138.718399
1.347924 4.282662 45.793652
8.266438 4.064685 52.955395
-8.282255 -5.414498 128.915573
7.909226 7.824327 123.736526
-13.879034 -8.595146 79.032585
-49.747799 8.137872 136.102386
-19.859632 -10.277161 68.422157
-52.964096 6.148776 143.474945
-11.699382 -12.347832 131.928864
12.772621 2.903929 101.456963
-16.730974 -2.339718 41.470444
-10.007435 -0.874748 92.853043
-11.480714 -13.291258 99.547073
17.684269 5.207668 34.577568
11.837518 -0.378364 113.190422
13.376627 7.775632 89.222778
-16.747726 0.884703 46.208393
-7.860717 3.422330 131.260178
6.001531 -5.322597 27.061245
14.193240 -3.458346 13.300813
-68.781677 5.752989 141.365631
25.912033 -4.359019 141.458282
-4.993532 7.233817 105.788094
-2.308281 0.952910 20.979744
2.277855 -8.880400 61.648514
-38.879135 2.616148 143.269852
1.904301 -9.667034 146.658112
12.315485 4.760100 148.355804
12.133595 -0.221596 103.827347
14.425736 -2.130301 122.967575
19.966242 4.487561 140.955261
-15.024973 -9.583432 82.906792
-12.586982 -9.777917 83.399513
17.661093 -10.380891 88.221039
14.776653 -9.101398 56.649147
-15.285891 0.238756 80.317513
12.711147 4.413171 96.645973
-8.825441 5.683638 146.634842
33.377335 1.819448 138.139709
-15.091505 7.671874 136.248260
-54.661282 0.468147 140.360306
-9.411164 4.010193 75.446259
18.309313 -9.437043 84.917694
9.879458 3.801669 91.747101
-2.003989 -3.186767 55.404816
12.524448 4.057788 93.930328
-6.001700 8.898087 101.109688
55.530308 1.515196 136.516876
-13.198558 5.651565 35.095825
-2.572713 5.118913 115.195435
-18.194643 1.096347 134.657410
-6.691178 -4.433383 118.195724
-59.795101 6.746373 140.773956
-6.253702 12.448378 119.000336
-3.650671 5.976728 71.899132
3.168171 -3.050687 80.028336
11.056842 -8.968292 67.830757
11.183593 4.000422 43.481480
8.067397 -5.782861 53.131264
59.037891 4.736043 141.521347
21.488157 11.072242 138.514404
6.166833 2.543426 81.281677
14.363158 -1.102023 143.232956
-16.257717 1.901658 134.857712
1.094433 6.903236 80.777496
-1.759002 8.726521 129.264862
1.389124 -4.071929 75.069092
-12.958164 3.900725 147.131729
55.162609 2.054842 137.521164
12.330427 -9.507785 54.614113
0.620238 6.617054 114.195465
-1.336818 6.688152 96.821167
1.332057 3.450020 48.608326
-10.091017 -3.876004 52.539909
7.443052 -1.044938 114.995529
-51.858727 3.087070 142.214462
-47.698940 8.961314 139.608261
-34.690395 1.601653 138.931061
13.835906 -13.503875 64.325363
7.935947 -10.174109 139.385208
-6.471171 3.897465 145.963333
35.300579 2.532925 138.593399
-7.088751 -8.211259 114.331673
-0.107516 -0.090473 83.133446
-31.731993 2.374966 139.180237
-50.410484 -1.207074 145.257339
6.699031 -6.593764 40.017960
5.851135 -2.769978 13.960201
3.919695 7.673932 81.220772
2.724621 -11.850548 81.282204
0.111115 -8.097076 88.174202
-14.943802 4.725129 107.549904
75.931343 -2.906318 138.060806
-7.990262 -1.568489 146.520569
55.425316 -3.796673 143.122437
-21.539280 1.455021 137.808792
16.639874 -0.931226 17.674225
9.231175 3.869579 16.927919
8.670227 -14.926157 69.395416
7.460253 6.638348 14.711477
5.722572 6.188238 109.131317
-41.598026 -0.591016 139.319504
-2.336792 6.227100 151.967560
-46.755043 2.618989 138.116653
1.471150 10.205020 93.607758
41.005028 -1.670709 139.077744
-51.006172 6.780172 139.248505
-9.740917 -14.267570 73.826042
67.449715 3.620098 142.733200
-7.507795 6.046832 144.938065
12.995012 -6.774369 123.883812
-14.833119 4.066788 84.300209
-48.431671 -1.032673 146.944244
-8.987736 -12.238497 111.993477
-31.727531 -2.996231 144.178131
-15.176756 -0.732392 134.617432
-29.987759 5.883557 140.642426
2.221849 -8.669529 51.921745
3.142767 -10.647780 141.247620
25.304054 5.631762 143.863449
-4.860087 -10.717196 64.145676
12.601020 3.288128 10.813493
3.123675 6.543934 31.170469
-8.819118 -7.490038 105.326393
-45.282536 -1.159939 144.156357
-53.581890 0.595768 147.375305
-3.487245 -8.999066 74.002686
9.791739 -3.638481 19.280861
-8.869308 -6.515075 47.815903
59.746307 -0.468608 138.200592
-19.546350 -8.862466 93.000832
-12.625859 -2.748433 18.645288
52.767406 3.671990 145.647552
-4.980854 4.425119 117.953941
-3.340471 6.642742 65.072395
15.478193 -7.048919 51.591351
-2.177257 -13.399029 141.630035
66.465065 6.503465 144.218369
22.468843 6.166208 141.506180
5.753580 -5.570224 43.734203
-6.775438 9.523365 93.604660
-44.707520 2.297126 139.793488
59.538773 -4.010372 144.936462
-1.698909 -4.392425 85.745888
-19.288631 1.052937 42.941700
26.093870 7.330770 142.132080
0.876735 5.243917 143.650436
4.748045 -8.631490 81.623390
6.169912 -11.372923 98.699303
6.892704 -3.294676 57.986092
7.604637 2.601318 40.631554
-11.683132 -3.208821 28.691679
46.159615 -2.068787 142.980133
11.723706 -9.693278 102.905937
4.708536 7.750964 107.579063
32.287876 7.514291 140.468582
-7.038005 2.124833 41.270683
9.547988 -6.244589 111.272652
-11.136460 5.300156 60.490723
-2.076701 -10.679039 87.074936
-9.924310 -3.987905 113.801796
-1.880962 -4.096394 56.421757
28.536825 1.698643 136.956009
51.697029 1.277801 138.775925
12.163633 10.416152 23.624159
72.896011 -8.418593 142.051071
-11.950347 11.132883 31.453085
-14.633020 0.431809 66.310051
38.468300 7.218717 138.122482
-37.626133 7.268625 136.087433
40.346058 -6.693127 143.352921
-0.891428 5.798980 118.323303
-14.307520 -3.430141 60.847355
9.022563 -19.241385 90.760681
-14.590687 3.823678 43.636089
1.452631 9.722144 142.265015
14.138781 -8.831882 87.324570
3.980177 5.905910 118.928268
-2.254378 -1.641751 47.609558
-2.103491 5.015866 127.421646
-5.048118 -0.746403 44.194153
48.123665 -1.008096 140.273697
8.782310 6.977131 57.405678
-16.298006 -2.055783 48.062737
60.605347 6.124390 140.927765
2.371027 -13.038723 101.515350
6.513605 6.596510 48.995712
11.739025 -3.031411 126.535789
-2.161754 -13.918024 78.385971
1.946971 -1.646862 68.652039
9.874888 -9.201431 123.062752
-10.721447 -11.414563 46.067051
-0.955177 -3.673858 72.197334
-7.434695 -13.286497 91.282219
-12.238834 7.500503 145.298050
18.685360 -0.995261 39.683197
15.876283 1.131029 49.627544
10.601761 1.704894 103.987640
41.947411 3.278972 139.086456
-3.369062 -9.684930 85.401978
7.450912 3.655254 112.190620
1.117017 -6.738248 77.727608
14.923159 -0.443323 135.138748
-0.294098 4.901127 39.290527
12.784522 -5.946046 8.819637
-12.553550 2.815966 105.577621
19.904644 -2.892055 26.675356
1.462377 -0.890637 80.530182
8.890289 -7.927226 58.816357
