ply
format ascii 1.0
element vertex 2048
property float x
property float y
property float z
end_header
12.336094 9.513123 146.312698
10.191880 5.012021 153.207977
-2.428901 -10.040177 137.131577
-8.971703 -4.848691 144.108887
10.470994 -13.163244 131.768967
6.898129 6.775972 154.778275
-13.327085 11.621394 143.941574
6.958793 -11.604494 120.658920
-6.704682 -13.517348 136.902847
-14.039796 5.064066 131.585510
-14.203594 12.559582 144.604568
8.267738 -2.379151 147.650528
-10.779643 3.164577 117.622360
-3.544938 10.581218 154.482986
7.118828 5.089983 157.408295
9.941027 6.462971 109.636208
11.590214 -6.921517 118.225327
-12.646412 -6.032286 117.954865
13.472306 1.892776 148.990479
9.564594 -7.616992 139.385193
-14.313032 9.108158 137.108566
7.589434 4.538876 115.947380
-13.424440 -6.599413 143.425873
5.805993 -2.399357 151.173111
-11.720137 1.413896 124.862465
15.032557 9.521417 136.829254
14.433879 -4.982281 142.808350
12.266033 5.743502 126.078766
-4.384247 -12.121608 116.759773
-5.543047 -5.559236 145.741058
-11.790538 12.095868 142.994705
14.943333 7.364373 151.743408
-13.262474 11.250022 136.633881
-11.808270 -7.817473 139.865829
14.882818 -8.189868 132.238922
12.015368 -2.092215 117.585487
-10.790438 -9.563391 115.514404
-1.351125 8.959599 123.369278
-6.274790 6.120870 156.805786
5.697341 -12.874384 114.029068
-14.375396 4.653984 132.249252
-12.392089 -3.788143 116.763672
16.929630 -1.928756 144.850723
-13.306534 12.475360 141.271729
4.321143 -9.861583 144.025818
-13.919024 -11.503675 131.276688
-8.606509 -7.758899 142.186966
15.427667 -7.148914 141.398270
12.711433 4.203288 107.873116
-7.194267 0.029532 152.707306
10.168672 6.919568 129.997406
13.755569 -1.028835 129.755127
13.849683 -3.408550 124.892601
13.845045 -4.622762 138.109970
1.655361 12.860930 129.942200
-14.665996 5.221060 152.664795
-12.089977 0.595885 122.431786
12.536938 -4.987540 115.695770
-12.871999 1.111560 148.420532
5.021718 5.845978 158.521149
11.532326 -8.804783 140.449875
-0.619712 8.784876 154.986145
-11.212523 -8.292018 124.989944
6.271451 -11.972504 127.733086
9.007393 8.821032 125.830345
4.178437 -1.322410 150.638184
11.020503 -12.813520 135.831650
-5.656985 5.508460 113.600883
0.380171 -12.656248 116.259033
-12.860994 9.500232 133.448792
-7.150294 9.808667 134.668243
12.037579 -6.782310 114.397003
-12.003953 -4.274368 116.539551
7.590742 -11.450759 138.794159
8.191012 9.895049 125.135246
-1.316589 6.674508 120.201447
11.182531 -10.970386 129.409943
9.953119 12.029070 138.264847
1.184915 8.969789 157.402023
14.442999 -6.743881 125.363892
-5.495321 -11.318150 138.568954
1.469137 12.693006 141.040527
9.392693 5.654689 122.315002
6.444449 6.702851 155.759735
9.684152 4.249621 114.723961
-11.832603 0.473677 123.797989
-13.834138 4.894260 129.484726
4.009877 6.455637 156.004471
-12.284964 0.348469 118.459312
2.503659 -12.380172 123.576920
11.685629 -0.543709 115.507118
-1.837081 9.412324 154.846542
3.732135 6.016897 118.894852
-4.583225 -12.851634 127.277283
8.483668 12.667436 143.749252
13.626157 0.920533 112.909164
-4.829034 11.070274 127.214638
-14.000588 0.846656 148.640762
-8.172316 -10.268934 138.300339
-10.037944 2.843206 151.886627
2.079573 11.345564 128.961960
-0.813945 -11.365185 120.077530
9.544485 0.428553 150.435822
-10.445699 -12.679396 136.839447
7.123949 4.267045 114.558990
6.773532 -9.968485 116.584152
-2.745979 11.944873 136.287674
1.804081 9.225635 156.173386
-15.140555 1.247594 131.356018
6.743852 11.783836 144.095551
-15.715202 9.880294 147.638062
-15.448869 10.409401 144.697433
11.203792 -7.769898 125.155708
13.504339 3.881384 130.025772
-4.780049 12.207466 141.506119
2.611482 10.619340 127.222816
-0.120363 -12.790619 110.607079
11.324005 10.340528 148.607407
-6.398622 5.457750 123.246216
10.473045 0.813334 119.552292
-13.088226 12.021054 144.502686
3.833549 5.909684 157.886276
-7.250825 -3.349928 148.905869
-15.297596 -4.763801 134.385727
14.432812 -5.123476 139.169662
10.402191 -10.082445 139.542908
-12.434895 1.815209 151.107269
-7.861344 -11.111841 121.220856
-17.674763 5.810912 137.837784
-9.913286 2.049766 151.870712
-0.010748 8.179719 157.880493
-0.548486 11.334021 146.428589
3.907475 10.936916 151.584625
-9.677840 -1.206362 149.336136
14.601463 8.889433 150.396088
8.947174 4.668428 122.084908
-4.233992 6.233732 115.492378
-11.817835 8.579401 131.575424
13.358561 -5.144554 143.495789
13.828080 -5.876715 111.109200
-15.140516 9.630340 150.236938
10.468466 9.364887 131.679626
-12.712767 9.935582 137.315369
-5.836287 -12.965299 133.705475
5.773604 -14.278019 133.070038
0.421903 12.024318 127.132690
-9.335666 2.934519 152.074478
-6.472569 11.524289 134.208893
6.559497 -10.270521 112.258835
-11.736135 -5.424601 112.008621
-12.517939 -3.971475 116.065025
10.452350 -13.020452 136.391907
-13.937730 -5.052424 128.506348
-14.742571 1.486777 139.308792
-8.066846 -9.959077 117.563286
0.069471 -11.359604 111.294136
8.332677 12.403104 144.712555
-11.364517 -8.057032 142.731232
12.966186 -8.584295 127.269897
-3.141876 -10.782113 116.820770
-1.513076 -9.322455 144.333130
11.716025 -0.830793 121.953362
-14.866418 -5.830934 140.163086
-8.539961 7.813383 125.596504
6.187280 6.035130 156.751511
-7.960229 -11.603332 124.881195
10.284982 -11.246982 127.153244
13.342757 -5.815263 125.007500
-7.161214 13.409974 142.276062
15.816971 -1.886125 143.056366
2.566912 12.753320 138.111404
-4.319235 7.939615 157.915039
-5.160605 -8.597470 144.838791
8.285033 9.180593 129.464798
-7.188437 9.827345 147.877121
8.567959 3.556170 150.157089
-7.763216 -12.336804 136.683563
8.201140 2.583762 152.293808
-16.090118 5.992713 135.473160
14.524732 -2.721117 137.995972
0.732657 7.427858 124.216202
13.443569 -9.692993 130.558975
5.185775 7.546039 158.189972
5.062477 11.148288 130.133377
-6.381306 -3.826881 146.409195
-8.799913 -10.391586 112.939850
10.087800 -9.651432 112.322502
7.752429 8.166856 111.295670
-3.603795 -7.569365 144.541275
-7.306314 -2.867766 149.683914
-10.710168 8.060371 131.121780
-0.368118 13.777246 139.973373
-10.315809 2.830042 151.607590
-9.045910 5.504433 152.504425
-13.098630 12.018408 144.410522
-11.569225 9.291021 131.475922
-13.493495 -10.216127 134.363037
-13.358577 -0.547432 150.614899
14.474293 -5.564922 135.009766
-12.681556 4.049246 125.784073
-1.137906 11.427960 139.708542
9.738881 7.534636 126.235855
-8.853951 4.431511 114.546188
11.400528 -7.447090 122.123642
-12.315879 -2.793646 121.379738
15.423599 0.788827 134.065369
5.938396 10.371856 109.074669
1.873626 8.516306 153.380676
-14.990641 0.858097 141.488815
14.568448 -2.723959 139.352859
-13.002562 0.351247 126.769516
-7.064418 7.707530 153.066238
0.908716 -11.800422 113.075226
-14.853830 8.403811 150.994324
-10.502416 4.013027 111.372269
14.867097 -9.134393 130.442184
-4.104243 -10.330905 139.984161
-16.883316 3.528663 135.244446
12.266188 -8.518886 138.060593
-7.083072 -14.558658 135.167435
9.824309 -9.989660 111.313644
-7.897195 -10.853140 111.642166
0.882072 6.116793 121.066452
-9.181351 -0.318867 151.021805
-7.692008 11.836508 140.086746
-14.833359 1.005013 134.176987
1.077535 5.977521 113.128799
14.675973 -7.983323 135.949524
-4.735106 -11.114005 119.161240
-12.148034 -6.225936 114.406380
-4.884145 11.381792 146.150192
7.443779 1.298791 149.672775
9.119819 3.659389 120.807793
-14.377205 7.487926 134.034378
-11.508388 -1.378733 116.317856
3.622369 -0.488437 153.024185
10.237625 -12.954469 131.971237
-1.234969 13.120628 136.664322
1.145114 10.094883 156.345627
-12.998507 0.705048 151.144623
-14.282122 -3.492814 129.925171
-10.099825 8.063145 151.250076
-14.486233 1.287710 107.831825
-6.455204 -1.538506 151.724075
-13.015769 -7.223377 120.802361
-10.502259 -4.398059 144.959747
9.770295 -6.813775 141.621262
-4.114263 7.698672 123.330803
5.843954 8.594880 153.000122
11.399743 4.914773 124.956955
6.027663 5.184931 155.996078
-5.718669 10.081235 150.229324
-7.432887 2.787944 154.689362
-7.677478 1.497813 150.977493
9.543665 12.830261 143.370361
10.854879 4.628411 123.163780
5.041548 5.596692 113.700508
10.006085 10.477324 133.286621
3.542659 11.046465 126.270302
-11.336501 -1.203298 117.240723
-8.379385 8.105981 128.787155
-11.768456 -5.135275 116.302444
10.062079 0.044963 149.609131
-2.352704 -10.410586 110.810265
-11.854931 4.333796 153.606155
14.507995 0.337932 112.136253
-8.408158 13.326783 138.984787
4.380727 5.991604 113.805168
14.190445 10.423231 143.401413
7.499290 -1.223775 149.378830
-6.976972 -10.734970 119.117561
15.360769 -4.044156 141.607483
-2.229575 8.119601 109.945969
-5.165765 10.675465 131.695129
-2.408110 -6.606996 146.277344
-10.676516 -5.567174 143.225754
-7.778415 -9.075759 141.637878
-7.768939 6.805152 109.594124
-8.346106 -9.846959 121.775902
12.453168 -6.967289 117.766289
13.370728 3.944756 108.644897
-5.784387 -5.536822 146.093826
-13.306438 -2.348536 120.084389
-11.821569 10.994389 143.093735
12.267086 -1.476697 118.619980
-5.056377 -3.420303 149.423920
1.287244 -13.398642 134.928070
-3.628754 11.163805 148.272675
-6.899250 7.838683 125.324989
-1.141250 -12.047951 111.977783
11.846497 9.888759 135.512192
-8.824121 -13.713886 130.278351
-6.626485 12.570151 143.269135
1.357452 10.343875 151.017517
4.657577 -3.792155 148.657379
-5.647376 4.475544 157.189133
6.513484 10.297518 149.822556
11.413234 3.316678 125.162529
-2.290579 12.822001 136.691376
16.242252 -0.920725 149.257141
-14.436759 5.542147 132.824097
10.641189 12.786176 140.514465
-3.973113 13.595397 141.801331
-13.953096 7.291518 150.148956
-2.410399 -12.103090 113.116943
-4.449023 -13.418032 133.386108
-5.763482 4.059767 116.438225
-4.069342 -10.923378 143.867569
-13.487521 -9.303344 128.266296
15.776864 -2.916783 142.342148
-3.722390 7.768640 154.221649
-10.245487 11.192793 138.153351
1.656088 9.465401 152.393860
0.971518 -11.551497 113.894997
-13.508706 0.097709 111.935555
5.056656 10.689438 148.751877
11.965932 6.358636 127.057343
12.230259 12.193569 140.390045
12.678207 -5.084059 142.918579
-0.647267 6.325313 118.722366
6.532670 -13.224007 134.172180
0.673383 -10.176094 121.997116
-15.654677 -0.139221 130.337555
-4.714184 7.115415 108.178612
4.449877 11.546062 136.973282
-13.624482 -3.388552 124.406441
13.908547 -7.138057 140.904007
-14.117848 -9.413867 130.503006
-15.218205 2.258828 130.478027
8.831224 -4.361460 143.514160
14.504932 9.335451 148.710495
-16.278383 8.383958 150.506363
14.794662 2.715686 138.093201
3.873999 5.812182 114.860680
12.722166 -3.655427 124.127846
9.859419 7.098225 126.062981
-6.676442 -2.550122 149.649841
-15.879319 8.984175 138.856384
10.345667 -9.952004 110.324219
-8.411440 -2.219019 148.694504
6.395004 5.207175 119.017593
-3.147604 11.815004 126.980148
10.226141 7.920940 126.886559
-13.004743 -5.554802 113.223869
11.313807 12.061299 140.641983
11.006370 -6.963340 121.012817
13.892822 -4.738749 127.184532
-4.995269 -9.225734 143.042282
13.596562 -5.765967 137.288055
-10.202461 -9.627700 125.624245
-1.447259 12.790147 140.028900
-15.537317 7.537556 138.204086
13.222031 -7.241920 123.344955
-6.486571 -2.390994 149.792130
15.771627 -4.667413 146.464645
8.503951 -2.290221 151.259521
-7.767740 7.258253 122.255501
-7.632673 12.734012 144.938339
8.843333 11.913801 137.414856
4.144016 7.466989 157.318680
5.502034 6.293359 156.432281
4.847406 5.815464 118.439308
12.716805 10.858164 140.313538
-5.730581 -10.061285 110.201965
-13.228698 1.963739 127.069534
9.821301 -8.520846 113.388443
3.268918 8.770597 153.924377
-14.580158 -11.172468 133.440109
2.842197 8.352488 155.420837
-14.800015 -5.167872 137.580261
17.305321 0.258997 150.033325
-15.381719 -1.261964 148.039032
-13.526128 -6.515273 140.476089
10.869767 9.833737 131.790588
-12.915648 5.520422 129.242813
-0.972708 -13.056479 112.632607
-13.452013 7.960735 151.179337
8.254314 -1.078529 152.616669
-6.711346 -11.004314 113.423462
7.116378 3.118632 153.084915
-3.082178 -11.933196 126.118538
-14.008181 -2.520729 125.168907
10.774968 -8.634598 140.689331
8.527489 -1.057570 150.390900
-13.765019 8.904065 138.806656
12.784245 -5.898975 122.877914
-9.308815 3.458260 111.772278
-5.448555 2.062481 155.258636
4.106056 -10.625137 139.519287
3.422882 -13.759954 133.639313
-15.074107 -5.244359 137.593140
-4.897434 6.387080 111.868462
10.656624 3.079356 121.499626
-8.194255 5.025528 119.600983
-13.532075 11.403919 145.476089
10.918572 11.317893 147.942978
12.571330 0.118678 119.440140
-8.400215 -1.427633 147.040329
-3.723860 11.954523 134.681976
-8.224254 -11.144274 125.172661
-5.185453 -11.635918 139.875214
-6.237017 5.940748 117.497322
-13.439900 -2.909677 119.792473
-12.219463 -3.384027 115.290703
-9.339677 -10.689435 111.374214
6.598189 2.053077 153.850327
-9.074004 -9.492438 140.447922
13.558106 -0.029603 149.081238
13.886530 0.351695 111.404770
-11.535663 -9.078445 111.041855
7.990406 2.217093 150.891357
4.184150 -0.318883 152.770432
-4.029552 9.006324 157.935242
6.654391 11.598179 145.391434
5.521726 3.502928 156.394012
4.290811 6.705452 155.961288
-5.281464 -11.348439 115.688797
-1.285568 -13.649733 131.184921
9.033041 2.431790 114.491707
16.040691 -3.938997 134.099533
-14.984458 8.272108 136.623291
-1.052376 -12.276855 121.572586
-16.350351 3.406569 135.051819
-9.569927 -9.170715 111.379921
3.863567 7.931668 120.709518
10.510880 3.159659 109.805626
-1.389421 8.620762 158.620087
-3.173707 -12.671003 111.840546
5.125211 -11.307448 111.480171
-6.600787 0.372174 152.992783
9.269799 12.443214 140.793518
5.113258 -8.005140 146.647202
-13.327180 -8.699091 132.526596
4.028636 -9.049907 141.186172
-12.114148 -0.529442 118.989861
-0.505479 6.721775 154.762024
8.786987 -13.134113 132.026917
13.526403 -5.036814 130.037628
16.679279 5.710448 150.488678
12.931331 -2.655176 126.460945
8.212557 13.469190 138.901154
13.137711 -1.833713 127.518021
7.376894 -6.823505 147.610504
5.212782 5.153319 157.831070
4.062786 -11.776309 126.398827
2.076208 9.167542 156.223785
13.574163 2.844935 124.735374
5.376205 -10.063394 116.856232
5.243720 -3.734914 150.681137
3.289515 -13.006183 123.524460
6.370724 5.348773 122.877777
10.865041 -11.684762 133.329102
-6.725616 -10.833965 121.853088
8.938400 -5.916035 146.281113
-10.194046 3.806876 111.234421
11.497721 -2.714381 144.432526
10.390288 9.414942 150.491791
13.101469 -4.272833 121.109619
1.571221 -10.456591 142.281860
8.648736 10.935784 136.371246
-11.948726 9.154399 131.911774
1.297704 -14.943691 128.713974
-14.892423 -3.569795 131.917679
-7.650292 -12.200174 126.432060
1.056214 7.401080 158.410187
-4.678483 -12.264233 137.242294
6.788496 5.864185 154.077026
13.364823 -7.572988 111.180580
14.042389 -0.000347 127.927895
-15.736293 -1.646247 136.124100
-2.334003 -11.692945 121.354744
-4.712471 11.625013 135.105377
0.615394 -12.299961 112.012978
-16.547098 11.132035 142.793396
-5.704465 -7.697676 143.272049
11.664625 5.588393 111.669022
5.193257 11.426234 145.464081
13.209541 -10.163832 131.425705
-9.570004 7.392844 127.624687
11.642728 -8.018173 123.486656
13.111869 -4.860295 124.998375
-14.477998 -1.690657 138.833740
10.824625 -9.852906 123.550812
-10.296124 11.273950 132.383636
-6.783756 -7.101181 144.358459
11.729525 -10.674061 128.812881
-3.197185 -11.909035 129.473221
8.409535 -4.396723 148.845901
7.368586 -10.503035 118.159416
-6.321958 1.830687 154.138824
12.349589 1.720585 123.361221
-14.231855 9.734160 150.027817
9.235474 6.968957 153.004822
-9.657482 5.349581 112.197250
8.190558 2.849478 150.303329
-4.020875 8.132590 157.452393
6.355598 10.872121 127.814850
1.613851 -9.132813 144.027054
4.283288 12.154630 142.575180
-6.739129 -13.211382 122.865486
5.692639 10.093120 127.281761
1.288818 5.300075 117.603172
-5.461030 4.612465 115.013306
-12.306423 -6.340429 124.251923
12.167491 -7.758455 123.393761
-13.138033 -8.156806 129.643799
12.457752 -7.341790 127.642334
-0.468879 8.881896 155.613754
-5.003809 6.246180 116.010345
9.954021 3.280050 112.382660
-15.147713 -5.991683 138.347870
3.118435 -13.524549 126.069489
-4.491913 10.646597 131.346680
-7.448544 -9.021838 140.579666
13.794440 4.068923 128.864380
13.525712 -10.875616 134.117859
5.550802 -9.787397 139.884445
5.127483 6.785012 155.737579
9.974210 -10.330783 109.093452
-13.534835 -6.744611 111.364792
-15.920090 -6.123165 139.791824
-5.828509 10.718911 148.537430
4.960505 10.910254 145.173233
12.835741 10.215942 144.289566
-5.864550 11.246874 149.521408
14.082544 -9.103610 130.546600
12.856830 -5.364837 124.912079
0.437399 -11.547907 118.950607
9.363673 -13.933643 132.176254
-0.706635 -12.646099 108.942162
2.057063 12.596190 142.982193
-1.483180 8.010576 126.228172
-6.300090 8.968802 126.636154
-0.827854 -11.235608 135.754074
13.048256 6.975315 151.823608
-8.647945 -3.215497 146.560211
10.099558 -7.406280 112.113518
-3.887272 -6.041414 148.666626
-0.975955 7.587040 125.847092
-14.922056 -1.108018 128.345596
4.306030 13.099157 140.666992
-4.697743 -3.011622 148.746063
11.272222 -12.072679 128.450760
-4.394794 6.797786 156.757889
-4.122416 -12.723481 128.915665
11.983522 -10.447191 136.463989
4.530224 5.460080 156.411774
-6.558817 12.527809 138.548523
15.803477 3.063146 132.335617
10.684263 11.579760 139.074768
-15.841647 10.722454 145.778778
-9.312389 1.241791 150.815323
-12.112217 -9.774943 136.882629
-15.294056 -2.059679 132.521118
-0.974503 -11.789800 113.747810
-5.296198 4.821484 113.847473
1.972385 4.576690 114.847572
11.923611 7.503832 130.310532
3.534294 7.076472 121.784271
5.349403 -5.916585 148.187378
14.149132 -8.023703 133.781860
-8.874331 -11.169278 125.202774
1.532407 -12.350819 128.847717
3.371608 -10.829047 141.762177
14.743041 5.800299 138.145187
0.165500 9.539872 151.330170
6.088080 -12.054999 125.044632
13.143509 -7.909261 128.792496
13.927117 -7.467455 131.588882
16.027052 -0.091523 135.225769
14.443863 -8.290424 134.086273
-14.103683 -7.994976 138.511169
-6.835556 -10.042511 119.058044
-8.050838 -8.345807 141.834045
-8.071726 -9.168736 141.507553
13.601995 9.335189 148.882523
-15.418855 4.209895 137.327744
11.056925 4.731372 153.925095
14.484578 -0.649958 135.554581
12.220606 7.017469 152.481201
-11.949426 0.394771 122.056137
-16.008791 -6.685887 138.632339
3.226854 11.744156 125.683350
8.881545 -1.926372 147.851578
-6.294775 12.219643 148.216690
-7.166527 10.901439 150.890854
14.278747 -9.358734 131.511688
2.419602 11.800756 128.263977
-6.445876 -13.480680 135.815460
-7.189197 6.518419 155.951248
-8.853244 9.451566 130.582657
-11.334127 -8.745227 110.788101
16.195570 10.863640 143.507217
11.450000 8.139221 130.829849
4.666889 -12.260731 121.688065
2.806033 12.026431 136.748856
16.690802 -5.825539 129.284378
13.010896 0.521207 113.317978
12.462487 -0.343912 119.184906
-16.842113 2.088443 133.374512
-4.382414 2.178256 155.423279
10.760442 0.463767 150.907043
-12.755338 -5.547567 112.164215
4.663784 -4.929314 148.136658
3.367461 5.764750 115.916428
17.344955 1.584036 133.641174
12.596803 1.346424 114.017570
13.559771 9.890913 147.107391
-11.232143 -8.237364 127.259216
5.177891 4.258576 114.943604
14.080860 -4.529954 125.174957
-1.392952 -11.611945 138.519394
7.677350 5.641944 118.611984
-7.953710 6.472614 123.771667
13.772004 3.150075 130.178482
13.513077 -8.981830 129.156708
15.754125 -1.750542 134.130295
1.246778 -12.046232 121.721581
0.085935 6.613061 117.074448
-12.666515 11.016731 145.300217
9.074272 -3.270787 145.449127
-14.179201 -8.709280 132.887497
-0.071698 -11.286655 123.915459
-8.249470 11.543477 133.221359
0.871614 11.371085 132.910599
9.554621 8.798759 125.200958
12.346941 0.542121 149.050705
-13.759233 -1.837506 127.671051
-5.849559 8.786473 151.963852
-4.317907 -13.988872 131.807510
2.643099 -10.137056 109.958298
5.244013 -10.382301 142.390442
-14.086682 7.411018 150.449432
4.558623 -11.810468 112.081139
11.772313 -5.382162 118.949997
11.443075 7.833581 131.355713
-5.191531 -7.758842 145.619781
7.307476 4.155459 155.830093
15.762364 8.081549 136.251373
-13.274574 -3.108167 114.078773
3.866032 -3.547880 149.267532
-13.172588 12.310743 142.168884
-3.264244 -12.310935 126.655586
15.287731 -3.099982 143.078720
-11.012992 -10.290501 125.953644
-10.467628 -9.500204 121.413063
-12.934327 8.774347 135.886185
-2.003438 10.825239 128.595245
-4.945494 8.247627 154.651611
-7.187557 6.632825 152.422897
1.303040 -10.509874 138.437683
7.699970 -11.545582 126.289955
1.794324 -8.315833 145.176926
1.831407 -11.839781 119.830452
-13.520517 -9.317467 137.372330
-6.557933 -11.281951 139.002121
0.001344 -12.319676 129.336075
-11.025438 1.379221 115.044319
-4.262664 -13.256613 128.450531
-5.164320 7.784203 152.428711
-13.283248 -2.209944 121.760010
5.777895 12.401565 136.063568
0.453379 5.478601 119.764030
10.771512 -8.563741 110.792122
6.552683 -12.449556 129.785263
4.512526 -10.555699 141.675293
12.017779 -3.478227 113.570229
-9.743976 12.844589 143.212265
12.311087 -0.136612 122.514870
-9.199248 -10.479989 125.310776
-11.417988 5.842047 122.649300
13.092037 3.312567 123.258957
-15.049703 11.245103 142.586380
10.041283 1.274090 149.203720
-15.304673 4.967725 134.333069
-8.904375 -9.962267 109.166245
3.997550 10.487050 154.067871
-7.412987 -10.327189 138.502228
-11.350563 -7.544384 126.862877
-8.906283 9.401901 151.289017
14.383119 -7.968263 137.791550
16.959923 5.872384 137.954956
-5.516828 10.532393 133.332413
-7.873637 4.623218 157.301773
6.009715 -13.068087 134.189316
1.336747 12.214607 144.445663
-4.191810 10.460673 151.052795
16.433380 -4.139616 142.358749
-10.984394 -6.361165 114.648880
5.512940 -3.837460 149.271606
11.134553 -7.974278 125.248512
-10.444388 -8.526338 122.478127
-12.874706 -11.711616 134.220032
-3.261674 6.468211 118.910675
-7.126648 12.376253 134.936615
14.101020 11.638897 139.342239
6.454479 12.548503 145.346039
-7.027497 7.671862 126.908340
-1.773342 13.619873 139.327026
7.951897 12.316143 138.176086
-6.538608 -10.362991 112.434113
14.438126 -3.087742 139.358032
16.058809 2.423699 133.240524
7.104154 13.023944 138.730545
4.176293 6.163084 120.491577
-0.423731 12.430477 137.821030
-8.077601 13.552346 142.678955
15.260349 -4.417709 135.008896
-9.559515 -10.012061 113.354683
9.171886 -1.116382 146.953156
1.937502 -10.888951 113.626938
13.285522 5.483652 127.064713
-15.160562 -9.926857 128.680252
-1.858853 -12.200835 125.674049
2.662914 9.465869 155.800369
-12.089690 -4.952331 118.263916
5.597545 -10.997055 126.295143
-7.584012 8.906118 152.901245
4.971696 -13.699508 133.138641
-1.311177 8.129113 124.577530
13.157259 3.277877 127.974617
-6.214105 6.121062 117.208443
-13.876554 -5.130183 129.937561
-16.158714 1.117362 135.666656
-9.267434 -12.218600 136.355957
-3.124025 -11.753334 126.459473
-8.649405 5.119859 122.431038
-1.154274 -10.745788 140.096497
14.950197 0.190433 151.557465
8.082037 5.977355 124.592690
-7.077459 -1.120836 151.906876
-10.152647 6.953185 152.185135
-14.419818 -6.241339 135.434540
-5.669113 -11.661489 111.091682
1.998213 -12.092704 133.538971
-1.171698 7.629947 157.801987
12.881240 -8.758101 110.902298
-13.295825 3.118903 130.544907
13.996982 -3.789894 137.090912
-11.163280 -11.755384 135.540771
-7.290507 -2.031124 150.816605
4.366714 11.900268 135.493469
6.693903 -10.066301 114.417618
-11.740437 7.554517 150.328552
-8.972021 8.794678 132.384216
3.999582 4.949960 157.909195
10.462963 7.457822 130.864670
-12.266656 -7.653093 126.978218
-10.663200 -7.649906 116.998009
10.574199 1.759839 119.556564
-1.526049 -12.721419 134.199234
-19.493675 -2.800899 142.900681
11.413614 -13.426604 132.113373
-0.829260 7.135394 121.399406
-5.810516 11.796728 141.462250
-8.593914 -1.091831 151.004166
-6.997622 13.053015 142.237167
-9.618776 -8.992805 141.839935
-16.324633 -2.269864 138.138672
5.365700 7.674681 152.896011
9.523449 4.425134 123.149940
8.731844 5.012309 113.247833
-6.057828 6.676507 154.551575
-6.823691 -2.805852 152.089447
-3.056249 8.797199 124.613686
-3.752326 -7.349757 145.798050
-7.411022 2.172131 154.725296
-14.481760 10.023462 136.689819
8.740686 -11.004085 119.935860
-13.739527 11.110162 143.310867
-7.820643 0.793231 153.104782
2.426813 11.875923 132.317123
-4.426274 -11.198904 125.769081
10.804249 -13.103695 133.043228
9.824101 8.707111 149.083160
-5.692106 9.435908 127.936981
4.231840 -10.504269 141.997360
-14.374175 -3.385824 126.382507
1.347530 -9.891991 141.973267
13.810246 -8.243563 134.642914
8.661325 12.270379 147.017563
-11.454680 9.962560 133.270966
1.444952 -11.510568 110.021225
-13.277690 8.569843 134.731430
16.280880 -1.682655 145.602112
15.270967 8.560851 137.091095
8.664800 -11.095662 123.544304
-8.654260 4.089071 118.524231
1.733896 10.970165 149.434052
-6.106304 -13.229592 130.287048
-1.882808 8.461896 125.827217
-9.650578 -11.600760 135.064163
5.553505 13.039105 138.679825
13.038078 -1.702153 116.749557
10.734488 -13.106535 136.356247
-9.181346 7.800756 128.954102
-7.033786 5.034957 112.579445
2.397400 -13.432957 127.807266
11.497486 4.250794 151.781921
-4.154812 -0.254415 153.389801
-4.739248 4.661823 117.903908
9.807945 0.067773 149.662445
15.852461 -1.975589 131.053268
-15.458731 9.817828 138.304169
-3.755035 -12.012927 114.078178
-6.858080 -2.813354 150.307312
-15.681660 12.029219 142.893295
-7.704869 4.843717 116.818054
-4.209707 8.856863 127.429672
11.641223 -9.759731 126.868568
-15.781199 3.034217 137.465897
13.089775 -11.141978 133.575821
-12.114847 -11.033100 130.531662
1.690936 -11.660995 113.135559
12.220894 -4.443442 116.554657
-8.282667 6.101567 153.776810
-7.237006 -9.887762 139.060440
13.880163 -6.835627 126.267731
-5.526535 4.997206 120.061111
13.779082 -3.193946 124.532730
11.568204 11.587541 146.740616
-5.569620 -13.714116 112.414413
1.885778 -12.850743 131.744995
0.486512 -12.651462 134.853027
5.827665 -10.230750 139.353012
13.886445 6.133560 151.012207
-16.094028 2.324795 132.986420
-0.251857 -11.005171 124.031250
14.139108 -1.058650 146.859695
-11.481514 -0.308876 115.302307
8.521951 11.764662 145.393295
11.178985 -8.436639 115.231285
8.227457 3.801797 117.106567
0.426964 -11.615376 122.981750
5.797336 10.363102 131.558304
1.955554 11.571843 145.094604
-12.687450 4.390011 130.672775
6.598189 -4.098917 147.607147
-9.752972 3.876936 123.634438
-15.421504 -9.671409 131.096115
6.695229 -11.439899 121.725159
-0.763112 -12.317656 113.667427
-4.174268 9.657997 151.449493
-15.155758 11.641133 144.199829
-14.173368 10.867205 137.922195
6.326787 -3.876193 148.203461
-5.980064 9.908917 128.569443
12.598721 -5.020907 121.348373
-10.882830 -4.364848 143.927216
6.359796 10.122342 129.685059
1.462151 11.759394 129.801315
10.296861 5.909813 109.797615
-14.615824 -2.554413 111.733528
9.991812 -12.759562 133.154007
2.663754 7.856061 157.150604
-11.686483 10.629547 139.026352
10.320729 -0.658013 120.677818
10.522333 10.739188 133.960449
-2.465163 -11.920238 128.180420
2.829087 8.371424 155.630081
-10.602197 11.786564 144.981232
-9.856236 -10.289174 120.774567
-13.879646 7.087289 131.686691
-11.032034 2.103873 112.948769
12.017459 11.586399 145.178452
-7.162249 6.791285 123.752563
5.469539 -11.626180 114.384102
11.184976 4.098024 124.568314
8.041181 -7.448946 114.856323
4.472422 12.577035 128.895981
-1.842288 8.309501 125.352242
4.403797 0.685758 154.953796
-6.084343 4.178489 155.607040
-9.503728 -11.082068 125.703064
-1.480260 -12.362903 140.983673
3.920491 10.813807 147.404175
2.765924 -13.617018 131.962311
-9.105990 6.349372 151.814484
-4.240843 -6.210742 146.494659
6.970459 -8.123287 140.291519
10.483157 11.493755 139.598465
7.067968 -10.106014 125.862434
17.087814 1.009402 133.994965
11.401099 11.570794 141.804138
3.128263 -8.152082 147.225159
10.533510 2.690104 120.999107
-0.475305 11.027298 148.703644
-16.084223 4.298746 152.605759
-5.121828 2.061776 153.724258
11.357582 -6.705432 122.599556
-5.492933 -11.257888 121.676712
-11.150713 -9.512738 110.037804
3.071343 -11.853924 115.675308
8.297179 -10.785238 120.764671
-12.233125 -3.823920 145.392151
4.537320 -9.063639 144.653778
4.929744 5.786575 119.178856
14.685221 0.925499 150.310974
13.713987 10.619454 149.551422
-13.898664 3.206179 131.749115
1.702804 11.358073 145.381882
-16.151484 -2.931701 134.413528
8.746414 7.586869 153.008942
11.184783 -1.344325 145.900421
-7.023134 -11.472780 108.820343
-4.451821 8.428370 153.176636
11.165510 4.452661 128.666122
6.019062 -1.572740 151.231949
-0.010296 -12.374249 124.884758
7.338240 -10.904675 118.009430
6.538355 3.909719 114.323959
-0.211806 -11.240499 125.526657
5.926676 10.062818 151.468140
-11.452845 2.426352 124.885017
12.793825 -2.153742 121.480209
-15.445785 -3.357930 128.997391
4.471264 6.106958 109.839684
1.151886 -12.492310 117.276443
-13.194718 -3.605267 117.413757
9.261406 -10.752048 126.602753
-12.852422 2.737173 125.087379
5.625591 -12.067222 128.742340
-7.745173 9.433741 151.558487
-12.704164 -7.195853 127.356850
14.351908 9.578651 150.704529
12.814249 2.250552 151.044052
-11.547752 12.488843 142.979996
6.909703 12.466999 135.338013
-12.045115 5.254497 125.685822
0.340627 -11.307913 112.297470
-1.428686 9.300138 158.132431
8.351592 -2.875948 146.015518
-1.361510 -9.351332 141.399033
-0.516229 5.429955 115.415710
2.346656 9.334354 126.677673
1.867600 -10.862336 122.043373
0.590527 10.530789 153.052292
-12.053152 -7.043134 117.514351
14.983253 -4.219535 131.500015
-3.260050 8.377812 156.900497
-12.804327 1.245280 124.619499
2.975694 9.219332 125.970528
-8.643808 -5.425587 144.232635
-13.250928 -0.499226 128.930038
-11.569233 4.063831 124.587654
-13.630389 -11.074390 130.584305
-9.011492 -8.538717 139.364059
15.891207 7.426233 134.896927
0.131179 -11.774686 124.874504
-5.859572 -2.820658 148.313293
-15.222330 0.979459 149.122330
-8.914069 4.756376 153.083252
-4.275468 -13.189721 129.132629
2.049834 -13.621062 133.700409
-16.273869 -3.325612 132.692596
-5.078835 9.981247 125.566040
11.969111 10.814069 138.877274
3.454185 11.347793 148.743698
-10.791243 6.219828 152.923065
6.923791 -6.491726 143.761337
11.222023 12.111557 137.146713
7.911458 5.492957 120.560219
-14.077225 9.811645 143.087662
-13.845382 10.004673 144.330017
9.090340 7.455100 153.621994
-13.837022 1.682642 126.632263
-8.553167 -9.530406 121.668190
-16.251312 0.107148 133.288116
13.923723 8.607946 136.838058
1.832275 8.152756 153.353897
-11.321656 0.367929 123.226357
-8.752030 -9.623233 123.349792
1.619669 -10.862358 144.206421
-0.689482 4.900149 114.544769
4.682916 10.484078 125.705009
-4.802186 -8.374101 141.730789
7.415956 4.763064 155.815643
-6.730198 11.953746 149.783813
-9.739297 -9.899766 137.542709
4.250636 -9.109308 144.275620
0.015511 5.743777 111.277840
6.020411 -1.961669 151.831207
-16.939697 6.894985 151.038712
2.193224 6.289786 109.188377
-9.315660 -6.352349 142.696976
5.844515 -12.526224 126.513199
-8.093064 7.904447 129.599106
3.202874 -11.164944 115.090256
-7.146604 -11.400190 111.959961
-2.163873 7.560394 123.936523
12.997273 0.768094 123.584999
-12.062101 -6.573852 143.018356
-0.273211 11.510864 147.616501
15.293728 10.964812 140.163223
4.850516 -13.394769 128.540192
-1.395131 7.873600 156.181427
-11.555583 8.362386 150.292236
-4.656719 -8.298529 146.523697
-14.542397 -6.429580 128.211716
2.154245 13.186986 135.559158
1.446748 -11.466249 109.538277
-0.192165 11.889195 142.777710
12.403203 3.462025 126.116394
-6.097246 -5.300524 145.776169
10.272505 -9.526327 121.941307
4.244208 6.891332 115.697121
-4.883512 -11.218968 123.703560
-2.895714 -8.106342 140.208160
-0.922093 -13.140008 134.169388
-14.341745 1.091281 111.959457
11.782202 -10.449030 128.274094
-15.998192 9.250092 149.573639
-8.396517 -11.603134 118.685524
12.412928 2.158711 127.078629
9.997868 -0.069733 146.876022
-8.728090 10.933973 133.419403
-2.066339 8.660475 158.393143
15.104544 2.837445 138.191315
5.440812 6.625564 155.424179
14.879418 1.401012 133.044479
7.907540 3.909112 116.340080
-8.018679 -13.963339 130.221191
3.174788 11.064460 128.303177
12.087793 8.530605 150.187500
-12.105061 -5.363042 123.819443
-9.429688 11.974360 136.896881
-12.518687 10.508922 140.769653
10.346536 5.316204 124.405502
-14.356756 -8.233634 135.449631
-10.618237 11.110019 134.508591
5.703809 -7.971105 144.467819
15.446480 -4.038042 144.398972
8.442221 -13.055661 130.934570
9.109586 -9.441912 139.445679
-2.270438 -11.725113 137.279999
3.946183 11.384938 149.852112
-10.571241 -13.216746 136.420059
12.253254 -4.320996 117.400848
-1.486291 -9.361540 140.536423
-11.535851 -4.921535 118.489777
-12.896632 11.891224 144.217697
-13.253541 -1.858531 122.134171
-6.821702 6.276717 155.533218
-15.817218 6.859859 134.046799
2.517582 -12.545621 137.345444
9.213953 12.674661 142.307510
-2.065032 6.628800 121.247795
-10.687730 -9.863584 112.447853
-12.072664 4.813724 111.153435
-9.171925 -7.362574 143.518173
-7.835916 12.533870 136.154510
-4.860581 -10.738997 117.622101
11.800890 4.278736 126.237579
-12.873249 -1.204042 110.822166
-13.421274 -7.877129 125.445404
-16.112354 3.202152 135.043854
-11.922771 -11.812611 134.634293
-10.577162 2.314921 120.941803
6.246412 -6.485770 148.660736
10.951142 -8.188291 120.267128
-14.038876 -1.790989 126.681023
-11.652079 10.206961 148.700134
-10.372408 11.577472 144.777176
-16.153271 7.193763 138.985840
9.378904 2.660275 119.885765
-15.303169 -5.338057 144.414200
7.338407 5.911101 114.514084
2.787750 12.889970 135.751678
-8.738533 -0.717995 149.419739
13.459087 -5.265153 124.696686
6.668868 -11.188472 110.764420
12.690897 3.113262 113.145790
-10.266819 -6.943991 143.103439
-5.916219 -6.997638 146.364258
-10.878983 -9.552523 124.315559
2.083159 7.364302 122.418129
5.695233 3.264945 154.808228
-2.426103 8.164039 123.505531
-3.446070 10.875916 148.660217
3.098062 11.940030 140.840073
16.967886 -1.791864 146.180893
-8.403873 -10.019447 119.121437
7.982279 -5.767081 145.925995
-11.676034 -7.263388 117.409012
11.985160 -9.239688 141.453278
-8.497053 -9.693370 114.790131
-5.426804 -4.861108 147.411072
12.505571 -6.636840 112.932045
5.251804 7.940612 123.784569
-14.722575 -10.773829 132.019760
-6.267624 7.889205 127.212013
-4.443330 9.890941 154.162720
11.278987 -1.176213 120.760704
-11.787799 -3.130213 147.596283
-6.224873 12.972866 147.312683
-12.387471 -4.253589 124.818275
-0.060409 -12.320643 116.103233
12.149198 4.287043 109.474678
-9.398180 12.014538 146.925568
12.758808 11.736481 136.667648
-5.318418 5.421255 119.921890
4.144907 6.953447 157.128052
-9.626724 3.995002 114.213745
3.099561 11.658556 129.693481
-6.681690 -13.055255 138.056961
14.060590 -4.714843 144.687378
-4.417089 6.979240 156.791031
5.933860 1.184274 154.066010
-0.831474 7.546747 125.140671
7.594135 -11.734580 122.189438
-6.270249 5.181385 119.605705
-1.388414 9.559894 157.366959
-11.172207 -9.644835 126.235298
15.123466 10.048065 146.899536
2.188372 -12.415590 130.153671
8.180874 -7.043245 141.839798
13.250965 0.546968 123.848091
-7.064704 5.636664 110.962013
-11.285725 -0.311010 146.679596
7.984012 12.253063 136.772964
-10.111436 1.591975 149.261230
-9.429209 0.581826 149.222748
-8.482415 7.847551 109.642807
-12.662121 -4.170220 120.351982
2.089327 6.430561 113.934113
4.665346 -12.703359 134.058426
-8.727606 -7.074337 143.456009
-10.758414 11.838855 140.049316
9.863765 7.212348 152.652802
3.690123 8.525915 124.358574
-11.219271 8.064948 129.770737
-13.640039 3.836290 132.581192
14.620147 -2.935140 130.825821
-13.850006 -5.168593 137.446823
-10.555396 4.708525 125.314590
-12.756512 -9.447041 129.308548
-2.172959 -11.795006 135.876877
-12.966265 11.105495 137.826599
-5.760680 5.124475 115.033775
2.156494 -12.424499 124.580154
1.034196 6.366797 123.088959
-1.368890 -14.691651 130.067108
-5.878676 10.073945 132.321655
-5.286339 6.970833 153.830811
4.205115 13.102012 146.308823
14.908669 3.321651 150.618713
-11.819109 -13.043338 134.530502
-16.149796 3.022226 133.774048
-3.227133 5.250047 112.489273
-10.440347 12.450499 137.737991
-6.283895 8.133255 152.261063
11.807414 -3.727466 117.752419
15.893812 0.563536 147.875381
14.440169 -3.980216 112.366539
6.189996 -12.125281 123.182976
0.408442 8.962203 126.991440
-8.838694 -12.004062 125.454216
14.174744 -0.569355 148.571976
-15.548727 -5.237988 133.221848
-15.009821 -7.381190 133.772552
-10.295316 7.230286 151.658997
-10.529319 -10.288431 126.024780
13.385802 -1.837622 122.311493
8.235565 5.591263 123.454102
15.052358 -1.265516 112.743439
1.136200 12.576559 131.173218
-9.977261 2.505721 151.117569
16.141111 4.086719 137.284622
13.075665 11.323279 136.798645
2.889589 -13.321483 140.700256
4.804282 -4.107880 146.921875
2.648762 12.746397 135.492767
7.189072 5.885945 118.218376
14.864738 -7.393516 141.059158
-3.786559 11.869875 143.607056
13.251958 0.584865 120.571320
-8.420609 3.734092 115.502571
-13.930710 -3.179739 126.669434
-14.091138 -5.918415 133.568298
-9.793785 -11.109112 138.010391
17.397018 2.129659 149.890198
-15.333774 -2.373056 130.946182
-1.976544 11.620933 149.445465
-2.469762 -12.748938 117.094078
13.144327 0.990877 150.095703
-9.584013 3.939949 151.726227
5.348426 -8.142336 142.945633
8.283051 4.668480 152.084412
1.689686 -12.193500 134.256592
5.821477 -2.583897 149.851715
-13.115084 8.973362 134.015976
13.262509 -7.414041 126.470894
-6.907208 11.588655 132.618027
5.668889 -12.457923 138.353622
-13.201752 -6.528233 126.041756
-8.794106 5.602513 118.571228
4.016647 -12.559847 138.944168
10.332406 7.756152 126.362511
-13.091120 -4.088765 121.682037
-3.522945 12.564612 138.109909
-0.691190 10.701108 149.593674
-6.066047 -5.147198 143.250763
-6.021406 5.633721 155.502716
1.784185 5.787206 116.383881
13.127520 -10.959558 130.897415
0.063088 12.241281 139.595306
4.957902 3.768826 155.110458
13.527821 -3.371863 139.968826
12.351068 -6.092459 114.308395
-10.047614 5.803386 152.654572
10.911714 -11.758528 136.038300
2.952351 -13.202397 132.699844
-16.006359 10.387462 139.506271
-11.971071 10.873066 137.279144
14.021418 -7.144068 131.706985
6.381415 12.569845 143.823914
-14.279524 -8.785872 128.762115
-5.126368 -7.363750 144.918716
-2.969356 11.211116 125.373970
-4.176913 11.860363 144.797928
-0.577807 7.251874 120.004410
15.600159 1.651428 110.425476
-9.236699 -14.171039 133.793915
0.000428 -11.449726 127.978317
-0.330424 12.060886 135.824875
-11.673668 -6.906377 142.643143
-11.840961 -9.520638 138.266769
-8.935589 11.675056 144.770035
3.669560 -12.382437 111.729126
-8.665365 -7.208897 141.198624
-7.320861 2.250806 118.345169
-2.782238 12.935095 144.218414
7.527502 11.895207 141.599091
10.651621 3.156154 122.337936
-4.990101 6.267659 157.736816
-15.684528 7.734960 136.361053
-3.944194 8.021012 126.510803
10.352491 -13.451948 128.598007
12.326364 -0.598503 115.096344
14.981952 -5.751668 132.318237
6.190107 5.201722 114.793411
4.768907 -6.383709 145.002258
-5.942088 -14.186151 131.815842
7.684346 -1.912897 151.596680
0.525594 12.984433 143.617508
12.646645 -1.253359 122.018639
-5.394184 5.697993 156.908051
-8.799957 -3.360253 145.644455
11.833665 -4.117238 114.753731
2.555223 8.123048 155.403671
15.701245 3.854525 151.697113
-11.011747 -11.093502 137.169510
0.125433 -13.710958 126.900024
13.874758 0.506980 151.247452
-4.003132 5.092721 115.949776
-2.017215 12.097565 140.923981
2.786620 9.164041 150.332718
-10.994783 4.944201 123.922630
-12.402188 -7.879717 123.076294
12.523058 -0.917803 147.428635
13.630394 8.233519 130.564438
2.673496 -13.158653 117.359383
6.794470 -7.931451 141.210800
7.948016 -10.000469 121.260063
-15.101943 10.978535 144.579956
-3.469613 11.878162 149.074692
-11.926278 -1.199359 148.967880
9.932540 3.632220 121.678940
-3.073841 11.445883 146.271164
-11.915580 -8.883990 114.468353
-8.209290 -2.207789 145.468246
2.103089 12.672241 131.955948
-2.773934 7.223903 119.088333
-3.006511 9.278023 153.311417
-6.695186 11.406732 149.382416
-8.629199 10.470458 135.144119
11.916550 -8.444101 116.371040
0.316422 6.586532 118.359238
-2.605237 11.918895 144.620987
1.591071 7.329359 110.802223
-16.013731 9.332996 142.563889
5.311616 -0.301895 150.666107
12.852544 -6.679953 120.202980
1.452647 14.022851 137.346176
12.274395 -0.735084 114.267166
-4.539555 12.023396 131.247955
0.286321 -14.280352 133.361206
14.287096 -8.951345 136.046722
-11.014582 5.849370 125.815277
6.535025 3.371581 154.518936
12.636695 12.724740 141.333588
8.402478 3.683575 120.797127
-12.374227 -9.893939 128.586029
-14.677488 11.064840 144.778793
-1.534353 -11.718840 128.455414
-6.187115 -4.201540 146.511551
11.897149 -11.364435 128.000748
-11.185685 -10.025427 124.755257
-10.074055 -9.814885 122.464249
-10.392263 3.103246 111.314438
-12.643515 2.668425 151.910599
-5.290350 -5.511527 148.050308
-4.986840 -4.163861 147.156845
14.701498 -2.324455 144.440964
-14.061691 0.823060 127.782524
-2.054288 -14.784663 132.682892
-14.608044 -9.361569 137.607300
-16.066883 2.662311 150.949448
12.597996 5.457765 110.732933
7.210590 10.451990 148.997375
-8.370090 -13.013193 135.226410
-9.024599 -1.518788 147.789444
-14.872666 -2.847957 131.181671
12.781458 -9.026561 128.839432
-11.266318 -10.341658 127.866455
1.378135 11.285340 125.507408
-10.462015 -5.356287 143.155075
-11.926684 -2.229824 113.340767
-13.448978 -11.641989 132.885757
13.689999 -4.057474 120.993011
-6.430426 7.183893 122.195129
9.878235 -10.807973 140.147934
16.147785 7.315266 151.025955
-15.752073 2.389633 134.923508
-15.960793 -2.608424 131.906219
-4.882775 12.155607 140.128036
6.106077 -6.710005 143.877991
-9.881309 11.613683 148.945618
-4.090038 11.688087 137.058289
3.822891 -1.562709 153.016937
-4.501845 9.351575 152.605606
-10.084408 8.753014 150.768967
10.506719 0.641132 120.909607
-8.512880 -7.199410 143.135010
-8.672348 4.561728 121.635948
10.810950 -12.065548 129.777191
-3.997162 7.015398 111.347687
-10.478795 4.810532 153.947464
-8.805246 -1.333116 149.446777
1.221745 -13.702392 127.919708
9.608061 -10.698715 137.765106
-3.790912 9.351204 126.444717
-8.251120 11.158488 135.419174
4.529938 -13.650359 134.176331
-13.423905 -6.118248 144.211044
14.937247 -1.087650 135.898956
-2.113830 12.615420 136.666046
-13.213243 1.266452 123.419319
1.879990 10.947332 149.257187
13.445933 -2.219332 112.074867
-1.049954 7.578384 123.846252
10.499445 -10.874188 137.025696
9.599096 0.123516 147.914825
-7.766991 -9.515443 122.442726
-6.015387 -11.058887 138.482956
-14.715110 -7.249535 137.437302
13.794333 -4.215376 112.961159
-9.675991 11.249267 136.363708
12.461473 -2.764129 119.670898
12.033311 -9.313333 139.361908
-3.911360 -7.832664 146.035019
9.380467 -9.990717 114.077026
-14.518970 -5.680637 142.410660
11.157351 0.953518 117.597099
2.582591 5.647595 112.351189
-5.064740 -9.149158 141.228226
-10.386730 0.714946 122.350235
-3.856766 -12.131941 126.038506
-14.361958 -8.018571 134.201279
-1.858885 8.145256 121.210190
14.228017 -4.886405 130.221649
6.300920 8.098832 154.688202
-8.552410 0.351873 149.478561
0.477955 -13.750354 125.213669
10.323296 -4.053847 144.677185
7.300165 -12.784786 123.780403
-1.509227 -9.071798 139.507095
14.377337 10.036209 139.519058
-8.960985 -1.979664 148.004257
-4.699216 11.479607 146.574524
16.057695 -0.774859 149.056030
-0.136768 -12.376184 123.618820
3.387129 -11.374149 121.798233
14.267494 9.117847 138.460007
14.071543 -1.012216 137.985458
16.766897 1.046637 147.022430
11.645376 7.721631 127.579002
8.937073 3.167061 122.815331
-13.480761 -3.278172 127.371483
8.539289 6.222157 124.258301
-15.112111 -3.260765 139.962952
-3.176014 -11.878904 115.339355
-8.994883 6.898941 128.277451
3.063421 9.088070 156.110031
15.070006 -6.755090 142.514984
0.392627 7.707818 158.581696
2.971880 -11.693810 139.179504
-13.142099 3.777019 151.757477
-1.528693 -11.405375 108.720978
10.892803 11.807926 138.718353
5.400356 9.609942 125.584076
7.240077 -5.497202 145.239212
-13.791977 -7.122112 129.587601
-7.775746 12.356378 142.953629
-10.895520 8.817845 151.033707
-12.412049 -3.436752 117.399277
-1.577843 9.683366 125.945190
3.120907 -10.102615 139.231995
12.313652 -6.033462 143.309662
-13.371081 -6.334242 125.517159
12.530258 11.052981 138.806305
-9.713658 -11.968441 126.816010
-4.085027 12.226518 147.200485
-10.745379 -4.489382 143.258499
4.730445 -10.878909 112.730507
-10.381988 -5.311631 142.704391
-14.351055 9.752114 138.123444
-11.689986 -5.101736 118.768456
5.596527 11.426953 134.849579
-5.338918 -0.041854 153.721436
-4.026037 11.457705 145.879059
10.679106 2.666763 120.462738
0.932401 -13.798778 130.576004
-3.592256 -12.226362 114.112534
-6.038565 4.137699 113.682915
9.306590 -7.267181 147.115570
-1.642401 10.661729 129.996552
-8.816451 5.831409 120.349602
-0.809533 4.824127 111.804314
7.519365 10.980986 148.648560
12.099475 -1.016910 112.622337
-9.496155 1.340897 151.592270
16.913605 0.653640 149.415375
0.295091 -11.123137 114.589470
-17.477034 5.529324 136.921494
3.838111 7.668613 154.828888
-13.548999 10.139926 146.812775
-11.656951 0.480689 115.340256
0.754611 -9.914847 110.009972
-2.892483 -7.485530 144.820099
-15.439420 -0.735573 129.169312
9.386171 7.602597 153.418884
-5.960379 -8.440334 142.934143
15.240612 7.910624 138.916306
11.417279 -2.431910 146.413239
11.776871 -3.770251 143.226791
-11.850725 -7.794182 121.608284
12.474244 -7.118533 124.287804
-12.144032 7.623581 151.166077
-8.359511 11.271764 141.020294
-18.030058 -3.657807 138.727966
-13.271797 6.072835 128.133362
14.112734 -6.140460 129.259933
14.996082 2.006279 151.364853
8.788168 5.299393 111.183472
5.591340 5.978950 117.233566
-13.256145 -3.942304 121.482323
-14.893147 -3.566824 112.181084
14.372634 -8.449862 132.182175
11.472920 -11.366590 134.787094
15.504377 -3.137179 148.034286
-4.818531 -12.076332 137.059967
12.730309 6.989937 150.362610
7.470950 9.608589 128.598724
12.253783 4.927812 126.902916
-0.773249 11.061052 147.935837
8.202211 -10.736001 114.157318
13.885307 9.611951 146.767105
-15.699940 0.058891 150.059708
15.015134 -3.756779 137.102158
-7.845865 7.522627 152.675491
-9.765389 11.413830 140.232742
-9.718928 -1.415672 147.199890
-4.894760 -2.633378 148.356888
-3.313649 7.169055 116.846535
11.887813 -10.576878 125.306160
-2.005850 -8.168159 144.660828
7.468487 -10.883290 124.818893
13.245867 -0.220560 125.558083
10.285461 -9.236249 124.358269
10.368058 7.468474 152.446716
-10.605095 2.824910 151.954590
-6.059898 6.422091 121.113525
-0.964507 8.839744 156.611206
9.370459 8.456349 150.515701
13.868659 2.441640 150.837234
-1.800983 10.815036 130.452637
14.258514 6.547881 150.487045
-11.628681 11.375669 143.754791
-16.682957 -0.822826 146.641525
7.564915 12.909585 136.619934
11.167865 -0.127813 115.870529
9.645085 2.389506 152.597168
10.644440 7.670308 125.646225
-6.495224 -0.788768 152.408371
-8.959502 11.113645 148.056458
5.571024 -13.396108 135.715698
14.464454 10.335155 136.995270
-16.068127 10.496084 145.975632
3.591590 11.785651 144.684128
15.371456 0.382607 131.264816
13.220454 -7.723142 126.298027
-2.364731 -12.935944 127.758949
-5.647943 6.462668 153.190292
-2.637852 11.317336 140.493103
11.091061 8.559741 134.604980
-12.282910 4.811376 128.703888
12.214022 5.918610 127.605705
6.614537 -2.743279 151.190125
12.250277 -2.696248 120.779007
2.583030 7.528667 157.321609
-12.702964 -1.639496 121.265266
14.870609 -2.096200 110.471252
0.073305 -11.684162 119.874718
5.481719 -5.260908 145.871887
-6.322727 5.224450 153.010208
-0.245864 12.907216 130.774063
8.456462 6.288773 111.029343
2.064155 -12.865508 122.703354
-14.582220 -3.691056 131.382889
1.652422 7.915520 109.444153
6.165936 -3.976937 148.372971
4.423667 -5.429441 151.140823
-14.443832 -0.182647 126.351395
-11.965975 7.012480 127.542313
-5.533889 5.606972 154.658112
-13.432671 -7.054968 124.000572
-14.426968 -7.800277 138.465057
11.388654 11.578027 143.051056
-16.237253 4.883844 137.363556
-1.024572 11.368467 149.477158
2.051690 4.823624 116.292007
13.480550 -4.250872 144.361649
10.005263 -2.901580 145.892197
4.509867 5.052229 157.044464
-15.396413 -3.409625 145.160873
-15.059914 6.804594 133.654282
1.609301 12.356396 132.134415
-4.122268 9.950032 129.136780
-0.276720 7.050324 111.249771
-0.940397 11.427256 144.840988
-8.584565 -0.403631 148.077011
1.810073 -13.019269 134.468002
2.172763 -12.762674 129.562424
13.970152 5.548553 131.351196
10.386017 5.974197 109.707893
1.243567 13.290706 135.098602
10.357097 4.484299 111.170471
6.133265 5.613832 155.579407
-5.297825 5.401953 120.082275
11.194015 4.928444 126.550507
-14.428361 -6.012952 137.164337
11.277521 -5.298404 114.812614
8.986922 -8.841965 145.189758
5.741677 -3.749110 151.493134
-11.477491 2.104254 112.349899
4.678409 12.236630 133.909943
-10.303702 5.421935 112.022415
-10.288269 -3.581336 145.327393
-1.681297 8.278922 126.015312
-11.989065 -9.861790 127.091370
-6.480480 -2.291676 152.884445
-0.333091 -13.356711 129.267899
10.134815 11.473176 142.817474
7.899559 -8.654438 142.150574
-12.656627 -2.379693 113.654655
-1.422174 -12.145925 137.312134
-1.065252 12.434896 135.387421
-6.646991 10.645452 133.170853
-6.297216 5.729264 113.429550
12.289297 -6.413607 112.746536
-12.317157 -4.742441 121.142693
11.330780 2.439444 108.903709
13.505877 -10.640206 128.323944
-7.004738 -10.946388 124.269951
6.300619 13.689203 141.600067
-13.374735 -2.427257 128.367203
1.055006 5.642596 117.250259
9.896135 5.005262 123.423668
0.519667 -11.114339 138.653091
8.797106 -9.431843 140.674698
-0.781950 11.668017 134.248947
-13.026209 -6.862665 114.404205
10.167310 -9.600669 123.787392
-6.089484 -4.299119 148.752991
-12.917648 2.648581 127.713234
3.852679 -12.923402 112.056168
-1.836728 11.081185 127.128563
-5.300349 -1.424734 151.898514
3.815209 -11.211769 120.976799
-0.852142 12.243383 134.518570
0.047819 -12.466660 110.869835
-8.256072 6.364349 124.494659
-0.109221 -12.366317 114.816490
10.337517 3.741943 121.518021
-7.377828 5.874236 110.412216
2.105389 -11.543715 134.786133
12.292009 8.712656 133.047394
5.685865 5.103928 118.556198
-12.129456 1.999597 150.422745
-13.714601 -11.466007 132.595947
8.083962 4.883132 122.290077
8.825066 -12.634508 134.700363
-0.775845 -11.941481 117.147369
-3.628786 11.218338 149.980743
9.838713 -8.945944 140.312622
-13.378891 9.830922 137.370056
10.594608 -9.895617 127.863228
-6.926501 13.913167 138.308823
5.997501 9.460904 150.219940
8.811998 6.620834 124.855354
-0.564860 -11.996774 117.029633
-9.143821 -10.617286 121.747147
-3.868482 -3.235669 148.565140
14.260139 11.240309 145.328705
-13.767235 -3.413300 145.703217
-3.530823 12.631401 139.082855
-6.916955 9.708808 128.061783
-8.569240 2.697226 116.506859
-7.307975 3.106053 118.053223
10.592414 2.201383 117.486671
-11.578557 4.989594 123.638405
-9.202938 5.258004 125.045235
-4.676696 7.353771 155.314133
-16.317532 11.405526 140.872070
-2.362124 -11.074403 126.773514
13.767057 -9.371260 138.500168
6.239196 12.736851 140.765503
14.703853 -6.464482 136.291931
9.878582 4.335416 123.380417
-5.710931 11.562067 143.667572
13.856071 10.593287 144.246185
-8.490879 5.297906 117.017113
6.265927 8.275935 154.732178
6.863739 2.887277 153.609055
5.265553 7.702820 157.064056
4.400337 -11.364933 124.096611
-10.591896 -15.118059 132.531082
-14.655171 10.549477 142.585251
0.513407 -12.093974 128.656708
-1.170825 6.757863 118.487404
-17.032911 -1.213458 147.009048
4.729231 -13.578697 132.598633
-9.193274 3.873751 116.471725
-8.505345 -11.971388 136.976120
9.801911 -5.804949 143.912827
8.575013 11.477478 138.050873
-9.158521 6.097131 122.986404
-10.800016 2.095059 152.329300
12.305350 -5.504816 110.360771
-12.634618 -1.290189 128.245285
-12.770763 -5.962833 110.522690
12.789684 -4.718040 127.984810
8.055795 5.642861 155.247299
-2.639894 9.573009 158.886703
1.610537 7.217910 158.343292
-6.201808 -5.448313 149.628540
-15.426064 10.281466 144.823425
8.703378 -13.470804 132.898331
-12.776995 5.866801 128.036240
-15.214828 -7.506433 136.134293
-7.425289 -10.944634 119.693626
-7.963378 -0.361948 153.867554
8.398161 11.645700 135.168457
-10.449865 4.519403 110.683533
-11.879967 -2.997900 113.840248
-7.556902 3.197552 155.260513
0.773187 7.103573 122.173309
10.789526 -8.403357 124.037163
-7.572437 -3.078639 149.529343
15.032866 -6.643243 134.917099
-4.808590 3.102107 155.202957
3.052911 -8.494537 145.251434
-15.449755 -0.976033 136.161301
-3.253888 8.179939 156.567215
-11.117103 2.809450 120.998932
9.510986 -10.435084 116.132874
-9.703853 7.110565 152.464874
-7.747818 9.681770 150.673965
2.805856 -12.323808 126.350922
-6.387276 -4.799256 146.874847
-14.806533 -8.076528 133.282135
-7.867391 -0.553742 152.054565
-1.186068 8.194167 156.254364
4.054067 -11.990479 116.240822
6.491155 12.428490 146.724121
-14.276624 -7.591865 136.215302
-11.681409 5.208682 126.998375
-11.510131 -9.226583 125.898994
-0.045598 9.055639 126.383530
16.095219 8.001870 136.825974
11.566354 4.711174 127.097725
-10.326896 2.017766 115.109779
-3.101243 -7.964323 145.879166
3.533868 6.417280 121.991119
-14.716731 -2.026757 111.441971
-0.198982 -11.030216 111.112000
7.936778 6.877260 110.226021
-5.393394 12.482708 146.442490
-1.940390 10.214156 126.211227
-7.092547 1.626147 153.358963
2.447455 8.187145 123.269714
9.574097 10.532806 148.045609
12.393862 2.063636 125.425896
3.734643 -12.049612 129.795029
-8.819700 -10.583927 111.689232
12.844418 -1.999972 119.684830
9.766912 1.926368 119.260155
6.975227 -12.542186 112.984261
5.802914 4.685831 157.785858
-8.043380 5.850855 109.766380
14.019264 -6.836339 139.724030
10.300502 7.288498 153.568893
-4.455281 6.349607 124.839973
3.491647 -7.592157 146.990128
3.115138 6.279920 118.972626
1.508007 -9.780012 143.198990
13.786634 -10.223746 133.846588
8.473463 12.468424 144.875153
12.311764 -1.250406 114.404160
9.056215 4.356372 112.539207
-14.063086 -2.325345 111.131920
-15.161329 8.024287 133.287994
9.982867 -7.109058 141.636368
7.490216 12.220480 135.922073
-6.357259 -10.581721 138.684036
-7.844888 3.555999 150.921600
-5.680360 5.561257 156.510284
10.790179 11.596909 135.633072
9.071729 11.071078 133.032486
-7.968841 3.802859 152.890137
1.232483 12.476267 137.962189
-10.583361 2.796942 121.102219
6.244664 -13.036592 131.683914
-13.273256 3.164214 151.115250
13.159356 10.762389 144.839417
-2.627935 13.333426 139.329407
4.525897 -6.374892 148.313309
-10.697550 3.778961 123.205666
-6.861203 10.622032 133.643417
14.486804 -9.648627 138.386154
0.996197 10.541334 148.221878
14.066795 -3.567231 135.824524
-6.827801 4.885871 152.778214
-5.573582 -12.972190 134.461411
12.397987 -5.247871 125.011681
-8.210298 -13.701742 131.340530
-6.705366 -14.097673 128.231735
14.966280 -3.978602 140.225098
3.354635 13.274735 136.600739
7.878060 5.701892 122.497513
-7.925063 10.894382 149.247208
10.477815 -8.582623 141.741043
8.002990 3.146570 151.796432
0.925337 8.168097 156.152908
-11.177719 6.286237 124.975060
11.443760 6.738141 125.977341
-6.162545 5.548399 119.760429
7.146330 6.977797 154.163010
-6.165414 7.121623 155.749451
5.885973 10.282724 129.469437
-12.751262 1.051995 111.771385
-2.409294 5.056094 115.116409
-9.527263 -4.565902 143.781082
0.083549 11.556008 143.559265
-15.216070 -4.161783 145.597717
-10.712057 8.516833 150.456482
11.811340 -0.690119 121.016640
-14.012351 -11.311599 131.921143
2.113244 8.836670 157.306488
-3.405764 -7.752810 145.924561
-12.585789 7.260611 129.355164
-16.283163 -5.375137 140.202179
-16.654400 -3.171787 145.251678
2.979397 -10.001841 143.160965
-6.233685 -9.296234 140.740784
-11.711848 -8.027555 139.057663
11.332924 -1.595476 116.846718
0.905251 -13.948594 132.763718
2.979115 9.299912 125.235695
-12.537849 -5.675600 129.289978
7.708416 13.823986 142.110977
-13.987564 2.027302 128.983017
8.250243 9.383672 149.921402
6.287234 -11.941810 117.800606
13.984826 5.931459 130.004654
0.348853 7.902248 152.985565
15.981861 10.819402 139.841446
5.804307 10.982874 150.682037
11.444277 8.605007 127.147888
5.457217 -11.262485 116.307671
-12.099807 11.869778 146.728195
9.736259 2.238707 152.325211
3.238299 8.828012 156.411148
1.688287 12.906073 142.909271
-8.831668 -10.426454 116.836578
3.234888 -11.854415 136.820602
-15.288892 1.259893 130.342224
-13.020744 -7.693177 123.232658
-15.236558 -5.555109 142.307404
4.681268 -11.437421 116.459061
-8.843307 -3.336938 148.358200
11.307762 -8.636431 117.087875
-3.348115 -13.445370 131.319321
-11.736530 4.098981 153.042831
4.938407 11.303275 132.936554
5.004529 -10.541238 116.283943
-2.580227 -13.654676 134.352203
-4.715089 -12.083228 126.141029
15.313653 -1.225598 133.956177
2.414536 -11.648404 117.720474
13.249191 -1.356707 113.649994
13.617444 4.554918 128.541550
0.709568 -13.873087 109.198105
1.693930 -11.806398 120.553246
13.042036 -0.980212 114.605553
3.402777 8.580153 156.245178
-3.521272 6.876863 123.536827
-9.948342 -9.047621 116.079407
8.876305 11.653846 147.389175
-0.920093 5.982485 117.482094
0.942049 12.394577 143.142868
-1.366255 -12.924580 113.940552
11.276913 0.007669 121.305054
15.318464 7.486404 137.449524
-9.742105 3.704458 113.385536
-10.650063 -9.106346 120.000038
-11.396567 -0.871116 116.529274
-0.668566 5.037664 117.747559
-16.701397 10.336836 148.659027
15.849877 7.993394 136.571426
-13.124498 -6.927886 124.339973
6.093931 5.619041 112.417900
-13.583822 7.503416 133.257278
10.482343 -8.862511 125.362335
-14.213725 -4.752254 127.282967
-15.614102 -4.502563 139.434738
7.326674 9.789669 129.806259
9.667726 12.302981 137.798157
8.110556 -10.573675 116.405075
-0.582400 8.360855 108.736740
12.152354 3.344036 110.703842
-12.982769 -7.222613 127.078529
9.112288 -0.011992 149.542984
-16.729418 2.846096 135.583023
6.208949 2.909905 154.120880
-9.890429 -9.520832 137.799332
9.925503 -3.551360 146.178635
17.405050 3.586763 135.569412
7.528459 5.491529 110.922195
-10.528585 4.416610 127.177635
4.362566 6.145091 120.582710
4.045624 -11.619437 118.859070
16.390022 2.977160 150.860550
9.775461 -10.185370 139.092667
-0.921191 7.732900 155.509109
-3.409227 6.152086 114.807281
9.423416 1.790383 115.836304
-4.506200 -11.865928 137.397217
4.085867 -12.002884 114.087791
2.537312 5.334956 111.224319
-0.149959 -12.463907 113.429108
-10.641752 -9.832542 123.142418
-11.358353 2.012625 150.031876
-4.745503 -2.651356 150.613556
12.559957 9.733067 134.624725
-2.490256 -13.195993 116.427063
-10.197872 -4.472769 144.198898
-10.828071 -9.184186 110.384758
1.126694 -12.240539 135.407333
-14.095153 13.177356 139.830139
11.850518 -1.026214 122.251060
-14.628904 -6.080604 136.570053
8.374856 -8.761775 139.436249
9.139301 -13.302089 132.428253
13.874915 -6.683449 138.082245
9.928859 9.980871 133.622528
13.732804 -8.426400 140.458435
11.026381 -11.154405 129.353058
13.956648 -1.491653 148.334137
-7.803456 5.611865 151.526794
-12.040514 8.200693 134.728638
-5.785174 11.069237 150.234177
-6.201815 -11.439510 107.383484
-15.981294 -1.072049 133.310928
5.180180 5.448676 157.438980
-14.188234 4.891618 127.637589
-6.771915 -0.318059 151.057312
5.679536 -10.814427 114.541550
-7.622239 -11.870195 111.774193
8.951706 -7.766831 140.253326
-10.306932 3.971114 112.869843
-0.502650 10.751220 146.736450
-0.506701 -12.623051 121.692276
-3.473765 4.759697 115.825996
-11.417939 9.598718 151.262375
12.600012 7.798268 151.174606
-14.136027 -1.329455 147.713135
-13.131052 -2.773035 113.501816
-9.309137 -8.574134 116.723198
-15.475462 1.966258 132.562851
-13.212282 5.226686 152.490952
15.123422 2.061731 130.097244
14.184657 2.859225 110.259331
2.824908 -12.156757 114.279518
12.988091 8.838218 136.703293
-0.454631 4.781128 114.165146
10.072233 11.336894 141.040497
-11.682321 1.750643 125.827965
10.162112 -10.643678 111.523277
9.700199 -8.402133 113.315323
14.188814 -3.447873 128.373993
5.069417 -11.667423 137.822098
-7.473510 -8.803381 143.336304
1.097535 6.191255 113.868927
13.201412 9.904480 148.703079
4.803827 10.081452 155.021133
3.002935 12.114214 141.089798
-1.653003 -12.174356 123.788208
-15.754845 -4.706931 144.488739
0.795252 5.159543 114.979332
-7.416395 10.515617 149.242889
10.802524 -11.607156 127.568169
-12.954414 8.405006 135.339691
-5.105330 -10.901495 125.461380
5.291718 -12.492288 126.850243
12.366594 0.283258 123.844261
4.158000 -12.721612 136.430923
14.623612 -1.673190 137.343506
-11.669337 -0.503479 117.940933
1.218786 12.005963 139.345001
-14.216693 -8.589012 137.828278
-5.974878 5.234767 156.153259
5.728585 10.896364 127.391449
-7.607250 -1.924151 149.956543
-10.626993 12.101592 136.307724
0.618004 6.553386 111.982895
7.500718 3.436294 155.183075
12.609276 -10.760149 129.587799
-14.274462 5.492721 152.037811
-11.864874 0.552264 115.057205
-10.834413 2.103881 121.710846
-11.780209 -8.165499 140.353867
12.104084 0.125179 119.805702
-4.007288 -5.450944 148.458450
13.478690 -3.388249 112.643608
-15.437915 -4.476409 131.209381
-14.259763 4.894154 139.778564
-15.296700 4.846827 133.554245
-3.577016 7.732585 155.318481
8.198817 11.225387 148.631699
-15.081956 -1.280048 136.404251
11.658145 -8.819596 115.783997
-14.721649 4.542199 133.649292
-9.584496 6.337746 153.219864
-14.733512 -2.054501 148.016800
-1.830834 -12.421102 123.011673
-9.903596 4.763855 112.339928
5.361731 -0.409787 153.145172
-5.951741 -0.264957 154.033630
3.904728 12.445506 135.235962
8.436572 8.818163 151.309158
12.931621 0.516641 110.203033
-6.953786 1.716303 152.988586
4.688860 -13.794518 133.353333
13.014828 -4.377594 119.237144
-6.904700 1.937577 152.386292
-7.944726 -10.596068 125.910370
3.587972 -6.143905 148.579056
12.202102 -0.270965 148.487839
8.201856 6.818448 125.584541
15.529852 -2.706147 132.982300
-3.473772 -12.244527 128.638916
12.316268 -3.329694 120.929527
-10.394188 9.186818 131.623108
-1.627939 -7.412392 144.317764
-7.325446 -9.136063 119.141380
10.581449 -7.351422 117.333954
-13.132071 0.480668 126.757187
-4.542763 -7.572701 145.545532
-14.786637 -2.312809 140.267487
0.635718 -13.287963 125.227455
10.479984 6.959015 130.142303
16.102173 -0.336179 134.974167
12.245651 -4.779298 120.654228
3.569367 -10.955464 122.912529
4.220056 -12.221346 118.717232
-9.522512 5.959603 151.315140
1.723173 12.964018 131.898148
-3.824775 9.756158 130.232437
15.288261 5.730043 131.675369
0.292659 -11.864575 113.118637
-6.180143 -3.667142 149.845764
-8.422327 12.839106 146.312958
2.963215 6.898446 121.573341
-12.018700 -0.349041 149.690155
0.256244 -12.417035 133.062759
12.909113 -6.485774 108.974014
6.128360 -2.388048 150.342331
-6.296334 11.702972 147.006683
-11.506517 2.331788 110.822899
10.912663 6.175530 126.287575
-1.870846 -11.163980 116.041061
-0.347253 8.828639 124.969315
8.605791 -14.234622 135.646973
-13.597522 -10.939219 132.171906
8.990334 9.639141 146.635651
-8.620626 4.112036 118.975166
11.995220 0.492874 123.271538
10.335366 -7.753897 122.147362
-7.601830 12.957456 139.356918
-10.987788 2.663222 113.600021
-11.069664 6.971696 150.414658
-1.028069 -13.931052 130.964966
9.889685 1.138629 116.177658
4.615150 12.466407 148.106781
15.864322 8.954825 142.350830
-0.457560 -12.872422 113.053940
-12.655350 -6.907006 119.370522
6.617079 10.813674 148.556396
10.061955 9.023523 131.533997
-11.586650 11.842829 139.682968
4.621572 -11.646826 120.343811
0.778429 10.862844 129.513733
-6.995728 4.507804 115.336891
13.212613 -11.663889 129.671265
-5.146174 -6.343616 146.639008
11.769917 -6.550680 141.031708
-5.581306 -2.784674 150.358475
-1.195625 12.628520 144.307373
-15.584307 -3.532217 130.096329
8.192184 6.123731 153.679672
12.584075 -3.187379 127.635277
8.885508 8.917439 128.933701
1.208007 8.581412 158.314468
-10.523833 8.814969 149.337021
-12.387493 6.451746 126.136597
-4.781686 -1.921849 151.004105
11.678277 -11.352715 128.687119
10.190742 3.798292 121.414337
1.288176 6.615679 113.272987
-11.465962 -13.212317 134.397797
-11.234654 7.117579 127.298592
-15.271068 11.334315 142.803528
5.742083 -6.134074 149.393280
-12.311294 2.940360 124.116081
-13.833699 -5.737838 138.316925
-5.347027 -10.197005 139.144241
