ply
format ascii 1.0
element vertex 2048
property float x
property float y
property float z
end_header
-5.241786 19.044905 25.504753
24.601570 -18.852213 6.668626
-8.896210 -0.923384 120.424927
-5.608521 0.730666 13.428120
9.504736 -8.007822 68.162285
-21.241438 -1.667726 33.427315
12.220548 -5.847519 10.695194
10.745328 6.785437 27.404818
-16.504005 7.571731 66.425293
10.599278 -4.840533 86.098000
-8.176582 -12.449786 84.116096
-21.645069 1.717206 28.744846
19.600965 1.982195 76.563156
-19.795725 0.807383 55.256607
-3.616462 -15.263530 143.681808
-21.026428 1.094320 51.913612
3.978802 -9.154073 126.185448
-8.290510 16.495243 35.912628
-17.084133 9.224315 63.545216
8.488026 -2.668168 -0.401511
30.167942 4.669505 30.360085
6.862838 -13.439602 121.052238
-18.854359 -4.729500 65.425659
-6.411117 -5.781744 142.582626
-16.987896 14.157818 42.852692
34.512848 4.021370 7.647760
1.821617 7.606995 25.357496
-3.970012 -7.316523 122.500504
3.885685 8.853615 3.958660
22.874384 2.017853 89.950027
14.032601 -15.150179 15.900711
-7.954100 23.301760 5.757493
-8.230215 12.035694 45.158081
7.621412 -9.010266 106.214294
19.431089 -8.439181 187.807877
-19.194778 4.052358 70.132217
-18.962219 -10.510592 76.189247
8.588989 -7.812234 118.765778
-6.095824 6.704668 68.733109
-9.062928 24.948818 20.856421
21.406626 -14.818584 23.372736
3.874756 0.869231 43.979599
-29.539822 14.966023 5.642042
-15.324480 9.119920 52.318321
-9.477449 -0.062069 6.490190
-13.353515 -9.112188 58.929462
-11.955727 6.161870 129.378510
0.084071 -9.420363 114.310394
-24.982517 1.942107 11.631952
24.478506 -13.582613 25.505262
-0.157039 13.878907 143.871231
20.099449 2.878112 59.556904
-2.239584 -14.561706 41.225838
-12.087927 -5.831605 8.836441
-7.260060 -8.107864 100.412415
-11.891688 -6.782403 44.659336
7.334481 7.146835 110.332542
-19.069582 4.760806 55.474541
11.687901 -1.930682 125.175018
22.087715 5.432679 43.355999
35.408302 2.267721 8.735195
-11.393468 -10.359160 128.826050
-19.466400 3.646629 90.541504
-17.731581 -2.985460 51.643578
-3.062630 -2.991540 37.023132
-2.003911 -0.613210 4.920972
-0.822292 -9.570469 35.317905
3.906707 -4.954570 60.127712
37.443619 4.036406 20.264778
-12.860821 3.543707 93.248169
-24.548500 -4.294264 41.534111
11.925978 16.615896 23.540705
-0.537589 -3.044055 49.819809
0.809558 -10.181217 22.401024
28.510460 -14.324914 5.023489
18.603294 17.110634 28.364954
4.735240 10.521523 37.947853
2.164484 3.150714 24.063570
-13.616979 -1.375668 48.934925
7.543015 -14.566318 42.023342
22.963039 17.037676 5.357643
-21.664984 0.893976 12.151869
3.129580 1.927360 1.765941
2.705841 -14.596941 42.750847
20.035608 5.848915 82.629837
-6.941160 -12.626698 11.672988
-16.043230 0.609947 1.005273
-15.075527 8.917887 24.583273
9.460489 -13.130147 27.184334
-12.950010 2.501956 58.368446
-7.335729 9.624850 102.840668
-4.459035 8.568604 84.666824
0.708095 -0.508801 24.546309
-35.668251 -4.008233 22.339163
0.250798 0.569476 42.169914
16.463568 -12.432922 78.465469
-27.538549 -4.110510 25.753096
6.390200 -4.497056 50.217972
-31.005165 -5.815867 4.472628
-14.642690 -5.232059 25.081991
22.232130 0.522419 168.929642
-18.833467 -6.976108 6.740819
-3.284610 -6.312244 119.444321
-5.153721 -9.984481 101.051826
9.526445 8.438910 102.407028
-26.777288 -5.537883 48.035553
-10.905739 -4.827223 56.079128
-5.199903 -15.519288 35.010899
-8.187613 28.361341 17.200315
3.090867 -12.567613 135.881760
-3.529490 6.862983 114.304398
10.119710 13.176750 57.099606
-8.564897 -14.678261 98.983101
31.645317 0.410133 1.051934
-21.698088 17.991846 14.012891
21.225054 1.868755 160.374252
-15.297075 5.245465 54.179420
10.590861 -13.401676 29.994673
-11.235479 28.091513 20.739964
-0.327017 2.012365 38.575993
2.593669 -7.849203 31.279499
-12.451015 6.934690 14.369276
41.969234 3.360142 11.357281
37.846813 3.220845 24.285473
3.693089 -11.601368 -3.792032
19.752169 11.707195 41.565434
-7.100557 -4.482975 138.171326
-2.123895 -16.056759 26.376501
21.542856 -6.799485 -0.251623
17.982685 -12.995896 19.744663
-1.588578 -10.653791 98.298660
12.295568 1.849817 117.670258
4.282099 -9.858047 9.627789
5.531902 3.908529 10.022301
27.622622 1.686678 25.090504
-3.833626 17.276524 45.524982
19.872084 0.310161 148.867142
25.764954 -8.749497 15.175370
10.300097 7.240134 18.036915
-8.107054 -8.587658 83.350113
11.864483 4.261904 105.856499
-13.004093 -7.715610 91.552223
-9.992405 -7.909911 22.283873
-15.853168 3.096133 100.381844
6.715927 -7.532897 47.970966
-7.492471 22.965338 24.721336
-6.355702 -4.603418 22.844547
12.056667 6.395069 69.596794
-13.317971 -10.294752 97.386314
-7.631449 8.902261 40.151001
-3.084666 19.008659 32.033619
-21.307850 -3.245578 87.663864
11.796329 6.366447 55.560387
-12.559986 26.526733 24.333441
13.313547 -3.538366 137.484665
-0.550320 12.985463 134.653625
14.564976 -8.311591 149.077393
-5.694814 12.358497 87.922928
-5.189156 -12.159292 107.025330
-1.113031 8.128345 110.125824
19.671432 -5.953700 77.482063
-16.871613 9.139350 9.338274
5.411470 -9.601296 117.611565
19.683456 9.255416 47.542553
-32.993393 -14.135200 16.832621
-3.151888 -10.500403 71.659821
-14.303136 -2.365093 42.708759
6.275785 -5.192417 60.643623
7.620872 0.694170 4.899455
-24.790260 9.336405 22.028435
-13.346129 8.990911 142.499512
-20.927162 3.846512 64.614723
-4.212738 -4.398942 54.996010
13.968012 -16.268087 10.490403
-18.819880 -2.133726 92.275024
-12.701223 -4.373255 16.805553
28.661167 7.456313 9.105334
2.205832 -8.788479 71.441833
-21.359070 1.450107 68.686768
0.746174 14.999257 7.186923
-7.219436 8.016866 118.626312
19.104057 10.614064 36.852451
-17.013752 -3.132607 28.044531
30.860846 0.620402 39.252174
-17.791908 11.685948 13.243421
-12.467796 20.098455 20.033852
-5.049831 1.678222 33.856323
38.600960 8.332673 15.388701
10.641192 -5.323252 114.019691
1.294421 4.647065 48.049545
20.309134 0.454710 150.294662
3.074849 7.303816 16.396048
-3.219474 -13.084491 45.106068
-4.243730 -10.796830 101.845612
-2.641593 10.954213 80.498230
20.500532 9.237222 69.057632
-1.087539 9.480326 5.862382
12.789735 -7.719208 40.166264
-1.057899 3.117453 33.312706
-12.619116 6.815032 83.868591
10.533071 4.130131 11.991040
22.009604 0.248765 167.843887
30.941681 5.362657 27.549997
-8.758871 -4.203422 132.323914
8.853652 -4.851521 25.585278
-2.822320 -29.574013 14.888090
29.011829 6.871922 25.400618
-32.921692 -2.838190 8.219652
-21.440556 -1.846647 6.417035
-11.810359 -0.050612 14.616931
-12.861020 -2.974740 83.459221
-22.736010 -3.526885 57.703686
-1.297727 0.511296 25.177364
-20.467796 -1.251973 26.922840
-4.309206 -0.901163 10.695415
-25.684202 0.907149 4.909703
-28.491682 9.723377 2.213877
22.074341 1.494672 151.781952
-2.059330 -13.931608 6.315885
19.231672 -3.423976 161.799240
-14.232984 -1.417962 32.896191
9.473935 3.676319 46.931763
-0.167298 11.192030 56.015450
12.632623 13.125936 36.376442
28.008598 -6.665486 6.241527
14.992961 -4.649810 39.126331
-13.193294 -4.281883 129.931061
-0.589869 14.520966 101.919281
1.706145 8.967034 15.235084
2.561206 29.708378 12.583433
19.435490 -3.717352 41.761162
-29.748417 -0.155848 25.964638
-2.984983 -11.949082 139.483414
14.517755 16.012794 26.000927
-0.095697 -0.666008 30.733809
25.108065 4.561558 26.141020
1.875048 -15.741118 28.761398
-3.710957 7.708024 73.309990
3.613618 8.249307 54.533115
-8.449327 -6.423544 45.549210
-3.152138 -8.337672 46.642448
11.860142 7.024683 6.987772
13.059228 17.620266 10.900599
35.437386 4.741782 11.837453
17.761900 -7.592556 37.431431
-34.259750 -15.545848 9.541760
16.377171 -2.306048 153.869629
2.505311 -1.127974 28.535648
-12.698653 -3.907807 49.398335
8.924266 -6.824932 118.916740
-14.633038 7.129790 11.987187
6.319958 9.210325 102.587540
-4.395219 -8.748099 7.859907
27.330750 -7.859838 172.930847
-7.425931 7.735731 54.189148
-2.468498 1.677542 5.108912
0.715440 -12.494158 85.770203
-5.721724 8.487538 70.682426
-19.653105 -1.002821 55.458843
-9.856950 -5.560054 24.870573
33.748695 2.570565 20.178362
13.685912 -12.775864 126.034470
-21.271101 8.460023 41.036816
-5.802794 5.418666 101.153282
-5.638139 -10.572074 17.407839
1.007227 7.155477 4.807315
-21.207653 0.447661 34.822948
4.575004 9.731754 130.514587
0.527525 -7.946020 76.299706
-23.718794 -1.079684 79.065865
14.912827 4.233613 57.719185
19.859814 -1.144122 51.611481
30.363602 -3.088635 31.049473
-13.171486 18.710817 17.684919
24.185129 7.193722 35.832180
2.958733 -6.430305 96.025162
12.213762 10.805957 70.259285
-14.053879 -9.195103 79.199615
-12.375862 6.008759 93.552574
16.013691 4.847064 99.904312
16.778831 -5.270974 153.687851
17.055788 -11.248036 2.628243
-2.658624 -16.057648 36.893394
5.889503 -9.753093 140.777328
25.398365 4.238680 44.622757
16.769056 -11.190804 31.071764
35.819019 -2.039523 4.453788
9.246655 2.536679 118.588814
-14.679980 3.487276 145.136353
2.236386 -23.385000 20.054710
2.412336 -9.636473 89.047630
-20.348059 15.455129 16.640583
-11.152590 12.823152 85.373108
-7.441935 -8.182377 65.705551
-2.421207 -10.927362 97.790085
19.136772 3.628791 71.350212
-36.616337 -12.124625 7.004698
21.796068 -5.524478 169.905853
-14.247917 5.445682 138.045288
-3.046940 30.520718 6.285284
-2.421154 -5.508749 130.676270
12.605915 -3.542602 15.750514
28.719257 0.891305 45.226517
0.318533 8.555943 12.755386
9.339293 -16.078768 122.974075
35.113544 6.261552 13.422567
-30.245953 2.324023 10.594400
1.673182 -3.674935 44.687248
-22.033497 2.277070 24.011379
16.863914 -1.589637 51.653908
41.183662 8.649380 14.463692
8.417179 -3.279867 118.393974
-0.751767 -11.238488 84.180290
8.755357 5.520255 18.345757
-15.869641 -13.010742 129.014465
6.466737 -18.913280 9.879258
0.474063 6.769281 60.057686
-8.894890 -11.901133 134.221878
23.740683 18.738234 21.808308
4.156351 -7.902296 104.697006
-3.574950 13.186916 42.977650
23.875767 -2.937462 47.887596
9.872622 -20.412691 3.920381
19.176170 -0.304738 54.485241
15.719605 5.751672 75.560692
7.979541 -8.574564 98.004120
9.188817 -11.009886 133.180450
-10.091601 -10.097457 134.677582
-14.746567 4.104075 108.995453
16.384268 2.691546 93.844109
3.120759 -9.043633 34.448635
-7.565586 10.720085 137.414886
-9.851559 -4.612150 19.724867
16.698004 6.326786 96.268852
-5.712192 -16.286045 9.208438
-6.109612 9.339804 95.679245
-16.398966 2.956859 131.308990
-12.805058 7.592124 97.055008
15.217953 6.390486 104.366577
6.613709 -5.091068 17.748972
10.711951 -2.983385 14.319111
-11.058320 -10.399156 39.926605
17.767443 -2.903333 88.243698
10.916558 -2.991733 9.336491
13.893378 -0.941390 121.763260
-9.576021 7.077912 24.065247
-4.757019 -10.585983 103.231094
22.048861 21.132126 5.625674
12.270458 -10.482759 67.126610
16.219435 -5.327853 140.232864
-6.011150 8.996007 33.633797
5.109406 2.883214 115.895020
1.108800 -0.339543 139.748825
0.887781 4.379715 12.164970
-1.513542 -4.410912 39.842960
8.730844 -11.033854 34.957809
-5.457693 -11.221560 121.707886
-20.313864 4.420342 47.468323
-8.027746 -20.759089 6.203207
16.079079 -17.315073 1.758902
16.224474 18.484802 14.283631
17.239613 -4.693851 158.217804
13.571838 20.330215 22.205397
-0.430850 12.473893 8.400311
18.526724 -0.794935 69.818375
1.349011 -8.483531 95.568314
13.030490 -5.589443 139.393890
-27.998302 0.651530 6.268157
-3.830336 -1.438646 9.269935
4.186043 -10.430474 71.993942
-7.786414 8.172667 48.858345
2.611918 4.561890 130.199219
10.550455 -14.057454 27.669096
-4.574538 6.891855 15.101182
-3.438287 -10.037189 16.480728
12.948775 7.480296 103.032913
-1.062142 -5.394738 54.711128
23.686455 -11.557024 78.484680
4.108628 8.683975 127.665894
-40.762238 -10.517119 10.661059
21.358746 13.380155 32.707947
25.681795 2.766155 32.208462
4.271440 -9.393551 94.583336
12.166687 4.882585 114.406601
-1.221828 -9.265486 47.319458
-14.289218 -10.512677 81.584724
-15.402404 10.562699 51.265736
2.140255 -20.773165 26.022387
-4.946730 1.675426 25.190580
-9.151793 -3.867511 39.296925
43.765442 3.609205 10.678956
-12.583171 -7.286463 6.966859
-12.308566 4.115528 131.772400
26.013988 -15.792961 4.274400
7.683669 8.196823 76.825089
0.345344 -7.229838 141.644394
17.491951 19.988829 19.699629
14.817080 10.900876 8.113994
17.504715 15.674304 13.460502
-5.696181 12.405691 100.022896
-8.981498 -8.454698 103.920204
-6.858919 -8.816336 119.083366
-8.043571 0.359194 135.400101
-16.744011 -4.909353 121.650139
0.884858 -12.522328 26.074749
0.354650 11.642554 8.885261
-2.945523 -7.668756 67.772293
3.965238 4.983313 22.905411
21.030298 -4.978118 162.912735
0.703660 13.173232 28.900377
14.556158 9.016628 105.303261
10.684793 8.589252 8.290853
13.908693 16.313097 14.477201
-7.415384 6.528296 76.595886
1.405252 7.746857 39.369469
-25.061584 4.560760 42.405655
9.895181 -0.724209 18.785015
-0.757060 23.001463 35.460655
-31.471121 -2.668834 20.791080
-17.578922 14.167408 26.456892
-20.589163 3.204040 62.278954
-0.111856 -14.291616 36.961823
37.307796 2.099185 16.128887
10.619605 10.529624 -6.017764
-13.175925 8.745726 19.426975
-9.198315 -4.970129 119.979584
13.602692 -9.694183 95.128357
-11.905825 5.336204 16.425537
11.144569 12.681026 38.290257
16.420107 0.509559 107.317116
20.264957 -4.605967 154.381332
-20.086981 -5.700929 73.866905
-5.469337 -9.683287 9.795061
-16.742458 0.768505 17.075054
-0.555205 22.059065 30.433674
6.941681 9.757854 126.042824
14.979498 9.294645 22.331224
-9.801767 8.925332 102.134743
22.745237 -2.752710 164.252457
-14.963549 14.425932 147.171158
12.132013 10.584004 96.639114
-14.988877 7.433144 87.751534
0.782722 3.918754 11.306137
-4.903270 -26.539572 8.231060
10.854994 -13.516845 75.131531
14.847898 7.099802 95.718193
-16.035692 2.468313 64.924393
20.721710 14.410531 29.957743
-29.375433 21.385941 8.102006
11.008995 -8.394806 21.503918
-23.875090 15.669695 10.504979
1.924226 -10.603518 111.999199
-21.014795 4.260127 37.622723
13.335935 0.037766 108.852455
-1.335779 -10.247859 11.535607
19.777277 17.965948 18.032389
-16.964325 -4.114573 46.089958
9.215811 1.870066 12.162430
-12.625069 11.379932 32.584373
22.377628 -4.072922 187.344513
12.282807 11.554672 92.158829
-2.087103 -7.900957 39.887489
-3.143795 9.023416 14.520071
7.814312 -16.765665 29.478939
6.122371 -1.807811 42.865746
12.964416 -7.379451 118.304207
-3.104980 -9.263399 119.979507
13.853886 -3.982056 53.221985
19.960115 -13.625254 29.391897
-13.070681 10.016550 42.260109
-1.586324 -0.906577 36.606529
6.905449 -1.331138 33.316475
1.726071 -22.844814 34.831657
25.784559 4.036529 20.902636
-9.333559 12.269367 49.360519
-3.600824 -13.584238 19.632568
31.740984 7.603758 5.753031
-20.272640 -2.872708 51.662106
-7.206042 -9.393946 7.480043
-6.516820 -18.841515 17.193695
-22.942722 17.756720 6.808546
-2.959372 17.377220 5.902079
-7.060831 -0.318160 19.322817
2.148501 6.722062 66.244415
29.295954 3.707789 32.888630
-16.444828 6.630820 73.374207
3.949042 4.140844 16.438263
13.639843 -2.355790 16.386028
2.867514 -9.150120 24.110220
-3.354563 -9.292303 19.557755
-1.740032 -23.658150 21.137661
-5.827790 23.745531 13.102291
-10.365354 -4.280781 18.751167
-3.070791 9.160480 57.954292
23.436357 20.540668 14.649961
-20.026043 -6.050443 85.319763
9.147401 -12.024696 47.081581
-0.279656 -14.143888 80.612930
14.516668 -0.031299 112.050987
-15.250491 3.878508 130.599335
21.334425 5.535575 87.313293
18.659683 -8.929009 85.238350
-26.544628 -8.766343 33.657879
28.046656 5.512036 31.230711
-1.603138 5.772880 19.063465
-33.519951 -5.985104 19.368090
-38.628895 -9.570860 11.830726
-20.987930 10.053357 33.262386
11.253220 7.612121 19.113441
13.187561 17.245853 4.391665
-32.083778 -9.607643 34.765968
-16.786356 0.067400 87.409470
21.897455 9.709197 33.047390
-32.229935 1.382094 9.696131
11.239099 9.618658 49.739174
-32.131851 12.965022 10.009847
1.951649 -6.034203 60.246017
16.881935 -15.773400 15.555978
1.114697 -10.005024 139.391388
14.830936 8.925370 85.397720
17.821276 -3.963748 83.820023
18.768129 -22.872879 0.224119
16.894579 0.580928 127.167892
15.174167 -6.803837 103.055031
6.295485 -10.740046 119.318588
-10.497559 7.457046 40.713394
-2.533999 -11.151812 128.596130
9.180467 -9.047520 36.707844
-7.841536 -4.560517 22.771946
3.168950 -1.323357 59.543907
7.798130 -5.598307 29.046579
-12.428105 -2.737231 32.090618
19.519209 -3.882120 92.498009
22.453348 -2.716987 49.834980
19.664463 -19.370075 9.456028
20.734695 1.688405 69.284821
1.771939 -9.724822 11.463495
10.361339 -7.801056 19.030338
-3.869767 22.540266 29.876554
9.762859 -12.056455 14.830016
-7.123816 3.596069 4.528462
-9.682071 17.553427 -0.122163
-16.873476 -4.245440 68.564384
17.626474 -5.341756 148.735001
9.290071 -11.371473 130.191956
-32.515316 -0.718519 6.946159
-18.087059 -8.019901 83.905807
-8.507426 -8.525852 124.381424
27.966743 -0.187157 40.300117
16.715281 5.634197 -4.003901
33.742599 13.744149 5.028603
2.099121 2.300683 13.742128
-31.311689 -14.328886 4.520453
-1.660078 10.445933 41.891754
-2.149265 8.704614 39.501366
21.735878 -2.253204 168.221756
-5.070849 9.053617 61.059101
22.008144 -0.072688 190.174835
-7.530101 -7.537975 118.738220
4.608670 -23.634439 19.757273
-27.022196 7.211643 31.461742
9.972790 -9.466429 26.364033
1.302986 -9.196961 97.012550
-0.607872 12.885215 18.779509
-0.474206 13.905489 25.879438
13.320189 11.194533 48.794289
40.328236 7.177909 11.138206
9.477801 -6.619387 117.559250
-21.683044 -7.329441 60.636021
-10.947287 -4.262197 141.069611
8.270876 6.537490 8.758063
-29.099455 -1.388328 4.270260
-7.608591 12.287582 85.648987
31.304918 3.532470 2.573591
17.626369 -11.824660 19.459553
9.766281 -6.930866 68.212036
44.214783 7.090113 17.254274
-13.073315 -4.770412 112.343559
11.639053 -10.955002 19.568630
10.838986 -0.909703 113.303787
-3.432464 6.795859 36.190094
4.258867 5.550898 54.845993
-15.207868 -8.946126 59.775356
-4.167440 7.355268 118.738365
9.317615 -4.409240 13.936730
12.019916 -6.756742 120.029854
9.155629 -18.921627 9.043954
-2.493742 4.917216 55.230576
-8.653916 -17.211182 3.118485
-0.870911 7.971872 12.546264
3.933745 -7.560192 63.188950
0.613699 -15.022733 132.272263
8.042957 2.554812 31.911522
6.201472 -11.639244 52.006374
15.767493 -6.261338 106.911568
-31.081524 -6.122918 19.334625
-23.760448 -2.429098 48.116341
10.245350 11.364913 29.613230
13.230288 -13.500422 115.929878
30.731627 7.324275 6.514401
2.987916 -6.129331 14.962193
-25.497442 14.763675 15.671555
10.253167 -4.364590 118.108566
10.619847 -1.700522 63.081326
-20.665497 3.184097 77.204895
-2.582613 12.416707 14.153037
-22.997709 15.519872 11.128560
32.835262 2.332570 24.041502
-17.925037 -7.672294 56.672153
-10.606021 5.626565 120.841751
6.521719 13.719543 122.811035
3.109543 -7.737582 41.317429
8.143238 11.356463 45.555588
-4.796085 5.016376 13.614653
-26.073359 -4.920031 34.322151
3.171570 -17.969885 26.294065
-2.921506 -14.398906 16.211082
22.301373 5.125285 51.646629
4.168132 2.938838 120.274521
3.486824 4.203876 20.047443
3.756267 6.412123 27.840799
19.165417 -2.746216 89.321526
-3.500947 18.184210 12.439845
19.335039 -2.658724 181.270981
34.358555 3.145783 14.230686
-12.457026 9.494847 34.684608
25.074932 -10.818345 10.854790
3.064625 -5.480695 38.691532
35.409401 4.550536 20.166567
19.243488 7.170013 94.086365
-2.550598 -6.824399 60.857803
11.258050 -9.989184 34.765644
-31.997700 -4.826509 28.906805
33.326122 6.386706 32.401035
25.385967 0.859686 51.592552
28.607525 10.978611 32.509914
16.639935 -1.628499 90.024338
9.230957 9.331907 44.495209
-8.437545 10.703091 84.532028
-16.605637 10.117662 15.488238
4.037720 -8.260255 59.697197
14.196274 -8.065207 92.211975
22.259624 4.099298 48.733295
22.411024 -0.518362 151.781906
-11.517612 -5.245600 59.739925
5.445334 12.704307 88.379707
24.246201 6.834099 34.354218
-18.868744 6.020733 77.972130
-17.691628 -0.887473 42.291378
-30.434906 -9.619005 35.026863
28.847517 -13.327774 6.233112
-10.394120 0.318241 12.911123
-7.893979 -30.275215 2.581951
0.079177 0.369185 24.461946
-26.148479 12.509042 22.558722
8.187860 -9.274324 110.535583
-28.267260 9.974362 21.015751
-5.863248 -12.051772 26.815590
-23.603149 12.765402 20.041477
19.153618 -1.484136 168.123764
3.672184 0.262715 34.526390
34.278969 -8.528559 6.889268
17.888123 1.700716 179.977142
6.011231 24.340435 2.014857
-15.389967 -6.829102 128.693085
-6.430812 -9.310989 118.807014
-7.700986 10.429047 59.914978
-23.420576 8.747478 41.319839
8.376608 -5.783669 100.156601
7.763630 -13.534467 20.204363
7.044083 9.379786 85.625366
5.657791 22.223782 10.423528
23.750359 0.344692 173.677719
0.903609 2.500631 116.448807
25.026035 -11.836262 11.104197
18.612913 -3.884642 149.224182
3.095315 -20.705023 15.890914
31.135981 8.258388 14.283100
19.550749 -15.266463 12.030259
2.845297 8.499949 4.973891
-19.236729 0.415099 67.461830
19.977102 5.826677 46.435505
15.382818 5.465272 67.651665
-25.812950 14.160228 21.523121
-10.085979 -10.940169 105.544785
12.275076 -12.718042 26.306963
-9.759245 18.952793 11.247480
17.181335 -4.867378 127.419281
14.939663 5.758998 105.700661
-3.139663 10.810637 132.997711
-8.246558 -9.315698 75.912544
38.890064 7.686715 7.460531
16.791153 -0.917784 60.790730
-0.949635 11.355201 24.367998
15.634537 -6.696127 75.926888
30.132793 7.947162 2.256894
6.298949 5.633417 71.705345
-4.295868 21.170963 9.502422
-6.427149 3.673451 10.028748
23.424671 8.182027 39.452003
-7.612955 -9.948059 116.501854
-2.790026 -29.217529 10.963199
13.021759 -10.966849 49.717464
-32.134499 17.594734 7.476260
-9.750315 5.787419 14.989974
-14.890821 -7.265173 40.780499
-24.341999 8.079370 49.336117
9.535777 -11.941477 17.572479
-4.572054 -5.286520 17.172457
4.834330 -7.336177 20.457760
7.789149 -4.099563 13.543444
-34.877571 -14.373825 12.037032
6.144993 4.237176 5.351912
-6.518167 -4.824706 23.241953
29.557161 8.657120 1.305282
-3.790908 -6.698544 43.808338
3.364904 14.162887 35.711380
-27.811367 -2.359655 3.805547
20.225197 0.423434 171.421677
24.802780 -2.532677 33.672691
2.310518 20.007561 38.849007
-8.564435 -6.758071 33.467010
22.725315 1.187433 159.835754
16.045149 19.926962 26.257551
-1.428339 12.428210 59.330364
-4.280918 -14.188266 5.255645
-31.845549 -2.820006 6.046904
23.307465 2.491193 168.887909
24.941328 -8.198139 34.152569
-3.449946 11.472444 96.349205
-12.538410 -7.987218 6.195856
-0.496778 -25.263954 5.639205
-14.175350 6.962971 127.383095
-37.272396 -12.683900 10.143801
-10.164405 -5.271081 119.166618
13.914400 -8.968072 48.977734
11.926055 -11.645321 96.433090
-2.047413 4.470922 16.988054
22.315046 0.675398 52.437454
0.430462 12.271570 102.164459
-5.618194 -3.321226 137.571930
19.033432 0.974595 63.002499
15.207883 -3.911536 69.953613
-8.073685 25.892302 16.107918
-0.712679 10.053685 78.609032
25.066292 15.925869 10.547665
23.231594 -12.812639 29.515318
-14.063387 11.626227 48.287502
18.098173 -0.505290 165.227280
1.454838 12.148965 85.485695
30.032457 25.683235 0.885806
14.102059 -15.908607 3.364466
0.530429 3.394030 38.317131
9.130301 -13.989168 9.598907
-3.502767 0.808872 17.543692
30.976515 4.376151 28.212227
16.987946 -8.807108 29.927984
-23.946617 1.444231 48.400940
24.010286 -2.538137 178.698303
19.056036 12.963461 32.807739
33.065033 11.302482 16.024475
5.471378 -3.434955 54.134468
-30.979807 -1.029258 17.854759
-11.589807 6.846498 129.089371
10.543884 -10.459112 71.047058
-24.593456 1.316696 43.802792
21.805964 0.527771 75.616356
-14.117421 5.946680 71.335930
13.105626 -5.431122 54.620930
-16.032314 8.009058 90.733124
-26.617718 -0.109475 16.090029
0.943641 22.559669 32.333382
-8.667594 -8.690084 27.501057
-14.728897 5.751936 95.265617
-2.659873 -5.286608 142.950378
-3.408127 -13.682260 6.227676
-13.077488 8.350839 6.964023
6.460771 -6.167933 24.086227
20.280924 -0.509921 150.289825
2.695078 19.307827 30.749422
-1.898565 8.967485 58.813759
26.424141 -5.309408 34.154339
-18.972445 11.839202 35.271088
-0.191071 10.340299 91.555061
30.100559 7.122115 15.495070
-7.592349 19.137890 11.699619
-7.923380 -19.166670 124.282349
-30.338570 0.544155 25.817959
12.541541 11.430562 97.230042
-3.587429 14.454625 34.769596
-20.715479 -3.541441 7.245427
-29.616652 -2.238879 13.332885
-10.149019 -10.429490 110.795387
-1.152359 -5.488005 94.808060
24.993080 6.811464 32.641464
-17.112499 1.730237 154.703186
-1.490854 -18.291252 19.413017
-15.043530 0.272505 102.453346
12.984472 -3.916579 118.732384
-7.831781 -7.359047 92.931152
-26.918299 16.550924 5.552012
1.615813 16.501829 7.966667
-10.246734 -3.487345 140.104858
-13.078034 6.092565 126.289314
-14.848898 7.796405 60.372456
11.207774 -9.784869 110.759300
-7.607264 -13.575858 6.065018
-7.536136 -7.710220 138.524948
-8.960968 0.515807 12.929650
3.287611 -11.450058 40.423641
5.157577 11.026952 69.617889
2.613852 -16.694424 5.340538
-2.935870 -11.708761 52.455338
2.547444 4.203959 113.971428
16.195150 3.359514 99.345490
-9.991011 -5.880043 17.764963
-38.010551 -14.076912 15.925504
39.895786 3.491565 15.024204
-10.078000 -5.670942 10.763201
-35.408325 -4.972286 9.603264
-4.897081 -7.642082 22.814724
4.214168 -8.989474 71.220009
15.270323 -11.522372 21.309177
-5.891250 -21.782642 5.284494
4.732445 11.902881 90.407585
12.076982 -10.783260 31.370443
17.496038 5.396406 57.430557
-8.093358 -7.160629 42.830318
32.440182 4.827373 14.215402
-8.164337 2.175058 31.957741
1.829865 -9.271297 138.393845
-31.023819 1.693530 4.806855
16.068087 17.367496 29.515835
-1.112946 -7.928106 86.256821
13.707282 -8.877522 132.756714
26.434385 0.577706 47.711861
27.522503 -3.647497 7.357552
0.971931 8.304351 12.925277
-1.652671 -21.901054 26.524080
17.470303 2.163305 80.108521
-16.236494 -5.139346 -3.023657
-8.666954 -8.998956 132.084473
-2.530782 10.039955 130.199814
-27.022106 -8.986448 29.886953
8.775789 4.300790 11.067825
17.321642 -17.242800 10.034614
22.489954 11.925352 30.658335
5.890288 -4.397077 5.577081
-7.028568 -6.376719 99.378532
-4.941367 3.385697 116.895889
-26.353233 4.303895 34.130058
2.481430 21.001625 29.112921
0.479227 18.317614 27.102825
-4.988077 -14.167113 6.565093
29.758062 4.523285 35.700840
-0.765132 9.698726 37.337730
-13.068811 7.563562 39.320255
-18.440805 -0.542764 66.149033
5.708666 18.896437 11.057672
16.808052 -11.675827 98.497879
-13.794540 9.248630 82.277710
-13.211679 -3.981413 136.540100
7.259912 8.571476 26.566816
16.039444 1.447713 48.832176
-11.386982 -1.523109 9.621778
25.155336 -13.814219 17.423773
27.447668 7.095617 21.130085
1.813712 -9.014199 35.919727
12.696634 -9.724072 109.474922
1.291259 7.614931 7.019425
1.717189 13.709246 37.243885
2.084149 0.990098 8.427288
-15.434939 -15.921561 92.144485
43.569546 -0.023966 11.041435
-5.240135 9.691937 128.250732
15.141002 -14.110929 25.303583
-26.578344 4.668608 33.178623
10.821850 -9.338079 116.656746
2.866901 10.536317 39.097534
-23.413893 0.070890 11.455589
-12.213882 11.255694 17.106319
-19.088829 -1.379844 76.990715
16.063581 -8.928667 139.048630
-24.200029 -0.424410 39.252026
8.849558 5.560946 112.815742
-7.922062 12.383681 42.905487
-6.499240 -9.229881 37.386169
11.254186 -3.996911 120.130737
15.869802 -10.305562 89.606819
4.137173 -11.227861 104.766296
-31.972713 -0.849858 21.654922
36.389202 8.387802 19.147106
13.178267 -3.334645 121.725273
-13.485926 -4.901204 16.855457
-4.618119 -25.919262 11.494337
21.268257 1.827066 147.205566
25.509207 13.695625 15.773842
11.118510 -9.220012 42.763573
-16.122009 14.946067 136.452667
0.801905 -1.847910 41.796432
3.836340 -16.559122 27.976305
2.308590 2.393278 16.830883
-8.017012 12.972265 95.742508
10.785022 7.890499 72.213211
2.897976 17.091307 28.010134
14.364405 6.424534 60.560089
20.061508 0.613403 68.832886
-16.965418 -0.051766 132.573441
-24.369944 5.857202 34.431110
-4.984084 3.758320 21.731277
28.277929 18.611917 7.895601
6.195366 -3.300066 57.050938
19.858818 -6.572993 15.074520
-24.953150 0.159713 43.017796
8.610119 -9.394636 35.395557
-9.927156 -12.716245 24.825962
1.648392 9.531985 76.299675
-11.543801 8.557336 102.502769
-23.341534 -0.424955 37.908203
-22.175770 18.538118 -2.947021
5.693401 -11.963893 93.624084
10.197271 7.858293 66.321762
14.032070 -10.521450 109.471069
-10.405590 6.307729 39.408260
-5.784666 3.317786 49.200645
14.942608 -0.619423 116.916519
-29.776499 0.547798 22.418766
-12.262695 -12.445704 76.333694
12.597837 -7.963630 139.989426
-12.976151 7.332533 19.713184
-13.520064 -10.142262 92.460312
-19.595463 2.036439 61.454407
16.933401 -5.638613 96.311890
5.087325 -26.448593 16.966593
2.073298 10.134703 44.756161
0.359898 8.062133 16.012714
-25.346260 -3.149576 51.400723
-9.458562 31.899971 11.513473
-0.650503 6.636163 127.999535
20.078157 11.862655 39.602245
-30.828722 2.747440 14.620482
8.969932 -6.836899 42.464275
-23.453163 2.496834 59.103260
21.121521 14.896181 32.950008
-5.752256 -9.542894 14.245158
23.893059 17.443518 6.574939
-11.165998 -5.281633 8.379802
-4.438126 -7.737395 65.501480
-9.212148 18.089108 26.188454
-4.577900 12.513749 37.815491
-22.020403 -2.131323 37.767944
-14.653710 -1.144535 10.358053
-21.902607 -2.393122 67.395561
17.213409 -12.670047 89.223106
5.134229 -9.493698 86.087929
-31.058882 0.818163 4.413971
10.054284 9.242707 92.544426
-27.658077 1.931960 9.870007
33.471535 7.314444 7.042402
-9.344137 1.833056 12.462805
-3.495257 -5.606750 22.135376
19.032915 -5.537241 133.824493
21.941765 0.826385 183.941376
11.802598 -3.635401 67.349609
18.898336 6.577955 68.207016
20.532183 1.391690 67.046997
-0.566543 -8.963104 49.753155
-18.421898 4.669948 6.790898
-1.153037 18.528339 29.973457
15.683312 8.072900 96.835236
7.210110 8.239579 24.304728
19.884466 -10.928504 35.838829
-33.267059 -0.637252 7.401419
3.981144 3.019726 21.172941
-1.521389 8.412251 119.965858
7.775233 -11.771306 122.366714
-13.372502 1.658174 106.300926
15.799842 -11.782463 37.663071
5.469434 13.294049 40.673717
-1.671651 -9.834054 77.581177
22.498037 -3.091257 146.219086
-2.879858 0.185745 45.068008
2.187910 -6.603384 40.818188
-15.699264 -13.069070 89.734558
20.161263 -7.784660 145.464706
-10.996630 9.898398 63.676735
-8.102197 4.686613 29.102047
5.462029 4.861747 8.029849
4.053741 0.972238 25.156069
1.982077 8.660227 70.435616
27.027294 6.446581 45.978806
20.508183 -5.179502 81.811684
25.536495 8.693713 19.899124
-26.200562 13.928867 20.628313
-8.550375 -2.468956 15.086119
4.177237 -12.119106 123.969284
-13.545639 -8.255823 119.085121
-36.976974 -9.693434 2.368336
41.537472 5.635757 12.668432
-28.465775 -0.167375 17.784851
15.163793 -10.457802 129.524323
-5.721931 -6.953817 10.741867
-0.600384 -8.910980 47.728111
-19.626308 -10.739667 78.626198
-13.571247 8.826200 31.919743
-15.990644 14.739736 34.685047
31.807083 3.301344 18.282673
1.527556 -6.462587 52.903622
-27.674843 5.147062 12.035287
-14.614380 -1.830186 33.805035
18.061386 -16.368263 13.575868
-14.639537 13.236670 34.707085
21.625175 -0.933096 178.704895
13.275287 -4.567517 118.662125
-17.029119 -5.164236 105.448692
16.893003 17.427828 16.126898
-15.236969 7.256402 66.450294
10.472718 -16.195940 9.305767
26.304522 3.387711 49.541988
4.835627 2.330400 17.694714
-14.264890 -6.401214 126.246803
-17.179031 -4.104191 54.839096
-25.147621 4.329780 14.721943
2.753999 -11.412772 12.805284
-5.431015 21.610157 23.695114
-13.153111 -7.066644 121.479965
1.253380 8.067777 82.375214
-19.252769 -4.945864 3.343696
-0.429376 7.348883 109.531464
14.508685 -6.802787 101.939049
3.535151 9.605104 35.637104
22.689228 -0.332861 2.614416
30.447933 5.376987 24.611662
23.884724 3.304160 40.514076
-3.288035 20.981747 29.221741
30.228210 -2.444244 31.594635
20.102900 -1.723210 174.755508
6.706364 -8.894053 23.202082
-15.870173 4.457473 129.768356
-6.989136 -19.455599 9.885690
9.879162 5.433478 22.377878
15.966745 -3.883992 178.219025
-26.144007 0.095776 43.074795
-32.026909 8.882147 4.035049
27.989775 2.557987 34.130814
24.566019 -9.283285 24.868536
23.127750 -15.290352 1.598411
15.969009 -11.692246 82.287231
-20.550581 11.057694 12.967706
23.919558 -9.237042 32.838837
19.400219 4.847545 69.427704
-6.169996 -10.635226 46.432850
-20.588810 1.112656 20.863441
13.011930 -22.193945 9.832354
10.066674 13.122735 7.542615
21.248062 16.191799 18.715494
-4.343159 -7.540547 22.977552
-31.600716 -7.862892 23.466459
3.503025 -4.145871 94.331856
-24.886105 -5.951045 28.359056
-7.450140 -11.504394 13.629887
20.818659 17.073547 3.015127
-29.665020 9.761620 22.343777
-26.755919 13.486927 17.966364
-25.580524 -3.406180 50.606564
-2.014567 -9.122260 27.060656
13.540736 4.108390 53.933231
1.705685 29.884100 28.494226
-13.911469 9.729339 3.772965
2.209537 9.596894 39.408199
-23.818768 8.357703 43.305363
-16.726627 -3.613877 54.202518
4.461583 -18.322908 23.013832
-0.979874 8.032749 123.166679
26.568569 -2.854296 164.225266
11.997036 9.388467 108.484825
1.053180 -23.829084 13.453540
27.240828 2.206076 10.549174
-18.477352 -9.667598 73.990585
-11.698199 -9.332152 11.824975
19.358719 5.388594 55.388618
-14.177107 -8.114290 49.214321
12.495167 13.098808 12.892636
20.432405 8.699544 41.415134
-24.474838 1.379130 15.899117
-1.416453 -8.203606 101.256836
-1.067291 8.054297 33.606724
14.683846 -10.679434 6.094393
-18.639486 3.597380 48.221260
22.780478 1.155388 165.934982
36.395981 0.235768 29.672895
-1.582495 -8.463494 80.453300
-12.669284 11.007183 101.327271
-5.415668 4.884340 134.094376
18.088675 -0.823835 92.871140
-9.600176 20.854935 26.954514
-2.765439 11.562041 137.086258
-12.153292 0.701721 121.149811
-4.403740 -16.373888 19.106510
-28.167299 17.995661 10.979627
13.135530 -11.149080 123.119377
-26.736765 7.816593 30.066914
-25.770395 19.844549 2.276965
-1.303491 6.832782 7.073334
-12.314291 -13.100817 86.320488
-24.883545 -8.244840 38.138969
-8.406547 -1.415138 10.038224
-10.272520 -4.725886 135.673920
7.288838 -25.867071 7.102404
-4.784954 -2.937836 139.839157
48.062187 10.544767 0.060536
29.508150 2.566224 14.197121
-4.483201 -14.922136 126.922173
-0.088547 14.618896 27.591633
3.542491 -5.495339 50.188286
-15.178822 -9.236790 81.278114
7.106005 -10.505303 39.712360
-7.849816 -14.854101 32.254379
-27.646973 -1.444635 8.530612
19.509350 2.312318 80.261131
27.996368 0.388337 8.047092
0.506447 -11.175220 8.411210
10.237581 -20.862310 12.643252
-13.757276 9.999698 16.561607
-8.871975 13.412029 94.484825
10.185848 -5.033482 38.154484
11.788686 2.672783 3.408221
1.561256 7.972351 6.192309
-7.235429 2.522931 21.740099
-32.062382 -3.787928 11.857728
7.473837 7.936533 0.581224
23.152979 26.674351 6.842928
-27.205296 -2.175866 12.328723
22.893024 4.301671 179.439804
33.101330 -12.996421 7.494647
7.886711 8.533644 107.679863
-4.533587 3.446030 17.903400
-6.459337 7.591461 76.930397
-0.858054 -16.862644 44.938374
-28.154457 0.467876 4.227386
-2.075495 -0.344134 16.444002
-9.034847 24.161568 18.575653
17.424011 -6.807744 107.374306
11.834049 -8.467959 69.049866
-10.908550 4.762766 129.606339
27.435211 1.588935 23.508791
4.171367 -18.780149 21.287218
1.911586 7.578765 28.619303
16.412642 -3.830054 143.259125
-5.690321 4.809057 44.015179
14.355513 -10.281865 119.047073
1.671788 6.885309 16.111528
8.814675 -8.940639 121.307594
0.390125 23.756023 22.157297
17.941528 17.738779 19.982269
-14.821435 2.838665 96.815353
-24.178465 10.846946 26.185154
-8.408640 3.928509 21.339289
3.472935 23.071545 20.097425
-6.004253 -6.552246 29.848337
-29.231585 4.700769 24.281397
-9.445790 10.144144 46.974594
1.238883 10.729812 96.399872
-18.414455 -9.788903 81.160835
-7.695342 -9.157489 40.707127
-25.587132 -1.617363 22.478855
-8.270842 5.381584 7.080575
-39.611271 -8.423305 12.293847
-4.738563 17.625731 96.632042
9.932467 -0.858131 109.875137
-16.415421 -10.899998 70.236687
27.546690 2.419307 14.906699
20.157866 15.908837 23.481201
-17.125729 -8.156687 47.961834
27.194139 -3.503798 6.096674
20.039795 -1.711236 147.373886
20.927696 17.854931 35.706608
9.176564 -11.457928 46.076424
-7.462432 -7.737667 119.598747
1.879357 10.558938 109.134949
0.969829 8.193407 20.203781
34.666004 7.317912 13.989289
22.665140 1.038642 154.003052
2.291188 13.178127 14.065648
16.670412 4.666894 85.564667
8.523236 10.176647 89.358353
5.277554 -15.724483 8.069455
-11.328661 3.741215 111.680534
14.890880 -5.103670 115.623573
-26.455509 -4.191182 36.167847
27.445745 2.256811 157.943085
-8.346157 -5.873076 116.581245
13.064142 -9.014768 125.408127
-12.728008 -4.877794 121.533775
27.923161 1.071801 18.679043
5.087389 -9.325379 26.967064
-5.744836 -6.255045 94.628983
11.428397 -5.878592 37.205933
-3.266765 5.153440 3.287284
-19.868176 2.601084 54.789700
-3.323484 11.420930 81.921104
-36.129452 -4.216864 -4.211296
-6.947458 -6.310346 48.128681
-21.540401 -2.816147 70.875435
6.035003 6.581306 26.574711
-11.960052 20.428692 17.821096
-11.642395 -2.726822 5.163349
2.010039 -10.091298 -2.262567
16.542986 1.191486 72.299652
19.054634 -1.938484 156.206116
3.206141 6.308424 19.364029
1.013631 -2.036092 11.164316
12.629728 9.306537 75.300415
18.125048 1.993676 102.942947
14.377536 -5.652632 138.400162
9.308474 12.898527 9.567354
-6.214475 -11.667830 26.720846
-20.936012 5.923516 28.817230
-25.958195 -2.663608 43.795105
-4.777059 16.265814 29.723965
-30.652496 -2.020713 27.307934
28.874199 11.847515 22.468695
-18.886497 14.072706 29.736454
18.389418 -5.771231 58.971764
-20.994928 -9.491691 82.503555
32.782040 7.658458 0.755226
-2.174180 8.750443 71.788506
-38.699028 -14.829200 10.335474
-10.723507 1.395171 11.821932
32.339027 2.386984 21.873734
15.657306 -16.987160 10.485912
23.473684 -0.450853 53.778496
28.070663 -1.960261 43.753319
12.274041 -10.222096 132.256317
-20.256634 2.231754 79.185028
13.084929 8.635660 73.938805
-2.659951 -8.563609 78.707298
-16.565872 0.768901 102.994194
33.390980 1.859657 29.970194
1.043758 10.004035 49.867310
-5.351917 -12.951577 128.369186
-12.467510 -3.360688 9.610258
21.609909 -4.422737 89.711250
-4.592478 1.080370 14.852307
-3.334557 32.700180 14.976957
-12.744941 9.218692 28.394424
4.545463 12.379564 99.054070
3.342139 -7.923710 15.990197
1.785596 28.870901 15.711885
26.732302 -5.117013 10.115102
-5.626007 -6.165688 138.155899
11.520425 9.327420 71.136284
-4.790534 5.163158 30.083151
21.671772 13.018611 33.684925
5.315701 11.733537 106.456116
-33.874851 -15.458115 11.876411
-4.510565 -10.859519 92.713501
-38.534492 -12.308815 3.280022
28.734402 14.783864 14.382293
23.889482 11.266986 10.926772
-9.419073 -4.322273 15.932590
1.152709 13.742946 86.514153
-9.387798 -8.998391 94.636131
1.336528 1.117708 27.682899
8.928401 -27.262754 15.647087
2.870679 -18.011782 34.247952
-13.944494 -7.578725 110.905098
10.426083 7.834346 60.829475
-26.161627 -2.112264 39.541855
5.917369 -18.190928 20.647966
28.345688 8.344744 22.401714
13.095510 -10.726586 42.412205
27.884735 -6.237265 10.857468
8.616760 -13.102673 19.210121
1.524999 16.242384 47.501007
14.539069 -2.043340 111.920258
15.962832 7.920297 93.079887
17.036242 -6.975871 112.065178
15.126944 11.052965 41.889603
5.586398 -12.689433 66.488304
-22.808485 1.540458 23.414516
8.575191 -8.729105 21.149202
-12.268104 -8.158105 65.198448
-2.520790 -16.516428 26.709003
-1.770417 15.202222 13.621884
-19.166098 4.933578 81.854408
-21.719835 0.578966 82.975708
-11.192011 3.485162 123.077431
-6.542302 -12.243001 91.102669
9.238150 7.019532 46.958714
21.850172 4.033307 158.376938
-0.420017 1.617178 10.612473
19.853378 8.831161 44.882534
-15.632352 -9.017743 13.453113
-30.539377 -7.595380 38.303989
-2.381531 -10.348866 18.546963
1.707481 12.460736 8.766889
-30.041174 0.369218 21.763008
-6.706521 -12.016543 2.086236
16.237736 -2.429233 56.779968
-1.776509 15.655603 48.041466
0.767006 -4.957393 49.813435
14.647504 -3.804253 152.833069
14.503590 -4.179729 106.791168
10.067223 -3.443760 123.224709
-34.210186 -9.014220 32.696358
31.289055 4.593519 21.658482
2.152247 10.526689 12.151300
13.781220 -6.630794 94.067848
-9.983624 7.801663 51.842785
17.240246 -3.654438 104.834183
6.128524 -2.757219 15.824842
-1.963935 5.340143 41.871849
6.430862 -12.414870 25.136503
5.501611 6.910070 54.573639
18.038391 -8.472776 88.346489
-22.840696 0.959909 16.936123
5.185383 -13.007392 122.149017
27.750370 -6.104556 12.610160
-16.171844 21.970045 15.448964
17.018307 -1.359077 150.760651
9.041660 3.243519 127.418030
-19.632582 -2.262001 81.025177
-6.695201 7.966671 138.608887
10.544635 -0.302323 121.167648
-8.320839 -7.626714 60.460880
7.354935 8.142981 43.846661
13.379943 12.919252 35.981441
1.214606 -6.550969 55.067490
-20.776945 0.530465 47.103363
-26.792027 4.972688 7.603433
-19.045448 10.315096 40.959572
-13.885942 9.629105 51.971771
11.520137 -9.928530 116.627457
7.772169 5.740439 11.531439
9.895819 -6.866540 119.650017
-13.305286 -4.894349 138.760666
7.919203 10.337669 27.883028
20.583826 -1.377123 155.155960
-11.778009 10.951159 30.641991
-3.255602 -15.326015 28.882475
3.378742 -7.043307 117.980797
-4.347134 27.750799 33.368774
-27.886114 13.206711 18.255861
13.521947 8.946584 76.628845
-2.440493 -11.438046 111.799355
35.843647 5.461862 10.919822
9.634252 -5.562347 10.971179
-33.370258 -4.826262 7.581654
-9.202003 -8.804758 67.250824
6.238584 7.060105 44.420250
-7.743331 8.555272 110.627388
-0.023740 11.896510 75.100723
-2.567508 -0.009697 4.080735
22.026590 -2.124331 176.697968
-5.946208 -9.015879 30.448112
-16.718857 11.766628 6.071555
26.954454 2.654916 163.603409
1.104096 5.095102 28.102299
-8.568151 -11.406548 121.329872
-1.150682 14.581215 39.904690
15.857855 15.203714 16.900721
25.398706 2.329705 40.976074
16.572748 -16.267550 9.030272
-4.714475 10.411400 69.950829
-16.740606 9.787495 87.565002
10.346354 -5.208186 124.127319
-15.621527 -8.118377 82.627251
0.618874 -12.689064 23.117399
-27.998608 0.813903 34.887794
-6.282876 4.476737 123.167702
12.807480 -7.270689 121.927948
12.739744 -8.238665 145.197830
-2.672360 -7.947649 26.907377
-7.200559 8.507107 134.419342
1.442236 18.191448 18.791616
11.688494 -9.909181 23.588671
1.482471 -9.858161 16.390001
-16.009869 9.229718 39.867752
3.139854 4.812803 113.646866
36.796196 5.983122 -3.689329
0.456810 1.887228 31.519337
-4.922180 8.922612 65.636261
30.095285 -2.580848 30.925920
-33.068497 -5.486300 -3.444859
18.851202 7.756409 81.700600
14.731867 -6.488029 126.986000
1.504725 -8.264017 -1.219795
12.965395 -7.601122 121.911186
16.858526 -2.686020 186.546310
7.180202 -10.266425 120.297409
-0.505927 -1.853630 11.090904
-19.906530 -2.688518 84.168114
-24.217638 -2.492834 43.324146
2.649372 -12.248690 46.799351
22.797556 -15.609462 6.826826
-9.831375 5.361274 112.620255
8.762877 13.841219 36.566315
19.509720 11.648684 44.541485
18.974895 -4.931410 41.521183
16.143599 2.553731 69.696884
16.688341 -7.295756 125.454895
22.315830 -18.027483 2.552527
23.370363 -1.663003 44.425079
-17.119799 -5.166358 61.905174
-3.005718 5.772743 85.200470
-19.135052 -3.300300 95.410858
13.022696 8.809793 96.718063
-20.309343 1.691436 69.841560
1.802462 6.515603 73.121269
-2.626316 -10.205395 41.355183
10.445884 -0.231654 123.921410
-30.584976 2.310348 14.548538
-7.446086 1.491258 24.696962
-27.498505 3.380808 26.715027
12.766775 -6.703191 123.579460
0.276774 28.247984 27.894712
-12.601390 0.421453 138.249130
-28.137398 10.878439 21.485344
13.235622 -4.345171 139.984802
4.105364 -2.926951 41.388531
1.062530 -11.829000 118.496048
19.234774 -8.548614 74.328873
4.816867 6.688420 45.417248
-11.406739 0.916027 121.028534
11.544288 8.131269 94.303246
35.076248 6.662918 13.349301
25.719057 2.937013 175.595535
-15.157854 -4.226744 120.758224
19.388231 -11.354475 27.713888
4.136384 4.741332 119.889153
37.839470 5.500408 10.329656
0.182709 15.904259 41.497284
24.392298 17.675455 4.463486
-1.483983 -9.098137 39.990299
-22.162962 9.254714 26.878119
-7.104893 -8.888311 115.094704
6.018323 6.310918 7.615197
28.970306 17.794033 8.569133
-7.429715 -19.848896 25.368122
21.222479 -1.540282 59.033443
-16.823366 -11.265738 81.441559
16.196461 11.253978 40.042339
-1.276730 9.673716 67.153221
-0.435271 1.574790 120.858658
21.604504 2.514529 63.790924
3.470396 4.165269 36.431095
-3.358972 14.359203 14.455262
-9.934135 8.486660 65.779160
-12.241842 -15.199650 2.885273
-5.265763 -9.993934 143.578934
-6.175782 -7.077734 16.262489
24.761217 10.667124 29.856142
-10.287217 -9.263888 78.473404
-0.628788 13.947481 100.469345
-2.250183 -0.056484 38.664314
2.486257 28.656902 19.337622
1.263177 9.238200 11.563024
3.827389 -10.802475 102.136520
-4.540552 -12.569085 100.950226
39.523113 9.984123 11.831935
-5.280783 -7.629819 97.436913
18.269810 4.878047 52.032360
22.169756 -2.766927 47.491096
0.032968 -14.089859 45.602543
-37.777550 -7.865957 4.039695
3.303734 2.778689 19.904221
14.214239 -6.069542 123.694336
13.790878 6.718707 57.852016
1.047042 20.634569 0.436584
-35.043129 -10.443385 22.857431
34.658699 6.281829 34.894909
6.547296 -11.658825 13.625604
-26.154463 -6.220623 28.193848
-4.869805 -11.845121 11.107324
14.530818 -22.754223 3.172107
-25.180126 -4.735761 26.173519
-5.345985 -17.476908 38.010990
-9.624999 -11.189551 140.995239
4.236468 -30.085037 8.873388
13.825822 2.666022 113.119003
3.526759 -21.673283 22.923286
-5.277160 -11.466758 32.767582
-13.461693 9.291718 101.222122
0.385287 -6.795728 21.832382
16.199808 -10.730656 81.493729
-27.587975 18.480196 5.748937
-10.057438 -14.506425 3.837143
18.078342 -1.775198 103.483284
21.929155 -2.276288 75.286095
-15.106075 -4.948472 69.910507
-26.836182 13.072691 22.094225
1.475639 -5.005472 29.157190
18.762644 -2.996856 65.658859
-10.481813 -3.528018 7.633998
5.172104 7.124619 47.779369
2.270345 -23.645950 19.740618
-3.489117 15.639390 27.145315
17.418022 -5.149124 65.343750
-13.023470 11.181854 82.930786
-7.452032 -10.454247 76.094879
4.379148 -9.693020 87.093391
-2.118777 6.064190 41.017422
10.826361 9.436014 69.331734
-2.544512 4.912648 21.203312
-22.489937 16.416664 10.342961
19.226728 1.982085 93.367874
19.159338 0.613357 142.651306
-15.246847 14.671887 7.306575
12.274531 5.937905 15.290469
-0.294759 2.940048 8.435614
26.577051 6.598902 19.921150
-16.152161 -3.694311 50.599377
-11.840304 -3.816133 26.053562
-25.399271 15.825249 7.183530
-7.392185 9.381268 54.778000
-10.314606 11.743362 44.366718
2.370174 8.785878 121.560753
-1.517207 9.276550 100.002083
13.991157 13.858029 39.201195
14.109868 -11.111191 125.112564
10.918140 -6.161470 129.615082
-29.837553 9.131174 6.011580
-27.063950 -4.635715 39.529839
20.763151 1.700708 83.789993
-2.430691 -11.226188 123.860756
-9.471739 -10.657107 107.252022
3.388081 -14.255499 96.491409
8.094931 -17.399921 14.534330
21.535547 -5.012995 161.635147
-26.843670 -0.163413 27.676954
-37.527199 -10.736549 5.693092
27.838123 12.363862 6.940814
-0.291214 -5.275226 94.858368
-12.979500 -4.112959 12.082030
17.278652 -2.126447 83.870369
-20.765127 -0.728593 47.175423
18.789366 -2.241791 85.410507
-25.590034 -3.634196 21.330465
21.080309 0.765207 164.725815
-5.401085 10.577339 74.314430
-2.238534 -9.965999 34.114979
24.642202 27.054628 7.531857
-4.027310 1.032836 22.698280
13.677152 -9.002671 118.874641
18.337210 -4.175378 180.242111
18.362858 0.056820 76.994377
20.745527 0.022252 181.881668
28.190668 -3.268051 23.017178
-1.285171 -15.717876 42.630577
14.440206 -13.944591 33.230404
-32.365738 -9.030788 8.585486
17.616352 -2.610057 64.485222
4.425723 6.261493 62.777897
32.551960 8.539106 16.959988
-15.069547 5.319511 11.778608
9.362564 9.052878 79.481155
-11.941364 -3.028192 123.845833
11.150420 6.013722 10.176582
-6.558617 12.100554 100.470894
2.705920 29.052500 16.118404
-11.436430 6.116717 17.454239
26.290226 -1.299338 173.050629
-6.690099 -9.026689 4.097404
19.666548 2.702235 50.691132
32.475021 6.327908 21.544491
13.901948 13.920945 25.830223
27.133379 1.752920 26.579578
-7.986385 -13.751997 26.624741
3.742837 -4.198862 48.391422
9.778598 -9.875525 122.322449
-19.217224 18.776392 7.568851
21.486902 0.989122 5.964919
22.016447 -5.409045 150.281021
-41.295486 5.044449 7.549023
19.230291 -15.782342 8.791575
-4.266684 -17.344355 37.988995
-30.590937 -4.715365 26.290987
-15.096223 -6.890798 72.161446
22.017746 -0.238739 36.377094
-18.722628 -5.991684 79.847313
23.049637 -1.152154 168.992630
-10.425406 -11.369658 121.979149
5.572287 7.585416 98.425468
-18.015308 0.257561 51.975357
10.828435 -14.293707 80.205132
-11.246826 3.045005 130.989334
6.456298 16.918959 13.174262
-22.497374 13.791560 21.149101
26.649578 -19.703358 -0.176931
-0.101505 10.018016 58.373714
1.590248 -21.064709 11.750554
11.820538 -11.182116 125.320061
-11.839975 -12.197605 126.828941
-13.458080 -9.673407 79.112938
-2.467330 4.271773 135.899231
-27.942083 -6.289488 24.365248
20.221153 5.898827 43.478336
-11.615431 13.835973 89.132957
20.995192 17.549278 32.680286
-6.283690 -0.625200 30.117603
0.967964 5.352812 19.923798
-1.202246 18.631233 47.503273
7.880491 -9.377389 36.104912
-28.141106 -4.968705 39.219078
-0.388445 25.139431 22.812119
-37.609856 -12.843588 15.947859
18.261135 -17.259113 4.172718
20.922153 13.962737 28.990622
8.474004 -1.219312 18.666533
22.273577 -9.848458 34.555744
-9.076452 -10.177859 40.428303
-34.230953 7.016619 8.956073
-16.728161 -8.767854 132.258560
-15.025960 -5.888819 138.487396
6.141266 -10.354830 131.384430
43.025436 3.898940 10.807832
16.038637 7.964664 55.588093
-35.155937 -11.926348 20.307913
19.265675 -4.535904 70.824867
23.022726 1.030245 188.312851
25.013815 -1.474731 31.782095
-10.975314 9.651360 75.504883
17.211544 17.737926 6.365677
15.646313 -1.916206 122.321144
-19.110218 -4.956404 101.870239
-7.511791 22.059475 9.063087
19.448170 12.831903 28.436998
3.779859 -17.474304 20.996901
8.418533 8.497896 70.348450
14.292048 14.484905 44.253483
27.294516 7.217136 8.047666
28.572153 -8.545982 5.121707
1.520104 13.203375 22.205477
26.426619 -2.974854 23.186260
13.425552 -7.424286 2.084723
14.784090 -11.516496 23.763756
0.130865 -2.812933 31.440224
7.642529 8.862064 68.300735
13.116140 -13.256483 72.864212
-15.574615 -1.030246 31.989656
12.550104 3.223798 114.430000
1.244075 -3.436819 35.278587
-8.817009 -5.797635 13.997016
26.647579 -9.690364 13.901471
22.761177 9.909052 33.889053
2.890881 -10.933305 88.378571
-4.248304 -11.444675 83.399643
-4.023419 5.483169 124.310616
33.124939 0.761749 33.210972
19.623529 -6.836151 52.654568
-0.868962 24.774130 27.009394
-5.131499 -0.159663 12.252104
-14.914314 -4.680841 41.822483
-6.523678 9.301813 125.635818
1.499614 6.756763 44.791080
0.473013 6.324170 26.733561
2.301438 -13.266583 139.015549
-7.701184 -9.219208 7.277010
1.095832 -8.821872 81.290184
-12.783785 -9.200861 48.780682
-11.701211 7.997840 67.776543
11.575968 -11.378814 67.757378
-21.512177 -0.218992 38.042957
-13.771072 -6.134069 33.160816
-17.326342 1.945217 63.522427
13.183731 -7.577228 129.786758
-4.619941 10.944420 -0.769886
18.678795 11.878479 30.974247
-4.019186 -7.463361 13.132398
-30.131983 0.765598 12.068270
-10.490352 -2.674479 8.041437
-6.416734 -3.587951 8.297551
9.504692 -8.612165 106.257599
13.040054 -3.026677 119.783890
13.328142 11.926664 5.891706
-15.196914 -5.330312 124.669853
-10.293556 6.085469 44.725666
-12.977093 2.282479 135.075089
2.045739 6.627487 114.289352
-7.140404 -3.793941 40.921570
2.275646 -7.729033 65.202499
-13.573506 -2.846513 103.443375
-5.309357 -0.014686 132.828644
17.105030 -4.193836 163.775131
-14.026812 -5.016741 24.074821
7.819952 -12.034996 101.800446
-0.613267 -15.541416 47.634365
-1.613442 -10.557212 12.863013
-13.644109 -8.024295 135.171600
36.269367 3.360116 15.880807
2.962205 6.729394 17.413343
3.388762 3.637609 118.671219
-8.840530 -2.155590 -3.910790
3.283617 8.319339 66.517967
12.171524 12.864919 16.603350
-5.511267 -11.618386 53.084316
11.020978 -14.653050 13.690385
12.221949 4.936455 103.526291
-13.296444 -8.177256 66.242325
-2.390647 14.901662 41.629066
1.792799 17.600477 38.547802
6.195196 -12.432880 6.165961
32.575188 0.324723 10.551259
-14.057247 -4.938341 137.065308
-3.172613 26.116472 28.715437
-9.622372 -3.538110 15.410487
6.636649 -13.308820 76.833038
14.860692 6.696303 65.282768
12.380087 6.688119 39.100845
-23.894266 14.315094 22.918253
-4.926240 -9.542248 56.104420
16.333719 18.914375 17.181271
14.914661 10.277086 53.494217
-8.111351 23.190542 11.863910
3.601669 8.988333 95.275101
12.906687 17.694000 26.612112
22.282501 1.379390 152.074203
-12.657864 12.060684 40.463593
19.322939 -8.152215 158.765839
1.962734 9.771897 8.857756
-17.528873 0.678639 58.240814
-3.353212 3.627747 23.994383
-2.869463 -14.573519 45.636383
-9.709438 -12.886995 18.103493
-10.352933 -5.639220 113.696945
-4.251410 -9.068605 57.470036
5.584591 -4.021471 42.644890
-10.444517 5.742740 12.635104
4.556064 5.805350 104.227219
30.705439 8.442255 17.273129
-11.721695 14.699450 15.874940
26.169174 14.955655 6.710114
0.134483 6.108789 10.379688
8.972332 -6.282320 28.618595
27.901083 3.580884 34.347034
2.193093 12.425986 8.857792
1.185660 8.759997 49.435417
12.652558 12.307349 32.951633
2.427159 11.054124 39.972317
29.813051 -8.761515 3.415134
8.139189 -7.007233 51.210041
2.464715 -12.188465 22.395931
0.986554 3.989306 7.836633
2.989562 -11.915751 94.994926
12.114545 5.677334 -1.720166
-2.521695 -0.172477 12.449226
-11.723928 12.134109 145.759491
5.144300 -9.509550 88.106621
6.177248 4.370840 31.023561
8.780604 1.066198 22.843515
39.186646 -5.877193 15.327132
5.108373 -5.841863 39.557110
27.416382 8.255696 16.726418
-15.849560 -4.560036 10.522071
13.512232 -11.584948 28.067017
-11.620411 8.897767 5.274325
25.424122 -1.305209 45.150497
37.840561 4.213150 20.181719
11.414021 -27.463404 -0.263676
-2.852109 -2.466561 40.463223
-31.456106 1.166884 10.857323
1.852207 -16.510704 33.862926
8.564365 -5.546741 109.673553
24.136263 9.096937 27.006033
-4.077691 7.198297 125.929977
-18.885891 5.836678 103.335480
22.103586 -13.092900 16.537283
-27.287449 -1.344416 43.368473
8.353896 7.240121 17.003498
-12.257607 -7.706847 142.540329
7.023522 0.078954 14.911016
-0.050463 14.989655 30.423038
12.966822 6.654059 4.979677
-25.024204 0.739379 26.217905
1.880044 6.715219 38.113262
-0.375867 12.081747 28.751507
12.949162 -6.558886 69.632088
-12.840094 -1.627543 48.221394
-20.919170 14.727690 22.268547
-3.389667 12.493620 20.384712
-13.174740 6.680307 101.271179
3.955701 -7.296862 57.029194
-1.139179 -8.878994 28.443665
-3.790437 7.285941 120.444527
21.695097 -8.188689 190.115479
-1.674704 -0.473231 16.003168
-9.791914 0.996526 139.034485
-15.427087 7.584940 63.996414
-14.860677 -0.948840 105.560684
5.241290 -10.301851 39.955013
10.851660 -8.125803 138.725281
31.316122 4.040257 27.971434
6.595931 6.462711 55.424767
-0.617557 -28.432333 12.584475
-17.188227 -6.988665 72.213921
-25.438074 -0.347540 11.853780
-2.943824 2.866482 15.118814
-21.132723 17.534706 7.814727
3.576500 -5.263207 -0.293618
0.388011 -11.275483 77.999474
7.757444 -3.897518 9.033168
-2.656526 -21.556341 2.718960
32.056793 -0.214994 18.336834
20.268074 0.075442 150.557465
-14.091489 -0.679207 139.250305
-8.354162 3.913846 23.172876
10.424046 8.556609 1.982605
-16.152603 3.963378 74.526810
-11.043584 -4.610642 103.988533
-13.018258 -9.301351 113.520912
27.731571 10.227169 11.083064
-19.864456 3.783859 84.345734
7.466204 -5.719084 32.277088
-0.568015 13.438704 41.158577
-14.749718 -6.038799 35.902874
5.122116 12.221299 33.497314
14.541287 -6.912907 39.495228
0.080445 -8.014577 68.360367
18.597395 -0.908538 182.323883
0.769349 3.121716 11.335726
17.158407 -14.308395 20.119894
30.656212 3.030418 20.886608
0.250884 9.126268 95.068024
9.181811 6.486982 5.993852
20.101997 -7.614258 80.178833
-13.264734 -5.948999 99.927223
-3.201327 -16.694750 15.264951
30.468969 3.824721 32.881157
15.902920 -5.982880 75.321381
11.056602 -7.574431 69.967812
-24.388233 9.817637 18.764137
-14.243729 -2.761926 144.103455
9.575484 -1.496148 25.238136
16.075089 -8.122345 48.113335
9.233108 7.342432 1.349887
-5.699744 -0.290379 50.096069
20.635090 3.559099 159.731033
-5.649280 -1.620321 25.868568
33.610207 8.184898 7.107228
8.523720 14.377667 6.419949
-19.982248 -1.166646 48.650909
2.089546 20.613125 36.564175
-17.318279 -3.430396 103.261009
-0.359058 12.805758 52.065094
-2.708841 -12.167005 74.424202
-17.774162 -0.372614 90.390770
0.476865 14.844465 13.866564
-24.072241 9.502307 34.669647
38.992413 4.273182 7.760648
-6.008738 9.421822 52.176163
10.009011 1.793192 9.958238
12.533686 -13.748175 91.926956
-0.261304 14.896070 18.702404
15.793911 -3.885109 61.504353
-10.773317 -5.441156 3.304992
-17.184256 -3.406448 31.850180
-21.139149 12.473443 32.968349
9.500511 -11.019737 126.255844
-3.632571 10.133595 77.055916
-1.766713 10.009186 62.515495
26.025692 -6.630004 21.975210
15.166317 -4.357835 57.992554
3.004707 8.292595 42.498390
-17.211012 15.350138 16.764179
11.617801 -6.923702 34.770496
23.847330 -1.882501 57.000790
-6.971377 -11.739699 104.923965
1.709236 -2.914844 49.773422
-15.561545 -3.587135 86.786240
8.824452 0.786079 23.382273
-1.529869 11.721904 131.986084
13.374811 -1.554772 106.724045
22.980824 1.556029 86.287712
4.075978 -6.481440 139.721634
-6.670185 -7.779849 139.624268
-2.193676 9.090425 128.787445
-4.354210 -4.259371 11.358490
45.065849 4.842949 12.807878
1.639092 10.873565 17.379984
16.942867 -17.313572 4.137682
-24.044842 4.852375 36.799297
-3.037691 -16.197609 28.667473
-1.603099 4.633012 134.843552
9.407956 -11.440414 11.611204
1.353342 8.343506 55.599010
-15.211452 -1.824701 67.300598
30.119904 3.847954 40.575459
11.909053 -11.146428 52.648087
-25.010111 -10.195018 25.074209
21.700539 8.673704 49.115337
-4.866506 -19.326519 34.367702
-20.812498 -0.975605 65.183388
15.928568 6.026061 69.829842
-1.717955 5.708270 44.100979
-4.471318 -1.148719 31.348558
-32.354771 -8.518035 13.755389
6.564096 -12.857417 133.130554
-15.189598 8.575073 58.966457
11.914965 12.951924 17.320490
-17.373419 -9.794820 108.467690
-1.428115 -8.336834 133.250778
-26.658403 1.515578 44.558285
-9.134155 -9.227161 32.172150
-2.113317 20.975323 30.973120
-4.238912 29.201933 22.457823
7.569620 -12.083294 88.202911
-6.081367 11.502963 33.390141
-22.463295 13.297382 25.192335
-7.780434 -2.079617 15.088759
-29.063719 6.024202 19.165169
-31.004408 -13.977453 6.596836
-17.749104 -1.368126 101.050514
-12.487070 12.378798 13.219849
-10.033829 -5.511467 117.619316
27.895546 1.820034 4.724833
-28.734373 -5.079544 38.705967
3.901839 -2.217440 33.989433
25.801592 16.122633 13.646472
8.088037 -3.341772 16.864557
1.175470 15.112377 22.381395
-9.710534 -7.558317 51.727867
12.202242 -5.731513 122.177757
-7.933680 21.123508 41.299957
14.593809 -5.774838 128.543488
10.248996 -15.134238 9.982856
-24.485212 -6.278000 37.079823
-19.754526 -1.600058 82.218597
6.686502 -9.693985 53.338326
-24.023813 19.401810 7.104374
-5.951061 17.762882 18.360348
10.284265 -14.765571 12.089821
25.582663 6.747037 23.033543
-11.118880 -11.391330 125.579407
-15.234297 -10.228322 93.301392
3.843680 3.218953 14.771594
-8.725001 4.860400 36.238888
-8.195871 -8.198264 114.983940
-38.081100 -10.699880 21.876871
17.138968 12.743283 12.080599
-0.660039 -8.548398 44.150131
19.198221 15.481991 22.856337
19.408094 -12.700477 34.768051
11.896901 -13.242600 91.879211
18.345928 4.270672 96.192635
-5.879925 23.565929 24.307493
-7.041503 -1.533171 135.579559
-34.812382 -8.568538 11.335851
-19.909853 -2.660765 60.159351
12.456809 -13.797874 1.867683
20.226744 -4.103237 90.308197
21.015945 9.715306 66.375748
-10.381871 -0.372346 1.909320
-3.834945 4.688380 39.459492
-6.880075 6.083295 13.960426
0.789377 25.116081 16.078203
-2.050506 6.226464 38.468891
-7.920517 -6.505340 23.401791
-11.316957 7.650795 33.304981
-1.808007 17.430157 35.711082
4.356807 12.595627 131.592545
16.748755 14.883397 46.499104
22.826073 -3.708126 69.365158
-2.261819 42.364323 13.232187
-11.156067 9.116647 10.810152
-0.612616 8.364918 14.043863
12.500169 -8.436789 47.966919
16.868668 19.870293 6.196521
2.791486 15.310108 100.143387
-18.116764 13.582038 19.261589
30.867622 4.440454 35.164871
35.152714 6.392439 16.831429
-18.485344 -10.181620 61.091213
4.126156 5.425241 55.199539
-4.081824 -8.758144 79.404449
1.278615 -7.262227 16.151333
-23.432602 3.212027 36.794567
-30.175421 -10.083041 24.457949
9.355985 -3.194946 14.024071
2.749653 -6.000342 -4.453833
27.878731 20.473803 9.863433
-12.659000 5.440085 128.857529
3.038657 7.101299 51.161926
15.943221 -11.299995 34.870876
-23.875620 -0.579826 32.195198
6.361693 12.079731 49.055763
-0.431479 -0.904433 40.833565
1.407991 -8.793876 46.802620
-11.038476 6.662519 71.947327
-3.678189 7.468973 77.805504
7.771946 8.062027 59.858295
2.864546 -20.743914 16.682394
33.278328 9.947604 15.674356
-11.278859 -8.035370 72.064697
11.400602 -0.471674 4.191895
-31.516781 -5.913312 19.206860
27.785812 3.854077 17.387074
-23.038132 -0.063365 40.769844
2.212104 7.471630 10.633436
-20.652267 -2.214200 60.050823
-10.993402 -0.128021 125.435181
-33.652409 -15.534256 21.584932
43.592884 6.063211 11.807231
-10.059908 32.623096 12.448979
-5.615231 2.147886 28.117159
2.524721 8.712859 17.308796
-6.893341 14.521369 102.129807
-13.165501 -6.887183 8.768644
3.580956 5.493773 61.308647
-13.394544 6.301694 149.064453
-7.588675 30.457640 -7.091882
19.298969 7.945080 48.925915
26.300287 -8.305617 23.164185
18.614939 -3.642855 156.739532
-5.070020 -7.110887 24.454739
-2.591041 2.301615 31.964272
41.701225 -14.517308 -3.365918
-31.258532 -2.310488 19.477058
3.562852 0.233926 42.105137
-30.078283 -1.578972 30.591572
-27.243721 -0.471958 41.536430
14.076594 -4.107978 52.235420
-7.564708 -8.161428 116.127312
14.292459 18.839800 21.381168
3.576177 -16.165018 32.334362
1.842309 -11.667339 27.107679
-2.625763 -9.566251 24.515882
6.460510 6.414413 113.478073
3.082328 6.190837 15.815580
13.032784 9.363445 34.381924
26.225901 -12.615051 8.923186
-14.316416 -8.879267 135.808777
19.640619 5.134187 52.838650
2.363120 -9.958044 19.108042
-26.280499 1.411378 47.113750
26.240971 8.565600 -0.927195
-14.853662 4.298626 114.345856
35.946518 7.080171 15.421998
19.542059 1.715033 86.074860
0.216102 -23.951527 25.372005
11.629004 -6.031084 64.992989
-19.961397 2.552989 64.392189
5.550842 -2.445675 22.652905
-28.941345 -14.929375 14.489779
20.913284 -0.766756 62.203030
15.776599 12.515306 25.627613
-3.975614 5.112813 115.181908
9.449279 -5.326363 118.360825
