ply
format ascii 1.0
element vertex 2048
property float x
property float y
property float z
end_header
-8.957854 4.216986 10.224599
3.746166 -12.202455 74.152390
7.300514 -0.926940 37.755161
-12.712802 -1.985979 19.542274
4.872531 -1.678353 21.091108
-11.464156 -12.553687 73.671326
6.317107 1.798828 59.292099
9.596822 3.813109 109.416115
-4.190912 -5.640832 54.471230
14.478026 -7.897879 75.675606
-14.437634 -0.825434 101.886864
14.307282 -0.174039 100.584877
2.730206 6.548019 82.233803
12.142241 7.235331 91.272598
12.727112 2.085453 94.123085
-5.549083 2.178645 30.136269
-14.295668 -2.264047 25.720873
12.985734 3.372325 80.893921
12.616121 -9.229692 77.021027
-3.731659 -9.552269 88.921165
-10.702096 -11.924680 82.413033
11.555145 5.452213 31.902464
-6.712920 -11.758209 97.513245
10.990705 6.089269 64.965759
-13.388300 3.951977 81.523079
-8.513367 4.215343 32.890827
-4.624496 5.441184 108.174141
-4.381130 -9.356503 67.182663
7.401422 4.195249 11.721498
7.494401 4.540017 103.542297
3.140533 -15.320158 102.236000
14.042813 -5.504403 52.144943
-12.092587 -9.277179 91.980698
-9.882557 -10.991739 93.869812
14.557972 -6.639716 84.823204
6.251890 5.944075 58.672565
13.176385 -3.063882 79.985580
5.622779 10.762767 92.858177
12.503006 1.530270 5.410104
-9.552922 7.891929 75.181946
-11.167863 -5.121718 40.607204
10.253859 5.528382 41.873657
6.518022 2.744311 52.686630
-5.783953 1.172049 26.487789
18.330788 -2.059529 31.575277
-8.498970 6.458197 52.080738
-15.602467 -4.401817 34.563671
-9.306372 5.687213 19.539368
-3.740654 -2.655637 51.780346
-14.044630 0.019774 14.561670
11.720407 -7.609180 106.076317
-15.008541 3.077786 25.838991
-15.010553 -0.622273 21.822542
13.095795 5.489209 44.330616
14.858404 -2.743225 40.329533
11.351350 1.873114 73.627144
13.552844 -4.642655 103.419090
-17.541540 -5.983280 85.307678
-13.276401 5.950939 47.579380
-14.413661 -6.545419 57.796227
-12.810237 -8.322751 40.411476
15.224284 -0.410114 35.421146
7.065689 -10.989414 62.894154
-0.568573 -10.378847 101.853500
-7.902929 -5.950801 39.963615
16.974506 -0.794728 48.449371
-13.785701 -3.714918 33.025967
12.333170 1.582601 85.680641
-10.869840 -10.215800 98.550430
10.307775 5.558738 28.579628
-8.368332 -8.716954 96.051353
-14.601073 2.794648 23.968533
-13.442271 2.907543 65.564873
-0.390308 4.607927 82.683479
1.910653 -9.521727 88.481674
-11.603026 3.548502 35.480450
-8.388120 -11.119575 83.579887
-9.857504 6.657940 88.100876
-7.466334 -5.754596 35.875572
4.797314 -14.215072 86.484200
14.074319 3.644047 11.876907
14.073553 -3.280547 34.277378
0.799145 2.091226 74.181313
8.112521 -11.056004 70.906288
-11.680595 -5.990684 13.559516
-12.346864 -5.208832 35.141064
-3.740404 0.482330 67.235359
-4.666281 2.546384 61.108185
-17.046852 -1.269757 90.027885
-15.392979 2.608934 29.162600
-13.912099 -8.595765 64.917816
4.530833 4.038313 80.765297
13.971158 -2.271980 74.051254
-8.242370 7.055402 74.395195
-3.345120 0.520050 62.542267
-2.701212 3.952449 103.544868
-8.870604 3.202641 23.171494
11.039895 -5.443132 104.743706
4.850040 -0.905592 53.326523
0.581469 1.741181 77.848854
-6.665783 -12.221965 74.696457
7.864850 -1.417410 25.221121
11.079127 5.327657 65.264343
-2.871290 -0.932013 45.785339
-14.380048 2.381297 105.769104
-15.556623 -4.602473 86.369102
8.072077 -13.259097 95.595978
15.992270 5.612539 32.069653
6.848596 -10.846391 103.328995
-1.472749 -13.947655 104.308289
-11.939052 5.016314 29.015797
14.833399 -3.667565 65.162308
4.797144 3.607581 77.053391
-2.436944 -12.827702 104.491737
-11.682380 -8.655445 73.168587
15.149648 -7.322381 94.599960
2.212442 -0.193035 77.277023
-8.330237 5.486279 60.980659
7.975585 7.309270 87.072525
13.189972 0.383013 97.624374
6.610422 -3.676435 35.727776
-11.785485 6.136116 28.400826
-7.213912 -14.491957 105.814865
0.750419 -11.532038 81.081612
14.979095 7.367558 35.721058
-1.076156 5.373385 86.021828
0.210993 -3.191121 77.270599
-4.933679 4.974455 71.377785
-6.896088 9.460632 57.320221
2.315227 -1.892721 71.863358
-12.890678 4.288334 96.190002
11.409936 -9.821478 105.634346
10.582153 3.553181 108.985001
-14.915149 -2.245157 96.940331
11.956970 -7.304592 86.952446
12.644521 0.798921 53.072243
-10.020437 -2.673237 13.613634
14.644176 3.429495 29.324766
14.556616 -0.547123 15.595613
4.073942 -1.042103 67.018021
-5.225910 2.342142 60.238636
11.750133 4.013940 105.515251
-14.560633 -2.958450 44.539238
-2.314352 -11.299570 90.196693
-12.432487 4.873384 95.284828
8.114033 -3.339751 29.774746
-13.974666 -3.963866 28.049860
-16.168415 -1.683257 48.925404
-4.274087 6.102857 108.568069
15.047199 -1.868356 98.875450
13.813027 -8.873797 60.934238
-8.163862 3.895593 103.028107
8.553863 4.194604 20.366106
15.121265 -7.348112 92.755814
12.014410 -2.169242 29.146093
-6.285748 1.852982 22.231199
-3.010632 -8.808956 89.372452
-9.220166 -1.928875 16.882339
12.355696 -10.411926 95.778496
-8.733335 -11.438726 54.173542
-7.330287 -10.501445 66.991692
-15.281747 -4.135481 63.125381
-3.511771 5.094355 82.838600
13.549988 -8.170046 104.516487
-5.671472 -9.370085 73.368790
-6.856409 4.065457 57.772743
-15.501856 5.367899 30.712004
14.767861 -6.763559 96.883354
13.139730 4.094758 28.456987
14.055878 -7.842363 54.238922
6.982282 -3.796880 7.371271
9.476523 -8.385542 58.746456
-11.954551 -0.119742 106.513603
-0.949817 -2.587889 80.167114
-3.417164 0.295929 57.921078
5.495806 5.525764 49.755001
-11.629011 -1.838708 67.568199
14.160175 -7.224591 51.593044
-8.949413 -12.999555 88.159256
-4.107622 -3.588584 65.289192
-6.928936 5.524083 31.896631
-15.294736 -1.835646 54.161610
15.011936 2.124821 36.176701
-8.031875 3.196480 28.737749
-15.833014 -0.810176 25.827406
-6.237860 1.472125 33.317478
-13.337629 -7.020014 100.532661
-14.908777 -2.184698 34.074661
14.997559 2.123446 45.247036
-13.601538 1.429891 47.746056
13.556203 -1.563513 107.741241
12.967217 -5.321734 57.826588
-15.643011 -1.664652 75.576294
-12.331697 5.580107 57.194786
-4.571297 5.798251 49.745419
-5.422902 3.503309 59.027760
5.352203 6.784070 82.323296
11.612720 -8.878985 93.775345
0.069262 -0.199527 79.302490
-3.249223 10.745104 103.490616
-3.184917 6.369059 87.648415
14.064226 -1.830181 54.210705
13.435673 -5.177536 87.921768
8.492827 8.093009 86.590584
-5.324466 0.319965 56.602028
-7.077672 -14.106412 68.415741
-9.812201 6.458809 63.364300
5.134718 4.170639 29.829041
-5.005228 -12.048759 90.211853
-3.630521 8.957897 89.365829
11.183832 -11.216238 69.609779
-12.120929 4.677335 48.225929
15.018849 -1.284509 55.099068
-7.085461 1.506485 9.842804
-10.899704 -5.616624 38.561474
-7.447369 -0.028589 11.224924
15.716164 5.189244 36.553154
-11.833118 1.001148 53.172245
10.040760 -11.007760 71.047104
-9.997546 6.991230 81.436386
3.864081 2.831387 69.590767
1.498120 0.567700 76.142319
12.800749 3.276897 11.907783
-8.785236 4.610707 72.519516
10.802333 6.978367 94.084511
-13.757504 -2.824859 68.468163
3.583071 0.082277 48.567917
4.229217 5.642680 107.008278
13.689569 -5.927660 96.013130
-6.968939 1.599548 28.328955
-4.601450 11.735198 93.585991
-9.225089 -8.887149 91.999008
13.286158 -11.277149 85.113396
-7.775125 -13.178096 78.762558
-16.014326 0.966967 21.289362
-15.124199 -4.830589 46.933929
5.595387 0.938508 45.164970
11.963842 4.649501 78.804092
11.679894 7.478005 43.811512
0.621286 -10.503621 91.462791
-5.116149 5.329339 72.864029
-5.251031 -1.166459 20.953262
-7.044259 -11.882167 103.789635
-9.220903 -8.971256 68.180511
6.663360 4.650698 17.993620
9.571275 -11.481467 81.578850
-5.119137 -5.229468 55.536705
-12.387115 -7.656029 60.739872
-10.484750 7.452102 76.521606
-4.280455 0.111305 59.720802
-8.902621 8.351263 96.711510
-3.884181 -1.513294 37.764004
10.635293 7.038265 32.322731
-7.292411 3.481112 69.881248
14.584905 -6.343380 47.590065
-11.970822 6.164237 57.718334
-7.597239 9.517303 96.748459
3.594059 -12.512714 103.169823
-9.198296 -3.701159 11.868039
-15.281037 -3.759450 43.590698
-2.178453 -10.160875 78.192139
-10.767254 -2.311889 18.973343
-11.145691 -10.934764 89.543983
-5.885560 9.694242 86.483734
-13.176192 1.148399 94.273132
4.894616 -0.124032 44.168396
7.613026 -4.017646 38.844406
16.464468 -1.568504 24.519009
1.695444 9.221232 88.511787
14.702067 5.717164 39.409710
13.096317 2.397360 107.213371
-6.504298 -12.775579 70.958290
-4.258314 4.278460 80.256706
-10.347432 -10.531741 70.565269
15.841360 3.611370 41.196735
0.448058 -18.841393 101.962219
-4.031395 3.051345 39.936741
12.658813 5.622190 106.838020
10.807152 -8.285998 59.419979
10.122819 -3.756093 10.459812
10.681097 -9.537700 66.146149
-2.102373 3.975221 80.886040
8.424076 6.922751 75.659691
3.675940 -0.385003 65.195686
-8.336149 -10.837151 101.811958
-14.929569 2.090464 44.207809
-10.792279 7.508020 36.840458
13.969878 6.696658 60.742001
4.922124 0.798944 54.297501
-6.830411 -2.238904 38.978535
-11.226624 -2.755542 28.262365
-13.074505 -0.275256 57.065228
0.712152 -1.788543 78.369461
8.999123 3.894418 105.409294
13.149512 -0.344120 67.837433
-11.967742 7.656109 80.587502
12.514152 1.762930 107.463066
-4.819607 1.734075 67.868965
-13.509337 3.897728 62.509510
9.255138 -2.746216 14.326157
-5.563042 7.223726 106.804855
-10.941503 5.082949 74.229828
-6.099614 -11.016641 57.399128
7.354664 8.561419 81.530266
15.263718 0.978679 90.607590
7.980269 3.854815 18.100368
-0.126927 7.034892 106.649940
-5.925720 9.120395 102.695290
7.404003 0.809075 20.170700
-10.509057 5.303668 62.715012
-2.613464 10.540936 89.473160
9.769303 -11.292340 69.004234
13.061226 -3.276269 93.087074
14.593694 1.901679 14.963606
7.390616 -12.139280 92.769020
-13.757440 1.010365 52.097664
-13.484791 4.064011 101.635231
6.877673 2.312807 52.098034
-10.574606 -11.569973 93.322090
11.428711 4.221638 90.961510
-9.723544 3.310024 22.580770
9.880949 -12.492482 98.093895
-3.048443 -1.213718 44.887405
10.740446 -1.966501 20.234114
13.943730 -3.388231 100.386200
12.687077 4.187767 104.499741
-14.685384 -1.552013 83.374954
3.611567 0.330098 65.947479
15.210709 -0.558670 96.666969
5.841508 -4.753076 31.675457
-14.802459 -7.941220 97.210823
11.249772 -5.513133 45.758717
-12.611094 4.158709 22.012245
-13.530478 -5.373222 58.225487
-1.372326 -10.130840 82.864983
8.487037 2.059658 14.961922
-1.860019 -6.569196 73.679733
-16.220137 -1.237779 16.636702
-16.612133 1.556077 38.452717
-14.042962 -4.075266 63.352238
9.256439 8.284223 98.875473
4.352736 -4.685910 63.301674
-5.796000 3.473334 60.427208
10.143831 -3.365663 18.305759
15.599980 -2.174802 29.527451
13.005082 -2.551780 77.422623
-5.143142 5.217433 81.928207
-7.775847 -12.576972 74.630386
3.780291 0.636231 56.854954
6.285505 -12.340931 92.321030
-1.792665 -5.911536 70.667686
2.176365 7.080061 105.583969
1.616137 6.069546 89.095695
-12.364007 4.718885 20.890337
14.292428 -2.658236 102.978127
-7.660092 -12.778490 76.939285
-7.265811 -11.430836 82.422905
-16.337887 0.493480 42.215855
6.731064 9.483067 100.546791
1.891502 -12.138688 99.106972
-15.601848 -0.816474 36.725563
1.123882 -6.313378 73.018143
1.313849 5.445558 109.336624
-13.518172 -7.461179 64.085129
-14.202044 -7.648606 67.516411
9.115744 -10.035233 73.851555
3.520833 -9.940063 99.015656
17.301857 2.687733 38.707161
-0.353703 7.515740 106.517792
10.358793 8.232465 84.410500
7.026576 -2.314437 13.459006
-8.964642 -11.909242 91.647057
-17.850178 4.399088 30.383720
-6.614915 5.942960 20.336132
-10.781693 7.678955 96.639236
-11.745235 -5.837809 105.366287
-4.406367 -1.879866 51.482754
14.780365 3.848938 41.176704
10.822082 5.816111 43.651428
-8.332994 -7.765647 42.078415
-9.945498 -10.235328 57.262138
-14.790602 3.979266 64.553192
14.520034 -6.882770 73.422668
-12.864787 2.803026 80.236183
5.194306 4.268039 70.623428
-3.912222 8.802869 85.757767
14.904462 3.743259 32.464905
16.076437 -0.785393 85.698799
3.769965 -10.184982 76.153275
12.995121 -2.089049 15.552371
-13.992825 -4.903212 72.728653
-11.433096 -1.959203 109.778267
-14.111034 3.319056 37.122585
12.902798 -10.172528 78.063927
-14.751774 2.706416 96.519829
-2.335290 -2.803437 42.329296
13.268329 -2.589597 18.738289
-12.633420 0.787514 52.849831
-13.550966 -0.301650 60.978157
-12.107428 -4.162519 102.170464
-5.536924 5.930080 74.359100
3.555476 11.798742 93.050385
-4.536717 2.958979 67.226494
-13.579982 -8.743216 59.023708
5.267487 -1.757721 29.541857
-12.402723 1.635284 96.890938
-11.429566 -4.951718 43.573689
-0.805529 9.436677 98.762413
-2.291211 -3.896776 56.957554
-4.031096 -3.616772 36.918636
-14.286816 -2.707571 60.014191
-5.959708 -9.148303 62.456924
15.358887 4.998155 26.832729
-13.459167 3.472476 92.457817
-13.906816 -2.762437 90.109680
1.091380 -4.811668 80.345497
10.250268 -3.633322 40.641388
-0.986760 6.787090 88.684937
4.472300 -12.859672 93.010948
-5.815773 0.589727 41.493362
-9.176106 8.067762 93.379105
-11.889013 -3.523526 103.994453
-16.425159 -4.661104 86.200340
-13.599491 -2.186971 14.528856
3.901359 -12.219057 95.185661
-5.921695 0.016229 14.003214
9.857345 5.632998 50.127415
-5.398906 2.745939 73.376015
-14.952600 -6.899752 102.926903
-6.976928 0.476163 35.361423
7.584212 -3.671214 17.099701
10.478841 5.376270 85.860115
-16.985336 -1.969112 30.344267
10.219819 6.380858 66.551804
10.340118 10.178172 88.149055
-6.708185 -12.882728 97.095276
-7.435626 8.225417 95.013390
-16.864208 -1.490353 20.253853
8.322924 5.181007 68.122223
-18.090700 -2.324833 89.786964
10.198093 -9.832989 97.964897
1.325832 -1.126340 66.838715
-7.107669 3.855965 36.164135
-13.738070 -3.669198 107.908539
3.469356 9.415455 101.678276
1.822240 -10.908542 90.072227
11.764001 -13.200044 77.442490
12.734880 6.101702 51.454597
-9.815706 -12.523011 94.280746
5.720197 4.129843 37.736816
-14.960645 6.124701 37.171700
-11.126122 8.584774 70.211807
9.409852 -3.157402 31.654953
-7.540510 0.355016 61.117920
-16.225557 -8.602548 85.868263
-14.593991 -3.722555 66.333305
8.571774 -2.819491 9.243724
4.223751 -12.558091 103.727531
9.303019 -10.626773 97.243637
-11.871062 -9.748215 102.919464
-2.790121 -10.470674 82.409309
6.704035 1.242686 19.815563
-15.033721 4.188265 29.607378
14.720222 -5.384793 106.122383
-1.240616 -12.544089 97.618294
12.949070 1.669589 74.748741
9.505141 -13.846218 87.715546
-12.419011 2.353944 51.443142
2.385263 -11.583482 103.353241
-12.546542 -11.421602 64.319672
-10.546391 -5.733063 41.932682
-11.206785 -1.102341 19.529938
4.553113 7.684665 104.584923
-6.400157 5.103850 66.272018
11.764729 -6.512738 36.484360
-4.535275 -8.939102 53.720718
5.751861 7.098207 74.711891
-11.689849 8.923257 93.251572
3.984644 -2.085959 58.953434
13.653439 0.262656 55.680843
12.184516 -5.956580 109.215019
-4.308285 -1.517060 45.384895
-10.056729 8.190487 94.201851
0.412903 -4.358956 72.619110
0.450994 -13.595332 96.244202
7.896995 5.576028 36.120300
12.464189 6.802841 49.137241
14.957867 -1.584640 81.596390
11.406251 5.705959 51.338055
-5.999064 3.639975 17.857656
-13.903500 1.551900 78.655045
-14.721393 2.646672 96.464615
-6.833656 6.220413 43.443035
-12.587198 0.490328 29.287434
15.779335 1.580384 34.788841
13.924732 1.230618 48.945126
-11.256181 -12.518607 93.742798
-10.847206 -11.594107 92.496269
13.167099 -5.106150 47.548313
-9.102386 -9.189843 65.762276
-8.172345 5.481221 69.150169
5.888350 8.186873 102.851860
3.302994 -11.677780 91.558174
1.339839 -12.754114 100.908226
7.226959 -0.707708 11.548523
-0.677826 -6.183461 72.575386
12.714307 2.982914 69.221825
-15.130947 3.819778 25.108644
17.573305 0.079415 29.567825
-13.451662 -1.273023 104.934586
17.313044 4.603685 26.953754
-13.160433 3.844543 64.039528
9.264643 -5.310628 34.232719
-7.327068 1.746480 27.705883
10.267600 -11.409680 89.213745
3.500588 6.420809 108.597000
13.630723 3.596993 20.406067
12.764462 -12.092465 85.747704
10.828481 -3.634036 39.492809
12.637096 -9.968751 75.467216
-11.524316 0.416372 106.627113
5.221502 -11.833210 74.076256
16.682106 1.045376 32.157829
-11.688333 4.005820 19.591547
-13.948815 -5.085465 75.959541
-1.467260 -9.707397 89.766815
-13.951533 -8.250361 88.547096
-12.449888 -5.593534 32.363953
9.326702 5.401594 16.812082
-5.831957 1.102140 12.737102
-15.498274 -2.035572 57.116707
-16.828232 0.233156 79.953590
-12.825391 -3.002546 50.849514
-14.598741 1.599480 28.297010
12.306450 -8.865202 60.501644
8.280529 -1.814250 13.426367
12.186620 5.653821 79.638039
5.608232 -0.334736 47.666142
-4.051474 0.241478 70.896225
-3.397294 -2.465192 61.486629
10.790824 -6.930675 39.803406
8.001944 -11.157784 77.695343
13.932776 -3.624490 24.519707
-3.764760 2.871393 60.390308
1.390258 8.123769 94.130936
8.422898 7.682950 57.783092
-1.286767 11.172780 91.626961
-9.688622 6.606656 92.989540
-0.703098 -3.819283 71.931839
13.621948 -1.577098 76.680588
-15.060267 -6.473044 92.299599
-13.376675 -0.758649 98.378639
-14.902452 2.659557 79.886436
0.159115 7.193462 103.222481
-11.243049 -4.021826 27.035975
2.191792 -14.429137 104.493698
16.471739 -2.964119 40.057945
-12.140040 6.879443 67.121826
-12.839849 -11.544649 99.943245
-9.263705 0.557949 10.441420
11.073831 -7.813015 45.475025
1.598143 -5.894887 66.999779
-1.025383 -6.063136 77.986122
-10.955011 -4.329242 34.615570
9.583656 5.756981 82.266701
10.793856 3.714492 79.659805
1.100742 -6.626593 64.950890
-8.927627 5.653763 59.427517
-6.221135 3.219939 14.856948
2.503241 -5.931411 71.425117
-14.082948 5.033868 37.523842
10.419765 2.741069 106.876434
-15.141628 -3.765049 89.791115
14.751759 -4.263444 52.605778
-13.307581 -5.358926 45.678814
14.979598 0.380376 10.871883
-2.161987 -1.641452 49.834332
14.029704 -6.814162 56.284477
-2.233351 0.726557 79.776344
-1.591259 -15.544356 103.850418
6.299441 -0.583398 5.696696
-7.454672 5.374794 108.573463
10.628299 0.359466 110.214645
11.051601 -11.160634 98.398506
-14.534431 0.164530 12.714903
-14.610014 1.629726 62.084080
10.027226 5.947914 96.191406
-9.793623 4.047474 50.685246
8.711219 10.193558 97.398888
4.711405 -8.661394 65.725647
11.312471 8.785595 95.154831
-11.439342 -10.586143 63.933987
13.635767 -5.836391 63.365837
-7.468701 4.566479 72.430435
16.453716 0.360467 38.567459
11.789057 -5.737666 9.509225
10.171645 6.591607 8.955343
13.798571 -0.832779 6.847831
-16.357502 -1.030994 48.393761
-5.626040 5.957597 106.187073
-1.565530 -10.845459 80.575752
8.428096 -3.714947 28.807945
12.483315 2.862201 80.152573
13.903130 -2.106056 104.572945
3.056726 -7.643450 85.202858
14.272568 3.061278 17.265488
1.983251 3.339531 81.769081
5.217842 -0.213552 41.415977
8.316584 -4.186990 23.954050
-14.876427 -9.044182 92.083878
11.965889 3.437666 67.717728
6.894526 6.442245 32.835400
-13.726115 -4.318169 103.308731
-12.655634 -11.117629 90.444633
13.771741 -7.426720 100.982193
-1.049688 6.886052 107.161636
-11.414474 1.977665 106.434380
-3.984839 0.050860 41.755253
14.003095 -8.346481 80.276337
9.351785 -9.137274 93.029037
13.444112 3.838990 45.325737
7.026824 -12.159534 82.591110
-9.406092 -11.826123 77.819984
-6.846524 4.326432 40.703617
4.520650 -3.074328 37.938251
-7.475595 0.747079 19.698479
5.944610 5.186315 29.182102
12.184673 -7.201842 48.218540
-4.778780 3.586717 73.183876
-15.771993 2.044279 30.342773
-8.232394 10.033061 83.178726
-6.436319 -2.521891 31.906691
9.065298 3.914212 42.369438
-1.645015 -9.119699 70.942368
10.873912 -4.764451 33.299126
18.190344 4.780845 18.959890
-10.301456 4.301032 97.570152
8.637745 6.268221 32.591618
-5.131988 3.730356 30.989429
-6.947800 6.529806 54.535492
12.369949 -4.850708 28.727327
15.763318 0.151983 39.607624
12.163217 5.239385 35.256569
-16.307741 -1.477354 35.805817
9.457360 -1.494514 26.551090
-15.735162 3.336553 21.421631
-14.168997 -3.409394 8.554467
13.466728 3.588480 46.969421
9.685848 7.158720 100.228813
7.041709 -9.164547 48.074215
-3.456982 -2.782102 66.273819
5.725027 -6.393814 54.308689
14.410056 -4.084674 70.267029
-0.665485 -1.795054 80.555634
16.706724 0.398466 37.722092
-13.520924 -5.658445 74.474693
-3.861999 6.143460 83.645508
-8.638802 -4.624805 35.590130
8.927331 -10.863070 67.248360
9.043330 6.065837 55.771427
-9.249044 8.523696 66.299278
11.830182 1.204192 63.824047
14.617722 -4.150533 28.079931
-1.531576 -2.650892 49.263371
7.722630 -6.484889 41.891590
12.129920 -10.412628 78.601830
7.515645 -10.397766 104.527672
-14.726684 1.965813 84.387596
-8.632955 -9.354481 55.365887
-8.423963 -5.100935 40.692585
-12.474849 -7.660334 107.765869
-9.424478 -11.956669 69.437286
-13.203856 -11.098811 81.334335
3.503090 2.862606 66.887848
3.646754 -5.047279 53.374916
12.169315 -1.774242 56.767445
5.771209 -1.323465 33.307339
-7.886699 -11.664915 59.046654
11.864946 1.127148 5.501800
11.355198 7.494343 96.704277
5.388968 -12.683485 95.498032
-10.464935 -5.442770 32.207832
3.935075 -5.434526 63.762035
7.201002 3.971148 11.735703
-11.018844 -10.998191 65.110603
6.598788 3.131889 60.165573
15.284063 4.171804 40.720879
1.437266 -8.766179 80.285988
-2.516910 -2.256939 77.509041
-4.803259 -0.372231 42.388660
-1.412773 -3.937101 74.939056
15.578418 -3.669384 87.513161
-6.934254 4.344637 45.969551
-11.396584 5.114069 20.118189
5.103283 -1.569322 17.603426
-12.296577 5.972819 47.394344
-4.558708 1.567301 63.054916
-9.708549 -8.384602 52.740574
8.586500 -12.031550 65.875465
-5.420594 -2.761755 26.538296
6.729376 -11.774824 91.101578
11.834289 -11.852755 69.361725
6.276149 -11.034262 62.915405
10.376099 4.496134 12.414269
-7.501742 10.571934 89.957939
-9.017649 3.659058 85.515594
-15.646516 4.316577 36.859238
-7.135785 5.483868 65.331291
5.705482 -11.887167 92.852577
14.324050 -8.664713 70.439957
-9.632779 6.333562 36.263687
1.464956 -9.507874 80.548988
-11.330407 3.515857 16.356045
4.592182 2.983181 44.137867
-3.614460 3.240547 78.921135
12.970276 3.796667 73.223709
8.131887 -1.500089 9.930918
10.629962 -10.580299 47.024643
4.939056 3.072491 21.352871
12.065452 -8.577562 69.576813
8.117205 -2.945570 33.301037
-14.710565 -9.086600 84.151672
-6.678800 -11.998521 77.391434
-5.833263 5.379020 38.746140
-14.157743 -9.091290 75.968903
5.364417 -1.052689 50.633179
-7.850423 6.423081 80.080917
16.783464 -0.621690 32.487110
-8.361842 6.984475 72.603043
12.251290 2.659314 11.880617
5.900177 -6.175283 56.513878
10.126085 6.985052 25.096474
12.180836 -1.085688 60.486382
12.244093 -4.517033 55.031254
6.356366 -4.548539 36.345963
-14.498538 0.712258 42.760326
5.677216 6.599772 76.264267
-4.073107 -9.468143 64.800598
15.437265 -0.889261 92.202583
11.877877 -5.420496 41.358299
-4.579164 -3.761900 45.567474
-7.012569 8.067076 101.188454
-5.185896 -1.185265 27.748457
15.937902 2.229877 26.129126
15.186365 -0.397609 17.583166
-11.919977 4.061169 78.057922
-15.702888 -2.246044 11.206134
7.194214 -5.307191 43.070007
-12.166902 3.433578 107.698326
-5.231925 -11.790643 90.095665
-12.423725 -10.378329 83.135162
-2.931697 -1.481918 68.380280
-0.541318 -9.334249 86.071930
8.636754 -0.940861 37.423397
15.280459 -3.286000 38.638153
-9.703145 -1.794608 13.514219
7.045456 8.740721 88.903809
-13.796859 5.493872 48.107639
9.546356 8.725590 75.764877
7.945672 7.242021 101.723511
15.888748 -8.553156 89.950577
8.411048 -5.127384 41.364746
-16.060390 -2.156560 41.866688
5.183496 2.852490 30.156208
-3.931178 9.484970 95.636177
14.181664 -4.961807 51.568024
-12.591477 4.387159 96.161064
-6.427244 -12.727237 77.691109
-1.911634 5.883025 86.072762
-3.208728 2.949106 73.203171
-4.578219 -2.050741 46.287125
-1.040852 -12.970154 94.505936
-6.720050 -5.010536 43.905537
13.537025 -8.263453 77.105179
-16.421730 -0.558429 85.922958
-16.472832 0.486515 49.378857
16.142984 -0.406432 11.361247
6.814957 7.557581 97.274399
-11.392848 -10.751397 101.076454
-7.991895 7.152800 73.482040
-7.923038 9.026441 96.334396
-12.116439 5.885536 25.056988
-15.147935 3.916224 35.680569
15.044350 -4.707872 85.296410
-2.292744 -8.921240 75.816780
7.467477 -0.550573 13.432039
-8.290411 6.276532 60.657387
-12.276201 4.731238 105.909874
15.160577 -7.381604 80.605499
17.058182 -2.939191 51.698174
14.818368 2.924721 29.338055
-13.256338 -7.026631 107.342247
5.780540 2.774278 35.483761
12.237967 -2.017426 75.299820
-12.300780 3.890085 16.156290
14.050265 5.582353 45.391747
9.914332 -11.072899 76.550011
11.370592 -8.896767 106.280670
1.452597 0.993220 78.446259
7.532462 -10.732441 61.901833
-8.608220 -2.865109 18.209202
-13.895676 -4.340968 83.078079
10.329966 5.617752 87.045502
-3.733802 -6.227272 67.732002
-14.538555 -5.499336 33.658161
-12.848032 -8.819029 62.956074
6.517874 3.763226 19.289482
-14.453728 -1.076625 60.604443
13.594962 -6.755148 59.344872
14.483959 0.390690 64.851433
5.160137 -10.740100 89.272743
13.250527 3.633976 9.410873
-10.484603 -11.370109 82.059074
-0.831172 -2.783585 61.927227
12.118899 5.689226 48.424839
-8.686858 -11.389482 88.070122
-3.645191 -10.894144 97.168312
11.494656 -9.970053 61.328785
-10.292349 -5.987949 44.273190
-8.349556 5.835070 79.302376
5.984152 -1.728821 31.787348
17.946417 -6.921885 94.312599
-14.223809 -4.115866 56.009506
12.613997 -7.402549 60.761124
16.751289 -4.587922 24.729763
-7.047917 -13.621074 74.171181
12.109050 -9.596132 97.659332
-3.651684 9.727309 95.359077
-6.409393 -0.558956 46.974586
-1.462924 0.110193 78.421448
14.897476 -5.300513 48.478794
-11.037684 4.873830 63.024029
-14.333676 -8.279694 103.477722
-13.364942 0.294536 17.970575
12.667386 -9.216231 88.258499
5.016922 5.483594 67.208839
-15.457367 -0.767796 10.321019
12.157036 6.104785 89.788475
-1.469589 9.288005 97.910873
-7.375928 3.503268 108.811668
-12.525065 3.173083 61.627468
-14.058950 -7.645182 102.667030
-10.254251 6.250349 49.556145
16.167406 -1.962024 13.029314
7.678734 4.478178 108.242706
4.940579 9.192048 82.873100
-13.477798 -8.969327 80.112358
-12.366688 -6.303149 51.420353
11.433198 -7.161783 39.494011
13.980598 2.546723 11.015528
-4.406318 -11.335883 90.163246
-4.254119 -12.077135 84.106308
-3.036699 -2.213989 34.549942
-3.669320 -1.452503 55.494637
-12.500308 7.012600 68.086288
14.734060 4.635792 23.264673
-11.801187 2.728502 102.079041
8.070931 -10.391688 55.352070
13.607993 0.678966 43.049370
10.579246 3.049453 95.776054
-8.350351 -12.438643 86.448547
16.481983 1.450266 36.522442
1.253637 -13.505507 99.023560
13.818192 -2.136980 13.441915
5.329149 9.485629 97.123840
-13.865973 0.633859 62.832355
1.782871 5.484060 80.347305
-11.811138 -2.977597 18.879642
6.921052 -12.386162 65.158623
-6.321156 -9.093596 56.757732
12.001771 4.977816 83.707268
-12.672998 -9.749290 101.029152
7.550601 -2.976593 38.805779
12.937939 5.977983 45.720772
1.354469 -12.297475 89.954010
3.987914 3.069437 18.783577
-9.589187 7.482958 77.284126
-5.007304 3.501843 80.044548
-14.696694 -7.986549 88.151184
-9.968033 6.408091 101.171654
-7.243156 5.406204 61.357395
6.254268 -0.427918 11.000432
13.527164 -4.374805 94.809143
-5.712358 1.240725 51.377201
-14.382472 1.840656 105.803207
-15.047741 -0.669550 97.487564
9.115291 6.190337 52.002369
-7.763103 5.463533 37.437538
14.705124 1.460431 95.932289
4.589786 -7.092808 62.926380
-7.172480 0.479644 28.049009
-13.327591 -6.603674 78.377304
3.435270 1.830337 77.051186
13.773306 -2.068002 93.357323
1.520167 -11.962153 100.707413
13.015413 -5.671031 106.891289
-6.008090 4.987376 34.898876
5.624092 -7.050832 60.092407
13.052619 2.333232 68.991051
8.685374 -12.287647 79.680191
10.245725 -6.035834 40.836906
-14.937451 -2.281435 70.144005
5.221720 4.836197 73.755806
4.209919 -13.405338 104.956322
-4.802614 -2.323979 50.303768
-12.269327 -10.508171 77.378845
15.220200 2.122987 14.870883
1.808562 -9.985866 88.978851
-7.902188 -1.736936 10.286076
-3.931771 0.182581 51.487644
-3.557898 -12.951398 101.881943
5.922271 -11.037281 98.402321
0.185146 5.382265 107.691826
-13.755691 -1.717286 102.197952
7.668302 6.516284 36.061295
6.450364 -0.028818 27.104467
-8.504990 -9.184531 60.999809
7.495010 7.170369 63.114582
13.122144 -3.714680 106.151756
-14.178164 3.559319 35.306633
-13.356030 -4.030904 18.956375
-0.261674 -7.936210 74.191711
15.052890 -0.215289 93.463486
2.875670 6.705397 95.743385
-0.209612 0.517363 83.325699
-7.598029 -4.779120 45.887306
6.054544 2.160653 45.905952
-7.341793 7.844246 76.068726
5.602659 -5.859962 39.988480
-15.296357 2.957155 106.409698
-10.824951 7.330411 77.861053
-1.952983 -5.791834 79.424599
11.187375 -8.636829 94.972588
-9.710563 -12.149151 71.821152
-14.773943 -0.190488 11.633797
14.211308 0.381482 105.288376
-3.949877 -12.098596 83.804031
-14.548301 -1.144013 67.671814
-4.167892 -10.660403 90.948532
-13.512907 -3.835524 93.303467
-16.638105 4.052667 32.209850
8.381163 5.905919 91.928177
13.558319 1.755029 62.852867
1.729305 1.500791 77.684364
-16.105993 4.194839 30.096960
7.378601 -4.610961 10.494085
12.256241 -1.953412 19.335903
-14.570059 -7.731432 84.149673
1.172714 -9.925788 94.910995
-5.079912 5.103408 75.433411
11.640092 -3.206701 19.329956
-15.881063 -3.347404 40.514690
-6.058627 -13.012062 101.370445
0.281560 -4.084067 77.772911
0.056936 -12.720720 100.875641
-15.123966 -6.332399 73.532150
-6.497471 -0.805548 26.675411
-7.391953 2.010250 18.057676
16.715422 2.560100 35.494740
4.323344 1.505651 50.215916
7.298168 5.881793 60.723297
-10.189620 5.344129 108.174072
3.977730 2.994156 69.854385
-9.777384 6.498002 91.960930
7.369421 3.205139 52.815941
0.580624 -2.744400 79.659760
2.981261 9.355165 89.016289
-1.057574 8.341658 104.554367
3.629973 -11.930537 86.913048
14.561335 -0.380271 9.633441
-6.050197 4.891769 64.705521
4.707171 2.339550 61.881111
-14.963407 -2.329691 72.043510
14.040415 4.180614 27.031670
-14.196136 -1.352823 23.469940
13.926912 3.558966 9.975658
-14.070267 0.888093 83.405273
-3.821962 9.993903 97.005486
7.655401 -12.456045 67.427841
-13.067263 -9.477979 106.691788
-12.309402 -2.167679 75.240509
-8.974501 6.707092 79.184914
7.222865 -6.245724 43.395870
-7.622562 -10.148526 66.010048
-6.987350 -2.818896 14.015230
-13.619793 -9.116714 81.707733
-6.303548 -7.372939 54.995983
14.586100 -6.372724 98.783325
14.686051 -2.918686 56.145138
-5.189419 -11.849189 74.482407
-12.338461 -2.765329 107.462456
-13.757837 -4.373489 95.537094
6.534477 0.755805 37.708420
6.195907 4.044834 72.385109
16.217125 -4.946339 66.146187
16.337727 -3.465841 7.103110
1.162679 7.443492 89.782127
15.738841 3.251944 34.882111
-10.290084 5.563709 14.085264
-1.020711 -7.875501 80.124207
-10.390968 -9.504715 58.071953
-16.741024 -2.184536 86.927040
-2.075603 4.999172 85.748100
10.945045 6.854229 66.225601
6.315213 -1.203562 24.287594
4.129302 -5.591628 51.633858
11.095338 6.037143 16.165216
-4.276924 9.029838 91.719025
-11.798985 -4.897257 31.665192
4.966088 -8.577479 88.771423
-13.453566 -4.915922 26.828337
-14.975988 -1.666744 96.179901
-9.220314 -3.960522 37.330864
-0.294214 2.225796 77.060295
-14.009609 3.168640 27.413576
12.942532 -0.776102 106.744553
-9.967228 -10.510446 94.429756
8.998458 -5.625682 25.260075
11.287260 -4.514069 21.600418
14.812641 4.076712 22.932833
-9.157713 -10.328618 56.861256
-10.739199 -10.908402 89.664780
13.956224 -6.342064 89.479408
-3.737295 2.820678 54.850426
-3.032793 -12.019380 80.055779
-12.376549 -0.934134 56.098419
5.973414 6.098528 22.009226
-11.664953 -9.828887 99.068214
11.171897 4.082983 106.093750
-4.785347 6.945442 83.184181
13.135456 4.455095 40.441685
10.094936 -8.074329 59.111626
-1.982167 -9.401795 84.851791
12.065892 -5.420213 107.803162
-1.505620 -5.157531 75.913422
-0.925836 -12.031857 89.190872
-13.648854 6.270319 24.025398
11.642086 4.548422 97.035408
-0.428093 -6.172058 77.568459
-8.018538 4.542553 18.326342
-15.474606 -7.854482 92.753128
14.021872 -3.113883 8.257932
-14.254356 -4.050747 103.087349
-2.895289 -10.044923 82.249062
-7.911769 5.000683 53.446297
13.841825 1.280294 66.788910
5.357685 -7.933144 63.199318
-1.624107 4.293796 109.787003
11.121727 4.271190 63.202480
10.571179 -11.722930 84.916885
14.843699 -4.376230 63.920818
6.723513 -2.447560 30.872086
12.653708 -5.639800 19.765709
13.087249 -8.717951 74.039406
3.182881 -10.164540 91.328400
1.976584 9.871887 94.912857
-14.374119 -0.412486 107.065369
-11.748487 -13.211777 83.712013
12.192347 -7.963532 50.725670
8.298573 -8.850713 50.566544
12.217761 5.581153 26.860067
-9.327188 -12.508271 103.839561
7.505318 3.588162 38.531509
-11.809549 5.390253 104.179131
-14.615611 -2.493911 80.845085
7.751709 -0.864381 17.637775
9.154388 -9.284106 59.276455
12.578234 6.724817 23.333094
4.970824 9.003086 104.014320
7.823522 7.654418 102.735466
-13.665778 1.397770 108.844406
-13.674203 0.546670 91.849167
-7.006138 10.433599 90.717453
4.739884 5.653714 108.412437
-8.681444 -2.967579 9.124658
13.238327 -1.389675 72.788155
15.697621 -3.842537 81.571251
0.853588 9.208340 95.355499
-15.983948 3.693212 26.750881
-8.789954 -9.116687 54.159191
7.894843 8.250865 73.952370
10.666902 7.365426 54.236969
-12.013062 4.838897 46.350334
5.636414 2.473404 33.019264
7.500227 -10.545248 75.336601
-14.484139 -5.259954 106.237152
-11.533633 3.116732 67.251823
6.711451 -11.470768 85.057945
-16.541422 -3.646510 84.202766
13.768958 -1.101741 30.448387
-6.261553 -0.190687 27.945120
-7.374114 -11.461928 104.247688
8.993944 5.308789 39.843163
12.447159 4.252323 20.633904
10.922677 -2.386882 15.946561
-3.079000 -11.579826 79.406517
-9.646272 4.488887 58.079758
-13.748376 -2.874640 11.551110
-6.744341 -8.977582 54.401653
7.848442 -10.778696 94.577682
15.452356 -5.493742 63.718578
-10.721107 7.081704 84.489395
8.240254 4.573001 47.761784
3.576331 3.997501 66.468552
4.168293 10.064256 90.744720
4.904816 0.558237 45.226719
-8.998433 8.168796 80.942017
-13.440980 4.212206 63.508141
12.440295 -10.334286 55.007023
15.004879 -3.466052 81.864754
14.215380 -4.716428 31.906273
6.773284 -2.161027 14.134302
-9.671672 -9.954029 82.985031
10.118323 -7.207683 56.111446
15.722126 -0.480079 37.090107
9.231064 7.948185 92.537666
-6.382326 -14.361257 97.055946
-15.934740 1.089962 32.135990
-9.352570 -10.579899 56.531898
11.540623 6.105664 72.515900
0.009226 -5.597033 80.464973
-9.571236 7.603635 86.536598
15.028780 2.613793 13.587748
2.668781 -4.732098 64.463905
-10.150763 -7.197438 37.173195
-13.109496 2.862224 7.397028
9.889356 2.679951 13.343118
7.273123 3.775584 24.738522
2.620420 -10.414244 80.373161
2.950203 -2.689780 47.863483
2.398581 9.650183 88.448647
9.347476 4.900919 60.012249
4.723227 7.297784 105.633049
-10.841124 6.071912 43.498478
6.712288 -12.817940 89.102859
-14.583366 0.439748 63.745865
-9.889621 -6.508636 40.477783
11.830471 3.545969 64.894409
7.365903 -2.324408 21.987738
12.065125 1.763415 65.469101
2.697906 -11.614552 95.337563
-13.857419 -8.212446 74.783920
4.795412 4.202529 39.352840
10.824374 6.027696 25.269279
-13.895229 3.757801 10.257482
-0.919132 -3.904476 67.441879
1.984642 -8.954965 82.783447
8.174213 -9.386909 64.825409
-9.408335 4.727314 42.627590
4.187342 3.398075 75.882462
-11.020635 -0.085978 75.555824
12.144441 -4.605299 46.068207
-15.178017 2.780938 83.634308
13.405743 -10.417418 77.192871
-8.773226 5.131624 99.950684
-2.424527 -11.360620 80.719734
9.901577 -11.563210 73.061005
-12.556746 8.639471 45.410152
-0.927071 -8.424470 90.262123
-7.554278 -10.260396 65.224930
-10.556939 0.945560 57.614597
9.722395 8.467819 81.374680
-2.849037 -3.518260 42.076466
5.590417 -10.388400 90.391457
8.719365 -13.491198 75.466232
-10.990476 -9.438290 50.226456
16.998493 -0.032194 41.907990
4.589730 0.488404 47.019005
-8.369534 -9.040703 55.991829
11.890841 5.133476 33.524624
-2.120892 -3.309424 69.205132
14.271832 -9.200191 93.436287
-9.497450 6.466657 73.462692
3.694524 4.819687 80.517563
13.022937 -2.570542 29.287300
15.390160 -4.103305 37.507385
-7.213051 5.455177 67.919708
-7.151199 2.917932 30.544321
11.522049 -4.110214 58.406998
-12.693783 4.199636 56.176548
-10.468961 -4.700588 11.801533
-7.454929 -3.700760 23.835888
14.727906 3.712414 37.194073
4.356843 -10.798960 70.235123
-16.368593 -7.493402 75.831467
-6.550990 -5.407519 49.063068
-3.368027 -10.341517 91.968208
-14.033710 -6.567545 102.950836
-7.294546 -2.140481 38.548618
16.118952 -5.314090 38.981152
4.439095 3.411316 56.623127
-6.977193 9.165300 91.912651
-13.117365 -1.091079 11.924648
9.490447 3.121892 24.656918
-8.322946 -8.574318 53.286102
-14.082509 -0.840795 57.645290
-13.551167 -9.377460 79.019768
9.755379 4.229676 29.448540
3.475909 -8.215486 68.062653
13.987591 -2.133415 44.841976
-12.390068 1.622966 56.693893
-6.206673 4.490035 20.972126
12.042423 6.276749 94.455421
14.729396 2.050923 47.273109
14.313312 -0.120020 92.197273
-12.186770 3.557401 102.194366
10.302434 3.593274 42.463032
-10.025254 5.193839 85.828697
-2.189583 -3.525985 70.470299
-13.987886 -7.597367 107.864601
-11.958219 4.239563 14.702202
-12.069872 -8.891047 91.159370
-15.692232 0.459067 83.520905
13.733543 -9.923945 64.181267
12.538505 -5.221337 32.258362
-13.175090 7.826270 37.292332
-15.056019 -2.240650 87.358284
-7.753702 2.228208 26.217718
6.832385 0.191002 41.868038
11.008325 4.075984 96.244766
-12.258307 0.997412 72.738518
-0.780309 6.398429 108.776619
-8.862251 4.983939 106.004784
-12.890026 6.439147 24.610144
15.288141 -1.226885 46.005363
-13.140196 3.575698 75.489174
15.875392 -2.030552 46.088531
-13.465652 -0.575425 63.276947
-7.486046 6.705334 104.380142
-1.421115 -10.004298 92.351349
-1.900875 -10.411919 89.810455
10.314521 5.708304 100.064651
-5.416266 -2.666744 31.614088
-15.260034 4.564651 25.991142
13.614132 -11.738260 72.248283
11.450285 4.442738 68.026985
6.356487 -1.833461 11.419521
11.741997 6.563307 73.657593
15.119045 1.858377 98.413322
14.019332 -3.873121 15.870967
5.209763 -2.583755 36.927650
-5.908660 11.500535 89.889893
-5.675549 -0.524387 16.887264
-6.234810 1.762260 32.169521
-13.379652 -1.877363 26.552189
-4.497734 -5.795372 53.299259
-13.585526 -2.439007 9.012508
15.349128 1.882102 36.689194
-9.274261 6.171203 83.889671
9.212008 9.686210 77.080757
10.741055 -9.688017 92.993172
11.554579 1.175722 71.474968
-5.811421 -12.450573 97.329468
7.868486 -1.889359 30.326580
5.434258 -10.516286 76.672386
-13.607381 -2.794749 58.116379
15.078454 -5.561318 45.564240
-14.093459 -7.063172 61.610733
-6.821070 -12.539026 84.864479
9.802392 -10.984979 66.199768
-7.324247 6.787743 108.842690
-6.635883 0.332968 15.165304
6.418467 -5.539320 34.859756
11.250043 -9.500239 86.623306
17.290775 0.778204 36.443253
-3.677412 2.841518 75.176140
2.013854 0.876731 75.691406
-15.635707 -0.337703 29.604576
-13.299262 -6.695939 55.788956
8.288865 -11.671603 106.084396
7.379358 -11.667561 104.902611
-13.114226 -4.964083 49.634262
6.708817 5.869063 109.375648
11.909103 6.034099 26.964865
8.977657 6.305766 26.950497
-10.891565 2.348858 107.770569
-1.593651 5.363007 86.370125
-12.151597 -10.339142 67.764938
9.549869 7.798426 95.236801
9.011251 3.404759 103.749352
0.370659 8.744496 95.489479
14.536784 1.050046 63.393593
-14.480836 -8.283082 59.794533
2.207891 4.824289 107.864639
7.994205 7.736288 86.189438
-14.110402 -8.752518 64.161263
-6.505177 -2.060799 8.187220
15.042068 1.293980 18.138153
0.906809 4.084837 84.818268
10.465943 -12.130375 83.751640
-2.085872 -1.674502 67.696930
-1.122703 5.815339 98.043564
-13.664550 -0.994877 35.293732
-13.825844 -3.383887 60.623985
1.818806 10.785918 96.098839
6.676385 3.192755 37.651310
17.303926 -1.778300 41.142326
-4.594285 0.481463 45.765335
-9.584116 4.823531 101.361458
5.907032 -11.359671 66.913734
-5.678186 4.305827 64.331528
7.475344 8.388642 77.514809
-2.868567 1.513517 78.511269
-5.757622 3.053248 17.504541
-16.152872 -7.503922 59.672626
10.734711 6.521317 91.987656
-15.399203 -1.405396 9.667969
-10.079665 4.357430 13.415051
13.147705 -0.838139 105.631958
-12.814651 -9.099920 78.623596
-9.522977 4.461062 41.124733
-9.631855 7.152259 86.305481
-3.729788 -8.734733 73.354111
7.980249 -2.807621 9.157832
-5.590664 -1.432189 57.849037
1.631093 -13.672352 101.503189
12.873229 8.037240 49.759968
-0.720480 -6.217979 63.853535
5.070882 -1.855180 42.493382
3.416477 -7.397087 73.694206
-10.794946 4.305983 76.069336
-9.173906 -4.978868 40.911835
15.637751 -1.389853 21.931990
12.437349 -6.115859 7.667003
-11.987354 8.031096 83.928925
-5.645349 -5.947153 44.865883
-7.816856 4.126504 21.716511
-13.937254 -5.062362 67.274078
14.304729 -0.196844 92.210686
14.644553 3.205590 97.584236
-8.294595 -12.799058 100.968086
9.018229 -3.219312 22.880081
-5.781278 -2.634440 12.370153
-8.662537 -9.406584 103.791306
3.576882 -11.280148 86.642967
10.552398 3.796952 91.389206
1.360888 -9.266661 78.469864
-13.301935 3.455277 9.783995
13.255889 2.595345 51.239285
14.955121 -3.018368 45.666332
-13.401307 -0.592329 108.725929
11.521209 -7.358690 54.381138
11.950667 -0.746741 70.665955
-2.521164 -9.798335 90.571365
7.197982 2.942274 38.965969
-11.934061 -4.442250 78.024063
-15.282876 -8.597286 85.935280
5.833659 -3.775288 33.755638
-15.463193 -1.053247 19.763830
1.117829 -11.226947 76.812553
-4.488850 -12.488235 81.908676
7.187899 2.277433 26.736063
5.306345 0.647906 31.266233
-14.295584 -7.347716 67.262108
1.334339 9.565725 92.620758
-2.836234 -9.289520 60.161194
-7.749324 -3.642081 29.486004
-6.832645 -2.345335 19.852272
-12.465976 -10.922297 101.273109
-1.366006 -0.372597 68.102547
3.984223 -9.164092 73.638153
14.585666 -5.214972 102.925346
13.595750 3.148261 15.037384
-9.774698 6.404446 79.843956
7.006080 -11.800713 66.371918
2.783292 -12.995399 99.997147
-10.489559 3.316119 106.146965
14.438121 -3.295946 36.735634
-5.629174 4.380726 38.406815
-6.202522 -4.490120 48.099380
16.270731 -5.968552 81.741341
11.244931 -10.624606 97.693192
10.413755 2.092495 100.446945
-2.301872 -8.367378 74.486732
6.344729 -2.089365 39.495892
-9.198077 -11.245387 68.828583
16.021763 -3.100534 70.688248
-11.406486 3.186488 69.389305
-6.190780 0.913857 29.232254
11.981696 0.886860 61.898655
4.712255 -10.751487 92.151947
14.974283 -2.883461 60.049736
5.738652 -2.655021 22.922045
-10.694049 -7.928536 55.330257
0.299146 -10.122529 74.896690
7.072311 -5.132929 2.467272
-6.444614 -0.526948 39.905266
4.719880 6.752254 60.337208
0.179863 -11.374019 88.132767
16.071133 3.780479 16.981918
4.310157 -2.729867 61.776318
-3.424459 -4.411675 65.101967
-16.634600 -1.898110 90.692535
-13.920740 -2.291267 103.238937
8.060436 -10.973585 91.891914
-5.817378 6.257222 81.314507
-11.766994 -8.318359 88.647858
-5.726505 1.105583 44.313854
8.268292 -13.753879 105.283989
-5.432325 -5.340512 50.290848
13.220062 0.372656 81.022163
12.237071 -8.575271 102.602837
-6.072482 -13.809310 78.672798
-10.777472 2.784769 111.186195
-14.647962 -0.061052 90.030235
-9.112815 6.269688 52.618423
-0.899898 -4.485413 74.401840
12.809359 -7.689887 59.137093
0.846542 -1.289441 73.507576
14.462073 -5.341747 52.613609
0.642599 9.163346 97.325653
7.010484 7.298243 67.366417
4.289242 -9.541076 92.970268
-10.777527 -3.944288 41.136669
-15.586163 -0.080558 50.785595
-5.397723 -0.576731 55.596584
7.598088 2.447698 35.238441
12.578760 -7.735738 53.674934
4.451261 2.263978 51.013813
2.825637 -2.854891 64.854782
-7.243902 6.606858 98.649368
9.397671 3.785950 57.343182
-5.857713 5.513587 86.091225
12.258482 -10.887022 82.991150
-6.767875 2.377711 53.555687
13.822180 7.926764 49.586773
14.358611 4.227388 21.355118
5.486754 -10.885242 67.569702
-7.138638 -2.379441 13.910427
2.300906 10.576740 103.252518
11.361609 7.493564 69.753319
-7.588197 -4.005077 25.519146
7.496905 5.029346 25.566730
11.699594 2.542859 8.939232
-13.185154 -0.086644 58.659172
-3.699543 0.747375 45.475163
14.273526 -0.103588 53.324684
-10.632195 -1.279818 65.824860
-9.383937 5.930020 39.829681
15.344889 -7.873555 90.843590
-11.406603 -11.130735 71.612244
12.742801 -1.128773 70.938889
14.287036 -5.568629 68.431137
-7.161997 5.737487 106.617226
2.310485 -1.017403 55.240036
-6.839857 5.881251 36.747059
13.758955 9.456207 49.014809
-7.944795 7.439647 72.566177
-11.435916 1.933038 69.500847
-9.205958 -10.518647 67.202538
-8.312222 7.162616 56.173939
14.627731 1.642126 108.193848
-8.842588 -7.969903 94.752464
8.445459 -10.346457 72.066376
13.844428 -1.771725 40.872131
-9.214991 5.733285 42.905811
-10.042464 -4.441329 24.339226
-8.599284 2.153160 49.093765
5.131529 1.295141 57.613697
-9.100604 7.629192 28.174128
-11.991245 6.087130 35.024906
1.931883 -5.241156 75.723015
10.352270 5.977044 44.591335
8.131500 -2.015259 19.665831
14.789814 2.159169 40.449875
-14.830388 -4.628063 96.538406
1.282506 5.814727 84.869835
-15.811159 -7.803326 88.222046
12.492532 -8.718814 56.208118
4.225577 3.850323 79.014290
6.232552 -2.911433 22.231279
-4.367136 0.583015 15.423878
7.670433 -10.370158 101.788475
-10.825339 -7.269132 46.477665
12.389088 5.226429 94.340668
-7.998867 -13.069943 69.413391
-12.406219 -9.062752 93.458977
5.738271 -12.061422 102.663895
10.251368 1.720819 18.625477
-6.796055 -6.528929 51.344799
10.012311 4.384343 14.684588
-3.010628 -1.915164 68.242836
13.679758 6.344853 37.771660
-9.211390 3.873614 16.919352
-12.435205 -9.720946 64.734520
-9.659604 7.095482 108.478638
-0.472077 -4.144624 80.705399
9.951059 -11.401306 83.681000
-4.186981 -5.692699 54.112797
-13.704221 3.569780 60.007660
10.568271 3.481316 92.277916
-3.761348 -12.695561 96.430260
-15.964681 2.134005 17.035009
11.592183 -4.082422 24.680927
11.823953 3.688576 6.070277
11.250265 -5.856059 40.138058
15.762385 1.124183 17.852163
-2.813345 1.384167 53.480335
10.388310 5.524989 32.882477
-2.229204 4.912934 104.529480
-15.127679 3.238209 31.394266
8.031670 -6.893588 47.301453
-14.633003 1.315432 46.547203
3.956665 -13.041882 102.523018
11.890010 2.061652 3.819588
3.857902 -12.344710 74.099983
-11.663261 -7.833871 94.185265
2.790690 -10.860882 80.188553
7.110866 3.988171 46.256569
-1.957241 -12.780703 104.026451
-4.638568 -1.000443 33.880936
-9.229378 8.476560 91.937607
-6.628926 6.053022 54.602699
12.808892 5.726533 65.474861
-5.527250 4.490852 49.750328
9.570792 9.055099 68.513290
-7.910248 7.253722 71.758545
-13.819754 -7.823436 65.481094
6.503301 -8.435773 56.687473
9.212317 -11.617295 82.803192
13.162378 5.850355 43.283020
11.251282 6.465467 19.704597
5.517459 -0.544569 14.506209
4.211964 -12.364078 82.996925
6.581127 -2.944747 21.287716
-14.179964 1.195390 105.427010
-2.025484 9.235654 99.709435
-8.487381 3.811012 45.185555
-9.564392 6.526835 31.019753
6.777638 -8.452599 95.814568
14.454476 -5.397657 48.564945
-4.757052 4.650996 69.805969
5.987938 7.968855 78.961906
8.574418 6.623648 68.838287
-6.399118 3.359006 44.888412
12.613118 -2.460757 24.339127
11.082598 4.214405 55.528641
-0.619312 8.282674 98.020584
-14.748466 -2.940897 78.235992
9.915308 3.795876 20.480659
-14.878094 -2.369758 31.347111
15.177116 -5.177876 108.358208
-3.497168 -0.909195 67.960861
13.276365 -2.310769 17.795195
0.608827 0.998734 75.318344
-6.577354 -1.727924 33.064548
6.551829 -6.402040 46.153740
8.358018 5.463747 25.663637
-2.643192 1.599875 69.775658
-6.974341 2.291968 30.805607
-12.500736 6.291150 89.045975
-10.923739 -10.763638 50.395950
7.649023 -10.573199 74.336876
-1.573485 -6.094470 78.560989
-4.361094 -6.109847 54.859203
16.356533 -0.673710 81.405602
-7.800675 -8.546333 55.595463
-13.845096 -5.633201 53.410110
-14.128932 -11.847548 98.570206
11.968703 -4.434812 44.862892
14.411914 -0.442924 65.422256
-12.354070 0.725478 71.283180
14.168634 -1.870764 57.795547
15.988014 4.807504 21.717848
13.223824 -7.923725 57.382919
15.670768 -5.624824 9.531929
-10.021363 7.814275 36.034126
-5.462142 0.754531 48.055420
-12.520504 7.046186 64.947266
-14.314698 -5.641896 44.317623
-11.002177 -7.104854 52.708107
9.557506 6.083632 53.900585
-11.210487 -10.692483 73.474579
15.921355 0.677904 13.963934
7.173159 -1.661149 12.053955
-4.348170 -6.047951 55.914658
-16.407890 -3.138738 88.442009
2.099343 9.103518 95.185913
12.158122 4.122201 7.434648
0.172608 8.543604 89.040215
-15.738058 3.118227 34.606228
-11.073706 2.457915 6.565897
8.284424 6.226443 80.762840
13.897048 4.026752 38.200874
9.832172 5.611779 61.856228
-8.327044 5.304017 39.371407
-3.631755 -11.671614 83.435196
-10.970798 -4.447684 33.683987
-11.798971 -11.126666 84.367584
-14.571424 4.427524 27.392696
-14.590957 1.557875 11.458722
-7.878278 2.391098 8.985031
12.440246 -4.141143 78.734070
15.874310 -2.165317 11.395292
-8.796810 -10.616049 88.136986
12.503873 -4.736722 109.133636
10.714990 5.822844 88.995453
15.271242 -3.144288 87.774651
-4.217122 -13.539319 102.764145
7.892142 2.890447 17.565189
-7.164651 -3.624701 38.450527
-8.777042 -1.509341 20.306852
-9.885068 -9.828191 55.377968
-10.101519 4.460346 58.387257
13.133468 -1.696329 62.279697
10.465816 -9.673956 71.235878
-0.322222 -6.220009 77.587654
-3.321344 7.597205 107.401627
-13.780869 -1.778276 71.401863
-11.471449 3.545905 14.859004
-0.820453 -2.284180 70.926384
4.907578 -2.049284 12.943156
9.985783 -8.566060 43.454494
9.179751 -8.500164 66.080750
7.447312 4.782260 6.992620
-3.331002 7.855118 86.163963
-9.171921 -3.576341 11.877290
13.578707 -0.509492 92.595253
11.800282 5.040080 72.847672
-2.560064 -10.141316 75.570427
-8.025908 -9.759127 105.269226
13.578376 -2.095980 61.232677
10.343856 -3.584773 18.247160
-7.264585 1.603813 29.348183
-12.171040 -3.022825 34.577084
-9.663723 3.544310 80.699074
-5.120522 -3.981554 32.787823
11.764369 5.842978 94.914368
11.301076 0.725589 71.097282
-13.556112 -4.127314 40.569542
10.894710 4.900951 72.214539
7.017653 3.785635 107.256508
-10.686357 -11.264379 90.209412
2.797286 -13.097309 93.712578
12.009713 4.661730 91.669479
-0.087124 -5.550937 77.066345
4.875586 1.992330 34.350212
1.892701 -9.033041 73.081635
-6.384170 4.547547 38.053017
10.980396 -4.402041 13.938347
-8.561489 -14.015265 99.049454
-9.367439 8.475730 99.966667
11.980672 -0.140551 95.285965
15.214604 0.481612 43.101933
7.499733 5.804254 101.162399
-12.002247 -7.497138 53.916733
-7.825200 -12.969983 80.353035
-13.343474 -0.296923 107.940468
14.688537 -7.097260 101.340263
-7.290853 2.665657 50.815578
13.701976 -4.737440 11.911098
-13.601396 1.159153 63.892738
11.026757 2.780452 71.368103
-10.668934 8.202021 72.164803
7.175179 -12.605721 71.816704
6.761623 11.682822 95.907616
14.193986 3.266056 50.577084
-7.809230 4.505059 35.069298
-2.413944 -2.759471 68.347351
11.624129 -7.385640 63.584503
14.862634 -2.844823 21.013792
6.963770 -4.708676 31.265694
8.985649 6.084952 29.705408
-2.185054 -9.576446 82.916435
0.932325 -15.059053 96.368752
0.017402 -8.107206 88.604088
12.579470 8.407293 42.004688
-4.112744 0.525275 54.299267
-5.309268 2.357198 42.119812
-8.617872 -6.204770 48.405483
9.005954 -12.549253 108.123840
-1.497816 9.150883 97.186409
-2.661695 -12.643617 102.314705
13.898870 2.066207 95.214622
1.685809 -1.893790 78.612083
-9.421285 -4.603241 23.581150
2.269094 -10.104148 96.255402
14.253504 -9.794333 66.230774
10.664233 -9.770292 98.900894
-15.142658 1.809868 55.387043
14.529044 3.676315 26.035208
6.611448 3.044314 16.771477
3.717934 6.840509 108.301361
14.958853 3.608464 30.994705
12.181725 2.497910 106.825653
-7.666741 5.591710 108.433662
7.352672 6.985358 60.082279
3.633288 1.424108 55.921822
11.684329 6.666593 54.829895
-3.706774 2.449701 54.349712
9.116206 6.307767 27.347342
2.039536 -11.172732 94.550743
15.111724 -1.190992 107.836197
-13.494961 -4.313137 82.562256
-12.959268 -2.945622 16.299545
10.234589 -9.857073 103.254150
-10.029344 5.196715 105.348145
-6.849368 10.332213 100.064522
-7.719774 6.572150 97.419136
10.699641 3.179469 104.036034
-10.088104 5.618965 69.635750
12.890093 -0.248502 108.704788
9.624558 2.893289 99.100052
14.060572 -6.685731 66.571602
11.826596 -5.271681 93.847336
2.373868 10.915133 94.733208
-13.747216 2.664878 27.194811
-10.010083 7.077220 67.540794
8.635313 4.581075 111.051445
-13.773468 -8.041645 66.513176
-7.997464 -4.582742 30.300716
-14.703804 -7.018926 81.424072
-13.371069 -0.588238 71.809921
6.399964 0.773163 63.188660
-0.306191 -9.261141 75.663544
14.677339 -3.355624 89.188278
0.810221 -9.520620 74.238129
6.231306 -5.964286 51.317005
-12.069411 -0.341311 106.594345
2.135080 -6.791510 74.157303
14.244409 -6.849988 99.032372
10.780201 5.758875 56.076290
6.143242 6.560106 65.319595
-13.823154 -6.054006 93.732475
-7.359265 -11.568536 96.314018
4.601411 -0.916099 56.858860
2.891412 -12.183961 83.965271
2.831124 -3.512502 49.984680
-1.570151 -2.214810 65.278778
9.194965 7.395016 85.375648
8.195497 7.080313 94.635643
-12.110879 4.856089 106.979248
13.707257 -0.683471 97.159409
15.110967 -2.301076 32.170326
6.209827 7.224525 108.753731
-11.620624 0.687936 100.286713
-14.013765 -9.962454 66.890236
3.615115 4.106107 109.647026
-12.571412 4.193585 88.376877
6.666417 3.456289 67.432060
-8.672126 1.675699 12.803552
14.557436 5.024910 38.826447
-2.501110 -5.895846 81.247284
14.217036 -2.340717 9.759287
11.418517 -5.193853 24.733040
-2.813885 -6.848237 80.182312
5.886348 2.537516 47.777401
-13.038588 5.300490 22.146093
-14.555163 5.351687 40.335693
-14.539485 -4.261908 68.091606
-9.449062 7.073888 79.257835
0.052662 -7.813585 75.259460
2.804018 -6.241989 64.302773
-11.512779 2.080211 91.144279
-0.083396 -4.799380 76.248566
11.600304 -4.223570 19.687918
5.952178 7.021301 78.930054
10.284991 5.664276 26.538454
15.210917 -3.386088 41.062847
-13.785759 -5.892725 69.170967
7.964355 2.203473 17.064217
14.742509 -2.487148 77.730598
13.997347 -5.470148 94.860649
-7.323514 -14.357023 102.790405
13.362829 -5.806790 106.866150
-11.857077 -12.396030 81.550598
-7.060263 -10.967238 81.469315
-13.838384 1.340011 57.343761
-14.292561 2.290015 53.122219
-0.363643 -8.613040 87.292587
-14.195065 4.170131 76.713638
-2.077755 5.867139 108.203217
14.968321 0.707890 11.317242
-9.547452 8.638992 80.504517
-5.892894 -6.548193 59.177200
-4.127099 -0.152620 50.836647
-8.342741 -10.546394 96.692291
7.776966 -9.904696 66.166359
12.693342 5.241628 26.302614
12.165467 6.428222 52.011879
14.879236 -9.915984 90.150513
-5.019315 4.672411 74.164322
16.179892 -0.134199 38.462704
-14.208228 -6.705343 31.911432
-0.342270 -9.191424 89.350159
-15.615541 -1.240700 90.256195
6.526208 -11.440960 95.969093
-5.055661 -0.309474 34.353661
-3.010823 1.631716 40.024460
-4.637050 2.492121 37.362541
14.819711 2.826108 20.384363
-11.861073 4.074033 94.026306
-9.741506 2.607992 109.852058
0.431015 7.532626 103.834663
-15.524837 -3.009756 52.058765
14.235915 -2.479007 74.158546
-14.589956 -1.681760 79.695961
12.090832 -9.871799 92.538811
16.557077 2.549590 25.015450
-6.071869 1.288281 9.112975
7.743399 -9.147755 53.748001
11.562345 -12.123344 75.472534
-15.344433 2.133006 19.888754
10.871118 5.055124 47.659943
11.802447 -10.705317 68.440620
-16.333349 -8.807952 86.815941
-8.062761 -2.877043 18.174749
-15.304103 -3.904431 48.412270
-4.704108 2.276116 42.023125
-5.244606 -2.599924 30.424635
14.948875 3.229044 43.581806
-6.738817 -1.243937 13.689190
7.396660 -3.260023 13.565313
5.449507 -8.135633 92.443527
-2.158942 -7.784849 84.521149
-12.290683 -7.161403 35.975918
-18.245861 -3.927920 90.237450
4.936990 -5.448153 46.622829
11.638182 -1.730543 19.625275
15.466769 2.988000 17.484655
-15.475072 -4.459822 97.605186
-11.377241 1.000079 54.604633
-6.366098 -11.870028 106.046448
-13.713739 -9.245223 90.405685
-11.436815 -4.341259 30.913572
3.618829 -6.608160 60.640697
-14.077703 -2.229614 95.456841
16.165590 2.669704 9.449718
-5.194911 0.874706 43.014233
-1.026017 2.491340 75.328133
-13.450980 2.743766 73.705963
12.679475 -0.373857 76.863907
5.759280 -6.382285 52.938576
-15.021270 -1.056111 21.241783
-7.441350 5.727952 104.529556
14.365551 7.083340 92.282372
-7.036788 -11.261319 102.022896
-2.884452 -4.441230 56.825233
3.449386 6.322033 77.953629
-13.085541 -5.890305 79.723358
-5.696479 -9.773701 67.140373
0.551637 1.155135 80.257812
2.842287 -9.177500 90.220161
-12.412929 5.074653 25.204355
0.701719 -6.764326 84.149574
-12.983386 -5.872485 51.238831
4.070579 6.311419 103.147568
-13.196806 -5.574958 53.679779
7.792298 -0.077914 11.758659
-12.204820 -5.380959 53.575809
-12.597944 2.330312 57.774837
-9.579086 -10.970592 92.014091
-13.258046 -6.201934 105.326538
-8.335481 -9.417862 59.442936
6.005049 -11.540827 85.929649
1.468650 -14.130442 107.238373
13.066505 1.320100 109.619881
14.012920 -6.738689 91.098740
-8.502585 -0.567745 10.456464
12.717110 -2.314479 104.257011
-4.920009 -9.862314 79.197845
3.633028 1.514297 78.709808
-12.089199 -9.452767 104.483131
-7.003871 3.799481 50.898258
-12.225186 6.827496 55.482098
6.651440 -7.123880 41.683212
3.482543 9.650480 89.875824
11.469596 3.262510 63.660084
6.897170 3.377207 20.609871
-1.112769 -2.104941 51.326363
-0.805309 -5.295870 76.067635
-14.882047 -5.115186 59.842091
-12.814725 7.332709 35.166111
-11.652942 -10.076742 88.943108
-13.558836 7.670837 27.944284
-10.955557 2.993502 108.891472
-15.005886 0.019577 18.548241
-9.617838 6.978115 71.302101
15.020927 3.907764 54.212215
-7.187259 8.455027 101.282997
-16.682056 2.314271 23.145144
5.177789 -2.625897 32.084263
12.748258 -11.725833 83.168709
1.816491 -1.825603 54.788555
12.935387 -1.188789 43.240829
-10.853666 -2.972113 12.033884
14.947172 2.657254 27.591457
5.419259 -9.908298 89.655464
6.977876 5.319438 79.307007
12.644667 -3.904469 33.623829
4.859758 -7.523501 57.186855
-4.843000 10.212197 93.527565
-10.927452 -4.683056 106.111420
5.386355 -8.616678 64.043938
-15.767501 3.819930 20.230959
-3.263463 2.395660 73.954758
-2.436046 -8.064917 86.478294
-8.802345 4.988351 39.187237
-7.590383 6.120378 68.475487
-7.677632 0.636579 9.043218
-8.006341 7.408410 70.701210
-16.293144 -0.913134 30.844624
9.203005 6.812243 70.375816
-10.266552 2.863331 89.960175
-8.212755 -2.167468 14.512437
-9.944592 -3.341633 18.736549
-1.305256 -4.693614 69.470367
13.355748 3.625690 100.240273
-14.829962 -0.397559 76.220039
9.964821 5.248982 82.390671
-7.420173 -9.044557 43.520683
-7.443178 -4.650725 36.686653
-17.421059 -0.185088 102.825043
15.704677 1.230333 13.605138
12.243081 4.432940 99.413834
-8.088415 -8.190581 59.537216
7.341835 -10.370390 63.176491
8.795867 7.536724 77.795776
-12.760303 -4.198569 56.626198
3.767105 -8.043695 88.301300
5.590313 5.003045 62.440636
11.576573 -9.821385 76.007355
-11.357507 4.881500 27.589392
-8.536422 -11.540609 74.522301
9.042319 9.517180 94.505974
13.661978 -7.597365 41.703403
11.708352 -3.580386 44.268436
16.053139 -1.305297 29.110544
12.843772 4.103742 79.615875
-2.167432 -2.580217 55.243229
-13.009897 -0.293369 107.868919
-5.874275 -11.118568 76.191574
15.162595 -5.004318 39.585766
-0.876620 9.007520 99.109650
-3.983804 -13.614285 95.820976
-12.826062 -8.912355 87.789268
-2.345411 4.348051 72.537285
6.658017 -12.423192 89.820877
14.005864 -6.738931 9.917374
14.237921 -2.709836 49.041336
-9.098188 6.864038 108.224083
6.639656 -11.250277 75.391350
-10.079082 -12.056076 98.849632
13.014805 3.937589 14.037038
-2.939290 1.094236 80.808937
9.783569 6.263364 77.988632
-5.044062 3.298919 34.647038
6.456049 -11.246452 103.003403
-8.044003 7.932319 103.465767
15.185022 3.689805 37.424587
15.051101 -2.307196 25.978909
5.450358 1.973021 63.310997
-3.049084 -2.514607 58.169647
-3.214605 9.045417 88.333778
-6.171984 -12.398552 85.291344
14.634801 -10.887145 91.641052
3.592849 -11.684564 93.269218
6.273504 7.379714 82.770866
-13.280743 3.999779 35.995285
1.127156 -14.708570 106.786400
-5.549801 -11.695065 100.939430
10.216243 7.028164 33.124901
5.371047 0.271330 44.987377
2.047369 -13.206035 102.456284
5.031466 5.240436 74.418213
13.098911 1.081127 108.078270
12.261202 -4.528759 14.571837
-13.806982 -0.854777 85.108635
9.597466 8.301876 76.898170
-14.618741 6.066552 39.519215
-14.813938 4.509058 29.719988
-3.239427 -4.313115 57.541019
11.773499 7.247513 80.033020
15.054411 -7.355114 84.252197
-13.092813 -2.353951 7.514703
-14.559727 -7.634326 68.674278
-2.328809 -5.208930 68.343987
-2.923539 -9.374035 83.115372
15.200620 0.766322 18.437578
6.997321 -1.911510 14.416849
9.191115 8.590450 78.966537
-3.082324 0.117833 60.904503
10.425100 5.741382 95.823181
14.975565 -11.291795 80.073952
5.669381 -9.823514 75.113541
-14.494761 -5.100231 36.967762
-16.600657 0.880510 33.268497
-5.963746 -1.262242 13.490462
9.466059 6.113901 32.303417
-6.952489 -6.362622 50.788849
-14.350366 -6.856026 58.780888
-4.765066 1.699806 62.858356
-2.047518 4.201066 82.813026
-13.042656 -8.436552 72.278503
8.275551 9.245565 77.240952
-5.129379 -11.387505 82.303513
12.620533 -5.895195 28.705996
9.257682 -10.197430 99.863892
-9.053292 5.957187 34.616116
11.987972 4.754868 61.768326
6.036965 7.897068 74.386597
-13.422386 -11.886218 76.026657
-6.652480 -12.153931 101.970055
-8.913246 -6.887077 44.642784
-15.434935 -4.279163 79.190643
9.326142 -11.632084 76.029060
13.868131 -4.148585 28.384308
-7.356052 5.381907 30.650663
-9.114506 3.733312 108.404915
-12.066075 2.947132 53.544998
12.904077 8.118910 46.408714
15.854877 0.658466 48.954212
11.584075 7.045000 33.808037
4.139267 0.102325 53.885395
13.875835 -5.120558 85.543503
-13.597530 -3.192003 6.333901
15.797909 -1.249494 11.274315
5.933094 -2.039829 16.083559
10.745952 6.922634 94.883179
-14.629657 -8.818740 76.328773
7.848212 -10.577271 56.996155
7.741442 -11.169885 91.820045
13.827660 -0.828937 53.418209
11.251820 -11.612933 81.195755
2.770175 -5.746624 64.493385
-13.126965 -1.227681 63.509968
12.956516 4.690447 88.908829
-9.548318 6.904951 48.663353
14.107551 -8.912055 79.091751
9.004313 -2.485128 12.439914
5.753911 2.846504 60.429016
13.425776 4.703495 64.111519
-5.880658 0.774145 20.176138
11.274819 5.279564 105.082939
-13.146611 3.118287 92.273209
-1.865130 -6.083000 75.533493
-4.335528 8.020141 80.244896
-12.267821 0.644465 109.477371
-7.640895 9.491043 82.220497
-13.670404 2.314445 89.774513
-10.368172 4.565883 108.457993
12.548335 -12.513564 79.235886
12.409947 4.350955 105.440132
-0.231698 5.654580 105.422752
-13.719356 -6.305727 46.962513
-1.948417 -11.380707 87.324753
15.417284 -4.114955 54.614502
-12.649145 -2.485048 95.167618
