ply
format ascii 1.0
element vertex 2048
property float x
property float y
property float z
end_header
15.487896 7.640390 132.846268
12.020633 -6.981234 124.440933
4.193590 -17.817268 103.872948
-18.468445 2.179918 145.595688
-29.210154 -1.045128 129.808136
-23.960814 4.842537 138.789001
-13.321293 -5.918627 117.217186
5.720847 -2.021750 146.857941
-9.246401 2.018435 117.683868
-6.534577 -1.236804 149.544632
-5.946504 -12.699784 107.924385
23.699545 -1.748351 135.834229
7.740193 -12.105962 130.217346
6.594765 -10.060575 138.026337
-3.577772 -13.146378 133.765137
29.513824 4.805271 145.809525
31.592131 -2.411753 137.347549
-1.521935 -13.766436 116.822189
8.975912 -10.039164 115.248314
3.288622 -13.664671 124.478081
-19.996670 1.203297 134.472641
-0.144250 -15.339987 127.189987
12.472159 -7.907007 103.855942
0.435039 -15.623856 116.754723
-4.676995 -11.671509 105.236961
2.117185 5.583510 151.365646
-0.698298 8.584122 106.667076
19.626665 6.702833 140.718140
-9.590057 6.441869 127.428566
5.168512 5.538926 148.583008
-16.033674 -2.062372 131.502151
23.138634 7.383438 137.155487
-5.078063 -2.491952 151.929214
-28.651405 -2.783986 141.639786
-13.758008 -2.990530 128.314392
-4.770741 1.919647 149.248856
-19.654184 0.946468 145.424332
-13.421482 -2.049084 107.447365
2.242397 10.206901 142.559982
3.952478 8.766509 138.794525
4.201686 -16.520197 105.154411
-12.012408 3.684675 107.044769
-15.155751 -3.469178 118.302422
5.242252 8.177005 125.521568
-29.946583 0.194589 145.712372
9.280536 -7.287117 139.131042
13.575384 -0.607104 115.148117
-12.925330 4.247377 123.842369
-6.481384 -12.378177 109.728027
1.709642 7.432038 118.159286
-12.351045 2.940944 109.041222
18.050047 6.464470 136.402817
-5.852997 -7.246603 146.495193
10.446827 9.466364 140.295029
26.452732 -1.579956 133.509949
14.358858 8.082541 135.327240
-20.682531 -2.263565 141.026947
14.748189 -7.818631 137.473999
15.546854 -4.324857 109.011543
-2.387471 4.816047 112.393883
14.765552 -5.582222 103.766914
3.751412 7.214147 120.090218
2.732015 7.401038 145.257629
13.939601 -4.184813 126.174042
-11.028897 -7.549987 138.479294
23.972286 5.689774 140.528137
26.672989 5.413918 132.359619
-18.484770 -4.613455 140.788010
10.159563 0.491726 116.483795
-9.950671 4.373509 122.494507
13.656690 -1.284215 110.464699
11.878868 8.884165 141.792160
2.581512 -14.645980 106.426247
26.596931 -1.882033 130.257675
11.051140 -7.333324 104.582214
28.838390 0.613157 141.395935
2.713833 -8.317711 140.786377
6.784940 6.952095 105.135727
-26.382072 7.254863 131.238754
4.979674 6.254408 152.144928
-5.433258 -7.536712 145.063156
26.593914 1.521722 142.873398
-9.621498 -9.193707 125.812141
-20.311913 -2.861028 131.544342
13.088328 -0.347553 117.811646
5.671718 6.990983 128.382477
2.580503 8.533779 123.079575
27.057493 7.602016 144.225800
8.073205 -14.339208 129.089706
13.414464 1.540573 118.768265
-28.351627 3.356063 145.602585
14.936987 9.209902 137.584381
-10.402412 4.470040 104.478134
6.788197 -13.757049 107.965355
-9.336286 5.647282 103.335907
-11.146593 4.145479 142.829498
25.684557 6.003008 136.797089
-16.965796 -2.937999 133.405869
13.789797 -4.763682 140.353806
-4.909741 -3.047259 151.679123
-11.022121 1.115220 122.465530
18.682486 2.254325 145.022659
-19.669455 1.257654 146.387695
13.484685 -2.643007 110.650650
-11.325480 -7.754834 120.823067
28.591898 0.878770 143.958954
3.987098 5.854438 110.523804
-7.077340 2.543607 149.418991
-5.017727 -12.031351 128.220200
-4.637042 4.228534 152.086990
-21.372601 6.968121 141.983978
24.072803 -0.807028 141.328079
22.936762 -1.166528 142.090240
-3.672966 5.694205 150.259613
-5.009950 -3.093991 151.571930
9.199165 6.645827 126.632767
-17.122089 6.874893 143.405792
-0.596892 -12.842413 131.912811
2.134058 9.092141 138.999817
13.691265 -2.662530 125.498840
24.321989 -2.984678 135.148178
-13.210123 -2.985409 128.237122
-17.670515 -2.390710 144.299591
-4.720860 -5.085322 145.999344
-8.183524 6.116851 146.022171
-10.593735 -7.283744 128.936630
8.133359 -11.799719 107.319824
3.469163 -11.832685 144.377289
23.408113 0.542276 129.379364
-0.670565 -11.115167 106.894234
29.943203 6.018278 132.132889
4.545358 -14.874402 120.363861
-20.795298 2.014236 130.857346
2.210610 6.817636 116.108131
26.139023 -2.088509 132.147064
-20.921118 -2.684648 138.311371
-22.841806 1.486148 145.346542
12.286875 5.794682 127.077377
-12.686424 -6.160276 138.218307
-0.602162 -14.703592 105.453987
0.022049 10.625657 133.091644
-15.579236 1.230602 129.592438
18.602152 6.956887 141.419861
10.666984 9.147272 138.335022
0.075695 10.474964 127.060646
12.550829 -11.278818 135.093750
12.983752 -6.519260 139.410034
8.295743 8.133288 132.584274
-1.937371 9.129630 139.126007
-12.586291 3.235833 145.715195
3.403655 -16.475534 111.076813
-25.684286 6.694647 135.096130
-24.678722 4.728807 143.069931
24.687141 4.617816 137.369659
-29.284872 8.441248 137.418060
5.790592 5.573824 108.941277
-12.836374 -1.651846 112.710861
-20.637512 -3.335738 135.393112
8.184492 0.013270 146.728058
-14.551567 -2.667679 129.981247
-13.703075 -7.173993 137.899002
-3.363053 9.281298 136.506241
3.920440 -14.240470 119.593338
-0.157019 9.881812 131.543228
-27.475292 6.818407 145.219559
-1.285362 -12.034202 105.971588
-10.165958 -8.265825 121.300278
-10.068208 5.423009 122.607674
-14.464212 -4.611437 113.170288
3.392771 -0.049574 148.282318
13.893269 7.890780 139.760925
-2.448013 5.999058 147.164505
-5.170729 10.733849 133.926392
-13.136468 -4.926780 124.046524
8.972658 9.025009 126.411125
-8.518171 -12.111841 128.251343
29.196043 -1.545735 130.809937
15.684696 5.954277 143.707672
-27.786081 -1.797785 141.358475
31.281460 -3.105380 134.495773
-7.408407 6.051071 117.810936
-5.224954 1.172428 115.868515
7.620733 -4.524245 145.588470
3.307027 5.440420 106.823250
0.365786 -10.778976 141.357254
-4.857805 -13.586221 106.434792
-8.784335 -8.862242 126.450386
10.738884 7.579024 127.872673
24.626795 4.302967 131.461685
1.076555 7.292106 117.908257
-27.611586 0.880453 128.586349
-5.214346 -13.818475 122.904221
4.016098 8.500271 107.959129
-7.022076 2.074321 110.976532
-28.254656 4.325406 143.093735
-13.652946 3.561306 148.029526
5.122721 -15.803979 110.672226
-23.219656 -1.926844 136.955963
-8.601871 7.830076 126.429703
11.083093 8.689715 138.558151
25.812138 -2.783781 133.362839
-16.853348 0.566060 129.384552
-0.211806 -12.775428 134.838120
7.526738 -5.185513 144.930969
18.999580 0.395380 144.243454
27.130262 5.481631 139.599060
-12.173876 0.486756 110.457664
12.583406 -1.641439 112.131981
11.159326 3.027772 110.470093
-11.924890 4.462929 107.965065
28.644072 5.401889 139.585007
20.740509 -0.954677 136.180313
-26.280876 2.047325 129.729904
-6.202788 -13.032104 105.804474
11.261712 -8.204436 112.920311
-15.533096 -2.399189 129.654419
20.508062 -0.630851 133.818451
14.366612 1.752372 126.821640
-5.256786 5.276620 115.587639
-22.294847 5.967200 141.840851
13.038670 5.729578 125.732155
29.099842 -0.648686 128.249374
-19.889900 6.918688 142.947571
1.611854 -10.177106 141.685364
-12.402988 1.287628 107.581161
-11.944759 7.326629 131.397659
25.988550 7.462403 140.645889
-2.648652 4.062752 108.527313
1.464764 5.966814 149.856079
8.323292 9.831683 141.176086
-2.670580 9.678140 135.426849
-7.956579 9.094542 144.315186
26.810579 -1.181509 129.070572
24.661486 -3.487080 132.657074
22.524242 -3.088373 133.749664
7.128204 9.231495 142.422562
-10.487610 -1.352710 147.956482
8.041359 -9.912440 116.739258
14.817000 -2.908235 110.195732
-12.999670 -1.400447 121.124802
-0.121000 -8.638042 143.770218
-13.428705 -1.286481 103.439613
-15.280449 -4.941359 116.152779
-25.855242 2.574584 143.946350
-7.188443 -12.143821 111.117348
24.023254 1.607783 130.195358
-25.470406 6.258617 135.116058
-10.370196 6.721076 123.637627
17.655081 3.662500 135.668747
-26.587265 5.463121 131.545715
21.680193 0.552608 130.160461
-1.025473 -10.756346 138.421570
-8.422387 1.842409 115.496788
0.721142 -14.424129 120.034431
-2.158110 6.890963 116.151955
7.483105 -7.645277 143.217026
1.463416 -9.882454 143.401520
16.772902 1.408296 130.502960
-4.343560 9.256253 137.950363
2.366373 -14.919512 118.283714
13.446883 -9.023155 135.028793
-13.109451 -4.838035 133.570297
25.134890 1.151033 130.370377
11.979403 7.159176 140.799637
26.657885 -2.171381 139.867111
-8.440682 -10.716065 106.766289
5.147859 -2.703658 147.561737
-10.064667 8.674775 143.123978
11.698991 -6.674859 142.720306
29.507011 7.761674 139.909058
-5.099254 4.773518 146.242508
-6.582967 10.626124 138.968369
-4.647389 6.171424 108.244507
-4.563048 -6.376408 148.138763
9.805032 2.250376 114.010475
-17.176363 3.820922 142.128830
-22.416918 -1.796500 131.777039
-15.366459 -2.116075 127.977119
9.489950 -10.608567 120.140305
0.871950 -14.855595 131.794937
-10.885115 0.342649 120.870476
-3.886333 5.473852 108.948074
12.010867 -8.689548 136.183167
-12.500802 1.731361 115.716972
-6.036707 -11.643371 114.741379
-11.547341 4.264873 100.522964
6.141291 -7.082867 145.738876
-12.413447 -7.111022 113.555389
26.849464 2.788460 130.943817
13.161405 7.038339 142.875015
13.304827 8.230510 131.642593
-8.887821 -11.706544 108.520340
11.321903 -0.627037 115.406013
1.457942 9.728574 122.451714
-4.257860 8.653502 126.110481
30.049744 6.342285 139.330673
-10.800228 4.704016 146.917618
-11.716976 -6.202024 121.949211
2.358589 8.023329 146.548691
5.994042 7.644712 103.819008
-8.767502 9.310288 137.056931
22.723507 6.654917 137.194580
-28.164494 0.636173 142.587143
15.259232 8.635885 135.014069
27.476084 6.035263 145.663528
15.354372 7.328130 131.701355
3.492724 6.930820 106.389008
-5.563012 10.037819 132.732010
10.690594 4.855337 145.451324
-17.642500 4.775509 144.760162
17.337139 -1.204591 144.932098
13.784695 -4.582449 108.969048
-10.687742 -7.416763 124.849716
-26.161787 -0.632323 129.416748
-13.200266 -1.485298 108.367523
12.949047 -5.792068 123.688065
-13.327888 5.143967 123.771400
28.824497 7.291335 143.591843
8.796444 -12.024976 110.332138
5.531369 7.314205 122.421051
0.450851 9.941168 127.267479
-24.740202 -1.161064 133.034805
10.075606 -4.668111 145.026382
31.590528 7.170347 142.976196
-21.073462 3.170453 144.843109
23.366161 -2.113511 133.722870
-13.304254 -6.000210 119.592720
-11.273812 2.060333 109.789810
-21.932135 3.055129 134.821075
12.282075 3.718404 146.651108
-9.863101 -9.933375 121.315941
25.585077 -0.027779 143.325912
11.252289 -2.597522 146.436554
4.966899 -15.061918 103.347092
5.101363 -12.190303 132.070908
-7.127925 -11.055258 135.492538
-7.606667 6.795647 143.864990
-3.520060 -13.450816 117.227539
-28.328222 -1.923842 129.221680
0.228983 4.480891 149.946487
-1.611681 -7.930217 142.956421
-10.870461 -0.093422 121.021599
1.067962 8.675587 135.705856
-11.847074 0.581841 101.993828
25.261881 -1.514607 129.134171
25.299402 3.262253 129.698517
0.001354 -13.992007 106.297600
17.240273 3.652724 136.283936
13.519159 0.329971 107.036407
-14.259261 -4.655984 108.449860
-1.802340 6.909722 147.656616
0.899288 -14.604173 127.157570
-12.000267 1.474948 110.095657
-7.053123 -10.660786 115.802025
-0.900949 -7.251272 145.008591
12.624390 8.211583 144.112762
2.600039 10.428840 128.205734
18.990068 -3.797107 141.232422
-29.466198 -3.169242 134.038834
-11.584721 -5.541630 140.044403
1.642232 -11.648893 140.214386
26.784861 -0.695107 128.484787
-9.441090 -11.276323 108.085022
15.633340 -5.308088 132.920105
-13.521798 3.321457 125.250008
8.373477 2.781585 147.901718
-17.147482 3.707361 135.466980
-5.717608 -13.796938 126.586128
11.709289 -11.196020 104.468178
15.678769 -4.163949 133.811783
27.458786 -0.878608 126.596687
29.429415 -1.734587 142.849319
-4.192522 -4.575871 146.814407
-14.763924 -4.149989 121.038208
11.924496 8.298097 140.869583
-5.190144 2.309187 151.051834
29.371214 -0.780447 131.808640
10.603984 -8.884865 136.876633
7.860673 -11.006582 121.982880
-11.243732 2.754797 114.168785
-25.405443 -3.364661 135.946503
16.142691 -4.375733 134.787247
-11.108524 -7.515410 122.473328
19.217016 3.687896 135.574921
-13.807860 9.099504 137.367386
-5.210025 9.248209 137.923157
14.024365 -3.433860 105.634277
4.245763 4.468643 150.187210
12.401269 -7.013520 141.189529
11.900963 -4.983673 111.223503
-22.969473 3.954304 134.474289
-2.020144 7.203393 142.791824
-15.449463 -4.776172 107.974937
-7.645287 0.996964 146.217178
4.909514 8.435739 145.718231
-3.661522 5.562697 112.728539
11.569448 0.807580 115.262367
3.138768 -1.347997 149.142258
-14.725441 -4.456755 117.299507
13.397365 7.835893 131.026520
4.332788 -12.450252 134.300919
18.674105 3.596223 135.727371
9.928359 -9.188384 120.492210
12.197021 -2.106244 103.775681
-13.417173 -7.914820 134.471954
-27.026503 -1.865113 142.761765
-13.049709 7.046706 130.869019
0.636479 -11.543645 138.761780
-29.109743 6.116791 134.773911
-16.612902 -6.045536 103.943710
6.013737 -14.103890 104.003166
6.579329 6.119036 106.646675
-4.550728 5.223784 116.028076
1.042000 -8.227998 142.580917
-10.782271 -5.296704 141.085312
5.084419 -12.178837 118.631676
22.781906 7.090872 139.407944
22.117340 5.603685 144.882797
0.022548 7.070080 151.106628
-10.656186 10.035133 140.946304
13.588874 3.460685 146.649063
-26.767658 5.024685 129.495422
-19.623112 -0.565464 143.807877
-10.251558 -6.890901 122.350899
30.618170 0.057520 143.956924
21.198282 5.599596 139.283325
-4.024622 -13.343232 122.460815
6.821875 -2.615991 148.477051
27.827526 0.657548 126.947639
-0.715360 7.077890 113.442772
24.452950 -1.815484 129.786346
-0.311653 9.440566 102.435936
11.165391 9.784946 136.785599
14.348381 2.126105 147.684021
4.625705 8.817663 101.883026
0.662019 8.818188 129.974426
-6.812018 -12.660654 130.831802
-5.851347 -13.644286 112.277153
4.876985 -2.389333 144.759171
20.101887 -0.958551 143.049500
-6.585333 -12.837109 116.646454
-24.916235 5.887057 141.742508
-14.275870 0.271091 117.942528
-2.855498 -14.316110 114.255898
26.764915 2.984282 143.018631
-13.091946 10.699872 135.994385
15.177040 1.487675 127.954361
-1.132816 -11.875345 106.286804
-23.538897 -2.068740 137.108292
24.558348 3.224756 132.969009
9.237113 5.823176 143.477554
-4.647786 -5.620111 146.355606
7.605235 -7.675152 142.535461
11.536552 -7.661501 107.071564
9.526269 -10.365361 128.753021
10.930573 -8.405202 127.476128
19.745514 1.471056 134.401459
10.144550 -11.216632 135.171661
-8.089019 0.124484 148.154922
-11.338836 2.519706 123.554970
23.725939 2.772903 135.058548
2.431268 -15.850748 122.332573
11.943131 -6.386038 113.208420
-0.591971 9.175136 100.693626
-12.092676 3.771677 126.421349
-3.128545 -13.804461 119.529030
-4.209625 4.993879 113.589821
-2.253067 11.180079 125.448700
30.824244 -0.192040 143.907654
-12.195504 1.324688 117.809319
29.764851 -2.367922 135.422745
-23.337337 3.524479 145.535065
8.406611 7.183321 126.856621
10.485353 0.376822 146.224854
1.848204 4.928401 114.397102
9.335969 8.781057 132.137451
-22.187225 3.300722 145.560638
8.781330 7.256671 106.265503
5.095162 1.161864 149.911484
5.298904 -13.390051 104.171204
-11.904594 10.611781 137.436707
0.587065 -13.851300 129.283661
-17.461823 -5.713395 136.758026
-1.380470 9.418504 121.710594
-1.884825 5.127899 153.364838
25.497963 4.675517 145.233627
2.808065 5.302935 147.970001
-17.585779 -3.648689 139.981110
4.803885 -16.754114 106.824196
18.448538 2.208037 146.366333
4.743071 8.290492 104.488831
3.504851 8.893765 139.988815
-23.653360 -3.399540 138.781677
-14.037595 6.139693 145.256317
7.048244 -9.335421 140.120956
4.409142 -11.848896 132.095367
12.543128 1.344849 110.087387
-5.114097 -3.990882 149.021729
4.703422 -7.173068 144.583664
23.679220 2.597591 132.660355
7.404263 4.056771 110.038177
-11.363439 4.515278 144.615585
12.922783 -1.744226 109.797508
1.324247 -13.752269 130.552612
-23.929070 3.517025 145.122559
-3.355254 8.040315 138.355057
-1.687360 -13.545209 105.083549
-21.280432 5.240716 136.712814
-6.406323 8.766986 134.220917
-16.529133 4.937375 132.749817
-10.798848 -10.751995 121.042320
8.165189 -10.280357 132.304840
-5.752809 -1.137100 144.540329
16.806946 -0.419367 131.860321
-15.081879 -3.279591 117.919380
-28.908430 7.170516 132.682831
-0.262018 10.413467 134.059250
8.865552 5.743453 119.373589
6.816852 -1.991348 149.958099
18.354462 3.205200 135.695221
5.984677 -1.524716 149.589127
-19.808872 2.193172 144.779861
-0.887436 5.069763 112.266418
12.566032 4.476664 107.200417
2.284482 9.078270 145.350510
3.696136 10.513348 129.683090
7.523668 -7.265602 145.686798
8.363512 6.576906 143.137512
-31.734135 1.293167 144.002197
-3.861369 -10.974819 133.683716
-16.312284 5.343481 143.691666
-10.806090 7.478105 140.828796
3.914198 7.628131 145.850967
-14.463194 8.634892 135.754196
-11.082513 -8.291419 136.594193
14.651323 4.238241 131.184265
-1.690373 -15.437165 124.526367
-26.168831 -4.989759 132.287140
2.166945 -11.599915 131.857056
15.726160 6.964952 140.301605
4.949044 9.875651 141.388718
-22.083927 3.796138 142.598480
10.445668 8.872470 139.927322
-17.436335 -5.043701 142.909271
16.336372 4.087257 134.267227
7.070708 -7.439425 139.208939
6.330957 7.902338 122.894936
6.796922 -11.598440 122.551689
-28.057364 0.471544 128.868896
-29.227619 6.384911 135.178192
-0.064444 -13.133506 128.770401
11.591490 1.515480 120.531136
-14.743127 -2.012370 108.081871
-3.941105 -14.109634 115.384781
12.406329 -6.987704 111.335182
25.936678 -1.579323 126.558655
-14.077806 0.955399 128.454819
2.169990 -10.035761 141.556564
17.543961 2.920117 132.965195
-7.407765 -12.546040 127.191605
7.243186 -12.090236 136.448242
6.127829 9.781681 141.159790
14.858222 6.483605 142.116409
-13.846348 1.266407 108.029060
0.788296 -9.764241 140.606735
-5.620284 -14.697620 129.389679
4.007199 5.780585 149.438217
-1.823933 -11.111963 138.774796
5.793283 1.452280 148.518906
-26.535494 -2.380255 137.877014
-1.524019 -12.858837 103.237762
17.003668 2.860760 134.078323
-8.303758 -9.847841 136.462402
-13.587959 -5.373543 112.549217
-14.896255 -3.245847 114.698326
-7.001399 -3.654047 147.542435
-11.534178 0.838120 122.396332
9.608202 0.883198 113.367195
4.966556 -16.289898 116.399559
11.521734 -6.552579 128.121094
-4.225264 -10.802931 135.026413
-21.375385 -2.475370 135.510895
14.236925 -0.721149 145.079910
14.952561 -1.854583 113.628441
11.652181 -7.952528 132.106232
2.469443 6.444376 109.891006
-7.942398 10.154146 124.470444
10.440613 -8.123585 138.876251
-27.556446 2.012368 143.919769
-6.604160 5.555079 107.041855
26.579128 -2.552404 136.187515
-0.222769 8.760591 101.819618
2.343411 -13.025476 127.921425
-14.239366 -3.327032 111.695000
13.923161 6.678214 130.005157
0.172864 -8.180620 149.967651
28.415731 4.949578 136.749786
23.161894 0.515510 145.174438
-11.962996 2.008895 146.647644
-5.740075 -11.077543 113.166466
-1.662776 6.158142 107.043816
3.375522 -4.954906 148.052292
11.168581 3.821708 105.549026
2.446359 8.445297 138.328720
25.091763 -2.218830 139.011307
-26.353210 3.275418 130.837173
7.702446 5.762666 106.602699
-11.403028 -7.916692 112.959724
-3.423003 -12.922084 122.080963
-22.928347 6.203947 138.759628
-0.451782 -14.493277 113.254379
4.987215 -8.868558 141.384308
-14.297951 -0.073138 105.707611
-6.524490 -10.478156 114.103760
-0.500371 -14.867634 111.906593
15.668520 -1.529729 142.613647
5.386345 5.373590 108.985947
10.634104 6.364939 122.687775
-14.833804 9.323380 136.269974
15.984410 6.926243 140.011093
-1.120669 -7.313995 142.137939
8.574026 3.694748 115.345345
-11.201867 3.610208 146.084351
12.795255 -5.322641 105.746025
5.691406 -12.182289 130.912354
8.122568 -12.310183 108.331375
-6.905912 6.860536 145.289368
-21.560760 5.894618 142.522797
4.093976 6.617907 116.515144
-6.419492 -11.691254 107.239891
11.912195 -7.888553 122.885910
21.203827 -2.000417 139.288513
9.718095 4.528482 110.127373
-25.086906 -2.011019 141.078033
-0.126672 -14.445334 122.881241
21.625458 -0.381330 138.321335
23.974989 -2.318073 139.531662
13.495536 0.189779 102.858604
-25.810883 5.286489 131.280533
-27.995127 7.114352 137.576141
-17.555584 5.154541 142.973846
-1.006927 7.210846 148.743454
31.028564 -2.181985 130.789612
9.224649 0.684656 145.990295
-5.552621 -7.281376 143.036545
9.008936 9.254512 140.570419
-2.427488 -12.250435 119.123749
4.498728 9.406539 143.554794
7.089738 2.041816 145.934540
6.550140 9.290582 138.218567
-6.400835 8.195528 101.029053
14.347260 -0.671980 116.257797
15.509638 6.396144 140.749405
0.570706 11.005474 127.109589
-19.424562 -3.505043 139.549622
-2.103007 -12.597404 135.084137
16.557713 8.896288 142.168762
-7.365910 -10.251103 134.569382
-3.202501 -12.131708 133.751160
10.636245 -5.644295 110.756798
-16.238829 7.134564 131.769440
3.724970 -11.169812 134.788422
-7.789591 7.644707 143.546234
-5.384027 -10.069437 140.737839
9.964746 -11.297665 134.435120
6.254581 -2.389891 148.104095
6.318775 -11.070693 105.991043
26.974335 1.481577 128.698746
30.898212 -2.827793 135.634491
0.960458 6.674404 115.925293
9.222273 3.967985 120.348885
29.989079 6.672698 138.807007
4.021623 6.537039 119.937134
-20.897898 0.472555 135.043472
25.803453 5.848112 137.726791
-23.690603 -0.575925 141.912201
0.755178 -13.666686 128.386230
5.273042 -11.681322 121.617302
1.180566 -10.609974 143.177994
2.805041 7.666137 144.837952
2.468112 -10.192623 139.014099
0.633404 -14.067860 130.310654
-0.918430 -15.030568 115.345749
-8.720447 -11.855918 106.003571
-16.029800 -3.403623 103.600327
-6.252505 9.387424 104.304123
-6.844529 -6.791476 145.376358
5.112332 1.873074 148.077606
8.149396 3.826745 145.936493
11.480975 0.073320 120.198509
-1.729198 -14.674188 118.841393
14.959081 7.796915 134.901031
1.279251 -7.190042 142.380997
-26.860643 -4.255775 136.927963
-13.066246 2.832035 128.190842
4.627791 3.903053 109.013420
11.104589 2.294207 109.206779
-27.579590 -2.593293 135.767868
-13.183882 -5.008508 121.739403
-18.760828 -4.443819 138.439896
-12.935176 -5.368598 122.831619
-0.728364 8.631878 119.935616
-27.407692 0.131884 142.511292
-15.670074 -4.918120 109.371513
-10.240957 6.574530 144.390991
-9.060549 -3.349426 148.392395
14.310350 2.610442 104.199837
6.057961 5.205480 116.058189
7.386842 -12.440343 115.015274
5.098101 -5.733975 149.471786
-21.911530 0.868049 145.127808
7.102729 -2.354514 147.461319
18.926449 -1.950838 139.417267
27.986656 7.104134 134.655701
-23.246326 -0.394575 131.467957
0.780452 -10.836525 140.520660
6.153575 6.781241 108.986488
27.491203 -3.114791 132.587662
-9.912456 -9.596648 124.966934
13.028580 0.048874 110.252533
13.439551 4.045286 126.616089
12.196540 0.090323 120.581543
28.955982 -3.517379 140.652908
-15.176399 6.043597 132.417892
-21.352001 -2.152185 138.088654
29.936394 6.632673 140.882507
22.325264 4.423234 136.000076
-15.475650 -4.881843 132.963470
14.009740 -7.030190 106.459023
5.964854 -12.059463 120.367363
2.428376 9.459053 142.859039
-0.456686 -13.464204 118.699287
-28.054905 5.193938 129.790939
-8.604349 -2.926607 147.442429
-16.516792 5.972723 141.608261
9.548536 1.650734 146.207245
-0.794058 -13.696154 118.536507
-6.743395 -10.967694 135.443619
11.887342 -5.753804 110.692070
29.617403 5.693262 134.727905
5.843361 -4.224627 148.768127
-26.841568 -1.932630 130.969559
-2.531194 4.825720 110.748764
-31.371401 5.031388 140.003128
12.134715 7.050220 142.772842
16.832409 -5.707110 141.138367
14.653269 3.894309 146.465958
12.968204 -6.693473 131.978668
-15.806966 -4.078235 104.470634
1.936733 8.848003 121.920776
14.194575 6.589896 141.570084
-7.149198 6.333919 118.843513
8.796330 -11.653676 127.971375
1.758781 9.466911 141.234467
0.791370 -15.413102 116.875320
0.535561 9.568600 127.776985
-27.569521 4.562962 144.515961
-11.482521 -7.410592 112.686485
-1.822044 8.617045 115.668343
12.331390 1.599234 104.100426
0.007135 9.601844 142.309830
4.249983 -14.722555 116.314278
18.149195 -4.347602 138.693573
-26.426815 3.416051 129.715103
14.718596 -2.091662 122.242088
0.714337 -11.008128 143.131653
-23.164970 -2.236426 142.139175
-18.609871 6.810199 138.014420
-8.852272 5.409010 122.253418
-23.659824 -1.512346 137.655258
3.502220 -14.158036 127.362465
-17.103724 -4.079994 142.068542
6.697968 -7.237201 143.869812
-7.881397 -10.664439 123.663788
-0.360278 7.234320 148.042023
18.301624 2.398171 144.145782
0.980789 -13.628166 132.757309
-6.219548 1.433694 148.392075
-2.644892 6.604858 148.005585
-7.350948 -7.966775 143.216568
9.880087 7.222208 126.486626
14.795571 -3.225403 107.254242
-11.817312 3.930622 127.223007
-6.577185 4.896981 147.074844
9.501404 3.726252 119.040466
-17.637341 -1.499114 134.911957
6.367666 -6.593882 146.541443
1.978900 -12.118882 136.208054
-9.684675 8.018373 103.118782
12.842438 8.421129 139.406189
11.366831 9.164862 137.909821
4.689771 7.443991 121.188568
-11.018187 2.642609 117.330032
26.643847 7.064679 138.784515
-16.053108 0.625212 128.997040
19.653704 2.440795 133.481186
10.320371 -6.073117 125.733955
4.629423 6.803884 109.732681
5.180207 6.792687 123.747520
12.876349 -6.218476 102.287849
25.903500 4.780433 145.298691
4.107770 -13.927864 111.747482
-8.400066 -11.860498 121.120338
0.659558 8.893254 141.942657
-26.466320 6.138152 132.699661
-0.404968 6.144123 115.672112
-19.869726 -3.824321 140.277252
-2.708344 6.591618 146.924072
0.430238 9.688280 125.459518
10.569564 -9.549570 125.070702
-2.031501 10.415757 137.573318
28.146534 5.918881 134.003159
16.248905 -2.148769 145.477051
0.400358 6.057123 116.223267
-9.811102 2.112536 146.789307
10.988427 9.719042 129.333237
16.214329 -7.167793 137.432587
-5.712094 10.415737 132.882492
10.262231 -8.243603 109.617935
-28.069302 -1.241434 129.830551
18.596216 1.567318 144.044312
-6.698006 -0.906763 146.903534
-9.598211 -7.647634 118.366188
-13.943626 -2.559204 122.902840
-1.202162 8.351281 146.448151
31.777487 -2.433448 138.935516
-13.351132 2.053469 119.914940
9.615686 -15.526037 107.023239
-1.792961 -14.314816 106.663605
-15.063492 -3.109731 143.678314
-24.763418 -3.659289 138.173981
4.204470 5.908261 146.026718
-8.847903 -9.403406 136.524933
-13.358026 2.184251 127.818489
-5.123144 -12.493377 114.027962
-7.881966 -13.126963 135.169067
3.979562 4.511542 150.404449
1.083573 6.436069 117.658707
-29.835295 4.850688 144.002899
-16.828505 7.690899 140.604202
1.788944 7.367892 134.147858
-5.611053 -11.719505 113.023697
-18.228922 8.041511 142.872192
24.402115 -0.077269 129.437607
9.509604 3.065634 113.960548
10.427004 2.238356 110.733925
2.137121 7.310196 147.052521
-14.303003 -5.789258 129.919067
16.481068 4.358203 146.575027
28.904119 8.421882 138.220459
10.717001 1.596006 112.149796
-23.403252 -0.970689 129.967484
-17.473425 -4.384242 137.994812
16.138962 -1.312443 131.379333
27.544840 -0.624812 133.315460
11.320027 1.668655 118.941063
6.988228 -11.517738 125.527023
5.815796 -12.503661 111.749374
-3.108661 10.289980 120.992165
-22.909889 -0.029872 135.353775
-29.456039 -0.877411 134.166092
-22.375051 1.252315 129.680237
18.316772 4.702322 136.696777
-12.797693 1.714746 125.864410
-11.650544 -6.256364 118.226402
10.726937 -8.352271 125.187851
7.135446 -0.728831 147.293045
16.907703 -5.159450 139.505280
27.395367 -0.771660 128.109940
14.500239 -4.322579 103.108521
4.736354 -12.125742 132.048462
7.444025 -10.679703 107.259308
-1.250844 8.917654 103.051613
2.051780 -13.220975 136.767731
4.926038 -14.514158 105.334793
8.126576 -5.543894 141.913498
-5.436101 -9.104610 145.829880
12.461392 7.199744 145.522964
-10.666745 -10.569954 110.613602
-22.928230 5.008292 138.807312
-10.931051 9.704118 128.736542
-0.202318 -12.869458 132.317001
14.589557 -5.281379 108.082901
23.569208 1.328810 144.300812
-15.146302 -3.082061 119.458206
2.196288 -14.144494 127.594589
8.758505 -9.484024 115.541550
18.898119 -4.682985 139.097549
22.470804 -1.660309 138.886856
8.083348 -0.110961 146.708847
-1.387056 -15.805437 104.068497
7.656837 2.430031 149.926926
16.452427 8.243828 136.177261
-31.332888 -2.242338 142.983932
14.750385 -4.368260 143.617340
24.328754 -2.504123 133.509445
0.274281 7.804557 141.632996
7.274455 7.879642 122.391289
27.993258 2.399804 127.357780
5.039058 -15.580318 107.770439
-0.200771 -15.885109 120.628181
-23.053074 4.150548 134.892334
4.058080 -8.049759 142.913437
1.233253 6.588518 107.384308
-14.101603 1.301928 146.845184
-14.115733 3.122115 144.310852
-1.536078 4.672625 150.752823
-14.751911 6.751184 137.643723
-1.003357 -13.832982 128.107162
13.831533 8.800059 141.267517
-18.958498 -4.840468 142.578430
-7.419568 -4.206013 145.492874
16.354563 6.341345 141.848618
5.365351 2.290089 147.649307
13.708758 -3.755487 113.467567
-25.071577 -0.828903 142.908279
-3.089540 10.316012 127.589691
3.949537 -15.357257 116.357788
5.935847 -7.781073 144.378189
-11.670128 3.031048 145.053604
6.428691 8.141340 120.777832
-7.887210 -5.133894 144.833633
-29.621984 7.972604 140.794785
-15.281147 6.714995 130.923477
-5.440805 -11.826554 115.809265
10.860436 9.196502 130.806900
-3.608865 11.027814 133.453247
-2.785631 -8.773338 139.867401
16.823400 -3.838883 139.926712
-26.849262 5.562231 139.008728
-6.500362 -13.215221 107.576347
8.823730 -2.982646 145.787079
-4.340213 -5.600578 144.421005
-10.040068 -6.177607 140.082016
21.620625 3.048172 136.055542
-3.136602 7.894320 143.756195
-9.271360 4.052534 108.600677
5.146618 1.216138 149.758850
28.053885 6.942437 134.521683
-0.220482 -12.753892 133.023071
-28.721647 8.449395 140.087616
-11.692716 8.386316 132.398407
11.435120 -7.444142 124.686295
5.874873 5.442866 148.845062
6.574755 8.447515 124.503510
-10.814825 6.759260 143.836380
-14.081174 7.820292 131.198395
4.621075 -15.283147 119.682037
-14.747577 7.949777 142.092407
5.239448 7.510249 145.150620
5.650794 2.598065 117.347885
-27.724537 8.047889 141.794113
10.360202 6.376510 145.619781
2.838940 8.229901 132.912781
-7.673947 -9.014669 111.318474
31.889536 4.433379 144.502472
8.924617 -5.504604 144.679993
0.288070 10.193007 133.491409
-0.541146 -14.162307 115.537239
-2.776000 -5.989304 146.396637
-22.960472 0.644526 130.477798
15.954595 -2.845869 140.702484
-11.514912 -10.429436 107.412590
-8.984786 -9.701177 110.648697
-0.135354 -12.785451 137.775986
-11.583569 -5.634492 118.380791
-24.256250 4.530871 143.492447
26.686964 2.421499 131.400558
8.767967 -8.348941 116.212166
-26.164976 -2.889240 140.572021
10.899794 -7.347435 106.821541
11.407381 9.105120 134.415970
-28.856855 -1.856710 133.964340
-26.515326 -2.674597 139.331802
11.813792 5.424955 117.640350
9.909798 7.816928 130.291000
18.898569 6.379007 144.097198
2.835576 8.554546 132.049301
-13.414682 7.135482 144.708710
11.649544 1.256314 118.328697
12.422388 -6.126611 106.595497
-4.525113 -4.206837 149.658569
5.746736 4.564667 109.406929
6.420859 -4.976731 142.807281
-10.098580 -7.059257 116.886131
8.712645 -13.886064 108.965431
28.939419 -2.779947 139.146530
27.127279 -3.830517 139.139771
28.200344 -1.410763 142.929062
-27.213184 2.192315 126.610687
17.497349 5.037375 144.876022
24.273344 -3.170449 130.292313
29.607777 -1.408118 139.608521
-13.731722 1.681870 110.406372
-29.363901 -2.692436 130.831375
6.324070 -8.909361 138.037003
6.178338 8.519507 126.573265
-24.637030 -2.272050 136.657013
-12.896877 -3.174318 111.096069
19.487322 0.113021 132.637070
-0.714701 -12.929319 119.479057
-6.528315 -1.625220 146.915207
-6.365322 -2.609599 147.696289
-24.548323 -2.442822 140.403519
-12.381976 1.569163 113.979362
-11.688530 -10.540867 135.901733
17.731415 -2.832222 143.804993
-2.167165 5.367634 149.392532
7.784584 -9.895724 136.782928
-12.869411 4.196038 133.738724
30.223051 3.790322 146.330215
-12.521450 -0.081862 124.450722
-12.726212 0.176182 121.741104
28.820709 7.107561 140.759186
28.526941 6.615570 141.794724
-0.271122 -9.036458 140.913162
16.442656 8.881637 134.549606
-7.333243 6.364148 147.511948
29.572117 -1.621638 142.619186
-7.809806 -12.000353 105.747284
-26.168718 4.962056 130.412827
-7.924002 1.613251 148.785065
14.954102 -2.834305 144.939133
-17.882235 2.723271 134.993271
-9.655141 -10.836309 124.660660
10.683423 1.895492 122.833878
-11.466295 -2.123185 145.180450
-11.449587 7.100224 127.088264
-5.067694 -11.398226 128.619781
7.530970 -1.208625 146.792969
-28.424713 1.250043 128.549240
-25.727409 -2.681355 132.934570
28.559462 5.519618 130.329498
1.056297 7.921095 137.260330
-14.754524 3.960887 133.399704
-2.496157 -14.249310 114.113937
-3.212085 10.488957 123.485100
18.474991 -2.667110 132.865540
8.194621 -11.452559 132.182266
19.021677 2.966336 143.603607
-10.962673 1.682949 108.036316
-9.486265 -10.083696 116.177338
-6.443252 9.493818 123.369080
6.418973 6.978119 109.485527
7.852448 -10.457065 106.675247
9.784094 2.097966 120.835693
2.425477 -13.015183 136.166580
11.582034 -3.791526 142.227554
-10.461048 5.657101 123.731003
11.271221 -8.072716 125.403732
-14.197740 -6.326838 140.383514
-5.958995 -11.603490 121.551529
10.917986 1.853607 118.335823
-7.401936 7.927453 128.173752
18.308098 8.830490 136.765335
7.557148 7.959555 143.456558
13.684867 5.048838 143.274597
0.736566 10.661471 130.761978
14.028371 7.882176 141.481461
-4.750319 7.698253 135.109589
-9.791545 4.149517 146.158279
13.955114 9.013367 141.113647
-7.798275 7.024301 121.896996
-16.554951 5.314110 136.943008
3.802456 6.430490 151.296677
-3.292996 -12.938091 112.154930
9.853080 -9.697521 109.449409
-3.831016 -12.291717 104.816200
-13.386713 -4.414655 115.618179
10.557466 -0.659967 146.246338
-26.942078 6.231084 132.214203
-29.823326 5.915984 144.369293
9.004925 7.937491 129.021103
-3.863462 9.728848 144.865036
-4.459558 9.570533 124.296173
-0.045409 -9.458146 142.738708
-0.190167 -13.486458 109.999611
4.238800 -15.172300 120.702171
10.548329 -6.925906 128.461349
1.211748 -15.455390 105.070229
-15.764495 -4.707930 142.448959
6.264946 2.442641 147.555939
8.914694 6.389360 141.346832
-26.718203 5.435874 133.907440
-12.675184 8.866733 140.256195
-11.164415 -8.311008 133.035660
4.766556 9.904133 141.046249
-23.076721 5.917888 140.309052
-26.281143 6.217700 142.751007
-16.823631 -6.397414 139.070007
-19.480690 -3.559394 132.010849
-8.576875 7.270986 105.294540
23.873045 0.627661 128.942001
19.017881 1.074425 132.544785
5.387468 7.883091 120.684700
0.500778 -13.063418 132.123413
-3.469782 9.259155 101.701996
-2.456055 -11.817400 137.439102
13.723400 -0.517925 123.269814
-12.191273 4.689400 145.084579
14.539490 1.975072 125.462967
-14.911469 6.920545 141.100571
11.788039 1.867965 146.298309
-23.230247 -1.670180 143.066544
6.333164 5.836119 151.589615
14.443758 -7.350123 133.966690
-13.249005 8.351872 141.207108
13.745963 8.417665 137.652496
6.039527 8.910673 140.897247
-28.542200 4.672622 143.644836
12.368301 -5.162992 143.503021
4.170091 1.364409 147.003143
9.219625 -10.849370 119.949753
25.993231 2.964024 133.230927
-4.236576 4.386487 110.033569
-27.493992 2.828573 144.389053
0.081902 -14.500453 121.489174
-27.592756 7.419223 136.984161
13.217039 -4.925970 117.646408
9.832603 3.721771 118.906532
13.913011 -4.443703 115.148056
-10.740265 -5.890398 142.045654
17.423363 3.265399 144.332687
30.085627 1.578284 143.773254
8.362419 8.976861 125.485802
6.790034 3.444938 112.580246
-3.881385 -12.788034 105.818657
15.909275 5.980518 132.148193
-9.173728 2.018066 147.172607
7.961202 3.059511 113.001076
-5.289234 -12.106739 121.956490
-14.031880 -0.389732 115.541389
5.954435 -7.744625 141.504471
11.695642 1.255237 118.194809
-29.916874 1.498313 144.703659
14.040935 -4.452672 129.143295
1.616758 -13.884448 139.616791
0.783531 -7.903801 144.636032
18.787531 6.503527 140.341980
22.254732 6.274467 137.160736
-30.745396 0.432462 144.624878
9.049403 7.871058 146.194046
-6.852388 0.174611 149.940231
-9.103639 -6.244238 141.921707
10.222890 9.633536 136.316650
11.573422 2.220514 123.058884
21.647133 6.056348 138.497192
-27.062880 5.813267 136.177673
-3.762546 8.264625 138.865524
-27.124155 -1.527460 144.569016
25.167801 4.385213 135.214767
-4.848319 9.353654 120.764473
-3.760543 5.457200 108.759811
-14.910731 -1.868495 103.092697
5.985128 6.962738 108.395409
-16.905098 6.773330 139.880356
-10.988735 -9.958188 104.860176
-6.712491 3.363394 110.783005
8.520432 -10.129856 119.701302
6.617248 -12.284278 124.691315
2.421449 -11.387855 134.454880
15.796762 8.034383 139.459335
-10.368516 4.235823 125.122101
-22.186367 -3.618050 133.258484
6.293814 -13.480642 111.894440
3.627970 -16.543196 113.957779
-7.188259 2.899702 114.364082
1.012715 -14.644280 134.254410
-16.882910 -4.711749 136.915833
0.927927 5.097418 151.822266
-1.690394 7.314542 146.126968
15.917103 6.332309 143.871933
-4.798814 6.276237 114.710419
-9.591413 -10.389702 128.338303
-6.969189 10.238543 139.642532
6.233615 4.683722 151.844284
15.797215 -1.721036 112.494003
-26.628971 4.781416 143.623672
3.112441 7.866582 119.757736
-3.411512 5.977285 149.636765
-0.136358 10.158161 100.123718
11.855174 -0.353989 121.408989
-13.532393 -7.364465 133.054916
-8.139434 -11.131957 110.271149
17.279425 -3.522976 133.910721
16.802553 9.051616 142.936142
0.431420 8.088975 103.672440
9.469975 -7.671484 140.425354
-13.177755 1.477112 108.777206
2.517011 10.071695 124.487915
17.335382 4.318469 142.835098
6.338298 2.186964 151.229828
4.226399 -8.592080 145.795746
-16.908503 -1.126539 145.652817
13.107614 4.907992 143.753754
-15.943038 -3.465361 133.029556
3.650749 -14.630177 107.804634
11.539545 7.328501 138.490555
-11.641722 -5.833824 126.226936
10.347831 2.763282 119.920578
-5.834915 -7.598457 144.826126
-31.221056 2.975598 144.758865
-8.678399 6.153057 103.312660
-8.129478 4.487260 119.262688
-10.734229 5.657555 145.331863
-4.059597 3.972671 112.600876
12.082941 1.942503 121.688370
10.949499 2.193765 120.032066
-2.134052 8.981911 116.960472
-9.524029 -10.045476 121.635361
-5.549793 3.113483 152.447357
1.676978 6.978034 114.116585
15.659642 -5.384125 133.035706
-5.091909 -12.615504 124.958191
16.711477 -0.762485 130.837143
-3.645147 -12.519991 122.674484
0.758053 -12.029400 118.344482
-1.132306 5.056927 109.023918
13.782735 -5.399698 130.865540
28.686941 4.562301 144.883514
20.818398 6.908572 144.084488
-5.562989 0.136851 148.813354
-28.299509 5.059064 135.200607
31.743174 9.071145 140.387848
0.559670 8.753626 143.613647
8.865532 3.709511 111.169518
23.105864 2.696038 134.650055
-26.377296 -1.904255 131.845169
1.081608 6.784619 113.020012
-12.480624 -2.880568 125.061012
-12.573503 8.250986 142.328094
8.779317 -10.636532 128.239227
16.090536 8.722369 133.767319
11.759781 3.838121 125.177834
-6.056089 -1.294593 148.160950
-5.775836 -5.262710 145.421280
-12.339202 0.209159 123.338493
-5.631573 -7.634473 146.404755
-23.211138 3.504281 137.244736
-15.667446 1.482039 130.839447
-8.169938 5.599961 148.375916
5.951205 -15.304199 108.642273
7.278502 9.471706 129.366486
-0.725893 -10.363388 140.373215
3.347473 7.324893 126.876381
13.938210 -8.331294 105.558861
24.077192 -3.465659 133.267166
12.763457 0.893381 112.597542
-7.471747 6.869115 144.079697
-2.479522 9.638818 139.793976
-23.996979 -3.704115 136.358093
-25.480289 3.970312 132.375488
5.354877 -7.684959 143.887451
13.677753 -7.151645 136.768799
-0.525999 8.833854 106.243851
12.756384 3.200347 105.417534
19.013323 -2.443807 144.289352
-7.632866 -11.696567 126.205170
4.538833 8.802509 131.627655
13.894682 7.264759 132.477249
-12.729289 -4.086403 142.697647
-5.448568 -7.889894 146.932693
22.524620 -1.117432 128.984741
-3.106163 10.154626 131.357010
4.484838 5.134373 148.581680
-16.609570 6.207333 136.531296
28.649607 3.594603 145.056595
-6.540035 -10.568972 105.977158
14.083647 -3.962467 125.101105
0.461450 -14.619719 118.725334
10.853928 0.530134 116.822533
2.166869 -6.775022 144.802399
-1.028474 -9.428620 142.707245
6.773936 -12.849758 123.072304
15.507488 0.919946 144.878967
3.278546 -15.584206 111.746010
-12.978443 -5.267572 112.542755
13.753990 -0.348044 110.843391
-3.161663 -13.443085 135.800003
-9.678555 -9.686985 113.970222
-13.556406 -5.104660 108.091698
1.540644 8.611200 104.309525
-0.961627 -13.018502 138.295517
11.346735 -4.772510 126.349564
-29.059744 6.727703 139.822449
12.664662 -9.074288 136.849075
6.149624 -12.577664 110.934769
6.012950 -9.509703 142.614639
-9.419605 -8.793081 114.014069
-6.454184 0.592503 149.213181
-7.388910 -9.618339 137.991821
16.015507 -2.174619 123.515137
8.614125 2.996333 148.544357
10.242504 -8.708556 106.048737
-27.367548 1.540608 125.297905
-0.367467 10.057481 140.710281
23.115831 3.000972 134.690994
7.159104 3.041403 112.172531
4.495023 -14.054505 125.717072
1.541735 6.121067 110.089279
-5.991694 -12.180156 106.944199
7.452982 5.589556 103.885689
-15.956553 -6.154862 140.917984
-9.425834 10.577036 134.207153
-29.973991 4.146055 144.628052
31.537432 3.522101 144.458023
29.316071 -3.190675 133.430679
-31.453880 4.655520 143.670776
11.537790 -10.357222 127.942406
0.435755 -13.606066 111.163155
-5.149789 -4.701792 146.847336
2.374838 -13.918726 129.717957
13.400325 -5.401835 105.221657
7.199417 -11.999160 104.600105
-12.367910 -0.854236 107.563095
4.277600 7.575558 151.274658
7.076478 -8.681315 106.672127
21.585241 1.513805 134.412903
-6.185507 10.377538 132.299683
-7.933959 8.750168 123.699181
26.620205 -1.338777 140.312439
-27.984894 4.926222 138.697968
-12.405701 -5.346328 117.405914
-14.530527 1.057834 105.645805
4.501014 -9.918386 140.951218
-8.826183 -7.564727 143.656967
18.970716 2.339287 133.969254
20.493759 5.588627 142.121307
-4.810748 3.022032 113.084557
-2.501082 -13.423517 120.582153
-1.085531 9.818706 121.692345
-8.000586 -2.765449 148.722534
-10.619118 -11.275805 127.912643
3.764338 7.388526 153.135483
9.644782 6.757500 108.835197
21.164778 -1.809590 141.082184
14.303015 -9.473608 130.680817
14.768106 -11.380650 101.959419
16.403355 3.484910 129.644669
9.183130 7.849096 142.350098
-15.047484 -4.354278 114.144623
-6.096836 -13.443720 124.195221
7.992967 3.710157 108.453201
0.990352 -12.708692 129.707077
-3.886267 -15.182877 128.611771
3.282168 4.413608 114.048798
-1.957577 -10.308922 139.830795
14.661744 -0.739685 104.054726
-5.088875 7.811564 151.472702
25.377110 1.819825 127.757629
-4.738358 -7.578167 147.742096
8.447337 -10.483923 137.802032
-15.483032 2.586371 127.208595
23.262138 4.834952 142.275497
25.167049 -1.655814 131.567612
-10.826516 7.029680 127.168770
28.260401 -4.365264 132.723770
-9.890054 6.614705 123.945717
11.821063 2.335395 114.919624
-9.654877 -9.820058 112.686981
-6.657052 4.482443 146.288925
17.467979 -2.955011 137.835434
16.662565 -1.219657 130.487274
2.594791 8.352381 147.303741
-9.760935 4.947074 102.139168
-10.292407 -10.380720 102.650925
-10.242397 -10.539980 106.131660
5.005565 1.275057 148.758163
-10.590809 -9.204618 125.984482
-24.780735 1.894116 131.392929
26.012449 -2.636021 137.974396
-25.940004 0.225669 128.028152
-26.919384 0.880447 128.415817
-28.013607 -1.627614 139.201843
-14.856605 9.064150 135.968094
-13.027741 -2.104577 145.307251
-22.784531 4.742748 146.072769
6.840716 3.616977 113.470741
5.622769 -1.483191 151.261917
1.669370 9.218584 136.762650
8.763209 -11.027965 123.277679
6.840015 -9.079428 139.110916
18.425928 5.323682 143.933945
23.721800 6.164632 138.772491
-3.856800 7.246991 138.813690
-20.783430 -1.596552 134.194458
3.536365 7.340297 117.444633
16.917479 4.143082 135.887375
27.417301 4.286268 143.819000
7.352847 -0.238918 150.574738
-24.520636 -1.262544 138.409515
22.573151 -0.617605 138.115265
-0.291485 -11.744402 122.495941
0.141765 -14.840982 124.220352
22.403883 5.910354 144.894730
-13.214920 7.602397 131.268906
-4.684542 -1.535244 147.129318
-11.759805 9.545513 133.094376
4.025939 8.122371 146.023926
-24.366026 4.632172 135.410843
5.097814 1.553756 150.284546
-23.535381 6.947502 142.140427
14.060863 3.102572 145.930405
7.658923 0.111225 146.959244
-4.667482 4.836190 109.070366
-27.378918 -3.217095 135.541229
15.914041 7.834445 140.031281
-7.341622 -4.767150 145.433029
30.476309 -0.778551 142.971619
-22.189915 -2.403623 132.959946
-12.013902 10.654457 137.623978
-0.633239 -12.017570 137.329391
4.694514 -14.202256 122.092918
10.869576 -8.611785 106.579315
-29.424316 6.723808 140.170547
-2.332649 5.578085 109.242996
-12.016864 6.645745 142.900574
-32.357582 0.619396 143.113968
-11.133614 3.230953 106.282516
-14.043901 -3.299994 109.198357
-10.941070 -9.391114 105.809586
-9.867241 -7.194561 126.002556
-27.015768 1.943710 145.383072
3.086548 5.261566 153.402222
-12.619583 6.497636 144.977585
-19.653328 0.161410 133.465500
-26.746256 -3.581111 132.904724
-27.856237 5.768719 143.769318
-20.664251 -1.572393 145.658920
12.213929 1.476350 103.030014
20.725256 6.584627 136.679230
7.713078 -12.485644 131.736023
-11.106792 -7.471138 115.473259
12.171682 -7.710711 125.327065
1.761485 6.058061 148.407593
1.790663 -13.229815 114.506325
-2.684108 -14.009189 119.182823
5.685874 3.504662 116.151451
-8.215911 -10.433409 116.694603
-13.521924 -6.909962 141.884354
6.065765 -13.905875 130.646133
7.570453 -11.802143 136.099258
7.495415 3.493973 113.849266
15.449619 -6.013097 134.824951
5.401267 -11.253542 135.420639
-7.667032 3.526957 121.197250
-12.942637 -5.560616 113.031830
3.407576 -12.408949 135.067993
23.519072 -1.661289 143.286957
0.292239 7.137525 150.395676
15.772505 9.221334 141.470779
-14.087319 -3.791207 126.028107
8.610068 9.627583 128.222717
-11.943429 -7.989851 105.404999
-14.090566 -2.896080 119.630562
-0.756205 -12.480086 115.314400
-21.540714 6.285337 139.951126
9.378294 -7.931987 144.456497
22.402861 3.002172 134.072220
-0.046690 8.490907 145.495834
12.045481 0.258629 122.791008
-26.833904 5.268168 135.633499
17.767294 6.046466 143.547516
13.600550 8.105543 140.481995
-9.964250 -6.355061 125.229309
1.211574 -13.143971 109.954636
-16.461458 5.579642 142.934982
0.523490 -9.359764 144.648163
-16.837523 -3.053223 135.138580
-7.994580 2.183463 111.227119
29.945120 6.684471 142.655365
1.257967 -7.775838 144.224991
19.912199 1.392004 144.904236
29.675251 6.785899 137.235870
7.321576 8.213787 123.903038
26.747044 -2.702923 137.887192
-7.732946 9.518968 126.203613
17.037079 4.513900 144.837509
5.651473 -17.122437 104.933144
6.899465 0.137502 148.329346
9.745269 -9.157126 106.051109
10.747341 3.723540 122.133698
1.311585 8.736529 144.856506
-21.785429 2.677227 132.778198
-29.616011 4.054582 143.909851
-17.910137 3.984425 145.855713
3.793465 5.041154 116.270859
16.046284 -3.849869 140.456512
-11.408710 -8.601075 135.912964
21.515850 -2.037986 132.096252
-7.401401 5.033898 109.449455
26.097071 -1.155288 129.742310
1.195494 -9.306537 141.168091
-0.372305 -12.294167 125.966667
8.113274 3.364458 114.170898
-5.288091 6.558490 146.058563
-4.681965 0.443926 148.432022
7.610938 10.479593 129.621613
4.574883 6.943308 116.089539
-13.946128 -5.693992 137.121368
-14.550471 7.538918 141.505875
0.028453 -13.275125 135.432663
12.661748 -3.640036 115.251503
17.601639 5.854777 135.184479
8.502686 -11.206914 119.198967
27.546297 7.054742 134.159210
9.574218 1.794807 116.739838
-3.374323 9.918753 135.124069
14.025025 -1.708472 112.666992
-24.098829 4.440542 143.712234
7.725739 -12.697341 134.501541
16.038136 6.013933 136.113907
19.244846 1.965077 132.670609
16.323259 7.995170 137.221558
-6.003221 2.271504 116.256958
-0.282787 4.812208 107.639076
-3.127136 -11.606903 146.193634
-5.643429 5.339252 105.704834
4.696933 4.248781 115.220001
-8.869090 -1.555613 147.976166
0.329966 7.579102 105.828491
20.458527 5.268446 137.816559
11.892453 2.163984 121.417877
-0.622536 8.026404 136.633118
-13.853684 -1.340091 144.206482
5.405631 0.184121 149.487595
-30.683302 5.726586 145.755371
-7.669014 1.905279 118.461983
-12.788713 3.444829 146.191208
16.855169 5.510341 131.398804
-12.053783 2.477743 146.402420
-28.186548 -2.712518 134.864609
26.804743 6.687440 135.827606
21.926813 -2.246737 135.625366
25.058416 -2.255096 130.945007
7.538902 -12.628247 125.298325
4.153751 -15.874695 129.596222
-29.435080 -2.083789 131.876083
-8.030724 -11.438407 121.328300
-8.416898 -12.245011 108.781548
-8.765893 -8.843368 113.180450
31.693344 5.654784 144.123810
-5.588380 3.220312 117.064674
-28.349358 5.816678 145.188080
-15.731044 1.876025 133.259033
-3.637536 -2.967530 149.228394
-3.733137 9.113491 133.154739
1.265845 10.225861 125.530602
10.810164 9.211268 128.465179
2.568293 9.326894 146.055801
-14.623334 -7.777184 104.383507
0.640336 -8.212689 144.453400
1.934973 9.886619 123.504379
2.559896 7.835101 129.442276
9.545087 2.279250 115.736504
1.783804 -12.130181 133.675583
-14.453673 5.421097 144.941711
-11.741926 -7.789016 113.446861
-6.604699 -12.913623 112.128883
6.253786 -1.540748 146.247620
17.978468 -0.831986 144.117569
5.781475 3.471509 147.907730
-9.119622 9.996341 133.659470
-9.432338 4.881468 145.096680
23.906319 2.933288 131.292786
15.160074 -2.594008 143.103928
-28.651720 -2.684845 140.579712
-22.491001 -3.853010 135.133438
-8.124960 8.568509 129.505859
3.160177 -9.899950 140.734894
3.824601 8.317181 131.538193
6.193964 -13.614610 110.349747
0.364380 -13.879306 128.868042
26.460186 -1.721912 132.646133
-27.012611 -4.497001 137.281387
9.385231 -9.156921 102.103828
13.066580 -7.003160 105.454132
-1.013140 9.681390 132.707428
18.683681 -4.271377 140.280258
12.684155 -6.057445 106.494377
-17.388510 -3.774491 136.621353
-4.733737 -14.303475 113.063148
17.837042 0.754003 131.520218
6.958498 5.727622 109.004776
12.164237 -6.716332 116.184174
6.564218 6.556088 105.285202
-16.071938 8.421184 138.999588
24.070122 4.834909 134.449738
-1.291407 -13.353096 137.680725
3.539398 8.227972 124.438423
-9.449016 -8.578052 106.311012
-6.999955 -8.384825 143.925812
-0.067928 -13.451055 130.380280
-26.338688 4.200038 133.421677
16.537365 3.596966 145.108078
-17.771814 -1.407811 145.522247
16.814560 -2.848863 133.614105
-1.228639 6.993125 148.935043
7.062660 7.798823 135.039948
7.789034 -5.025414 148.060196
-24.751770 -2.802184 140.101822
-8.303592 6.918205 104.615761
-20.458998 2.297281 133.576782
-0.224644 8.290772 139.290359
-11.458793 2.763026 113.417923
-2.017489 -12.858660 121.339081
-4.854548 3.130532 150.187698
-16.469530 -1.457584 128.078918
-20.062557 -2.586402 139.257584
-9.526105 -9.269075 110.032082
18.295969 4.454641 135.384796
-12.331023 8.820405 131.822266
-5.705103 -11.283144 118.100792
18.912659 7.279360 140.177948
3.395901 -11.211940 140.099976
1.593270 -5.961209 146.911377
-1.240784 -9.845120 140.543274
-14.958067 6.800221 139.979797
1.634783 -13.270038 129.255096
-10.512099 -10.654719 114.400330
3.632213 9.512044 140.835297
5.184867 4.683597 147.808182
28.838556 -0.782672 128.787964
-30.339344 -3.592378 138.235367
11.041015 7.938161 125.920433
17.163519 6.457884 133.596497
6.744880 -12.538730 130.887314
-19.216560 -0.473567 141.554062
-27.368526 -1.372127 133.195068
13.166524 -3.312020 111.511810
9.207278 -11.023159 132.863312
-27.595814 -4.159707 136.083435
3.577908 9.753024 130.385208
15.277320 -2.872041 130.619705
8.962118 -2.371178 145.977432
10.495435 -9.188088 121.572563
-4.061980 5.159346 114.416916
-12.701168 -6.062801 139.469452
-15.251240 -3.518411 111.096848
9.044699 2.914413 109.550621
22.616333 2.108946 136.196243
-10.965093 6.223575 104.355865
-5.983272 3.932371 115.975395
7.006490 -10.362584 123.168556
15.238894 7.126172 141.415848
2.023311 8.726501 145.985596
7.429501 4.075951 109.133301
6.726543 -14.465199 106.804146
7.889722 -10.804676 133.072723
-28.949495 -4.362025 140.169662
13.002993 -2.140220 124.229561
2.132877 10.418646 132.589920
-6.181642 1.750692 150.867279
-17.337645 -5.316703 141.438522
-2.012069 9.403273 133.403488
-20.087135 -3.659973 133.773788
-13.035049 5.080863 144.259506
-15.619761 -2.080663 122.891762
-8.124731 0.053125 148.038010
-9.465366 -12.500086 104.086632
-12.583687 7.669929 142.595444
13.379700 -4.884731 130.442795
11.499353 3.348841 147.830658
29.513718 2.106278 127.932014
7.688251 -8.558980 138.978134
3.514788 -14.472868 114.690262
-1.387837 -14.700186 111.199913
-0.945222 -14.522923 112.747025
-15.040496 1.977305 145.252609
-18.249226 -3.286356 142.541031
5.275186 4.641377 115.838036
-14.911430 -2.706532 111.920914
3.554837 -10.989993 134.756622
-10.013927 -11.458579 108.680374
9.279588 8.118070 133.219193
-8.373821 8.087691 144.943924
23.318993 4.055044 133.102615
-12.912093 8.184187 139.830963
2.052931 -10.573969 139.269760
18.841602 0.671192 145.190796
-3.623043 3.801362 117.008270
6.517313 7.493306 122.922684
-13.777670 0.527843 128.355621
4.553432 -15.416183 115.342621
-14.469771 0.151496 132.329819
14.569562 8.678036 133.350876
-28.087029 0.233826 144.489090
16.134457 7.567622 140.172653
1.451873 -8.872375 144.958115
5.860168 9.370889 127.097572
9.804500 2.857477 116.096474
-14.954479 -2.964037 121.057236
4.860938 -12.761271 106.492561
0.913254 -15.541127 114.124863
-7.378940 9.883239 130.052750
-29.612816 -0.225889 139.995895
-3.158167 3.807027 112.564308
-4.041879 5.307735 151.217758
14.407683 -6.956171 139.846375
13.477357 -3.640110 113.428726
11.236900 6.851069 126.940636
-1.533778 11.338983 129.777969
-4.606823 7.635911 103.944458
-6.970953 0.474147 147.510529
1.265011 10.015760 136.756454
7.812707 -12.400037 134.149353
6.325160 7.846369 119.781876
-2.250764 11.959099 124.426399
-11.158821 5.196509 109.038300
17.612764 8.240610 139.947708
-26.445993 0.032841 131.156250
3.992506 7.017260 148.692093
4.989812 8.361679 123.892975
7.331068 5.319720 112.049477
5.753803 -6.843161 147.387817
12.458308 7.466155 137.873215
1.785760 -13.669743 130.627472
12.882657 5.650259 144.717529
9.594079 8.672809 142.539688
-2.257349 5.228274 108.739235
13.869970 0.961625 112.203049
2.051375 -15.064096 127.489380
25.225946 -2.046354 130.084473
-9.021978 -2.254158 147.236832
-0.047364 -13.547388 126.210350
5.899094 -4.722701 145.604187
-23.301334 4.695740 143.704361
15.702909 4.566141 127.793877
-14.881607 -1.821578 128.233917
-12.912117 5.611046 145.041275
13.416692 -4.384852 112.174217
-14.083238 -3.999403 104.601112
-30.334591 3.878729 146.763077
4.385810 -5.818940 147.773376
-16.378555 6.688938 140.695892
19.707232 -0.278878 131.172485
3.587181 9.219172 131.459549
0.717226 6.211992 110.496834
-13.004621 -8.662586 140.659210
-11.583106 3.834353 144.710876
-11.480196 -7.272862 128.803818
-26.621552 4.697104 144.388733
1.709409 8.789702 103.405518
14.109776 -7.163603 132.380936
11.373582 -1.046020 116.563301
14.288054 9.844581 136.743347
-0.522239 -14.823339 101.606514
-27.530569 6.670398 143.383301
20.989162 -0.037407 144.665207
26.487429 5.790808 138.568161
-5.026463 9.490849 137.396042
0.254361 -15.347556 115.143486
-14.953109 -4.515478 121.880875
12.701704 -7.094129 105.419937
-10.422995 3.659887 143.897812
-9.703498 -10.185147 123.809135
26.359913 -2.491472 142.706268
14.649496 -4.602322 127.616043
4.009969 8.401303 138.695267
6.708685 -3.855055 146.632507
-16.792564 -3.843201 137.845627
-28.099463 -2.040869 141.348679
-7.134803 -10.739098 117.515411
-22.949858 3.557010 131.794525
-11.019217 -10.567899 124.376045
-17.296497 -4.400718 135.177597
2.321211 -8.751519 140.688599
11.201888 3.617367 110.594048
-13.156765 -3.080631 114.860222
18.267286 3.484276 133.100616
9.074187 1.151091 146.544342
-2.393557 -13.267810 127.505806
-14.689337 7.134205 129.626480
-2.141871 -15.717097 119.986115
25.167019 -2.760603 131.571716
-11.564622 3.977206 125.698730
29.382988 6.000379 133.284180
-7.655473 6.821079 102.487785
7.958721 -11.567270 121.347679
-13.210686 2.116380 148.070724
4.803450 8.747843 135.325928
2.651999 -11.093777 134.364624
-0.095112 9.092553 133.574936
3.975561 -12.880245 129.034210
-13.810091 -2.906697 101.465210
24.464125 4.110368 134.876465
-3.999202 -4.500652 149.024963
-12.698185 -4.938082 109.383659
-12.214436 3.999240 102.683403
-20.961895 4.789248 145.069489
12.072209 3.209973 122.865852
3.991967 -10.622928 139.333694
0.747241 -13.825533 129.227646
29.929260 7.126511 138.105881
-8.252613 -11.640191 131.236038
20.147253 -0.409442 131.078094
-0.693905 9.604803 122.857506
-18.068624 -2.243754 138.682785
-3.460983 4.749558 152.687302
-32.288319 6.379859 141.961502
-6.452049 -12.215881 122.907700
-14.013481 -3.770148 117.552948
29.781811 4.248766 130.716965
23.774878 -1.867802 132.603516
25.420914 -1.692391 140.341492
-16.834089 1.621630 131.857590
6.047107 5.611169 104.785400
16.091871 8.738948 134.092148
-25.451799 -0.045928 128.832062
-12.688372 -4.871135 120.127777
-27.011404 2.743677 127.158119
11.797889 2.558954 108.917015
24.997129 4.403374 134.080063
28.420988 3.987127 130.027710
-21.157230 -2.957259 138.094482
9.265629 -10.452928 110.423515
-7.849783 6.448758 120.039436
24.995567 -1.490761 132.830887
-8.726255 8.276805 126.365257
0.468549 10.548156 138.645126
12.362177 -9.897589 103.065475
22.529274 4.979825 136.230621
13.790894 5.180822 128.614365
27.502775 -0.523435 126.937965
13.934933 -2.517043 104.577957
-2.390738 -14.415784 134.909973
9.795447 -10.044283 110.505180
-30.072519 6.868275 139.519165
-0.322597 -11.940205 139.520966
12.944199 -8.223125 134.915085
4.444091 5.833904 116.617340
12.302444 -8.148888 114.070526
3.210670 4.856801 153.598267
30.037910 4.451217 144.272781
-0.068054 -13.863757 123.007378
-8.331307 9.525092 133.958420
13.580575 -7.370606 106.731964
-25.739204 4.274323 136.824066
-20.743040 -2.080093 141.503922
1.706345 -10.859922 139.040878
-8.917951 -4.021317 144.352371
-14.786685 -3.045255 110.709511
5.508733 -3.645601 147.964233
3.423757 9.412549 135.864075
4.477075 4.343505 114.435478
-7.586606 -7.791471 143.819855
-0.562262 -12.032441 121.149788
8.661492 -10.110500 123.531715
2.166091 9.969530 138.860260
-10.192545 -0.828765 147.011765
-1.628475 3.946360 149.996689
30.229706 4.380056 144.297699
10.199232 -9.924504 135.416122
-3.817657 10.281933 140.229675
-19.767532 5.201262 135.871719
27.131557 -1.376228 129.541733
-4.648224 -8.558667 144.245651
-13.647397 -5.017625 119.019928
-6.312765 -6.938114 142.475128
-8.649290 -11.794506 110.535812
-25.957436 5.009173 132.226151
21.019001 1.979076 130.526520
-0.869757 -13.802993 110.299011
27.069002 7.560780 142.210831
-7.805071 -11.494741 123.791603
20.885632 1.249290 145.245941
12.263112 -0.086633 117.042702
-28.925718 4.714455 131.116486
26.476789 8.432595 137.783600
-26.984037 4.767928 133.946533
12.653398 -5.879328 118.413956
3.822956 -15.171620 115.058296
8.294425 -10.767365 105.139473
13.844262 -0.379753 124.760559
0.734034 -15.368376 108.247437
-11.191826 1.250685 111.936752
-18.987232 6.390549 138.514221
-11.649799 -8.607182 137.113968
16.911919 1.950303 128.879852
13.444551 -6.028558 131.190781
5.138917 8.073790 127.057610
-4.056271 7.852866 145.008011
-5.885071 -2.556941 148.226212
12.682763 1.798679 106.252441
10.573872 -6.126369 142.330185
25.752121 4.213949 132.582550
-22.302217 -1.658049 131.555130
16.887577 6.456955 140.507935
-6.292285 9.712847 139.829514
9.462550 2.417029 117.492081
10.995359 -1.048383 145.792709
5.822594 -12.807163 117.005630
8.436884 -11.496201 134.554291
-27.988451 -1.582034 140.308273
-8.798456 -9.219214 117.338257
6.941628 9.267890 129.668228
-0.156423 8.838319 139.759415
11.245130 1.042903 145.397415
-29.015312 7.480919 135.721436
10.269667 -8.421206 118.906868
-2.976518 6.387926 152.232544
-11.528340 0.313497 120.782608
-26.104263 0.644418 135.064041
-12.190648 -6.559150 118.967339
-3.013143 10.437190 122.961319
-7.502714 -10.901405 118.046211
-0.215759 10.473250 124.689369
16.932543 2.675012 146.763412
16.071112 7.390915 136.408295
-9.564981 6.363717 143.964874
2.656710 -7.688066 146.027359
-27.433323 4.411363 133.451126
3.284482 6.887778 145.371002
3.016206 8.195599 100.650993
-4.841787 -12.050016 123.862122
9.058596 3.507683 145.316650
15.573086 -4.711663 133.939362
-25.783478 -4.301253 136.716248
27.272461 8.013520 143.178406
-13.476086 7.597888 129.916092
0.049479 6.950117 109.104210
7.106099 1.031308 150.277084
0.680178 -14.652460 134.026123
6.964440 3.250061 117.430382
10.358925 -8.419335 129.475662
-12.901127 7.262059 138.971283
0.314097 4.896563 149.539627
-11.898495 -6.522504 109.853127
-4.639791 -13.565221 128.734741
11.106782 0.644678 116.124184
-13.347821 9.435841 140.304611
1.913076 -11.755577 136.629333
-11.822190 6.121441 144.502747
19.074039 -0.412674 143.921860
-11.185503 8.775511 141.932281
26.381151 -3.695312 137.988358
13.205794 7.124997 136.535568
-23.188656 2.704260 131.786163
6.620012 -11.879138 109.613838
7.679840 -11.182155 124.670464
2.915885 9.049382 141.620483
-3.565693 4.078197 114.808998
19.379547 6.862641 144.760452
0.207201 -16.124744 109.099770
30.277336 5.745155 137.267136
12.931088 -5.228840 121.555618
4.485432 -15.784850 109.748405
10.263241 7.702313 141.217957
11.167287 -4.942915 117.079002
-14.389170 -4.028939 137.625153
-24.149643 3.797923 144.878479
-5.064915 -4.939982 146.075699
12.467657 -4.779890 141.098465
7.731339 -12.920725 124.179352
-14.060277 -6.111126 131.712830
1.792495 -14.802690 131.744629
5.511501 4.034225 150.839584
-7.999624 -4.765868 145.705368
-11.939091 -6.230542 119.264076
-7.586722 8.403217 124.249298
17.025551 -3.616786 136.300613
4.497332 5.780692 106.542862
-3.781007 10.611716 132.969910
3.715142 -11.818785 117.948669
10.342557 5.466628 102.771660
1.022750 9.604722 121.925407
5.240557 -12.397837 127.343094
26.478319 6.639394 141.613739
3.404180 -12.790117 127.772980
-4.633801 -10.854859 124.777199
19.462564 -2.801907 135.579865
1.411908 -8.499094 142.250732
-32.355995 6.547421 143.066071
15.434231 -4.164071 144.200745
-29.604780 5.961392 137.662231
7.131691 4.674880 117.454613
12.947103 -9.676579 134.772446
28.363651 -0.904134 142.904083
-16.821358 7.665024 142.819901
-3.635021 -13.356916 103.636238
2.947075 7.740316 104.824417
12.930338 2.121128 106.656548
-12.737486 -8.301414 106.381302
5.991525 5.813931 112.283119
5.014368 9.420532 129.620651
-0.080305 -11.865554 111.888275
-7.945315 -5.119878 140.911896
6.834745 -10.473206 116.104561
-1.150835 5.803065 114.971138
10.896198 2.892251 107.300842
7.922841 3.662704 152.099289
-5.656422 -12.988461 132.907547
-14.673674 -2.784582 117.686806
-22.294441 1.301948 129.056351
18.724026 -3.485277 133.899979
6.909861 -10.409251 140.081345
12.519171 1.449750 111.706337
17.911747 0.755138 130.158173
-9.028934 0.892836 146.908890
-2.885112 7.334053 146.159576
-9.747942 -9.322022 122.181168
-1.699106 -11.990563 123.510643
-7.437188 -9.876626 139.651794
9.089227 -9.419560 120.714203
2.499868 -7.618593 143.325165
24.463360 5.356243 136.092819
-8.079082 -7.993939 140.706696
-14.821753 -6.816234 106.837143
-5.990788 8.818123 103.289101
-6.989168 -11.548991 127.274231
-0.359039 5.774213 152.353333
-10.474624 -7.492655 113.787476
7.783902 3.309170 118.913521
-3.476514 10.538331 132.230270
2.238021 -13.587566 120.310371
-1.483982 9.159372 141.317429
2.557679 -7.552215 144.723251
17.485546 6.562843 141.025787
-5.756402 -4.202685 146.291443
18.474545 0.898896 130.686996
16.290512 3.263261 131.879410
27.929377 -0.621957 129.091217
-14.034671 -3.196805 106.374512
18.594217 -0.050436 131.257080
5.346416 -12.462974 133.130417
3.931487 8.533115 118.607292
1.767384 -11.884409 134.281723
17.961994 1.902582 134.161957
25.550055 2.966557 127.587952
-7.606463 11.413726 125.066315
14.383731 6.778919 129.145752
17.242104 3.690924 137.155991
12.986742 4.738382 108.414650
10.934329 0.067399 114.924942
13.800405 -6.002633 140.813126
3.023262 4.050036 148.948730
-30.215294 7.548347 138.283203
16.496746 7.416457 138.361374
17.323492 6.508026 137.631516
-10.511045 5.592713 145.152283
-27.034330 3.180936 132.454727
0.315064 -11.513198 134.618423
-1.514004 6.493374 116.646446
4.894742 -13.161100 126.085068
24.204967 -0.969583 130.637543
-3.741084 4.402780 112.691246
0.333578 -14.045385 113.922516
30.454615 -2.023779 136.799957
