ply
format ascii 1.0
element vertex 2048
property float x
property float y
property float z
end_header
-9.105931 -14.898943 39.170219
6.496595 19.141701 72.503242
-23.283974 0.727675 56.522236
-15.194686 6.436044 80.440933
-11.288716 14.778161 82.708237
7.461446 16.057417 63.668335
-21.726334 12.904343 52.842037
6.301113 -5.602014 32.782768
-20.820774 -1.083178 55.274723
-16.152412 8.747383 56.445435
-12.816896 -16.231173 54.762634
0.735418 12.318754 71.616745
-7.508418 -12.675694 61.227623
-2.903095 14.182279 76.902412
-8.048376 -9.964503 50.420574
-0.399115 -14.863797 39.139980
-6.080930 -9.256757 89.959763
12.521919 -18.526722 69.791580
4.280432 -11.083093 38.497223
19.349714 7.940650 78.882530
-15.118627 6.806486 97.535248
21.569666 -0.710956 91.076820
7.993345 -8.284996 43.118591
-1.003144 8.659616 34.727962
15.322977 -3.050738 107.324173
-19.933241 -3.423350 61.943142
-16.179010 14.735460 82.275696
-7.716050 -15.079225 74.054535
-19.971638 5.732864 71.151253
16.720072 -5.216148 105.844254
8.183162 11.151908 88.288200
-14.544537 -9.258187 50.524940
-22.508257 4.799319 50.936279
-0.255273 12.839776 59.244789
-3.897426 7.096121 109.804832
-17.185581 10.365941 96.446922
-12.264637 10.002189 48.902843
-18.017481 -4.491990 103.767029
3.143896 12.105199 47.324963
-14.448931 11.471451 36.522564
26.341520 -3.435386 42.079544
19.024076 -5.951387 78.686935
18.328714 -7.921066 40.957077
-21.918558 -6.769516 51.357063
7.046927 18.315107 60.563286
22.651014 -1.860866 70.515526
22.143663 7.930609 78.372246
-19.571339 -5.335631 50.360184
0.373862 -11.069120 115.151199
-19.495438 -1.496499 93.542587
-10.745489 20.927578 29.715462
18.485033 -2.979107 41.931324
-17.201748 10.424030 45.100857
0.762779 -15.740419 83.989067
-18.943359 -0.812344 56.120201
-1.303032 -15.131952 31.637369
11.953046 15.642801 66.376511
16.313978 -9.902552 74.788437
-2.277717 22.038322 36.766098
24.741013 -9.462957 41.792412
-15.908945 17.269958 36.094009
17.759066 -9.047751 40.206608
-8.418952 9.915114 107.545105
-1.525612 -12.189850 88.659126
0.934212 -13.706146 56.511116
0.595046 13.095161 98.896927
-4.469749 -18.886791 49.713253
-17.344078 7.663932 96.698250
8.676579 18.635197 55.426533
-8.969728 1.819203 115.135193
21.943600 2.845878 64.615463
-15.154590 12.343125 54.721291
15.054624 -3.391798 108.798065
-26.804127 -1.317458 42.073441
12.963113 -17.818571 55.796139
-19.464355 8.287859 81.322533
-23.971922 -1.298787 64.128983
0.928677 10.449962 73.015076
0.168963 18.284121 43.693554
12.145951 -16.734388 67.184677
-6.247830 -11.408493 53.399288
-6.435898 -10.953962 108.819664
-6.060395 19.306499 54.295067
-10.236359 17.987272 50.622715
8.062331 -13.058415 66.203697
1.060698 8.988769 58.167709
-8.108567 -16.851337 49.583027
22.670736 13.046845 62.043266
8.760054 -12.608457 69.500305
5.604448 8.841272 36.329308
0.872361 13.980931 49.407391
-11.716578 10.511809 90.508324
-6.126222 -8.151114 38.476990
-15.984776 0.294578 105.444878
23.591335 1.279792 50.593113
1.647074 11.674070 49.865574
17.855028 13.681806 94.429352
-8.521229 -10.915975 113.544052
-6.203629 -13.651594 100.149414
5.237115 18.904802 75.464172
3.954847 8.525254 39.702129
-8.120998 -12.469599 53.684273
-13.447447 9.059315 98.338280
1.874492 12.346169 40.515129
-2.059446 -13.172207 105.200096
9.635179 6.179711 55.355583
19.710714 -3.980988 65.156425
18.037746 -8.770987 85.713989
21.124514 10.068734 43.021828
-0.253013 21.125168 31.725138
-25.646051 -1.275033 66.706718
3.853764 20.878096 57.492359
-21.660088 -2.921334 50.533791
19.675657 10.765572 61.805313
-1.684053 -16.085556 38.893131
-5.654111 21.239510 45.742393
26.113808 -0.282120 64.320694
1.716370 13.953316 40.619629
6.746332 -16.448654 50.624722
-21.261551 15.027267 44.085335
-10.648965 11.040538 62.140625
1.372035 -15.251497 60.752560
-0.510749 10.610842 32.828701
11.436891 -19.422985 33.503120
-11.833010 17.669571 51.037910
-20.825426 9.983681 56.866325
-22.749355 12.827892 43.372765
-5.885477 -12.232502 31.441364
-2.057750 -11.922326 90.351189
18.594831 9.545380 62.450497
15.458420 -16.225836 68.628075
-16.776936 12.563979 87.794106
-4.498878 -9.188698 34.560024
7.186259 -9.624535 65.534531
13.598844 -20.301956 47.969021
-27.513025 2.823055 44.613705
-24.217499 0.691016 65.165985
-20.853815 7.213284 57.473156
3.549259 12.156401 41.204243
-16.955370 -12.077419 53.035900
19.120815 19.558262 46.034008
15.901282 9.565924 85.235924
19.618763 7.996546 69.126122
-0.581519 -11.733768 88.303757
0.967606 12.479348 99.897392
24.783577 -1.449097 75.926216
12.650496 -8.774221 109.714272
3.403267 -15.362190 40.383171
-12.461756 -10.697392 36.819317
-2.442598 4.014048 113.230415
-19.737602 12.073582 39.316872
-15.026047 -7.779888 50.092613
24.522963 15.943533 57.586243
-20.761639 -0.856868 87.716087
-28.257002 -2.695909 38.122543
-5.203932 19.850172 43.929714
0.976533 12.268784 85.105904
-20.995203 -7.908270 40.900425
-5.249804 -12.853116 99.086449
-21.691975 -0.590636 49.393375
8.661016 -10.389499 78.811844
-18.021616 3.911520 79.063538
-0.221635 -15.221860 41.391159
8.072292 -17.120825 38.561554
-8.286088 -16.883738 59.730743
6.660917 16.130323 68.278763
15.930739 -8.620742 97.181908
21.540848 8.537375 60.644211
18.669952 -5.733436 59.981281
-23.851130 2.587777 47.041569
18.107580 16.428858 50.739098
18.943670 5.331701 83.329079
-8.278945 -13.453241 58.602852
15.315228 12.551194 41.772228
2.487343 7.532092 45.340023
20.096333 19.658291 43.373100
22.899437 1.703627 61.463787
-12.266129 13.862623 72.491318
18.355377 14.238894 80.190567
-25.649122 4.247490 41.321945
-9.433611 -10.188413 93.225220
14.587129 -16.827890 81.021439
-10.151369 11.500283 95.685371
-19.727396 -8.779785 69.818634
-2.135509 11.941895 103.379593
8.586639 -18.375067 49.842747
-18.735672 6.163663 78.684837
-10.549597 -21.079187 34.271637
12.140600 -15.208735 77.907837
-23.235678 0.240327 67.922012
2.045742 14.955932 38.711922
-15.840067 -9.619300 59.135807
1.253581 17.014494 73.328392
8.050716 -9.539811 91.359039
24.548716 -8.458785 32.809349
15.288976 -10.166531 101.167343
9.898890 9.093002 43.489330
7.224348 11.586475 49.837685
-9.797883 9.136382 35.867950
5.958601 -8.081328 40.554115
20.427139 -6.385575 83.667137
-8.659290 -9.878201 109.376778
-15.750521 16.180672 50.052338
19.643974 18.361015 51.406609
20.162981 14.582055 67.602753
13.005827 9.518235 94.722054
1.245741 13.156972 84.764137
3.597115 13.708104 68.754524
-25.533867 -12.349280 32.320675
-9.663417 9.820610 36.622185
-16.701019 9.105796 94.744362
20.208740 -3.935807 76.172729
10.172062 17.258892 69.005798
-14.484597 10.410686 51.589146
15.664577 -1.604020 46.568359
-0.932258 7.801478 46.429779
-7.051419 -16.515568 76.105469
7.670447 -8.852798 61.897827
4.521230 -13.177887 54.211685
9.323667 21.852196 35.195503
5.107871 -16.702648 58.234837
-8.084307 13.260119 88.849319
-9.196507 21.318716 55.097603
16.578901 -0.030651 102.266769
-23.913485 2.403306 63.884594
4.348620 -17.066082 61.964298
24.672861 -6.726278 76.145782
10.330753 14.312883 67.617538
-17.482718 8.112890 87.744698
12.535007 -20.417854 31.645983
-12.305598 13.922344 64.661522
2.275899 15.273670 48.901440
22.462284 -5.482848 88.386215
15.972010 -8.829018 69.113831
-21.024666 6.840964 56.070431
20.838579 13.125736 46.698265
20.969395 6.869556 61.613495
20.975958 2.799267 70.109329
-10.545014 -13.372194 37.866524
10.395516 7.746183 49.118004
-14.586292 -9.836226 74.879921
13.466537 -20.545925 34.973637
21.172056 -4.931244 70.300789
22.203297 -5.100187 35.484261
-6.080948 -15.292423 34.451256
-19.736389 6.803735 60.770683
18.140739 15.174433 46.333069
23.518652 -6.039207 63.090691
5.725884 -13.202435 98.665848
-2.109355 -15.887366 45.586342
0.326456 14.596585 81.882820
-17.091160 -8.289957 65.042374
12.416179 9.729413 49.973766
-5.616899 -11.400354 113.062012
21.268463 9.057433 67.489914
0.295750 14.748389 100.939888
-12.166396 20.107462 51.587769
13.428474 10.252580 65.153336
-5.179886 -16.132938 83.345161
-10.369010 14.874660 41.969692
7.620190 -15.847276 90.730530
-14.576271 -8.980131 97.700058
-24.239021 1.429686 58.696415
-22.353144 0.592579 36.993710
3.844564 -16.888678 36.053879
-12.307240 -14.711308 85.487434
-8.730096 -10.149181 74.473740
3.390283 -14.678572 54.360527
10.513830 -7.591143 65.004524
-7.122170 -8.427438 38.101360
1.281909 -11.904329 119.674973
24.324760 6.247018 38.012882
-21.163748 1.162853 80.022232
-17.227718 7.799030 67.324699
-12.642145 -13.702981 41.391930
1.282449 12.975314 34.096546
-7.387137 -12.967546 95.597214
22.809021 -7.774211 56.279854
7.738525 -15.763988 93.706512
-10.780536 6.867045 34.296181
1.241802 10.648046 84.341652
-10.877216 10.636920 36.347519
-25.955654 -1.288533 48.007301
21.051973 15.790201 47.519131
5.859284 9.836940 104.315079
-18.871128 3.248595 71.945084
17.820568 11.310601 57.094841
-26.083071 4.709720 35.520576
18.390022 -9.891665 46.558483
-8.388712 -8.615004 76.291153
25.426933 0.181191 51.746746
-12.369513 21.380018 44.264473
0.416602 -14.626691 79.294266
21.063559 -2.367635 69.979973
-10.441199 20.655035 48.516411
-17.074745 7.026714 100.417336
21.664743 16.598606 47.109966
2.939839 14.595220 48.230362
16.740660 5.049607 99.430611
-9.252646 9.323232 41.306000
-18.773771 4.525240 73.950294
-14.689539 9.588872 80.151611
-14.444622 -12.850840 64.935883
17.025349 12.695778 79.568817
-10.078057 18.502668 39.638546
-23.725117 5.368091 44.353481
-6.263436 -16.082546 78.716217
-6.165688 -12.320614 36.064648
16.177969 12.755359 43.148163
-15.820334 -7.978614 32.110420
-20.460911 -9.578259 55.597832
13.861466 4.298936 105.126846
20.539204 -5.024940 79.383476
-2.108367 8.043638 107.671913
-3.845049 -9.788515 113.238792
11.523317 15.779819 70.242340
22.454685 -8.919042 87.278160
-0.957206 14.354252 59.166695
7.395144 -7.179003 55.009712
0.511324 -14.744058 69.221756
17.976130 13.189435 76.409279
-15.461364 4.722039 94.179184
-20.068050 -0.629538 60.374161
9.216192 -5.980247 64.445969
19.322592 7.752554 55.914356
7.210469 13.445040 82.343201
-14.832891 -11.486910 76.956367
-21.343721 -3.826262 71.456001
-11.702953 -9.634142 86.540321
-12.066860 9.053437 46.965679
19.268974 6.521656 76.857582
-11.083611 -12.793804 35.627308
9.636798 -16.756403 53.787060
-20.840706 -1.339332 53.797264
-10.246267 7.350098 35.004646
-16.183138 14.396038 52.488678
-15.686499 -12.303423 53.757435
10.191990 -18.857157 34.610447
-11.326664 -7.136902 74.298866
-16.096239 15.893723 36.974251
19.300451 3.661737 77.144539
15.349752 -4.695423 107.612869
-14.164731 -11.609255 42.077209
15.801327 14.092111 47.932705
9.748602 -5.909336 44.758331
14.535864 -12.595417 54.838638
22.635654 -0.482941 88.774231
26.890680 1.000397 55.473774
-15.528269 14.441327 58.315319
13.277393 -19.456148 34.585155
15.548285 -19.539236 45.195965
7.864257 -12.269979 68.093422
10.568934 11.847068 82.663795
-16.468674 -7.265445 104.917816
-5.601107 -12.086939 71.958435
18.564054 9.502665 95.986595
-9.993699 8.495760 99.840645
19.983070 11.890359 34.583961
-27.378868 -0.698102 49.499104
-19.077158 4.046713 85.907425
-12.644722 16.632551 75.194778
1.288064 -13.070763 64.885468
1.951121 -15.210964 77.072578
-19.253361 3.189491 80.849731
21.915590 -3.874913 59.835655
-7.099087 -14.203964 102.171097
-4.884637 -15.904218 77.205803
20.492563 1.989669 56.727875
2.051379 8.247172 30.028070
-16.390528 15.624794 44.684929
-17.538994 2.122435 103.651566
-0.999932 16.444401 52.806286
-22.128061 -1.729931 89.104095
-15.080551 -13.701158 95.275925
-19.599823 12.538863 58.698883
6.692189 -18.161264 32.216911
17.695301 9.322350 91.404320
-7.940711 -13.044144 100.783943
15.230821 3.739970 105.688683
-9.909133 -10.143145 104.659111
-10.169108 -18.156208 49.597637
-6.934101 -13.957211 57.571331
1.099442 10.462618 66.534119
-17.055052 16.778860 37.671227
7.537224 21.259247 34.487823
-13.836203 20.180584 34.100388
-14.902734 8.311888 80.423790
-10.433761 24.670053 34.475410
-8.206194 -17.065145 59.631767
-11.562140 -9.007605 77.158203
20.038206 -7.300315 74.897690
17.185335 2.017305 101.676704
6.232219 -16.436344 60.534176
-10.471926 -9.471902 71.806847
16.662558 9.245709 89.151222
17.044954 10.688167 60.729065
-7.647807 17.798826 68.214668
-16.411251 -15.504153 70.526489
-13.356579 -5.755472 106.756638
-13.835082 15.018692 47.906101
4.711890 -17.011166 83.817276
-17.722275 4.614535 98.409882
-22.513264 3.119196 44.867851
7.956555 -4.910740 39.446022
8.004019 2.118773 120.406281
18.978561 11.197301 91.217125
-19.398344 -0.126120 93.364372
9.465096 4.119046 117.838058
-3.289393 -18.410595 50.613010
0.382673 12.248848 87.266113
-11.433908 15.974676 38.629719
-7.706635 17.720371 54.560211
24.254766 -7.105910 76.891121
-13.326871 -8.385643 94.438942
-14.440629 -15.663744 41.231506
-21.396059 8.426712 58.910736
-12.701513 -13.118184 76.999847
19.304760 6.805224 94.800552
-3.851140 -13.047778 62.040970
-13.718040 -7.339528 100.827682
13.936762 7.622639 58.969799
20.139713 4.996631 76.335434
-20.826204 10.760839 57.193047
-21.799726 -6.466771 68.398468
-21.682798 -0.722019 94.304726
-9.854963 12.002804 51.214962
16.049528 9.604361 96.352844
-10.937837 -9.088733 78.004135
-26.427763 1.100880 38.420753
13.183661 9.019045 51.846256
15.754808 -10.952104 42.927971
-0.938760 -11.670115 93.076378
-13.486435 -17.887543 51.507401
0.824923 16.625713 58.789330
-29.792074 2.314053 33.583775
-15.199117 -4.682710 107.885674
-18.135906 12.041749 78.493103
-11.382112 -9.711063 101.994995
-7.664623 11.008236 104.560814
11.029316 17.180307 55.712242
19.939150 21.306002 42.531811
-26.696470 2.409291 55.631790
3.102218 11.742068 93.183998
-11.105892 17.094946 36.939083
-3.270643 8.825695 106.945206
-21.839216 1.722065 53.296261
18.525425 -2.002114 62.873848
-20.192343 6.891114 57.643345
-13.539904 -8.003553 61.011639
6.186062 11.404427 37.298683
27.692020 -8.058932 42.947292
1.861349 11.196215 88.970299
6.676009 -12.089824 56.990528
-11.522599 -6.866563 113.583542
-1.973249 15.217807 83.851257
-7.460976 -16.655748 37.546730
21.525734 -1.625814 38.391273
-18.936502 10.676858 62.580254
10.872809 8.722958 80.727676
14.091693 7.978045 75.758781
15.111989 10.108250 31.998524
-1.915877 -14.962750 67.143227
-3.121840 14.334119 83.280052
-21.587473 -7.926754 66.886963
24.425659 6.609608 42.236813
2.937453 10.953335 80.010117
-13.759402 -13.802218 72.290199
17.511925 -9.799297 47.482456
18.741894 -2.800972 89.233910
2.054567 -17.099495 88.257988
19.519171 -3.879656 45.720688
-18.389223 14.491918 29.550253
-2.996032 -17.632538 36.012665
-19.067053 10.331313 87.449722
19.128050 4.934200 77.385803
4.102739 -13.315234 98.497543
9.040817 -8.320402 44.057056
-21.244911 12.484561 37.089943
9.618581 14.144670 34.940109
-19.809196 4.901042 81.326668
12.270988 9.227617 39.262596
14.206962 -9.696348 32.134140
-9.983789 11.327127 94.676743
3.745718 -16.185635 61.129337
-12.688126 22.059978 37.927578
-15.121301 10.782875 42.653141
7.831306 14.146900 34.235909
7.860452 -13.318414 78.688675
-11.834455 12.291457 83.518143
27.542007 -5.019299 29.556648
-13.119752 -7.894957 104.557526
-8.245054 -8.950787 52.755486
16.398790 -10.095768 47.710865
5.119886 -14.097146 101.242416
0.829736 10.412925 97.779030
-6.580681 22.021194 46.665241
17.823502 10.554714 78.427185
11.584873 -8.846108 31.155037
22.479717 -2.272213 38.216076
-13.849202 7.802061 65.057510
-6.889232 -14.434654 76.688133
15.323122 -13.291039 61.345737
24.701912 -8.050914 67.311363
10.758428 20.796556 32.243961
-13.020505 13.554256 53.114025
-13.117368 -9.427175 98.123825
-23.024910 9.488567 46.500931
-13.781465 -8.652341 50.908707
-14.088909 -8.329223 98.989182
-18.653242 5.106414 83.787910
7.513452 17.143122 74.512367
21.788328 -7.160284 62.114521
-8.852160 10.582080 40.200115
-9.680138 -12.318070 65.898788
-3.345869 10.930990 86.282944
22.315783 -7.697999 67.417953
3.985793 15.772625 83.548523
-10.608195 -13.528521 69.953568
1.446662 17.002054 34.491005
-11.643593 -17.486929 35.280106
-5.350396 -10.701079 39.502583
18.730743 4.315146 89.490669
-18.431643 13.063211 40.805271
12.489550 -18.920750 66.465393
20.363688 -9.625394 45.216694
1.111725 13.123051 93.503159
-9.923555 -16.882113 62.841679
22.351400 -1.916594 76.582977
2.861006 15.910121 70.170036
-0.730990 -11.037663 113.024940
-8.456705 -9.973221 38.024662
20.423500 -4.990940 56.522072
-16.217510 9.859320 51.590260
22.638599 0.036155 76.045158
-12.149963 -16.802147 74.586105
-11.867327 13.767497 45.979675
12.657449 -13.788074 91.494713
-18.379230 13.751470 56.482822
-11.542360 16.401234 66.020004
10.411839 -14.040885 37.705273
-13.504412 22.879608 31.284628
15.038798 8.929165 64.120102
11.151007 -15.564757 44.812611
25.614592 -3.397647 52.661636
-3.214934 14.054083 78.560028
-0.123904 14.719609 63.389885
-0.692125 -11.493474 104.260750
-22.973387 7.827021 38.222473
-16.491365 13.884568 63.170040
4.742008 8.679605 52.823235
-12.621935 -11.424939 89.592018
-15.703043 10.558634 48.125214
-7.367707 -8.972368 43.020851
-12.230960 19.779305 36.762737
15.956967 -11.176532 36.721855
-25.870258 -1.226383 37.863533
26.446634 -1.558903 38.748043
4.297539 6.535484 33.182320
17.859690 -8.855122 61.193195
8.629598 -8.019905 56.032513
9.247874 -13.600850 41.438507
4.698621 -10.450399 113.604790
14.273490 -19.427563 33.156254
-22.137451 13.711150 40.091038
-16.238863 -10.726229 59.422050
-13.949120 7.816963 58.182972
11.941283 10.220190 45.586533
-23.580765 0.777181 84.899887
-5.157550 4.143787 110.784203
10.787494 12.652648 78.817680
4.730858 -15.331867 85.744377
9.515186 -13.447195 95.583748
-11.052323 -13.308996 82.735703
2.791358 14.666538 41.269897
-17.541155 -8.217327 72.147110
-18.875282 5.785310 86.442413
-6.135352 -8.972065 78.861961
-12.261650 -9.680854 69.848763
-9.134599 15.871270 84.709923
7.717930 -16.998920 31.290163
20.863670 -9.209235 89.877640
8.676608 -15.232716 37.523754
2.952913 14.992081 49.247013
-7.543451 -11.749027 91.941353
11.716504 -16.582113 78.868324
-18.180513 3.547503 95.402733
-1.749241 -11.176301 82.720810
-9.002768 -8.943286 111.284424
-24.253275 3.356093 33.765987
17.168329 14.500176 56.886208
6.553906 -15.098278 75.069473
2.426210 14.428366 30.711788
11.143826 -9.605841 51.063839
-7.151090 -22.430277 39.660282
22.620703 9.189448 32.813461
22.432962 -0.389026 90.888214
-12.020056 -9.700549 40.712185
-16.621264 -8.128562 72.536148
-19.093452 10.839514 42.108860
13.478931 6.758025 66.477478
-13.359193 -18.645441 59.179531
6.395963 6.683751 112.318253
4.046369 12.188805 60.235847
-2.350480 18.874371 56.681465
22.521860 12.655296 43.945168
13.976145 -10.211281 98.676155
-13.961626 -5.484293 107.207672
6.305531 -7.175014 48.275429
24.278328 -7.122695 64.933151
10.844656 -9.822687 57.776054
17.011383 -2.644202 42.096901
14.983173 10.840263 37.173481
9.576970 -12.357959 68.273659
19.920208 -7.393496 78.980751
9.085505 -12.173722 75.266129
-2.166684 17.194210 68.864502
22.284870 -2.535700 48.847855
21.118853 12.742318 43.373615
-22.155128 11.480338 42.849243
-16.463110 -9.652451 61.213631
-18.961870 -9.909960 68.617455
1.928883 14.315377 88.279312
-13.264999 17.718382 75.334526
-8.875413 -8.058262 87.674423
14.216692 8.962556 73.999336
6.765942 18.896484 54.393276
2.121780 12.386408 69.199615
18.207739 12.206037 45.787189
7.986901 17.384106 69.673241
4.387774 -12.550449 116.779419
-16.004736 6.358640 98.221169
-11.777122 -17.489489 35.098576
9.127597 8.702973 45.344120
-10.704917 4.171185 112.773636
9.062747 -7.879612 50.046368
1.805311 5.381191 114.785820
-21.849928 13.065929 28.451530
4.159931 10.893391 58.465740
-9.876563 -10.794646 34.710812
12.838470 -12.181624 104.239754
9.733402 -12.089182 51.776791
-9.484635 17.681015 35.257736
19.469070 11.849569 61.850048
3.475425 -17.490198 93.667435
0.036717 -16.956066 71.251564
-15.027431 11.995529 36.615433
6.746712 -9.653012 72.554962
-21.791500 -9.099686 31.926401
-19.562754 -10.955609 57.086689
9.062905 -17.392731 48.653717
3.372748 -15.297372 50.699463
22.192495 7.949757 34.960552
-19.944250 -11.167233 75.725975
-15.730582 15.072756 38.969700
4.997385 -18.082428 63.452374
-0.044596 -10.877786 84.548416
-8.115963 -12.977363 58.065601
21.481594 -4.968476 83.763878
1.787576 11.989128 91.123489
7.177727 -14.873498 52.996391
21.351387 -1.653578 90.762054
10.334155 10.693121 62.109257
7.268376 -5.785134 43.063385
-16.521997 -7.748686 51.971382
-11.770925 -0.326216 115.602875
10.392194 -10.848360 31.003239
0.083089 13.353973 86.821899
0.734196 -12.752531 68.528038
-11.710876 -12.212992 47.542336
-17.758881 9.451069 75.324348
6.356583 -9.647625 103.748024
-10.934548 -7.944728 115.182541
-19.197021 9.111319 62.905598
-6.927040 -7.527747 41.680645
26.120714 3.508266 52.518864
-15.047055 -13.341274 93.505264
5.523886 17.845182 78.888443
19.148869 9.458618 91.605339
-13.521940 -12.100289 83.733658
7.850121 6.132992 114.716003
3.487823 -14.345282 43.593117
-20.598692 -11.392347 54.729725
18.293928 -2.905093 45.046444
-19.365833 11.827233 86.784187
3.705052 -15.843402 39.490299
12.979990 -11.256562 99.026039
-13.259432 -12.075045 105.083565
20.779476 7.155273 84.777267
5.246188 -15.222369 96.085854
5.266551 -16.125746 37.817104
3.407706 9.436357 48.125114
20.933352 12.568504 45.481949
20.550489 5.721807 66.817978
10.661260 -17.040504 74.450104
-8.419294 -9.069626 85.627762
-21.263084 -1.357284 95.634682
1.481736 6.777750 32.850136
17.099966 -10.736336 74.167297
-28.007168 1.264929 31.356319
7.970142 -7.538157 70.694519
7.487933 3.857402 116.260201
-18.288277 -7.354386 88.050591
-18.480185 13.438734 48.434860
-11.592398 -10.281586 87.133247
15.205570 11.135823 61.943829
18.835648 -8.832049 94.787544
7.892085 -10.426371 41.483295
-7.101856 -15.260525 54.339394
-1.833762 16.593349 50.803684
-15.907387 -10.989612 83.861458
-21.699104 -4.610924 57.852890
15.215777 -8.479894 90.025269
-13.896852 9.468758 57.140514
-18.135811 -4.282102 102.549789
-0.723490 18.505827 33.094673
-7.001190 -10.282014 94.349258
5.921899 -12.702747 85.299156
-13.852756 15.560364 46.538128
-8.679605 18.920815 53.093010
-17.088327 -10.423294 37.529644
0.437888 13.549979 79.229523
-14.681440 -9.985217 49.723499
-4.033453 -16.673769 44.701336
-3.134323 -19.186092 39.751663
-16.654083 14.516249 61.843575
6.343342 -18.559345 51.111183
23.669178 -3.270417 42.592869
-11.924453 -15.093187 76.208992
-10.549686 10.222369 46.793140
8.406286 -14.823505 85.718102
-14.330498 9.704271 91.565315
-4.693462 17.817667 67.386452
-20.455650 -5.470080 32.210526
-17.974771 10.016928 38.930565
7.261579 -11.770317 38.904778
-0.947837 -14.246917 76.388451
0.862157 14.837251 62.800449
-3.453421 16.070257 57.547478
11.208315 -9.487554 67.573753
-19.923672 5.639111 95.029175
-11.459970 21.187435 46.449745
-7.211157 -15.242643 94.077423
7.909907 10.242957 34.396065
-16.603636 -5.428683 106.401604
-19.950888 14.846823 52.670181
2.030202 -17.692095 48.860828
22.419327 1.426303 88.354546
9.415048 18.018557 60.564011
7.152109 10.239953 36.716248
0.838685 13.444802 105.325821
-21.508041 -8.707389 78.819702
19.423403 -3.781547 53.273144
24.705301 3.121355 47.210350
-10.206640 18.864471 56.885250
4.713245 12.579311 35.080769
4.597387 14.995314 38.906185
3.903788 16.122360 70.702309
-3.739398 -14.089304 59.880955
-10.572754 -11.594088 44.683884
9.021688 -18.949350 45.205719
-23.168928 1.161002 71.831017
-7.373460 13.082645 98.605217
10.381124 -16.226473 76.915489
5.777929 -9.852729 37.355568
-2.595290 20.365366 48.301170
19.904551 11.236044 95.759377
-0.859088 12.463130 95.539497
17.319149 5.953844 86.419258
-20.657043 8.840948 85.425217
18.017876 21.949255 37.671284
-16.573421 5.043030 102.872116
-12.899897 9.883080 57.337692
17.859259 9.782808 79.383423
-1.842456 15.137522 55.846218
17.522320 21.035192 30.963036
-19.217302 4.928700 79.584953
17.912371 -10.615038 34.119160
19.458504 20.442596 35.560406
-23.355532 8.290277 38.558060
-16.927565 6.177523 88.816437
-1.691187 18.001345 59.538734
20.816950 10.546749 45.410130
-7.828620 -7.949614 44.236378
13.808578 5.742538 77.320053
-12.604877 -9.954498 90.853409
22.135466 -2.772956 60.480923
-1.602964 -16.650795 38.993271
-14.075824 -15.267156 89.774437
2.623145 -11.283015 111.649414
24.046688 -4.195483 70.677383
-13.679983 9.963695 66.202415
10.203409 -13.174551 80.811989
-19.361788 13.423148 50.277229
-12.683594 -8.350247 55.815662
-8.830989 -11.376903 108.477089
-16.326103 -5.186642 95.842873
-11.970597 -8.944168 78.750175
-9.619514 11.059439 103.286453
-12.383567 -15.306900 48.099644
17.800957 4.312277 76.074379
-13.934076 -11.359254 75.490211
-14.394442 -17.000528 39.659538
-18.798132 8.006282 94.872993
14.863818 -7.164299 99.726204
-18.183941 8.470181 79.979424
13.667460 8.238253 76.067451
7.877743 -10.827650 82.812271
-17.352209 -0.268978 105.761726
10.193499 16.003815 63.614399
6.709363 -14.645461 67.341759
17.457050 -6.571313 36.472424
12.702766 -7.757606 101.891144
8.781386 10.969587 55.327827
6.897889 12.452200 32.357525
-7.497053 -12.951341 39.646301
-14.734275 -9.190000 98.871437
-6.306510 -10.024650 94.664642
-5.611720 20.793093 34.187374
-11.634724 -10.795960 55.810078
19.629448 10.082367 86.297943
3.675082 -17.929262 52.458256
26.778156 0.859629 35.519497
6.989517 -12.729156 106.792694
-17.379696 6.132417 99.739853
-0.152318 16.119501 43.298485
-27.617319 -1.207876 33.891453
5.603159 8.145192 104.906593
0.837465 9.209463 67.320160
-5.196304 16.253777 54.803356
-1.960516 -11.795870 115.192871
21.602707 11.518219 70.832817
4.294569 -7.782375 33.156425
18.662594 12.942922 37.801174
-12.745852 -11.018950 73.970886
25.778357 3.763436 32.177643
-4.781516 -18.898371 41.254292
-9.829842 16.030697 40.877895
0.372085 16.408184 37.745781
22.594555 -5.760035 59.075665
-19.406940 9.007736 73.270805
-11.180527 3.677467 112.939034
-12.372226 11.714142 60.203789
13.345124 -21.089500 31.428753
-19.359919 11.360089 84.497940
-13.316621 -4.681566 111.283325
13.573720 10.194125 66.044121
8.381197 14.953149 40.778847
-11.968037 15.943722 41.040886
21.685429 -10.266194 40.218544
10.185598 -9.623841 101.138680
17.165041 9.606319 84.271263
-6.350151 9.909062 93.116165
10.294088 -9.298270 41.289391
-11.678761 15.830333 66.610176
5.430571 9.624194 31.603554
-13.085534 -15.087343 46.225330
6.545500 -12.570913 99.186218
-7.175764 -20.226067 33.926735
18.846825 -6.877762 55.603985
-12.040497 -20.148848 65.664268
-15.313655 -10.047017 61.370960
-1.406409 18.860102 33.226398
3.784294 -16.391899 92.348663
-19.265583 -5.321219 63.161537
16.856894 9.210667 54.649788
-14.618157 9.210259 85.805046
2.812998 13.371324 67.525574
7.262046 17.402569 64.227974
-6.089383 15.765532 79.038681
9.245831 -16.950647 35.222633
-23.523767 0.764431 86.726967
-14.211410 -8.110283 37.255898
5.020460 13.234249 98.993019
16.068884 -15.763165 41.962955
18.293814 -0.900899 103.916229
17.154587 -7.218483 27.319342
3.405428 16.639460 39.071480
2.625802 15.424313 52.407898
14.300276 7.884082 42.919853
21.396000 10.937866 77.813431
-6.241797 -13.234245 85.740669
9.526165 12.272552 98.567535
18.290215 -9.186110 46.582348
11.279126 -23.436110 33.870903
-16.178492 3.311063 109.532433
2.820511 16.827679 60.967892
-9.664048 5.008725 117.842949
-10.514223 11.743326 95.475014
9.280396 15.789117 84.768623
-9.749290 -17.455980 35.120808
10.435652 -15.141855 84.368752
19.007576 9.852287 68.384781
-12.845585 12.726721 67.006264
-17.906376 9.604117 96.153725
18.322781 6.779928 94.935585
14.526512 -20.677639 41.289898
4.672075 21.839867 34.228668
-22.703112 1.978172 62.117878
-13.691895 -9.991563 82.033134
-15.635595 2.827214 111.111595
-6.120602 -18.699877 31.298489
8.196083 20.002052 32.243839
-21.516617 0.862632 86.979202
10.710099 -14.213797 79.142242
10.640176 13.121318 60.138618
-13.612397 11.869195 33.981167
20.768488 7.467887 67.623634
9.727374 -7.993790 63.032669
-3.849483 -6.341350 39.236984
-21.841522 -8.197532 69.831078
7.369995 -16.665758 68.052528
3.923957 17.374826 64.868729
4.760262 -15.643379 47.487759
-14.127844 17.955521 37.537689
23.485428 0.326144 71.690308
28.269657 0.418882 45.658550
5.840862 -15.103652 79.840393
20.674221 16.574617 58.871407
5.216411 -11.651952 67.363998
-20.218592 -6.128638 87.127731
21.565769 11.863660 37.776909
17.424196 3.698165 66.967575
17.709877 0.563651 98.073441
0.504374 12.512170 63.442825
22.327087 -5.789630 92.937614
22.229370 18.554045 41.930187
1.942712 -16.795389 73.124115
-20.684753 -1.311458 98.759857
-13.509200 -15.809594 40.066959
2.732225 16.293596 51.712391
16.034571 7.487626 97.538376
-3.565928 -14.251484 50.299843
26.411295 3.898118 40.170639
13.996038 -10.528445 56.291569
0.920781 11.537017 84.438797
19.004459 18.406685 47.258999
-22.362768 -8.097459 74.045349
-20.554977 -8.467300 75.094650
-12.697424 -12.426141 79.346802
-14.660595 -3.819139 104.958893
-6.287510 -14.916216 64.258560
-22.771832 10.025364 48.208668
-19.040731 0.956997 86.649086
0.439688 8.556808 108.536240
-26.243811 -2.400816 38.957092
-17.693174 -4.935612 52.518669
10.844346 9.232913 50.409077
-12.513668 -12.791387 85.751984
15.706055 6.864935 94.596909
-9.568485 20.275944 43.974224
-23.990499 -1.862644 55.580021
-3.484759 19.592283 45.976479
20.825033 5.137220 73.800316
-14.648932 16.152298 55.777767
15.668279 10.091805 49.900963
-3.102923 13.856525 94.150467
-20.249792 9.238272 50.961552
-8.816014 14.173654 84.929008
14.264721 7.823624 65.240921
26.909174 0.937414 53.185867
4.600063 8.947846 66.085793
-20.649336 -11.809744 34.755829
22.621792 10.764887 32.295429
14.704318 8.092381 64.111504
-12.602692 13.136589 58.938274
4.906468 -15.293737 29.802727
-11.797675 -12.190001 73.420464
4.623154 -8.618266 69.988350
1.163269 10.941935 101.217682
22.784578 4.147042 65.583649
15.124948 10.647379 95.444000
-8.797134 -10.356769 41.529388
25.393703 -2.244906 47.444324
-0.317920 8.678731 57.091442
-11.752248 -7.036784 36.220917
0.628353 4.105222 115.438072
-13.291953 10.853013 45.222832
-12.972476 10.658618 98.002480
26.736471 0.143628 33.833023
7.992503 18.501963 52.902500
19.978239 14.740405 30.136251
20.817963 1.606344 82.135681
18.364994 -13.321539 38.973915
10.098597 -18.745972 67.227081
16.688532 10.506257 34.574123
16.646063 9.900436 61.391430
29.743143 -7.193043 46.904469
-9.633806 13.320442 48.248123
-8.456383 -11.524070 37.306992
17.449474 -7.960693 100.379143
-10.537624 -12.830638 41.304855
-20.634737 -7.140259 70.655891
-19.639683 7.035554 84.816612
10.116092 10.463825 77.994225
23.240252 4.974849 50.127552
-13.572211 -14.798138 47.966930
19.893093 18.189806 34.264469
-12.844199 11.353121 39.495010
-6.821581 -12.237356 73.724953
6.955694 -16.276163 43.101524
23.045355 -5.153393 82.004707
-21.134922 -0.211174 91.298164
21.174437 -8.313169 61.318893
17.252804 -9.153121 71.936012
-5.123020 -15.932881 77.654091
22.496412 -2.059638 82.188622
6.529614 9.294847 107.463112
-20.400812 11.341382 46.687271
-17.011364 9.049516 57.439030
-7.105000 -10.724139 109.066368
-16.546801 16.014059 33.014366
-0.273723 7.454184 111.387444
-23.778269 4.851297 39.914467
-10.385040 9.404981 70.237778
-17.787727 13.802891 64.453300
13.618670 8.042699 92.812477
6.541884 -9.111788 87.226601
3.294706 14.592691 96.036583
8.884596 8.052129 41.466423
-18.029068 -8.963996 58.978085
-22.949825 1.824767 90.007156
18.455883 8.083781 87.932831
-9.894916 -17.076742 38.736538
-9.885677 -8.335880 81.643646
-1.839716 20.108936 39.956802
25.813051 -3.602370 39.749493
8.533280 5.803518 110.042961
18.006090 3.771398 102.886765
-7.096345 -8.399685 96.176643
-3.872130 -16.641098 41.328354
-0.678245 15.172174 80.433678
13.298190 9.349735 53.682671
-6.235314 -9.281627 47.894623
21.739040 -7.241527 76.776955
-9.551267 -15.175591 51.762596
-19.689369 13.540696 33.748482
-4.403290 20.670086 41.513744
8.753155 1.396140 113.181267
28.076786 -10.618857 31.024416
3.366281 18.142042 63.576237
19.835936 10.121535 77.941795
4.427722 -6.576486 41.291470
-22.421961 -10.527332 37.677628
-9.684031 12.893845 41.564289
1.821291 11.393786 60.168411
-20.296633 -6.442034 55.701435
-14.346836 -18.043409 80.528008
0.458300 -13.980581 40.813103
17.767355 -2.447730 54.238956
15.260016 6.362008 85.576355
-3.338615 14.313143 71.456024
-11.403286 5.589042 111.667068
-6.623973 13.004464 87.761841
25.985294 -8.007202 48.042152
22.006134 -5.952469 83.366859
-14.294234 7.617057 51.514355
-3.405764 8.143737 105.395912
11.811264 13.390459 87.909561
11.148794 -14.986540 85.508095
20.982594 -6.282347 49.589500
-9.376858 -12.560341 77.838531
-10.087233 -11.487827 53.698902
9.190091 14.532025 61.418556
-22.173300 14.750570 36.599651
-16.026806 -2.256902 110.185173
8.388126 10.079091 42.140491
-12.340290 14.694290 43.449398
-5.078098 -7.838942 44.533073
16.774044 13.224204 39.340782
-9.338201 -7.587222 45.105843
-17.596800 7.733235 62.140381
-2.186970 9.476833 103.138420
10.262572 17.814169 66.402809
26.220640 -9.022211 32.585789
20.243137 1.490865 75.060860
-2.195547 -11.997819 80.779915
-22.393301 3.086028 72.064392
-18.770781 14.867027 68.824959
-11.444432 17.254423 54.984474
19.449560 1.607594 86.706589
-17.935358 13.572450 50.116402
-14.571044 8.503704 73.862244
12.613039 18.339060 41.350056
2.723577 10.123284 77.077980
-18.152004 -0.133608 102.489548
-10.422649 -16.272640 46.839554
-19.922262 10.912911 56.397213
-11.071062 9.576901 97.782120
-14.242462 10.513118 82.316917
-5.263166 17.578300 61.571537
-19.824453 -1.350098 91.605133
27.110512 -8.197382 44.185070
-14.261986 10.034783 76.687180
3.106455 8.709471 28.664270
11.756985 -10.294412 120.558403
-18.003460 -5.823843 99.194855
-14.689565 -17.790625 49.332214
-13.430881 14.395603 79.750580
14.009343 -10.582949 78.514679
25.018787 -3.660948 36.515636
19.165684 -4.706207 77.418648
0.132169 -9.301852 69.037903
-11.060555 -12.634861 64.337563
0.298020 15.790570 38.070396
13.055142 -11.323865 36.524998
14.718987 -15.535081 55.625496
23.062023 -5.723657 72.567268
-20.293200 6.909094 80.336227
25.991589 -9.423496 32.677410
4.066368 -11.446833 29.130861
-20.697538 4.667727 66.976036
19.767433 -5.382039 44.029812
18.491961 3.199785 89.954124
-7.619797 -6.222531 46.839245
18.140936 12.785691 61.847931
16.993324 -1.657126 101.544434
20.000761 -5.512844 82.516151
5.055330 19.857327 58.327278
26.094452 -7.791590 48.163773
-10.755811 6.677100 108.455528
17.927629 9.056788 68.071709
14.565245 1.659480 96.529778
12.608990 -16.028931 83.621330
-13.750407 -9.573348 32.637688
20.287498 -2.778488 52.270027
-9.768476 -8.163222 30.135918
21.589973 -8.604396 67.681969
8.996034 -7.474691 38.445576
0.512777 16.676439 63.381187
-10.755240 11.931558 102.456398
26.842978 1.157459 39.143764
-16.671125 12.393752 36.187012
9.853961 9.279037 77.177895
6.964021 -11.217962 66.915474
4.843293 10.160308 37.550053
9.335937 9.087892 49.333771
-21.109953 -9.012646 84.060776
-18.019663 -9.369559 47.586990
-17.701353 9.133572 86.092720
17.248171 12.174489 46.287949
3.113973 -16.888885 46.275166
-19.729296 -8.822706 76.235237
22.911028 18.777788 44.948441
23.782425 -7.767271 46.761936
-9.032615 12.335870 39.652374
-11.361718 -9.812477 85.540634
-11.915647 20.115793 45.357681
-12.420168 -20.666056 32.177006
-14.741257 -9.347779 106.475708
0.904114 -13.408328 99.115768
24.150263 -3.268934 45.153694
6.176008 -8.693942 39.444904
-22.804457 3.576797 65.167534
3.390775 8.412674 31.334122
2.804774 6.167502 40.580925
-20.454401 -8.857770 78.102242
0.044409 11.236556 72.353302
-20.817797 13.291572 34.531700
-6.952140 12.947847 102.524460
5.237538 14.558286 88.809662
-1.213310 17.593239 84.665298
1.837643 15.502152 67.373398
4.540883 -11.524527 102.333481
-25.343836 -0.791439 40.086159
2.493373 8.319072 43.628204
15.057252 3.352377 105.595299
-21.676577 1.347137 92.457047
3.111647 20.685360 35.855465
-17.842390 8.011692 98.636665
-13.223067 12.865544 71.717995
-17.335194 13.670505 81.259506
14.006255 7.448699 54.156395
-13.621264 -15.133304 43.224926
10.121883 -15.135285 78.771835
-26.629902 0.149912 34.301685
11.411053 10.540717 102.994637
12.890187 -6.368454 95.849197
-23.228485 -1.537885 32.469582
-9.160764 -15.861255 44.110706
-18.571032 -1.865284 85.783524
26.463093 -7.334576 42.886410
4.621312 13.376967 61.401653
11.869789 -19.995035 54.515839
10.904753 10.269493 51.138626
8.221491 13.981272 34.194603
-4.817060 24.499905 36.106564
-21.169758 -3.587570 46.820389
12.845125 -20.255871 46.219013
12.809179 14.250323 87.054901
-20.766973 -5.267099 28.681679
-9.408834 12.215489 53.175148
21.769392 -5.372456 83.176254
21.565117 15.599559 62.952229
-5.464112 -16.968636 35.045025
-11.931413 23.255186 38.596004
19.927170 -3.647828 51.144310
20.991056 15.661009 46.080601
23.043562 -0.186326 77.957169
20.577314 15.347065 43.817902
-4.068997 -12.605531 104.636269
17.870218 13.989353 47.812832
-0.005759 17.704090 36.233913
2.790508 -14.877892 84.237206
7.221495 -15.874091 69.717537
4.338436 -12.580083 36.920940
24.368259 -3.253502 29.585384
-25.562408 1.334918 69.299339
16.727049 10.126009 66.410339
7.521301 22.576492 37.160477
-19.282209 -5.983236 101.833794
16.953545 10.565343 58.460735
-18.676575 0.330829 101.539391
-22.040665 -6.245907 46.112972
-11.031877 13.192935 59.394840
-8.475758 18.087017 58.082977
16.670895 -15.532177 31.205976
22.680618 -3.027398 47.743572
4.441516 15.113426 85.967789
-7.407701 -18.507320 40.578671
21.429430 13.127340 63.770115
-19.675388 10.627527 45.533703
19.334034 20.008308 42.535313
21.187422 -7.010441 63.080173
-9.740583 1.715343 116.055229
0.411663 11.607008 101.666054
14.899544 -15.144406 42.929703
4.258494 11.985639 99.229507
9.553775 -10.085888 100.968231
-23.534725 2.296718 75.782303
-2.088494 -15.125957 48.436146
18.954603 -9.221528 34.913563
14.484026 8.270761 80.644974
-13.003066 -13.997852 73.756065
-10.966970 10.336976 101.958092
18.357372 -1.861237 104.104523
-23.672247 -1.717108 81.289742
-18.963863 8.800232 70.426086
19.519007 8.944985 77.823105
19.778591 11.666963 40.647018
8.868553 -7.190740 35.122231
-6.443915 -14.465084 57.248093
-2.536555 -16.017027 36.062649
-19.269266 -6.646111 78.757736
1.662634 11.717829 89.468933
1.152703 4.118887 117.302299
-15.869964 -8.901909 98.451920
-21.565384 -2.229343 78.312553
0.434983 -15.401577 34.296253
16.908010 -4.284747 62.120411
19.111917 0.218330 88.224030
6.094973 -12.040165 47.425247
-17.206411 10.329420 67.167778
-27.021149 1.661504 62.552010
8.125897 -5.683785 50.633965
-8.433374 14.727753 87.777672
5.322942 15.421328 81.321953
6.382310 13.519262 80.097137
14.135139 10.117795 50.069866
0.219810 -13.890779 55.703079
-19.263510 8.441955 90.647079
-20.599653 7.597329 78.358444
20.433130 9.893703 93.394203
7.204241 -7.493776 37.119591
-19.286469 -2.780955 55.232845
-8.397429 7.218192 108.252731
7.350705 -17.020720 64.295151
21.156685 -5.909908 72.645729
19.228321 13.084826 61.801544
-11.643133 -14.348828 65.910690
-12.320605 -14.814867 80.628540
-19.054916 -4.740746 90.001312
-13.293991 -11.585562 40.830448
16.622263 -18.070293 40.272152
6.789071 -10.301186 49.846813
-22.386183 15.028438 48.850853
23.044991 -5.260928 78.108337
-10.490973 -14.131618 80.042259
0.052156 -15.614248 32.873734
0.983521 -14.049092 81.000084
-17.671684 6.429324 88.826843
-6.822618 -7.414805 35.608723
-18.659994 11.551147 51.563587
-21.534542 -8.364672 38.088459
-8.958453 3.813580 117.501144
-16.282969 12.605303 67.691803
-16.899471 4.662752 95.421356
1.993325 -17.261436 82.956795
20.966789 12.223208 73.052040
14.175489 8.563624 99.927017
-13.675636 -10.250575 48.047676
9.348969 17.201483 63.066559
-11.573173 -14.371779 83.932091
-18.521818 -2.558975 98.898140
-15.951591 -8.373033 49.590755
-12.036334 6.625070 75.047104
13.580671 -21.893106 35.400776
-1.079366 9.482267 106.861191
13.513741 -9.585622 64.895073
-10.369456 -16.305449 32.912922
-12.065802 -18.638557 51.167877
-1.605047 17.627815 60.797691
18.299274 -5.102889 50.000977
-3.904460 -17.717304 51.805607
-22.438457 5.242967 41.172836
4.574303 10.405529 36.501347
1.452309 19.647293 52.266449
3.681235 16.864716 88.586388
11.479159 -17.084486 88.492897
3.103115 -8.090922 26.938852
17.469242 -7.686137 45.341896
0.184233 13.131743 83.844872
2.265404 10.824887 72.112381
15.172412 -11.593302 42.090881
-4.105423 13.958908 95.207489
-14.929190 -9.323730 79.714104
7.717684 -7.474196 34.580818
-19.109247 -11.820383 40.830273
20.476154 6.875249 61.191830
14.339793 -16.943636 61.133675
-19.561712 14.683055 54.630344
19.583387 13.341760 42.273884
10.777986 -10.431882 105.705475
21.841557 -7.082023 71.463486
13.206676 0.919990 110.006737
26.735992 -0.922698 59.487854
8.215805 -14.905272 45.835567
17.827150 -3.647341 47.462971
-24.720324 0.026965 61.014687
-11.922482 9.226071 103.084946
-9.878002 21.619930 42.429314
-14.707960 13.635820 70.153214
26.271053 -5.405260 51.481133
19.576286 12.958547 43.075447
16.590586 15.920827 64.848755
2.928987 8.581563 52.126652
9.389666 14.254098 57.477867
-18.059433 8.244143 72.000679
-12.642224 -18.062178 47.857498
10.716805 14.775026 67.460434
13.485980 -16.595497 68.143219
-19.126324 18.334850 49.954239
-15.378115 1.305704 95.626541
8.030463 8.764016 105.809685
-14.102328 -8.433092 101.723450
2.003880 14.660786 71.370529
16.877234 10.096428 92.974770
-21.600561 -2.724890 43.780457
0.332496 -13.702008 91.799484
-2.732690 20.381351 39.563911
23.734484 19.905636 31.448462
-21.964949 -11.331412 51.467865
-18.607523 -13.386703 39.040775
-0.121243 10.407866 95.115761
-10.612499 -13.728732 35.810253
17.182350 17.931431 42.918480
0.041216 -14.935864 85.181770
17.991875 -0.659138 38.754593
-0.623933 -12.032195 85.490189
-0.659178 12.456070 104.039093
14.773456 -12.999047 89.365936
22.369183 -5.491078 89.073616
-0.572513 10.001159 90.963333
-12.340881 12.604506 86.835304
1.983976 18.490494 41.516598
24.584913 0.774066 73.373901
8.306308 -18.057499 50.159985
-3.674520 13.531882 93.894882
-19.710041 -5.627539 65.612160
5.093028 -13.031864 105.947617
17.066288 -4.178699 37.390713
-2.498718 18.170498 57.092926
24.586929 0.041291 80.570976
-6.056247 -10.616372 62.241608
-7.334571 -9.077837 83.157997
1.047062 17.537251 39.636078
-13.279881 13.425065 70.350311
-3.503446 18.831169 58.890167
0.661160 -13.412559 30.211391
-24.336464 -0.258741 56.307533
7.413613 7.735044 104.009026
11.567074 14.305651 50.717335
-12.744941 -13.096294 37.076729
5.597913 -10.094597 59.175957
15.635026 -14.380077 72.332237
13.406279 -19.896555 45.713379
-0.065166 -10.116183 78.305656
-25.724874 1.942482 62.853996
10.341821 -15.866955 89.219604
23.319653 5.204965 47.481773
-17.584259 17.436182 33.066963
-11.223838 -17.471397 62.938011
4.301174 8.541306 63.544556
18.732681 10.947561 70.060966
-13.256498 -13.658524 94.381577
12.752916 -10.921679 96.247688
25.115950 1.860040 64.218437
4.963795 13.529620 95.437004
10.460799 -15.638314 82.604279
18.181015 9.885285 83.932358
23.375322 -3.930049 55.015568
-13.088527 11.327209 73.665031
22.927702 -6.506217 100.210304
5.590975 -9.866589 35.223690
16.700029 -8.880352 88.028854
8.993007 8.409128 39.404179
0.963276 -11.509955 31.782988
5.324255 13.470095 96.366226
21.438967 9.121557 72.998268
-3.739606 20.370340 33.166130
9.126298 -13.197415 33.797646
21.028204 -7.787452 47.723366
-1.680214 4.123727 115.515915
19.893902 8.491868 47.902920
-5.933894 -14.445620 64.701057
-12.290455 -4.786572 112.256340
6.234779 13.796597 82.711235
16.758720 12.574241 90.993576
-10.671499 -8.600287 86.791389
-11.592505 8.872846 57.472626
4.861041 -9.397859 50.945320
-8.738590 -9.525506 108.807564
-12.430420 -11.998124 70.772667
-25.571886 2.491595 38.171619
2.606282 13.443463 36.885643
18.980282 -3.605437 41.016319
-22.879295 9.637478 43.962097
4.924510 -11.841228 68.729164
23.114525 22.965467 35.135056
2.025795 9.290473 42.836281
-10.747444 8.642871 107.054794
24.069801 2.207777 36.573761
8.729001 -6.336483 43.352085
-9.612627 -9.738503 79.154526
12.040174 9.903584 54.456608
22.580196 -8.882862 57.892311
-18.355213 1.934700 92.148331
-7.109746 13.992027 89.448647
-11.534760 15.179028 36.560524
8.852345 -20.990067 30.943138
-0.347763 10.833221 68.431068
19.022572 3.609450 101.841232
-6.740028 -15.141644 88.205070
-15.113274 -8.604583 56.328621
-9.366351 -12.701854 49.438103
2.919107 17.293480 34.598019
13.137812 -16.949345 50.658772
-11.577585 -10.350776 38.088039
14.899928 7.918313 94.964714
9.545283 -9.717500 79.852928
-22.485512 13.838261 33.398304
-10.102342 -12.766786 84.481216
10.809392 14.924452 48.750332
20.742678 -2.874630 59.610947
16.944851 -8.984806 48.662701
-2.583306 -11.767206 108.617592
12.015336 -21.092733 34.281792
10.168367 -17.002262 63.420715
8.661132 -10.764732 49.057228
-17.749302 -4.006301 36.466595
23.592218 -0.420520 56.892326
3.272228 17.156237 60.215443
-19.536823 12.505465 44.330906
14.999784 -16.407293 61.216621
19.728743 16.515469 35.589329
7.051194 8.326397 32.222679
-14.606386 -8.720759 86.968765
-29.285633 0.686863 32.457062
-13.638327 16.615454 50.605122
-4.451384 -18.165236 49.063873
23.243578 -4.777094 49.206554
-0.027434 -11.724776 90.779411
11.004187 10.666398 67.576431
15.173610 6.271626 90.035461
24.265184 -10.649802 32.372768
18.105595 -3.606925 44.746685
-15.037816 -16.763865 44.269939
0.209983 -16.718311 58.483891
-2.879601 -11.264067 105.981842
-29.721256 0.048556 50.074692
10.859780 20.538084 32.748280
10.317692 -15.043035 61.989304
-7.497661 -19.060993 45.573677
10.113880 -9.793806 113.751793
20.322153 4.099890 74.857262
24.151655 -1.217344 80.349899
3.429813 16.844017 40.616104
-5.328063 -14.560001 72.137962
-20.804573 0.653942 94.493263
1.901792 10.643125 91.727554
-21.202866 10.461082 67.346619
1.841413 8.633794 51.915977
-20.717617 11.638647 62.646965
-7.731395 -11.196419 43.230549
2.518951 12.377560 68.330765
24.052275 0.144577 58.724503
-23.045109 -7.353205 60.165607
-19.331633 4.612014 69.956322
4.186569 13.146427 50.950027
9.823557 -15.842025 55.631737
-8.308384 -16.558693 44.276646
-19.265684 10.443267 45.135014
-16.552879 15.634640 35.423855
-14.623899 -10.073494 59.180397
-4.610869 20.396915 30.129599
-14.773779 -14.977512 92.650581
8.152025 12.227378 43.123135
5.435095 21.004251 37.899200
-11.714570 -9.032727 86.472313
12.435330 9.894938 35.024239
2.096102 16.014072 66.699905
1.692083 14.213106 54.640049
-1.311883 -12.539553 85.701332
15.648221 10.653422 98.466438
14.146191 7.770365 95.674103
-21.845575 11.410139 37.040916
4.748674 7.407684 32.061893
7.704000 -13.050964 77.329742
-14.135216 -9.725627 83.618851
9.248322 16.321917 79.689445
-15.560290 14.815390 45.064396
17.565159 -6.888854 67.173920
7.414092 -14.027797 36.046234
19.927776 10.235684 64.536446
24.241743 -2.486184 66.399025
11.052232 -0.173169 114.991508
21.145990 1.550159 70.760155
4.063444 -18.011896 52.400272
-14.222040 -7.201055 66.624962
22.211971 8.949452 40.757427
21.430071 -4.574988 71.275650
-19.122501 9.165447 59.055706
22.651234 0.690689 88.142555
-8.684705 8.270610 106.717613
-8.863974 -11.184092 38.166550
25.301107 -9.336205 39.846027
-4.729114 -16.404472 41.332310
-9.819486 -8.197691 80.993980
-1.890218 -8.699682 70.752998
-19.709810 9.072866 76.052650
-12.311912 -4.558151 115.504112
-20.245657 -4.897012 65.973907
19.933445 -2.560465 41.211563
-10.642346 -16.978165 59.223255
-6.412895 -8.332956 51.360580
18.864134 12.580810 71.377365
12.080374 -12.233586 77.613495
5.167206 17.648239 33.616158
-6.397681 -9.633969 56.129936
8.120795 -4.261386 38.927567
-11.269211 -15.645659 77.121834
20.698669 12.718393 56.294037
-0.932908 -11.895021 87.270515
-6.300445 -18.054564 37.206547
2.027670 18.774033 40.856991
-15.248337 -11.332971 61.906013
6.958568 -15.273354 30.516565
20.575655 13.279786 72.973236
20.018469 -4.359907 72.902283
20.534201 4.392374 91.867111
4.215555 12.521819 47.046822
-20.283312 15.635017 44.061401
10.276763 -18.210817 59.767338
10.084258 -6.060837 33.756691
0.443048 10.271811 110.334023
-8.998479 -10.984076 64.268158
20.085732 -3.550298 76.339821
-12.599954 14.437854 59.345829
-12.802579 16.034117 54.394962
6.966922 -14.224916 87.426964
17.259382 11.280252 41.685356
4.226970 -14.597839 63.007587
-4.989923 -14.949223 87.305138
20.469006 -4.511042 66.647346
2.429488 13.627591 76.336723
-10.563475 18.170040 76.894958
18.377335 19.415752 54.676983
11.602566 15.614442 90.302086
27.743940 -2.984333 35.938416
-11.713092 14.868748 47.255806
2.210782 -16.977135 53.581821
11.750265 8.927673 61.520317
5.504048 -15.144881 76.260704
-0.614566 16.599747 71.719810
-10.923761 -5.395518 109.585556
-19.135920 8.714458 71.798248
-6.505965 -18.165878 58.057533
12.713192 -18.352894 54.336361
6.853755 -9.916774 115.600632
-15.564833 13.103594 65.295815
7.210650 -11.720001 56.145561
-7.890447 7.359921 53.354130
17.378120 8.692873 98.076118
18.935734 15.403358 51.751492
-3.803805 -15.599800 66.318130
23.382732 -2.818820 33.267776
-8.453115 -10.246942 110.186867
21.695759 11.154148 39.213024
1.738665 11.683529 40.860390
-11.451340 14.260188 43.792313
1.051209 9.900580 30.319775
-19.161726 7.288034 56.888943
-19.621140 -9.466213 79.932121
8.628790 -13.047731 45.473312
16.904821 13.058954 80.346672
-11.082754 -15.136580 31.501926
-7.216633 -12.711444 91.902725
19.237513 7.456917 66.375671
8.912621 -9.997052 65.037170
11.077990 -9.386139 66.660667
-11.612808 16.434891 67.238655
-20.741322 1.523392 98.300797
14.980432 0.415880 101.790154
-4.902846 -11.806016 54.278095
25.944904 -2.913849 63.493702
17.442080 8.512836 86.804688
-27.392580 0.983278 45.083057
8.850662 -12.672379 64.356972
-17.989542 16.203751 51.362000
13.864429 -14.570662 75.365204
20.410793 -7.443912 55.882721
15.328695 10.708490 90.240578
-13.817198 -17.394854 34.952003
-6.234897 -15.005301 84.031250
21.400539 16.602993 48.585735
-13.532091 -15.220027 63.579391
-11.194096 -13.984832 38.458538
23.161098 -11.608942 34.914989
0.940567 14.518081 75.570221
8.183242 -11.028958 65.050682
-17.075811 -9.112808 89.842796
-8.523312 -13.599928 43.909794
-2.451509 -15.134104 40.100250
8.796232 -11.953007 55.507977
3.492203 12.952266 42.129555
-18.304605 7.083842 74.660400
3.053920 13.686825 77.215309
-11.618762 15.485459 40.319241
-3.451201 -18.161137 25.221672
5.917759 -12.461321 81.691071
20.422010 -8.120964 70.580719
6.574968 -16.343363 33.201469
10.809666 8.124187 108.535355
0.025957 20.322283 37.797756
-12.777486 -11.432357 90.090355
22.528708 12.088419 39.658615
-4.914654 18.695217 42.391361
-18.019968 14.859045 53.089333
9.247405 20.141163 40.709652
8.046736 15.660153 63.482849
0.087613 12.730763 74.608444
10.294032 11.807294 83.259521
21.498934 -0.909221 65.510788
-21.211842 -11.482816 38.201771
2.139655 12.188848 53.241726
-17.997059 -5.115713 88.533981
-3.691475 21.197807 55.907215
10.491102 -15.388583 64.965256
-19.268745 14.474417 67.543701
-9.878963 -13.991635 41.090733
0.830491 14.448675 99.891190
-6.264717 -16.235743 43.002937
-18.162735 7.313088 92.241745
26.336746 3.569746 35.269054
21.119867 17.828007 37.712803
4.076110 8.156334 51.025871
-9.373885 9.270569 106.434196
16.956539 -6.096412 102.173370
-12.094752 19.898825 38.334797
-10.650913 -9.345108 61.355228
-7.482105 -14.813748 104.725952
17.318064 1.845644 102.446365
-11.525784 -9.545178 102.728218
22.334339 2.854564 72.551430
-5.484849 -14.285555 98.890984
19.522554 -4.601985 57.976200
1.157248 13.413452 66.909630
29.222252 -7.227297 34.702076
4.931895 12.010649 33.221718
21.126865 -9.603602 52.807789
25.921728 -0.975210 52.064617
9.888859 -17.719351 37.169155
16.160913 12.802937 70.238914
8.549593 -6.421770 29.588486
1.762609 8.897414 61.882633
17.212444 9.949603 58.444725
2.724306 11.943320 49.019760
-4.645805 -11.594136 88.278198
-7.744401 -7.409765 77.813934
-18.178898 -5.357166 42.751835
0.961874 -13.361454 104.233429
9.294380 14.621582 43.641846
-6.405831 -13.251281 94.360558
-23.463963 -0.312494 65.046410
0.179814 12.782436 100.060928
-13.393637 15.246250 71.152382
-19.981863 5.854861 58.203285
-3.409523 -10.930505 107.044136
-6.247708 -6.023194 36.366535
24.771105 -3.199945 57.764160
-15.247313 9.556301 58.144257
-3.163674 -15.484756 46.383675
-23.821236 -9.041486 46.423569
10.780955 -15.069525 57.705318
13.363796 17.854246 30.656384
9.448683 -20.491886 54.500389
-1.836635 -15.076246 47.750660
21.266378 14.511250 60.065281
9.836245 -15.796475 68.618767
13.880852 -15.163523 63.299988
6.608121 11.644523 42.740692
-12.070991 -11.575098 46.279808
2.457723 10.594803 42.308498
4.405692 20.759726 40.457832
-18.268057 11.868087 75.322395
18.920135 8.011536 79.176559
-11.912892 10.374395 85.498085
7.319377 -15.155718 39.811001
0.864120 12.210442 63.078659
-8.859983 9.209801 107.817207
-20.932358 4.257856 74.883316
-9.237383 -9.771426 34.035934
9.394616 -16.076258 45.320602
24.046719 -4.646329 57.366032
17.587255 5.985889 92.756119
-9.986578 -6.859364 111.468384
-7.619204 12.540619 36.543308
10.121981 9.289824 51.651455
22.502043 3.487798 62.449558
-13.378094 -9.813410 64.995415
-12.557520 16.942301 63.696377
3.571810 -13.580195 37.215488
24.203995 -3.748044 58.569092
13.622334 -19.979338 42.278889
-15.441239 3.569709 109.412605
7.929006 -8.849483 69.033081
-22.457115 -12.288587 30.000607
16.404566 -4.156263 103.087433
6.026947 -12.147855 103.843597
-27.496216 -0.011078 49.121094
-15.850112 14.890326 44.814590
-16.150089 7.720191 102.428543
-19.344828 -6.739452 94.693680
10.274304 -7.903493 56.509239
-20.173674 -2.393312 67.473640
-21.774921 7.019335 39.811810
21.710369 -2.211470 74.376114
5.612144 -7.723900 60.101566
21.054440 -4.630554 72.058807
11.178865 18.531326 42.592831
21.705364 -6.342906 55.656330
2.237005 14.736444 34.425228
6.501292 -10.629454 31.344103
7.474867 -11.518983 37.421070
-6.660992 -14.178468 101.853226
-27.478323 -3.572220 49.448994
7.322645 10.326749 36.094185
12.862779 17.289955 70.071266
6.334966 -10.850386 89.634605
-9.325776 -11.094557 38.229034
-7.548402 -10.317897 64.830383
14.353253 7.021037 104.215126
4.563524 -10.566988 49.593163
-17.360226 2.806309 91.560730
19.439026 14.198597 39.474045
6.566183 17.829496 60.886894
19.993561 23.362249 38.632797
9.476340 -10.189976 75.676140
-5.769389 -11.596478 100.162224
19.649784 10.679377 83.843063
24.013575 -4.398637 61.635761
19.957870 8.620870 79.184433
19.722191 -8.779542 52.010166
-0.506979 19.089743 33.039196
-6.240794 18.362993 57.323235
-5.998293 16.175949 62.822689
14.091501 -10.054357 57.508900
17.599453 -9.619794 38.968613
-14.255761 -8.771775 99.147400
17.699080 -4.313221 97.010063
-24.530870 4.490728 39.664547
-19.115042 3.575550 89.951073
-6.980156 21.022402 56.318577
20.839895 3.836725 57.149799
1.169346 8.975418 37.470188
10.733468 -10.447778 31.715864
19.349131 17.731617 56.088768
5.350955 -9.675719 59.552753
1.733544 -16.666672 80.525589
13.803058 -11.103851 87.789619
-20.010220 -11.265244 30.661413
-20.202177 -7.398597 50.629818
-23.558655 0.474415 64.391922
9.156618 9.397931 73.799583
15.994745 8.665226 59.922649
-13.068092 15.759199 46.112804
9.973678 -20.083992 33.789494
-20.779385 11.782510 47.333389
2.285313 17.340813 41.938522
-20.627775 11.306787 51.235661
23.417295 8.127690 35.215687
20.493132 15.670471 39.826847
0.725249 13.074155 92.279564
-4.788413 19.991772 33.272549
-11.465299 10.455301 83.027100
24.563723 -4.320505 56.443611
-10.825363 -7.441187 115.821114
-17.024607 18.421432 39.809284
-12.432353 9.907743 36.118370
14.921912 -10.791348 42.583664
-9.330015 18.294168 60.240891
-8.600914 -9.182928 79.622047
21.265938 -4.255554 87.156166
-8.428485 11.087934 41.713913
-10.241367 -8.269361 62.806774
9.910133 -10.729012 62.242905
11.870369 -12.652856 29.507053
7.582534 -8.255539 72.287537
-13.324345 -16.754345 42.252106
14.722574 -12.070043 73.683022
12.643968 -21.014578 35.822102
-18.360008 -2.368160 88.763702
3.031593 13.480662 41.069199
-12.165298 -13.316214 53.853722
-9.972398 15.544646 82.623383
-1.954364 -10.496821 113.532341
9.072774 20.183516 46.185707
-15.076373 -9.412323 91.312943
21.824352 14.232683 67.209053
-8.701111 -0.609416 119.827980
-16.044531 -14.776859 63.437828
0.999311 -12.970009 88.553047
-6.507943 -16.017107 66.202736
17.617737 12.792600 35.238777
2.726590 14.933745 38.449757
-17.137814 2.522678 99.078598
10.154468 -16.387625 34.267700
12.892494 -10.548423 99.172882
10.922886 10.664351 97.479645
-18.678432 2.370247 60.703938
3.302109 -13.650158 99.492226
-4.184144 -14.840351 102.840576
-12.708302 1.085999 112.109894
-2.765206 16.489826 62.574745
14.931348 -13.440205 98.250999
23.086397 17.317293 48.486736
8.632652 16.397835 70.807281
-21.224869 -2.990172 82.169533
20.659348 14.737239 58.174263
-3.275266 -14.992161 41.502808
-1.616047 19.143076 32.018635
2.768764 13.915591 77.229584
16.868469 -8.152350 64.645485
-11.571909 -18.585293 32.582954
-15.119784 -10.196839 80.493080
-18.159317 8.853835 70.683754
-10.257726 -11.214778 42.570213
-12.524267 -8.667158 42.734982
-19.718082 15.550640 40.308140
-15.614174 3.917043 102.203659
-13.665891 11.494807 95.378387
-14.274786 -4.936949 115.084099
-8.927690 -10.853268 47.636955
13.050869 8.620983 41.159725
14.784238 -10.684092 53.077511
-15.135643 -5.719457 105.821922
-6.639081 17.818552 53.160873
26.029697 -1.489199 72.166061
-21.266796 -1.015640 60.504391
4.423930 18.775501 34.880341
4.941200 17.100140 74.036980
12.063859 9.041216 55.982372
-10.543613 9.839963 36.975803
18.594351 -4.979265 45.043957
-15.056513 9.490141 47.231598
-13.201161 -13.733140 96.376137
-11.397285 -11.168973 60.288437
11.956486 -19.382669 37.176094
-3.709697 -17.850876 42.528751
-17.846918 15.899416 38.380508
-1.891422 13.913371 86.962784
8.134745 21.917114 49.954868
-24.002752 5.907295 30.815187
8.899183 -15.922503 74.530266
11.534081 7.741941 104.026237
-21.447433 -1.789642 50.565334
4.145073 5.786842 108.774590
1.690119 13.724889 68.247841
8.185242 -11.716404 59.592915
9.875982 -10.791846 33.638721
17.132006 -8.908962 104.312988
1.653814 10.834086 93.884689
12.518280 6.128201 106.510689
-10.430804 -11.874743 65.988197
16.682732 9.865112 75.513016
-4.338555 5.598632 114.839005
13.058063 -11.277264 100.817841
10.848244 -14.875758 77.435814
-0.915611 -10.386605 100.055824
-25.257536 2.714523 56.673626
17.354851 -11.000455 66.883080
-6.701621 -15.347833 79.809128
-21.363930 13.799836 32.529465
19.309723 -9.857533 50.759476
17.952404 -4.769284 101.938759
-16.234344 11.893754 66.985023
-2.403550 -16.934195 36.980087
-25.127123 -2.580902 51.715530
23.650610 -7.420297 51.673054
-3.787949 -18.707104 33.863152
-0.171074 7.179195 113.874802
-13.558710 -14.278250 45.981972
19.669447 9.986452 84.327484
0.429387 10.414598 103.977608
23.779030 17.959864 58.486572
15.208666 -13.562908 46.438400
4.970717 13.694619 83.573120
19.070175 -10.408029 39.759644
-1.590294 -13.341763 33.492271
-2.969532 -13.297185 107.730988
-17.926609 -11.897554 39.942974
2.211256 -11.432447 38.607483
-21.012568 10.683351 62.991955
-5.657556 15.309837 79.194717
-20.916660 7.919876 63.787289
20.584610 13.520942 36.955914
-6.009047 -13.278566 64.745743
4.100425 -12.658127 37.131432
8.053118 -9.471242 42.976940
2.112240 11.772240 55.342674
-19.253958 7.134320 66.271454
0.404339 -15.275142 94.725922
6.603755 -13.036672 60.604477
3.223226 -12.605420 32.550720
11.636621 -12.456869 99.491638
-1.945762 -15.209115 30.841766
-0.292243 12.954705 89.426628
15.357284 9.692494 86.367035
-20.626976 -5.944639 86.137077
-3.690844 -9.254340 106.806618
-21.034393 2.456739 70.219902
19.267834 12.314348 54.025402
-10.923028 22.393492 42.633942
-18.461725 -1.905025 38.974728
0.713501 -12.506231 44.448418
-9.193589 -16.870237 38.477917
2.974267 11.139362 41.449131
-6.901960 -13.255167 30.556067
2.364022 9.936791 58.671555
16.631958 -9.996585 57.153774
2.875021 16.617552 32.361595
-8.403576 -15.048482 81.310425
2.817231 10.823526 52.918034
-5.092314 18.553755 46.129711
21.317400 15.584644 61.303551
-11.336288 -20.750174 32.656219
-15.234066 12.057892 33.089817
12.001114 -15.162632 92.318245
-15.946710 -9.680573 61.228085
19.413523 -4.860991 40.669205
-14.997902 11.994788 34.709103
-13.781323 -17.915606 54.050045
-15.597178 11.336909 91.376686
17.379824 6.296196 98.249306
-17.843616 10.072640 48.383553
-19.926910 -8.073732 74.060249
-8.076205 -14.016584 48.824593
9.414785 -10.653092 96.463638
-5.849572 18.973160 51.729786
-7.928285 7.859304 33.500305
-18.594723 15.625958 36.633976
-9.725153 13.517438 38.545841
-5.727476 16.841089 57.989914
3.477103 13.885933 40.887863
18.683407 -2.257572 37.480885
-8.793781 15.687636 79.543488
10.018812 16.499180 56.185654
23.110197 4.683718 44.149361
-5.636557 -8.834211 39.251087
1.971239 -12.751389 52.416584
-16.184082 -9.933738 42.453835
-17.671591 6.831441 74.829620
25.077868 -7.002836 65.696281
18.058735 14.280559 74.682663
19.086063 -4.617613 38.949341
-18.671789 11.552315 33.752121
16.468348 -5.969342 36.446682
9.248606 15.441977 52.865040
-11.812181 16.980408 37.765392
7.909198 -15.961609 66.283661
7.770343 -7.326336 50.919304
-21.881159 -6.341024 71.439789
-14.717692 -12.071370 81.330040
-18.756859 15.403946 49.338409
-17.338696 0.080917 106.239334
21.650284 18.665308 38.775490
14.703182 -16.971107 31.191208
16.249716 7.070143 87.756508
5.780154 -8.286215 50.977314
17.024405 -1.825388 106.409821
19.937057 19.418501 40.995415
-8.509700 20.488255 52.672535
10.633039 -9.356757 36.813839
24.127621 2.790217 49.421299
19.839317 -1.654475 70.941864
12.563757 -9.234007 106.425102
-19.386471 -4.627853 44.655174
10.618506 11.255207 102.200577
-7.678061 -14.849987 39.528370
-2.137273 -16.473577 31.979454
-9.281769 -8.551686 34.500553
2.068398 -15.437715 71.719124
-22.591158 15.540221 29.423590
-5.368915 -12.721877 66.629822
20.932312 4.060251 73.236694
-12.701299 8.797105 58.287624
4.363379 19.408682 48.646580
6.377453 -13.956715 70.880981
17.179327 7.561214 92.825638
-23.506649 9.293847 45.330456
7.669380 10.473922 40.836460
21.187489 -4.798538 86.452660
21.988892 3.531501 59.784065
14.184799 -13.605494 43.033813
-0.325198 9.239885 38.810070
-13.244692 -10.937356 108.144554
-7.385120 -20.018183 31.461535
2.496034 11.870644 51.615017
18.120302 -9.520363 36.340271
-1.389089 15.516941 85.336281
-18.824427 10.277323 64.495171
-23.703888 -1.145076 56.825081
-8.251551 -11.524074 106.807983
-8.862587 -8.625799 75.272797
21.921539 8.317295 55.532337
-11.679861 15.793507 69.174789
8.279462 -11.973200 66.011497
-2.829312 12.984248 94.543793
-10.788539 13.647338 67.565842
13.793086 -11.237202 34.101341
-14.959215 17.517952 38.997623
4.660984 20.238667 41.019394
-25.744822 -0.752397 42.482124
12.862715 7.761787 79.774635
5.722326 3.964042 117.036377
18.465530 -4.465402 51.512177
-3.260201 13.438995 95.788002
19.832983 5.966159 89.727806
-19.203636 -7.756460 92.538635
