ply
format ascii 1.0
element vertex 2048
property float x
property float y
property float z
end_header
-2.699498 -11.896094 121.933823
23.513325 12.546608 28.898418
-37.864578 -1.930631 116.864319
-28.744820 4.911252 4.116311
-18.916552 7.673657 51.559017
-3.991073 -9.161140 137.374100
-11.768883 6.741205 40.761909
-11.589010 12.520268 143.156326
11.018973 8.639566 77.069214
-16.622496 -2.773928 19.802677
14.789824 -4.024317 146.140045
-31.978725 1.246691 132.933670
11.656449 4.297699 130.054077
26.351173 5.796858 5.303751
30.373968 9.478933 132.130585
-14.617227 -7.594056 100.174171
14.862082 -4.791862 136.982468
-7.435508 -12.366071 90.425888
-23.436504 -11.430606 80.928406
17.250456 0.779584 87.342255
-32.835918 3.669133 135.125900
28.095148 1.175448 135.235397
-17.715429 -5.064495 19.395447
-20.944958 9.591960 34.578957
-10.189306 1.736654 111.000679
-3.247648 8.775735 96.554871
-8.594580 -9.529260 97.843735
7.302950 6.611866 123.214905
-22.893250 -3.998229 18.259754
22.254129 4.657796 126.278358
2.361384 2.652667 148.797470
-31.922119 -1.273125 127.245598
-15.350833 -7.310511 95.987137
-3.521682 1.789727 77.889427
11.120365 -6.788613 123.772865
0.764561 -13.950840 108.779732
-15.026839 -3.163370 111.946243
-0.874641 10.168242 130.083038
20.729910 -0.216617 75.273621
-14.124277 -4.538000 34.615330
-12.901997 -6.102013 46.799309
3.338278 -12.039001 113.978378
12.208851 -0.053923 110.951347
-10.469076 5.443073 45.077206
-21.291824 -3.408239 71.608673
20.685944 -0.406198 52.955864
-12.578916 -6.809856 73.344368
-23.119543 -2.222959 29.728455
18.022470 3.170476 71.015038
-12.945690 -4.085017 59.418102
-12.052773 5.119574 152.446777
15.261748 -7.069175 36.053558
-19.466702 -3.383418 71.672646
15.874946 11.535021 13.819172
11.701365 -2.905875 29.463989
-17.951889 -5.437052 64.550331
15.830135 -2.617755 41.002090
-17.521086 7.056030 137.003891
-16.841568 -6.233662 4.427670
19.366158 5.645284 69.346825
-18.251368 0.045004 103.362183
-18.336071 -8.089316 64.661026
-3.560355 10.562263 97.361603
-9.678267 10.956781 30.832190
8.083385 7.943282 112.673309
-19.256027 2.752072 95.862106
-3.472567 -12.737020 112.904709
-21.165352 -2.075034 78.420837
16.145805 10.975496 45.721195
34.807140 4.591146 116.560516
5.234875 9.706393 113.862587
-30.815065 10.859721 124.764694
-11.290952 4.414516 64.411888
23.813925 -2.417857 8.607306
25.759836 7.428432 10.443920
-6.302636 1.382790 47.282413
-9.401597 -9.203176 115.971748
-7.477511 -14.341637 134.752533
19.590845 -8.095579 73.662254
3.850883 8.781618 105.408020
17.087376 3.944201 66.726776
17.318527 -4.890176 99.182083
20.158894 -5.056686 62.743267
-23.469091 10.139016 18.864304
16.999336 8.349572 28.931644
-10.991467 9.029139 78.852692
-45.363010 2.610477 107.795357
-5.012757 11.752715 139.878815
-17.540060 1.369674 133.450012
-6.178923 -6.193169 74.474335
12.462374 -6.307833 56.500664
-12.822439 2.487942 107.996918
11.781147 -9.498489 48.032112
-40.828423 4.487566 113.028366
-21.638252 10.701633 36.833736
12.084892 8.019248 59.538631
6.178076 -6.007932 71.190796
-18.581533 -0.661776 85.505943
-10.298557 5.464219 131.961670
40.164951 -0.387822 113.169739
-14.264747 9.307485 132.384354
-19.918198 -2.521599 93.861404
21.647217 5.601476 46.688644
18.133429 -1.687632 27.995581
24.326187 2.606140 8.059519
17.551081 -5.874205 26.635298
-7.924494 8.052308 108.473534
18.154316 5.654160 62.910656
6.146549 5.895039 80.207748
-6.395757 -1.398886 58.976639
16.752842 -7.305837 34.254505
11.345700 -4.686863 33.152157
23.822142 -0.163655 26.091160
19.447573 -8.755349 59.382504
6.202214 10.429407 118.594658
-12.534157 -2.882642 26.400328
23.117939 9.784677 34.092480
9.501566 10.181444 96.556267
6.034579 -1.321552 56.602531
-20.606697 -2.548905 10.091569
6.713531 -15.472557 120.595459
-13.420842 7.782355 64.268440
7.516420 5.081246 61.714664
16.763561 -3.896677 42.479534
26.186174 4.089934 2.306044
21.499790 1.078194 84.322639
11.671304 2.896103 154.126648
39.779953 2.805775 127.433922
3.196196 -15.607255 134.604324
51.077309 5.960091 105.689178
-5.524695 -10.152860 95.006775
15.318588 9.514350 145.837753
-8.889775 -8.052112 87.858398
14.345268 7.645067 16.011553
13.345386 -8.579830 129.256348
23.360901 -6.184791 81.646126
-40.921482 5.888956 119.570282
-20.281109 -0.889142 64.524506
-5.551381 -2.675640 76.518318
26.249222 -0.169169 15.005730
11.794618 10.245214 139.327271
47.969727 -6.814257 115.307503
12.255843 -6.354741 143.467926
19.364817 5.200813 0.688147
-40.686848 2.191917 113.488380
13.387375 -0.211674 22.990862
-13.315166 -2.972140 126.555634
13.602485 9.315504 51.635361
7.448639 5.002773 70.553772
41.547009 0.813163 113.687309
17.562748 12.979487 19.048512
32.751694 8.115518 125.586472
18.822048 5.592383 52.395321
-29.316977 2.248201 119.811111
-9.683923 14.455437 96.008293
50.827049 2.433731 112.228325
-17.904081 9.504773 138.532120
-33.967449 6.600410 126.776749
-1.029795 9.172567 108.158676
-23.535545 5.832860 37.826359
-10.384714 -2.421912 50.170547
13.592377 14.187819 22.278316
-13.517269 -3.768651 126.719513
-15.172053 -3.167092 135.874878
-43.090935 1.243787 120.931793
1.922950 -0.541719 89.012665
-8.864056 0.827977 57.306896
-7.698214 -0.365437 65.177002
-18.135731 -6.503076 66.444778
0.923627 4.412638 86.644135
25.984896 3.518252 23.455429
12.664893 5.674269 41.011024
24.303591 -2.677278 21.806654
-43.678509 -4.887889 118.623116
-38.502308 -3.709845 119.166061
13.678837 -7.948511 119.047943
16.602203 -4.433198 30.564821
-21.682121 6.307662 70.005226
7.464242 11.588810 72.356461
15.549593 -4.833955 50.476654
28.690630 4.376788 122.625717
-12.520170 -5.177473 31.110369
-6.239151 2.246604 72.086388
-12.168292 -1.742174 41.366959
24.013702 -0.920247 54.449165
-13.537103 10.832078 86.109894
36.670837 -0.773931 123.236656
19.779671 -5.665365 16.965796
-11.257925 8.937363 137.929321
-12.913074 3.407542 104.868523
-13.573895 -3.539549 49.692165
3.542294 9.550027 102.669266
-25.875643 6.125557 7.554955
8.129440 14.388638 137.059052
-19.649261 0.244760 16.491243
6.627216 7.075709 125.749550
14.029963 10.552900 86.653503
-14.392108 2.819152 104.172676
17.522303 -5.873193 37.272095
-8.294010 -0.768795 153.175888
-28.755983 -0.477576 134.811432
-21.592855 3.964098 18.610165
-9.875666 13.273642 142.485703
13.425152 -7.138697 141.961075
1.524204 8.742012 95.186569
11.467927 6.058611 126.244133
27.282444 7.887756 11.448495
-36.968369 -3.827421 119.247528
15.502065 -0.952614 103.032684
20.539892 3.217906 32.669521
5.008595 -11.961903 122.135559
-23.911942 9.771063 22.615177
30.812370 6.656321 128.822113
4.289748 -10.012362 159.513428
-0.060221 -1.373843 148.354782
10.361702 -10.437115 122.857880
8.719553 10.846524 87.025520
-8.554742 -13.267622 132.927704
-18.140911 3.488424 67.463303
10.065061 7.607866 59.465595
23.728352 4.768605 25.388062
-12.287314 -6.778676 80.861778
8.007638 13.617167 102.732224
-11.006168 -7.855320 120.328705
14.047280 2.971916 146.999100
29.844481 4.072544 139.316025
-8.236400 6.603980 38.299122
-16.179808 5.822031 12.305174
19.441242 3.739839 69.389694
0.535321 4.508368 76.392288
4.937203 2.562127 73.429779
8.902109 6.653558 125.106071
-24.554571 11.042768 128.681152
-21.558542 -5.690046 77.177498
16.467854 3.787067 58.590343
11.381414 -3.908894 111.785751
8.487529 9.107336 95.473999
-18.886337 -2.292457 37.140579
-35.818897 6.655897 126.532455
24.196560 6.401864 13.211261
-18.010023 -7.034353 89.937927
14.074940 9.210409 78.857498
-26.961597 -0.824127 26.159803
-10.669788 4.312438 108.588631
-12.273983 9.545507 90.658012
-16.289833 7.596996 77.758415
5.997878 -11.377913 133.131699
16.085258 -6.882422 18.170090
17.236214 -14.846917 84.578644
-0.633464 8.474545 89.038040
-41.262691 1.239735 122.536179
-34.163582 -0.694106 125.328148
-15.585186 9.974039 152.594040
-16.119091 14.851425 34.875061
-0.838393 -12.385099 106.417938
-31.105705 6.213666 135.286697
45.023819 3.345710 108.851608
-6.358716 -7.878605 148.679489
21.722246 12.995631 22.304419
-4.176094 7.505274 71.529556
18.722677 4.920176 4.858397
-18.008095 3.164688 135.132812
-21.227406 -1.686334 10.686046
25.093323 -2.759755 63.985035
-14.634721 -8.844609 29.103020
24.018042 -1.092810 13.663309
19.199257 -0.470609 65.184349
-10.244545 -11.771489 116.031799
-17.244822 -4.832759 67.302246
-21.330725 -0.183332 87.296776
-17.456770 -4.898012 68.579384
9.062945 7.987099 53.794304
13.231789 -7.763823 108.382957
23.436087 8.238939 8.116932
-2.836676 11.429467 114.874222
-14.909502 -5.790300 138.287918
-19.428949 0.402179 87.127861
-14.177814 10.651098 68.025284
9.777329 4.375552 110.165207
-8.593638 2.764914 66.617798
8.237600 -6.675657 109.149849
-47.713547 -4.629901 116.757790
24.819269 7.704305 141.005310
23.410480 0.268181 43.352200
10.756447 2.983577 26.299194
-3.540363 11.538854 124.707970
15.255339 1.203882 138.266174
-6.591567 -4.109832 79.995346
5.723181 -8.698420 85.913361
4.948365 -10.658731 100.487823
14.323581 -11.493028 82.086021
-9.363908 -5.496771 66.909607
-8.867529 -5.508326 75.993233
10.461979 -1.220026 143.968750
-0.505933 -12.629436 136.078568
-9.627857 -10.053237 109.720184
-3.619655 -8.972178 112.284203
17.875187 10.515434 49.833874
-17.804962 -4.240555 16.724857
45.668331 7.369617 113.577194
33.872284 10.109329 125.719345
-18.717133 -2.309293 87.881439
21.182119 -0.131071 142.409348
13.089779 10.312582 27.326365
-16.841217 2.957000 138.131165
1.747930 -1.540635 74.448967
0.996684 -9.395456 127.411179
1.822228 10.576565 107.974274
-6.681664 -7.416409 74.935326
-10.744002 11.684096 137.442200
7.372080 7.247408 103.044739
-1.902806 8.169329 149.797760
-9.351953 8.772498 55.892952
-16.391392 7.555630 14.722178
-22.274427 7.304293 31.430920
16.104897 4.778394 94.022987
-16.906342 5.651885 3.588025
11.764370 8.654165 49.524677
-21.282219 -7.583162 23.291298
8.601947 -9.642835 110.481834
-4.360957 -12.617504 129.138275
32.316666 0.492817 112.688454
21.020702 2.347576 21.362576
3.375587 8.536994 149.753189
16.828341 13.106247 7.582963
-23.688858 10.441686 13.998723
-13.043240 0.468103 133.578552
3.261272 6.121854 90.146675
-1.690319 10.573767 132.746323
11.567864 8.295705 59.316792
2.702118 -10.471651 134.378815
22.139219 -5.129948 72.635010
1.576733 -11.328393 109.766701
-18.936937 13.723827 19.008348
18.159754 -5.228005 83.452324
15.222021 -8.515011 1.777787
21.851498 9.488229 9.165159
2.247343 -9.694255 115.092766
-16.032837 6.552786 15.618688
0.303643 1.970087 73.677780
13.534499 10.080453 140.349228
-18.428099 6.225693 148.206451
-16.526817 -0.182607 136.072128
7.482347 -12.906417 121.316254
-18.761072 -1.581442 26.262136
-34.958313 4.088711 109.935059
0.462028 -14.068328 109.477913
20.311579 -1.561588 57.556484
14.283883 -8.336752 63.211655
-8.042418 -9.791593 105.899147
12.150052 -2.762026 52.258099
21.874716 1.090253 17.193129
-5.297103 1.856593 155.948044
20.201670 -4.073344 70.570618
-12.164678 -1.671148 118.326164
-3.839865 -12.556349 134.290619
15.394632 7.909139 51.174290
-14.685494 -5.652885 13.086664
19.804722 -7.314558 94.131973
26.616436 9.704946 11.621728
-45.323696 1.745201 111.323425
13.070379 1.325402 18.716763
-18.173853 -12.839355 89.587555
16.514128 -7.246234 74.745941
14.872482 -0.653669 139.514832
23.937716 0.740602 9.387327
-8.212284 -9.150061 98.370728
-13.944204 -4.539893 51.121449
9.092903 8.064443 36.226875
16.100948 5.771396 7.081699
20.469614 3.892811 78.535370
10.934075 5.956742 51.997673
-7.090843 -11.693050 122.453995
-3.211728 5.569168 116.947243
20.379513 3.613583 90.400826
13.521782 -8.065685 87.265137
-21.559345 -3.201218 83.911469
15.069658 -8.021191 27.873638
47.666691 0.210393 118.380867
-16.415890 -5.456292 97.256004
10.891023 -8.041369 93.875580
-22.510633 12.385561 143.382416
-18.073048 -3.612285 59.900284
40.752632 4.407179 107.215523
-16.298098 4.266229 28.125824
22.179842 -4.808740 71.328270
0.025950 8.499754 116.343330
-4.293797 11.796877 128.235336
-6.393152 -11.739798 126.767624
-8.481657 -9.970583 117.541931
-20.861385 -3.677231 25.337858
5.486447 6.302817 73.943352
-11.113915 1.907543 50.984009
-19.940090 -10.604731 11.351792
17.787554 8.287595 146.183578
42.337456 0.812692 113.235748
-26.424490 -0.422291 130.738266
-11.192734 -9.254700 128.294861
-7.672984 -16.211157 136.445175
-19.385555 -6.959408 89.905708
-3.609526 -12.326097 103.161583
-5.352941 8.673582 80.014198
9.375256 -7.894287 138.120834
-16.776573 -5.990620 10.652048
-0.271058 -16.631069 134.353790
-21.008118 0.718502 10.940096
18.187326 15.023985 25.581297
-15.884115 -9.212120 86.819740
-10.635011 8.931427 99.158829
11.240305 3.157725 155.503586
-8.919017 0.745321 112.421455
8.298605 -8.146914 120.418877
-15.464054 7.473504 135.176208
3.477874 -4.973169 142.281311
13.977301 4.053812 60.528900
-3.570261 5.760752 115.483025
19.408619 -6.868735 71.252388
12.338225 12.736162 99.593536
-1.162633 13.751790 97.101929
4.827562 9.943985 116.097923
38.488014 11.829902 114.439842
-13.608623 0.556600 151.254715
20.471226 -5.483913 74.594261
10.993026 -9.068231 73.364929
-24.852917 -0.505813 38.443348
-21.069685 6.247474 47.682873
6.005083 -1.097318 145.779968
-22.774000 7.795016 139.018768
-17.258743 12.824097 35.248188
-0.586343 10.841002 120.227417
24.621548 7.640270 7.062410
-40.554626 4.542763 116.720070
12.285133 7.972539 53.573719
-45.070728 8.518789 114.876350
10.969433 -9.374599 82.509682
19.673136 -0.325901 75.906891
-31.006044 2.047417 135.545853
-24.936169 -0.724525 17.264946
2.322676 4.142385 74.022942
-14.928959 2.847217 16.620180
-22.974648 -2.854705 6.964135
-18.754225 10.181642 15.233948
25.723780 4.363025 49.672215
-10.691437 -2.208828 63.183537
-18.608854 8.407306 140.888947
-13.564245 -0.919720 134.186249
-7.415522 8.648468 106.573601
20.264341 2.051675 137.749588
39.803646 3.320116 120.893372
15.662634 -10.132067 53.294659
28.269121 2.871054 123.044807
-1.257925 -11.226297 120.537079
-19.298382 10.032181 137.170746
-4.609089 4.304972 114.865265
1.865252 -1.019362 151.542496
-11.380615 -6.388031 127.106194
-13.128719 -1.455220 12.207193
16.808914 -4.968683 57.382038
-21.733831 6.090071 17.314144
16.384773 4.473825 4.769463
7.474075 11.311099 134.976395
19.553259 1.938799 31.892553
-7.923490 -0.790312 44.064598
5.896573 -8.101143 93.977623
-12.508796 10.898623 80.819191
-12.470366 10.239305 75.151451
-2.262048 9.847746 154.062744
2.302821 -11.776614 108.778564
10.168261 2.646415 156.283646
-14.567715 -10.915246 79.816345
18.712648 -2.663819 64.225632
-2.670150 6.730863 108.343475
21.764614 2.860665 62.218742
-10.911015 -9.044744 91.919762
-7.405708 -0.465668 63.410583
3.293625 6.642508 107.537498
11.290211 -13.145345 132.336517
39.152256 4.078187 111.321548
7.981551 11.499780 148.288651
10.468501 -11.055855 66.221947
-13.691474 -8.932185 38.602074
0.659719 -7.583578 146.023132
-22.055059 -6.887329 30.799824
11.044327 -4.015738 31.779882
-22.368717 -1.009421 72.303719
20.286959 11.496205 20.761099
40.062061 9.145322 117.623711
10.452468 8.354201 72.976753
-23.296026 2.017576 83.281754
28.870527 9.458709 128.377563
12.290360 -8.299455 71.011368
17.877283 -4.333800 10.084338
7.209665 3.979273 108.617767
26.595793 -1.575574 73.911858
-47.312927 3.947877 110.639038
-8.452550 -1.194942 50.482071
21.331799 -6.473221 94.140137
-3.809414 5.021710 74.201912
43.657711 4.304830 107.054306
-29.294355 6.177925 128.743347
26.201569 13.171202 25.753593
20.141712 -3.264832 74.335991
-17.056391 -9.265047 76.699463
-21.781456 3.910371 74.201012
15.271367 -5.178413 21.014553
-15.138597 9.947620 71.570084
-10.956244 -1.691963 28.336657
-21.272758 -2.154871 32.493046
-18.737013 -5.602809 17.515190
-30.731842 0.919002 120.952927
12.362844 -11.923642 90.678551
-14.098001 0.229038 113.758514
7.457077 11.445628 129.847214
19.541487 3.084579 79.378967
19.393072 -1.654421 10.655420
-8.961576 3.842710 156.282181
-3.835099 11.894326 93.104256
1.990516 -15.269555 129.410568
-12.030955 2.876833 35.118187
20.390133 -2.041896 74.063904
7.316614 -8.272943 113.030418
-15.528852 -7.121537 35.906143
-21.204790 10.681481 17.608179
-47.144402 4.790884 107.366150
8.176034 1.070907 13.904578
-0.301375 9.306900 130.148483
2.886083 -12.112643 96.476418
-3.905580 13.560559 136.856384
42.543217 -0.526214 118.423004
-21.018974 -5.176351 33.316162
-18.145885 9.428276 55.898022
-6.643347 -2.545731 51.685059
-17.974743 -9.975677 81.881470
-12.707703 -4.333219 28.834507
-6.789682 3.974028 56.031437
-1.091902 1.725423 90.755081
-19.527262 -0.673492 76.684128
-39.355091 7.406662 111.877815
-11.727283 4.299341 126.384705
-8.685869 -0.406097 150.994125
7.824965 -9.617299 140.930969
24.622171 -1.583013 11.692658
9.131262 9.961895 99.575562
-1.422014 8.872643 102.206795
2.621024 -14.588135 99.772652
-1.103760 -11.875187 107.306618
-22.852425 4.216979 144.194305
16.788527 10.927073 23.540194
-38.710880 -0.352394 132.276901
-1.221761 11.245313 105.298553
-19.338285 -7.002590 87.700089
-2.488550 -2.603358 81.824280
3.822887 7.486901 112.544426
-20.820240 5.525198 34.048946
-13.830345 -7.253596 30.503220
20.506889 10.487282 134.234360
3.728129 9.897026 104.231117
18.516891 -9.145638 81.652168
-23.969690 3.933989 36.447548
-27.767401 3.068685 76.218781
25.893906 5.424517 19.026541
21.589949 -2.988793 81.873642
19.964354 -2.763288 53.499783
5.807176 -1.887409 157.311218
46.791573 -7.597968 111.583298
-7.689034 9.600083 132.699432
31.772217 2.680294 135.007751
-3.488420 9.604355 147.974060
-16.216728 4.035851 5.930876
-3.310942 5.103493 93.366104
-13.286253 -7.114445 35.801144
18.907211 7.959119 60.663319
35.322151 8.702397 117.230797
-2.724572 13.520231 87.535210
-1.521049 13.428557 92.939270
43.826351 3.987262 124.020065
12.807903 5.293138 94.501030
21.591152 -3.280520 72.927963
7.640244 5.967024 78.043663
14.263481 1.956305 136.836578
-15.688745 -13.298943 103.732635
19.826694 -2.521712 87.699554
2.122841 13.050153 91.782867
15.160436 0.100366 7.426067
-8.424302 6.285722 129.781250
-22.244108 10.487576 10.985543
12.244627 8.223588 56.471329
-7.374415 -9.925113 90.741783
3.106381 10.552190 114.754272
-4.994427 -10.289934 100.723091
13.775702 -6.764989 13.471633
-0.912659 11.006483 146.878769
-19.893942 -5.000798 94.081741
17.666391 -10.337643 91.965637
23.673277 7.410444 21.311182
-23.569050 5.876777 48.492271
-16.015371 -3.093031 111.179764
13.233972 7.756534 14.463717
-25.384499 7.157906 12.049647
2.613414 -11.935431 97.548553
-0.649917 10.290236 117.992638
-19.405962 0.188259 72.367325
-27.427473 7.690398 128.582275
-17.149334 -2.646930 14.381983
-4.849761 9.509969 89.251488
15.231703 7.105500 12.314713
6.696255 1.074891 51.687061
-22.787453 9.080727 6.901088
7.981542 -12.532742 117.867897
-21.632462 -2.236592 82.752975
-6.121617 -5.818314 146.907990
-13.391082 5.937406 105.044800
32.762505 -1.492545 121.317741
22.363441 1.396545 141.526215
-15.610226 9.205070 104.163383
-29.325314 5.055653 9.006544
-19.122335 2.682102 67.935577
31.191912 -6.961154 74.447624
-45.317684 -3.705719 115.659821
-12.678303 7.679132 132.216797
-0.774038 -11.168564 119.120094
-8.050808 8.096416 121.903534
39.513016 -7.138701 115.906334
12.752491 -11.177822 79.895607
-19.015951 7.858307 50.881783
-6.028091 -5.230795 70.797447
17.857466 12.540935 34.424118
-32.962818 10.378444 125.693924
11.306253 8.618200 74.887352
-11.438086 -3.786214 38.221680
9.464827 -4.004728 64.452988
11.386391 -5.553628 44.695641
-2.213195 -11.638311 139.868820
-21.539070 3.099311 144.177582
-9.612505 5.996869 151.782349
20.654829 8.033329 46.404430
-20.761175 0.683295 63.461117
10.347872 -3.367564 117.615952
-13.926754 7.162493 132.332275
47.403839 8.800003 97.879364
-10.151839 8.482754 48.627106
7.495773 3.834640 53.137371
15.997351 -4.688085 55.265102
-36.159443 4.996953 113.012962
-1.904082 -13.874520 105.652710
-9.644333 -9.671926 107.896713
30.152575 7.349242 129.739532
-17.379539 1.658224 144.466782
18.876032 2.245911 61.569607
-11.732929 -1.432922 128.581451
-17.180515 -1.326229 144.544952
-17.680023 -4.414968 11.057129
-38.601711 3.143284 110.906456
-18.689247 -7.210540 85.773262
14.162204 -1.690751 131.600479
-3.642383 9.522077 153.614105
-14.736620 -4.557612 69.521446
15.919211 -0.402150 122.220520
-2.935261 11.860089 88.082062
20.412540 5.903272 7.000619
-5.813873 -13.705715 136.796814
-17.962532 5.630055 68.466103
-12.973639 12.494139 28.435501
-37.233688 1.537261 128.469620
15.024839 -9.825008 91.974625
-18.115593 10.552670 29.690941
-7.243711 5.582446 154.242157
-2.929777 15.362988 143.344696
-14.215681 13.723271 38.128483
-21.182772 0.271130 75.417839
-10.601345 -13.757874 88.536613
19.399508 11.692338 11.034902
24.475075 8.371655 14.355270
-12.423796 -12.778754 87.254242
-1.877462 -12.339502 136.736664
-3.075518 9.543739 106.175560
7.032924 3.445490 47.084084
42.582108 1.856079 108.137169
-22.706051 -1.284344 30.086430
15.957420 -5.616486 39.446712
-21.961754 0.131316 32.187031
21.889864 -0.059693 134.373215
23.597534 3.142631 25.900700
19.087200 5.609561 155.999695
15.277984 2.668138 143.594284
-1.930137 -12.997922 133.539597
34.930111 8.675204 119.107445
12.389624 1.894385 128.117050
20.720409 11.455699 33.450363
27.821974 -3.596181 71.990128
22.655117 2.949769 71.900276
4.355719 9.416720 106.491608
19.077929 8.038642 15.755389
24.063185 -2.631857 4.836062
-20.485144 -3.895603 79.388680
-9.550869 -12.538540 122.427322
-13.922545 -8.526582 137.411224
13.111101 -11.560805 84.916885
-21.942045 -1.443149 40.290375
8.292507 10.319968 134.786942
13.774653 0.646937 14.989927
6.980025 8.053733 54.915768
-21.198208 -3.035954 37.560677
9.550652 4.479193 38.498238
-22.065113 -4.425136 33.450661
-50.910618 -4.012864 113.908791
-22.151718 0.644722 80.820259
-4.533882 -8.827369 85.204605
9.978062 -3.834696 71.971443
-15.588335 4.907859 100.930367
25.613810 7.570460 138.739746
22.508018 1.958825 76.180275
9.371811 -8.847471 113.775505
-16.713428 -8.083246 59.516182
-18.918079 -4.331733 92.337814
8.685325 -2.860866 151.659714
26.455976 1.617916 135.778351
20.737234 6.057805 15.528994
14.528921 6.509269 88.633163
-27.609219 7.658848 137.463028
-38.621197 7.579622 113.720505
16.017870 -4.401041 41.201859
-11.395458 13.218416 99.413177
-16.036093 -3.375215 23.046988
-18.811802 11.748858 11.015569
16.200695 -8.080884 70.527557
21.463127 8.974608 145.025696
11.006245 10.705796 140.681686
-19.389807 1.264930 85.857895
-12.733579 -2.886964 124.292381
16.075594 7.029410 8.734984
-11.082669 -0.660270 34.420242
-20.122065 4.889614 72.505341
8.168039 -10.483101 136.854385
-13.845059 7.944822 58.476597
-22.480146 3.743927 67.284767
-22.769579 -0.732000 76.816391
-27.609047 -1.108973 138.690247
-7.272844 -7.892598 106.743645
15.034800 2.473500 139.885986
6.506802 6.457802 103.230537
-8.297292 -7.570027 110.589981
12.162678 -0.549879 111.990280
-12.933075 -4.829040 46.280209
4.403220 -11.928502 90.092758
9.965409 -1.991392 34.009262
18.442308 6.332838 102.031075
-9.710354 11.594085 96.478706
-10.122863 -6.391796 118.668381
12.651310 -2.752728 121.175323
8.774737 -8.096181 72.694794
-18.592592 1.749032 147.655579
-23.487146 8.203588 21.803904
16.140329 4.385505 107.295815
-43.977924 -4.883608 113.243774
-15.792903 7.293101 136.804443
-22.678221 -1.835242 24.877279
-0.049813 -10.501979 104.136002
3.621391 -11.014679 90.775673
21.605618 -1.418138 37.601292
-19.886549 -5.462895 66.183762
15.942929 5.673645 88.627541
24.588961 -2.195262 8.208187
11.643355 8.990462 56.854488
10.388185 9.870975 130.670517
1.925577 -8.428533 96.811394
14.409078 2.215929 12.195560
8.965332 -6.814734 118.183411
20.958996 1.540497 24.755098
-8.573614 -10.297686 98.869308
-9.792473 13.803800 33.100525
10.434658 11.269801 81.537834
-4.428685 10.650934 113.682350
4.467577 0.772758 63.625969
14.533226 9.315521 56.694828
-17.098078 -3.847439 88.654457
-3.253345 -7.163420 83.579559
-18.628586 -8.745015 82.695686
22.602669 2.202545 18.853807
-27.801245 7.264398 6.851040
9.359972 9.384085 103.251862
-18.963720 5.691672 149.569565
13.771149 -14.045312 87.445641
-8.827889 -7.748991 71.778297
-12.718439 6.000520 23.858442
-11.782287 1.260113 115.494308
-6.760493 -6.708285 77.773338
-21.552507 0.731915 43.036877
-23.667658 8.305132 41.648361
16.866020 8.092278 8.434045
-8.352334 -7.131425 88.830292
-2.583761 -5.667145 94.454994
-18.596561 5.370242 84.856888
18.304708 -4.412796 54.236923
-19.093647 3.622697 51.919571
22.413685 -0.182107 74.843758
-21.682556 1.728282 21.482702
-36.269955 1.519888 118.413345
-12.367855 -6.827050 104.783615
-23.079199 1.014827 79.410141
-23.640348 1.939977 17.297888
10.022429 8.830359 130.306427
9.664268 1.579282 28.569099
22.807051 -6.480330 79.240463
15.331767 12.182184 137.817413
-6.416653 -11.262567 138.866394
-14.234674 6.620794 17.778437
7.176120 -0.305915 152.116302
28.800522 13.624058 129.139191
-16.014664 -7.617000 10.027582
23.842878 4.380726 12.896168
30.252430 4.252964 124.348869
-28.781704 6.233068 9.395170
-18.420370 -6.583833 51.076916
-0.918154 10.901612 113.850914
-16.424828 -7.197259 39.816711
7.717523 4.420669 34.795444
-18.448648 -5.997367 70.881912
24.896040 -3.466637 82.417618
35.323402 7.157657 128.798996
0.621679 6.305001 152.257385
21.363686 -4.746160 88.668526
-7.260338 9.075334 91.347382
-1.518675 -4.306778 93.844887
11.101329 1.268792 121.791603
11.642643 -8.085199 124.947701
12.657367 -11.069551 108.022751
-39.677982 0.775729 113.658325
-38.408161 5.274117 128.955063
19.479084 -2.741328 55.007313
-22.945845 12.929945 24.462069
7.540402 7.342851 103.287514
-18.760305 -3.646120 74.005325
31.708281 -2.790977 125.501984
8.951708 2.927708 155.613113
-4.759109 -9.919414 110.925720
-21.316328 -0.591109 68.497375
-2.221221 -10.131564 113.814636
11.937190 -7.042570 123.430763
36.314812 3.297607 116.563538
9.119830 -11.891141 88.218254
18.609810 8.153604 68.719070
17.424530 8.691112 59.735794
18.076639 -4.031958 7.207327
22.888641 -2.019633 60.741795
-14.451654 -2.194168 47.355320
6.703211 13.065477 144.328522
20.973953 1.394507 17.121246
11.512209 13.278775 82.855026
-8.357865 2.567295 112.984375
-22.014805 -3.334344 32.133186
16.411860 12.315681 148.025406
16.906462 0.590520 119.021080
-20.732956 -3.813230 34.324116
1.891039 -3.822613 144.960953
-15.078488 6.268752 136.642242
9.981303 13.020061 88.450554
-12.228661 11.373035 45.593079
1.476796 -8.852076 92.842377
-1.767505 5.841855 90.182831
37.333351 3.601261 122.304146
-13.065324 -2.957740 36.529453
9.354145 6.436429 70.101318
-9.204038 -10.640213 107.665047
-10.602885 1.464078 152.290146
13.765658 -8.207045 27.717089
-12.486156 8.702757 134.647736
-13.154702 -9.013009 126.019562
12.818598 10.601545 59.211376
-3.248439 -7.628751 138.799530
-10.124084 7.279586 122.141739
21.819347 6.707172 127.970970
-21.685324 2.002367 136.582718
-4.281909 6.129206 74.994629
15.068361 -4.959493 26.401997
-20.357948 0.603178 147.944046
2.112559 -9.792649 115.888680
25.818541 5.593320 144.883331
42.320335 6.646815 114.082123
7.777834 -8.119413 82.937202
-22.491819 5.474216 40.321392
7.285842 -12.030553 84.075340
20.852802 -6.126710 75.190575
-4.122445 -9.877489 136.162292
12.044001 -4.690392 100.335037
-8.242073 1.604805 54.007320
-7.518231 4.709915 42.516060
18.213289 -4.327543 124.515785
-18.589245 2.315787 136.931519
11.643242 -6.154457 13.931168
-18.814280 4.549373 150.720047
3.305078 -14.027200 134.443954
19.667070 -1.040647 74.160645
2.887330 -12.155303 134.631210
6.970783 -8.654510 115.369949
3.068770 -5.819191 80.377747
6.309857 9.654344 151.564636
-18.846643 -4.048923 50.424732
-21.244904 7.968660 16.642212
-23.596287 5.245447 146.459152
15.144894 -3.544155 7.892512
18.842903 -3.542669 53.935173
6.561985 -4.534478 71.363281
-6.192892 2.708693 116.546120
29.485538 2.699579 122.267601
-5.267776 -11.701597 109.004295
-24.559929 0.653867 10.754863
11.215993 -9.649133 87.737129
16.933474 7.703388 9.023541
2.060152 -13.865145 105.345184
14.346910 -3.664511 137.810532
22.506884 4.634098 48.808472
-16.160904 -1.352221 107.085381
12.137778 -7.650120 100.220268
-19.076668 10.947596 140.866287
18.196247 -2.303493 137.734344
-15.537251 -1.379541 9.447405
-23.992304 2.218774 24.912214
1.062745 -1.852778 148.892776
-24.919361 12.681802 139.323395
-16.369938 -5.636264 47.587471
-6.870087 -0.095529 58.629604
21.913027 10.925515 36.548843
14.244017 1.228207 138.545151
-24.386114 10.423671 17.472942
39.206985 -0.549154 111.368347
13.146085 6.801924 151.612625
-21.246025 4.242566 92.272194
-5.977491 12.348769 141.830963
14.695702 -0.041126 4.991730
-33.893120 0.985561 118.248497
16.030745 8.144999 89.672516
0.858433 -4.119115 78.342468
4.896045 -15.216808 127.370117
25.674131 -0.097099 50.313332
21.557749 3.729457 39.632053
7.973021 3.546752 154.116699
13.144110 -11.962422 125.394577
-27.916424 -1.102529 142.132889
8.223022 2.264470 151.790497
-8.279428 -11.213191 122.792686
-22.118492 0.166268 24.531815
0.312839 -5.130129 141.343399
-12.937160 -2.420239 110.450584
-18.738905 -5.563499 36.520618
8.836037 -0.841464 28.483393
-45.029343 -8.534971 108.418831
29.390678 -0.449088 132.396469
23.295723 8.749859 20.361233
15.661274 3.025842 103.408661
-21.238520 1.462560 60.305290
8.675734 4.174321 46.676888
-25.351519 -6.712321 37.574055
-22.336720 -1.188654 67.789932
0.952488 4.629878 76.791611
-7.875149 4.205758 153.846725
-8.435652 11.252895 150.368103
-10.590075 6.163830 32.861950
25.278894 -2.210248 76.675171
6.979367 8.709706 145.096237
-14.497433 5.095646 151.490158
43.260464 -0.614442 117.783348
-5.471551 6.168666 155.861099
-16.931179 8.936943 139.454391
-16.044914 -7.596132 86.203041
11.797550 -0.093854 54.367706
22.002325 0.010362 61.675072
24.113230 1.456573 82.320396
-13.287107 9.335159 27.403538
-4.378795 -9.372403 118.093552
-18.449543 1.403460 83.274994
-11.217972 6.361546 38.641903
-10.269099 -12.181154 92.428932
4.458642 10.460628 96.381355
20.045294 -4.182789 80.104599
-12.813734 -6.127113 45.702801
19.204536 7.146992 67.303162
-12.599733 -10.651535 89.777016
7.932478 5.775513 61.569290
12.105067 9.205546 34.958584
-10.672392 -6.181283 117.493942
-6.470259 6.257892 84.664665
10.749744 11.082720 99.826881
-7.749546 2.393526 118.523148
28.408590 10.978509 13.641333
-23.129354 5.790577 53.139206
11.550713 -4.983892 31.357986
24.242027 -4.984408 49.819511
-11.922968 -7.459643 91.320023
-19.276337 -1.362050 65.593895
22.888075 1.527067 140.516693
14.662163 0.603351 42.361927
-7.660152 6.709799 74.081863
15.783958 -5.800064 66.118401
-11.095929 8.378557 94.576050
-21.453352 10.280397 28.664396
-28.833748 11.555426 130.155960
-9.384492 -9.371744 122.826492
-0.539706 -8.266038 139.199951
15.292964 -8.324631 89.871010
-3.447991 -13.929170 122.650139
-8.088186 6.585626 107.408989
45.949085 7.778313 115.267616
5.822460 7.677551 70.522820
23.150507 10.376618 10.134271
-17.548872 -1.532215 74.971764
-18.907427 6.474434 135.333527
7.320392 7.318021 71.458992
19.350060 4.316253 20.560349
-13.579540 0.711447 5.226150
8.503895 -11.297413 108.974167
-16.172253 0.060199 4.535633
-19.690170 4.061960 93.172829
35.402065 10.199224 123.049889
9.049162 -3.539805 64.225594
-18.607574 -0.252485 73.940323
20.705050 -4.539835 36.483627
-4.184709 -1.147691 145.753326
-18.342377 -0.192096 141.792755
15.545990 -5.644742 48.787628
25.249327 1.859358 18.199743
6.055693 -14.174296 113.123993
-7.124029 2.722668 64.654739
36.752098 1.972876 113.356613
-24.895182 10.858000 124.444244
-15.040003 8.743755 149.472336
-35.596664 5.675292 122.182510
15.353824 -7.876361 38.735409
18.177973 6.807231 84.554932
-17.543184 -5.433104 11.929556
13.290291 -0.413050 3.920460
-13.296628 10.524179 35.744740
-14.575018 -8.640777 138.085602
11.246475 13.273416 42.155197
6.228697 12.843347 95.834656
8.887155 -8.157393 78.459976
-26.754709 0.293851 129.637405
-35.270267 9.497210 127.652611
-21.200529 4.364543 30.455633
24.753269 -2.206715 78.058441
-15.559698 -0.619150 125.270554
11.769239 8.500001 150.581833
-15.334953 -10.453857 85.173134
9.082318 2.952479 45.428539
-6.971816 10.328497 99.860619
-25.815763 0.430648 143.387939
21.712641 7.371107 40.871372
18.820171 -1.257533 82.533730
15.319263 11.123548 39.683666
13.022285 -6.672002 22.727928
10.102808 5.278809 68.419609
-11.313518 -5.928002 56.796135
-19.626726 20.394930 11.304347
42.008560 1.538291 109.632507
-28.211365 -1.209022 129.081650
25.715918 -6.119086 67.378090
23.174480 8.938438 4.462512
21.645563 -5.884573 52.566628
-16.248684 -3.546908 80.867569
19.713957 12.774801 19.014994
4.615950 9.526661 151.505249
-19.853336 10.918458 28.023195
-6.346455 14.017590 141.100327
-5.184354 -12.532281 127.074089
-2.815038 2.139720 78.789299
16.470573 -5.900936 32.911583
15.947111 8.996544 49.739834
-25.276423 7.303830 125.246330
16.921368 -4.436352 34.507759
-3.210457 10.607484 147.444061
-26.485579 6.533361 131.882919
18.994322 -4.942446 45.905815
-11.989077 8.543789 59.593281
3.396647 5.687305 83.802917
6.142598 -5.957216 87.859978
-12.877227 6.749273 110.011932
-25.009752 8.298842 137.229614
-36.300472 2.099267 126.596710
20.340546 -6.636300 88.286140
-7.344690 -9.649333 123.035866
10.255690 -13.032251 126.239861
-18.843733 -4.110806 94.770241
-27.985878 10.928626 132.433746
-1.336706 6.448381 89.168732
16.214558 -4.696665 66.513535
-10.138808 -13.141296 54.917141
14.523383 2.735324 110.495499
19.165537 3.646671 75.005470
-1.097528 11.365688 100.478706
14.356356 4.335336 111.603355
13.386525 -10.022732 115.000099
-11.924009 -5.741824 143.965897
-35.813908 10.334346 119.155174
10.191175 -3.066208 40.543465
11.875219 7.490234 134.104843
-22.357466 -2.273268 66.898842
-41.964180 -1.043333 105.454010
-34.653049 10.797863 128.052307
18.066778 11.326052 9.385339
-17.512714 -5.311291 104.019890
18.942680 4.930448 84.825195
13.431505 -5.366493 95.978767
17.165937 11.658543 30.995384
-9.486329 7.080133 45.258862
7.015634 12.483965 75.358887
-25.285732 9.373660 134.630310
18.958122 13.426439 10.466881
11.252287 -2.696093 64.323586
-0.056639 -10.499005 100.829041
-3.275172 8.870696 124.384171
-5.344926 -1.441141 68.304436
-16.878515 0.665830 150.174362
18.416527 11.504991 30.485361
22.030434 2.556908 19.504742
-33.246712 4.754968 118.477608
21.823732 1.893290 73.949509
-26.065487 11.114228 35.128120
-17.221960 9.127785 39.575939
1.068866 -10.945401 117.694534
-14.922059 8.747000 148.717224
20.257027 2.251674 37.376522
17.752537 -2.233232 147.388580
-19.093466 -2.769446 67.580002
-31.360209 -1.872303 117.455635
18.280972 3.714483 40.475090
-16.586843 2.881299 148.413239
2.994063 4.539744 81.115028
-12.312210 8.888827 49.906826
14.971100 9.631014 43.814865
-5.998197 7.220224 155.087875
-19.678665 -5.762421 46.918194
-23.108629 7.654627 127.434174
-39.366035 4.914363 125.668869
24.898834 6.444544 18.691675
-17.843233 -5.801468 14.887277
-22.559240 8.693818 139.008194
1.968790 -11.602568 122.673538
-15.017304 -2.018515 20.701956
25.239389 6.502681 129.960983
-20.414167 -0.489440 23.521584
15.292329 -3.918922 38.248875
-7.261157 3.248084 126.902260
-14.707378 -5.592024 13.966019
14.152309 6.740119 23.566523
11.458833 5.759808 30.172997
20.852158 -3.365482 76.860199
-15.661968 -9.646923 89.706177
20.236120 8.562118 141.081940
49.495586 1.485750 116.632912
10.823490 6.860280 147.737717
-16.705328 13.602329 21.747633
-31.901304 6.316771 124.723328
21.545929 -3.246286 84.235542
-16.390713 -4.111095 10.767867
1.218860 -10.383106 130.657059
-19.997196 5.218862 51.519333
7.112601 -11.745352 101.878525
21.011286 -1.139561 77.314072
10.101515 -0.133739 47.171032
-7.287210 1.645797 66.522568
23.238209 6.569417 32.465698
4.967251 1.491271 70.299095
5.289681 -13.904956 132.695557
14.217807 -8.322643 46.080170
2.700607 -11.573750 103.500801
-17.677809 -7.134093 35.960247
-15.230950 -8.434277 61.264923
21.395058 -4.665346 73.095848
33.435719 3.122994 132.077591
15.826869 4.648786 1.468685
-48.354713 -4.499291 112.387390
-21.688694 -7.100106 84.659187
10.407434 -2.156262 52.847866
-2.341657 12.615911 132.121094
33.982487 -0.567690 122.596321
-13.237809 -0.403840 141.300217
-19.783787 -3.401692 22.398653
-38.085266 -3.324589 115.965462
-19.892174 9.056095 35.617435
-19.702858 -5.932255 100.002968
-0.353219 5.905189 88.809692
-35.936501 -2.432088 117.184723
-22.451031 12.323813 28.101255
11.115107 -13.888821 125.951538
-2.152458 -8.728986 139.978806
-10.829034 0.049635 19.801062
21.433605 -4.872047 22.418201
12.307272 3.966333 77.374001
-26.986408 -2.283633 75.347816
-38.984806 1.086001 112.969536
-14.118488 8.857569 99.867912
11.666394 -2.524144 119.102226
13.302641 -0.534272 102.481201
15.383562 10.502798 37.991837
1.232752 -14.922044 132.479462
25.514151 -1.644593 8.310169
-32.013416 0.323198 121.622116
13.419330 5.562723 131.340607
9.262696 -13.632307 123.415062
-11.484134 7.356684 46.871326
-10.467976 8.623105 74.778633
-10.963593 -0.202971 148.389679
-14.375464 8.054925 135.936600
-6.143067 1.917174 50.509094
13.409958 -4.714448 132.857758
-4.278443 -2.339452 152.351456
-0.364740 -7.848726 98.788841
-24.723555 -0.830912 10.857906
-33.487930 7.649120 121.670761
-15.441187 13.398641 35.871040
-32.744602 4.117082 114.525497
10.174632 7.830225 102.070015
17.945620 5.342777 56.797714
-1.832597 11.652197 90.262131
-11.963799 -5.824028 103.950165
-3.382036 -12.316149 106.396591
6.652276 -7.861112 103.197899
9.794867 6.625349 62.371155
-7.357024 -7.595820 141.978439
-2.127758 -13.427620 122.630882
-25.458532 -4.846502 76.857018
16.329847 8.085862 139.416061
-15.547341 5.680783 32.485218
0.312876 10.373695 93.588013
22.385206 -3.337798 64.291893
7.332624 8.962856 153.734055
-21.974350 7.356628 137.579285
-47.128166 -0.293393 107.873947
-7.903993 4.069884 33.161182
43.192501 0.478532 123.380547
1.837423 -11.792058 132.820526
-14.998386 10.745091 33.495914
-23.596315 3.282171 148.629761
14.293472 6.994050 12.714941
-8.169958 -3.522351 66.989410
-15.510269 9.933704 145.928741
-10.348804 -7.341456 56.315468
-32.838432 5.212959 134.235580
-5.629281 9.326088 68.193375
-29.877029 2.420172 123.674217
-22.317719 1.010554 139.761642
14.787916 -3.741352 138.967758
16.367985 12.262770 45.095451
-7.346343 -13.268734 104.896835
16.138407 5.557034 59.267933
8.519876 1.312232 153.904343
-13.794450 -1.195100 133.083725
-24.659285 -3.955757 75.531715
-19.520941 3.408406 69.168709
-3.400898 5.633128 79.502777
16.045477 6.532275 134.318665
14.654408 -5.421506 5.312450
-26.291393 6.969404 136.785233
-3.672195 -11.476986 119.556046
-27.719776 8.044115 130.350662
-9.316970 -2.841007 46.869560
-17.794170 0.271220 95.129059
-15.139158 4.265501 12.347174
16.216415 -4.379256 44.545292
-14.976691 -9.447935 96.745354
-10.387291 9.261645 78.603096
-22.293005 -0.795630 65.689537
-4.215130 -3.666292 86.043358
11.435349 -3.283256 20.280712
0.223033 -9.056428 142.912384
9.665918 8.668822 74.931747
7.594166 5.386303 105.820435
18.865139 12.483922 29.010330
-4.351838 9.094007 89.986862
35.307655 7.774627 129.993668
-11.490724 -4.673907 23.630293
-19.718075 -2.943240 15.803583
-24.292412 6.858280 138.723389
-19.448656 3.175540 68.096947
9.841711 5.636676 54.490910
-8.660822 -7.051064 68.724892
12.154367 -11.490035 82.186050
-13.874051 9.087972 53.305420
13.632877 -0.036161 146.461838
-13.352175 -13.158689 62.699265
11.942716 -0.484615 16.064268
-8.695009 -10.591924 136.418076
21.306009 4.152094 53.486248
16.733431 10.723303 55.540527
15.758897 -8.712160 129.145142
-18.553431 -0.621184 64.505585
9.044242 6.644757 56.875057
17.646313 -2.310810 45.594376
17.955179 4.616579 56.434994
-38.914639 6.911136 111.224274
20.559639 4.942060 54.114239
9.793768 -0.986672 150.084808
19.995529 1.177260 53.362423
17.861759 -8.041079 64.559700
11.306618 -10.290452 139.198105
10.327024 2.648838 115.422516
-24.617758 7.009451 2.854089
38.973263 -1.312186 115.136520
14.904881 -6.995815 52.473957
8.235521 0.527840 29.570417
-23.281273 4.937760 49.618073
0.658441 -9.614049 112.528145
-14.978272 1.106262 17.113043
-16.566475 12.758880 16.849733
-22.548126 -0.227995 75.193626
-19.893539 -4.218173 9.077376
18.960609 8.950725 30.908484
11.914315 2.624618 34.927288
27.147661 -9.389320 77.065956
12.530177 11.932287 27.502529
17.289633 4.692948 88.774788
31.435820 8.812230 135.153046
-27.452734 8.515354 13.576258
-7.371848 -8.143014 77.972290
15.578085 10.532110 146.526291
22.572878 2.254172 41.522423
12.157910 2.034796 40.470993
-12.558151 -9.864243 98.971931
-13.879739 1.872818 24.061419
44.694641 2.279093 111.122749
19.481359 4.289805 63.310516
-10.784297 -7.732124 83.616951
22.724850 -4.469011 33.727455
-0.947012 -6.561752 146.515015
15.900086 12.216737 39.633499
12.129222 -9.718445 121.464233
41.310966 -2.020066 126.107063
-17.354786 11.675877 16.671757
-7.554043 9.142323 101.881233
-11.892790 9.090351 42.882889
-3.341979 10.294650 102.323891
25.680714 0.668984 123.921219
-4.510657 12.727766 147.098984
17.587387 9.351243 84.540848
-12.604122 -6.182523 125.756691
-2.648271 -0.814169 84.200798
-9.393337 16.072872 94.015144
-11.579351 -6.153913 133.276016
-7.755263 2.977472 123.554459
-3.559069 12.941116 90.566986
-13.295739 -5.795438 125.187012
23.629837 -6.195877 77.334114
-6.694075 -6.043377 89.381500
15.243779 1.950263 118.342255
-17.144644 -6.057296 72.766731
-15.286954 3.568184 4.081180
8.164523 5.260485 51.436222
17.498199 -2.404701 50.552788
9.773707 9.059734 153.683212
22.736174 -1.940546 132.980728
-14.963820 -6.330180 106.166039
-9.523645 13.655206 142.838821
22.468107 2.121616 21.579721
-21.329342 5.289215 55.345421
-23.403212 2.862983 30.199799
2.835573 -13.441586 126.288971
14.728322 -3.139612 137.554382
15.676331 -12.724642 82.017807
11.416263 10.787791 136.952332
-25.515846 7.431881 131.640564
25.714409 5.782386 125.025764
-13.260452 11.575013 142.461594
-21.301487 2.623525 46.465317
-44.604668 -5.892767 114.741837
22.583977 -2.980795 80.479118
-33.760456 0.787942 75.378082
16.231440 -9.993833 65.785362
-18.123117 7.173887 133.580414
-13.405626 -9.676172 98.264847
9.347456 -2.113333 117.311249
-4.675437 11.507483 95.488701
0.673903 -1.458501 80.683861
-16.355932 8.885909 57.284016
8.242177 -4.624687 50.998192
2.286455 6.663568 90.033875
-14.785972 -6.567577 128.814301
-15.717066 -0.503240 82.921707
-20.939381 -3.590776 77.365143
-16.212606 9.139158 35.817875
11.298073 -12.458927 102.211670
16.935486 -6.068818 74.803658
-13.997129 -4.337327 131.095779
30.883839 5.611653 138.128723
39.136673 4.195585 111.539932
-14.883994 9.827544 90.658546
-7.986400 -2.158685 51.118401
-13.162634 13.378308 39.490559
-5.649058 1.038435 60.205326
-14.526266 8.002939 13.151174
-10.649142 -6.226712 118.390991
-29.422823 1.877655 7.253108
-2.934422 -4.933641 88.747383
-2.219798 9.907123 114.291374
-15.497533 15.626968 30.151310
14.847731 -2.827372 100.366058
5.078855 7.946640 77.312820
2.505666 -4.590761 81.174797
3.016036 -8.779375 93.587517
34.361389 -0.258306 116.848038
2.787122 -12.688515 95.415016
18.630850 -1.828881 108.651871
-35.637096 0.699920 122.828720
-15.604975 5.163201 153.584946
-4.989033 -2.166840 75.048798
4.408916 7.127145 115.661491
12.504263 -0.077469 38.193661
14.183628 -2.194014 119.695930
11.434274 -7.627134 142.253387
36.209885 7.689220 113.440186
-14.724368 -8.824987 94.073174
14.955444 -1.632259 34.034054
11.009283 0.003069 121.701271
-7.566001 5.711729 114.396797
-5.502763 -17.634199 132.372253
27.367455 4.792126 22.433632
4.723650 4.205744 154.993454
1.603116 4.879345 92.623245
1.975585 -15.989960 126.681274
-18.925972 10.935647 22.013165
-24.216766 0.889987 70.704582
-4.168680 10.023626 149.638016
26.623367 1.605096 142.858948
-14.084672 -10.227898 123.190437
9.397252 -9.240708 105.692520
-19.276333 -0.056422 57.033237
4.799102 0.048296 75.912239
-10.269771 -0.308549 65.211899
-15.101385 -3.259665 139.335068
-8.410695 -5.135045 73.130295
-23.358879 0.595046 83.272865
-19.042959 7.127516 65.704613
22.557013 0.637819 64.859619
25.353712 5.812213 4.601582
19.848679 -5.272767 38.056526
13.581699 -4.403793 123.374908
18.242109 -5.788912 89.766113
7.123844 8.543094 130.545700
44.944893 6.253901 109.142998
27.399256 9.959877 28.357651
-11.210304 8.080250 114.441986
21.419725 3.666223 57.992382
11.424310 -4.788423 114.240906
-27.535049 4.727664 22.112005
-47.258919 -7.716364 113.189445
13.429070 10.071887 144.523483
-7.143785 -1.080781 58.870857
-7.774460 -9.456391 118.236671
-28.040922 -3.980433 6.302303
7.624570 3.531894 40.778618
-15.898784 13.249875 23.968660
-10.571521 9.115391 46.610016
28.298698 -1.100200 62.233696
-18.932913 -1.150717 66.470818
-15.432924 -8.079246 31.890944
-17.817638 -8.795472 76.525208
-26.396929 0.632315 5.427052
19.680132 -4.871066 90.514923
-14.785045 -3.992764 52.003090
-32.321781 -0.195632 118.272018
-15.302256 4.317969 113.989540
12.170893 -9.520021 134.977341
19.250557 4.847300 73.207397
-19.449900 8.490231 74.622673
-27.624817 2.321584 122.206009
17.233751 6.527891 105.138321
-20.911781 1.801631 48.470318
11.044538 3.916649 106.523834
-22.422207 1.077426 31.509424
-19.546055 -5.622015 16.859802
-12.455100 -9.519815 89.837662
-26.342661 6.441554 128.437851
0.484571 -4.390774 88.973091
24.836790 6.887415 127.720505
4.410821 11.469692 114.022926
3.519604 8.907446 157.856110
-12.046141 4.376048 36.465378
19.043379 -1.448905 77.829536
-17.396452 5.673437 8.826874
-24.238304 2.108507 126.434410
-10.942623 6.980511 131.021957
38.512939 6.258006 119.736580
-30.108013 7.830897 117.102005
-1.263911 9.451887 110.313103
-12.458407 4.677624 25.156187
2.735704 14.002230 96.582832
9.065181 11.701214 149.955994
17.352503 -11.575080 72.349083
38.887970 6.298133 123.167694
-11.105714 -5.322046 76.259781
-14.259719 -5.425995 39.246948
23.806526 0.103247 9.506069
-27.266943 11.478786 132.167343
43.060852 5.452631 115.446457
-10.777340 -3.342972 140.897369
16.627270 8.647741 144.341766
-2.201583 3.218341 154.317780
22.815487 8.863142 40.929108
7.391524 14.708797 140.465149
46.911827 4.069757 110.653229
-8.644906 9.393557 107.207352
7.100558 4.660164 61.461998
12.603092 3.047477 124.657043
9.479406 8.291736 77.206627
-19.083281 -0.780723 88.864494
10.597876 -2.615459 35.498161
24.406734 3.423145 16.090622
-24.054787 -1.516080 36.014462
0.581528 -1.256274 82.949600
12.041552 12.403109 95.129890
21.961092 -1.684350 75.559669
10.698458 13.905329 74.397156
16.334217 9.831615 54.446331
-38.641029 1.811707 110.920143
-15.966532 0.001044 142.648514
-29.315475 7.926489 133.740189
14.758995 11.080245 137.870148
32.728146 1.037795 122.930801
21.339876 0.705865 9.851435
10.191104 6.958601 124.623619
-0.221038 0.542367 75.682281
-2.993656 -15.808957 133.498596
-15.710158 -7.396307 20.770096
25.982103 -0.197639 129.089096
-13.497760 5.816332 47.663799
18.193272 -6.479853 75.617752
15.250215 -0.138347 148.841003
-18.699274 6.974255 80.073463
-13.994963 -10.566727 123.375938
14.439278 2.424840 108.314873
-22.170567 1.364044 12.383711
10.403617 8.166942 47.019112
19.180120 4.201976 74.513611
-16.629578 -10.436425 83.771538
11.260475 -5.407465 59.294083
-16.198679 -4.415478 56.913109
10.080875 0.090977 151.830048
19.646893 10.859108 40.647842
-13.853893 4.333815 45.272800
18.211004 -10.364229 94.811760
-19.847713 3.297118 59.884979
17.063189 -3.053222 47.493969
-0.347673 11.094721 131.374207
0.090038 -9.893257 108.049492
1.055492 -3.784214 145.467712
18.788834 9.916381 34.346970
1.143263 4.972390 157.660446
13.331291 5.031779 14.955609
27.097971 7.705204 136.401108
9.908587 8.305835 71.443581
39.771034 2.416133 108.627266
23.338291 2.110203 38.638039
-10.849192 5.108963 29.131323
30.114983 7.556973 132.980438
1.743633 9.622274 95.788597
7.614047 -1.127067 56.875969
-5.680287 -10.084363 139.465454
-9.900859 8.263756 152.224289
31.788406 0.639204 130.347626
-25.114695 0.706457 130.816513
-13.478264 -0.005079 42.550140
0.668935 7.056900 85.337181
0.280343 -10.005881 109.062546
-17.358631 -1.052698 146.089722
-15.490967 6.767085 90.027779
18.320086 -9.846677 74.681572
0.857598 1.059879 89.463585
-20.843660 1.317033 75.406982
24.387358 10.831263 133.348755
11.209045 7.024945 46.653240
26.617285 7.429006 135.295547
17.492584 9.798255 7.696102
29.532587 2.174667 131.049484
-11.045988 2.809767 34.773174
4.318015 0.418533 83.981270
34.384281 6.202446 120.750954
1.227812 -10.129901 97.430107
27.638407 5.699634 16.604584
-14.209576 -7.865080 63.817677
0.797074 0.430603 83.389664
20.549391 2.142356 132.364838
-11.207766 -11.734488 75.875771
12.834070 -1.978353 6.871265
-25.240158 0.299796 132.568405
23.039539 -3.506835 28.846493
-19.042707 -4.586251 74.382393
-12.397198 1.709307 116.241570
-13.828813 8.868045 142.436920
-8.120490 9.415422 150.857269
19.410873 -3.768819 39.459003
6.913220 -1.589181 74.415695
5.405150 -11.338795 113.242271
21.702463 -3.039317 8.202205
12.221415 11.118147 76.150307
8.681887 -7.786714 107.845581
17.552147 -4.786549 53.913246
-5.076581 2.504338 80.585594
-25.819433 -2.218092 73.312042
16.272421 -9.281021 58.127335
-18.063095 -6.804169 84.065697
-23.699242 -0.060453 8.639491
-23.049738 0.154185 23.500742
21.666260 -7.726113 80.284149
15.811008 -7.248435 42.611591
-15.487770 0.996063 43.944515
-18.757797 -3.239773 88.219353
19.269381 -2.492963 144.169815
-6.274076 12.306308 98.758255
11.916508 1.548915 22.183437
20.264053 -3.151103 79.502396
0.623618 10.534976 149.701767
23.573196 3.447094 15.175638
22.350094 -4.125334 60.239544
-16.923397 -6.000852 25.878422
-18.019505 -2.636168 103.601639
1.975936 6.384023 94.675476
19.035170 6.325381 138.403427
19.952002 -4.726726 72.771233
-19.015587 -5.279730 61.051254
-1.446583 -16.401585 132.810547
7.546071 10.709453 126.132988
13.077106 -4.228929 119.158394
-4.767011 12.359920 134.103241
-23.638783 -3.830129 76.731857
11.459734 8.061712 27.022060
3.230564 -12.510309 101.247169
-10.717336 -8.577776 49.486534
-31.426373 9.401268 126.674370
-16.953421 -5.816195 98.923241
14.098835 6.442424 105.923721
19.523277 -9.084538 84.085388
6.749440 -12.248735 111.375031
1.996604 11.567986 87.710831
-10.213140 2.749876 42.663212
-3.379491 9.751761 103.375725
25.199108 -0.426276 78.453552
-12.446369 10.780098 152.807846
12.594474 3.728385 44.931961
-32.917652 7.262645 130.156036
1.057694 -11.854760 121.903183
17.164352 7.377003 49.482693
-16.589268 -0.228445 103.802811
-25.623241 7.270295 19.004229
15.457687 -4.005935 65.216087
14.040464 -9.754230 44.566097
21.190395 -1.395722 61.934746
10.708432 9.938771 66.560135
39.531010 4.930869 118.641899
-13.195640 8.014063 53.295662
20.021706 3.827524 149.648026
10.819754 7.427005 121.020477
-25.279068 3.592860 68.564415
-20.632734 -3.744897 66.211952
-33.669945 -2.530834 122.981049
25.644165 4.429875 33.702427
17.393255 1.940151 97.558632
17.110159 -3.927456 97.850250
41.420292 -6.989583 113.251282
-21.454617 -0.021155 95.012062
-8.670003 2.515809 63.054039
19.857416 3.300326 72.178429
-7.578482 -10.083691 103.209793
21.517244 -6.467916 74.154991
17.494997 3.812358 91.727753
10.267686 -4.464483 141.719620
-8.169289 12.613267 88.555855
-12.183695 5.116139 34.583679
6.454894 -8.226872 83.816269
-4.620976 -11.666957 111.498238
9.981232 4.865142 152.305649
12.560672 12.331927 144.543945
11.409667 6.739165 47.398914
-15.826849 -5.741951 120.658722
-36.294842 6.568285 127.549995
-9.155439 11.307505 85.557594
-18.419180 1.219649 8.952378
9.741789 11.086709 144.086014
-18.616131 -4.849503 74.949715
18.370419 11.295997 141.789230
-6.263122 -3.312625 74.029732
-11.625661 1.925918 126.921104
17.621876 4.780345 60.813339
22.619955 -7.022039 84.882439
3.634522 3.197666 67.467613
-23.984488 6.876244 138.237534
-6.541759 -9.266528 99.112343
-1.131531 -13.817244 122.341034
7.218797 -8.343721 105.634026
-45.055511 2.156815 111.274788
26.097801 2.068991 144.338501
19.276278 2.824058 145.800140
-0.910324 -2.253068 148.596420
-19.060555 8.804817 27.758976
10.502116 -8.677819 98.794319
-18.463011 -0.505210 148.873566
-7.632355 -8.711918 75.701523
15.379641 11.989924 4.237556
-27.980793 10.733407 130.897507
20.680655 -1.229474 72.361168
12.346724 -2.736805 119.329712
-2.394558 -2.246884 149.882706
-20.085831 3.336913 47.337620
-10.035986 6.017887 66.217369
13.614693 -2.521778 36.142067
23.113619 -8.280702 76.869476
9.394309 10.456407 84.563240
-13.965031 -0.735316 52.042336
-1.039967 -11.895282 103.822441
-12.121077 -7.028076 100.436356
31.498442 -0.538059 132.050201
7.103321 6.804573 115.937271
-13.587288 -3.167322 31.785627
0.050204 12.783698 93.387222
22.838623 10.314178 16.833260
-15.149743 -0.290862 106.752907
-11.546612 2.207309 150.365601
-2.312939 6.843405 118.095177
-9.373158 5.110944 48.100170
-43.655563 -1.123156 118.258263
-18.182535 -0.778576 146.026550
-19.688131 2.768358 70.865829
-22.963472 -5.934417 42.757565
9.435920 -0.660498 153.677826
3.755868 -0.354470 76.479660
0.823845 -11.531755 133.227264
-22.340660 4.738679 13.567162
-17.695412 -2.301233 27.811047
-23.402525 3.126618 42.067585
-28.903948 -2.399393 134.143982
19.924162 -0.813771 61.814873
-11.736968 -2.450200 26.906055
-5.744413 14.265326 145.105789
23.027754 12.310966 14.485662
17.537918 7.686124 65.739197
-24.389824 9.132968 12.450735
-27.096798 5.044662 18.556883
-6.306247 7.476689 79.847977
-20.372776 3.050900 79.175484
41.476570 -0.788984 119.945930
-22.805880 2.987859 24.506985
18.170235 -4.563622 40.245567
26.628233 10.529048 28.628399
-21.373863 3.827857 56.248306
7.711795 -11.155544 83.954613
-10.488111 7.844350 53.953369
-4.885944 -12.169948 109.448753
-43.720528 4.605858 110.349266
-47.492653 -3.232513 111.291458
39.187263 5.643821 125.327866
15.097894 0.210489 12.747415
-19.350590 11.701377 137.345001
-11.695526 -10.592704 141.068817
-24.913635 1.421248 51.824898
-15.921251 7.419076 64.395699
-17.830088 -2.712015 143.548325
-1.940315 8.635548 111.332123
-21.296265 0.903263 65.282341
16.814882 -8.397572 71.459839
-24.410767 3.308537 16.535955
19.565239 8.204373 138.900253
20.444744 -4.818718 66.518822
10.084076 -8.262862 75.324623
-22.856552 -1.084588 26.892633
-23.471695 -0.395253 139.914108
12.701802 5.933498 74.013062
-13.741973 -9.785500 122.381981
23.847305 2.481119 66.785492
7.235983 13.031795 98.024979
25.163708 -3.573946 79.573578
44.324429 -0.202067 117.446388
-19.734591 5.833278 63.739647
-21.249332 -2.740740 63.230671
-13.079622 -5.757381 130.467880
16.588995 9.546369 88.789070
-10.101100 -11.009076 62.668114
-23.435766 -2.018733 102.800423
-17.090677 -0.068402 111.032967
18.793139 2.151219 73.689880
15.529909 -9.824351 95.770531
-23.497286 1.667936 69.614471
-21.003935 3.307101 16.913132
15.423941 -9.534479 89.381424
35.925926 4.999574 116.458946
-7.106075 -7.223761 65.953880
-9.169175 11.625204 148.009583
14.978534 -7.768261 30.474615
16.466063 2.611589 139.211319
25.363995 7.434656 35.071701
-2.112507 -13.324486 115.668266
-3.812373 -3.409772 72.581886
-7.978166 6.017720 110.761185
20.121828 11.038860 33.696674
-17.577187 6.795544 94.698135
-12.441502 2.372196 30.208801
1.207966 -13.507311 133.431747
-31.525251 1.323238 121.779228
20.766100 9.008410 22.704002
-4.503043 5.658414 84.411568
-22.299017 6.690294 19.612988
30.674593 2.596358 132.870117
-4.667161 11.324284 135.938080
-21.965918 1.175295 88.193352
-12.326560 3.707333 34.002625
4.548981 -7.288576 89.803917
-23.091557 -0.350367 12.399906
-0.119330 -13.332440 134.929993
-18.455141 4.558906 58.729130
17.256926 -4.434538 106.842720
22.006193 1.577199 127.566925
14.542266 8.053425 64.314934
-18.647987 9.474605 49.905415
-25.641703 13.576465 10.687318
4.102829 7.389488 77.655693
5.149011 5.781219 75.135063
-1.790175 -10.862961 119.442154
-13.856305 -7.740901 109.925880
14.283691 -3.333874 12.513971
25.247601 -6.712558 80.999947
-20.259100 1.652025 64.692863
14.010375 4.061845 107.381104
-6.946269 5.980402 107.278152
36.435589 -2.154780 123.846710
15.181983 10.523296 20.818810
-1.814058 11.901087 156.390396
-20.233982 -5.108562 24.276886
-23.292233 7.995089 15.015746
-17.826199 12.580111 64.403458
37.682957 0.382177 125.608238
4.812621 -12.954289 113.764816
-31.125334 1.559544 124.223068
24.155823 -3.769779 73.595924
20.076015 5.356591 71.874138
19.483116 6.944421 146.544571
12.986427 -2.409562 117.673637
17.461660 -7.576987 72.519615
10.134645 11.095913 133.045258
-2.485543 -12.075155 103.861168
23.134651 4.080320 61.372822
-42.246716 4.069035 128.845764
16.810326 -3.337366 14.619874
-20.269203 8.648616 59.916069
21.826202 2.523668 34.592148
15.150823 -2.535477 125.332939
0.347711 8.064151 84.709946
20.442442 -6.723538 74.483414
15.290635 -7.183757 92.132942
-11.914104 6.903014 28.119602
16.243166 11.773000 36.022751
-33.336338 3.065246 120.437820
12.637462 6.474662 26.823177
2.948830 8.929628 77.734787
24.358728 3.428071 34.781239
-7.287972 -7.407023 92.895378
-15.529845 -10.068420 52.339382
32.350391 -1.081237 125.613136
-10.455850 -7.485930 76.853989
44.821217 7.772773 117.030571
-0.113905 0.551916 89.343071
-14.116365 -10.039972 38.017307
-10.395029 -10.703870 101.690987
11.887100 -5.807418 126.440964
9.782152 -0.337155 117.474899
-45.089993 4.857129 109.715096
12.715533 -2.459902 38.941509
8.853984 6.900721 146.171570
23.038115 4.544737 47.172825
12.508884 3.293553 40.709023
20.943289 0.411953 76.394463
10.057181 7.198247 124.728333
-6.542881 -6.584138 85.851761
13.561373 6.881325 134.887177
-7.953026 -0.108171 63.389633
-17.867800 7.980759 143.109818
-7.687356 -9.249608 87.277786
-17.535362 8.990045 9.991158
-3.840453 14.736823 129.219940
-21.260380 14.262514 19.658609
-25.348328 5.527117 137.304718
3.408904 10.299891 93.858620
20.088388 4.344188 34.460552
11.903670 -1.356263 42.048401
12.583542 -9.764116 62.614193
-9.448246 -11.186827 101.636810
-18.512028 8.369853 45.629116
-23.051064 1.019961 124.258720
22.407021 6.349162 42.178181
-17.742260 -8.551787 99.846359
-19.296589 2.840118 69.136772
-23.397366 7.945168 44.345123
8.361829 -9.757450 94.354843
-43.445957 0.356365 122.020309
-12.602159 10.331874 26.606213
11.496552 5.236803 59.372948
22.919281 11.944447 16.314947
-6.498493 -3.950875 147.751602
-2.320580 -10.274928 103.382286
-9.919258 -2.876662 40.901466
3.062623 -8.970248 85.082832
-21.042397 0.971820 146.450623
25.914709 -0.744443 5.167931
-11.965405 5.491657 70.324677
7.184832 7.592509 70.051590
-17.564110 -5.726130 5.472064
22.593361 0.257502 70.137810
-12.451572 -12.718750 82.052238
0.564393 6.990151 155.819107
-3.609972 -16.502991 111.551033
48.995438 5.114256 113.899147
-19.091248 -6.435473 82.720711
-14.272599 3.883585 127.578369
23.934153 -10.807358 75.286507
19.230906 3.309148 65.843094
18.439034 3.128378 64.296707
8.506793 8.501865 127.455482
15.817739 7.763398 13.606162
-0.832555 8.904124 127.686142
-23.306108 4.841258 57.210957
10.083054 0.404595 150.625000
10.453358 6.164685 129.109985
-25.813578 5.538987 126.579491
-46.887238 4.188365 120.101822
-13.181974 14.900860 38.333611
-1.364556 -6.652944 144.034180
-20.559448 6.056112 131.195755
-30.625853 -3.199682 129.083710
-15.751020 -9.502569 44.402122
1.464463 12.405528 97.908897
-29.208385 -0.559157 6.102725
-7.901446 -3.292583 54.138672
-14.094110 -9.661958 77.868774
-5.235609 -0.234791 64.485069
16.210873 -4.369072 94.626976
-7.402423 14.881275 151.848404
7.388484 6.845197 155.345184
11.401161 10.133628 56.876133
17.686214 -1.756744 89.112480
35.186565 -1.800363 125.706642
20.490122 -2.313480 86.867302
33.667595 4.762994 130.940216
1.301946 -5.314371 84.317139
-11.736630 6.698227 28.312147
18.745859 8.472101 132.258957
-0.588054 4.332258 115.278992
15.244904 1.785844 139.132645
-19.561003 -2.045725 55.526997
-9.202480 2.037380 42.938564
7.643402 -6.749227 84.334129
17.783604 -9.273074 69.107140
11.800071 -5.069707 146.462723
-34.244865 12.515524 117.730003
16.268614 -5.398651 6.705013
-2.764176 -11.342254 105.188713
-33.804256 6.417580 134.956085
21.091240 -4.917808 64.185944
2.352315 -1.660922 85.395821
0.772192 -8.568733 148.527756
-15.154540 -9.692134 71.561485
13.547646 4.501857 22.204634
19.219246 10.213801 62.167561
43.211803 -4.575128 120.751305
2.330904 -9.848098 135.759750
4.875456 -13.357690 127.979240
3.647385 8.839076 146.715714
48.315487 -0.378781 113.075958
3.587464 11.355110 87.595612
-17.812128 15.355468 41.488583
-4.158579 11.306665 92.052292
10.929060 -7.298713 139.694412
-12.159149 -4.575604 58.210430
-12.679201 9.582719 28.379723
1.437522 -12.857018 114.444702
49.913624 5.402578 111.805695
-10.234258 12.509478 138.294617
-11.625092 8.924395 106.542648
-28.647743 5.507783 120.828285
21.438955 -9.360770 79.997200
36.193050 1.044299 113.096573
-0.474845 11.675039 100.295013
-47.256363 3.501303 115.916473
-10.558551 1.881948 126.119301
9.035218 8.234087 82.658524
13.106782 9.133917 33.690193
16.730545 -4.463419 30.015554
-8.270223 8.811507 109.965164
-5.980377 10.830291 108.278587
24.223568 2.552852 128.401978
43.624676 -2.300301 120.316322
28.401363 8.023502 122.028381
13.318377 -5.338780 127.252151
24.629005 9.013802 128.827911
-15.534527 7.902392 14.227015
-14.683111 -1.127397 111.072861
27.275532 -5.294780 78.320488
16.607449 -2.745861 79.644264
-13.299449 -10.794177 76.903740
-22.233715 -1.673836 61.441891
19.705404 1.535221 72.076958
9.138208 6.305203 45.460140
-23.409538 1.177567 62.066666
-14.411049 3.705194 15.545193
-16.677311 3.882864 86.187759
-18.208035 5.846714 144.531113
3.643111 9.757619 88.020576
-5.853203 -7.033340 80.393967
12.910625 12.273004 134.612228
-2.323209 -10.901391 113.843185
47.578278 -4.715728 111.767822
46.530460 4.243668 116.204590
-11.442942 -1.444726 116.885979
-15.747225 6.584283 60.969414
16.343096 11.714452 27.729031
14.284764 -5.110497 33.163013
-4.076745 7.712210 84.946419
15.831934 -8.201166 94.767548
-11.318430 6.449852 56.116165
22.229202 -2.590070 62.971931
11.129574 10.756178 136.945099
-12.468792 -11.649881 137.140503
-11.571925 -7.553608 111.010933
-30.630749 4.374590 124.356918
-2.296652 12.108425 91.473938
15.335547 7.418386 96.027283
-14.841187 6.939366 139.080215
-17.603115 -4.664576 46.971264
1.385825 10.870244 150.077423
-17.500290 -4.727100 67.154457
14.924821 6.533613 142.719360
22.955767 4.990104 16.022577
-22.031696 7.525629 13.329204
-5.897537 12.778398 97.518219
0.131207 -9.249869 136.412338
-19.810930 3.626170 87.242851
29.302256 1.136507 127.263702
-9.786656 11.609294 134.979568
-16.087193 0.867633 131.203888
-13.270502 4.294235 75.534668
9.235857 14.194684 85.035477
-17.050470 5.541405 57.224266
-20.069925 5.021671 8.977358
-20.322031 9.412119 1.982480
-27.075661 -0.088018 134.906342
10.245432 10.647537 78.761276
13.554516 -7.948683 66.090988
-16.200378 8.642092 92.067223
-16.675179 -1.196647 19.113010
11.759139 -12.215788 102.224777
8.672355 -8.383943 78.329254
19.668749 12.252047 35.443565
45.743397 -0.756496 117.343475
