ply
format ascii 1.0
element vertex 2048
property float x
property float y
property float z
end_header
10.104428 10.224741 148.595505
4.479162 10.311550 155.553970
0.683016 9.116319 155.222427
-12.702162 -8.680944 106.506088
15.061287 -5.591818 108.154808
-8.459083 -8.876140 94.324089
6.192012 -1.802671 149.173340
5.041105 -10.930046 86.770416
-7.317277 12.671017 87.594727
18.115608 0.961036 97.445999
-9.213419 7.747033 128.933929
11.029161 5.850934 151.514145
15.249795 6.606698 87.086723
-1.648816 -11.288082 80.388824
-8.680436 12.608501 88.496864
11.003562 -13.440948 134.144211
-17.758831 -5.488037 91.561317
-1.837766 -14.097780 130.202057
1.794912 11.069179 139.010818
-20.257608 2.461987 84.783516
13.615517 -2.557549 147.207626
4.409430 5.101099 156.819519
-13.291515 11.247993 141.114456
-10.849571 10.957323 98.765350
16.639357 -2.977277 131.646973
13.294286 -8.684481 139.664398
-12.980508 -11.336701 92.314728
3.283126 5.988448 111.047791
-14.446887 10.004762 93.122452
-5.674165 -10.330129 138.926147
-3.495746 -13.855225 133.444656
6.843719 -2.961660 144.951508
20.351439 -4.848832 87.640900
-3.866375 -8.685328 141.765396
15.113070 -5.721984 134.231598
16.057749 3.657436 95.920517
8.529831 -9.687940 85.660248
-15.843573 8.096453 86.258980
9.524341 -9.681322 103.152222
-6.908460 5.803988 120.664131
0.208925 -13.474052 128.446335
-5.052965 -4.302900 152.463043
19.349226 0.586689 85.235870
2.842941 -12.983011 132.132141
-14.321661 -1.594057 146.159119
8.675921 8.395741 86.275032
7.559836 -11.999565 110.452950
-13.898438 9.512191 142.585541
7.629387 9.758730 126.086609
15.688103 2.510433 107.980270
10.145761 -8.221488 116.894478
-11.291421 -11.766752 84.183418
-6.693241 12.891420 92.741119
-16.596643 -4.173749 131.718216
-7.328470 5.427918 116.697807
2.835622 -12.855967 110.563278
-13.135959 -5.546076 124.512825
12.698395 -2.868050 118.142258
-5.783178 5.786479 116.218758
-0.338832 14.304780 132.375763
19.075983 1.109752 103.000679
-2.254287 -14.756200 129.058502
9.221494 -5.864212 139.783829
-15.478670 5.266036 99.238838
-4.589077 12.910926 91.585213
15.170568 6.589243 135.186478
11.929766 2.714965 128.613083
-5.658082 7.390102 155.790009
-3.216983 10.630458 126.209419
19.896152 -7.840090 88.404358
-8.632857 -10.777194 122.747665
12.972982 -8.998478 127.813576
10.816192 8.137370 136.542725
-8.034471 -10.098804 114.861351
-5.336230 10.284640 128.513275
16.822750 -1.168302 129.163361
6.866040 6.514032 123.140198
-5.826858 -11.934906 106.151474
-13.639492 -6.703725 102.138466
10.388041 10.135480 93.274658
11.292568 5.466539 108.550743
10.209942 11.338030 87.055649
2.619920 -12.790771 102.629112
-15.139551 7.618222 88.973160
22.238897 -0.828105 84.053810
-3.912636 5.974668 158.412567
-1.996042 8.455717 160.171951
-10.822430 4.123989 124.752518
8.007873 12.916979 140.822113
15.089548 2.150635 126.308266
-14.891438 1.904918 150.331741
-11.815246 -10.025227 83.785042
-9.335460 7.246126 107.009827
17.017757 -2.697288 98.954048
-14.875715 -0.864852 133.992859
1.019165 -10.860289 100.068794
-6.640362 6.984156 124.891594
-6.393904 1.804548 150.126953
1.606613 8.421210 152.588043
-0.962527 5.864536 118.673958
0.903316 -12.817117 109.067574
5.768228 -9.776958 87.279579
5.081861 9.786578 127.138771
-14.881630 1.809708 109.358017
-14.862054 2.294183 105.062256
9.413709 12.725531 143.053131
6.093534 12.155761 132.602234
-5.813768 4.292642 117.762131
12.567268 10.257005 147.678543
-2.235140 -13.404757 106.760559
1.405568 -13.012815 127.241257
11.927506 -9.744251 128.887390
-5.098149 10.868473 99.632080
10.904271 -9.562024 133.439041
-6.508698 -1.321965 151.364578
-19.492327 3.200210 94.737213
-12.161026 0.153737 122.296364
-7.793956 -9.849300 92.214157
-6.320891 6.002951 121.805557
-10.919692 -9.547448 108.042038
3.868928 5.604106 120.008774
14.195876 3.678333 109.457787
1.359349 12.121305 147.874084
19.201809 -5.335257 87.395355
15.670721 10.416089 139.467178
13.317824 3.146431 129.212234
12.798789 1.453103 113.598526
17.966614 -5.060913 94.701271
-3.880314 10.560201 152.739410
-10.535819 9.982485 100.371498
-14.740883 5.302585 102.949982
10.891788 -5.704884 123.868050
-13.026375 -8.268117 97.540192
9.913561 -11.462852 123.815727
8.897668 -10.762536 122.606850
4.015898 -9.106858 94.534653
10.407576 9.906202 144.327911
12.593944 -5.970969 119.832825
-8.829824 -9.678443 112.808586
-8.334960 12.234457 140.924789
13.319037 -2.466572 137.597275
-15.533846 7.869210 149.039993
9.373110 3.950429 151.882446
-8.544926 6.176065 122.343338
7.555242 7.178479 124.738716
3.749202 9.510433 125.743729
3.208354 -11.314520 91.243568
-17.076313 -3.541439 132.197601
-6.888687 5.462284 110.625809
-13.395062 -8.506128 135.004471
-12.984253 -6.926692 144.441315
-0.042927 -11.458825 122.669662
-12.406200 -8.221663 103.049896
-18.168289 1.829342 97.243988
-9.788690 -8.874048 140.411682
-11.549026 -9.384051 132.188309
-6.667378 2.779866 152.491165
-10.780040 10.095225 88.064537
1.779294 6.521687 156.132431
2.892651 11.971768 133.585968
4.044098 6.183537 123.100761
-11.157117 9.001350 154.005081
-14.140385 7.795489 149.865158
-6.106393 13.146615 144.161865
-0.236265 -11.160193 113.989357
-18.035551 -4.476865 104.346710
-12.286207 -1.554334 120.561531
-0.549232 7.256502 109.434425
8.255982 12.660614 89.194061
-9.946894 2.726429 115.102524
16.259548 11.285902 144.514328
-13.673515 -2.129201 120.984039
0.688987 11.884384 127.626778
-3.168874 10.805655 84.720818
0.210298 -10.542144 143.136124
12.950610 11.332664 141.639557
-12.729992 11.982633 90.382347
-9.824676 12.312482 139.979980
6.411929 13.328400 136.665985
14.168966 13.038521 138.293991
15.508080 -4.236017 106.424652
-16.526325 -7.055188 105.495911
8.733014 -8.299570 93.197746
-10.944082 10.811826 138.364029
13.979715 -8.422531 130.861328
-2.561391 8.899513 89.528183
13.672568 -0.094497 108.450447
17.180723 0.681516 99.286781
10.219431 1.591172 121.392235
1.495769 7.605039 158.519409
-1.146545 -12.073461 112.992073
-8.195452 -9.788423 86.097389
7.770230 -8.726015 83.574257
9.170158 -12.384307 135.561188
-19.530607 1.138739 90.683052
-0.200621 -12.770961 129.066238
8.974679 7.994099 151.185303
-16.126991 -6.466340 134.481888
3.469890 7.196277 158.762390
7.121757 -11.125532 102.478783
-19.201059 1.997057 89.494476
6.044336 8.230205 85.201706
-12.946216 -0.443615 116.159393
3.117631 -10.239045 90.446449
13.927699 7.418227 137.880219
9.419038 -9.570193 97.087936
0.447366 7.424814 109.452682
8.059138 -10.543679 103.058395
16.689342 5.037861 95.788940
-16.245808 1.778778 100.848778
14.379313 8.717174 91.290985
-4.726604 9.696093 105.695518
3.220260 11.703342 149.375351
-7.460126 -3.042797 150.924057
5.556424 13.211319 87.500809
17.533863 -12.981025 83.134811
8.240731 11.857300 101.309921
15.822407 -2.911229 147.160416
-15.646771 -5.579802 141.625290
9.418412 -10.114637 95.729156
12.960718 -5.493940 122.070984
-5.478034 8.809863 130.606262
-1.893534 -14.940068 132.669632
16.191635 1.832230 100.246635
12.012432 -9.901894 136.912659
14.104335 -0.113680 128.703842
-13.618198 -7.498351 130.705780
-1.948977 -11.106391 112.790436
2.261074 -8.573199 82.729073
8.486515 8.427014 105.410919
7.587235 8.347961 106.346428
14.502963 -4.160764 126.695763
0.303513 10.021852 105.918396
2.249093 12.845836 138.979492
-5.679182 -2.062086 151.529175
8.842231 -9.163005 93.648750
0.986019 -12.586225 101.040825
5.702122 11.118255 148.411987
-4.831787 4.654663 157.105469
-12.387630 8.941128 137.889923
8.044544 5.240422 121.454041
-10.349435 9.963376 103.387123
2.461435 -12.691916 134.986633
-7.711688 10.231820 86.402039
2.832683 10.045847 87.519791
3.187330 -10.550825 141.841461
-20.633486 -7.195472 81.381905
-9.185078 -11.536862 108.989166
-11.204169 3.249785 112.373749
-2.844699 4.203157 117.144417
1.825688 -11.573584 126.762222
-2.008976 -11.899390 137.485367
19.666798 1.696815 87.082016
7.373267 0.358940 148.125290
-18.364420 3.855623 87.865540
9.195908 -1.024586 148.250534
-10.676867 -13.745409 134.138672
7.508811 12.870234 146.243195
16.130367 -7.367562 97.930382
8.248252 -8.036449 141.926697
-20.022486 -1.119198 86.410187
-15.555288 2.787857 137.496857
-14.771698 3.988453 135.074783
15.905152 7.140128 135.862030
-14.342190 -5.150767 132.156982
-3.274360 7.042366 111.140160
-17.867788 2.085141 99.031425
-16.208801 1.260472 104.169312
-13.649478 4.135373 104.255852
-1.717276 10.022328 127.731331
-12.218422 -3.099145 121.944183
6.918131 -14.213891 131.141525
12.545186 6.283429 127.615311
7.523810 -9.813062 116.935822
3.879677 -11.175158 89.304153
-14.533843 5.016686 102.116318
-1.875515 -13.200915 108.333954
-8.210894 -11.134972 137.904922
-7.207793 -13.526740 133.777344
16.545328 8.844548 148.753815
-9.011228 -10.195866 101.337570
1.399624 -13.122204 105.898293
-16.583557 -6.236631 94.432312
11.362353 -12.430386 137.189178
-9.949806 -10.141442 125.549484
8.440004 12.376487 135.058701
-11.568921 -2.860633 113.808380
18.559845 2.222692 85.079086
4.914514 -7.894877 145.319168
-15.874467 10.169394 142.645096
11.654283 -10.392149 90.479950
3.812491 -14.717852 131.852997
1.545661 7.911191 155.837402
-11.203494 1.458726 117.728889
-8.544403 3.063742 115.893250
-5.265403 11.103316 144.900574
-9.484907 2.600289 118.176125
16.106449 -10.562058 88.786186
-1.453638 7.692426 109.210632
12.294319 5.205275 112.699043
-13.083287 -3.243291 108.088326
9.184193 -8.600100 140.795029
-15.887711 6.721121 135.069717
-16.391199 -7.941934 87.603584
2.379116 13.355703 136.190231
5.968352 -11.724081 98.462479
-14.569708 -5.161198 143.958466
-10.977522 2.253286 123.336166
-5.336680 0.452641 149.995483
-2.086121 8.695363 106.467636
3.721233 -4.000494 151.666718
-15.783737 -4.785955 146.251587
12.814282 11.062063 144.561691
6.533798 10.919676 149.567627
-6.565133 7.998464 122.460426
0.675237 -12.040953 101.492332
11.126956 10.897566 138.125153
-11.485459 10.483779 83.145988
-11.941066 -6.114295 115.456299
7.098036 9.346720 106.879120
-19.180630 -5.130209 82.206200
9.332429 6.559012 124.080109
3.305227 12.562644 138.188675
7.087753 9.296283 130.131500
1.594951 -11.461204 138.073364
8.214644 13.104914 143.737106
-10.347733 -8.142699 120.777351
-5.875133 -13.485189 124.576714
0.010662 -11.751979 123.149872
12.883272 -6.096809 118.833977
-4.279650 10.924649 102.354202
-19.035324 1.404506 94.125511
14.159802 -8.620509 90.522408
18.173532 -1.731138 94.346252
-8.414007 -12.576634 140.075470
-8.915194 -12.143467 94.226204
-9.346668 10.442231 148.384598
5.632503 4.947542 156.954010
13.785880 -9.160399 89.106247
-12.731023 10.965553 147.358887
13.024968 -4.989985 118.742622
-17.457462 2.005552 95.173225
-4.526052 12.839643 92.279892
15.795467 -0.504802 104.470955
6.733533 -8.884825 141.258560
-16.913805 -9.028025 89.150612
-3.500116 7.977488 155.175934
1.605793 5.050221 115.969627
12.439280 -0.969891 122.484238
4.538681 5.241618 115.442909
4.222375 -11.720624 108.628120
9.039720 -10.159860 98.464493
-3.880150 -8.294227 99.103195
-3.841564 8.197187 122.738449
-10.798836 4.858396 125.897522
14.991449 -4.787053 129.924530
14.115246 -3.752987 138.452286
4.171958 -11.659416 107.372246
16.448336 -8.128857 96.101738
-6.737927 8.717949 105.809509
1.979503 11.722335 138.439453
9.759511 2.400750 151.421967
4.586571 -12.514129 139.316071
-2.398530 12.226554 145.863464
9.196010 5.331541 113.014305
9.970732 -12.169273 131.430496
21.968702 -0.047051 86.530777
3.537674 9.247953 152.333908
12.866903 4.566159 105.054123
-4.413301 8.406153 126.868660
-13.519044 1.160725 127.524590
4.931911 -13.917061 133.489609
-16.177160 -1.484520 146.985794
-9.658607 -8.389394 91.872421
2.947227 13.235490 92.352119
7.511106 4.869364 121.742271
-18.687241 -3.808596 95.935638
12.802643 -7.869470 107.691681
0.620036 12.823683 133.973068
-1.049845 -12.121603 111.794716
9.013352 7.495911 125.697838
-11.690063 6.577218 126.761024
13.965312 9.414332 142.411057
1.578592 14.104465 137.146164
0.466224 14.879817 144.863434
6.021136 -5.478773 144.912643
-0.104182 -14.185849 121.413795
-13.422905 -6.934177 125.263168
-1.829417 11.362941 141.579163
5.681210 9.417929 84.159943
-3.425478 6.888040 109.262299
-8.221958 13.192071 141.387970
12.248934 -0.665612 109.802155
15.643705 -5.353879 130.632797
1.648199 -11.148660 137.493927
12.841888 5.339133 152.831009
14.148956 -3.544617 138.691223
-13.603800 9.446660 93.314667
17.064659 11.115589 142.030106
7.271852 7.377117 121.669220
-19.870663 6.773445 151.182556
11.267181 -8.773058 140.464493
-0.974356 5.677896 117.705673
-15.434244 3.563023 133.858307
5.577075 -11.010715 102.688446
-14.081961 -3.713257 147.447327
-10.807146 -10.771674 127.688950
18.447399 -1.122505 99.276276
1.260789 10.568937 105.386795
0.110976 -10.263742 89.862564
16.009390 -11.215971 85.877495
18.691143 -2.067690 96.708412
0.553642 12.023273 129.281265
-4.459231 13.105920 96.884979
10.793346 -0.775252 146.726883
0.768835 9.380759 159.727509
12.647638 -8.506966 107.639587
-5.226647 -12.376877 135.732162
12.372191 1.754489 111.054878
-16.876398 7.293210 91.901466
2.515825 -11.115644 101.805458
-15.199804 -1.409525 107.199043
-12.093427 2.784707 152.643158
-14.112263 -8.219403 139.978485
-8.828594 5.871181 126.100784
-16.977844 -3.016621 145.673111
16.171398 4.567775 133.392410
14.505618 3.387757 130.757004
-5.190120 10.679194 85.588882
-7.981636 -8.190724 112.789047
-7.905938 -12.825646 129.649918
8.895166 -5.652722 145.173569
5.132711 12.183077 139.279663
2.816926 -9.301929 136.439896
-10.208691 11.525365 137.988174
-13.680939 -7.102753 107.009087
0.506382 -11.957009 132.484177
-14.706383 9.757077 148.820023
-8.317124 13.261910 95.588860
-5.780538 5.332314 119.248474
-8.414847 -4.047234 149.702271
13.987075 8.374209 88.790413
-13.053845 4.826379 130.312805
-6.371160 -14.439584 134.375443
-10.223559 11.085704 147.305481
11.482082 1.997987 149.861511
-4.821694 -4.568001 148.286362
-0.268015 -10.660207 92.941399
-9.520970 -10.412909 93.095200
-17.584330 6.080956 87.084579
-14.747272 -1.214592 124.371819
-18.758293 0.154660 146.271835
12.385862 8.310115 102.603592
-0.534068 -12.426785 129.915817
-14.475711 -4.079720 102.038467
-8.898012 3.858579 114.381454
19.112144 0.425201 93.889336
-2.546010 -9.364788 139.631546
6.654356 0.418184 152.955048
0.826609 -10.405380 97.136169
9.310823 4.571497 107.235413
-1.081366 -11.886737 123.421883
-0.569999 -14.051535 104.274567
-5.097437 8.110690 85.064064
13.297719 8.562420 97.810478
-12.724732 -7.615835 107.930244
-12.089690 -3.813143 117.208939
7.052950 3.822428 120.333267
19.795609 -5.585156 87.084724
-13.265771 -5.343640 110.426277
0.361052 12.909050 132.719467
7.168026 1.224763 151.559708
15.302344 4.300738 102.506088
-6.054047 5.457594 116.614098
-12.955115 -8.042253 127.807854
13.766391 -4.917610 109.729042
13.801982 -11.583893 132.152115
-7.749186 -10.349127 136.703339
-0.815093 -10.266181 91.869919
-17.510004 -6.922364 93.602219
8.565992 -11.835553 83.084633
-0.402179 -16.141457 127.631195
-2.478695 6.409173 157.411194
16.400545 -7.548723 131.677734
12.515247 -7.018177 80.499756
6.845558 2.140753 153.515762
5.494725 12.400835 96.372375
6.300905 11.910935 145.759781
-9.509597 13.585979 139.429413
2.408042 11.210274 129.364075
-11.364288 11.357158 96.576561
-12.861409 9.780439 133.746643
-12.130761 0.571363 112.478889
-5.661792 12.536158 136.156036
10.369137 -11.741207 138.014984
-12.100822 0.555682 119.339844
16.892420 -5.931455 95.673325
1.856116 6.944156 124.721718
17.108145 4.963666 150.750549
0.814713 12.029069 131.615768
6.682278 -10.467111 100.497833
2.189036 -10.971818 116.090897
-4.700531 6.340446 113.826912
8.898396 11.481009 146.788666
5.740696 3.238464 116.172585
4.635973 -4.414619 148.124619
-15.375829 6.648995 151.641373
3.360836 14.104210 94.567093
3.212503 -10.862859 87.716171
7.203603 -9.851645 140.697754
-0.867202 -11.451994 115.407585
-5.880849 -11.683371 101.585068
12.781356 2.221820 152.487900
-19.759939 -0.148958 90.207626
-15.628604 0.135373 128.039948
-5.780527 -3.928303 149.737030
-18.207373 7.130548 88.508682
16.208361 -4.839594 99.410179
2.952623 -8.682341 144.166351
7.670148 3.882522 116.428535
-14.974384 -10.842875 87.663460
-12.408945 0.052796 110.218407
-10.850629 12.494246 136.210815
-3.411142 10.688474 145.692993
-10.801338 9.823420 151.058578
-17.281469 -5.234715 98.649162
-6.774410 9.430311 104.164223
-12.410033 -5.025383 123.325684
8.618207 3.338661 121.063156
-19.567566 0.367061 92.056747
8.491767 11.086905 142.900558
-11.947392 -3.214833 117.432259
3.525706 12.866557 133.781738
-9.394465 3.657831 119.862534
8.794557 4.209100 125.819023
4.969279 12.164056 135.251373
14.470163 7.944988 96.469391
17.882397 4.447999 92.708054
-5.417303 -3.556684 149.537079
2.564989 -12.552624 98.159607
17.544039 6.742780 94.906204
4.761142 -5.700275 145.192627
-2.786159 -10.280497 142.494034
6.452760 -5.864892 145.384750
13.270085 -1.245822 119.724159
-17.477995 1.964884 91.266220
-17.806637 0.193744 102.370407
8.714908 4.539561 113.327599
19.175707 5.650138 84.087097
13.357812 8.387061 96.752838
17.325891 6.730717 92.253525
-9.133204 9.722577 83.354630
8.589386 -0.289783 148.993896
11.046358 7.104128 149.152908
-0.574488 9.609869 107.904518
-15.600473 2.727989 131.958145
0.168913 -11.165748 138.371933
15.022734 11.322965 85.610748
-9.582500 -10.491254 123.570869
0.502913 6.617325 111.063911
16.087994 5.242807 96.142357
-8.122047 6.984283 122.078400
5.067502 -11.389457 144.024780
13.491704 -1.239917 115.817741
15.152591 -8.776842 137.915497
17.833086 -4.932030 92.725090
-20.528666 0.443080 101.143227
-1.505840 -10.331512 136.488998
14.786423 -4.054929 137.795898
8.795322 -10.659329 93.019012
1.393403 -15.541778 132.636993
7.488184 -8.407255 143.048096
13.125877 11.039495 139.471786
-2.862008 7.742797 106.258369
14.556442 -7.095999 99.505096
-13.376946 -9.895119 130.501526
15.610558 -9.967496 90.332298
0.067806 10.907098 103.146164
-15.064209 -1.345546 137.895645
12.156155 -2.592084 115.971230
14.498937 3.376275 133.824936
-5.451190 13.628457 98.693085
7.506462 -14.557584 130.696686
5.774469 6.859936 154.225464
-7.674068 8.610216 107.247108
-4.158142 -9.680078 91.203033
-13.468053 -4.578834 111.650764
7.326933 9.416342 104.158653
11.412563 -11.468720 86.266144
-8.547670 12.948297 91.939270
-8.817397 3.017947 152.770554
14.641449 9.611465 95.723450
-20.873528 4.791802 85.051315
-6.019181 -13.617877 134.090790
8.137817 -1.506875 149.809418
-12.407464 -8.800121 129.084396
-9.338333 -7.997104 140.522919
3.284334 7.649574 107.229210
1.482091 13.209246 147.677979
11.763943 12.975561 138.891678
-0.370082 11.513333 133.744980
10.351524 2.759389 115.861244
8.981024 9.179725 82.653969
7.074924 -10.969051 98.914291
-2.192583 -10.891481 122.412399
-3.212815 10.563222 150.297913
11.706994 -8.584952 93.034500
5.419223 -1.221743 153.277527
-12.060223 9.654600 137.881805
-11.840741 3.007865 115.410347
-10.728774 13.076830 97.108368
-3.409869 13.356116 138.845383
13.338846 -5.851876 116.990807
3.060686 7.715326 157.184311
-7.925436 -11.838691 128.060623
-4.078094 -11.488699 133.180695
-2.271795 13.450179 144.388962
-14.142533 -9.264471 89.033737
-5.495459 10.882766 130.992050
17.761641 -7.271842 96.344666
13.904305 6.726621 99.156593
-3.637913 -12.238764 103.929672
-14.918609 0.600354 149.370331
13.623781 10.059189 87.997543
2.819226 13.020506 138.511948
-12.935774 7.556431 99.903259
-15.387197 -8.871137 105.770126
1.493123 6.336329 122.308205
7.397961 -13.623249 130.438919
0.251460 -9.920378 90.660141
7.474071 -11.308691 119.997032
13.352015 8.421868 94.744057
-6.080547 11.146034 129.530258
14.526463 2.982287 110.582222
-4.389567 12.191793 133.797501
19.306545 0.719734 89.134354
-12.010260 3.699484 122.957497
12.990041 0.442510 126.765381
7.821437 4.995144 113.134445
-2.834540 7.494101 85.815125
17.070770 -8.371733 85.916069
-13.317998 0.447548 150.258453
-14.926451 -4.389134 135.268875
7.146864 -11.678289 145.494980
14.349302 0.250109 127.952957
-16.444754 -3.888943 104.490860
-14.276402 2.169974 136.856033
11.363809 -8.307295 121.703117
11.622560 -1.167173 124.197327
-3.537102 -8.853194 143.390518
-4.313047 7.945368 159.346863
5.184855 -10.092532 85.809898
-15.267631 0.496834 108.982094
-16.236414 3.179851 131.611572
-16.452385 -7.870774 89.606888
7.312027 -15.886047 131.653137
-13.940903 -9.685319 108.246727
11.003600 3.512609 151.288635
1.717683 8.654311 126.841209
-14.679335 7.791728 151.100327
-3.767776 9.343063 104.354179
-17.825706 2.501692 146.144135
19.860695 -1.958269 90.165710
0.213616 -13.104719 123.697990
17.111708 2.403574 89.512512
3.788255 -9.535358 144.230637
16.785313 5.604144 88.150505
-2.759242 10.151079 100.950546
9.954348 -8.172278 125.553024
-9.358094 -8.510627 115.265373
9.706005 -7.574400 99.974808
1.806577 -11.815733 136.659897
12.508218 -3.246682 115.518089
-1.005884 8.460652 103.652000
-16.090845 9.639084 93.789093
12.913285 7.506227 134.480453
-2.063023 -12.687912 107.120644
-19.126223 -0.313917 92.249336
-4.541782 -14.956501 128.607071
-2.299618 10.542455 148.930527
-11.885191 8.474792 84.265877
-10.372254 3.852349 121.536072
11.015808 -3.268011 118.234749
6.972559 0.132941 150.760162
-14.889941 -10.536501 132.839142
-9.212738 -14.517166 133.043060
-15.226331 10.325103 139.792480
-3.534203 8.636009 109.894897
-15.272827 -5.214250 131.405640
-14.391065 8.952982 135.452332
-10.569139 -0.684096 148.963867
10.624397 8.181995 128.345428
3.815101 11.207607 149.133362
5.858802 -4.112391 144.713150
13.244767 -8.533681 105.975975
-1.894226 -13.387769 116.641197
-6.328837 12.136920 134.011581
16.757620 10.725980 142.029205
-5.367442 12.239244 85.752838
-12.971502 8.741229 134.267868
-17.200041 -1.698254 102.178055
-17.860332 6.892770 87.634842
-14.657876 9.329894 146.151184
10.863376 8.674309 151.282211
-16.156694 -7.975425 94.069748
-9.383710 -11.341778 119.082405
-6.618293 -11.363763 107.911049
-1.927534 8.016227 109.935623
12.447390 -9.260212 111.815102
15.523582 -6.355897 99.636536
-0.126463 6.820045 110.773026
-10.127204 -11.435278 109.235527
-9.459777 -10.462239 100.396896
-11.756621 7.286047 104.623116
-14.586140 9.817456 94.498184
-16.489273 -3.173672 147.452820
14.631726 -9.176197 90.259842
-4.849687 12.399062 92.047508
-12.896553 12.283853 141.786285
3.126057 7.378888 123.195595
-10.048595 3.508317 152.756866
-11.098634 -1.678703 125.561638
15.667776 7.620061 96.360252
-6.218651 1.255927 153.632950
-10.304294 11.042348 133.624100
-6.961523 -13.844240 127.107994
-10.775821 2.258749 125.096100
-10.267089 -10.699190 95.213730
7.545128 -8.421819 140.766113
-15.358495 -1.961194 135.387817
-12.632296 11.454147 146.993637
-3.688912 5.615233 108.598320
12.286648 9.451141 85.900627
16.193607 -7.386071 103.517548
7.186822 -14.413446 138.818695
12.139024 0.847306 115.220062
1.774460 -10.215940 140.309586
-0.242488 12.559626 135.110046
17.757931 0.721524 102.624306
3.979637 10.164337 127.595062
-5.744701 0.797691 152.044128
-3.883276 -6.705694 141.599457
-12.699501 10.142847 136.563583
14.464566 -5.634604 98.230057
3.602044 -7.391013 146.488800
-14.785515 9.121933 90.473709
0.937647 7.350131 108.984818
4.391538 7.497664 125.152969
-1.876117 -8.121211 83.233192
-16.210840 8.323561 95.613861
-5.584455 -12.516213 116.264809
-3.165956 11.176800 127.552124
-14.663273 -2.691693 127.857162
-2.776789 8.026120 156.776047
-12.675344 -1.155870 122.367546
-20.419546 2.237207 85.747467
4.953656 -10.409597 85.298294
9.949585 3.335386 120.021446
5.180853 -13.410737 132.532013
13.323256 9.423256 86.025299
8.300184 1.393292 150.608261
-8.118105 -4.752898 146.520996
-5.934610 -10.309684 144.082703
15.827554 5.785914 92.741211
13.448090 9.905379 91.161942
-14.973645 -7.345888 99.036598
-9.176772 -3.747471 145.696091
-5.622040 9.256146 156.257599
-13.700603 8.112464 135.965698
17.021345 -0.313046 107.472160
-19.043682 -6.020488 93.752747
0.005181 -10.436842 115.416435
-1.389756 -14.181473 103.658821
-10.583569 3.764409 120.859894
5.526150 -9.889917 88.659119
-13.317756 8.149429 97.459244
-12.887362 -7.974371 134.853958
11.633538 1.571497 125.368988
-10.718685 -10.158079 83.711754
2.586432 6.846878 158.014648
-12.741211 1.421521 123.211174
0.528561 -10.926026 105.683578
16.727667 10.775269 143.817963
9.860188 7.020211 125.319275
-9.006922 11.410328 83.796982
-16.975201 3.899042 94.051498
6.429382 9.871805 126.604027
3.565694 9.999888 127.423973
15.949533 8.317905 89.649597
2.977428 10.243219 85.818069
-4.247663 -10.396333 85.027519
10.083540 -1.458488 123.944412
-6.289637 -0.115386 155.066910
18.890356 -4.724794 100.735992
0.256099 -10.007844 86.286591
-0.976043 11.667779 145.936401
-6.415188 -0.428283 150.489853
-19.266768 -4.156475 89.718971
-5.144000 -12.586190 124.282600
18.604191 7.045248 91.263924
-9.583351 7.697235 104.638695
-8.889614 -13.035688 135.095230
14.880985 -6.704225 128.357742
-2.215719 -10.307176 137.644623
0.196416 -10.481811 97.810997
-12.067292 -0.102630 125.102783
-1.285235 -13.484446 122.381470
8.383436 5.799379 120.158691
17.248463 1.921590 98.255516
-0.113293 -12.152112 109.101387
-4.183565 -11.281515 121.888390
14.092992 -7.417405 101.226715
2.312417 11.278871 151.306030
-0.117673 -14.096292 127.550438
13.688671 -1.587164 112.299606
-15.024216 7.048469 138.154312
-8.140501 -13.055377 136.272491
1.518132 9.157870 104.969688
16.002348 8.307987 148.197433
-14.884064 -3.136751 139.080902
15.162392 0.744720 105.909149
13.421721 10.374262 91.053734
-4.002796 7.596792 110.810928
-16.382195 -8.521534 85.044334
6.656804 11.278934 147.386383
17.198137 -8.666034 90.796852
15.831356 11.130237 147.115005
5.706569 10.484101 102.699814
-11.085451 -7.037629 123.859230
18.426546 0.886652 96.098152
-5.999248 4.029819 152.858810
-13.998391 -2.157734 128.301788
10.875600 11.441781 137.500397
6.990595 -9.869706 143.997772
-0.486710 9.892685 130.634415
-21.175066 -1.920218 91.451500
3.087509 13.388505 96.543869
-12.686918 2.566377 109.051010
-3.345468 -12.372702 113.059326
-4.402394 -9.467269 96.989700
10.039044 -10.141793 146.197403
-14.698324 -5.326537 142.068680
-7.814921 -10.265800 111.970688
9.919273 -9.408965 100.496307
5.361498 -8.676430 140.445587
5.606095 5.225913 115.756111
11.311687 -9.617366 83.148117
8.123251 -9.795919 111.152008
2.445623 -10.714411 108.045410
1.959238 5.977332 118.034126
0.984132 -10.423994 94.906799
-7.111938 0.091278 152.826431
13.170895 -1.247580 118.049751
11.042444 9.539843 98.593895
15.545501 -0.053117 106.974136
9.974920 -11.869125 125.827507
20.488470 -3.499356 86.825378
-3.347740 6.977840 108.908272
9.231413 -12.192646 131.766235
-13.669369 10.664279 87.727280
-5.650445 11.024698 147.412796
-6.146690 -10.096012 86.345047
-11.575723 9.249493 133.909225
12.764189 -5.154274 143.186966
-7.158058 0.413744 151.615738
7.556512 12.139605 94.928131
11.215590 -7.062550 116.048660
-4.708580 12.724594 134.340286
12.432096 8.217396 150.168839
-13.015661 10.249152 138.188492
14.608234 -1.890560 133.265259
6.831258 4.983739 153.034836
-13.522294 4.516420 104.191635
-10.181882 8.680218 132.041489
0.891134 5.526816 113.910965
2.593380 9.620747 107.381660
-3.813711 13.890821 92.279793
0.840725 -13.035635 104.877922
-10.946280 1.328418 118.597343
-6.682279 3.935404 152.546646
16.484667 12.152282 144.109268
0.256850 -10.807139 96.456223
14.238411 7.570814 94.976509
-0.025362 9.043574 123.300232
-8.296482 -10.251437 109.749237
-2.781002 -10.741241 121.334557
13.662036 -5.149551 122.077820
-7.593235 12.793536 141.412476
18.508715 -0.759903 89.201340
-12.664776 11.110546 96.000595
-4.434512 -5.583845 147.088959
-18.930992 -5.293143 95.045197
11.674683 6.745702 100.182129
17.180592 4.232610 98.727615
-6.476343 11.883876 144.586090
-18.059597 1.124845 104.799690
-9.930694 -10.489566 87.615364
6.279364 -11.664708 97.435860
11.992504 10.492459 90.699738
14.658176 -2.776005 125.460045
-11.662964 8.188242 127.874138
-16.207941 11.000359 146.313339
13.136539 3.740593 106.825256
-3.776904 10.481417 104.049210
5.752103 8.538285 123.992310
-9.928766 10.978330 136.591110
-2.443571 -9.875629 90.910957
-18.718626 -1.273178 104.431732
-11.847186 -7.678242 140.983627
2.570832 -10.230679 93.241402
17.501762 -2.068037 98.856201
-13.973904 0.067614 128.697388
-5.276301 -2.196497 151.897598
-5.351744 -11.257040 85.604431
11.672503 -12.213378 132.418289
-15.116640 4.372376 102.074928
2.958814 7.400580 120.740540
9.033733 11.578120 140.683594
8.492094 3.247867 113.229698
12.128868 1.595668 115.615936
1.596309 11.712855 138.277573
10.692075 -3.057650 120.032547
-5.472063 -9.877124 141.785629
5.753738 6.211037 109.685570
-8.294928 -6.374123 146.679260
14.872686 9.835283 136.433090
15.889136 2.866570 150.800842
-3.157150 7.464340 159.495255
-7.399624 12.868655 95.764488
11.101824 12.985194 146.855652
-14.841671 7.555360 138.284622
-16.272383 -5.957230 134.152130
-4.598251 -9.369490 144.347275
-19.062220 -1.306670 91.333801
16.325159 -1.291374 145.315979
3.249014 13.404627 156.377869
17.752676 0.958668 93.027863
3.237204 14.764548 92.870651
15.487569 -4.819657 129.151733
5.095860 -11.369912 117.791122
18.360510 -2.107318 87.604645
11.629954 1.285673 114.115204
0.464154 5.988074 110.368469
-9.358886 -9.280613 100.869110
3.329537 -11.304079 134.818069
-12.304011 -9.525290 90.624008
14.515141 3.519992 151.462814
5.793962 0.579977 152.252502
15.591486 -10.132767 83.898796
0.048571 -10.686052 94.137642
-6.495117 5.523633 153.565521
9.178928 7.589725 124.296936
8.300803 -10.366674 98.218262
-15.444082 5.195801 83.784386
14.507974 5.731529 101.258957
1.138893 -9.978803 83.434967
16.849207 -0.139099 131.385818
-15.167838 -4.401191 132.596024
-4.870047 7.278115 155.315506
-3.931980 11.033689 130.982498
-1.502610 8.951096 157.416214
-18.783083 4.542759 89.127853
-14.052482 -9.890544 101.633507
-17.279692 6.023530 92.187904
-1.984115 -11.093518 113.972763
12.188953 10.370170 92.532646
7.361370 12.453117 145.072433
-10.211826 -8.625613 108.602119
-9.522303 -10.816905 116.190056
-14.291422 -8.170460 139.491531
15.051097 6.513370 98.590034
11.348112 11.487051 138.064194
-4.134109 -11.637772 114.160034
-11.657015 10.443153 98.900940
9.246720 6.098949 125.655289
-3.043093 5.339561 117.215965
-6.453728 -11.463840 111.693581
-4.268154 12.527957 148.862686
-6.773256 8.163963 125.951340
2.920348 -12.036407 139.250031
-10.716159 2.801620 119.004456
7.043318 -9.766278 140.692566
-7.903059 -1.899713 148.299896
-14.935617 1.204958 129.031052
-5.016360 -10.180979 100.410950
-7.994693 9.496798 102.889862
15.782095 -9.465871 131.895538
-12.882349 -4.376005 117.805183
13.126013 -7.089500 131.465225
-3.026260 -9.605192 141.715729
7.242851 9.744817 84.296188
-8.431318 9.916841 130.529190
-1.340595 -11.462462 119.512329
0.531049 -11.537037 122.828514
-0.585995 12.490197 97.228188
3.681232 -12.148512 143.264969
-20.620361 -1.462163 82.292526
12.446926 -2.157919 124.320114
-13.376311 -9.469598 139.442856
6.178988 -4.428114 149.809906
-18.888346 -3.658544 96.939697
9.901636 12.219140 146.225296
0.669387 13.447989 138.348862
16.174297 -7.496980 130.154083
16.747789 -3.924511 98.033516
13.563468 -9.277231 87.665787
8.282164 10.575717 88.073486
-19.336260 1.079897 98.287315
2.228433 13.370670 140.661240
19.321768 1.106179 89.667603
-11.394678 1.351399 116.259010
-8.473479 -6.050234 146.728592
4.172184 -12.023069 126.735565
6.423834 -11.964411 138.201599
-17.244755 -7.164634 83.674149
12.674618 -1.525222 110.747215
11.274401 4.055564 149.844009
-9.136514 7.580608 126.497955
-8.210239 -3.782359 145.954605
-13.773015 9.444898 89.666962
-10.546568 4.694750 120.837425
-11.097893 -10.158009 131.044128
-6.928993 -9.460475 116.255432
-6.459575 -9.068722 84.037689
-12.504584 1.552696 111.585205
-13.222352 2.133448 107.406883
1.514231 -11.286334 121.951385
10.305150 -10.622570 134.108719
-18.432842 -6.797204 88.820747
-1.402082 -8.923435 135.975494
7.271523 10.535697 154.415344
15.159595 -3.170438 133.359802
7.175686 -13.486703 135.352722
14.831160 -3.601881 139.195038
11.090507 4.341644 126.763657
-3.993420 10.139707 130.411484
-7.475460 -11.580183 105.185120
17.589785 5.784579 88.921234
1.108723 -11.682809 130.350052
-14.482018 -8.132182 138.954254
19.811092 -2.310393 95.597061
0.031122 11.146485 147.073135
2.160347 -12.804132 123.123924
-11.528973 -9.612071 85.604187
-5.977307 -9.866852 84.825241
9.098523 4.600645 114.870361
8.809126 3.529977 119.365952
12.189039 10.658463 100.200111
1.329592 14.589423 98.739494
5.813875 8.008640 121.879662
-7.628931 -11.294239 126.400490
15.201380 -5.035685 106.643562
-10.948956 -10.647883 84.623703
-14.094489 3.277242 106.914017
-15.917223 -6.183706 145.915466
14.230708 9.364694 92.320129
0.584338 8.711708 158.044022
1.892589 -10.295323 87.726028
-1.199657 14.061487 135.077362
20.884460 -5.370932 82.218590
-17.241865 -1.693026 103.355095
-15.157669 9.732341 141.748779
-7.266889 -15.889937 132.786194
4.566480 5.930393 154.308136
-15.619744 -3.674068 106.225624
0.751267 11.894332 143.867538
-5.301761 -1.861293 147.473114
8.723111 4.476308 119.848923
2.524262 8.635076 107.029961
3.682661 -9.620163 88.604988
-17.936153 4.785213 87.242249
-9.936414 -12.227926 102.697998
9.443587 10.070887 147.855255
5.565925 6.339570 153.911118
-1.731634 12.890347 144.343597
-10.719852 -9.643353 123.631355
4.640934 -12.986031 133.866302
12.552046 -5.942287 125.373505
3.632416 -11.543253 92.140434
6.533120 12.003675 105.792366
-2.798502 8.210598 124.476952
16.591764 1.484664 149.928360
-18.560768 3.541449 89.025459
-5.124253 10.070773 129.127014
-2.106874 -10.832944 94.168144
-13.502995 -2.042716 148.935104
12.063033 -9.989933 107.721191
-20.540146 -2.585048 94.657944
11.637549 -9.244790 103.518303
-12.440800 -11.612074 129.242889
12.402117 -2.335247 117.020073
-4.527542 -10.873551 128.122269
1.221532 -11.979512 137.276123
-3.478040 -12.502577 119.845230
-0.880052 -11.280377 118.984451
14.678542 -9.342429 140.870392
19.144987 2.533069 87.013611
-1.514518 -10.839742 118.045334
-16.887896 -6.029978 106.709068
16.083895 -10.416101 84.699432
3.582395 -12.407057 109.546638
17.686554 0.546919 97.445938
-10.703183 -4.124264 144.736572
-18.784081 0.004146 102.908783
-16.948009 6.036325 97.432495
6.068666 -12.367089 77.816917
-10.594820 -5.261895 143.538101
-13.375484 9.717441 87.932327
11.007513 8.648978 86.376640
-4.558524 8.330177 123.902695
16.959667 6.516286 83.956039
-6.226180 -11.113249 107.501839
-12.461842 -9.419950 98.229950
14.676570 7.913365 134.259247
-4.032309 10.246056 101.046440
14.125097 6.686452 96.253517
-11.902497 -10.281651 94.180321
-1.594265 -12.220637 102.432098
-4.513464 8.592197 130.099030
5.166518 13.464995 95.381592
5.609811 -13.484950 129.473129
0.522539 5.337347 114.239220
0.656106 10.909694 97.946800
-0.555366 8.220030 155.656265
-6.145597 -12.906953 127.423378
11.647821 -4.568891 144.993271
5.296419 -1.422351 151.754822
3.391129 12.539288 100.200302
-2.371284 9.769723 104.014427
7.455007 4.020484 113.718063
15.152102 -10.492745 87.047150
-0.313433 12.518110 136.336029
5.812240 11.014620 136.962936
-7.413959 -10.772380 109.233917
-12.706885 0.068531 150.092896
6.533390 -11.086079 116.924225
8.871109 3.789101 121.442673
19.530760 2.460571 90.212151
-15.506432 8.424792 84.167336
-6.039392 -10.361289 109.883125
15.062276 -1.458543 131.068832
-15.770977 -11.196463 80.326080
-11.770884 9.154378 85.013367
8.388486 9.364439 124.360825
-6.874273 -7.949103 142.338303
0.717614 7.111403 109.302742
-14.511519 -4.026075 110.865952
-0.747767 -13.240233 129.188171
-11.780036 10.420832 144.974274
5.784523 1.083625 153.208206
-9.063518 2.893280 150.127167
-14.631320 -1.859738 126.892181
-6.066140 -10.225626 99.274269
-2.586046 8.962555 154.083817
-8.637839 -11.647738 137.646820
18.011477 2.328959 150.607681
10.289541 2.494504 119.965736
16.212124 2.843198 86.237923
-15.394823 1.392540 133.882339
-16.413256 5.361240 93.547272
3.999988 5.705793 113.418221
8.112199 -9.690153 103.156120
10.707569 -6.607639 111.646820
-9.989786 -10.450682 106.003242
-10.609640 11.717411 143.186737
5.293928 4.640604 113.618446
17.945116 4.777733 89.009598
0.172773 -11.628651 94.849701
13.967044 0.668078 124.707077
-5.453515 2.695958 155.965332
-1.682030 -13.073206 132.379456
-4.548223 -11.567315 119.795219
-6.690159 12.854444 142.735611
-11.131377 11.276990 148.477142
4.028230 13.775372 135.407120
-12.320268 -4.524032 117.286201
-6.325717 11.538674 142.028580
-12.953192 4.979052 132.066803
-13.913632 -0.612202 113.808052
2.089864 13.776245 97.691566
-2.874568 9.692072 129.311096
-15.217641 7.624736 98.456245
17.758453 5.116143 90.719551
15.395197 1.633223 137.684265
-7.865705 -12.293734 122.227585
17.051025 -3.563350 96.213173
14.106481 -3.952723 128.862350
-9.006591 6.986260 129.316086
10.623797 11.872928 88.335617
-13.133852 -5.414442 128.804596
-14.306973 7.156029 137.909302
-16.380455 -9.168570 88.753395
-2.104724 6.564724 123.733833
14.824429 -5.088506 126.373543
2.807364 7.725237 153.834732
8.397396 8.441703 130.736328
10.069088 6.045507 150.361801
4.928821 5.729561 119.478745
17.864210 -3.078450 87.514053
-10.337159 12.805024 95.577896
-10.510015 -3.595007 146.314529
8.357906 0.127697 149.667694
7.366525 -14.715332 129.211578
11.978565 -9.603636 93.231728
-17.496687 3.170314 100.248184
9.769695 8.885359 84.637810
-10.119141 10.125496 87.145180
14.054213 -7.667032 140.662354
-10.266901 -7.539485 143.484070
-2.249872 -9.095277 83.698235
3.570158 8.256876 104.664284
-10.392330 -3.749213 144.783066
-9.215429 -12.785899 130.195053
17.566189 5.109796 151.994583
-14.477834 0.300006 135.047913
-3.263331 10.433692 148.311478
15.763247 -9.131168 133.417252
-2.902973 11.040653 84.301910
12.434169 8.448944 149.564972
11.815214 -0.171726 150.579849
-5.876602 -8.202908 89.955582
14.776968 13.146763 149.322876
-4.321263 8.137422 124.831108
13.202557 0.911492 115.252960
-5.281802 12.403826 132.464844
-8.938873 8.891577 152.251709
13.115382 5.261240 108.497139
18.192190 -2.204457 99.767052
-12.382114 7.788299 151.446609
13.554302 4.179317 152.305923
18.314058 -1.639529 92.093628
12.973144 11.863492 143.521454
-20.733112 -0.983555 85.837212
-15.108983 -2.790649 131.168518
12.423086 -9.824800 105.052132
-4.866753 8.775281 124.716942
-12.289482 7.515859 131.215271
14.114550 8.531724 91.015305
-7.144594 -12.221647 105.666039
9.545961 1.352845 120.396523
-9.817166 -11.585073 88.510483
-6.377192 3.982288 154.218903
-9.018784 7.137526 124.899017
10.266651 10.850005 87.216599
-14.867185 -2.944821 131.775513
4.893296 11.450944 86.567528
9.721212 -9.056380 85.613441
-13.484199 8.271000 135.884583
6.941775 -6.163548 141.221710
16.321968 1.566910 103.750336
12.105214 2.132255 125.510887
-6.479581 3.668261 112.773781
-8.735178 -2.795989 148.586533
-4.411823 -11.419849 96.230057
11.364229 -10.475777 136.567200
14.305578 0.661796 148.887848
5.960293 -3.614203 146.400711
13.016992 -10.723028 95.211899
-15.918442 2.942672 98.602715
-4.706757 4.322958 155.260361
-1.104862 9.505878 151.081284
-13.214544 -11.346713 83.109024
8.430235 1.707624 151.897705
-10.268889 -8.933441 119.077095
-6.246017 4.990378 117.763458
-10.746471 0.362503 122.539597
-18.723673 0.113091 103.769562
-2.015287 -11.755234 137.339478
-6.887270 8.337270 111.398300
16.395657 -5.208307 94.099503
-10.085970 11.005834 87.160477
-16.522539 5.249104 98.467140
-19.503740 -3.012078 92.635872
-16.877113 -3.640153 131.619080
8.470140 8.700308 151.460785
-4.536018 10.249394 86.207413
15.253083 -8.861505 93.748375
19.220020 2.837681 100.719902
-16.501364 -4.236842 129.158524
-16.003992 4.660605 131.663116
7.951593 9.803758 149.727600
6.371925 -10.237367 81.430138
7.944089 -6.944663 142.887802
-2.281568 7.224620 124.751961
-6.503810 -9.107597 142.531250
5.777059 11.948501 133.937973
-11.436937 -9.330366 102.562103
-13.028911 -8.921376 137.052795
-15.221142 -4.394412 145.361099
16.386465 -9.352369 90.087135
13.421980 -10.640609 88.105705
16.318424 0.619682 149.384415
-16.732862 -3.378644 101.101685
1.198152 13.100492 138.563705
6.309093 -10.025921 97.492416
9.572263 -9.027743 113.745407
2.414596 8.679308 85.217346
6.866036 -5.549102 144.596420
-13.362297 -7.694682 133.060440
11.437244 11.277773 137.716995
19.354071 -2.818688 94.539749
-14.525932 -5.179202 124.785217
3.094848 12.991170 92.823761
-13.831079 5.583448 106.271667
4.672165 10.096702 148.981445
5.134427 10.510585 101.441582
8.666588 6.428360 111.148506
16.546135 -0.715711 104.736931
11.829177 0.575690 125.034790
-4.874238 13.115872 140.456619
-5.784716 12.289777 131.798508
4.604454 -13.142013 129.240204
-10.030981 7.311329 106.856697
6.561275 -11.666898 122.044518
-4.585673 10.153158 89.262535
15.655158 -0.545333 103.733879
-11.257082 -10.736107 137.866104
-10.804622 -10.652551 88.829247
-5.366110 11.645571 149.729660
-7.964262 6.096658 109.192108
3.523974 12.418180 145.858658
13.253029 -9.291723 135.280640
3.065586 -12.394291 114.450829
-8.313230 -11.291378 81.994614
12.410448 7.550714 130.208054
12.774168 -7.359905 118.745483
5.607981 5.257706 153.652649
-0.574295 -10.248943 89.411049
-13.902044 -0.829257 128.421997
5.838534 -12.263772 126.437714
14.498564 -1.078140 130.670929
12.783837 -9.533802 101.901581
-12.066891 -1.762737 118.991455
-8.258590 -9.121490 140.623825
2.087244 11.968683 140.280289
16.338215 1.452727 131.734344
-0.008738 -11.479313 111.678299
10.565722 -10.674789 128.928604
-2.601228 -12.434668 117.797134
-14.351089 -4.040856 145.065323
-3.682615 7.582372 85.468376
-20.983934 1.734040 82.252365
17.264786 -4.165448 105.274956
0.693337 10.984924 149.825562
-16.449970 -4.127638 134.977570
-14.263144 -10.333322 136.684631
13.022632 6.464212 102.315628
-11.642304 2.268729 119.803230
16.997324 -1.663239 103.378395
-0.065606 -11.881872 134.205719
11.671223 -0.630055 147.687164
-17.107634 4.014175 87.492737
10.300897 11.464877 134.624405
3.526927 -11.993315 106.401985
6.992425 10.390496 103.434631
14.798867 -2.296446 136.393829
4.272873 -6.365914 147.227783
-2.493105 -13.758296 132.982956
13.283350 -1.654194 128.325409
3.324350 -10.556387 86.382706
7.977172 -13.955822 131.716095
3.942440 -13.329621 138.932999
-17.859863 -0.200314 149.509491
-8.162975 -11.230828 111.463097
-12.701609 -4.630098 124.552101
0.669939 -11.624632 100.869179
-6.064873 7.181785 108.928154
-0.422960 8.959674 155.819397
-11.050447 -9.657660 116.890244
15.540496 6.894418 95.502525
-14.054514 -4.852239 114.258865
-8.849532 -10.790915 95.847397
2.110501 -12.619709 118.960754
-11.743575 -10.935437 86.536682
-9.090584 -9.035326 100.835976
3.958908 -12.254209 109.533173
-6.001451 3.652619 153.866013
-5.558789 4.496709 117.110077
13.359523 1.970854 111.435768
-9.571746 -6.918374 141.902496
-19.056433 4.985151 88.032639
-3.393144 11.201631 136.490601
-17.876413 9.240281 150.384720
17.756302 -1.393714 135.325836
-15.193857 -10.484972 88.154266
-6.149781 -9.229078 140.588242
11.850109 2.505039 126.140694
13.509562 -5.557215 132.196213
1.932931 11.767080 148.177414
-5.451632 -8.728253 141.844879
-1.665000 8.507172 154.587296
-16.170015 7.963805 92.346451
8.074886 6.350447 109.336334
-12.450977 -11.702793 126.961067
1.778885 12.616364 154.559113
2.025953 13.076310 135.292831
-3.250505 -12.636219 128.407150
11.268694 7.986897 127.884026
-12.913381 -1.624270 116.044739
2.325700 12.209758 91.298073
14.905563 -5.676028 144.777252
3.829289 7.216767 157.425659
-7.759517 -13.812843 134.382828
-3.660510 -6.925886 141.483398
-5.606380 5.418755 154.516190
11.081490 -7.557121 112.191849
-3.989606 -10.565817 103.963203
1.099725 -12.858889 129.570709
14.784190 11.149057 136.682022
1.572911 9.390305 158.751312
11.041235 8.070309 128.537979
-12.105717 13.124705 88.766426
18.252934 -5.388634 93.261070
19.137646 -2.568918 98.471367
-9.249520 11.264418 91.395973
-3.552711 -11.737943 122.084999
-13.687818 -6.152880 107.189720
3.841548 6.820444 117.714180
17.303143 5.744523 89.053444
12.781806 -6.831581 125.980949
-16.872316 6.080555 91.180550
-7.790649 13.859506 144.091278
-15.527014 7.533837 137.313278
5.188060 3.667116 157.724625
-18.492981 -2.975244 97.531693
1.009116 11.658422 88.031975
6.099233 10.923798 100.127007
-0.994413 5.962386 115.631325
8.815951 10.393830 137.930618
-2.883794 7.325940 120.408081
15.635344 6.633642 145.091141
13.843733 8.155199 150.789795
-12.447976 -10.957488 130.340591
-11.754449 0.235082 149.466812
18.952738 -9.043647 88.325134
20.220024 -1.478045 84.026672
15.201124 0.994714 106.041191
-7.471640 0.922265 153.888901
17.278372 4.121366 96.312096
-3.196167 10.152687 126.568138
15.128506 0.947571 131.634506
-6.189260 -13.827103 132.051544
-2.435243 8.143581 110.045197
-9.749041 12.484394 144.126007
-2.594383 -9.871870 99.543221
-0.216617 -10.125836 86.188652
-11.409236 10.886742 149.025055
-2.109256 8.261311 157.673889
-5.378272 5.818954 115.413818
-13.814415 10.282242 85.761459
-5.905768 8.010760 107.585632
-7.451675 3.037361 154.498947
7.217144 -12.299054 129.634903
17.905588 2.715099 134.147171
18.557377 3.500927 83.925201
-2.094112 9.380499 122.760818
-12.777213 8.079304 96.361259
17.365198 12.170447 143.015579
-7.588505 6.845065 125.224327
-7.192079 -9.924169 99.145355
-18.651556 -1.095511 91.519630
-7.785526 12.457432 146.675751
-3.751847 11.737259 132.130219
-9.989201 3.571765 152.827362
7.688545 12.069373 88.298813
-15.192218 5.875823 103.925629
16.512312 -3.122981 103.331497
-9.686132 11.393504 97.497467
-13.539422 4.917593 100.573700
18.147945 -3.914440 98.086411
15.554249 10.510159 142.854248
12.075697 -7.351970 94.846367
12.745744 -2.780191 112.363602
7.715044 -13.166242 130.631577
-3.765611 7.539540 155.675568
-2.922640 5.306936 122.147812
13.380077 -2.360194 111.504402
-8.630516 12.005318 144.599060
8.215391 9.510140 85.272408
14.224736 -10.478214 132.541748
8.181089 -14.180057 132.196442
2.026264 8.225729 157.006851
5.938200 -3.260363 151.094681
-15.446770 -9.547538 85.692657
-2.419337 -12.746936 113.619179
-5.480726 -11.589542 136.339218
-14.596990 -6.951091 142.508682
7.701893 -7.941437 83.078835
-7.362709 12.138895 86.862236
16.839586 1.721230 104.245697
-19.989199 2.016915 83.885399
2.082094 9.406922 126.012650
10.387166 4.834933 123.389351
8.066498 5.575751 122.650650
-3.153675 -6.877291 143.849762
10.309011 10.417095 146.181961
-1.738192 -11.811355 77.753616
14.020141 -10.337703 93.861298
-15.100479 -1.334750 109.250908
16.777414 7.082863 86.660400
-17.822933 4.576203 93.109619
13.561192 -5.505527 130.934280
-10.414861 -9.620323 93.202766
-14.380157 2.060885 129.859619
17.100872 -9.983024 89.361801
-16.463743 0.437929 107.112823
18.343233 -1.853489 106.324707
-14.976633 -3.347405 141.602997
-12.676150 -13.087167 82.547913
-10.122875 -8.857151 119.409126
-14.267099 5.936387 129.379807
-13.462723 -5.145326 111.827072
18.938328 6.665764 90.534828
2.732827 9.763735 149.053329
13.839741 3.616822 107.148712
-11.122902 9.380759 129.117767
-9.022517 5.173098 119.386269
-19.099607 -1.193378 85.201691
-2.047191 12.281125 136.186935
2.516350 13.245523 90.512009
-7.397717 -10.986327 88.382454
-5.019781 1.479583 153.388611
-3.911529 12.771337 141.272629
-3.610692 9.011291 104.899620
6.428071 2.757710 153.250900
-13.984933 -0.336141 122.936928
15.551244 5.946958 134.579147
16.972008 6.987312 87.359970
16.809364 -4.430522 97.310211
-18.238131 1.860926 92.070686
9.557784 6.031315 117.617279
-13.513233 4.576867 109.450356
-19.232431 -2.501162 94.270142
-11.289088 10.875910 147.339905
-16.152508 6.703016 94.722992
-0.059718 8.888499 125.291061
8.277378 2.878798 155.257874
-12.322119 -3.530452 147.345596
6.627911 -9.499387 91.897362
4.988544 -7.776820 144.183517
-15.385697 2.753041 150.422073
16.178419 -2.531370 135.488480
9.937901 4.220034 111.577568
14.480392 4.482800 105.628639
7.512028 -11.108705 136.600098
8.941046 2.424084 116.855202
6.231242 -12.987061 108.730873
-9.112405 -6.676902 141.013092
7.759180 6.969916 125.777672
-16.715385 -3.341068 104.661850
12.857356 -9.415417 135.020096
-12.762349 9.155010 85.948524
7.152917 6.392428 125.370132
9.274389 -10.716919 90.128098
-11.809397 11.065462 90.600197
-6.879865 -3.659610 146.306808
-14.726880 9.417844 136.323883
9.239797 -10.125096 92.454483
-2.480762 9.983240 151.715302
17.277695 -5.064714 98.277092
10.772633 -9.405246 100.591743
9.532482 -6.924625 143.545807
-10.850128 -8.302363 94.568977
2.548222 -10.390619 93.079712
-14.530225 1.510989 138.262039
16.549788 2.679763 136.263275
0.161525 12.906683 139.933289
-11.340165 4.321980 124.718102
14.765759 -4.916600 143.808105
-2.955167 8.705510 84.439682
7.813858 -9.731364 111.150162
12.068044 -7.107361 120.958405
-10.929702 -0.600198 147.720978
0.218893 12.117738 136.340775
11.365934 -7.906749 119.155136
-4.630870 -10.306680 85.991982
-4.609873 7.818031 157.849472
12.866272 1.668196 125.882401
-12.318589 10.399912 85.175308
-15.572143 -5.708194 129.248215
16.797546 7.325243 87.208771
5.165226 -14.034996 106.198723
-15.456601 -0.502336 134.319061
16.452642 0.377828 102.527306
-2.445374 4.214379 116.397057
-15.314031 -7.354496 138.837234
6.995677 -11.837819 103.535851
5.581484 13.071910 96.719009
-7.931558 -9.334079 93.643730
12.583875 12.657324 148.634689
0.744245 11.514039 126.595398
5.518829 5.904686 158.010223
-11.102754 12.479453 145.093948
-13.568781 -2.429052 110.094505
-17.431372 -7.698362 93.857307
-9.402988 11.585531 100.005432
5.038923 9.372739 154.958481
-14.844311 -2.456157 128.362396
15.983524 0.024399 151.523560
-14.132409 10.689445 86.897697
2.987803 -11.603441 79.842209
-4.889752 12.419841 88.729263
15.313116 -1.199895 132.297363
14.468310 0.435614 110.549316
-14.464467 0.551276 109.546471
-18.013649 -3.447255 90.540649
0.148597 -12.118354 107.993202
3.882347 5.338214 117.715439
-12.938433 -8.854084 95.972885
-15.406332 6.883185 151.365387
-10.189203 -10.097466 126.269348
11.711590 13.050502 139.650040
-14.607918 -5.696789 105.844360
14.384196 12.361009 140.401077
12.529181 1.749105 125.805489
-12.189773 -5.305295 118.553406
5.761612 12.319769 150.936142
0.697122 -12.313766 122.648613
15.370626 -7.340635 85.289055
2.160952 -9.396702 85.361526
-16.222961 5.092346 94.653748
-8.596568 -10.698186 101.536346
15.248223 -8.174625 91.217499
-7.292314 7.497600 81.252167
14.938581 -2.781913 143.765854
2.983905 -12.834482 121.036911
-3.286897 12.573003 91.110458
-18.374836 2.732482 96.581993
6.033807 6.225920 122.449532
8.816368 11.389009 144.101898
-1.958038 -12.943803 102.789696
9.278182 -6.941069 140.026123
20.304787 -0.246740 86.529266
0.712912 5.717316 111.395287
15.739535 7.994160 134.819107
-8.948130 12.157804 138.690460
7.213188 7.921402 151.025589
-7.925054 13.166314 140.426529
2.866249 12.142126 136.527084
8.899085 -13.498843 130.046265
-9.323476 -5.060242 145.497070
-8.005424 -10.211536 125.921471
-19.010975 -0.835137 90.296326
-0.843045 9.206075 157.804077
-11.130785 10.720281 132.299377
6.931231 -10.180441 97.499008
18.114027 -6.087837 92.172089
-12.993199 -3.757644 112.092522
-5.172562 -10.747832 124.121094
12.178595 8.199219 97.055122
-16.177822 -4.779821 101.523109
-10.372549 1.055737 120.975784
11.765949 -8.660771 120.925369
8.641206 6.941529 112.500809
-11.879273 0.814292 151.467758
4.675647 -12.336222 120.638695
18.903063 -5.394011 85.050468
5.170855 8.587709 154.220581
5.431867 0.834993 152.377151
-15.754600 -1.228135 102.453407
9.287189 -9.520701 114.358871
-14.591459 -2.791937 143.310654
-18.024532 -1.555034 99.014793
11.273308 4.404919 113.225090
13.778072 -6.940333 126.648453
6.750959 4.364239 117.322586
3.773344 13.180150 90.983231
-6.941593 11.059830 131.974365
1.329997 -10.045214 84.167145
3.004354 -9.237544 83.071655
11.690972 -9.034369 86.730560
10.069689 5.111150 121.402695
-8.127075 -10.908065 131.117081
-13.542292 7.173275 99.077499
-9.056038 -9.052015 104.975006
-6.350620 -11.350618 125.340958
5.639182 5.032628 119.148560
-11.800941 1.188966 117.071518
4.259525 -10.477247 92.656502
13.663103 -9.559473 133.818512
14.235818 -4.995951 139.056152
5.005812 5.892317 110.829163
-8.550847 -14.095225 131.481415
-7.194520 -1.150555 148.643341
4.441908 10.511835 85.577553
-13.773063 6.033241 152.567551
-12.517021 10.138182 97.667015
-17.831886 -6.850529 87.208275
4.177544 8.110303 153.379166
-11.429152 -11.374628 106.194099
-17.613785 4.455222 97.967049
-6.613770 6.213776 120.499084
14.729837 5.068482 101.983711
-3.916501 10.342086 152.215302
-17.923447 5.255979 85.072357
18.595888 7.489429 90.951950
19.725981 0.651291 97.924400
-11.346739 -11.476286 137.962692
-16.451242 4.200500 133.367798
-9.049543 12.949224 136.632080
15.184099 -10.673539 86.376839
9.419969 -4.927953 143.178741
18.847675 3.609850 90.768562
-12.327049 -7.678636 105.213211
2.239793 -13.991012 130.564377
-7.534573 6.091978 110.980461
10.059961 12.202538 142.698364
14.863633 -6.220490 142.230499
8.822904 -9.916636 112.781662
-1.737585 13.204649 149.412521
-19.420862 3.517023 88.725967
-17.219835 -5.563761 94.540756
5.617610 -11.707416 136.794205
10.672318 8.153066 130.170959
13.762965 11.913475 140.675217
2.327643 -11.343581 100.907440
-14.936637 -7.150784 110.529655
1.535821 8.146201 117.462975
7.326281 11.251874 135.756241
-15.283302 4.862725 132.914764
-5.128255 9.905761 101.929527
-18.092636 3.047723 94.911964
9.228165 -10.110706 99.137054
8.179458 -9.496947 84.833237
15.241297 -8.863572 93.498810
-7.152864 -8.877023 143.234955
11.043219 11.558755 141.485931
-7.350674 -9.534513 86.376366
-11.182137 -9.621656 111.053856
-14.323231 -7.343519 130.282684
7.976425 6.397215 124.234016
10.993433 4.173643 129.840088
-15.843298 9.849470 146.491867
-10.762895 1.618589 118.917404
7.120843 5.283533 153.565399
-18.666147 -3.649037 100.422577
-12.686974 -6.456880 126.728951
-0.892569 12.172138 92.978554
12.785306 9.102440 86.045097
12.938325 10.753951 140.056961
7.554701 -6.861993 141.939484
-7.972193 12.460001 140.339264
-13.428643 8.641512 134.242645
-2.898779 6.129503 113.472260
14.389036 1.388722 125.570778
-4.525298 -14.128761 127.604752
11.729713 -10.864103 92.250801
-5.820688 5.211973 154.562485
4.797501 -9.680562 145.912415
-14.143005 -0.699944 128.815414
17.637094 -1.281142 100.574821
-19.437180 -2.660790 91.747780
18.585958 0.917422 97.623062
19.323635 -4.282537 89.444397
9.119249 -10.211756 119.414825
17.356039 5.654050 137.379684
8.150511 -12.093780 135.992050
12.357923 -8.463561 111.227341
-2.896732 11.873951 89.168922
-14.927880 -6.535725 133.149521
3.448386 6.993782 154.979385
11.143326 5.220797 107.917900
3.421168 -8.634044 144.136963
-5.677248 6.044722 112.023491
4.141120 6.353092 154.268143
16.362803 -5.249400 101.463852
13.287242 -8.436815 137.303116
-12.074350 -7.833986 117.434799
-6.825809 13.760531 98.384270
0.895053 12.359140 150.490112
-12.889396 8.132199 133.599930
-3.438690 10.085503 102.068008
11.171076 9.187013 130.547089
2.125227 -8.302298 142.019211
-0.192731 10.552888 153.750015
12.857014 -2.676192 113.011169
-14.613561 8.802105 95.079842
0.697793 -13.373137 135.599854
5.247259 10.648947 87.742249
6.024118 14.864713 138.128174
9.807072 -4.881550 145.342148
9.841173 12.022538 148.698364
-6.359946 -12.255075 109.341217
-15.142822 -3.776263 133.942398
-4.818639 10.903516 146.190201
-14.608115 -7.404665 144.101944
5.401239 -13.148049 124.108604
-11.950439 -2.332062 125.417175
-7.822523 -4.337509 148.332108
11.343358 9.320602 95.984596
-6.435149 -11.177413 113.741302
-12.168505 -8.592382 98.915237
12.234003 11.552589 91.199997
5.074877 -11.475508 105.735222
7.696326 13.430110 93.720093
1.419719 10.603357 152.157608
-6.083084 -14.146047 128.698532
15.388512 6.225606 96.095139
-15.584947 -4.920081 105.747948
8.287222 5.600846 124.136032
15.475152 -8.842959 95.834602
0.544367 -8.256579 91.226395
-10.238822 4.262815 124.945671
9.852367 -12.329560 131.776230
-11.880999 8.145760 104.146057
-14.717317 -0.985092 138.195129
-2.776354 12.989799 132.918167
0.730307 13.785909 141.855209
-2.858767 11.705187 151.828842
-14.128051 5.505014 99.778046
14.953348 7.839122 133.324524
-5.469719 4.106925 117.459206
-4.403051 8.444409 153.910767
-9.093499 12.398366 97.863068
16.815369 -10.674208 84.123375
0.639916 12.973778 91.566193
7.359787 -9.343510 106.726753
16.310736 8.299667 136.811584
-12.714160 3.754556 149.864151
5.174345 9.015944 151.501816
-11.805827 -8.268508 94.014702
-9.775173 9.198335 85.795700
3.389144 10.842419 105.261703
-17.348595 4.773744 89.886452
17.729929 4.785532 83.857826
-4.792268 -9.533238 145.661362
-8.194919 11.634985 134.699188
14.868094 -8.221468 130.888046
-15.598868 7.465894 94.388283
4.702367 13.079059 94.977448
1.822375 -13.519650 127.176437
-19.644991 0.194591 92.505333
15.115256 -10.229162 87.462257
10.448549 10.531013 96.052940
-4.601604 6.654428 112.627968
11.690241 -8.198043 126.281921
-20.368067 2.278595 152.663513
12.362316 6.524621 108.941879
10.033318 10.028431 134.648071
6.606665 -9.848403 145.007523
-1.403478 10.276350 153.089447
17.329754 -11.085061 82.913094
-10.188910 -9.706457 104.924614
-15.740330 10.829314 145.955078
-9.655818 -9.681320 86.917473
-6.627059 9.178577 83.344955
-7.040277 -12.585878 136.201904
0.943598 -11.270385 115.064293
5.586604 11.432222 92.245895
4.696398 9.442982 151.412094
-5.118431 -10.072021 88.572205
-12.977487 -3.572236 145.389679
15.012295 -4.939140 103.308556
3.801500 -11.533709 125.675179
3.317366 -10.536002 122.664650
-5.658197 5.229461 153.836487
-17.960993 -8.756897 82.803879
-11.276701 11.694863 95.119728
-9.783296 -9.615001 95.148430
1.627238 9.722138 121.994308
2.706146 -11.481759 139.124527
-8.534042 -8.975469 143.094772
-8.000821 -2.862782 148.187881
17.043982 1.180445 137.345734
5.433706 -8.377540 147.019592
-4.505884 -11.327368 91.150658
-12.030363 -10.842924 128.372375
-20.368256 -0.754179 95.088600
10.414967 -0.858353 116.596687
2.013687 -10.690513 92.512100
-8.170497 -10.421440 144.224869
-0.802120 -8.786139 85.527519
-6.296443 10.413233 86.420357
15.036043 -8.513803 96.282028
4.238100 7.251166 123.794174
7.637580 -0.239657 150.135391
13.252190 -6.881238 99.844078
-6.695498 -11.055778 125.330818
-1.397914 11.704994 99.059547
5.311351 -5.220834 145.568787
-0.683005 -11.509236 124.300499
13.914454 10.306616 92.995216
5.165630 -10.979075 84.525772
-16.007872 3.037121 93.596703
7.479967 9.837510 136.711548
-0.445173 -13.066730 126.362556
-4.419803 -11.779274 123.985939
11.565871 2.973916 116.564552
-5.841070 -3.385847 144.740860
-0.891720 -12.018344 118.043236
-14.546715 9.524242 88.874565
-12.259381 -10.379964 136.118698
-14.146474 -7.054181 133.063583
14.246284 -8.567144 89.664200
9.017604 -1.526981 148.038345
-16.015440 -7.552281 85.819473
3.572175 -11.081772 102.802567
-4.433752 -12.166245 117.008194
0.596898 7.705894 120.743965
2.615166 11.209018 154.216492
-14.297955 -2.033280 123.389519
19.088945 3.056373 98.373642
1.968651 -12.326455 112.621948
6.102158 3.563136 116.679840
8.936836 11.358770 101.417191
-9.151218 -12.600608 135.920776
-7.458492 -7.608974 143.398880
-6.487811 13.591050 95.266487
14.503744 -4.688124 133.835754
-7.909273 -12.172543 91.515778
-9.127639 -10.293915 124.131706
8.262817 13.380210 91.773811
-13.196802 -10.622311 87.175751
1.523417 -12.222348 126.604164
0.152723 8.636722 159.880447
9.982599 10.625359 132.147614
-4.614964 11.492737 137.308365
-7.279965 -10.000847 104.950256
-18.954197 -3.635657 89.560326
-0.773409 -10.291578 90.286339
-10.454626 6.412885 124.080727
-3.137533 11.624682 130.499496
12.389466 -8.580338 98.191193
-16.538128 -9.838077 81.529282
-8.245431 -10.501484 86.446495
7.495147 8.040036 123.226288
-14.730578 -6.799807 104.405899
-16.132236 9.828228 147.862732
-16.031590 1.256038 136.111832
-5.965922 -9.613836 94.906631
5.479692 0.910786 154.824982
8.072645 10.762284 127.882614
-14.523519 4.607550 132.383896
0.751601 -11.824284 124.409355
-0.366833 7.836414 124.110794
18.314812 -1.861484 93.380486
10.025963 -2.978591 144.201767
10.692466 9.612867 86.273651
-2.624326 7.917136 156.384033
15.432358 -9.193240 95.477722
-1.103913 -9.527256 114.549934
-18.396830 -1.095826 90.437553
-9.818534 -11.146255 139.460785
-7.468515 -1.124121 153.104889
-17.859142 -1.961180 96.433311
-15.037198 6.586507 97.001335
11.794424 -9.376163 106.757195
-16.338316 -3.725084 135.273865
-20.916403 -1.243214 83.141106
5.440215 6.098265 120.038956
0.193486 -10.981758 91.117546
7.518589 1.636913 151.093597
9.973621 -10.700597 127.735847
5.379661 -9.788930 89.016167
-14.612948 12.273129 142.098389
-11.356009 -10.976967 106.210892
6.193348 -8.483207 145.108856
-12.095101 -9.878812 93.942581
16.962374 -0.065706 128.693298
0.041158 7.518896 117.510307
-0.453096 8.468007 124.852280
-22.343468 -1.960590 84.470596
19.214207 -1.805287 88.764603
0.272987 -10.127687 87.172760
8.317351 -0.872442 145.936905
-12.969424 -5.471030 140.586639
13.811103 2.081062 150.283859
-12.842113 5.249166 107.458557
16.037693 9.610704 139.514801
14.180148 -6.084751 126.582672
-5.169822 -0.641696 152.562820
2.882905 -9.694837 83.210999
11.964022 11.870214 141.142258
10.580618 -8.736500 116.585587
9.425464 -9.191448 89.180923
7.633331 -9.084128 98.839943
-12.693742 3.020106 149.853577
17.980824 5.007985 91.482185
14.193390 -3.081306 140.266281
-9.709492 5.341582 109.956635
-6.588626 -7.167182 142.908066
3.379033 -11.354565 115.447159
-10.603885 11.759941 94.179489
9.581463 12.915841 143.198471
-16.631845 -4.501784 103.148735
3.990751 10.887362 105.710007
-1.649618 12.686166 87.792732
5.082506 11.857096 137.077164
12.557124 -9.451516 109.954834
-17.888884 6.850119 89.283386
16.157314 -7.307266 134.481674
-13.741764 -8.108397 139.410629
12.723619 3.595266 108.843147
-9.212285 9.201938 103.311508
4.461320 -9.467600 86.291061
0.835732 -11.037910 96.668228
10.758451 5.512274 124.592369
-6.825898 -11.202139 115.204033
-4.033820 -12.742674 129.684570
-12.858089 -7.225495 119.656258
9.185011 -11.096973 132.618149
-5.167344 5.188570 122.854576
4.343506 -9.895324 93.100281
6.599618 0.914154 156.200012
-7.196194 13.711891 91.448669
12.181673 12.716756 137.943146
-10.444948 6.870423 126.586685
11.092542 -0.236459 117.778336
-8.815518 -9.670892 88.626167
5.287438 -2.768786 148.450821
-16.399899 -10.291939 84.166595
7.117367 0.752248 153.339539
-0.358277 -13.290680 122.142097
-19.122154 6.478319 87.635590
5.210491 -12.141175 137.504395
3.871360 -10.280647 97.184525
11.634769 5.686580 104.839508
-13.605263 -8.005256 107.145241
-19.241230 1.338578 91.550728
-3.398747 -9.971809 85.525185
6.906001 -2.018688 148.905792
4.664481 -8.134468 145.535370
11.806260 4.808939 112.251541
-11.210518 -0.536421 147.486893
-0.596457 -11.557365 111.830032
-0.959796 -10.268575 97.144409
-14.334785 -4.902392 133.976974
-12.059702 -8.923670 141.664948
6.231578 -14.377300 132.212189
11.618419 -4.302321 122.251640
-16.597353 -5.660853 139.920853
10.539667 10.269655 137.302902
-14.240571 8.286704 94.544823
-10.465670 -9.232554 92.707306
-14.562343 -3.847501 105.738007
4.981112 -0.783457 151.090057
-2.555280 -8.108603 145.613754
-11.754096 11.341553 143.320160
-12.464482 -2.928513 115.245140
9.567125 10.437885 133.423508
-12.897768 2.577873 110.513161
14.927668 -4.432184 113.576622
-17.440771 -1.784092 93.707550
14.545680 8.222569 89.548943
15.022663 -9.142587 92.670753
13.310823 -10.840135 83.475151
-14.985144 -2.567667 142.249832
13.910979 8.571385 130.018066
