ply
format ascii 1.0
element vertex 2048
property float x
property float y
property float z
end_header
19.824516 0.086031 133.181519
18.094849 2.001531 135.799698
30.662870 2.831508 116.014420
19.889275 1.726180 149.148254
-28.703484 -2.830950 114.078499
55.448765 -1.211107 116.453735
40.829182 -0.429754 108.277863
27.522890 2.600494 121.678185
-39.384674 -9.110367 118.149689
-3.765325 -12.404371 134.896683
52.693974 -5.110840 109.824745
9.971159 -6.215871 141.780548
21.187771 -4.755693 133.942596
16.622837 1.335335 149.329803
-25.981247 -2.440207 133.488831
-32.018711 0.877661 112.013153
-26.877581 -3.145992 132.425339
-13.255787 -0.476986 110.187630
2.640575 15.132915 140.134109
49.387520 -9.173164 116.256866
-24.169113 7.232025 142.620071
42.865150 0.733518 105.852577
-36.243084 -3.302433 129.331268
8.239057 11.807934 146.642715
-46.064354 4.355434 125.184669
24.473606 0.710136 122.940468
-8.470909 -12.721554 107.656197
-29.024307 7.782019 122.795280
-39.845436 -2.547439 129.220734
8.249889 5.430529 118.533066
21.298199 8.669805 130.189728
39.562496 -2.607513 111.788666
21.714861 5.168535 148.490799
54.772850 0.088324 117.850784
38.946194 9.083095 115.368172
16.048574 -4.657801 140.745209
0.267130 -13.864286 107.877396
22.936428 -2.028236 128.852783
16.187115 -1.882425 132.848099
-14.440684 -1.574899 138.591507
-35.958786 6.463090 110.927017
-38.585983 -11.168773 120.411568
14.441343 6.530294 137.105804
25.856335 9.333996 139.685028
52.378807 0.798293 109.185677
56.454105 4.010739 115.383179
25.396688 4.705741 128.723129
4.464050 14.128448 140.930847
42.645905 -1.209009 106.526360
6.860751 -14.629567 136.675919
-14.121392 5.290651 131.904800
12.385112 -6.267198 115.889351
-44.494102 -12.811450 114.398254
-41.667133 -4.545662 127.418800
-21.693552 -0.245056 127.739929
40.299618 9.802869 123.413467
11.657328 10.296325 154.438324
12.690267 15.672565 145.352234
-53.008900 -2.590746 115.318298
-21.323687 3.050786 142.737488
-2.077597 -11.324835 119.372421
6.523516 -11.157369 120.672279
-11.447569 -12.305684 112.457741
-53.587559 -10.835656 114.370720
-4.638689 -14.905705 123.065178
44.687359 -4.731822 127.538162
18.642670 13.023880 142.685226
12.239157 -6.471981 140.508926
44.437580 -2.652736 126.696503
-0.289794 -13.135124 132.550430
-36.852993 5.382550 129.834793
29.713551 -7.488409 122.129875
56.827164 0.583551 111.394638
31.172121 10.267361 122.862740
2.593537 6.688991 113.879326
-24.062857 -1.123739 124.201019
-56.197250 -3.451471 116.524605
1.671116 8.695349 109.118233
-16.404530 0.809636 137.155472
-7.465885 -13.913963 125.632103
41.714508 -2.884434 129.724594
5.927726 8.969974 153.708954
-11.936471 11.950530 141.732880
-14.964750 13.782084 143.534470
-7.592201 5.453562 125.329582
0.575329 10.355466 134.284653
-14.738326 -1.578004 112.121864
45.043076 -13.034871 114.692719
-3.588946 13.526361 145.478333
-40.456432 4.294784 134.427338
-51.050060 2.087217 112.318672
31.195244 -7.195169 126.027672
1.302300 -12.222086 138.057526
13.923101 -0.477790 123.197105
35.002258 -3.384917 133.386093
8.044080 -4.584056 146.555099
24.237648 -1.778121 144.832169
26.681702 1.160151 141.490936
1.068174 -5.953758 146.275833
38.984833 10.531613 125.029221
-54.640915 -0.969695 123.026581
-11.360216 4.260729 103.983894
6.245252 10.306047 152.724686
-18.470453 11.141685 140.709152
40.972000 -6.065683 125.985107
16.755030 12.608456 141.804047
12.525188 -8.312102 138.722961
-49.297920 5.194760 108.596306
47.456455 -2.486406 107.208344
-21.487009 5.744138 146.194916
-51.626839 6.571665 121.102684
12.517326 -6.887216 134.803497
-25.910727 9.647766 132.207932
-12.743078 2.759430 105.051567
24.319962 7.919376 144.488815
29.576334 5.446314 121.281311
-34.633514 3.752702 133.075653
37.709454 -3.174360 113.696594
36.913193 9.945936 120.276169
-3.131026 4.927672 118.367371
36.223209 -12.128974 121.051956
-43.020866 9.538915 118.316383
-10.408973 -14.524053 133.465057
-44.680321 8.878505 116.969231
-8.039818 -13.737615 137.140015
22.659914 -1.859037 132.320801
-2.385966 -8.635356 140.947372
33.366825 -5.269946 124.364639
26.767429 4.542272 136.307449
-54.658192 5.318453 120.529373
30.644983 4.404655 115.787125
43.521797 6.688645 118.288536
-57.657207 -4.153361 121.637123
34.235905 -2.601336 116.537483
-5.841217 5.197893 113.799530
16.155832 -0.138466 134.087570
24.204742 -2.189022 125.306000
52.784374 -2.533967 115.001595
-55.717731 0.063860 116.728775
9.413364 17.568537 144.175568
27.194420 -8.117101 122.005241
22.208775 3.142183 145.522598
-21.245743 3.562114 149.286972
33.846016 8.554763 123.626457
-29.846798 -2.500019 111.080704
27.966892 9.665886 127.679420
29.572943 3.949911 117.996460
38.480633 -6.146472 130.424377
35.003277 -0.346083 134.409698
0.644185 -12.281939 112.241684
47.550674 4.291307 107.726837
-38.419033 7.999396 118.645058
-18.194576 6.355113 148.236816
-18.661648 -2.555995 140.136703
5.620983 -10.801733 137.902390
50.196232 8.197048 115.266090
-53.246639 -4.065929 121.875786
-13.646940 -3.179576 121.542854
40.278191 10.492918 121.243729
7.707817 -14.173557 134.763580
-1.925298 6.453158 120.794380
22.419075 -2.133519 144.731674
17.083033 5.935930 150.554657
-45.640213 9.532587 115.223854
43.321438 -10.593655 125.970634
3.570434 -13.013386 121.251587
-2.711622 8.532951 114.524315
-50.442570 7.041838 113.237968
-10.192669 3.026603 121.146935
50.466301 -7.393940 115.933945
11.674009 12.796410 135.973740
4.323788 8.576762 107.656067
-54.710590 -5.966563 116.481094
-46.140785 -7.847124 120.954971
-8.354311 0.661924 152.168564
31.198868 1.960503 138.845734
-14.017618 -7.061591 143.724533
-14.922152 5.723976 135.046661
-36.760895 3.270126 131.031036
25.316580 5.161136 141.417496
37.302933 3.839475 110.843811
-31.920465 2.683007 111.321823
27.834597 -6.659396 127.153564
53.578922 0.318151 117.990463
-22.688833 10.088816 131.595535
26.504126 -2.249191 116.367203
-23.171227 9.276012 140.401031
-33.401188 -2.540099 110.610184
-43.865242 -1.629520 132.304489
-27.510521 10.104092 126.540207
23.224289 9.657336 139.367020
-27.868719 -0.857515 114.974876
47.911694 -1.280763 107.207130
-32.025627 7.230757 111.110970
-37.481945 5.600206 108.034210
55.105709 3.784378 113.767586
38.461750 11.013687 119.385490
26.768545 -1.076155 140.170059
38.720314 -3.211301 129.967804
-35.702061 4.497401 136.627899
-28.550886 9.246854 132.945969
-6.921290 0.572860 151.562759
-5.114679 15.042701 141.151947
38.764469 7.115885 109.323189
44.395607 -8.450862 108.634789
-34.041599 3.702472 131.484116
-12.662540 13.348287 138.809769
-31.897388 4.552454 116.101120
12.171483 10.338265 141.453583
36.794785 -4.763245 129.473022
36.379513 7.941637 112.345024
13.556054 -2.306978 121.431992
44.556786 -1.963710 127.343262
33.459896 -3.494478 116.257729
9.690265 8.017348 127.771324
-41.517731 1.588288 111.529610
-51.896980 1.643517 113.328758
49.380035 4.318008 109.235786
-0.059338 5.859668 118.229568
-38.104542 -11.651465 115.578712
-9.304349 12.018938 149.782990
40.194115 -11.030257 122.430313
44.557701 -7.845264 126.371010
-13.658328 -7.564291 124.538712
7.403732 -12.284266 130.738205
43.800480 -11.220162 121.083321
6.291931 -0.902430 155.625732
40.116730 8.038741 114.676781
45.151299 -0.491149 109.961769
26.896917 4.939640 138.434555
13.766488 -4.656696 121.927567
12.178192 -10.313780 133.732864
17.777306 4.363222 148.581467
35.061790 9.561770 128.544693
29.333487 2.709150 140.209976
8.953313 13.171569 145.895859
35.039780 10.194628 123.759689
-50.503792 11.446511 112.406883
38.312473 -5.078996 131.030701
34.068554 2.535617 108.474068
22.146215 4.399314 131.776352
-23.916800 -2.570357 144.686981
-27.395676 -3.252558 128.821548
-1.927451 -3.465689 152.547867
6.163965 4.368147 154.671661
-55.439560 -3.472200 114.486816
35.771183 11.242800 122.518730
6.391120 4.817428 115.637047
30.731081 10.389448 132.449448
43.628178 8.091084 119.951385
-52.623661 5.405819 118.422821
-23.265453 -1.375115 144.178436
38.170750 -7.028966 131.866287
2.146862 -12.582239 114.463486
5.771782 10.263383 131.779556
48.360966 7.359748 119.505814
-3.934237 5.761512 118.194046
-49.731117 0.010476 118.341423
29.069628 5.812723 127.878418
42.796654 3.705098 126.186363
-41.052059 9.276383 120.060173
5.327245 7.371958 120.229164
10.277428 -5.977749 144.839310
-48.849350 12.843404 110.706238
0.866383 -7.478907 142.038132
-4.500861 11.032905 152.333206
36.599697 0.942476 108.672531
42.493065 12.027352 122.903061
-0.548183 -14.281283 114.483002
30.702896 -7.271054 125.009834
-13.050606 -5.304163 120.554581
44.666637 6.919848 120.908463
16.073122 2.639599 134.942276
26.107344 2.226853 145.016037
-45.295467 -10.142152 116.622719
-46.230007 -1.360890 107.695198
9.690759 -8.375735 144.061371
18.271961 10.988008 135.789413
35.995712 -7.012822 134.850494
13.879482 -4.110336 120.946365
-50.464836 -7.320920 121.797905
40.457867 10.208986 124.412659
-44.057568 -4.486394 111.311737
-9.033757 9.254564 129.558517
-14.942262 7.379938 138.540497
-11.259041 1.917981 124.078957
19.862602 0.336518 149.889694
25.358210 12.275958 139.050385
-58.071289 -3.172554 116.311241
-56.389793 -2.772199 112.988762
12.090561 -7.340928 119.758934
-12.176466 -3.697259 124.779449
-8.821259 4.545461 115.239555
-35.540783 4.987822 130.573441
-18.423388 -0.138889 136.012741
1.549534 -10.417789 106.891151
-9.620282 5.154849 114.182327
-49.026039 8.746634 110.891075
50.599247 -7.242721 119.737015
18.289331 1.984133 135.257248
-27.513622 7.826577 127.347626
-9.816609 -5.492825 116.748695
-11.321492 8.169616 130.555099
29.649319 -7.966481 120.674454
-35.501659 2.180149 130.294693
1.557174 -2.035619 151.005005
8.614391 -14.833753 128.510605
-14.430854 -3.415277 128.854660
-37.319103 -7.771262 120.106483
49.823399 6.130000 117.136963
1.265821 -4.010089 151.598450
-33.506271 2.517344 144.493240
-53.647964 -1.342574 124.963173
12.019147 -8.128328 123.659805
51.583237 6.305707 122.378693
-46.445034 5.595721 125.944405
-23.688084 2.355458 121.020546
31.522469 8.563467 131.315704
-15.819120 3.825003 151.492844
-10.729462 -8.674966 134.247589
36.801025 -4.857727 136.595825
49.349007 -10.130845 112.923279
13.443328 -0.538820 148.479813
-16.226791 -5.995425 110.381638
-34.683964 8.884548 128.880310
-52.306068 -8.738749 111.959587
-16.692223 3.293460 139.381195
-31.023130 -4.701960 128.480453
33.060104 5.982711 118.271370
8.443037 -10.895905 111.549545
-49.855896 -5.605770 127.377747
33.780113 5.103502 128.565887
9.204179 5.651106 117.532768
7.039310 -11.154228 113.475021
-44.993675 -4.514449 122.983711
13.671132 -4.573009 106.844711
48.116302 -10.861738 117.375923
46.142441 -6.728651 125.094765
17.594654 9.346721 134.710831
40.311237 7.769763 118.599533
41.848503 7.866582 124.172501
3.425516 -2.176779 152.714828
-32.572018 2.583484 140.529114
15.953562 1.387138 149.930099
-36.551029 0.955503 109.158966
45.475842 1.718182 111.642151
15.065256 -9.183918 136.823196
31.145910 4.618684 118.064354
52.542236 8.642063 111.710953
48.066204 -4.057229 122.225906
-17.186071 -6.106224 111.299095
-13.376794 -6.248401 139.366531
26.634525 2.061076 119.550606
14.634168 9.584594 148.326935
34.263180 10.195244 123.932198
-26.876045 10.442282 132.778641
14.835695 2.704407 106.767738
28.664551 -2.523056 132.290024
-39.170452 -0.122196 106.700699
-24.353624 -2.737571 127.035637
12.987095 -8.222946 118.913040
1.500485 11.692756 129.445969
45.977654 8.874758 120.090973
8.658449 8.326816 129.573837
31.252270 3.045910 112.122070
-32.520359 -1.679232 132.412704
-5.378189 -7.666545 139.933594
-18.324738 -3.729767 138.950745
41.045902 7.130890 124.029182
-11.912077 1.380189 127.452553
16.678310 -4.809354 102.756073
35.138084 4.216766 108.783630
51.350632 2.966335 110.181717
-45.931423 9.449804 115.967400
46.193188 -4.453317 124.103264
-32.135986 -3.223457 110.699425
11.073065 9.514669 131.867065
14.587266 -4.132437 130.337158
4.750587 6.774794 117.081421
28.243139 5.352756 118.653870
45.893230 9.204023 110.193008
52.400074 -9.318588 118.310509
-43.135918 -5.393776 126.255310
14.802441 0.629190 121.286133
-13.012589 -6.043615 110.271843
-41.899284 -9.280046 128.314606
-30.978224 3.144512 141.933868
-40.913189 10.254783 114.770088
-42.919525 3.192790 106.378441
55.821442 -6.831931 117.275764
28.156330 3.779305 118.428024
9.671968 -12.720599 128.738358
-12.836042 6.579281 130.347092
21.577185 1.507092 147.360321
48.648697 -7.771663 125.609459
13.075933 0.194129 153.560364
-13.783206 -6.892457 108.965576
10.787045 -0.259661 121.885147
35.775486 -1.818265 110.818390
53.173435 -6.187259 118.347298
25.459545 0.082901 141.494827
-25.629690 7.844172 138.904831
-4.336901 10.307024 153.587067
15.424175 -1.550680 130.487442
45.559048 4.718073 107.641914
42.741753 -7.270319 125.896889
15.359807 -4.531041 140.428879
4.427484 -12.731539 115.423691
-34.213375 -10.502464 114.203354
9.570271 -7.828535 140.675354
46.683628 -8.295526 116.593010
-14.891454 11.967887 140.375702
-20.343613 8.074163 133.407349
4.307034 11.791524 142.615387
41.546928 -0.004775 110.437950
54.933071 3.874237 115.387398
-5.156214 11.164897 131.736328
-13.221236 -9.499896 119.129486
-5.555659 -0.379179 152.664474
30.534731 -0.542126 139.395523
19.997894 -0.061745 125.347092
48.904942 -3.683825 105.269905
9.016440 5.149812 115.456993
-37.767647 -4.747488 125.521706
42.307076 -12.510255 116.851471
3.109817 7.689392 104.034508
16.545870 -4.763734 139.061432
29.764128 10.353041 128.820847
-5.333425 5.386348 119.958588
50.103832 -5.244517 111.759888
-10.254122 7.066016 111.630745
-14.421167 10.476459 149.322815
47.089310 -9.711172 123.607430
8.916555 8.143663 153.261475
4.507677 -11.740077 122.934280
18.355658 6.152472 133.449448
-4.641821 7.203641 151.706421
-0.178845 9.880083 149.786957
5.198933 -11.442993 141.558167
51.370651 1.300308 109.905563
-29.006330 -1.101527 142.045410
28.584305 12.196167 130.393066
26.101023 10.602146 128.698425
-13.099632 -0.731853 120.926674
-30.471184 6.841819 129.621231
-38.516510 0.805058 133.821075
-15.684556 -7.595096 137.112564
33.744751 -9.557419 123.188240
-9.822680 12.647438 136.684174
4.372856 -13.770968 138.518585
-20.373550 10.682477 140.053528
-14.575813 -2.364174 133.785675
45.356438 1.533223 108.027611
9.692101 -8.710049 119.173515
8.754953 12.036682 129.796738
-4.078228 6.357191 112.798027
13.170743 1.297792 107.004593
-41.675907 -8.297409 111.300087
-8.556954 -12.222439 132.223938
37.971298 -2.509566 118.996384
30.679129 3.178201 114.401733
-42.484241 -4.656247 126.970612
-39.884819 -7.726755 111.811325
0.748928 -6.840929 151.999512
32.052784 9.941039 117.590118
36.335976 -5.298467 129.161652
50.775715 1.917206 109.660385
12.266152 3.353223 126.375717
1.160908 10.176944 155.660767
-8.420555 3.973929 122.816818
-21.656813 -3.348655 128.160568
-51.115192 -10.675301 114.897430
-52.980274 -2.093734 112.329346
12.957794 1.143265 121.324097
54.362286 -2.081866 113.397308
37.694538 -7.120600 127.234993
39.961384 -9.320977 111.096138
-1.898991 -8.283471 139.819321
-40.341946 -12.080953 119.443642
-25.030996 12.133250 137.607162
-57.109192 0.596238 119.640976
-28.435389 -3.847721 131.569473
37.262573 -10.306669 119.185455
-23.491737 3.705440 147.518173
-50.724773 -7.021133 119.729950
-5.424069 -0.795112 150.022690
54.412785 -3.560001 118.455528
-52.026051 -1.205677 123.502625
-57.456245 -0.231802 117.322296
13.998755 -6.101452 137.787201
-54.694347 -8.664309 117.572540
38.949730 6.924871 109.190910
-0.982917 -12.746293 134.522736
10.551754 6.902499 129.476898
28.062654 11.721565 128.470642
-51.522049 -11.098324 112.497818
-14.036554 -1.736387 111.061508
-43.688942 3.648039 106.577881
-10.326864 -12.261124 137.595764
12.410844 -1.627939 122.482536
-6.869018 9.533917 154.242874
-37.275837 -1.812391 134.376465
-11.146551 -8.119638 141.890411
-52.062340 1.164711 111.807587
-30.186523 2.025008 142.512024
3.483889 -11.651340 116.613358
-35.896355 7.468046 116.159615
-9.517170 7.624488 106.713196
-29.002062 10.695510 136.697510
12.075414 -8.149259 135.479218
-53.672344 -4.277932 116.293701
-2.228124 -15.396149 125.392548
5.970661 7.406135 107.544548
-10.914739 -5.720192 122.400711
6.633878 -3.858937 145.923691
3.406431 -5.679224 145.277832
-14.032079 2.765048 130.089828
9.557621 3.184884 124.964310
-13.980441 0.950900 134.463303
-32.007607 9.263224 121.901405
-11.312989 3.430711 115.593079
-27.208212 2.544852 145.027130
-26.884712 -0.869323 116.948860
-39.288315 8.410295 112.699966
7.819726 3.886958 154.393280
-43.896091 2.279274 128.826202
-8.971513 7.124403 115.598053
-37.553574 8.925182 121.768181
53.022751 4.375106 111.780579
-15.299564 -5.140892 137.042603
10.746455 -9.502737 112.383240
-11.434911 -10.228300 123.638977
-54.886112 -3.714708 117.901787
-8.381698 -13.169949 130.287643
-11.184693 -8.305883 140.953766
-52.821934 -6.476182 117.151077
-50.134647 0.343429 123.508774
-42.808239 -1.428545 109.334961
39.039562 4.103356 106.800835
-11.369013 -8.896886 107.630478
38.915222 -4.289126 107.740616
21.371277 8.147641 134.446381
-34.696842 -1.159086 133.617569
52.203880 -0.279003 120.450829
43.848091 10.397775 116.850540
-3.327915 -0.311076 150.367493
-33.804203 1.409044 140.171219
17.361240 0.440729 137.723938
23.295851 9.753979 135.056961
41.935066 1.131886 109.297356
-28.111916 9.305879 137.940826
33.999664 -11.336808 116.225220
-15.736420 0.662297 120.890594
54.950806 6.528836 116.014397
30.398609 -1.833117 115.312119
-14.176988 -5.828415 117.555840
-29.662947 -6.014862 116.254921
-33.211658 2.618770 139.252563
9.070468 1.197596 151.209335
7.287099 8.900111 151.759644
9.878950 -3.793156 145.907654
-25.252087 -2.681462 143.698517
34.160103 3.187624 133.360031
51.477364 0.340626 116.268929
-0.041556 9.090900 117.525948
-2.284724 13.310267 152.234146
39.505024 -8.717205 122.874924
-22.963594 5.886273 129.549377
27.828535 8.401778 127.985458
-35.417339 4.884905 108.723190
-36.580486 -0.899022 113.222122
15.644424 -1.392949 138.346741
-7.534107 11.990866 140.387421
-19.250937 2.341231 135.557236
-40.264503 4.679129 131.279160
-9.588008 8.486506 153.168289
37.729412 -8.843527 125.395584
-49.645794 -1.849028 127.197990
54.198872 -7.012438 116.599594
54.347687 -1.501140 117.520073
26.237411 -5.590231 134.347382
51.283234 2.128845 118.815819
11.540825 4.810259 111.847794
-4.088538 6.100817 112.420387
-32.414970 -0.016404 139.279968
26.747986 -5.440961 125.523186
36.731335 -6.767320 128.267670
-41.049145 -2.807262 128.923737
-7.227871 -6.435802 142.872147
32.310707 9.099302 128.753571
-22.767199 7.529174 130.118820
14.973843 -1.617444 138.082275
-8.610825 8.405895 112.227303
-12.566706 -10.047382 127.252808
6.911330 -11.182148 116.840111
-35.805740 8.925996 113.522667
-8.985924 -6.139020 108.605621
-8.094353 -12.648431 111.886467
-56.682186 -2.388243 117.463417
39.599510 6.740387 112.186211
13.549976 -10.111435 124.929695
57.269917 3.479798 115.556999
-22.103291 -2.584216 139.298431
-33.122910 -7.043143 124.124352
-7.823184 11.283588 149.230637
6.497344 -8.422520 114.193840
-21.952450 -2.967671 144.699753
-13.549761 -5.934879 145.307953
40.327400 -9.568876 121.100113
4.157564 -1.039580 148.016052
52.239994 -5.808184 116.523018
-19.603149 1.977010 148.902267
19.220169 -1.048442 133.639236
50.901447 -6.125498 109.057747
54.457989 -10.615032 120.073494
-19.600702 4.113918 149.418579
-49.937634 -0.859629 111.864540
-12.832869 11.833304 144.914474
45.551537 -4.682998 109.783325
-30.004456 8.818520 137.040131
-48.277130 8.901258 117.856087
-39.592663 -5.114757 112.664955
37.864452 -7.194349 124.206367
39.398621 -4.303059 128.814117
12.555359 -8.633202 117.255569
-5.207184 7.485596 128.037430
12.072819 -11.311960 131.673508
32.490131 4.029262 133.876160
-23.667780 -0.083859 148.353470
36.822674 -0.689176 133.068985
-7.395854 6.015899 123.464745
43.945347 -9.379651 111.853439
-50.472099 -11.624261 117.902565
1.929225 -8.244698 142.360870
-44.632431 -6.564947 112.202759
45.249950 -13.396173 118.180550
25.287445 -4.965064 133.961716
-32.769730 8.768788 128.721069
26.704414 8.599564 128.272491
-24.958794 1.397044 121.996651
-12.046877 -8.451638 125.600792
44.886868 4.288629 107.920593
37.695457 -8.610136 124.205750
5.882582 15.503882 143.349289
6.057148 9.056327 105.315254
-23.037464 -0.529923 137.957993
-7.312557 11.894651 131.716675
23.075552 -6.169806 132.315414
-4.465796 5.664799 116.354385
35.193027 0.030789 134.765015
34.234650 0.405912 135.249359
37.412701 -10.461207 112.888184
44.925373 -9.113753 109.231071
-50.049706 -3.886275 111.877380
43.765976 -10.626078 122.865959
53.238991 -1.592442 114.183701
1.113925 7.819133 121.519623
-41.845364 8.890795 126.533005
-14.160855 -10.270759 133.007385
14.843461 6.635530 136.825562
12.930722 4.494080 150.976486
53.225029 -6.662433 119.330109
38.591408 -0.968179 132.746552
28.828899 -4.402962 116.535416
32.496582 -8.208428 118.863335
-45.391304 0.252599 108.143021
27.857103 0.249664 139.417267
-32.659233 -4.986166 118.624298
-17.075548 12.594102 146.623459
11.932348 0.325755 150.888702
-49.619781 -7.035668 122.479858
-14.169270 -2.007640 135.240997
-51.192669 -5.020236 117.259109
-11.942219 -2.199883 144.210403
12.268642 2.830785 115.094017
-24.840643 -3.281741 139.613403
-50.968933 6.327996 121.194191
33.900635 -9.644557 123.326942
-37.022358 7.775037 126.139763
-3.979370 6.394353 123.518669
32.932697 8.097574 120.093803
52.388157 0.767102 120.802582
14.933915 -5.394691 123.210060
39.440899 -5.470620 128.929764
-30.400661 3.927844 109.908928
44.479298 3.029560 107.831985
10.217897 -3.917129 148.781235
49.806984 -2.238431 108.119171
-3.199177 -3.989060 147.753235
19.171871 1.364371 137.677139
-51.467091 1.310739 126.171295
-51.939892 -6.294438 112.847420
-43.548946 -0.974695 108.423218
-44.561897 -7.073328 114.671097
49.012779 0.230415 124.964584
-38.923298 -9.191890 121.012047
-55.444420 2.604465 116.618309
-52.907700 -7.243228 120.922012
-39.277924 -4.471097 128.332535
-11.907704 1.217145 123.611885
0.305427 -7.863074 142.132706
-0.655481 11.430162 109.985008
-39.928932 5.965300 126.302216
-42.826080 -6.587590 110.088890
-7.073012 14.978433 140.479324
-25.347589 0.808745 118.259529
-52.605373 0.729985 111.062325
30.149830 5.127569 120.972565
-20.452711 6.713090 132.337173
5.455848 -12.800039 130.459442
12.488642 0.666989 116.271729
-25.488621 10.676427 126.246170
42.907990 -5.034462 108.285385
2.076108 -6.670510 143.832535
13.116111 2.277241 151.337570
-48.915993 -7.135254 112.211296
-43.870693 -7.609019 123.916084
51.074997 -0.825929 119.940308
39.871616 5.940462 114.761375
-15.165368 -1.422942 111.687172
12.702913 -5.857597 141.395264
3.380821 -12.697470 116.666130
-49.881977 -11.263474 114.299789
-12.578308 3.263667 107.864502
-50.260563 2.985792 111.086304
13.925304 -4.741403 113.953087
14.965384 -0.983301 132.076599
27.161421 -4.418176 129.779907
-51.857441 7.252623 110.164299
-19.713665 5.428819 133.812454
-35.669086 7.965831 117.327965
16.816994 -0.400169 134.922440
21.430441 -2.438946 128.992218
-54.004704 -5.545964 113.521965
6.857130 14.055109 140.881592
30.982239 4.989057 124.378357
34.328918 -0.769374 134.212433
2.612637 -2.818196 149.813339
-39.416428 3.331040 132.069260
-10.329378 -5.534090 124.269905
17.017378 9.451477 150.619629
-36.751789 7.857624 117.664719
10.345519 8.238152 133.441269
-37.688202 9.566926 121.118835
-14.498475 -6.265522 111.064590
3.610608 5.592339 112.240181
13.887162 -9.769763 137.918716
13.523497 -6.930424 120.758995
-25.199097 5.818269 138.574463
-14.857790 -2.238612 113.919304
-19.472792 -3.343621 147.879898
-10.442670 -12.176684 127.014175
-46.288883 -3.192163 127.030937
-31.546873 5.410856 113.735168
2.823167 6.106647 113.937027
36.950951 -2.754835 113.113670
38.406094 -0.427780 109.897415
20.299208 -2.567595 133.266724
9.153736 -11.499274 109.278328
13.369268 4.464982 109.463737
-44.451553 -8.503602 125.664635
-49.252384 -5.700843 125.256691
-9.263213 9.904884 147.254181
28.273315 -6.718760 132.494751
9.943802 -12.644469 137.904984
-15.647673 -6.635884 132.938690
-22.834887 1.214746 129.023666
-55.488838 -3.609266 114.335808
-55.559925 -0.985481 118.866257
-7.992890 -9.438126 138.410583
2.088435 15.264345 138.110703
27.692881 -2.422257 139.783981
-23.593725 -0.098014 120.719124
-33.322227 2.282801 130.992218
-17.921829 -3.706267 141.845703
-6.505312 2.974329 153.719559
-39.922310 0.259052 106.681343
47.903526 5.471531 110.891167
10.780008 -11.923827 127.175156
25.524372 1.571360 141.517349
8.032679 7.491569 110.250000
-11.248926 -10.606933 119.946838
50.555141 6.302612 106.428284
10.334825 -9.755336 133.803772
-13.347445 -3.060755 111.659019
-55.465813 -2.219028 118.896263
-48.343716 -2.511489 126.442589
-49.372250 9.057733 116.018822
15.846675 -8.065621 130.597015
11.114910 -5.692980 130.339172
-30.880045 -2.354731 126.579033
5.034018 -16.885729 131.254730
-22.453730 6.571913 131.333893
-32.261116 -2.316397 114.098976
-39.286308 -7.224981 110.335548
-30.334648 6.436126 130.030350
23.761381 11.004539 136.602020
-6.560005 -12.118057 124.430046
53.978294 -0.468393 118.118179
-24.233931 6.520787 139.394516
-43.399994 3.269538 108.248459
2.028730 7.393143 107.626343
12.347224 7.104038 110.193100
-6.866080 4.403466 125.212173
-33.793091 1.375963 136.245605
-0.816232 -5.154038 143.617691
-2.250925 9.165035 125.638130
25.496052 6.614660 140.974075
-38.825413 -2.307642 122.140350
-29.678263 0.282811 113.457253
43.517864 -8.125542 109.136909
47.324898 -7.715152 125.357384
-32.577225 5.637231 117.461975
-16.193523 6.018939 134.555954
-35.958862 7.257653 129.171646
-26.979942 4.526371 125.822609
-2.954613 7.632289 114.220345
-8.889315 -11.597402 135.625366
-12.636322 11.872468 146.170380
44.856422 6.337145 120.838570
-28.097996 -1.908733 126.868240
13.308415 -9.209659 109.476242
11.035854 -5.965221 118.252792
-55.498016 4.456246 114.856720
12.908218 4.784269 108.392700
38.430725 3.461774 127.314255
-41.462929 -12.343397 110.850281
52.503727 -3.693937 120.265022
3.541788 7.058136 157.057816
-18.143684 9.394171 146.232422
-53.286690 4.779728 118.125946
-48.660343 -6.846340 121.447662
-27.866371 0.697685 134.054596
45.945610 8.190969 121.997131
25.043751 5.853592 126.194618
42.545147 1.035325 126.163803
28.619392 11.763262 132.006516
31.345591 -11.836716 121.124977
-11.856754 -1.066825 121.069778
-4.611768 -14.847794 110.251648
-26.961647 -5.317941 123.744659
30.195299 -2.249873 119.339912
-14.118923 9.151710 142.218201
-11.963563 2.656945 117.370789
26.653700 3.641599 142.641632
-8.289472 8.264773 150.382019
-13.525455 -6.192064 141.768768
-43.760078 9.797024 116.295303
-50.548843 -10.525413 117.128235
29.762754 2.542243 113.801826
-5.974704 -3.875719 141.355301
-37.712845 -6.173985 113.010933
-12.685618 -6.684576 140.692245
-43.033478 -14.820017 117.619942
14.167841 -3.617636 136.035004
-45.554249 10.542171 110.422806
52.599434 6.160450 110.779900
55.871120 0.271915 112.929611
42.846764 2.432273 109.994629
-27.911873 4.080804 128.462265
7.539451 -11.710506 116.496704
33.952942 -7.342993 123.257744
41.150105 5.883419 111.394394
-50.613564 1.732497 109.244476
-17.845594 13.874738 137.670731
-8.183465 5.425587 111.278893
-9.632036 -7.254232 140.762161
14.152896 11.230780 139.795670
13.595128 11.711349 138.100388
-46.507866 6.079044 108.062439
-34.813385 7.546434 124.538986
15.328902 -1.755254 137.133682
-52.547554 -4.303777 122.044228
12.769475 2.461291 150.920547
41.612049 -4.154453 133.038864
31.556238 3.732792 131.534485
-9.200972 6.652323 113.866501
46.269642 -0.408229 107.911339
-10.415668 -9.004862 139.467346
-49.342834 -8.867537 121.513214
-39.885445 9.151812 124.316673
-12.275558 -7.601615 123.472710
20.029968 9.532073 131.588638
-33.928665 -7.913183 119.876457
-6.946991 -16.140005 128.084854
37.808228 8.214361 115.230362
-53.160900 -9.407216 114.370117
53.974998 7.914253 114.527702
-1.193457 9.671268 130.835709
-20.379448 -0.834131 129.669952
43.352627 7.981003 107.131065
-53.764919 -0.977205 116.165611
41.547005 7.912596 118.158669
-6.337782 -10.088249 127.684708
51.407139 -0.769998 120.957634
11.593497 -7.206289 140.057129
43.031963 9.249960 108.496269
-0.220303 -12.022835 107.579712
55.760826 -4.970506 116.090729
-1.009674 -7.101679 146.302719
-31.606487 -5.928621 115.015190
16.452347 5.115836 150.468552
-31.846632 -5.248681 129.332535
14.007565 0.878253 130.618622
-45.301117 -1.597625 135.510315
21.592659 13.932847 136.629257
4.288693 9.891196 130.090820
6.132000 15.131755 140.064026
-3.440983 10.149189 109.042877
4.163897 -11.960597 112.483574
46.199299 -10.530671 119.446198
-28.672325 4.342105 121.331375
9.525101 3.314322 114.688705
-8.720758 -0.470502 151.565140
-37.766411 -1.540823 109.649193
32.524456 -5.184977 116.196236
33.016186 0.776401 117.868568
50.716324 5.306607 109.620934
12.030526 -9.420758 127.109962
-26.930889 -3.628776 117.429619
48.350491 -6.149772 110.888313
26.047482 -1.911453 117.685455
-14.532414 -1.426393 137.572556
29.469973 5.944161 133.421234
-11.224737 10.796512 149.594421
36.034748 -9.202233 118.393196
26.800066 5.947104 135.847260
-43.968796 -11.128636 114.657967
10.565495 14.526849 144.363510
35.240421 9.146023 124.264351
41.384315 -0.760095 126.834908
-12.553502 8.211733 113.621346
-47.962234 3.989678 124.834496
-27.364563 1.084038 112.713776
17.658461 11.168907 145.324997
34.063080 -0.607239 134.343460
-42.842373 -9.758159 120.861214
-31.183903 6.309954 111.209717
26.172657 -3.668796 126.812462
4.792457 -8.065219 140.401505
-2.282802 10.730715 151.885330
-27.365589 3.035250 128.169540
-15.472953 2.063535 117.816666
55.006046 6.071495 112.501816
50.782269 2.248823 110.013596
-30.386597 -7.348722 120.167793
33.994133 -1.946428 129.193054
18.886311 3.502752 151.992920
48.021629 -3.555641 108.703537
22.893257 5.962579 143.332214
40.862297 -5.090119 126.879112
9.352143 -10.510206 114.788635
44.223450 -6.099185 106.964088
38.698265 12.561463 124.380547
16.832792 -0.867520 103.645485
16.176086 11.237510 140.616272
34.547886 0.245372 131.279343
-44.460373 2.391270 108.645676
-11.571554 -6.554744 131.723251
35.456074 -13.377465 118.062698
-11.484606 8.041361 111.755859
-41.201580 7.600005 107.758064
50.129902 -8.006046 112.716026
-39.846348 5.459797 124.440475
44.873180 -5.490451 125.191780
12.076500 -5.150201 145.755157
-15.070213 11.290260 143.200317
-53.138187 8.079128 121.363243
-11.722947 0.825938 148.825333
42.730476 -5.575325 110.524376
-7.486887 -13.402812 110.063400
1.334587 -4.603751 149.711029
-0.903934 14.279805 133.751144
-22.801785 8.691664 132.420547
8.304729 -12.773879 107.214676
7.658752 -10.777206 137.322617
48.463200 -11.222852 119.752899
25.055588 -1.180611 126.319916
2.360555 -11.416862 111.439117
-44.953087 -7.061548 112.431282
11.845136 11.917806 139.619858
29.908014 9.857368 127.104027
-9.745806 -11.180480 107.013046
-11.567070 4.369572 114.647530
-46.409527 -10.058681 123.281143
50.263863 -7.348808 112.641708
-52.825081 0.477010 122.102356
50.510036 -8.343345 119.370132
16.681152 2.274057 109.857040
9.006566 5.786160 113.061531
43.071884 -8.077617 130.157166
-0.022229 8.556502 127.658371
-45.509068 2.665143 108.528595
-36.130066 1.157782 133.792068
53.298691 -7.176084 119.632164
-25.771248 6.776745 124.938057
35.866558 6.315446 116.726067
-33.019505 -0.423143 139.071991
11.197924 -6.556293 119.416992
13.217553 3.835793 105.934685
-47.117970 5.068605 104.839783
-46.278183 -8.738997 122.270409
20.720829 0.691837 129.650375
-42.245190 -9.744855 120.949020
-52.681652 -10.730156 114.800995
-19.274429 7.857694 149.648376
44.845699 -10.778953 120.371849
46.678135 5.861871 108.439201
-15.803272 5.395875 134.378769
23.799486 7.090465 128.274551
47.034321 -12.033833 121.566650
48.327564 -3.976346 111.138092
-32.371220 7.335338 131.677719
-31.264469 3.024852 115.823631
5.772536 4.726274 156.219330
-14.072048 -9.444283 110.219742
-31.489550 6.987520 136.049591
38.462196 -3.311731 126.466087
21.551960 9.453938 139.250168
-52.060642 -5.018329 114.903168
42.932064 -12.316762 113.416443
-43.479988 6.353342 110.197548
4.652564 -12.955157 110.411324
-20.852169 8.781796 146.414474
0.851811 8.445569 126.471878
26.488970 10.588454 130.982605
48.697815 4.669879 108.699852
48.990707 2.939768 122.293564
38.203259 3.815452 110.492859
-38.731129 -3.326074 109.121086
1.836661 -6.864479 144.574921
4.721377 6.664535 111.382568
50.732716 -0.765590 123.153435
47.984947 4.870385 112.746155
-46.217587 -10.909533 117.122292
-5.084439 -2.681062 149.437317
-23.635950 -1.811936 147.918808
1.786281 -12.414401 123.040802
-17.656841 7.777374 151.260941
-45.426136 -8.858431 122.960381
2.637976 6.369349 115.813972
21.957735 -2.945671 131.399170
-46.197105 5.973769 125.769608
-4.156456 5.326687 111.251930
-35.613155 -3.792887 128.310318
-16.444300 -1.680150 136.951248
54.542248 3.744759 113.762871
20.317602 6.546843 148.419891
35.514709 -4.319362 128.004349
42.022388 -1.836784 123.538742
-44.646248 -8.478457 121.411697
-3.348699 -5.018623 147.259430
-5.075042 8.650437 112.446281
-54.750740 -6.071958 116.143028
51.236523 -8.821352 117.471115
-42.134796 -9.252121 111.592621
40.147346 -1.465422 110.302017
-13.639332 3.059934 113.120583
-8.250374 4.853980 122.109718
36.943256 8.920574 116.702751
-14.511446 -5.001406 114.382332
42.329639 -5.671670 126.625488
49.426327 3.808736 106.471451
35.033443 -0.303056 137.000458
6.683158 -10.807382 126.082390
-28.491066 -1.019139 132.796249
-46.317268 -1.390467 106.899452
13.124730 -8.634208 120.655357
39.351753 8.563309 126.869461
-29.681610 1.172495 138.516022
25.068693 2.176527 120.602531
3.827271 -2.007616 150.187912
41.277966 -3.240133 111.804741
-20.496307 -0.504611 147.629242
7.933704 14.268268 142.487625
-33.579807 7.779435 121.956764
43.086868 8.130250 114.056786
-55.281784 2.833153 122.944336
45.722343 -0.794855 111.035225
19.716702 2.992351 134.346527
6.130113 12.380466 145.150253
-53.076920 -3.491305 114.056839
14.022825 5.955754 134.641434
10.699460 1.267192 120.564217
-21.463142 7.208593 146.548767
42.971428 0.837651 107.190559
-8.522365 9.279046 129.161118
49.434322 -3.120362 108.469429
-41.229443 -7.643575 124.266563
-44.227493 -11.054680 115.784912
45.390049 -3.873885 106.308479
-4.056283 0.726401 156.567352
-26.021896 8.652130 128.232468
54.425217 0.633305 118.835716
-29.966740 -0.664833 140.152328
-26.097580 -6.127063 123.200851
47.052662 9.092511 115.199127
-34.547741 -6.202011 120.879509
-34.215839 0.492422 111.382729
0.054858 -4.441526 146.146698
44.404179 -8.499295 106.375954
7.587868 -12.561893 124.616798
-18.393303 -0.588460 152.365723
7.411646 9.507258 128.861176
6.061783 -5.862215 139.419983
40.453079 1.679991 126.217308
-16.695522 -3.909143 110.865746
-27.630611 -4.937247 128.485672
24.055647 7.240582 127.823158
24.035553 -3.614438 129.891251
14.702765 -11.084547 135.575424
8.961583 2.944229 118.470299
29.497770 3.254522 138.120819
-4.273861 -11.231740 139.870346
42.837727 -13.398224 111.412735
-47.987579 1.094383 111.973831
-48.305347 0.734084 111.350616
-6.391546 -12.118900 124.951088
-23.047377 -0.353664 142.129349
-30.935616 3.283731 140.507660
3.364172 -12.942270 134.182663
-43.102947 0.440098 134.580170
-46.121040 -4.875404 128.598282
6.515362 -11.516816 121.625511
-36.263988 -8.809570 121.187431
-7.739347 9.001452 131.148010
-2.882210 11.991666 149.418762
25.575302 -7.165102 129.289322
-51.691753 -3.222814 120.964523
42.805199 -3.387327 126.850510
-19.374048 -4.795252 142.146286
11.780022 2.265767 125.510834
-12.416893 -12.015489 134.000046
-40.034031 -1.059239 133.907227
-55.026825 -6.118947 117.412170
-15.633951 0.001616 149.326935
20.487211 10.725385 141.296143
15.623734 -3.774743 112.147110
22.091829 11.012685 134.611847
-15.684128 11.769223 140.316391
37.592052 2.787648 105.673973
-46.190590 -1.027670 133.486130
-52.357384 -7.492224 110.277557
-53.732269 2.068527 117.695938
55.162170 -1.589730 112.201447
-19.565117 -2.646518 135.925659
-43.251373 -5.572585 114.253052
14.682260 -10.630489 136.398422
0.464428 11.511215 133.827408
-47.932011 7.513257 123.440384
46.230537 3.151568 109.150505
-8.643131 2.652141 151.983582
36.334637 -12.988610 118.771866
-25.496574 8.018072 131.869202
-52.925442 -3.111880 113.980453
-6.972323 7.205196 153.799881
23.260504 4.368914 126.599319
-43.140057 6.215183 124.746376
1.901995 4.639410 115.190376
-8.979837 -12.213888 117.579163
27.530399 -7.861374 123.447105
-31.373625 9.684542 126.407967
50.643394 -6.993789 108.231201
6.176986 -11.747900 111.952744
-37.865486 -4.155871 112.694214
-11.317171 -8.696648 113.128326
44.493256 -1.231738 104.729553
-41.332119 7.115620 126.094894
-39.584244 -11.491185 109.697266
-22.987175 1.951779 130.007370
-52.499660 1.870601 114.681358
-34.397160 -2.464310 108.384842
41.653011 2.039240 129.335175
42.446259 -6.215861 126.576157
11.359558 -8.011368 138.578110
-52.409443 6.275896 110.410286
4.860548 15.549862 144.228790
-32.819962 4.053393 122.601112
11.515060 -8.607997 125.809456
18.074703 1.989661 137.953278
-49.514957 3.988091 109.130386
-47.759270 5.464499 109.226021
-15.156965 5.165754 111.922134
45.971119 -7.187829 129.742599
-14.844190 -2.147304 108.279709
15.470292 10.198191 141.684067
-15.552875 1.771197 111.220032
-32.653534 8.029604 118.928123
-40.954525 1.389945 135.704147
-36.846832 -2.945146 107.081131
-13.177410 -0.406728 150.484818
13.246099 10.728110 149.997574
-56.371994 -6.166099 117.496941
13.802406 4.960340 134.391937
28.365753 -3.722446 121.746811
-55.269524 -7.194639 113.629356
-5.334332 5.537245 117.918777
-40.913910 4.165888 130.769073
4.008941 -6.072304 143.305099
30.074467 -7.494090 122.560829
-48.195427 -12.626423 116.039597
4.193215 5.767834 117.514084
-54.316998 4.766220 117.758560
-9.365456 13.300555 144.679001
28.543133 2.774453 133.579163
52.822010 3.248835 113.505852
15.132562 1.009405 134.213989
-35.906963 -3.433909 130.764114
8.947174 -11.290956 119.437271
-30.288994 -9.143419 118.071877
-32.017258 1.467274 143.302658
8.247395 -7.902355 146.007599
-28.197035 4.757844 138.031647
6.367025 -12.076284 111.605789
3.567214 -14.684399 131.702515
0.396042 -10.924748 136.635406
-2.391972 10.075690 128.742264
-7.395385 7.254646 127.344101
-10.397004 -10.018026 112.231003
29.050482 1.735723 137.023163
-32.992073 6.618725 117.813141
-24.374851 3.708051 142.263580
-37.874493 -4.950935 109.075241
48.460335 -7.889156 114.104927
32.345146 7.657144 122.777565
33.304516 7.385778 129.140701
15.316901 2.579999 133.666855
-41.811958 -3.732181 109.402046
24.388119 -4.487553 139.429382
-0.505799 -4.736324 148.537094
26.120594 -2.670205 129.025986
-9.333787 12.181233 107.663498
19.026812 -2.128239 136.466232
26.379862 1.740403 143.147873
47.037724 5.580826 127.108719
-53.513653 -1.516316 126.278748
27.393490 -1.994894 117.962227
-31.031820 7.581984 129.240494
-45.168922 -6.856920 110.459473
8.112811 -12.494521 135.091293
54.416031 3.858668 111.002945
-17.626085 2.953064 151.308319
-36.475681 8.191524 118.296577
25.084291 7.892502 137.297150
33.855343 8.722475 122.059296
-12.661321 0.327685 111.490280
-17.057093 9.976900 146.185379
44.923077 9.998977 110.765083
-16.192242 8.605101 143.069870
35.668800 2.426939 131.703003
-20.706377 9.943985 141.335739
23.425312 7.519774 128.044693
-22.292347 11.703584 137.783203
-13.351673 11.629732 134.423508
-19.725870 -3.280988 142.451370
-0.330861 3.617024 114.711700
-14.220835 -8.874521 119.650696
-14.009635 -7.878309 117.830765
-14.464316 1.702381 116.427406
-29.531366 9.634349 134.417221
7.275043 -3.178139 149.026062
16.551628 -1.949434 106.837265
0.345510 -15.364435 113.044060
-12.951549 -9.374069 113.881187
-18.401594 8.176935 131.739197
37.911179 -2.422394 129.852936
50.265240 -0.602959 109.572197
-53.892590 2.089024 117.736595
-34.818195 9.073601 120.399811
38.214622 -7.743640 124.543762
32.903873 -2.192990 137.992279
-32.571831 -0.653878 136.928787
30.163296 10.272195 124.871246
45.571987 5.083066 105.662270
32.764717 -2.118296 113.649002
31.380327 9.652818 128.422989
13.805661 -2.138871 127.882446
43.420433 -2.746093 127.979576
-32.839336 -4.401410 117.186203
-41.596786 -9.832741 118.871368
-31.009350 -4.921176 129.079758
-6.867360 -11.496694 112.073685
-47.579788 -5.337297 110.809715
8.271088 -9.968415 121.653275
-20.665443 8.828498 138.543152
-44.645676 -10.357963 119.714523
-12.595346 -7.614494 136.935211
-45.840309 -6.513191 111.776138
-11.243378 10.408263 107.588974
-4.992504 9.193115 131.743698
14.858806 -6.259195 123.606339
-7.351966 -2.163718 148.660797
12.437583 -0.024291 109.891426
33.035732 -10.936677 119.915459
-14.160082 -6.779717 125.822395
47.157944 -5.087153 108.347580
36.519657 -1.607479 134.262695
29.275293 6.744895 132.513519
-28.569021 -2.431679 143.455078
-26.541843 9.792463 134.158310
-29.926540 0.032811 134.629761
26.085199 -5.137991 120.603935
-17.694143 9.637495 149.536667
-46.599663 -2.127088 109.059891
11.702588 -8.001635 123.550240
-1.264119 9.711710 152.180649
29.750580 9.183759 134.022415
46.044865 -7.771289 124.342163
-12.278113 -4.863350 120.988800
1.917332 -7.578141 143.693161
45.009449 7.990866 116.033531
-1.696819 10.737342 130.317795
2.656013 11.220167 108.557388
-49.074619 -0.541554 130.245819
-12.280504 10.904304 131.749634
-8.757159 10.373171 131.957489
18.243704 -0.150741 148.187851
35.396255 5.584793 112.513771
-30.041595 9.627738 122.937302
-56.745869 -3.086878 117.089577
-44.556377 -7.718403 110.805717
27.071022 6.437470 141.265747
-9.592485 3.585838 151.156738
-5.381252 -12.933584 107.612350
-34.149399 2.691513 139.046097
-22.941181 9.544277 131.430878
15.326106 -2.922432 122.733368
-10.747589 -1.512507 148.496613
-35.105896 8.794350 119.744530
-46.998230 -4.344714 110.949730
-10.374310 5.424528 114.153282
34.182400 -8.217420 127.562225
-47.098522 -6.125967 112.497726
19.752781 -1.795159 135.131180
-36.277790 7.548430 123.645660
-41.792923 -1.539656 133.571762
-12.448503 -5.090772 127.487190
42.607647 -5.445623 135.219757
-14.406058 7.926454 152.120819
51.507515 -7.245094 119.629227
43.423199 3.807384 107.296944
-24.538418 -4.223627 131.808029
-10.647251 11.641684 130.994141
-0.398431 -11.352759 110.263237
-54.176735 -7.781043 116.548714
-10.294992 -12.720793 127.986008
32.005146 2.559117 138.050720
39.298489 -2.300955 127.212837
-48.999542 -10.372608 112.554985
-12.108707 -9.596451 126.943153
-16.462694 -3.648370 130.183075
-2.766358 -6.858674 146.495865
9.526591 10.540480 133.217117
14.617897 9.946933 144.777328
-13.933697 -3.298490 138.155502
-11.306726 0.522336 113.360191
27.947966 6.374700 138.548615
-47.922760 -7.776731 112.936867
20.463533 -2.643287 138.060165
49.951332 0.047064 120.974731
52.814144 5.994795 111.576393
-55.324898 3.686876 123.229225
1.861154 14.535084 146.872986
-11.546440 0.888805 124.918236
-34.447937 2.364998 110.346649
-35.509941 9.694702 124.170471
30.370354 -2.559836 113.693619
-9.059203 -12.022107 128.509903
-10.312649 11.330042 143.761734
-14.338663 -8.767607 132.831146
-0.805583 -12.699263 135.663330
11.462401 11.665736 144.304092
7.074773 2.370235 151.461472
35.545197 6.970140 118.378151
28.683710 2.082155 114.830635
-32.512974 3.014708 140.194138
-48.575623 -0.242351 127.965332
-14.353907 5.049256 136.486832
-42.715294 4.315110 109.635452
34.179138 -5.546166 128.363525
-1.735742 13.421103 139.633591
-49.737183 1.721096 112.140854
51.437344 -7.846828 118.899849
44.264233 -13.316451 113.794899
-5.114014 -15.470964 123.230621
31.985910 -7.367114 117.308105
40.304504 4.167038 108.364883
-30.948614 1.693112 139.486832
54.596378 2.573937 114.772491
4.811225 11.904238 157.926361
9.059836 10.786856 132.348923
9.441023 -9.793331 139.678268
-49.101067 4.439224 107.862427
-49.681293 -11.226726 120.621880
-21.486547 -2.768193 132.781311
-18.170576 9.918184 137.882553
5.449888 4.731168 158.090286
11.065333 -10.426819 129.439682
45.103718 -11.515142 114.772408
36.312534 -0.039907 137.689545
33.913666 14.320320 122.593582
11.035496 -9.928737 121.419380
53.281616 3.755237 110.354134
-7.042574 -11.009975 115.362778
8.002437 -1.366741 150.375702
-54.480858 5.178412 119.199081
4.340145 -12.536041 127.891930
-3.133903 7.875059 126.068146
20.931206 4.468102 131.166489
48.116505 -9.200204 118.894279
-9.055708 -11.688978 110.123810
-18.260569 6.212126 132.932388
-0.417185 7.860899 125.439629
36.922703 4.910022 116.248398
11.940617 -11.721257 142.761932
-51.752605 -5.615976 122.064659
-18.905094 6.011868 149.257828
-4.309202 -2.377763 145.593475
48.229820 -4.799218 106.940048
-51.617195 9.389214 116.181984
44.517334 -3.985576 126.447609
-39.746780 9.830913 108.223793
2.973579 8.223893 129.466797
7.634202 -12.290441 127.332230
31.510136 1.083015 130.612732
-4.991331 -11.448309 116.573921
-45.282269 6.552944 126.981201
-32.081581 2.309968 137.726242
-55.747860 -2.701182 117.249695
-19.193758 -1.530067 147.961960
14.524867 11.714951 146.302536
37.242920 -12.625287 114.483147
-41.764259 -3.938184 126.133911
30.855873 -6.039905 118.856140
-42.285873 2.525103 133.063828
11.063091 8.158576 149.417358
17.846378 7.372635 133.894913
3.478072 8.470540 110.636688
-52.652351 -10.057074 116.462563
-41.694729 -0.112510 106.085815
35.422691 -1.261114 135.414017
12.403199 2.391392 125.910751
32.626301 4.849644 115.578941
49.347584 -6.315103 112.689163
37.252792 3.298797 127.342590
14.099246 7.110245 132.186371
-11.240523 5.949202 117.836075
-1.966650 10.695700 151.568573
-27.481127 7.192064 137.794388
39.735523 11.831649 123.112480
-34.834251 -0.544252 130.152328
-57.516777 -6.487986 116.851181
-28.032303 -1.254938 131.260208
-37.533527 4.141708 104.278702
51.425053 -5.133623 114.791313
-35.627625 -3.195437 126.636940
53.143860 -2.780032 113.014725
53.594673 6.507627 110.312737
-48.330963 1.348716 110.950142
31.088690 -3.495622 132.695633
23.203470 -2.229674 120.525314
53.631020 4.494346 119.380737
-50.229786 -7.045955 122.817749
-31.306190 -5.399864 124.493179
-2.257502 10.604674 107.178322
-6.043181 8.598164 153.142334
46.999836 9.236470 115.828674
-44.376896 3.088873 127.761467
30.200285 -8.278870 123.468712
1.335096 10.371562 156.549698
26.987783 -5.126014 129.366821
-1.533745 -3.182681 150.676178
-12.151679 -3.747587 137.127625
-51.705067 -5.532266 119.222740
-41.982021 -4.209526 109.280434
-21.940908 10.514333 141.588760
6.625706 2.626555 119.030952
-52.156258 6.913624 115.168846
-5.538267 6.399525 116.953590
21.988073 -0.809772 124.618515
-49.725716 -3.239636 124.822823
47.724262 7.336148 119.064255
-7.745625 0.481072 157.487320
15.789324 -4.028586 147.246689
-9.174631 -12.192157 119.486595
32.394398 -9.223435 119.834732
32.828449 10.120152 128.681015
-6.315679 -10.317587 141.417053
-22.964674 6.097631 145.137817
-18.325315 4.782248 151.001297
-5.961447 3.834410 156.209091
-11.331596 -1.400216 146.807816
25.836191 -2.323807 133.804886
-11.199117 6.570460 153.033554
16.509724 3.781220 148.176376
-31.322868 5.246258 118.469826
-8.903880 -12.447386 136.093872
-40.207481 -10.287801 116.275482
28.575994 9.524927 128.469040
36.914043 2.091275 128.912430
-21.469070 -0.702061 140.062973
-26.264484 -0.108215 114.365700
21.417017 8.008227 148.512878
30.084093 3.228500 121.324883
-8.150132 4.811708 123.675858
-47.091751 1.594052 107.611450
24.899437 7.300088 135.851089
-15.395734 -5.305314 140.239517
-13.598335 2.666229 109.942711
-41.724701 -5.468715 107.650948
28.598587 7.127985 137.762527
-46.656006 -4.261351 131.166153
33.993717 -1.995086 113.741714
41.996124 8.290500 113.404404
27.052670 2.806049 138.661743
10.032590 -11.536870 122.061691
9.674696 -12.314391 135.664062
16.556959 6.879811 137.186859
42.806366 7.911615 110.613632
-5.964264 -5.435855 143.926727
32.862103 2.553385 140.217651
-5.056860 12.091099 139.488556
12.226954 -3.648716 115.457886
4.315633 8.079493 154.093781
-45.357700 -5.176332 112.785034
3.361384 -11.107022 112.542236
-44.697014 -3.857306 108.112862
5.557458 -5.766022 148.295059
37.476322 -11.713855 119.232483
13.820163 7.078246 153.600250
-27.258703 4.066154 118.911476
55.459995 -0.837330 115.552216
-23.582376 10.280555 137.197479
-54.321796 1.749706 120.389366
12.795565 -10.789767 119.533096
15.193166 5.607358 134.554108
47.558510 -0.565081 122.425522
26.144537 -2.405315 135.219788
17.502142 5.933104 134.715759
13.662182 10.759461 145.377731
5.138239 8.697843 109.868416
-40.837807 -1.292924 106.836197
-54.302113 -2.306581 115.660278
46.755653 3.340540 121.721634
47.052330 -2.627736 108.025902
17.999369 -2.708586 140.567444
-10.596552 -0.739553 118.344528
33.283314 8.081255 114.343704
48.303246 -12.084103 113.965599
-46.322655 -6.156990 113.627014
22.419878 9.789467 143.556366
39.618217 11.224793 124.123405
-47.871922 10.834167 113.764259
30.731552 7.580876 119.201210
-16.964703 -2.165051 133.590210
-8.941515 6.951950 153.408798
7.937311 8.396658 108.973389
-4.992077 11.514229 126.861298
-49.183979 -10.925121 119.915199
-7.095786 -4.728154 144.975800
14.187065 -2.562342 127.641945
-13.934201 -6.309100 129.598724
-36.817337 -0.558252 109.393074
29.027178 -5.582282 116.525398
-43.167267 1.010158 129.315796
-7.165371 -12.568680 116.582008
26.060234 0.857513 139.397614
24.087868 8.206848 140.818420
-42.041775 -11.337160 115.270370
46.098694 9.624651 119.208961
1.928393 6.419122 115.836082
-7.767639 -11.095175 139.232208
-33.498863 0.947831 132.871185
12.894987 -1.945629 112.228592
38.456848 -2.499542 112.002441
-15.414158 6.252909 104.975601
-27.892328 -5.303765 114.410423
-9.794886 -8.439333 137.722397
4.778762 -14.006359 130.300613
40.672966 6.095480 126.548981
-8.188974 4.407878 110.569794
-52.573639 5.412471 118.421844
1.078930 -2.134944 150.532639
19.501728 -5.448174 142.088211
-12.207638 -2.161265 139.980850
29.564175 7.712449 132.247330
40.746841 -1.515342 111.013214
-8.761545 9.551836 154.036499
43.605373 -1.324206 107.153931
24.766199 11.571603 130.291275
16.849621 6.862422 137.448746
52.598190 1.564178 111.415276
-51.761288 4.642788 111.592827
-24.912983 -0.202404 119.267029
13.551200 4.696741 114.539162
32.121117 -0.544904 138.379196
40.457901 -5.029535 132.400177
13.115918 -2.886818 121.386093
-14.194977 -7.450396 118.583557
8.652632 3.518300 156.364624
5.313018 -10.969753 131.377335
-12.810335 1.344966 152.716095
-8.966916 8.003709 126.160484
-6.876813 -0.119600 154.026703
-26.933165 10.288161 138.143173
-51.184978 -0.501650 126.172615
12.452594 -5.880924 122.119926
27.584164 6.036029 118.830315
21.134165 7.441853 132.085129
-1.800649 8.402480 158.075806
-38.156204 0.019212 141.164185
-49.172779 -6.340073 125.541420
18.583916 -2.380312 135.920227
2.007683 15.911362 138.600464
35.139458 -10.984861 118.637566
-6.767181 5.625788 125.877571
-12.015813 6.257840 112.997856
-0.255258 7.254072 115.604973
42.659557 8.293613 124.883034
-53.001572 8.545463 115.674248
-23.401936 4.315591 141.379822
38.588291 -4.487466 128.861176
9.176878 7.279206 111.596558
-8.448987 -9.630153 114.895164
-8.406123 13.246593 138.487350
-1.561471 7.755610 110.868462
-20.312319 5.879277 131.113113
43.019806 10.781799 124.119415
-6.951577 -15.100438 130.477127
-12.188065 2.311134 127.742119
39.740665 -7.902798 126.351776
-34.714695 6.364191 125.922676
31.504068 0.582373 135.743973
22.977575 -7.427210 136.132935
31.877674 0.145304 139.211212
52.806835 -4.872047 110.310799
-5.815451 4.611025 115.926773
-22.081537 8.788222 143.511642
-38.243595 -5.618453 109.874985
5.522496 10.069329 135.042831
-27.781384 6.267097 126.008621
43.872631 -0.793691 106.803581
-8.703345 -9.414968 115.128700
41.911289 -0.720655 110.270828
7.747375 -11.147107 135.211517
32.433941 -11.477809 119.105103
-12.583717 -11.975526 129.589523
24.382910 -2.018985 145.332611
-21.271149 12.815557 138.785782
28.061806 -4.262107 134.262909
45.383987 11.537019 121.147469
-16.764265 -2.709196 140.496933
14.365037 4.314067 132.059158
39.110565 -12.866151 120.178200
-42.290203 -4.132926 109.567101
-35.946724 5.658189 110.694633
-13.953051 -2.349943 125.397415
-36.725300 8.222808 124.374039
-9.593327 9.370396 149.185577
-27.880964 7.258267 120.155739
-10.157925 -12.237829 111.004410
-9.405921 7.436520 116.086739
10.434573 2.453103 118.404602
-7.714544 -12.348376 133.711884
20.682652 -4.922155 134.692886
54.195473 -2.040038 111.574730
-3.076614 -8.447987 143.512924
-26.371437 2.185232 146.929626
-31.043074 3.110337 118.120598
24.725584 4.999913 145.838455
-8.562018 -2.047001 150.641876
-8.441738 5.900090 123.693672
-31.744202 -3.518032 127.443398
-15.462565 11.019643 145.542755
9.089377 13.753296 143.815796
-12.042325 -2.032209 148.363464
28.675556 -5.545880 127.468330
-32.625023 6.467268 130.228577
8.863952 -2.229451 148.285583
-2.623387 10.280717 109.477722
-26.280548 -0.671189 120.996422
-50.006546 -3.617682 112.398743
4.517894 10.530532 155.932953
29.097855 -3.111149 114.109756
52.690731 -8.596431 115.741104
0.093435 -4.259826 144.318237
28.017521 -5.762104 129.366623
-2.787678 -11.871804 121.404701
-8.138309 1.569556 119.677605
13.242889 8.176176 134.858597
1.691144 -5.125222 145.591202
54.958824 -2.784596 114.046204
27.307467 -7.269921 127.864204
-41.645687 1.135087 105.281868
34.853279 -11.408593 113.545013
-39.220852 -9.784017 111.882683
-12.025340 -7.334705 108.894432
41.532501 0.457816 110.582741
4.548141 -10.369562 112.616028
-35.052441 4.265577 115.998650
-49.539265 6.052723 112.820000
-9.788718 -10.686704 116.189888
-6.283180 -1.480609 152.406357
41.725037 -1.638489 112.056320
-21.063684 7.931954 140.452682
7.061327 4.245153 153.751083
-28.215338 0.682461 117.761345
41.710587 1.174992 114.380798
-20.801125 9.964090 140.373749
-28.186794 -0.653644 137.549011
42.709675 7.211827 110.797882
32.933819 6.721053 124.181236
-14.743611 6.413905 150.632492
-43.430943 -11.375756 111.073303
-16.083529 3.508001 134.804077
-12.196377 -6.116445 127.624565
10.270478 6.586081 113.717155
-28.948833 4.594456 117.710312
38.421257 7.369217 110.739044
40.152721 -1.829538 112.939018
-8.995177 -10.494014 134.178238
4.666575 5.065207 115.705437
-15.423626 0.593062 109.600090
2.391985 -4.306791 149.223450
41.266048 7.757243 117.810486
46.022968 -13.245890 113.313629
8.826581 -8.817690 141.453125
-12.414088 -11.980310 123.249619
35.149754 -0.609841 134.676086
37.282009 -2.763173 111.139481
-3.679613 -11.593889 127.728973
13.204879 -6.138870 109.175194
6.175400 -11.591758 134.699844
24.641176 -4.086593 129.458267
3.878006 10.305566 129.867279
-27.553997 9.998319 133.599625
40.828144 2.590168 105.554985
6.234640 10.614776 132.364899
31.655853 3.882867 114.183983
21.205320 1.805192 122.382118
-45.446239 -1.562617 106.846291
-41.997608 -0.461054 108.335785
43.916080 -0.007651 125.612854
-47.793076 7.954166 119.067520
35.368267 -1.730014 110.135933
-4.613272 -2.012997 156.037796
-10.878683 -12.118526 136.969452
10.767227 -15.000004 135.261932
34.158382 -7.360180 120.508102
-50.774380 -8.190845 117.174454
40.151310 2.646933 110.416222
-9.092079 7.327049 106.739166
-39.826466 -4.287916 127.634224
49.868084 -9.502544 108.996101
-1.216323 -9.246604 144.791565
-30.598293 2.662460 111.309502
-35.448524 -7.155085 122.765167
38.855484 -8.242360 129.020996
-37.075478 -9.446192 115.635803
-50.804398 -9.881718 114.514732
-41.521828 8.850486 109.637711
-43.832340 10.995128 116.739388
-41.309605 -6.192049 109.971985
-14.301568 -1.740657 145.639069
13.244819 4.596818 131.904633
7.359079 -11.953741 127.783089
-18.611019 -1.847114 139.616287
-35.949581 -9.667906 117.951057
-25.480640 -0.798962 117.966858
21.596918 -0.945061 127.028008
52.117756 1.368754 119.319649
-33.433918 -6.868702 117.209160
18.002075 5.352289 148.919449
35.982391 8.039592 121.165642
13.459259 -4.568486 117.197876
-0.132488 7.540960 113.835587
-20.982870 -2.063927 149.362579
52.828800 -3.332909 112.260208
-22.241119 5.119455 148.575729
12.956476 12.274702 146.988510
47.841602 8.167449 118.771698
33.222115 -0.389115 137.357880
-44.494152 4.982628 124.382469
23.139950 10.413700 141.368591
18.327133 -0.439542 131.548538
46.026070 -1.310341 126.649475
-6.725774 -9.989115 140.850479
-6.646429 -11.971167 116.252106
-27.662317 1.735406 145.944092
13.192764 6.145833 129.428223
50.439941 3.137141 123.353539
26.001394 5.034562 126.112289
32.761150 7.772058 118.529305
14.381886 0.207308 113.765488
28.687586 -0.107242 114.890404
51.591125 -2.294632 111.227646
-5.720072 -12.107347 107.482246
-45.084137 -10.010070 119.825195
15.174851 -3.209439 110.486893
12.555517 14.560558 138.100845
-47.978779 3.336646 109.393730
-38.956226 -8.806082 113.587410
-37.903671 9.321629 110.546806
14.652676 4.213226 129.514954
9.114337 -10.985979 123.883690
6.735106 9.448702 132.205185
-30.852314 7.258482 122.545227
-6.748650 8.897357 110.930161
-25.586214 10.799318 130.323563
-47.404659 -4.303954 125.808647
-35.192822 -5.029735 123.186684
-25.734304 -2.097420 127.485931
38.327831 -5.601485 130.809753
20.294346 1.114255 132.930313
-25.593235 1.783225 129.034195
-28.093773 11.302404 126.685486
11.686416 -10.381456 106.777359
-11.800525 9.526876 130.671844
24.581440 -7.501183 131.514587
-35.804005 -11.254702 115.658951
48.588783 5.634798 110.317154
-49.555679 -1.318653 124.112556
52.953499 1.597555 109.291313
-4.244349 10.088621 154.286972
43.259155 -5.110250 110.288094
-31.309177 1.281116 114.067619
-18.054207 7.943495 134.509521
-21.455578 1.189888 129.291168
44.509460 10.368400 121.979408
5.379612 7.395390 129.378220
37.530136 -11.603208 114.945152
6.187403 -7.965888 102.720856
23.045033 0.823973 124.191971
18.644510 2.487150 134.286392
-33.420616 6.863624 127.997887
47.543869 -6.001233 110.502037
-5.461963 -0.600843 152.568283
19.390392 3.857277 132.850418
-10.219039 -9.403213 143.187210
27.011452 8.242266 125.734367
-17.965244 10.627029 140.290985
-5.816657 5.856650 157.688309
31.287081 9.435444 127.311394
-29.162857 10.720146 131.753769
-9.477299 7.520062 153.108185
34.814270 -1.295616 134.337769
24.652214 -1.423151 119.744934
12.794418 12.074228 141.642212
52.849453 3.235704 109.502434
46.924725 -0.851247 108.473686
-31.495508 7.783760 113.405937
-52.677608 3.485292 116.940514
-10.915528 10.358027 146.869476
45.927502 -6.585099 127.328278
-10.268468 -12.647529 133.803513
-34.839462 0.316674 140.038483
52.539639 -8.905937 121.542961
20.828049 4.979832 148.505219
3.391835 10.547029 130.415161
-39.492023 8.855895 118.669098
-6.454720 -1.426558 144.145325
-20.900177 2.756761 130.874786
-43.524715 4.003805 106.459747
41.003372 -6.482662 126.471512
52.468899 -4.354320 113.384918
5.268690 -12.077841 136.023560
30.355986 -5.629261 129.248520
16.236650 1.721758 149.646271
-49.083157 -10.601709 119.853333
45.667934 5.875228 107.711159
52.423771 7.901402 110.238579
-44.937954 9.401455 118.444656
10.459052 11.480147 148.152405
20.506626 -0.664684 127.529221
29.643768 11.162467 131.545029
-52.921761 6.540379 121.554466
-47.188034 -3.557281 112.595665
-11.459848 -5.327994 144.570297
11.537870 0.715547 123.358109
-47.017776 8.638073 125.423340
52.655804 -8.289823 118.941292
19.778845 3.772883 148.321716
0.772916 11.095312 151.205002
-15.556920 -4.212707 103.952309
52.067348 -1.003951 111.627998
48.991978 -6.968658 114.538582
25.982859 2.476901 137.477051
-29.501741 1.009517 144.851929
20.878672 -4.155265 123.654320
31.360237 3.401873 132.674316
24.529102 7.261091 129.481308
51.803474 -2.752944 117.899605
-7.309615 11.946229 145.579742
-15.148198 -5.994840 124.379318
11.928977 -11.492129 135.965103
7.359170 -12.879694 131.205231
-6.712594 6.373573 155.321869
-29.303373 -0.289856 140.793961
-9.518574 3.335678 118.755852
-1.540652 14.230740 139.650406
-47.501549 0.638245 106.911362
-19.634569 5.468236 130.995178
-40.424927 4.463879 129.268692
-22.616676 4.371665 132.459686
14.051138 9.399933 147.780350
15.133103 -2.098899 107.074936
-41.954300 -12.572645 116.482033
21.724588 3.000592 129.059265
46.818733 6.757023 119.553696
-51.947353 5.587758 115.440285
46.042610 -6.741959 126.957336
-12.598865 1.126204 117.952393
9.251605 -11.239124 136.528656
20.424946 7.487759 131.241043
32.243847 -7.404190 127.876457
39.398674 -4.836608 129.424271
22.029778 -5.784531 135.593674
-48.706059 1.662628 108.848541
8.602550 9.660512 149.990829
-11.110496 -7.447443 140.056412
-28.807045 5.784465 116.294197
-47.843838 -6.089681 115.120941
-6.117677 -14.226281 133.329178
41.479057 8.546288 123.220306
-36.210052 -3.309215 128.435669
26.592234 10.771563 129.613434
42.814907 -9.263112 121.814659
14.068515 -1.298018 125.162819
-32.233032 -4.189402 126.988922
34.785030 -2.489837 136.666412
24.442762 -5.075148 134.432831
44.716904 -6.461511 128.600769
51.914894 -5.442373 120.957916
48.440460 -2.281168 107.617722
14.079592 -10.254006 132.533401
21.337280 9.862544 134.645004
-21.768452 -2.130813 132.365723
-7.698787 7.808530 123.128754
-29.291655 2.309784 138.011337
31.433329 -0.244668 138.155212
2.421007 14.064389 146.746277
-22.693462 4.604955 149.920059
6.196935 -11.743467 112.581337
-31.282206 -0.152821 113.065887
-12.839527 3.350100 130.441940
0.639371 12.559884 150.272690
54.176170 -1.966168 116.694786
-14.486345 -1.429015 116.121597
-53.091850 -5.250113 119.384300
3.712092 -6.905045 139.095718
44.847591 -6.549079 108.697983
-6.629686 6.625267 154.704559
-21.452610 -0.260121 126.568787
-23.613089 3.302147 142.132492
-43.055199 7.039938 108.991714
37.582577 7.434936 116.700348
-35.354389 7.180510 109.462418
-12.261516 7.864471 131.215744
-51.534016 -2.591120 110.538124
-41.196430 -8.284286 120.424179
0.520954 5.045986 103.425255
-40.906311 8.796192 109.936531
-38.165218 -0.346138 111.031891
-25.642241 0.214134 119.672409
46.897839 -6.440637 109.706841
18.055880 -5.395603 140.817062
50.584835 7.297202 112.831627
-22.760662 6.865909 148.485504
29.229952 -2.079636 137.272354
-45.980164 -8.798902 120.904617
36.622562 -11.590207 124.732735
-22.710457 -3.117521 140.938751
-39.858150 5.109542 124.515221
-3.352244 -15.451629 133.393509
32.667809 -0.236630 114.035690
32.160851 -9.063983 125.922951
12.925055 7.757998 111.826103
-27.817389 2.968371 144.887878
-20.586149 -1.414550 130.231110
-57.217209 -2.723842 118.785385
-11.174123 -9.740714 110.813995
37.338367 2.708411 131.931519
-42.900536 11.524910 109.705940
-31.082232 -4.172076 127.413879
13.629982 -7.967390 126.713669
-13.502196 -10.521938 134.655701
13.035685 7.984856 135.804153
9.577910 4.589034 116.255791
13.845357 -5.106412 115.474648
-44.371765 12.705525 110.847504
29.338678 2.332754 120.331207
-56.407551 1.117232 119.970695
-15.173985 -5.366026 126.418365
-0.924991 6.205222 116.570084
0.729119 12.776917 137.747513
44.717888 10.019919 111.962364
-17.855663 2.949651 150.290894
-12.325338 0.368082 116.211266
6.284871 -0.353482 151.311203
-0.236439 5.213055 109.876106
-5.251830 2.578750 154.843658
-2.400860 -8.842891 102.355415
20.864506 1.432317 130.299423
-27.866095 3.096742 117.169365
2.365652 8.902625 154.625931
24.900633 1.283512 145.669159
-55.136074 -3.908212 125.906845
3.318792 9.790874 108.249153
18.796072 -6.487749 137.813156
36.213814 -4.132223 134.395798
14.791202 -0.053658 135.731339
53.212116 -6.234314 119.737144
-17.796055 3.111537 136.087112
-15.953588 -2.396124 145.023758
38.621288 3.576065 109.645470
-45.832909 -2.684192 107.361450
28.556105 8.307649 126.864014
12.685592 -9.889226 136.180176
16.557495 9.931091 134.901413
-49.511227 1.990030 111.023735
4.827731 0.528747 152.199005
-53.116634 -5.487622 119.165916
-57.705826 -4.678239 120.646568
-31.299990 4.171994 121.096298
47.822525 -6.153902 110.082146
-13.263181 6.002998 135.377899
16.967598 5.094358 134.489563
-38.302513 2.758452 106.703369
18.615278 -0.416739 136.884460
-5.216389 -14.553410 136.613113
21.044952 6.342698 134.272171
-13.538028 -2.588890 119.819099
-39.481106 -3.468830 129.863770
44.551365 6.947961 119.280998
46.979519 -5.254742 108.935081
29.037987 4.414027 115.995750
44.698753 -5.683085 111.004593
-54.585285 -9.658044 114.035126
-31.372021 10.908897 132.172150
21.136419 -6.522792 138.082352
-13.393275 0.043740 118.375198
29.418476 2.194639 144.282181
-51.707474 6.050689 114.027222
27.376431 -8.159438 125.454979
51.273331 -5.459727 108.977707
-30.912977 0.498848 139.007751
10.047532 9.403857 134.578796
-13.959191 -10.742129 130.764221
