ply
format ascii 1.0
element vertex 2048
property float x
property float y
property float z
end_header
-7.229390 5.683235 124.511383
2.361980 7.408279 119.074760
-40.065178 3.603895 111.247269
3.193780 -14.639967 132.936432
-40.426918 0.024501 112.955009
26.842838 5.049580 139.782425
-50.108929 2.406525 104.226921
28.626215 1.220607 129.652496
-46.388210 -2.300545 115.699150
49.744049 2.093167 113.110229
5.713883 6.715374 126.679375
46.630180 3.793611 104.529793
15.888219 -9.233773 137.118591
-13.165762 -2.611814 124.675972
-13.777227 -3.164355 126.773041
31.363737 2.042433 133.410355
-39.712543 4.473323 125.599663
-21.020212 0.735813 143.099670
-4.845843 -8.414992 145.271515
20.769394 1.897577 146.252960
39.074821 6.153410 128.161102
-7.273826 -4.547914 148.117996
-22.233932 1.097878 128.537674
-27.142605 -1.306266 135.237579
-35.812408 1.127806 115.785690
31.364080 4.599885 132.544998
10.902102 12.118711 140.586411
5.263489 7.738325 124.411652
-3.328428 11.366246 151.836349
7.143126 -7.946192 141.728973
-22.138304 5.469890 131.524628
7.924452 9.114059 126.050728
42.048531 1.631461 121.037949
-18.755903 -0.410393 136.815948
8.913396 -2.192418 147.369171
-9.599396 9.792705 134.606812
13.674016 8.364633 138.368240
-1.789187 9.656072 127.725487
-12.490065 11.836187 148.823685
18.017927 -4.188030 142.798264
0.087626 14.074874 144.713776
-17.000423 -2.823993 136.560577
0.572249 10.658458 158.720459
17.048801 9.955361 145.266266
-6.775057 7.406851 125.903725
-12.840361 12.405540 145.007950
-40.902763 -2.439076 114.988472
-17.453657 10.506391 139.403519
9.797285 6.276795 126.315453
-1.007888 9.845347 148.826706
-5.067585 8.398467 154.693649
53.366558 -1.238208 104.064621
-8.373149 -3.044792 142.886124
19.077728 -0.867529 136.880829
48.417370 -7.538910 107.925491
4.042719 -13.227175 123.341827
-12.124139 6.479753 127.142006
7.165149 -4.804551 151.782211
-12.024570 7.309921 151.889465
7.182951 -1.543661 147.400711
4.206726 7.889595 154.071960
1.221551 14.246198 139.576004
-36.839214 6.168252 113.800896
-12.521214 -1.238017 153.668701
20.447556 8.119813 137.831726
29.881418 7.591361 125.932404
-51.671467 -0.056768 112.821426
-1.251506 -11.579382 125.515968
41.600632 5.112957 112.333008
-23.613115 1.615364 127.855148
-31.118017 4.405755 135.461411
-7.972285 5.566967 121.061691
8.005238 -3.780774 146.722473
-31.960367 -0.929515 122.896248
26.764475 0.236473 126.408264
31.953007 5.793743 128.645844
47.346363 5.360360 120.098274
-7.606926 -13.366690 133.372742
-47.876480 -0.917232 103.444824
23.258585 8.267605 145.164734
5.315411 12.771233 147.743469
-4.632336 -11.317707 126.284668
-20.687296 9.790968 136.149490
47.420235 2.079339 116.739143
10.798437 9.745407 150.168777
26.334103 7.270604 137.194382
-19.939737 -0.282239 143.760483
28.175676 1.930176 119.641891
-9.783825 5.224808 152.242294
5.781571 -14.628478 132.733856
-45.041496 -10.897945 105.630760
46.188358 -0.939470 104.658646
9.774079 12.431695 135.684082
27.711674 10.146240 134.290833
42.984299 -0.587615 121.566078
21.521315 5.418430 130.496704
-26.103310 3.440374 139.289764
-13.527035 11.065670 148.235580
-14.869532 -0.541890 134.089447
16.731476 5.667039 137.991409
-27.102852 0.310760 132.789383
-14.361684 -9.252595 130.463211
6.847458 10.316113 151.482574
39.400009 2.709063 124.255196
2.690546 -11.670286 135.684586
14.885975 7.012082 149.918365
-35.326813 4.076250 113.013565
3.043928 6.756599 120.224800
12.047924 13.144861 141.849136
-28.341286 -0.454770 136.897781
6.742422 -2.352070 148.461044
-34.504025 1.151993 114.789536
17.278042 4.013045 132.956909
-0.537270 -9.483394 143.372375
-32.925953 5.922829 119.977058
-10.786709 -1.964429 152.605347
-49.371128 2.209388 111.117714
33.615673 4.420895 131.276306
-9.451067 -3.529569 145.913345
-19.550076 4.997270 148.131149
46.052677 -0.772224 116.811241
-43.279221 -2.286855 113.212944
25.590857 10.323223 134.646317
-45.980076 -9.334910 106.823380
48.383301 -8.073896 106.008751
-16.889929 -1.665738 134.005264
-17.956032 -0.438633 146.265182
48.856949 1.211798 102.291557
-11.925763 -10.988729 130.813141
-13.810480 -8.573936 136.317886
-19.407234 -1.790345 139.485245
-29.104914 7.129486 137.507385
-39.119534 7.034787 119.292252
-4.395710 6.727030 119.274117
-8.283384 -9.032351 138.008514
-16.457273 -4.606612 133.324051
5.678196 -10.051901 143.971939
30.641676 9.264226 123.417831
30.100307 5.956887 132.329544
-4.891484 9.236710 129.032700
16.050909 -5.044554 133.217758
9.670733 -2.311719 119.419487
18.050383 -1.485184 134.667831
33.738522 2.321182 115.882706
14.666442 -9.450331 127.511017
-47.646675 2.351012 108.741577
9.910473 -11.285405 129.091293
-51.699394 -0.141842 107.016029
7.248285 -4.853914 147.489960
-0.406167 11.746919 144.221191
-33.213894 1.631789 127.415108
1.228662 -15.072772 121.890564
-27.783817 0.571488 130.549515
-12.701376 -0.883960 142.851700
9.828169 -3.882577 145.758820
-7.013435 11.769413 153.358093
-5.702605 -10.536374 136.525589
-8.607582 6.258407 126.067558
-23.788729 -1.583143 137.478821
-43.364269 1.711863 110.676193
26.827818 5.671679 139.602997
12.907778 4.999029 121.160370
2.241361 13.043931 141.880829
9.174413 8.385979 150.455612
-11.924059 11.434983 139.492462
-47.133293 -3.037141 101.735184
10.649285 1.116041 152.063583
-12.054840 -0.407025 149.192581
16.641844 -1.684392 139.341446
35.970490 1.632761 129.132050
-40.484898 4.194284 110.878815
49.782433 2.330450 104.937408
-15.134344 -8.972498 134.718735
15.917291 -0.795876 132.787888
37.902065 2.497329 114.072990
10.419256 9.592182 149.122421
34.759922 4.076505 127.283920
-26.322878 0.236925 133.932663
5.345516 13.493371 147.883850
-46.632015 1.720988 114.813522
-2.134885 11.281908 149.809387
-10.119325 -3.967050 145.077652
-12.483932 11.507200 142.250290
-52.383881 2.356261 106.135040
-10.293552 4.590515 126.417862
-8.545667 10.659532 148.927505
21.301434 1.644392 147.785553
-5.056368 -10.957463 135.967087
-8.262291 0.142800 152.658783
-1.658311 8.453329 124.072037
-15.523675 -3.838182 142.064011
-11.729993 12.516621 142.725250
-11.080490 11.075914 145.592422
0.958337 12.968903 140.152390
6.620191 11.563828 142.555679
-16.742020 5.104798 137.784180
44.212421 5.070698 114.283234
32.632694 0.902568 129.224747
-15.461500 -9.938732 136.352966
36.749088 -1.016948 113.505745
21.556461 8.778151 142.397141
-7.597771 1.010390 151.198273
9.874944 -10.285159 133.761108
19.741291 6.828241 132.890900
-19.113926 -0.178899 133.057571
-20.375778 5.309193 145.408035
13.282229 -5.497310 125.023514
1.389644 -13.487365 130.328812
-18.825008 1.611078 146.750015
-41.239296 3.324476 111.327034
-10.361373 -5.422266 141.368622
-19.833824 -2.524317 140.493652
-14.864387 -5.624765 124.888306
-4.766063 12.347217 141.588562
-28.555059 6.552509 126.259438
9.685760 -8.402293 126.223251
-13.755289 -11.163611 131.794525
45.583221 -4.129817 109.700180
-18.421408 1.189752 145.387482
1.730446 12.660189 152.673218
-26.254147 6.920345 126.086266
-41.290466 6.258368 115.022659
-10.856805 11.283683 146.954880
45.547340 3.546630 109.693451
6.861372 -10.203048 137.283997
42.413433 -2.443430 120.901970
13.996081 2.965662 121.003700
-4.647193 8.472366 129.968918
-4.664363 -14.717085 134.378006
-1.629449 13.727785 136.577759
10.853828 -1.884975 147.796143
-9.082720 -8.358403 143.754440
-30.800604 8.282648 129.061279
10.415224 3.372346 122.983826
-16.217527 8.628431 147.747040
3.947531 6.766919 156.317566
5.078836 9.340256 132.714401
-8.468633 6.946918 130.536148
23.146999 6.822533 138.911041
-9.772380 11.184064 134.078308
-47.044830 -5.384490 110.955490
31.320704 -0.338101 131.079636
46.747742 3.996756 116.678001
-7.341201 11.916162 146.207214
29.143690 0.897101 133.895370
10.015665 -10.825666 124.765015
-47.323639 -5.150259 112.473602
-36.804142 5.101361 115.589043
-42.400082 -2.441206 116.345535
36.824360 -0.691329 120.945816
-2.922058 -13.114550 134.459381
6.249528 11.313758 153.615036
23.960756 3.346626 125.540276
47.386536 1.795711 114.828339
-0.133851 -11.924726 133.272705
38.299950 5.133312 113.848465
32.141808 4.184621 131.412292
-21.455614 9.969065 139.699234
-15.405255 6.839422 150.615753
-27.323772 8.096474 128.679993
-25.448629 0.411232 127.278809
-50.018414 1.072875 104.689522
8.471128 -11.867261 135.201523
-15.078398 3.741245 132.417358
-36.983574 6.128964 114.431839
41.526775 2.783393 110.836578
-43.623932 2.980606 121.410149
-16.791428 6.105885 135.337555
6.639955 10.506012 129.870560
49.047043 -6.945945 104.965332
-36.102814 7.156057 117.033760
-36.366337 10.034495 127.488083
-10.719337 -6.257522 125.215240
9.233645 6.351169 153.941132
-48.313282 4.093559 112.293861
-8.675629 -10.993427 131.213593
22.263842 11.065930 134.767410
27.238377 1.422518 124.505539
1.553787 -10.497555 126.430611
-29.322041 10.697135 128.315002
-45.072960 -4.701726 107.916962
-46.184044 3.335378 110.525009
-52.329868 -1.430171 112.552193
-17.896591 -1.144303 139.474915
4.301676 -9.470279 145.485779
5.814181 11.393238 140.220459
-4.191619 6.360586 124.621773
35.760540 5.234625 130.225342
12.593277 -9.147936 134.824997
-55.443634 1.481719 105.941650
40.105282 5.683715 117.340263
34.560963 -1.412737 122.124130
27.270325 4.948893 134.034454
-28.991720 5.852837 121.927742
-54.108387 -3.663176 112.840050
21.981045 -0.069737 131.935989
-25.382782 2.319993 137.893585
-15.036942 1.024177 151.143372
27.298960 0.481240 135.813797
-30.018032 9.321535 130.294113
-49.180664 -2.366389 102.558899
7.694389 10.275290 133.379959
36.054726 -0.286343 122.534554
-54.363865 -5.455832 109.236008
7.158184 4.759518 155.565460
0.385753 -19.035841 130.363358
-46.373287 3.440445 104.414238
-1.625853 14.409190 147.183746
-49.949745 3.308130 108.638504
11.301459 6.190610 126.246811
-23.360973 9.598076 138.732803
44.607517 -1.239365 107.634903
-34.302608 0.632845 118.007050
26.702482 2.870737 137.408875
-40.065228 -0.361855 116.925766
12.886346 -12.920376 132.605392
6.310834 14.193521 131.621841
-39.878849 4.792902 121.611717
38.772617 -1.886022 119.316605
-9.229271 12.084388 146.164261
-35.685242 4.765085 125.153847
11.648349 -9.286577 137.529495
14.656343 -9.172673 138.719238
-4.553261 10.598891 132.007050
4.693886 5.167098 116.312393
-51.746975 1.491699 111.783401
-24.764828 7.647449 135.339172
-7.722795 -10.119051 138.704529
7.710042 -14.789259 123.085281
51.221577 -2.926227 116.523239
45.920811 2.531718 118.779419
-42.086983 -3.220042 107.717941
-9.735058 -9.014168 138.688507
15.055764 -7.559783 132.555725
29.929733 -1.167172 125.804352
-33.145271 3.270516 119.509384
-43.259266 6.042764 111.682861
17.713842 0.481325 149.999100
36.879948 6.909908 125.272858
-10.415840 2.967958 151.304276
4.745844 10.146793 150.556061
-6.499747 -10.145785 142.787552
-11.236324 1.126130 127.770096
30.535717 9.879984 128.161850
29.498114 7.448790 135.375366
16.843414 2.442226 151.998810
-1.441527 11.085523 160.115967
-2.871367 4.157531 115.450317
-1.348361 12.902617 136.300278
-41.207336 -3.437774 120.912453
-50.725311 2.285411 108.043312
-5.877698 11.308522 128.944717
18.356884 -2.526275 140.181366
49.339977 -2.423196 108.180313
-9.897367 2.205682 120.939499
-30.157419 1.165002 133.280045
12.865468 -7.225712 129.877914
14.366363 4.056933 129.004028
7.988372 -14.550515 132.147507
-41.658653 0.345244 110.336899
-18.207661 5.657903 135.946945
-27.963388 -0.509981 123.452744
20.492487 11.514803 142.548294
-23.067236 11.921663 137.898560
-42.244041 3.152478 110.602928
-17.490494 5.973809 151.106461
-21.832726 11.709631 139.073441
-48.820789 -7.370455 109.740585
-28.691353 6.255625 126.899521
23.988247 4.222002 127.292976
-12.002986 -4.334616 129.204987
3.720057 -13.618011 131.928391
4.231934 11.596489 152.583710
-30.294058 4.646656 123.444229
30.185091 -1.220851 122.408279
-24.636860 8.493114 129.461914
11.942384 -2.521568 143.867447
4.967428 -1.171052 145.364334
24.199570 6.600076 140.785217
0.551814 -10.368360 136.513077
28.475195 -0.159027 133.767319
-0.689818 -11.905801 137.360107
22.620066 -2.766715 133.940475
5.011588 15.260939 145.432907
-6.925430 11.689262 146.502899
-5.650789 7.528886 127.504776
-41.956596 1.430828 108.685356
37.241848 8.510586 117.285622
-3.150777 9.851819 152.674088
18.563091 3.476789 132.820129
32.345943 5.908005 117.572777
-26.701780 1.986475 135.085663
-30.429300 2.677565 127.423386
-34.606304 6.337014 118.896935
9.225253 10.962440 138.965225
-1.480815 -13.014939 131.417770
34.040237 0.323810 120.958717
8.125491 7.119638 152.938599
-0.180132 8.443078 128.248962
27.004845 -2.180701 133.000168
-34.894043 -0.391654 115.650124
-12.864489 1.517514 123.681099
-7.105145 13.875657 139.710968
-46.573040 1.080948 113.396950
-45.131073 4.262770 117.229805
24.547764 -1.932361 131.749146
-0.057103 -12.919772 132.932480
-39.860939 0.658947 122.682068
-3.957124 13.916772 137.562546
-5.525773 9.279254 151.810989
-46.212315 -2.506255 104.004105
-2.089003 -14.498970 135.004120
36.601669 9.197578 123.593544
45.482567 3.450341 106.791931
-39.236134 2.785151 111.822433
16.199965 9.218427 139.040848
-9.980776 -7.051470 137.589371
-0.028743 11.504646 151.397156
50.282036 -1.177876 114.400208
-12.423029 13.719287 142.252777
35.716118 1.235806 125.273537
-17.159153 5.209288 135.774139
-12.903781 -0.054784 125.910187
45.873585 -1.550740 106.624702
23.263647 8.488727 132.224609
-49.655369 -3.279784 103.089462
26.672588 1.777357 126.301445
-1.481690 -13.105159 131.617004
-14.138079 -8.347845 143.124893
-9.276227 9.710471 136.761215
38.355663 -1.919439 115.350243
-7.592651 -3.050250 143.387573
-10.694410 13.416751 144.741089
-19.451693 2.324136 147.363358
45.512825 -4.990570 109.738701
-6.208869 4.233788 153.858124
-24.473314 7.919097 130.110992
-19.785646 1.719015 149.450348
-46.566349 0.373901 103.453964
35.191658 3.351288 127.454422
41.413998 -3.809630 113.638702
-18.024086 9.016603 150.680878
-17.070213 -1.705871 143.265396
-12.851171 6.655908 152.655151
-24.991055 1.737780 128.149673
13.660955 3.939914 133.873184
-25.065283 7.144015 125.513367
34.584217 1.084728 125.557716
-18.027411 -1.823508 145.547165
10.291538 14.563585 146.219437
13.974349 -9.373884 138.159286
2.491370 9.690559 129.620056
-6.341720 -0.411170 149.953476
20.565168 11.335604 140.914169
-13.731183 5.261982 131.263977
11.308697 -11.129651 137.664291
10.718719 -2.712690 117.354515
10.841376 -8.012049 142.188202
29.023647 8.829729 128.275101
-24.613573 1.246968 140.464172
13.227689 -11.974778 130.692902
-29.466629 7.541862 135.091705
-11.265128 3.595332 129.626923
-6.452285 9.993641 129.397720
13.971983 -2.820401 130.288269
-31.646803 4.989270 120.057076
11.294239 -13.024779 129.545715
4.196417 6.371105 157.423950
-38.337444 7.008355 117.727699
11.175612 12.882001 144.217087
-45.721031 -1.934276 105.467743
-12.086039 -8.338412 136.813538
34.528305 -2.218935 118.714027
29.906660 7.852252 124.214966
-27.272593 2.263381 122.492447
-25.174387 4.314999 137.738586
3.446164 10.458147 148.466599
8.262744 -15.416638 135.612030
3.307200 -16.138918 127.364128
-41.844826 -0.341944 110.907700
-40.922417 1.101736 111.100212
-28.655197 7.435688 122.756271
2.602744 11.657821 149.661560
35.769562 -0.758017 113.892883
11.847159 -6.209686 123.356468
-36.511467 4.012974 126.363503
-1.777460 -10.931062 139.522064
-44.046982 -1.480943 113.260117
-26.197029 10.421696 135.299408
-47.886967 1.098499 106.384590
22.978447 9.411513 139.124298
-45.329384 -0.362882 114.667389
4.725039 -4.849458 146.558624
30.332518 3.304424 135.108749
9.024672 5.036668 120.289993
-14.592136 4.798784 135.856171
31.003153 -0.546378 129.826797
33.376732 0.124182 124.602806
-11.368300 -0.384091 123.360481
8.399935 9.433472 149.821381
-27.152927 6.409828 126.701088
6.481032 10.414190 149.819580
-16.461189 3.157302 150.334076
5.982500 10.887718 130.081833
-2.495942 -11.985770 139.216080
-25.271107 1.041699 135.257019
19.672504 10.523041 137.096146
-8.882313 5.119051 121.722168
-15.765323 2.565120 149.864807
-13.694023 -2.509464 126.744705
49.610256 0.435404 115.160141
-31.059858 7.201341 124.338295
-49.506115 1.769211 101.861382
-18.396000 1.841816 132.355118
46.057892 -2.453133 106.830269
7.545605 -9.212932 142.439438
10.453180 -8.795753 139.387756
43.757679 -3.593462 111.358498
18.225588 9.650037 147.032532
8.803785 12.055849 139.456680
-19.375734 1.656978 148.263504
-0.948864 -13.848995 134.168472
-52.205639 -2.864875 111.413223
36.972847 6.186941 127.991150
21.474266 6.656695 128.648987
35.915646 3.264945 130.655502
-6.529604 9.390229 128.920578
13.615656 -4.979746 142.408737
9.639829 1.797336 153.730667
-0.053030 -12.101953 135.399292
-22.926321 -2.033711 138.977173
15.074739 1.825949 134.642212
-7.051361 12.239071 137.156113
32.199318 2.850067 118.782417
38.250427 6.078932 115.960419
13.208828 2.049765 131.649200
-3.571166 12.482464 135.361679
16.982773 1.759053 150.809204
14.157784 -0.307017 134.581619
-11.832409 3.797218 125.409584
2.226901 -9.862312 134.774094
-8.945555 8.481155 134.274445
32.993671 0.332834 122.756561
50.522202 2.055137 103.980713
36.240669 9.662102 125.104912
13.413811 7.090170 129.782196
-15.331507 -3.597262 137.003769
10.321583 -2.198376 151.264923
44.505306 1.598799 108.958549
-41.054855 3.756497 118.203384
-15.906090 -4.637023 131.834732
10.984573 2.716900 121.215050
51.601700 1.052261 110.654434
22.235983 4.367119 142.509247
-0.619245 -13.941136 133.515869
10.815239 -5.853768 138.893311
49.372952 -3.734758 102.197350
41.297085 -0.088088 119.152809
10.114103 13.842246 141.484680
-28.170193 8.371283 136.434143
6.686316 -0.313937 151.487244
29.619623 3.756906 133.623199
4.675014 5.982045 156.179962
-54.890419 -0.492733 109.613594
-31.234367 2.964232 119.174904
1.298909 4.410822 119.919411
14.806845 -4.566039 130.299011
-36.843925 9.718315 122.110863
10.817797 -6.108732 145.006622
-14.468358 6.651695 131.068405
-6.687702 4.116643 157.024399
-7.618960 8.986820 152.692184
-39.064846 7.137888 122.619308
-42.987885 0.300263 106.581474
-10.541485 5.234302 127.197746
-27.649347 0.976977 135.238937
-16.506714 7.569287 132.822357
-46.437725 -0.836720 107.750175
13.643901 10.399830 150.144608
4.926935 -9.426176 138.889465
7.973686 -3.186419 144.241455
-36.405228 1.872107 121.608391
-7.672381 3.982649 153.715164
-42.295444 0.171421 119.728958
-10.004437 13.945815 141.470428
7.016435 11.015000 140.551392
39.802017 4.086813 128.399155
13.739716 10.729541 131.669800
13.945951 -12.157524 130.228683
-45.517937 -3.564506 111.683167
14.955822 9.008255 152.708862
-26.680740 4.729530 123.215904
-27.353230 1.967447 138.230148
38.624249 5.701526 122.136948
-30.708214 3.952118 133.250534
51.156891 1.856447 102.343437
12.414934 -1.155737 147.039383
-14.170305 -4.944146 128.006546
8.966110 -2.956696 147.884155
18.280384 8.248071 141.084808
-17.735380 0.187497 150.347763
13.384432 9.149726 137.473328
-41.509361 2.298710 110.262428
36.740807 0.290852 113.145409
-45.985458 2.583043 117.858902
34.550472 0.558902 120.544922
-26.198374 5.050836 127.023148
35.041256 2.886483 130.426025
-7.381009 12.974721 139.305283
-6.037876 5.280411 153.518677
13.390188 -8.277394 126.910721
-4.555583 -10.356693 127.067703
-13.880798 -7.925671 137.492599
6.255477 14.421577 141.924347
-15.275597 7.379341 133.807861
6.632103 11.377926 147.924881
-7.035228 5.112633 120.142227
-13.280444 12.625686 145.008987
-11.680318 -6.689852 141.813370
-13.161672 0.822238 120.347588
14.236091 8.440468 136.453568
-22.912323 8.948978 138.513092
-27.841900 -0.427231 138.630524
24.053690 -2.411138 136.482269
27.601328 1.142289 131.187027
-36.856377 5.606327 112.531990
-37.832890 0.796108 129.607437
-26.196430 0.288003 138.088196
39.674286 -2.042516 122.588364
-19.351402 7.827845 151.385529
39.422272 1.973672 125.217308
12.305916 1.306015 130.676224
-8.811993 -1.689721 153.820114
35.083118 6.074860 124.040932
51.459869 -6.023661 109.242134
4.493172 11.298944 151.058044
-23.278111 3.145692 127.989227
-18.289925 -3.018024 144.098267
48.059906 -2.082599 103.739929
-7.637272 -0.006736 149.181152
31.658110 9.252712 129.936340
-43.835686 0.712254 122.555954
26.973011 1.619169 134.362946
24.723433 4.945745 130.023453
-23.478300 8.752777 128.679367
-19.745192 2.072277 132.809311
-6.205517 10.185984 161.851624
3.156027 10.555202 149.065735
-45.570213 -0.862925 107.859772
-16.348093 -5.211650 132.381134
8.580499 -13.563498 131.444962
-11.449985 -11.404707 124.598801
3.143702 7.441257 125.793343
-39.337692 0.626644 112.783928
13.023942 -13.128660 134.593140
10.295838 -3.651639 144.842056
-9.136042 -0.765853 144.961792
0.153517 -12.678804 124.485870
-5.349325 9.438992 132.267609
51.744743 3.346467 115.386703
-6.470541 -2.313735 152.825623
-13.108940 -4.506772 125.630714
35.885056 9.358786 124.596123
11.516705 2.586134 123.913445
-11.266868 -11.530441 129.867020
-40.678223 2.492354 112.511322
19.035416 -0.429779 135.359329
39.047318 5.847618 123.080513
51.250648 -6.516785 105.163353
-17.099979 6.306421 148.632339
-21.918049 -2.280754 132.408905
4.888439 9.419490 127.041260
-2.936506 -12.264480 131.053680
-10.203726 -8.390044 140.772537
25.745880 7.430061 136.650055
3.918864 -10.808726 138.526550
12.800526 3.497912 127.132622
-26.253172 8.032387 126.659065
13.713124 -0.451534 123.182182
35.966690 7.112056 123.043930
13.801612 10.269953 139.201859
-8.621408 -14.428645 129.961472
-27.882114 1.186630 128.049820
-19.888409 3.060511 146.080429
-37.092701 7.407626 117.700905
-42.048798 -2.882345 111.485703
30.273056 3.419754 124.508018
-42.856621 2.397848 113.491234
43.042130 1.859715 123.516129
7.143303 13.504493 137.974579
-41.120548 5.011843 111.745537
-24.424761 4.334501 126.093605
35.685741 8.792163 121.756256
34.256950 1.132854 116.290222
-47.163979 1.962340 112.046112
9.088099 9.559309 151.391861
1.773254 -14.396139 129.735611
35.204582 2.331270 126.395546
-46.735455 -3.896350 105.885818
14.317143 -4.681237 126.729691
44.568729 4.030067 111.297859
34.306149 -2.852971 116.441879
-35.693840 6.083343 126.817711
28.854660 5.483679 121.575386
-10.460826 3.793688 149.775894
-33.993160 6.411070 119.463043
38.384869 1.195634 113.877037
-44.761166 0.639924 101.813858
9.760565 3.664751 150.093201
-13.154306 3.108921 121.794678
-0.579537 -11.753511 131.481262
-14.940596 6.195196 151.353043
27.556181 5.226826 140.343491
-23.320227 7.248527 131.462097
-8.158519 12.883096 148.592392
-14.087053 10.583007 145.467133
-13.943780 -10.741769 132.107391
26.323643 -1.471488 132.076065
7.029182 11.668115 134.295258
-25.551853 0.899084 127.720703
29.415333 7.954128 123.776237
14.281924 4.981412 127.889389
-23.822628 0.541194 131.212540
-24.412128 6.968511 137.220520
-21.891098 2.403707 131.467117
14.708215 -6.354387 141.693756
1.866924 -14.197883 125.741844
-3.271996 11.870469 150.081375
-41.160183 2.828660 120.915504
21.352468 9.807888 136.203217
-12.041272 -1.072309 122.313255
7.883682 5.977787 121.834000
-14.103044 -5.661358 131.619583
10.512652 7.350218 152.701111
-6.341235 -5.580506 146.393036
24.343618 4.197582 144.475555
-5.423921 12.809684 145.885635
41.827534 -2.678615 116.816719
-0.250686 9.046214 121.383400
-41.561882 1.015061 128.012573
-27.664520 -0.731380 127.357231
-42.257168 0.527564 109.753418
14.465929 6.317281 137.680405
-18.135853 4.683904 131.258804
-22.494823 -0.436978 130.067535
35.332287 0.500168 130.096222
27.641506 10.623603 134.715866
-13.582736 0.037518 125.875427
-6.069627 12.136775 146.892868
30.049650 4.855842 125.672340
-17.088636 4.279377 133.871399
14.174708 8.134060 137.982880
4.066736 13.901337 146.672470
27.495108 0.659170 130.087921
-4.904119 7.510228 154.426941
11.958806 11.367976 135.476074
-31.135195 8.755866 124.505356
-0.863510 -13.213214 126.028931
22.516434 8.489479 138.316254
10.345445 10.070230 134.118744
-23.438774 3.511672 142.895721
26.817728 -1.047222 134.354675
14.646492 1.913090 156.674591
-7.265349 -0.645006 150.158936
17.045031 5.014110 134.495667
6.073059 11.882885 137.929520
1.426628 -14.041151 126.675209
-20.373936 7.375538 147.629044
-6.138006 -3.280951 147.454208
-0.944816 -10.041420 137.682892
-44.519489 2.240700 104.879463
-32.401814 2.209863 121.789787
13.789074 -3.160162 146.900681
-4.602922 -11.790289 132.246338
15.373565 9.695924 138.328079
32.019470 6.328140 118.793678
-14.197250 8.685101 134.455612
-25.216896 -0.920405 130.814255
22.085857 -0.356819 144.444229
49.359661 2.389310 116.229996
-9.160154 2.008900 153.905533
-5.418352 0.842023 120.916771
17.163958 -1.254642 146.000580
12.612666 -1.785345 148.327789
5.687381 -8.704031 130.204010
40.133366 5.238566 119.692734
-27.543911 11.024799 134.325485
12.878192 -6.122429 140.008850
14.934044 -8.076313 143.416397
-23.090633 -1.287862 126.174400
10.287671 2.387945 155.027893
-33.778000 8.203801 124.629890
16.467087 8.701632 147.038116
-8.084767 -7.476377 142.543228
-42.813370 1.452986 121.812790
6.107699 9.998505 124.123695
-17.015455 -7.556438 137.115219
-21.852503 3.079361 130.293625
5.991233 12.044441 137.525024
15.762948 3.970500 135.686844
-13.744739 0.518171 134.467407
15.290353 8.229005 137.460510
38.410507 2.157079 128.573502
-39.328903 4.528219 122.187004
-5.868533 8.134444 155.134537
48.322372 2.392813 117.224831
1.835338 8.642164 159.021973
-0.822134 13.346457 145.515732
16.974188 2.393981 147.193924
29.135830 2.379955 134.371140
41.562485 -0.418536 110.262527
50.693882 -3.795711 104.985313
-3.640815 -16.399622 128.941696
12.719461 2.321167 150.901154
46.400169 -4.542404 115.633896
-22.077017 9.456535 136.888290
10.952099 6.902820 130.784042
10.265452 6.424469 129.684189
35.716381 6.108282 121.185455
53.349174 0.464155 110.700760
-1.204895 10.597718 154.606674
-15.055490 -5.641150 135.031693
-42.331337 2.543237 99.837685
2.638549 5.625224 116.601051
7.027009 -2.335813 144.839294
10.661823 4.929577 119.137314
11.820311 1.700316 149.904572
-30.057985 5.714580 121.473518
5.731389 14.442920 145.722321
-17.640345 9.308242 146.421036
-9.497694 10.757467 133.369827
-23.516647 -1.795387 135.530060
-41.946163 3.573848 110.375366
-13.786900 -9.411184 139.431549
-5.573278 7.480376 157.384476
11.559574 -8.102678 131.447983
24.414827 7.863894 128.702774
-5.273129 11.890118 142.059128
-4.794921 12.751425 138.044571
44.312519 2.276800 117.086922
-36.881744 6.627934 115.564964
-2.723504 11.393222 148.014404
-11.746979 -0.530374 128.794067
-48.565559 4.600008 106.112328
5.356811 10.592849 131.769455
15.036803 -5.249515 140.746201
-33.662098 8.582617 125.688255
10.748097 -2.239500 146.844330
38.117859 3.441547 129.433350
-41.147827 -0.687799 122.068680
-39.320087 1.041898 123.626335
28.105528 1.814036 134.184265
-39.751579 1.901046 125.323425
11.052877 1.490552 151.325562
40.481930 7.239759 118.947968
-21.490301 2.925124 146.002625
-21.638756 11.366276 144.798935
35.975853 5.814206 128.099060
-11.217783 0.071144 122.488312
11.362123 -2.591731 146.189240
-9.017750 -0.337245 150.266800
-56.046253 -3.196130 109.219940
-4.184734 7.707118 122.573166
-5.310551 -5.839128 142.087891
28.415915 7.428487 129.243118
-7.749329 0.143243 149.326492
4.458036 9.440519 129.470856
-1.364030 -7.712440 141.718582
10.903140 5.149340 126.508575
-48.141403 -1.563468 104.600250
7.922853 9.894527 150.428299
-49.693661 -3.745828 114.832123
8.860371 -0.339614 149.655014
12.503179 -1.161110 127.089470
23.440046 1.033133 132.494553
5.320968 -13.930359 131.032837
-34.296509 5.530688 133.430847
10.543242 3.640122 119.823586
-39.448814 4.173305 115.003746
-40.711506 0.656931 110.011429
42.101635 1.670692 107.031929
-6.334794 -11.766661 125.495270
-12.819217 -2.815019 125.385674
-22.972179 9.725642 134.995712
-8.784608 13.107912 133.115143
11.973708 -6.369273 128.867783
1.780122 -10.994652 135.654709
-45.002525 -0.992720 115.681984
37.378204 1.852463 113.978493
37.089336 7.999222 124.709389
34.160339 7.354080 120.531364
-49.293774 0.931590 112.708298
0.913183 -10.662609 125.863297
-4.730644 5.352214 127.637703
11.964622 6.839884 151.631271
-43.176220 -2.445593 119.053085
-30.164505 3.382553 119.752899
-11.848022 10.482104 141.121338
17.733763 2.001338 149.922623
3.929080 -14.017243 131.514999
16.781757 2.036671 134.034119
23.178616 2.668128 124.489296
9.579392 12.002548 141.184677
1.996970 11.299553 132.411896
50.220390 -5.254715 112.238388
-41.300575 5.356263 120.322281
22.465755 -2.410199 137.806854
29.586575 3.997000 134.480072
42.828793 -1.563723 108.749924
11.570979 -12.290247 126.062859
12.478186 8.711651 133.045792
-0.468010 -11.118192 122.781754
-9.408536 5.693805 123.400986
23.506577 2.685966 129.327469
21.016588 7.423302 145.917618
10.443485 -0.667281 121.949257
-10.767836 10.233779 139.452377
3.187452 -13.687836 136.705505
-4.786831 7.664616 124.789436
-33.395107 4.322288 119.252716
0.005637 13.553022 139.145447
-34.567650 4.999292 132.192825
-11.228703 4.557848 126.023163
10.049076 14.083262 144.927353
11.553035 1.775768 128.695480
-8.179033 -1.537168 145.130081
-33.851360 8.710629 121.071510
33.400131 0.697060 120.612518
-7.195660 -2.745506 147.342926
38.733582 3.190556 115.891647
30.631655 2.646966 120.846222
30.005342 1.659327 119.756706
5.410227 6.366688 155.362350
-48.020279 -2.603682 105.606262
-6.609741 10.202703 136.459366
24.296587 2.977052 141.274994
30.923775 -2.276725 121.518585
8.165188 5.002652 122.666985
16.422316 -3.911020 139.953888
30.633806 0.244456 119.286293
-8.896593 11.413205 147.885117
-14.090042 1.384221 148.162094
-33.481453 3.034831 128.230621
42.106377 -1.587554 111.544724
0.108551 14.012060 148.272446
40.189194 7.024706 116.794655
-13.379328 -9.459483 126.047256
-6.475761 4.695033 152.163727
-14.455416 8.735703 137.252792
-32.713936 6.718673 121.488472
-30.384912 -1.372590 127.243629
-28.842024 9.585286 126.290329
9.022696 5.004992 124.552704
-38.395607 2.794887 124.742622
17.951504 8.638535 132.749573
6.049573 12.044359 135.780365
3.103944 12.843904 142.320770
29.585884 -0.891653 119.422432
20.339077 8.412726 132.726410
-13.816734 -1.781848 149.733078
25.000481 0.385931 128.526413
-11.322711 3.423181 151.931412
41.486332 3.827511 121.832321
-25.296438 3.740521 125.705406
-13.154416 9.984595 147.060883
-18.842995 10.725547 137.816696
49.621639 -4.488123 111.872482
-30.490381 1.513474 121.755547
-6.410625 -4.431486 146.520370
-34.372932 -2.158715 122.842728
-3.287612 11.879773 142.388885
-9.794856 8.830729 130.361832
47.345047 3.734344 106.216782
-12.186094 -8.157901 130.413376
27.735914 3.057625 139.225235
-16.878239 7.730153 149.023956
-2.609363 10.690103 135.378662
-7.416079 10.519246 143.488632
-45.214394 4.083766 109.784729
-43.243343 -1.333321 118.993393
-12.915523 3.324391 151.724136
10.424264 -4.795153 150.813980
-23.304428 -2.053435 138.065292
-28.633301 7.200047 135.285019
35.382599 0.089726 113.823135
-31.756878 1.514337 116.277817
45.170067 2.122007 106.221367
-28.592297 8.967430 132.759827
-39.621464 -1.721838 119.431618
-14.440722 10.658238 140.997849
-29.655745 2.984636 123.261116
-11.176917 2.928359 151.058426
-44.348305 1.939967 108.032524
-8.405619 12.114325 147.415695
-39.267525 -1.836403 116.632828
-14.955840 -5.744946 141.988388
21.554405 6.070436 132.205139
-21.269140 7.277071 141.922348
-39.230778 -1.524465 120.748489
27.685360 0.839751 130.660217
-33.847569 2.483871 116.446205
2.167404 15.341753 144.920181
-7.901783 -11.613844 129.699051
39.476894 1.187036 109.481659
51.951168 0.246373 105.386063
-8.038832 12.738035 136.637451
-33.271851 -0.806074 128.215851
-14.286922 -1.742447 144.635040
-35.584705 1.461409 123.348602
-7.558577 -6.973675 144.514984
6.413859 8.849949 155.152176
34.536037 0.337525 120.656105
12.485209 10.136082 141.657303
-28.741262 0.842728 121.944832
-6.608854 -14.284163 126.253471
-7.162626 4.496115 120.008690
1.115083 -12.946706 134.495911
-33.145775 1.039568 132.814026
47.265846 -2.524431 106.159225
-9.291512 -13.752803 135.301239
-7.110871 10.160684 151.402344
-19.761562 4.572843 132.096680
-42.344799 1.462819 121.716492
-8.578262 13.088358 134.511459
19.908092 8.093928 135.319778
14.356575 -11.673385 130.874985
10.713840 -10.697974 131.604279
-52.185738 -6.283747 109.251648
14.790431 -7.986389 135.423447
-15.717607 2.126148 132.854584
12.912915 -2.479193 126.468018
-32.766022 0.655683 123.895836
-9.025005 10.611046 150.869980
7.139814 1.904873 150.148849
26.811666 7.114414 134.256088
-3.782142 8.180244 126.785545
12.654797 11.743297 143.569351
7.356410 0.959214 123.901863
-28.066872 6.729474 133.976578
-14.786126 13.768481 146.218033
-6.635544 9.793716 151.765823
-44.336300 -5.952746 107.111168
51.748222 -1.349690 112.572746
-2.005120 13.583764 148.463989
-23.231117 7.955733 133.723465
12.688064 -6.282063 122.859627
-24.516066 0.933336 142.957626
-28.816000 -1.552891 126.309502
13.184606 1.202875 128.306732
-32.846962 0.003579 122.541901
31.307985 6.304919 128.940338
-35.511127 3.329683 128.974655
14.278865 -4.297288 128.335571
-9.598494 -5.211061 143.450790
-46.756187 1.856617 110.592003
14.622750 11.844947 142.233459
-31.299618 2.309249 137.251038
-9.069795 -9.609560 141.012482
-7.426508 -3.335489 139.680847
-1.777723 7.339005 128.281448
5.742554 11.371387 134.467865
7.454394 -6.676485 142.136841
-20.315588 -0.978661 144.240280
31.354984 6.695261 134.056473
18.411289 9.311714 135.740768
-13.871733 9.862195 150.622452
-42.631729 -3.749492 117.904968
-30.498709 7.943316 125.006844
6.105731 -14.302275 130.070312
36.173950 1.264310 130.453171
-10.303366 9.029360 130.324890
28.877266 0.051144 133.126587
42.890320 5.029931 120.748749
-11.104817 -2.942521 143.527954
14.851101 3.778842 131.867828
40.566238 -1.927498 117.013985
8.713239 2.586002 151.442139
-8.519171 -12.096641 135.643982
-15.421303 3.887269 135.133255
2.742759 8.388963 123.931328
12.246337 11.453014 142.957336
-48.187599 -3.728202 114.398972
-10.585795 2.398816 150.292465
-5.735846 7.122502 126.762566
12.905224 9.598239 147.714859
-18.426584 8.190277 136.247192
-10.980034 12.443768 145.504868
34.997360 6.720473 124.933540
-17.567854 6.713952 141.991791
24.329891 2.916104 141.250381
-7.989959 -7.107695 140.679230
-11.259325 -12.278584 132.108353
-29.606438 0.693696 134.890839
-9.697898 11.965488 144.396591
22.418631 6.158432 131.104584
-5.120365 9.613105 131.054428
-28.646648 7.356645 135.894424
4.980812 -8.248842 138.153717
-6.626452 9.667616 130.946350
-13.043967 2.742156 150.461380
5.685237 9.494370 129.243805
-28.094694 8.651878 131.902435
5.891247 -0.489290 151.248398
11.983878 9.903451 136.268417
3.012809 10.304156 151.851685
-35.792870 1.483080 117.596642
3.640416 -13.429996 125.917816
-4.790705 12.713288 150.731750
35.749405 -2.601084 118.461891
5.281010 9.995687 134.132706
-32.968895 1.549565 130.920502
2.636582 10.344470 152.008011
-47.124092 1.931692 103.772972
23.804028 2.075149 129.892578
19.568829 10.536775 139.338867
-24.631504 10.559505 137.946823
-7.985465 11.658583 138.021408
-5.012236 6.149891 150.632309
2.538249 -13.858974 132.799896
11.387712 -5.986480 124.875031
-1.902367 7.810750 153.121017
-25.497276 8.456800 139.086243
-13.893581 6.623631 118.590179
35.108692 6.125032 122.607887
4.223306 13.951473 142.706558
-13.440380 -2.590209 147.199539
11.938438 -2.366007 147.791077
-14.266356 10.993455 142.234741
-2.995198 -9.728372 135.660080
-7.572557 -6.701770 144.337585
-11.824598 12.775542 149.175781
11.272055 12.310396 144.267166
-39.244755 0.544152 124.705902
6.268266 -14.071365 125.883675
10.521803 -0.867075 151.877808
-14.775216 -0.597900 143.253860
-34.336182 1.418919 126.701355
11.040971 0.703317 148.011673
38.034512 6.030738 115.191872
-4.055558 15.813745 147.224136
-29.665222 1.045783 124.256577
12.118879 -2.083868 148.046097
24.944006 2.394670 140.481094
-10.673966 -8.970079 135.871414
-38.456047 5.489255 121.401978
40.537964 5.190497 115.079956
45.492176 -1.340360 108.261948
-5.191646 11.924576 139.397751
18.825209 0.859837 150.909698
36.684086 5.078331 125.437004
-25.004313 9.437976 131.755264
-11.538379 3.309667 147.405838
-5.760334 -4.793561 146.272873
10.342112 0.456135 152.057022
-5.377158 -9.870234 143.980820
-36.714153 7.566513 120.736023
-10.534369 5.403386 121.822418
1.775820 8.336670 152.734558
-30.900732 9.174021 124.979630
-14.311876 5.007134 131.162018
-12.032604 -7.472149 143.614487
7.686852 4.987628 125.055229
-24.312149 7.244206 138.426590
-11.203188 1.603639 122.176521
38.159573 -0.133378 116.091812
27.687386 10.416846 134.110748
12.376428 11.383699 143.360611
3.059565 -11.116897 138.140762
42.491928 6.092185 115.760918
9.775843 10.617312 141.175552
-11.030212 6.925639 153.644165
11.363447 5.947360 132.306290
14.563591 -7.552307 134.713333
-2.817787 -6.444297 145.876770
2.330021 11.288238 140.703445
21.290813 4.280188 131.537704
-48.096142 3.181032 109.066765
-21.953926 9.108944 130.816116
22.286423 5.755528 130.794769
16.268366 7.374758 149.836929
15.200779 7.805924 149.596527
9.417725 -6.694043 143.346832
2.727371 10.146017 153.444107
-33.777008 5.031894 118.454033
-8.722552 0.402762 152.433670
14.613463 10.236569 140.247726
33.056648 6.885368 116.901848
11.984509 3.707312 126.364838
-22.879539 1.910728 139.390869
-49.034065 1.178416 103.485016
-47.356129 -0.976779 103.860703
32.642921 2.585329 128.527847
12.187075 -10.768498 134.421066
21.737490 3.202384 142.827011
-1.853463 -13.314803 127.023636
48.402145 -3.510965 113.590919
-17.493389 7.215697 151.149307
-26.894821 5.244493 120.429779
7.146283 4.729924 153.861908
-7.749218 5.940990 119.530426
-40.510975 -3.243503 114.587891
40.639385 5.955563 110.677429
-5.589005 10.980087 134.693680
-43.369953 -5.294146 118.631638
-25.900194 2.561232 134.761139
7.995357 5.916811 126.701057
-24.218180 6.161039 126.114258
-15.994535 10.398674 143.484619
8.071632 1.761554 151.244873
-50.954132 1.836154 106.564606
-13.620048 2.210337 150.494522
37.617027 0.952056 114.512459
-12.187104 7.614202 133.286804
20.642960 4.311464 147.134735
9.731936 9.645200 135.015289
41.613667 -1.738405 119.781502
6.622047 -10.319977 142.819687
-46.092407 -3.016857 116.636246
-39.391338 -0.037194 122.074455
-29.822313 -0.413691 126.347366
-38.872166 4.362576 113.531403
-3.314634 13.208312 139.332397
16.379507 -3.492146 139.503937
-20.245382 -1.898077 143.877502
-2.933481 -9.630757 126.623222
-9.017737 2.823862 151.854797
26.971359 1.686738 138.795868
-22.801449 9.886039 135.313370
-2.070278 -13.498507 128.504471
13.266773 11.347645 140.061874
-26.433189 7.821729 124.508652
3.146341 12.504505 136.483246
-16.530920 -3.307773 144.742630
13.936236 -0.800151 129.008911
50.424934 3.128689 110.366982
-23.339952 9.388034 140.385849
37.045517 5.936663 125.035652
50.258293 4.129192 111.646042
-46.412571 -4.395285 110.513908
-40.208912 -2.215664 118.872475
48.656715 -5.077533 105.934509
17.383581 5.016583 149.963425
-16.814753 10.749969 144.922180
-5.452281 10.728937 133.773132
-20.321268 1.387318 144.087448
-7.753452 11.729579 142.270905
11.420517 -7.222523 142.448364
-6.311213 12.340030 141.414001
-8.751047 10.363530 151.276352
8.473501 8.287388 132.571136
46.145702 -3.143196 112.229652
36.629971 3.026360 126.806381
-39.910610 -3.193184 121.200218
45.576454 3.718660 116.215332
25.057882 1.072852 127.786331
-14.259336 5.128483 152.907776
15.514143 -6.274052 137.680084
-23.247532 8.581857 132.031204
-31.727777 -1.034539 133.402725
-9.975225 12.177072 151.345627
-27.408350 9.968874 132.702637
20.194920 8.165829 148.120987
-0.852726 -14.709558 133.766968
29.583241 1.036039 128.491180
14.259301 9.879474 141.507935
32.695225 7.159174 132.049377
47.246239 -3.671650 114.776672
-49.372227 -1.535567 107.644379
11.796468 -6.181334 124.382957
34.567249 8.134007 127.343956
-24.873295 5.569431 136.687698
-19.036949 1.859438 149.604706
7.412440 4.959474 155.827805
-16.649233 10.948192 132.834595
1.174088 6.926545 120.463203
-18.511065 -4.167044 140.878067
-36.985504 1.955460 127.278175
43.858490 3.693737 120.762497
13.813286 -10.400901 137.475433
4.182279 12.267743 131.053604
20.366709 1.912592 144.613571
-24.355368 7.992393 131.220016
10.736935 -3.110694 148.179764
21.033504 0.249031 129.684677
-0.476756 13.202605 144.764038
49.809750 0.385079 103.194466
6.654066 7.824926 153.608322
-10.287323 12.261565 139.292099
-22.114851 6.254204 132.985840
-16.945015 2.118854 131.379196
-1.944946 11.277301 136.940536
33.262932 6.080766 118.977661
-17.400743 -3.726528 137.673386
10.033591 6.387761 128.120422
25.262989 0.360966 128.674255
-17.115578 -2.871045 141.233475
-40.359226 5.567743 116.416290
10.918571 0.358449 149.552322
-33.243465 0.616465 125.786713
16.573551 10.593411 146.690598
24.184925 8.013439 129.110916
45.894073 -2.792952 111.689377
-48.319614 -5.937634 108.038788
-0.447200 11.995718 129.027954
21.562046 2.754319 130.053192
-48.766262 0.508555 107.504616
9.835578 -2.908547 146.627777
5.376932 12.432107 135.498917
13.107117 9.426005 147.519379
-2.115415 -10.306309 136.622177
-9.734648 12.738772 145.555420
-1.245840 -13.446592 129.856247
-5.270803 -8.375924 138.531982
14.762709 -8.383584 123.512817
-24.300293 11.523490 134.608017
37.932793 7.179610 123.895073
13.649092 4.537292 128.153809
42.049343 5.547021 112.308739
43.136364 -6.012913 113.225281
13.109637 9.094047 140.153778
-37.524315 1.913309 126.180389
47.608814 3.534400 109.769180
12.495181 1.866090 130.549698
34.149525 5.263975 117.655495
28.924829 0.026708 131.896652
13.221727 -6.581820 126.731209
8.001066 3.169402 158.330536
5.386723 -11.066092 125.502846
12.798315 -2.547373 125.885017
-21.104265 10.662239 137.030212
18.153522 3.600670 149.523041
8.729638 -2.994740 150.715759
-2.463349 -13.498643 132.344193
16.227013 -7.497288 133.702698
-10.451065 2.512324 149.917419
21.454235 -2.116979 140.138138
23.078983 12.351536 135.869934
-40.668533 4.270330 119.008194
11.091454 -14.755698 136.511749
14.335495 9.248461 135.788391
37.084988 1.081739 124.316536
-32.224461 1.998792 133.076797
-20.184895 0.798333 148.216187
-34.893467 2.321732 117.989510
35.618450 -0.766197 118.016914
7.588716 11.046670 144.284592
49.520515 -2.968962 104.182671
-0.864549 -12.172574 134.215256
-20.560284 6.613667 132.015869
6.067217 -12.570333 133.865463
23.098110 1.515050 129.979980
-5.264172 -2.248366 149.836182
13.640676 2.870018 148.979919
11.681501 10.256480 134.804169
-5.976251 -9.786489 139.120010
-20.877552 -0.843470 132.762543
-24.991302 6.731247 141.642807
-4.559465 -14.713901 132.086441
8.712291 -10.709396 128.493286
11.398486 10.696364 141.058762
9.616514 10.543813 149.836517
9.150632 -5.139315 145.027802
-36.058292 1.365943 116.741051
9.629814 -11.336556 134.649948
-22.585403 -0.321478 132.860458
28.530191 8.981446 133.035324
36.390118 6.783792 123.575447
21.755655 0.847587 141.569244
37.730129 -3.360310 116.738785
12.978596 -4.654442 125.637299
44.580540 3.402365 111.345345
-43.823978 -0.931727 112.951790
15.216762 -3.822280 135.097702
24.710403 8.286984 138.897385
-50.833813 -4.301537 112.665970
-26.808928 9.650547 136.175858
-33.454407 -0.810908 127.555740
5.690997 -13.006011 123.855598
35.843525 3.639638 116.638977
-49.457245 -2.028212 113.520241
-45.363541 -4.291252 109.710869
12.742720 10.640855 148.153641
44.499367 5.253594 118.348885
15.960650 0.558345 131.653519
-29.290915 9.074433 126.523041
2.181085 -16.574158 123.197365
-5.911371 7.887603 126.939743
-50.050732 1.625692 103.444412
48.449001 -1.897914 102.396980
-14.263227 12.767859 140.801407
-8.772829 5.258068 153.309204
14.290502 1.739594 149.668686
-12.254107 -3.259503 131.110306
4.159969 10.459517 145.887817
37.548565 -2.961560 118.193153
46.050365 -3.329345 109.084381
-17.430069 10.493379 144.331772
-10.822742 9.895750 134.386429
48.620205 -3.907976 109.929108
14.939012 -3.139566 133.691986
-37.591053 8.101996 120.401993
12.564172 -14.553666 135.151047
20.206438 9.144204 139.696716
13.027629 -9.163983 129.390732
-30.620762 2.994472 121.182365
-7.781719 0.175289 151.531830
-11.342779 -1.365282 151.755173
-46.704277 -5.108781 112.437027
-14.132144 -6.373321 127.607162
11.627999 -8.998181 122.209381
17.563778 6.445001 134.659454
-9.956758 10.760191 134.621780
-0.858279 10.457186 132.399506
-1.066552 8.147740 153.963852
-20.197155 11.128264 133.852432
42.947495 6.294623 120.601891
-20.354656 8.436406 134.034698
-35.351440 3.006923 127.615967
4.939870 -0.980606 151.203369
-12.452344 1.800206 126.577538
-38.698315 -2.071110 121.364449
46.765617 0.123079 105.270020
1.748366 3.126659 118.652718
-15.946088 -2.965727 139.604645
13.842489 8.058578 146.733215
33.836582 3.235197 119.579262
-49.434269 2.634909 108.702293
37.801842 6.470685 121.608864
43.952271 5.111976 119.424225
8.699148 -1.840996 145.264725
48.788971 -3.676522 109.760872
-25.808666 2.765762 142.355804
-7.917480 14.943540 140.545227
-1.732592 -9.445455 141.490952
-20.086540 9.101017 138.166229
6.136428 4.488780 120.767159
25.161695 5.230775 125.893608
-1.245816 11.019638 159.266754
24.485350 6.084430 139.910263
-4.920420 6.857768 153.080124
4.229134 13.789683 137.816757
-48.857964 -6.775119 108.678207
8.871315 13.028292 145.264526
4.854110 -12.022353 134.791718
21.638777 10.691922 139.075043
-33.042751 6.170982 132.400955
37.374554 0.247752 125.312889
42.975006 6.054492 115.020874
-6.857280 4.695241 153.612946
-33.934689 1.922598 128.565292
-14.588955 -1.042279 135.002075
-3.994233 13.565712 149.637054
16.407736 -3.948505 138.031082
-47.908195 2.590200 112.866127
28.045942 1.394150 127.134438
-11.798812 6.998861 150.941071
46.316113 -0.989179 117.275497
-39.016853 -1.651568 122.665955
39.971050 0.082136 122.305916
3.530231 -12.535506 124.355179
15.619047 -3.773972 129.675018
-7.650003 -4.742514 149.893829
-15.580759 9.359283 150.137024
-5.677087 -9.481818 142.260880
-21.755886 9.298822 135.020035
-33.778313 4.012858 116.940666
9.636634 6.752004 151.309387
-37.830353 -0.964058 124.512405
-42.523102 3.155271 120.896263
-12.535918 2.727426 127.968689
17.192295 1.930826 133.926773
26.559010 3.984408 141.766281
46.331295 4.145773 110.553238
14.912682 3.585959 132.576263
16.958439 -10.125895 141.907242
-31.309914 3.609009 120.555885
0.248928 -14.350817 132.311798
-17.252396 -0.538607 135.557007
32.239021 7.139175 122.773865
-1.341977 5.330988 158.295670
-22.102175 2.229642 132.227875
25.124495 8.419657 133.749802
7.563438 13.856183 143.161346
28.152674 4.829192 138.725937
-28.841766 2.111719 132.210663
-28.198778 8.575463 128.170700
6.178770 5.359957 150.640320
20.108475 -0.257148 142.416870
34.020947 6.629427 124.672195
7.866797 -12.769323 126.343323
-27.230206 5.214954 122.127396
-21.076878 10.059789 134.994598
52.636021 -9.952268 107.720497
-17.214233 2.191071 150.379486
38.191788 2.898183 124.555710
14.266935 3.822545 150.084274
25.837427 10.860879 130.159409
-41.919170 -2.439149 111.928535
47.112923 2.171454 103.030884
28.065622 0.632477 132.046799
4.718893 -12.464237 141.242691
-47.462101 -1.703667 106.026718
-16.641327 -3.892485 133.596878
-13.352246 11.300081 141.424103
-23.609205 8.516761 136.896515
-12.952353 -5.527599 119.940987
44.855190 -2.304536 106.909325
34.348873 0.243496 120.211952
-37.844833 -2.009509 115.260429
-40.895142 -2.084663 123.423317
10.015628 10.935979 149.907776
-44.709431 0.818547 123.181763
5.117091 13.258829 140.759430
-47.664047 3.314659 104.213104
-50.567402 2.390213 107.835030
-12.414135 12.547229 143.025726
-17.652397 0.180125 136.903549
26.168083 7.390444 126.191910
-9.952084 10.824830 148.786438
-27.840569 1.116120 133.992950
-6.084108 12.756944 147.260300
-46.194439 -4.791566 109.091011
-18.965103 -0.745119 136.829010
3.353539 -13.450719 128.261505
-12.465816 -12.270419 134.149597
-3.170325 7.311223 119.911484
-17.758410 12.559827 142.245346
12.812429 0.897410 150.089645
12.090942 3.347197 124.154060
4.226405 -11.609343 128.177750
-9.986658 4.954084 120.713066
8.719354 -11.373296 126.844742
-6.951447 10.097913 129.186569
16.691160 4.913819 136.030762
8.284500 11.654902 137.341232
-17.626835 -0.512029 137.258316
26.920900 4.057042 138.272827
8.510957 13.903356 146.644531
-14.451859 -6.500865 133.634811
3.081193 4.834446 117.726562
35.131325 -0.013526 122.354591
-1.985583 -12.576035 131.794205
47.681038 0.163835 106.441376
-21.883972 -1.122720 143.138672
-19.970274 4.190912 130.273193
-32.085583 0.874622 124.288025
23.924988 0.639268 136.219482
47.282764 1.731873 111.289795
-38.460438 2.653622 113.193924
44.117920 4.818355 115.132240
14.212357 -11.649365 134.752594
30.009596 10.213599 131.709625
22.856405 4.586283 127.723450
-46.662998 -2.754829 118.036972
9.976551 -1.534041 148.947723
37.687260 4.642265 115.419838
15.930403 -7.542146 139.999054
-18.379755 -1.288836 144.461166
0.826440 10.480837 130.109116
-31.857510 -1.661932 125.447769
-12.457399 -12.053343 125.666725
-8.119130 -11.876422 134.381226
-7.315266 3.660027 150.534515
-19.922197 12.283970 137.047623
-8.850115 6.593216 123.547791
-33.644325 5.170475 115.856819
-12.877832 3.647138 126.877808
-21.434145 0.488850 130.863068
14.876197 2.907088 150.836014
21.466898 2.020908 142.616013
-46.660744 2.805082 105.261757
3.419278 9.927835 158.043350
-45.386189 3.575177 108.111031
26.186281 4.043665 126.686356
6.511017 10.298644 149.415497
-34.551247 1.730991 130.939117
-1.440563 -12.665857 129.394012
-3.892683 14.301964 141.419113
31.069014 3.265585 117.420631
38.174137 6.393013 117.446121
-17.282856 4.073930 136.038422
18.448809 8.928105 138.868896
35.456146 1.403462 124.281075
17.274784 1.755127 148.445190
12.955831 4.031945 131.145020
42.828030 6.407209 116.148216
28.855009 1.594198 123.317253
37.965366 2.281110 126.071381
-3.668551 6.709192 119.840523
54.453278 -4.183970 108.455009
-12.822686 -11.068759 134.137726
-35.829685 7.338129 116.704514
-17.714262 7.130050 139.199142
-31.344675 -0.859866 123.319054
-40.061863 -1.703807 107.902168
-27.424423 6.278656 136.450607
17.389378 10.931955 147.539307
25.236183 0.494041 130.433655
-41.795307 -2.638556 113.131233
-22.530344 11.448642 136.716980
48.974869 2.044628 103.221016
-41.028954 -0.169471 122.899925
6.099559 -12.534850 137.799438
5.037026 13.791796 151.394470
29.877054 8.053034 130.160355
8.542440 11.316616 140.261475
-9.769554 3.885021 152.158859
9.237940 10.630642 150.812912
45.838684 -2.851214 112.649353
13.823886 0.159763 125.877495
-9.315521 12.333860 145.741516
-3.720285 10.773390 135.976471
16.938421 -2.202831 134.939529
34.855000 1.488711 116.072426
13.302917 -10.924397 138.926178
34.210526 2.262758 114.037727
3.466727 10.114516 126.818130
-45.037819 2.362389 109.325653
14.056490 -8.208199 127.529877
-18.296015 2.059509 148.740723
4.281759 8.388869 156.142624
-3.230532 9.169399 124.295967
-2.514090 7.542987 120.024094
-5.326344 10.380704 133.722580
-26.691952 0.338004 134.153687
20.534254 2.934121 144.493027
-36.993877 1.270019 127.227127
20.694510 8.615061 146.606308
8.253035 9.173914 129.493225
-24.091213 0.684765 136.215149
10.586397 -7.788337 140.400055
48.537533 3.838810 113.996025
41.153316 2.237370 124.116638
1.929476 9.184760 157.844376
-10.527488 -8.909673 141.732269
-3.795752 -9.684830 138.484802
53.650162 -5.721552 111.538094
23.742323 4.496628 126.448593
-17.572298 -0.313208 138.203766
-11.887275 4.765016 127.718605
45.004677 4.743955 110.709038
28.128290 -1.142874 126.126099
-10.996641 -8.282741 124.979324
-41.924034 0.099570 110.241020
27.920107 1.234439 136.632507
-11.842929 -3.845394 124.278114
-10.829639 9.566238 151.395950
4.414420 6.497055 157.556076
9.647908 -10.363046 127.970039
5.148636 11.643168 148.325333
-11.159019 1.285324 148.682968
-21.293232 9.200632 143.095078
-15.395144 -3.776219 142.619659
21.249504 -3.574966 144.673416
9.894669 -0.860183 149.763412
2.531758 12.703550 151.544006
-13.084181 -5.558107 125.611534
-23.326958 3.964123 140.787613
0.101269 -12.706833 123.310432
0.672988 8.618560 126.192833
44.794388 2.584124 108.563614
-9.970815 -0.325624 146.933060
-19.835407 -1.657417 140.654343
-8.919446 -2.954419 146.735275
-49.176342 -1.896594 100.673820
-16.274372 -2.862286 136.477997
0.465551 10.083774 150.431046
-35.368565 1.600246 130.671600
21.916246 6.837217 129.044464
-3.493695 10.782694 158.041931
-13.024746 8.420345 131.099319
-10.916029 5.311192 122.207535
9.766266 8.022886 127.208656
-45.846352 2.546650 110.374153
-12.645596 -0.388198 145.140289
0.482519 -18.280893 124.906250
-26.050745 8.414429 135.128479
31.329901 3.224359 122.088585
17.775433 9.902740 140.396454
-26.217953 4.309100 138.483719
-25.244989 -2.011743 132.626953
16.948938 3.834450 153.312561
-45.376507 -3.203957 102.772865
21.105795 7.135341 131.826492
9.488134 7.603010 153.582230
12.428978 -13.373979 133.766541
-34.463131 3.552598 116.892044
39.714771 0.868542 122.853806
-10.347489 -3.262847 144.492249
44.510326 -4.485194 115.620193
27.960648 3.517061 136.438202
54.690426 -1.212636 108.144646
-16.088610 0.222161 148.537247
49.410397 -0.215864 105.356407
-27.289049 7.835178 133.736282
-18.579311 11.601143 145.558762
23.490728 9.240518 140.050293
-48.099258 -6.430954 110.628448
-20.009754 10.682047 141.347168
54.070396 -4.520704 107.557747
23.908232 0.097278 124.928322
-20.237934 2.265897 141.903259
-4.917192 -12.267992 129.853638
-8.702890 -3.721514 144.886093
35.948795 1.845952 113.894310
-11.186852 -8.601632 125.212593
-9.927880 -5.021721 142.642731
-11.344913 3.585043 150.433929
-11.544129 10.543219 137.591858
-16.129877 10.670961 147.649414
27.463228 3.996800 121.911713
31.370068 0.883343 131.777512
22.541653 7.617872 128.277084
-12.256845 4.227209 128.151566
48.196484 -0.240864 109.498749
20.988224 -5.641977 140.853088
-4.810412 -8.004127 140.731903
-6.549287 13.050452 146.140594
40.996208 -1.544293 111.327919
-19.440065 -0.894632 139.594543
-23.979364 5.286594 144.079636
-2.951740 9.129122 122.814758
13.265676 3.668902 129.182907
32.169788 2.702397 116.242691
1.358284 6.211745 117.775505
2.431087 12.864689 142.369781
17.272247 7.585188 151.150726
44.383514 -1.834014 118.163391
9.127666 13.616162 136.669922
-17.836102 3.622373 147.883240
29.331078 -0.538009 130.912827
0.990213 -12.283135 135.814850
49.294697 -0.992271 115.000900
10.891590 9.806657 148.452377
-6.859591 1.091799 150.846619
-41.351791 5.521114 120.796112
-21.958590 2.373950 146.146271
15.176632 2.394310 152.100372
14.282916 -7.203467 141.756744
23.057178 2.276561 148.554001
4.960790 -10.828112 127.559189
-3.583253 10.565118 148.964172
16.181131 -2.503627 138.140656
-41.892689 3.801889 120.779755
-6.229622 7.798926 153.831528
0.569913 -13.980396 129.782532
-0.123952 -11.293989 126.604279
31.710821 -0.356812 126.436134
11.798154 -1.120432 150.407013
-14.794393 -4.628564 144.440216
19.089781 9.195373 142.904785
6.696319 -0.618345 150.644608
19.059633 3.075170 149.299393
15.038622 6.088829 135.990601
11.432184 11.453633 138.483994
27.627409 0.846070 124.146858
0.500445 7.776575 124.806061
10.595630 -9.068954 139.445450
-2.313949 12.465819 138.889343
4.167307 6.990029 156.834427
-11.720135 10.671555 136.019501
-44.244656 1.238414 107.798546
12.788647 10.182302 148.622528
5.800975 -5.725580 144.442444
44.140305 -1.633486 107.946136
-6.107486 -9.068517 139.598572
-27.887396 -0.537179 135.990280
37.631798 -1.059590 118.919670
13.519361 6.643590 155.121948
8.334475 1.976421 156.367813
-23.578794 0.105399 133.786652
-14.025322 -6.833856 137.429321
-20.118053 11.647573 133.279465
-13.336430 -8.830306 138.624084
-10.972646 10.498386 134.795593
29.649006 2.592916 120.634903
11.008686 -8.728920 137.819077
-21.483543 8.819602 146.249481
40.700123 2.668020 111.204308
6.130689 -11.853529 126.688194
-18.489082 -4.905049 139.893707
33.213547 -2.757118 125.197472
46.073738 3.595160 108.461884
50.399376 3.083422 110.613365
4.835377 -8.388707 142.287064
-22.529045 9.297443 144.453110
-50.105904 2.531694 110.012032
-29.313625 1.925064 132.421082
-4.753806 -8.649571 140.750656
-56.744720 -3.627462 105.170410
4.758662 7.275665 124.382149
-40.152130 4.314708 110.436859
23.639561 1.322502 130.546219
9.772278 0.877819 152.306839
-1.683658 -16.817797 132.325409
-1.843152 -12.447766 135.416977
20.930399 5.796316 146.747177
-46.068947 -4.617465 112.356438
28.050194 2.354171 126.920898
13.886745 -2.819037 131.669556
-4.634512 6.041620 122.196808
34.544598 4.269522 133.040482
-11.110685 4.186272 127.004646
26.288534 1.456783 131.022430
38.315792 -4.309760 118.127541
14.383883 9.298218 139.334061
12.162547 -1.940930 128.227081
8.472494 -0.443059 144.102158
44.393394 0.994891 110.427933
13.154836 -4.214540 126.710106
22.670225 -1.569810 136.092148
12.585270 -3.312243 146.464966
-11.918195 9.274941 144.725983
16.872503 9.003251 148.611389
-46.391197 -3.198834 112.515495
-39.537750 4.766166 122.447807
1.261530 -14.142003 126.581665
49.474224 0.405032 114.150642
13.260768 10.605147 149.767410
-14.290295 8.648088 152.496262
47.154083 4.360340 107.555038
25.557110 5.831560 139.578522
-32.806988 6.136617 131.981918
25.089502 11.852564 132.316254
8.083805 -5.476774 140.908356
49.960392 -5.829049 104.887283
4.237213 5.435376 118.755333
-43.832825 1.643355 119.178482
-13.494780 -3.217213 132.388763
10.421031 1.858650 153.698090
-0.110162 -13.626966 137.442917
-7.552571 -7.786208 142.331131
5.463276 -11.646002 143.025986
-11.098773 3.136655 125.564697
28.948929 7.070740 133.254440
-0.729954 13.211757 135.513245
51.185287 -2.061014 103.907494
42.583702 -0.124999 118.937950
-26.037056 1.706317 125.501328
-38.720798 5.469624 115.862038
40.921795 -3.461289 112.216110
28.572519 11.707414 125.593048
26.203562 9.624358 131.254440
-36.772232 6.733626 119.144730
-4.838869 10.907791 132.426697
4.047206 13.714884 138.175247
-36.048962 6.698353 125.033882
-32.182594 -0.791920 121.312553
-45.254169 3.342419 109.070099
32.897190 -0.675651 125.486389
-11.870046 -4.527840 142.558945
46.673210 -1.826396 112.872574
-11.764771 -14.224510 135.730911
51.485161 -2.345644 101.335159
-11.742419 10.645420 134.925476
-4.205633 -9.911841 142.381760
14.682043 -1.869755 145.081818
-3.898136 -9.551982 140.456573
19.815996 -0.653164 136.920547
23.910601 7.155933 129.875031
1.533272 14.942532 138.728806
47.196766 -4.693488 111.094650
17.065348 3.371768 150.928528
49.209072 1.789832 118.609802
47.323288 1.742219 114.678612
-15.579635 1.238355 126.579979
-40.905827 -1.421255 118.140877
20.116129 10.631675 144.028198
50.625217 -2.799788 103.560738
-30.427912 1.357869 121.635895
-41.431149 -2.506292 115.261452
-27.881561 2.570156 137.160080
-5.094398 10.828151 131.964966
-12.664085 -0.663392 122.043770
-16.899872 9.544568 141.928070
40.616070 0.481532 121.780647
-34.489731 0.914568 113.978745
-7.619266 -7.335278 142.415512
-4.826959 8.925822 147.816833
-0.717960 12.088943 139.687714
9.016010 6.887221 154.489029
33.063183 4.139242 119.612907
-16.450256 -2.212240 133.396973
12.149905 8.932857 149.662659
-13.685937 2.343260 130.170868
24.188105 -1.114366 133.361862
14.284808 8.906636 138.529953
-7.406238 -11.384503 124.989464
-9.595268 -15.146211 133.609848
12.170567 0.748898 126.266045
10.800468 3.482920 151.813278
16.783377 -5.942770 141.297318
20.000378 4.648425 147.561813
28.272022 10.674876 128.033569
-49.470093 0.048532 102.121071
10.024864 5.373164 121.650223
-1.956821 -10.918957 141.331329
-0.141681 8.973867 158.976303
-42.580540 6.968084 115.179451
-6.473993 -14.019826 140.105225
3.796526 7.036860 122.843521
15.524577 1.245953 145.496704
-7.067769 8.013616 127.202026
-8.621159 9.613996 129.966675
22.234461 12.307450 138.219009
-36.052723 3.036288 115.776497
6.683569 12.195830 138.084702
29.893183 6.751575 132.733902
-54.715176 1.398325 108.113754
39.764702 4.284926 124.904846
15.463158 -4.747221 131.040939
7.859726 12.764422 141.225739
-15.732659 9.789909 133.049835
28.893049 7.752941 137.538513
32.697090 4.187161 132.906097
23.365768 3.780018 130.715485
41.694847 1.511976 110.647652
-37.115173 1.186205 127.232178
11.225953 -7.629089 140.760132
15.092846 7.410549 134.238068
-7.591376 5.911047 153.828415
-46.190723 -4.704978 109.079720
9.721642 0.461700 150.571945
26.916399 8.679612 136.149658
-49.611404 3.330714 105.806625
-37.066776 8.599297 123.310257
-16.481239 -3.039953 148.294388
21.071714 0.859060 130.219513
-44.306667 -2.242594 116.885078
36.593048 5.838902 128.335297
15.512121 1.818579 147.501984
16.493938 -3.172473 140.926361
33.709503 -0.645868 131.168930
29.598007 8.220954 132.606400
14.199818 -4.634470 138.451553
34.258686 7.962855 124.858826
15.714318 8.036413 133.717331
-17.957441 -3.182284 134.326523
5.041420 -9.661572 139.642365
-21.563124 5.619512 149.481979
12.461707 -10.941606 135.210114
-24.866472 0.614590 136.487061
-53.490959 0.768632 108.687614
-50.212826 1.847154 114.078484
13.564946 9.066703 134.859085
-33.087410 1.434116 129.995041
-42.244652 0.304038 113.302429
-18.958723 -0.728330 144.639297
24.897800 7.716249 141.999710
43.200890 -2.214619 113.131012
29.899595 1.493842 123.315849
-40.217140 4.346695 127.302666
8.764118 -10.594071 140.961014
15.986266 -1.601527 126.000221
-5.015114 -12.333961 134.955292
26.549564 4.934177 138.107880
4.895252 12.067515 142.084564
-54.394310 1.238952 110.591095
-5.899578 7.293536 154.411331
2.026677 10.216503 148.461868
25.543154 3.097212 127.390022
22.069689 5.545829 126.259628
13.175694 -4.730369 130.556488
-14.026879 0.153663 128.923676
18.410507 1.932138 150.779572
41.642952 4.669744 113.964630
-6.395751 -5.874719 143.814133
45.239094 -2.717345 114.191437
-0.415155 -12.446801 128.350937
37.526051 7.065222 121.688301
-6.003241 2.311863 152.375412
18.221642 8.630887 146.284058
12.739510 6.245966 152.694946
13.987575 -3.961760 142.198013
1.392909 10.688802 147.191620
-7.906565 12.660349 143.149567
-4.798480 -9.684987 144.630478
-17.201113 -2.838951 145.071747
41.443333 -0.236307 123.056648
6.594476 13.009609 140.745010
2.324258 10.751242 134.261230
3.253199 6.824511 121.227661
31.725420 -1.429346 132.362717
31.976942 -2.638471 121.841019
-25.827679 8.335545 126.693550
11.245339 4.369007 131.722992
-14.737022 0.129367 131.962570
1.055053 -12.168783 139.732758
17.485224 4.361532 133.775970
-45.049175 6.317048 114.894096
-34.801674 1.896840 117.478821
-31.103762 2.126320 120.691956
-45.169323 4.681512 109.517426
-7.474304 11.177727 149.545441
-9.842997 -5.588185 142.994980
-8.666429 3.685077 152.507416
-17.130035 10.615882 141.332626
-44.216793 3.957000 115.562866
-28.427200 8.186357 131.297501
-16.818064 -7.549988 138.215393
-8.045711 11.025933 135.080170
-11.638359 2.901097 148.758209
29.917934 -1.173855 132.858200
28.289497 6.794366 124.253624
-35.320702 -1.416910 121.832703
-14.227690 9.783814 147.112289
-42.706520 5.682345 116.606873
13.287082 -6.125138 139.334335
-24.698166 10.110768 136.412964
-2.585505 -15.189639 132.067429
-13.656828 10.700007 148.689575
-44.880886 0.025795 105.773247
-18.150476 9.219556 137.076279
-44.488266 -0.505251 108.650459
-26.808697 3.194788 125.440788
25.887314 3.598639 140.814148
2.773368 -10.639326 135.506241
56.172451 -4.342923 108.350494
7.730897 -2.019547 151.817444
-50.826195 -6.460724 109.569252
-45.854290 -4.450212 111.342201
0.726895 6.219155 129.433914
-22.495352 1.300165 144.451340
19.767105 -0.729511 132.355331
17.184650 -1.511215 136.955200
-15.808600 -5.002608 132.056168
-23.070036 5.037996 130.674942
-28.693401 2.424901 133.105820
-46.198685 2.144406 104.305634
7.146115 4.079348 155.356247
-12.780181 3.806177 126.158058
22.868855 6.290864 133.359558
-8.831511 4.088379 121.429985
-10.216187 -3.797780 145.475388
14.487679 10.821925 138.706894
-45.506393 5.245442 111.178925
10.403969 8.077266 143.982407
13.282370 -11.018662 135.226120
-32.059906 3.076457 121.073715
-6.078449 7.641620 124.122299
26.071125 4.529395 138.656708
12.871840 -4.657132 125.962715
7.172232 -7.218229 144.094971
30.183340 2.730658 122.163605
12.878860 2.149103 129.197250
-43.347672 3.587040 121.076157
-12.781170 -9.526270 124.295792
-13.799653 10.469748 137.786758
