ply
format ascii 1.0
element vertex 2048
property float x
property float y
property float z
end_header
2.538662 -14.284470 121.363335
10.717341 2.138582 115.800758
-3.896508 -10.725642 137.209305
13.478239 -2.129095 143.356247
-13.180880 -2.679288 117.918137
-2.864810 3.983981 114.752190
8.173840 0.918209 149.077927
-13.528133 -0.091171 124.104736
-11.930276 -10.406138 130.885178
-14.338336 -4.951287 135.426254
-17.797535 -1.064384 137.069168
-12.549187 -7.919928 134.133484
10.286761 -9.050219 122.736694
5.215998 7.697528 122.805847
14.383171 -1.183601 123.716019
11.141361 -5.851014 138.250488
0.201655 9.082356 136.975159
-9.074793 9.565873 132.394043
12.972166 1.700346 133.441742
-6.939501 -0.078783 150.119156
-10.053181 -10.778493 132.042740
-4.590725 9.646797 128.719604
12.005541 -4.211524 114.085411
-12.955015 6.200271 136.077484
-12.012843 8.396262 135.039062
12.233083 -5.708034 120.470917
-6.488661 5.712188 118.224670
-14.931705 5.149408 144.021347
-2.678142 -13.626009 114.153938
-13.482040 -1.863716 129.679749
-9.841299 0.630695 126.922333
-8.697499 -7.324563 141.376724
-10.766434 -6.649615 128.909073
-5.858471 5.209315 123.588951
13.809263 3.008600 132.704559
-2.796609 -15.978829 125.596794
12.985237 4.709110 126.490601
10.055547 -7.640617 113.195580
11.278979 -8.773215 117.438911
6.034353 7.121666 127.041595
9.340534 -7.729001 125.711693
-1.368624 2.641505 114.706169
10.649580 3.184153 146.164185
9.037931 3.725352 125.516876
-0.425101 9.777495 133.427002
9.736480 7.478369 131.765427
-12.762292 8.585687 142.969971
7.706802 8.308949 127.163582
1.946374 -13.428803 129.886795
-0.532826 -9.511613 139.610977
-8.580581 -12.878608 126.883469
12.595326 6.883203 142.984711
-13.985323 0.794861 121.251930
-10.025446 -0.094645 146.060776
-10.547715 -7.501276 139.351334
14.009083 -1.567903 145.341492
-6.167884 6.281179 118.981987
-9.577080 8.950099 130.501663
4.237783 -14.386550 133.235016
4.521608 -6.521330 148.062256
-7.324299 4.259442 120.782173
14.274240 6.774113 143.378571
-1.565361 -13.958611 121.433899
-10.022917 -11.080782 118.876068
-10.092264 4.378621 121.351341
2.008398 -13.045861 111.171516
-6.945056 -3.297968 147.749359
0.920040 5.006244 115.480499
-12.279655 3.198233 147.023758
-15.097724 3.084649 133.397720
12.000376 -2.376938 134.679398
8.269893 4.188096 122.400322
-12.715433 -7.721996 133.119293
-12.275743 6.050929 145.779877
10.143116 4.462409 113.487076
-11.793594 -2.758387 114.233627
18.782444 -4.731709 139.092438
8.446841 4.911325 117.419991
-9.103562 -8.654568 115.506454
-10.747972 -3.061366 116.255959
9.219959 -8.123440 121.968277
0.926632 4.845811 121.932068
-3.321647 10.240907 143.645508
13.828510 5.068677 130.692520
9.744219 8.467845 134.519272
7.776905 -7.488226 142.867767
15.567220 -2.447334 137.218872
13.562429 -4.922560 121.386215
-10.900463 -8.715453 141.980270
3.966327 6.927083 120.792007
8.912526 4.958138 122.670113
-10.750539 -2.981234 113.975937
6.990521 -10.486652 111.480103
-2.458578 -12.065497 113.211212
-7.920674 -11.435806 133.762543
-7.737335 -12.022755 123.119461
-11.956828 2.867885 128.786865
-9.505238 -9.800365 136.606125
10.587109 1.006390 116.834854
-2.936584 -12.776120 125.467476
-14.423191 8.157939 142.664017
-5.543921 9.314714 133.260010
-5.045094 -0.198544 151.119949
14.100384 -2.209067 130.744003
-16.226124 -5.080006 142.109116
-4.342117 -9.340331 141.922836
13.424340 3.564844 146.785385
-7.460144 3.259248 117.349373
-8.635881 10.338075 137.872513
-6.806459 -12.659481 115.711777
10.868867 -9.939252 136.601974
1.476564 -9.381597 146.133865
9.467270 -7.651439 113.268150
-6.080239 10.462158 132.955505
-12.794556 -5.255145 142.329559
-0.585486 5.327516 124.078712
6.549763 5.095788 117.468285
-2.729916 -14.961923 124.323311
-5.489909 -13.364745 124.450768
3.934448 7.434255 147.338562
8.256982 5.634011 124.258133
-4.022836 10.427436 133.733139
-6.801063 -11.111088 113.024277
-3.387520 6.368483 124.548698
-8.916104 9.943140 134.679626
8.493642 4.263408 123.517120
-16.080566 -2.684557 138.224686
-12.396487 7.377338 143.208405
-1.198492 8.529611 123.109451
-14.686427 3.196483 133.817276
13.030088 -7.415157 136.661957
-3.699128 5.980677 122.177940
-3.582722 7.468166 145.652786
-3.714080 -10.138357 141.279541
-3.301507 5.491813 118.568939
-4.144672 4.685972 118.513138
-8.647194 -11.438003 134.745102
4.227865 5.791836 120.773643
13.224709 -0.940732 131.207489
9.174606 -0.646097 145.988815
2.878106 8.487010 124.576843
-1.231017 -14.162169 117.143784
-5.805711 8.538303 133.835052
12.269463 5.576588 145.285599
1.759436 4.643548 115.128181
0.010861 -14.052530 133.434814
13.283462 -10.659806 121.232018
4.604284 -9.370520 142.360687
8.843235 -10.403782 111.626648
1.122125 4.361334 115.560532
-5.897576 8.186597 130.178024
-12.148320 4.423503 123.949776
-13.812870 -4.945771 124.345451
5.795667 8.166456 130.349899
-17.634277 4.763845 145.685623
9.718921 8.169975 132.316940
12.057660 -2.190496 127.982475
-11.459032 -7.213870 117.469841
-9.458999 8.931354 134.530640
-7.361064 -12.240154 128.991959
5.815980 -11.881787 115.208298
-13.892428 -6.088868 114.756912
-7.987612 -3.369550 146.088348
7.496091 -12.434372 134.182510
-10.625812 -9.198243 124.098862
12.460689 4.110750 121.979218
11.462790 3.873855 124.151222
3.765379 -13.084676 116.456062
13.229053 -5.335694 118.967125
11.562615 -7.968849 133.464188
4.286929 -15.321142 119.505234
12.853651 -2.184136 114.331322
0.241960 7.535204 147.986130
13.016285 3.575289 133.288223
-4.327909 3.521557 113.300735
-10.336856 -11.974912 131.921524
4.090521 5.554298 124.355789
7.069851 6.194788 120.172234
9.185409 -11.510030 117.000641
6.304148 0.084213 150.255219
-5.336462 4.812363 148.642807
-2.735414 3.491393 113.559242
12.350776 -1.038609 116.880646
-1.638661 -13.768030 128.348679
10.797686 0.278911 114.975433
-8.724314 -9.797857 133.295166
10.965366 -8.661951 132.490982
13.856093 -3.396809 118.419235
2.541681 -10.205758 138.836349
13.149217 -1.299648 127.305573
-0.721240 8.077933 123.746117
-9.684005 -6.246001 144.024948
12.206964 -6.034657 124.654343
9.488225 -0.932698 116.138885
13.932180 -7.591047 139.583099
13.543824 4.192183 130.207153
-0.170655 -14.053899 127.951591
-1.012631 -11.225079 134.549423
-4.017939 10.085611 140.168015
8.114301 -10.744843 136.640900
-9.672590 4.780003 146.643295
-2.897774 9.846090 132.450378
-5.146399 11.156327 136.885590
-15.939861 5.457951 135.208572
9.711729 -12.295160 124.796265
1.354354 9.855587 127.503448
-10.319860 5.079473 145.949860
11.465398 2.935962 125.541405
-13.851418 -4.184088 141.978165
-12.772531 1.341392 130.715958
-7.421449 4.491191 118.698799
12.424033 -3.488139 130.424774
-10.847073 3.502955 116.139549
6.131138 -0.817176 150.198639
-5.735102 4.489161 112.828102
-15.493051 -0.099437 145.606094
-13.828725 5.090548 135.928818
-6.831017 -10.564748 115.109360
-14.154790 -3.980134 143.104141
-1.677015 -13.599835 122.875084
6.650563 -6.691947 145.156113
-13.193702 -0.454199 115.094826
-8.397815 -8.157840 144.688568
2.363462 -6.129111 148.801285
6.263138 1.716348 147.377045
-14.009438 -4.813541 126.896492
13.660805 -3.655779 122.609612
-7.547350 7.221373 146.506302
2.765496 -11.202492 138.858994
-8.717723 1.576593 121.553642
-5.507143 10.048596 140.636490
8.553803 -7.661867 144.497147
-6.979340 5.264563 117.282730
-8.673842 3.879621 148.592102
-11.512696 -3.029110 115.314484
14.229764 -0.107608 146.289551
-6.208627 -12.584603 116.081062
-5.930696 -1.424293 151.537247
-5.887769 -4.509352 147.798798
8.962376 -9.714607 135.220062
-4.694703 3.757066 112.420868
13.108649 9.099904 142.271667
0.320053 -12.209559 130.988373
11.748591 6.989362 129.650635
11.740668 7.551261 130.512924
10.361002 3.090154 118.285042
14.924703 -2.187108 143.543015
-10.436975 1.575671 114.506241
-9.229030 -8.450704 114.367294
13.577696 9.563675 141.824219
9.333117 -11.203348 115.738083
-10.544675 1.919670 149.173019
-9.951624 -13.724444 117.871666
12.674321 -6.993632 128.329666
0.562737 -11.520734 136.713043
6.678617 5.089379 120.485191
-4.979007 4.800241 122.977226
-0.919263 -12.016191 129.275452
-6.688785 9.344723 129.903351
-5.894330 5.161474 115.086662
-18.335939 -1.262748 137.775574
7.035203 4.711784 123.956047
10.736025 -3.704050 113.810997
-11.090900 3.775383 120.545250
-7.535686 -12.166368 126.832855
7.909709 6.285980 126.071762
14.753328 2.550281 126.542206
-5.800760 11.537373 139.331375
-1.637999 3.952015 117.905922
0.471189 7.262148 147.056534
-2.380959 -14.341919 123.267441
11.180088 0.361388 125.729141
11.895973 -7.136439 112.938591
-2.451656 4.339455 114.671455
-8.415404 5.736315 124.735832
11.462833 -1.691632 112.496552
-6.630818 3.661277 118.799416
-12.939787 -8.768752 124.184433
-1.098801 -15.381120 126.238136
-3.854045 -8.884816 143.082199
-12.173554 6.518076 131.301666
-8.237494 7.886436 138.981155
16.517719 -3.134940 136.885666
-10.915686 1.054022 115.133179
-11.989498 -5.542575 119.485291
-12.138134 -6.355576 130.794052
-5.288185 -14.819059 126.227310
-14.923681 2.552911 123.728447
8.130604 10.945940 139.775330
9.090425 8.882387 144.033401
-0.951304 7.305284 116.755745
-6.848602 5.083748 118.774704
-11.230145 -0.214469 114.348869
-9.898317 8.986172 141.165909
-12.225422 -3.606256 142.911407
-3.535335 7.630810 147.952698
-4.638686 9.429070 141.656738
-2.475756 8.497468 132.006927
-11.963672 5.902308 127.391991
9.479020 -11.473438 120.512253
-8.068797 -10.557142 135.248856
16.555843 7.113897 138.253738
2.863523 4.486651 124.356697
12.027433 -5.317466 144.828537
-10.103543 -6.680144 112.759247
-11.551908 0.218798 123.783829
14.324602 -1.657532 120.349113
11.033549 -9.059466 121.388191
-4.529410 -12.630630 128.649963
-3.455746 -9.144645 142.128250
-2.412541 8.107630 145.095230
14.882330 -7.054807 120.114372
12.599625 -8.331429 121.600693
-10.582214 -0.328838 112.149590
8.353023 -11.092179 135.135452
13.492776 -1.063466 120.871178
-13.475463 7.106192 143.242447
9.733943 2.054276 116.763733
-11.019746 7.701985 137.543411
13.687549 -4.842474 136.993332
2.495825 7.938087 130.240570
-6.506204 -12.093915 136.044556
-11.864615 4.255935 113.786240
-4.546281 -14.056454 134.349655
-10.180210 4.666464 125.792427
-8.464844 -11.738561 116.763268
-3.626577 4.679307 150.059204
-12.168034 -7.821017 122.393234
10.292630 8.297484 143.820267
-0.059137 9.173128 133.400452
9.703205 9.522422 141.166580
-10.819754 0.913441 115.538239
7.414215 -11.120858 115.800308
1.526488 -10.369967 138.563751
-10.031778 -4.108713 145.609131
13.066918 -1.300118 130.345779
-5.975518 -7.920587 144.269241
12.080609 -3.796266 113.854691
5.457786 -7.271766 142.714661
-12.338440 -5.565210 116.424408
-4.232715 11.027877 139.431305
5.620515 3.360288 149.049713
4.849336 4.984390 147.545425
-11.810537 -11.297200 130.349670
11.712001 10.011885 141.674866
2.429645 6.223054 150.600311
16.438189 -1.838838 136.648712
-14.550913 -4.185436 134.023865
-11.470655 2.816214 128.403198
11.256199 -4.763086 146.200287
3.962750 10.144795 145.208328
-11.828909 -3.277640 127.089668
5.546852 4.491796 114.003387
-11.546314 7.100219 144.239029
8.798635 -14.315662 123.905190
5.099596 -12.162724 130.869751
-12.136510 3.890518 124.762924
-6.638080 8.107633 130.364059
6.917958 4.812230 113.437309
8.047686 -10.388198 111.641716
-1.145170 -12.952639 132.537949
-9.600084 -8.651213 140.994858
8.025621 -13.503534 125.663757
-2.704603 -12.854241 133.556290
11.887058 -0.114699 122.714485
-4.577726 8.485944 141.776352
-8.466411 -8.335037 144.768707
6.723351 6.647525 120.111778
-11.154417 -0.740757 120.202042
-12.681356 10.038713 135.251862
16.458803 -4.324019 141.617050
7.883773 9.540753 140.581009
5.925577 -8.481603 141.122559
-5.282105 5.383499 147.963120
-6.603474 3.389499 120.709282
5.804776 -7.963651 143.568863
-7.212570 -13.208481 126.361519
-6.827025 4.513762 114.617653
-9.999143 -10.797192 134.834549
-7.565212 -12.575540 125.714569
13.374005 -4.987518 129.775894
-4.186398 8.700736 132.454681
-5.958348 -11.374987 115.732018
-14.715412 7.155093 136.775452
-8.594585 3.755632 113.779991
11.202565 -6.171196 119.213211
5.622813 -15.112423 117.344002
3.146565 2.954305 112.821548
-0.593922 -15.214350 116.733505
-10.618059 -9.159184 115.876213
7.358079 -11.561571 121.318329
1.956411 9.565331 132.177917
7.833527 6.245139 123.779953
-5.477334 0.860662 151.899963
11.124522 6.180410 126.499588
6.526396 -13.019426 131.010559
13.225140 2.560836 132.680161
-6.434644 -10.362579 114.693100
-13.491148 -3.411093 133.384674
-11.986390 -7.606021 122.538353
5.479971 -4.253226 151.207138
-17.100452 5.386125 136.792389
-2.464353 -13.398520 133.761765
-4.528590 6.447685 119.977592
-12.053994 -8.208160 136.054459
11.911178 -3.355716 146.146530
0.509659 -8.356675 144.672394
10.927584 6.641988 130.548340
12.395087 0.190725 114.639297
2.699442 6.198017 124.382088
-4.316751 -10.468198 138.864746
9.938603 -7.871885 140.061813
-11.861320 1.893515 125.382713
-10.213649 -9.099324 112.983727
-7.342644 -11.814116 119.056549
1.682500 -16.415634 116.726692
-11.411890 2.189198 114.243179
-13.175096 2.249867 132.054001
-15.929328 -3.775937 136.835861
12.397039 -4.320857 119.679253
-15.597277 5.633479 137.032104
-6.960013 -13.209253 116.133362
-0.727422 -13.130475 133.549744
1.365307 6.601174 152.392990
-1.306625 7.715705 133.219299
12.794443 1.434871 130.366837
-13.373143 -2.945406 121.324356
7.413785 -10.401706 112.675430
-0.069952 -12.962453 111.598068
12.567319 5.605123 130.771545
-0.135098 6.679570 115.166229
-8.580869 -8.643353 114.771935
13.457547 -7.872170 141.893860
-12.653483 5.191263 127.083260
-2.739735 4.960948 115.619026
-2.521231 9.833262 135.687973
6.735300 5.537509 123.048744
-8.450670 -8.902867 140.007584
-8.453156 -8.109445 145.053406
-10.907604 -8.153017 117.801628
13.988338 3.945533 145.982315
-0.608009 -15.004811 120.507751
-11.932390 3.500415 125.655647
-5.839492 -13.024185 129.142944
6.985385 -11.058127 125.467300
-9.549170 -9.695798 121.543434
12.632496 9.789773 140.624603
11.309420 -2.952549 144.431259
0.629507 -14.295354 130.830124
13.424842 -2.719016 133.321198
-5.548167 4.365637 116.713646
-4.520293 -8.107032 143.756332
0.168522 -14.930032 123.047028
-8.610259 3.106828 147.077423
3.084949 -13.160009 127.550636
-2.759114 5.933307 148.276703
-12.499365 -2.581784 144.115784
2.361736 -12.636554 133.301102
5.780965 -6.769748 146.961517
13.409255 -5.372444 134.402374
3.444696 5.223577 122.503395
17.702545 -3.039758 137.703751
-15.091222 -0.892421 145.188477
-0.719086 4.613069 150.846069
2.600863 9.105470 132.244965
-9.666430 -6.816833 113.403709
-7.241749 10.992082 139.218094
16.792570 -2.471393 144.472519
13.791838 -4.094645 138.035812
14.945110 -5.800103 138.691330
14.833561 -5.586727 142.423065
-7.077685 -14.515018 118.892403
6.511964 -1.536198 148.303146
14.881430 -0.889235 145.483475
-11.625349 -5.426832 123.945587
-0.505664 6.251077 115.956276
-7.456375 5.462651 121.647362
0.594848 4.103085 113.323959
-13.141101 -6.087395 128.601227
-3.769024 -7.682607 144.368790
-12.028523 -7.725234 129.196945
-5.622880 -7.898384 141.094330
2.051655 -14.907990 123.466919
-12.663454 0.293807 147.280045
-11.087428 -0.792783 114.450684
-2.635958 9.187980 139.443405
-8.314137 8.466270 132.568939
17.117868 5.269094 140.992294
-9.353389 -9.462404 140.213150
2.983837 -10.846425 139.368118
-12.876884 3.425207 125.255737
5.613096 4.006324 148.078140
-4.882785 2.431480 148.809433
-6.915010 9.591977 134.896515
10.495934 -9.822962 130.931519
10.532419 8.842035 133.234512
17.452303 0.972501 135.071579
-15.555766 1.155379 135.791321
-11.030090 6.700107 130.960434
-0.791125 7.700106 146.560440
-9.231570 -12.216131 120.803207
-7.925763 8.797679 144.884857
-3.442735 4.947496 117.447296
-12.918259 -0.950896 122.235039
16.325014 8.692877 141.458679
11.737417 0.661655 129.832047
11.905200 2.556029 129.541504
12.310287 7.647330 133.350220
4.312049 -12.128574 115.136864
4.547623 11.166683 132.359161
4.513103 3.371229 118.354675
-5.917307 -0.929875 148.311859
11.318029 8.830762 144.191544
7.487020 -9.972217 139.160782
10.805789 -1.737325 146.298782
15.729849 7.393398 138.125473
5.585139 7.321119 126.765373
9.520594 -13.181703 131.085190
4.538693 4.731416 113.420792
-9.515226 9.018061 137.725281
10.200849 -0.984589 114.470123
-4.708946 5.199818 120.429276
9.312910 -8.045097 138.540436
2.041792 7.235709 150.665054
-12.876262 -2.537778 131.699753
14.490259 -2.502204 115.852386
7.676119 -13.062814 134.227005
-1.357646 -14.007270 134.157227
-14.008076 4.229031 143.447601
-12.936348 -1.282040 117.607536
-13.792217 -7.207773 139.300568
-1.745425 -12.679123 112.835510
-5.998767 9.393535 139.314270
9.329268 -3.335052 144.578705
11.854013 -4.644637 121.079041
-5.788671 -2.335822 147.381805
-12.811425 4.023221 126.911331
-14.195230 6.859619 134.859787
-9.513696 3.590450 116.677582
-10.290028 -0.670296 115.925987
6.513320 3.385373 147.978500
-14.827682 2.385124 129.886124
9.919356 0.316136 113.988945
11.752754 -3.369219 118.332390
-13.262486 9.984254 138.140686
4.621242 3.200708 119.508781
-14.391309 -3.297342 136.894577
1.151915 -15.633127 122.665886
5.521791 10.400800 141.874222
-2.725770 10.392040 129.018707
14.094232 5.667926 135.590668
-12.642884 -3.163627 115.888657
14.643102 5.814882 144.965637
7.188592 3.697368 113.900063
7.100044 5.673222 114.677719
5.736315 9.025538 131.081345
3.921905 6.840648 125.235352
15.563749 1.746394 135.026154
-15.904088 -0.579596 135.909256
10.391084 2.534177 118.721405
0.238894 9.138102 142.905670
-11.214317 -3.418469 112.800819
-8.741964 -5.794133 145.031555
-5.144346 -3.533065 149.936569
5.894419 -11.680851 135.156937
-2.192401 5.532203 115.247559
8.637506 -8.783004 112.668266
-4.414694 -14.624206 132.393967
11.449080 1.923472 115.968849
8.101157 3.759420 145.787918
14.650831 7.051469 143.286728
5.820026 -11.758533 112.881989
-11.231146 -5.778331 115.468277
-5.467174 5.154896 150.827759
-9.535398 8.776334 135.446594
0.941625 -16.108404 127.403671
8.288423 -7.749646 140.354980
0.547404 -15.592648 119.172791
-0.061519 -15.043879 127.834724
10.673388 -6.962002 143.935425
16.120087 4.819460 135.439331
8.050310 -12.120373 129.036026
9.280828 -8.784029 127.496284
12.250532 2.078572 129.023041
-0.806402 -11.859536 134.919861
2.262185 -14.428311 130.637009
-10.699072 -10.557152 127.827271
1.483573 3.586498 112.278236
-12.271897 -4.932333 141.187012
11.579745 -8.110368 138.735947
-12.564991 -7.940665 135.933319
-4.137356 3.167348 116.795212
12.861732 -2.291647 123.444992
-6.630405 6.003530 123.100052
-2.772835 10.228645 127.051910
11.017887 -5.769962 115.084251
6.819410 -7.539596 140.647568
12.083401 3.949650 130.012772
10.797115 6.020870 132.667648
-5.776780 -6.203815 143.906586
-13.956179 -4.238419 143.389175
0.710757 11.519143 132.838699
5.444225 2.799287 112.351425
7.061797 -10.524360 112.238525
-4.726142 5.097777 151.017136
-17.006420 -0.721863 136.702667
6.551188 -11.741261 134.448013
-6.385149 6.610014 125.816666
4.877588 -13.469342 130.091507
2.876868 -9.273663 139.383987
-10.190102 0.361063 111.743675
-13.098728 5.854937 131.021835
-13.510642 -0.279649 126.457817
12.992093 -5.909695 140.183304
13.362073 -7.030055 116.336121
8.751159 10.370662 141.692429
6.830462 -14.795056 129.301682
-5.921114 -8.034523 140.981415
-7.779734 8.089398 132.173828
12.399389 0.579549 113.887611
11.967657 8.224834 141.549911
5.430581 9.696056 138.590363
-3.189989 6.051056 115.604240
-9.485893 -12.619385 133.709595
16.505941 -2.197061 145.002197
13.907397 0.513451 126.501259
11.972900 2.199553 117.810089
11.705865 -0.739624 145.855179
-9.764253 -3.199457 115.243111
8.278139 4.628860 146.574219
-7.524037 4.398317 147.177368
11.137917 -7.559793 127.375992
9.895614 -10.062835 132.485733
-9.568044 9.792670 136.811447
-5.109826 8.023262 146.614487
-12.528681 10.022300 139.491730
5.550130 -1.591311 148.523315
-0.930825 -12.464753 116.016273
-10.502415 5.422698 145.728973
-0.713397 -15.131433 130.104797
9.749002 8.363503 134.471222
-8.405985 6.538241 123.416298
-11.857101 6.421183 130.838181
-2.482025 3.675820 114.099289
13.221500 -6.393567 126.301079
9.477391 -11.367411 121.396851
-13.674644 5.819933 130.539062
19.452055 -2.876343 139.187088
-5.292115 6.537946 120.777779
14.081163 -5.848100 134.546936
-11.576994 2.923044 147.173843
10.580518 -1.839169 120.795502
15.765794 1.584988 136.182953
8.487656 8.512137 132.717270
-11.749892 -6.039413 132.731262
-12.417213 9.728047 139.269257
0.382224 6.107008 151.449417
7.207678 4.408417 123.123245
13.340509 9.742994 136.990448
-7.533903 4.915022 115.067307
-9.811324 -7.498965 115.312408
-2.892663 -11.569325 137.675705
-13.587104 -4.637610 119.114449
-11.690312 0.872576 129.495346
-12.025549 -6.449671 112.154404
-4.191699 -13.745975 123.621086
5.835098 5.842424 113.306023
6.758660 -3.932547 147.978165
-0.180808 10.421732 131.667221
6.114746 -11.672033 134.191513
-12.491463 -3.240883 127.560249
4.321740 2.755547 151.490417
1.025975 2.285109 119.355637
2.994610 -13.560656 117.717865
3.629475 -12.476758 116.199463
12.601588 -5.387999 131.110062
2.714069 -15.788996 128.259430
-9.562358 -3.835845 146.357803
-10.374760 -9.512210 128.707199
-7.545067 -10.401157 138.927109
9.753964 9.349349 141.003998
12.523647 -6.768679 140.002899
5.333054 -10.648609 126.686150
7.658767 11.395182 141.025528
-13.006210 -7.103996 134.692154
15.054552 -4.221322 140.050888
13.586202 -5.809016 126.629974
13.562546 -1.157200 145.975555
-6.603984 -14.204182 129.855820
-9.721263 -6.960645 138.486740
11.940282 -10.147989 125.947807
-10.245725 8.396555 141.917877
15.428053 -4.861740 138.606445
-13.932799 -0.728540 133.337616
5.227626 0.091332 150.025604
14.239203 -4.983569 123.531586
14.460192 -2.700886 116.779404
-12.076090 0.485429 123.040436
10.299982 8.622792 142.511276
2.206694 5.870624 117.919075
-3.598417 8.454600 131.266205
11.184322 6.948204 142.995010
9.833529 8.824167 133.594925
-5.123524 6.187218 148.414886
5.572876 1.397780 149.255539
-12.285592 -5.719448 139.385254
17.818583 -0.563612 136.393005
-16.075367 2.556337 135.162231
-10.133455 0.552816 146.009674
4.420675 4.523703 111.672867
11.922025 -9.464869 121.979485
6.319860 -14.744035 117.436203
8.608295 5.787184 125.946625
10.203197 -3.762650 146.147141
14.575453 -2.059405 116.138229
-6.743142 0.127414 151.044006
-7.982931 -12.126638 132.494324
1.989136 -11.193193 141.502899
-7.695559 -11.823281 138.484741
-10.331647 -8.665359 135.585434
-5.460943 -2.851034 151.597809
9.546961 4.816395 145.600555
-10.206830 -8.161424 118.576950
-7.947407 -13.806972 131.079010
-5.699522 -13.736959 128.899216
-2.895139 -8.767828 143.255051
10.334756 -9.604332 129.742203
-8.112031 -9.004618 144.139908
-3.359596 -10.794796 133.257614
-7.847946 4.505961 147.830200
13.381430 9.641919 134.111053
1.031312 6.996532 125.302528
-14.871633 -0.772038 124.890907
14.791873 6.085356 134.541504
3.481838 6.980000 115.976433
6.316764 1.604701 147.272614
-2.737507 3.522787 117.149223
-5.434883 7.143677 145.691544
9.060940 -7.074100 137.019547
9.702589 4.878747 144.953262
13.288682 5.740110 146.459869
-8.722304 11.297351 139.897598
1.281437 2.706161 115.417923
-4.791870 10.433698 138.927780
-5.594731 -10.790728 114.995316
11.776402 7.503346 131.038177
-11.145174 -1.893102 118.777657
14.781679 3.321875 134.326355
-7.301559 10.503601 133.586853
1.058686 2.752440 113.141914
5.140659 -6.610786 144.652008
10.907922 3.320919 145.671936
-0.482894 3.625942 114.981094
5.764591 -2.701235 148.074432
-4.442444 -14.994365 124.842949
15.923443 -4.488519 142.194321
5.647399 -10.776701 134.271851
-12.735516 -3.059971 137.138687
1.948947 9.229278 139.674332
11.524022 -7.907265 119.174515
-12.840204 8.369561 134.775360
6.085597 -7.508629 144.906418
1.929373 -13.333158 115.702194
-12.321354 -1.672248 117.336411
-14.932969 -3.230477 135.860001
8.151738 -4.940355 145.513458
15.302617 -2.883810 135.378357
-2.133109 -8.057458 137.799072
9.696549 -10.651896 120.746399
5.292197 5.009867 114.184708
13.529407 5.497435 134.024445
9.997639 -12.493374 122.799355
-5.640378 2.375312 151.240784
0.213831 -15.320580 119.250832
11.186142 8.894997 141.658279
-5.892575 3.969134 121.767883
-1.628410 6.656118 147.807968
16.597160 -2.988390 144.822586
16.126146 3.849516 134.529266
8.095122 -10.825711 136.169754
15.696672 5.493630 144.348373
-13.703351 6.765927 138.185150
-12.178728 2.495801 116.435776
10.259012 3.003596 122.884354
15.255100 -7.164503 117.260452
-15.774089 0.480800 145.814468
4.290697 -14.253791 132.527130
-13.573132 -4.007665 120.210297
3.315278 -9.993214 140.839706
10.819118 4.438849 120.038437
-12.237687 -7.171918 136.599503
0.945311 5.936582 149.214722
-1.167761 5.360126 121.071320
-15.223614 7.428460 138.457092
-6.375548 9.429364 134.258759
12.971453 2.619738 126.192459
2.632660 7.396093 121.818497
10.859635 2.039974 125.491158
2.566394 -14.909396 118.013374
10.288898 -12.504902 123.016602
-1.362899 5.766339 149.340591
5.937102 -7.413210 142.004532
12.941873 1.780192 131.427399
-0.680522 11.642201 138.108673
15.125607 -3.257852 143.273636
-9.540361 -3.207623 145.649277
-5.967796 -12.886643 131.323868
-4.995697 5.189601 120.436623
5.321792 9.291549 142.768585
14.488748 1.991349 135.242752
12.213428 1.691160 115.981415
-11.171309 -4.970077 114.898499
16.081049 6.374804 136.690659
7.694351 -6.382892 146.044662
1.327085 3.173135 117.804626
-3.695104 -14.635448 126.917671
10.586099 -6.416622 123.617462
-6.832132 3.189625 113.546028
-14.403948 -4.619348 134.670212
14.202435 -5.482150 133.007675
12.913617 9.300657 140.376450
10.866988 7.871807 130.256622
12.338945 4.136400 126.064484
-10.444171 -2.646585 120.598709
-6.077622 5.590003 115.763260
-4.298051 6.090858 113.642853
-11.650578 1.473513 122.847656
-12.013626 8.486430 138.099625
3.729838 5.339278 151.600540
10.084463 -8.583948 111.680534
-13.048120 -5.858015 137.668961
-10.830679 5.106368 145.637527
16.458294 -5.216262 140.877396
-5.843732 -14.433402 130.676956
-0.570992 -14.789346 118.390564
12.160894 -8.217121 122.027611
-11.597578 -3.613550 124.387421
-12.498936 9.847457 136.798462
0.314462 8.239687 144.918564
5.232747 -0.460069 149.299576
12.969533 9.973081 137.321747
-1.575369 6.644189 114.333290
2.415325 9.370449 144.947571
6.266605 4.617308 120.901772
-12.144371 -7.458316 135.715897
6.512178 -11.252221 136.851257
14.161207 -6.944001 138.500198
-2.836528 -10.371745 139.284927
-1.094481 7.827012 133.388199
-10.693610 -1.210434 112.322304
-9.533109 -2.516556 145.576721
4.839778 9.962521 135.073212
11.490059 7.864769 143.105820
-13.190761 -0.181215 115.194038
-12.162965 6.454065 146.106857
1.964130 11.295334 131.247650
-15.372161 8.936195 134.542282
-11.307272 -8.291094 139.088608
-0.595185 7.456208 146.321854
-5.528458 -16.183756 130.555313
3.650207 4.417308 152.444504
13.832289 6.373152 143.553940
5.301416 -6.343000 147.259384
-4.650318 4.660112 152.238358
9.690533 -10.796805 122.164436
-2.992907 5.590067 151.775024
11.113865 3.629430 145.712082
11.612086 -9.694344 122.343498
8.357425 -13.280711 118.376907
11.292454 5.980680 129.217163
-15.256942 -4.919576 143.295532
-11.093290 -1.029002 129.817352
-5.035311 4.828712 114.651299
-2.120188 10.931347 132.280289
11.795296 -8.258776 138.536285
-12.669010 0.057462 131.830597
-13.181017 2.577868 123.991714
10.091293 0.492052 122.099808
-11.404837 -1.796720 123.146736
-13.159399 2.563466 133.413422
-14.495885 -2.326877 137.229233
13.421124 0.412034 126.866325
-14.517639 -1.316710 135.357452
-14.520137 -3.135502 144.863190
5.315919 -12.535731 116.060837
-6.362519 7.036684 125.779808
-10.493072 0.831083 115.841515
10.189878 -10.594257 134.514709
-17.137880 8.317204 138.231262
-7.539085 2.580173 115.404076
9.220005 -6.857846 145.220428
13.959703 -4.693095 121.659096
12.183109 9.517691 142.624634
-12.787683 -7.548542 119.001694
0.397876 -12.212104 135.296509
-8.463437 -12.901436 116.206276
-9.754249 -0.546836 118.691147
-7.118215 -11.259606 135.516876
-3.548279 5.802324 114.915421
-5.711858 2.810122 114.915665
0.890412 5.978118 120.594002
7.077072 -4.793705 147.523773
-8.245745 10.624284 140.507324
-16.376625 3.677166 135.187546
11.296081 -3.108087 111.048119
-0.627940 4.443289 115.078018
-7.183830 -10.235760 136.645767
11.793873 -6.223598 114.594994
4.271911 6.470381 115.364586
-4.655081 6.924197 144.324509
-6.020224 4.246356 115.061142
10.489370 -10.082785 114.891808
-12.464507 -4.853849 141.431549
-6.519653 7.837234 129.977127
9.839806 -9.866777 135.722733
7.931218 -3.293766 146.557755
-5.205852 -11.641804 115.812973
7.875808 0.144049 147.290405
-12.382493 -2.038223 114.888092
7.230816 7.120584 128.270798
8.995361 3.520050 118.633690
5.450332 -2.627734 150.014114
-13.016697 -3.364799 117.754135
0.914755 -12.905780 133.592300
9.686179 6.684157 129.665268
-10.453112 3.378263 129.240540
-11.613787 -3.772076 145.146301
10.003750 3.102215 115.556419
-8.542155 -12.541059 126.759857
-6.224049 2.185861 116.370216
-11.328479 -2.730416 114.356552
-8.912924 -9.671816 140.458664
-12.867494 -6.461891 128.923035
-15.025846 0.605265 136.231628
-8.805019 -10.822376 133.839142
-12.910778 0.047351 121.656570
-9.684953 -7.098377 115.822250
14.029981 -6.047869 125.088333
3.186373 -11.030222 133.835114
3.674794 -10.666294 140.149796
12.238672 3.800859 127.035782
-13.962022 7.523398 143.372253
-11.771173 -2.516729 130.688721
-14.499258 -0.889008 146.055313
4.944543 -14.647079 131.558609
10.691070 6.069002 127.811684
-0.816380 -12.688696 131.432343
12.553305 -6.654326 116.201141
-6.714536 -13.615260 125.256645
2.628248 10.637272 133.975021
-12.890102 -4.605834 143.817963
-5.052302 6.888577 146.621185
11.591440 -4.592775 145.766479
-13.288985 4.981556 135.181717
10.540023 -9.736772 132.978348
-6.581304 3.133780 147.095688
4.700285 -12.089883 112.745491
-12.877738 -9.226540 134.830322
7.008922 -11.542347 116.025192
-12.250862 5.796878 130.270248
-7.654906 -9.960020 119.977974
-3.387504 -9.691525 140.599442
-4.628231 2.358354 150.459061
10.464651 -9.010895 119.194008
-10.207827 -8.328324 115.881065
-8.742458 -10.125525 116.906242
-10.378983 -8.172389 139.217621
13.763538 8.212007 141.935577
5.695505 -15.166964 126.334778
10.672754 -2.642205 119.915764
0.637844 -13.253870 114.479034
-10.323044 -5.766771 112.656868
3.855230 5.089272 124.940620
11.901025 -0.136385 113.646065
13.849104 -1.575180 122.750450
-6.004898 -9.734863 115.155869
-3.391097 4.777074 115.599709
-15.730249 -1.477027 146.959824
-10.202606 -1.647624 146.017303
-1.677834 5.150186 113.731087
-7.662966 5.333224 121.818924
5.055389 -2.039811 151.904602
3.091137 4.221970 114.885490
12.375822 -2.333062 113.352272
6.948158 -5.967589 145.721069
7.523869 -12.660165 125.962952
-12.612873 -7.434906 117.292900
5.348440 10.725463 141.789246
5.135906 -7.225148 146.018372
-13.011732 -5.749110 132.652969
-11.880488 2.284148 129.897858
5.502607 -11.064848 113.846985
13.273067 -1.006044 127.970863
-9.962877 -2.628239 113.833786
-5.347032 6.912697 116.989098
9.747833 -8.610060 136.585312
-8.742767 -9.243952 142.773911
0.657252 -14.881182 127.633064
10.283660 -12.164938 123.106720
9.142337 2.295622 118.954895
4.001106 5.105468 123.016815
1.999740 8.730833 144.375244
8.163210 8.900693 133.332870
10.314208 8.353805 144.460220
12.874009 10.013287 135.552246
12.196158 5.064246 126.663918
11.279222 3.798372 127.974274
-11.667418 7.036389 143.503021
11.223023 3.308155 119.954262
-13.208717 -5.206357 118.384018
3.379389 7.024799 145.228210
-1.186881 -15.670866 121.026260
-0.535125 6.422163 152.567047
-1.138739 9.388771 141.639145
7.469311 5.846949 145.280350
10.315213 0.527498 111.575897
-6.888651 9.469980 140.813126
-1.996142 8.984530 144.729233
13.432526 -10.221465 118.745697
-4.489194 -14.396643 129.917542
-2.243537 -7.542016 147.493866
-1.383031 -15.736948 125.304825
-5.967878 8.053473 130.605667
13.464390 -2.551617 117.201080
-13.172188 5.090626 129.322021
-9.728394 -3.903544 115.614075
-12.538374 0.035630 146.663055
-12.406700 -5.567513 122.444557
-10.483243 -2.697879 115.314087
-6.972456 5.195447 119.811676
-0.326782 9.096143 140.735794
4.626429 2.543479 115.023079
5.562335 -6.882792 146.869873
3.244156 7.527913 126.588501
12.236021 -10.374177 115.804810
-4.521648 11.473288 135.942261
13.500157 2.704564 130.351501
-10.040035 7.339993 128.986649
1.910500 -6.933910 146.119293
15.404687 6.130741 136.713776
1.946997 8.518266 141.682175
-15.354013 0.440517 134.638702
-2.670709 -10.322870 141.354843
0.844093 -11.201519 136.536224
8.255688 3.861269 117.371895
4.915141 -6.540532 144.659866
-7.132366 5.309691 114.664925
-10.246969 -11.503646 123.623146
13.085434 2.588971 146.881805
5.407865 -3.633870 148.451538
-11.856611 -5.056109 132.623474
-10.421358 9.022321 137.735489
-4.779324 -11.186637 137.350037
-3.069068 5.893772 146.819687
-10.235830 -7.884509 142.028793
-9.397108 -8.307079 141.141846
-15.776508 5.584244 145.088165
-12.896440 -4.915034 129.259628
-13.845453 -4.175907 133.291428
-14.821123 -3.872372 145.238937
7.128751 6.896584 124.086464
9.350798 2.219477 145.906067
5.017423 6.570463 120.903954
-10.554358 -10.871122 126.184555
-2.007255 -8.767818 143.359329
14.778775 -4.833799 138.357025
-15.759357 2.118664 134.861389
6.996593 5.739163 116.910400
1.413439 9.627239 143.045395
-4.069877 -11.215676 134.785965
9.079053 4.885919 146.730881
9.207959 3.148975 114.988266
-4.581637 -8.915423 144.211823
-10.352362 -4.487656 112.991486
6.713162 -12.840500 132.617264
7.458226 -12.674022 126.484344
11.648149 4.489552 116.677048
-15.341987 -6.589944 139.019852
-7.657436 -6.820083 144.125015
-13.431952 2.161115 132.933319
-15.357433 0.231036 135.365356
15.593357 0.917627 145.582062
-4.271126 5.422000 121.642296
5.818766 8.290389 142.859344
6.817761 10.004477 135.081650
-12.176621 3.167196 119.926750
13.858514 -1.477697 132.598740
-13.682710 -6.310781 136.947510
-15.728410 -4.207328 141.509048
-1.305530 -15.166513 129.092834
1.485123 -11.834210 138.001907
7.089762 -11.943250 134.610367
-11.494022 -2.858573 145.812744
15.422459 -2.796933 143.981033
14.259112 6.825952 138.795975
-3.215591 6.825919 118.855530
12.401009 -4.236496 129.405228
-9.730965 -8.302106 125.150650
-11.377229 -3.860258 113.274399
-8.933537 6.117683 127.980881
4.759390 4.009607 114.578369
-1.574339 6.301127 116.597855
-13.695832 -2.924757 128.483398
-3.913092 7.835679 126.333023
16.186905 7.578112 136.482162
-10.906717 -12.554894 126.892929
-12.937127 -7.830791 140.744370
-10.708146 2.904359 126.459137
6.193424 3.414958 149.433502
-7.490519 3.494529 146.524200
10.119126 5.013680 121.078659
0.176734 8.973045 127.112785
6.706721 8.728171 142.406342
12.128655 0.194120 146.695679
11.288415 1.100935 114.203979
-0.047182 -15.085878 123.034775
3.947232 -2.507556 149.338394
-6.880052 7.505371 126.514702
5.870735 3.627311 113.478889
-0.734016 -15.069401 120.471802
-0.289017 9.967558 145.175537
3.398179 -13.846148 131.473297
0.830478 10.380011 136.913300
6.162795 9.045204 131.156616
0.614019 -15.894770 121.819412
7.324662 -12.882593 119.025040
-15.048187 -5.373060 140.988907
-14.604616 -4.063001 127.977974
5.409191 4.393964 147.933136
-13.155951 -4.939579 129.870392
-1.065007 5.112586 150.231430
11.545560 -6.290143 131.108810
14.208723 7.931623 136.068481
-9.919051 -9.998703 121.707840
7.318521 7.295412 128.657990
12.958795 -4.138707 113.761047
9.272063 6.631413 126.469597
11.091053 -2.529122 116.960861
11.272435 -9.249210 121.213875
10.771322 -8.883625 133.030548
9.466407 9.763793 137.848038
-11.584835 -2.192491 114.033485
7.350825 -9.149151 137.197357
-11.248201 2.720462 121.575394
7.821144 6.159407 127.428421
-5.396093 6.594244 125.315430
-2.215718 8.031433 124.957932
13.964772 1.367348 129.530350
-1.983724 -11.702551 110.739174
8.889703 -9.438912 112.013733
6.251608 -12.792374 124.551575
-6.182158 0.947772 151.071777
7.266438 -9.748549 135.388412
-13.888083 -5.091940 142.532028
-5.947579 -10.454005 112.486290
1.658813 5.648108 146.384933
-10.847666 6.860617 130.693787
12.359051 -11.366727 129.819839
3.050858 -12.457748 111.981560
2.818034 -15.702195 125.240906
-17.129881 4.202928 146.112839
0.308582 -14.054643 116.006287
-5.322466 -16.382885 124.114334
-5.871199 8.835187 134.528625
-9.309114 -6.065662 140.798187
-2.056056 -9.346084 144.926559
15.490306 2.552721 145.422226
-2.192322 -16.108116 124.287537
9.875181 -8.420070 137.323410
-0.932207 -12.514598 115.431641
-5.681148 -13.643636 129.928101
-6.713694 3.523582 115.285156
-1.707236 7.726493 127.060036
-10.899508 -10.490911 117.052696
-7.312393 -9.856962 117.300507
8.769203 8.257947 145.987595
-8.423095 4.296326 121.386353
-2.693687 7.681448 147.235153
-12.523493 -5.293952 131.785919
-1.799206 -12.919726 129.173111
-8.098945 9.622146 132.160828
8.419646 8.576586 130.491837
-10.835228 5.690114 132.515427
1.591008 4.058748 116.510437
14.759460 -4.413833 139.045700
-5.664704 -12.753361 129.809372
-11.923859 -5.165542 144.732895
-11.538273 -3.172430 131.766190
-4.453589 -13.068236 127.715515
5.183591 5.183429 117.881424
-7.403965 6.723155 127.945404
-13.474922 -8.670010 119.242714
-11.346301 -6.131751 123.566643
-9.622582 8.769129 138.735443
-12.516839 9.696910 138.061066
-2.641867 -9.568865 143.501144
9.870524 5.549385 125.244675
14.130986 -4.811933 123.206299
2.885887 9.959837 129.095703
-3.187129 -8.016704 141.684814
-8.435241 2.005073 111.851868
8.325491 -11.640244 120.605957
15.614143 -3.535100 115.821655
12.470994 -2.822480 111.143784
14.233892 8.707149 140.886383
-0.543430 -14.913090 128.383606
13.772537 -3.654696 127.034927
4.552701 10.198678 141.299118
13.420218 -5.945583 134.266220
12.531907 -6.763473 128.929764
4.428438 -9.731229 138.032104
1.654693 9.552309 128.879608
8.942574 9.829224 140.014648
8.547407 8.142034 129.084137
8.645509 2.979290 119.770004
9.258837 -7.455050 140.002701
-8.369417 -9.222618 112.159134
7.422106 4.826282 123.139328
11.588742 -8.218724 122.709457
8.873317 1.649920 117.042229
-5.763997 -15.882634 119.897293
-8.860018 -8.515588 139.293793
-3.506721 10.805374 132.674744
14.001620 -3.634869 118.355118
1.009868 -14.910421 120.481308
-6.910858 3.126509 116.305832
-10.184706 -11.516307 117.072739
4.111553 -11.347379 138.382217
-8.387921 -13.236760 128.821838
-0.947648 9.971824 126.840096
-3.178000 8.094926 144.140076
3.086085 4.657256 118.888412
10.495975 0.668004 113.315315
12.887602 -5.470301 139.638458
15.763370 8.417783 139.254166
-10.682936 -3.835106 145.491837
9.170921 -9.833619 122.973511
0.031901 -12.037891 137.759613
-10.631565 9.931862 141.123138
5.070340 8.351236 125.866272
-4.298786 7.795918 145.362976
-10.915462 7.989328 128.157547
11.274879 -6.474206 118.007706
-9.400016 9.179470 142.300110
-13.099582 0.291289 121.213348
12.161332 -5.650651 129.933823
-1.492079 6.759219 126.025398
-12.207448 2.340043 122.413864
2.664808 3.621931 114.707001
10.391420 0.435258 115.411057
-4.609859 -2.554434 149.130981
-7.796133 2.110026 115.488998
2.976336 -14.507780 122.135338
2.404327 7.801541 122.917778
15.105975 8.741081 142.699677
-8.266242 2.565514 147.649002
-13.223090 -5.899518 137.654709
12.809840 -0.369482 130.635086
-0.039588 3.732526 116.275482
-12.190809 -6.622181 115.753616
-5.373836 1.622574 148.141800
-12.239663 -9.341641 124.876328
-9.514316 0.406149 146.942612
10.049694 8.712578 129.437271
-4.973097 5.598075 121.381973
-4.584136 3.217024 149.773956
9.878315 2.065745 115.361809
-7.072829 -11.548784 123.401291
5.780640 0.167141 151.174316
-6.034742 4.653180 146.950638
9.859240 -12.290880 116.472656
-12.761416 -5.860680 130.869995
5.868626 -12.526072 123.324425
-8.940470 4.340402 114.113632
15.141541 -5.741269 117.608795
-4.560618 4.937999 121.824707
-5.962051 -10.324435 112.122871
-7.469754 -11.213851 113.074440
5.038433 -16.079334 125.723549
-5.185183 9.392722 142.701630
1.305788 -9.230248 143.348114
-5.498221 -2.899109 148.746918
-8.905947 -10.261633 125.982117
6.831695 5.283923 119.601631
2.991058 -13.307832 134.385056
-10.663909 3.668000 123.662224
10.120633 -1.312093 115.874550
6.215167 9.683591 131.853943
-15.271865 -3.856861 137.053528
11.455793 -3.267882 145.538345
-11.932395 -6.854388 128.896454
-3.526088 4.261744 116.089287
13.573136 1.543762 130.009750
-2.055832 6.132539 125.127632
-6.042705 -13.321198 118.595055
4.230614 11.328935 134.537796
8.872171 3.124783 114.333969
0.285757 -14.828727 115.375496
-4.416118 -6.649528 148.646759
-5.331352 -7.594186 145.814560
-0.870173 -12.671347 136.742279
11.203977 4.638562 128.194748
9.545080 2.011594 112.439308
-17.358730 -1.887566 143.416779
8.628687 -11.459904 126.665176
-8.407693 6.372706 124.927338
-4.108479 -7.449025 142.161713
11.486363 -7.709118 117.652069
-7.892523 4.246912 122.532921
6.221474 1.043817 151.069366
-9.899545 -9.864527 112.294739
-16.045399 -2.723427 145.819321
11.026236 -7.306054 141.170609
-6.859959 2.220221 114.860207
7.049658 5.265311 114.688416
-3.252652 -13.080199 134.937073
-0.967005 -14.621954 121.808815
3.114331 -12.476897 111.919991
2.498309 5.533327 151.109711
3.689401 -8.530277 143.095474
11.133179 -1.714349 113.180923
7.711007 10.054963 143.697830
-5.998862 -15.094072 122.839706
-12.839944 -4.230742 132.408569
-10.948465 4.353259 124.504959
-10.424752 2.986837 126.890694
-14.784987 -0.499002 132.546722
0.195127 9.564575 135.320343
5.774215 9.973681 137.187775
11.440939 1.502762 113.936218
-11.112135 -8.563294 117.913841
12.808857 -4.007593 146.378632
8.535352 10.637229 136.657608
11.884377 -3.508371 118.188339
-5.916563 5.535131 149.031586
1.137704 -8.395026 145.079025
13.459064 0.413674 116.916260
9.642778 8.887208 136.232468
-9.412878 7.434216 128.420959
5.844829 -8.741554 143.515518
-0.959835 -8.173542 143.708801
7.738312 5.748995 124.616920
-2.086610 -15.207984 125.147758
-0.292565 -13.429688 130.610245
-7.943199 5.090246 145.866913
-13.129441 2.291247 131.459854
1.001410 7.667616 121.340179
9.438904 -12.083467 129.166153
5.613887 2.518240 148.594864
-11.833688 3.933173 122.861916
14.243578 -6.449371 139.222458
1.964102 8.680677 146.317352
-11.528770 6.162385 128.816620
-3.583669 -13.434251 117.848557
1.098836 10.221649 135.595383
9.903062 -10.516465 129.618118
9.965203 -9.628902 122.139023
12.717140 -1.804196 124.161934
12.318829 -3.724334 116.709427
7.180162 6.788400 123.844574
-5.576383 9.968137 138.190842
-2.575104 -9.661570 140.380722
5.218274 9.363230 127.076248
-14.478376 -5.896035 139.786087
7.233026 -9.817359 135.401703
-1.847555 -13.001236 132.245239
8.000741 9.827131 136.641144
-13.697010 -4.422170 119.250420
2.717745 -9.839058 141.315170
-14.856036 0.417501 121.347244
6.498370 5.842724 122.839005
-0.474585 9.926757 130.846863
-11.065765 -9.077074 136.142868
9.248884 6.657692 119.895790
5.632445 -14.280818 125.326569
14.255468 -5.689901 115.500404
10.988707 -8.781727 137.024765
1.452514 6.409304 126.225655
11.145287 1.261170 125.801773
-17.994852 -4.466458 141.027069
-9.708775 -7.299711 116.371475
-1.968595 4.686652 128.398056
-13.842013 4.399920 128.530014
9.341977 5.051890 122.986710
12.384494 -0.943570 121.904160
-4.089370 7.249312 147.924500
8.585872 0.988525 117.343781
-12.708052 -6.908314 123.839310
7.526762 5.282279 120.646393
12.345047 1.505564 121.520370
-10.309558 8.846649 136.156677
-1.654707 7.425267 121.823120
11.361073 -4.928668 115.644653
10.696713 -1.235793 111.414078
0.129336 4.205280 113.678894
-8.400311 8.432610 131.793747
13.807384 -1.111789 129.027298
-0.243025 4.691615 151.617188
-14.549700 -0.394004 135.101227
13.045142 3.658873 145.871811
10.744104 8.310968 142.899139
5.706092 -14.016368 124.813545
-8.606176 3.827801 116.271225
10.420972 -7.286544 144.491547
-0.383037 6.102961 148.343277
12.379371 -6.169609 142.141876
-6.250777 -3.418092 148.607788
-14.339352 -3.165014 131.930679
-8.031334 -9.474514 136.016998
5.720809 -1.351747 150.653732
14.814388 3.778504 136.691299
-11.760097 -6.000934 136.224213
-3.173778 7.215227 144.730469
0.551973 6.049000 120.579849
-4.294268 -11.002493 139.487442
11.024170 -10.177956 133.555420
6.604492 -7.918925 141.777084
-15.057236 6.199092 144.064423
-10.340211 -10.250209 115.344437
-7.659720 -9.044164 112.540100
12.041467 5.506040 125.890137
5.132580 -12.825135 133.734329
2.020601 7.395082 146.565308
7.051924 0.650340 149.481216
6.843636 4.841051 122.946289
-4.769016 -11.872219 116.860687
14.396873 -4.077531 120.963737
2.307860 -14.053991 116.663368
-16.067770 -4.497389 142.241135
-4.096668 5.132815 113.777779
5.773218 5.743994 115.535301
10.392852 -12.476697 122.287292
-12.501844 2.354452 133.574966
-7.090647 7.379380 126.881218
-3.788633 -7.383586 148.298737
10.747970 -7.435085 140.405411
-7.552609 -11.718068 118.969643
-11.092645 0.402562 121.873833
-8.127028 3.663471 115.126938
7.661875 -3.991310 145.387741
16.453779 7.692299 140.781631
1.129040 10.641098 143.063156
-6.942106 8.840880 145.885620
13.748132 -0.128574 134.061554
-6.701095 -3.145181 149.468643
-5.522901 8.531418 129.732971
12.846375 4.450402 145.595551
8.641973 4.538780 114.894188
-5.109688 0.431593 149.561279
0.013234 8.673530 123.553795
-1.977553 -9.579048 144.360184
-6.907546 5.581799 116.687630
-3.310644 9.607039 145.116318
13.510911 -4.476381 113.755898
7.275328 2.472551 123.506424
-13.538862 -7.768307 117.950027
-8.097664 2.102559 116.060272
-6.743252 9.867846 139.361649
-0.562040 -13.581818 126.469635
-13.949978 -4.891340 114.564720
-13.468287 -3.006118 130.978271
-1.119708 8.962752 133.637604
9.429997 -4.351559 144.024246
-5.687409 -9.787419 139.380600
-4.780567 -15.422103 124.642906
3.615184 7.488804 126.779228
-4.441836 -5.895508 145.986023
11.797122 -8.418270 129.030136
-12.410734 -5.115155 136.028900
-16.364910 -3.702524 141.273407
12.390054 -2.595778 144.816238
5.121336 9.072095 132.311874
-7.419245 -6.606362 141.989838
3.401730 -13.390429 134.692520
-5.210619 7.967992 145.349533
-12.922924 5.981367 131.311035
9.355971 -6.959018 140.003204
-0.609571 9.360231 138.599319
-5.267167 -13.375669 131.465897
9.610209 -9.134578 136.559341
12.732809 -6.594244 134.499451
16.550802 -4.730696 142.858627
-10.087580 -10.408552 121.011009
10.975915 7.987505 136.245758
1.553143 -14.032275 113.387497
-4.218139 10.738301 135.429016
2.922657 4.476084 114.903778
-14.322717 4.989416 132.918228
5.043799 6.397367 147.046265
-13.400869 -6.138455 125.596771
-13.548747 -4.151936 126.145142
-12.571793 -6.037969 115.642906
-10.463337 -9.094296 111.627792
11.019565 10.310750 139.938995
-12.820333 -1.363721 125.166367
9.583404 -8.980055 122.283279
16.737438 -3.660293 138.762360
6.954555 5.940727 116.650398
0.286334 6.279170 151.291061
12.613633 -6.562302 123.717613
-5.584250 8.261067 145.160797
-1.264318 -16.052998 118.615578
5.953787 -1.032439 150.736221
6.399802 8.847154 140.617844
-11.403988 1.153046 146.302475
10.382561 8.922881 132.089539
3.989682 -15.133407 128.596725
4.140297 -8.117728 144.688599
7.928150 -10.228529 115.935310
11.505649 -2.809963 129.149353
-8.082891 -10.496298 122.779305
13.336973 -1.190451 115.924759
-4.770187 -4.124650 148.255081
10.266102 -3.019051 120.328552
-1.073088 11.243607 137.337463
-11.362480 -2.873005 134.002502
11.518314 -4.632015 112.684456
8.482768 -12.789489 133.003082
16.587769 -0.744174 146.509262
-2.241072 9.699450 127.604607
-3.501220 5.958733 116.709419
-3.840272 -17.227507 122.377869
-14.248580 -4.068442 146.576279
3.871370 4.899795 113.362282
-4.392764 -14.935121 123.478523
-9.366455 2.548743 115.898048
12.122150 -3.416582 110.654404
10.634255 -1.661521 110.832642
-3.309132 -12.808108 133.843216
-9.173043 -8.194147 115.298950
11.599978 -6.774058 137.581863
11.674456 -5.683674 112.418755
2.816522 9.113645 141.190964
-7.687278 -11.775122 124.046951
-5.154266 8.461823 134.022339
-0.562999 -13.575087 129.970764
-8.677574 -3.119984 146.354294
10.305710 -8.866816 123.189453
13.137292 0.224785 148.059494
8.801372 5.042771 115.988510
12.222832 5.056776 129.646057
-8.528428 2.008088 115.496643
-12.638335 -7.084304 139.138214
-12.869551 -6.049311 117.154617
15.493985 -6.890458 142.277878
-5.122803 7.938404 124.850395
-4.998671 6.528803 144.783295
-9.667762 1.211335 121.460869
-6.836099 -3.053419 146.181198
13.002932 -9.327238 123.366699
8.708197 9.476323 135.576553
2.662999 -9.177021 143.804428
-12.844935 -2.677924 121.573570
8.530955 -10.720609 112.095367
-11.640323 -3.500241 122.983650
-11.430813 8.821187 142.568329
8.520567 -9.365685 112.891357
-16.902269 -4.659273 142.380951
13.639831 -2.512249 127.425270
8.210485 -14.067284 127.559631
8.433573 4.775289 113.888489
-2.111156 10.320526 136.717361
0.269621 10.514493 128.613449
-13.798151 2.472555 146.366791
2.442750 -12.891942 115.615105
10.526128 1.254965 147.187943
12.535743 9.068885 142.242828
13.085955 -3.411356 122.043892
-8.486649 10.527496 139.510910
-6.901426 2.695065 114.910133
-12.998300 8.248796 140.960495
-8.579473 -6.970380 144.412689
-2.708160 -10.448326 141.167145
1.092242 -11.336790 137.890900
-16.464758 2.298639 146.333832
15.720706 6.665728 133.316818
-4.757394 8.993546 142.338776
-11.618942 -9.538257 133.256531
4.519889 5.937168 145.806656
-15.026116 3.312301 134.640884
-13.514048 2.926531 146.653351
-2.596591 9.446497 143.560226
-8.204595 -1.083690 147.474258
16.989183 -3.764875 139.027618
-5.958585 5.831969 118.701813
13.268329 -4.331956 114.074097
10.214231 -0.651996 144.641006
-4.668585 -7.267639 145.397507
-4.702189 -14.330079 121.379082
-7.227275 -9.718770 114.904053
10.488120 2.980294 122.984085
-0.450063 7.780406 145.944489
-12.389750 8.098036 144.837997
-1.108864 7.578071 115.954491
7.440972 -0.033268 149.051804
14.153526 -4.710121 142.706055
-10.057149 -9.891437 138.998001
-4.382186 -5.175865 149.860504
-12.636525 5.440102 143.858292
-7.943833 -5.766016 143.670792
8.706231 -12.195746 136.682541
-1.295426 -13.801897 126.920845
-10.285795 -6.215011 143.235901
-4.270242 7.216542 148.030075
4.976420 -12.269993 113.900566
7.576229 -12.411631 130.003876
3.621483 9.582113 132.127289
-7.126715 8.335837 126.240509
-9.969210 -13.271361 125.540756
-7.466319 4.270878 122.202820
-12.452923 3.576986 130.936539
-12.774601 -9.572745 116.680573
-11.199638 -12.172389 132.993546
3.970883 7.831026 142.785233
-9.777025 9.749984 135.078796
13.911347 7.686892 145.095383
1.745281 6.302469 120.959167
-13.726238 -2.221344 114.977394
9.087636 -11.106062 132.218109
7.876403 4.040367 147.133865
10.404855 -5.595212 146.320297
6.598935 7.989123 125.128563
3.451157 2.861211 115.412529
5.562693 6.035856 113.767128
-6.455624 -10.457450 113.867958
-6.224885 6.150353 116.251625
6.608954 4.222834 120.801765
-12.796967 -10.786393 120.688110
-10.228144 -8.484098 143.177826
0.524645 -16.403875 121.750458
-10.647998 6.337705 127.813049
9.211011 -1.737358 113.871254
-10.308119 -1.375262 113.147018
-1.672569 -15.892126 117.840820
-8.340305 0.521459 119.297379
0.589105 10.643359 134.309647
12.496529 -6.821944 115.765411
8.293715 3.981644 120.992142
10.619009 -11.902147 122.932930
-4.174345 9.704588 138.451508
-4.562888 2.382433 151.103821
-5.379892 3.586351 119.213196
-12.255481 -7.538576 115.994698
6.918281 4.155200 115.229736
6.455678 4.624575 119.270432
-1.069765 -15.325449 118.994781
8.304384 2.746844 120.704674
0.498443 -14.718916 123.532104
4.302406 -10.610398 138.848602
-2.765611 -9.473703 142.465027
-9.905127 -7.153115 142.687744
12.837316 -6.230121 119.701263
0.027023 10.744323 131.339691
3.133432 9.922128 133.969711
12.328422 -5.319084 127.282921
-0.422663 -13.117078 112.362167
8.759100 10.311009 135.165756
-11.275102 -3.270413 115.538559
-10.413088 -12.237143 125.772278
-10.461943 0.936873 112.514915
3.366960 -7.311059 146.995407
-11.832485 -4.828372 125.248367
-5.712624 2.653972 116.087379
4.935395 -14.156718 128.789368
14.087324 10.206026 141.183716
-6.950927 -11.936069 112.177345
-14.688456 3.263407 133.307663
11.771757 -0.043546 115.274490
-10.883085 -11.009622 116.707680
-11.659714 3.158902 120.083321
11.098195 7.612449 142.582657
11.666603 -8.140087 114.328560
9.912106 9.320237 143.450104
4.743535 -13.372008 129.826370
-7.448730 -10.735752 117.676567
3.459876 7.052847 114.738197
0.830900 -12.120036 134.443909
11.428134 1.944576 131.037186
-13.298287 -6.219738 132.887421
4.841390 4.018822 116.822266
-8.347885 5.150111 120.669113
-3.179426 -14.105677 130.211014
-8.690955 -9.481170 115.498367
-11.906406 -7.741792 136.096725
9.553785 7.691050 129.990662
9.156229 7.767516 124.519363
9.571879 2.371013 146.534225
-7.257943 -13.016716 126.879242
-2.872087 5.827192 122.445190
13.971585 -0.905013 121.809380
7.114463 7.505675 122.058968
-14.079166 -5.383603 137.626816
9.746545 -10.387812 118.206093
14.501988 7.197726 138.139893
-13.096478 1.694700 147.027756
-5.217449 -0.285525 151.151199
5.109275 -13.145961 119.626961
2.557579 -3.900401 149.678543
3.919278 4.574975 114.962250
-2.434947 -10.256997 137.615845
-1.705988 8.893427 142.171539
17.330236 -4.994606 142.644592
2.539322 -15.443339 122.001999
-7.658859 6.880507 123.161995
12.577042 -5.685899 140.890167
5.397687 -12.909709 129.985184
5.932019 -13.958990 117.994507
3.224747 4.975259 117.530449
-9.946620 -7.201954 114.068375
3.459794 7.682258 123.542610
0.431192 7.774455 132.706116
4.227673 8.472035 141.920486
3.898313 -12.219225 118.023354
13.004368 -5.920095 139.910172
11.258737 1.142293 123.760880
-7.252640 4.044549 119.738358
-10.475627 8.353719 131.483261
13.532769 -7.064443 129.454620
-10.151087 9.649704 141.377319
-13.585297 -3.518595 124.593147
15.176964 2.893508 135.628830
-7.863924 -5.695876 145.804276
-11.471222 -12.839821 124.852638
15.360633 8.559816 142.994522
-8.938472 -11.691767 121.334541
-14.524835 -5.081175 139.959167
12.712126 -2.544402 130.323898
7.348474 5.355942 120.873444
14.689476 -2.957583 117.127960
-11.554657 5.587959 146.568375
7.741504 8.004704 130.023407
-8.508696 -13.015724 133.380829
-4.654651 5.761896 148.428391
-12.567117 2.226273 120.607018
-5.897469 -14.152374 128.512238
2.548773 -13.661818 117.337791
12.789354 -4.646971 119.690613
14.650614 -3.639581 116.717422
-13.375741 -4.456033 129.235184
12.531497 1.418000 123.483910
-6.877261 -6.441317 145.125961
-8.329074 -9.765048 138.697464
-5.894845 6.491868 118.335571
-5.917725 6.510483 122.973923
-4.957310 -3.907737 146.697388
3.393697 -13.357699 115.066010
13.033517 -5.529937 129.381012
-2.656887 -11.323031 112.157341
-11.421322 -7.486200 128.363251
-14.449247 -7.075109 141.872849
-9.933625 -6.407046 127.039452
8.850573 8.737457 132.278183
13.502160 7.482587 143.239243
-2.211683 9.562130 129.621780
-4.599522 -13.388887 135.245209
15.438005 5.280914 134.995117
15.357590 -5.461666 140.049515
-10.228896 -1.189780 114.917496
-0.491017 -14.111856 116.558907
-11.821757 -7.022954 122.778374
13.011467 -4.469162 144.778259
-4.255827 4.541639 118.517395
-12.660153 1.300000 126.188026
-7.603281 4.917028 121.244301
5.116960 -14.582216 116.297020
-7.109566 -4.190135 146.346878
-14.635128 5.404240 134.611725
-3.576252 10.861549 133.412262
-10.786395 3.983060 147.619278
0.240197 8.846028 133.963760
4.171332 -7.008272 148.253830
1.937213 -12.922301 111.764175
0.999530 8.006367 126.847778
-3.938609 -12.297678 112.544220
0.652198 8.036030 143.168762
-9.593712 1.805332 147.548050
-7.185812 -10.830064 123.868736
-10.962796 -8.018322 121.393417
-12.693025 -3.421388 122.926598
-1.518869 5.670995 123.921371
-11.691254 2.586930 127.399361
5.079897 6.201493 125.542938
11.893186 -8.510866 114.169792
12.721130 4.356982 144.768082
-11.299652 -8.731069 135.113434
15.878963 8.747502 135.469467
15.507053 -1.443729 136.461548
-1.635578 7.822220 130.214020
14.990463 -3.144897 144.940521
-0.414554 8.923759 135.245331
9.587464 -8.657438 118.442123
15.325157 -6.081898 117.737900
-0.157453 -16.386091 121.781410
-16.491133 -1.497095 137.824677
3.364359 9.632249 140.891312
12.317201 -4.982782 141.707779
7.104107 6.534281 127.177032
-8.681532 -1.771880 146.751465
-10.935816 10.066451 138.365448
-15.256473 1.725405 134.917480
-10.822893 -10.426490 121.032707
-0.477706 3.448547 114.377197
-4.241433 -12.456586 116.296326
13.193663 -3.682439 129.484375
-10.540306 -1.052710 115.873291
-10.774506 -8.904050 114.668892
0.932029 -11.847640 136.980118
9.897130 5.611900 132.483673
-6.667167 10.767817 135.021851
1.944374 6.808822 120.587807
-10.155969 0.609908 115.657829
-6.128431 -7.794704 144.876740
-2.449458 7.166762 144.299911
10.145211 4.751398 127.033867
-4.404772 7.853922 124.645760
-7.717007 -5.515101 143.530594
-10.068575 -7.857241 126.521751
-10.037497 3.445231 121.085632
-8.346332 -7.419253 142.733170
-11.570168 7.478678 127.533203
-10.580199 -10.339493 131.009766
5.105787 -11.820974 116.622452
-15.249568 -4.631317 143.788086
1.567121 -14.813393 120.033630
5.447379 -12.530351 130.233414
-11.966625 -4.122715 125.181915
7.349638 8.964671 130.376312
11.498136 5.105674 130.494812
-2.938164 7.518894 147.773254
11.053631 -4.894748 127.827881
-11.087789 -5.480989 139.380356
3.273339 -10.685624 137.765656
-2.908019 5.103755 119.037941
-1.856864 -10.004516 137.017120
15.286724 -0.282063 117.590080
5.834946 1.966673 148.211868
-1.063244 -14.432844 115.515610
13.495341 -0.720274 115.185715
-12.245226 -7.071476 127.182205
7.371546 0.274728 148.622849
1.359441 5.534431 115.901176
-3.141127 3.907574 114.030457
-15.049951 -0.604134 131.986816
-6.876577 -13.746137 127.054398
-12.286913 6.033156 132.983719
-14.376748 -2.371510 145.869873
-10.270433 2.732967 147.481842
14.553639 2.354702 146.779007
-1.470714 7.229348 119.280548
-10.041193 -4.600674 116.442833
-7.176190 7.637205 126.378113
11.376691 1.078671 124.088417
8.674298 4.933282 147.006622
12.605070 -3.035376 128.651215
-8.628627 2.725835 120.774506
-1.826370 6.503001 117.274635
-11.771091 -8.508604 135.254471
-9.429609 -11.592284 120.945938
7.905349 -11.038543 127.693420
3.546376 -11.006382 140.010712
-14.286472 1.814736 133.769104
11.474981 -5.626487 128.563232
3.630557 -10.508933 140.274841
-5.982815 7.417313 145.659439
-7.924007 -9.237679 111.989090
4.150741 9.496627 136.247543
-14.551058 5.563778 133.675873
3.097141 3.713824 116.099701
-15.558743 5.511542 135.411148
-7.624687 -6.467009 144.603165
-5.053791 -14.009053 122.283676
-4.239385 8.695271 135.935242
6.414992 11.191184 138.979782
-6.647028 4.866980 114.280853
-6.162654 -14.313622 130.493484
4.961598 -13.179119 124.128716
8.323604 7.502948 126.091637
13.651471 0.478401 147.425613
-12.135880 0.630707 146.037491
15.374301 -3.527978 139.024017
-6.178244 -6.315120 142.589905
0.503669 4.296243 114.481819
-4.380458 9.649798 129.744171
-5.488371 -8.133999 142.601242
-4.267462 -12.764406 120.140755
-13.410878 -1.867752 116.883598
0.200726 8.603315 124.910385
-5.688801 5.773573 147.365417
-0.991384 -13.092200 115.456932
-4.995781 -0.590905 150.455185
-14.420153 0.235678 129.699997
-2.322185 -13.600686 117.022423
0.547948 9.106148 142.647079
-12.233623 7.834532 134.477509
-16.391918 -2.073021 136.694702
0.304792 4.873251 124.296768
5.036426 5.829531 114.931160
-14.654653 -0.363539 127.532982
-13.062683 0.713700 131.247696
-7.861764 -12.155420 132.151306
-0.827726 9.768414 128.038162
4.997152 0.644660 148.409454
2.810233 5.875445 114.688828
8.183709 -12.140862 129.863800
11.254603 1.269054 125.717239
12.403312 4.830812 125.001122
12.250170 7.278673 143.094360
-8.664607 -10.964259 133.251450
-11.611889 -6.131061 122.280685
15.873073 5.704854 136.369568
-9.620976 8.066483 143.826752
2.865184 -15.529910 123.192970
-10.437301 -3.414793 116.049995
-2.103292 -13.441364 127.995850
-0.389742 6.376364 148.982574
-7.905282 3.893723 125.179878
2.568225 8.692798 130.978302
14.978933 6.807439 139.415009
-11.773885 8.914476 134.783783
13.179411 -5.309263 143.134415
-13.077320 -6.205599 138.859756
-16.459305 -0.979815 144.960159
-9.050101 -8.668631 126.715332
5.380192 -13.902719 131.832092
-15.074084 -3.777204 136.756882
-16.416777 -4.179492 136.342514
2.218488 7.764476 124.376358
10.090467 -8.021341 120.259186
10.289118 -2.197220 146.494308
-2.165049 4.685236 122.775299
4.204801 7.328082 127.953079
5.279683 4.262102 118.872536
12.083624 6.446218 143.332718
3.224363 10.429086 140.756073
12.131523 -7.174332 137.201920
-11.817541 -8.015434 122.446930
-9.987935 4.002350 147.650085
1.091140 -14.126822 127.684273
6.467163 7.981903 125.238274
7.557712 2.081599 114.101517
-9.425097 9.540199 134.889221
7.065819 -13.547544 130.550552
14.909230 0.329840 116.337944
12.040663 -8.348673 132.519348
-9.948075 5.995407 124.816460
13.633962 -6.896022 122.781616
10.380122 10.130224 140.951279
0.224784 -14.985878 124.887955
0.466278 -16.525229 120.572884
-2.849482 7.686382 122.562294
-13.530405 1.202266 125.010132
9.835760 6.134514 124.460320
-2.857189 4.840891 121.911255
6.060167 -13.227654 116.907547
-1.475198 4.816879 114.741508
-12.619244 -6.548808 115.132309
-11.165975 -7.125947 128.089783
8.084035 9.177952 140.775848
-5.698845 3.807881 116.058144
10.791823 -9.471475 134.300751
-12.064061 0.741583 122.481720
11.355357 9.173408 135.333069
13.386298 -4.455462 113.374535
-11.861886 -2.405427 125.008987
4.703203 5.286364 146.487274
-8.374854 -12.507878 130.210022
1.652321 5.736833 123.413223
9.049567 -9.632953 136.528641
-3.868585 -12.964790 115.237793
-8.825843 -6.676344 144.455902
11.645479 -8.330244 129.844788
13.002621 -6.359660 124.191841
-13.205064 -1.280708 146.989243
9.682144 -10.412918 133.162003
5.508528 -13.990955 118.863586
-4.533151 9.850750 135.788574
-0.514931 6.632056 125.490524
-6.056403 5.471820 122.035675
-16.760389 -0.977700 136.901917
1.802585 7.838846 144.076324
-1.534562 4.751260 113.973801
-10.901170 -5.570708 123.097565
11.261455 -8.252264 111.795242
7.655405 9.290869 140.792877
-12.715328 6.948018 127.639771
-0.599341 -13.548222 116.650093
12.706517 -2.289205 128.073685
4.657556 -12.778654 116.573959
13.979099 -2.221176 123.209892
-11.581231 -4.231097 121.402153
-1.766470 10.267289 137.048843
-8.429763 -8.443563 136.076416
-6.939514 6.049778 120.460030
-6.955159 6.734631 124.086777
-8.335058 9.096351 141.864288
-1.385507 8.101593 129.527863
-15.067347 8.207130 141.738892
10.235939 5.570181 119.046822
6.386120 2.138877 148.765533
7.045185 5.198340 123.785965
13.080292 1.701534 146.692688
6.754520 -12.871043 135.638794
12.308260 4.049116 125.552650
13.079377 -6.888216 124.093185
-16.640516 -1.215394 137.240524
6.976653 9.855301 137.512070
-1.491738 -10.326788 138.666962
-6.355793 9.221728 144.340683
7.161318 -9.976279 117.466156
11.932544 9.694814 136.727097
-0.974416 7.377362 121.205101
7.706449 3.468367 118.419067
13.900283 8.556998 136.535629
-11.121585 -1.880076 115.182999
11.136441 -2.380809 115.177261
-9.530850 -6.011673 114.797485
10.830586 1.662938 122.094284
14.157027 1.589807 127.889137
-2.558836 4.915242 113.952911
4.229749 4.020877 117.074379
7.776443 5.230163 119.223099
-8.144200 -8.547740 138.927063
-6.346730 7.958179 146.135925
-15.560125 -1.010166 134.265274
-10.549336 -0.469575 115.451134
9.074732 10.188538 134.838043
-7.634111 -10.574873 112.624908
6.281613 -10.590836 113.859421
3.185385 -14.508118 117.346741
-5.463039 -14.971502 116.313080
-0.648023 5.627693 116.971329
0.995470 -13.844511 131.421326
10.287413 2.469099 146.107361
11.397120 2.139170 127.271271
9.123927 9.782073 141.228470
1.716155 10.171360 142.312759
-7.370063 7.032570 128.503998
-2.881957 -10.844573 137.685562
1.031470 -14.959137 122.377457
-0.282823 -14.635256 127.865372
-5.484848 6.705455 124.797333
-8.194171 -12.639379 135.661194
-5.327285 -4.352021 146.241241
13.267935 -8.938129 120.568283
14.503924 1.995266 134.304871
-5.312084 8.224668 146.882889
3.511286 9.404780 144.344177
-6.305494 9.283999 131.348785
