ply
format ascii 1.0
element vertex 2048
property float x
property float y
property float z
end_header
-19.179634 -3.894057 90.026840
45.894085 0.406314 117.321121
14.788984 2.888248 154.425705
-10.949001 0.292650 59.536015
8.404638 12.288387 130.448166
-5.253910 -9.205871 110.269325
-56.952324 -8.510795 97.102005
11.308201 -5.580645 57.626171
26.121084 8.385866 21.772820
25.019167 5.777131 130.677505
-8.884334 10.963841 97.547508
-16.909830 -8.520150 88.010307
-8.976478 -2.077101 146.523483
-1.013582 -7.982670 101.905693
0.520576 5.941086 163.684937
23.213823 1.780281 143.631287
1.129096 7.746141 109.003250
0.426619 -12.434939 169.832306
-19.722099 -0.085954 56.753799
2.905768 -10.525643 120.909554
54.909206 2.127816 106.614876
9.292002 0.863271 170.162292
-9.033662 4.561644 53.865059
18.560877 -8.996800 91.691284
13.421963 -11.869428 130.518845
-11.735530 10.269308 94.778084
-13.671635 -2.549145 4.509097
-5.848744 6.926031 68.900276
-12.841793 6.812780 24.973013
-1.161221 5.280872 123.092224
-17.928780 6.017528 9.154872
5.622202 13.150939 140.523636
-11.298535 -8.606900 112.462372
-10.746028 -13.237007 85.642006
7.280724 10.044677 136.902817
-9.084687 10.152181 100.913063
5.672501 13.437712 135.808319
13.809973 -9.074152 93.884377
7.952919 13.613404 93.726807
-0.130881 -11.949731 107.863083
-16.830990 -8.430630 74.737358
-11.874435 -9.058234 69.401558
-12.744572 9.255849 82.917740
-20.255621 -4.297235 92.565178
2.527639 -4.662831 173.395645
-6.035975 -11.228069 103.002968
-4.765591 3.016093 156.970718
-15.088354 -1.331466 114.721802
-19.991198 3.692116 28.908894
5.315239 9.212579 79.650917
-5.571975 9.495654 138.793274
1.482760 1.834248 80.653137
-11.635106 13.401867 73.338074
-16.641569 -5.763495 103.150391
-21.088947 7.720434 23.338659
48.199890 -2.921879 117.446922
15.561190 -10.370774 84.041992
10.477116 -11.197439 122.554062
-24.448128 9.899145 11.182490
-19.113472 0.374466 2.743385
-0.528803 -13.386147 98.493752
5.844415 -6.305635 171.209595
10.377855 0.506877 114.345215
-18.584166 5.654624 21.908829
-29.859035 9.544064 126.608696
11.297626 14.154691 145.177139
-19.419834 7.261038 90.258484
17.241945 4.022894 73.125679
0.349946 -7.126356 166.680756
-21.387918 -3.141354 94.894051
-50.588673 -3.199503 118.301949
24.806265 8.126012 131.310516
54.687256 -2.391640 105.718460
10.087920 9.634718 152.897461
-0.678544 12.483383 129.630630
-20.704355 -4.303143 93.140671
-7.702980 -1.668252 59.454201
22.761345 3.313397 30.938517
6.792399 -6.294897 96.756866
-16.023460 4.147521 142.994736
6.055120 5.740500 102.463348
-13.418773 -8.282289 107.955917
-3.754446 2.740669 79.667725
19.224751 0.630606 66.593346
6.857830 -1.725641 159.082504
23.018274 -6.073940 8.604410
28.617979 -13.176519 3.296803
3.567324 -6.147895 146.345581
25.904877 3.551261 137.599304
-19.896683 -4.855694 75.326019
12.218186 4.301188 148.007812
1.983904 13.028839 156.465286
-1.519786 -8.083722 88.985703
26.997719 -1.765239 129.249786
20.215120 -6.842677 88.577858
23.836929 0.195594 135.259430
20.491611 1.449734 84.155617
11.787050 -5.757748 85.754250
13.794938 7.238665 110.524185
9.119917 5.061574 115.807434
-5.725702 -4.136260 68.215561
-3.457793 -6.327598 93.345596
-14.861834 6.782244 94.451241
9.001263 -3.235583 53.702930
5.395164 -7.409508 97.330620
20.929874 2.837189 41.183743
-0.427845 -10.808377 114.347115
8.189284 10.256310 133.203003
-1.846724 -8.852951 136.264786
2.272980 -3.492732 181.156082
3.764239 -6.917267 114.208618
6.224524 10.382030 91.002747
14.944929 12.228936 18.286474
2.787243 13.505338 100.205452
30.899059 -0.267979 118.285660
-13.519048 -1.745282 111.756302
2.286902 5.420299 85.523018
-5.998113 -7.565650 88.498146
-10.071078 -9.848744 110.322655
-4.072628 -8.813087 167.849991
9.464298 -16.764730 129.186432
-14.363270 3.632606 29.034317
-18.782734 -1.098068 91.505989
-5.536921 2.300259 158.165726
13.933967 -9.888863 114.934418
8.497522 -6.821692 63.609612
-3.282881 -0.428715 87.269875
-2.422463 11.548631 89.421150
-4.834556 -5.666720 74.116089
3.972925 8.897875 125.600082
-6.955715 -12.351548 134.151276
10.749767 6.150957 51.556587
8.531116 -8.690333 57.269855
2.726082 -8.253160 100.175026
0.487943 13.589725 97.915367
5.323701 5.500906 157.120178
-15.361529 2.425396 135.761551
9.417936 -12.487968 128.391907
5.940331 -0.203772 169.383057
-4.680644 4.838340 163.010223
21.775118 9.914418 141.352386
-16.632086 -6.909362 74.588974
-22.930164 7.355105 26.801834
-9.706471 -12.480822 111.619530
-15.310211 -13.355307 133.812088
36.946186 7.469231 120.481705
-0.363500 -5.712334 167.325104
12.361276 -2.425523 142.755264
-16.159403 3.703918 100.265144
-14.719337 -3.475215 37.878983
-14.340491 4.465050 87.602348
-13.010261 10.109771 101.666061
-6.921546 10.241416 124.936501
24.478645 0.127841 73.324959
-6.678424 -3.887308 142.543243
2.451706 -9.770121 164.643402
-12.715042 -4.471179 77.511726
1.799018 -8.338001 88.322121
-15.613386 2.932122 133.079163
-10.016787 4.026808 129.722305
-17.630526 -7.368081 -3.675474
11.491907 -3.401937 50.874668
-13.367236 -5.215314 110.542145
-3.576942 -4.476645 161.708954
10.357340 -10.986803 63.726440
-16.731392 7.882133 20.158411
14.592412 -3.138304 133.515320
13.875071 -9.228779 107.753769
-15.908658 8.258662 22.768402
-9.713917 2.723778 43.944496
15.424984 1.387549 130.219528
5.323467 -11.268658 133.847610
9.504347 -10.638908 113.848625
-11.440095 1.860111 137.848953
7.123666 -10.381081 112.972527
18.911207 -2.671877 84.124504
-16.096518 2.637580 125.111336
-3.436238 5.841866 80.734474
-0.961125 -8.066624 176.071854
-15.950187 6.712203 55.600197
-9.122611 11.676801 134.822556
0.772442 -13.875777 118.492111
-20.432934 -2.870998 8.987561
13.337761 10.328135 77.253418
-8.304461 -10.497420 83.444923
-24.015169 -16.777454 1.799773
-17.879519 3.273812 129.785355
1.781658 9.495555 122.976128
-7.669897 0.999675 59.690220
-19.793015 9.759139 139.658005
14.383450 1.507687 81.662827
6.166385 -9.492268 117.012497
58.193340 0.397094 99.322540
-4.858646 10.859752 88.112152
21.411911 1.339791 47.277351
-18.242409 5.457332 99.894920
-7.598193 9.757014 74.442268
-17.623837 2.074682 138.113678
-10.980409 -8.931703 111.445190
14.028219 5.616403 90.657883
-14.961784 5.671876 135.223145
-9.846184 4.389972 57.786587
10.409819 7.700596 148.430511
2.724533 9.540918 136.618042
-10.551794 1.457428 126.029144
9.252323 -13.017758 139.712219
-22.672050 -2.101958 30.267927
-35.490391 2.448681 121.315323
15.472851 -5.480126 37.727203
-0.759759 -8.409218 162.161774
1.429655 -5.353650 155.601486
17.944897 0.328238 37.444313
-11.234735 -10.244334 85.787216
-17.503065 0.850629 102.910957
12.895260 10.218338 35.254074
-4.190526 10.426451 99.320610
17.035206 1.533041 2.884804
11.522195 9.592242 103.770920
-5.111526 7.210086 169.711594
10.476448 -9.098078 139.294495
18.461899 5.346283 85.371689
2.438568 -1.883944 83.054443
12.010017 -9.173173 73.726784
19.292305 2.738839 97.648300
-36.719131 14.426355 120.965691
45.234947 -0.201984 111.542946
7.199233 -12.783308 132.015244
17.372833 4.590291 8.079672
-7.551517 -4.850975 173.278076
-14.992523 -9.611597 103.585564
-12.748638 -7.515750 129.103394
-10.850497 2.833516 45.870296
-3.710089 11.433061 175.169662
9.929661 4.135347 72.616371
-10.386853 1.420737 130.794052
-16.086895 7.227327 100.572884
12.896062 6.602946 37.166237
-7.636290 6.208396 106.746796
-26.438963 2.096854 129.952194
12.288421 -4.768423 118.142860
7.295290 11.751771 112.498283
18.268366 3.474646 6.308174
55.853813 -10.663622 101.869011
5.507222 -5.244915 64.511177
1.204104 -9.465731 130.622040
-6.517536 -6.782059 64.745689
-20.357000 1.674284 2.893299
5.467049 6.340570 105.475052
14.567541 8.343063 47.179310
-9.274984 -1.931909 139.326828
-57.360966 -1.852738 104.008476
20.856110 1.932799 137.091568
32.702938 2.587000 122.955437
-42.909279 5.367041 125.209465
14.239367 0.716042 53.412968
3.601224 5.966687 111.503777
-17.873798 1.995183 70.695656
6.322690 -9.224292 166.944458
11.801437 -3.930918 119.416695
-13.320315 4.122334 134.798660
-10.062071 4.260653 62.679268
13.571772 -5.904276 137.171951
-15.483077 -5.625286 128.524643
2.729795 9.273293 132.590012
44.561310 -9.275771 100.941399
-0.782687 8.498243 151.305145
8.141993 3.535750 57.614227
12.846819 -11.552130 98.454620
-11.734587 1.497883 49.159779
16.134836 10.369774 30.723309
18.460457 -9.924623 63.947533
10.607855 -9.801563 85.871574
-18.098377 2.048211 98.915817
-13.491241 4.648104 29.455156
-3.598276 9.851203 127.062126
-8.372709 -4.495863 137.961151
2.693895 -11.225252 128.632309
-13.617224 -3.467884 50.068153
-16.891832 -5.123282 130.190414
-16.099352 -12.512666 77.165764
6.349608 -10.805868 136.517029
12.699883 -6.539173 60.553986
-5.072630 -0.493916 147.600098
-9.592032 0.283207 131.323959
-9.836745 -12.598598 93.581879
-10.620495 10.776416 81.900024
7.857613 12.266225 91.124107
12.146553 0.598142 115.240295
-8.830745 0.378966 117.935257
-11.430274 11.405585 146.811890
16.914179 -2.299493 33.010433
-5.390831 -4.761966 171.244537
-19.349926 5.275868 99.757607
-9.485616 -8.906876 118.691864
-20.828676 3.540716 86.793869
11.245535 -3.466486 80.681320
-13.357955 -3.759609 102.682373
10.833180 5.465602 119.325729
14.675777 -4.320425 93.865883
-11.848434 6.415270 68.443405
5.161074 8.280927 112.302826
7.234191 -8.985674 128.319473
13.338092 -10.958805 86.836708
14.505980 9.068357 93.831848
24.680309 3.134470 132.829849
-12.268456 1.157006 127.480103
-6.886810 -8.624305 94.654816
17.319023 9.729330 146.883911
-7.119901 -1.251969 143.320602
-22.425314 6.880652 14.770570
-1.922003 7.348046 123.495842
7.388534 12.749775 135.938614
20.581526 1.654981 145.395996
-0.153167 13.168209 126.045525
47.539711 -4.389474 115.034119
6.652534 9.311688 147.196106
4.602317 4.862989 171.274399
-57.348934 -4.279238 104.381920
13.473667 12.487725 91.285202
-15.189566 0.004659 107.010208
-16.917206 2.291205 89.742897
-4.679546 -5.841962 144.330170
2.690101 14.036990 165.239044
-25.528723 4.241155 140.110504
3.752757 -1.802890 152.061600
21.649740 4.459913 13.820114
36.511250 4.449626 118.189598
-27.418919 -9.187300 3.445338
-30.104307 -2.071818 125.367897
-15.831406 11.243355 31.321074
9.517589 12.823137 97.501198
18.072859 -6.017098 88.574860
-16.231037 12.322799 130.539032
-5.444877 12.834317 142.007874
-2.837905 -13.377337 130.771088
-4.374723 10.532373 174.725296
-4.702614 0.025298 155.693466
9.751974 -6.636702 116.736198
19.421282 -2.640090 37.218571
23.173843 -0.989439 19.391685
-4.469247 7.365422 129.264511
22.000793 -1.250694 72.367676
11.668047 -4.087587 145.661148
-4.889253 -11.165122 136.745300
15.256961 8.683356 87.387016
-7.541687 -10.543158 139.445724
-6.059227 -9.990296 138.510864
0.180634 11.729267 136.797928
17.468903 2.631612 57.878384
4.688645 -0.432957 150.686432
-36.404957 4.244943 117.960159
11.754927 2.893621 131.981720
18.071774 6.512141 79.347328
-3.094628 7.852494 155.570267
16.228624 2.609340 103.029968
-13.125441 1.088134 138.990601
5.917293 10.163398 149.993484
1.022113 -9.243681 161.861679
-15.164955 2.811688 101.204285
51.612331 -2.274680 103.338821
-14.649083 1.034055 136.805374
11.463147 -6.130881 128.928894
-4.935061 4.018633 156.454788
-23.041510 -1.514433 82.578026
23.857121 4.376225 142.106125
7.967520 -8.623776 101.214081
-9.154244 -5.292869 114.456718
-15.499697 -3.437201 104.285019
20.125893 5.692532 14.463801
47.680149 -1.634828 120.838211
-0.415817 -3.237928 147.660904
-37.165077 5.324029 128.380402
20.265255 5.037195 144.563782
-31.105797 6.211985 125.343361
-9.623229 0.026745 153.061386
-14.978428 -1.210090 66.762665
-30.823303 -14.132268 1.684204
-9.407705 -8.906700 76.642471
-7.720564 3.225226 119.981598
14.798463 -0.093235 32.683830
-17.283243 6.279650 5.937278
18.236311 11.043569 11.341655
7.179833 -4.671012 54.668179
5.936091 -11.107859 103.622414
11.677724 9.284249 138.516891
-5.891664 5.903275 113.577484
21.632757 -2.854230 133.432617
6.319911 -5.195526 100.020905
-3.980299 -5.749582 90.269356
9.719169 14.322173 139.666519
-16.585009 6.877686 133.358398
-15.645351 -4.514214 84.223274
11.679127 5.200089 147.779846
3.292699 -13.324706 130.527634
15.481665 -8.366434 98.661858
-6.893475 4.518916 111.017670
-33.703384 1.349193 122.749893
11.176392 10.957911 67.549385
12.843465 8.701956 131.007965
12.172324 12.260179 145.774933
-9.742951 11.101404 149.606888
-0.614285 -15.574170 128.002625
-8.887533 12.031242 137.174347
-1.215651 -3.421945 160.666672
18.153831 -6.503260 3.097425
-13.152679 -8.994040 76.017586
14.127658 -7.868060 101.030479
11.090932 3.573260 122.010368
-21.123211 3.405448 146.753815
-4.841233 -11.881639 122.591103
5.502397 -0.467999 178.008423
10.762595 7.972300 38.490509
31.520901 2.129814 132.769684
-1.967862 -15.233012 160.418503
-31.665646 6.375837 122.654900
-17.960537 -3.961469 60.049854
11.474161 11.035457 88.502060
20.718163 1.697076 34.259209
21.531588 6.101439 45.172565
6.650984 2.100278 156.863495
-12.071021 11.095958 86.033714
11.737514 -8.600511 73.426048
-16.883238 -2.752965 66.478004
9.490391 -9.299588 74.637840
-15.577016 -12.607532 93.854927
-22.662962 0.425012 144.696060
11.591737 -6.180871 109.292290
-6.064483 1.118081 61.252533
-17.969090 2.079099 109.904160
12.459622 11.037574 133.121613
-2.016810 7.134459 155.329926
-4.806633 13.673871 90.401268
-6.843637 5.591839 169.716171
-19.597301 11.568638 10.861320
23.881588 8.022946 148.441010
16.267487 5.159137 137.596756
14.549816 -6.075271 106.464272
1.555838 -11.454914 96.792694
-10.699963 0.337463 160.600601
-13.322962 -10.018306 133.972061
-15.803170 6.460738 18.017256
-2.318516 5.648265 91.270523
1.037818 -8.971160 164.893066
11.551995 -8.043294 136.288330
-11.986912 9.284264 77.473175
10.551298 -0.374903 38.650917
7.165795 -10.506129 111.802773
17.908487 8.229927 18.021770
-8.151815 8.479317 50.060120
-11.828046 -3.233024 116.376671
-21.666100 -2.765850 140.942810
-9.006631 -7.296230 145.248749
-2.484457 -5.249886 84.864250
5.217735 -0.289720 165.353424
16.110733 2.701292 22.277573
2.739729 3.137245 65.903076
13.952490 -1.652072 131.355026
0.462100 -9.871907 91.838356
-1.627434 5.034781 116.545212
-20.681860 0.632486 78.035606
-1.622709 -12.788709 127.734894
-12.786103 4.795722 27.990082
8.251076 -8.799978 114.990486
-3.891811 1.007749 80.167374
1.992202 -7.722785 177.473434
7.853837 -7.072251 108.837303
-8.232754 12.767929 96.464798
1.618535 8.670284 175.470551
17.551249 -0.340831 89.339684
2.278826 -4.058495 163.146454
-12.891497 -8.584471 69.418037
50.461475 0.899757 108.317017
-26.602068 3.528232 129.588013
17.929243 0.256546 81.093628
-21.288197 -4.790575 75.968468
-3.051444 -7.644793 85.145981
9.713144 -7.576475 104.326996
10.724714 -6.750595 71.248581
-12.564474 11.543395 151.854919
-12.832710 10.761150 89.977112
3.087090 4.679325 75.501686
-32.619648 5.884386 137.017136
-4.178694 10.016360 98.362679
-10.084332 6.466993 123.439621
-14.824205 2.419267 89.066422
-2.172431 1.753963 83.025490
18.326649 6.405028 46.234657
10.507279 -13.923539 126.128998
7.715213 -2.986983 162.095245
5.474989 14.267640 149.314819
-1.898909 -3.209813 88.326927
-10.844848 6.464184 65.555504
29.463024 0.760329 125.425560
-12.992517 0.248633 124.959877
-4.562531 0.196987 149.416489
15.722736 6.039874 140.725967
-8.399586 5.030725 112.139870
-10.424406 -12.737985 128.369431
-13.641765 -5.350043 96.610275
22.461191 5.099177 139.673767
30.375572 12.543467 125.770256
14.858813 5.593743 64.213470
6.885558 -6.583677 99.048737
3.610377 -12.499623 126.565666
10.268569 -11.266240 110.467018
16.107447 9.334098 64.624893
-13.994992 -2.888425 55.141083
-15.836358 -8.112057 136.624908
-7.037122 -6.113087 129.907455
19.524796 -4.665337 50.875278
16.441784 2.017559 133.505005
20.417566 1.664252 86.001038
3.721160 -7.463201 165.644928
-51.613411 1.247280 108.024918
26.580343 -13.309266 4.768260
11.117695 9.789574 95.555405
-0.467558 -1.097780 88.858383
-5.105399 -12.365211 133.815811
-13.044244 6.489347 110.123779
-4.272149 2.754921 151.666077
15.785424 1.093812 145.495926
-6.108768 10.921918 131.143784
-27.415691 6.195816 127.443878
-18.343330 -0.772729 142.227371
1.035036 8.374861 105.900787
-10.036697 -2.735723 113.450401
-36.760483 7.444839 116.011292
9.378317 2.934984 160.119446
-12.190046 -13.960692 132.612000
19.901257 1.522146 6.188436
-50.280983 -6.723961 105.842957
6.617538 8.258121 84.171150
18.507668 0.835452 147.284988
0.870962 10.421247 86.300919
-13.074565 3.008822 41.657310
-4.240597 1.729328 177.637482
15.023258 -10.764534 89.905037
1.917900 -2.021042 151.138351
-19.087500 -12.513356 83.283752
-25.487743 -7.074919 1.315171
-15.330794 2.189000 114.887482
-18.771284 2.280240 2.936888
7.782676 2.674973 159.979599
-17.285467 7.554408 86.941299
-7.556176 13.270346 94.000572
15.520345 8.264895 54.000675
-8.989748 -12.880416 119.017159
-1.506655 -7.810935 92.197136
-17.853294 7.253827 54.396912
-4.965401 -4.710605 170.165268
-9.714247 -10.553276 144.323624
-2.747550 0.954528 89.019882
-19.370703 1.550579 149.386642
51.596416 2.239334 107.814514
13.448715 2.689943 128.544907
-17.387646 -3.626567 71.531769
-16.723038 4.891472 10.181214
-17.567356 -5.204773 49.600597
14.589913 -9.827810 91.634743
-6.278090 -6.325452 74.736969
6.632917 -2.107123 81.154510
52.877014 -1.516142 105.141510
-18.452415 -0.074086 79.940010
-1.305194 6.305126 155.261612
-11.520417 1.243496 50.639771
24.649803 3.921499 135.338882
4.419244 4.903343 174.393997
-1.050623 -5.161089 163.870728
-7.421980 6.680026 75.958710
11.643091 -9.871699 88.855530
-9.773164 7.705972 69.623009
-24.245310 9.084203 131.959595
-2.950414 -9.869685 91.487770
-5.228692 -3.943280 85.159851
11.400494 -6.500266 140.105896
-29.613451 0.618022 124.046715
-14.924298 0.859943 108.567917
2.524439 -7.128746 93.032997
11.633111 -3.048692 149.260025
19.696640 -6.854781 86.423615
-15.636825 4.960686 96.074875
-12.657915 3.027090 130.474747
-6.699447 -11.590448 127.339447
-1.946794 6.449003 87.104202
17.075054 -0.538896 68.778267
19.706877 -10.551746 80.733513
-13.076033 -6.086303 64.815018
15.234497 -4.364623 54.387169
21.255135 9.549048 24.447090
2.399221 14.321618 140.945602
-7.407289 12.389945 85.188454
-9.860688 -2.497481 115.603104
16.881680 -8.581246 69.152855
-43.552574 -2.373791 118.419083
-14.217357 -9.612336 121.665092
9.499630 -11.044205 97.545799
-5.793384 -1.577589 158.890869
-19.225100 1.517439 31.235603
-21.153709 0.847148 27.402775
10.161269 9.312418 85.408051
13.365072 11.095736 37.588688
19.776930 4.741201 32.621067
16.335186 4.828287 39.845943
16.746098 7.182228 44.268543
8.209114 9.004135 78.983322
5.336590 12.390971 87.814781
-13.215662 10.211825 49.280174
15.454983 0.717699 102.019661
17.871223 -9.861919 0.918377
21.454788 -0.333051 86.596405
0.196214 -8.146509 173.187881
-25.539286 5.780135 10.640230
-7.675162 -1.713898 60.796165
-12.511321 8.888272 83.183746
-1.174798 -4.788325 156.002090
2.204846 12.515882 99.965706
0.666266 -15.480361 124.674637
-16.314472 0.494263 104.267876
-13.723092 -9.101654 138.475357
1.946860 3.681340 121.292076
-6.780950 -7.143867 76.151810
20.696133 3.281575 47.952457
-12.641079 -12.937464 131.145737
19.309919 0.494061 21.215040
18.110111 1.628864 99.256134
13.168124 3.034484 150.171616
33.901192 5.693083 121.270477
23.404465 7.060588 24.135605
-14.355011 8.065305 81.449379
-18.556641 3.164329 17.784246
30.158175 5.572682 133.690811
-24.418583 2.400489 34.940735
-12.013935 -1.657181 41.406029
-6.760100 0.142131 69.735802
10.095103 4.445805 150.423996
-22.113756 2.747575 8.750730
1.070655 6.147444 148.103302
-10.101778 7.097507 97.433960
-7.911613 8.340690 153.357834
10.925216 6.111707 126.530769
23.106195 4.908751 130.822647
-8.851393 -8.230913 97.959595
13.696814 -9.052386 133.389847
5.485495 11.409896 153.243347
-18.355495 -1.162683 138.638107
-20.526686 2.706131 130.474091
25.789328 -0.004501 137.502548
9.268668 7.755274 46.876038
7.890304 -1.444666 82.773857
-2.129699 7.498005 93.907570
23.972021 -13.248568 1.306406
-2.540636 -7.233295 173.830872
-11.807692 8.060401 142.478287
-5.518621 -7.544988 168.098511
42.982056 -0.786374 114.641029
4.805449 10.539366 111.706589
5.781765 -5.172021 67.013161
17.217459 7.855811 51.831383
0.462508 -9.694872 142.924530
26.330391 4.545105 2.694271
-12.273928 -0.686538 123.639381
8.375562 11.233751 97.261337
-41.456818 3.955169 126.507904
14.371143 -5.861113 133.726791
14.571535 -1.089873 60.942848
-13.595488 -1.304758 47.590019
-12.489934 -7.562890 92.644531
-4.018994 6.412256 128.080368
8.610140 0.911141 64.179367
-5.951214 -6.493446 116.353859
-20.169643 -1.859515 75.156792
-10.223692 -9.814692 118.226303
10.026327 12.568600 149.884949
-5.407625 3.876651 72.233727
7.563898 0.142968 116.605278
-19.146248 2.602174 81.360985
-1.985426 -5.502408 164.230774
-2.763045 2.932252 122.626846
19.253601 -9.909253 91.116257
5.119053 4.884898 79.236038
10.084515 -0.495656 120.602058
-21.063681 -12.073602 2.879784
-15.279705 10.882041 35.384270
3.740503 -8.482841 157.618271
56.597363 -1.681104 101.183136
-12.922304 7.732230 128.877472
-10.364708 7.796798 57.293739
29.296318 4.782470 131.929489
-2.327804 -4.177042 84.337975
0.885270 9.316461 162.021744
27.040680 2.361679 5.792621
21.756678 8.010586 2.185079
-12.779278 0.784491 103.638153
-8.691694 8.255020 36.204330
-0.377613 -2.378600 162.874252
-1.198699 -8.707478 118.951073
9.590232 9.875274 148.336929
-23.842077 2.798681 145.052658
-9.644855 -8.765242 81.097183
-14.268540 -2.458848 116.368896
2.377707 -0.562063 72.270355
21.409554 3.049490 2.046871
0.451647 -6.944038 167.691162
16.706476 12.533996 40.810921
12.881620 -2.334325 118.162170
13.343631 11.633702 148.884506
13.134015 1.401291 131.519196
-11.876060 6.161585 130.743149
-5.673800 -9.326945 121.962029
19.091391 3.983575 69.506454
-36.495605 8.464920 123.821815
-17.476160 -1.128127 54.594883
-48.243614 -2.323825 104.393120
-14.828568 0.260062 114.840454
14.335360 8.091058 54.827759
2.336764 8.480211 149.082443
-11.569476 12.788587 38.813686
14.246181 2.427519 141.161606
5.107660 -10.033903 102.078606
25.540751 8.249120 136.296799
-2.244458 12.434663 141.093597
-17.332666 -2.406834 137.989685
-50.874893 1.322195 116.697197
29.528193 8.707563 126.973579
-13.888521 9.596305 49.446304
-18.874969 4.660666 84.375961
6.586614 5.740925 161.045410
-1.541245 3.678351 116.832657
-19.343758 -1.485866 96.820251
9.857096 9.722704 151.520859
-3.266158 -13.485891 121.492111
-8.664850 1.982556 161.807983
-7.334489 -11.263188 133.629807
1.156772 13.461721 142.852325
15.279683 -9.397069 130.044876
-1.386046 11.342745 157.534622
-13.812040 8.946719 87.760483
-20.316380 -7.744620 80.599495
-18.970049 1.613000 87.512543
21.032221 1.735099 33.942665
-39.252525 7.751859 117.971481
14.232464 -4.498003 120.092979
-9.139927 10.350373 96.835823
-55.325684 -8.277106 108.996834
0.206451 -7.258836 178.270004
-26.900978 1.249742 123.935463
-9.864071 -5.548446 145.988251
23.246178 1.841841 52.022736
-19.278908 -1.645458 94.821297
-4.540999 -0.861351 151.227280
-14.964163 -5.515695 102.016937
-1.058372 12.697386 140.143356
-21.202627 7.439461 130.391968
-8.060713 -11.876081 92.944427
6.036685 -6.977986 90.961975
18.707237 -4.791464 88.887894
0.773155 -6.116843 158.100906
-15.838219 0.743055 52.955803
-26.046446 -1.741396 91.700172
8.622113 -2.349151 57.255333
11.839662 3.243939 59.734779
20.046148 -5.241137 68.761253
16.739420 2.370299 30.761997
23.125360 -1.663841 3.817901
39.060181 2.333673 119.472122
-21.695890 9.769040 36.501747
11.212749 9.416343 78.394196
-11.320848 -1.147383 146.358521
-18.175968 5.696234 69.030861
1.844096 -0.219355 152.751297
6.563739 7.369659 49.334000
6.109959 -7.697143 83.813850
-38.542854 -2.281690 127.630676
-16.527739 -4.976619 101.705399
-3.037277 12.414113 172.285751
-23.866598 -0.587205 68.271957
21.478655 8.862039 6.052063
24.316837 -6.254439 -0.249016
20.403362 -2.870597 84.986984
2.500679 -2.888350 148.117401
50.201653 -6.658014 105.140076
12.554192 3.700624 102.391800
-0.023460 -15.356937 110.298531
0.514656 -6.810010 176.159988
-11.719816 -5.260130 68.817055
-4.736650 9.264034 83.167809
-38.502041 2.048396 120.529366
1.830486 -2.926767 149.640350
-9.690948 12.803261 143.983551
14.564829 7.328630 88.387550
10.272323 1.653446 113.577774
11.066417 -3.787575 67.678337
24.952141 4.348938 17.036289
0.780244 -3.814082 169.404312
3.336299 1.015569 160.747757
-2.035035 -8.033798 89.171715
-9.943409 6.139346 104.759232
17.026093 -9.165918 95.994041
5.986856 10.515488 137.081985
-1.572046 6.626252 164.899414
-23.281597 0.522580 145.688477
-40.818729 8.046850 123.161880
-4.724782 -7.255843 78.112762
-6.720646 -11.828649 115.010994
19.160017 6.933603 76.333534
-24.711554 1.314419 2.049855
-13.229056 8.772729 90.395363
-12.270414 -4.830605 80.958870
0.524482 -10.164137 104.499443
21.595617 3.614394 72.411804
21.305689 -5.904836 2.624578
10.794665 1.872783 109.486549
13.719752 -2.141020 143.912399
2.967131 -6.935337 169.255219
16.891882 11.600303 33.213379
-17.206964 -2.287331 90.952667
29.669838 -12.129589 78.721436
61.788185 4.576628 99.649200
15.143386 14.209563 35.191460
-1.818428 11.456827 102.008041
16.107014 -3.215506 104.743454
3.491281 -0.727718 147.708618
-34.706673 6.440568 119.036186
19.013710 -1.117865 114.477852
-13.235912 -9.715951 138.778107
6.552282 8.788891 113.968422
-48.848652 1.341586 115.680756
13.842779 -7.307931 68.843796
-19.073357 2.015121 87.821510
-19.731525 2.751345 61.284512
-4.779379 -6.841186 168.324295
24.093704 5.199584 2.502431
10.138352 6.418935 37.707626
16.871901 0.678391 14.494946
22.594086 4.633541 16.163105
23.025200 4.734127 54.150234
46.050484 1.178270 114.469864
0.449348 9.947013 173.401810
12.843426 -12.107366 108.224747
-12.985655 -13.028661 89.348961
-8.437718 -11.454255 107.032173
4.939055 10.869983 145.463303
15.368819 1.554276 31.523897
-8.253520 -3.357271 59.111187
-42.846264 4.557749 125.111855
-44.487228 4.116155 116.461815
11.385111 4.968131 75.562500
-0.686639 4.840367 117.408226
-15.155979 0.702924 18.515593
-13.534153 7.799221 83.414085
-4.629793 -1.651884 155.918518
-2.052872 2.468709 155.189087
3.407331 0.413239 67.257416
-0.227349 12.468051 168.607346
16.701509 3.269721 98.040939
6.542611 0.060249 146.875626
4.063712 10.726369 89.078674
-1.578767 9.935549 97.595657
11.515052 6.907269 105.729774
9.651661 -3.563523 131.435059
6.650169 -4.533618 150.354202
-8.964844 -7.958211 138.313660
-12.496695 -8.158382 91.823982
1.429034 -9.186390 131.017914
-17.560366 5.401755 98.050026
-3.472530 0.509219 87.985023
18.379026 -3.914074 86.838753
21.719217 10.009089 13.979236
3.098862 -14.120360 118.810265
12.086321 -10.455936 97.686363
20.807407 1.808805 151.859131
23.754993 6.009963 134.908539
-9.683022 8.779079 70.199509
-34.570610 4.850302 118.849144
24.174408 -3.114729 5.398674
-5.633798 -11.505864 114.468803
-22.084751 12.720660 136.384766
-5.064553 7.479614 167.168106
3.568226 11.669524 170.751328
-15.946476 2.189391 127.617058
14.441273 -5.751112 101.812805
-5.160557 0.383837 118.759689
6.222590 -13.005779 130.717010
11.105533 5.405762 149.075882
-1.703932 6.881365 110.544029
19.557970 2.951520 89.125648
-27.688292 -4.103940 4.642566
17.342138 4.604045 88.734322
-17.764803 1.096977 32.073692
13.024225 -4.090094 96.402473
-7.054472 7.602258 127.595787
-6.278902 6.475185 81.402565
5.708772 15.349422 110.358902
-13.427868 -0.567904 106.732933
-12.654848 11.317281 92.254723
-11.624510 -4.805111 88.326065
28.499636 7.039237 126.856163
-10.029753 0.266289 128.601639
13.847719 8.721594 48.370758
-7.182896 -6.341558 87.597305
-13.252011 6.785776 108.597450
-13.297953 -1.910100 127.601196
3.605624 14.655104 92.588051
4.774075 11.064195 126.089890
-1.675517 -11.182981 119.769958
-47.645298 2.071733 100.450302
6.422839 7.323145 127.750832
11.329545 -9.931808 94.277077
-4.274387 -9.681798 85.086700
14.157022 10.622019 26.599268
-9.737362 -10.265378 96.811928
19.859661 6.649293 43.357868
-6.206203 3.964308 110.488907
-18.496569 9.459170 20.489904
-38.756458 9.417197 119.942375
-27.124340 0.160517 128.553680
2.771618 3.366404 80.916931
-1.451469 0.892418 153.481522
1.456061 9.010603 158.995438
15.837528 -10.411283 94.355110
-4.286951 -8.103215 98.272926
-13.060569 11.391058 48.558243
-5.079962 4.355793 121.408722
0.861716 12.192004 93.179489
1.776271 3.384831 103.230858
-3.054983 4.795008 120.347046
5.073708 11.102541 133.731552
-14.941017 12.504970 107.792999
-21.872189 2.902751 16.933708
1.004179 4.580722 153.999283
1.726077 8.938056 154.995010
14.547192 3.582148 134.505081
21.645008 -10.050765 84.396027
-1.605940 -7.446781 166.991943
10.259371 12.690500 138.803467
12.441046 4.464896 63.575703
-1.829952 -13.156761 132.361069
4.472153 -6.784185 174.716293
12.629995 9.560453 141.874161
10.485349 -4.948853 59.339931
-4.430683 -3.317524 156.055359
-3.931043 -13.709028 121.516098
-1.889087 -9.443762 117.852493
8.296679 -8.007431 81.070671
-5.012195 0.518267 150.494232
14.238231 -4.191880 98.028793
9.648353 2.849841 122.997307
-16.686312 7.303098 85.001419
-8.436925 -7.492329 127.420761
-22.831402 2.765884 5.569500
-22.240398 4.116128 14.068093
-16.713493 0.707219 79.911369
6.970203 11.722124 134.760864
-20.487963 7.908067 7.428681
-6.508557 6.836586 60.352379
16.528023 -2.272285 53.642311
-9.894976 -9.932528 94.979187
4.195096 6.725363 155.484619
-14.475590 9.071170 101.387421
-7.985822 9.240832 89.734398
14.807682 7.439425 150.915512
0.489827 7.086675 113.473747
31.758900 4.787634 132.254272
-52.547234 1.858261 111.933067
-10.899695 0.935560 112.016685
-8.288352 9.572403 148.744720
12.090933 -6.631677 98.669243
-14.576688 8.484869 35.294140
17.799448 3.863345 79.730339
-15.825178 5.262657 140.521545
-2.944301 13.840035 92.916367
-31.963781 8.843602 130.813293
-19.883951 1.841417 46.949467
4.064679 8.847328 71.407082
51.337364 -0.960396 108.282547
9.278805 -6.091453 121.414169
-9.213710 10.006508 99.710938
12.951209 9.275690 133.267380
-19.886457 6.694562 91.401314
-9.315908 1.767599 85.080856
-23.225029 6.929113 33.180817
8.673593 -12.063434 107.788521
17.613123 -2.725900 146.505096
-3.470921 15.365518 94.133583
-18.964186 10.848485 143.973557
-0.788165 9.602787 117.915291
57.909531 -5.002841 100.715675
-11.841903 8.362921 125.682579
2.951966 -7.684956 143.192856
19.420345 11.235506 141.547821
-9.993598 -0.769407 113.869415
1.793601 -13.622756 109.322090
3.675095 -5.720953 85.306839
-18.822762 -8.556912 100.362366
15.209114 11.641086 31.453512
2.908291 7.605092 145.206619
19.811357 -7.787650 1.951385
-16.737429 -7.725054 91.604111
-25.004173 2.271703 132.115601
11.791617 1.387524 126.261200
-64.708000 -0.614587 100.808594
11.365583 0.713750 47.564144
-31.017948 2.356464 132.979248
15.946095 4.650963 94.529404
-18.490812 5.862251 18.122414
9.530570 -4.234902 120.326485
-2.817189 7.212389 120.917656
-11.746364 -3.352805 113.140518
23.109039 0.900291 26.167101
6.522566 6.786127 177.700562
-1.263067 -1.041492 82.843971
-15.957113 -6.980724 129.872711
-7.798611 15.097731 92.482025
3.166049 9.859163 90.507149
-7.244277 12.949780 124.077492
-2.835342 9.538607 130.720261
-3.917249 7.311412 162.554504
-16.803101 9.485380 2.757217
19.543419 8.593461 33.063450
15.950859 -7.598552 92.422325
22.012987 13.267824 21.150375
4.643133 -5.439852 175.489059
-16.880070 1.114624 58.070339
3.209736 5.810447 94.020699
20.196651 10.726826 29.130388
7.997900 8.835763 81.560287
1.777136 -10.888477 130.393250
0.097008 5.829943 128.729004
-20.868690 3.495045 54.585228
-21.011084 5.642867 135.233978
23.388382 1.645190 11.566745
58.645401 1.508854 99.909782
5.858867 10.334803 99.015602
1.095031 7.902754 84.867462
19.658352 3.937429 13.263353
1.527352 5.803885 86.179543
0.059989 -10.454840 102.932945
-0.856663 -2.222385 82.073296
-17.524040 -3.156522 92.570419
14.333956 10.863217 18.502750
-6.815815 5.072688 79.580048
18.800598 5.209382 89.822403
9.972326 5.520793 128.063812
5.158188 4.886428 68.850075
-14.012857 -6.996682 138.798447
-5.136559 -14.867423 109.544197
0.477634 -5.871135 168.396866
-21.288237 1.828729 38.288242
-6.887365 7.540509 114.775940
3.577513 -5.017992 163.352859
30.436165 1.701594 120.448624
4.026299 8.525877 147.515503
-8.286721 4.403590 49.282539
-16.533726 -5.669614 60.673508
-15.624331 -6.502406 144.206787
-5.003963 -5.806953 84.927803
-11.754523 -10.909155 100.810463
-1.314603 -7.165380 137.808212
1.552930 -5.528791 165.724945
-9.711241 8.694108 63.124836
-56.894325 -0.068078 99.047508
17.762871 6.605235 157.670486
-16.534513 -7.035879 91.612175
-27.510908 -7.578352 5.020406
19.733637 0.256896 14.076869
43.231865 2.092033 122.369629
1.656398 4.634632 113.617805
4.250030 -3.125279 146.248428
7.884894 5.871351 55.318489
-17.010530 0.557031 99.776176
-44.825348 1.078425 117.844337
-18.622585 3.867983 2.594495
-45.313522 2.406832 114.849510
-11.253682 7.615115 99.023758
5.234283 8.560977 105.350227
-13.027429 3.658034 34.967251
-4.016615 -6.956924 97.260803
16.086899 -4.067168 50.931896
-25.604399 1.629307 132.771530
-6.511750 -7.271147 88.698456
-8.890391 10.000175 45.248241
19.825260 -0.971243 87.806625
-6.913350 -6.496489 164.723862
42.951187 0.541726 109.602097
7.614254 -15.208173 134.750122
19.032457 6.377235 75.485664
2.747802 -12.296887 100.313034
1.488053 9.912450 105.711884
4.579393 -13.572061 114.875801
5.621153 7.519717 107.556282
12.134310 -3.387049 141.838486
-42.593994 0.851463 121.456337
24.313122 9.888506 24.653639
-10.392340 11.261745 127.459801
-12.726249 -13.099771 84.542152
-3.789666 10.225814 104.473701
-43.782841 6.395695 116.139931
-3.307771 8.300604 92.132332
-11.845120 9.594052 85.826897
-14.978571 -1.562205 141.993896
7.095664 6.279016 129.817795
1.147544 -8.765871 127.976929
6.549144 -7.109123 102.077187
-34.156754 -0.055187 121.113739
1.069066 11.011971 132.921677
-12.765362 1.123915 108.150146
34.427734 -6.895056 5.501939
17.279055 9.666249 41.080463
-12.885518 12.198287 137.213715
-26.069132 -5.732065 5.008790
-56.445087 1.177196 99.639603
-4.106239 -14.842533 111.702766
-4.269542 6.969770 124.218918
-31.258144 3.730695 131.325821
20.589783 4.039556 24.933384
-10.744101 13.765498 88.116310
21.817020 -7.661352 80.880402
22.234491 2.438922 141.295731
-1.670867 3.666413 111.967979
14.628935 -2.680599 106.514839
-4.282000 -11.245776 107.744606
-2.526853 11.271923 91.979164
-12.602203 -4.497402 138.549316
-51.224903 5.311706 103.978836
1.774708 10.781637 93.559425
18.118778 -8.155295 124.355164
15.100792 -11.212822 88.541809
4.604611 -2.971940 156.716003
-11.522717 -1.931794 144.097672
1.707493 -14.838887 116.628113
10.938096 5.363935 154.253708
3.213677 7.499934 175.946259
5.127980 4.687678 88.303040
10.996702 7.698824 96.801254
-15.673748 7.650733 92.795815
-1.506012 14.523960 93.057495
5.461770 -1.438530 164.652023
-13.127928 -7.711123 137.494125
0.415765 -13.884201 101.000000
13.905190 9.573021 47.494961
0.989679 11.588720 132.194672
50.123642 -4.379980 108.746010
7.179760 -10.240023 82.242989
12.599236 3.382767 109.788231
14.282469 -3.230119 112.657494
6.306911 13.252328 98.611076
-19.668638 10.221721 15.539767
6.480268 -13.996406 101.483177
50.015316 -0.837084 109.665184
19.717678 -7.878202 75.920929
-14.357601 -6.236386 102.837044
12.386618 -13.019017 84.994049
19.979107 2.567474 90.021179
-18.772047 -9.249275 91.438805
-13.570078 6.297496 41.727798
-0.771108 10.289823 132.207031
5.032176 -10.758932 88.999939
-20.059031 3.577662 89.267746
13.433270 1.234937 112.435844
5.903036 -0.419056 179.444046
-58.302013 1.212709 97.942398
8.400553 7.495631 87.132957
63.660851 1.429172 98.073494
21.062920 8.181529 81.327530
-0.573699 1.934240 157.066132
17.390398 5.489972 10.424238
19.531809 8.407677 27.431158
15.361399 7.531131 91.290970
-16.799112 16.376749 38.497543
11.649550 8.181031 78.788788
28.523371 -0.012760 129.103821
13.645810 8.872906 73.213509
-28.926683 0.164944 8.580291
-36.176140 5.718462 132.027878
0.136629 12.230295 136.196457
4.985881 -0.853633 64.805946
13.654655 -4.754111 109.382057
-14.574549 -9.605321 87.199112
45.361031 -2.325780 117.371193
10.306368 7.345233 102.616051
22.047071 8.293094 142.051239
7.624801 -2.023796 147.719269
-18.797476 7.295136 91.117607
28.896473 4.314900 126.614967
-17.957367 2.106283 2.295266
-59.689201 -2.417867 102.043541
11.830116 10.070340 153.962906
-11.216022 -3.367938 75.338837
-12.841834 -11.347850 91.080833
-3.697510 2.994188 84.045128
-1.396399 8.060658 99.807816
19.411690 -3.357486 96.960442
4.006588 4.506989 178.936142
13.965472 10.950027 66.422523
1.740540 -1.229881 155.705460
-33.981770 12.963608 122.446075
-59.624107 -3.675025 98.557228
-19.991554 -0.834416 7.669012
-8.880597 8.488679 40.137802
0.576162 5.723942 86.916504
-2.623655 -14.655324 125.395546
6.836175 -2.161213 53.700199
-21.440086 -1.111912 90.668678
-14.532363 6.679406 27.782743
-52.783535 -2.688884 108.142784
-9.105650 -0.585854 78.536606
-2.563305 10.304621 173.431534
-16.625950 9.502911 150.036179
0.072136 0.814905 85.678963
8.541001 -1.321961 152.839371
-5.459866 4.456757 159.177231
19.004595 -9.295831 90.246254
-20.495050 6.750243 57.640675
-14.004147 9.040299 106.437820
-7.951403 9.707869 148.325500
39.094738 0.810723 124.900841
-20.703869 -0.202399 133.256119
-11.062645 7.983431 77.509308
2.196011 4.553992 90.051521
-7.434460 9.287533 94.806816
13.162688 9.598834 136.368225
-0.193567 -3.230879 162.489243
-10.871502 -6.818427 113.944397
8.314855 6.619990 150.623703
-40.315247 5.567493 118.846092
2.799902 4.672631 179.593613
-53.404026 -6.101371 103.933205
18.104296 0.323200 139.446518
-22.142410 10.537941 11.688184
-23.601517 -0.516556 129.593140
-29.692717 3.152719 121.726219
16.640587 1.189606 104.337151
7.929154 7.439850 122.479813
-19.858839 -1.207595 90.173347
-14.752340 0.586699 103.745117
-17.660627 7.560773 81.896782
-22.427820 3.650522 133.479538
-38.116619 -1.711929 119.714310
1.009188 -15.616676 139.496185
0.432396 14.418097 94.781631
25.927443 5.690773 138.775757
24.509460 -1.186055 -2.965196
12.221353 -7.785806 140.249344
-30.465075 1.952384 127.634079
8.659739 -10.337049 105.045410
-18.334946 6.186791 147.513428
-3.194066 -3.577525 78.124344
34.690388 1.496486 124.446754
-2.177481 -4.471617 81.933685
7.192037 7.753229 103.335312
14.682974 2.039419 67.160637
19.506290 4.981399 87.532394
52.126328 -1.941826 102.851601
-1.606702 2.186547 77.764175
10.684363 7.112938 64.315521
13.000331 -8.791930 100.302612
6.642655 7.171556 150.185013
8.390501 9.577441 105.651939
-15.244174 4.755717 88.196877
-1.072170 8.846394 110.503189
13.612474 -4.735075 105.819229
9.301051 -0.955259 142.762268
3.449052 -4.425518 86.350883
-9.747414 8.705447 66.247261
-47.804707 -7.271244 113.743752
51.981659 -2.398048 108.940514
-17.257227 -0.243969 52.158806
-1.783719 -2.168477 89.148964
5.662560 12.449304 168.702011
13.954749 4.674423 128.338821
19.750359 5.783945 6.073226
-52.294666 -6.719577 104.585449
7.661348 -4.348857 70.533379
10.285956 9.078459 77.189941
-2.256766 8.870421 105.059799
7.430450 11.139867 105.571808
-8.538984 -8.259933 61.824074
0.082083 -10.049579 177.659485
-6.318055 2.857218 160.505661
-17.063738 4.203563 79.625488
-0.556976 -11.075714 121.044304
-3.119579 7.074139 68.930496
-18.893272 3.176212 61.873859
17.014795 -6.253246 109.493324
9.829145 -5.716340 145.296600
-11.981733 1.317748 60.901806
11.923368 -1.081546 45.665977
-1.660211 -10.062921 92.579308
17.055445 6.061321 2.702451
32.301365 10.213774 123.164436
15.993462 12.620882 42.179771
1.265220 8.911582 134.863190
2.921843 -2.374625 162.584427
23.937031 6.035641 30.110512
9.568158 4.880270 50.990284
-19.072086 3.223302 14.802489
-15.568973 -7.711933 55.877979
21.826998 6.531715 134.705109
-13.189719 -7.103343 113.884491
-10.409348 9.254806 149.771317
-26.325212 4.072035 7.400126
-28.179497 -6.414624 4.094219
9.965043 -11.081943 131.728699
5.864153 3.244344 65.604301
-6.810939 8.059035 116.034363
-4.957525 1.640506 60.479469
13.098545 6.829106 101.270592
-4.019040 13.728563 153.240265
-9.886833 -8.440851 125.403969
-5.077294 -13.938313 130.240540
15.080631 10.958416 41.887764
11.205437 1.054196 71.634399
-7.102872 9.937599 131.404175
2.466413 -9.017344 147.779327
16.238102 -1.884885 147.434860
11.199493 3.586771 105.979164
10.191606 5.927832 101.672989
-8.402730 -4.385729 72.443268
-20.436146 0.721380 98.871246
0.723603 9.275220 130.414490
-3.303642 0.790865 83.195541
-24.364946 2.204390 129.917969
3.928666 15.227030 145.745636
17.497650 11.524935 4.921616
-8.622878 -1.627094 48.195213
-7.389323 5.372798 124.096275
19.639206 4.821089 47.717659
-5.091447 -13.656123 135.916382
20.899429 -2.404023 97.462914
20.965380 9.186677 16.133068
-1.576141 -16.236227 119.405548
23.257851 0.202892 78.317253
-19.427593 3.371449 71.622131
18.283457 -11.179379 84.836426
25.445429 5.763210 135.865906
5.593791 8.117947 158.711548
-19.725769 -2.854906 28.163620
5.840514 -13.547426 140.831314
-17.334803 2.661590 83.940445
-15.631310 -10.001044 84.027977
-19.203131 4.843525 10.305188
25.375490 5.692884 124.681602
-14.739738 -4.061187 100.698761
12.435588 4.355893 111.394859
-51.935390 -1.780432 103.017815
-2.579845 8.898180 146.819763
10.999926 7.305943 148.919342
15.079927 2.930501 111.470711
12.372457 -1.537446 120.551155
3.560282 10.206851 81.944710
-2.719482 -11.029441 93.767151
-9.543539 5.642509 104.629082
12.528609 9.592793 136.736099
-14.654402 11.091997 95.875717
-10.373273 2.441390 119.310013
13.176225 -5.031672 101.196999
-8.643674 -8.902646 137.942764
14.287604 -11.208632 79.379150
1.846870 5.425089 82.305779
8.965900 -8.625095 126.212090
-0.629771 -0.840837 152.717529
6.069409 -5.385234 96.924126
-12.008068 6.489617 84.221001
11.382078 3.251747 114.528603
7.288280 3.826175 110.578239
-26.738953 6.545836 130.962112
13.753815 -6.352775 60.164257
14.841499 -4.794058 107.601929
6.478087 -8.026749 86.167641
-12.936091 11.456281 95.900757
-6.120044 12.419930 97.147720
2.715763 -7.808904 163.649841
13.761736 1.997116 95.501846
-0.818908 5.951391 98.346077
-7.206729 8.135373 34.986519
-48.528404 4.991282 109.571594
13.411796 4.612950 37.744503
1.996241 -8.955858 143.466797
2.094920 11.072159 105.544220
7.975279 8.161553 151.953461
-11.254946 -11.234215 96.563148
16.341053 -3.070936 106.174820
-50.631687 0.833771 111.615295
15.370488 6.164089 81.167236
-7.663856 -7.535134 95.121651
12.604465 5.790716 24.613152
8.528942 0.616418 51.413197
-14.608974 4.784942 103.018272
-17.723213 5.873553 56.675140
2.205882 -11.927748 114.628059
7.933874 -10.090545 111.841103
-5.075830 -7.060081 90.896980
34.066769 5.149531 124.012505
-15.577638 -2.706549 132.453369
-5.125380 0.876328 164.705292
14.083605 7.324817 76.794365
-14.140688 -8.363128 130.841553
-22.064762 -1.996641 95.678169
-14.138782 -7.251938 134.169876
42.930634 3.930492 112.326591
-0.590555 7.840008 131.199295
4.948905 -4.121303 83.964874
20.654585 6.538974 147.491913
-13.030238 -14.382034 74.639328
-5.935088 -11.200766 139.014053
-3.301088 -4.110507 90.102913
-19.088182 2.391841 138.617416
-21.241512 7.769438 131.590286
12.867490 5.697636 124.257095
11.172325 -12.249327 105.540321
-13.194326 -4.399253 103.461510
-6.741516 -11.520683 105.344246
2.194360 5.412362 130.820862
-12.011806 -1.685307 117.590912
9.685019 -4.234098 91.603111
-19.715111 -3.392743 132.152328
7.954585 3.265085 170.302078
-6.540193 -7.437198 83.570358
-4.141644 -10.410505 146.352646
13.717140 -7.206504 129.896210
-1.904695 0.009028 80.716614
11.457333 -10.537449 88.742828
-15.318104 4.055142 36.347881
1.801801 -10.407929 173.314331
1.587926 8.976420 129.175873
14.336801 7.568085 83.700180
-0.515446 -7.239314 154.468048
-19.531404 0.386708 96.986931
-14.774527 8.828253 134.638458
2.779395 11.848037 142.973160
-10.199148 10.768917 144.601578
27.656202 11.360793 125.885422
-18.189909 -2.620129 90.806000
-4.074021 3.995603 103.344086
31.961477 4.684924 130.296692
2.467972 -0.159402 164.376984
-1.177582 -6.307847 157.673187
18.071472 -7.258804 84.175552
5.394125 6.700195 37.426319
0.246024 -14.038618 123.811333
-6.030918 -1.511526 169.243408
21.934669 6.386409 139.710770
7.303839 -8.054772 110.468483
-10.599333 4.088816 152.486679
-21.857048 6.801007 141.102356
-21.450428 -0.700275 8.592027
-16.423609 -8.299595 84.938316
-13.885380 6.843554 130.334381
21.561251 3.075448 3.500231
-14.478982 -5.082844 83.194855
2.763328 -7.816792 152.935150
-2.829032 -6.550419 162.654037
-10.089292 -1.773668 146.621979
-41.348976 -1.419907 116.011177
-1.665931 -11.964547 113.993439
-35.406635 7.496894 129.003311
-7.728301 -3.320567 145.608795
-5.881740 2.586364 76.109871
-19.139437 -7.486357 82.058815
-56.891148 -5.226369 102.666809
19.723812 4.280590 78.491913
-23.838575 9.151386 0.783365
26.016830 6.386328 3.999038
-9.783036 -13.018227 124.859756
1.367779 13.561661 126.543114
10.381886 -8.450247 105.989761
4.988120 -3.764094 90.729980
11.252357 0.312405 130.721039
1.410399 -9.757332 91.411873
15.873394 -6.604535 114.265663
2.856806 -8.936663 169.206726
-9.396107 6.482099 82.640266
-20.867355 5.237778 25.794176
-14.458742 -11.667247 133.319733
21.542528 2.503929 15.390280
4.649467 9.991269 138.904022
14.975670 4.310554 71.025681
-48.895264 1.180335 111.320290
-2.938822 -6.817449 158.148438
-28.286325 7.311520 136.400085
-2.065660 10.885251 151.922745
7.513982 -5.890629 73.198364
-9.158412 -1.380655 173.294327
-23.917114 2.553635 33.343712
7.019132 -6.505646 172.095795
55.167786 -7.502204 103.595108
-18.064659 7.965945 44.329838
-5.775054 -6.983000 175.135590
-19.340687 -0.625341 133.859543
14.172722 -8.440873 97.299454
-19.579487 3.230918 12.054903
-2.904887 13.340966 141.755142
6.993833 3.827990 175.831573
13.511303 8.741413 78.038200
18.374846 -4.738153 55.098480
5.889653 4.715333 170.379715
21.303230 8.342891 42.205036
13.098257 -9.575870 110.720284
-4.006691 -6.745642 145.764160
-8.951657 11.192290 128.672867
-4.111377 -5.355832 175.272568
15.034165 -4.204021 115.999565
-40.769394 6.205466 129.559601
-18.506954 -4.609379 83.121155
-22.581146 5.459980 40.588436
-4.666844 -11.662066 128.441742
1.207742 6.905426 89.219086
33.286770 3.519767 133.029678
-23.475447 4.282484 146.309692
-3.116473 -13.814587 165.131470
-5.476507 -7.501912 162.187607
-11.999762 -9.546099 131.849106
-1.410080 3.307812 81.764374
-4.260636 -8.784668 89.248840
-0.978412 -9.819866 126.093956
-10.403069 5.747167 151.418304
11.631968 -4.529080 56.357342
-7.138538 -5.170780 165.273087
-5.250629 14.502460 141.496964
8.075938 14.047095 146.993317
-51.235386 -6.085990 104.719032
25.076315 7.577527 6.538538
-0.549535 8.004920 95.588165
-11.853572 14.745391 93.314285
-16.695541 -9.800299 51.744461
-56.065090 -9.429731 104.443573
-27.827774 0.550114 134.036270
16.676582 -3.445064 84.046982
9.623197 7.980328 152.217255
14.466562 5.710899 134.399338
-7.162903 -8.027387 97.034714
0.996862 12.013266 134.296570
-13.598365 2.208455 126.356224
-47.093750 -1.519143 113.458633
-17.892372 5.284173 132.955841
6.014760 -0.707034 66.547157
-15.321399 -8.111608 128.723129
-18.270573 -1.088573 129.408478
12.047354 10.406424 136.591751
-10.941539 6.844476 41.561665
6.552399 13.051820 93.397400
-16.354301 -5.334297 88.757164
7.910748 11.815855 105.260216
3.231818 8.347173 172.086563
4.455453 -10.437968 120.874634
-14.826876 10.612066 14.682647
14.352986 3.169310 104.923019
-12.039133 8.005827 52.334259
11.548440 1.891406 41.604012
-3.080116 8.893495 176.777634
37.818924 1.612537 125.988464
-1.341777 -12.533494 105.167488
-14.676106 -2.388217 110.867104
-10.442641 5.192140 104.422798
13.493004 -8.186810 136.669022
7.446278 7.464843 66.483582
10.520344 -0.582071 50.785751
-28.563068 8.516802 122.964836
16.576511 -8.182987 92.942169
20.741291 9.616949 45.685360
-13.579797 -4.767217 65.224182
-3.534907 -11.831647 105.725388
-3.266309 13.779335 141.043182
-6.633643 4.756460 164.812103
14.443672 9.936777 76.208824
1.652070 10.203117 87.522491
-18.203835 8.913806 42.033920
4.533054 1.242126 173.186859
-14.728521 3.529786 134.286194
-16.895933 6.253356 72.570976
1.559857 -19.624851 123.725510
-10.760479 5.198560 155.486923
-8.588549 6.128776 59.699638
5.119764 6.935960 116.567741
3.960438 7.258258 157.791000
-12.903045 8.636920 77.371643
-13.299491 -4.612674 74.607330
-17.164774 -5.473920 136.684235
36.375633 2.206715 124.134926
3.157960 9.378320 100.405640
26.332817 -7.559326 6.204305
-14.926072 5.613549 98.864235
-16.678076 -0.392808 31.173203
18.476341 7.113230 7.326989
-4.202870 10.323878 126.416481
-7.532069 7.181591 120.451942
1.253467 -11.265767 102.955200
20.256310 3.369072 82.381737
53.616249 -3.183317 101.701546
-21.414322 1.159453 3.247496
-13.202992 3.570463 90.584373
-28.024824 -1.936620 7.152027
16.002796 1.731170 45.814339
10.008001 4.762639 142.997025
5.061820 0.397123 77.590004
-25.125851 4.603637 140.750687
12.281189 3.006870 114.672836
28.745396 12.432904 128.300354
-22.658867 1.436979 10.861072
11.604447 8.080926 53.049160
-18.682497 1.409560 95.279991
-23.572020 12.163278 13.362510
-2.500090 -10.622281 136.174774
-6.461680 -12.218367 126.938553
-35.132938 1.136005 118.699448
23.495810 4.091595 31.474007
11.959026 -1.855561 112.076408
13.991823 0.102612 108.639168
10.336905 -6.037326 74.345024
14.279438 -10.223130 77.921066
-8.245712 2.094554 147.652832
-10.903700 -9.372615 121.993919
12.384406 9.430807 138.509155
17.909781 -11.776359 79.784149
-9.215109 1.009891 79.397652
-0.738008 -0.158081 153.090118
-9.934484 -6.470508 57.970345
10.423638 2.719454 110.633232
-10.154406 -8.058678 86.895248
13.611918 -11.400993 127.312134
-3.160810 8.926859 152.389755
14.981794 4.286387 97.501625
-19.260902 -6.312871 96.511841
6.858197 -4.108061 115.195839
-0.665514 -13.196094 109.570503
-13.748327 -0.446197 53.164589
-14.150762 -9.033084 68.125313
6.909364 11.611198 129.288788
-6.242135 -2.576780 147.579254
-0.368129 -12.101927 107.805450
-6.593790 13.751868 93.930176
16.176628 -3.853912 77.071342
8.542497 -10.225707 125.673256
-22.645727 -13.291163 3.092892
11.034383 -12.208913 109.317711
14.673005 13.823310 46.242855
18.976770 6.851738 93.738319
9.984487 5.881970 73.768059
5.430058 1.219261 152.622177
47.483486 4.387331 114.754181
-18.056547 -1.266913 95.936485
20.422541 6.316545 44.034889
14.636014 13.216356 147.742813
28.509689 -12.226464 2.073433
15.557961 -1.712322 37.325726
-13.182244 -7.252817 90.293037
-0.838114 7.295542 162.844391
18.232697 7.161212 1.311396
1.199906 4.168503 103.695343
5.861170 2.345070 68.411598
20.483395 -3.613657 4.587078
4.083425 2.079043 74.228958
-36.159069 3.787712 128.049896
-17.234564 -6.515704 63.098755
-11.104083 6.090483 121.323074
7.239429 -14.945709 133.179855
21.000792 12.186643 145.091003
22.818932 0.237480 -1.363853
30.426682 -10.775323 4.890853
7.144028 -3.872819 81.400818
-17.935946 7.206492 8.630137
58.082222 -4.838932 103.535423
-39.824066 2.761863 113.698341
17.856520 -6.984445 80.230759
8.514605 6.067214 61.088505
-0.423141 -12.356515 133.550797
29.837774 8.596586 131.055237
-46.157623 -0.677262 111.367805
7.312602 -10.763985 121.389725
10.730283 9.652381 150.247147
-47.255005 4.309778 117.357399
-2.794984 6.719390 111.850044
-15.837770 1.546400 104.964821
13.537681 2.091410 106.381195
14.207734 -4.032517 89.364944
18.434097 -6.937534 87.400116
19.064837 -1.440112 85.216934
29.574295 1.085100 123.302681
0.371874 1.634619 117.102921
0.119461 8.160583 111.817703
1.767469 -8.960107 134.884857
2.438720 -8.879505 118.229256
1.874505 11.865793 93.529953
-7.115642 9.385871 149.249634
5.543438 12.902465 97.515572
16.844704 2.684409 147.180130
-1.159748 -7.902958 167.912949
-2.518272 13.592484 152.100571
-22.225754 4.719264 45.211590
-45.219963 -0.653205 117.258492
10.890908 3.294907 123.138557
-0.848388 4.196668 88.684868
0.595698 12.474214 144.066696
5.155819 -8.708614 92.375229
19.153994 8.964443 148.111588
19.043421 3.274383 30.936598
19.720720 7.106402 57.242699
15.476558 -3.282703 55.550926
38.907257 3.534713 122.480942
1.960270 15.666738 92.012772
5.424453 -14.274720 126.078377
-9.647547 -12.145288 82.456902
-12.825525 -4.607377 67.886734
-29.826937 0.245456 2.053975
-6.439665 -11.111078 134.306122
9.394488 4.566426 156.231720
-7.417310 6.662439 81.062759
-50.203526 2.632541 110.929970
19.155708 0.318222 53.419094
12.336027 2.104921 151.719971
22.101240 -0.135599 12.852828
17.784273 4.537883 15.455349
0.707522 5.504096 155.821365
11.447096 15.820006 97.260567
-5.713520 -1.099064 151.029160
-9.222569 -5.703852 121.058655
-11.643833 2.112091 116.935539
26.390280 -14.925522 4.140062
17.953064 -1.593718 12.072010
14.536443 -8.881913 111.051422
4.818078 10.565617 148.096649
0.720910 0.148812 154.310562
8.849754 -5.795753 109.105774
-3.111281 -9.571111 82.623672
12.144547 7.772851 90.116776
-8.137113 12.553555 98.161484
-16.691204 -0.401164 46.638351
-2.333409 0.406208 150.381439
-13.438244 -9.184241 111.802094
10.185471 5.565302 81.914154
-16.727642 -2.085528 90.623695
2.080072 -7.414212 96.257950
33.088539 9.033248 124.670906
14.581392 14.083967 141.147537
6.157696 -11.204362 92.406883
7.105023 -3.066032 60.866940
-20.406841 4.514300 33.440048
-9.298777 -13.469760 81.785179
16.910324 6.947797 29.416630
19.285501 -7.504122 5.893568
11.156482 5.875062 53.062763
-8.500391 5.228866 158.288986
11.203719 -0.394619 44.052444
-6.354007 0.662741 151.005432
3.993841 8.045354 108.449158
1.989177 -9.693489 104.324615
15.205373 2.041073 40.896824
-6.202920 7.483313 125.357529
-2.385546 3.701385 78.152229
-14.559985 -1.161556 133.862137
-7.669719 -6.556332 85.854042
34.520233 7.155779 116.842285
-11.154204 -7.209300 113.371391
-14.016697 9.795717 135.894592
-10.469372 -9.411966 96.024330
-8.696826 -3.502492 57.174988
23.909170 6.089703 2.292219
-15.601158 -4.299162 46.410660
13.413508 -2.740549 107.980423
-11.324538 -8.100051 77.930641
17.288404 -2.231948 83.623550
0.682788 7.776563 127.579811
-5.024690 0.221697 160.896652
-4.294388 -6.264816 76.340515
-17.373001 6.889282 150.380264
-21.707035 4.672733 49.103424
17.896856 2.954748 73.063110
12.991922 7.666819 152.124725
40.162880 0.260588 121.799026
17.383350 2.971877 48.483154
-24.419424 2.060712 2.449721
22.183941 -1.849023 9.857786
-16.788731 -7.442811 83.828865
-4.588525 -10.100204 124.278870
7.484035 6.276950 130.850296
8.105771 -8.493526 96.018608
-10.727670 8.191142 170.083054
-38.501160 5.705016 122.466797
-4.351182 5.352146 131.607971
-18.091745 -6.938385 94.184525
-59.737186 5.795961 99.778206
14.774192 -4.458781 52.906925
18.145315 0.265775 106.409790
-1.030767 11.610346 128.762741
-4.311965 -6.751284 129.020767
-16.386169 -1.788973 37.343014
-13.288383 2.743018 133.347000
-6.411214 5.918480 157.399948
14.837754 -11.285185 97.738060
-26.897312 -10.489265 -0.218930
26.221964 -11.670799 -0.300666
-39.518791 10.200227 124.543739
-52.065536 -1.220614 102.255913
-10.591784 -8.490456 114.406013
-18.805777 -8.090022 90.906151
18.522041 9.611890 17.674849
-18.926085 1.920654 10.085787
-0.502074 -3.343955 156.159882
6.968343 -0.709891 164.873123
2.266982 -12.696988 107.307106
11.591022 -7.681644 72.930466
4.720186 -10.204751 104.638229
21.273642 2.050041 77.357185
-17.317459 7.879702 24.075724
-14.918906 -12.211098 103.216408
-1.836420 -5.112316 162.039215
2.229668 12.728969 131.861389
-6.474751 12.127284 142.937225
9.071386 3.669310 53.438267
17.151165 9.811910 82.946571
-5.151223 -9.839451 89.944366
-7.308452 12.174541 92.887306
41.459496 2.908135 119.590721
-58.298439 -4.689028 100.213081
16.032040 4.192360 103.140488
16.852932 -6.060328 87.258118
0.632688 2.261322 181.439957
13.165827 -9.354610 81.194740
-21.388136 -2.898345 1.732574
-43.829990 3.309621 124.862976
-9.635946 -6.246274 111.153358
-12.337334 6.806326 152.986450
9.479368 -7.613186 138.216141
2.938011 -9.756448 110.970268
5.059038 12.480502 107.947151
-11.583273 -12.334700 126.033501
-14.054076 8.088618 87.523293
-10.753895 6.931895 37.954784
22.270840 4.366202 13.747301
12.680357 -1.308389 142.851227
-31.067083 -5.096995 -2.802296
10.841101 -13.952196 123.715767
-14.548118 3.412714 148.111786
-6.664184 -7.781173 106.091766
-18.635874 1.800666 90.583649
0.758816 -8.744558 164.863342
14.838667 10.674414 90.480583
2.640199 6.359269 174.850037
16.142700 1.368939 116.879471
54.855976 -8.595757 105.715385
8.416405 -8.173634 122.278999
-2.990675 -8.078175 158.430557
5.173697 -10.452992 102.503937
4.724087 12.810226 151.996017
5.857423 8.838327 104.897720
-7.274137 14.429676 90.792336
8.662979 9.802691 136.553345
-14.973343 -13.125996 137.692368
24.475222 4.347000 137.964523
60.733616 -0.630628 100.881340
-18.602276 -5.485257 108.972466
11.213731 -0.064951 55.520920
-18.305071 8.283031 70.486885
3.696866 6.725157 153.572632
15.389453 0.777038 138.502777
-13.703190 -0.871996 114.756607
16.439846 5.074008 6.176904
11.191815 4.947134 127.009583
18.511845 1.124897 29.114735
-14.077131 2.419515 60.277737
3.791162 -14.038483 99.298920
1.790561 10.704393 129.095856
18.345097 12.925713 33.302059
-20.631899 2.394741 136.051437
19.350540 1.076281 71.221954
18.891268 -5.811934 50.892460
-3.118304 -1.189827 147.497787
-8.558825 8.161325 83.791214
7.854681 -10.412807 118.823257
-18.946257 -0.490324 88.640045
24.997427 5.269162 14.194168
-16.062763 7.861607 31.037603
5.991053 8.097184 168.487595
18.916035 6.768110 70.230293
9.441298 -5.370540 77.886055
2.851782 10.829314 105.107384
24.223972 1.455789 144.516159
18.079788 2.559431 149.709076
19.016018 -8.480715 76.617668
-15.856693 -2.584489 41.330807
-3.926552 -4.251304 88.350143
18.781731 8.510747 45.205406
-2.850731 -3.605277 81.007523
-6.811011 2.295459 176.282227
2.392157 6.434717 109.775528
2.353514 -10.688459 120.216644
36.080475 1.937550 112.266960
-2.283855 -5.177618 84.730537
25.442516 -0.801095 136.154602
10.199119 -10.273637 121.223709
-7.245083 -3.331551 54.726448
-12.401347 12.826250 95.637329
-15.190969 -3.928846 129.859711
16.635859 7.605966 67.208221
13.258729 -3.082234 47.196888
-14.588512 5.340751 140.082855
-17.570423 -0.478510 148.061951
9.402718 -0.785734 147.307281
-1.963912 3.254981 106.746590
-0.357679 6.789662 123.897926
-14.609059 -0.991641 92.364281
-18.458904 4.062518 87.256149
16.448324 -1.658717 96.892654
5.596704 -2.762680 83.431808
-5.965323 -9.411480 100.121368
0.226069 7.643640 118.325623
-2.100264 -9.931142 137.236603
8.298701 -10.287562 101.356987
-18.493307 -1.959981 73.182587
-41.195305 0.783128 121.454872
-11.046153 -6.860767 143.499298
-17.669970 7.475015 78.323929
-18.028269 6.923647 8.652440
23.190676 4.767923 41.548756
-12.418350 9.990084 40.118034
-11.175126 -5.957475 105.912804
-8.819902 4.729936 123.891449
0.592974 -5.571600 164.725403
-1.661745 -9.957326 97.863991
-2.361425 4.960256 80.621315
-59.996872 -9.422690 100.887077
-12.149072 -6.667689 140.422424
2.510067 2.564437 160.857330
14.573210 6.157025 21.583694
29.835632 5.534979 133.813019
-14.569814 4.268895 102.295105
-13.396074 11.098869 140.747742
-0.396189 -8.250148 146.396866
12.522778 -6.505481 117.188034
17.818542 6.379528 75.710854
18.042562 6.976460 40.889614
-21.838205 6.395335 37.236778
14.278183 0.917228 35.258297
-1.619121 -7.468294 167.983139
-16.044041 -0.032359 58.593170
7.064939 9.272422 118.695419
-14.967241 -8.442230 56.210102
17.628208 9.744339 98.123573
9.471689 3.106596 48.507862
18.944693 -3.277791 65.089989
-14.223226 -8.033696 100.911407
-14.307712 8.997642 137.090454
-19.657164 -2.182027 92.315216
-10.762479 7.273854 23.683535
13.770410 12.094220 28.363598
31.009676 2.970071 130.568161
-19.966396 -0.185885 26.472267
4.083553 -9.909782 97.696518
-12.416348 -0.786567 121.763916
22.584475 0.674355 77.616478
-0.289976 10.870035 145.197601
4.139760 -5.758737 141.756104
-2.229473 0.687258 154.964935
18.245522 4.598510 92.871086
-10.700804 -0.048305 124.732140
1.910116 14.660493 150.881973
-3.730230 -11.973848 125.043320
13.946432 7.862628 136.487900
-10.541065 -5.562071 74.437073
49.502438 -7.216903 106.336494
17.243797 12.065355 33.874901
-24.304207 6.797207 133.714325
17.813242 3.821497 94.657318
17.202814 -2.669204 85.639084
18.798325 4.139455 96.996864
-23.841677 3.543362 62.335709
-2.212724 -3.142834 152.826447
-9.409613 11.825896 100.118462
-3.749751 7.156109 145.711899
14.342179 5.906607 96.038490
-15.226818 5.451802 28.321928
26.007002 10.122535 135.095932
-22.200787 5.242977 -3.798583
-23.965670 3.379832 28.868082
21.341881 0.124356 78.820007
-9.809593 6.392225 121.100487
5.323118 5.341293 80.315132
-12.981141 -6.005169 65.874886
-6.280780 9.940958 99.908562
6.439328 8.077986 168.536865
-10.361159 -8.168712 147.920334
11.378983 -14.062358 134.044846
47.829845 2.437300 120.452942
12.610443 8.371796 144.144104
7.357026 6.814423 101.352806
15.285997 0.325794 43.397472
-17.782372 1.492271 137.001190
-43.585480 0.850470 117.732552
-9.293469 -5.936337 113.530441
1.222713 -3.400153 169.755386
-11.647694 -1.553921 148.679382
58.185867 1.870806 108.257828
18.197659 2.677866 109.387398
2.210131 -11.846967 110.167686
24.013895 0.677222 132.211914
21.436064 -5.405067 84.126389
7.857414 -5.281403 81.389359
4.055579 -12.302860 120.368416
15.492544 6.919750 14.100194
8.974728 10.103433 91.110191
16.138332 -6.900679 94.341591
-7.836619 -9.843704 99.837288
-9.780272 1.472319 120.173943
18.558313 -3.180556 92.341476
-10.361224 9.151633 150.812073
38.408882 9.697083 120.807343
14.990581 -1.854758 105.113808
27.796162 6.612315 126.461342
-4.098802 15.521361 88.077827
-24.946291 3.133036 2.888633
17.852875 6.283221 29.952347
-5.211960 -6.094141 160.246643
-17.489702 15.646287 32.930679
-7.811516 -5.793797 167.285629
7.487158 9.967999 142.984863
17.837782 -0.672798 91.837547
-18.148218 0.347794 142.063446
16.495329 -6.283963 99.278000
9.400966 -3.597884 122.145981
-6.517735 -5.226481 146.603363
-0.680290 12.877848 104.008568
12.172841 10.346234 150.148392
29.814182 -0.566781 116.120384
-17.847637 4.137095 150.340271
-29.732105 -7.603800 3.581237
-8.558180 -8.987281 76.353920
18.660049 6.730136 53.265572
-19.969536 3.770774 94.433884
10.051978 9.351826 101.043518
-11.888754 -9.437282 110.884964
-18.398266 7.638334 11.602059
-26.862873 -7.454333 1.967503
-27.886148 3.592215 133.840286
14.184085 4.670156 75.471313
-14.940500 -6.682423 90.173790
-11.322522 8.813678 102.479324
0.368857 -12.839931 107.480774
-13.769140 -5.747909 108.782585
-17.052526 -0.487659 31.742828
10.901593 8.149354 139.272293
-8.407535 -8.353650 73.946838
1.384753 -12.600135 82.291267
-10.208665 -3.017076 107.303795
-13.612182 -3.157107 136.277771
-17.512882 -8.653163 126.232384
-15.663433 3.729682 43.129734
-12.954252 7.790328 53.697208
3.103176 -11.638743 119.755348
