ply
format ascii 1.0
element vertex 2048
property float x
property float y
property float z
end_header
4.626448 4.026036 149.174774
-13.511601 6.832335 136.290939
-19.999521 8.193980 142.406448
12.864977 7.920684 140.536102
10.845611 9.449219 137.088242
-7.779139 1.275448 146.477798
5.553502 9.738708 88.058197
11.838474 9.271692 142.731186
5.753735 9.231210 136.407928
-5.417610 -4.085742 151.391602
13.077363 2.853612 95.665802
11.032038 -9.837852 115.545952
11.748318 5.710510 97.297997
6.482258 -12.874231 108.273773
-4.801420 -5.913560 151.144455
2.056348 6.859606 104.006653
2.169427 8.346489 152.381836
-0.874426 6.815962 121.027657
-0.622118 6.936342 150.705109
-7.136135 -12.694267 89.681496
-11.404846 6.604856 96.509079
-13.666879 4.863514 99.083458
14.681554 -0.956669 145.794662
21.996332 1.723450 136.508026
-18.478680 6.276105 139.348206
8.211996 9.128362 98.228516
-9.938702 -11.037064 93.140160
-1.003057 -9.627512 141.491837
-23.249344 4.722434 137.782501
-1.196475 8.061162 118.079247
-14.070322 0.070894 127.509529
-15.237051 -3.926101 141.252182
13.882559 -4.240633 130.709152
-4.465633 -14.215109 109.410408
6.882344 -13.475351 97.479149
1.281665 8.247070 152.349274
-22.072371 6.936151 138.776291
9.251647 6.403126 112.615112
-3.163732 -12.299403 105.358353
13.748041 -8.225937 102.155472
-16.966114 11.628161 140.823792
8.845522 5.657245 118.816109
18.030209 -3.647877 141.761124
-13.484867 -2.773515 101.167770
11.783198 6.221795 106.645454
-14.121325 -4.668118 140.926849
6.225770 5.526322 121.659721
11.847533 -6.678797 111.519707
14.413136 6.693024 148.475769
-9.897212 2.663474 148.886536
-8.012516 -12.516619 132.652390
6.440657 -6.814925 146.516327
-4.063297 7.052839 153.398407
23.509092 6.314174 138.373306
2.276270 -7.104718 145.648453
-11.995869 -5.430337 141.416550
-0.035665 7.906444 120.631500
10.449327 5.848131 93.372345
-26.137833 1.992173 145.547455
1.109214 11.388198 87.816055
-8.082783 -8.692601 137.355240
-2.356078 10.506413 103.775612
22.589661 6.203392 137.128082
7.107066 9.484808 92.681969
-3.688241 6.705416 149.132599
-10.084534 -8.712532 121.658180
12.283350 0.073552 107.105629
-1.138111 -12.294507 113.596451
12.458486 -2.669252 128.368866
21.481199 6.754783 141.703049
6.016994 5.051054 115.983788
-13.692945 3.306340 116.435402
-11.750387 -7.568778 99.910583
6.345716 7.944628 143.886673
0.908700 8.389174 85.957191
21.751474 2.274969 135.052612
-11.245360 -7.268470 125.956581
-5.576923 -3.938001 145.469894
7.881046 9.291781 135.342941
3.646638 -15.428556 105.742065
7.587196 -12.820078 99.659966
-10.561189 -7.416228 129.551498
10.482797 6.243684 144.936951
9.108111 -10.776001 118.367775
-17.037954 -4.722021 135.558533
8.151139 -11.333978 130.183197
-7.832555 -0.622477 150.508499
13.652147 1.288273 127.538109
-10.390516 6.010605 110.628738
6.009538 -13.031558 102.764175
-10.625994 6.498441 139.291000
-2.187047 7.562634 142.991730
-11.298578 5.123556 130.248962
-17.322857 -5.119008 137.065811
3.816309 5.076367 146.952408
-3.522009 7.914762 116.467102
-3.218841 -11.828738 135.905060
9.734699 -12.863401 125.835075
0.880753 9.839297 133.053635
-13.381596 -4.439294 144.551376
-4.779627 3.428836 147.422501
3.583343 -12.165394 136.340729
-4.426490 8.670112 147.110077
4.350550 -13.792143 89.439034
-1.148295 -9.381650 143.915909
3.079095 -15.434331 118.747208
24.263313 -4.053205 135.702499
6.356266 -6.834275 148.474884
14.764773 -2.674783 127.391731
-11.088882 -5.390546 122.974907
13.757106 -4.005105 117.576576
-9.075609 -6.828615 130.056961
-10.882825 -10.521766 117.192535
-14.417221 -0.182554 103.345734
13.038974 -3.622927 94.412704
-9.166281 -3.548966 146.008759
6.468966 4.397129 110.805077
-8.470717 -3.394964 147.998917
7.343167 8.094623 101.411980
7.852666 -11.813313 97.831779
23.024334 6.785087 141.150223
0.448242 10.397459 91.712639
-4.032022 9.153623 137.328598
-8.257761 5.104043 146.119186
-7.455752 -11.251352 122.223694
20.088310 -2.768351 142.802429
22.651733 -1.986489 142.180161
-9.262440 -9.826268 114.863678
-1.441438 -14.022115 118.705132
-20.822552 6.912338 144.586044
-26.072369 -2.599973 143.807480
11.099550 3.032130 121.208389
12.941932 -3.345857 111.056404
1.903520 8.621808 144.888901
16.336187 -2.508119 134.082977
-3.915880 5.707936 111.723755
-19.516956 7.127028 137.434921
1.222693 7.216261 118.040344
-16.456907 -5.243109 136.279388
-15.777152 -4.055172 141.094788
25.263575 3.620813 137.235657
23.847870 5.766172 136.192108
-6.971052 -9.525249 140.660828
2.741404 6.522905 147.909760
13.718746 -0.689008 116.183968
-9.369580 7.635542 101.383995
-5.108938 10.758033 90.751846
22.346716 8.046868 139.373199
6.984076 -13.059027 102.490997
-5.266480 11.611010 139.327606
-14.079424 -0.912756 145.550186
8.385978 -6.606590 144.965683
-13.427809 5.104986 91.222733
4.543385 -13.607375 97.885269
-3.646985 7.001821 121.623436
-21.307850 3.234499 135.938248
5.510310 2.450267 148.599609
-7.157017 -11.125714 104.329170
-2.390151 7.765287 118.225067
3.745787 10.464043 98.677925
5.980725 7.117393 147.273499
15.489648 0.587422 124.568764
10.257648 -11.063600 109.644325
-1.791856 -13.118329 107.703247
11.205137 3.226165 118.773514
6.092758 -15.228533 103.402100
-11.966998 3.706889 121.939682
-2.903265 8.908865 101.413361
-24.428833 5.002231 144.172424
11.961398 -8.137154 130.722504
-10.396991 -6.754551 113.943382
-10.898137 6.281221 111.453430
-7.439064 -7.841309 140.233994
1.151653 -9.086946 144.802567
-13.157630 1.553888 108.179680
-11.831861 -3.901636 104.150780
-7.348934 -1.575778 146.174393
10.913655 -0.986699 108.434258
1.139200 -13.004214 96.182251
8.142107 8.383739 108.609673
17.719368 -2.207081 134.419174
8.294846 9.253138 95.898407
-13.445913 1.943821 101.387428
-20.954754 7.725812 139.651199
-9.038281 3.572657 119.374863
7.608374 -12.660588 121.190323
9.967104 -9.284997 127.600151
-14.390841 -5.902483 94.996460
3.883619 11.778045 88.561668
-2.667687 8.414882 89.167763
-6.099013 10.879243 139.119141
4.630860 2.023461 150.935822
6.335306 7.938496 147.374283
-4.517341 8.823112 102.701836
-14.080266 1.915545 90.531105
7.382203 10.798122 140.774277
6.115314 -5.534300 147.700699
9.770590 4.644877 147.042633
-5.264620 -12.310248 101.720245
3.060990 6.012526 147.348053
6.972067 7.000604 111.336792
16.747665 2.875611 119.375092
13.223783 7.291385 145.283554
13.808086 -0.746234 121.780693
-12.567807 5.417022 89.804672
-0.614038 9.962246 140.187729
20.065125 -0.383087 135.760345
-5.579912 7.367865 119.257202
6.752568 -12.896299 91.334709
-1.053408 8.630713 126.912704
-3.222664 -6.290698 145.778702
6.502571 3.627619 112.180252
5.695905 -13.958897 104.693031
3.161566 -15.042046 89.443596
5.368632 3.611628 150.230164
-1.684127 5.173751 119.115257
-7.026791 -9.191875 147.458786
-1.955707 -10.090458 138.234222
-4.968372 -9.319667 138.427063
9.996365 7.992123 87.969955
-3.392360 -13.248192 112.799873
14.712862 -0.617845 122.964104
-12.282596 1.591290 107.205231
-14.543810 -4.222982 134.331314
17.259176 6.349715 138.948898
25.892132 6.720806 136.112961
10.613605 -12.040015 100.078140
-5.377646 5.413776 116.641533
8.752913 5.497808 113.110420
0.673371 -12.069903 123.516930
15.230184 -3.903340 136.201538
2.799786 -14.748428 91.637886
15.747331 -7.183605 96.249474
8.014218 7.864200 91.451744
-9.890449 0.852440 124.062088
0.151147 -13.404389 114.552910
-13.781204 -5.306071 140.266754
10.826097 2.458235 104.973801
14.070847 5.018186 129.717072
11.218203 7.404377 92.583519
-11.050306 -11.687259 129.354584
10.122517 7.861567 102.336273
-13.288510 -5.274805 132.005035
16.159290 5.602412 135.703918
-5.505971 9.933228 95.026978
20.183365 6.315648 140.150162
-23.560257 8.425799 139.339661
-12.256660 -9.919167 107.453964
14.481747 -6.434760 107.416794
-11.555936 2.461595 147.504227
-10.206343 9.196075 135.934937
12.938505 -3.110934 96.709129
-0.485174 -14.851263 102.446449
-18.375242 3.647589 146.278961
7.876260 9.685504 144.111404
6.676898 6.398049 146.733765
16.485104 -1.128048 130.868713
-1.893052 -7.302286 144.259293
6.989741 9.081059 104.381004
13.404249 4.864542 116.156212
10.777597 -0.833878 113.292427
20.558168 1.055290 135.640488
-1.210752 8.377641 143.248886
1.000750 8.182877 143.493546
-8.536405 -11.304315 127.863396
-2.416625 -12.464987 119.000664
3.174385 8.098044 109.712105
-9.698312 6.808001 146.456192
3.876143 8.656792 129.096390
10.278609 -5.971895 148.611237
-5.677670 -12.668584 125.902954
-0.895273 8.814358 146.266525
-4.466151 8.206984 87.770988
18.947615 -3.805360 137.598511
-8.854771 -7.192453 140.077103
19.937914 -5.461070 139.349609
-6.596490 -12.623802 119.463791
16.073183 2.487179 135.260986
11.773843 3.152418 104.274437
9.436221 9.130239 96.350182
-12.371092 -4.002940 89.646393
-4.138994 4.691419 112.482819
-5.711199 5.202538 106.650444
6.890283 -13.113106 92.536835
14.482603 -4.881484 95.241150
17.435026 0.658904 143.520477
4.390889 9.308296 132.587021
15.993834 0.369967 132.063126
8.489592 4.315576 110.380020
-11.860885 6.806559 129.918381
29.470036 5.309212 140.905640
6.492683 7.299951 108.564919
-14.056919 9.445927 143.256134
8.655945 1.945030 148.083496
5.128162 4.833071 114.322510
-4.707856 -10.753013 136.938461
11.728849 5.468200 88.781265
-2.903354 -14.435518 111.820251
-0.578477 9.730545 146.049454
-8.740292 -11.736435 106.187584
14.298808 3.245046 92.549469
14.262520 -7.314891 140.095367
26.210962 1.564855 145.503326
9.474502 9.259711 142.811523
-9.288328 2.647482 146.871445
0.625499 8.963855 146.505676
3.779619 5.373409 116.986176
8.953548 9.700448 134.873215
-3.185158 8.430229 143.304718
-6.196911 -13.331307 125.390984
3.200162 2.900669 108.403229
12.490626 -2.404633 147.637939
15.098641 4.120065 123.149368
-23.600626 -0.406088 144.989746
12.675378 3.613021 94.403770
10.522029 -4.406964 117.328896
-7.579803 -12.948477 121.227097
7.099088 -4.561838 146.796921
-8.047423 -5.810631 144.853638
-3.584698 -6.744890 144.862152
-17.005707 5.355858 136.008286
-5.324045 -13.248018 105.655411
8.686224 -1.863706 147.041824
7.723262 6.971744 123.117661
8.724281 6.037863 101.057106
-6.214091 -0.745938 146.221405
18.161436 6.778254 144.326981
-7.024971 7.469201 106.712021
7.699935 5.234988 110.800140
-10.276044 7.409395 110.098076
10.937478 -8.411062 113.049774
-7.353079 -8.432767 145.597870
-3.287368 -13.267764 93.611000
5.992258 1.137902 146.957504
-10.778997 5.541504 119.761925
-15.875710 -5.476820 91.295738
4.003202 -7.914512 143.122635
-4.733540 -12.127640 125.364105
11.272302 -8.141808 106.361488
-9.359586 -10.880235 119.964218
9.456685 3.492700 105.527641
24.910313 1.495032 134.675110
23.297609 -2.796419 137.631042
2.631089 -14.736098 113.851250
-7.859948 -12.350402 128.274277
1.876071 -14.865507 102.889763
-11.544135 9.171483 137.752747
-3.197864 -12.810000 127.292664
-10.998430 3.133114 122.344437
-23.116579 -2.283171 141.807968
1.733683 -13.248444 125.421196
4.015553 10.693280 140.932312
20.204649 5.987048 135.854263
0.138030 3.600163 113.319756
-20.573082 1.163664 143.924255
-1.385843 -15.048300 117.918617
11.937588 5.998746 97.958511
15.453630 1.176067 119.407890
9.175217 -9.655399 150.376541
7.798483 3.600038 111.243301
0.975787 9.974602 142.204483
1.141295 -16.090996 98.843826
10.983766 -6.635004 129.924759
-13.904353 -0.801860 99.500992
-19.462456 0.094071 135.531021
5.260224 8.347898 86.279922
-3.199984 -14.240464 116.809578
13.798646 -5.943515 131.829361
-12.690628 1.906803 94.579018
-20.181141 0.928255 145.814514
-20.224731 -2.423392 144.851852
3.704201 5.354415 151.457016
-28.954920 -0.812830 143.777725
4.621689 10.809005 90.974876
-8.768744 8.830452 141.180298
-24.728222 -0.934600 134.326157
13.811910 -0.456790 98.829796
1.929861 -14.297135 92.700043
-20.249773 -0.743554 143.808884
-23.492781 -3.344900 140.012238
-24.630854 2.935996 145.079346
-6.845478 -13.149337 125.901207
12.390150 4.984281 113.761742
-4.169746 9.415093 144.950226
4.293854 4.875319 148.561539
-5.031597 9.828610 97.140579
5.563842 4.419706 108.325836
1.932346 5.178766 114.975922
14.714584 -6.707619 105.040329
-1.168018 7.928562 113.429962
10.306127 -5.205565 142.961884
12.486325 -6.696076 127.902046
-11.014381 4.971786 127.420601
-10.999502 -7.122463 122.588661
15.096397 -2.018801 93.143387
-2.514413 -8.561407 148.089859
8.796817 4.864199 119.181213
5.945912 3.018670 152.016647
-15.504466 -5.738898 88.583511
9.522969 -5.165829 149.918549
15.706643 7.856916 139.437012
-12.386344 -0.070623 119.107475
-10.715690 -8.973602 120.425934
-4.361954 3.000360 113.530441
15.944303 5.228621 134.554764
-11.608895 -8.100995 133.839874
-10.772953 4.300919 114.994835
8.456690 7.827733 96.027260
7.220389 -11.213021 135.771301
-4.545104 7.042098 142.622467
-8.546715 -12.343582 125.016060
-21.881945 6.063531 143.322342
0.614051 7.770587 137.255402
-4.898449 11.326015 139.482681
27.083063 6.074324 139.791351
-11.001453 11.061157 132.472198
-13.840453 2.727738 91.718193
13.762057 1.184135 145.567368
20.745949 -0.364666 143.701904
24.246716 -0.921634 142.077393
14.303763 -0.406463 127.336319
24.435959 1.597478 145.152664
-8.931707 7.846608 148.458954
-4.248640 9.566383 88.688011
15.843361 -2.413352 133.588058
-22.381449 -4.482242 135.101105
10.671410 5.515545 98.270966
-4.874742 6.655631 148.478577
-8.101767 8.670371 130.691391
-18.992218 -1.631773 143.015259
8.184799 9.478243 103.564339
-24.088804 3.069133 135.662094
-25.792576 6.722741 140.527863
13.881007 5.513058 145.569290
-12.115446 -0.931052 145.829239
4.647186 10.126262 128.279663
-27.325838 2.387436 143.108398
17.238386 1.563195 126.861763
-13.625986 2.306166 146.246109
5.123205 -10.025264 138.771164
12.243888 -11.655806 111.698547
-4.035765 9.518920 104.285515
-5.300677 11.319539 96.122375
13.447104 2.853716 102.523544
-0.033002 -12.178670 130.421509
-10.465232 8.181069 90.010139
10.594206 -7.888753 134.686127
5.730762 -0.907481 149.266815
-7.714284 -1.143753 147.069824
-15.319636 -0.131680 93.441414
-13.272371 -9.644146 92.005920
2.496286 6.847922 146.145081
-12.591761 4.240672 86.957970
-5.449302 2.659680 151.242523
19.140007 6.937175 140.288986
10.083460 6.080499 97.455757
-7.624238 -10.506069 111.910194
-9.587485 6.793585 112.587090
-14.268117 0.753749 130.257782
4.372036 -11.621166 138.198853
10.363190 2.696963 147.726456
-4.744353 9.493116 132.047195
6.344718 -14.730357 108.097092
-1.377778 -8.396152 142.037354
8.442056 -2.963016 145.384964
-7.780493 -11.110213 133.266357
-23.744495 -2.718348 136.302734
7.001635 7.082115 84.240555
-14.613595 -3.064062 96.310242
-11.347279 -1.506042 148.027374
7.414140 -3.014179 147.178802
6.338067 5.345482 121.431656
-14.029592 -2.610075 102.868141
-15.948258 5.060097 142.528595
9.850933 -10.884466 112.347115
1.865197 5.961343 107.758232
11.823129 6.232576 97.899338
-13.718761 -6.199990 142.993454
21.811512 3.612807 143.918839
12.349380 -4.991437 144.611893
-19.938503 2.012637 137.120071
-10.157784 -2.160155 113.944153
-25.131123 1.596939 136.764572
-5.767498 -6.061081 149.195831
13.436119 2.056197 124.907539
-18.192770 5.152912 135.896454
4.072590 7.096852 107.922531
16.367670 0.601065 87.210098
-17.114229 -4.275629 139.174850
9.208099 7.770144 145.907196
11.292574 4.929607 107.329018
-25.763998 6.590614 143.752792
-13.907631 6.424487 138.854874
2.340151 6.120339 152.923462
12.586689 2.665398 119.050003
12.209983 -2.828870 121.185867
6.124734 -11.162323 128.825531
5.726499 1.320077 149.913055
-11.023588 -8.023846 122.270134
-14.586198 2.197144 117.623703
-12.504948 6.410027 144.294937
3.849581 11.378780 90.659821
13.800322 -2.730736 123.862991
-14.018605 -6.493331 137.938309
8.177900 -10.371817 107.307022
5.126560 6.357370 152.134079
-7.291863 -2.267164 147.402283
-4.243541 -10.343951 141.110260
-6.148996 3.978190 152.767166
-27.179867 -4.094971 138.660538
-4.972167 -13.508915 99.637489
12.579422 -4.753637 108.584023
-10.115826 2.047030 125.041931
-9.882590 -12.701076 86.545486
-10.831643 -11.073743 114.828156
-0.580161 9.071911 102.922653
11.067377 0.850478 145.536194
9.717122 -5.823196 148.080399
10.753567 2.853752 105.498047
9.355021 -11.399859 108.161133
-10.717304 6.819481 106.809837
-9.450879 -11.018749 105.203125
-10.321758 -0.577449 146.678543
21.075319 5.184850 143.556168
8.175164 -11.985795 112.919083
0.988345 8.394587 92.380119
12.939275 -8.621418 92.630714
-0.534691 -12.891590 95.060898
-5.688094 3.253769 151.790421
4.505289 -4.975343 148.176605
6.507020 11.375367 135.456772
-13.078880 3.965821 94.920067
15.853496 -0.231678 129.754364
11.699319 -0.345399 148.061920
-9.204718 2.861041 114.099449
26.617060 -2.632982 140.149902
-11.159412 8.861322 143.258316
7.875268 -10.609292 104.542824
10.429396 -7.598749 121.336151
-6.792999 10.784060 144.400909
11.097562 -7.280480 115.202118
-15.666008 3.399780 131.694962
-0.115112 10.990966 128.292755
-11.896741 2.828907 96.719299
-12.445375 -3.946551 145.576187
4.265228 9.537707 132.330902
8.415929 -3.490572 148.478882
4.429567 -0.813825 151.132858
-3.725008 9.474975 129.510696
11.324207 -11.103927 119.999619
-14.349959 -4.711564 144.918121
-12.336769 5.144535 147.433136
-4.697095 -13.798922 99.667923
14.974587 5.189770 135.486938
-11.228819 4.812317 103.044731
24.800686 3.326211 143.705215
-7.002392 -10.800422 112.544632
9.888407 2.854348 149.631271
6.852909 9.269977 95.327881
0.493126 -15.440155 97.758499
13.318836 4.894375 128.227905
-9.867529 -9.295357 93.270432
-8.749606 8.860013 138.193130
-2.005214 8.229506 144.732559
1.480881 7.831871 148.605637
27.017141 7.254129 141.085495
-12.367925 0.860468 102.078278
-11.647765 -13.318989 92.810562
-4.610795 11.252218 145.175339
-11.467017 -7.226795 104.979919
-12.291020 -7.890779 114.560089
-7.312562 11.107841 129.544495
7.866505 -13.319801 117.839424
4.635746 0.103292 149.698792
-8.656482 1.783694 113.302002
-3.820104 10.532689 152.766785
-16.980194 6.712692 137.085602
-20.902962 -3.470651 138.338425
-9.000844 5.140841 112.371727
-8.990561 2.158913 147.739960
-5.412133 0.884775 148.342087
-14.559109 -4.214422 88.955917
19.680340 -4.060818 140.248474
-21.964893 5.513149 143.133621
-3.958932 11.279658 138.033386
-1.309682 -12.686210 125.824379
14.864659 -6.207950 93.577705
8.754289 -1.396983 146.183960
-11.267132 -7.314594 112.472557
-6.114522 -6.005465 144.174896
3.902290 6.919280 148.204651
11.277705 4.553064 91.127121
-3.154191 -13.315578 98.022469
-9.873116 -9.839239 122.384575
15.484442 1.854519 121.236267
9.784684 -4.957053 144.561584
0.335040 10.497744 125.022995
7.451422 7.233583 127.356018
-6.765144 -9.915632 134.778351
23.839638 -1.838794 135.200897
-5.418951 10.282404 131.759048
-0.128897 -10.724001 141.379044
-13.201467 9.354905 143.047058
-15.770385 -3.705142 90.252342
-10.710461 7.839484 108.413277
0.758194 -12.955009 109.932671
-14.292997 9.443862 139.860107
20.188021 3.743397 134.180435
0.434048 -12.149885 134.970932
22.211348 7.114586 140.112457
6.107668 -0.409930 151.322876
-3.959929 -12.020526 93.381088
-12.211684 6.696040 146.005966
-3.077379 10.759078 129.782196
-0.674988 -11.806767 136.871536
14.200816 3.842212 147.213120
-18.643425 2.773664 144.400497
-9.537998 4.806672 121.285744
3.979524 -10.089584 135.416534
22.757732 7.952998 140.345551
2.339710 11.778282 98.168091
-1.607563 10.629776 152.478271
-6.519850 -3.078286 150.134903
-9.457503 -11.959435 104.941780
-2.600249 -10.029519 141.502487
2.325416 -7.522303 147.451660
0.284557 10.768731 98.634834
-9.089426 -7.425999 119.114944
-6.697035 0.035935 151.083084
-9.589328 -10.723308 90.279121
-11.671097 -10.832872 112.246750
9.197868 -9.927825 137.845398
1.541032 6.483847 104.129120
10.874987 7.175635 106.774246
13.670848 6.069849 114.881699
26.564449 0.796585 143.306168
-2.920075 -12.362019 135.204971
6.576889 -14.223108 95.894402
-17.587299 -2.318957 142.505814
15.182120 0.188665 89.347145
-5.812802 1.589920 146.948395
2.624579 -14.633634 123.109726
-4.224228 5.099431 116.848824
-8.881374 1.100244 123.677132
17.741224 6.828483 142.964890
15.038321 8.681620 141.476059
16.261124 -1.195399 88.727837
11.921116 9.378801 139.722672
-10.627292 -8.149810 116.446465
-13.374454 8.257871 141.552628
-11.786090 8.132874 134.788071
11.260683 -6.237414 123.833221
10.341784 2.763292 122.275238
-3.912452 -13.265121 97.434074
-24.900782 0.193724 136.869492
12.998371 5.230917 146.363602
2.933269 -12.585618 120.547264
12.314014 -4.474290 114.824654
8.710352 -11.866465 134.120346
-1.369474 8.097283 142.897980
12.219893 -8.777498 94.509872
3.664377 -11.924801 132.089676
7.336689 6.903533 108.109016
22.534004 0.665032 143.807770
-11.798277 -7.331089 123.939537
3.349404 5.913480 152.740555
11.091641 -10.991799 132.571640
13.449327 -1.740657 122.911736
6.276739 11.363646 140.526550
-13.545177 1.510405 124.487190
25.053801 5.942640 139.301208
-10.923545 2.294300 107.275803
-13.539741 1.126748 121.425438
-8.851259 2.751752 115.544365
-12.614647 3.387285 112.156197
-12.565641 -0.735266 144.164001
-1.098444 -13.697414 122.527168
-18.517653 7.508136 142.385452
-5.961336 9.694571 138.730667
-3.378180 10.064269 137.724869
10.269437 -11.436878 101.570816
-6.009053 9.609231 104.614258
-4.490846 7.170376 83.539886
-4.362238 6.526371 106.384094
-4.153508 -12.678603 98.601288
21.512924 -2.470535 137.215256
13.040912 -2.180899 119.512665
-3.716261 8.797400 128.029572
12.023794 -6.166336 117.383720
-4.135704 -12.351214 124.781677
-13.500193 -5.417103 139.679535
-4.227284 5.129162 112.714668
13.632031 7.763442 146.085632
-1.516596 -11.875119 116.476219
-12.196209 0.198942 100.596573
0.947557 10.650805 95.718964
15.811415 1.543545 148.812790
8.994560 -10.850816 131.504486
-0.856705 7.263795 118.071213
10.247106 7.781318 108.782913
16.171143 2.073149 130.474899
4.648834 -12.051711 148.131073
-8.799099 8.916896 142.043930
7.838470 4.663682 150.055283
-26.301996 4.604867 146.660446
-0.456162 5.618142 114.445526
-6.401599 -12.685849 120.419418
-13.396414 9.494957 141.399063
-25.869238 1.717894 143.474304
-10.408272 8.285749 99.595985
-15.418996 0.744507 133.785309
-20.569166 -4.476299 140.915573
-1.126173 9.421876 127.153389
-7.790362 5.760674 146.045181
0.472054 10.547146 129.717712
-10.268241 -10.375751 128.401993
10.932838 -6.884243 137.756638
1.716969 10.566571 130.432022
-1.693047 8.706978 144.548996
-12.598461 8.168995 143.267792
15.168527 -1.576572 102.973900
-14.858575 -5.553705 139.865250
-6.825319 -5.189085 146.793411
11.854985 -5.078568 108.446396
-13.538897 2.125166 90.737907
-4.429255 1.050238 152.254013
-12.126092 1.202152 146.119431
8.175587 7.091086 87.884285
8.568134 -4.228028 149.471268
-8.991148 7.786999 91.940346
13.266040 2.431452 145.659195
11.765005 -5.513733 107.188164
10.088103 8.484017 127.992401
-10.399903 4.284429 145.970535
-5.551239 4.007607 114.606750
-10.308856 -7.580045 141.979004
1.839607 -10.556793 144.711304
-11.751270 -2.994741 106.371902
6.833175 -12.445048 109.006462
3.561743 11.925297 131.268097
7.971248 5.118520 111.301529
12.359152 7.264983 144.815231
11.852006 4.032807 101.145363
-9.191709 9.801444 89.794113
10.418748 8.332280 94.861206
0.613002 -13.853651 97.315941
13.244696 0.242563 125.448334
-17.050081 0.340865 91.018684
15.437006 3.102657 124.272827
-12.951618 4.039899 125.995621
-7.485703 -4.402005 148.678604
-9.494434 -11.910797 110.045082
20.236813 6.071033 136.257355
-8.926125 -13.342751 132.313690
-12.047586 -8.176889 129.973953
20.510527 5.934439 143.354660
0.084967 7.517035 105.719833
3.309416 -11.766785 138.528091
8.358269 7.741712 105.912796
-10.853682 4.015860 109.819099
11.059812 1.842325 103.304001
9.498781 7.018374 104.412674
-5.175890 9.445743 127.337051
3.769315 -16.796101 103.252419
-5.545674 -12.861519 131.867584
11.964657 6.612409 112.222351
-20.073750 4.504710 144.528046
6.055006 -11.728521 115.951736
4.732330 -13.023499 111.308754
10.536246 6.266973 114.571129
4.933201 9.807422 96.539513
-7.114370 -1.362267 147.763290
-24.042074 -0.829679 138.630524
0.712954 -15.050352 98.559708
-0.148659 -15.524732 95.645699
-1.163476 -12.160903 140.250214
15.129785 -5.849173 98.964218
-2.994877 -12.237350 97.885925
-13.171664 6.998611 110.719170
13.079502 9.873040 141.610352
-4.144477 -12.217937 131.874100
-3.401007 4.725980 151.516983
14.345147 3.129741 148.305725
16.508905 -5.981108 138.333633
14.379578 -3.458476 117.023605
-26.732992 -2.720061 138.042404
-10.370931 6.321971 108.908539
-11.900269 1.417557 114.994942
-5.537039 -13.755302 127.628365
15.212938 0.828031 147.064835
-12.402486 2.468582 116.067413
1.081107 6.216857 106.828690
10.722724 -5.468048 124.961060
0.688704 6.587018 149.778534
9.210275 -5.522533 142.898880
-6.194182 3.877824 147.624588
11.960377 4.016379 119.953201
4.214390 7.573964 83.324554
0.581053 -12.653067 132.650482
19.854177 -2.308101 143.660034
-22.687511 6.444068 138.208939
-5.032553 3.820980 110.710831
11.844793 2.972693 122.544640
5.939620 5.014335 150.697525
12.527492 0.610563 113.533264
17.273066 -1.184397 88.041664
26.574453 7.600474 139.318512
-18.828590 8.078530 142.104553
8.565499 6.186846 90.969444
11.071976 9.610716 142.910355
10.040753 9.008627 143.861526
-5.533474 5.692222 107.756729
-4.995198 9.549937 96.767860
-10.991692 -6.443782 137.457382
11.305332 -3.103662 120.746803
4.565181 6.992301 151.910675
11.437551 4.002884 101.571953
25.211365 -2.394232 140.073898
10.958751 -0.106064 146.829468
-22.414164 -2.723368 134.940613
1.513582 -14.117602 108.254021
-11.080134 7.270471 93.264801
5.479931 3.702550 148.801254
5.475690 7.921610 124.440117
10.366131 8.726933 106.025551
-9.971552 -4.137097 147.259033
8.560344 -4.053888 144.943604
-11.594442 -11.086559 95.931038
-12.207096 -10.748554 86.055214
-23.218086 0.574311 144.778931
-9.511309 9.000516 141.187698
12.500431 -6.794539 138.113113
-11.380652 7.334683 145.228607
1.960764 11.334592 131.684082
-12.190961 -4.665049 126.948761
-17.163399 0.904396 146.395187
-14.228997 -8.083474 92.704811
0.319172 -10.849773 139.119217
-2.916751 -13.902972 118.534630
2.299265 8.676713 133.626343
-10.747304 -9.215075 136.975250
-4.524977 10.489485 86.769966
-4.458713 9.888132 129.255600
1.390188 4.655215 107.241295
24.907598 2.938012 137.254715
-4.638583 -10.576792 139.360550
-11.624660 -4.117014 145.663818
-7.708746 11.654779 131.535950
-8.434084 -9.284148 138.097488
13.372890 5.751637 128.508286
9.460463 -9.296284 115.767426
-10.305162 -9.767420 96.883934
-3.655716 5.860284 150.648148
-9.782866 -2.055831 149.366425
15.419575 7.681613 142.821472
-1.684056 7.498690 146.097061
1.842913 -9.446983 144.334183
11.672517 5.633153 94.260139
-4.631412 -13.506500 117.996429
9.915160 4.542032 106.425903
14.436780 8.709259 141.772415
16.364304 2.941500 125.054161
-2.909203 9.204573 134.976410
6.265686 5.604109 148.344421
-10.781249 3.104426 103.352913
0.320102 6.642169 118.685020
-4.056122 9.344521 137.634369
1.158996 6.121014 113.315033
-13.757260 -5.141512 98.505669
8.694899 -5.435556 146.288147
-18.983028 5.450788 136.642807
14.228677 3.525311 125.932426
2.787406 -8.146211 148.746628
-5.651390 11.904739 143.596466
12.456127 -0.069747 108.681435
17.883009 5.048731 134.616150
-5.670880 -13.459416 93.972816
0.624633 6.666840 114.121506
13.238485 3.293535 104.815208
-11.974285 -5.332304 141.540634
14.026587 -4.595508 145.022736
14.692627 -2.152382 102.760536
0.682135 8.897023 145.465973
1.871968 10.022802 137.904022
11.174502 -8.273033 111.822289
-7.960454 10.547902 136.263092
24.791409 7.611296 142.606598
-13.920425 4.433246 90.920555
-11.717285 1.031374 104.714188
0.330752 -13.267776 107.705612
18.313210 7.415907 139.965698
-10.696875 5.330791 100.304962
0.549807 -10.292802 144.103836
12.615925 -0.431399 90.767448
6.855281 -14.469740 106.860733
-15.269073 -7.026105 92.677681
8.435907 6.125870 112.868050
-14.791514 -6.682988 96.180222
-12.448606 -5.257045 125.380013
-3.604856 11.267148 142.248032
9.514010 -3.277084 146.820068
-9.082368 -8.654915 136.258270
-8.730844 -9.111841 140.299545
-12.798624 -0.267989 109.001236
11.423785 -11.004514 114.512093
6.195883 2.989125 148.111237
-25.043600 0.513424 136.646118
8.987181 7.610207 98.763062
13.711437 -7.403651 90.317177
11.144213 -3.013852 110.626717
1.754190 9.832798 97.860909
-12.449645 2.663732 95.021095
17.271761 1.767198 146.054016
-6.184370 7.010698 121.438858
3.306620 9.936846 127.495842
-16.776108 6.806126 137.933487
-12.808646 4.873926 94.527863
19.250185 -1.627396 136.146317
18.897123 8.436135 139.050110
0.573784 6.457574 120.272713
3.775120 -13.806254 111.556221
11.159398 9.212857 132.378220
-26.383270 1.253948 139.125549
10.877096 2.735090 123.128654
-21.216957 0.045103 141.278000
-26.931591 7.386475 140.378632
5.652204 -12.603875 128.504166
11.008665 -4.784781 144.606766
-5.744549 -12.209910 102.103630
23.141594 7.308628 142.208252
-10.550468 8.640800 106.132118
-8.012115 4.817260 119.583633
-4.709652 10.012573 138.206314
9.994925 -1.606485 151.290161
-5.877571 4.105842 107.501587
11.689356 9.556687 139.978043
4.157635 8.853265 126.074806
1.686483 9.009308 140.377136
-15.225730 -8.620197 95.238686
5.901407 2.788016 147.787216
-0.061950 10.114879 127.983276
-8.820279 3.891446 149.165756
-13.349580 -8.230803 100.777412
-11.101982 -11.674180 100.704124
9.476534 9.324121 89.459503
-12.363900 -5.712128 133.523560
-14.771081 -5.467994 137.954941
-2.829649 9.497129 101.457397
-11.233063 -11.177121 134.903809
-4.443396 8.155883 138.320160
7.203805 -8.463543 143.980881
0.586207 4.871670 112.291435
15.191751 1.796507 128.933044
-15.005285 3.334139 130.450394
12.712445 6.733562 126.816826
7.178719 -12.826950 115.069885
-14.456915 0.055138 126.185478
-6.859117 -13.038647 102.168152
-13.503223 -5.010250 132.884476
-8.321930 10.060321 142.728821
-10.899429 3.647523 117.496086
10.811984 -7.616498 116.615623
22.897228 5.161033 144.116257
6.976950 -10.278919 106.715645
5.750548 -0.860219 147.074219
27.403873 -4.426146 132.618958
-13.084432 -8.022186 135.119064
-9.056957 -12.302219 98.347954
12.537861 7.369029 143.145355
0.394659 4.701995 110.836876
3.960203 -14.803401 113.063889
8.088592 5.854757 145.984634
-6.543137 9.529160 87.270699
4.515979 9.920086 130.985321
20.580133 6.769825 141.628662
8.471570 7.746830 113.074203
-3.728467 -13.837355 97.438408
8.085359 5.543403 125.877502
-4.638551 9.828943 152.596344
-6.302658 -12.852310 97.479256
1.996290 -13.530352 128.040085
-17.407686 -3.984535 141.787674
0.051118 -15.075312 94.643166
14.516750 1.367424 114.834839
-6.279203 7.540955 119.250122
-13.011865 -10.079673 110.997009
14.876170 0.714955 88.760284
11.988009 0.275598 145.923294
11.037579 7.998151 84.616119
-13.748229 1.926965 127.370071
-0.863831 -11.855406 133.654694
-9.172261 6.976776 145.649063
0.535894 8.605973 140.758026
-12.542124 -9.246802 101.544495
13.423726 -1.054532 101.556839
-2.335567 -14.693911 118.720024
27.711449 8.013127 142.763931
14.527585 -5.284207 136.504990
9.752135 2.425674 113.969597
-10.091279 -9.726313 114.207253
13.084601 -3.090284 130.913086
-12.702783 -9.810964 91.714378
8.749284 -3.599690 149.228195
-5.782816 9.625853 143.101166
-18.230326 8.145518 140.817551
13.287243 1.373977 93.104828
-9.616200 -7.207446 119.110344
-14.939868 2.127767 127.340446
-1.346933 -10.190418 140.157242
-11.157252 9.837976 145.814529
-21.286669 -1.894331 139.817490
-10.232202 -12.115790 113.615723
12.008170 -9.174183 104.029770
2.029229 -12.202565 98.235497
11.536378 -10.475510 97.729393
-4.585629 -7.653264 146.474335
16.339252 2.441154 122.511757
-9.260059 -10.628794 129.135651
-4.507323 9.594705 134.710434
-21.670254 -3.771880 134.767975
-29.772486 4.944582 144.656693
4.211752 -13.769779 111.054749
9.593787 9.486290 143.829102
12.902955 -2.190551 120.027206
20.174034 1.568954 144.872482
10.823368 -1.705538 146.598541
-2.415070 7.482189 138.757965
-14.846357 -1.978702 102.038651
19.263407 6.846486 143.330276
-13.371369 6.085930 147.336578
-9.976981 -8.439557 118.675262
8.089559 9.632844 103.013023
-11.075402 -8.618372 121.091423
4.829954 10.293654 86.423241
-6.522719 4.258877 151.364258
-5.087620 -12.468651 89.265358
-25.393976 6.485702 138.486557
-14.469595 -2.471237 145.355103
15.828691 9.360915 145.937027
9.249740 6.432132 128.474808
-5.637094 8.022352 103.090820
-5.531971 -7.008987 149.790344
-22.365099 -1.654948 134.754852
3.730237 -10.695104 144.515381
5.136127 -8.225484 143.539810
7.098585 -10.139525 88.525810
5.594298 -10.263615 136.597824
12.608478 -0.790063 114.305504
-8.116328 9.000365 139.403305
11.687339 -0.083316 109.459717
-9.442147 5.357965 122.275444
-11.226290 -8.177462 141.518829
-4.914690 10.740778 87.569023
-1.145443 -13.837474 136.750473
-5.040170 10.258794 135.804810
7.117837 3.436607 112.487686
15.993362 2.112927 145.281815
-25.700258 0.896098 144.278473
0.047724 10.309003 87.999626
9.672048 0.182245 147.041519
12.875235 0.278981 110.837090
7.493309 3.313379 114.057335
-10.622484 3.400714 99.480125
9.550388 -1.526753 147.360977
0.905701 -14.031249 106.800827
13.974018 1.703143 123.502594
8.304974 7.981774 125.313370
-5.201222 10.929536 139.167557
-1.039626 10.709082 125.827232
11.818085 -8.809514 88.560806
-6.306069 8.382450 103.723969
-12.490241 -1.110627 121.734070
2.095287 7.443266 128.832016
-17.580004 -0.506383 145.754791
12.071363 -5.105420 122.340195
-15.300705 -6.535659 136.574326
13.542711 7.164552 87.760582
2.147656 11.007156 87.650116
-12.517501 3.830088 147.495972
-13.070704 4.618138 91.964394
12.004832 6.191085 128.184570
-6.948705 8.774504 94.847298
-13.974477 3.314297 129.190720
-6.813072 9.612390 87.209373
-10.551250 6.033904 93.238556
20.211340 6.283647 141.569534
15.117579 -1.195770 95.873184
5.742145 9.495230 89.111748
0.539837 3.497187 113.254356
-18.143684 1.567171 134.085602
-27.487520 3.178218 141.061371
-15.030603 0.693415 128.194122
-22.594814 -3.430862 141.110519
14.236358 -3.156232 126.896080
7.790402 6.459939 150.184708
-3.943087 6.793360 116.963860
-4.498359 -13.868302 116.518486
-2.521933 8.122094 133.136688
10.454617 -9.585821 117.300232
-1.801000 6.779462 144.636597
1.560943 -13.222396 124.328491
10.164204 -4.104117 142.682739
-6.886855 10.414345 104.813080
-5.039038 10.801011 98.147667
1.130352 -13.991368 92.800720
10.491535 5.246004 101.530365
-23.997543 3.143599 136.891769
-14.039688 2.619122 93.388779
7.696033 10.662797 139.730453
-4.892706 3.798224 114.975571
4.413064 -13.230331 109.218170
-12.303791 -3.745905 115.847794
13.065836 2.611175 124.006920
-11.314026 3.185821 116.104584
8.282106 9.961835 135.164124
-11.102520 -7.585907 116.857704
14.770615 0.531884 98.300934
-2.692718 -10.074415 141.435104
-18.106833 6.934227 143.423721
-11.969995 3.637794 90.951637
-17.445740 -3.182816 140.244812
0.236556 -11.983379 137.058228
2.015521 11.735013 137.031021
15.700111 8.670216 136.794937
-1.804502 8.953825 128.037094
-11.998512 -0.032599 120.915504
6.611929 -12.244537 106.210602
3.621210 5.516656 118.964493
4.655513 -11.527630 133.814896
-21.488522 7.422827 142.534546
-2.820685 7.269906 104.111961
4.789241 -14.520693 95.830368
-6.306601 -13.985916 98.461990
-16.894798 6.014215 133.885864
12.422974 -5.535786 138.584656
-5.828838 -3.917539 145.296204
14.688807 1.173362 90.366814
-0.610320 8.605175 149.669876
16.170818 -6.659762 95.727341
11.960453 -4.670952 99.576660
20.908180 -1.546765 134.615051
5.965173 7.956070 105.468994
-13.042658 -4.302120 132.916183
-12.989557 -3.254583 113.212120
5.661464 -14.371794 119.581985
-25.872223 6.447151 143.337891
-10.062391 -9.165568 115.874847
9.302078 -2.633924 147.773941
-12.066277 -5.837123 108.281059
-13.285435 -6.022431 137.135193
-12.567274 0.919520 117.696953
0.212390 -11.919334 139.692627
-6.576577 -0.741554 152.187500
2.169245 5.843521 114.359436
-14.131270 -4.031093 139.657745
19.073833 5.811529 143.074219
-14.112957 3.248651 132.651306
-20.941050 0.642729 135.268829
-8.150541 5.304768 116.774094
-6.987151 7.804523 143.055161
15.181828 2.504258 131.671661
20.949362 -2.420632 140.990463
14.077141 -6.228909 99.337135
-6.948437 8.168850 92.049637
13.444246 -6.800243 132.662292
10.327930 -4.179723 145.176498
-4.074738 -12.306891 90.763557
-4.293615 -14.840145 100.906494
2.836344 7.278378 107.742561
2.187456 5.871165 104.925049
-3.496650 6.861815 106.257866
23.665081 -1.929551 138.389130
8.626111 4.868206 117.774330
-11.248856 -7.032009 123.352547
-15.071914 -2.512773 129.544769
11.606016 0.206135 149.076599
11.715845 -2.976247 145.516800
6.626294 -10.021299 136.150436
1.404196 -14.630147 101.754875
-23.009176 -3.098799 139.297974
-6.218690 10.076601 139.674545
13.483665 0.893758 92.851204
2.874357 9.717969 151.223831
15.344457 5.928524 145.543121
-13.921598 -1.797107 90.738708
-17.300188 4.420875 136.962845
12.017619 6.398748 112.471222
-13.875942 -1.969967 120.911560
-7.816050 -0.817486 147.139862
15.142524 8.736949 142.829895
-3.720406 -12.300231 115.591873
25.035490 2.387468 135.791428
0.248790 8.668944 144.297546
-12.097422 -10.492137 95.113701
-1.393759 -7.970296 143.791092
-11.269014 -7.731203 113.383003
-9.075524 1.790346 120.235771
-11.472299 6.716769 111.306961
-5.554481 -12.045506 95.851753
-6.907828 7.798538 125.543068
-12.310934 -8.989762 99.365089
26.842066 6.389090 137.107330
-4.589911 -13.549160 126.787910
-11.672921 -8.241688 109.825668
5.729057 6.416096 119.776993
-8.684186 2.943467 147.580780
5.058030 -5.762479 146.660797
5.562072 4.825363 113.734528
-13.249929 0.642408 129.415222
-3.103837 -7.713198 145.268921
9.802043 8.938847 139.180923
-10.795452 8.951985 106.760895
10.418172 4.941381 113.087494
3.729157 5.597382 116.726395
5.399939 1.776185 148.962677
-16.453497 -5.188878 137.156189
-3.483852 11.537563 141.718704
0.417010 6.254301 120.511536
-2.850186 -11.433663 91.981880
-5.403042 1.044925 152.134064
-12.993140 2.369219 118.879883
-9.464664 8.065794 92.425850
-11.836436 -9.468823 103.093048
-14.847390 -1.445868 91.895035
9.778103 6.514082 95.348259
16.344189 10.275813 143.839478
-12.396961 -2.748783 110.997726
-10.254599 8.799170 100.149529
-7.564939 2.792861 146.942291
-1.793070 11.677188 93.053658
12.210292 -5.625236 139.778900
-3.260323 -13.636079 103.796379
5.785836 5.743937 121.769089
-8.862992 -9.352389 137.223083
10.525091 -2.530309 146.216003
-11.756706 5.824269 104.192116
-0.290008 6.322142 119.709213
17.814266 1.665508 135.069458
-12.933577 -5.508480 117.788467
4.866576 8.637869 128.883316
-3.713586 5.559819 111.434326
-10.769446 3.625481 147.290100
7.348084 -12.191776 111.624626
6.407250 -13.803094 123.431252
27.061317 2.783109 144.273392
23.281038 7.317952 138.825058
12.556755 -4.255841 105.265968
14.043481 -8.135944 94.927383
-12.296551 2.397918 100.875839
-9.330612 7.878717 129.966309
-2.129938 8.500485 142.264465
-23.006643 -3.088197 139.716858
-0.553821 -11.764699 99.949829
-5.074011 -12.211683 131.107834
11.548093 2.128493 125.804558
7.677446 -6.347591 145.683380
-13.835451 -3.578009 130.717743
-14.042747 1.261144 90.930962
-13.187429 -9.393532 108.050819
-17.413988 -3.991418 136.136368
10.855114 -5.976549 144.395828
5.330071 7.891840 129.865982
3.996938 8.863095 106.782921
9.663796 -10.178674 123.735207
-12.231091 -3.260855 106.484749
8.790171 8.543911 132.762909
8.007271 7.891700 141.001968
2.537081 9.173521 98.763161
-8.996777 9.882246 129.942398
7.769337 -4.026394 146.505081
-4.532571 8.749515 147.398041
-1.250753 8.951185 102.717026
17.220123 7.702664 143.082916
10.447816 -7.599831 125.202225
-4.921049 11.279291 141.886719
6.744550 -11.439619 121.368271
10.517301 -9.868880 110.930222
-23.192221 5.811193 141.876343
-19.351028 2.150576 132.276215
12.295140 3.581391 115.406250
9.021141 -10.398992 89.007561
4.011415 10.464248 134.371124
3.941547 -8.738494 145.169327
-12.068464 3.768702 122.152824
-17.457315 -3.687304 138.812881
18.044407 -0.072429 144.756683
-0.050523 -14.711582 97.270111
4.850395 9.072454 104.871071
1.648193 5.399509 151.435303
-11.084617 8.939514 132.212036
8.086422 8.993285 109.026657
-1.042848 -14.989507 134.677078
3.172553 -14.806464 93.437408
0.764265 -11.587386 133.886200
5.367033 9.660278 132.025558
10.765514 -8.683503 130.734283
-12.274343 0.490415 109.163727
13.178173 -1.471326 100.472160
6.294654 1.913258 148.992371
-11.824565 -7.661017 106.670792
6.995291 4.884732 120.200699
8.712700 -9.350590 128.770767
-1.915602 -14.197286 128.024490
-6.572731 3.562437 111.156639
13.271401 3.105114 148.116333
4.162210 -15.132575 117.596527
8.909170 -13.565548 95.159149
-5.780714 13.208311 135.825806
3.704091 -11.676118 136.648453
-5.958834 9.141191 91.529083
14.814487 1.285346 132.112656
6.539363 7.065945 146.594894
13.580913 6.401768 142.851578
-10.367106 11.873845 138.353165
3.027565 9.056024 124.617767
20.675098 -3.527748 134.982361
8.844740 6.278321 93.901405
7.092786 3.259419 152.752258
17.073721 -4.560274 134.937195
-0.911197 -12.488367 146.117538
-5.283807 -11.538332 135.043900
-6.777982 7.887630 136.152786
-10.104133 -6.251035 140.842819
-4.788902 1.039864 151.761887
-9.419295 7.017695 129.974976
-13.982170 -8.159785 97.494583
-8.456427 3.998785 119.624199
-13.179716 -6.460816 130.951721
-17.260422 0.287558 134.184830
-18.611897 -6.356555 138.951904
23.049187 -3.353410 140.925659
13.324417 3.371524 145.004578
11.840413 4.693297 95.247231
-13.643949 -7.349663 98.733788
-6.605265 9.156779 129.578323
-3.528657 -9.233633 143.568619
-4.331774 4.667215 149.392593
9.300295 5.545440 123.479927
-4.474230 -9.683022 138.133438
-6.398297 -9.457688 140.745956
11.505614 3.748273 144.372055
12.927265 -8.406693 94.777191
14.726430 -9.765455 89.968979
7.793212 5.209265 124.474182
-5.117460 -13.058887 96.355606
10.929471 2.720662 99.838181
-4.929251 -5.631050 149.503006
-21.447779 -2.739589 140.412094
-13.062400 5.440498 128.342148
9.982729 8.110279 133.713425
-4.336471 8.355936 105.899933
6.893090 3.275535 148.078491
-1.624357 -12.588840 108.988991
12.951835 -9.983096 95.034798
12.032926 1.400515 97.353645
-10.893128 -5.642107 118.975708
-29.282234 5.333858 143.864258
13.567123 -2.951886 92.082443
-1.824241 9.054247 129.527847
13.466985 -6.341867 137.323700
-5.349030 -11.748500 134.274094
-4.443819 -13.116252 133.196793
-1.798955 7.920728 103.630974
9.627831 7.808860 131.039001
2.867155 8.939216 150.173416
-14.668993 -2.716759 132.990906
-10.493256 -7.367184 125.821892
-7.908602 8.687755 142.912872
-13.571434 7.086831 142.554871
-14.920362 0.286254 130.342468
-4.049753 4.900226 115.003754
-6.793334 8.364577 121.782005
-6.220945 7.670112 145.528519
0.607117 -13.789780 92.089981
3.038742 -13.541234 91.796753
14.588912 -4.166407 132.219177
5.876564 6.847625 109.836403
-9.891687 -11.212614 108.837288
-0.427096 9.188050 122.690254
-5.118234 -5.094259 145.547119
18.202089 8.329180 144.070190
-9.100534 -5.578284 123.391968
-25.890627 -3.002613 134.125381
23.430782 0.393615 134.680695
24.948502 2.980211 143.347763
14.736521 4.212677 146.694244
-10.085706 -11.917348 91.119728
14.884794 -0.391987 117.550362
-9.991053 2.440229 147.639847
-8.459273 7.366580 142.555740
16.169025 2.633608 87.318222
14.783044 -7.592593 101.594292
8.763483 -10.007445 137.357910
10.505435 1.927441 114.368942
8.328031 -11.852709 127.229668
-7.981254 9.153645 105.685570
19.106234 -3.621122 140.610992
-23.252037 6.041196 139.294785
-4.717369 9.982713 131.147781
5.793732 -10.877764 138.673737
-14.452544 -0.137619 115.404701
-13.850766 -4.785113 98.774979
5.964022 6.750319 107.594215
-26.937393 6.754695 141.425888
-6.307178 10.169127 87.145424
2.304005 8.570919 104.399757
3.613164 3.916714 110.998627
1.833938 9.759950 90.070480
7.261162 -11.220398 118.459244
-8.985359 8.996588 105.050240
13.779756 2.263744 92.472427
5.144551 9.390460 136.895630
-2.397694 -12.112724 110.876945
8.464666 5.010588 124.413864
-5.769322 7.190117 146.965271
14.339515 -8.909905 102.882149
3.637770 -7.315977 146.748199
14.367717 1.241881 117.686554
1.120489 -11.340611 127.553520
-13.677659 1.512846 148.645462
-16.547871 -0.179147 145.842300
-13.161854 -4.878663 124.820251
-6.777117 -6.170531 145.450653
-14.781640 4.546784 134.311707
-12.575886 1.738063 122.353699
11.519379 1.097807 122.249359
9.354730 -5.173724 149.237610
4.822725 4.515735 150.707596
13.311667 -8.539349 105.672089
-9.508691 -9.963644 111.587326
-10.426282 8.900069 135.223831
-2.317011 -9.388638 143.737305
9.161691 -11.422615 120.881020
-10.819561 6.181455 106.453384
-18.516779 8.689057 136.895294
-17.077005 6.272962 143.042145
7.887143 2.832526 118.427711
27.508955 5.394364 138.541428
8.817621 -12.022635 121.092262
-19.898121 1.649035 143.655426
-9.914175 7.359885 90.266983
-7.216442 2.552471 114.803154
-12.155586 -0.174241 111.155586
1.176814 -14.667235 97.744370
0.950163 7.673646 114.685387
7.868569 -13.780760 96.640976
-3.902151 9.343466 128.333435
11.124771 -5.721914 120.710442
-0.583241 9.120998 102.795067
-6.229841 10.007406 98.174156
9.444387 -8.123088 137.987106
13.450206 -3.427033 142.010803
-13.597329 -0.052825 146.469070
14.267158 -2.648849 104.327690
-9.250482 4.925598 149.786423
13.663776 8.977449 134.822876
-4.957285 -13.652814 136.316391
7.979860 3.642645 116.926819
-5.286212 -13.231652 95.052963
7.604114 7.938974 134.062302
-1.559869 -12.634637 123.471291
-15.099615 -3.997307 135.940903
12.960776 0.490745 113.610657
3.768988 8.202662 146.258392
-22.544514 1.390054 144.663116
-24.667458 -2.096057 134.386505
-7.562244 6.080392 120.331024
12.426892 -11.157986 97.907806
-10.847316 -2.672895 102.427979
-5.990276 -12.904165 121.811485
15.398370 -5.080846 139.886871
3.321340 10.578125 96.641754
3.422338 7.446191 143.988235
14.890520 -0.365589 127.936867
13.983621 1.227866 90.493752
-14.326927 -3.868482 96.049217
11.743776 6.684957 99.845734
7.141891 -4.500595 145.690704
10.861665 2.540991 119.284302
10.629848 5.824056 112.471542
-12.688641 -4.982115 109.599060
24.974815 6.996208 141.101562
15.386608 -5.444365 141.714371
-2.186148 8.715172 103.155563
-3.436550 8.923011 148.088440
12.984753 5.598564 143.950195
1.139245 3.064837 113.140877
-3.356036 -13.212537 120.865044
8.684222 -10.240593 136.660141
12.327277 4.166757 123.716377
7.075748 -13.318954 94.979004
-6.483236 -10.305429 140.677872
4.243978 10.610997 93.644188
-10.332828 2.782165 121.757751
-6.417449 -12.122396 102.158989
12.784127 1.616617 116.225800
-9.874920 -7.634663 137.984451
-2.095088 7.394119 150.371323
-1.609694 -11.651150 92.576004
-17.305679 -4.427764 140.302658
11.799099 -9.759029 130.247192
11.625831 9.675520 141.096024
-3.447706 -13.859740 102.013420
6.529367 -15.651502 92.393921
-26.664433 6.266727 139.352798
3.983730 -13.671649 133.379578
4.926404 -15.607261 92.831551
-6.779137 -11.691240 132.317093
12.782636 -2.722854 127.186813
-9.170263 -11.601684 95.794563
14.673205 0.328938 91.090355
-10.431048 5.231107 102.422569
-5.544155 0.704714 146.116684
19.132811 5.327691 142.103638
-0.249394 8.361583 140.764008
-13.156404 0.241747 102.820267
13.469180 -1.082558 117.071350
-12.051537 3.411118 128.503571
-7.462131 -13.678441 132.990143
-5.761851 5.992848 84.968575
6.773535 10.056977 93.401939
6.461536 -13.117717 117.401947
0.010550 10.095187 123.237228
6.588245 10.658042 132.738708
-8.343604 -10.422399 104.051544
2.227394 -14.563217 116.875641
-6.872283 -6.550753 144.316101
-4.458208 12.702395 144.269943
-6.224130 -2.506514 151.812057
5.362841 -15.813821 94.921089
10.815123 7.495251 146.210297
-13.587723 -3.717713 125.771278
-15.375394 2.026629 145.984863
-20.192139 -4.758216 135.550186
13.029882 -5.100630 139.940567
-12.257118 1.682357 108.909309
12.708838 -6.461451 126.536285
21.188322 6.012241 144.241653
-12.634433 -8.719827 119.683990
9.554628 -4.705851 147.847519
-14.049564 -2.894217 98.143875
8.738216 -10.577780 109.047600
-25.622911 0.199276 143.962326
-7.180374 -12.219938 110.287186
1.332128 9.193738 146.584625
13.615637 -6.041230 126.180801
4.150986 -11.605258 113.009857
-16.640985 6.819695 142.369537
-5.129941 5.632550 108.972473
14.489321 8.329390 145.336014
-3.166672 8.947069 99.172691
22.114580 -3.162351 138.252335
-1.350357 4.996923 107.623482
-19.415991 -3.860457 143.520523
6.184180 -14.207710 95.018082
-10.353128 1.641382 109.248734
6.896537 -13.216362 101.414070
12.173291 -7.362451 111.586121
7.821164 10.472301 96.781471
10.149603 -8.985791 124.087975
14.034732 -0.919127 124.643417
-13.061808 10.697616 138.263550
-18.937506 -4.682889 135.902954
-11.996346 -3.396159 113.714050
9.607222 -0.129854 148.550720
-8.642793 -5.932519 143.797836
-11.027169 -9.097942 114.092850
-7.473094 -1.071834 152.742752
-8.933040 9.591292 136.173767
14.823488 2.295063 118.438225
-2.931038 8.524679 148.423508
12.294481 -2.766050 149.446365
12.000001 -10.172451 121.000923
12.640544 -1.223202 105.763947
10.697756 -6.845802 116.008781
4.591598 9.237694 138.889725
-9.276778 5.174006 113.682602
-7.868659 3.297244 148.756836
3.414001 8.514268 104.473717
-8.808538 9.826823 133.830551
-10.311852 9.758324 91.341370
-0.678924 10.302922 153.949448
3.455356 -13.971449 105.404259
-8.214740 9.599264 137.634750
0.435841 -11.114897 139.014404
-18.317081 3.619705 137.255066
-9.351512 3.753985 118.580124
-22.800842 4.753627 136.329727
-12.226955 -5.623178 119.465309
8.700566 9.513970 140.773102
1.518789 -15.620918 93.673073
7.928587 8.307059 89.132225
-4.462976 11.520476 144.005661
16.035475 0.796464 133.980606
-4.170416 3.985046 114.067017
-10.821206 -8.345895 95.465088
4.852509 -0.885004 147.211487
8.271521 -10.818649 115.633408
-16.214888 -5.571390 139.874939
-6.398170 -11.793180 130.276016
20.388771 2.971727 136.914932
-10.999079 6.366377 89.986526
6.998994 2.564119 145.415146
-15.206815 8.447658 141.299850
5.973780 7.621661 130.839737
-21.372883 4.015023 145.784164
-8.604811 8.908781 99.082962
15.082415 1.109884 127.818405
1.548882 -14.363156 100.993011
23.374172 0.275866 137.702606
14.855766 -5.497587 98.211731
-3.089701 7.527654 116.819489
14.884894 -5.038845 138.762070
-16.828888 2.031529 133.941345
-16.982113 -3.344922 134.389267
-13.030021 -8.531684 111.065659
-2.932323 -11.728666 140.668060
-8.326442 5.890683 123.531769
5.889750 1.640133 151.042450
-15.537489 -2.659077 140.605759
-12.703267 -2.251692 115.373039
-14.780324 -8.633678 101.580269
-3.440670 7.271000 152.247009
-12.093251 -6.360198 140.287079
-0.501317 8.237204 107.509857
26.147589 -3.776826 136.400146
9.970336 8.932997 135.037323
22.894447 7.492599 139.951035
-12.115904 -2.383317 111.050438
11.741435 6.671216 145.486557
-9.126059 2.896220 117.016373
-11.303705 4.497879 145.476807
-13.458016 -5.347276 103.182884
-11.974805 2.753889 96.166908
23.267075 4.561369 136.981201
0.754367 5.653324 116.287300
-21.089336 -2.515023 141.108047
4.826675 -10.824345 133.123322
1.049078 5.606444 112.674797
1.508870 -15.093575 102.821236
-3.594263 -6.398588 144.966949
-21.947123 -3.000353 141.058701
14.254224 -3.263603 141.748535
-11.973575 1.563078 126.472488
-11.045046 -1.221154 146.648514
16.827381 -4.482742 138.466492
-7.553770 10.575196 139.008835
10.604952 -5.384897 142.545883
13.111680 -2.415356 112.729729
0.199578 9.933247 125.034737
-15.082547 -6.329696 92.014709
-3.477973 8.918114 121.696762
-7.918352 8.567032 87.166626
-7.844959 5.927523 112.157661
10.623076 8.012344 142.726028
2.590190 -14.557936 113.071892
-11.570891 2.852103 111.649620
9.958425 7.084966 100.179306
6.789379 4.199679 119.347221
14.343050 0.823815 96.191925
3.699389 -11.593641 132.029678
13.866446 -1.880530 100.699440
-18.714357 0.073008 145.768829
3.787518 -16.072187 114.933731
-15.595589 7.360505 141.305664
-11.993669 6.570661 132.993469
-4.828244 6.142673 116.132828
-9.517076 -9.331381 107.878174
9.097358 -12.287754 101.190468
-22.045156 5.041958 138.560074
17.882837 5.282907 142.816818
9.769270 -12.360818 95.768356
3.155178 9.161135 95.683945
5.418217 3.711437 148.969849
-5.161774 2.863102 152.631577
-5.377049 -0.024516 151.006805
19.888817 6.132808 141.223526
-2.915578 9.877293 146.950012
13.071715 -5.448628 99.612411
-9.607332 8.529828 134.005371
10.736522 9.379161 141.252884
12.213530 7.761571 145.415146
19.923834 8.104782 143.346268
-17.393398 5.917186 136.787674
7.155055 -8.050546 141.264175
0.988510 9.276795 98.287575
10.223182 -11.085443 115.508743
-6.262578 10.593459 93.146248
-7.293270 3.411803 118.800171
-24.780535 -2.644736 134.923584
7.236001 -12.762506 113.043915
-13.081569 3.705649 111.791763
-1.352057 8.771770 142.182053
-12.439022 1.806559 123.684471
-21.623554 7.187172 138.478333
8.928864 9.095394 131.034866
10.549909 5.944807 96.932060
-6.623604 -13.375521 125.903229
5.518728 -5.162680 150.150986
-1.255110 4.358856 110.764091
10.289146 -10.712566 110.422989
1.671041 9.536256 133.123215
-3.530209 -14.035810 103.014236
-17.956022 1.219045 134.146851
2.327177 4.648363 114.769348
-2.309223 9.053609 135.248398
5.220484 2.061746 149.066681
15.581054 -4.358072 138.169922
-4.590654 -12.595793 128.357346
-6.861598 -2.885213 151.088455
11.313186 -7.299486 109.826141
1.199773 7.890009 144.319809
-19.292490 -3.310080 141.848846
10.553164 1.269733 110.159950
12.879754 -9.659597 94.896774
21.996952 0.399861 135.031006
-11.975216 -2.796308 98.818001
-6.084885 -6.879981 146.221222
7.508945 6.510389 108.221291
-8.729903 -3.488728 144.892853
-5.472621 -4.685989 148.433197
6.923099 -13.952398 131.041534
-8.118053 -11.000948 133.705673
6.833123 6.040002 148.698303
9.506093 -5.960267 148.376266
-7.532288 -7.636663 147.126572
6.529683 9.722578 133.704193
25.404722 2.817518 132.398361
0.520338 4.178870 110.856346
-15.118076 -2.960867 129.602844
15.895835 3.708414 147.352615
3.257625 11.782845 130.221375
10.253536 -10.718657 98.081100
-10.385984 -11.089530 109.127144
10.899007 7.571302 104.404236
0.099050 -15.485324 142.230804
12.444485 3.753486 106.864105
7.423651 -11.822462 112.903152
12.370743 8.331100 145.741226
-10.750598 -5.055600 142.308823
-2.791316 -6.246434 147.315674
-22.515285 -0.025904 136.339615
5.110126 -0.426454 152.638535
-14.075369 -4.347914 123.320786
12.377393 1.506236 124.630058
-10.268574 3.684105 112.642990
14.670185 -6.658462 98.354080
6.767828 -13.140743 91.473083
-22.229288 -4.250607 138.542252
2.692056 9.674857 138.985474
-20.157249 5.960194 142.317108
16.785578 4.716385 135.165695
7.165868 4.905860 111.061401
13.128620 1.070694 94.509277
13.900960 -6.484866 133.131287
-2.571932 9.780192 141.310287
6.181669 -13.955239 93.747612
-13.959599 -5.521308 139.046158
25.261545 -1.265810 143.293182
-18.382353 3.272517 135.348511
-10.134368 -10.366917 105.206184
0.426592 8.663559 140.943542
2.342887 -11.947725 126.153801
-14.294068 5.291497 135.030533
8.541195 -5.600024 149.599594
-15.184816 -9.148095 92.002205
-11.089132 7.021546 134.376068
-9.634515 -10.201487 130.873871
5.427164 8.013872 144.136475
-7.586233 4.495271 148.669403
2.614805 6.157208 148.437897
22.717140 6.080833 144.719025
5.334970 -14.138589 112.123596
7.634055 11.040455 139.115341
20.556330 -2.362990 141.806274
-13.737615 4.920019 116.488571
-1.646226 6.696393 107.952950
-3.054076 10.964245 93.672493
-13.315085 5.676736 144.332947
8.232415 -11.345654 119.524422
2.306614 -13.685530 115.379669
-12.002408 -7.097897 131.377747
-10.804020 5.689388 121.945717
-2.209692 -13.691506 111.148453
14.590949 -0.013849 148.337448
25.766045 6.238239 136.384583
-7.418788 8.936692 127.497169
-4.261145 -9.128221 145.685043
-12.491810 -6.494143 127.886124
9.923571 -10.214300 113.970230
-20.493443 7.251264 138.164276
5.658236 11.332580 140.197937
13.679933 -8.795635 103.621155
15.251072 5.398774 133.676315
13.223837 -5.199550 125.845917
-21.593731 1.841460 136.910156
-10.198164 8.676397 136.258911
1.402023 -14.330709 122.496834
11.484898 -11.974514 95.968124
16.901066 9.344841 143.030411
-11.951004 3.556691 112.540009
-25.261459 -2.609342 139.440674
-9.338140 -9.222343 133.809097
-0.912709 -14.915820 120.994263
-22.535267 5.919181 140.123428
-6.951137 1.534759 148.846725
-13.002940 9.129778 143.146637
-12.456233 -8.360298 104.292488
10.653660 -9.232528 129.131012
8.256238 2.939267 121.602684
8.576851 6.759240 96.229935
14.723337 -2.433675 93.331810
-11.225440 -10.549106 93.860313
8.402581 7.219830 89.894241
-8.561792 6.308638 117.779114
-12.416695 -6.898149 131.069168
2.014542 9.980766 95.010414
-1.456080 9.805668 134.566772
-6.342453 -13.371882 98.451698
6.698912 10.592965 138.764694
-2.279731 8.756464 132.744904
-10.911672 -7.892987 130.420303
-18.855791 4.874803 141.585022
-8.174103 -10.964118 122.506866
7.311569 10.766271 136.076080
-17.539982 2.996409 143.331009
-19.314474 3.272674 136.264954
22.022385 -1.781545 135.049973
-6.388389 -8.308000 143.210419
5.390387 2.934731 152.998077
13.145280 -3.432952 143.786758
-12.017816 -8.077968 136.276215
-9.440420 -6.894237 137.411148
3.222799 6.046750 116.906776
11.339029 -7.353580 139.356476
-0.200922 6.098723 113.803093
13.014695 0.966941 91.855324
-12.050043 3.051179 129.740372
3.152757 -13.789124 129.903259
16.040497 -1.140813 121.644295
5.853374 -5.948964 148.540665
1.317806 10.462625 124.795189
-11.909750 -0.208164 104.172157
-2.639410 -13.108945 106.331795
10.991273 -11.088677 96.907005
10.379230 -12.291109 96.597450
-25.562080 6.325715 142.411392
-17.129852 1.001609 134.199829
13.267379 -0.995489 103.768341
20.810884 3.910031 136.482834
-8.071691 5.832482 147.044312
13.163148 -8.016608 112.754204
14.240192 -0.555411 93.397278
-13.651876 -1.437320 92.977074
4.729919 -10.625570 96.820038
6.619596 -13.184528 121.020882
-7.883216 -11.816704 116.298378
-7.257467 2.109614 112.893898
3.815261 -5.822927 145.808609
4.386566 -7.744502 145.956055
22.205881 -2.869717 138.561218
-16.480242 1.140728 91.367470
-10.428049 6.981635 107.415092
0.598473 9.248958 140.664276
-6.571126 2.886129 149.968246
14.010639 -0.188358 148.901184
8.792130 -11.095426 117.903503
10.653011 8.410627 132.002258
-6.771760 0.253528 147.732025
-12.480703 0.351425 112.010033
-7.033063 8.436234 141.534576
7.165186 -7.942820 143.487579
-9.398020 -4.398461 118.933739
12.087406 0.306313 108.444427
5.648846 -16.285234 105.878708
0.206528 -12.261208 100.387123
1.357737 10.796194 96.058403
-23.054638 -3.442608 135.055710
23.551617 7.875942 137.201294
-13.313485 -7.131931 135.671768
1.046922 -13.504784 91.001060
12.971837 -8.021646 134.774429
1.170765 8.919736 93.491852
-25.376043 6.823701 139.471054
-2.472608 8.276865 135.381592
6.066499 -8.100209 141.128494
19.918154 -4.021057 135.436996
1.692454 10.503464 139.607132
-19.496241 7.603621 142.833511
14.237591 -6.511182 135.353851
14.560145 8.865388 139.751648
-7.069744 9.724415 143.112259
12.069833 8.623704 145.731522
6.293265 10.783084 129.786819
1.032160 9.882930 100.800476
-24.619850 6.101258 136.967270
24.198387 4.130754 136.758759
15.145261 -2.773862 96.264885
-22.830626 -2.786961 139.498688
14.618772 -8.598506 99.241119
28.478275 -2.266150 143.192825
5.009839 7.354900 122.499557
-15.592232 8.237022 141.207825
-9.474365 9.835786 137.964508
3.843323 -12.313262 128.086914
12.135761 3.166567 92.418106
-2.273337 -12.803313 134.672714
5.763104 -10.397889 133.047226
-1.780501 9.009078 134.133331
15.000205 3.050194 131.349121
11.654617 3.112428 124.074142
-12.467580 3.389598 88.082039
14.253294 -2.417683 95.633270
3.382389 8.544860 131.573212
-20.422649 -1.514638 143.242554
-10.741799 3.881729 126.579323
-6.305589 5.841211 151.869507
-12.180299 7.453482 145.488251
16.343096 -1.666699 145.653824
15.574309 4.050549 120.309486
15.370460 -1.252055 125.859116
-0.169197 -8.953760 143.705566
-12.737081 -7.141634 97.964760
-10.787209 8.330317 90.386696
-0.837845 -11.343266 140.318634
-14.017996 -2.469506 147.474991
-20.871063 2.687368 134.359695
8.557427 -3.883328 145.753891
7.039067 -8.606876 138.640869
-0.447088 5.731663 111.922256
17.054438 -0.524121 126.474640
10.225451 2.348212 101.205231
-16.093754 -0.687244 126.491219
18.994703 3.536744 134.557831
-18.611313 1.891931 147.028824
8.013000 -10.923097 121.264305
-7.010887 -1.243358 151.892700
-10.176338 -9.709913 103.965805
-13.103478 6.357567 92.511543
12.962880 8.262871 147.598694
11.911085 -3.003729 143.909164
-3.716081 2.909987 114.512451
-15.526524 -3.445559 142.327011
7.340317 -13.128716 100.915359
-5.175971 -9.524084 141.772293
11.006774 -11.386203 97.623421
-24.803274 -0.333635 138.036438
-15.463984 1.867196 122.372772
-8.830547 -4.905384 145.402145
23.127655 -2.781203 135.948135
-12.039127 -4.021880 117.715294
-11.888933 -7.846425 130.498032
3.957733 -8.101050 147.439041
-19.702391 -0.486540 145.846771
-18.191351 -2.484889 136.414688
3.271273 9.546484 147.784241
11.671481 5.025702 111.389832
-8.655509 10.734135 101.159325
12.369488 -8.392884 104.126244
-8.193129 0.040926 146.632935
8.468566 9.521275 138.408722
-16.189692 0.019817 146.818237
3.670734 -11.783814 139.084473
5.092443 -2.197675 150.751816
6.571589 -13.874744 104.686699
6.252656 10.172749 90.327431
13.871740 4.162205 146.449951
7.343276 -8.355786 138.376556
-8.980599 4.786398 147.609253
-5.610987 -11.626117 133.229691
-3.159896 7.064762 121.528992
-8.531861 6.760132 106.663132
-1.570992 -8.683960 144.134109
-6.214092 8.695838 89.495216
-23.901962 -3.115226 140.879974
-18.186974 -3.331206 135.346298
-21.802198 2.676006 143.851944
9.050057 4.199049 146.331497
-10.850007 0.150104 146.877731
11.406414 -6.996668 114.152283
-8.769983 1.807766 122.323853
-1.880702 9.981891 135.149628
-11.147378 4.610760 100.621239
3.776460 -11.362907 136.962067
24.425619 4.994581 144.753906
3.304024 5.729239 119.516838
-11.060794 4.835843 124.789719
-11.456253 -0.563907 114.099602
-1.145774 -14.058813 108.610634
6.609732 -13.115155 118.312996
-6.064786 -7.086828 144.713394
12.575697 1.784099 127.889763
-11.549510 -1.194041 112.538658
15.952106 -2.751173 97.627968
8.418873 1.847567 147.739182
2.570532 -13.802568 109.727989
17.899771 -2.510851 143.167328
18.006748 -1.848845 133.995407
17.527031 -4.419109 141.411423
7.293124 6.310424 147.653717
-3.502532 9.449944 136.417130
3.744436 4.898720 113.208794
1.438743 -10.795211 141.244003
10.827019 4.168402 105.660950
7.985713 -14.752093 94.882034
4.564089 10.445944 88.965302
27.019913 7.797499 136.141159
-4.061431 -14.515324 119.825829
-0.898385 10.354446 100.287285
-5.609711 -2.027679 150.652176
-0.791008 -12.649024 134.648529
6.276893 -9.130756 140.048218
-13.611400 3.865752 133.577789
-0.687784 10.433169 93.126869
-15.958792 0.239178 146.361877
25.632702 -3.667687 141.893600
4.714320 5.928800 114.706627
-5.456146 -13.343489 118.591156
-1.299554 9.133529 145.991241
-12.776123 4.327155 90.317360
13.802062 6.042192 119.370499
-12.939360 5.894720 127.467667
-17.572212 5.522589 144.742523
0.745032 -13.271042 90.773102
-3.453409 4.984691 150.076462
-15.368012 -3.670504 89.499107
-1.338765 8.502828 89.623184
7.610845 -11.531853 135.935196
13.763603 -3.258631 144.310913
5.833957 7.395345 129.698959
4.980038 9.249931 133.052521
9.043354 -10.984133 98.918793
1.555015 9.779768 125.917046
3.937600 -15.536170 115.770889
1.077532 -8.927623 145.282089
7.310669 -1.055478 149.880325
-15.671593 9.122957 141.492279
13.000624 0.616032 110.119919
5.816353 7.399830 101.313683
-2.493973 -12.159921 106.934799
-8.611717 5.969731 123.844711
11.244115 5.912239 93.573395
-9.895855 -10.389972 108.963303
13.129780 -1.860962 91.048553
-24.317167 7.198403 138.735947
-5.991990 9.798440 136.786865
11.144279 7.658609 96.090736
6.399620 -13.662805 93.019814
