ply
format ascii 1.0
element vertex 2048
property float x
property float y
property float z
end_header
11.298818 -12.514547 87.103943
-16.570383 -3.746217 81.727005
-8.877504 7.284860 88.650909
13.320163 -4.642709 40.360027
5.966691 -5.726858 47.382317
-8.465187 -5.740003 41.554012
9.662980 -10.384506 69.416954
15.656364 -4.475785 57.728912
3.721448 -3.746011 47.872730
-6.689054 9.258234 94.397522
-4.342318 -12.651334 104.831589
16.958557 -2.642167 74.103851
-15.642670 -3.488613 83.131096
-11.393309 -5.648775 45.240250
-1.993870 1.982451 76.279945
12.780699 -3.872684 32.312321
14.455894 -3.893924 56.966137
-16.196974 -1.389294 64.476471
14.018551 4.274533 75.533417
14.787110 -2.900800 70.430344
6.358848 -11.352234 63.372902
17.136589 -0.287069 59.924305
-11.942456 2.673826 109.527031
-11.969663 2.088133 106.214935
-12.201220 5.366608 37.505276
-11.147881 -10.221506 78.797585
16.369591 1.053108 88.094322
12.926520 -8.819963 105.886200
14.481035 -0.203993 103.191925
4.182866 2.036428 58.659378
4.396587 -2.266451 47.676750
-12.231107 5.422054 52.445137
-0.110571 -0.760819 78.980888
-13.768506 3.656182 42.882339
-2.989589 -1.252918 51.495701
-4.477149 -13.213975 90.365074
18.136318 -0.924074 79.974434
2.553894 8.523946 101.248871
-2.174448 -14.480290 102.042694
16.373985 2.780736 38.969017
-5.925912 -12.219032 103.085732
-11.859515 3.507236 41.031170
7.648838 -2.298704 28.066715
-3.059268 0.815552 49.922710
-6.146029 -1.720231 31.341175
-17.281698 2.290741 81.453964
3.560056 -0.661572 50.974960
15.743105 -5.793798 98.080772
-5.476148 10.245870 94.622147
-10.925412 -11.289285 72.977104
-11.547497 -11.489245 73.750916
12.934690 4.384792 45.925579
-7.736655 -1.508905 31.941980
-15.035410 -2.473899 60.305588
9.249121 -11.833187 99.152618
-2.659737 11.380131 93.868195
-2.477184 -4.150803 57.988567
6.149265 2.740978 53.533070
2.598708 -3.737968 68.370178
-11.315682 -8.304138 55.914989
-7.723235 7.384931 75.668884
8.569139 -3.969959 39.092827
-5.561609 1.076060 35.212399
2.532134 -3.866052 56.158195
8.161134 -12.924705 103.489861
10.136190 -12.953212 88.861420
-5.468154 2.830622 38.313889
16.571072 -2.538919 48.055820
-10.680105 5.432585 40.100533
-14.427629 -5.563230 52.872505
-8.348562 -10.731032 105.614021
10.876802 6.450772 57.688789
-4.948395 5.691908 82.386772
14.127598 -5.033045 62.906158
15.230363 4.524547 37.906616
-7.682675 -7.890026 49.951698
6.823007 5.092186 63.999180
2.756627 -5.981384 71.624413
6.158735 4.047796 48.565655
5.046744 -1.596809 43.773125
-3.424216 8.179540 81.182587
-9.110343 -3.201745 37.541782
-2.572475 5.776528 81.541069
-2.833152 7.680891 85.580711
-7.855210 4.953478 53.690792
4.630746 5.138252 61.054474
16.584595 3.003284 67.400017
13.869950 5.785991 61.242321
-4.795746 -0.425684 53.628407
-14.994748 -0.643185 47.434151
-14.565269 -0.834486 99.900246
10.543954 6.135275 64.985382
3.836663 8.031953 83.923820
-14.989609 -2.286743 64.745483
-14.589934 2.739636 34.251759
3.072299 3.814709 69.908981
-2.647228 -3.444195 70.484764
1.899978 -0.158228 78.161858
-10.491076 -4.472137 30.680450
14.809698 -5.905015 85.747566
16.266966 -4.990404 99.958519
-1.495699 -10.010077 80.312981
-13.168952 2.608923 42.533806
-9.860292 6.410433 71.580811
-14.052494 -9.788105 81.016747
-10.549044 -9.962977 97.659279
-0.126868 -5.862459 76.626976
-4.500339 -10.223294 74.231270
11.974861 9.000857 97.613823
-9.956771 3.641482 107.677803
10.905433 7.538210 72.212479
5.003217 -14.045037 104.290359
-6.580449 -1.229176 37.615017
15.230992 -3.934841 101.191986
13.254210 -10.786077 68.866463
16.584375 -2.483269 90.012711
-6.622556 3.635580 50.584591
-11.798382 -12.235482 85.512154
12.794531 -5.264430 105.993164
-14.409142 4.446794 72.157272
3.969746 -8.247366 70.037361
-11.385505 5.532865 53.489510
-0.291485 -11.940721 91.833946
-11.993481 -8.190143 105.035324
-2.973023 5.990899 86.755653
4.667233 4.731099 75.259949
11.066607 -11.258351 103.363358
7.805300 7.403910 105.564499
-7.048747 -3.909077 32.856903
6.136519 -12.655378 94.177002
-12.898001 -7.494510 76.206085
-15.700745 0.386413 62.028027
16.967602 0.574964 55.055912
-15.753523 -3.829320 62.855370
-2.193574 5.592752 82.708023
-10.143312 -10.817112 100.082367
-9.255681 -10.869919 68.896294
-6.007791 -12.768141 87.532425
14.416440 3.723705 68.049446
-10.833436 -9.850325 96.502800
17.289898 -1.940674 83.582619
2.609304 -9.395753 67.379944
17.287889 -2.018802 77.828171
11.602315 -12.036709 64.721100
-6.102655 -2.869397 44.577618
15.802297 3.489234 86.169212
-12.296370 -6.884245 65.710068
-5.051157 4.666502 68.510208
12.667635 4.909989 55.546886
6.648160 10.252917 83.560333
-9.558127 6.481015 98.975510
-10.867258 -9.613717 59.041130
-8.903996 -3.876417 32.559814
-12.908773 4.273884 91.746651
-11.559946 -10.617521 65.478569
-7.164225 -7.197530 52.175629
0.449400 8.244192 99.269623
0.248214 -6.496987 73.247299
12.571242 6.359224 32.151215
16.876331 -4.167023 98.253960
-1.837346 -6.263116 73.740868
-11.958859 -7.963268 106.913544
18.214371 -0.571806 69.883179
-6.277592 2.242523 53.383484
-8.937817 5.782353 77.525146
-5.435716 -5.326214 51.441288
15.928992 -2.910426 86.111656
-18.712357 -3.890010 88.639740
-10.142229 -6.211036 50.135303
4.133982 -5.634407 61.816036
17.131262 -2.263813 81.187012
4.701687 4.248457 59.324936
13.989131 -5.059271 101.332802
-14.618694 -5.019009 106.209854
8.459071 7.182995 69.100990
13.427896 -6.303133 50.205677
17.598118 -5.793907 77.543251
-14.809381 1.074854 40.648037
-18.051941 -4.507195 90.259705
5.813172 5.687931 59.330795
-15.953237 -1.179091 58.263542
9.465646 -9.812222 52.923943
8.925992 7.489757 37.106506
14.839514 -3.903524 104.934288
-7.469991 -13.612633 74.306023
2.029639 -13.806072 106.323517
12.555490 5.902634 101.679985
-3.623904 -11.292807 72.018600
4.527020 -4.420170 54.811283
10.072678 -7.615170 55.729233
-12.807632 -11.204990 99.095787
17.107273 -5.258748 85.391838
-16.317871 -8.424075 90.255211
-5.635289 -13.329762 73.395615
0.069980 -15.644701 98.970749
-16.191166 -3.095275 90.021774
15.277553 3.723006 78.480080
-11.091579 6.086800 94.492981
-14.371236 4.800161 75.059509
-14.306135 -9.091278 78.040276
-7.601279 -12.643948 99.357986
-5.651636 4.643071 49.031677
9.468775 6.702905 52.012371
10.685824 6.044235 91.781105
-4.968364 1.604234 35.904911
-0.932903 -11.581046 87.585701
16.102774 1.106338 87.195801
4.815466 -3.608181 57.915977
7.276842 6.041582 37.141708
14.301951 -4.613538 55.811916
-12.095938 -1.353928 110.073479
-11.550901 -1.662258 106.421524
-15.024191 -4.156458 94.764442
-7.231159 3.098638 41.793095
8.354884 -10.788571 104.869225
5.192047 10.350560 91.610298
5.269610 -2.715218 48.100010
10.639097 -11.551777 76.632339
-0.704266 -2.897414 73.430519
9.064649 -10.821981 57.918118
0.971173 1.503451 77.741646
13.972627 2.490712 85.697662
3.830035 4.674860 80.426849
7.435483 -12.391069 99.447212
-7.601025 8.237359 99.761208
-10.790867 6.070443 34.016502
2.476833 -9.163010 65.953941
-10.643289 3.981994 83.375206
-4.267464 5.608074 70.371201
-16.927357 -2.330663 86.996696
-10.454141 6.240322 56.533691
13.571082 5.202659 48.826855
-6.913987 -13.281529 73.702156
10.218966 4.751714 29.925968
1.598109 -9.182863 81.517136
-9.292246 -12.693913 85.030952
13.777616 2.545527 105.109032
11.856124 -9.381468 58.158524
-2.593047 6.259057 82.868782
5.786523 6.917814 82.864296
-3.452869 -12.321641 106.500191
-4.152859 -11.482080 82.240570
9.232086 -6.168829 46.804382
9.704941 7.112770 95.174721
11.485636 -8.359798 98.718170
10.406981 7.373354 81.101463
15.775935 2.134527 92.147964
1.739399 7.173142 104.417679
-16.405088 -0.992622 58.470833
6.687185 -9.263857 58.056057
13.907397 0.148291 42.121403
-13.214731 -4.146062 61.782623
-4.220563 -12.501569 91.888680
-3.971050 5.236039 64.878441
4.009269 0.305308 42.326435
4.061934 1.006932 54.450630
5.960094 4.622931 60.979851
-3.304307 8.995180 98.922989
9.618283 -9.911455 63.947769
-12.899557 -3.321071 109.053070
0.779631 -11.882745 92.100845
-13.929065 4.055864 72.350143
9.763723 -11.331402 90.787643
17.128424 0.133737 78.079468
8.178007 -3.907882 37.789879
8.294991 5.891989 51.038445
6.784786 -11.653481 66.358452
15.963346 -7.893678 85.201019
15.616065 -7.073627 94.912971
-17.470472 -1.267673 80.599884
4.177215 -4.026059 56.926708
11.644371 6.005951 36.955826
-1.203852 10.887305 88.085281
4.819436 -11.860640 104.342072
-6.529928 -13.713907 80.429970
2.501688 1.880544 68.455414
-2.399368 -3.676634 57.653873
-8.600452 8.571624 80.920929
-1.536996 -10.276180 85.828255
13.877071 4.381126 78.757736
-16.537466 3.398761 59.277058
-15.972007 -6.890861 87.369713
16.731762 -1.141356 77.180779
-13.377921 -5.024027 104.711082
14.583435 4.701232 54.356522
-5.482782 1.191587 36.298027
0.588270 0.796036 78.864082
-0.096096 -8.587610 83.414268
-15.354272 3.155789 68.244324
-9.969800 4.782972 107.394913
14.411577 -4.840128 79.934196
-5.415139 5.413531 47.737411
1.555090 4.309351 79.509003
3.069026 -11.340670 81.377419
-15.919865 2.253973 92.957626
11.383241 5.877297 54.989521
8.195262 -1.159058 28.989094
-10.081072 3.351846 108.285912
-13.231895 -4.737193 31.605902
-16.483103 -8.159671 90.816025
7.002722 3.740903 109.562820
14.586071 -4.230252 81.662201
5.110648 -0.181229 33.793427
-6.672287 -11.574837 95.703026
9.123727 -11.143017 66.064217
14.123748 3.605847 83.548325
14.372908 -3.513048 57.941704
4.212564 3.150876 73.415222
19.472231 -2.233056 78.564117
-13.557734 -8.111418 73.026627
-6.477579 -6.161984 34.899235
14.908053 2.942086 40.559952
-6.529350 4.789826 63.258823
-6.320370 -11.268404 106.554558
-15.128312 -1.797858 97.159698
-0.545379 0.898916 68.022133
17.705751 0.518062 47.499641
-7.640625 5.073356 109.400574
-11.701028 1.379998 101.667908
17.881762 -6.746043 88.131462
8.755136 6.359531 33.270630
11.385991 7.484649 65.592262
-6.206952 2.162548 51.621986
-13.324536 -10.529965 87.084724
-15.708083 1.480903 42.121479
3.046197 2.535561 69.705055
-7.196432 5.559050 46.790592
11.664743 -8.287584 59.328381
13.296600 -0.449804 108.041519
-1.841317 5.830953 108.744133
12.394952 -6.280783 105.719460
9.945235 6.297639 47.791714
-13.287000 -11.127208 75.747627
-6.592783 -11.380698 104.846107
-15.650812 -9.678693 85.624969
-3.518821 -9.309427 80.955788
14.167305 -1.110553 103.134048
-1.865575 3.406704 77.309433
3.258693 -4.723721 54.804054
-7.348553 7.008952 81.053757
10.801697 -12.176852 84.975891
11.824571 -11.434358 81.366615
-14.632650 -5.000072 48.916428
15.750605 -5.656647 86.446693
1.595154 -6.724352 73.645714
9.063366 6.387278 69.123276
-1.261392 5.380233 108.310310
15.156264 3.130885 61.644646
8.119479 -13.992969 101.647301
17.170586 -2.827969 75.000374
4.926785 4.947264 74.932426
-16.767008 -11.378904 83.382561
-6.050404 -11.682004 82.528297
13.513885 -10.694832 89.010574
1.991520 -1.382457 70.150276
0.067124 -5.739202 79.359695
14.550168 -5.329074 96.946556
12.597450 5.568299 36.470768
9.326741 -12.158462 83.089455
-12.947098 4.241687 53.328590
11.410181 -14.154997 87.613174
7.821633 3.162695 32.619846
-14.999974 -3.794899 42.526615
-15.734803 -4.408913 97.731522
8.716866 6.422642 61.101379
16.329725 -3.132226 77.296844
-9.352652 6.649915 53.464550
4.700164 3.140054 45.092587
-0.034918 -6.314696 83.854164
-13.426192 1.238974 101.969833
-12.312960 4.750905 96.422630
-17.087393 1.111304 84.109100
9.259507 -13.776247 76.570366
8.023921 -0.901845 26.290297
-8.151038 4.931544 46.874702
8.252675 -2.182375 33.491863
10.211870 6.195126 59.178497
-6.341395 6.704106 72.838951
-10.530535 -7.433278 46.863148
-0.538482 -0.519410 77.523140
-5.590213 1.797882 49.783672
-10.400777 9.041968 94.561897
-12.157651 -7.278872 101.362480
5.061604 2.363984 54.526890
15.456944 0.284674 44.184433
4.935050 -3.537461 47.052170
-4.128401 1.567023 64.808205
5.967044 -1.800077 35.415627
-7.911141 -10.859869 61.658085
4.741353 -10.455516 88.571579
3.762516 -12.776629 96.058846
14.856228 -11.668035 87.561852
7.272442 -10.788628 67.155991
7.623349 5.963391 71.465569
5.378143 -12.297003 83.523781
9.454417 -2.292250 29.959997
-14.174635 2.842373 52.036678
0.789639 -6.620126 75.498177
0.229321 -12.650021 102.626442
12.652617 -10.688586 80.081741
-1.596355 -9.979397 89.880096
10.526436 1.549038 109.086693
3.581826 -6.315656 60.814224
-12.282457 5.002337 51.224419
-1.979183 -9.635445 93.730507
17.567057 -1.320660 81.953011
-11.765654 -4.598436 33.656525
12.244976 5.470464 61.594490
7.174407 -1.620090 29.847101
8.162746 0.357594 29.589003
7.676187 8.566113 82.045937
13.195406 5.298735 81.928322
-12.453418 0.641530 105.833572
-15.301096 3.327211 79.531937
-9.546688 -9.654967 100.840034
-5.040823 -4.562857 49.413799
9.207950 7.084425 100.170609
-16.600424 -0.290919 81.191902
13.795613 4.949912 74.122406
5.865693 -5.583276 49.724579
12.738242 0.741888 107.446007
-7.482157 8.221051 78.086014
-3.308165 -1.822014 57.272495
-8.881718 5.779819 106.700813
1.263631 8.797215 96.740379
15.315455 -5.859762 88.993515
11.537905 -5.498200 46.954456
14.220772 2.338715 56.972988
-15.862354 -1.256756 81.352661
-12.948886 3.425749 58.828526
-12.147748 -11.506644 97.373878
12.844240 5.843734 79.776917
12.783170 -0.853442 110.279419
-12.798146 6.255813 76.389420
-11.594723 -5.083855 38.294037
6.158305 -12.457505 81.544983
-12.820612 4.400742 71.411621
-14.748196 -8.737345 96.638390
-5.306946 4.378391 66.830872
5.176756 -10.965260 68.639473
6.895166 1.199673 47.956059
15.659004 -0.603906 65.224457
10.290455 -11.920788 82.893471
1.032301 10.193989 94.952347
7.475110 6.517488 54.004978
-14.046585 -9.943911 90.849312
4.744037 3.727810 110.645996
4.909581 2.715723 65.104187
3.302446 -6.124985 62.675591
5.547816 -11.873354 97.042709
-13.206546 -10.183978 73.823616
-7.711879 -11.261666 65.426376
15.846617 -3.242046 56.371891
-10.256899 3.711783 81.692284
-10.195526 5.739053 39.730103
-15.098145 0.530663 41.540512
1.948631 -8.441780 76.841553
7.978947 7.237553 44.579433
17.875038 1.163198 66.665916
12.453477 6.191233 31.514793
-4.997777 1.472290 45.268227
8.544305 -10.740988 102.279808
-13.545063 -11.643150 76.850487
15.459257 8.874788 31.229994
1.115888 9.682805 93.558487
-5.223557 -8.896712 65.444672
16.847601 0.739158 34.436829
16.780186 -3.001089 61.148872
11.099423 -7.574357 47.233566
-15.481170 -0.597380 100.898643
13.526053 4.893279 63.286102
10.256894 -12.653461 77.901611
-16.044111 -4.049607 53.334545
0.702321 -1.466372 70.699303
-15.912470 -0.830393 46.544811
-13.429784 4.154764 90.439629
13.592066 5.418642 97.419594
6.919408 -4.182732 44.876640
-0.298827 1.200461 83.029640
-12.837549 5.422729 78.418785
11.545042 6.280106 78.291534
2.739292 -10.032528 98.184387
7.976090 7.830381 79.215973
15.377922 0.215594 70.398651
17.331142 2.893329 56.642185
-6.552839 -3.537719 35.357773
7.170470 -11.126822 67.266960
-15.195521 -11.453841 92.525581
-18.360687 -4.172246 83.775345
-1.688080 10.659534 92.867584
15.393958 3.330256 66.405602
-5.870895 -11.014836 88.590523
5.545333 2.037265 57.282570
-1.881843 -4.302984 69.552139
2.130280 -18.996321 102.936859
-14.516506 -8.147070 55.810829
-14.833366 -3.322638 65.453209
-3.148110 0.637070 61.179939
-5.230425 -5.943828 57.378143
-16.955000 -3.546026 60.778324
14.338534 3.365809 56.669601
18.491121 -4.441976 79.658897
0.889486 8.851921 93.783142
8.123946 5.970999 71.379158
3.146680 0.395467 56.534069
-17.559431 -2.318986 78.854126
14.182319 6.881540 40.913197
-11.428535 5.984665 30.005589
10.679406 5.800684 102.852600
-6.521930 -11.399644 69.603127
-17.417257 -6.053317 84.345047
19.148172 -2.069788 80.742950
-11.731176 4.392272 90.031738
14.789338 -9.120841 82.226402
-13.340896 -5.667295 100.964485
-11.504729 8.425384 85.163071
-13.442097 -4.955554 78.614639
-1.393420 8.063538 96.921005
-9.123594 -4.420713 43.502697
-14.637725 4.043571 49.173233
-3.033881 10.440188 90.417900
-8.834708 -5.070745 35.688995
-15.159006 -11.312898 89.608383
12.544549 -9.594865 59.557426
8.537629 10.299708 94.853828
5.128592 10.548853 94.671555
6.941700 -13.492954 100.567276
16.211514 -0.694785 82.686775
1.690198 5.534100 107.385963
15.289500 -7.822855 68.574333
-13.663714 5.040018 35.551964
-14.541141 4.984782 43.364548
15.653693 6.132412 69.750679
1.182826 -2.462603 73.342926
13.964935 -4.708606 39.361443
-1.430511 9.432505 96.124138
18.731014 -3.353049 97.753967
-7.373560 6.507390 79.854134
-16.414803 0.973262 45.614532
11.035745 -7.442188 48.822590
-4.665981 -0.232497 47.006962
9.659780 6.923814 103.087830
2.057863 6.525557 109.907730
4.758814 -6.903444 59.072594
-0.513873 -9.184571 86.104019
11.927104 -11.338492 92.299927
-13.867213 2.265213 48.086395
-0.044340 -2.278062 78.994125
8.680298 -12.716243 71.216232
8.875648 3.540626 26.483986
11.438933 -13.585562 80.364311
7.491173 -13.187841 79.316765
10.340630 3.331106 98.558571
-11.088378 8.579865 82.277885
-11.337562 7.296794 37.805893
6.551688 5.376846 40.170864
-5.321318 -2.509313 44.428009
-13.254234 5.480742 79.471794
3.356904 -0.897126 50.317757
5.112665 5.036179 57.565037
12.395861 5.782533 74.438690
-5.575007 3.036448 65.396835
13.954755 2.998234 83.405571
-6.184520 0.207644 41.337372
-4.554719 5.005388 55.217136
-4.496395 4.740184 72.820030
-14.416887 -5.558373 63.037052
-15.765302 -0.938046 100.267273
15.211392 -1.863945 38.476219
11.014169 -9.219416 107.562721
14.556094 -2.692339 90.221703
-3.529061 -0.874921 55.662849
12.849676 -5.782932 35.525349
17.439838 -3.366208 82.249466
-5.797546 6.280137 69.826828
10.882222 -11.239874 68.031982
10.707552 6.574837 80.312981
-13.952913 -4.225451 38.627270
-2.514612 9.399401 103.367386
10.832504 -5.158958 40.918789
13.466572 -3.988834 35.413620
5.542582 -13.213577 97.683777
16.230030 -0.204410 87.431931
5.924345 -12.015690 90.903496
9.668139 -9.799693 57.723484
15.564236 2.879722 51.699608
-2.884558 -8.425797 74.632866
-1.346306 -14.971692 105.670364
-17.787088 1.488170 83.945518
12.685426 6.561389 87.487083
-5.781787 1.334775 49.068958
12.323317 4.167266 94.962799
-12.176980 5.312050 88.583046
16.246862 0.935006 47.686783
-13.994020 -1.564421 45.926838
-15.610402 -0.735777 50.730446
8.265159 -4.851654 32.803997
-6.977154 2.461267 34.059349
16.393534 -4.732933 80.466766
15.236555 -1.235924 79.157112
-10.821460 -10.192193 85.705353
-9.622280 -9.905070 105.379875
1.442031 -2.165879 68.042374
-13.405678 0.023497 60.008503
5.787066 -12.937099 95.197037
-12.758562 4.036242 87.882057
12.425462 -3.777375 39.639301
-5.616723 2.308614 70.739555
11.116929 -12.829375 75.360321
0.862060 5.419136 86.506531
-10.573461 -10.404115 75.117439
4.613757 -10.650439 81.296509
-2.774040 8.553457 106.987953
-3.604500 -0.256524 43.985088
17.345490 -3.116915 73.475327
8.294075 3.133406 32.671669
14.673637 -0.592968 85.748711
16.294466 1.241079 98.535080
-12.211558 5.641357 60.188602
-11.415080 4.571311 51.625034
-14.821215 -12.694111 80.041039
-14.135145 3.756939 90.448273
-12.965478 -4.318540 62.074532
-4.947263 10.968123 89.770691
14.361427 -6.700107 93.921165
11.677085 5.229813 46.227299
16.644903 -4.936769 81.936348
-10.983128 -3.096485 31.046190
11.736467 -10.906364 79.270447
-7.287935 -11.808415 69.387314
-8.996293 7.609896 70.665085
-7.481879 6.722438 49.434242
14.988379 -0.503654 43.002747
-11.758466 -9.134401 104.256767
15.687986 4.018557 63.979492
5.543807 3.448842 45.265701
-0.327029 -13.428550 97.585503
14.002426 5.838898 70.754890
0.052766 0.971705 82.732651
12.187387 5.545478 83.922905
-14.274632 5.216913 84.961952
-9.931920 5.615674 80.088821
7.738375 6.732014 99.132797
-5.383786 8.046597 103.660049
11.280100 3.313153 106.679390
14.136038 -7.947829 84.398842
-12.070120 -7.180506 50.246231
15.296741 -4.574875 67.363548
1.103821 3.195487 74.409363
-11.591465 2.560565 109.076759
-7.392008 6.846726 98.674446
15.262479 -8.543652 76.014854
17.459206 -3.870776 71.481056
-10.470778 -9.414024 66.930000
15.738162 3.044244 71.958900
-13.219423 -6.742275 44.419945
-9.450830 -11.654643 68.755959
6.982854 -10.623652 65.220970
-8.123716 -2.716848 34.796757
-3.593669 0.770519 55.954964
-14.183673 -3.300550 99.525368
-4.645329 3.940557 66.292007
5.415646 9.208093 100.619446
-8.770630 4.944221 34.234833
1.084118 -3.734881 63.511654
-3.250996 -5.619799 67.215759
-9.433405 3.894712 43.591076
-4.485672 5.475154 59.201580
12.059350 3.763444 96.909782
1.086737 -7.017947 78.283447
5.332742 -1.191258 33.950558
-4.707909 -12.786332 91.544518
-1.586023 0.643545 76.218414
-3.256372 2.094515 70.966705
-5.763066 0.769280 48.204918
3.564916 9.999902 86.638290
-16.866577 -1.982182 73.348854
15.298511 1.475150 40.187592
12.252624 5.846252 50.130219
14.312325 6.026158 37.684906
1.920771 4.204025 74.051514
-18.412205 -2.166952 80.746689
-10.787012 -7.403790 107.523216
-5.622439 -10.740539 90.203323
-11.198193 3.464559 105.981346
-14.141535 -2.065182 71.232063
0.673559 -3.109511 71.501778
1.414713 -5.250414 72.459984
4.261824 10.711288 92.019203
-10.189903 5.289003 40.822414
10.088614 8.546702 88.302620
6.417408 4.072576 69.727722
4.006824 -10.915137 86.812332
-15.970028 3.070817 93.251709
-12.876311 -0.913921 96.999931
1.681152 8.912977 96.638512
-3.557429 -1.097513 42.277451
-5.822166 -7.775235 54.880791
16.121183 3.746481 86.609726
12.260936 -8.303174 51.877842
10.269554 -11.392031 88.910149
12.644515 4.320223 75.868210
13.724878 3.790161 42.193268
-0.484981 8.565733 95.507988
-15.536389 -7.689977 97.396233
-16.111620 2.651076 44.559906
15.820016 -10.202655 88.131531
-10.315605 -8.935854 56.508392
-10.391579 1.399197 107.455734
11.341269 6.619691 97.095764
-18.069950 1.761007 69.639183
16.569368 1.608829 44.559032
14.767980 -0.549114 97.858139
-10.921967 5.882390 63.651623
-14.561542 -5.447922 99.265106
17.815573 -3.569176 71.177216
-6.579458 5.266919 60.450592
12.349889 5.098793 89.164833
17.686396 -1.384599 85.955727
12.705870 7.279685 59.207111
-12.651482 5.287685 38.400288
-0.654666 4.279969 82.899796
-3.297518 -5.201128 69.058762
-17.994318 -4.288533 87.125565
7.759856 -6.682725 48.408031
6.297623 6.270895 67.100098
4.620688 11.045454 90.547653
10.252468 1.740421 107.204819
-1.809142 -4.569831 56.520004
8.008332 10.212935 91.566116
-10.989703 5.512334 94.766449
9.356970 5.718367 105.661629
3.637278 6.334091 84.106018
-11.419522 5.721653 43.339836
-6.803833 9.410325 91.488396
-12.927710 4.988912 58.910244
6.353616 6.165621 47.440674
-6.553321 8.410480 96.739670
11.925756 -4.195167 30.964355
11.857059 -9.678239 62.863659
-7.320913 -8.376491 47.210083
-4.934511 -7.783467 64.475822
3.551048 -5.510441 54.655628
-10.910909 7.270000 40.553841
10.741892 -2.687791 34.871552
-6.418324 -9.887215 64.410774
-4.998751 8.287045 102.447517
15.558195 -8.307637 76.690788
3.015194 -8.327619 66.082291
-5.691207 0.290032 48.578186
6.571400 5.520171 50.855671
-12.714246 3.194609 106.505852
-4.783230 -5.550930 52.306789
-13.029204 6.153261 62.746273
-0.371397 6.571274 108.360420
-16.988338 -2.367026 93.100693
10.325977 5.483650 82.113342
-5.867610 9.899753 88.183342
2.424763 -12.318218 93.834312
-15.644314 -5.943781 73.428978
12.372161 4.221433 81.340988
-7.014377 6.590457 104.441536
3.706415 -7.189555 60.355389
10.387005 6.166308 63.070297
7.913100 10.874072 93.094490
-1.671795 -13.262295 99.421745
14.832538 2.804839 37.162045
1.145068 3.312294 75.689751
4.592157 -2.679444 60.006462
12.828224 1.107930 105.098175
10.727544 -9.691481 97.244431
2.796783 4.402923 109.206612
9.672891 -11.024195 107.199165
8.155600 5.546302 58.968281
-14.068807 -1.308128 108.144142
1.960735 -1.182819 56.988258
12.435429 -8.640594 65.275238
-16.430275 -1.220286 73.158966
15.446841 5.559052 80.081734
7.423907 -10.602452 105.793884
8.083287 -7.059736 49.574257
-13.805500 2.396605 59.935963
-12.065549 3.128531 81.542885
10.868062 -7.448485 45.272579
-14.567551 -1.938186 32.195843
7.159597 -10.360576 59.918144
15.356723 -8.273222 76.465286
7.349866 9.678347 97.561638
-15.801680 -2.007845 67.486900
-15.317427 2.034477 39.777069
9.662332 8.197701 96.655037
-4.527105 2.605923 76.863846
3.777096 -5.455532 62.656860
5.863153 -6.282777 52.890945
18.574167 -0.446025 56.043030
10.677884 5.934010 98.484848
7.053287 3.627089 52.025776
5.926772 3.345427 36.551991
5.207510 4.399969 111.472702
-2.272037 -12.668655 100.135956
-17.457443 1.711391 70.185059
-2.556096 -0.044160 70.917152
-11.364883 7.306595 32.676346
11.028675 -9.384936 72.596230
1.809257 6.831233 80.548027
15.301336 1.181863 68.583420
-11.974249 -7.545877 97.821457
16.283890 -3.831236 97.135887
12.037679 5.067882 69.206383
16.442759 0.412933 73.389473
2.014257 -14.017246 104.430016
-7.782361 6.584644 55.237568
-13.697957 4.436239 67.977242
8.006804 7.380621 101.821655
13.939681 4.403961 51.127640
14.210135 -0.002885 94.345573
4.250532 5.351160 108.007500
-18.576885 2.492802 59.765236
6.159041 3.675580 40.378700
-7.053641 -5.616414 42.706348
-9.908598 -9.572992 61.680683
-2.425100 -10.827599 79.323639
7.305433 -8.035228 50.468597
-13.594657 -7.989763 73.679893
3.800219 8.919017 100.281113
6.905075 -11.658491 70.319733
7.085977 -12.560061 77.248474
16.265495 3.300823 87.734146
11.584983 8.036774 35.839264
-16.278597 3.543601 68.145676
-2.998376 -0.483804 51.526150
-2.627739 -12.352738 91.852715
-11.194477 -10.895394 64.032509
-16.203779 -3.537369 78.318710
-2.799778 5.551865 107.446579
8.840409 -6.956676 54.562267
-5.659472 -2.037812 38.838676
9.994644 -0.325696 28.189295
-10.871245 -7.288880 42.294804
-7.324170 10.278492 76.395172
-4.369767 4.181244 50.358421
-12.722993 -5.383448 105.307587
-9.057815 4.548527 60.602409
-12.642610 -9.940170 96.924789
-14.261658 -3.008513 60.973427
12.795850 -2.860833 106.321434
-9.575763 -4.558029 39.961403
5.912004 -11.170570 100.806366
12.503667 6.932170 68.605408
-15.179862 -4.593410 93.355240
-11.382008 7.661240 94.884712
3.283636 -12.359444 89.353027
-11.928330 -11.579243 83.174927
-4.439460 2.210585 28.790478
5.156705 3.799086 40.478764
11.225677 -10.939302 79.157921
11.808841 -0.962279 109.053368
16.867094 -2.965356 79.128662
16.178936 -0.740329 82.592720
18.272335 -1.145233 80.911880
12.518080 6.179982 81.563797
3.909024 -12.323691 91.397652
11.158545 5.292514 64.991150
-14.176600 -10.563337 87.165283
8.441084 -6.186215 40.747452
6.113963 4.970571 46.956070
-4.464293 -9.883257 61.479042
10.871897 4.446083 107.055923
6.604869 2.169997 30.744167
-3.630079 5.720588 106.509552
19.537378 -4.780375 84.324936
10.731762 3.196627 111.159538
-14.472900 -8.472669 64.441254
-11.800364 5.841425 96.705284
13.503242 4.686909 38.266739
-2.328452 0.808974 64.782654
-16.116056 -6.157153 97.346405
-14.216547 0.742649 61.666470
-5.142943 4.328690 68.127113
1.713181 8.750662 89.919739
-1.289191 5.371314 85.196388
-2.894103 -7.370363 66.091362
-12.240801 -11.474671 77.240234
-16.581461 1.019801 90.981476
6.207740 5.740541 54.685150
10.988046 -8.954014 97.930489
-2.410762 -12.589906 103.445244
0.357328 -4.421394 72.655472
-5.391833 -10.613921 91.300980
4.786789 4.062242 69.175720
-9.646826 6.427211 63.738209
4.738091 -0.807522 47.442650
-12.125079 -7.793886 44.421650
-14.388411 -3.698656 98.781189
-14.794122 -7.926360 74.995941
1.687199 -10.769770 90.293091
4.544287 1.301806 53.289196
-19.416420 -1.828469 75.003593
11.430631 6.499020 38.113270
-7.710910 -9.248069 98.064156
-13.592662 0.015973 108.155464
14.821689 -3.392678 30.531036
4.458649 -4.149239 63.699013
1.801817 0.187779 72.989922
18.023491 -2.209814 78.057587
-9.400840 7.441887 98.207367
-11.113788 4.775905 71.553680
15.167958 1.323052 67.981400
-17.655130 -0.448604 70.491135
-12.161319 -4.875750 41.552677
3.101599 9.133533 100.041275
-0.487576 -5.973824 70.806976
-12.447307 -0.704765 100.855789
-7.474840 1.423817 48.151234
-16.974863 0.311093 74.433784
-1.885309 -4.866935 70.355675
11.282235 2.339971 107.600143
-15.338179 -10.061381 86.474709
-2.000125 -5.339413 56.444378
14.500935 -1.537955 44.258785
11.050516 6.956043 98.894699
-13.033081 -0.314403 28.270500
9.860144 7.293248 70.297302
4.868047 -11.386027 76.259964
-6.637231 -0.918198 33.013577
-8.220650 -9.826308 63.152020
-9.720654 -11.241047 95.238770
-14.009729 -8.419708 76.220749
14.832194 4.688115 79.900192
10.561818 -12.513994 80.287315
11.849288 -3.941880 31.999897
-4.118471 7.702323 102.619354
-14.419251 -3.085008 52.167191
5.789579 5.291473 107.998505
9.599719 -3.841095 36.701519
-11.759897 6.362010 89.315186
17.667267 -1.941175 50.437164
1.539962 -6.406432 70.058266
-16.008883 -10.429460 82.885406
15.594474 0.347253 67.441284
12.881574 -10.903350 91.915726
9.060674 4.909366 45.579563
10.487988 6.089216 57.457493
-13.643386 3.840487 83.978874
11.808138 -7.495197 59.581593
-9.557680 6.715783 45.457928
7.480829 9.485486 91.033958
-16.296972 -9.788956 90.397751
-16.359306 -5.174765 66.477943
14.846368 -6.335621 102.481804
6.978849 9.067581 99.416504
13.433261 -5.119028 31.121414
-16.721107 2.107314 35.729641
-2.059905 0.082669 70.480515
2.982444 -0.050199 70.660042
-9.757089 5.648270 62.850292
7.579722 -6.374982 37.807476
-4.669147 1.441193 48.228298
-15.244300 -2.331450 51.924191
-6.966189 6.099103 60.955650
-10.919210 -6.213565 44.917923
-13.403808 -4.018278 34.450569
-0.817364 -4.713622 77.518761
17.557995 -1.733918 72.259293
-5.237704 -0.412351 56.285553
14.589577 3.917437 45.641598
-10.133320 6.267513 106.801514
-5.577498 -10.076344 68.093460
-13.845524 -11.443546 83.287758
-4.886343 4.398778 54.857964
-0.580578 -3.264256 79.944336
5.086812 3.733145 48.289261
-14.524089 -4.354437 99.546021
11.498134 6.791527 69.383095
-14.722664 -3.172312 61.127369
-2.861017 9.835249 102.588974
9.356030 -12.368330 89.806770
3.230469 -6.495605 58.385803
14.999608 4.784536 68.206078
1.775186 0.020532 62.142586
14.255619 -5.860338 51.578682
-13.177635 -6.233802 106.983582
-16.701807 -0.023725 88.510895
17.356483 1.863546 83.279350
16.577625 -1.480092 93.705734
-15.570202 -2.193838 69.716980
-6.950310 -12.714149 82.926796
-6.473001 -15.471846 107.156097
15.832540 -4.736396 69.646858
-7.246695 5.642815 45.635365
-17.344940 1.496715 60.902637
-12.143349 5.083978 59.498398
3.153637 2.672599 109.148857
9.682325 -0.352625 109.541122
7.949727 6.739635 64.516312
-14.531769 2.725838 55.850689
-9.205794 7.242836 98.833725
-12.904177 -6.277189 54.489983
-1.442940 4.974720 84.974045
14.293670 -0.393078 93.345604
10.313221 4.592453 29.925133
-2.463690 -6.060445 55.674690
-14.124253 -1.994179 57.840027
-7.993076 7.091406 54.099670
19.533567 -2.673136 80.076584
-12.176838 5.262081 41.402203
6.917535 -13.157568 76.449043
-7.439415 5.142575 46.107174
5.483625 -2.734753 43.433487
-4.085837 5.777603 76.521820
1.479122 -3.163401 79.696945
-7.035516 3.122067 30.977707
-10.483403 5.521028 84.978134
-16.295538 -4.054327 99.456612
-5.785564 -2.189362 40.448147
0.969991 -11.690788 97.500313
-14.699625 4.510150 81.480270
15.750276 3.392128 46.722153
11.926162 7.555560 36.556396
5.881652 2.563753 40.473701
-7.048296 8.179630 85.671722
11.959117 -10.045429 67.145576
-5.942711 6.102681 56.591537
14.976234 -6.350823 93.823685
9.207404 6.311623 43.751797
-1.688860 -0.862585 74.504166
-4.114820 0.605951 48.779446
-0.069088 -9.487116 85.104553
-7.448167 6.270335 43.996635
-13.726086 -0.897563 41.327576
15.387088 2.027371 93.411186
15.109514 -5.710786 78.649139
-9.688170 -10.862454 104.569595
-6.134924 -14.997257 101.972885
5.653905 2.015621 51.306633
13.228806 -4.804893 51.468044
7.034691 -12.133871 76.321846
11.766468 -3.042974 108.897369
-0.273117 1.809910 78.434158
13.468332 6.338156 48.923965
-1.779699 -2.302717 69.233376
7.545344 -11.282776 65.463806
-16.407980 -0.506610 66.254570
-6.974157 9.143806 87.053192
10.178223 8.662623 86.727524
-2.627807 8.425131 94.985855
-6.012489 -1.152460 48.475716
-3.701003 8.268795 104.474068
-3.321738 -10.126307 83.803375
12.406579 -10.258015 88.720551
8.301628 6.559710 55.669014
16.318266 -1.406749 67.034050
8.780050 6.636383 55.990360
4.408512 6.883596 82.588234
16.813435 0.043400 52.459450
16.275103 -3.890877 69.011040
-6.836310 -13.413808 83.560539
7.726912 -3.903938 33.873875
-10.721908 -9.977799 105.157791
-14.004058 0.971262 105.424431
-15.156198 -4.914629 70.258301
-13.194406 1.807474 56.594337
15.557043 -5.601757 95.029839
-3.550865 -14.616343 103.355888
7.364300 -6.746962 48.142040
7.395588 5.979795 50.412876
7.953240 6.679945 62.959114
0.466844 1.767127 72.659325
-17.978350 -0.703735 77.277985
-1.184639 10.443349 99.552719
-16.307793 -0.539873 92.359749
-4.888746 -12.745155 88.399231
-10.429564 4.429578 104.336342
7.315185 7.315231 77.689819
14.264503 -7.841581 72.959106
-12.100840 -6.152785 106.350609
16.475161 1.464989 76.498634
-4.372190 -1.209889 34.349380
11.377970 -2.884071 108.718285
-9.295918 -11.904480 85.092041
12.905037 -7.853542 57.937016
13.681371 -6.149951 103.551422
-13.588182 -2.053323 103.750252
5.885501 -8.231082 54.800564
9.374046 4.947843 109.112877
4.070535 3.072333 62.816654
-5.204740 7.413327 102.069771
-14.216159 -4.092303 53.857769
16.975161 0.683525 54.034481
12.659184 6.891995 55.656464
7.150023 -11.940373 91.119400
16.085072 -6.374743 99.271980
12.013918 -11.873495 84.354919
10.970287 4.899659 41.865028
6.753796 -13.049360 83.938683
-8.553673 5.553066 47.045593
-7.266685 -10.836827 98.598572
5.755213 -12.588293 90.546791
-10.505377 0.503233 109.484627
3.227982 -2.480083 63.807743
-15.471825 0.273956 85.159241
-12.532898 -12.823138 79.833511
15.574157 -4.990329 96.710106
-5.389812 2.068760 50.529186
-17.167248 3.816783 86.583664
8.609359 6.840070 62.925900
-11.588820 5.104249 54.353363
14.372661 -3.621431 35.915161
15.905346 -6.389369 76.689201
12.892687 4.678987 80.649147
-5.940776 -0.897842 36.815235
10.841386 -0.161664 110.436996
-10.598401 5.988124 77.517662
-3.263916 -1.024441 51.546516
-8.318007 4.199212 110.240372
-8.078002 6.638145 57.237514
-13.751040 -8.461819 102.356529
-8.793783 10.674244 98.087013
-4.598937 4.954988 74.179947
-14.588211 2.241397 99.095505
-14.174279 -9.435788 72.209305
-13.288530 -5.995875 64.907997
-8.655052 -8.665537 101.083740
-10.223623 -8.876862 64.739128
-13.016616 6.252771 42.241474
17.317638 0.264796 75.402222
10.476772 -12.567659 99.959953
-15.817042 -2.365055 30.848116
8.391969 -10.891052 108.252213
11.518062 -8.581641 108.056427
-3.296034 6.502023 106.343781
6.467503 -12.692878 94.187813
-12.284998 5.064935 62.825737
-4.493223 -12.131577 95.565445
15.679357 -6.794317 70.397476
13.708285 -5.124134 62.743866
-10.721319 6.081473 81.857819
-15.449393 -3.653971 94.472084
-3.109767 8.352145 90.181152
-13.467234 3.979286 78.964355
16.307751 1.257542 78.039207
-12.170058 4.011240 81.701149
-11.125919 -12.982882 100.214668
17.042246 0.490992 75.390526
-16.152987 -2.284538 85.195610
-9.068906 6.461405 68.266487
-16.822645 -3.787056 87.419830
-9.548796 5.391113 36.319111
-10.173524 7.083268 79.815750
-12.914310 -0.928322 103.764420
15.936626 -1.490773 47.064049
17.357359 -2.527061 53.421902
-9.708781 4.651102 107.621643
14.337337 4.073591 63.523994
-1.978017 -3.022045 81.079155
6.667735 -0.512723 42.118053
16.363005 1.192644 46.119949
16.032982 0.465303 76.720856
-6.588882 -3.501970 35.472351
-8.356327 5.558574 107.682838
-11.080247 -4.223979 105.310120
-13.584425 4.877141 48.117416
15.441465 5.018484 61.166615
11.888093 6.140977 33.288807
-4.044641 -1.892348 48.230709
-15.608524 -10.637128 85.142212
-2.322649 -7.783723 63.531479
-10.272856 4.635676 42.633110
12.913467 -7.313324 63.702450
-15.608335 -7.389699 81.513199
-11.376843 -4.932254 35.716980
3.339466 7.649703 104.205429
-2.199584 8.531978 104.795898
-5.706094 9.878184 84.823486
-11.488952 7.135796 81.582603
15.103252 -0.689755 43.131477
-11.293740 -1.455163 109.494164
-13.526169 1.103439 55.483894
-13.960640 5.792516 96.471672
-0.602400 -9.071359 75.215683
15.399704 5.272451 44.330582
6.972309 -14.715002 100.833519
6.369065 2.520020 51.596558
4.950691 -11.703413 97.084862
-15.426198 -7.742577 95.427727
6.937839 5.818192 105.487343
2.858958 5.296656 68.802567
7.830440 5.949540 47.541351
13.880053 3.289758 62.458836
-4.226237 3.866520 32.738388
-13.784523 3.189099 41.350883
-1.425342 -13.749884 95.402618
-1.356773 4.203985 78.733025
4.070058 2.767895 70.750183
10.274673 8.298489 93.855103
-1.108285 -0.304929 73.724655
7.661526 7.117787 61.372253
-4.351624 6.787588 78.413963
-13.714201 -6.391415 63.438755
-4.378468 -11.285574 91.608162
-16.341455 -9.328403 82.284195
15.020366 -0.745906 34.865555
13.399302 -9.402927 89.809311
-15.365735 4.328609 67.706825
-9.126755 -2.895445 25.557766
-6.871885 -5.250317 43.977543
14.025577 4.392154 57.798306
2.366670 6.505909 107.670174
2.587588 -13.249841 88.125427
-16.508066 -9.101063 88.970215
-9.487336 5.285028 107.966507
3.143567 -1.339200 63.708443
-15.819600 -3.614048 89.374588
0.361332 -0.960298 78.849968
6.403063 -11.909320 99.448227
9.665773 5.850112 78.024872
14.302022 6.521746 83.540298
-11.637018 -9.455985 82.213470
15.788614 3.259442 83.742126
-2.363946 10.666821 99.986168
0.978874 3.144037 85.839058
17.310537 -2.085942 78.431564
10.103068 4.520073 40.941788
16.846151 -3.159533 81.260910
-15.482139 2.347569 61.045792
-13.526330 3.249469 46.806805
-17.640852 -0.819938 89.096626
2.868661 0.317614 65.822853
-12.883140 -1.795031 66.343346
16.104837 -7.278749 74.850868
6.429089 5.412441 64.848091
14.555645 -8.904780 90.835884
-14.468311 -8.910982 75.485931
-7.437114 8.714917 87.532692
0.718541 -11.646333 90.607491
-13.482831 -7.570431 61.480919
5.407005 2.454371 46.119377
13.706981 -5.116380 32.729828
-13.513762 -6.903718 102.512177
13.244005 -8.885239 104.803200
16.564859 -5.723324 87.974792
-16.720818 0.655285 33.216976
6.700226 5.674904 38.277527
-8.749060 8.273161 90.363358
-5.318196 -0.878378 42.881409
-10.292879 7.105041 77.120285
-17.159691 -4.580423 81.279076
-13.025146 3.816612 47.751762
-6.505048 3.463616 61.402100
-0.202052 -7.986956 81.537445
-7.714071 3.232982 36.925175
1.936824 7.802526 88.793213
8.422879 -13.247024 104.938545
5.109250 5.970634 69.061523
-13.705394 -3.830249 54.915569
-4.131574 2.057448 66.658607
9.934757 2.491877 31.445854
-14.628511 -1.191943 106.991119
16.180279 -3.614033 83.216942
13.032638 4.743090 33.525055
-12.368103 6.129101 64.239914
14.121591 -1.821540 44.226265
-8.144047 6.421733 69.333641
12.551192 -1.773448 108.349396
-13.647133 -1.081019 92.699173
7.877745 -14.063009 104.904800
17.525761 -1.098058 73.291901
-7.590363 6.033489 56.035881
14.019143 -6.369858 59.429115
15.084357 0.767900 46.613422
5.165708 -2.651052 47.024494
-7.546701 5.180049 44.816483
1.178648 -11.379123 98.070786
4.354733 2.241823 41.166248
-4.655937 -11.223724 101.222031
-7.056618 -8.789643 54.490971
-5.067327 -4.322600 55.049461
-15.408463 -2.273042 88.464264
12.338235 -9.837204 98.981812
14.144897 -5.301875 48.454208
-5.196486 -10.571966 90.153961
11.412204 -13.698305 73.070518
5.027669 -13.739378 78.363441
5.922212 0.993723 51.084335
11.836969 5.566662 40.308926
0.291706 -7.284597 78.379494
-5.002021 4.717371 63.410133
3.631427 -0.437109 53.875648
-12.730838 5.504605 71.630348
-5.508495 -2.008887 41.113621
17.009211 -4.508222 87.856575
-5.245734 -11.476153 88.101051
16.477825 -6.687544 82.913666
-13.969879 -1.218672 40.071381
-7.545338 9.001150 72.239326
7.282903 -13.136337 85.159912
-8.505854 -10.624164 96.624245
-14.695802 1.718186 87.232254
5.859857 -12.393902 82.518677
8.455025 7.252029 49.544144
0.500934 -6.068548 80.876137
-0.031089 -14.147691 105.567993
7.235835 5.029822 38.339039
-6.378922 -4.878175 42.493950
9.847486 -11.308323 84.924927
8.276959 -3.457821 36.761261
8.835109 -11.544056 101.210449
-9.975987 -4.825254 36.506153
2.334075 9.976970 89.435432
8.343858 4.765211 62.404457
6.582271 10.934571 91.601677
-5.215790 -13.934462 105.862274
13.083199 4.814668 85.629951
-7.387095 9.746224 94.507652
13.717435 -0.816534 97.144218
-9.713299 -11.586791 69.481201
1.718927 -4.610731 56.351219
18.361895 -2.476526 66.301857
14.545864 -5.571928 105.720955
17.827335 -4.501947 82.740723
1.420809 -15.782820 103.657455
-1.543502 8.578371 95.087173
15.426943 1.798719 39.453403
-1.861274 -2.512104 66.681892
-1.111751 -3.186855 80.395554
-10.740567 -7.095098 51.596214
14.168168 -3.910625 39.273537
8.665430 7.373374 46.200264
-13.786641 -6.922589 74.433250
9.805729 8.309463 98.154442
-6.482717 5.828799 76.036499
-7.864205 -13.930409 79.647903
-15.754144 -9.113032 94.341476
11.035630 -8.742685 56.595676
14.378433 -4.831680 80.589478
13.663031 -3.690646 31.272198
13.958400 -0.577661 107.004608
13.386446 -11.676190 90.945496
6.206225 6.963697 108.298935
17.165907 -2.216413 60.189869
2.609764 5.866394 77.046532
-9.247880 7.011048 43.143822
-7.796335 6.914845 63.638863
14.113254 -5.657894 101.559402
-14.729561 -10.169949 85.188316
12.947147 -6.864226 63.789371
-14.881747 -0.282346 101.144707
-0.504218 -4.779550 69.818336
15.329995 -0.324459 47.980007
-12.606588 1.196907 109.914192
0.668546 8.234956 91.485489
-8.974914 -9.954042 59.707203
-3.169170 6.164852 82.638542
-12.513428 5.846095 63.970036
18.906454 -1.124066 81.980721
15.691373 3.017902 96.482971
13.617159 -1.037530 58.180756
7.502630 -7.113755 43.482311
-15.550399 -3.146352 47.559669
13.910163 -7.846131 96.111221
15.503609 -8.131403 92.377167
3.418397 -13.554734 98.029556
-11.675905 -6.648226 48.875389
1.822825 -4.319175 59.950008
9.869495 8.767138 92.428154
-13.342087 4.890894 89.092682
-8.205699 -9.898417 52.312263
0.065342 -13.055339 104.754150
18.653877 -3.836417 80.608971
13.180167 5.930834 76.895477
0.132566 -10.891635 91.378067
6.490014 4.209918 47.636211
-14.809624 -0.315055 60.923847
-14.538900 -8.876445 84.672859
4.993010 4.613365 54.678673
-3.318638 5.491215 70.308060
12.097613 6.688375 77.609642
-14.071694 -0.243206 42.309750
2.354355 -11.212391 103.214989
-16.568226 -1.540105 36.732388
12.156581 -9.175631 104.906769
2.660510 -9.948191 89.487175
6.964994 8.598865 100.240036
-10.407513 -12.942771 90.229065
16.597998 2.942269 78.311264
-9.274935 -8.684467 48.375187
13.394439 -6.450697 68.561653
4.277568 4.503477 60.466702
-1.939483 -12.416575 97.319695
-4.480429 4.076899 70.660995
-3.989561 5.313334 76.627083
15.014387 2.631812 75.492111
9.311865 5.849968 70.818779
13.627521 3.263888 88.683052
8.400859 -10.042892 62.959820
-10.404302 -9.182285 95.830566
-14.591269 -5.109607 87.467728
15.135207 -3.050429 42.434750
-3.710436 9.579692 88.711861
9.818173 7.667885 47.817554
14.003263 6.342129 55.713039
5.139213 -1.547343 41.089375
-14.477417 4.352483 45.822823
-9.264982 8.103452 82.321350
4.953738 9.145315 87.359207
3.504133 6.852001 108.285110
-3.252739 -10.492697 71.230698
-15.352074 -6.899572 71.493874
-6.029009 3.889444 54.033772
-7.824526 -10.982516 90.628403
16.246696 0.279701 67.037270
-15.027927 -8.667752 77.859116
-12.571579 2.921687 91.878250
-12.311911 -11.004854 62.095348
-8.796995 -0.225140 30.602772
-2.353772 6.917165 87.153732
-16.303730 2.923267 83.706352
11.554662 -8.268013 100.802757
-16.400221 -2.785814 97.351707
6.144767 -7.017302 54.397396
-15.074590 -0.898996 33.013824
1.775307 -5.917668 75.269936
0.217047 -5.308322 74.554825
14.209015 0.995402 103.506638
13.416074 4.818744 63.098522
-6.158131 7.078351 105.595726
4.844541 1.123227 48.011879
11.672529 1.547178 101.776299
18.165548 -2.976590 71.083633
-2.181658 -1.822564 48.198334
16.323973 1.574402 60.129097
-15.220582 -3.622190 57.886093
13.847533 0.042500 98.996460
-1.157872 -6.761779 73.504066
14.100842 2.518223 96.425552
7.753231 -11.824524 81.443970
14.931030 3.900773 44.950947
2.135842 -2.358175 69.218567
1.923450 0.577217 80.787209
-15.041207 -5.666411 40.552891
17.928165 -1.190686 74.221931
-10.223909 -8.798510 60.113956
15.569577 1.600050 98.989525
14.165247 4.738818 67.354698
-0.536820 1.739781 80.504295
-5.886502 -11.734900 103.413803
4.234591 3.296874 70.750618
-0.099594 8.982124 92.877724
7.065372 10.917955 83.404594
7.557341 4.599368 106.229744
-12.438163 7.263324 35.025311
13.287884 -9.828900 73.329964
16.731941 2.514441 80.978607
-8.513916 6.015945 53.731930
10.132160 5.923503 102.953758
-14.704667 -5.657248 81.013275
19.382244 -1.080612 69.403786
2.463815 -9.802230 77.660576
-18.205057 -2.027494 90.576721
13.634638 4.638236 56.407867
-9.989635 6.183157 73.024658
4.207184 1.195839 64.237335
2.118062 4.028404 84.210861
0.226023 -5.696166 71.401627
-0.490886 -4.489974 80.894524
13.208998 -4.148858 105.695595
-3.607767 -5.996495 60.064831
6.222488 4.582124 55.073708
12.670250 -4.046590 47.029900
17.006838 0.557128 41.307434
12.218912 -9.179055 101.800079
15.568810 1.576410 75.998138
-4.405547 -2.403207 44.882320
9.735603 -12.524396 91.663811
-15.836631 2.575161 80.371803
-0.576865 -6.455893 75.945129
-9.696265 7.987166 100.999107
-14.094856 2.847813 91.524246
-2.742494 11.596207 89.259666
-7.793970 5.928259 107.583893
12.498878 5.919426 63.047760
-3.198725 0.221955 64.947990
-10.976247 -6.537677 44.665600
-17.352234 -5.290044 65.830917
10.752397 5.292982 35.625813
-4.432045 -10.688169 82.127731
-18.033709 -2.013176 78.927925
-14.412522 -6.843069 68.313950
-11.037600 -9.328891 105.128738
0.225408 -5.880917 77.471199
16.812134 -0.806614 91.806473
2.027521 3.631479 82.549614
-5.322659 -0.644174 58.267513
-12.807816 6.129759 66.970116
-11.034828 4.790950 69.303123
12.706095 -5.967702 47.993195
-8.919891 6.268595 77.291931
2.454328 -13.216107 101.793709
-7.999547 -5.744894 50.160301
10.556296 -7.472649 42.621185
15.243323 -5.267377 55.461914
16.032074 -1.510231 33.678165
13.731869 -9.547875 98.159988
-13.371014 -6.996240 82.000038
-8.982659 4.085176 110.582260
14.640815 -5.464673 60.785374
-3.382714 10.189059 91.502167
4.060649 9.463536 85.179550
-4.657556 0.780422 33.488758
14.139864 -6.018842 47.030716
-8.335791 8.919532 80.320915
-18.421545 0.207992 75.945633
18.452341 -3.557071 79.100250
0.147767 -11.158274 91.601120
-1.369281 -10.313625 73.832115
-4.536196 4.445650 80.070557
16.113653 -3.676557 80.197121
-11.494620 -8.242171 51.447357
4.241703 8.792046 86.866737
-8.474338 6.300954 103.135742
16.559435 1.480651 68.900955
-10.294358 -8.086825 97.695213
13.727687 2.148130 100.078873
-2.572230 -10.432687 81.467834
-7.600708 5.962089 51.010292
-14.921568 -3.520732 89.509575
-12.945710 -4.721961 32.681175
-6.861591 6.631310 107.826775
6.246431 -9.903135 63.303684
10.335106 -10.136933 97.077827
-13.709792 0.472968 53.536827
1.372078 6.444310 106.998009
13.849631 -5.899213 53.447346
13.193961 0.453501 104.454536
10.275363 8.847262 38.187950
-9.014294 8.539031 95.266571
13.648341 3.340828 105.430885
7.223075 -11.468662 67.764893
-3.921139 1.143600 67.053932
-6.559099 2.308918 51.349018
3.744210 -12.014005 89.250778
-1.604982 4.350892 85.655998
6.046126 4.252074 44.742626
-0.887040 -1.852511 77.952972
0.041804 7.093700 107.816475
1.640756 -10.177351 91.955490
15.230033 -7.500692 77.138054
-15.072404 3.905427 80.071510
-12.405959 4.629964 56.662373
14.756842 -1.819286 83.583847
-16.261393 -1.045143 57.521896
-6.127390 -5.931807 49.229935
-6.732994 7.342348 49.153248
-9.107317 6.865365 59.353294
-15.910335 -2.503962 34.556053
-16.524521 1.138603 84.663010
7.774207 6.411516 66.819313
8.334543 9.656026 93.816742
-0.475457 -13.201487 102.550049
-13.300109 -6.512242 65.151779
-9.946232 -12.066968 65.890617
-4.154267 5.804002 106.693848
-14.366565 -6.088313 46.676834
-6.859164 7.560779 102.783539
15.783743 -3.804388 93.408119
-15.833225 -2.829137 47.807846
-15.366939 -5.373630 63.159622
-17.888224 2.378119 83.323181
12.148373 3.922006 105.569328
12.895395 -5.880664 70.018913
-17.665876 -1.932305 80.548729
10.476400 -5.719461 37.678177
-4.209064 8.259240 103.411247
14.198855 -5.103605 40.361340
-4.181120 3.543722 110.058838
13.005904 -4.304197 105.449028
1.645171 3.769373 74.418770
-17.063534 0.031730 72.815193
-15.661749 -1.238786 45.343964
6.011347 0.986770 33.042824
-8.221069 -6.778721 46.973938
8.040599 6.390593 63.621483
6.002411 -12.897629 81.372459
-8.971270 5.736525 92.994102
3.677187 -13.756465 87.582573
-0.081131 -11.825418 87.607872
-3.147053 1.599531 59.296219
15.827175 -1.858203 93.166695
-7.370982 7.445523 102.353249
-14.297238 -5.093363 103.350090
-13.656712 -9.120002 82.486427
-11.788499 -13.092235 68.298820
-10.761367 6.838128 93.293312
6.790023 -6.383003 52.628712
14.038374 -8.950130 78.811859
11.029906 5.991155 106.416016
-13.187659 5.749051 36.378189
-7.926490 5.538560 40.080769
-11.080429 6.605842 52.348259
5.191288 12.131463 93.655838
-4.293300 -11.331231 90.563560
7.982450 -12.518563 68.773659
5.242632 4.697182 50.711864
3.191549 -13.396070 86.848991
10.853792 4.834276 70.800705
11.923611 6.019413 100.871902
-12.076457 4.548518 80.298660
5.692415 -12.024718 85.222977
5.582293 3.538501 52.744209
-12.017896 5.363163 73.421593
11.332388 5.436784 104.862701
-3.736471 -11.297914 75.276886
17.775747 -6.016993 88.956444
13.811837 1.263466 31.487562
-15.213892 -1.207875 56.304199
-13.201941 -1.333879 106.939850
0.168502 0.638153 73.117149
1.497338 -5.986734 76.395325
5.607290 -8.960562 55.932056
8.719234 -2.903328 31.275515
-11.057644 3.883453 109.751762
10.785333 6.912668 44.348625
11.793740 6.365219 59.709671
12.169954 -5.382601 105.650101
-15.994519 -3.202064 77.730873
-13.484869 -7.036059 64.509743
-4.347234 7.310041 111.395515
-9.250286 5.731398 34.851547
-6.029309 -13.430891 83.272614
-8.275006 6.799873 31.612139
3.928613 -10.689070 82.077324
-3.196609 -0.915470 62.836533
1.067511 -8.816979 79.116951
-9.966991 7.123322 72.723442
-9.474265 -10.272963 105.159111
-4.902130 -6.412537 55.951244
17.039970 -2.091666 83.730820
-12.491970 -0.391257 108.119408
13.866118 5.271313 41.033569
-16.429909 -0.906540 84.802940
15.056201 -6.106290 94.665039
-3.111414 3.572821 65.177345
7.058376 -10.993443 102.480743
-8.882427 5.566701 100.868896
16.255369 0.384859 69.964561
-16.093678 -4.113406 36.238125
7.625444 7.580963 58.682289
15.987214 -5.809225 84.287941
3.708134 -10.636111 75.850990
17.621782 -0.319401 69.979309
-6.483284 6.489412 57.415264
-14.892817 -1.673717 34.385830
19.195347 -2.685182 91.196175
-3.382094 -12.321409 98.644493
0.800066 5.192502 80.478760
15.545791 -5.557869 94.078278
4.203855 1.632900 47.208195
3.458158 -10.202049 104.431725
12.697070 -10.297424 75.400436
14.840065 -1.573815 92.580765
17.184557 -4.159052 96.697372
-4.914530 -5.017675 62.382038
8.275561 5.360542 47.360279
0.612477 7.070118 86.225967
-15.331084 4.144437 71.562805
-9.056630 9.625351 94.581192
-6.792690 1.559183 48.272182
6.829137 6.420277 64.410614
-7.789709 2.948699 30.185112
15.798265 1.696388 36.105091
-6.746934 8.090672 97.410873
-1.239209 -2.718064 71.244911
-4.672845 -1.987311 48.411804
14.861612 -4.141893 58.239468
-5.751497 -11.279374 71.089844
3.792613 -3.114211 45.371017
0.271234 -7.613071 82.302803
-2.440736 -7.255302 79.331703
15.662084 -2.611053 39.831093
-15.090015 3.799707 40.722557
10.033087 8.242070 60.089180
-14.206354 -1.534079 64.141441
-13.116385 -0.699274 106.562767
3.919308 4.056454 73.164909
4.401064 9.034630 90.579620
-8.482687 -11.861668 79.798195
6.204980 7.765709 56.087818
-14.187524 1.077736 29.781330
4.435500 3.426541 44.481941
-12.408960 3.242412 66.790298
17.409546 -1.383915 86.639397
5.384957 9.981454 94.427864
-18.421913 2.070813 79.756317
9.716974 -8.682567 68.735336
-3.296182 -0.894230 63.025208
-8.624116 10.328288 90.710579
-9.415977 6.336194 69.190384
-15.609778 -0.280564 36.969307
6.149288 -3.200270 37.232952
-17.594954 -2.201509 84.287949
-14.408649 2.661865 85.197517
-14.281482 2.932593 93.366554
3.037766 -12.173894 79.492775
15.660354 1.646026 85.518188
7.581494 8.051473 55.049686
-12.875333 -1.840251 40.740856
-5.696209 6.228097 104.341675
-13.066356 -11.813800 87.564308
16.792282 -1.370526 73.264572
9.551915 -9.871845 56.932526
-4.095163 -9.704695 76.936951
-7.313470 -11.292852 71.700508
-14.030866 3.563340 56.276340
15.971096 -1.678841 84.344620
8.747080 5.890026 42.207684
7.000292 4.324844 60.535984
-15.119442 -7.669898 65.097321
12.190432 4.994228 91.249962
-3.613619 -0.803722 57.936954
17.706987 -1.576348 72.652176
-7.289438 2.011245 54.443275
16.467485 4.670308 63.030479
-13.027933 1.166271 97.472359
-4.347517 2.831805 68.510658
14.043632 -1.216051 89.384933
13.479323 -4.191126 51.003498
-6.957437 -0.209876 45.720146
-12.843397 7.262526 72.200508
-4.391414 -1.326218 41.832958
-14.148442 2.991920 84.200111
-4.516541 3.614763 62.967430
12.728151 -4.992549 39.172802
4.701081 8.676314 87.772018
-4.252390 -9.999517 55.856220
15.663482 -1.323201 32.095055
-12.419877 -8.904647 77.615196
14.621774 -11.194793 87.877312
-15.094027 -1.600787 92.162209
-3.000808 1.273313 56.828320
10.454748 -3.791493 31.259983
-16.695297 1.520620 89.300949
-15.516971 1.756022 89.882751
-2.394187 8.492666 101.911278
-14.095701 -10.371448 80.579872
-3.142929 -3.710015 51.710186
-14.617981 -3.527585 72.086815
-2.801588 -0.413303 52.172394
-1.135050 -0.876436 70.583084
-10.537952 -5.076320 43.237938
7.063172 9.294200 94.248291
-10.141660 3.906302 68.468575
-10.061232 7.011203 83.813293
-5.141322 8.033123 99.870636
7.604858 -12.549751 100.816681
3.805882 -0.896509 51.210957
-3.130298 5.638045 108.025322
-11.629373 6.295225 94.971855
-15.178747 -4.243195 79.797272
-11.476161 5.633840 37.470295
8.171452 6.550603 77.505890
4.256124 2.406576 37.479298
-7.685630 -12.749094 88.246819
-9.309980 -11.232561 103.140648
1.658992 -1.736282 67.887154
-11.322109 4.405870 83.527069
13.807880 0.879614 33.190472
-3.591752 0.597178 65.369301
-0.416568 -7.723469 70.271736
-14.758377 -4.081321 69.807564
-15.617225 -5.048355 80.269157
-2.369400 -13.856092 103.611252
-3.336543 -4.203399 67.964745
-8.601978 -13.439543 82.584686
-13.112451 6.059795 84.836090
-10.373748 -12.083909 83.605362
14.186405 0.240782 39.959213
15.315020 3.008017 56.628826
7.904042 -12.147287 103.531128
4.948829 -6.147924 59.657722
-10.215603 6.417439 63.312298
-8.093421 -12.645544 76.495766
9.614909 -3.303212 42.124516
18.762148 -5.146849 86.726265
-7.192930 8.934207 96.046234
10.418886 -6.856485 50.719719
-6.551669 -12.613939 99.271652
7.937430 -10.807626 58.472782
11.540408 -9.885118 96.613571
-13.179070 3.470563 57.838451
-14.722319 -5.356426 49.800236
-11.576660 -4.786169 42.146240
-0.493993 5.620332 107.192589
3.108541 7.282434 87.260330
-16.389248 -2.576138 76.256775
1.502243 3.902261 78.593033
15.513800 -1.812569 59.723843
14.891947 3.080150 85.147545
-0.530290 -12.347398 100.383202
-9.910104 6.437791 65.326210
12.283466 2.701896 86.480736
-5.678034 -12.690473 93.828239
-3.677645 -3.441249 52.461834
-14.067673 -6.810259 61.742737
11.309030 -6.804113 106.491699
15.894849 -2.091656 95.207230
4.166463 4.307712 109.531296
-2.543195 10.508789 89.645233
4.804107 -10.291122 89.693329
-13.347693 3.326775 92.791725
-15.487192 -2.342180 55.487263
-11.109264 3.516573 108.690102
4.039746 -0.217979 49.782631
-0.405096 7.953412 92.503876
0.467159 -15.238979 104.728485
1.960543 -9.014943 70.902214
-5.850701 2.337945 43.018291
10.511206 8.308688 86.658142
5.108274 1.415501 30.423973
-13.044737 -6.823829 104.684418
-3.961028 -1.483285 48.941265
1.268385 -7.873007 66.737473
-9.616724 8.084149 38.462273
-10.628263 6.888772 71.564499
-13.078152 -7.676114 65.782539
-18.637636 -5.873578 88.112259
9.797576 5.673472 46.613922
5.601444 -1.845013 38.785503
6.244488 8.931685 95.193741
9.989290 -13.110156 93.687637
10.060148 -7.124751 41.971992
-1.249406 -8.892594 82.639359
-14.194126 -0.150341 97.582710
-14.904439 2.304332 60.171455
16.394901 -0.287506 95.483795
-11.856928 -7.791910 60.602249
-8.351551 -13.645333 92.398361
0.360723 -7.700152 79.401550
-13.116633 -6.595728 40.952614
-12.511334 -4.869774 32.108189
-16.586567 3.522160 75.764503
-4.653121 -11.896725 91.547768
8.596617 -5.847119 44.613071
-8.515673 5.919784 55.807262
-9.897535 -12.357560 89.630096
18.324493 -5.116331 83.906006
-12.927889 -5.653838 43.598759
-5.104095 2.767236 72.542900
5.207148 4.959699 52.608700
-0.950345 5.076575 84.893135
-17.818727 -1.380828 71.060577
12.213233 -0.031420 108.718529
7.631430 6.785557 51.493195
0.788388 -11.626710 81.124344
-0.028713 -7.086903 73.661041
16.929623 -1.683837 84.013794
-6.306500 -11.956381 79.132690
6.708466 0.970327 39.776768
11.639413 -8.134962 53.414375
13.273932 4.720639 65.902916
13.326340 4.570752 60.687927
-14.575479 -6.397942 94.231171
3.541719 6.565629 105.560165
-18.533237 -0.336683 82.512993
-9.663411 -12.358600 69.924385
-14.124046 -8.922795 72.597733
-13.074432 5.089297 89.543518
6.064000 7.144899 73.633034
15.869958 -4.353128 68.541328
-2.774569 3.337514 71.743797
-6.296623 4.331925 59.515194
10.255707 3.542930 108.118828
15.626483 -2.288146 54.225330
-8.925208 4.162579 109.087685
-5.939729 4.104505 55.535271
-11.755597 2.883791 111.329544
-0.729224 10.595088 110.098671
1.883778 -1.762715 82.641632
-2.890601 -5.804894 69.939888
-15.524091 1.205382 100.464691
-9.306356 7.246912 76.957573
-12.867999 3.206673 95.978752
-6.617887 -0.470168 28.797621
-16.394054 -5.691772 70.501244
1.674495 5.069126 80.305115
-3.457123 8.471003 89.346489
10.348164 -9.226098 59.210785
-10.574874 -5.571817 39.831863
-2.621580 -10.531402 79.327522
13.746231 4.181687 31.534807
-13.852955 3.644260 62.646217
17.175444 -0.062068 80.326958
-12.947231 -10.664377 76.342758
5.991830 -0.175478 33.083813
-12.397310 4.939522 44.963181
-7.796918 6.574649 48.851604
9.619272 -9.419897 96.885986
14.537971 -4.171927 54.798447
-5.675509 4.095618 70.440094
-10.632280 -10.050201 62.044865
-7.986750 3.318488 33.542538
7.152497 -4.425393 42.319088
16.035830 0.528713 36.677589
-11.335588 -12.647314 75.259834
7.640971 7.515244 71.380478
-12.084543 -4.533047 41.722324
-8.664882 -12.273613 85.618698
0.187972 -11.007459 92.905655
17.611490 -1.236371 64.637070
-9.068459 8.706197 95.503098
-11.671939 -13.313217 85.433823
5.046453 3.152324 64.785378
-13.689035 -6.876993 103.823013
-11.936625 -6.032561 40.155945
-14.504650 -1.767964 89.502281
7.201976 7.646019 105.278320
12.980909 -7.095091 87.406219
5.119089 -6.200896 56.136662
15.165281 2.546840 68.315262
-5.069950 5.505421 109.462654
-15.418402 -3.536261 92.896530
17.185127 -2.266230 71.781616
-10.887704 6.480425 96.710579
11.871775 6.071310 81.045677
-1.840440 -9.644107 87.472687
12.470757 -0.818099 110.222092
-14.083986 3.063832 83.743988
-16.717136 2.552060 62.205635
4.422271 -13.412169 104.508362
-14.484572 -3.716859 41.903072
-7.371608 10.372008 102.870934
14.560080 -2.232320 30.635622
0.000187 -7.528789 85.537560
-0.294991 -8.674674 75.382721
-14.861767 -0.993591 88.524117
-12.310273 -5.694665 44.990231
0.776949 5.201412 107.106667
-15.018527 -7.868683 81.274651
-1.182659 -9.878067 80.339935
-17.472189 -1.985723 84.445076
-15.350116 1.497711 50.690891
2.980740 1.128498 68.347404
-5.998902 4.480521 70.212852
2.882418 -10.948907 98.288368
-16.733934 1.831692 90.949013
-9.516982 -10.952966 62.271717
11.352308 7.548659 86.176193
-8.940469 -13.219777 79.682610
6.346741 10.976681 90.360260
-7.709398 5.059916 106.839020
9.454094 -11.596245 105.680214
15.417959 -2.378633 74.358284
8.229031 -1.178620 24.866333
15.028290 -0.822726 34.992279
7.630587 6.014819 65.404144
-2.403708 -3.042486 66.962845
16.143160 0.377964 49.273376
7.020543 -12.059900 102.325455
4.195649 -1.122489 40.491478
-11.233449 2.661527 49.860123
-7.128544 6.787848 61.705780
-4.811656 -1.660572 37.691769
-11.207127 7.179420 78.754677
14.654666 -4.341130 103.662941
14.248176 4.731018 52.026669
-15.142229 3.681108 81.963936
-4.466967 1.501117 60.548073
-14.115684 1.019747 50.110779
-13.735476 -1.764437 36.682930
17.572998 -2.527840 87.064240
1.472928 9.435346 101.596344
4.688391 2.000444 48.698433
-17.914835 -4.756862 84.316444
8.579789 8.576381 86.822868
-3.534492 -6.443659 65.570099
7.756619 7.042195 77.286316
0.538017 -2.899860 79.949135
-1.097940 -11.091647 92.951866
-1.441670 -7.633926 62.292202
12.247752 3.708103 106.489609
-9.128871 5.054237 108.556068
-8.697473 -12.930589 78.478806
-5.304292 5.561121 108.413048
15.789302 0.373202 98.318604
2.121828 -7.804213 64.918198
-1.046226 -1.162220 76.844780
14.403501 -5.031328 95.775742
8.513100 -12.737575 82.389008
9.181774 -10.266656 76.967316
-3.495584 5.652279 82.745819
-3.545504 -12.086329 106.284187
-13.805397 -2.418679 58.909096
-6.935102 -12.709034 92.520546
-15.959425 -0.101766 60.757771
-14.241426 -9.611272 88.857758
9.724055 9.530890 99.171829
11.850745 -8.192039 106.310448
-15.001557 -4.449678 71.952057
4.011293 6.187744 80.338539
13.627778 -8.873620 57.242260
-14.280728 4.331746 75.232300
2.520102 -10.654048 87.658463
-14.629393 -11.398537 79.844307
-17.338465 1.419574 82.921074
2.651689 -5.465748 65.587433
-3.638685 -12.953379 83.260124
4.899827 4.360198 110.122147
-4.371729 -12.111995 95.206451
16.794136 -0.731877 64.265648
0.489265 8.744780 92.711205
-12.553031 -7.489165 61.088238
16.590401 -6.092156 97.461494
-15.834526 -5.374515 98.711853
16.589264 -1.183080 92.182343
-10.741624 -4.799443 36.925735
6.205624 -11.441117 88.924225
5.895764 10.617112 83.296204
-13.958717 4.967228 72.106262
13.512942 3.062001 95.094383
11.853062 -8.459443 102.586601
-7.898928 -12.765048 90.628860
-13.561953 3.435449 48.680664
-9.051452 7.320951 52.408607
-6.744269 0.536551 30.629761
10.383437 5.788754 102.049461
15.936648 2.146102 89.633202
5.362395 4.554255 62.810417
-6.338535 0.376995 42.383385
15.113403 -0.364755 89.241760
-8.728480 6.640673 105.186874
-9.320576 7.931019 59.519051
15.978005 -8.237445 90.484207
-15.867229 -1.614072 68.115540
9.718928 3.292252 110.339134
-12.722563 -1.046610 107.146698
-2.970682 0.950648 68.858971
15.251237 1.415524 81.791748
13.111702 1.280472 103.146286
0.713627 -8.717640 79.560806
16.325506 -2.067566 82.391510
-13.073151 -8.853226 75.162636
14.448201 4.209029 78.727760
13.565158 -6.486792 49.061401
-1.892150 -17.770720 103.217178
14.075849 -4.287084 102.551712
-8.579268 -11.703574 103.833344
12.409572 -6.347101 54.408779
-4.589113 1.107011 67.263657
-11.556726 6.042708 45.322094
