ply
format ascii 1.0
element vertex 2048
property float x
property float y
property float z
end_header
-13.172103 -3.775102 114.254669
-16.050734 5.222010 137.192810
-15.824569 -4.735207 131.362762
-14.240748 11.595476 146.128510
-16.745024 10.852276 140.443604
3.970975 9.803660 152.702606
-14.141630 -3.456840 135.577713
-13.313890 2.541206 115.031693
-2.136226 -15.008807 130.834137
13.069262 -5.355423 112.761757
8.512339 5.628819 124.368027
-3.733152 -12.050491 135.116394
-6.488200 13.140003 136.081757
-4.408937 -11.979713 114.030220
5.463552 0.353989 150.526718
0.476193 10.836410 130.219559
3.671178 5.756477 120.109344
-5.732505 11.412513 149.066116
-5.037940 9.088581 151.890305
-8.717597 -8.938972 139.996124
14.535059 -2.996612 128.959671
3.561614 7.371298 111.395195
14.686923 8.439091 148.470627
-8.381470 -13.442742 135.570251
-6.508587 -4.581343 144.640686
11.685870 -4.504997 145.492935
-0.317333 11.461395 127.068962
10.720572 -11.863769 128.797241
-6.222455 11.988766 138.700653
8.699785 8.201329 125.459908
7.453331 10.529459 147.943817
8.355028 -12.395209 135.424316
-3.446531 -13.475494 133.304474
2.123644 -3.744762 148.422012
13.668409 -9.373055 132.837982
-14.816968 -1.605220 130.478180
5.017170 -11.433284 118.157684
-4.871385 10.168920 126.069336
-4.441136 -10.856971 137.274200
14.476375 0.484314 129.155151
10.147061 4.120663 152.679047
-2.664899 12.771767 134.028687
-15.495110 -7.222930 139.927551
0.207076 7.413503 123.785675
8.030578 3.563467 114.175697
8.056364 3.988508 114.272072
-12.989545 11.430293 140.304260
-0.149703 12.631615 140.181717
15.115735 -0.876760 137.296585
-6.945594 -13.305556 135.490356
-3.407386 -13.444201 116.648140
-5.802352 5.572639 120.115822
-8.189415 -10.364334 126.770111
-0.793264 -11.312595 110.997040
-10.449162 -11.444755 137.659668
-13.458515 3.192199 150.965286
-7.455335 8.631757 152.397980
-13.557999 -9.683831 135.380005
3.878852 -12.779855 129.242523
-2.747257 10.977938 130.123260
-2.079830 -14.064726 132.151031
-7.230777 4.820278 121.160690
-5.442175 -13.926191 129.571930
-4.758083 12.104047 139.867233
-3.217301 -12.682623 134.900742
5.348965 -12.431033 136.697189
12.055625 -6.972686 118.826340
-6.203523 -10.533179 117.319519
-10.323132 -6.235513 140.861603
-4.871338 -12.719563 136.988129
10.728313 1.893447 115.960915
7.116898 11.106934 145.382233
-8.637679 7.618763 129.805389
3.384171 -10.399826 113.134766
8.572690 -9.506616 122.333885
15.262672 9.500374 142.197098
-12.956303 -0.563534 127.928612
-1.258549 -12.194336 119.002602
-13.788561 7.407995 131.855713
6.183880 12.091971 133.566330
-15.657427 4.681329 132.516235
12.323483 -7.004913 122.360374
-14.490766 -8.258798 109.612823
5.158968 -11.541644 113.303673
-9.877276 -9.590914 139.850204
-8.971285 12.812614 136.139603
-10.146213 7.741512 126.544601
-6.626356 11.923464 146.411102
-14.691739 9.600216 145.783951
17.084223 6.232561 150.799530
16.112501 4.716877 133.978394
15.481160 4.308091 135.000870
10.837291 0.835553 147.855103
-1.103730 -11.450291 109.436783
11.625714 -6.203174 114.054268
11.524605 -7.636508 121.140327
13.975734 -4.386986 123.417259
-7.456120 7.142666 153.551361
-15.669370 8.987520 142.481552
-7.180074 -11.904478 125.697006
7.760278 12.807810 140.809128
-16.054787 4.654561 134.767639
-1.873925 -12.121355 121.352806
-12.414096 -0.163156 112.672356
-7.677916 -6.304698 142.674011
-5.381891 9.876306 131.187286
3.191981 -13.108172 132.867294
-4.438079 12.466004 137.416138
11.279821 11.165671 146.142685
14.917182 -4.375742 142.510849
-6.940713 -13.465423 132.368317
9.112990 -12.889842 131.776718
7.095018 8.057043 126.039848
14.153962 11.769856 142.858826
-11.143966 -10.117639 128.699509
5.565685 -12.160125 128.010010
13.457518 -1.670542 126.409340
13.404001 -7.636548 123.188576
8.484241 -11.384575 112.097466
-4.702959 -12.275221 118.040825
11.755689 -0.649365 148.059814
-0.143102 11.389131 126.669922
-1.286509 12.438410 133.760376
9.924141 3.307498 111.296242
11.020320 12.450153 145.307556
3.487451 10.867573 131.568512
11.084687 -11.235061 130.883530
2.615303 8.178081 125.503326
11.512635 2.184397 123.999680
-15.051432 -2.220163 131.591629
-10.943433 5.882879 124.299538
-11.974936 -8.412257 123.999336
-13.210578 -0.509253 112.536301
-7.040579 -5.527128 142.686539
-5.087141 6.369532 120.678047
11.556521 8.195403 151.942490
-2.240594 7.631247 122.608810
1.390114 10.397176 153.293686
1.100693 -11.075317 115.114281
-0.928538 6.228075 110.796852
-5.205303 9.265094 126.735397
3.605586 -13.190429 124.798706
8.041222 -11.035908 138.451721
-10.504001 5.715477 124.913597
-12.472239 -10.571906 109.213524
1.878173 -13.190119 133.346313
-12.350212 -1.244621 124.347855
3.126570 -11.662803 137.646515
2.716103 6.345620 122.206291
-5.242376 5.224203 115.598412
-17.822464 -2.276299 143.235657
2.218947 -10.964633 144.650955
10.013033 11.760516 142.334885
11.119994 7.994532 130.419952
12.406860 -2.000483 117.469749
-10.014288 2.570654 119.380165
-0.061993 -11.980493 117.682770
-11.586236 -9.107886 109.814529
-15.896314 8.971353 149.947845
-2.951949 13.438595 142.162750
10.785632 -9.154348 139.139084
-4.839829 -11.983880 122.911911
0.803381 5.187234 115.704529
14.410707 -6.654909 133.402527
-3.174849 10.800678 149.946472
-4.355239 5.364897 111.827583
13.471055 -9.067766 138.410141
12.131872 1.705820 113.112602
-5.536479 12.985023 141.211929
15.784982 -1.148505 135.418030
-9.814049 3.237031 114.266777
13.547962 -6.060198 137.957794
2.792744 -5.566564 146.806290
11.833171 -8.153688 120.159424
-5.406708 -12.473289 127.191658
-7.048743 5.333152 118.474510
9.857825 11.574273 136.469498
-10.388925 5.418883 126.053604
3.365684 11.656269 135.348053
8.010056 13.170203 147.666122
-7.182472 6.571379 153.984756
10.664747 8.657454 132.632645
-9.325926 7.151037 125.288582
0.266189 12.814484 132.323608
0.469905 -11.324103 114.597382
17.010435 8.243832 148.971939
-12.882976 5.352182 129.717621
16.102192 10.870447 139.185822
7.699185 11.777549 142.073746
13.107714 -6.996942 122.366409
-13.419928 5.055734 151.866943
-4.337730 8.798756 126.007812
-12.347956 -2.537052 114.807724
15.740475 -6.029998 142.072205
-1.874267 -11.629506 114.756554
-0.208800 12.423198 137.660431
-13.844330 -4.414652 120.823837
9.989234 -8.640437 123.175293
13.421378 9.212931 150.120941
14.672429 0.558345 149.139526
6.978650 8.145412 128.327347
-6.636501 12.388937 138.251358
-14.597929 -2.363022 126.742989
-13.882133 -4.888990 138.549774
-5.539593 -0.103124 151.134811
3.586939 11.224299 133.727081
-10.578786 10.675997 136.996353
-4.012681 -12.941832 129.674026
-4.621772 -13.292263 130.237076
5.553252 9.363622 126.322556
0.856190 6.628085 119.054367
-5.777839 -0.279618 150.506104
3.854043 -4.389967 147.511597
4.356132 4.343368 115.189484
3.012422 -11.942854 112.421341
15.994303 6.018999 135.085587
-0.201443 5.462989 117.223663
11.583933 -6.804502 121.147163
13.901499 3.589539 130.439789
5.898974 8.846503 151.646973
-6.049692 12.297368 142.015274
-14.916916 0.112184 135.111115
-1.655620 -12.604971 117.978859
-9.337385 4.389168 152.244461
-2.316696 -11.736427 122.470078
-11.148073 -11.228075 136.986435
12.254013 0.451582 126.071144
13.834104 -8.060046 129.171295
-10.117455 -11.201830 111.182671
5.460955 6.029360 118.659340
16.465204 -4.224090 140.182159
7.297220 9.191075 152.011292
-11.028526 4.402229 126.300201
-12.662234 -1.381853 126.191010
-10.083594 5.674011 121.841827
-4.796639 10.333114 130.130280
15.349631 9.048336 136.901550
10.609015 -8.317883 115.660027
-14.300707 6.026244 151.276855
16.449978 10.795495 149.747787
-1.335599 -11.456956 117.786026
-4.520525 11.449606 127.048355
-15.675585 0.464806 141.218842
-9.639703 12.495237 139.222229
-0.357217 11.931990 134.328064
9.493507 8.993442 131.455734
11.898847 -5.352649 120.489159
9.308517 -9.718741 116.989059
15.852783 1.359954 148.786835
14.057045 7.205391 151.672043
10.443929 1.744672 122.020981
7.436091 5.038255 114.932663
14.260729 -0.748479 109.537270
-7.075392 10.891552 150.392654
-13.549047 -0.344964 129.204926
-11.691924 -14.011819 134.068253
14.459793 -0.336641 129.910858
-7.546938 3.920734 118.602020
1.168716 10.659635 147.964798
14.767683 3.702582 150.953842
3.514051 6.179727 121.075157
-11.967987 9.416516 148.443878
-8.772235 3.271309 152.027740
8.592563 -12.116801 136.977936
-14.167320 -7.363131 130.565720
-15.370033 -5.725371 140.060226
0.518323 -11.005792 120.765556
-4.960541 -6.785726 142.962845
-5.021832 11.858752 133.245071
-2.012376 -14.511761 132.497589
6.406834 13.226165 140.591873
11.969021 11.502331 144.858490
-11.950229 -6.078121 143.253616
-6.870461 -11.426395 125.690002
-0.379004 -12.248176 131.107468
-4.403782 6.312116 120.853470
12.986531 -3.971436 123.895485
12.940007 -6.025264 121.854027
15.155413 -4.786123 137.398895
4.687727 -3.284337 147.711258
-13.595808 1.557701 130.972839
-2.902811 11.082014 129.189224
0.395634 -12.437551 124.966080
1.134776 -12.196694 129.860626
2.407079 -12.504812 111.762390
12.961729 6.692964 131.463745
-15.259498 0.593650 133.325470
4.984599 10.186707 130.160873
-7.331263 12.839229 139.686768
4.641887 -10.043237 141.796082
-1.457533 12.614557 134.563736
-10.747049 -7.783792 123.136147
-16.260471 4.855240 133.677017
0.781844 -11.973696 126.938347
4.322715 -11.494243 117.785797
-6.354165 -14.061258 126.922371
-11.205982 -8.162654 118.167648
-5.603831 -12.416938 114.931412
16.623175 -1.627411 146.141907
-12.685772 5.226224 126.819458
17.689184 1.133367 149.826935
-11.757496 12.837953 140.499496
-2.419677 8.722834 151.918045
11.021995 -6.561959 114.069725
-3.704871 9.383838 151.014603
-0.860234 7.762796 122.732628
10.727319 2.161222 117.210876
12.246521 -2.416723 112.759079
-14.625819 -2.156155 131.585968
8.323104 -11.968188 111.550911
-15.544145 7.904540 138.176697
-15.468369 -4.005717 141.631714
1.428661 10.205596 148.907608
-2.246357 7.098243 117.172272
5.993275 6.584531 119.965813
4.744673 10.595524 130.505386
-8.477971 -11.646800 109.097176
9.698510 2.800533 120.626938
0.051339 -13.133324 125.727692
2.625146 -4.849404 145.967957
-15.399966 -0.435191 134.401596
9.573858 -9.787524 126.959305
5.615539 7.349302 118.023193
-13.701303 -2.336860 124.825478
-8.275650 -7.419215 142.695648
-14.603914 4.428114 132.212646
-13.882710 1.297490 151.602036
-14.507274 -4.385008 137.859802
-8.798692 -9.630051 122.965385
-6.995814 12.191306 144.057297
2.383465 -11.266144 115.251480
-10.876743 -6.042823 120.579208
12.540241 -7.826118 112.176735
1.444399 -13.086190 126.827469
-12.113056 -8.112854 125.513504
7.518500 -6.446259 141.344376
15.482848 10.853870 139.076859
-0.828685 6.457000 115.492928
8.740069 6.969584 157.683563
-3.197940 -13.772787 130.432846
0.997436 6.588316 119.766251
4.180330 11.272963 147.402069
6.085444 8.518669 125.843842
10.308355 -13.563919 132.501633
-12.089206 8.686687 134.687851
0.531487 -10.421035 122.441376
-15.998775 -3.857996 144.668854
11.792435 5.685590 128.666748
-10.425056 5.163942 125.683907
7.279457 4.306351 119.337425
-14.646485 9.605584 140.124207
14.774442 -2.543742 147.199432
-3.996048 -13.945430 110.392097
10.890939 -12.030178 136.082275
11.241840 -7.004969 119.343605
8.125132 -0.966016 149.807861
14.303133 7.427099 151.982681
-1.371251 6.264863 110.931763
-11.778557 -1.811687 118.992752
-7.924824 -3.118844 146.919266
12.508715 0.346446 150.205887
-6.854430 7.958077 124.396034
-14.564478 -5.993362 133.952209
15.335227 9.290674 142.117920
-11.678095 -2.073362 115.410385
-9.526868 -6.204690 142.636719
-7.165989 7.956194 124.990242
2.880184 10.077337 150.701660
-14.858052 -1.734604 136.744339
-3.952317 -12.017071 125.918823
-16.836962 -5.540839 140.208725
12.780478 -6.587111 121.169151
-12.551787 0.403234 122.805283
14.598001 -3.225694 126.955940
2.343035 -12.640374 136.995285
-14.643356 -3.486907 132.385178
-13.647108 -4.611739 109.832802
14.754683 3.881159 130.529404
14.210845 0.390568 128.121078
-4.336493 -11.834773 124.893272
6.810705 13.105032 139.764664
-15.582366 -1.498668 128.946518
-12.311803 -2.588317 145.450317
-12.005435 -8.565681 125.773064
-8.999017 -10.246122 119.787346
-15.361284 -5.306251 129.617569
0.785737 12.595139 139.483536
11.572922 -6.433175 114.422684
-8.552015 -10.105699 117.409515
4.857553 -13.191643 125.049942
8.228221 -10.642717 127.146469
1.233803 -12.546415 130.419434
-2.467216 -11.980638 116.733315
7.744890 -8.880775 114.655083
-3.010296 8.522401 125.570312
-14.415536 9.983921 149.799713
-11.577512 -7.099659 121.262131
-9.178755 8.953333 125.649765
16.417332 2.190864 149.607437
-6.706069 -11.886162 112.641159
15.069260 3.871848 151.564621
8.147960 -9.925523 138.882477
-9.398679 -10.553714 122.780884
-18.077797 7.708113 143.589615
2.739503 -13.737853 132.973770
-11.673881 -12.194060 132.240509
10.609274 8.551894 148.663101
11.528172 3.740394 125.247971
-11.033452 4.186294 123.603165
-3.161319 10.015484 151.047226
-15.513860 9.587941 139.428467
-1.616274 6.294381 118.065948
13.839575 10.086239 137.154160
-11.018119 -8.698563 137.760315
15.786242 -1.061378 132.674850
14.195482 -0.343122 130.407013
-4.742574 6.207623 112.330673
10.459229 7.727533 127.430878
8.244352 -9.652139 115.452599
-12.744229 -4.726818 124.130829
-7.289094 10.472962 150.160110
-6.133929 -10.962622 126.000328
-6.656455 -5.936893 144.159241
-7.356422 8.727874 150.958527
3.582608 -10.670456 112.099335
-12.154245 -3.786110 120.056587
-13.941467 -7.490718 129.356812
-4.685976 4.844108 114.864944
14.558221 11.559632 140.809692
13.062369 -0.234165 128.847961
2.810977 11.478243 130.541168
-9.171988 -12.615551 126.513237
-8.538383 3.816111 115.439484
4.517224 -1.675994 148.540680
9.065170 -13.230071 133.211411
-14.530865 -6.060755 131.158356
-3.009906 -13.695126 132.068344
-2.438350 -11.889828 119.698997
4.982433 12.955578 144.344986
-7.560954 -9.956022 116.319214
-7.072433 -2.700888 148.720490
-4.572393 8.183054 123.685516
7.565023 3.683802 153.133850
-5.420933 -12.410056 114.647148
13.637476 1.012496 128.196136
13.155372 3.464435 129.012421
11.753364 0.869486 112.806221
14.184299 -8.954921 132.898834
10.152070 -13.231825 135.234573
15.161646 -8.051605 138.271103
14.774027 -8.357129 134.007233
-6.961082 -2.395814 146.328842
-1.084374 12.325813 140.353638
7.987107 11.713002 136.090546
5.350516 -5.516368 148.845016
-1.983630 -11.317707 122.109283
11.062063 1.498639 109.737099
11.219183 2.753110 113.253929
-1.782176 11.416511 137.935562
-4.071082 7.451656 125.027534
-8.204461 13.186994 141.007324
-2.518138 12.541215 133.348679
14.313571 8.643418 136.673798
3.809706 6.721813 121.190239
-7.443840 5.341545 111.633583
8.403636 8.736705 125.497711
5.410309 6.214766 114.934143
4.266878 12.053005 147.081146
-16.609558 10.361349 147.750137
11.138255 9.130148 133.945160
1.618507 5.879386 116.574623
12.949974 -2.556626 117.790550
4.883065 12.653434 136.936325
-8.481052 -3.540743 146.196091
4.011335 11.331153 133.060135
-9.000710 -10.248997 117.661552
-11.533411 -2.873490 116.595528
-13.794182 4.873105 131.455292
-10.017103 11.103805 146.650513
-14.825468 5.099285 134.509186
-6.790114 -6.586880 142.033997
-14.698012 1.509626 150.363617
8.763599 -7.380512 140.260010
-6.241904 8.868006 131.289185
-15.869345 10.319170 145.983734
-14.838249 -3.374557 140.648544
-5.075341 5.227437 119.735229
-11.026009 1.639180 119.368553
9.706369 -10.272597 112.858490
-6.896868 10.024621 130.042068
-11.233529 -8.986505 110.069374
-13.372850 -5.393686 143.562439
5.149503 13.014249 137.458267
6.404487 -13.293140 131.674942
1.917509 -13.329847 132.934952
-3.755283 12.860130 135.987869
12.902967 -8.325198 111.554024
-4.480254 9.304747 151.160660
9.234270 -14.111405 131.932007
3.471466 7.174475 111.179482
-8.183727 10.892290 135.900940
-14.711439 -6.285035 139.971329
-3.233774 -12.424911 135.474884
3.179155 -9.039407 142.116302
13.180185 3.206986 126.283867
-9.795990 -13.345085 131.211304
4.386651 13.542459 143.116013
-7.789028 -0.922180 148.949677
14.059159 -3.760999 112.458618
-0.696287 11.833594 132.400238
-11.154571 2.968297 112.958565
13.831800 -5.260076 143.254883
-16.220856 11.453862 143.827026
-13.616133 -3.621440 126.263809
-11.059859 10.609238 140.898865
13.203238 -3.283567 125.457443
6.935387 -11.011991 121.168365
-11.198006 -9.585246 136.610718
11.014246 -12.382545 135.944611
6.210565 -12.663514 136.714478
15.703382 8.774187 137.191925
6.989058 -9.942591 112.604462
10.546907 12.339707 143.819138
12.038831 -8.116278 123.519974
-4.860618 8.149256 122.410400
-4.495963 -11.250815 117.403114
15.986653 -3.961433 132.326523
13.274928 -4.037919 120.766197
2.431637 -12.190807 108.117462
-3.810309 -14.281596 110.314407
-7.026024 9.082476 151.089523
-8.513917 -13.387061 136.449570
-2.006040 10.885680 150.627182
-12.291785 6.149519 125.977844
9.266178 8.351306 128.476395
-15.194409 0.093500 148.932007
-12.883906 -10.752072 129.286270
-11.271555 0.203354 120.090225
-16.641239 2.823989 111.031097
-8.823631 -2.013770 147.280869
6.544103 10.299875 132.065323
-14.660883 -2.243005 147.727432
6.086900 9.749401 150.943451
1.692039 11.703971 143.302917
-17.017103 -2.186716 144.498550
-6.256043 4.987559 121.129440
10.725096 0.521066 149.120255
12.562295 7.821103 133.555405
-8.549728 2.269828 150.593185
13.294617 -1.785712 111.378510
-10.340068 -10.061426 125.004463
-4.058700 -10.932574 138.971634
-11.838611 -6.376676 111.699158
-12.857655 5.828668 131.135635
-14.092484 0.626291 129.798660
-13.829096 -6.997187 126.968208
-8.041220 -9.932456 113.207832
8.613194 12.881157 141.322403
13.816106 -1.750217 146.420761
6.746797 6.149326 111.845551
2.993563 -10.526500 111.689774
-10.047636 -8.059161 114.277542
6.415627 -11.614008 117.495987
0.615847 10.712996 127.901451
-10.962287 11.066120 144.682083
13.787511 10.910803 141.418961
-14.991974 -8.385015 134.669678
7.708080 -11.068887 138.405838
7.216035 11.611921 137.199539
6.447136 5.070822 117.844383
14.879993 -3.482218 133.351440
9.741142 10.953983 144.972855
-8.541628 12.052373 141.268417
-16.004076 -3.926430 132.557999
-14.176107 -3.980239 142.508698
-13.598574 -0.364850 110.301315
-13.354550 8.271878 150.547714
8.553049 4.236310 120.077789
-0.184998 -11.765381 121.548508
1.595755 -13.750744 134.082703
16.819735 3.544492 138.080643
-12.508157 -8.310151 140.080093
15.050362 -6.851101 135.565460
9.626168 12.523985 148.771561
-7.320833 -0.310792 149.727036
-6.300646 9.774344 126.685684
14.225828 -4.270384 130.010010
14.395328 -7.454511 134.330719
6.187797 -10.918166 114.347008
10.210039 -7.530684 115.562515
-1.538556 11.057870 127.450211
15.987710 -4.338746 143.513306
-14.407094 -2.519083 137.495834
-11.091200 -12.817699 131.679382
-8.796400 5.718755 111.250961
16.588335 -1.035560 139.559082
16.087978 0.042272 133.595032
-11.244730 -8.850081 122.754654
-1.203253 12.337153 144.210815
1.914093 -13.836132 133.210114
7.919192 -11.365110 112.146973
-11.756673 -13.006688 134.723618
2.397847 -13.557216 133.753815
4.187061 11.458245 146.185089
-13.412077 -3.693680 121.825279
4.058417 -11.914307 126.779533
-15.369295 1.752142 133.341507
2.679130 11.508325 148.323029
11.069842 -7.660183 116.364548
-5.128197 -11.380193 118.231499
-3.744468 -12.352918 127.316673
0.927514 -12.389297 129.235565
-2.218730 12.178478 131.020370
12.072242 7.988708 129.066711
8.561918 8.123024 130.092422
-6.228228 -11.127956 116.252808
7.122852 -7.834030 140.352768
-6.815183 -14.307022 134.076965
-13.734642 -0.081504 128.147186
8.872293 8.679190 126.680695
-14.533563 3.460698 152.000580
-10.770092 7.941608 130.159256
7.368467 -8.327105 140.295486
14.392586 1.934005 132.175812
6.716870 -13.622124 131.158218
15.057427 -2.090974 129.222565
11.413899 1.923310 117.402092
15.334601 -4.473394 133.603470
-9.037863 -3.284542 146.741440
-8.346651 -11.500377 137.350555
-1.078745 -11.501283 117.580261
-6.354053 -12.992954 136.951233
10.779930 5.016854 123.563782
14.687501 7.810148 150.468124
-6.590799 -10.723829 116.516029
1.779452 11.249262 129.654724
13.506662 -8.335397 141.108337
5.655579 11.320864 129.700348
-11.970802 -6.078761 114.795662
6.537028 -11.476133 118.823830
13.838793 -4.012920 123.360489
5.392812 11.431061 149.368591
-0.301360 8.710129 126.593567
1.072159 -11.899780 114.726601
7.484077 -10.825910 116.753036
-12.623867 -1.851429 113.627838
-16.078098 -2.609732 133.734970
-15.128141 3.826507 137.050629
6.389677 10.771596 128.421188
16.158897 8.033346 137.819641
-14.518493 -3.279717 145.978607
6.766346 -12.168609 121.506653
4.040025 -11.740427 114.901894
14.404026 -3.924932 128.974045
-13.936138 2.427733 127.215111
3.620671 10.472562 126.508064
5.327733 -12.598376 109.055214
12.408031 -7.348686 121.293442
10.850864 -7.369296 114.759018
-13.067353 -2.535130 114.583336
10.785431 10.788939 147.698853
-12.708694 11.028018 146.008987
15.399354 -1.475953 131.476715
-8.279888 -6.619011 142.346390
-16.066816 10.823110 142.966537
8.302916 -9.689714 117.255203
-9.928492 0.525078 148.132416
1.357353 9.189335 151.709396
16.150589 -3.394319 144.300034
10.411640 -9.794916 124.986465
-0.071546 -11.195564 123.185226
5.856148 8.259142 124.692924
-12.549809 10.741182 147.707840
13.778906 5.845208 129.854019
-0.231358 11.781929 143.737579
13.611066 -9.623954 137.631256
14.100469 -0.829860 148.196869
-13.274563 10.730926 140.425339
-15.071033 -1.490424 131.387375
-6.736378 -6.931597 142.771210
-10.692680 -8.497521 111.052460
-13.481674 -12.111251 133.411224
-1.300715 6.190598 110.370323
-13.047636 -0.884656 126.847130
-7.264479 12.015697 131.950470
-6.842256 -2.158660 148.674164
7.852572 11.085114 151.672165
-14.043826 3.813278 131.164352
5.230887 -5.557074 145.149887
0.111467 -10.761034 112.038925
-6.385702 -3.320987 146.086960
-9.541267 12.148774 141.345825
-1.445605 10.710061 144.119202
-12.408559 9.832712 148.707779
11.430299 0.772793 111.125275
-6.664793 -11.879571 123.415970
-12.817748 10.487343 136.270615
-15.320022 -3.991268 129.687851
-11.886786 -8.280408 123.907219
-7.225333 11.769981 149.295364
1.990989 10.085037 152.042313
-16.241175 2.784280 130.957779
12.426685 -2.531576 115.262436
-8.489376 5.448339 115.432190
0.513278 6.950222 123.270927
10.217472 -8.938321 139.739090
-11.983528 2.742711 150.475861
-13.414407 -5.438678 130.047028
-3.196565 -13.265906 129.935425
12.154610 -7.727727 141.343826
12.865154 10.467000 132.855728
0.978491 12.616249 131.079651
-4.870721 8.531566 129.540665
-15.647872 11.574540 145.030624
3.560190 5.939090 120.106476
-12.088338 -0.541861 148.107773
0.013467 12.006401 131.206619
-8.805622 -9.677806 115.576096
15.499800 -3.616933 133.679520
-6.339202 7.911633 109.115013
5.138687 -9.910974 118.993385
-11.505328 -9.975480 129.604416
-6.714540 8.014405 125.920593
-9.236760 -13.930023 131.566605
-11.703869 6.613667 152.279846
9.668104 -9.932096 117.371231
3.887843 5.910364 114.326172
-12.328541 -5.998691 118.490318
7.281318 10.588531 133.417664
-12.139298 -5.522084 121.671707
16.115511 11.059329 147.596237
-9.011000 10.610787 130.079910
-15.386633 -1.878371 147.144058
10.227749 -10.983206 109.856888
14.882570 4.667089 132.337051
-9.859154 -10.442616 122.879585
8.207268 -2.707459 147.542953
15.022275 5.136925 135.336060
16.164595 -8.156624 133.591232
10.223971 -7.814885 141.441513
-11.057729 -9.215030 119.408569
1.523076 10.995885 126.603355
8.390980 12.383162 142.930130
-16.206831 10.202425 142.132858
11.575275 12.139166 140.546448
13.949026 -4.694520 112.441895
-9.100705 3.357141 152.265625
4.548357 -11.405033 111.834961
12.153858 9.058866 149.625198
-9.943332 -11.368631 136.970871
13.685813 1.929563 127.060875
15.357700 12.141004 141.209213
13.409592 -3.877445 126.462196
-0.759032 -11.301987 118.669785
-0.960265 12.534933 144.912018
12.452413 -4.453163 123.958054
7.162141 9.237069 127.877602
-13.221830 10.581986 144.321396
15.174047 2.338379 134.817902
0.012243 10.897908 154.596893
11.242861 -12.534035 135.484772
7.334673 9.368297 128.541611
15.131883 -2.130110 132.629684
8.608120 4.019911 118.715805
9.735347 -9.717321 121.693748
-14.059336 -4.973320 127.827354
-10.687048 9.106165 131.532806
-13.053814 -3.026168 124.007339
10.574763 2.288242 121.823051
14.852119 -7.476736 133.258743
8.487175 9.944909 149.938858
4.317654 -7.534385 144.168777
-3.959783 -11.326185 113.010910
-7.619456 12.015504 144.004959
-4.337973 7.863241 125.650108
-13.611683 1.886642 128.131775
-0.449546 11.383465 147.084854
6.339241 7.086744 122.742012
-11.108799 0.863687 118.534775
1.671257 -11.443419 117.555679
15.323748 8.316586 136.231674
1.019029 4.702794 112.635536
8.861755 -9.915834 114.611588
6.143376 -5.856971 143.334961
-5.189250 11.018781 131.105560
-5.179774 10.514726 131.178391
-13.218766 -2.305636 119.041779
-13.282743 -0.656075 125.231911
1.073999 5.495625 113.023758
-3.353773 9.295857 151.942520
-1.599703 -14.130751 136.087067
13.484470 -8.449781 135.105637
15.321816 -1.370019 147.910812
-8.123977 -12.467278 136.997269
12.864363 0.317206 125.227806
-6.027101 5.546900 115.550072
-7.040448 -15.293765 133.497452
7.497112 -14.138524 132.442093
2.015171 -13.500665 126.277016
-13.575291 -1.638864 128.385010
12.544673 5.529256 131.720566
13.082832 10.931219 137.560654
2.919619 -11.595017 112.382164
4.311501 -11.898864 115.594894
6.146842 12.754367 139.286865
-7.998322 -9.788965 118.243538
-14.937286 0.806026 135.095871
-7.017956 9.866161 130.503174
-13.415978 -9.410921 128.435074
-12.227074 -3.566418 120.345932
-13.742854 -2.030838 146.408188
-1.570723 10.135381 150.497665
6.625124 -10.695760 112.437790
-15.040509 -4.923313 132.629013
-12.760099 -1.650684 120.484787
-1.367253 -13.593455 135.170715
3.020552 11.435780 144.135590
-2.551971 6.594608 115.492035
14.607427 -3.039634 135.574783
13.435092 -10.160813 134.200958
14.016320 -2.514925 145.812149
17.063438 4.167610 151.125198
0.122617 -12.158428 113.908356
-0.271070 10.997752 145.653580
9.308562 -5.643592 144.018356
-10.341001 -8.589630 120.938637
-9.000146 -15.631493 130.542282
13.650684 -9.008765 107.498505
-7.958189 10.131598 132.375046
8.152096 -13.142775 129.452255
-1.427085 5.163469 108.060631
-2.491928 -13.768489 132.900070
8.627055 9.592702 131.282837
-9.587301 -0.818019 149.116364
-15.444256 -2.113142 137.611130
-6.682846 8.669647 126.225769
10.928908 5.572675 152.865219
-0.477616 -10.619069 112.322266
-13.373131 -0.119100 127.479256
-10.264548 -8.552139 114.782303
-7.440620 9.496382 129.179153
11.108404 -10.803174 122.431862
-8.710590 -13.254115 129.777649
-14.074885 4.676247 152.028625
6.558778 1.882893 151.603149
0.861917 -10.860968 109.971626
6.552143 4.148389 120.041008
-0.143201 -11.359612 115.454979
13.572053 -1.147570 126.094833
12.316023 8.374283 150.799805
5.678666 7.634103 152.069122
15.341048 -1.488217 136.527618
-7.956667 -3.258116 146.732254
-11.537916 -1.597239 114.342461
-5.136176 8.828361 125.587265
14.123611 -3.953801 126.307777
4.283600 -10.834918 111.889915
3.137590 9.298411 130.626282
13.123546 -6.578103 128.171021
0.380872 -13.439193 117.221268
-11.349857 5.457867 124.751411
-10.285934 9.132363 149.129990
6.906091 -10.799235 140.596375
11.942614 9.726572 146.230606
-5.410717 -8.031228 140.750046
-6.342525 5.027467 115.238083
-14.982745 -3.006237 124.190224
4.010927 11.621880 149.210114
1.784207 10.064984 127.165344
-8.460121 -10.104551 123.465973
-10.024805 4.222765 113.473824
-0.355682 9.072232 157.532211
10.264305 -7.386304 142.251663
8.831185 10.164831 149.704819
-7.924864 -13.415895 134.559769
8.549721 -13.187121 133.744141
-2.705210 12.402067 136.194275
12.030027 -1.553602 119.654846
12.905540 -5.015014 143.114120
-2.279508 -11.318778 112.125381
-15.471328 8.485065 137.432541
5.870825 5.618482 115.402916
15.752417 5.190005 134.421219
12.987286 0.762031 110.615021
8.246063 4.267174 152.388855
1.589163 5.835749 110.872299
15.796168 -0.271589 148.548325
-13.157726 -4.199820 121.836159
-15.220346 -3.991358 144.657288
4.370975 5.762047 109.491806
-4.462008 -2.733754 147.679459
6.452722 4.088714 114.481972
5.164417 8.564780 126.029640
-16.317902 -4.644364 143.447876
-9.631073 -8.514030 115.987503
13.122610 4.674872 129.494415
-10.935770 -0.982711 147.079117
-11.736555 -7.515010 112.691833
-10.316659 3.957644 113.806732
0.343581 13.156287 137.750977
7.452593 -7.308305 140.913406
-4.767900 11.203823 134.938339
7.510633 -12.300753 120.104691
11.107326 11.947680 146.682968
13.324510 -2.848441 118.475700
7.736927 5.024980 117.855438
-2.763911 -12.464531 123.231018
4.838065 -9.773851 140.527603
14.626386 -4.522487 138.041748
12.520742 11.507679 140.171280
-12.567657 4.179255 110.154701
16.433329 4.744405 150.545502
10.187815 12.271834 139.630402
10.629048 -8.401522 123.934875
-20.313898 0.710041 150.593369
5.589765 7.996264 125.657654
14.150040 4.699638 151.495789
-16.066145 6.047059 139.193695
15.231288 -0.022863 132.438828
-1.266819 -12.610913 127.531410
3.516041 -11.433303 119.673531
-7.965838 5.231908 121.583809
14.848886 -4.449525 129.049210
8.615321 -13.822152 132.608795
-7.375633 -12.366282 127.538429
8.846414 5.032920 122.029091
9.270369 -12.926906 110.274055
-13.209130 -5.018992 111.910599
-14.581043 9.898241 134.781418
-13.995372 -3.042664 146.511810
8.912436 9.782412 131.976562
-0.083302 -11.851423 128.083588
7.901146 -5.735315 143.661987
-14.819819 10.791982 142.027863
1.342719 -13.118040 129.109085
-8.673409 4.767221 119.894287
12.082905 3.021163 151.894394
5.689060 -3.674506 144.840088
-14.989322 -9.444370 133.246384
9.385893 10.384536 134.186462
13.354952 -6.804031 124.132004
7.973251 9.902754 131.219574
-15.421377 11.196819 141.795517
5.854699 11.856347 146.939713
-11.371632 0.875235 124.044891
-5.752001 -13.825017 131.050995
15.902602 -0.098866 130.641251
-11.830095 -8.187124 120.649750
4.051373 6.709115 121.482635
-14.966669 2.079596 131.719894
-2.604906 4.576748 113.628983
-13.187407 -2.226857 113.689400
-12.046474 -10.683376 129.298889
10.787923 2.144360 113.159843
7.725026 -10.706309 138.215988
-11.535966 7.512058 127.856804
-1.107754 -9.657092 138.113678
12.534345 7.396359 151.128082
6.478115 -11.343164 110.975670
3.403715 11.362575 131.179443
-15.199635 -7.945780 136.073761
13.853515 9.966743 138.022141
6.740176 -11.079460 125.655350
-10.057819 -13.723353 133.041824
12.237016 -7.990856 128.193817
-15.684432 4.060385 136.370087
-3.495049 8.422177 153.994141
-7.236049 -10.493189 126.412674
-5.759774 -14.273521 132.314667
0.613886 -10.909819 127.330200
10.817128 10.773726 149.947357
11.262245 -6.961936 115.670731
-8.308937 -0.076011 149.845367
11.971461 -10.925481 129.053558
0.420556 12.236443 137.758347
6.403409 -6.366035 142.501266
7.843829 12.250281 136.700684
-1.590875 -11.472088 131.764648
7.573597 11.803310 145.395798
-13.386556 8.283996 134.070724
-1.555920 -11.603301 115.936768
-11.389978 4.755654 125.234016
6.589890 -0.786208 148.843109
10.993000 5.181799 110.738678
-5.268610 -11.409204 117.046745
-6.936600 2.057534 151.352173
12.921873 7.609234 152.146072
-14.158649 0.823392 111.392990
-2.038874 9.972823 153.663956
4.964472 -12.356610 111.494102
12.474043 -1.187079 121.882034
16.666952 3.424343 135.255936
14.716030 5.326627 132.204620
-3.505320 6.223244 119.663445
-6.572902 -11.820046 125.183060
14.161410 -1.228735 132.837753
-1.347735 5.926738 119.891937
-15.424670 -3.479749 146.998001
-9.528206 -11.873759 128.791489
-12.954522 -5.870420 116.943787
15.739902 -2.733276 134.662643
16.851730 3.458211 135.617584
-9.515440 -2.847485 147.190033
-14.162822 -9.623857 130.819717
7.518999 -10.744220 124.878418
-12.075503 1.619021 126.633675
13.477835 1.337149 127.574333
-1.928953 10.970630 127.035385
-11.561845 -0.955446 117.011833
14.834277 5.611886 150.312592
-7.580443 -9.584846 118.063271
-4.720470 11.356103 133.201965
-12.102197 2.075042 123.753006
-10.684896 10.336279 147.426559
-3.254646 -9.717001 141.067932
11.829979 10.089532 134.324539
11.599234 -10.913955 133.143082
-1.116810 -13.067916 126.799492
-15.673125 1.567822 149.577454
-13.555181 0.947510 125.992661
-13.316381 -1.141781 148.649918
-6.924426 3.644486 152.498795
12.138075 9.935367 147.880493
-0.229103 -14.098741 134.854813
-6.173543 12.660002 141.854218
-9.799962 -8.400912 116.512199
-17.627592 8.543985 145.847534
12.261740 7.065486 131.089340
5.805068 11.622036 146.647461
7.873404 8.611622 128.989532
10.306068 -2.367856 147.023834
-9.917064 -10.049502 113.669052
0.884841 11.753094 128.951767
-3.266456 12.334596 131.480103
6.958016 -11.883153 122.121567
16.145210 -3.368129 144.015488
15.605585 -5.854036 140.790268
-12.369047 -10.544426 134.296997
7.166891 -12.162942 123.331757
-12.297706 -5.961271 119.356621
4.738507 -10.478628 141.783325
14.698148 7.488030 134.389130
-12.597054 4.784902 131.173691
-0.742572 11.820224 144.818848
5.379524 8.497822 125.445999
-13.680780 -9.516030 138.388702
-10.600640 -2.356225 146.895935
7.439102 -11.871511 121.198380
-5.864750 4.625622 117.042946
-13.735095 1.624995 130.615250
2.034637 -12.084188 113.750504
-15.069829 4.072154 133.333786
-2.593720 12.224987 134.196091
-8.636559 -0.898519 146.188660
-7.217407 -13.919554 131.934738
-4.842475 11.538580 135.241608
-16.108200 -3.859588 146.771255
12.990177 10.760881 148.770889
13.034513 -2.788335 111.378418
-7.487296 0.031372 153.035553
-13.682644 6.308952 151.524841
9.515657 -11.923495 111.270943
-4.926078 9.666406 129.541107
4.721100 -12.771552 111.963585
3.333726 -11.151525 113.697182
-11.486506 12.121909 140.062897
-2.928586 10.089071 155.181137
0.742573 -13.555898 131.802383
-5.086372 11.563192 133.106735
10.136067 3.609377 123.158005
-0.405753 8.054860 124.244560
6.345976 8.176262 124.900421
14.052471 -5.476250 123.228012
14.967223 -0.768118 138.444458
4.587348 5.478000 111.493256
1.772183 -11.860373 125.727196
11.787383 2.078132 149.337357
-7.102052 -12.023905 134.865234
-17.020967 5.234851 135.675186
-6.608842 -10.856639 115.376717
-6.491395 6.148883 109.826134
-4.063571 -9.188157 141.402237
4.039975 -13.676746 133.536438
1.996055 10.301358 125.713020
0.738955 -13.237502 128.182343
-2.566318 0.070999 154.136765
-8.739871 3.962704 115.402748
11.233794 10.091238 150.054550
12.227526 11.405535 146.223770
-3.055833 13.586180 141.322983
-0.990081 -11.326474 123.759880
13.119057 -4.449937 113.186035
8.901640 -13.287567 132.604172
-13.851363 4.948444 127.737053
9.940879 4.331621 111.205826
-5.948060 13.071486 138.434311
6.851649 -10.171094 111.215302
-3.706895 -12.277045 119.961136
6.632854 8.306255 125.410133
-13.584021 -5.938671 129.087494
-7.831645 11.919463 137.067734
-6.967638 -9.360266 141.049316
9.359792 9.549295 132.865860
12.550138 -8.688289 128.442093
-9.713002 -13.430472 134.403214
11.511561 1.826247 120.163544
-11.369903 -7.898295 126.015541
2.896642 -12.197668 136.489975
-12.474586 1.425946 150.322708
9.618265 -8.994938 140.349228
-13.402607 10.204391 145.319122
-13.907517 -8.100711 134.099106
11.001875 4.329521 111.841240
-11.983878 -12.934911 132.766037
-9.724939 9.660887 150.102997
1.903841 -13.046960 130.856873
-2.986979 -4.972926 146.450470
-9.808584 5.084009 152.399246
-7.290390 -11.089544 125.738777
-12.962188 0.636319 114.880798
-13.185250 -7.060550 128.317322
12.134601 9.075789 134.326065
12.498218 5.021951 127.604919
-7.947299 12.185896 135.720535
10.347714 -13.544565 131.871460
6.168424 10.743751 149.446396
-16.557697 4.591682 135.495071
-4.572406 9.243043 149.758179
9.817292 4.579974 112.537003
11.884156 -2.249311 145.677994
0.086204 6.095541 122.679596
14.879422 9.255926 135.088654
-8.454061 8.381201 129.411774
-11.927997 -5.092282 120.300125
-16.495546 11.243083 140.855209
6.240730 -12.506365 126.708733
8.063845 -12.268955 130.294525
-13.523219 -2.236295 145.162979
-12.220119 -11.648181 135.431778
-4.588605 -13.303288 135.428497
-12.726029 -2.019179 115.290359
16.383436 0.740291 136.967194
-13.572131 -7.036349 130.239548
13.128411 -7.577455 124.300247
11.093537 1.413741 149.992081
7.349133 6.303610 110.590836
11.899465 -5.649536 114.800491
-1.773979 12.237455 136.227493
10.036129 -12.443498 130.586395
-12.972250 -5.550403 129.787827
1.499572 -12.920933 133.872101
10.601782 6.529549 129.136368
-16.546995 -0.652168 147.709625
-6.770463 5.949259 153.481155
-3.930015 6.722164 121.728355
-7.739611 -11.996264 136.747360
-13.534745 -2.644228 146.753326
-1.132009 12.654233 145.137009
-10.459121 -8.445127 110.526566
12.022276 -0.922375 121.703850
2.854118 12.734231 139.310669
3.612562 12.730809 138.733093
10.211518 3.154539 115.423569
-0.081123 13.323480 139.940079
6.736048 4.538107 110.657295
-10.969737 12.805894 139.996506
-13.315808 5.974103 132.407806
5.546836 -10.772103 118.630592
-7.355893 -10.770751 123.925186
-15.236589 -3.587668 135.987518
5.499170 6.467093 114.041168
-12.010648 6.578116 111.393814
12.656518 -5.343531 127.402367
-12.551997 -5.975277 118.654640
-10.772705 -11.223750 135.765411
14.359327 -2.843152 112.213715
-6.643192 7.741696 124.246620
-10.267833 -8.620686 116.231689
15.160089 8.745946 138.498856
11.336118 0.538112 118.888474
-9.116822 11.430846 136.955215
15.082253 0.296937 127.756180
-1.739604 11.755971 131.301376
-3.041793 -12.915676 130.243256
12.356907 -7.064400 119.136528
3.698227 5.925862 117.035439
-8.783114 10.207046 133.307449
12.625104 -10.439663 129.852066
-12.738297 0.269247 109.081467
-15.072353 -3.343128 129.805008
-8.418972 -13.874083 134.261917
5.154714 10.761729 132.362915
12.088163 5.471488 151.986893
5.149140 5.548259 108.462898
-10.740074 -9.556116 126.031219
5.556165 11.191148 148.821182
11.375099 2.524095 106.388359
12.684703 -4.199007 143.611801
11.482554 -9.162798 127.073830
-14.638247 -8.951674 132.539551
-2.805293 11.569130 138.389069
4.248694 4.877451 119.369316
1.216199 -13.378735 127.268295
14.329013 7.501427 150.834167
-7.519681 8.587060 125.781456
1.784695 7.568562 125.102867
13.872343 -5.379305 129.750702
-12.260496 -5.876771 121.093971
-1.815863 12.796599 138.601486
3.037342 -12.076166 137.954742
-3.171214 11.423384 128.927719
-13.879313 -0.623388 127.626671
-6.464216 6.261199 122.310287
-14.306817 -7.204780 137.264984
-13.334507 -5.382079 112.160034
-14.734515 9.549558 140.638504
-4.362412 -10.796799 139.046265
-5.298775 -6.704858 144.512466
-1.054793 -13.575648 128.902496
7.175932 6.480626 110.943512
-14.838005 -9.310853 133.303528
12.259874 -9.131968 138.337265
-1.848339 10.443846 151.282898
-6.796636 -6.872085 141.622116
9.502973 -10.875445 110.983879
10.567993 -14.919822 132.740570
-11.618389 3.328830 122.820572
6.787117 1.209180 150.333557
-2.501430 -11.706553 124.879280
13.512544 -4.702333 122.330101
9.757424 4.139369 121.924133
0.319659 9.868306 152.436050
10.817193 0.841015 115.254364
-7.118387 4.903325 122.325584
0.796911 -11.331776 119.171265
-8.712215 -10.334092 123.650429
-11.137666 11.632605 139.428421
-1.630553 -12.155540 135.396530
5.132586 -11.905375 126.838303
12.565508 1.064407 108.326111
5.469500 -7.236903 145.804352
-15.540732 9.738854 138.507904
-10.197239 -1.892659 146.258087
-15.704270 10.388461 145.732483
14.692132 -1.898327 134.667923
-15.284822 -0.398672 129.941299
13.012066 0.144397 147.113098
-14.243756 -10.346045 131.351837
13.539324 1.325808 123.716370
-7.948000 8.024744 150.734131
-10.665773 8.000504 131.245758
12.432771 7.810019 132.867737
-6.314834 8.243110 151.729340
14.914848 -7.952361 135.563538
0.967959 11.338717 150.521210
-0.987000 12.623357 141.449432
-5.970507 -13.942711 134.409821
1.563870 -12.841836 110.299271
16.363583 3.197721 150.349533
13.639943 -1.710976 115.011803
5.956626 8.317323 126.207802
-3.385530 -12.467298 125.203178
15.536398 -2.638565 132.287903
-14.382802 -7.582345 131.066757
12.316189 -1.472896 147.098938
5.031501 12.290777 136.740295
-8.964640 12.070974 137.155350
-14.538332 -7.607675 132.229401
-0.280833 -12.238194 112.568336
-4.984536 11.074663 148.368073
2.432529 -12.219358 110.983521
7.896466 3.753058 120.336761
15.921796 0.426827 132.727936
13.656454 8.770109 150.374008
16.411327 7.154568 149.943497
12.879020 1.022570 124.820938
-11.775412 7.085176 129.356995
10.213893 -8.034790 114.371033
-3.626299 -9.991449 111.828903
8.246271 -9.236129 139.525360
-7.193274 4.706098 115.098907
-13.660941 8.993429 136.250153
14.386742 4.401099 131.700592
0.424083 6.234034 113.583611
8.050941 3.710628 115.101486
11.451524 4.753715 109.724525
5.183938 8.762144 152.618683
-9.465435 5.354420 125.111954
-9.758283 -0.327873 148.776657
-13.776180 12.055875 144.130569
-1.018433 -10.776055 126.669922
-3.459773 4.735687 114.468086
-2.850704 -12.293329 109.121056
-13.403597 -10.976790 130.450134
-4.914132 -1.135479 150.049026
1.897565 -13.426266 134.637390
15.965508 -6.671210 134.417419
5.344223 4.592698 119.161972
-12.515239 2.945738 124.087433
-9.817390 -11.998235 136.954117
-12.409940 5.031268 128.620544
-9.661488 5.984098 125.666634
1.705179 6.224682 116.133301
6.072404 1.114997 152.085800
-10.632807 8.111966 129.698761
-9.635820 2.377356 120.009674
-14.943652 9.158010 136.417297
-14.991896 -3.270307 129.235367
-13.603716 8.903893 134.531189
-10.784422 -4.365580 144.477905
11.698402 1.831303 149.927124
-9.709714 8.396591 131.451126
14.576880 -1.998706 111.209114
-1.211457 -11.526502 119.932259
5.713020 11.087934 149.350800
1.165954 11.899878 126.756439
8.446301 -3.046600 145.400452
-6.146894 7.615684 126.903084
-15.950140 1.232739 108.340645
-13.896119 -6.231824 127.907791
14.363416 2.067775 131.794891
-9.412621 1.388126 150.432053
-0.619597 -12.536026 113.064232
-4.511825 7.307693 123.992401
14.849811 10.637704 141.575958
-7.030284 5.225420 112.610825
7.765515 -2.794294 148.047363
12.749898 -5.917927 127.295174
-16.104568 10.099049 140.326126
-11.998724 -12.064136 132.375290
-15.071589 -4.304102 140.361526
-1.537474 -6.317032 145.722397
9.850904 2.133442 120.757690
11.917324 -2.463386 145.630280
-11.729789 8.089203 151.035660
9.541871 4.688364 121.032082
14.979689 -5.630027 132.046539
-13.854071 -3.571670 133.092453
-12.369368 6.197008 152.741714
5.788112 -14.499390 132.407410
-10.661530 -10.148298 128.496109
-15.020585 1.710712 130.811890
-13.932437 -4.938996 137.530014
6.190641 10.675391 132.285721
12.163573 3.105256 112.569672
-14.719635 -2.211994 131.411545
-7.599426 4.904588 112.864792
-12.807335 -11.591547 129.878876
5.159611 5.091477 116.006035
1.968356 -12.444071 130.890671
-13.633120 10.365084 141.503113
1.610656 11.678644 146.264664
-9.936872 4.264436 120.670937
8.199352 -8.045271 143.039902
0.588385 5.142182 111.477386
6.232748 3.145313 153.194519
-7.037114 -12.275960 111.872116
-3.136094 9.740705 127.642685
11.852362 -8.059520 140.452469
-3.937248 6.703844 122.389130
13.846650 -7.754261 136.855911
-14.249995 9.560096 140.206848
13.550831 6.520220 151.796341
4.522405 -12.787473 119.445381
11.011679 4.461096 124.424713
-5.210187 5.313125 112.853790
2.213844 -11.434767 107.933693
-9.748220 5.693913 123.220856
-11.460132 8.296876 130.242874
-1.345585 9.720136 124.977798
10.927828 -13.428430 131.371231
10.624943 -9.668856 125.426033
6.988271 11.891809 150.152542
15.752940 2.625113 133.806519
-12.077938 10.016672 149.194473
15.555209 -0.452465 135.202942
11.825644 -2.569407 118.416222
-2.327641 -11.623408 136.417496
13.064892 1.395535 123.202713
9.233823 12.028368 134.206680
12.931642 -7.271816 110.851341
14.543777 -2.611167 145.966339
-9.174157 12.091946 139.096649
-4.868385 -3.356228 149.232880
15.639450 -6.074834 133.216766
-10.639344 -13.177921 129.356842
12.914625 -6.486667 118.801872
-6.012831 -3.840023 145.452225
-8.275636 10.104816 150.328506
6.947046 -7.078907 143.024414
-15.248946 3.496482 151.854446
-8.307332 10.540942 135.065094
4.878675 -12.277747 123.889847
-1.036161 7.079515 122.352966
4.367635 5.894288 119.882431
-4.006481 -7.111383 142.190765
12.299499 -11.093142 129.815613
-0.828622 8.007260 155.647232
-14.674214 -6.025414 142.661392
-4.655280 -3.085562 148.416092
-11.385658 0.066062 147.633804
0.194570 -11.537900 120.666138
7.726290 -13.808921 133.409363
-4.686625 -2.982904 147.826065
-9.549477 8.180089 130.768463
1.361625 7.815462 122.468796
-3.611521 -1.213848 150.966873
4.741614 10.143044 128.781845
-0.853435 11.964081 143.739746
-1.101351 7.187325 111.412270
-0.927563 5.109167 114.574959
-4.691290 -10.883876 119.366608
-8.197110 -12.170711 137.377121
-1.444740 -12.243093 111.886559
-13.077139 11.134189 138.057098
2.974344 -9.449172 147.851822
-15.094549 -3.336688 129.486649
-15.250737 10.543746 146.591888
7.252261 -10.068851 111.512787
-11.760446 0.279610 149.937378
1.077922 -11.656466 140.234665
15.723619 -6.243876 141.145599
8.318282 12.730780 142.994461
-14.808869 3.026042 135.607224
-7.037426 -6.455616 143.158707
-4.465914 -12.441730 125.599586
-12.691810 1.904313 120.480888
12.188442 6.071473 151.513504
-3.273731 7.761188 109.988350
-5.673264 9.332818 126.517105
-6.417409 -12.433021 137.977982
-9.997042 -0.885974 146.364471
7.902084 8.593784 129.175903
11.797227 -6.314812 123.262474
0.715289 -12.828237 133.818573
7.611289 -11.411242 127.070869
9.216405 -10.663302 111.720360
8.803455 -14.518552 131.461151
-10.487008 -8.694321 139.480042
-13.650230 -4.446518 129.756302
-11.303290 0.962608 121.989822
-15.067055 9.864239 142.702148
-1.497433 10.506701 152.408081
3.892673 11.756095 145.966583
-5.436514 11.884049 133.281265
12.991488 -9.111083 125.723602
-2.487766 -12.382786 111.015488
9.499695 -10.449262 139.457001
1.133078 11.782353 142.488617
3.113389 -12.657290 137.840469
13.610886 6.007259 151.006683
9.785759 11.101122 147.620621
-4.975820 -11.169250 111.039581
2.392897 -11.106670 118.098412
11.408051 -8.492576 118.825096
2.091704 6.816250 124.701408
-12.768194 8.938343 135.009277
-8.992729 9.865534 151.011612
-6.010069 -9.262695 138.914230
13.273110 11.301604 148.156235
-10.118584 -9.605973 119.921227
6.953709 8.485727 151.819305
-15.008759 -5.441530 133.295670
-8.208129 -12.308047 134.525604
-12.611921 2.057220 124.775673
-2.498569 13.024332 137.380692
-6.974421 7.293868 121.082901
-7.583992 3.209216 109.310173
-5.882690 -10.891505 119.565392
8.890115 12.432728 140.616074
12.761989 -7.799963 109.168831
-0.999499 12.103722 146.039291
-15.974899 -2.056250 147.265533
5.412958 -11.559319 138.793106
13.058946 5.867061 108.956360
15.478913 -6.293800 134.723389
-14.255850 -9.553211 132.335281
4.949787 12.117443 137.836594
-8.726451 4.027370 117.903091
-10.227389 -0.647285 148.963486
-14.368697 -3.701571 139.721329
5.798090 5.879420 119.078606
-6.249770 13.183992 143.656158
0.676919 9.872742 151.062439
13.239480 -3.295349 110.531578
-2.954261 8.270574 125.041679
-2.784879 -4.194298 149.819824
6.443819 -12.350948 135.401062
7.573639 11.090946 131.848907
4.119056 -14.186327 133.045563
1.428901 10.680741 130.016525
-7.378767 4.635792 120.125755
10.797828 -3.794178 145.739166
-2.773491 13.482011 141.582214
4.540431 -1.830426 147.475052
-5.312452 -13.072325 130.641510
-2.530118 -6.445281 145.473343
3.600901 -13.480498 127.128532
6.625236 10.784999 132.990219
11.656520 6.518380 125.739525
11.325770 11.509188 137.978104
11.916029 -11.630864 130.334183
-10.577644 -8.552274 110.858116
-12.022552 7.978400 149.302032
-9.133643 -4.554235 145.580765
-4.148374 12.513712 144.773972
-14.224724 -10.744249 132.876022
-13.970900 -0.717591 112.042747
-5.751710 -11.495792 136.703766
6.469102 4.781700 115.353729
-11.960899 2.923201 152.390762
-14.773093 11.627378 139.252884
17.501625 8.160753 150.397141
-1.588222 6.995477 110.896973
-6.790092 -5.166629 143.787292
-14.383201 -9.638273 129.201660
-8.089174 12.809879 140.650223
-6.463927 -11.447650 137.128036
-14.757593 8.708383 136.853745
-13.886623 -4.585154 128.606949
3.275190 7.451367 157.908218
-13.738664 -0.471205 110.974281
6.508524 -12.003298 125.108101
0.046724 9.135613 153.374207
-5.304155 7.707757 108.712708
-3.159816 -13.797438 132.561569
14.859601 -8.494299 135.685196
-9.871363 -9.426791 115.039116
-13.921383 -4.639122 125.480507
14.035091 4.021428 151.848099
-12.007701 11.735107 141.112747
11.063323 -10.505475 136.411667
8.788664 -1.932683 146.516647
9.178624 -3.178161 145.636520
10.011127 5.755860 110.760941
-9.849943 -9.357069 113.508636
13.220600 -4.175471 124.769218
9.290578 -11.636813 113.539925
3.940131 10.593328 128.100632
8.002377 -10.242353 115.808685
8.156540 12.211734 148.356964
9.252339 4.325225 155.109283
14.216751 -5.717589 137.914948
-7.644294 -8.757357 141.254715
-14.679386 -8.812658 136.552002
-5.384823 8.543314 125.897209
-7.077779 -12.758512 134.429703
-1.067001 7.132569 108.194077
-0.386318 -11.434490 127.802979
-9.631604 10.841133 136.107635
7.021976 5.661761 120.272781
1.953543 8.467278 122.962502
1.048383 4.967083 115.176010
-8.589272 3.312302 118.517387
13.899556 10.823385 142.702087
11.891225 4.999250 127.407173
-11.113071 2.252228 151.543121
7.120075 8.596283 154.022568
8.778873 6.207840 152.656235
9.761669 11.240827 144.551331
15.297024 -3.841568 133.816772
9.943042 11.840606 139.448868
5.095449 10.770957 127.672585
-8.604691 -6.780436 142.449768
8.014173 12.667054 138.865936
16.729361 -2.078076 133.539139
0.898204 -13.304396 126.543510
-10.938729 -8.765840 114.047333
-15.415068 10.220031 143.954666
-8.890454 6.093603 153.889526
1.774554 12.613812 139.916595
-8.150030 -11.932975 113.607697
12.648617 12.076560 139.734451
-11.536756 10.205080 138.623932
5.238134 -10.206347 141.613739
-11.404716 10.340268 141.793884
7.346078 4.373456 112.767403
-8.474089 12.786627 144.727692
-16.791679 6.871552 150.164520
-3.062119 -13.700894 129.372467
-10.564893 -7.007670 140.755234
10.913924 -6.078675 143.881195
-0.974105 10.644832 128.225296
-7.104312 4.889699 118.839661
6.380889 5.115576 117.577232
-9.887023 0.591531 119.281509
13.991817 0.401414 126.836487
12.968443 -9.447374 124.040382
-13.032018 7.383405 128.734161
-10.077223 11.485854 147.960648
-10.378127 -2.461172 146.832611
-7.513205 4.092119 118.816071
-1.758186 12.354047 137.806793
-10.102142 4.209868 126.203926
12.264751 2.189494 120.164711
13.777167 -6.321902 131.581009
-11.888546 -7.838559 121.042557
0.346539 12.486303 138.108414
-9.694343 5.475623 125.141373
-10.555677 -10.262981 138.213882
-11.675937 0.763545 148.083084
-12.794438 4.614307 128.555008
-4.169490 -6.430698 145.449310
1.633173 11.354420 127.491066
8.973435 11.016611 149.132858
4.297025 12.576628 141.021530
-15.695063 6.590886 150.359985
-12.346562 -4.226936 115.507896
11.745941 -4.736947 144.918655
-1.746909 11.716652 135.116898
-12.741101 1.431935 130.712952
-13.759043 -1.243500 111.019302
-12.500820 1.915342 113.287842
-16.312515 4.562629 137.415512
-7.514071 3.725168 116.183693
-3.737684 4.841979 114.750725
-12.046057 1.879714 107.619743
7.012916 4.939116 119.371887
12.720307 -12.927557 133.586563
-11.889759 2.875283 113.630074
14.040716 -5.820531 137.915359
-12.192503 -5.020845 120.824905
9.572768 3.450903 122.334305
-10.648210 9.888227 133.442551
12.127180 4.207123 128.550659
-16.761995 -0.875882 133.309357
9.254792 5.780772 153.654572
2.044123 5.813892 108.758667
12.667761 -0.582458 113.315849
10.068584 3.443197 115.471771
8.964861 8.847533 126.080994
-7.467157 6.497316 125.560532
-16.311169 0.398805 131.349731
-5.206559 10.380078 130.600327
-7.642434 10.198780 150.105911
-1.009594 -12.434492 121.471710
12.467653 -10.844345 131.528427
-12.543354 -9.976459 137.450851
15.403956 -3.249628 140.130768
-10.060994 3.091016 152.908173
-9.864265 11.340573 140.854065
-1.371859 11.114867 129.347763
12.440600 10.071939 146.306320
-6.376665 2.843432 151.578659
-13.727812 -2.683167 147.067001
-13.148286 7.165352 130.376083
12.079550 -1.647176 147.239807
-12.283520 -12.274876 134.989059
6.858308 -9.489659 139.591492
-8.896729 5.639629 110.360069
11.119862 -10.228198 110.475166
-1.898880 7.478790 125.008583
-6.131233 5.827198 122.693001
10.600434 -3.001685 145.219147
-6.826475 6.495818 153.350067
5.490902 3.584067 153.837036
6.271096 11.740812 134.298996
17.622068 -2.355749 146.930222
13.187483 -10.639801 133.970947
-5.388981 -11.816645 126.714333
5.255152 -11.986106 111.118500
-6.222229 -13.181949 128.817581
12.754808 1.357132 129.134079
13.659099 -2.683788 146.294846
15.714326 -3.785446 146.638840
14.849379 -5.234473 141.857269
-1.814040 -13.039461 119.657036
12.933002 -3.687300 123.199860
7.851156 6.842988 124.970078
1.334879 -14.049871 131.880402
-7.761006 8.623963 129.611237
15.818109 -5.207571 143.266907
-6.209762 8.099040 153.872162
12.070942 -4.319700 115.799400
10.067811 -11.628461 127.458611
-13.384266 -2.650555 125.630577
-1.541292 -10.232501 137.210602
6.541586 5.518165 119.935165
12.639160 2.703194 108.829727
4.078689 11.383097 127.175705
1.936432 11.006798 151.263077
-10.341952 -12.347368 136.510422
15.531606 5.854194 135.004257
7.171522 10.222689 129.439896
11.932814 -12.526133 135.168640
13.521667 7.065711 129.937347
4.318208 -5.900225 144.908600
-4.661685 11.076495 149.351089
12.721540 -4.303081 127.866470
0.844148 13.067780 140.254227
-15.954365 -7.198613 140.874542
-8.546843 4.353474 114.537560
-2.359731 -1.558172 148.439377
-7.103127 11.766542 141.789062
-14.791849 8.287555 136.581680
6.521150 6.259330 122.418015
-8.672675 -0.535270 149.934830
-10.266055 5.179447 125.313484
-2.232274 12.470097 132.094849
13.028041 -1.940526 126.465332
6.971370 -13.804835 129.431152
-3.740494 -12.197475 112.333107
16.631172 4.897885 150.869995
11.384377 6.247749 124.908157
-6.002905 6.988563 123.600342
8.386909 6.237222 153.103058
-2.144780 10.648620 126.725822
12.349853 2.998323 108.447411
13.493812 -4.717722 110.731750
0.940449 10.730535 127.014618
-14.944742 4.853729 152.612762
9.016636 -1.686017 146.459442
6.958194 -8.784699 140.868835
-14.579332 4.604953 132.412415
-3.375246 -5.997219 147.850998
14.266757 10.841488 145.623566
-6.205797 7.145068 151.905975
-14.067024 -10.568317 130.869308
-11.468948 -1.720029 115.061165
13.581593 3.179931 130.477921
-3.922374 11.774043 133.081070
4.554217 6.008483 114.067482
13.784301 7.111179 136.338257
-13.800369 -9.989487 134.635284
14.393143 -6.229763 140.521149
10.142871 -3.280047 145.851929
-0.093628 8.623583 126.030182
13.472292 2.808737 130.109894
12.255822 -2.155266 120.569420
-8.396216 -10.816785 112.656715
-8.354689 -13.862046 137.190292
-8.080361 -6.438153 144.167603
-7.321001 3.383338 152.107651
-17.171303 4.516967 150.887756
-3.506189 -13.190142 136.090561
11.323770 9.485380 150.529648
-7.688717 -9.304955 139.142609
-3.506021 -13.134124 129.364197
-17.091002 0.947740 132.145920
10.140745 -12.080483 136.865723
-3.942018 10.464931 148.191193
16.127825 8.193678 150.313324
12.349772 6.232291 128.497101
1.398691 7.692649 121.863388
-1.568251 -13.406131 132.519852
-16.104284 5.898419 137.074097
-4.501181 -11.486244 115.121063
14.740080 -8.318316 129.332855
7.506209 -12.420028 127.509644
2.375464 10.764641 127.570351
11.775380 -10.308480 109.795212
6.099473 -14.885954 133.603012
8.023915 -10.634679 138.858307
-10.821440 -9.258251 109.098618
3.186099 7.362955 118.385422
11.155381 0.366413 123.833298
10.644189 1.145669 120.452263
-13.395292 -8.900496 137.193466
-4.106535 -0.982376 149.955063
9.345489 -0.178546 149.981155
0.917285 10.740353 126.819687
-1.077568 11.848141 148.411255
11.187289 8.262553 129.622742
-12.432001 -5.978407 125.786888
0.940343 6.844383 121.761803
-15.845513 4.402828 132.402527
-14.005320 -5.560498 125.570419
1.047144 5.577873 118.433174
-12.476128 1.715680 114.123657
15.098801 -6.255785 130.952881
-15.275946 -1.990878 131.531204
4.874317 12.351700 136.261444
6.634039 4.920057 118.847931
13.473404 -10.548438 136.689148
-1.122899 12.896764 139.803024
-5.839107 12.918919 143.486511
-7.449729 5.747066 114.922363
-5.957652 9.560995 150.581482
7.054970 11.981291 134.789658
12.602167 5.414195 127.010094
15.636526 -1.893774 146.696243
9.469059 -11.576682 126.762054
-15.290660 -3.616754 137.171341
11.076448 2.685396 114.932442
-4.976065 10.227262 125.559166
2.354286 -13.015260 124.815369
-0.702398 -13.372615 132.714325
1.496552 -12.515163 133.114899
12.799735 -4.454695 145.045135
13.359197 -8.080970 137.428741
-15.933223 4.285201 133.174698
-13.456877 1.009833 111.294846
8.383256 12.987734 143.754120
-9.369653 5.664867 124.207161
-5.261532 9.112566 128.729599
-1.127643 10.124984 152.442902
6.582331 9.887966 125.380188
2.303882 8.286641 121.807121
-6.797089 4.944363 112.579208
-13.350903 1.273093 126.809967
9.817047 -11.845264 134.548599
15.276587 -0.513891 133.116089
-5.994174 9.494252 153.551941
-2.609279 12.880683 139.468140
-15.839717 -0.776245 147.417374
9.437469 -6.976148 141.570740
-9.272143 -11.259264 112.547791
10.921216 12.903309 138.792267
15.850325 3.851099 134.544617
-3.365243 -14.361262 133.198013
12.426455 0.472196 114.658195
-13.352884 -8.252402 127.052620
-3.302373 6.043764 121.811996
7.635533 -13.272745 136.350189
14.702014 1.163782 129.957672
15.654198 -1.277023 125.707901
6.805585 -13.245188 129.561768
-5.489339 6.021201 119.130241
-13.081389 -8.529347 129.528351
-10.698991 2.650846 118.735191
11.567121 -3.048367 116.516426
-6.593301 13.329594 137.435043
8.271955 11.449518 136.144394
-14.675241 -3.525915 139.568848
-16.544710 8.302429 151.520050
14.801030 -7.925980 130.638535
-10.798668 3.964532 111.027000
3.711071 -9.366596 142.016510
-12.064836 -0.677819 120.477287
-12.680853 -0.863146 119.870338
4.786593 -13.526319 128.226379
-8.738015 -12.513671 110.415703
6.480484 -10.558100 139.100494
3.482562 -10.573987 141.449432
-3.511329 11.915234 142.674026
-12.467385 -13.011166 130.941895
-17.333311 8.175771 148.927353
-13.940012 -4.794879 124.912102
-4.898404 9.768069 150.129272
-14.545490 0.794635 129.019730
10.526328 12.743844 144.584686
-12.701980 6.963812 151.823135
5.490404 -11.733971 141.026825
-0.405290 8.765965 108.258812
14.109770 -0.582578 149.172989
-6.633568 11.580926 148.090652
-11.666689 -7.795699 125.782066
-13.777548 -1.666097 124.940025
14.791960 1.447437 138.129730
-4.000352 11.620676 133.284225
7.154333 8.259909 123.498146
2.190562 -12.439755 136.377502
-6.074697 4.683007 112.431953
-9.342336 4.849272 122.119080
-0.376540 -12.499567 130.033875
9.583076 3.552344 151.391739
14.733858 -0.348122 129.472412
-5.596407 12.276389 135.966202
15.998054 7.243156 136.370438
-12.297805 -0.834910 117.521378
-0.694715 -11.154262 118.602837
-2.385777 11.090008 147.290787
2.362781 6.582733 111.850868
15.875336 -0.988408 134.709412
14.390409 -6.743774 141.429413
12.227871 11.154096 145.185089
15.086071 2.565620 132.258926
-8.190298 12.426590 138.852127
2.551170 -3.444854 148.746124
-2.686182 -9.258583 140.993988
12.942043 -6.265501 118.426056
12.438014 -9.222624 139.209854
12.851874 -4.336303 124.145844
3.897409 -11.761034 112.507111
-11.098184 -8.622862 140.229568
-13.492484 4.148039 111.059311
-10.500750 -9.794977 110.827789
-11.027577 11.391195 138.675201
5.243625 5.156870 115.539467
-9.006437 -5.100748 143.886963
-11.062413 -12.713165 129.104538
-1.343761 10.451950 126.953331
10.469767 1.735863 151.555374
8.659336 -11.147196 128.170731
-6.561430 -7.619629 143.849655
7.290291 -9.749840 113.860481
5.090273 -8.825750 143.250504
-13.264152 -6.726978 141.695435
6.718836 12.281349 146.436371
-12.323005 -7.708517 118.335487
-7.380033 13.116035 138.422394
13.674454 8.745628 135.138077
0.674755 -12.293315 122.619263
-12.312077 -10.328961 109.553429
-4.272799 5.336936 112.786713
8.637677 3.159339 114.165466
-13.165342 -3.355897 112.025719
-8.657727 0.066977 149.266983
8.881062 7.627004 150.491364
13.981881 -3.242670 128.338425
2.940489 8.063918 108.644402
-1.623978 -11.451778 117.533859
-5.100880 12.925050 146.481476
-6.608779 13.182899 137.825546
7.831822 -2.985875 145.615936
0.373546 5.188487 115.341599
7.422152 -11.000965 124.280342
11.724827 -11.689612 136.343292
-13.331775 -2.644311 145.529312
16.271841 -0.578784 147.895340
-10.003134 6.624898 129.328400
-5.111015 -12.504885 136.994537
6.109698 6.178779 121.408661
13.321816 -1.909813 123.559975
8.134841 -5.870867 143.991501
13.939359 -1.813537 148.812378
14.179168 6.650132 150.209137
14.257795 9.607121 147.417587
-8.691102 11.785863 148.306885
4.738287 11.174752 135.542282
2.282844 8.468472 151.375565
-1.756647 -13.127376 127.659958
4.122478 -5.793417 147.749771
-11.084325 -3.069787 144.776382
-2.657066 -12.143496 129.369476
10.516399 6.630997 125.498131
-10.277716 -8.524385 115.552246
-7.573359 10.842251 149.915283
-1.268937 -10.661342 133.702377
-15.001355 -4.049576 132.426147
9.175079 -0.506663 148.003128
-0.875708 11.150756 144.531174
12.437886 5.192278 151.819824
10.550955 6.399106 126.236221
-12.224008 0.377869 114.521881
4.643357 -4.406575 148.723938
-2.341595 9.056314 150.832245
5.876579 -12.654425 126.310669
-12.073757 -7.831708 128.132339
-10.072433 -13.665197 133.844345
5.706780 6.054436 110.572929
14.009192 9.898192 136.788910
-1.741562 -10.486421 138.715652
-7.947968 7.352342 125.657951
7.303688 8.667719 127.048553
-13.735620 8.780371 134.102570
-7.106792 12.168758 135.110703
16.413889 10.402850 144.614548
-12.778946 -5.852052 143.027344
0.114352 -12.207625 124.143890
-0.429404 12.507919 127.049881
-10.624948 0.676799 151.045517
13.322051 5.624468 131.428375
-5.246830 12.639407 144.027222
-8.517778 12.706462 140.802322
-5.961955 -8.369828 142.470795
11.741020 -9.926634 128.597137
11.935068 -6.631834 118.609756
0.457060 -10.599999 122.817360
11.124635 2.926115 126.095261
-6.941689 -11.131895 120.735428
4.634030 10.583841 136.887100
-17.845516 4.073118 133.705383
14.876904 -6.168362 140.713623
15.372585 -1.727447 131.760880
-16.291637 -3.750593 143.663986
8.664171 6.739887 110.094131
0.861485 12.187182 136.810394
-0.551878 12.171394 143.408051
-11.800544 -0.539511 114.937126
-6.358010 -9.628463 138.882263
-10.112212 -8.217773 123.446999
-4.394067 -9.299408 142.890930
-0.033056 -12.609026 130.517914
-9.088998 -13.877530 132.666702
0.844532 11.319552 145.204819
-9.886681 -4.240675 144.316574
0.360169 -10.902982 125.682930
15.687293 5.334335 135.354080
0.789007 -12.381508 133.295105
9.073000 2.985995 113.315964
11.019908 -3.403052 143.611099
1.985454 -1.822314 151.051117
-5.781722 12.210158 147.689697
4.093773 -1.840944 148.732040
8.056822 -7.778399 140.529297
-10.979815 -7.374168 113.499657
-6.492881 7.164230 124.574547
-0.140380 -13.403765 125.708626
1.335514 -12.707237 136.113297
-7.927386 9.214664 127.375824
9.615427 12.398792 138.860504
6.248677 -10.662616 119.316284
-10.266646 -9.307216 118.233856
-1.947504 6.441693 117.586166
-11.062502 -9.629149 111.102432
-10.672239 -9.927787 136.718384
-5.951262 -14.038189 136.804932
-7.283970 5.210401 119.372948
-0.345667 -11.881381 111.458420
2.942777 11.437606 149.056854
-13.885777 -9.909228 131.670074
-2.216689 8.993308 126.462212
10.104044 3.481989 121.137215
-13.141677 -7.051330 122.891937
13.443476 -3.186273 145.352570
15.421742 6.455637 137.849182
14.538108 -6.757831 133.846283
11.969248 -6.842309 112.199631
-15.466418 7.015429 137.774628
-11.824585 6.576143 126.821930
-12.653390 -4.302148 129.523453
-6.399168 -4.394070 146.025055
7.978102 -5.543568 145.083420
11.719826 2.128839 118.417686
-10.030375 11.303349 146.804230
4.478717 12.116213 143.264999
3.479683 -12.825476 134.929749
11.987024 -5.051985 123.188774
-13.203479 4.784641 126.862259
11.845918 -1.531822 147.864029
-9.574783 6.979053 154.271591
12.243232 10.110075 148.837051
-9.964473 -9.302259 120.481384
5.262989 -12.410938 121.483521
-11.656268 10.095710 133.944748
-2.190576 11.851894 133.900726
-6.731982 -11.175708 139.386154
8.852331 -13.352513 131.049011
-9.626342 5.645863 109.652802
8.078962 4.830395 114.414032
-15.360256 3.285541 135.331207
5.782154 -13.590882 132.630173
12.043255 -6.596118 120.842010
8.616624 3.054736 116.610443
13.970236 -0.564922 137.787140
8.417222 7.337795 151.050018
-13.473715 1.369163 137.484024
-13.943216 -0.512069 129.275726
12.903234 6.876102 151.542908
9.782305 -10.032079 123.160408
11.146674 -6.121634 141.790680
-12.847838 4.787817 126.779655
5.596110 5.306241 118.195984
13.113447 -6.846001 129.688782
12.089712 -5.518897 117.461502
5.818719 -13.605894 130.659164
-13.339775 -4.241673 110.478317
