ply
format ascii 1.0
element vertex 2048
property float x
property float y
property float z
end_header
-16.963837 11.160777 142.048737
-5.291412 9.309021 126.306343
12.398520 -7.419101 111.308067
15.216551 0.186703 148.850952
15.586765 4.474376 58.836739
-15.440055 -8.210308 131.993713
12.177978 -0.095754 120.879631
-4.665723 -10.217896 88.464493
-9.581256 12.907412 141.169769
23.982412 2.771629 139.175262
-15.751865 -7.199694 95.043053
10.287101 3.909324 117.563156
-15.967104 -4.001482 147.359360
19.126707 2.762073 61.318718
-5.995829 -12.004585 126.341690
9.891323 9.167011 70.987099
-13.443733 9.560180 61.292274
11.504354 -3.009170 142.187958
14.061710 8.606483 58.891262
-16.497234 -1.459101 102.833221
15.928443 10.935015 149.314316
-10.405785 -8.599910 65.391861
-13.521914 0.779385 149.088104
14.133070 -4.842071 119.028648
14.785210 3.298859 106.536774
4.768451 -10.454722 105.302849
-18.658758 1.684121 65.685829
6.227351 -13.388810 128.983673
-9.436438 7.491963 151.993790
10.267034 9.083689 65.156952
4.529586 -9.578013 104.348557
-11.935463 -9.981645 127.453613
6.319361 11.060913 145.280945
19.343517 1.009208 86.795715
-12.544151 -0.462068 126.343056
-9.947378 -10.586059 80.563293
20.395769 -5.189065 83.570137
-1.635487 7.957132 152.910690
7.776307 -11.135542 107.000359
9.579550 10.835732 81.393951
13.398947 -3.750272 128.162552
-17.256668 -0.984045 92.778709
-9.969661 11.906214 134.883118
-13.021461 -12.359389 82.712509
-18.592449 3.722727 94.822723
0.833176 8.800105 125.166794
14.114009 -2.937229 122.661797
-20.857561 -2.866745 142.131821
14.889309 8.656796 75.365479
-19.885675 5.296696 77.031120
7.183300 9.684312 83.028931
-18.439964 1.879188 137.474518
-17.439978 8.483905 83.253197
16.589952 -5.837579 98.944061
-14.270236 -8.278097 71.882790
-1.235103 9.736828 81.855316
14.801383 1.566101 131.602448
20.183895 1.868797 78.307388
-20.354744 9.960712 134.350174
12.339115 -11.471007 61.879929
13.463713 -8.121921 86.662636
11.971915 8.147781 63.425526
-11.974301 -9.407319 107.966881
8.082081 7.752883 82.217827
-10.154661 7.229223 125.732353
-9.866473 11.762072 90.399216
-1.900633 9.549815 123.499870
-17.402666 -7.401484 77.584435
-0.493438 8.460094 121.906586
19.926012 5.832095 59.946518
7.981500 7.970550 126.779167
-2.089642 8.667451 106.293579
3.011420 -13.053573 139.947784
-0.908373 7.716895 159.025589
-21.696806 -1.451431 130.625748
8.807630 6.495370 107.743042
-26.230171 0.648554 138.955490
3.115473 9.030705 103.170959
-4.853373 6.279361 113.124924
-4.715495 -13.063547 113.617821
-9.667337 3.545996 108.876839
-4.794413 13.879463 146.548965
11.404667 5.640122 131.489731
-0.500622 -6.052833 147.223434
-20.846252 -6.465142 66.979866
-15.342627 5.346963 134.388077
-3.737213 11.103979 87.560326
13.627357 -9.023550 123.858261
-22.195904 0.395326 63.302937
-7.532071 -9.241504 58.037899
27.768776 11.391356 130.250702
13.776159 8.064311 83.184776
9.021347 -9.434201 61.037273
22.700199 -2.504915 134.608063
20.158815 -3.645993 56.769051
9.277935 -11.531959 71.757530
-1.587335 10.545142 150.397186
7.551573 8.766278 55.846729
-4.081185 6.781476 114.274117
12.426422 9.449814 87.959587
-20.795277 -2.790942 75.108696
9.918605 -11.735843 91.419258
3.151193 -9.956521 77.280319
10.025490 -7.205675 117.350708
22.289257 7.567046 143.603943
-1.713510 -8.714551 142.479767
-16.278887 3.446140 94.746323
-11.528495 -4.770799 120.679672
-17.756433 6.295809 91.419975
11.242272 11.776204 102.296227
-14.155043 5.156111 64.191429
5.866324 0.068811 153.484833
-16.684004 -1.841377 135.617004
-18.790127 3.590835 74.545975
-16.473640 7.022148 74.650146
6.402901 14.295076 98.972054
-5.684700 -12.230033 140.796783
7.307011 10.899334 84.514198
19.847595 6.094265 78.537300
-10.050401 6.548424 124.155884
-19.627983 7.024261 145.985291
11.119341 9.963242 83.118431
-7.322963 -12.408962 123.487480
-18.063858 5.052916 72.148079
0.391794 8.080502 123.672470
8.887420 9.240911 126.802605
-6.591165 -12.237144 135.883148
15.229897 6.566584 133.224976
14.777689 5.955473 60.259510
0.522037 9.270777 72.156609
-4.252368 5.631906 114.195732
-7.847512 11.482162 85.267334
5.376886 7.535246 113.742249
-3.920790 10.386920 138.842026
-15.547249 10.269809 141.349014
0.539462 -11.229941 135.341736
2.437925 -4.007035 147.536209
3.052174 -6.127762 141.315338
4.268708 -12.498501 123.651978
-10.068753 -0.441781 151.997192
4.967264 8.030408 65.327087
-11.039978 2.863967 149.685562
10.001223 -8.789634 143.004807
-16.440769 -8.050508 85.945724
6.896629 3.250441 151.494629
15.325286 -2.112166 102.097893
14.620667 6.301167 103.406517
1.803826 10.593451 148.929214
-22.307074 -2.599231 132.692810
-12.194806 -9.907769 104.815857
-17.237656 -9.351007 93.166389
5.096383 -11.923903 110.059212
3.791537 -7.724714 59.124390
-6.723701 -15.326807 129.450851
4.503263 -10.948196 63.554359
11.830947 -11.596051 127.706337
-23.296171 -1.183568 145.339478
-19.465645 3.036823 54.730408
4.889874 -8.275931 96.317322
-5.977117 8.039495 59.696980
-18.479952 5.065370 147.966431
-22.854549 -2.150847 129.280411
-3.551543 -12.735096 123.123253
0.030128 8.867412 153.762131
12.268234 3.016845 129.400589
-7.670166 7.737467 154.346588
16.239655 -6.742755 65.145859
19.481483 4.814446 137.196152
21.121960 -3.822229 135.198792
-19.950863 0.808489 58.397518
0.717479 11.689550 101.014442
14.542823 -1.194335 147.955536
-22.182491 11.311842 136.494644
-0.867376 -9.430337 60.848415
12.791019 1.560052 125.217964
-15.541703 -3.197911 108.926971
1.359143 11.837966 146.619553
-12.711684 9.885798 70.359871
9.204960 4.385713 121.932480
9.100339 9.180155 71.368263
-4.977559 12.227808 93.004272
-12.359759 -9.646703 55.277901
-9.924976 0.289765 148.483261
-21.194954 0.866192 147.093338
4.263363 -6.153551 74.674149
22.168173 8.595659 142.279587
-20.685318 -5.273607 83.754967
-13.343291 -9.236971 127.702965
-2.602543 6.204211 111.742477
4.544875 9.188828 125.790459
-8.601596 -9.755499 138.903854
-3.416121 7.114839 156.918808
-22.342627 -1.101829 133.982285
-9.277319 5.904725 111.906517
15.628474 8.689729 57.652397
18.668598 -6.807051 88.623131
6.476430 13.669537 153.614395
0.901233 0.087621 149.110367
20.580044 -0.619141 67.791748
-12.029380 7.234957 79.490921
0.615335 9.857061 79.104172
-2.199228 -10.630386 70.160728
15.113615 -8.344515 127.497162
-12.006788 -5.185161 144.960480
-22.122171 9.870792 139.926636
-15.760612 11.814018 145.125717
-3.420946 13.324909 89.317360
6.535446 12.180948 51.109573
-8.587726 -11.481390 54.863129
-7.325060 6.549103 122.505272
-3.581289 2.086515 150.810333
-6.762188 11.079729 89.042358
-10.764656 11.953379 146.598511
9.555925 -13.337187 131.530045
-3.468874 -6.720207 144.861206
21.172430 -0.174808 131.050507
-20.671757 4.002501 146.053253
-1.383418 9.996713 156.830765
-14.164102 8.826415 78.285088
-18.014572 7.908904 100.404816
-4.363863 7.837452 54.677498
-21.464005 0.696271 72.634972
3.703190 10.891452 86.323074
6.826564 2.105137 153.914658
5.294531 -10.805748 109.586128
0.962152 -14.879433 125.792274
2.737198 -9.596297 55.230213
-12.030683 -9.682143 102.400101
-12.148723 -10.614274 61.961647
3.399848 6.184476 63.379601
10.440695 7.981441 71.745255
-12.479047 4.493488 126.257553
17.418966 10.167358 92.070084
-15.632950 -3.053028 144.865387
-3.784732 8.892983 153.913651
-8.797659 9.014277 62.849972
13.719907 -9.379813 81.763420
-19.584190 -6.551799 74.675812
-7.021091 12.982317 92.153481
-12.260075 9.006973 135.805786
-23.429342 2.985409 131.215622
-12.827826 3.663532 110.275482
19.694565 -4.322582 80.883080
23.756439 2.645595 137.571106
-12.154639 -9.023166 54.665607
-19.225830 7.617116 62.690006
-5.276082 9.892096 122.689270
-7.451531 8.215886 66.005302
6.492105 12.232388 94.903008
-18.544422 7.433611 72.660599
-0.967879 9.860587 86.185745
2.356126 6.374902 111.189560
-1.315542 9.167154 79.166733
-19.585091 9.611240 148.182114
17.149059 7.975382 135.029800
18.040237 6.107532 62.103344
25.591631 3.578647 139.184753
5.021128 9.421775 156.016479
7.933355 12.994462 86.126534
-16.476513 -5.665906 146.601959
17.184757 6.531520 137.159882
-8.956653 -12.805099 124.277199
15.098186 2.037298 112.201126
0.919271 9.947285 133.707230
9.572714 4.210520 111.434128
0.419858 7.510151 106.584381
8.112318 9.478141 91.045074
-21.284576 -0.579720 143.841110
-9.186570 -11.479645 111.568871
18.871891 -6.369708 72.401917
-16.731041 -6.070372 69.496834
-15.533815 2.422005 133.399826
20.415272 1.559370 80.292404
-16.368767 -5.808114 133.349411
11.359735 9.325598 138.757370
-14.163780 11.374490 138.126663
8.019644 -12.332997 61.287323
4.741685 3.556909 153.668884
-19.222628 -1.004671 131.744781
7.869462 -7.811331 79.205688
19.446360 -3.989414 72.575226
4.404213 11.325062 91.221474
-20.180206 -4.474613 66.174507
16.478798 -3.514862 59.025887
18.525005 -7.542409 75.512154
6.739655 -5.318698 143.804565
20.095699 4.204727 77.678871
-4.053661 2.138658 157.570755
-4.432549 11.482234 143.753296
6.420782 4.399879 157.267639
-8.283204 10.387089 60.634819
-4.017375 -11.141770 136.193848
13.523089 -2.791223 127.185455
-21.728878 6.583210 146.122009
-4.125374 6.545953 154.426971
1.821039 9.769563 69.720589
-9.854068 3.051280 122.552704
3.322882 7.186367 65.524841
17.081593 -5.438230 139.038101
-10.097775 -8.146134 138.611435
-12.819459 -8.347937 118.011253
20.764744 6.203042 55.183220
-0.508358 -12.466903 103.604630
4.741086 -9.212147 97.673714
21.221928 -2.254126 141.726303
16.445488 -7.113089 135.126755
-14.381133 9.127050 134.037460
0.663421 8.928769 102.925346
11.182563 -5.925568 145.770294
-16.885361 2.502322 100.724586
15.542027 -1.033725 107.380074
-20.886337 7.928173 132.994568
-18.431372 2.081273 131.312637
-15.983492 5.722775 71.531952
4.724632 -11.604996 123.672920
-14.733020 10.050324 67.228813
-0.230035 8.411684 58.542370
4.793583 10.597566 147.637283
8.266720 5.231458 108.029144
-29.866461 2.055141 135.257034
0.302909 9.755500 124.376053
-25.999865 2.957429 144.061539
-3.665010 -12.193445 135.217651
-3.564998 9.072127 121.326401
-8.281466 -9.425995 115.043625
-11.584901 -7.056295 117.011513
14.979220 4.242183 132.104355
-22.944996 1.759327 76.250076
14.597174 -6.416160 131.329025
3.066800 -2.325322 148.354309
18.747335 -8.572793 89.863922
-15.403404 -8.065055 100.994850
-2.811432 -9.410886 95.829552
17.003666 -9.397916 73.755592
5.024923 8.951347 63.790051
-5.545618 -8.844028 71.945480
-8.710471 11.115501 131.977386
0.203303 9.177495 103.367096
-8.067557 11.262662 75.683937
-14.994440 -6.125207 134.838959
-5.280780 7.205739 82.100609
-18.182215 -2.619699 94.398216
-9.274844 13.318934 143.206635
-5.413195 6.893447 125.047630
20.778648 -2.972734 57.850964
7.225451 -10.419220 132.460068
-7.476793 9.410681 125.953720
19.443151 -2.321965 89.779366
-2.475044 12.476027 89.945076
17.353811 0.979150 61.131470
-7.575205 -10.559667 128.713715
-21.104548 8.851480 142.041016
-20.349733 1.508445 72.484993
12.994163 -9.885640 57.972210
7.345360 10.426044 64.180893
-5.069720 2.307876 155.282501
4.836308 6.367817 58.962414
18.548916 3.564347 73.653412
19.500740 -2.539225 74.509361
-7.499695 9.537468 69.476448
22.255743 0.481502 139.551239
6.657062 8.567318 123.062248
7.683511 -13.071157 122.798286
-18.451132 -6.459180 55.243698
17.975546 -1.800242 134.842682
19.640402 7.413897 130.632080
4.159244 5.040681 116.811119
6.131471 10.684926 125.060387
0.082751 -2.757449 149.734970
-17.639248 8.870707 149.327347
10.772941 9.729448 56.942451
3.136749 -11.777843 58.713383
16.074230 -10.353498 133.953217
-20.818026 4.213222 57.801098
-22.653624 7.907443 143.856689
10.439534 13.532365 96.930092
-21.208630 2.181448 81.394363
-6.410029 -2.514834 143.868347
13.811079 -12.319071 132.040527
11.356540 -9.597173 60.637077
0.896561 7.407630 115.658318
14.907063 -8.831056 87.230537
10.738459 -10.669451 73.931183
-16.735058 -4.228907 144.548431
-3.380753 -10.435651 77.262772
-4.477880 -1.179855 149.986588
-13.678815 -1.849445 145.836136
-8.215419 -7.917518 74.565132
14.148758 -3.405031 117.487350
-1.792198 -8.286201 65.556656
-1.856042 -0.571971 151.255554
-20.688412 -1.854966 129.987427
13.685369 0.413974 114.682083
-6.180480 8.457119 67.265411
12.530622 -6.173217 124.039177
1.543235 10.265659 156.519287
-11.537047 4.521023 131.759949
5.148971 -6.312233 142.722977
-1.438041 -9.999403 76.748718
1.712428 -9.982813 140.096970
-11.288239 8.535747 94.712463
16.233450 -3.945629 56.939442
15.829570 -9.370415 81.938354
-3.868960 -10.800164 104.571388
11.546204 4.591344 126.540619
22.750168 3.325254 141.911713
7.150859 11.749395 151.030014
-14.233103 8.959947 60.881752
4.253884 9.144033 67.933807
-11.745742 3.108226 121.951645
-2.982595 -9.704259 117.397133
2.013461 6.889966 114.472397
5.882602 9.989270 153.161850
6.750098 11.189875 87.654907
14.443980 -10.821774 59.159767
20.810429 -6.347740 87.955147
-20.514463 -0.657850 73.319008
19.043781 3.707963 97.083252
-19.941740 5.528327 149.316406
-17.708138 6.943950 75.191101
-1.498491 -12.799872 114.212517
-2.524080 12.705902 88.370918
-2.815424 12.712978 97.744156
-1.082795 9.870047 74.246498
20.635880 -0.201244 60.898560
15.733513 3.538426 132.743500
-21.747686 9.792480 142.181305
-7.454188 -8.640508 66.271301
3.848759 -13.613060 107.160645
12.702330 -2.411335 145.834900
-14.879148 -9.545152 81.020645
-11.169489 8.382195 130.090408
17.729403 -2.183856 145.478470
3.196871 -7.093889 73.055580
12.004873 -10.431646 88.870773
2.167577 6.337329 115.247826
3.018690 -9.902312 105.044624
4.720257 6.994687 62.495869
-9.671647 2.815944 115.396797
-20.862621 -2.597767 67.237442
-13.890485 -8.188309 96.565269
-12.654281 2.151120 126.054489
11.634209 -3.507727 107.754761
17.060928 -4.456931 62.826984
-24.653273 6.093132 139.687454
-14.395619 -1.582846 112.704292
1.895993 9.129645 115.273453
-1.926456 12.826077 140.253036
12.274937 8.518668 104.294678
22.537201 3.275828 129.600876
13.576935 3.834390 103.441589
-4.206689 -9.637639 54.178902
-9.070419 -11.761086 127.352577
15.751743 -3.435587 136.342880
4.531468 6.264369 115.116798
-19.804049 -1.271341 53.870380
12.370201 2.926268 154.140793
-1.092640 -14.818216 134.577744
21.238581 1.704815 139.608688
-12.415189 8.381900 91.400986
8.950861 -11.287306 106.652931
19.576265 -4.502913 71.779366
11.676443 -7.997835 112.352226
-5.035599 -0.339406 150.752426
18.255733 5.984870 78.137558
-14.796792 -9.608854 54.760651
2.432461 -13.498670 128.987732
-2.424392 10.702082 133.296417
-26.623985 4.209141 135.878189
-3.620535 -14.775431 131.746201
13.478349 8.620348 151.859390
11.392790 8.917625 151.704651
-6.334860 5.542952 117.375618
13.259486 -10.804324 69.585464
14.550166 -10.008759 82.511353
14.466127 12.400882 143.407440
14.595319 11.546022 144.037521
2.536800 6.404993 108.919807
7.222478 0.088455 152.412231
17.567614 -6.758040 59.328484
-12.445588 10.489950 96.412521
7.439330 -9.260465 70.365082
-18.025772 -9.461762 81.270241
-17.780636 0.938906 130.126938
-8.121514 -15.102155 132.034241
-15.279852 -6.004442 71.131271
16.508194 9.107568 139.917694
21.100548 1.498657 89.424538
14.255476 -10.602917 67.869057
3.678205 9.089685 131.488388
-19.469053 -1.512811 89.064766
-11.860661 9.476365 66.404236
-15.018687 -8.372174 94.169891
-30.703136 2.307904 135.943710
-7.831184 -9.349928 88.929665
-21.564981 0.569203 59.717545
15.486139 -6.891968 103.346954
-15.254080 -8.686371 92.346336
-3.070576 5.565166 116.795563
-15.198127 -7.353436 55.952374
-17.275398 -0.462614 76.111618
-15.507857 -6.892283 69.423904
-16.359173 7.512122 58.053413
7.912142 -12.989659 113.297081
8.563432 9.872533 65.800613
-14.389923 -7.746793 102.513565
-13.506369 -7.877656 126.850929
2.493785 6.334367 154.435715
8.200030 13.061595 138.653244
16.321199 8.504318 61.814140
17.255064 -6.504755 68.352356
10.836763 -6.282350 130.955444
-10.835525 -11.572204 55.525864
17.612890 7.688665 135.791748
-15.619017 -5.477979 106.805496
-16.751970 -8.087624 64.268074
-2.723593 -12.261692 131.952393
-10.961066 -8.724309 124.238869
10.588511 -11.913002 77.750183
-20.006609 5.939634 73.072830
8.357923 13.654494 100.293640
-17.048374 -1.927826 71.750198
14.367997 -4.167405 125.613411
-14.919319 6.198679 100.172943
-5.908051 11.845136 136.262314
-18.230888 -7.826425 59.641350
-9.961102 2.581767 116.108582
-10.557427 -10.043924 84.323883
-1.452245 8.560352 101.851158
-0.554957 11.551589 66.377899
12.463749 -6.216100 52.834373
-12.546220 10.348776 134.574280
4.156815 -12.286507 102.899162
7.249419 -9.303133 81.592247
17.946054 3.601817 93.072113
-13.225285 8.909359 95.781334
-0.157009 4.680180 112.056442
3.534822 12.292401 96.112053
20.701519 1.468428 62.381966
-0.680939 9.884871 125.292122
-12.189153 -8.782070 122.893288
25.521841 4.415522 143.386063
13.767629 5.425410 131.525208
-11.162581 -9.798782 104.224419
-3.132507 11.703874 62.834793
14.201023 8.249574 63.388523
18.058943 -5.002393 70.966805
20.542973 -4.008292 139.770142
16.327696 1.106112 56.422230
14.845212 -4.836029 130.943542
11.590599 7.747552 123.129639
-11.135015 9.499793 80.530716
15.870817 -7.338386 140.570312
-2.613721 -9.978737 87.022385
-9.557452 -9.216144 109.284325
-22.502533 -2.267710 130.012558
-5.470056 -12.842166 121.092133
13.796688 -0.564415 117.844742
10.598196 -11.362647 100.328720
-13.949836 -8.371505 139.043106
14.359763 -11.256081 79.784805
1.351847 -9.114593 56.922512
18.895567 9.880345 85.106857
11.656716 -11.682129 79.408051
23.440916 3.017897 143.355164
-18.439264 2.021350 66.862999
-15.248533 8.233233 93.880920
7.341636 10.841166 140.118561
-18.729780 -2.709315 87.219353
-10.809536 -10.229679 55.795586
-4.255709 11.522232 84.713562
-15.994183 3.051528 95.507935
28.586775 -2.947017 126.262825
14.063932 -9.147264 81.166267
0.124779 -6.293904 93.349495
11.012326 9.138319 127.902054
-6.316332 11.215963 133.553970
13.315182 -4.938206 141.754776
-15.939579 10.851679 147.779373
22.336559 -1.070769 75.316040
18.589947 -5.676249 61.107502
21.210112 9.318712 142.059052
-15.104499 5.747539 86.961632
-14.803257 -5.698579 61.770332
17.630327 -7.087819 85.250587
0.453571 -7.249696 144.061386
-13.871356 7.845307 77.176147
-17.193182 10.563931 66.543381
-0.417112 10.502696 106.420654
12.533418 -10.627974 130.121078
-7.629331 9.857643 132.895065
-8.104951 8.610518 60.430836
-5.341837 -10.946585 52.038914
-15.962693 -1.358122 105.186920
-14.112749 -7.982016 119.336739
-0.667479 -12.988353 89.656586
8.570627 8.304146 62.939156
-7.093095 -9.243296 64.442131
14.507976 -3.948884 121.113548
12.575426 1.713209 149.416214
-10.109253 11.251579 63.383305
-4.828491 7.321079 110.585510
9.663155 -10.965194 54.510708
16.481142 -6.022755 101.357628
20.359228 2.013937 146.626678
7.397378 10.071652 65.896698
-2.188439 10.416252 75.327530
6.281588 6.615955 154.738617
2.386608 -9.633199 71.652832
3.990419 9.158685 104.859535
15.627371 -1.654204 105.496666
-2.950184 8.370812 104.690918
-10.613580 8.666197 69.873260
-14.980208 7.341035 95.486778
-9.696651 3.109636 117.407013
-14.511224 7.590370 73.937675
3.692511 6.653534 76.388153
-7.326886 -13.480369 108.651596
23.701448 -1.481564 136.971664
18.059284 -6.643738 80.235168
-15.492234 -4.654251 145.996979
11.310217 -13.285165 59.728977
2.811301 10.751149 80.174461
-4.454775 -6.988304 96.052948
15.420074 -2.740292 51.061390
15.469065 -5.934280 139.114639
3.328808 11.815791 99.573647
-3.934516 8.305532 155.797485
15.808782 -6.647379 144.790100
-8.672597 13.149317 95.018097
15.584106 -3.941324 105.258385
26.537607 3.585085 143.538147
21.296558 2.323564 72.585831
-11.078622 -9.220885 116.918221
-15.202257 -5.846891 137.308624
14.453247 6.697624 88.730545
13.123741 13.660175 91.402710
1.958261 7.844759 158.305481
-10.280737 12.380859 92.877754
7.735920 -13.330855 125.130501
17.511030 -4.848982 143.727722
-14.913845 -8.335080 139.500702
11.095507 -9.426605 102.205940
-12.715946 -2.597412 118.602623
21.234278 -1.737648 86.198502
-19.894844 1.392903 74.768112
5.155065 -7.978214 89.976685
-9.725706 -8.031724 99.281616
-21.840696 -1.986697 74.510864
14.206112 -4.162860 143.132736
1.016786 -11.821581 107.372215
24.062868 3.503922 143.201416
-12.603654 8.003123 126.985809
-18.823477 -2.456680 62.533485
13.539593 -6.474280 136.653870
-18.933939 11.022933 54.108192
-18.768688 -5.087907 92.200455
-12.258235 -12.861650 72.895058
-14.257248 -0.508028 114.600006
-17.225353 -2.112348 97.439903
13.998471 7.196168 65.152069
17.367699 -6.950442 74.945007
-10.479985 -8.875395 96.999405
20.288715 -2.683085 136.621704
4.469464 -13.897746 128.017029
-28.898714 6.197546 134.633026
-6.927320 -10.198632 141.032700
7.823437 -9.385851 106.137352
10.284585 -12.640140 65.482178
18.697598 0.304273 55.777943
4.696751 11.847475 88.051109
-24.791702 7.743469 141.303055
-23.195580 9.242494 130.425964
11.969614 11.514810 86.905975
11.233380 -0.816751 120.364120
21.408926 -0.990619 137.135239
-26.664209 2.913914 138.965958
-17.579365 8.489023 142.051407
-18.635786 9.627689 134.715652
-26.604696 1.653134 139.587540
6.464531 -15.263874 121.218903
-16.999247 10.117357 140.518768
-11.403304 -0.785827 109.634071
-4.356035 -11.999342 124.611305
-4.519982 13.302815 93.081444
-18.949970 1.368831 90.650154
7.121232 11.676704 133.524979
6.227884 -15.112479 134.166794
-4.335471 -9.976953 89.124397
27.152145 1.097401 137.890137
2.837421 -2.496430 149.826782
-10.464479 -10.454192 114.345985
4.268848 8.310567 152.275024
1.690029 -11.341387 79.857849
13.581443 10.970757 62.912628
-15.361259 -5.773308 142.835342
16.670689 -7.813718 58.248245
13.895027 -7.176136 121.884468
16.436640 -7.441949 77.044579
6.770917 -8.056073 61.465832
-14.916856 0.074058 125.898911
15.632055 9.156427 94.333130
20.703865 4.586076 79.595467
-12.259015 -9.342299 79.435486
-4.520614 6.786070 152.764359
-9.960793 9.758944 130.534378
17.786621 8.929850 138.250320
-22.195152 2.708229 129.558487
10.733370 -8.410603 122.031685
18.846169 -4.951305 77.653114
-1.463370 14.895797 96.070244
18.116690 3.072037 133.285278
-17.019659 9.893970 145.498077
-31.988861 1.002773 134.567184
7.012891 -9.308189 68.536453
15.988208 -7.500167 60.134983
16.611044 -7.091262 59.573963
-15.531897 10.496030 141.058167
-1.091583 -12.058421 118.958496
9.907287 -14.366361 55.320065
-2.564161 -10.879504 64.942741
17.234728 -1.780289 99.265457
6.013607 2.967159 155.520691
-9.343129 5.905377 122.438927
-10.593059 -10.629227 136.695328
-2.658417 -11.337453 112.595779
-8.329566 7.519297 124.724396
-13.557223 8.166397 85.096184
-5.129840 8.544599 63.343594
13.804615 -6.468312 111.005119
4.332688 8.405529 157.586609
-20.439526 -4.484018 66.388794
-19.101231 8.849288 131.784103
16.339663 0.577168 111.394234
12.806087 6.514233 83.529152
-10.452522 -8.725768 139.883331
-7.149766 3.116637 150.504471
-21.321871 -0.938866 141.355392
-12.949231 10.809191 140.057373
3.635249 7.021034 122.854439
-9.205247 13.981156 138.964935
3.396323 -9.529423 140.119461
-13.944951 8.236008 78.012909
20.308926 -1.375573 133.825104
-5.764354 -9.699762 71.362556
7.181861 -11.904866 116.640419
0.100587 14.124030 139.747742
-14.468164 9.511742 70.760010
18.298836 -4.153345 103.893913
-12.783849 -7.426003 133.624878
11.918075 -9.371026 55.731724
0.944743 12.164436 85.205940
-2.966088 -14.554722 132.252121
25.578833 4.734488 143.027206
-11.628860 7.030142 100.595337
-3.572950 -12.267669 134.033432
-16.581528 2.217283 152.341370
-20.881910 -5.809303 134.879425
17.320019 11.481458 142.270996
-13.917305 -5.537057 121.806503
14.359823 9.226979 74.541084
14.196855 6.788160 73.019287
17.814894 3.978657 70.237457
22.004799 -6.133573 137.079330
12.703150 -9.001090 106.342522
6.001594 -10.102303 109.296936
19.415087 -2.915113 68.626633
9.535130 -11.724618 102.295662
-14.306065 6.509134 65.689751
11.874858 -0.383364 124.818840
14.433491 7.010144 136.415405
9.321149 12.077932 90.314453
-9.330779 -8.862637 71.726440
16.964310 -8.105899 89.636887
18.431921 -1.710126 96.762283
-15.176373 -8.237092 96.048515
-7.004842 0.942233 151.153214
7.486410 10.848244 150.290573
26.528700 5.930287 136.494370
12.289728 -0.491686 126.595863
-17.716227 -4.859885 55.257133
-11.932240 -10.459177 94.633263
3.141838 8.043386 119.278740
-27.911690 3.877318 138.571411
-3.218603 7.929921 121.120941
20.856529 5.890543 76.697784
-4.701568 -14.523808 128.323364
-16.013546 6.717144 135.338181
16.023827 9.178833 67.866951
3.731735 -11.883888 79.101440
-6.953998 1.597708 151.552719
12.629018 2.918372 115.494133
13.627737 -11.776035 70.599472
6.799791 1.544098 151.983887
-13.065871 6.765432 77.331085
3.453328 7.779008 157.093277
21.597635 0.866955 64.167007
-20.176096 5.031574 60.060410
-16.194439 -5.258193 102.278938
10.777211 7.360047 125.278175
-13.991861 9.546257 88.360626
20.119993 -2.555204 75.441605
2.580724 10.546292 84.626022
28.047340 5.759687 137.167236
-2.526225 12.259491 65.395630
-4.020212 -11.624173 83.411964
14.854364 -4.014284 107.169930
2.579281 -15.399459 135.501770
11.085814 -8.272706 121.301956
15.142517 -7.632991 70.291656
-0.050812 10.566970 77.546715
-8.098534 7.367480 68.720284
18.564817 2.418797 92.179237
14.442355 -7.544405 71.808510
-3.825290 -13.209352 107.878769
13.464593 9.780155 89.622063
10.622735 -7.961717 98.522118
-21.971861 -0.923407 137.620300
-7.914029 6.435426 109.109184
9.895512 11.278057 148.737900
-11.362452 -4.558767 116.482819
14.906605 7.954432 93.281311
16.782625 -4.074603 102.322960
-11.974491 -8.232565 110.396919
-2.844635 10.069883 154.061829
-9.950473 10.488987 55.562695
-10.877012 -11.108073 84.828026
12.830708 -9.125221 94.476456
1.556227 9.222530 77.753326
-9.640050 -7.224980 116.269821
-14.333051 -12.034626 58.619915
9.278037 -8.928079 114.975548
8.486701 10.969587 99.940147
15.163316 -6.664495 132.678284
19.198999 1.647593 145.069016
-11.273670 -10.834430 61.989437
-5.301207 -2.892716 145.175613
5.806174 -10.978721 89.169846
12.243406 0.995489 151.523911
6.650877 -14.154944 133.350601
-1.157768 -8.872473 52.810017
12.636256 4.991598 116.181572
-12.477630 7.742579 151.076797
6.379238 11.011811 151.177490
11.615102 10.237143 148.334122
2.065516 -12.015870 96.769119
-19.089388 -3.757876 64.119202
12.606560 4.034030 109.342308
18.588255 -1.881688 136.598541
4.347540 7.243066 110.795631
17.238483 3.799498 72.175011
4.162089 -9.184937 93.892937
13.533339 4.187310 151.878448
1.187679 10.823760 63.509907
-24.165462 -3.006196 134.556000
28.666235 3.394270 139.562256
-1.624342 -15.639616 127.511993
-2.476820 12.238848 88.463905
-7.814906 -6.504283 141.840179
17.556728 -7.864578 65.518425
-5.396134 -1.762794 152.401260
-6.610600 -11.061118 50.686005
-14.621149 -4.634128 107.514465
-7.508471 -11.905131 111.891487
-26.810656 10.041453 134.930130
20.046951 9.043015 134.022949
-9.328222 10.631854 86.740143
15.367349 1.811052 136.834198
-6.619759 13.042013 137.115616
15.561350 -10.726825 86.478661
2.631050 6.580201 111.904579
-3.220147 6.411016 116.716766
17.151360 -6.846749 63.340542
13.034902 -11.633090 58.602127
-12.238400 4.332566 129.083069
19.855652 5.479445 131.770340
8.263227 3.506042 122.104889
-14.825196 -7.977442 51.723740
-4.380340 12.700800 145.889771
-21.012993 10.003162 133.891296
-6.911800 -10.965360 132.217804
-7.039545 -9.513142 60.761841
13.916380 -3.262491 143.925064
-3.005392 -9.901423 70.063828
16.241606 -4.712962 123.638092
15.509111 9.731589 138.627350
15.305704 9.265265 134.275116
-17.368456 -3.578363 99.896584
-16.134523 -9.969500 77.931671
-22.283661 -4.871379 78.358032
-4.116299 -4.904278 149.832550
-4.803520 -7.751365 74.116013
-18.259529 -5.321390 87.906296
-15.111471 6.071307 71.261490
19.194746 2.273561 84.789398
12.739418 -9.001578 104.249878
-16.589121 6.564383 54.482582
-5.355757 6.603971 78.686729
20.469591 -3.281651 56.182316
16.292059 -5.090993 140.232819
-19.116924 1.970186 72.475471
-7.834171 10.373184 81.316246
21.009872 9.493549 134.659760
10.027349 -3.842067 146.769547
-16.118065 -6.649330 77.840935
-16.655453 3.990330 149.731918
-21.037251 4.708195 144.369675
7.913845 -10.462314 89.966949
-14.657265 -2.689042 110.955307
10.498079 7.990243 146.459976
17.912992 5.971105 88.733444
-12.953379 14.822186 136.413177
-6.369559 -9.173052 72.766243
2.082780 10.813762 130.591599
-11.512200 3.920440 124.349365
19.045036 -5.535361 68.260361
7.366432 7.578990 72.206612
12.273677 -11.973868 57.335728
-12.898654 1.046371 110.515358
-8.176800 -10.401243 109.125862
-2.047016 5.267823 116.510246
2.477544 10.071440 149.203949
4.424657 -15.013448 132.588318
10.052862 0.828486 117.943047
0.733272 -12.173929 135.785919
14.313416 -2.253465 103.947052
-12.579408 8.884172 64.702286
-19.782372 0.845031 89.569359
8.402394 2.866025 150.379623
-8.836864 -4.059539 144.436203
18.972391 -2.790749 66.383842
16.164675 3.000477 150.032913
19.397442 -7.719337 85.845337
16.169178 -3.629242 104.122734
-6.072317 -8.460722 69.449593
0.779146 11.489960 133.536057
1.888101 6.553101 156.119095
23.401030 3.097947 135.570786
-10.257377 -12.777904 58.096581
4.604795 12.277404 85.691536
15.298079 8.871567 134.272369
18.432051 -3.436000 67.102043
10.237858 -1.197426 150.727020
-6.033646 0.776879 154.177109
-15.940929 8.184939 70.605957
6.685568 12.122456 94.511246
7.428491 7.507207 81.970894
-21.274549 -0.327257 60.824718
7.290976 10.956119 82.296722
-12.533142 11.380048 135.479828
-11.881567 11.136209 149.265442
-7.677118 -9.476851 79.907387
4.498837 -11.451719 110.388008
-17.845940 1.106459 133.267380
11.355300 6.814147 104.255409
28.617025 0.812625 138.633377
-4.640784 9.333945 108.104218
24.798046 1.767426 133.932907
-11.065348 12.216467 99.775146
-7.838531 7.208067 123.937462
-0.193470 -13.033476 96.867729
17.508984 6.489755 82.306488
-9.579933 -14.154514 133.403259
-8.214127 -6.965568 95.178963
4.729710 8.020165 127.112083
-12.455915 -8.428325 93.555565
5.762831 12.167743 144.798233
-21.800388 6.044318 57.204014
19.434376 -8.346064 70.716972
-4.556147 -11.013845 67.313545
-6.248425 -10.019864 65.309456
-9.199558 11.807584 139.215042
-12.034251 -7.107795 128.386002
12.565638 -0.500661 130.096024
-11.074958 9.884603 91.490669
-16.302109 -4.830157 136.214691
10.625800 8.703692 89.325607
18.960232 -0.878105 81.284279
-8.023534 -13.211459 125.851944
6.820601 13.241241 146.315659
-1.741363 10.756147 69.623047
14.661561 -4.700788 128.136475
15.059728 -2.068023 146.822205
8.612086 6.311479 153.474869
-0.409961 -2.300381 147.166946
-2.679015 -10.116278 140.583038
12.715332 0.943219 130.903580
-17.039040 2.688845 106.935410
-2.145050 -7.255683 63.251850
-10.704523 -4.180927 148.227737
10.058721 10.002146 59.946629
-8.635298 10.921831 96.702576
24.732927 -0.599699 131.946381
-0.920709 -8.424058 93.720139
-2.311493 -6.561048 141.788361
-10.326900 1.643332 122.592690
8.999116 9.875512 97.884460
-15.815616 9.356551 85.602707
-25.385847 -0.120646 138.751297
18.649105 7.579960 85.010437
-14.690325 8.250786 69.484009
-20.236145 -1.223291 56.753353
13.365264 -9.795036 132.622360
-13.019102 -0.743061 148.490204
-0.657641 -10.811456 53.246269
0.583349 7.579609 158.454422
-3.320743 -10.950978 117.923920
-19.724787 1.924180 131.069824
24.473444 1.964948 142.730652
-8.453260 12.215325 131.852585
3.617742 -12.795103 120.048454
-14.033242 -3.944944 106.905853
12.925539 -9.606674 134.519974
10.646688 -10.394416 78.356247
11.125288 6.905730 135.467102
17.957664 -0.247195 147.191666
-14.897072 -9.083614 78.073929
25.924643 3.154727 142.036316
-9.743425 7.331917 102.609581
15.769863 -8.523315 96.630943
-1.889131 -12.869943 108.381294
2.885524 9.461784 69.394867
-2.505805 -9.642145 80.803627
-6.082906 -11.221815 100.012276
-10.923288 10.218121 151.327606
-6.374441 4.647991 153.972824
21.954508 0.073068 140.864410
3.411365 13.398725 93.663399
5.985672 -12.806644 124.445114
-20.875763 -4.156841 82.507378
15.399887 -8.115699 101.147141
5.484638 13.069262 92.907051
18.066824 5.576165 133.588272
15.659420 8.132638 139.320221
3.163360 11.692818 99.698814
15.674061 -1.935207 149.272964
-13.900924 6.384040 64.263695
-15.932986 -4.363666 101.799255
14.583178 -3.825747 118.164856
22.267033 4.097003 146.558746
9.196618 11.122715 103.747536
14.058822 -7.428828 89.114502
15.209181 -7.923997 100.288757
-11.840473 6.126209 126.122787
6.020144 7.603215 153.733948
10.812992 -9.286780 98.069115
0.379779 9.802402 159.679871
-18.204628 -0.783019 81.346733
24.077173 8.710506 130.301819
-18.359081 8.626376 139.945007
-13.710862 -3.570995 126.555374
10.947072 5.458550 120.824234
21.415758 -1.967284 131.916870
3.628864 -12.486425 56.005714
-19.084692 -0.697916 94.769348
-18.229317 -1.523705 141.961685
-0.302637 -11.598911 120.302849
-11.150010 6.881875 103.180931
2.459902 -17.030039 131.941238
-3.317001 -8.895034 138.048431
5.805682 -5.543519 145.283432
-1.864224 8.974517 80.582420
13.928879 3.905833 125.527046
-17.176054 -1.675729 102.978729
-22.913103 -2.927780 134.625229
9.888988 -0.077760 150.708282
3.669030 9.700814 67.893692
15.569482 9.849315 64.039818
-5.410414 6.595452 156.610123
5.929713 7.572470 115.512238
-3.751700 8.987223 65.897644
-13.601412 8.704162 95.019318
8.753095 -12.901211 111.361244
-16.062078 8.873183 136.994461
7.483335 8.417760 112.446587
-4.627120 8.244759 67.996475
2.288783 -12.235021 88.697578
15.967465 -7.763782 136.710846
-25.028627 3.061168 142.619110
17.312340 -4.198724 117.569313
-18.290716 -6.849597 78.603981
-2.902377 -10.861148 98.544525
3.488683 -10.447839 80.150612
14.554256 8.675183 88.784836
4.972677 6.908272 110.436996
-22.499825 -0.209674 80.653526
23.383881 2.641326 138.751862
15.766793 11.757097 144.711212
-16.612810 1.781109 100.590202
-16.861118 -4.832762 145.465347
-8.643452 -10.273024 89.941925
-0.780322 -12.727982 133.629105
-23.061026 -1.676214 132.337524
8.139753 6.653193 109.527611
2.723823 12.006999 134.018539
13.567757 6.800463 153.648529
14.551654 6.922235 65.588242
18.727037 6.064378 55.622944
3.430827 12.861094 99.206406
6.408278 9.709739 62.257557
14.975121 9.026567 62.204964
-12.130031 -8.553507 74.686707
-4.123636 -9.259215 87.034546
8.199448 -1.309116 146.256668
-3.356667 12.203981 57.281456
-13.496620 -7.282620 130.524811
-19.230984 0.828746 98.272263
14.057478 -8.610727 131.160568
17.024134 -7.543110 93.049843
11.861892 1.851589 130.099197
8.482418 8.859414 150.528137
10.371656 6.569104 152.471405
-4.543689 2.898833 153.529877
-15.966712 7.280321 67.048531
17.488686 -8.733113 57.064251
15.583180 -7.924181 67.439598
13.081940 -8.545744 121.971092
11.201180 -11.463035 61.194126
-6.490162 8.788741 63.087379
7.980898 12.486365 143.478058
-15.731834 -0.332716 130.274506
-7.449285 5.031276 155.885071
-10.710992 2.264305 123.732140
-11.165073 -9.074299 111.820724
0.185338 -9.212721 63.476406
24.584057 0.355932 143.050674
-8.016691 11.687294 88.669014
-21.125271 -2.256799 143.396362
-9.298328 10.688140 59.096329
-19.767069 2.820874 80.598358
-29.551674 6.167505 135.751572
-13.063555 -2.688244 104.624756
14.495583 7.962202 91.498466
7.361518 -11.165312 56.164799
-20.721193 -4.552981 77.547722
-6.979574 11.760428 148.762589
14.371382 9.200212 149.855606
-28.818615 8.306746 133.043625
25.111950 8.504880 131.241272
2.307612 -10.069351 70.242722
18.101351 -8.816084 74.911041
-6.699136 5.386535 115.231812
-9.563427 9.179708 86.272675
8.793412 -10.161921 77.213112
-1.154269 -10.876332 74.489433
-13.057585 -8.088619 94.522888
-4.447021 12.481065 135.311615
1.477023 7.054683 77.025047
10.674295 10.669997 135.865433
14.130783 -3.671691 132.335388
-7.802289 -9.176175 84.410843
-22.106136 -5.499617 86.751785
-11.221231 10.026147 99.790916
-15.130411 7.425198 66.691566
21.005087 -3.122445 58.064213
-12.482512 3.583006 106.667229
-1.823484 -11.792443 66.954765
6.041480 7.178133 72.132469
15.430703 -6.417992 132.083557
-18.002218 7.117178 132.662567
-24.018950 8.779988 138.292725
6.851875 11.261293 149.514603
-10.488457 7.132184 126.870987
-7.838343 -9.124707 139.691895
14.730044 -8.554569 81.097878
15.145921 -9.350113 93.298103
-10.669116 5.113672 108.067627
-15.616356 11.716969 143.026428
-15.355712 -8.477210 101.135216
-13.014241 -11.819556 87.030197
-0.581744 11.513309 97.806839
2.845133 11.122684 132.872971
16.504150 -8.422031 79.324448
16.376705 9.425388 138.086517
-14.390757 13.091955 136.245636
-3.954980 9.159017 129.129440
12.806663 -3.718996 147.804230
23.593973 -2.920231 134.959961
-14.718273 -5.169820 94.845993
4.260798 6.554061 54.312561
-17.063396 6.902144 79.433510
-20.050331 2.407509 71.395988
3.720628 11.288793 138.826309
-8.689286 9.862551 63.404427
-1.534252 9.051084 124.509590
16.139574 -5.846272 106.250977
18.406437 -4.472810 77.182465
3.990345 10.252856 149.497940
17.346327 -6.723082 82.683029
4.068983 -2.135436 152.576889
-4.375876 -12.751722 126.780716
-3.606330 -10.759121 88.359764
-11.751867 9.402021 98.960388
-10.944683 -9.913329 54.445045
2.911819 -9.655050 60.026890
-13.080425 12.970987 93.368446
-14.972899 -1.395874 119.035133
-3.920731 9.878464 75.534409
8.121961 7.743807 151.510727
-22.208885 9.068880 134.822052
-23.619339 -1.508157 127.289894
0.086887 12.692084 146.385910
-21.150740 -1.778695 77.439651
12.572703 8.616963 97.669098
5.755151 -10.531256 112.732788
18.613869 -5.620467 67.835236
9.946718 7.927261 129.008301
9.412533 -9.837184 110.472610
3.119545 9.873276 89.170532
-20.669554 0.509758 58.253014
18.114880 -6.386335 67.977989
-2.052720 12.807138 94.747299
8.351204 -12.362059 61.416763
18.029207 -8.654256 84.083092
-2.407129 -9.836690 141.883865
9.309422 -10.450294 57.678085
20.868134 -1.410709 82.692497
6.520754 -9.838207 69.120956
-7.371533 7.566550 81.003136
-8.259892 -9.977105 98.713081
15.152460 5.252023 100.160210
-1.125997 -11.161311 55.170616
-4.035754 -0.855828 156.972275
-16.899351 0.098590 134.141724
-1.350729 6.968688 116.429405
-1.981896 -8.131465 65.733902
15.727030 -4.496665 114.077187
13.256786 7.459632 137.369873
12.724213 11.570809 143.485168
1.425144 -6.011255 63.269276
19.808064 3.378220 85.105682
22.062963 2.898725 145.546631
5.799929 4.326054 121.257912
4.352951 -8.805335 64.645515
19.542286 4.681382 78.006332
4.710943 10.627756 128.459488
-16.826683 -3.067314 97.204926
3.505307 6.887046 109.382011
4.413222 11.640410 132.382889
6.854764 -11.100620 111.902748
-1.319634 11.010760 154.346832
1.656075 14.300302 141.920090
-17.367908 -4.411240 140.750763
-15.477106 -11.416142 73.083511
2.198383 13.778913 141.983887
-10.737179 -8.393756 99.045036
-13.907753 5.692296 102.853020
11.344954 -9.293896 64.906898
-19.718220 -6.521007 87.956680
-17.186539 -0.042038 112.649338
-3.392297 8.755785 156.471634
18.807661 -0.469233 96.411537
-13.720093 -8.062255 98.912804
11.376898 -11.433033 125.245102
-0.249409 -12.235166 132.886902
-20.580034 -5.336825 68.759720
-16.417421 -1.472276 132.318024
20.081070 2.876205 147.505432
10.544805 -10.806425 88.593513
11.612741 -11.541294 125.587540
-8.325332 -11.128533 55.233444
19.273039 7.643290 138.043503
-12.462111 -4.639491 117.447052
15.433906 2.527439 109.000237
11.719437 -9.889471 79.590782
-11.373211 6.267346 132.896530
-18.693438 0.487951 80.580544
-9.431735 -10.045417 65.616119
-3.961073 10.342721 79.646057
-12.722813 2.073079 149.800720
16.766632 7.053175 75.051758
5.234352 4.044067 156.863998
-13.466574 -10.627127 61.975929
15.429543 -13.487967 59.268063
16.814331 -2.124872 92.160294
-16.821552 -0.383964 97.313766
-14.433330 -9.965799 132.866119
-2.291641 9.930489 74.957626
12.582556 -8.027581 80.039810
-19.039597 4.441633 62.097588
11.280463 -9.201447 118.905846
2.808876 -9.294461 72.428833
5.935596 11.005877 86.256371
18.727951 3.253329 58.330269
16.814558 -6.642833 59.985905
-15.495634 8.190962 73.435738
5.274467 7.471338 71.315079
-0.307065 -7.397403 93.600830
-6.046090 -9.391551 93.495239
4.636750 13.132987 133.212082
1.435898 15.378951 89.669899
0.215759 -9.104362 89.170883
-6.603662 9.971460 73.630554
12.081794 -9.883455 71.556870
14.736786 1.473753 111.012253
-8.145932 9.723037 146.477875
5.651203 -12.583869 129.401199
-3.655037 8.733627 110.173172
5.850606 -12.499927 136.308990
13.810100 6.560814 132.877548
-23.424227 8.528825 142.972778
-5.260935 -5.110508 148.587448
15.567772 -4.428444 136.246765
7.352230 9.698668 77.083717
-3.811066 -8.560349 82.039276
1.343069 -10.198991 98.639503
9.722074 -8.386151 97.861473
-13.465148 5.904647 98.511589
-8.593428 3.949323 122.618805
-18.022388 -7.080830 94.993904
-9.241016 6.172542 114.930939
-16.089499 -8.249066 76.247826
-17.188160 -2.174631 105.648773
20.434254 5.863013 67.840599
-9.513052 -2.241606 148.111160
15.612596 -9.425766 62.645580
24.983562 -0.590981 134.607437
-13.643050 -0.226545 150.336075
11.048827 -9.624789 94.073601
13.574434 -1.499847 126.358536
13.869646 -5.664240 121.735992
18.561296 -0.488028 96.273468
7.051279 -9.050607 68.022163
-2.821590 8.844074 121.819023
-7.763376 13.233818 92.140808
-7.644918 -11.944228 118.519211
6.894578 1.771981 153.007828
9.702107 11.573469 132.145370
19.032825 -5.663498 82.981331
19.945654 -4.669734 60.374737
-9.844540 11.367664 58.482147
15.458576 -10.114464 58.543053
19.158718 5.580969 77.442612
0.765200 -11.012511 70.244530
-20.488152 2.188495 148.086044
17.248293 0.347601 92.957085
-8.880371 -8.576083 137.339645
-11.077991 -10.945513 84.330208
20.673130 -3.144470 93.391487
7.916228 -10.154451 90.600891
-1.501456 -9.572595 76.428169
4.414403 5.284040 155.484085
-2.102330 -10.945449 101.115959
-18.696943 -3.175084 90.282761
-16.188362 0.450962 102.140015
8.155297 -12.430041 87.625023
-0.612069 -12.922496 131.014435
-12.175224 1.843540 124.100777
-9.853788 -10.079769 99.313034
-20.901423 -4.536692 85.702530
9.578411 9.041506 151.592438
12.569991 5.330650 109.330399
-6.318356 -10.012626 63.912685
-4.968970 11.453434 132.650284
-1.579507 14.263965 94.303276
-13.275290 -9.675320 120.644699
10.228198 9.215358 128.537964
18.022381 3.524041 97.637222
-19.158764 9.017100 146.389420
-16.432796 -9.292277 69.701897
-6.139930 10.894689 151.985779
21.503630 3.890893 149.977966
-17.502396 -10.238899 76.514038
-15.215439 -6.391657 86.499664
1.195453 -10.966347 140.948715
17.189240 -2.482639 102.490417
19.808599 -0.385002 71.817848
3.535125 -12.551761 129.425430
20.052530 2.633356 80.130989
-17.255102 2.465879 102.119682
-32.818584 7.920802 138.698196
-11.155291 -3.722244 145.096237
22.649664 7.412222 136.310532
11.729169 -2.363516 111.149719
13.403140 10.025769 139.909256
-3.105584 11.811648 128.513901
-14.579603 -4.557886 108.826210
13.558098 9.082971 79.534424
13.345326 0.243634 108.108322
-13.364719 -6.030471 104.343414
-12.801109 -1.670327 114.236580
0.520497 10.630251 72.759834
-26.706457 3.086051 140.730713
10.282238 8.096760 65.017937
-2.195145 -1.474042 149.424911
14.253401 -8.793089 65.838402
17.613579 4.495860 70.861069
-7.045604 -10.839879 109.666519
-2.865385 -8.017694 73.785355
9.209436 10.472690 71.536591
-5.075414 -13.582949 131.053024
2.870155 -11.288555 95.664162
-19.680235 -0.124896 144.304230
-7.337633 7.043891 107.579376
9.632355 -12.443707 67.210716
-16.306726 6.950898 94.906639
-15.790362 -2.471754 146.246475
15.461324 -7.455600 98.862541
11.674427 -10.454597 85.841103
-9.681366 9.140393 56.668587
-13.691710 9.745317 139.831299
-6.850970 -10.791083 68.375694
-15.520482 6.211459 96.191391
-5.689548 10.161517 128.284988
0.023156 -11.657918 67.296921
3.974069 -11.480146 99.947838
-9.950569 -9.077047 118.593643
3.679234 12.954673 90.163094
-17.713560 -2.289673 70.036179
16.029762 6.770609 80.675652
16.093143 1.128565 107.091782
17.660288 -2.086609 101.985313
-5.869385 -1.088868 145.127411
-15.848051 11.432553 137.739151
8.723679 11.322468 148.151382
22.488983 3.512278 131.415192
-16.438951 -4.325568 56.431381
12.988620 -6.953454 57.401436
-5.027607 14.410571 142.833328
16.725630 6.126209 60.896530
10.543832 9.133397 71.277626
6.207714 -10.460976 96.701683
16.481728 9.888120 142.686569
-17.590580 -8.321118 52.436558
2.256958 -13.693264 112.275749
5.396599 6.879342 124.849556
15.626760 -6.556654 54.062557
11.530117 -6.074852 120.641724
-31.113590 -0.431170 137.939087
-6.122750 -14.128445 137.181183
-20.324112 3.376591 80.301270
-26.092316 5.320571 136.796417
14.316657 -9.873502 56.805218
3.189134 -11.383130 54.834568
5.654957 -11.618359 92.687721
-8.800440 -12.557189 131.519318
-18.009604 -5.822269 71.333290
11.028521 -10.114024 62.948380
15.012755 -3.150441 113.154884
12.605899 -5.949693 141.533554
-3.899673 2.118900 121.546204
-6.675876 4.509229 124.241081
-1.706379 -0.497641 149.858978
14.740309 0.210519 100.596077
-9.337037 -12.146370 128.156631
-20.274696 3.466205 62.477936
-21.522371 9.904153 137.396408
10.382957 -9.861772 61.015247
7.608303 9.447787 74.264519
-13.340462 -8.820078 127.719902
-14.238639 -3.087650 109.871979
-19.788931 3.514269 134.941025
-6.030778 12.925594 95.266907
10.720181 -11.922448 107.668831
17.540548 5.029056 52.836082
19.205168 5.005709 88.968498
-18.963348 4.112058 133.420486
-20.440153 1.869626 55.961548
-5.373425 -3.385150 147.121231
-11.975117 -9.203671 122.594879
9.649021 -10.831532 66.528770
17.325596 -6.684583 62.088684
-12.663379 8.239693 87.549232
-10.086841 -10.154089 110.548836
15.109494 -2.858258 112.186684
5.334542 -12.483821 60.095860
-14.364567 6.507230 61.783134
-13.781858 6.595324 149.484055
21.170580 -4.357042 72.206017
7.350998 -8.008162 94.720253
3.433936 -12.584961 135.971573
16.615004 3.942272 61.188789
8.091475 -11.035241 126.249146
-14.343379 -4.949468 121.662422
-1.026112 13.763208 96.459740
3.117287 -14.268694 134.265152
-16.015934 -1.298727 102.753487
-14.558943 -7.776704 102.057213
-13.628655 -4.046183 142.538910
-5.898650 -11.274036 61.735764
-11.985403 8.627953 67.227806
21.797392 7.251941 131.220627
13.802980 -9.951055 65.267593
6.552282 10.717541 145.117188
14.139518 -3.966889 131.091858
6.088657 4.138991 116.143456
16.731915 -3.218209 90.428398
-4.527003 -12.872989 60.753281
-11.403440 -8.836650 116.470604
2.716677 9.415800 74.244827
-19.681969 1.098912 85.102997
18.358583 6.143801 62.231922
-3.238716 -9.803069 55.054523
5.062934 -9.450645 83.164909
16.691717 7.880914 87.484177
0.360873 9.712965 71.365494
-4.639826 -12.071147 109.426407
-9.644145 -8.589602 137.801315
11.727395 8.467916 80.293999
-1.708624 -14.152236 129.067139
20.323566 -5.965448 88.873787
9.741436 6.631756 152.245300
22.391567 -0.333685 131.844711
14.479595 7.016286 70.657784
10.268429 5.403673 131.047958
15.431823 -8.687073 105.476524
-5.771089 -3.528672 150.222504
-11.877223 11.418841 139.771164
-9.563293 12.637097 141.769760
18.405409 -3.715959 64.072250
-0.993261 -13.403787 135.398956
-19.950462 -5.880538 93.462074
-13.712568 -7.897994 53.562820
-14.367344 -8.711841 94.220772
9.272814 11.629824 136.339798
18.390739 4.675170 54.308079
14.923266 -10.285818 95.362045
4.708366 10.090972 123.111549
17.299101 -2.202796 71.479691
0.572295 -8.625463 84.039658
8.817875 -11.179251 61.815086
16.403051 9.956010 140.235413
14.007795 -11.226571 66.414879
-10.432897 7.403935 124.222404
-23.097021 -0.089066 147.335663
-7.985981 2.622130 119.526649
-0.510274 11.143623 154.898865
3.021547 -11.873230 121.786499
10.077286 -10.022105 87.926941
5.102869 -10.760679 109.350937
4.308485 7.969558 123.842842
16.970354 11.302899 141.616364
-18.494825 -7.314295 61.830208
-20.681952 2.797391 148.853912
12.147164 4.186629 101.922295
13.004743 8.845570 54.620403
-13.412101 7.708771 150.732422
-2.473001 11.695891 148.945618
26.874781 9.235563 133.255630
-2.253309 -13.217254 105.407494
-29.547003 4.539431 135.984619
6.085636 11.075702 147.890884
11.955357 -10.448736 100.259155
-18.821869 -3.683099 101.292847
-6.056880 -10.606997 77.208374
-7.659859 4.249517 153.003098
3.584190 -8.099265 55.026333
-19.178167 2.113175 76.399536
2.067162 -14.559194 129.304550
16.639681 -8.801757 90.060356
11.846701 9.788572 57.221275
-7.640372 1.845981 152.810089
-9.701696 -10.006142 93.854324
-5.562879 12.733737 99.348640
-18.173018 -5.741106 79.894760
4.991784 9.709654 75.082108
-1.750821 -8.930540 78.909828
-23.772528 5.106078 143.791031
-13.693490 -2.137799 135.094772
-2.761510 -9.601630 142.154282
-19.746994 -3.460383 140.910049
-3.798217 15.291843 136.517761
6.702002 15.454924 93.673599
6.596481 -11.489690 63.405670
8.359674 -12.077596 82.927589
7.643939 -9.344632 110.539581
2.705986 -6.718413 142.433502
21.524548 -1.175287 79.898514
2.289441 9.526634 78.347916
-12.956007 3.424467 136.483917
5.114705 12.284195 87.853477
-16.390141 9.386146 61.427750
-2.410529 -9.515309 56.522934
17.535793 3.471134 63.057213
-8.076775 8.366882 60.838463
12.450114 -2.543281 124.876076
7.471674 12.432316 139.051834
-13.718695 6.617393 133.963303
-16.796738 -10.373345 63.103329
10.486884 8.062762 82.676613
18.894569 8.648062 147.849823
23.298958 7.606600 144.383392
13.161409 -7.711646 124.717773
-18.514637 1.354972 98.211990
19.998789 3.096702 58.673096
-17.143591 5.790195 93.288216
-2.995087 -0.042722 153.179047
12.864566 5.769107 129.573746
-18.173203 5.692020 66.762619
18.290251 -4.958622 73.085953
19.703686 -2.349198 135.667297
22.747559 7.621893 141.946548
5.330713 -2.721160 149.822617
-19.335299 -7.154070 82.890640
-18.401810 -5.029678 70.075974
20.926579 9.098201 135.264603
19.938023 -5.692797 93.403664
-6.275455 10.208010 130.279282
19.837803 -2.582592 75.567924
-2.173887 -11.355536 100.120102
14.128938 8.832233 63.558968
-20.087433 -0.888521 77.130692
-10.309555 -10.801487 132.455185
-22.862995 -1.109464 139.562881
10.122522 -8.694027 78.328621
-19.557198 6.687122 147.899475
-5.778467 -1.852316 151.363815
22.078224 -1.626815 136.292603
-19.079197 -3.017548 134.435989
17.540171 7.206073 90.290146
-14.625401 11.268168 138.697372
10.824815 14.411507 87.825165
11.716762 0.882207 125.164764
-17.136679 11.286242 143.922318
11.142560 4.364105 118.725792
-18.647488 0.331088 88.184708
-11.752431 -10.120987 79.947090
24.832190 8.361201 136.979538
12.337989 2.624696 110.859779
-3.562312 9.525228 65.446999
12.992891 -8.865948 97.973595
19.005760 -4.914025 80.248138
8.714353 8.260026 84.247681
12.064012 -11.194343 69.027939
9.635281 -8.031582 95.854126
3.043348 8.283559 59.050049
-2.697710 11.519268 146.359177
-14.551435 -5.889779 101.489922
10.033426 9.548038 85.693245
-6.158037 -7.332283 96.755745
-23.629797 4.120897 143.406891
-10.196016 10.674282 100.829514
-7.325473 -11.522726 54.468006
-1.455921 13.463398 152.976242
17.289875 0.653665 147.901001
-1.847317 14.237878 138.168991
10.939132 -12.267960 55.311008
-5.740885 -1.660425 149.742188
-15.411524 0.507201 103.669037
-8.312406 -10.145626 116.598236
-4.374905 -12.304502 126.297668
-6.501819 -11.384081 120.608612
-13.122606 -6.179988 140.693970
9.389410 11.715196 130.443802
-13.879366 -11.762279 83.570648
-18.330894 4.343309 61.026562
18.224693 -1.307124 60.350811
12.040987 -4.092396 124.650269
20.039631 4.230950 83.124771
-6.020143 8.584549 125.597076
9.470036 -11.238742 125.322365
-25.029116 8.887215 134.742188
-7.401426 11.473379 74.793793
12.220015 -13.704635 133.002792
-0.439520 -9.082439 62.262207
5.874372 -1.819348 149.066879
9.385875 6.371942 127.432594
13.965666 -9.538672 80.264587
8.455352 -9.507041 137.220795
10.397926 -10.256016 72.371132
-4.405694 -2.860016 147.747543
-9.425788 11.612688 91.289726
-21.458958 0.466648 68.073067
-8.958405 12.023584 101.882622
-6.843540 -10.940746 128.618805
-8.552053 -10.640446 114.772575
17.786980 -2.368198 69.672783
4.052216 2.871559 155.889771
5.076324 -12.963813 59.015972
3.521733 -10.312029 71.527100
-17.655470 6.059633 149.858658
13.237941 -9.979713 103.978592
-10.743490 -11.002475 129.109573
4.370711 9.830094 82.535774
-11.348845 -7.660595 127.722015
3.339755 4.744516 67.804604
-14.476780 -8.380243 128.498734
9.185028 -11.587713 68.011078
-2.385138 -13.857272 120.810974
11.714036 11.450773 87.996750
4.908541 7.407492 61.269642
-5.837198 10.681279 140.669617
18.565893 7.265697 63.178341
2.577538 9.283622 154.871231
-10.740053 9.574825 61.390293
-14.686348 8.387283 54.418285
-4.722703 -7.917248 101.466003
20.573822 5.638649 83.700485
-0.647079 -9.880767 89.724022
-10.288461 -8.694572 115.347763
3.856556 -12.560466 115.770401
11.820125 7.981432 134.091461
13.466082 8.020433 136.165771
10.536711 5.744033 108.938576
13.533168 -1.300838 124.769310
-16.742979 4.671039 92.681023
11.071303 2.977468 113.960602
-9.565027 10.952644 84.903351
-24.573763 9.133935 132.572220
13.256286 -8.813457 129.632690
-6.599684 9.341039 112.767845
0.067518 7.573748 112.395988
-12.398381 -10.030211 65.760361
-18.768827 5.941955 65.703926
18.314314 4.720837 72.957138
0.180764 -7.783327 71.145714
-7.865311 10.461489 81.321411
-11.062717 7.582020 79.698135
-12.502258 12.421785 136.803741
9.707261 7.276400 108.617012
-12.470956 -7.476599 117.051575
8.052967 11.573736 96.309090
15.810970 -2.835243 121.092880
20.615862 -4.870342 60.261951
-25.650171 6.494862 138.694077
19.889912 1.577178 67.369705
-18.298592 -7.508509 68.115822
15.931334 -7.926566 81.562637
15.876741 -9.671315 133.256104
4.804646 7.283331 74.117088
-11.410269 -10.731030 139.312134
9.722666 -7.221792 84.966400
9.385243 -8.631732 92.854767
30.615604 9.954064 136.587463
-1.264701 -2.751481 150.829483
-8.791774 10.489984 148.700699
-10.143692 -8.869078 109.854988
-1.588773 9.458684 161.177841
-5.253685 11.057932 132.776611
7.425781 -10.017794 143.386124
1.872214 -11.362172 112.314682
15.664277 1.778957 151.579544
4.894685 9.376644 84.651604
11.148989 10.790928 72.261230
2.942205 8.629333 153.662186
-17.301315 -5.232663 54.999100
10.226645 -1.888654 146.504486
-14.329397 -4.357699 108.587341
19.772877 4.965123 58.235928
-5.489877 -9.003582 88.718643
-11.531471 10.953728 91.043762
-13.996875 -9.229349 106.538116
-2.353171 -2.371926 151.888519
18.328932 -5.729135 81.112999
-27.082205 0.046346 132.270508
7.318078 8.189557 62.282764
16.553408 6.614911 86.414551
18.095671 9.840070 145.622208
13.265363 -6.052755 131.305115
-21.283667 9.319468 146.813995
5.529963 12.506399 98.406784
12.787722 9.260451 59.326283
-20.129278 0.953880 132.939651
-11.639066 -9.301560 96.417877
0.095015 8.718029 135.275482
-0.969953 -8.728731 142.780869
-5.897318 5.615778 153.670044
17.354666 9.106643 147.401184
18.530033 -3.272559 87.239532
-15.564692 6.726860 93.396156
-4.748172 6.167104 119.731346
-10.985070 10.661843 139.019775
-9.095001 10.899437 133.382172
15.592637 -10.375027 133.218063
12.998501 1.435068 131.538803
-12.086754 -0.975810 120.256256
-7.994939 11.357224 88.248070
-6.507324 10.410577 129.178818
16.684896 7.916519 62.980843
-1.556753 9.524730 58.840034
-20.638626 1.311322 127.641998
19.773602 -1.977471 64.009117
3.379125 -7.536457 60.603809
5.056363 -8.356234 98.722435
11.709372 -9.147314 139.710785
11.700760 9.716860 150.813248
5.010819 10.493098 74.699959
3.100349 -11.380598 59.794975
-4.239720 -1.233367 153.343567
13.446604 5.303478 100.495407
21.282618 6.591426 142.496124
-12.468487 -12.445986 134.505783
-7.702489 -11.733732 108.399063
-8.294922 12.437127 135.996613
16.293386 9.827326 141.178741
22.510176 3.208330 139.401260
12.906628 -7.360120 107.353218
-11.089094 -6.993477 141.584671
3.258147 6.767626 59.666325
-1.333734 10.778050 80.665321
-13.765252 -13.683179 86.514465
-15.101477 2.520493 137.121872
-14.108070 7.067809 134.576523
-4.644835 6.786464 121.128769
11.769848 8.919203 149.650986
1.443526 -1.436891 153.896408
-13.901008 10.112538 68.387535
-10.459557 -9.088193 84.557350
4.148213 -10.263295 102.399887
22.182936 3.937349 130.903076
-4.351559 -14.566060 132.055511
11.262947 6.432031 104.984200
9.571920 4.064723 111.089622
-10.495993 9.586153 134.550568
-9.717860 10.480152 107.622887
11.919531 8.923879 88.639229
12.361717 0.053715 122.538338
21.528620 -2.860105 72.303108
-26.999592 10.139238 135.335022
14.017115 -10.663278 66.023781
19.208288 -6.228288 86.515259
4.283379 7.574846 127.623108
-0.971470 -14.575964 133.543625
-1.087372 9.314210 126.310135
12.606134 -8.398520 118.580574
9.313001 -9.350949 85.043633
1.367943 -8.998375 71.417923
-1.723727 -12.149802 130.285370
-10.551054 -8.565360 71.177612
13.299185 4.112170 151.951614
-12.844125 11.907196 55.501804
15.477182 -10.193319 75.385551
5.099878 11.069540 135.135010
5.590378 5.364974 117.634308
3.992567 -9.980703 73.926331
-28.616753 7.718175 134.860641
17.811218 -6.373991 76.492981
-15.030307 -0.823962 108.272476
10.165988 13.820589 97.256233
13.761862 -10.304230 81.161697
10.753962 9.895833 64.450951
-4.932289 9.324927 155.850952
2.200123 9.827646 76.486092
-20.174486 0.376512 66.748680
-0.855770 -8.637277 142.911942
-9.822486 9.462702 102.092125
19.735720 7.027702 149.091293
14.102782 -8.019210 86.719048
0.021379 11.480140 102.573311
25.576895 4.635544 139.155258
-19.846878 5.659009 78.908302
-2.172426 -12.549659 107.186028
-19.557812 11.434582 140.723190
-10.332342 10.632797 48.482243
-8.189108 9.324498 153.617401
18.398628 1.428171 88.460747
18.357691 -6.442890 139.287888
6.035193 8.862758 129.032898
12.657434 5.112017 130.296982
8.257362 3.367795 115.656624
21.791006 -6.309656 138.220642
7.600665 3.876815 150.181931
-12.506584 -6.030133 143.181015
-9.910731 11.072333 89.372581
14.673434 -10.801241 69.820427
-2.766990 -10.647294 70.366264
14.518067 -10.170537 68.551025
19.846830 0.089145 147.614944
-18.456749 -2.909534 134.862442
-5.130659 10.117062 130.197906
3.494992 -10.341611 83.092590
-18.329737 6.119885 58.355907
8.824205 6.355279 109.539375
17.968678 -7.603579 83.033089
6.197761 -12.957202 129.842178
22.199408 0.568429 145.112701
16.692514 3.731767 138.096237
-13.472905 6.942027 149.431290
8.607023 -10.319195 93.225449
-10.547939 -7.309219 92.000633
-5.864598 2.707743 120.084282
-1.911757 11.497217 64.157829
8.754491 -10.531466 85.413040
18.552937 2.771499 77.899750
-22.601383 2.099870 58.803448
-14.804951 8.651409 54.586613
0.900923 -11.236658 86.243355
-12.624030 4.090343 153.174911
6.356447 9.711406 79.213402
4.319801 -11.413832 117.532700
-3.575297 10.325398 84.000420
8.724086 -7.878649 82.264191
-6.613261 -9.282450 71.711060
15.383872 7.478208 74.291878
-21.693089 -0.418118 141.490906
-18.523026 6.958657 75.786491
17.616238 3.978098 67.564690
0.053818 -11.970624 119.314697
-15.988270 6.040472 100.338615
14.266911 -0.485615 103.296707
-12.756554 11.013765 92.311592
-20.520773 3.386342 79.345757
-7.943633 5.595488 118.016243
7.497544 4.883047 114.247047
18.365469 -3.692294 102.647781
-9.224376 -8.627939 79.280014
10.149708 -10.185201 114.238884
8.398997 -11.434862 115.242134
10.490760 5.470834 104.904999
5.060299 13.496695 96.887222
3.088835 12.957081 140.494995
5.047956 -10.086972 79.332268
9.204646 11.404702 56.760162
-7.595994 -12.728433 57.240101
13.183128 -8.041204 131.940659
-18.890640 -1.798169 90.631393
-12.535418 2.325707 149.756317
-16.736483 -1.641908 144.984924
6.063268 -11.085216 116.379692
14.276247 -8.827607 132.756668
5.211796 11.639747 145.704285
21.157053 -2.075805 142.780701
16.925980 -1.655075 144.178680
17.053696 10.905356 142.151871
-21.166302 -6.181330 133.359940
19.531462 -0.068032 84.871635
2.439318 8.644649 109.322929
14.282317 -7.040149 119.584839
-7.504704 5.088407 119.413658
17.046869 5.807598 50.848686
-10.268972 -10.712630 62.529984
21.162868 3.274246 148.088074
-9.577761 -15.513196 135.276672
-7.865151 0.241352 153.902069
-19.556686 4.509546 62.283554
4.440446 8.587998 78.784744
6.476103 9.859968 150.636307
8.050734 7.189628 109.957878
1.663761 12.587256 89.797203
0.378488 -10.772909 102.089355
-16.113819 -7.613888 101.576935
-7.504947 8.108065 105.654099
14.452510 8.624484 83.939018
10.025616 9.204782 101.759369
-9.120667 -9.293031 107.186234
7.666905 9.341008 91.305305
-21.005501 -3.480501 136.380173
4.368649 -11.308971 89.831192
-18.844074 -1.133403 98.385620
-20.431505 6.986481 132.101517
0.832195 7.382025 68.254776
15.724732 0.721659 111.125977
12.060786 5.311526 109.796478
-24.907379 -0.486225 134.019943
-14.900526 -7.104408 64.086784
6.025012 9.908833 83.192284
12.965729 -5.352581 131.620529
2.197492 -3.658449 150.608292
6.750405 -14.849140 134.708069
-16.444733 7.109037 93.677612
-2.757263 -11.286543 71.530968
-9.870985 7.464188 78.875511
17.066036 7.106646 63.723709
-1.877524 -12.659737 128.826202
-15.227097 -4.068273 112.013634
-15.888304 11.688166 143.060089
-10.772127 12.115850 76.745346
2.595918 12.471900 147.621231
2.534101 -10.584162 67.275131
16.733168 1.446777 103.138680
-12.392619 7.155864 151.701370
-1.955008 10.649489 120.786507
0.143128 6.991093 115.621475
5.169548 -5.448056 146.577087
20.304876 -4.235632 92.227592
3.718581 -8.459126 65.134285
11.642585 9.060905 103.640778
2.732274 9.228852 124.055969
11.893829 1.669882 118.189774
17.530796 7.548399 90.590904
4.471347 8.082201 120.768120
11.602160 -6.454507 128.279449
-18.549932 -1.350034 81.153152
8.573302 -10.100376 110.854820
16.518663 -8.492144 75.621185
-8.566701 11.969531 96.175743
3.856607 -10.546864 103.691963
-4.996211 10.154466 123.493095
7.507799 5.659613 107.473953
22.410301 1.934071 138.174606
-11.235873 -11.724835 129.112228
19.050610 6.280069 150.499893
7.424949 5.973824 112.983368
11.920671 -8.997443 61.500267
-18.720432 -0.888210 65.496399
19.073681 -3.994363 54.578434
11.107254 1.853828 149.560272
-12.993203 10.336330 95.871727
-11.459526 -7.151014 105.443893
-6.137228 -10.271089 125.795387
12.621966 8.584710 61.271690
5.261182 14.334332 135.334747
17.127106 -10.241276 68.179214
17.249022 -3.195563 91.613205
10.919291 -9.490836 111.377731
6.329483 -13.213617 127.825584
16.804653 11.946568 138.732544
-17.562611 -1.778996 66.045403
-9.945666 -8.074436 140.117737
-12.134503 7.437554 126.816887
-19.577728 -0.070339 68.518341
-21.209835 -0.957157 94.848213
-2.947302 7.484831 107.121849
-12.625883 -5.997640 142.874207
10.969018 6.347408 153.713211
16.045490 -3.225775 144.680908
-20.550711 -3.084368 57.741516
-7.233246 -6.856916 76.305168
15.903812 -6.765431 92.304115
-4.226538 -10.190990 73.135330
-22.119677 11.660319 140.612762
29.835829 2.269346 133.966232
-26.171879 -1.575984 137.334305
-15.842916 -11.136270 137.642624
16.066111 4.386688 59.229317
-10.528975 9.065457 82.688324
-9.074248 -10.507213 89.178627
-6.612797 -7.577261 66.083633
9.356050 -8.072782 140.609360
-14.977594 9.867414 66.133919
25.790928 -0.919361 127.072197
-20.179180 0.916440 77.722130
-16.619814 10.357687 140.171173
-12.437091 -1.859967 114.905792
17.077225 -10.068383 69.089836
1.919987 7.186962 157.356461
2.108020 -14.017826 131.786591
7.086040 8.658221 59.510239
-12.493010 -6.859849 114.875183
9.236197 -10.836596 63.645748
20.669289 -5.177766 71.118896
-14.796198 9.457353 96.259109
-22.253775 5.614104 142.557877
3.631845 12.898760 140.922501
6.857481 9.016903 100.655174
9.957814 -9.699427 102.270203
-6.677824 3.736114 154.026047
-17.197317 -10.201284 77.101669
-2.204150 -12.764380 128.890030
-4.216991 -7.408894 100.422615
-3.104815 -13.489464 125.574020
7.362155 -11.693205 64.612244
17.759785 7.689749 65.923752
3.256122 -11.487215 83.882629
2.586390 -10.073421 95.098160
1.130495 -11.504977 63.486778
-13.736197 -2.735409 144.267899
8.917907 4.035461 122.747139
