ply
format ascii 1.0
element vertex 2048
property float x
property float y
property float z
end_header
7.113699 -2.592267 148.783447
49.423962 -0.890647 104.124557
9.720278 4.307199 108.790527
-43.627636 -5.160244 111.363052
-3.009531 12.872694 99.005272
14.349929 13.716206 82.611115
41.594551 2.044190 105.877815
1.939389 12.811258 130.334595
-0.585177 11.635548 97.169846
-6.524985 6.465358 113.703423
13.503602 -11.695043 95.407013
-5.861357 10.707758 131.565475
-21.456795 2.681727 134.937454
15.814202 0.541195 106.192749
8.979684 5.268189 110.048416
13.342075 -8.313575 107.924217
-1.358377 9.988766 100.058281
-32.458622 4.028705 125.025597
38.234638 -1.711170 118.693710
-19.038639 -0.884840 135.357452
-0.031422 14.723979 145.048737
12.646886 13.581240 87.494034
-11.672210 4.214400 121.601135
0.719751 -17.493841 127.182640
-11.772876 8.493881 108.743324
-14.923306 -10.026954 110.327248
4.417240 9.776288 129.964172
6.338020 -13.195750 138.029968
-17.034077 3.962377 152.638290
-15.078936 -7.048844 130.579025
-9.365131 11.164206 93.241791
9.111351 -13.918612 99.856674
-0.457205 17.843874 83.676308
-20.868715 -0.779883 147.711960
-5.020844 -14.230145 116.974625
-4.518047 -3.711644 146.723404
1.511000 21.499647 79.764481
3.363200 7.140510 157.633743
-15.944741 7.261207 92.033379
31.875679 0.836450 135.199646
16.681215 -2.906192 102.294159
-15.622130 -4.448831 132.768280
24.581133 -1.144068 128.851364
36.447739 0.473336 113.015198
-12.935807 -7.500348 113.329117
-26.445286 8.828609 137.756546
38.652203 -0.117748 117.953308
17.595280 9.122581 88.458305
17.122908 4.193920 136.636826
-26.741323 4.321855 137.422531
-40.785744 0.038578 127.683151
14.679866 -2.315957 147.891891
-18.543186 11.095379 150.113907
50.677166 0.972271 107.877785
13.357608 2.312416 104.952232
20.888689 4.864005 148.835403
-0.486800 -9.945934 118.126457
6.498622 10.152818 143.836884
2.023084 -13.161517 133.403885
12.850645 -3.668901 123.471313
45.489822 -4.812605 109.255867
-5.052762 -13.798723 78.670021
10.532966 -12.186854 116.846207
-7.620116 2.913635 153.829590
33.067196 6.592039 123.753296
-8.581564 9.149288 153.229935
14.776938 -3.690351 113.367004
-19.514660 0.731342 150.797363
13.994694 -11.250276 86.245224
-6.632888 7.680491 120.583694
-7.651618 -12.178239 91.257614
-4.594023 -12.546013 119.597282
-7.966056 -2.893748 146.099167
-47.477154 -0.787719 113.267761
14.473293 11.832529 150.045761
13.467790 -1.112658 148.073364
-13.271680 -4.320395 106.054008
5.113787 11.029056 99.024208
-1.809009 -10.948147 111.906822
38.103695 0.112005 116.573051
24.766600 10.806570 135.339752
36.756260 -1.109256 113.146858
-12.196856 4.808080 152.537033
7.538738 13.406514 85.261238
-17.043127 2.095318 100.041084
-0.746736 14.508226 87.769981
-11.790442 3.309336 151.415344
10.463608 -11.933951 101.026955
-2.367609 9.694080 151.834915
2.134901 13.519161 143.207779
0.276053 12.106346 99.559502
-40.477844 1.589114 121.522644
20.251232 9.066710 141.287445
0.650274 14.316579 81.598328
8.778975 16.357517 84.271774
-34.952854 8.676241 132.173004
-12.535508 -6.101494 143.146942
10.719281 -13.780640 139.183319
11.127337 -7.905815 116.210503
-11.915691 -9.492184 120.074699
2.812164 7.326208 119.279579
10.094519 -5.455585 143.903397
42.367977 5.014866 115.451408
17.583260 -9.012189 98.495232
-22.278193 1.422778 132.598557
-0.950124 -12.511773 86.589752
-21.192083 6.381580 133.090683
-2.096694 7.565264 160.547974
-12.563004 6.388746 155.630707
-1.396462 -14.672656 107.996857
-19.822325 -4.149134 77.674538
10.567580 -0.788219 146.592407
-17.833019 -4.049088 75.992317
-7.181526 8.450472 109.822426
-0.485827 12.679832 98.671631
29.688675 8.411956 136.052719
-2.195190 -14.349129 80.374802
-11.663952 4.567603 151.210129
-24.542480 1.759193 142.222382
-4.976762 -11.982248 102.610275
-27.440788 2.491556 136.261963
-8.198034 7.129649 109.471466
3.810261 -13.682800 112.224052
-8.486589 -12.166145 106.084923
-47.040092 -2.957102 116.952347
-12.886312 -5.276610 122.640457
25.344866 -2.873026 125.583107
-4.947113 10.553843 152.951721
12.984398 -10.550332 80.006355
-11.130930 -11.693472 136.549957
-13.322573 -7.036052 137.803513
-12.655395 1.293740 113.794479
5.035191 -4.326721 150.533783
-11.663235 16.112329 82.434525
12.208570 -12.565068 135.187485
-15.777133 3.177457 134.573318
-2.194899 12.805408 88.069229
18.137365 2.999470 95.267845
-8.773266 8.145275 131.051422
-17.275440 7.937554 85.640007
28.567833 3.786359 129.140274
13.626225 -6.715774 121.155052
-14.077304 -8.513698 100.117424
-12.828643 10.852511 84.053177
5.295839 3.971458 158.533768
-3.468068 -7.494275 142.520233
-14.176278 1.621867 119.976891
-33.799011 2.651611 124.072395
2.222945 15.695979 90.746712
20.991604 10.058794 128.394882
22.708956 -1.800898 78.597870
-6.951687 1.614380 110.892952
2.026306 -12.024442 108.468475
-1.964065 6.822943 159.292892
-17.373802 -10.303658 88.439789
-4.213640 -15.023389 93.143272
-30.568653 2.736719 134.678513
7.566622 -6.584837 145.180023
13.186266 1.123661 125.099586
-48.699760 -0.324019 107.035110
13.992845 -2.008693 122.120300
-47.411198 -1.124485 116.741768
46.979164 6.554161 114.883522
16.125067 -2.486307 100.791985
-1.799727 10.478209 154.078537
-21.383310 -0.246578 133.163040
-14.225775 12.229191 97.912788
11.083271 4.073515 154.881744
-9.884248 0.576436 149.757736
-19.685072 2.547311 91.906303
-18.561361 -0.818444 143.648285
39.914257 -2.013108 119.525177
13.864103 8.457675 133.046844
-17.895334 7.294758 97.154671
11.863003 -13.240181 91.501183
9.107635 14.303322 86.301521
35.902496 0.423362 127.511711
-0.174835 11.268056 104.452019
-12.204203 -11.019921 85.116142
5.574749 -12.504879 77.956009
-10.926224 -10.116609 124.194702
-11.805809 -11.709227 136.901611
-15.373844 9.202928 142.159088
-8.502851 -12.645437 110.485588
35.867443 7.523228 122.497627
-12.688396 -11.974580 135.644745
-1.536009 -12.343701 84.088821
-5.763482 -14.066219 114.967674
1.233409 12.326892 132.086716
18.585146 -4.972892 96.890442
14.103316 8.562989 100.484207
35.927307 6.432637 121.549133
18.049454 -7.385200 99.293076
-12.942462 -10.679642 104.204895
-7.232615 -13.189203 114.546753
9.287462 11.225275 142.728500
-39.652187 0.634745 123.358154
16.624527 5.391213 98.670258
-20.524786 -1.974585 141.496262
5.725259 -12.755727 108.050247
-12.887165 -6.927317 111.181282
-43.684662 4.735672 116.501274
-27.633532 2.328711 136.272018
-3.788376 -14.446806 112.643959
-30.384321 -1.487865 130.887711
-4.960518 -13.626361 130.100571
-18.407213 7.292089 149.300476
-0.133553 11.850411 140.339874
-8.320282 -12.908386 121.405632
-32.128437 7.838152 125.408272
-14.113536 -8.601830 140.144760
-1.446233 11.201854 131.371185
49.078556 -4.855325 109.709244
-0.498430 -10.082304 134.514114
9.628102 -13.657640 95.257782
-1.995369 11.983149 90.292496
-3.032375 12.087750 110.205910
-12.710358 -9.049017 97.796005
15.500304 7.485442 83.405373
40.216713 8.817945 119.948624
-8.380961 13.795305 97.063423
11.324993 -11.474196 128.505981
-36.294781 -3.605505 119.097580
36.196701 1.199604 121.818130
6.420695 -8.796146 143.250122
4.729292 -6.678845 146.528366
17.108644 5.322981 95.961227
-18.608215 -0.435576 148.837006
19.388569 2.192580 90.484009
6.167675 -10.278716 87.809822
13.102183 9.184401 99.588989
16.185270 6.588459 79.468498
15.174302 9.159702 151.785172
-0.453695 8.513089 118.268532
7.566890 12.687200 88.135971
-12.878187 1.213488 111.544281
-19.696964 -7.567167 82.280991
-3.249009 12.333517 132.936234
-17.759399 2.972722 136.828903
-44.805775 2.207418 110.432571
-46.620029 3.385803 110.984253
-10.538326 9.572714 94.412453
13.976135 -9.348530 116.758316
12.972262 8.477125 95.962578
10.761982 -3.994785 113.572571
12.428967 -5.823856 136.822601
17.426912 -4.923359 103.297867
0.975820 -15.442839 81.950592
-3.895251 11.424294 96.827644
49.892891 4.711575 114.846634
14.926968 11.246669 145.068863
-11.009315 -0.649863 151.239624
17.597301 9.502552 134.683945
-11.001663 5.269540 127.604103
-2.140527 -14.442738 91.305824
-43.463020 0.629420 113.086273
-19.403183 -1.712541 83.135735
1.387124 10.768796 105.557495
-44.813198 -2.268788 104.847626
-5.078821 9.301057 134.784286
19.019041 8.907568 143.759644
-36.043217 1.286805 122.263412
15.629040 -11.104371 83.777023
-6.162232 11.495677 153.039642
11.555961 -7.701277 119.738441
12.452204 4.310245 132.154144
1.349886 -12.431617 84.931396
-0.461378 -14.282845 87.965897
-20.487961 9.153276 146.197495
-14.901904 2.587452 134.571960
-15.572654 4.262179 106.617119
14.248314 -9.062741 117.372078
48.978104 -8.340392 112.653084
-21.638288 1.783407 146.001297
-40.680527 4.581442 126.218185
3.727931 6.774602 158.352219
48.001141 -4.712086 118.086067
-14.354198 12.036286 77.484360
44.470661 3.091120 111.705254
19.149248 -2.850738 139.351456
-18.451801 7.350596 136.123840
-27.554340 0.336402 136.394012
-7.099026 -15.368786 121.602386
13.256231 11.178338 141.659302
-48.463467 0.587853 116.787834
12.043698 -2.177081 142.667374
-35.399860 3.177847 115.897858
9.114914 15.056822 82.654259
-15.802416 9.440775 141.313477
-9.979199 -11.427637 109.694283
6.735713 -6.140234 149.464767
-12.703133 9.908853 90.590401
-9.636713 -11.844461 79.893188
-53.720917 2.908670 106.486244
-31.872135 5.964024 132.472900
14.726312 -10.452900 119.384392
17.471252 7.290654 149.193115
-1.106791 11.260169 98.276680
-10.659309 13.200341 143.881622
-9.635813 13.135079 140.729202
51.793335 1.214690 110.125313
18.706734 -1.053936 134.203812
-17.250679 0.303885 134.750061
-28.917084 1.521974 134.037979
43.184101 -2.305797 114.581459
17.311754 1.601138 104.814568
-5.739471 -12.675055 131.750671
13.695321 2.417371 125.035042
-19.741077 5.180887 149.049164
13.412524 -1.660598 111.320465
-19.486286 -0.175164 96.557541
9.222060 -12.572448 109.429657
-46.388760 7.004560 114.877930
-7.195809 18.340853 77.725433
10.961248 -4.481606 118.229538
8.438303 4.166217 156.881592
20.596033 2.612263 91.396828
14.223936 -10.777508 92.668716
-1.572248 -15.128995 79.470955
47.308327 4.731638 114.931412
20.640587 7.452628 132.818817
-17.511488 -4.359657 93.186699
-6.242333 -11.668843 111.352264
-45.134590 -2.957471 111.773155
-11.551887 -0.928120 109.020317
-39.803295 0.847587 114.390755
11.801744 10.045904 135.940002
17.427635 -3.517618 104.161133
14.551112 -3.272206 120.811638
-19.692745 2.977775 87.385918
0.291864 -12.805459 124.849304
-14.979782 -5.230360 140.074203
-6.187167 -12.432115 113.313026
-5.634964 7.212293 158.559830
9.875351 12.247521 138.968369
-16.938732 6.547745 111.435287
12.868918 1.457382 115.238342
3.261570 10.964700 128.869080
19.924892 6.418103 82.844482
-19.561514 5.270505 81.175140
3.001828 14.885512 89.376686
14.034077 0.037411 125.489410
-13.348860 -1.609190 112.654610
-3.045047 -12.233818 113.583626
-8.404237 -11.505497 121.223145
2.212903 15.073194 140.027695
-4.328348 14.474390 144.542465
12.458579 -4.961068 115.951500
-51.117004 -0.336354 111.243027
-7.805440 8.213534 111.295891
11.044163 -8.606639 152.994415
6.324291 -11.979080 114.248848
2.187750 -12.669571 95.345955
-8.831623 4.659328 156.356094
1.712856 8.736741 128.900757
-19.752285 2.557521 89.680038
-0.486703 9.882131 130.376389
-4.365195 -7.688964 140.009964
2.073106 11.980653 143.523499
12.391142 -5.149922 122.675652
10.760865 -12.064415 96.259613
-7.464487 -12.359458 86.545181
-2.807985 -11.694554 138.322510
-3.560941 -14.596017 97.139618
9.950681 -10.274909 137.202011
6.493959 10.009122 91.114288
-26.353313 -0.886557 125.457497
-8.922448 -10.350060 95.057419
-15.505827 -1.550957 99.838280
2.949441 14.095922 91.669304
-19.128790 -7.397291 80.019943
14.114351 9.416688 99.074448
-7.433743 7.085259 119.839417
5.217155 13.148963 144.481689
-55.893345 -5.165011 112.058624
12.133214 -3.154902 116.946396
-11.895325 6.864004 128.953156
-3.837970 -11.922421 134.394531
3.773383 8.560788 154.916840
-4.225400 11.641180 125.333977
-11.699615 -2.852675 124.142426
-10.551888 -4.963603 145.443100
-12.362843 9.799019 80.652969
-45.632912 0.184027 104.586067
-29.319643 2.018196 126.147919
-3.401868 11.122934 99.448692
6.852991 -12.299932 104.052902
11.141612 -11.210279 88.809723
-38.076069 -0.063672 114.983238
11.486493 0.531561 117.054977
-2.502859 11.099117 117.181747
-4.303597 -14.489353 80.318161
32.763065 6.428233 130.594635
42.336746 5.135485 112.591492
7.633669 -10.654350 96.613068
18.251366 3.401853 153.434845
-0.097359 11.078544 113.987617
-52.955044 -5.490847 111.489342
-52.340305 0.400328 111.806747
-2.444597 -11.138058 80.675591
-2.451852 10.836334 124.586945
-14.628947 -4.912401 125.045799
-18.722300 7.070142 152.157898
54.268414 -1.221623 110.155937
-24.438681 4.686636 129.826294
-20.165123 -3.271091 91.404808
53.525200 -3.842361 109.923401
10.331835 -8.886178 138.339386
25.586145 2.861097 139.222244
-32.264622 4.125363 117.545212
13.083267 -3.492363 113.345253
-15.231707 8.416992 101.882973
27.493092 8.618931 124.000008
13.200765 -6.872501 132.990326
18.947912 -0.265296 90.298668
3.553666 12.280124 96.421295
10.603388 8.528694 128.157028
13.643717 8.081687 103.698120
-23.596239 2.583015 141.863770
52.000511 -3.034812 101.301498
-7.318899 -14.646364 104.867119
-19.400021 -0.355889 142.358795
44.304935 -2.209932 117.182205
3.769409 -11.368357 132.597336
-7.880797 -12.970649 86.231300
9.348293 -11.773433 80.090218
44.438194 0.371243 108.983299
23.974445 3.389486 141.156845
-32.956699 8.487102 131.371445
3.873770 8.989606 107.517036
-4.784176 -11.595036 129.070419
0.024149 11.514322 150.700424
39.557648 5.947031 111.967682
26.990297 7.035295 125.976837
-5.080582 -1.623073 149.936050
8.196966 7.727437 104.078171
-12.747918 -0.120194 121.587631
39.910587 6.212194 118.861809
6.173884 9.569482 132.974945
2.471820 -11.671561 97.524872
-9.425329 10.873021 101.983467
-3.070795 9.552742 109.537636
-16.707186 -4.365325 107.234337
-13.917174 -7.388291 115.891571
13.978447 0.392772 148.194138
43.084240 4.652489 120.936630
35.446716 7.716104 130.351761
42.543465 5.069636 122.163338
47.359715 -5.818261 113.873619
12.037885 -11.871724 102.679749
27.660843 3.908636 137.059418
-13.399348 -1.689945 122.865692
-5.231309 0.162265 152.543228
-7.154678 9.385337 154.200485
13.341021 -6.625846 111.704964
12.597467 -1.658177 119.943840
-32.391525 5.066925 116.132950
-30.079229 2.633224 119.024773
-23.847984 -1.356287 135.931931
17.283836 -2.188778 147.117355
-29.580938 -0.195497 127.210983
-47.720215 0.964990 111.183884
14.393886 7.119213 95.488045
47.971775 -4.234497 105.960121
20.990099 4.587731 143.645447
-1.698686 -12.392468 114.197754
16.401192 -4.286136 95.726868
4.996070 -12.127234 76.224876
15.658031 -13.350967 78.107574
7.056838 6.481853 154.283997
32.893402 3.619286 120.742210
0.947524 -15.770970 120.182747
-15.325549 -1.489962 129.415817
-31.944990 4.797743 120.389801
26.090542 2.042585 131.909515
15.946754 -0.510580 140.332764
0.256397 12.556828 95.031097
-4.879080 13.018115 149.829453
11.496442 5.564770 154.018524
-20.558167 4.949990 145.018356
-7.556477 -12.781389 125.388779
12.746120 9.551720 83.697479
8.010628 4.944280 157.182526
6.238101 10.898185 96.381927
8.315401 8.408889 100.792007
-34.090561 6.398207 124.496895
12.985483 8.249613 97.777534
-17.841143 -6.437129 98.470512
2.185750 14.229784 99.611382
3.973995 10.720058 113.669907
31.154428 8.624780 121.566803
12.770767 10.088215 150.162567
15.560149 2.702873 98.888687
6.310902 8.434147 123.648705
-11.644852 1.296889 123.737320
13.129582 -6.827511 121.241364
13.634336 3.324849 137.155930
20.214239 -2.719320 83.359993
34.908646 -1.419498 123.690742
-5.310519 14.723119 132.619888
-11.382653 -10.217353 94.911720
-7.526829 -4.708127 147.590042
-19.820461 -0.037626 78.653038
-49.459034 -4.209442 102.324745
2.743272 14.926138 81.986130
-1.782883 -15.428911 125.024017
10.063157 -8.169701 141.677353
15.700973 -1.762587 143.618042
-8.326472 -13.626082 137.503952
-11.522692 10.024694 124.000366
-5.209708 -13.640700 72.130638
5.444223 -15.325736 128.923080
-2.583992 -14.330671 82.904694
-39.298130 1.095665 128.770401
-15.822891 -4.248880 132.306030
-19.801077 1.917032 150.140625
-34.204727 6.669031 119.286751
-34.505623 2.173284 130.208664
-9.879937 15.342334 84.112373
27.376265 6.320874 125.616203
-12.506766 -10.171825 90.706154
1.164134 9.003086 157.568024
-17.024702 5.114105 85.393982
16.656284 -0.222475 108.654411
18.127508 -9.346889 82.573868
-6.361550 -12.988989 129.307693
16.580751 3.936648 150.550507
-21.112280 5.818883 76.058601
-38.347385 7.429286 117.494255
-11.102396 -12.926516 103.506508
-11.892670 12.422705 73.915718
0.639075 -11.827073 140.761780
23.367220 2.476065 141.785477
10.066046 16.279034 77.643806
-12.885999 -11.239112 108.652679
-32.861584 0.357998 128.076035
15.644056 -0.217265 151.786652
7.064297 12.094975 146.615005
-14.446278 3.443665 127.597557
25.434797 8.111381 134.477066
6.138638 -10.245647 80.433945
-1.552520 -14.440392 141.190155
29.256485 9.608743 128.004868
0.062282 11.527538 104.160774
5.706317 -12.323856 129.410568
-14.864643 3.996395 135.309219
-7.244825 -15.569251 95.920403
-15.418385 5.594083 149.635605
-5.186193 -4.619405 144.589172
-2.071496 -14.401854 123.381264
9.132357 -2.135936 149.165619
26.088400 1.805427 135.626312
2.016243 10.743121 155.345428
-11.197677 -10.824136 79.364624
-12.237770 -9.693993 100.146873
13.377846 -0.447879 148.098480
38.493820 3.564312 126.267654
-14.561939 -11.403433 110.772186
-18.061081 2.107418 79.591408
-22.255419 9.236712 133.507584
-12.174506 4.639946 109.491653
7.716007 -14.278990 129.018097
9.484307 -12.077419 92.108086
4.265775 -14.843643 122.543640
-34.808079 7.103268 123.283783
-29.010902 -1.297870 125.294724
-26.049847 1.427973 128.480942
-5.735285 -9.359187 145.335342
-22.330317 6.958251 134.275269
-44.618111 -2.156931 111.182610
12.514616 14.295887 78.447365
32.296440 9.806578 125.960052
13.175271 1.113528 115.033409
-16.533325 -6.434894 130.701553
50.101429 -1.762489 106.299347
-12.271059 -7.734306 124.723373
1.440956 8.318378 131.937195
1.575913 -12.741905 121.117279
-10.117245 6.803370 156.708603
1.513238 14.491886 86.047440
-14.518363 -4.959691 105.509216
12.783042 8.859607 85.795395
-16.505686 -3.947650 109.543732
18.486954 -4.494226 134.889511
52.275192 -3.037704 113.697266
-2.192331 8.670278 131.341614
20.156704 1.825587 136.092865
8.853863 10.065348 137.890427
4.401175 -9.353740 90.196495
5.025283 -13.135245 85.984161
41.510071 2.812471 111.117950
38.877918 3.846440 114.505028
-12.591460 0.549940 128.554901
-14.756261 -8.382525 107.303917
21.554037 -2.843477 77.016411
27.245018 10.149638 133.180237
-52.893940 -8.091805 105.724915
29.407747 -0.114027 132.778412
-43.012619 0.856257 111.495331
13.573156 -0.556666 110.326431
4.062651 4.385405 150.401749
-12.462475 -9.826060 106.985901
-31.895044 8.646268 125.980339
-20.625999 3.901410 96.097641
15.513329 9.453566 78.674187
-17.173439 -7.995744 131.519333
18.933664 -6.224484 77.940147
-20.074820 -2.471020 143.114304
-19.961866 1.105888 134.499985
-14.812998 7.699854 96.583427
-13.808668 11.773995 85.248413
-16.893633 -0.565584 135.042664
11.246640 -12.130354 105.430016
-12.106302 -10.512862 131.214584
11.922542 -0.605164 119.869339
-14.191480 10.191281 141.830933
-23.259270 0.477978 131.935394
-12.115696 -10.210633 84.541252
9.818538 1.214556 151.233780
-47.970928 0.893036 106.986099
-16.155540 -4.795610 130.834747
-25.793236 1.534907 130.117142
8.300636 11.725188 99.494431
5.933878 -13.744081 108.341545
23.897072 1.906095 129.933502
-37.802162 -1.665477 121.922623
13.835011 -8.534972 115.855247
-10.021175 -7.881359 118.507896
-18.877113 8.783702 141.158051
16.596764 -7.831153 101.960754
52.659233 -1.739406 114.403427
-7.134646 11.314516 93.399300
-40.491959 5.135307 116.296204
5.277467 11.683193 156.045212
13.504008 -2.418921 111.411263
-5.553029 -6.222092 148.818665
3.792807 -9.591923 142.234131
-13.649486 -8.562863 78.164207
-14.582017 -6.102413 115.491783
-6.879366 -12.150244 104.774223
-6.294438 9.149285 105.459381
2.344929 -11.520876 129.380112
-17.853010 5.131505 136.235397
-11.992764 -0.105237 124.936562
-14.247568 -9.343902 97.232323
9.939934 5.589668 116.894867
9.672767 8.993684 152.540573
-3.269432 0.611131 153.470093
52.247803 -5.000917 117.932610
-13.011772 -9.579459 79.142548
-15.623292 6.699478 78.471153
31.987164 2.136360 118.229179
-20.394571 0.263358 94.290207
-29.824072 3.672575 119.155045
-10.784032 -6.381733 143.664322
12.901258 -9.398660 80.978813
-49.388405 0.749584 104.893517
-11.994794 12.894298 145.670456
-50.618282 1.940620 110.048210
3.617988 11.212234 132.056931
33.536251 -1.247692 124.820213
18.050909 -0.710915 93.732140
-5.093998 -14.055686 84.665710
-37.569355 -0.577887 124.720665
-13.812571 11.005553 82.906700
-23.138966 2.370295 142.819138
-13.823712 -10.716007 83.851196
40.662743 -0.118552 107.433846
-13.062709 2.527329 110.529160
51.304726 -7.477061 109.044441
19.544861 6.038674 151.726837
-11.462855 -0.863339 122.037720
2.883133 6.192621 119.926132
-11.621872 -1.163053 130.881012
12.319624 3.003389 126.473297
-10.402243 4.713377 113.128273
19.157393 -6.129845 89.502365
5.256089 7.715564 109.455574
-20.561552 3.145694 84.252762
-13.479970 8.553937 102.852325
-3.470351 -10.413350 144.038361
-3.677193 12.191057 131.983368
30.931820 0.357714 122.578369
-42.763870 -2.894212 110.492516
-52.329247 1.912039 112.615295
15.634438 5.576181 93.356758
9.986017 15.533172 80.232185
26.519253 -3.179587 126.889832
11.338508 3.672568 126.347214
-8.572437 4.359991 117.792664
-18.834000 -8.014683 83.856506
6.489693 6.130225 114.734665
-12.349473 3.580301 152.632126
20.385845 -1.069097 97.028984
0.093932 13.184999 102.598557
-14.904230 10.614434 148.191513
20.685593 11.018456 148.307480
37.892460 0.368975 112.151901
-16.125551 7.558240 137.819855
-10.352481 5.253847 121.406754
16.460859 0.993695 106.849586
16.327805 8.842804 146.903259
36.055210 7.217367 117.548065
14.655412 -5.942850 107.994164
0.131082 11.622739 102.406181
12.021317 6.193742 109.237198
-18.499432 -4.164431 140.380234
8.345584 -2.660060 146.435745
-2.114862 8.871314 159.366882
1.845195 -13.305149 106.796677
-8.078843 -14.433570 126.825157
11.025378 1.549771 154.124969
-41.851627 6.863508 115.167358
8.704225 14.439245 76.757996
-25.403091 -2.370128 137.147659
-11.072768 1.656268 150.605255
-33.973255 8.910254 128.054993
12.362638 6.458161 114.689262
14.217859 5.496575 148.679016
19.878620 5.591687 82.981049
12.061223 9.855770 149.617371
34.046906 0.424191 128.700470
34.685566 7.142866 123.810089
35.309483 9.631828 127.539597
-4.567654 -12.249066 99.161102
-17.562393 7.131796 133.011887
11.930606 -10.587756 80.818977
-27.434866 0.395464 132.763275
20.544872 0.651797 85.021606
-28.233582 0.833733 126.020317
13.683436 -10.491138 136.000336
-0.709340 11.838305 111.261169
50.703789 -0.511696 120.425171
5.603583 13.808381 88.710381
-16.642595 -3.452789 108.562218
49.104439 5.250981 111.209244
-46.546173 -2.837394 112.089188
8.495431 5.327855 156.785873
32.661957 -0.491459 130.111191
29.155649 2.250022 121.348000
43.159557 2.712670 108.057137
45.395458 3.390800 110.240303
-40.135464 1.032622 124.542953
-19.120443 -3.987094 82.238274
-1.965096 6.475353 152.797684
6.193871 -11.794412 125.771164
-13.548817 -1.761171 120.472900
2.752963 16.733114 83.623856
-12.170036 10.720331 96.557114
0.027970 -11.745087 86.299454
39.650318 6.970420 122.736351
16.872561 10.200672 93.345078
-2.574284 -11.563462 106.356918
4.502515 13.981973 141.130478
-1.272531 12.019999 93.650162
-23.895224 -2.139449 138.972672
-11.699216 -10.930334 127.184723
-13.905521 -1.216238 145.593048
-0.982452 -12.905506 81.119293
-8.816823 -15.018727 84.955238
-9.986485 17.549431 86.784256
15.507524 3.840348 147.816895
9.845658 -11.495588 91.701515
11.651340 -8.079032 119.747681
-34.433487 10.548546 128.041916
22.022066 1.528308 148.425766
16.948591 1.479483 106.399658
-23.700518 1.694851 149.504822
5.380673 2.645689 160.585159
-12.839398 -8.678030 122.062263
24.593628 8.209736 125.557251
0.491589 9.704952 85.477348
-15.849223 5.330494 150.858887
7.141845 9.951450 97.502983
-13.492941 -11.858031 96.017891
41.400028 4.290182 115.132080
-9.659351 10.987854 82.266212
-9.120310 7.716716 111.934685
17.153246 -8.591022 133.642746
2.021951 13.978301 89.692757
18.287626 -7.716904 87.022720
42.038288 6.617979 117.154610
-23.253101 4.647495 142.726196
13.326222 -4.673980 114.352005
11.817316 -11.082566 134.347000
-15.323158 -2.327091 121.792953
2.259461 14.100758 96.960602
-8.281968 13.329140 93.806007
46.892269 -1.070001 105.575287
-6.546624 13.582844 144.913773
16.216412 -7.803876 84.847244
-11.365964 2.405959 118.304176
-24.407480 -1.105584 138.490555
-5.226346 11.725294 96.709526
6.944797 -12.994313 95.343575
33.440029 2.755544 121.197128
-14.766764 -10.334211 119.429939
-1.811156 12.231719 87.901543
-11.601679 -12.438329 137.046768
-39.520535 1.557822 123.391640
34.592823 2.570132 124.121902
14.052828 13.842389 89.949913
0.077523 12.979682 141.010986
-5.412346 9.670689 102.656181
-8.852092 7.280560 157.030136
-53.261463 -5.540462 109.236122
18.832792 -8.922041 78.426933
-6.467791 -6.829805 143.551788
38.469440 -2.835891 123.886253
-17.043982 9.269142 141.041016
-0.087033 -12.635324 140.421127
13.469839 -2.792661 104.393623
19.780807 5.678449 78.821053
19.033258 1.257435 91.523071
8.992506 9.717868 144.527939
23.673586 -1.587002 137.044388
0.859569 17.401663 81.453552
-25.981640 5.650429 138.009735
-44.320072 -4.735867 111.928436
-46.037273 -0.126434 110.074814
-0.061809 -11.070344 93.248459
10.354467 -4.096384 125.624832
-14.517112 6.623806 95.537392
-10.146093 -14.634821 121.855354
6.076759 7.367509 108.400818
-9.102202 14.398618 96.895195
-14.950779 -1.415920 149.151199
-8.821541 9.470239 154.611542
-1.324381 -13.333465 83.832542
-42.920315 -7.134197 110.440872
-1.733982 7.787556 107.702133
17.117640 6.594998 132.667465
29.024691 10.723141 132.840485
11.590054 -7.606959 114.370750
19.484970 0.319382 81.525536
-6.869318 9.568044 126.679146
-13.985750 4.573958 156.520859
7.510232 9.708781 148.987762
-30.093601 3.194462 133.202530
1.715940 -13.827779 131.398605
-5.202403 -3.845178 146.853836
16.736326 -2.628793 144.556046
11.687547 10.775221 134.980423
17.967247 5.833329 92.092331
-16.036339 -2.360082 100.656540
9.832192 0.372597 150.955688
-9.255357 6.131886 122.990028
-6.760565 12.453153 141.473709
-13.194132 4.182900 103.027138
-23.161097 6.973545 139.665955
47.525169 -0.172465 116.365051
-6.155473 7.088556 106.479965
30.344604 -1.558791 123.761414
20.605303 1.641856 87.559425
14.891472 5.655982 94.855293
-26.514524 9.991848 132.322372
-11.575885 -6.727246 123.488503
-15.118965 -3.578116 138.895889
10.523582 12.438076 140.289062
11.523882 -9.472900 91.719109
-1.129640 -12.381926 88.397202
2.686798 7.705781 105.986633
13.702559 -10.486952 97.631294
14.478998 -4.547921 106.090363
-49.727718 -4.035886 106.634415
11.553910 -3.747110 115.479172
12.609247 -8.768676 109.142036
-1.832825 -12.883054 78.021614
-42.444374 0.818314 110.746284
-16.711985 -2.823555 144.844223
-21.284407 10.144937 141.144852
-12.334642 12.066266 92.193756
4.754189 9.281992 119.852127
-11.298331 6.629016 112.059860
5.334789 -1.300700 149.028946
2.878502 10.237692 152.299072
-11.945550 -7.372159 116.388870
0.127983 -14.895067 124.388756
9.056149 -13.381084 103.094536
15.122044 -1.193043 133.936890
22.385529 7.602912 144.271851
-17.057142 9.217977 93.562187
14.028132 -4.000638 109.565872
-54.102718 -2.450356 114.054657
25.536831 0.983635 131.177704
18.611053 3.644827 83.057281
12.934093 -11.666909 139.938858
6.191716 -13.638777 102.326607
5.557776 14.547579 146.554596
-6.528168 -13.411260 91.624519
3.649241 12.849932 83.015144
16.563292 7.840671 80.871635
46.808018 0.260720 109.477303
-11.164176 -10.005516 124.540741
-16.385725 -0.108117 104.201698
-10.276850 -1.977845 154.618622
-8.356221 0.597795 151.771637
39.152763 5.899212 122.378334
6.102687 12.148446 101.591835
16.599714 5.315638 105.314255
-2.652364 -8.915807 99.513283
48.581238 2.918262 108.377228
25.086573 9.261734 134.023361
17.914040 2.485596 153.979996
-37.588257 3.446814 113.592667
-19.127350 -5.179602 85.364189
13.589198 12.513570 78.182625
15.638580 -5.922279 72.806839
-14.933427 7.091785 131.278900
-49.148422 -6.479978 106.686356
-22.514463 -0.718425 131.845947
-6.175257 7.999646 104.519409
2.530342 -11.470906 89.309006
-31.024796 8.512280 121.899071
30.535694 8.587426 123.174133
-2.597087 13.062251 90.738495
28.708094 9.019334 128.211914
-21.820501 5.928284 131.695938
11.214864 4.531655 155.612091
11.064299 4.615911 113.907188
39.239845 3.150130 116.807648
-16.829317 -6.168396 81.415237
-16.377487 -2.407074 97.780037
12.113517 10.526542 147.276215
-49.355495 -0.113900 116.112358
-18.584040 1.324798 148.807343
45.940533 -0.370231 121.026680
-10.997424 9.274064 97.298889
5.532115 -9.849896 144.682312
-4.823354 -1.800531 146.569839
12.951824 1.698870 105.075760
51.016151 1.731114 110.393776
18.192398 8.402285 82.513100
-9.951093 -12.600494 123.878143
-36.345798 8.917352 124.040100
18.920765 2.777756 82.596535
-12.182887 9.227554 137.412125
-0.267904 -11.314892 89.365410
-1.179882 12.539444 139.802643
6.346096 6.403485 126.885086
19.735037 -1.716998 87.070053
-5.852281 -14.990271 107.196556
8.298505 11.738344 135.850403
6.121131 -3.256356 150.532227
40.663654 6.583845 119.090775
-7.041640 7.416997 155.618256
44.032284 4.916491 115.588455
-15.162337 5.292015 90.421448
-16.689251 2.397489 103.071243
18.077583 -4.974128 134.087845
20.867365 4.835318 133.554230
1.612964 -11.542757 94.097099
-10.680285 -10.863474 134.256424
8.447581 5.651788 123.408829
12.954909 6.712338 104.002792
20.711838 -6.835225 80.324654
-18.786287 -1.785551 78.428421
7.299795 6.378201 118.361053
14.813703 -2.022028 114.620964
-6.157106 -12.568834 113.579216
-39.494419 -2.183352 115.189430
-46.760967 0.412456 118.230614
13.321164 1.870596 130.739029
-7.706867 15.537445 79.245171
-49.945763 2.795444 111.249413
-19.420584 6.148183 134.072311
15.545545 0.369143 133.051834
8.921979 9.755463 125.093353
-5.204772 -6.525388 149.636307
9.418422 13.327961 90.589951
-6.200549 13.445642 148.253998
-13.031828 -3.127264 117.000717
-6.688512 -12.895459 75.622322
13.438522 -10.506577 118.463097
2.099683 13.516680 92.846588
6.962465 -10.901515 115.269081
-14.378890 4.563075 107.262062
-14.868574 -2.864472 117.272545
-15.920931 4.065927 94.540382
-11.466386 7.569941 99.697296
-0.242001 -13.528126 115.574646
8.503191 7.838332 124.528740
3.152073 -8.281634 148.948456
-24.482704 4.855887 132.760513
46.409950 3.741830 115.104553
-10.213636 0.550013 123.811424
5.198182 -5.560673 139.068253
16.700516 -6.621441 134.031937
-10.450738 -9.698968 108.196655
14.172918 -9.523031 78.953049
-9.532827 12.115450 132.585464
-49.809853 -1.404861 105.517967
5.548275 -15.118814 129.025711
-9.404233 -16.001539 83.390945
13.599606 -9.989161 89.045135
-13.218958 -12.294276 88.211166
0.857947 11.722519 143.940842
0.369314 12.298131 147.196442
-4.647447 11.491592 149.060623
49.896282 0.947112 114.889755
10.435224 -6.869761 106.218689
51.076534 0.973593 106.568169
-15.189827 -2.008821 115.394913
-18.384874 9.809806 139.372650
14.484653 -7.547643 102.885857
12.447050 -13.034379 130.580612
-44.848900 -6.321843 115.618439
-14.098274 -11.873793 111.815285
-16.391697 8.939822 139.477341
-1.010107 11.288808 139.288345
-14.468271 -2.351504 117.520874
-16.254723 -0.331528 100.632706
25.085909 8.195765 133.789703
1.877416 14.008803 82.903091
-9.127158 -0.059379 152.244583
18.648712 6.172947 136.129074
-43.369110 -5.131032 110.297546
6.428781 -14.705832 102.916801
-13.574369 9.221830 98.116707
-32.403919 -2.284309 124.893677
-14.670292 -0.343732 102.807297
8.745309 5.016993 127.036583
-8.555035 0.281776 152.356232
15.963798 8.753683 152.038284
12.736300 3.436044 121.584625
-28.251505 4.868802 138.729080
-14.248063 7.394005 97.954666
-14.017300 -5.264913 107.594063
47.627178 1.408586 113.114197
-13.209393 0.879694 121.449753
-51.299393 -3.478625 113.416412
9.472060 -6.053494 123.407326
-10.780214 0.899210 148.416443
-21.279785 0.919697 81.862755
6.069104 8.398640 94.867058
-0.511622 -15.443418 85.162872
11.477172 -8.227223 119.408966
26.347887 3.295623 126.447227
-54.197079 2.242892 113.709068
5.620929 8.490740 91.408615
-47.397362 -1.192342 107.124229
-17.394806 4.270010 85.416435
-18.120573 -0.602183 88.378197
9.576951 -3.503105 148.027679
28.947796 3.808785 116.597923
12.320634 11.979259 100.300591
3.250129 9.668484 149.829346
-10.033281 -2.000617 124.440659
-23.319916 5.545133 78.791031
-0.526343 11.195178 150.246338
-12.881377 10.975003 86.372414
-14.124399 -7.934632 125.642609
-28.296989 7.719764 137.914795
4.787160 8.197071 156.717529
4.102677 -10.824020 98.824921
-15.565825 -7.130169 82.036964
14.594435 -9.083549 85.703674
-17.690853 -11.926438 82.856712
-11.195807 -11.261232 122.275284
-11.401462 9.236887 102.355263
22.670193 1.384470 138.140656
7.241028 -11.009786 79.427559
-15.188505 -8.290356 107.313988
-12.268604 2.443522 125.654480
23.244356 6.713261 148.573776
-40.803463 2.724508 119.223572
-3.707042 -11.412021 82.108002
17.625841 -3.847909 108.190491
23.107796 -1.469149 81.339417
21.595650 2.417155 131.299820
12.983469 10.513206 88.824669
8.850033 -13.015421 113.751686
25.120197 3.996493 129.689331
11.483730 -11.745999 120.363571
-8.420741 -14.308313 86.469933
-14.423195 8.071601 153.806931
1.712278 -10.631449 86.832428
24.272974 10.441503 137.216293
-39.448067 2.029316 123.603546
1.389840 8.247006 157.879700
-5.750661 3.714047 154.830170
-6.774912 3.153277 154.043259
-38.706337 1.362431 114.790337
-17.036165 1.480858 99.730057
9.588347 4.015743 121.967773
48.440659 -4.628120 110.609085
2.026775 -10.359238 137.510986
15.584803 4.305241 94.128899
-11.690952 7.878756 133.094803
5.715021 7.599503 108.705971
-17.541864 -3.219255 91.147873
2.482034 15.058219 84.776566
19.698677 6.203086 80.230171
-5.971328 8.780206 117.437592
1.752009 -14.427508 133.020874
20.117134 8.533920 83.923820
-28.363026 3.216164 123.954910
2.384959 -13.218776 122.369598
-0.984723 21.376715 75.057053
-7.407290 -6.871646 146.242203
15.907594 -7.506383 137.407089
-3.310353 12.786841 83.856667
-8.129737 -14.989952 106.279480
-7.834513 13.412064 134.566360
9.848813 -13.843518 80.933334
-9.917242 3.895617 108.018593
-37.774792 8.281575 118.394081
-8.920242 9.208061 124.889053
-17.379316 2.133905 154.618652
-5.467057 8.707105 105.570793
-41.462093 4.899820 116.953499
11.381217 1.469352 115.578018
43.304195 -0.584975 123.281776
-14.852880 3.933894 89.293175
6.063120 11.123647 95.606529
6.134622 1.683279 152.826080
9.926764 6.489759 126.589142
6.673667 5.311133 114.320717
28.467148 6.671681 126.109856
-13.621214 -10.627173 110.843948
11.960411 -9.591135 121.406418
13.670067 -8.972198 77.769920
-13.787689 -10.191803 121.868469
12.606910 -7.683428 106.970085
0.083308 -12.149978 91.194962
-14.973492 -1.803505 147.625626
-7.906092 20.372742 76.413910
0.707260 11.393455 112.936638
-13.824465 -6.723544 139.737473
13.252026 -4.907385 119.034019
8.905078 -11.603219 88.428268
5.480167 7.247683 126.381332
-11.912819 -0.541971 118.686340
11.636798 2.958189 113.142937
9.191053 5.406879 123.036522
6.561053 -15.331207 129.599915
10.000635 6.023528 118.663857
5.358654 -15.122960 90.518318
17.136633 -9.180193 97.779709
11.994382 -5.260888 127.483627
13.205698 -6.553953 129.495972
16.272966 -3.930637 101.856613
-13.484166 2.119634 152.525848
-50.436726 -0.198882 104.187759
-12.970888 -8.359654 110.951492
13.115486 -3.693759 147.157410
24.498398 0.326666 137.597885
-28.952606 5.124112 127.126495
-9.346793 -3.571268 149.802521
16.264088 9.671299 93.716736
15.380445 8.586768 136.832535
-33.206547 4.329554 132.124649
8.663132 4.997293 158.741104
-36.046089 8.051973 122.095650
16.586582 6.163491 150.997437
-15.487887 1.645392 151.524719
0.843604 9.897652 160.991959
-11.364044 -9.288354 107.614037
-15.372843 10.452504 92.982437
-1.742157 11.693459 121.850433
14.251210 -0.682693 128.254974
-4.090453 6.756710 157.552811
-9.943766 -10.866733 134.102844
37.817055 2.645990 126.622421
-25.886250 -2.453328 132.016663
17.413315 -5.120678 94.037086
25.038738 2.244458 140.946609
-30.221479 8.015009 130.661118
-51.687397 2.525858 112.898071
3.453863 -12.298937 87.187424
-25.264162 4.062280 139.654541
-38.095585 3.506752 117.609978
15.411045 -1.117918 107.221855
27.389454 9.657045 132.496506
-18.665535 -3.112020 138.157959
21.196173 5.558895 129.875519
-16.912920 -4.152680 111.113068
-21.430567 -0.536297 131.623230
48.263878 0.955036 105.875641
-25.476294 -1.639810 134.899475
-4.806390 3.627460 154.666351
16.271482 6.205760 106.829109
20.897713 -8.621685 75.902908
-19.296164 0.250720 134.793472
-8.508694 13.491664 145.485321
-8.457414 7.733112 119.373932
19.349709 3.292115 81.775993
-20.518661 3.348032 89.949356
-32.622604 7.108167 126.362686
-32.003685 3.711272 121.262764
1.484627 -11.434752 114.459862
-10.067536 2.795990 151.436417
-14.206929 0.065890 112.057442
-20.174816 -4.904030 80.066650
3.032093 12.148400 94.678764
15.224296 -3.502800 141.577606
0.775049 -14.310636 108.715828
-5.698658 -13.647843 133.892670
-3.295480 14.324872 81.134361
0.354898 12.711237 87.560883
-9.368811 7.455237 119.988106
-1.059418 8.799258 127.672783
-0.019022 10.494562 97.840446
-46.861839 -1.769364 111.627335
-22.740246 9.352749 127.857697
-12.727194 7.107880 99.012367
5.225081 -11.923800 90.636589
11.922922 -9.807451 120.090141
-16.081450 -4.789078 104.518311
16.034861 5.587594 104.866158
39.726715 6.901380 121.104385
-45.848808 -2.641970 109.683807
-54.435444 1.928499 109.000092
-13.351842 -9.600604 121.686821
21.816032 -4.431037 82.887306
-24.921581 -1.570082 136.683212
-10.502215 -0.023806 155.062790
13.861445 -3.569743 122.127121
-16.402634 2.501748 79.900604
45.170006 1.090629 108.106621
-12.678639 10.657818 134.785126
45.324375 -5.122655 114.817780
19.541634 5.218553 151.266861
-23.804876 5.719214 140.953094
17.146906 -4.431290 140.996246
55.586544 -2.840905 109.657356
-9.618986 -13.019894 126.419685
14.597050 -11.164823 140.309570
-41.537636 -0.467186 114.081253
10.129696 -10.182725 95.861763
-3.231104 8.730289 117.134109
28.577320 3.593621 125.647385
13.598049 2.447854 117.089119
12.004159 12.346397 140.558899
-4.523612 -14.044874 118.200417
12.273096 -12.503181 132.132248
7.637359 6.149044 120.342949
37.673077 -1.641913 112.277519
-35.109909 0.811308 128.638474
0.275223 7.551148 103.017395
-23.613728 0.754178 137.814819
31.015760 9.296467 122.752113
15.939902 -7.454068 107.316383
-13.675231 1.725264 151.572708
14.846407 -8.461693 109.175247
-2.431213 12.889000 143.975342
-24.422926 8.799673 129.244812
-24.128508 2.270536 143.532974
14.352104 8.920887 89.230560
48.332325 -4.330229 101.712753
-5.347875 9.141105 139.497574
-19.766174 -2.801558 84.362816
21.793888 10.393971 140.862320
20.330711 6.480811 146.071960
-10.267310 0.502098 148.425049
-10.430746 -1.574692 145.446564
-48.299149 1.356589 102.070961
1.252891 13.789178 149.806015
33.979309 6.495603 119.651131
12.359123 2.479206 122.659134
28.315413 5.658985 125.655495
33.689007 8.567834 117.743782
36.129387 5.146357 117.827980
9.569498 9.475101 132.532837
12.116069 -9.475585 82.778633
-22.581211 5.354880 143.974442
5.255346 -10.418268 80.781044
11.125046 7.039238 109.874222
7.676397 9.957305 148.453568
-7.961546 -12.191543 135.647736
-6.647347 -12.853583 82.657127
-4.634288 11.840924 150.497375
-14.251677 -5.657487 127.046898
-53.220985 -0.166962 111.854919
11.266156 3.120988 113.033333
47.214844 -2.915885 113.702934
-15.940393 -5.839025 137.106171
-7.019174 11.747212 151.452408
8.746284 11.162758 141.457001
4.941165 -11.378163 105.003883
-13.274524 7.931981 96.426437
-3.926135 -13.874361 133.529922
11.557434 -9.783020 112.732521
-29.998344 4.658956 131.013092
-4.110224 12.186875 148.577072
-18.601284 7.442459 147.378525
2.289470 17.440283 82.635880
-29.888268 5.396720 136.326385
-3.127434 12.657130 94.925285
13.651217 2.608028 129.741882
-13.913247 8.661001 145.739624
-9.377430 4.294352 112.513977
39.209419 -1.617573 112.562943
17.507797 10.013954 145.641907
8.871956 7.145743 153.364624
-19.228802 -0.745664 100.413429
-4.010311 -13.348275 88.336395
6.257185 6.644249 115.741600
33.349693 3.035186 133.478531
-17.078087 -0.774167 105.310181
33.189075 -0.662897 119.434273
-4.999932 12.415480 94.239746
11.816365 9.082134 81.835152
-18.315672 -5.053101 81.437935
37.115654 6.895322 121.853851
7.323298 -11.923995 88.790047
-8.977221 14.728284 89.148026
-22.739912 12.082464 138.823730
6.973746 11.562722 98.131233
11.043975 -14.289713 132.801056
-13.759847 5.669938 94.112427
1.217037 9.182118 110.318855
2.077186 -12.773937 114.453033
-46.998627 -5.918964 112.808929
13.013103 -6.931066 111.548523
-9.939404 -12.835443 101.866333
-7.510699 7.708127 154.268692
-18.956812 -1.771363 142.204666
-9.166260 13.310031 139.604584
1.783663 -12.268045 99.650429
-12.557652 8.809250 86.511436
10.276659 5.277100 127.892433
-3.262116 -15.646839 78.309265
-8.470819 -14.846597 113.244705
-37.493774 -2.476482 111.771194
29.835022 -0.697622 124.982071
-40.776070 -3.273432 114.517311
-30.468782 3.564575 123.983932
-34.305939 5.000196 132.098846
27.438408 -1.115744 129.843796
4.440851 15.643289 141.832779
6.852409 7.891463 118.143730
-40.681721 5.053411 112.739830
5.041924 4.951278 154.385895
12.110254 11.313947 87.643517
3.847224 -10.905441 106.292023
-3.967709 -10.004845 138.585281
-32.774853 -0.286996 118.720184
10.460041 2.719347 118.819191
-4.662632 -12.089406 136.915253
-5.020546 -14.329302 107.448341
-35.577847 4.116758 129.956451
15.379160 -8.015189 99.368294
42.897072 -0.975585 115.667961
-9.649904 -1.490973 147.682724
10.735857 6.612568 118.357704
-4.352718 -14.567554 91.270653
14.831109 -6.082238 117.321266
19.776138 3.490109 84.308960
-18.036606 -6.152248 138.180588
21.430313 1.025893 82.195389
2.344851 -10.394324 142.943771
15.086810 -10.544804 105.622185
-9.569225 -11.127803 91.844727
30.376324 3.231391 122.445915
3.759803 -10.516036 79.810699
45.199219 -2.951822 119.053360
-25.345581 -0.385070 136.236343
0.872203 8.636166 117.938759
11.721679 -0.760540 123.374931
19.516972 10.044631 141.527588
-14.412513 8.642420 135.705109
-28.766241 9.590136 124.745224
8.150867 9.781647 130.854385
-11.267589 -6.904715 134.471954
-10.727965 -10.746923 120.774498
33.657558 6.618411 121.079132
-15.114595 3.994874 93.376587
0.287002 -10.697309 109.446480
10.509963 -1.298030 117.824577
-41.492966 -4.996498 117.012733
6.113478 10.153361 127.229042
16.384167 -6.431623 83.812881
-1.756531 -13.895064 88.487938
-14.936779 8.214169 78.158897
-18.785912 -5.580808 108.941185
-11.909023 4.527853 102.268288
-39.869690 5.475897 117.399025
-32.617390 3.745084 116.843094
-49.426292 5.619267 109.772560
37.060753 1.992687 127.023445
12.670405 -12.022504 108.640518
0.311977 11.202996 153.102173
-19.852757 -3.643725 135.326599
2.368118 12.729907 139.237656
49.734871 1.569332 115.073784
6.049218 -11.622406 79.221313
-1.593732 10.298674 117.065407
16.462152 3.844875 152.458359
19.368441 9.587667 137.932999
6.875196 11.186304 146.045395
-32.833763 6.867518 120.127831
-31.498480 9.309542 127.548462
2.553012 -11.922483 92.343971
39.449375 4.290530 124.727837
15.300425 0.164021 101.161362
-11.862677 -6.880080 119.977386
28.332245 0.752221 125.025330
-49.145790 -1.477807 103.419312
-9.228509 -13.176678 105.602654
-0.601035 13.074131 95.869781
11.192910 -12.311309 91.940575
9.910760 -10.414179 118.235664
50.649277 -1.145554 107.821815
1.331756 11.866392 86.835083
7.221916 8.033914 112.235275
-12.555041 8.888820 131.247070
-4.204044 -16.112534 121.295036
1.815521 17.082390 81.731300
-19.162037 1.743778 81.463783
13.769906 -2.935796 152.070435
9.452280 10.001249 128.947327
-35.147709 1.544765 121.424744
1.401381 14.538265 92.081863
-20.629999 -2.349620 89.480179
3.433120 -13.040090 117.168747
4.679034 -13.538857 113.101654
-30.415052 0.990009 123.552917
-16.096390 -2.010261 142.499100
49.901215 -1.127051 104.015800
-40.044319 7.591087 120.762398
48.921017 -2.411674 113.924339
21.724094 10.221003 131.004227
-22.212410 -1.634265 132.815933
-10.464143 7.438298 108.865112
-8.136371 15.020196 85.223488
12.495205 -9.441198 131.182693
-45.712269 -2.616719 107.472130
3.504352 14.312960 93.746750
32.951710 6.875337 118.494537
36.378407 6.703241 121.085503
42.720734 -0.488090 124.420708
-5.767879 12.350554 96.725952
47.682007 2.045119 113.362900
-23.359728 3.670611 127.487869
8.823339 9.897157 122.885544
36.929886 5.660731 117.795204
-18.123356 3.006850 84.689034
-23.626646 1.182270 130.586380
8.892741 -12.039642 77.837334
-18.513796 9.237117 134.030914
23.201775 -3.050330 90.310875
-11.326612 12.558503 91.448235
3.751476 12.456441 152.146164
-4.198145 -11.743758 117.729980
20.903105 1.631994 133.566177
14.288301 -10.994999 111.858147
-9.170346 10.167435 147.896347
9.858319 -13.025147 92.520622
-3.722041 -12.510490 112.131279
-5.525548 6.110870 126.995773
-20.330915 9.075620 139.841217
9.780435 1.985638 121.781258
13.764058 -7.239259 117.584702
4.159955 12.873392 137.702240
14.304445 -4.961760 119.332237
-20.232117 1.551810 148.059448
-0.686711 -21.654253 130.852280
5.215104 4.306601 120.089890
13.221268 1.347075 147.584930
-6.349977 6.983354 119.735725
12.385797 -11.325711 127.422157
-0.413760 10.727272 123.721519
9.884245 -9.855750 89.457710
-44.099758 -3.427146 109.010841
6.506577 5.013212 156.312698
-42.421696 -0.319548 123.033180
12.133829 -8.024894 119.193626
12.087147 -12.563249 134.304718
8.806705 -4.887296 144.095230
-19.748821 3.336429 132.949738
-0.940234 11.195083 142.046234
1.432659 9.343060 155.273651
13.595546 -8.953581 120.217552
39.074409 2.639259 126.938461
28.237652 -1.879856 137.934708
-2.090902 9.218348 124.807869
20.902227 5.877823 132.261185
-7.133231 13.494235 145.324188
-4.502801 8.454896 105.292404
-7.430523 10.541271 102.766960
6.474302 -13.262878 96.376801
-6.823593 5.293694 107.673294
6.081493 7.357605 114.257751
2.329626 -14.155274 110.023743
45.168056 3.285587 112.498451
14.851465 -8.247090 139.583755
-0.132476 -11.710141 122.518639
47.901443 -1.371884 104.925949
6.604048 9.679255 116.643410
-6.018937 9.264588 117.626205
-4.652904 14.578588 90.044930
9.271585 -10.850802 119.707253
34.733673 3.617524 128.187027
30.231304 0.766157 127.805145
-12.808491 -11.585954 86.995071
-27.774395 -0.214980 132.479065
-43.667072 5.166541 113.875740
-0.911658 -14.576408 77.905785
-18.817694 4.226068 133.187515
16.685917 -3.009480 133.718689
15.703347 1.151534 135.059814
-15.011211 -10.521949 85.547401
-0.230937 6.457794 159.477097
12.930327 -1.251287 111.816002
0.648060 -11.563012 113.708374
-16.102169 10.811690 142.413406
-12.427106 -12.839397 99.660194
5.425129 9.605929 131.068680
2.974904 13.893186 142.718399
-15.326461 -8.925701 107.871025
0.967936 13.839547 93.014442
31.819656 7.768647 126.348190
25.363874 -0.762833 126.011276
8.663713 -10.152000 102.598686
6.041390 15.423565 81.544823
-14.106163 -11.619103 109.266449
-4.896084 12.507307 89.731712
-9.460835 -10.981659 95.795258
-12.376294 10.136395 97.346512
-6.255358 10.230966 132.217987
-6.832738 11.788180 99.195076
17.715363 -4.809206 136.368439
9.529200 14.876247 95.290703
-16.550030 -0.150811 107.861366
6.745524 -13.164515 95.373901
15.114541 -7.409086 102.757698
14.959723 -8.221064 111.592163
-4.190330 16.791702 77.971977
-17.034746 7.712517 98.015450
17.051899 8.782732 91.606346
37.913898 -0.301413 117.120636
-5.973286 7.613323 114.037071
-18.255978 10.412280 136.277252
14.768559 -5.073786 106.541725
16.545462 -3.474351 141.666946
-11.408363 14.343823 146.796982
5.723682 11.499996 151.098053
8.383847 -9.075437 89.285027
44.958889 1.804418 120.221024
-35.414112 4.566216 130.167694
-29.102661 5.094799 137.257797
47.301781 -5.069553 107.825882
2.132612 11.031436 143.050201
-18.104650 5.859200 136.266098
5.607049 8.329520 155.334015
-0.265609 -15.309232 136.642014
-13.203836 -5.502156 109.508507
-11.755674 12.695302 87.372757
-5.231033 10.996844 133.287796
16.914417 2.881919 149.996964
39.294643 -0.747589 120.477615
-50.522465 -9.008265 107.484871
-8.738234 9.612869 102.204285
-11.166649 11.235235 96.200195
-17.320934 5.031436 83.223022
-42.670517 1.607204 113.307602
-2.251314 12.705261 95.959969
15.067039 -1.130993 115.781128
14.511215 -5.517476 111.181831
3.299784 -10.814243 141.518188
12.125428 -12.890248 122.932617
16.077616 -4.537080 109.114578
22.882549 2.441846 129.449814
39.854046 4.106760 124.235809
-0.559301 -12.251600 138.757553
-47.662540 -0.272115 116.801804
-7.187135 -4.975198 148.659286
-1.641652 12.994573 99.530220
-11.889706 17.671265 76.120544
3.691947 12.974554 92.242798
15.651217 -6.518170 121.267845
-14.002339 -8.979874 80.003288
-29.359140 2.323532 134.008667
-13.316980 -10.691517 99.059052
-19.269966 -6.387967 85.753265
11.087583 -3.524460 140.194656
-54.296410 3.071706 117.306084
1.548065 -11.791224 104.143875
-33.685253 7.609210 123.144875
2.245879 -8.804026 83.393784
20.393017 -6.906224 95.860146
-7.157522 0.975963 150.771561
-15.510611 3.388815 101.086372
1.252329 13.206809 89.581512
35.980679 8.271062 123.599625
-44.080502 -4.190399 107.328995
-5.954413 -15.540330 132.099747
-20.513124 6.001964 147.127579
-10.556481 -1.103843 123.276581
8.101526 8.038741 115.541916
-33.733768 0.374105 130.590775
-43.576859 5.314677 119.117844
-13.888655 -9.262688 97.140266
20.504066 12.237321 143.362518
-4.804085 -12.284731 83.674637
-11.272629 9.858720 141.697952
-35.532234 4.987824 128.434998
7.618247 6.960307 112.380013
-18.653046 -0.777999 135.732620
52.175316 -5.297664 110.383804
-6.793731 -1.414856 148.016632
8.488734 -11.163471 80.574211
-5.811480 -12.464864 117.781448
23.986851 -1.148825 130.746567
-10.505314 -11.838983 115.266228
14.445042 2.754337 108.202240
-15.910086 -0.521197 111.526123
9.154613 11.067114 104.146942
17.093292 -3.304814 97.772369
-4.273501 -12.320175 104.720337
26.709831 3.040661 136.104507
6.613481 -8.658459 140.994965
-19.733711 7.957888 86.327927
-9.984335 -11.036445 102.029831
-12.714614 3.928254 114.564171
-31.345671 6.982086 130.412567
-25.262465 2.653460 143.368042
2.380826 -20.520550 134.548691
19.735151 4.784646 137.525192
5.182970 -14.727243 97.178993
-13.217045 -7.490062 112.842773
-54.730816 -2.168126 115.290558
12.166679 2.649550 155.567902
-44.519863 -1.251479 109.537331
9.518203 -17.417889 131.454254
4.131534 7.073611 159.500092
38.738613 -2.276494 115.863113
-2.382848 -13.180888 132.405777
3.429583 -13.322961 96.730759
48.298813 3.897126 115.745049
-23.851036 6.738181 147.838943
4.122495 9.287462 123.336250
-8.381106 3.415581 155.587250
13.098302 6.735787 132.547836
9.283699 8.567032 131.018433
8.088189 13.424109 141.164429
39.181450 1.481011 113.823128
-14.969481 6.247712 106.173210
28.705637 6.676124 130.834763
3.059392 16.239286 87.005852
-8.113151 -10.872928 74.463760
33.701344 2.274215 118.975616
-2.283716 -14.659685 131.690353
-48.260754 -1.073927 116.449425
-34.453400 4.784622 129.306152
-17.039040 6.398497 89.128998
40.664944 -7.675672 115.666298
-31.035309 3.857185 126.080093
19.387402 1.457950 149.468872
6.350534 1.902876 111.943268
9.431159 -11.643078 81.122383
-44.324856 3.547818 114.005157
45.302113 -5.008338 106.263092
24.965929 1.130421 138.586975
9.391447 -12.925026 79.133942
-37.648251 5.124716 124.655060
-46.121185 1.205104 109.626091
3.005828 -13.970982 124.582153
-14.892409 8.859646 86.051102
13.906056 9.149457 81.252708
-13.484180 -7.328274 104.726486
20.759781 -1.039174 139.038559
33.733471 7.687176 119.254784
16.809946 -4.078727 133.786713
-15.400812 6.461099 94.985008
-5.533716 -12.714198 104.195183
-8.775721 -10.999461 117.398468
15.037280 2.981731 132.256775
20.003082 -5.795947 82.357765
9.551722 11.781857 142.123276
-2.698010 14.799743 94.588943
2.959310 15.394551 100.790031
20.468472 1.244518 149.439087
-14.645847 -9.914352 129.780075
-13.605999 -9.092476 91.026077
-2.615461 11.766116 107.168640
19.240826 -4.306339 137.409012
17.246914 5.188426 100.273796
-18.148918 -10.564711 107.547340
13.970500 10.969719 149.981964
-9.427835 6.585734 121.898109
-52.532833 2.903875 106.838951
0.360279 -12.056635 111.502144
52.870228 0.583278 105.106987
19.791983 -1.714162 135.019806
-0.813999 -14.850477 89.883926
3.522848 9.030665 155.681885
-5.815102 -14.014893 95.996956
-20.522415 -0.886776 134.274307
10.930723 -10.039433 137.771255
13.126060 12.138510 147.659714
14.221470 12.665524 142.282501
-0.717310 9.793026 136.433624
-11.459015 -13.364281 134.034012
-43.648205 -2.090204 113.390923
-32.762386 4.661869 131.081970
-4.355987 -13.774647 82.207733
13.348855 8.540864 146.424622
-1.129954 -20.003391 141.033752
-11.105030 -7.010456 118.553444
-18.520803 7.305331 80.834862
-10.524380 7.118278 121.821213
47.851059 1.249780 121.635483
11.018576 -9.598560 103.077194
-23.149904 -1.473961 131.171021
-9.661475 -12.175571 112.734200
-24.571177 9.821498 135.840729
3.442652 12.222251 109.073509
18.998419 -2.655948 102.229515
-20.883533 9.783991 137.444458
-12.620720 3.305369 130.303055
-17.698036 -3.422648 134.059174
-20.783575 1.836247 82.828857
5.290067 -11.233457 123.282433
-2.424338 -9.517798 88.740891
16.895824 3.567507 97.011139
13.324090 -9.817885 130.701752
7.927728 -14.699802 125.886887
-11.218228 -15.092533 81.623161
0.281623 -12.252884 84.134888
3.577286 -4.549501 146.998642
-46.011276 3.729716 113.166916
14.635205 6.045355 89.066872
29.525677 3.236528 124.352188
2.560673 12.878532 143.047684
-8.303899 11.230816 94.769783
2.227723 13.552527 97.873619
26.835297 8.558385 126.855072
17.008301 -7.592513 78.551567
2.559169 -12.823407 126.374573
-21.158485 0.965768 139.979126
-23.797750 3.356809 127.761566
-17.884693 -4.495018 93.133209
-30.442642 7.024547 132.314407
9.277966 9.349493 155.024124
-14.383572 -2.699592 140.155045
-14.125812 13.053112 96.856560
13.660966 -10.372437 112.162643
-23.141535 11.726749 136.673798
-5.337955 -10.988129 92.978157
-3.832825 -14.237904 86.627884
12.993576 8.942059 92.465897
-21.574564 5.186264 148.837540
14.638734 1.835620 131.484604
-11.391207 11.686189 139.000092
17.220440 -5.879405 99.119240
14.955548 -7.923275 106.499161
-3.525045 -9.492700 143.717056
-23.246599 1.784030 141.426208
-27.828690 1.596220 132.221497
3.886306 9.635142 101.644913
-28.391085 7.499816 125.249825
5.651637 1.124218 153.295959
-24.655067 0.196442 132.898270
6.386945 -13.603551 85.005753
18.855942 -0.126271 87.031082
37.862503 5.777454 121.455231
-5.038924 -13.625310 134.230225
9.704635 -9.842772 107.977882
-9.266750 6.029048 121.172287
-17.962158 1.026297 101.814949
-24.856798 1.548183 142.991211
8.964831 4.366274 114.219101
7.246380 -11.412503 118.976982
45.357540 -0.914424 123.385178
41.492096 4.198991 114.471214
-6.415237 -3.836964 143.653732
2.908263 17.892233 78.108276
13.477361 0.237891 119.839989
4.826430 -11.726260 128.671799
17.651352 -6.809166 92.514313
14.832781 -0.373849 148.970795
-20.178768 11.210983 134.921341
45.721607 -2.226366 118.609344
42.911060 -2.185859 122.019150
2.792554 -10.221021 104.923470
-1.245260 -12.471264 81.823494
11.458577 -13.031431 80.342026
16.493574 5.946347 95.111259
1.294008 12.329123 108.340355
-15.902609 -11.185769 114.541809
-7.154850 5.019705 156.920822
2.739507 -9.910644 140.687088
-12.242270 13.159712 77.713844
1.114177 10.967465 150.811096
-4.219747 -3.622867 145.224472
48.146667 6.762674 105.722115
-0.466282 -13.343657 89.802376
-14.500216 7.642961 137.307816
-12.689394 -5.458723 126.004021
-47.807682 -6.386809 110.239006
14.122963 12.818048 81.836754
2.993177 13.501787 137.563477
43.367920 -2.337002 112.612244
-19.114979 5.050421 92.889381
8.789844 -9.699046 125.758163
-27.803177 10.771770 131.827682
-45.093067 -0.437744 111.955017
3.037820 -15.209315 86.918877
3.559464 -9.616127 80.013634
-14.348093 13.033359 134.750351
3.948519 -8.200525 145.914032
42.590714 -2.333662 110.616798
22.755589 6.914882 131.163651
5.285521 9.997202 122.849190
-12.658578 5.585376 126.327255
-8.993081 12.674490 86.352760
0.260088 -12.543646 113.152931
-5.496999 -13.046008 115.279999
-16.785370 6.174350 89.838989
-49.857281 1.155097 105.448845
14.381110 -5.739187 127.277534
9.299107 -12.741215 127.633873
4.478985 -12.113527 93.763268
-9.407535 -11.448483 132.815414
-17.745892 -2.095505 144.091034
-10.213150 -12.954183 114.752052
-5.458549 11.876236 117.158379
35.256512 7.072737 131.840576
-16.892109 5.867475 92.597092
12.153625 12.473155 88.433723
-14.928797 10.611091 139.385162
-35.105984 12.626543 121.272644
-35.456791 8.021935 121.245209
-17.799723 10.288332 85.466927
24.547453 8.100143 131.045609
1.311845 -12.448985 109.387489
17.087683 5.212760 136.015259
9.019064 0.979924 154.390808
-15.731050 0.772852 131.528732
16.367289 11.361421 140.477859
-19.221193 -8.285989 85.642273
8.342525 6.548979 127.582932
2.762603 14.979011 140.164246
-32.287560 -1.984348 133.419525
9.384163 6.765745 155.711304
21.221823 10.534557 136.248383
16.414888 8.055328 83.019852
-8.185811 13.350441 138.556244
1.578581 7.394017 159.595337
10.885070 -9.190203 112.940796
13.075570 -5.357132 138.115417
2.423450 -14.877671 79.009613
10.350970 12.329541 79.979927
13.716421 -11.588826 83.305252
-26.917952 1.431127 143.751495
-12.753516 -7.259037 118.431969
-13.930513 -6.329274 109.574013
-33.650677 4.723983 121.696716
-12.239310 -10.991102 135.084518
-1.695702 -14.146927 86.602890
14.798286 6.217069 134.953491
50.394886 -2.515385 111.621948
-8.921896 7.380019 123.185509
-6.423470 -10.973055 99.986023
-19.307461 9.041717 145.660843
-4.441058 15.333304 91.754112
-14.511503 -11.797812 78.099060
-14.693658 -6.228737 110.544853
11.327745 -12.469266 85.527054
18.980984 1.852720 133.516968
16.259914 -4.082796 148.349777
15.812107 1.112304 135.545059
-11.436172 -10.469706 83.057503
8.405259 -10.736121 140.151566
-5.350422 8.795589 126.510887
14.118822 -4.549080 105.725571
12.499363 -5.882823 140.674194
-3.510809 16.618658 85.108017
9.580870 11.793931 143.910172
-10.193128 10.656520 132.453110
-10.579340 3.363577 111.958862
-14.675248 5.777884 96.548073
-25.752213 -3.388380 135.589355
-1.936125 -11.500885 117.061378
1.184986 10.576885 108.626694
-39.232960 -2.843051 115.137550
-1.680688 11.175255 142.638977
-6.445123 11.678215 117.117378
2.700788 -10.461976 101.499069
-0.254872 10.088438 95.257660
10.216247 -10.136117 140.282959
9.283198 13.762079 82.339851
17.853550 5.956851 134.328735
47.031033 2.051794 104.413994
-12.414810 4.520805 114.975670
-28.448227 -0.655084 135.124374
13.420278 -9.715635 139.689926
-53.007141 -5.287354 107.040939
-8.715129 -2.443149 146.156357
-2.805873 -10.024717 145.343994
24.706444 -0.055729 131.081970
-18.538139 -4.714880 78.831383
-10.927723 11.852266 142.562851
14.693197 0.810350 107.734093
-23.233679 -4.562393 84.919693
-30.071827 7.386860 136.106857
-17.124592 -2.965548 89.848862
-14.556294 3.056654 136.603790
-17.422714 5.809789 135.971100
-23.995747 -2.334348 135.652344
17.555771 5.700572 90.693581
-17.244404 -8.117437 100.787407
19.244146 1.387538 89.356796
-10.670946 -7.019028 138.969147
8.970470 -7.686822 139.689560
11.544749 -8.126700 117.413521
-5.321890 9.040209 105.538712
13.720804 0.250406 109.170685
23.790621 9.960488 137.096268
17.728306 -12.179767 76.296211
-9.070142 3.960145 118.215263
-5.268304 -2.869695 152.634216
-31.364365 3.611789 136.934738
0.469623 15.399486 154.629913
-18.374723 4.686654 90.298538
-8.946537 -14.120755 88.247406
15.348333 -7.157615 108.699295
-15.000595 11.764209 138.509979
12.589023 -5.927814 122.054436
-8.878265 15.995864 86.700531
39.869137 -1.327426 120.530556
-43.954685 -0.095600 122.900917
27.275568 0.669784 125.830994
11.817524 8.813582 130.753693
-47.069321 1.131527 110.492264
14.973870 -7.675466 102.376045
-51.917217 0.521546 109.005867
0.384421 -14.556059 97.192963
-30.196512 6.458412 137.283371
-8.972021 2.285772 156.524841
44.985470 3.690824 105.616302
9.213670 11.975322 83.602104
20.662783 4.283566 83.677299
-12.555965 1.114537 118.124580
-29.226543 -0.717358 124.493767
3.010955 -13.531072 127.076904
8.223071 7.594447 154.105637
2.462003 -9.238386 107.766747
-11.004574 -12.001518 117.140823
-12.623599 -9.230181 108.903358
18.386206 1.768643 147.854080
6.587652 -10.389432 94.077492
-19.446257 1.316579 144.283218
18.201546 10.916894 137.400772
45.374580 4.823290 112.665718
-8.431902 4.433403 122.093826
36.971416 5.474290 133.708710
-3.269874 -14.081780 83.972878
-45.028233 -3.957042 114.668671
2.052973 -10.924428 89.108994
5.058747 18.125448 84.989761
0.894476 -12.314081 131.309677
17.013893 -8.638103 132.127960
-13.376181 5.413867 132.291977
9.766981 10.184182 145.241974
10.480081 9.159956 152.634598
5.007908 -12.523451 142.783630
9.922450 5.570757 119.110382
17.952894 -2.320090 85.285828
-8.417256 6.088705 109.126350
16.735373 11.245776 136.477463
-20.716686 0.721568 147.379608
17.784082 -2.306972 141.288025
20.621622 3.489270 137.603043
5.260951 12.969132 130.645264
-13.635296 -6.137692 111.805107
-3.951864 7.555514 156.488754
-12.690309 -12.989273 87.887070
26.297768 -0.066094 133.876389
8.648378 -13.171065 107.005569
31.518766 -2.754728 125.919037
-3.703214 12.713751 136.103348
13.564157 10.559661 152.459198
13.533875 -6.133455 123.825050
55.321365 5.386518 118.555672
-14.295981 11.809912 80.316048
1.851218 -11.801687 102.115463
17.574535 -1.805490 140.949066
7.899086 -10.567419 119.010292
0.077572 -11.906251 126.364952
20.854553 1.066305 134.352203
52.277222 -9.373320 105.250450
17.189936 7.910639 74.316895
48.105377 1.120403 116.949127
-0.328154 -13.861715 122.023720
38.752983 5.151865 124.291832
-42.550179 -2.631940 111.503654
5.041918 12.776363 96.531326
-9.282954 9.113440 127.295815
-0.339095 -12.406539 84.861908
-44.604095 3.513728 111.074211
12.393314 15.203218 84.628441
22.116951 1.338354 130.209396
24.250984 -0.149237 137.851685
11.850966 14.163476 83.237846
19.628231 5.207201 88.801468
2.649038 -10.231472 83.556458
6.656128 4.243948 115.576363
-8.039607 5.744506 120.849518
-12.508125 4.761456 112.980904
-47.059071 1.763270 109.688377
40.686935 3.157889 111.737694
7.535214 -15.624820 113.335609
-4.248536 -17.126682 87.085526
-9.038614 -10.133621 125.962700
12.013911 -2.071905 148.023071
37.054478 -0.408561 114.714523
6.277904 -10.991961 137.318741
14.060310 0.737578 148.457611
18.833969 -5.381161 87.455078
-34.179096 4.550506 115.805756
-14.001051 -9.466767 107.622749
42.794121 5.123525 116.096558
-14.125213 -8.572939 125.890472
35.224274 7.020087 121.657936
45.246761 3.446794 112.972794
-18.247782 6.574644 133.283905
-13.480556 -5.185282 134.589737
-12.643977 3.362259 152.019714
-17.715464 -1.486391 101.059105
14.940852 1.140258 113.585434
22.915424 6.476360 144.081009
-13.880850 13.411744 144.951706
24.287268 5.706412 127.425171
-9.129316 8.523875 127.319740
3.820061 -14.712893 137.880280
5.067510 -14.780479 106.534943
-24.483486 -3.622822 80.905312
-23.231853 2.057073 81.405502
-39.920265 -3.999787 112.929970
28.898994 -0.044525 139.381165
7.380898 -13.097613 80.157745
3.162553 -16.709898 80.233841
2.184285 -14.170056 128.952316
17.436371 -1.165546 140.608749
1.495044 15.717494 87.305252
14.114700 2.258475 102.451591
-19.232342 0.499201 100.451775
25.462254 0.785381 127.291519
-55.142902 -8.516807 107.155319
-8.130394 12.083047 147.298660
-15.417142 3.975676 152.234375
-27.291588 2.930946 123.672859
17.419930 9.655891 147.433594
42.111076 6.607401 116.474854
2.593719 7.864623 155.214798
