ply
format ascii 1.0
element vertex 2048
property float x
property float y
property float z
end_header
-6.526680 3.686029 42.071194
-10.903646 -6.056081 74.290955
-16.655491 14.760855 25.503036
-13.938638 4.252930 25.931740
17.520496 6.151682 56.014023
-7.750676 -11.767118 96.941170
-22.322674 -0.412216 86.182442
27.046249 8.059785 14.631067
-13.315034 3.451190 127.295647
6.680298 8.720456 111.728760
15.319558 -9.064141 50.096588
-12.584963 -8.209330 82.512825
-12.847882 8.517218 102.962471
-15.126437 14.175976 44.947842
-16.940760 -4.721233 9.168340
18.549074 -0.964059 92.663589
18.973331 2.340149 87.197701
12.198709 9.674837 35.137741
-13.624441 2.618752 9.651014
-9.237805 -12.943142 133.992905
21.549780 2.924619 20.281166
-15.760832 14.386384 25.712975
-3.699342 -7.948688 142.288452
23.872232 0.843611 47.527630
-19.312841 -4.233102 9.106718
25.296417 -2.706506 32.441494
-21.961729 -2.077547 9.699424
-16.123255 4.612714 14.481183
-8.398540 -8.844155 92.440598
-5.951035 1.244515 71.627892
-0.390825 -12.695494 116.606552
-4.874643 -11.475803 136.318497
7.705149 -2.388945 63.034584
11.177860 -6.889430 73.363274
2.294748 -14.628911 132.512665
13.364786 10.126843 88.895004
9.287803 10.923665 93.017502
3.810889 11.128514 96.523132
-5.388813 -3.054929 78.403641
-8.826320 4.790345 61.390675
8.497651 -17.394529 132.653046
10.597449 3.181981 39.871582
15.516123 -6.119284 20.975986
-21.613451 2.128999 60.680138
25.280819 14.328688 1.412242
-3.946281 -11.852031 138.268188
9.367319 13.019256 142.721588
-6.001375 -16.467079 109.062561
15.914497 -2.844361 27.567886
-22.484474 12.170606 7.034791
5.511668 13.960555 93.736519
-18.621641 -3.429836 36.935375
23.724268 11.067561 30.973225
1.790449 -6.592931 91.717232
-4.551924 -9.845451 82.830475
-0.793633 3.386889 84.675064
19.620510 5.994483 67.266083
-22.502701 -0.078973 82.754799
14.438545 -8.795373 128.086319
-11.998837 -1.691350 125.470589
-12.464913 11.912163 144.430862
-1.472097 12.705891 87.617928
12.818179 -5.044037 41.637737
10.950816 -0.393035 28.403931
-14.949368 -2.942593 32.135124
11.945383 4.203463 107.925468
-8.862391 5.260031 113.833008
-13.827121 -9.484179 58.761578
2.711598 14.947688 139.490341
-18.105953 -5.847762 17.948154
-13.692968 -14.334126 135.038651
-14.746227 7.210388 59.881775
-12.048216 -8.900447 135.416351
12.574533 -2.810131 15.928220
11.207074 2.647706 107.878342
3.106782 -10.845004 104.145714
-13.897122 10.692592 53.730026
17.684610 13.425309 14.889483
-22.641500 1.652144 79.051758
12.522571 6.799879 37.047878
15.327334 -6.397206 123.430107
14.020885 1.259066 41.181313
-23.932364 7.760578 36.866528
-20.795408 0.538300 13.513214
9.181019 10.968273 152.269333
-1.924323 7.147274 81.878159
16.832750 15.899385 28.176077
-13.901365 -12.239107 86.034088
-14.676100 -14.864340 78.866219
7.296101 -2.573904 149.895081
17.057314 -3.349788 55.583794
19.017988 -7.395800 68.576645
11.815531 2.935518 15.290689
-28.189890 6.483553 4.296351
21.174459 0.343030 59.337818
14.029286 -8.672379 74.599709
-15.544792 -9.162482 82.305847
11.330602 -7.427989 105.826546
-18.264416 4.058455 60.247459
18.543667 8.908830 51.497143
-19.846428 0.206132 91.100975
15.058576 -9.537211 55.215294
-16.947737 -6.451099 98.379326
-5.689961 -0.727639 71.050560
-15.684076 11.346522 28.072075
-12.933029 1.570947 115.432640
-20.243107 -8.440588 41.022320
7.761841 5.624107 121.075340
14.621702 -10.204567 71.262024
24.878098 -5.004282 75.694237
-12.975083 -10.350980 129.934525
12.111125 -5.909635 58.500721
21.042150 6.423991 65.604347
-8.662910 -7.391568 96.018829
-19.361219 -4.783272 16.492550
-17.853489 -5.989179 66.588409
28.425470 5.632179 33.642670
3.128953 10.454041 159.067474
12.300924 4.844105 37.116287
-16.999430 8.817942 44.110695
-2.974730 -10.829587 142.834564
-17.825020 10.773414 46.145088
12.465978 -3.981604 19.228691
23.000307 -1.186540 83.222382
6.910482 9.109802 156.920883
-0.543255 -2.845583 84.620613
-8.724995 4.559529 116.086311
-12.670416 5.711350 80.658958
-3.213356 11.616182 93.326752
0.593677 8.250267 112.116615
-1.283685 -11.506433 119.550186
-4.443447 9.402523 107.811630
-17.884672 -9.636380 67.055313
1.695420 -9.944768 141.055313
-19.183920 -0.249707 25.293961
9.600692 12.247725 135.250183
13.821935 -8.758182 45.370174
-8.580496 3.848332 49.678516
12.977206 -12.957150 132.644089
-13.239280 -8.516324 126.940788
14.545504 -9.090254 140.778000
12.491229 -7.130391 105.106453
14.638066 -6.662696 72.167961
-8.904985 -9.110165 68.304062
20.760649 -2.373264 60.819313
-16.021215 5.657189 103.151825
-25.394499 10.866189 6.645291
0.495849 11.530055 96.398346
11.697197 -11.747728 126.552254
-15.082486 -6.563712 53.367146
18.223480 -0.745582 70.785416
-19.470591 -1.994841 62.264435
21.920979 -0.260468 82.862938
5.482262 0.594850 65.466003
3.207831 -13.068943 125.014351
1.154613 10.883962 149.381210
-20.009872 -2.331749 83.878685
5.812093 10.872280 85.824554
10.668705 -1.763952 42.254963
19.544224 -4.364780 43.007446
12.918323 -1.267589 142.288467
10.569638 -11.477972 133.396530
-0.311340 7.859168 118.941467
1.172770 11.374022 106.514023
-16.816420 -2.678416 103.191048
-12.508122 10.375681 40.628864
5.451127 11.300792 102.137177
24.788727 2.123867 43.709579
-12.588487 -13.655283 131.389252
-5.386190 -10.754199 136.531845
14.774442 -10.401011 93.344330
12.685848 -1.460636 119.575806
12.122327 6.865897 50.616764
-13.989858 7.139932 150.208801
-3.158789 7.044539 90.597504
7.530206 2.497157 59.168365
-4.264460 -14.512150 135.585861
-24.529421 3.663298 18.297224
-22.452711 -5.753114 77.956444
-23.607162 8.865103 18.954659
-26.531790 1.127124 61.851418
-8.701250 -4.306678 54.100311
-4.683969 -13.432352 139.689392
-13.924749 -10.986670 63.737446
-13.016670 6.513338 107.198685
15.655596 -6.730562 137.287857
18.969782 7.728907 37.146938
-10.380535 8.780255 75.227417
-15.410051 11.257874 91.734741
-3.305376 8.266564 158.449173
-18.584044 5.507353 62.761234
7.325924 -0.722011 147.001266
22.402760 0.670556 59.059219
-12.691302 -5.867182 37.592045
-10.830954 -6.265040 62.483738
-11.473711 0.770645 126.651138
-16.943018 8.622936 20.940109
20.959011 -1.956136 22.315607
10.585301 7.725171 56.969547
2.325454 6.924566 117.420273
18.390066 -4.252115 49.272125
-16.229639 -7.920782 52.320534
6.703392 -2.736281 64.403381
16.421944 -3.475252 95.236229
-8.032343 10.332179 142.697968
-15.347494 -2.596216 41.740612
-12.214163 -6.521847 115.818893
11.844176 -2.472347 72.468956
14.777179 -3.069108 106.761536
-17.069588 -5.885496 11.040128
9.866279 -5.777581 58.216015
-8.364833 6.348017 113.010117
-15.973246 5.786510 73.379456
24.513617 -3.800727 76.714066
22.878532 -4.466768 19.605738
22.220646 -4.024206 72.509064
-13.730818 9.928962 106.893959
1.040558 8.043666 84.729645
-5.986939 -6.411290 81.651382
-8.690172 -14.630501 126.594200
-27.948761 4.444165 12.142893
-18.999529 -2.234344 29.997252
26.869137 5.834388 4.375828
13.099861 6.431294 151.561691
-4.064540 -2.859108 150.604126
-5.173781 -11.175618 135.478592
-9.208857 1.261008 45.703602
-20.329960 2.786011 78.694557
17.038858 -3.093463 40.763851
-20.083448 2.049581 23.476192
-3.829528 -12.306085 115.738640
1.293876 -7.741024 90.408058
-9.413405 11.145643 73.150230
-5.695465 -5.207440 89.254448
-12.637477 2.352928 40.927643
18.273954 10.667418 44.845337
-7.269715 10.147065 130.143692
-15.163239 -5.809401 51.381607
-8.131452 -8.928050 112.295288
6.738647 -12.809949 112.734909
5.243661 0.608650 77.947464
-10.506623 8.590674 34.017262
2.254138 9.772875 147.875336
-18.840145 11.676171 37.927418
-19.799801 -1.011104 54.402447
-20.271786 -3.509870 74.640411
-12.449650 7.034673 131.934753
-19.024584 -4.443536 80.714005
-12.819641 6.182114 61.430309
-6.999710 10.434392 92.570488
-22.649216 -4.639112 78.184387
-1.260127 -12.389505 126.680077
-8.230578 8.893511 85.408569
24.353500 -1.394205 61.168793
9.818341 8.793667 134.225479
-7.997781 1.623924 156.687210
-6.973592 13.936607 92.887169
-14.701523 7.189240 88.431900
-12.635449 0.933944 24.030319
14.230545 -1.115887 47.090305
-19.153658 -6.303222 9.516943
-13.275972 7.023451 23.034357
-16.238922 1.543021 27.639849
-20.898361 -0.777096 11.445665
-13.481935 -0.695479 14.363605
-0.062183 -12.340092 132.644516
18.465593 1.740749 70.603767
-4.746275 1.852057 154.434448
-6.015335 1.169187 65.343018
13.610751 -6.970899 102.977493
-23.901653 -0.004138 39.697002
-5.563327 13.108091 149.807175
20.260912 1.693872 55.897881
11.214432 -4.877348 44.430450
7.801014 11.204973 147.919785
13.439134 4.927667 14.435270
-20.719593 -6.159587 82.850365
16.069763 -1.104261 136.691086
16.758278 10.443062 52.641468
-8.119461 -12.603679 132.333511
-15.275269 -3.217989 118.398880
-6.471659 4.326971 154.894379
-9.836729 11.400914 84.679092
-18.771088 9.045109 57.283859
20.614737 -5.425523 80.769638
3.593933 1.568004 87.209808
-16.181610 -7.135682 136.138916
-18.570639 1.830937 85.780876
20.140306 3.588174 56.658268
3.695205 4.382127 84.419594
13.169186 -5.531791 62.125328
-20.604935 -7.623450 65.438522
-12.417730 -6.921467 114.666443
2.418604 -7.871211 143.098618
-10.861506 7.297633 42.781242
-25.363762 2.474447 77.127892
14.868309 -1.712898 37.006855
-19.572308 -1.671391 5.457073
-11.259273 -1.058400 144.749481
-20.872341 2.840989 30.402851
-21.599249 -2.176550 56.820854
-12.885114 -3.337018 147.429977
-17.751320 9.449278 47.430939
4.883147 4.400662 59.377369
22.922050 9.229848 32.458248
7.311284 -0.086292 65.184242
17.823277 -4.026441 13.566654
24.543211 -9.032789 76.455940
-20.320160 12.513342 30.090496
-3.410414 11.576290 147.696396
-11.529242 -4.297050 129.324905
-9.704370 -12.979034 128.823471
18.248999 0.124922 88.751259
-11.355445 -7.790720 116.642639
-1.915287 -9.244879 95.213440
14.192543 11.891288 85.798836
-11.243237 0.090363 23.415291
14.487019 -5.130751 128.218216
14.752029 -2.775145 43.190887
-17.072432 2.205838 99.064980
0.023815 13.137663 141.843903
-15.005770 -2.006093 147.153793
-3.411686 -13.266820 120.207802
11.122941 -9.841349 68.646584
12.726044 -2.399358 7.864382
19.931856 1.145515 38.056942
5.324138 -7.411130 89.230774
-11.983280 9.727040 139.724014
13.709957 -6.806645 42.865921
18.946905 4.428411 12.236334
6.808294 -13.965731 102.225166
-19.817703 -0.128698 86.597649
10.499325 -8.334676 75.860733
-9.185791 10.730858 131.286194
5.293451 -9.413232 93.705940
-20.997999 7.789594 41.406048
16.994446 -7.333460 82.683502
-10.235722 -3.108111 53.275715
-20.231936 2.491347 72.865227
-9.999048 -5.607131 107.466888
-14.859432 -5.556566 57.773190
19.742973 0.645642 94.978302
-11.798744 6.960268 36.424763
25.681377 8.552998 16.286983
19.743557 11.502178 23.037102
2.727505 -13.311191 128.468124
-11.337643 3.134365 127.709152
18.837351 6.070065 86.793289
-14.360981 9.365047 47.197720
11.649234 8.545617 102.251259
-9.565302 1.079868 44.771881
19.895073 0.848645 47.520741
1.575379 -10.126154 139.197617
-6.799303 12.682920 132.613464
-14.137587 -9.763045 131.671936
9.623900 7.918025 60.455009
-14.533268 -5.813169 69.369324
4.390809 9.270304 109.501762
19.817513 8.552350 69.603867
13.484727 -0.606167 9.477384
-22.245724 14.821638 13.621455
21.024506 -1.085701 81.272194
14.670838 10.516247 139.208191
-11.671070 7.372975 132.373383
0.116264 -15.237097 133.963547
18.364267 -3.217115 37.541161
-14.803623 5.637639 86.991158
-2.267578 12.129835 147.073486
-21.078260 -0.091161 82.732277
11.136784 -1.802184 41.804424
-11.500106 6.898610 109.490738
-4.712184 -11.951022 116.135178
-0.695459 7.644400 92.957214
-20.632599 0.219088 53.599724
15.344363 -5.289128 96.036957
-17.915489 -4.585505 63.331413
6.196016 11.225513 149.442978
-21.825367 0.714501 17.716127
23.824963 -2.746984 57.759571
19.494629 0.023646 76.287735
-6.111926 3.737893 73.620071
15.735790 6.818794 64.813217
0.122208 -13.712673 130.504578
-20.796562 5.879163 38.231155
18.625385 4.223490 54.062130
8.302539 -3.338479 69.118202
-9.057344 7.557360 44.870785
-17.623224 -4.166385 10.807465
7.047653 5.341661 62.105175
-13.069542 -8.450922 100.121666
-13.868860 11.600451 31.814861
-24.306824 12.893612 18.968849
15.785906 8.390155 84.771240
-20.392206 8.501156 0.831049
-19.773233 -3.654581 49.801758
14.919903 3.583334 106.470100
1.941610 -11.558692 105.398674
-22.788525 -1.147042 10.030296
-18.164951 8.810018 12.147796
20.897150 -1.474856 41.532532
-19.722963 -7.426051 69.976723
19.108809 -0.864170 75.916176
17.585043 -4.504256 137.694290
-9.420998 9.089600 65.595970
4.595923 3.963333 71.736458
-19.001812 -6.847012 77.087860
-17.097919 8.242339 66.448853
12.886960 6.614085 97.713150
-5.410011 4.660077 44.770905
-23.968882 -1.295689 19.458382
-23.799389 6.103951 36.558350
-3.266809 6.890574 135.478760
13.006813 -4.873549 63.287476
-0.872864 -7.356761 126.186165
20.684042 -0.383877 74.511299
23.826900 -2.031368 63.373123
4.449095 -2.557943 63.971649
0.558755 -8.328574 141.023117
-22.290293 4.209780 32.974281
20.266529 -2.745003 82.421867
-24.374414 -0.140860 75.069710
12.288939 6.453789 59.122993
11.663162 -9.894998 96.235771
-17.242243 4.640456 98.212570
15.732928 2.046738 9.617155
-21.819855 -1.779221 31.949718
-13.841084 -2.091417 120.419006
-4.623165 2.022382 151.527832
4.734998 9.933679 132.230347
-26.469053 3.522867 23.020985
23.089293 -7.477500 75.563240
-4.788204 7.269818 64.925079
-10.347767 7.278632 53.953392
21.060625 1.493983 67.501953
15.647319 -4.508641 111.698418
2.966843 8.027411 125.897049
-10.121926 -9.480642 110.891563
9.217919 -8.188847 74.077560
-0.761814 -11.728735 131.238403
15.412858 -3.183450 131.848511
-8.094793 9.559385 83.450104
3.378343 10.241511 103.937134
-16.819569 1.052268 71.599655
-15.658919 4.397538 76.629021
-13.829922 4.454257 94.977997
-20.831991 6.721350 66.144882
11.552934 -4.675682 57.948341
11.785748 11.657829 97.293526
5.862510 10.230457 124.492485
-0.762509 -2.098848 142.521484
-23.684362 8.281345 34.607964
-12.179523 0.149863 19.068922
-0.336576 -4.500474 144.945374
-7.744060 10.351592 97.890297
7.640511 -3.656885 64.798866
-19.223190 4.303461 64.576279
7.995784 7.602103 155.191971
3.295933 11.488662 102.297798
19.440714 -6.113173 88.958466
-7.527515 -9.239820 111.270134
-21.421967 -1.404710 89.211876
-24.135973 7.273510 29.787479
-14.240974 -3.913016 60.475723
7.731606 6.907605 122.455612
-19.469893 11.859503 140.614838
-6.555760 8.248213 124.778336
2.252220 -9.419736 138.983612
-21.206720 -1.534733 64.155670
-8.249367 -15.107731 135.973602
-10.520576 -1.465856 148.735596
21.327143 1.595165 85.037819
23.154667 11.057556 32.628990
1.405546 -14.033237 116.021339
10.896737 6.449097 102.436241
-22.740419 11.846913 4.255502
-20.496807 15.062880 11.530347
12.844273 11.662630 150.395401
0.742865 8.288785 151.121002
14.121649 11.373956 100.125801
-3.600027 0.295891 72.601288
-19.447323 -6.713424 72.622200
-8.212304 -5.204186 72.888031
-19.871557 -0.132115 71.146393
-25.521816 10.017905 6.690400
3.705629 -9.698791 101.698997
-18.079044 2.500248 64.032867
-18.466511 13.168675 17.357843
12.698916 -4.456582 65.066795
-21.453512 -10.508314 74.816048
-8.474795 5.579198 112.218506
9.343053 5.377615 52.047962
-22.662907 6.375392 38.651699
-12.710106 0.241900 127.403442
2.382862 -13.499272 122.651901
8.611325 1.902187 45.491871
-22.731850 2.729407 70.685799
-22.178473 0.191195 35.949665
20.607437 -4.959669 77.636047
-19.636459 10.249824 35.098675
2.116862 6.504918 127.252380
21.246874 11.587023 18.385876
-16.980320 -4.813422 92.394196
-18.233294 -2.409865 21.108711
-18.488401 3.062086 70.515411
9.379050 11.032373 144.199951
-6.906157 -1.646693 53.527359
-20.802626 5.384865 61.197029
0.164211 -10.005381 139.719421
-8.965328 -11.282691 109.872475
-12.527947 3.123566 113.311043
9.277708 13.301961 91.433556
15.277589 -8.667792 64.757172
-19.520334 3.582430 100.337395
-19.289652 10.735847 22.485924
-23.389004 3.750010 85.724663
-21.270081 -2.555398 24.523954
-3.690854 7.636518 111.161835
-2.695280 3.411050 76.444054
-20.853350 2.495589 13.177168
-9.179330 -3.575392 56.483353
-19.677311 1.213910 61.097809
-11.389597 7.729344 82.199348
6.760032 -13.383158 114.913643
-24.261042 0.239379 72.560249
-16.922049 10.133625 36.134232
-19.105330 -4.419670 93.048454
-21.383236 6.891856 41.967373
17.352013 2.886467 61.898453
22.551010 -6.612064 77.537720
-18.110508 3.139684 67.683182
8.190971 9.509137 89.713936
22.656279 -6.843091 78.194450
6.793011 -2.638786 69.166977
7.318981 5.716575 65.942062
-3.323589 13.121094 97.300369
13.256875 -10.133133 100.320457
-19.551525 5.671334 78.115318
-12.739419 7.553228 149.859604
2.111502 11.806965 91.684891
-27.763416 8.969828 12.073356
-5.207556 -12.225460 99.085754
-21.878967 5.425258 61.597740
-24.446714 4.449759 29.108505
-10.856743 5.794697 129.926437
-17.317648 -12.200855 85.692032
-10.689802 6.030013 71.021317
10.023333 3.812808 43.116367
13.034414 9.702145 61.347031
-14.986896 0.088917 106.569260
14.945385 -6.956534 28.254522
-10.709099 -0.312119 40.226875
-14.276627 -4.569880 88.811264
6.984646 8.292655 110.348404
12.400296 -7.595175 76.990562
-21.262568 -3.092761 69.127266
24.394381 5.884881 36.748997
-18.845648 -6.759533 68.867729
19.230164 -7.457092 68.754967
-14.012971 -6.187716 110.899971
-5.429971 11.473121 148.806534
15.534536 -9.845140 137.088715
-12.262745 -8.806653 108.446129
-13.489656 4.046428 31.045813
-23.211248 -1.615162 62.972130
8.561273 -7.760683 130.319855
25.364117 -4.559267 80.745270
22.202307 5.092520 44.279289
-4.203279 -10.941172 111.517822
-21.445408 3.553191 62.532581
11.282438 -11.326344 83.697411
21.957010 -2.794495 53.564526
8.291860 -11.982164 119.556435
14.779156 7.336016 17.732489
13.093106 8.422164 76.643532
-10.797224 -0.907137 23.251932
-14.626845 10.605477 133.392242
-1.375073 1.106433 84.251816
22.711876 -4.461180 81.339134
-0.396356 11.292905 148.602142
14.368319 -6.056645 67.566673
-21.030275 4.834876 59.450375
-12.817674 12.015336 32.022038
-8.161093 1.754564 57.831081
3.713717 -6.819270 146.973236
19.586704 -0.377597 79.724411
7.664572 6.019133 54.943665
-18.852354 3.945014 64.419296
-26.159058 9.685141 37.933914
-5.781012 -6.779641 85.769119
-25.833845 8.970613 29.170258
12.412225 -9.763103 129.640961
-22.638313 -2.390522 69.429459
20.040602 1.663336 87.421692
26.407064 9.327382 14.914821
-17.242147 5.123841 68.224457
-8.693351 9.354918 149.899704
17.177780 5.960425 85.629234
8.066280 6.901273 82.023453
-12.284061 -3.970411 116.473083
11.847781 1.365629 150.641281
-19.063421 -0.275479 62.532799
6.217017 -8.005107 140.556030
3.202120 -2.967271 73.499962
-0.639046 -5.875700 92.054321
11.675770 -10.761728 124.099434
-8.374819 0.087502 123.449028
-4.299041 -11.260475 131.274475
-15.913490 -4.911253 70.486267
-17.413919 5.791508 92.094559
22.412218 -0.396223 56.045448
14.044606 8.579929 22.232855
-13.480753 -3.556875 6.755578
-11.426200 -3.450523 57.544277
-15.814454 6.052145 85.296875
14.697963 9.279357 66.600891
-0.671532 6.824754 155.744949
-12.632766 13.486519 86.901703
-13.926359 -9.295593 101.264275
3.738938 -3.983489 144.774918
6.144580 14.934828 143.404160
-14.939532 6.806117 7.480697
22.074150 -1.468796 18.943687
-16.461620 3.315853 106.168884
5.107311 -2.959803 148.497147
-23.112928 15.707296 1.876390
-20.302177 -6.118024 21.503399
15.866312 -8.683273 93.788750
22.856014 4.701739 15.359709
5.446486 8.768874 130.549332
11.853624 -7.749137 106.975105
20.431963 -5.060077 29.733292
3.487269 10.824171 89.243294
-13.858155 -1.918772 35.513332
-20.525557 -0.728244 59.861042
23.773066 8.511050 7.053033
12.047151 8.853241 51.424881
-12.750851 -4.549694 141.395218
-16.470381 6.418370 72.318657
0.763753 13.193941 104.042236
-12.561039 -3.551612 29.435753
12.142159 -14.397654 135.166321
0.708691 -11.766055 117.180672
22.341591 -0.953523 41.834141
-23.853453 1.475616 18.042505
1.641806 -9.033806 120.423790
22.952362 0.522133 75.065399
16.058207 -6.317231 51.628506
21.653992 2.451507 56.343750
-16.558723 4.253789 12.434999
2.670676 -12.987727 114.124580
-15.943987 -5.342890 89.767258
-8.494579 8.097487 35.828438
-0.710632 -4.575275 95.992432
-12.024478 -3.914565 57.109177
2.405313 3.069822 87.580170
-17.479824 0.738658 58.573238
16.332943 2.835532 115.684601
4.971653 9.604607 85.473717
-12.926307 2.159585 28.000050
-15.035522 -0.595847 28.016417
-10.133450 10.458120 58.592243
-10.076409 13.586781 150.391754
4.788669 7.815490 152.346146
3.148039 4.212722 84.614395
-5.513705 5.023034 70.608177
-3.696959 10.129133 150.486938
-3.587738 -13.928446 105.781929
13.974667 10.966978 132.992767
-15.012070 -1.143610 17.250500
12.576919 -10.620171 54.278534
-23.529129 -2.297644 80.941299
-26.277386 1.104967 25.124418
-25.016010 3.428309 27.608587
-17.883688 -4.811223 41.386486
-13.926983 8.967619 40.359848
17.458967 -3.471428 44.370640
-19.908096 6.744763 56.044640
-10.439786 -7.792952 81.014053
-13.185096 2.031383 121.465668
-23.131933 11.054743 19.429472
-9.424803 10.575906 91.439148
13.572527 -0.100424 140.267548
-11.259906 0.587603 112.739197
11.366963 1.614462 122.957733
21.364769 -0.121072 79.987389
-1.575900 10.658117 106.423401
0.613264 -13.267728 115.991791
7.551749 -12.250487 129.953751
14.812139 -2.729234 123.744881
-9.207505 12.310534 143.876617
21.207115 1.901923 71.027542
-13.953900 -8.599205 138.012482
22.314180 1.078086 11.371255
15.246344 10.821501 33.529491
28.695490 12.867664 4.984970
-13.983449 -5.365725 42.787834
-19.177044 -2.615406 56.376228
8.014582 10.370774 133.609787
25.148985 8.447115 30.780209
-4.968080 -4.343333 70.029930
25.130651 2.256346 5.349854
5.406787 2.828069 79.261429
-13.432025 -1.118206 23.535889
-21.217154 6.060041 87.520752
-16.846964 3.468670 75.967743
-25.288170 16.238836 3.978070
22.067602 -3.026379 9.129093
-13.694876 -5.648518 72.081528
-15.587156 -8.585949 75.550354
-5.164655 -0.674869 152.039429
-9.902373 0.287748 47.145012
21.868496 11.193325 5.918324
-20.966618 -3.667948 75.271408
-25.208357 5.010420 22.364403
-18.121052 5.601739 3.656934
12.151476 -8.171747 150.610718
3.834451 3.631656 84.152534
-13.941436 -5.468636 79.845467
17.775064 -2.723938 63.058186
-4.864045 -0.146152 73.993874
10.775625 10.063614 77.003586
2.032827 8.479455 123.278381
14.731051 -9.634381 61.889023
14.224647 -4.518501 132.100220
26.748020 -2.963269 5.600550
-6.022860 -2.226350 74.975868
-0.193991 13.118617 137.495667
-19.744038 -8.421583 49.139553
24.132830 -0.048028 62.325199
22.478586 14.462111 11.215413
-15.009506 1.325909 40.842094
22.065723 -3.972210 60.312359
-0.042706 12.045536 89.172523
21.681885 -1.706945 16.672422
13.682721 -7.439456 32.472767
9.339724 6.775028 153.116898
19.489504 10.447419 32.500805
19.521297 -0.856094 90.218567
13.467551 -9.481816 108.296906
-1.599584 -13.722440 121.211281
-10.812201 13.970268 143.390121
4.692361 5.427197 125.606209
20.864920 -1.543329 64.592979
-0.177474 -6.408515 86.959473
-14.807999 2.976377 22.099747
-23.601049 8.617640 6.796425
17.206318 3.174792 99.767326
18.523338 -1.879828 76.744415
-8.526435 -7.265121 70.129425
8.702646 -7.422288 86.213348
26.440823 -6.402334 77.442566
-17.079056 -5.458309 38.571007
-7.694682 -6.026330 142.392532
18.929554 2.680368 93.365189
-21.745113 -1.516990 28.644926
24.311953 7.678818 36.967110
-6.750017 3.379838 70.869087
19.134007 -3.542632 24.123016
11.938530 -2.211273 50.148239
15.079376 6.567417 62.891243
18.042810 -0.489538 85.146530
14.892817 -0.041811 40.728573
-16.685562 12.348687 20.051611
-6.268419 7.894675 109.749626
-17.113678 3.057665 57.277096
5.293683 6.797524 112.578278
-5.398551 -2.699564 75.927422
2.044732 8.652230 118.523346
2.701923 -6.683886 134.655350
0.623636 -13.294579 114.720383
19.756683 -2.275263 7.355327
7.138633 11.042567 132.091095
-22.905874 5.526664 25.122635
3.215669 5.369120 85.965714
17.654955 -1.524757 102.544502
23.524694 2.952602 77.628654
-19.585398 0.808804 37.342758
-23.327255 0.878346 46.267982
17.272680 7.449431 75.561470
23.723511 -0.623912 64.249397
-10.901588 8.735544 104.160820
1.087161 -5.117558 89.954315
16.735683 -7.314570 94.127403
-11.140665 -0.335640 119.794739
5.772951 -13.204434 112.422195
-15.534299 1.893634 105.353432
0.409837 -10.476528 135.991837
12.900673 -0.580553 114.988136
2.267090 12.262678 133.278397
18.505854 2.496774 93.679543
-13.970663 -1.114828 23.042425
24.341274 11.241878 17.854570
19.658239 10.794288 27.376375
14.150744 7.730198 102.415619
-18.684473 4.035791 66.059097
-12.428119 -8.990525 68.319145
-26.204361 11.413909 9.222575
-20.456703 -6.571363 43.563221
-6.840485 -5.594841 144.534531
-16.001551 8.513241 67.925323
-23.379795 -3.039074 58.917881
11.990908 -5.252485 143.540283
10.308732 -11.514325 108.425415
-16.107904 0.612217 112.481674
19.216722 1.763083 79.658134
-24.563694 -2.393333 63.279499
15.239637 -2.493520 55.830986
-10.410442 3.962510 33.012798
-20.605381 3.075789 58.911831
5.995134 -4.494964 70.505280
-0.689011 11.925677 96.490875
-16.687477 -0.170126 107.385811
-1.889071 -4.612894 146.730316
-14.120296 -5.479873 119.664307
-12.826750 9.524489 137.267792
-10.794721 2.722972 128.791626
11.878352 8.107189 98.299156
-7.789168 -12.238319 126.320961
-3.745600 12.213953 140.267410
9.760376 6.118359 151.318634
-6.670110 6.344299 154.637115
-13.082869 -6.362496 49.218281
-23.540398 -1.768618 62.823746
-1.177583 13.890662 134.801346
-5.856904 8.176527 125.442657
-7.118077 -7.981316 139.448151
5.639646 -1.059588 63.162888
-16.670595 -10.012240 56.561920
4.357120 4.471280 79.233170
19.381189 0.295320 23.278656
-9.447693 0.159918 55.593628
3.240178 -6.691725 87.989243
-23.130112 6.033180 12.684837
19.354933 0.752606 57.273411
-3.088828 -4.208442 87.137840
12.865474 -11.609968 101.838409
-7.066004 5.277486 69.434341
-16.560585 7.428884 50.750462
1.853711 7.115225 118.697960
20.832937 -0.171612 69.404488
21.794443 14.485317 16.867123
-20.236654 -7.468354 44.253857
-6.340080 -15.515293 124.139709
-5.643658 -0.499903 149.158951
-18.703062 -6.554933 30.942604
-13.657555 11.610785 92.552475
5.874556 7.826714 108.479706
5.196041 -11.467088 104.033958
1.103236 -12.305028 139.271988
22.808163 -0.909799 63.584259
2.952618 -1.898147 151.344452
22.201340 -0.520697 58.102352
2.297954 2.539733 89.598869
5.745897 6.638258 105.436203
22.818119 10.493615 6.824485
-5.914618 -12.287766 133.571533
-11.782286 -10.165709 91.626884
-17.647417 9.300660 77.380150
9.648273 -1.876442 24.752260
-5.600089 -7.517581 102.372093
22.166153 0.808392 18.059809
-29.076508 2.981905 76.362923
-4.878014 8.031898 127.915649
-6.217852 -9.327656 109.987503
14.965437 -7.495268 68.899574
-17.315739 11.455445 37.503376
-23.215042 -2.456178 40.038898
-28.106916 9.878495 10.333051
-24.932878 5.387230 10.811909
18.567146 -7.868669 56.384567
21.135988 1.760439 86.476578
-20.903965 15.006255 30.752043
18.176634 -6.872880 72.217209
18.373650 -7.884561 63.144817
19.435978 -6.292676 88.309982
-11.147581 -2.740952 12.106081
-8.497400 -6.139353 96.188980
6.916584 10.819728 87.289627
-0.160650 -13.238646 108.456039
16.119434 13.800232 27.839403
-11.780453 9.386461 147.984802
21.699535 -1.085152 50.010384
-5.282345 10.274447 129.693970
-2.076337 9.189748 107.605553
12.538422 10.716254 144.584274
7.024652 -0.306242 55.427910
21.036743 -0.835865 31.193609
18.057930 4.018620 80.110130
20.137983 4.485594 68.322525
17.716518 7.153170 77.275055
-26.045942 4.709013 13.739740
9.799271 10.677570 148.179108
4.427841 -2.243197 76.918030
20.559992 -5.651201 78.055840
-22.153490 0.086143 64.148804
-10.858910 10.049830 99.216278
-15.880834 -0.523070 22.402369
21.574678 -9.218025 80.577705
-13.124818 -9.924277 137.711060
-20.117098 -4.680962 50.977848
-13.982567 -0.236659 142.414688
-15.048796 4.643987 25.244568
23.613802 -1.677933 70.706398
-6.258061 2.784833 153.465195
-15.258077 -0.465755 103.480637
-7.615016 8.967674 71.941208
9.614790 9.222857 130.420074
-14.912264 3.493272 7.835977
0.162779 -7.854669 140.130371
-20.935360 10.137424 19.457336
1.483910 4.662074 87.225555
18.153446 -6.414598 74.713661
-5.022775 -13.029366 130.243484
16.352686 7.797340 15.835862
-6.052335 9.729955 115.677361
11.257071 15.255102 91.519348
-9.055008 7.851555 73.321892
-13.598498 5.868178 22.721558
-13.238086 -9.039989 74.349365
24.311926 0.861286 9.243539
-16.781513 -5.747601 24.195444
-25.153286 1.516674 5.721318
-19.209801 1.814301 76.562096
-25.386169 7.810680 17.411564
11.288807 9.413881 138.825195
-18.615444 -1.837954 79.665886
21.458885 -0.905289 74.162178
-14.052436 1.498753 24.212276
17.700556 -1.983982 10.898087
1.134865 -2.347814 87.363228
-25.094624 4.148516 6.148047
17.676853 -3.644470 54.039211
-22.773298 -1.234423 6.473556
9.939776 -14.000060 132.401093
-22.628881 -4.366289 82.680038
1.135934 11.669564 99.234039
-16.997463 -2.119998 76.528450
7.413152 -7.229664 99.743622
-16.669815 -4.266750 48.495731
-23.424730 -1.138243 42.402790
-3.117102 9.762433 113.349907
-2.289948 10.690925 91.590668
-17.485506 6.896154 10.558189
6.924307 14.221593 102.337204
-2.839831 6.305604 84.741753
8.432865 -9.696874 122.755760
-2.281729 -12.488703 127.152107
-18.196268 -7.322212 68.060852
22.025476 -6.577053 70.406128
27.299770 9.832393 21.227818
21.419811 -3.264182 83.029434
4.436047 -0.717909 78.491951
-17.452820 4.532355 94.382675
-11.730442 11.436733 150.862274
11.565412 -3.299552 117.469124
-7.140625 7.322834 152.897568
-12.072819 -9.332040 119.000572
-11.871740 -5.865000 110.604828
9.061904 -10.391306 115.853531
23.177860 4.102726 56.805241
6.796181 10.905630 104.464920
-12.649508 7.478399 96.213356
23.783775 0.108533 49.880703
-4.505135 -7.247990 104.815796
-15.879949 -8.632823 68.759933
13.106137 -3.683605 9.818853
10.020883 10.701599 145.870773
18.890202 -6.733012 61.810398
23.239931 -4.466195 75.299934
-5.371069 3.993865 114.973549
0.938484 -4.807373 153.416306
-19.233490 -0.932819 81.499710
-14.641252 9.071597 43.177238
22.244587 16.454672 22.900711
-22.211393 -0.328862 46.423061
5.990369 -6.559256 63.136745
17.210217 0.566941 107.962303
-14.896565 -6.676783 136.507706
13.504230 -7.698050 133.392258
-18.131384 -2.029335 19.278025
-22.875853 0.454507 14.677040
-10.630668 14.759446 43.210281
16.500416 5.088865 18.575596
3.012324 -10.657386 140.911301
-17.739834 11.959581 11.359717
-8.285401 -2.966977 54.708321
-7.020294 7.772430 75.424271
-20.819174 4.973871 40.407860
23.533789 7.950893 39.247852
16.893490 -8.453124 78.257484
-5.335506 4.699958 84.136116
26.554136 12.242690 8.880638
18.663507 -14.468391 85.118988
-6.278969 -8.888977 86.827576
-7.128789 -10.904509 87.667290
-19.698236 12.402258 43.840675
-25.021048 0.683535 75.697571
10.905340 8.224996 132.326157
-18.086439 -1.702411 105.474854
11.811797 -4.529160 52.610580
-17.690464 9.752913 52.582447
-1.152306 -13.871729 121.569145
-16.113735 9.434795 8.667625
7.090493 10.878333 110.724030
-14.918000 -7.211342 94.696426
17.866934 8.308166 41.640511
-14.387425 -7.539355 103.127541
-15.524542 8.946860 43.713383
-20.662214 1.322277 76.637383
-22.037180 5.265937 50.598007
-20.160706 -5.674283 16.924461
20.396347 -1.568398 17.294744
18.782261 -12.351387 74.635605
-4.920403 -8.087496 75.672501
-11.069839 0.047726 47.568855
16.090818 2.291308 6.110817
0.204812 -8.989788 95.215385
-18.226118 14.222544 -1.618935
-23.126675 -1.315822 33.715908
17.542828 -5.883148 101.833038
-2.777021 10.893806 83.361099
23.062857 1.622964 69.997574
-11.445552 5.319847 61.419216
-15.343611 -6.767480 60.961338
17.043850 -10.568805 61.418743
0.086880 6.515574 85.547585
18.408680 5.347587 88.338921
15.447845 3.303880 114.071434
15.128578 11.003772 13.577202
8.353094 6.964984 114.597069
2.253688 -11.994389 132.710724
23.121748 -2.270794 80.396141
26.903555 -3.624304 81.584396
12.357027 -7.492261 102.765053
15.451049 1.905074 108.195091
13.175702 8.776430 52.843475
13.138631 -3.733513 22.886396
14.283334 -6.033645 115.088333
-3.119189 -4.270957 80.759766
17.593800 -9.329987 72.398972
6.826710 6.134245 70.554077
-8.067230 -1.452631 56.770691
10.545026 -8.690693 113.837929
-2.335292 7.629121 127.772408
-11.718867 6.219909 28.379364
6.611971 7.660574 134.988205
-5.109094 1.700308 151.113907
17.711845 8.523662 11.580919
-11.834764 -9.860708 126.317184
-24.797859 -0.992730 77.607269
-2.587246 14.185778 139.127640
-1.242579 -4.540204 145.125427
-5.694888 -5.333037 68.194969
-19.125317 -2.734381 79.239510
-6.869365 -6.749949 138.747253
-13.412718 0.396835 121.855568
-6.587755 7.123187 111.607315
-4.001898 11.154612 95.185860
-11.386302 0.026172 38.940514
0.460157 -9.739443 138.385193
17.054079 -7.418623 90.962639
11.522302 5.228031 101.844460
8.141856 10.395194 149.524155
5.561252 3.082314 151.119781
-0.223847 -14.198414 103.547539
10.295774 -3.400672 35.521858
11.037333 3.494750 18.781149
18.692289 -3.443966 5.315105
27.540506 6.338635 21.677998
24.390799 -2.376036 73.615906
16.690395 0.819313 70.405449
14.295453 9.572125 11.507549
-8.480502 6.455314 70.354172
18.684765 2.063833 75.597168
27.333040 1.780643 10.859291
14.291764 3.232283 101.644966
-22.270721 2.657826 62.481339
-2.566833 8.861303 152.051041
0.356643 -5.001997 82.387688
20.477676 -0.176609 60.730980
5.616253 3.483271 66.918495
-5.716086 11.251897 95.293732
-11.558807 -8.129756 61.558071
-5.763722 -7.301664 94.580574
8.096615 -5.582551 65.666061
21.656229 -1.038217 64.806084
21.170822 -2.582135 33.541679
12.778652 -2.880320 115.115196
20.012896 5.613693 48.778671
-19.346189 5.329195 72.008263
12.855080 -3.811059 132.611221
-0.992409 -10.301150 136.122986
11.029667 -5.078537 74.692772
-12.833035 5.677548 40.261909
-18.913130 6.667990 53.046726
-32.912842 0.415190 -0.346641
26.907696 11.249919 19.846035
19.371519 10.055621 24.994514
11.231006 10.280541 44.446251
12.054684 2.768109 40.425438
-8.088862 -12.958271 121.958527
9.766588 -6.814850 89.736816
13.768317 -2.724466 33.168468
-18.202862 9.818637 13.133001
13.926456 -8.613358 53.930302
16.123484 2.600294 99.721786
-0.955167 10.703586 101.969780
-8.553466 -4.354534 75.428055
-8.054825 0.372842 58.419529
15.289816 -6.313782 21.359751
-5.284981 3.174989 63.008904
13.054004 -6.268791 44.894520
-4.287833 -8.817034 95.188217
-11.446619 2.721023 123.665977
-20.391720 10.003363 48.664162
-4.953263 -11.999062 130.979279
25.624290 6.150166 19.697447
-4.995667 6.503517 72.293777
25.333509 3.521939 36.726284
-13.258085 8.842636 19.362022
-21.439054 9.899321 23.024509
-15.083667 -1.024181 132.362335
-25.168499 1.526965 61.967091
8.410698 6.821029 41.434155
-13.785845 -4.803003 120.887207
21.517904 -2.837904 52.186153
19.230965 2.478830 64.985527
-19.472475 5.197809 75.457047
22.182322 -1.443177 71.088158
-9.821179 -6.859962 130.197815
2.973379 5.126213 84.902168
12.854907 7.477031 22.045696
-14.101313 8.343517 131.718109
-24.907867 -6.567165 75.904922
-4.735358 6.263986 47.968464
-16.235178 0.610681 37.887497
10.969852 -11.377403 140.679459
19.108412 -3.903805 81.135796
15.403976 -6.662949 43.315132
2.742683 -13.000651 120.082649
-14.699786 -3.928768 140.430267
-16.625010 3.859905 85.055847
-6.028323 -10.136926 142.595734
19.541735 5.329741 79.121086
-4.528571 7.676070 123.723480
8.360743 -9.844601 102.069763
15.884373 2.045274 25.569071
-24.391167 -1.315533 29.251255
14.137078 -8.493738 57.507282
15.276023 -7.703704 100.493988
19.469883 -4.478271 51.200314
9.650246 -4.456804 62.549957
-3.584042 12.909276 139.796066
10.111135 -8.943327 113.641678
-0.013470 -14.303063 125.968521
4.117566 0.636479 68.326317
-14.798139 -1.631704 35.734158
-7.846016 8.220821 108.794716
-8.720449 8.968704 106.246147
20.213749 1.634869 77.661095
6.443185 -5.878142 72.581627
5.447185 5.992290 152.077560
-13.520247 9.439619 48.771442
-18.443573 -2.659373 68.510757
-0.791825 7.875557 92.654671
-3.626632 -5.494724 68.733467
-20.969604 4.003400 63.099731
-12.151237 -4.978642 56.516018
-19.438675 4.689116 62.383862
-13.646438 -7.116316 93.225586
-16.537106 8.407417 20.205982
1.032987 -7.058362 142.843460
4.139647 7.430400 76.468849
6.218591 -5.629941 72.508118
4.248116 -6.171206 145.440079
13.729902 2.295123 21.404896
18.250010 -2.962902 61.490494
13.397420 -6.452246 109.332436
9.232332 -12.158459 116.711243
20.336227 -3.041937 70.402260
11.315319 6.262436 131.740311
-14.007451 -10.301188 88.837837
-11.095294 10.481235 141.674454
-20.308651 -1.213685 16.686935
15.733836 1.356910 134.426041
-19.112535 12.177745 32.636402
2.604344 1.497545 84.701210
16.575634 -4.670082 127.122993
13.951831 10.224922 96.731270
-18.911926 -0.898964 61.056942
17.568766 -6.175915 84.918045
-6.425051 9.036819 87.746628
10.968125 8.216267 132.687576
-9.241275 6.179251 107.543045
22.261469 11.433209 15.991748
2.135239 4.607953 81.760361
3.434105 -0.787849 81.188667
3.313196 0.491479 61.963734
-22.677523 -1.376321 31.732004
17.447004 -4.854286 77.474564
-14.517876 -2.845209 33.108082
10.617914 -11.165479 93.864960
3.377911 7.923999 107.141716
9.148821 -5.333447 69.888084
12.274198 -6.171776 39.967484
-13.725497 12.243932 32.342407
-21.271221 -1.969070 80.378120
6.720050 12.913149 88.712090
1.617136 -11.530896 113.505066
10.780331 -7.054034 95.714478
14.334928 -2.732814 109.690300
3.006065 10.632750 119.267662
7.377746 6.897017 70.658859
-6.929588 -11.099395 132.874603
9.091325 4.586146 39.084858
18.594898 2.202300 63.582073
8.040237 -8.899008 103.201622
22.313797 -6.715266 77.354813
10.234613 -8.996429 96.199127
16.157276 0.183239 4.864214
18.267576 -5.339933 53.939568
24.163019 2.457270 14.571717
4.223338 -13.081217 133.816849
17.711231 -8.651627 68.836700
6.952945 16.884968 139.983475
5.851527 6.466581 148.406540
-19.710835 -7.106782 84.002449
-6.478043 2.393673 153.469650
13.222717 -4.635112 142.687103
-14.113765 4.053878 60.074276
20.507408 -6.550332 78.608467
17.730391 -11.992483 90.310188
-10.039321 11.938446 151.084900
8.366262 -12.347331 136.261078
-23.033010 -2.976120 73.485283
-12.683850 0.348518 50.610760
19.199390 -6.754734 79.774071
19.586111 3.910167 53.576279
9.034164 -11.037649 135.271194
-13.404442 9.242731 145.037491
-13.181347 3.667293 113.358101
20.022184 -3.967570 62.835983
18.384092 -0.637811 41.504414
14.837235 0.798072 129.108307
-6.740764 8.986255 86.329338
-2.478909 -13.947496 123.155846
-15.451044 6.483027 21.345135
22.960806 -0.165421 61.763176
-0.394280 13.121115 92.131500
13.463047 -3.625474 27.363995
-10.397790 4.609250 109.695938
-15.755190 5.849912 57.924168
-4.396410 -11.896137 123.661636
3.175110 -12.286347 102.487129
4.568619 10.131083 94.719193
2.259686 3.572508 83.379822
16.631001 11.572306 19.331747
-1.291936 -13.501605 120.026123
-21.952374 4.460831 82.137260
-6.209223 10.580969 99.773788
23.251280 -1.268232 84.766121
20.499876 1.334013 0.570280
-25.200245 7.400508 17.560299
-24.522924 -2.755821 10.549748
5.398314 13.660655 91.134491
16.280888 10.887620 70.771523
8.568027 -3.014009 130.078735
24.216051 12.186799 13.710015
19.810696 -1.857994 10.646948
14.970264 6.653092 28.657253
-2.996088 12.191982 130.105042
4.023163 12.269341 128.448090
-0.634196 9.976723 116.694733
18.108603 3.056678 54.477570
-21.923893 -0.811868 65.820633
-1.665326 -12.979745 104.782761
-19.565344 6.994078 52.609177
-12.287845 -8.457138 136.510986
-8.609390 -2.288617 57.074360
-6.946854 8.595095 155.424271
-4.337168 -3.328968 151.927612
23.024988 -2.513554 67.973465
2.675808 -3.162632 84.280792
-18.950317 -2.611646 137.984619
-15.582150 -8.046888 77.065773
-10.408019 -10.583886 102.695793
18.487555 -0.425454 61.864506
13.079969 -6.977753 113.728401
-18.990234 13.255294 30.589317
21.228594 -0.182147 68.457626
-9.171048 6.561359 52.959705
-27.203114 4.697512 33.547649
-10.028191 7.781506 71.092209
-22.308142 -4.529682 79.598785
12.600605 -5.635555 56.029659
-21.154417 -3.376966 7.259594
11.649283 1.157554 125.155418
-9.716656 -8.720144 72.239243
23.444391 11.557880 8.069907
20.838129 4.114069 54.183758
-14.810728 -0.687458 30.214018
6.903261 6.651313 161.720001
-17.159639 -3.549784 110.781784
3.534198 -6.559536 143.463470
-2.368610 8.955055 104.375465
16.225582 -6.821387 93.877548
-15.300552 8.809373 85.285622
-22.501352 2.993138 49.382843
-11.624052 9.383704 138.829346
14.053974 7.946428 93.207710
24.482689 12.245229 4.427600
14.464161 9.416928 86.166710
-11.153373 6.877703 63.524940
13.672173 3.792273 96.914818
11.075928 2.503219 43.631172
-0.292789 -12.037792 112.295998
-14.856356 7.745307 44.495140
-22.653297 5.716612 49.978718
7.617831 -10.537734 116.787964
20.141676 4.769700 84.087097
-14.993570 -0.723837 111.203552
1.254786 -8.036350 139.415009
-7.471102 -9.335546 141.065643
-15.918966 9.457576 3.318472
18.369812 -4.774448 53.371662
13.155074 -0.523483 27.022881
-22.024490 2.071644 67.914024
20.785442 -5.257413 55.331184
21.217531 -2.906371 60.368435
-14.825489 8.119481 54.893192
21.142813 -0.008627 11.937714
-13.323350 8.977268 4.754828
4.912223 8.050052 113.420303
16.921368 -5.995638 41.410301
-22.854454 2.068502 32.101894
24.217354 1.025959 24.899719
-21.536272 2.815221 87.100075
-14.412699 2.671452 27.707487
-15.920124 0.852882 132.574387
-28.486912 6.471625 4.026394
-17.715780 1.822071 72.660599
-6.505750 9.143137 130.929062
-11.781564 5.038373 107.138222
-17.578875 -5.525026 127.726082
17.004814 -5.343424 50.080204
-8.940041 9.992651 126.784340
0.565570 12.313501 99.834007
20.384150 -9.205810 84.385353
11.751690 1.944886 52.602436
-9.996687 2.286619 46.679306
-13.457059 10.215987 96.340012
-5.117192 -8.036248 78.740364
0.273394 8.112093 92.951355
12.904676 -5.217504 119.617035
11.804523 -12.853681 82.862419
-17.147715 -5.629556 42.119251
23.888371 -6.131817 76.572151
14.482502 7.902438 16.814728
13.698471 7.086840 97.218513
26.650547 6.734021 7.406989
-25.269966 5.227641 9.406585
-17.037907 -3.083723 25.784662
-1.294949 -3.726078 76.903236
22.150032 6.449762 27.666019
11.721843 -1.514346 127.075943
-12.195566 6.322793 55.533226
3.089143 13.916842 89.535461
23.206390 -3.402155 65.085152
-19.833044 -1.799218 47.284885
-18.124123 -5.365993 63.444546
7.120756 -3.372126 65.198166
2.162368 -11.424005 139.178802
-5.107108 -5.045218 86.128754
9.948569 -12.101876 70.333427
22.838982 0.965576 55.980671
11.804738 10.529564 104.222031
-13.868660 -6.597609 101.986076
6.820009 8.191433 150.941650
10.023775 9.374573 78.447838
-14.622542 0.808358 125.623741
-19.350023 -3.902282 10.514495
9.650459 -8.160788 78.201584
19.637905 -5.322224 68.513176
-4.876342 -9.093098 138.440414
-6.350930 6.145166 119.788719
-9.189556 6.178492 42.178715
17.835587 -7.542996 59.238880
-25.708937 8.429360 10.377215
14.494978 10.513255 48.547440
17.212315 2.139478 100.243073
-17.895317 -3.312645 -0.613589
-9.279018 7.605286 62.943443
-18.397896 -2.282732 62.455250
-21.221041 3.185735 75.163010
0.541993 7.267792 117.558731
16.435249 5.764281 60.598438
3.233969 -12.719071 132.163208
-20.454615 -3.626184 77.880875
15.761810 -4.718608 110.244705
-21.877903 11.875601 8.451742
-27.741999 4.184309 4.147615
20.843781 -2.359894 10.267249
-13.493089 8.884181 56.991753
-2.013815 -11.486348 133.845276
24.349653 9.368741 9.799539
-8.543598 12.074726 138.550110
19.405527 -4.171528 90.610657
11.133915 0.177231 39.738789
-4.800521 3.846652 78.466339
-9.188853 9.834973 107.716064
20.841881 7.735353 49.717808
20.329956 16.437197 25.516809
-8.484689 10.008726 152.805908
-3.853620 -7.789339 140.046402
22.188208 1.364041 75.716995
13.592050 12.281999 47.512383
-20.072962 -5.363952 65.167099
24.969952 3.329718 72.428589
-14.535738 8.556647 63.992775
-1.636355 7.536797 87.641907
18.287258 3.682107 72.201187
5.944172 -0.734314 158.519363
-15.352828 5.271785 28.732956
-17.911066 -0.120476 21.411987
-21.887285 8.938024 38.794201
14.457944 -1.931877 9.344778
7.975904 8.561443 56.082623
18.857883 -4.668676 16.749023
-20.025681 -5.937754 77.298904
-5.108001 12.033639 94.952286
-12.972736 12.544764 91.170242
18.843901 -2.942456 6.854892
0.935194 8.213509 129.309418
-23.063211 -4.287896 23.785301
-4.000171 -1.957733 64.167175
-7.909530 10.309508 127.956696
15.529578 8.626393 61.841232
13.153580 1.756761 21.330385
20.968378 4.020284 69.198860
0.891319 -3.372981 145.096970
-7.373802 -6.318904 81.917938
-2.454466 10.646008 157.400665
24.258148 -1.623046 57.514069
-18.454531 0.407298 84.792549
-30.703764 4.420211 73.145073
-6.659416 7.022035 122.339752
-14.700473 -7.503232 62.331661
24.755072 9.010137 26.402069
-20.905981 1.838225 51.963863
25.927641 -1.807869 7.083792
22.682171 -5.761786 76.423500
-7.101935 6.905598 70.916939
-19.027531 -3.985065 86.471977
-8.404002 10.321975 147.115570
-13.392019 -3.465983 23.457897
9.942290 2.989790 151.483276
-12.684913 0.859222 109.990936
-4.354186 7.748420 117.121025
14.357841 -5.922764 131.319778
20.921185 3.196889 69.501450
9.315411 -3.737051 53.436378
11.893364 6.940387 102.353134
-5.916886 10.038472 130.271500
15.775663 -5.887268 96.183304
1.360094 -4.284694 81.287323
-18.757196 -3.475589 64.007240
4.218174 -0.118130 149.156448
20.266508 9.740418 36.004330
-17.716095 12.947522 38.437054
-22.193893 0.597496 45.381905
-19.566475 3.295319 26.550865
-9.493679 10.056688 95.810501
23.275175 3.475545 61.572376
-7.539849 1.385935 66.037819
15.063510 13.510422 40.720230
8.149591 7.907013 53.549534
-6.415260 -2.763439 146.950607
-3.175483 9.371204 97.844650
-4.504885 -3.129869 161.329575
17.106340 8.476729 69.904282
0.662659 -9.568089 95.678268
-0.013549 -3.589580 147.605316
-12.204592 15.134657 139.243378
1.461614 -3.774463 151.114334
27.783735 -1.522773 76.137138
-10.910654 -4.494427 141.791733
26.070602 10.239683 17.416172
18.728992 1.371873 67.794899
-13.782756 -7.870452 105.894836
16.569386 -1.547354 89.303268
-12.366403 1.904673 129.889709
-5.107679 -3.621328 65.322968
-8.504406 -6.199492 73.621582
-17.710646 11.737405 7.218896
-1.174891 6.018473 83.032288
-7.099222 5.210579 56.953640
-4.655258 4.965184 49.543770
11.148538 5.295776 59.703026
11.098022 3.918863 116.289200
25.624334 5.809822 15.570089
19.506512 -0.227011 88.409981
-4.456024 5.967971 75.024422
-18.747189 6.528895 44.051826
4.693094 -10.494252 107.569008
17.371140 -7.403677 80.369461
-10.136939 6.985091 128.177872
-14.065815 -9.894995 86.973961
4.634235 -13.078108 100.048279
-24.057423 1.834109 27.087740
21.082041 -4.054964 74.407051
22.251743 0.671115 69.602234
-19.365438 13.154638 14.533785
8.270445 5.278010 155.647919
19.899147 6.296400 49.981895
13.666418 -8.644296 49.933201
19.489861 -3.472141 87.170303
13.409384 1.607026 127.258995
-14.232573 -6.805056 63.296471
8.016973 9.981969 89.536400
2.949647 1.137920 79.049362
-21.018740 14.231779 9.745165
5.712092 -3.915992 149.789597
-3.766676 11.979292 159.643005
-13.786855 -3.478888 115.557724
-7.965781 2.824645 48.096363
-22.852903 -2.880770 63.384266
-13.095158 11.630912 136.247803
-16.724947 7.188537 89.541275
-4.068576 13.864301 145.981537
7.494288 -10.320130 113.649109
20.177921 4.106042 71.923790
-13.669573 12.838420 27.768097
-11.861173 4.916876 149.949783
17.266996 3.171073 66.740013
-13.660355 13.516704 40.723217
-15.767330 8.373293 74.006058
-15.376564 -3.181510 11.898573
11.735088 0.981813 41.838978
-0.310488 7.831015 157.000824
-0.434806 -9.226375 108.772758
17.122667 -5.323610 100.715828
-12.550321 -9.423853 66.139580
-25.011364 -2.311058 77.669052
0.100123 -13.948109 133.206345
30.374418 7.652618 23.453480
4.451773 13.430894 135.430313
-12.038305 7.841198 84.315994
22.192255 -6.278975 69.183388
-5.536086 -9.055234 84.355080
-18.261709 14.752741 142.191391
-5.582891 17.191124 92.226883
-18.875748 1.789653 58.414928
-5.672595 -9.486253 138.987335
-5.336259 -4.659936 69.421227
2.567934 3.884741 119.701256
14.357989 1.534521 110.702805
-17.514471 6.018387 8.695288
-12.839725 3.997356 123.185257
1.290293 -9.843362 138.308334
-20.476044 -2.940437 89.384666
-12.103245 8.519508 40.453640
29.076778 5.878880 6.795040
-6.630869 -6.023507 85.064949
-12.520288 7.851145 36.125191
2.481646 -11.035485 131.627228
-10.363092 3.046371 150.906235
5.462549 -12.489128 122.650703
21.439800 -1.291853 61.741112
10.011943 -6.934958 111.213074
-21.353489 -3.510003 66.720428
22.623207 9.479257 32.592731
0.808540 2.641709 79.761124
-6.306182 -11.612147 99.603638
2.408051 7.622493 88.667946
-10.876041 -0.540084 72.747017
26.101601 8.856796 23.356447
-20.905987 3.006412 65.693115
-19.214081 7.564548 71.851860
-4.349143 8.627434 107.790665
-12.462017 2.447320 113.642578
13.545127 -2.967422 29.136002
-0.035383 -11.951539 100.924606
-20.070808 -2.232328 152.449173
-7.231388 13.357594 102.638191
24.597889 5.775536 22.881819
-22.506273 2.439473 83.032341
9.508891 5.193539 110.644318
-24.984156 0.958631 70.563843
10.000027 5.792623 110.586472
-10.768600 13.686629 132.519836
16.387877 9.833229 15.676517
22.079449 -2.731009 52.388374
20.606892 1.359728 60.575859
-10.306820 -0.223494 43.187744
2.305320 8.138761 89.708000
0.692082 -8.942413 139.232025
3.092010 -3.215104 146.316116
22.421589 -1.253518 50.429661
13.593744 -5.820519 133.510941
-10.954611 8.092105 68.347069
-14.238792 -3.444969 33.328487
12.659594 -3.435935 11.079268
8.696937 -7.331517 69.886314
17.134371 -5.166281 96.873390
13.866561 -2.480301 35.552250
5.429970 5.985991 155.118240
-23.792421 3.416131 32.332226
3.679966 -7.470613 145.636902
-8.742200 -10.321728 71.186905
-11.532177 -11.265891 67.240860
-23.224384 14.484044 9.762290
-7.096641 -9.847765 93.792732
14.275269 -3.528714 13.365140
12.848306 -3.810616 108.872986
-20.617268 -1.947094 77.269867
-22.437525 0.429147 78.110435
6.245760 -7.925078 77.790230
5.066806 9.861516 153.657944
2.936785 -9.182207 140.388535
-9.418741 7.357587 31.131266
-19.356937 -1.402562 62.892414
19.098557 4.446292 87.644249
12.837700 5.743458 150.426682
9.357582 -12.027924 138.778763
7.986778 2.162313 62.913448
7.200361 -11.305266 138.867554
-20.897987 1.196773 77.104652
14.670631 -1.120707 126.789192
12.664094 -13.499888 133.321594
-3.932800 11.313334 159.554138
-26.257847 0.109864 77.038521
2.093492 -12.265423 123.620979
-17.192772 -11.457140 83.695084
8.609950 4.483402 70.829178
14.484196 8.841355 93.871025
17.660633 -1.994563 10.616274
9.974103 9.686896 38.047070
20.586430 1.566011 12.964025
1.876095 11.621476 124.239594
16.409063 -3.048093 84.057159
21.453030 4.626135 29.481781
-26.415033 7.560541 22.129530
25.131844 -3.340424 72.398811
-20.238708 11.890259 26.782448
-14.224001 1.379894 131.737534
-18.912235 -0.519778 96.367104
7.127027 7.239956 119.499947
-17.963148 9.409917 37.046589
13.181330 4.142962 57.234474
-6.644650 6.565207 103.300575
19.566238 -3.568480 19.927969
-3.225097 3.737662 156.412247
1.293516 -8.110397 141.610641
-24.069307 0.554658 71.552948
-11.316038 -10.555331 79.031517
-12.756893 0.227153 8.069114
-12.060958 10.030504 45.773335
-8.753684 4.088381 71.789230
7.434567 8.060266 86.581039
17.451256 -9.132649 76.349373
20.369352 -5.797516 75.582764
-25.389887 5.089869 74.932892
13.971619 1.956166 151.361496
-2.172652 14.631536 132.730469
16.318972 10.303678 23.400627
-14.368002 -5.813283 126.339104
10.039222 -14.465016 130.909119
17.286283 6.200498 72.941452
-15.539355 3.990889 131.525833
-28.859560 9.368649 15.416131
-15.571594 -5.558983 31.010332
-11.123235 4.863348 30.632547
13.685899 0.053240 31.710358
-5.901205 2.730066 55.607655
-20.959084 5.218650 60.695187
-16.575525 1.150611 4.300940
22.476604 -5.015558 79.582962
-5.698447 -4.321093 147.372101
-10.754641 -1.365815 150.990036
13.989341 9.994296 59.391689
-7.338537 5.053932 153.718277
-10.746406 15.092213 148.610275
10.270414 10.718754 106.253464
18.175884 3.476792 70.643494
5.987821 9.774792 73.144981
-12.892894 -2.149877 16.388540
-13.414143 6.774755 66.084564
6.622423 -1.582501 61.112068
16.852907 9.069918 149.032547
28.026917 2.074626 4.427117
-20.416224 -6.163321 58.128117
-5.825150 2.948281 153.172882
13.498144 11.504426 136.797501
27.910515 -5.788405 78.875961
19.259552 -0.675413 24.772552
24.275957 -5.005708 76.359802
1.895504 12.678029 144.500351
16.481466 8.198277 52.882725
11.438835 -8.641303 79.898758
14.703818 10.341846 44.015087
-3.992524 -3.962327 74.435501
-19.723213 -2.115806 68.383774
-20.384392 1.402900 64.035767
-9.956834 8.706371 103.433243
-20.097960 15.022744 32.543465
6.350204 2.641582 152.654831
6.555992 -8.519123 143.100861
-13.819480 -6.501134 51.406879
21.272234 9.170060 36.343662
-6.308905 -5.536263 76.536873
-23.110092 -5.099100 75.347778
12.436316 9.296461 31.925827
-10.689800 -1.786829 52.833118
-13.726220 8.401900 134.774460
7.325123 6.218097 80.192757
14.919784 11.987724 37.061317
8.797499 11.058415 145.359604
-3.771003 -8.663453 93.913002
-6.324976 -3.767772 85.933395
-14.129107 -2.416794 128.398529
-14.661396 -7.282009 70.281937
-24.574032 -0.172440 77.866249
-15.130358 -0.851964 109.010910
-3.173647 -11.371664 105.273697
-11.861515 -4.131806 46.098995
-20.985514 -5.731650 67.474243
-5.805527 -13.123702 132.556686
10.344860 7.525026 135.298325
6.557487 2.489137 53.566818
-23.083321 9.980377 30.561422
13.311677 -1.980240 9.041431
8.966055 -6.433538 82.965523
3.552337 -6.240005 92.726967
-16.431389 2.567279 103.568794
-7.983982 0.660866 52.070282
-15.385710 8.055456 99.974182
10.382391 7.093409 125.664978
18.170223 -3.897387 34.599541
-15.776026 10.859450 47.133873
-19.269247 12.669109 10.384565
21.268410 -6.833441 77.047691
25.141129 7.541022 25.195135
-13.158641 -1.491903 127.032867
-12.406163 3.874324 42.613747
-9.363549 -6.004148 138.856369
-19.369389 11.444704 21.809410
0.463006 3.603981 83.402870
12.531794 2.322981 11.155253
10.784976 8.737861 63.853916
-9.297252 -12.057684 75.981308
-1.631285 10.256723 131.212372
17.175762 -9.774294 63.414165
-28.084070 4.623646 5.767830
24.260286 -2.074725 10.569031
13.386392 0.494100 38.416508
5.361441 -2.426707 62.781635
-4.939600 9.872806 130.405457
10.195121 3.476820 42.886181
-7.536767 10.451196 103.790657
-30.435207 -0.784248 76.724266
-20.920383 7.900301 52.887989
9.681633 -8.854893 71.340302
-14.649180 0.150370 33.969070
17.665081 -5.805083 1.706695
12.531495 -3.089512 113.828857
18.844233 6.854454 56.846897
6.621005 -13.742056 129.271591
11.902270 -4.700455 141.549347
-9.242706 -4.227603 65.393425
13.669491 -0.908197 41.632004
8.174761 6.566183 125.272545
-25.085764 11.472681 4.512420
-11.572291 6.323563 130.050369
-24.863007 7.894804 35.038227
17.955694 6.254740 86.593307
-19.000359 6.554390 85.408340
-4.561985 -7.592985 94.047638
-21.964718 4.720379 36.367355
-22.373705 6.153657 67.084732
20.362040 -3.020988 20.434679
-7.926993 -5.039341 145.906204
11.359454 -1.378215 114.749474
-26.127922 -1.285498 76.771729
2.220282 8.621510 152.847336
16.355610 6.329109 73.109802
-0.347535 -11.620479 100.073578
-4.179951 12.651784 99.798485
7.596991 -8.795277 139.427811
-5.421883 -14.694340 128.659546
-12.229818 -6.093410 60.664585
11.088421 -2.991127 143.547394
-12.841166 2.856906 20.773634
-5.766579 9.612431 107.842979
-6.412342 -1.970806 68.257141
0.056759 12.649519 99.121758
-10.201787 8.553748 101.609665
20.853497 4.069406 65.993263
-11.413464 -8.741263 142.192932
-19.752373 -6.125196 1.158244
-2.183167 -11.542862 129.108826
15.201062 -0.731816 10.882721
-5.348861 1.058825 155.468216
-5.927327 -7.255467 79.548523
12.196923 -4.754640 50.347618
-5.332181 -9.322284 136.100098
-26.712072 11.314340 1.379731
3.268522 13.580187 89.523071
8.587502 4.782101 64.660744
-23.776976 -3.805113 65.911858
-22.041807 2.060262 64.995399
9.061984 4.724954 150.802963
-17.208324 -0.395434 75.232193
8.741157 4.955040 104.003197
8.392837 11.697639 85.412369
10.968275 -7.232039 114.126282
14.629350 -3.044311 123.587730
-6.818948 -15.001074 131.273315
-21.897339 6.226202 63.224796
-5.803969 -0.123693 61.396179
-15.292389 -2.009032 35.316345
-14.490664 -4.315088 99.372559
22.181801 -0.047881 25.722010
-14.329879 -10.257862 128.640594
11.163908 -0.527102 39.502602
-15.530415 -5.955329 54.426643
-0.416645 -12.420924 103.419830
-13.970697 -8.478852 57.493637
13.343293 -7.308752 98.402023
9.342582 4.745567 60.876106
3.273949 3.329098 90.958801
-23.566608 -1.243096 8.657207
16.216730 7.432617 7.997695
-17.956839 -1.065910 79.857239
-8.914175 0.360957 150.631866
7.306388 -11.729858 138.410645
10.845599 -5.406948 60.328323
-13.290236 0.255310 128.276047
14.308580 -3.581060 20.631334
19.583815 6.184020 49.245506
13.411579 3.619510 79.627403
-5.003322 -4.422633 145.251999
6.776377 11.994394 131.208710
13.484793 -1.762082 54.550915
-24.279737 -0.089558 42.043533
-13.630009 8.563170 137.958282
-25.585106 9.846322 15.495105
16.163992 11.234740 31.791483
13.717850 11.356281 89.505112
6.460514 11.654128 98.258385
2.825796 3.435788 115.323051
11.147243 -1.772156 52.849297
1.920980 -12.239374 128.025513
10.950498 -9.215545 83.614128
-6.864769 -14.662551 135.674622
-6.395132 -13.159199 112.243034
19.733238 -1.558174 72.395042
20.405624 -7.288547 62.542633
-13.422531 -10.148335 134.180023
-0.338449 -17.342463 133.329712
-4.884933 -15.224554 101.185776
20.724024 -0.981949 82.376846
13.376339 -10.004172 67.844604
16.586130 -0.530454 95.864326
16.026550 2.053143 4.136760
-16.889784 -6.662187 93.248672
-19.405518 5.617576 83.271408
1.503618 -2.327081 146.675262
-24.003374 -1.394570 30.632992
13.036061 8.113772 74.616440
11.116278 -0.721623 44.872940
-16.549995 0.854056 87.393372
13.232755 2.352838 127.086098
-23.562225 3.975221 59.360291
-23.192976 13.785726 4.912810
12.580395 -0.418315 37.924503
25.425415 -5.721148 82.234848
-24.377386 -0.619274 79.627396
12.387996 -3.736773 27.618828
-26.867493 5.469951 4.549451
-10.601171 6.614451 53.765717
-6.488383 -1.687202 154.136047
-23.466362 -5.905837 67.777077
13.925568 -4.888200 51.742939
-21.387884 0.443161 39.444016
14.111589 -4.455384 33.419891
16.056580 2.477318 40.958466
-3.764347 -11.699328 121.953758
-5.656005 -10.681798 94.715294
10.120446 5.319008 64.779045
-17.334856 8.065608 12.503776
7.354519 -3.184299 146.448242
9.790980 12.336489 103.191132
-6.727512 14.033415 136.259506
-22.197878 -5.193696 34.478767
23.631510 3.373340 62.475166
10.052897 7.371116 103.204910
7.261918 -13.260349 123.091606
-14.314341 -10.443822 112.849777
17.753321 -6.179715 93.887856
-3.606167 -0.724329 152.868439
-23.234131 11.821245 3.554961
22.493959 11.199312 29.266453
12.439709 12.101491 89.882980
24.864241 -4.117267 80.871002
7.682505 0.844988 46.397682
-8.622025 3.031601 122.738129
-8.506705 11.106482 106.141472
5.302478 -12.222492 130.353256
-2.058592 -9.240342 97.975876
-10.309773 -8.814077 95.868820
-19.150036 0.930351 85.630707
10.997157 6.819318 68.841759
10.506387 7.626949 55.764107
5.233605 -9.367049 95.898254
12.096704 0.553966 40.974033
10.413887 9.905569 136.634476
-22.809238 5.243352 26.087748
1.173054 -9.672378 113.377701
25.959269 4.654282 15.237292
24.854107 3.812028 9.526407
11.656008 -4.714940 57.292492
18.209110 11.142186 39.720917
15.050935 7.225382 55.545456
-7.535563 -0.234958 65.790298
16.024841 -7.297359 103.433563
-2.184625 -10.330478 113.288795
12.363618 9.742862 79.251022
-21.198030 -0.065124 29.370628
10.878180 6.998914 40.111752
14.289784 1.473627 8.141505
-26.531853 0.417879 72.677612
-4.890974 11.321691 99.290001
6.768868 13.482459 144.143860
18.757853 7.754595 57.522640
-25.498791 0.780343 76.787117
9.760130 10.846783 84.743965
15.867180 -6.517033 51.373558
16.925974 6.260541 44.684902
-9.728923 -13.086246 132.304184
-9.387734 -0.116154 50.861877
-23.163807 1.749801 70.451340
12.269094 -1.682572 17.526327
9.529142 7.629935 93.845016
10.010695 -7.255590 62.939026
18.204952 -8.804946 48.757000
17.263775 -5.556302 16.827862
14.916227 -6.313694 46.491596
-19.801147 -5.039713 62.719284
6.825253 -8.505700 83.083527
24.809412 5.153767 39.948421
17.843225 9.568149 42.413845
8.277922 2.498045 116.355339
2.040571 -9.228277 113.328316
12.774416 -6.911276 65.340492
12.452891 8.166390 62.470772
4.378746 11.678399 88.958786
-12.241096 -8.382485 93.140457
-4.884966 0.853268 69.966331
15.277014 -6.838372 20.050571
24.029261 -0.909370 79.779381
-28.875244 6.797663 13.967080
-4.764302 8.455859 146.813065
19.864140 7.742732 42.311394
-15.556078 3.009425 100.297760
16.136007 -4.536881 58.256268
3.052679 -7.515039 92.208809
3.931881 3.256055 77.483803
11.699528 10.916839 45.162277
25.558521 -0.667818 75.984634
-22.347847 7.018786 20.330809
15.541877 8.266773 22.454578
-10.000887 -10.908529 132.158615
-17.312082 9.567325 82.425362
5.977265 2.480976 116.682388
6.329526 7.261270 154.857712
-9.530496 0.559100 50.237595
-15.638592 -3.836491 107.607391
-20.366014 -3.564136 14.723986
12.294035 -9.061928 138.364273
6.880096 12.220454 137.609985
4.772978 7.083028 112.289970
-11.111309 7.834915 63.542858
15.681070 -5.298852 68.748390
-23.683565 2.576953 44.090618
-21.042332 9.161535 36.394737
11.013234 10.390924 75.812889
16.827688 5.809778 17.579056
-9.117901 -9.721214 78.792160
14.515805 2.880164 16.904617
-1.815912 11.669601 147.586304
6.110873 -3.417770 71.366379
-9.696499 -12.915308 131.238754
15.052184 6.553201 61.033802
15.770329 -7.359538 104.991104
4.142144 0.045975 72.174515
22.319372 -0.589379 50.670750
-10.252176 7.507467 70.611084
-7.525843 -5.391899 74.069305
14.922476 -5.925725 100.996666
-11.763729 -8.815364 96.908318
8.313315 4.096611 52.646576
11.523766 -9.712009 103.207222
28.036840 -5.929440 59.184727
-1.384627 -11.752623 135.555359
-0.419996 10.700919 134.526840
8.529129 -5.995680 67.960442
-20.385746 -0.245120 79.831406
15.782458 -10.278665 92.127159
16.122629 3.728975 65.279785
-16.582308 10.722188 24.937494
-9.376421 4.581759 46.953648
-6.315804 -2.701574 67.157585
0.626550 -7.717319 145.507629
12.692002 5.310863 132.471924
21.885420 -8.720426 68.332008
13.341906 -1.575275 22.479330
-17.108372 2.667785 83.902496
15.932194 2.226783 17.254295
-4.335387 10.729208 107.348869
-11.966868 12.365483 138.219315
-8.339791 8.377508 117.840233
-2.170664 4.998186 88.014595
7.411066 7.649024 118.957245
-17.894247 -1.577836 97.796684
22.405273 3.053974 22.864471
3.205037 5.281136 123.220093
6.057346 -6.475436 92.289093
-15.762899 11.387588 47.188057
-7.478844 6.500667 73.003738
12.951258 0.893449 120.667114
14.941733 -0.371682 7.288614
-0.723594 -13.376267 112.075409
-7.722586 -0.510679 149.189209
22.223463 0.068607 70.454201
-16.832966 -8.098709 91.011795
16.942806 9.795312 46.175076
-13.928736 -1.577429 20.336910
8.782306 7.994618 125.160263
22.643385 -3.113256 58.876133
20.805504 -7.196065 70.622040
8.560527 -4.253787 114.363739
-13.092748 5.360486 18.244139
-12.260047 9.897146 29.927250
7.732009 -9.579007 99.724579
19.678362 -7.371261 67.447189
10.307177 -1.617139 55.201202
19.511620 -5.883928 88.970512
17.461678 -2.467580 66.208237
