ply
format ascii 1.0
element vertex 2048
property float x
property float y
property float z
end_header
19.513792 -2.899263 31.326866
9.270974 -7.718978 82.541840
-13.491691 -9.763182 51.909199
-8.636379 -8.208336 29.058712
3.391511 -1.692591 31.617111
8.881403 10.031808 90.574638
-23.414474 7.447750 35.939648
19.880867 -7.095570 65.428078
23.164133 -3.071362 34.963566
-22.560711 -3.667965 12.155391
21.380627 -8.558920 76.457916
-3.630300 6.212016 60.219017
-15.626681 -0.171745 97.891922
1.747169 2.093835 54.230030
2.850567 -1.715766 86.453926
-7.895362 -3.283338 15.519857
-10.188364 -5.754234 19.734734
-28.006140 1.365908 16.766045
5.049932 -12.474520 109.775116
-5.664685 9.161237 75.196342
-19.283804 -5.703296 51.612366
-17.689762 8.348421 90.580292
9.914878 -8.855694 92.455452
5.399981 4.911985 113.930908
-14.845533 5.585788 103.163574
3.192713 -1.375515 66.459312
-6.367448 6.524852 55.020752
-0.406149 0.283794 86.876686
10.126821 9.518300 103.015472
12.845651 7.507913 76.525490
1.925275 -4.483189 54.069046
-3.479090 -6.742159 86.620789
-16.891191 10.839280 40.778728
18.506046 -4.577494 11.348573
-23.199917 -2.593780 60.001789
9.066408 1.371761 117.747314
-14.339213 -8.890760 50.362091
-6.331854 -11.711541 110.400230
1.864835 1.293446 27.693871
-13.031302 10.195877 40.652580
-7.518658 6.722742 41.979832
12.972937 9.588354 96.100220
0.104429 -3.714044 64.518066
-10.447070 -7.779186 83.288155
-9.710099 4.083108 111.081825
-8.084104 -6.148752 30.176701
0.454333 8.431841 107.697533
-22.977924 11.797711 27.390165
-26.874706 0.227414 16.814911
17.269255 11.216583 40.343571
18.975416 -5.026439 84.096191
-24.529034 -0.279242 55.741627
9.985591 -7.823327 35.291683
-15.463920 7.481028 78.338348
17.637428 12.364377 19.268885
15.963015 -6.443442 35.384205
20.887413 11.405409 10.562687
20.487286 -3.474331 74.033340
-15.912933 14.483801 17.091118
-2.196249 5.172054 44.858158
-19.964972 -2.381547 10.550821
2.477595 -0.111456 36.369820
4.208183 -6.870678 53.483971
1.922465 -1.776069 86.995811
21.717873 2.654062 78.589127
-14.761225 -9.756687 76.477539
13.610599 1.944049 114.012222
16.982714 -1.696958 91.254257
-22.613937 5.714412 66.135010
18.906073 -4.947769 82.906372
2.947541 -3.434749 14.139341
-25.187279 4.121759 46.699821
-8.154797 9.649770 22.100554
10.489344 8.642864 54.549194
16.928053 6.540696 59.839424
-13.884315 3.959378 105.754692
-1.618831 -0.966673 82.383339
11.966337 -7.347284 71.627075
13.775424 8.761945 40.129910
13.331018 10.368108 17.664444
-13.501805 -5.385328 65.809761
6.917372 -9.329142 23.696440
8.243918 2.396528 113.523613
8.338356 -3.167643 13.727359
3.397323 3.798815 73.612511
-23.497789 3.512981 37.076962
-22.750017 -1.202959 91.419289
-12.774876 11.392337 50.306713
-13.278370 8.657301 48.775234
23.208101 -1.845714 74.728546
-4.982113 5.695783 109.542397
10.640955 -6.074825 10.748354
16.952061 -6.867126 43.855576
10.332969 -8.066699 69.196709
11.712320 3.451421 109.324776
21.263590 -3.699896 32.941013
-4.051881 -1.589857 52.818089
3.319784 -11.078588 93.140587
2.494563 5.270498 89.027466
-9.030286 -5.121324 27.818317
24.254009 5.915986 36.366463
-3.253093 5.644550 74.992294
-5.655722 8.452029 72.486626
-0.698423 -11.832202 103.265282
14.105867 1.571942 113.427589
-22.102543 2.449272 66.452629
-23.888124 4.527421 41.202698
-16.192968 10.620598 34.106335
-9.798204 -6.001581 53.306889
-12.620048 11.711094 53.611732
23.430187 -0.369144 35.456467
22.391201 -1.507722 50.004925
14.473762 7.118770 55.666851
11.096017 8.132998 82.465599
-19.115685 10.816200 50.478302
22.192646 0.193521 43.425674
-6.962532 -6.341549 74.361183
-13.605143 -7.138167 103.157104
16.790382 5.766555 75.343872
2.723908 -13.177314 104.383064
18.350183 7.577537 76.779915
8.867892 6.038562 113.103149
13.565276 -9.647205 76.633125
-24.566559 4.144426 40.217056
-5.208340 4.105032 17.949081
20.826403 -4.322518 10.434420
21.549057 -5.906408 57.826935
20.593582 13.308403 24.230539
-18.313971 -7.872742 47.093262
-9.455282 -12.840261 104.438843
3.218597 10.555969 88.799194
-22.297159 -2.038371 40.316113
16.171354 -7.800416 66.196739
-21.285145 9.807840 49.821785
20.180517 2.977235 84.314995
20.472782 12.394978 15.928251
19.255735 -3.366719 86.357788
4.681281 5.082227 72.913559
21.976879 -1.083614 29.347334
5.461950 6.400950 59.701485
11.312549 -8.804186 114.653427
14.190815 7.141653 94.573174
6.264755 7.515251 69.630371
-19.884987 7.764875 63.704758
3.265597 -5.766747 96.188583
-9.170212 11.800989 92.936752
24.217186 3.344527 43.860226
12.102009 8.485011 101.823235
-16.666107 -2.771098 38.582188
16.649746 10.024258 68.389633
-8.224850 -7.451396 84.171410
17.204218 -7.362094 19.579504
18.803799 10.756269 50.317535
-15.009987 -3.608242 21.024883
-16.675257 -3.250691 29.856663
-4.410004 6.997219 81.459892
-0.364935 -1.614965 42.193413
-17.542280 -3.672731 53.657825
3.756179 10.290135 114.871765
5.165683 -4.793214 68.516365
-25.723158 -1.212995 16.387680
-14.218683 0.312758 113.140587
22.708666 9.221251 30.287683
2.032561 5.966884 82.384117
1.856108 -2.648836 41.496124
7.637366 -6.469094 25.585733
-2.304158 1.283748 73.234360
0.019193 0.032114 58.411999
11.779016 8.028496 50.700546
6.172129 -13.449970 113.914772
1.771621 -3.767196 48.911636
-24.004351 5.165267 51.678921
-19.147614 -2.590546 79.269524
1.079416 2.181857 71.878761
8.826421 8.112125 7.371883
-8.269133 7.471241 104.539230
18.195383 -1.701908 101.258820
6.247988 5.955999 55.898468
-1.371463 -0.533338 33.559036
-16.939943 -6.604191 27.978800
19.026224 5.110216 63.302052
11.851196 -8.588510 19.415014
14.021357 -2.107938 114.878021
23.006756 2.933371 68.597908
-9.696430 -4.652758 25.868082
-14.685836 -7.811382 94.794418
14.461997 3.043848 111.283264
-4.014542 -3.289813 84.671257
1.549124 -2.188972 49.223839
-4.057967 3.362000 71.133278
-19.620403 -2.081042 65.572723
-5.426565 -7.166302 79.898849
-19.535236 -3.210004 35.038452
-25.523155 1.966887 61.382999
-20.170338 9.020183 7.937898
1.508741 0.872572 64.346214
-13.876240 -8.391185 69.381973
-17.050997 6.981186 81.167496
-1.393078 -0.832840 11.652269
-16.853926 -3.010863 33.325882
3.373602 6.865403 12.195236
7.386754 -8.668512 52.798653
5.311801 7.652851 66.313545
2.752191 1.854457 60.374832
20.073132 -6.211016 7.944463
8.579421 -8.238855 62.653576
23.610817 11.828670 18.669176
-15.215306 -8.807894 80.385841
-26.637033 0.747468 53.360744
9.382749 -8.517465 59.283131
11.767372 -7.088702 25.560457
18.152197 6.615894 58.409245
3.953341 5.117390 12.975876
-3.130613 -11.103253 110.275642
7.456789 5.278814 22.225416
-18.682928 3.127400 88.522575
14.064100 -6.651277 53.584251
-8.102795 -5.874023 18.580162
-2.556240 -10.416094 98.611511
2.777715 2.990712 55.523888
24.297050 5.000643 32.693027
-2.987977 2.050330 77.109528
16.922859 -8.448643 41.555599
3.428199 -8.570615 90.885735
19.111458 -3.905368 42.439655
-17.217632 -7.534805 75.904938
3.932634 -5.482263 56.396137
11.995255 10.399470 35.236023
19.740969 6.119425 74.603973
-12.414821 -3.566362 116.134872
5.473693 3.274867 45.440029
-11.026881 12.518705 62.537342
-22.772179 -1.673798 48.959908
-16.670433 4.447283 89.704796
-24.531799 -3.007105 66.414734
-2.706495 3.492137 11.788424
-27.039307 3.738224 34.673851
13.302108 -7.971055 109.040924
-15.762192 -4.817281 6.612915
3.512996 7.472249 85.565361
-7.618129 -4.112699 41.973129
17.499706 -4.293540 88.055740
4.438162 7.926528 26.894913
-22.103876 -7.581713 81.499954
18.651176 -7.473427 73.595886
2.781255 6.577269 11.054991
15.163663 -8.423975 32.278942
5.240459 11.994475 85.975029
4.436194 -4.309489 82.727074
-3.506457 -2.739038 20.479568
-22.236471 4.352414 70.851059
5.581738 6.626343 28.443684
-5.557362 4.784880 110.647186
-16.260538 -10.765440 74.772614
-13.314697 -3.146656 113.726440
16.393105 8.032578 57.584354
9.756809 11.249831 84.736031
19.699663 -5.049279 31.809870
5.021049 6.084450 26.465887
6.140208 6.667013 39.018429
-7.574156 -3.955828 50.913940
13.056926 9.309937 69.593353
-26.154819 12.104596 22.632856
-22.301077 -2.953167 27.142031
2.948603 -4.649369 14.104758
-2.310614 -14.887709 115.906693
3.465132 -11.284587 96.216843
-10.727411 8.729282 44.431190
-1.450439 9.625064 86.699432
20.492517 -2.107280 88.033562
-18.624987 -8.562190 36.710255
14.839886 9.381665 39.089314
-1.417844 4.569752 79.816093
19.237862 4.338446 63.018372
-2.304043 -0.221763 21.345755
-5.296231 11.062726 96.515366
2.626399 2.722870 58.723637
20.896612 2.747736 75.425117
2.912044 10.975471 98.504532
9.748629 -12.922732 5.891294
28.581858 4.403854 10.794310
-12.203469 -7.697861 45.635387
-17.775730 -7.150727 96.933212
-15.505664 3.378142 93.862137
-2.421168 -0.780284 50.212315
-3.880390 1.967824 56.402657
-22.773483 4.278005 45.940220
10.685266 10.739485 47.938156
3.325488 -6.830241 82.746117
-19.155321 -5.423790 61.298599
-23.305079 -0.245048 47.933342
-20.576319 -2.543589 57.799629
-0.725135 4.265138 9.724953
4.373240 3.901007 36.068089
7.734680 10.919867 51.736778
-7.043580 -0.901928 117.659004
10.872309 6.134337 110.880264
-17.751558 -4.901942 50.420147
1.745731 -10.932378 96.425095
-7.881759 5.768682 52.601677
-7.299273 -9.950111 95.943893
6.229323 -8.182618 31.944553
19.584801 1.820670 68.130798
-16.647469 -8.737607 69.217613
-14.895695 7.580130 80.226082
-20.841234 -2.430372 15.832081
12.976002 -7.535537 98.626167
-25.018934 -1.905712 13.898211
-27.668209 -2.048269 10.128880
2.308170 -1.674014 61.428768
-5.203775 5.357975 49.643631
-15.771422 -4.341930 100.326645
19.394588 -6.437688 75.529076
-19.904224 8.641157 61.072773
19.792463 12.976948 13.357401
7.409887 -6.184478 59.913376
-1.267713 3.485993 74.183037
-10.014791 9.026765 36.689709
21.035875 -6.168701 75.393356
13.854914 -6.414956 111.662956
-11.459713 -6.153432 20.519276
22.702341 -1.196289 27.432774
4.512025 5.137916 37.500362
-17.396338 -4.542850 19.541565
4.762938 -4.013069 48.074253
-4.657500 -5.075771 74.460083
-4.522280 -5.599891 40.511211
-27.720579 5.911684 11.376297
-3.951338 -6.454689 90.067993
13.567616 9.272231 50.144161
-11.015081 9.991334 27.750750
10.213115 12.595656 87.335785
5.917384 -6.262402 30.704021
-1.333364 -0.021357 59.650963
1.991139 -4.320948 38.219086
7.346389 12.554797 96.225204
-6.424950 -5.434289 74.166626
19.915445 9.868477 60.338043
13.420728 10.805695 15.557170
20.230528 12.119932 12.144106
-1.982390 3.902884 11.039371
-18.404135 0.334224 95.717331
3.003284 0.419732 67.734634
-15.658881 5.339579 103.465096
-11.503962 1.608969 114.780708
15.239310 10.246293 11.640135
-22.982569 -1.659811 78.315956
-4.470816 8.241392 72.136436
27.598907 -0.927548 23.579271
-14.770232 -7.283817 53.843094
-9.628284 -4.237271 52.589931
-0.233716 3.354346 19.696609
7.822008 8.457524 67.845024
-19.330732 2.692555 71.657272
-5.972034 -3.446988 29.519531
-6.926344 -4.970593 23.497881
-2.619113 2.521365 10.211552
20.496380 7.513146 50.542156
6.056478 6.158168 84.294937
3.446612 3.358239 67.641388
-9.086420 -10.563217 93.658127
-0.751376 1.928005 75.932503
19.501081 -2.582975 89.903877
8.314210 -6.935702 70.758240
5.705995 -5.089915 34.538933
22.353197 3.976804 55.822777
7.519753 6.654676 52.114597
-18.476765 11.270340 49.942528
-10.325771 -4.455057 20.335129
15.059726 -4.785297 20.354256
0.781016 -12.480894 100.715294
-4.909604 4.832053 32.815784
-0.985120 0.491714 38.786201
7.156440 6.881831 51.641647
-5.080723 -12.138075 107.524406
4.030996 3.352641 82.002647
16.558767 -1.577089 7.921433
-18.793375 9.879304 48.543449
-23.535612 0.395303 61.070656
-13.321716 -6.370876 25.145390
-23.879065 0.981916 62.463165
20.533886 1.097473 44.791969
13.373922 9.448389 27.718153
7.377777 3.624531 118.081718
4.521082 5.204776 68.092934
-23.322359 1.148877 37.064644
10.140830 9.349652 65.588737
-9.802628 8.327875 12.851383
-19.579016 8.787174 46.393391
-8.362122 6.236550 107.901672
13.206532 6.221652 105.328804
-23.213711 -1.949595 19.847475
4.909269 5.530238 66.044647
-18.325989 -4.352362 39.367748
20.869877 -6.395363 8.767159
-16.735838 6.280783 69.500854
16.346067 0.803685 103.858635
-19.736938 -3.020835 80.925354
-13.004998 9.013823 73.130043
23.884670 4.782156 63.187176
-15.886456 3.280016 95.043304
-10.372006 9.035025 61.417110
-18.433266 -4.478689 92.967377
-14.890643 4.788682 103.625694
8.963902 -7.640376 79.361031
3.720726 -1.147958 17.309265
13.057343 -6.368549 33.604652
14.222219 12.705112 46.089779
-20.974302 0.362356 56.670147
-2.110509 0.442006 24.650284
-6.189314 -8.681136 102.492516
5.177920 -4.800502 65.455101
-20.082718 -6.146914 81.824799
-15.004761 -8.451492 77.466629
-6.743289 -2.975812 58.249634
-13.095908 9.554944 83.835739
-12.505045 8.536494 68.501190
11.993752 9.809539 57.966770
15.054800 -6.778008 29.767420
18.818285 4.990445 81.932556
-17.555532 -2.936044 29.604631
-15.219833 -4.064280 27.893768
-18.467775 5.446553 80.463394
13.328876 -8.538022 77.245743
-3.962719 10.587667 101.012993
-0.476278 6.270576 11.350087
11.953825 -10.283162 33.585773
-11.528573 9.470328 86.813347
5.800879 7.594167 14.232927
-19.010584 12.258826 35.780266
-20.064018 -1.908034 41.298847
-14.301406 -3.118037 10.698515
-8.806035 7.820472 48.611050
16.676336 -4.995846 114.262978
20.878437 -4.900249 55.200684
25.521099 7.503937 13.851689
-25.162403 2.123449 49.031803
10.312013 9.219147 8.969276
12.348371 10.739860 32.330837
13.151071 12.458096 36.943047
15.367665 7.489560 83.333900
8.309655 6.216429 38.296150
-6.881186 10.392138 27.302309
10.147519 -8.741625 67.051414
-16.176470 -5.545668 94.359421
17.322689 9.114189 52.616810
18.948292 7.524027 65.100883
8.448523 11.890797 76.781853
-20.689909 -2.890780 31.232759
-2.003351 -0.155338 38.445084
-10.556326 7.426665 69.354828
-14.992265 -8.849989 80.693268
25.495390 3.095492 35.539955
-3.756399 5.516390 76.230759
13.405665 11.236029 89.811180
-26.740953 1.713956 46.608501
7.391905 -8.776798 112.163155
-1.424682 6.086017 33.856339
-17.452276 9.646434 56.702972
-11.828887 5.822972 106.096489
-19.012856 -5.625595 51.739414
10.105559 10.807503 15.382737
-5.600903 -5.058923 58.847538
22.771393 4.045493 66.922920
2.555689 5.212528 75.263680
-26.626343 5.102032 24.803270
3.461519 11.616517 92.132538
19.213699 -4.183661 86.493210
-3.751740 -3.455678 58.730301
15.343912 8.555166 86.046257
-18.110884 -2.597891 94.236961
-12.840961 -5.677979 8.711898
1.757779 -10.606297 101.245064
11.685007 8.031862 94.819962
-18.909302 -4.551439 37.678005
13.100045 -8.123609 16.221035
-13.447919 2.121221 107.911087
3.848093 4.491658 57.033829
26.775795 0.391683 52.253666
24.319822 -2.318616 32.035728
-26.643106 -1.187006 32.152061
15.306977 -9.462402 102.072502
20.699425 6.306338 69.879913
-20.730394 8.634149 54.597721
16.952820 -8.202624 55.086838
15.366105 -9.415679 62.939182
-25.867338 -1.566479 33.174454
12.114550 11.813307 13.905848
21.851852 5.710391 65.092354
25.333263 1.022986 32.377216
8.924583 -8.106110 55.925552
16.384823 7.468512 56.013695
-6.822674 -6.888950 42.417816
20.567064 0.920975 65.212624
-13.784144 12.724152 27.945246
3.767545 5.948925 5.862299
-1.225932 2.471680 16.090599
14.952701 7.824436 63.062172
18.558039 -10.753466 91.569839
-16.698084 -9.069967 93.762154
-11.594318 -12.376623 78.178711
-5.906518 -4.122838 46.151585
-14.011069 5.693011 107.484917
-12.956079 -8.392086 49.568054
19.041746 -5.747397 39.706627
-22.326586 3.701835 86.416664
-2.083343 -1.584669 78.179985
2.405479 -3.299297 48.599968
-6.992425 -9.418930 104.816856
-18.074667 -3.520617 35.278290
1.476143 12.020537 89.137642
-11.500525 -9.635567 106.406540
8.036537 7.233959 23.450052
-17.952841 7.925147 86.825935
16.282576 -7.594905 31.293356
14.689384 5.951191 100.190063
11.706254 9.218265 79.199265
4.045514 -10.860394 104.247131
-10.910469 -6.772813 39.694317
18.754641 -3.170669 49.697361
-8.228140 8.437807 30.593260
1.400408 -4.472129 87.839500
3.786022 2.712847 24.353207
4.331990 5.779258 23.453293
-16.267437 9.300695 42.605896
-19.124533 7.686330 62.023636
-6.334940 -8.965569 91.283257
-14.982764 10.190858 91.898636
-2.480863 6.470697 11.051273
9.771834 -5.654672 16.767883
8.991145 9.209249 22.279575
6.712240 6.126042 67.027061
-17.128559 -0.224893 99.413719
-13.851815 11.188123 33.444698
1.641613 -13.189780 107.162804
-21.026403 -3.527693 39.400570
-15.507102 3.918926 108.997467
3.439826 0.448918 75.152969
-16.018360 -7.226456 38.912640
-17.026175 1.624442 90.396133
-6.948862 7.290005 44.639915
22.717083 -1.775187 43.448757
19.599035 3.992986 61.253628
-16.517662 8.728333 81.033691
2.244617 8.171221 113.601265
22.429417 -2.432723 41.401344
16.180954 -7.318033 95.754395
-23.239143 -1.834198 58.437721
17.560125 -8.040169 89.351707
-12.525559 10.760468 37.635220
21.443192 -1.459264 56.434158
9.007936 8.939378 68.469093
-19.384277 -8.901483 79.851105
13.038144 13.621919 38.315086
28.904259 10.451343 12.813688
16.043728 -6.698970 98.782112
14.779247 7.465196 54.782440
-11.351061 -6.936684 43.314949
3.012428 -5.137748 72.079826
9.602086 10.660844 13.961924
17.900564 5.833426 88.181854
25.017693 2.686450 26.320637
-16.931322 -8.407593 84.711327
-15.856012 8.777037 53.499866
-1.041424 -1.138652 32.075520
-14.231021 -8.278258 48.336189
-6.710974 6.994984 80.599205
1.547780 -2.358774 25.200146
-17.184896 -5.420975 55.928345
17.430258 5.798208 72.414085
4.160480 -3.395321 29.168728
-3.775096 7.494427 55.762886
7.278737 4.730125 115.296753
0.411843 -12.669308 100.054390
1.814301 -4.549558 39.068642
-10.997761 -10.945621 115.067764
5.674578 0.949709 67.388733
6.397617 -7.860507 65.445312
14.248886 9.223285 14.834645
-5.867789 -10.231408 113.350029
16.890087 12.214191 10.740661
-5.553368 13.438780 92.134911
-24.072783 10.801955 27.459583
9.574135 -10.827086 103.803764
19.475628 -5.639004 56.231110
-21.713272 10.209912 36.686916
-12.559727 -3.002513 120.757202
19.468699 4.392647 86.194641
11.304482 -11.993359 101.480972
-17.308281 -8.875984 72.772957
24.422546 0.045180 49.471436
-2.786876 2.107047 69.317986
20.132444 -4.209997 43.813450
-21.642414 -1.127803 84.374580
-22.716526 4.863562 43.889309
6.816155 9.940866 29.981440
7.958306 7.803659 18.818600
19.912651 5.710255 83.949699
17.225420 10.235541 36.946526
6.352097 6.102108 12.990055
25.484768 -1.722255 9.759558
-21.578705 12.991869 10.900386
-10.393947 9.475066 105.325050
-18.178555 6.929344 66.992722
4.988013 3.721361 23.799917
-1.071530 13.823423 92.364586
-26.158716 1.516446 14.922998
3.234035 -12.546163 104.537842
-20.533783 6.617891 65.313614
4.914307 1.543710 43.685863
-7.385683 5.454759 112.375748
-20.761467 -2.391758 23.468136
24.625338 5.718614 18.861938
-4.274755 -8.366406 88.936302
-8.540425 -8.198273 69.126007
-17.560303 11.402328 9.019681
16.870556 -9.467864 83.861954
-4.996757 -2.452251 48.719727
-6.742209 9.031970 82.694771
-18.933857 -0.611986 89.722916
-5.159393 -3.045603 67.296661
-6.220116 8.841656 51.087173
-22.338400 12.022283 26.974257
15.606407 -8.362143 54.466045
-15.904528 -4.293162 42.981400
-12.934460 11.421037 86.921555
-20.183247 -2.141894 38.171562
9.515724 8.275467 79.968872
10.262925 8.818998 16.754898
-27.528168 5.192056 13.312720
-5.548198 7.389768 107.109550
18.967001 -8.312874 68.010231
-12.635357 -10.099283 99.999344
-2.114725 -2.004199 81.400665
-8.315845 9.239577 13.092004
-21.960571 12.859027 18.701687
8.723913 10.750065 84.380348
20.522717 -2.570289 37.356014
8.698205 -5.553825 23.400291
-8.086915 -10.447522 110.681763
-4.412243 -10.876550 111.337967
10.432022 -7.969358 52.918770
9.049884 7.137287 76.943329
4.517656 4.466208 37.249218
11.954782 9.704801 58.261120
-5.498826 -8.742398 115.767082
13.501562 9.585072 78.580513
4.373970 -0.841349 52.681225
-6.477406 -5.504025 73.805145
21.394697 -1.118187 35.222321
17.344994 12.608322 9.560761
-22.405474 -1.244241 70.594902
10.408637 -5.826426 24.126129
15.817204 -1.836174 105.095619
-4.975391 -7.983025 82.383507
12.753756 -2.230798 113.317276
-3.250181 -3.841901 22.296654
-6.054670 6.780695 25.551828
15.218636 -7.096349 108.671883
-4.503795 2.797030 51.828815
-19.358917 -1.788509 30.173576
3.511632 3.881930 58.585529
-28.391893 0.624171 40.505978
3.467713 1.585299 54.048916
18.409338 -6.726207 92.156303
2.573149 -3.495744 58.838196
-19.101128 -7.233951 58.966980
3.372171 9.483665 87.581825
-18.093992 -1.758797 105.784782
3.043474 2.225081 38.190582
-15.406363 -3.915540 27.239710
3.016516 -5.890346 77.229996
-24.876570 -0.208118 32.054703
6.743870 13.059493 89.076019
25.015198 1.787065 21.301134
-10.189703 10.207968 89.318512
16.894377 11.787958 34.724907
-4.381100 6.358336 77.518669
11.971964 -8.027587 84.201492
-8.452158 9.565976 64.276237
8.621223 8.603163 13.674762
1.664416 -3.896789 47.281475
-23.632427 -1.304711 67.761574
-9.100091 -10.988836 108.624290
-25.969578 9.346185 12.945057
2.872699 -12.854517 113.614037
8.403479 7.696603 105.773010
7.503557 6.265302 110.198242
2.015064 -2.858309 58.189556
6.359617 2.839221 21.051847
-22.032545 -5.003562 10.765759
-6.417054 8.757037 53.943550
16.472734 5.784396 98.189529
11.594407 -7.970801 104.995369
19.303034 -6.089169 8.672963
11.525373 11.325685 67.136032
0.545077 -2.183326 78.280403
-19.721781 10.306528 43.634392
16.878298 -7.884441 52.518799
11.556502 9.649741 11.311452
1.812064 1.790237 11.450257
18.001253 -6.927105 17.139952
9.049625 9.591780 18.271925
22.501146 -1.818217 72.359886
1.381219 -12.176216 114.026207
12.565684 -8.387260 47.580502
-17.771837 -1.862948 30.812366
-10.049970 10.324481 89.023209
-5.287802 -8.505621 81.342812
-6.775284 -3.856138 77.865311
-14.551032 -3.388026 112.022911
11.242066 11.804310 101.783394
-26.558424 8.020099 26.071352
-7.490901 8.371240 22.103886
-27.021420 1.416083 19.042660
-21.167463 -2.538614 75.788498
6.209686 -5.112249 33.432537
9.008084 -6.141363 33.914322
-10.645540 -8.289909 101.065041
20.442360 2.115448 80.852684
-6.089282 9.323976 85.534035
15.661817 -2.483541 105.815720
-10.983916 10.265473 21.677328
11.405463 11.830110 13.031694
5.000012 -12.080188 102.252838
1.832880 0.899981 70.195053
-10.274579 -7.331014 43.090935
-20.264906 0.716301 70.909088
-9.822294 -7.151254 19.359838
16.746670 -6.296237 19.221912
-18.252153 -5.811282 54.562183
14.388960 -7.522032 16.689831
3.708828 5.036284 77.722855
-8.865247 9.482249 101.587738
-13.819144 10.103667 50.438881
1.213015 1.119298 16.540667
12.941813 10.015997 100.293159
7.023075 5.710086 37.137959
-21.035145 -3.985191 9.335962
16.085346 -6.502030 40.026810
-8.225772 6.854642 40.489548
7.685890 -12.108827 102.224342
-17.392937 -9.872925 62.112629
-21.934931 -3.701354 27.131124
-27.345999 0.431244 37.364784
20.457325 -3.163043 7.727553
-18.307827 6.274106 81.737328
3.113317 -9.422136 97.076836
7.431442 6.077159 62.220203
-8.428105 11.664207 97.529678
-14.771512 8.300383 80.832481
-9.879530 9.311732 57.101723
25.666281 -0.809750 58.472370
20.244610 -6.848139 44.382591
0.984845 3.623391 87.301796
1.178113 0.278210 85.392036
-7.896469 5.065503 119.968628
0.358711 1.229979 28.289005
-23.949022 -2.176086 30.778133
18.009832 7.380718 66.997368
-8.271872 6.916388 32.449856
18.216032 -1.670007 92.454796
23.410242 13.788383 12.045345
20.942368 12.721669 24.433041
1.803853 -2.848457 19.320137
-7.448712 -11.342002 103.548180
-19.919312 -0.022621 39.494621
-16.387476 -8.657683 77.110390
-1.797212 -0.272161 63.113792
6.022924 -3.666168 13.170481
-0.059797 -11.915743 114.264091
21.414936 13.712751 17.895351
2.829421 11.920308 96.732964
-19.429417 12.182484 26.652390
13.127501 4.294944 105.133728
-10.701363 11.753911 23.258968
22.753790 6.070563 59.236866
15.496118 -0.975650 108.606071
17.963177 -6.936392 74.555016
9.148621 8.135843 39.427986
-2.491089 -3.921409 63.667107
-1.235335 -11.915253 114.651451
-22.961430 2.749217 52.948845
-9.601622 9.618377 17.807188
18.616924 11.241977 8.703575
12.308531 11.779893 39.979061
-4.219447 -11.888243 107.678177
22.042768 -1.308463 30.596201
-20.531139 -1.274932 29.168133
-27.608717 6.690582 11.337821
20.377604 -4.285659 53.634445
-7.984759 -6.825778 27.945202
-12.628484 -6.073731 111.396675
24.458179 9.501754 27.990339
14.071369 3.037118 106.896988
15.797514 0.501077 111.157639
20.506363 0.119759 79.799301
19.414791 -1.962137 10.535969
-11.942612 -8.998389 99.933189
17.089212 7.348543 64.633118
-4.284147 -1.434165 12.399774
5.427062 -8.171309 36.568218
-16.180241 -6.415616 79.767532
23.909319 5.310855 44.962605
-8.899271 -5.644678 28.281900
3.641050 0.926116 68.006287
6.471197 4.061215 30.463093
26.164392 -0.102107 31.335318
19.544386 3.616323 78.500710
13.965569 -8.331028 92.185684
2.273082 3.345050 16.279970
12.968604 10.163971 70.618843
14.291677 13.683197 46.122692
-8.139087 10.767586 46.489090
24.187645 -1.513933 10.703482
5.291744 5.764401 82.369843
27.987932 7.475934 11.440719
-18.325808 -1.289111 94.685455
-3.155799 -1.332214 71.786797
-4.093629 4.078930 80.325348
-11.661887 10.710556 101.825485
6.449435 2.874223 44.841774
13.189476 -4.886279 46.368355
24.128742 5.344077 46.417156
-24.250446 1.849893 39.385750
-6.823814 -1.650666 65.843025
-17.906462 -3.680136 96.778366
-16.927769 5.404074 89.846916
-1.622013 -3.338018 82.513184
2.477560 -2.381802 84.945839
-27.754602 6.512709 11.685088
-5.201111 7.839730 68.674171
15.681205 -6.920896 12.481120
24.100769 -0.616385 57.301743
21.502079 -6.614892 82.494965
16.795029 -11.164248 83.215996
16.798203 -8.808268 81.557350
3.552240 -8.486351 99.072121
-10.997783 10.847080 53.635677
22.127140 -1.832992 35.626328
13.211277 -6.664684 13.805915
5.106699 -2.702335 18.046534
-15.583542 -6.703471 42.561882
14.638133 7.775959 70.576385
-22.217039 -2.054770 33.092068
-4.574986 8.588681 111.253036
11.767856 10.279527 88.559708
-13.736556 5.991929 102.785744
-6.724136 8.237541 106.211899
1.631069 -4.162028 63.292446
-17.440222 -8.136622 90.549820
9.319106 -3.971030 70.332268
-27.458424 0.596044 21.262459
24.147034 1.491899 45.256191
-16.274555 -5.872735 104.798912
-8.471872 7.039261 28.096453
-7.025828 -4.499081 80.085907
4.621904 7.044020 32.453331
15.908446 7.442474 93.897743
-2.853380 3.435908 31.384502
-13.100452 -7.116216 33.296192
28.507940 6.760489 19.847202
-8.805263 -8.769794 110.240486
9.201583 -8.152126 53.311665
-22.119783 7.326149 51.012451
-18.657236 11.162163 49.201283
-19.815001 -3.733794 18.349405
-0.800565 4.245560 28.121359
2.773892 -2.263959 25.834314
2.791501 3.387767 37.514118
14.252755 -8.323026 23.471947
8.998728 -9.476495 25.603619
-8.436099 -4.572126 58.797913
-22.088112 6.250730 62.614395
-26.437147 5.245482 10.821340
25.090799 -0.602930 13.571033
17.457741 4.018041 80.169777
-12.188628 -5.946664 57.935829
-17.556244 -6.592331 99.193176
3.393097 -4.349625 29.387724
15.467976 -8.776082 48.563679
-24.451485 5.975727 39.954754
-10.559258 -8.438472 82.951401
-5.670871 -0.151745 68.141167
14.853724 -10.026149 114.079079
-14.509632 -6.677860 110.810196
-14.357123 9.533076 87.155670
21.329416 6.293684 70.726082
1.165735 -4.699619 50.815723
7.228323 -7.656916 72.854240
13.425295 8.314868 82.077896
-14.406595 -7.186327 31.106686
-15.407039 5.499361 92.962242
-3.063600 5.483065 84.457375
13.091516 8.210479 61.753639
8.870369 -5.144775 27.994095
14.751045 11.384770 13.922976
-3.931548 13.355700 90.065575
-14.074594 9.975065 42.642971
7.781313 8.343575 74.923042
10.997444 -6.967274 36.814857
4.646638 -6.361326 59.938171
20.373417 -4.387871 23.311441
17.998402 9.398813 43.947453
-13.799542 6.582386 64.114502
-12.577906 -6.534055 58.199585
25.917713 4.898202 58.220757
16.058157 6.194405 93.009659
20.936007 5.612365 69.579819
-0.002136 11.999461 96.941414
-12.599190 5.198555 84.665344
13.005492 -8.959289 72.127754
-4.504373 6.686815 40.756996
-4.855411 9.038183 53.549225
21.900452 -1.891635 22.805630
2.160312 6.289273 86.760437
-27.375996 0.392669 3.814805
-19.018253 -4.363235 30.004843
-12.850934 -4.741925 13.592010
10.662860 8.977530 28.430384
19.901659 -4.591336 10.761399
-24.548161 8.224633 21.535828
21.324007 4.048324 67.205437
24.786367 -2.517606 45.901268
4.570883 2.832345 57.413418
-13.159232 2.801071 108.029770
13.759878 11.044147 12.745145
24.845869 3.611550 23.888752
-19.148184 5.546621 66.576530
0.154204 -11.116967 95.013741
17.585459 9.754232 22.842253
15.480792 -6.284141 15.242204
22.046890 10.822619 21.065304
18.406038 7.274202 76.706535
15.644968 -9.321636 78.501656
-19.404585 4.334518 69.259239
9.201899 -7.506643 14.990005
-22.752939 -2.677080 30.668755
13.760491 11.492225 40.494614
-10.576658 -7.552377 70.564171
-14.896413 -4.884693 96.116638
-3.689915 7.086711 50.025349
9.545387 -11.291216 82.253937
9.627589 -8.733412 45.696644
26.362402 5.367428 15.356308
-14.235575 9.264801 20.459600
7.920016 -8.728288 37.291443
-14.992664 -9.097884 17.016788
4.364956 0.959058 33.299419
2.688124 14.219171 94.070534
-21.756525 -3.756990 84.734993
21.542709 -1.700797 50.177814
4.563711 -4.317590 29.686485
-5.124231 10.376400 101.278488
-5.412072 -2.755996 27.213440
8.936758 6.704741 47.317734
17.722298 -2.981528 10.809873
18.241562 -8.509574 62.363239
-1.850443 3.966766 10.161464
-18.907316 10.109653 40.485683
19.117086 8.283414 65.378189
-10.837096 -9.201735 114.025696
15.641573 5.496055 60.495411
10.232309 7.992077 57.518993
-14.799320 -9.944920 102.832932
-14.142675 -2.809700 113.233177
1.727545 -1.592456 63.170418
-13.813848 9.288924 55.898098
22.352827 -0.657624 30.860250
27.478273 0.736567 17.283306
7.668594 7.117968 26.969503
18.504654 -8.049120 31.809126
14.935615 12.513690 35.008053
-7.170101 6.536272 24.069752
-1.623780 7.416812 108.275383
-18.346649 10.426730 48.840607
13.807114 -6.413520 24.526451
21.586117 2.821999 58.862091
16.440851 4.999072 91.084602
12.475433 12.036562 95.945862
-9.229899 -7.248470 76.302612
-11.755591 8.326947 47.299923
-10.353771 -5.223699 43.199570
1.789012 5.214835 84.663780
12.742294 -7.481503 26.998093
-0.472952 -2.040908 39.525379
22.369806 -0.790954 27.318558
-7.699398 7.771745 108.117958
21.158159 -1.139259 48.179600
9.696659 -6.619796 54.187023
-21.294128 9.452784 28.047630
-17.682779 5.580962 99.974220
5.163972 -6.901305 84.105545
15.933898 13.919112 28.037060
-8.418827 6.850366 27.250080
-10.439087 12.553928 93.087418
-17.036572 -3.208142 24.914173
9.281190 -8.871733 53.912785
9.866016 -8.729773 63.713551
13.124279 13.402764 32.339672
12.678385 5.823757 59.169254
12.232723 9.614514 48.526356
-6.206815 4.401880 34.901131
17.638781 12.075718 39.092979
17.072943 7.449981 59.746864
-23.062536 0.423840 32.327579
7.387968 -6.860685 16.953491
6.220570 7.758500 63.176144
7.921571 10.338031 85.056114
-5.168564 -3.579131 13.937452
22.582783 1.064046 72.020027
-8.751678 -4.406052 11.557610
21.268362 4.732679 50.362713
14.335783 1.319898 110.015785
-10.383258 -10.915678 101.650993
-8.678755 -6.015374 46.415794
10.236168 8.969182 63.244019
-5.078740 -5.704007 18.051847
23.797356 8.996306 42.441261
17.032442 -3.176254 95.602913
14.645646 7.854814 96.183411
-10.978460 -5.384152 47.563431
19.758261 -4.681156 65.992226
20.226833 -2.810626 49.974758
-6.059241 -7.231884 78.411613
-7.339006 -10.822395 106.591682
24.234217 12.448269 13.364689
18.518967 13.000084 38.267471
-15.282817 7.851013 88.094666
-4.174455 12.323503 90.534225
10.969197 -10.141951 109.860275
14.567041 -7.894707 106.295280
-0.153703 1.156063 41.703484
-4.217093 -5.712264 35.036648
-1.273890 12.165914 98.130257
-8.035651 -7.297815 78.192757
-6.934029 -3.779790 49.900803
-7.615517 9.214994 78.620354
7.873688 -6.520026 55.790676
10.346950 6.929832 63.451706
-23.477905 4.289078 29.157375
1.534955 -3.277416 19.422493
4.803333 6.111937 73.812767
-5.169541 6.758307 23.019691
-11.690296 -9.079753 90.828552
-16.156906 8.976141 64.435806
21.046621 -6.545830 83.744324
12.146738 9.081269 40.263863
5.350493 -5.154368 13.568363
18.880482 8.548079 48.050968
3.076308 2.004723 29.641899
2.013408 9.395230 88.065727
-23.446415 -0.124347 36.799042
18.293606 -5.406657 67.281197
3.198014 -12.518003 103.867958
-15.391022 12.393763 28.379793
15.942339 -8.339297 103.389900
8.105636 5.650249 51.980080
-2.791039 -13.442938 108.396797
5.243821 -6.023937 21.394613
-5.614937 -2.863816 62.188740
13.769140 11.210345 15.621395
16.829187 -8.797050 68.224831
21.456221 -1.915487 36.628750
-12.630293 9.382846 18.321159
-1.270647 4.604805 53.546936
3.220094 2.236126 78.861107
4.427803 -4.634750 81.439392
20.432148 10.230140 40.997475
-8.190974 6.601957 61.660904
-25.772949 -1.407026 44.601715
-21.151804 14.479633 27.273615
-11.860637 -5.822977 32.722134
-5.229510 -10.472810 102.427879
3.061808 -8.775392 93.505424
-1.924592 -3.495841 83.125893
-4.352988 2.371834 41.003674
14.175169 4.953169 107.670517
-15.154335 12.551317 22.638823
8.009526 13.784932 88.894821
6.119720 -5.338200 34.367218
6.902378 -4.456779 19.378859
21.979420 1.567041 83.615334
11.565500 -6.457301 39.134354
-20.021933 8.632930 45.794487
-9.169766 8.581140 58.465469
-1.351862 3.693805 74.452026
-13.483464 11.938551 38.287983
-22.418232 6.492782 39.909184
19.878769 -6.747456 60.408394
20.773220 12.172810 39.172390
10.384444 -6.842712 50.366413
-4.231699 -8.518319 92.794281
-17.181030 -3.810587 30.433994
-21.754194 9.803127 54.971294
-16.424995 7.366920 76.762711
-8.168750 8.003475 25.228647
15.648611 8.256493 69.538872
-6.417755 8.676655 72.684906
2.113794 -2.807939 42.419857
-9.164468 5.492994 110.106361
-19.772512 2.662894 77.501030
15.425722 -10.410733 35.146603
-8.988045 -11.304306 113.508919
2.325587 -3.853209 65.586418
5.653365 9.104009 24.526258
-17.111324 -7.166028 67.742317
2.772960 -4.326214 86.685158
-10.929968 10.815808 83.361382
-25.624739 3.833708 36.127136
25.491302 2.364578 15.021188
-19.709654 2.928285 75.564171
20.175346 -1.225193 87.260780
28.557629 1.553235 39.031960
-15.119712 8.037729 86.344429
-9.330090 6.438773 34.332024
0.725284 -1.697843 86.442024
16.473230 8.279796 71.827728
8.214251 -8.148471 47.256325
-4.573073 -3.670318 14.357822
-27.894913 0.975478 27.805105
-20.096050 6.055114 51.874386
20.314329 7.064548 77.233879
23.877836 10.740256 41.256664
-7.649478 -10.852042 102.210289
17.802996 -8.332576 89.167282
16.290483 12.028399 45.988716
-17.811790 12.341251 38.065590
10.681980 -5.806763 12.969789
-4.722136 -2.163434 57.710690
3.201692 2.691141 46.983398
-14.633980 -9.266020 71.653999
10.500683 9.625279 16.172970
-0.632515 11.945215 96.858032
8.656830 6.560925 47.695309
19.305317 -6.668818 92.380081
19.650766 -9.025708 61.985424
-6.240827 -6.869025 77.264137
15.313645 5.067441 92.544868
-11.302488 -10.458861 88.656586
15.184391 8.361226 92.093521
-17.742819 -2.621850 19.827969
-12.504121 0.758781 109.989052
7.306841 -8.643843 34.000637
-4.068552 -2.555437 23.100288
3.464928 3.452360 20.317841
16.048828 8.443763 84.935745
3.580122 -5.499067 64.440102
10.772681 11.381093 90.179245
20.404303 13.270244 12.662759
15.062817 -7.517558 63.325298
15.118795 -12.019969 79.922470
13.674253 9.299806 9.902622
-7.071832 -9.953224 94.934937
13.713703 9.086873 73.606483
-21.680975 2.254072 63.047680
-0.827278 1.862742 84.159866
-10.705052 -6.616843 68.738380
-21.164108 11.931584 13.204408
-5.779697 4.927007 39.628357
-17.393415 9.438200 64.081467
-14.562531 -10.337587 77.332283
0.733454 10.435419 107.970680
-16.781389 -10.220302 69.507980
-11.649504 -8.091475 55.175846
-7.531770 12.191301 101.419418
7.927301 6.816518 102.573860
-3.915533 -7.903477 93.623894
13.051700 9.073645 62.140930
-21.354731 -1.572533 87.457199
7.075126 -6.390819 49.429779
28.269855 -0.358330 28.133392
23.758949 0.640195 37.058964
20.697039 8.751438 44.538353
0.650367 12.438990 95.755951
9.422194 -4.205354 10.355656
5.606454 7.692540 12.808684
-4.594113 -8.456563 74.758629
20.975332 10.913981 45.457058
7.855132 -9.314235 67.012070
7.948107 -11.415736 111.983459
11.774531 10.208096 30.583481
-1.458929 -2.530837 58.176430
-11.296153 -3.223425 12.021893
12.836972 -10.822227 103.996017
-20.640106 10.376406 31.793900
-16.184967 -6.415124 34.318680
12.627955 -5.701773 20.040838
-12.895439 -9.623013 96.208260
-18.584990 -7.899877 65.538010
13.396564 -4.557097 108.353409
-21.356070 7.452693 54.289066
7.014995 7.205553 79.410957
8.671555 -7.694501 46.418488
20.251486 -7.659621 7.185719
6.106072 -4.871033 70.998917
14.747287 7.183215 50.961323
-18.967613 7.574633 71.417656
22.088472 5.094654 80.905205
-22.963795 2.882287 60.737072
-13.633219 -8.671795 87.238762
-23.835331 -0.464910 71.661812
18.845989 8.454361 68.052750
-15.968247 11.123544 42.611492
-23.387663 8.329285 39.640175
-11.080956 8.318589 63.905922
-16.123741 -8.306150 23.697868
-9.024639 -10.223450 109.318970
17.361933 -5.575163 60.374207
-27.490557 7.449759 26.839308
18.073145 -4.768655 35.584526
-10.882793 10.750134 7.035539
-3.545805 -3.164820 84.205170
18.241642 -5.576500 30.483559
-23.679956 -0.753209 37.409878
14.574301 11.067520 37.779774
-2.626716 -4.997785 43.158775
17.199032 5.485579 68.213379
18.775732 8.598401 69.683128
-21.719568 -2.731675 79.064705
21.363829 0.209979 81.317795
1.538283 -2.268317 56.676975
-1.499433 -1.951820 11.625272
-4.211507 4.796539 47.411926
-17.660402 -8.216606 97.122467
-4.974305 3.812196 71.306946
8.724194 -11.574882 90.330521
5.844652 7.861623 116.315163
8.287493 3.700861 48.665436
-14.056705 -5.688707 56.392292
-17.290293 -4.824582 31.452042
-2.411009 0.128091 71.574524
-24.881800 9.192400 16.554522
-20.101496 1.905351 43.157291
-8.015752 -1.955453 13.398167
7.270879 -7.864840 38.790028
-16.272778 0.863512 92.244164
18.615116 -2.483431 65.474831
3.156595 4.868285 73.792229
-19.430330 11.507520 41.988186
-3.121603 3.034867 59.536453
6.955431 -11.066966 111.608391
4.461661 6.154304 36.981930
-18.945133 -6.287224 92.748070
-2.583409 4.537154 51.507523
21.212482 -2.816311 19.402843
11.060132 -2.083758 114.436562
-17.748850 -3.042218 102.699814
-8.495480 -7.557333 80.484520
-3.054321 5.230905 27.157579
-25.162178 6.868115 28.649790
11.329251 11.911904 20.736691
6.333556 -7.833418 11.562869
-19.511444 -4.407732 86.008316
-18.095211 -5.379899 11.915998
9.954181 -7.219704 46.631260
19.973104 -4.379191 48.321499
8.601292 -11.414335 115.004288
14.064339 12.260147 41.467773
7.268451 -1.677253 6.046359
-13.633451 10.480206 21.690081
-2.490515 -5.538857 32.467403
23.446716 4.814681 45.439255
13.487096 12.158934 10.843687
-4.299050 -6.812798 95.187843
16.148287 -8.961254 42.891235
-26.511972 -1.037871 19.748379
-13.025292 -5.770113 41.915264
16.326374 -7.530629 59.207649
-10.690918 -3.592748 8.369510
-8.398529 -8.583739 90.706078
9.143822 6.585886 43.375389
-17.641966 4.393713 65.601852
9.730083 -8.944296 101.585556
-17.785248 7.134991 83.587051
7.321182 -10.902643 112.405724
8.923461 4.811717 111.011375
-13.271351 6.321985 65.009171
-24.355972 7.577471 37.167656
-23.265205 -2.395244 54.277771
24.758274 -1.854151 14.894821
2.621742 0.620692 19.627645
-10.166883 -4.404547 33.243450
12.555098 14.326160 11.072787
-12.146773 -5.607569 54.865223
-24.572138 3.358389 18.280094
19.763432 -3.784355 81.117493
1.211861 4.743140 112.636467
1.533965 2.791413 72.392586
-16.521383 4.917854 94.504593
-26.231529 0.747748 43.185951
-9.630015 10.178365 95.943138
1.656971 3.857123 88.466347
12.375733 -9.327209 79.028221
-7.550939 -7.989367 90.176224
-19.620766 4.387553 81.543877
-3.669792 -4.502724 69.525780
7.537560 -6.949812 71.302055
-8.387239 -11.263332 98.627724
17.798286 -7.484468 47.595039
5.589125 -5.729790 33.580528
-7.564710 7.282801 35.878036
16.417604 -8.486672 67.496872
-18.315052 11.281574 45.887360
-0.544464 -13.616916 114.788658
-7.019784 4.110067 68.786652
6.151768 8.389507 78.286819
-2.320701 0.811250 9.088393
19.593287 -4.114360 42.321667
23.261181 -0.570555 33.835712
-7.560801 -10.124646 112.355751
2.080467 0.516985 56.155380
10.200536 11.990468 94.525894
-4.733000 -1.969015 13.604740
17.616440 -8.494099 30.183027
11.087838 8.560605 87.341919
-22.390594 -0.951352 12.283855
-12.554672 -6.251652 59.831207
22.908381 -1.193773 70.006157
17.835552 -6.442355 68.096611
-23.629221 3.758798 37.585304
-12.062462 8.703534 49.684753
5.366694 -6.104780 11.996543
-5.606989 -4.847198 48.870571
-26.592419 3.681898 22.819532
-16.029528 -7.179205 19.116337
19.796303 -4.709681 26.911741
-13.455368 -6.181057 45.274929
-11.944362 -3.949034 11.318411
6.520758 -4.866013 56.304615
-7.186088 -7.577126 66.461693
-15.567069 -8.978705 81.902786
10.426469 -8.054022 21.696114
-11.184972 11.204487 10.674067
-20.104084 -0.887672 24.451378
10.938005 -6.608233 110.720161
25.437634 6.842160 26.820990
-9.581162 -6.768268 56.609772
6.566029 6.996518 24.521994
-1.118597 9.377978 89.576706
18.150724 8.886921 93.388741
-16.734743 9.680790 9.151635
-20.426672 -8.475079 59.542027
-13.843948 -4.029729 24.841045
8.329840 10.452824 91.665985
1.661093 -9.005410 90.229057
-25.916906 -0.749986 25.866077
-17.487804 -10.077043 82.150208
-3.270408 6.672917 16.157589
11.736908 -8.690833 104.532471
-14.883419 -7.914260 105.904076
-9.672480 8.670901 17.000734
-24.151737 5.744078 55.556187
-15.311318 7.070418 85.208321
3.151081 5.289691 83.628975
-16.900919 -7.395587 56.416817
-24.177395 7.286973 35.027081
-12.672568 -4.448424 110.643219
0.791693 0.795663 66.947464
-15.271715 8.928889 67.725105
15.526278 -10.692327 88.286621
-10.325448 -8.591252 89.021637
-12.250250 7.869311 99.224335
17.219263 -6.655927 50.370117
-20.866304 -7.180046 69.326134
17.348963 -11.492826 79.533089
-4.935564 7.092374 16.188824
13.162086 -9.472888 63.990162
10.571309 7.392074 55.881523
8.319650 -5.727277 18.237942
9.477212 -6.241368 46.226616
-3.146399 -4.287386 78.383186
-2.031620 5.799322 28.410927
13.231562 -7.291133 62.241245
-24.262209 -0.283848 19.650612
-12.203850 11.203583 15.328561
-2.768389 4.234353 111.698097
-13.307105 -7.505247 95.441147
-8.482409 8.361943 86.109421
19.814369 -7.540329 31.893957
21.815613 -0.408622 56.897758
-7.584612 -6.693578 70.410301
-12.656554 -9.215764 83.303131
18.732428 -5.614503 87.587830
-15.141023 7.534653 63.952526
-19.001408 -8.256838 73.115211
2.542581 -4.177435 86.680191
-20.021387 3.599909 73.862328
-11.738675 -4.812449 56.345348
-1.905615 5.324286 32.406460
7.977710 5.867558 33.144722
-23.062260 6.350895 22.216009
0.023508 -6.738513 94.005318
-12.250523 10.608055 98.567703
-15.556705 6.577905 58.059471
-1.665341 -0.025741 32.172028
0.753653 -2.719726 43.483963
-11.091275 8.967690 81.776390
24.723644 3.021126 52.873856
26.566998 4.295044 12.764568
-17.231760 -7.305840 57.685871
14.153359 -6.339205 106.479446
-26.993856 7.344807 12.622277
23.526991 -3.365774 81.652824
7.022003 3.613472 30.089153
24.560350 -1.139795 48.374161
19.991898 7.810529 64.876503
3.704915 3.575716 15.332663
6.433213 -8.737138 95.443298
-15.961180 -5.188849 34.222019
1.036670 -0.496388 76.378616
8.505040 -8.934531 98.788162
13.264347 1.302742 111.158051
-3.546632 5.398775 112.397232
6.077902 -6.477386 83.558067
6.180013 -7.966897 64.202583
-25.468012 5.159405 25.030712
-3.081472 6.324879 116.802078
-26.132385 3.669566 40.108498
13.687182 10.735782 8.008526
-16.291258 1.437411 98.722504
-15.362216 -4.328664 39.665913
-23.571644 -0.960677 67.444016
13.784166 11.317651 93.343208
8.091129 7.529108 60.813206
19.650190 -5.348422 62.553581
11.176650 -10.705495 72.879425
5.084520 -11.188615 97.570366
-3.828939 12.664974 94.989647
9.152271 8.368036 63.893745
12.457879 10.080322 25.876318
-17.504820 1.823533 96.581963
2.591950 3.371798 26.439407
-8.468604 9.783810 50.025745
18.025080 10.625512 9.807377
1.672542 6.263401 107.663406
-12.378412 -4.962671 16.394257
-0.503695 -5.647414 88.676445
-4.013360 11.143185 91.680946
-24.353283 -0.401270 38.016758
1.031335 1.962166 72.739944
-9.218363 9.738311 87.749626
2.265317 -1.273628 16.897785
12.061850 8.716629 76.618103
-14.787054 10.402020 45.698528
8.955292 -5.447200 9.074307
24.952738 8.446892 19.779266
9.724727 -6.804394 47.453911
-11.853112 -8.348043 75.722435
-4.101697 3.407588 48.306751
-4.324751 -5.135965 75.192192
-21.559742 -1.100682 68.416985
-9.861124 -8.227019 34.098434
23.121761 16.862656 11.317348
-16.954502 -7.508986 65.832962
8.050035 7.820922 35.361752
-10.407004 9.363579 20.987902
-15.375628 9.800291 64.082893
0.416054 -12.787986 110.140228
-10.885763 -8.666781 63.424770
-12.939152 -8.202236 34.547691
-7.968980 7.826477 30.623461
-7.274873 -5.064341 15.534987
-23.710047 7.803461 43.107182
-4.488895 8.773873 107.710709
15.751445 -7.478924 49.900021
-9.537861 -7.863638 41.287201
10.844727 8.560091 43.917141
9.923824 11.556867 16.427427
-10.383279 10.685466 96.016212
-15.219539 -6.246997 42.459259
17.806995 -7.162122 12.097590
-18.873737 10.458971 46.299538
-27.598969 8.079385 21.122593
-19.228817 -2.520617 19.649933
-12.392955 11.652196 42.054543
-1.960693 -0.543751 28.233875
21.098164 7.232642 71.290688
-2.613528 -1.640557 23.516478
14.794504 11.086997 26.844950
-1.047109 9.202468 104.073364
-12.716543 11.646160 98.307640
-10.131584 8.125110 58.845123
21.470226 10.935534 37.824829
-4.603195 5.151931 63.772930
22.434128 9.931451 40.811584
22.609940 0.118391 61.353420
7.831415 -6.655204 22.919233
0.806406 -4.179420 88.265404
-18.612560 14.451369 17.593779
-16.856184 7.232886 62.116901
19.720631 -4.163371 91.536621
-14.942229 -6.741827 19.165937
23.184311 -1.382091 9.451833
-17.145685 2.336055 91.628334
27.060799 -1.331637 25.147591
14.231503 -8.572125 23.648464
13.847391 -5.560340 10.826530
15.506809 -6.117213 31.668894
-22.683987 7.698279 43.150730
15.384912 -7.661659 19.511881
9.662865 -6.626747 50.974545
14.904568 13.967456 37.464417
6.485647 10.242937 88.001244
5.251502 5.312635 51.471310
-17.769432 -2.455026 61.458351
5.979081 12.125854 92.841270
-2.909973 11.343316 92.859390
21.605259 -3.464928 24.136972
-1.061855 11.991139 90.616028
13.524212 -7.011954 33.613884
12.294492 -4.886562 110.782806
29.964724 -2.040665 9.730996
-21.945406 1.085569 81.292412
12.528247 6.260025 81.986290
-5.620150 -3.591631 31.110031
11.269270 -8.640512 97.207260
23.805412 0.799729 52.186455
-0.262799 -4.006402 77.890854
-20.530100 5.785723 79.284241
-1.049619 -5.114365 23.295654
-8.575542 7.768168 48.341301
-6.480181 -3.328043 61.440060
-9.878602 -7.865933 96.512390
-17.659826 -8.596093 62.540371
-9.406693 13.318553 96.950897
-24.191711 -4.171752 35.206234
17.103979 13.060376 27.903481
20.781841 -3.005901 9.462929
-18.873619 11.386468 23.898340
24.869259 9.514413 29.927483
2.199139 -13.293379 107.132561
4.450137 6.527276 10.482940
-7.687419 -8.212434 34.271351
9.293281 11.214170 99.519363
4.469582 -6.192159 50.400688
18.331652 -6.309743 102.584511
-8.071507 9.871649 54.229496
-12.955540 -6.617436 32.197910
23.345314 -1.523487 12.581723
20.482067 11.570231 46.783325
1.355204 -4.191644 79.170601
4.719506 14.047321 92.507561
3.481941 6.623300 12.455963
-2.254211 0.175836 76.038055
2.650092 -1.777568 42.671135
-22.802994 2.659421 49.736256
12.697822 -8.223905 49.091927
-1.650989 1.102858 32.744255
26.019058 0.510489 24.099138
11.083059 12.480253 91.951065
-24.283510 3.764985 46.841259
-17.115732 4.601103 74.212196
22.058540 3.439052 60.112736
-4.546041 4.615906 32.171989
-1.709990 -15.347828 108.905060
-24.365757 9.768716 20.208862
-1.818490 -2.563287 48.458637
-25.369484 -1.085379 32.326294
10.850985 -8.467229 102.211884
5.515996 -9.684316 100.532463
8.655467 5.533630 51.207397
24.656246 8.014613 10.558398
-17.911415 0.312160 87.750931
14.419642 11.544157 46.959206
-7.715386 -2.493712 64.533813
-11.915599 -5.550500 42.223232
22.882000 -1.201501 13.459615
4.294882 -7.535687 91.980652
-6.869989 -5.545231 34.709560
-16.436380 6.453395 75.882072
22.951778 -2.649801 17.671581
-22.661024 4.809970 63.538326
11.720857 9.254207 99.158890
13.921823 -2.215461 115.349777
-16.908934 -3.302125 43.205032
24.259315 0.293060 43.124805
-16.241825 9.371682 38.413746
-13.647168 -7.291454 10.344075
-12.902094 -12.795333 93.578354
-20.239166 -2.374470 77.707458
-12.706937 10.580489 93.706825
16.069954 0.302262 103.353584
10.396971 -10.016421 81.855911
19.857178 -8.469787 81.055023
-24.887682 -2.444043 23.467802
-2.842312 13.451980 93.718750
-21.618971 -3.501041 17.641991
-18.012806 12.726746 27.386551
-4.349691 -4.838336 41.837635
-9.758662 9.222596 56.053253
21.494774 9.405647 41.179436
8.543045 -3.664602 14.063064
7.237203 -12.722871 109.611244
-3.012532 11.134792 101.264282
-9.011853 7.949152 57.164116
-17.592413 -5.730971 99.917961
22.107227 1.741855 56.733772
-17.211819 8.605970 78.472618
5.220160 -3.731295 16.850134
3.203501 -3.139612 87.647926
-15.163038 10.950750 34.413334
12.051792 -8.755945 34.781956
-3.739316 9.046842 46.955978
-17.906940 -3.526760 66.430939
8.208162 -7.908658 72.132973
-6.947985 3.226292 23.348524
-7.369476 5.617589 110.220299
23.524197 0.360244 67.887238
0.311615 -1.282043 87.152992
19.040369 10.122976 39.419399
14.601937 -7.549059 25.209890
-11.776260 11.815907 47.691334
11.261740 -6.837905 110.674751
-13.247278 -3.742361 19.659807
14.099758 -4.292870 106.008209
-17.220264 12.419584 34.078571
2.254513 10.298812 87.698296
-25.786530 -1.732959 36.569874
2.098703 2.088966 28.867550
-21.741064 -2.455156 32.287739
-2.958753 -4.214478 41.338017
10.733196 -8.098495 44.397449
-2.712435 -4.495224 69.616508
9.490581 5.309566 48.521557
-8.967796 -8.026561 43.275772
-4.638607 4.563559 45.085430
8.135518 6.400360 58.765068
-23.572477 9.932041 19.566372
-10.361158 7.992595 72.733398
-12.763603 -6.345819 8.339523
-15.330773 -8.608863 98.192795
2.127898 12.364386 90.674248
-20.898563 2.895116 82.665192
21.360975 -1.777340 76.484550
-13.369531 -10.191521 80.389854
8.251537 5.509623 20.267826
12.637980 7.358435 81.761139
3.360558 0.007667 68.731895
-17.748875 -1.698864 98.104630
6.911413 7.306518 21.393215
26.268410 5.637726 22.678991
-2.145817 1.581581 25.082602
11.949894 -7.535306 110.783134
17.495985 3.202205 83.634262
-5.888402 3.414277 34.467304
-24.784946 4.660319 23.043440
2.682477 3.873481 22.050999
0.724272 2.186226 70.887604
7.498103 4.901040 49.029728
10.669930 -10.887078 78.589417
5.367566 7.362890 47.499424
-24.803362 10.722446 38.487724
-12.199924 -5.526056 50.397724
22.930079 6.125642 65.804512
13.116213 -8.883367 25.422014
17.442677 -8.280912 30.598694
22.122061 12.551727 25.871010
21.217501 11.693663 27.817001
-10.275906 -6.044759 23.318623
18.914455 7.915992 59.939568
-24.637405 3.108189 49.049473
-22.057402 -0.021829 86.909035
-17.850973 -3.710250 34.797958
13.222011 -8.136411 7.722664
-16.599274 -9.813741 85.752808
-27.289150 0.781140 17.696783
17.200006 14.613129 12.222566
14.114854 0.103320 105.837044
-4.452693 6.082385 57.303185
20.940390 -1.569654 28.070677
-9.823437 -7.462861 37.371964
-9.821603 11.101652 93.117546
1.468061 -1.389812 87.061394
-7.330000 8.170580 46.723858
4.077229 -6.778604 39.417835
-16.836277 -1.113165 16.404442
22.331190 -6.969849 28.206221
8.643712 6.905510 48.524525
-4.639708 -2.582591 64.432663
17.567986 12.793580 34.706791
-27.270271 0.071041 31.879675
19.558056 0.960674 45.839928
25.218315 8.486139 24.049843
15.314436 11.398359 36.065056
7.318581 2.473272 26.376207
-1.884229 5.888302 21.548517
-16.346279 4.497049 99.203148
-0.985486 -4.602604 87.133217
21.046696 -4.197221 31.523233
16.022551 -7.021982 50.046574
10.054378 9.819983 9.822569
-6.098685 -2.479090 51.328293
-11.113874 8.230960 31.143232
-24.723381 5.149122 65.656273
24.475903 0.831308 52.662163
-28.758127 1.632908 16.332481
13.089635 10.375214 90.813141
11.107173 9.668815 85.569382
-3.389847 -3.574972 25.581993
-1.644594 9.146157 88.597748
-11.282887 -7.363940 65.380920
-26.729269 8.177056 32.284073
-25.616709 -2.836428 13.984112
-19.623795 11.964934 28.154945
6.642278 8.458982 15.704890
-21.983637 8.176740 36.956245
-19.055063 -2.139218 19.412024
12.301015 -8.805656 23.918051
-16.662550 -10.379535 80.792381
20.867182 3.453671 74.463272
-25.628603 0.528728 35.642700
18.534552 -3.317967 8.131059
-19.683758 7.021321 38.340881
-23.989788 -0.800591 71.492867
7.960015 3.370781 27.014973
-18.020588 -6.304881 62.782993
18.687191 11.149959 36.758423
6.547090 4.055786 23.050690
4.786483 6.794155 41.810093
11.030396 10.617701 26.010237
15.533153 3.874512 106.007347
-5.445623 -5.434114 49.364414
17.223063 12.038210 39.536739
3.026985 -11.937192 100.875992
0.643258 -1.795854 32.192642
11.279180 13.415524 89.608253
15.561583 -7.299837 10.545037
15.957035 -9.792139 51.674252
3.357482 5.233735 19.672979
-17.793015 11.881763 13.488160
-0.388208 -0.324311 87.879105
8.275114 -5.020405 10.097013
-15.385056 -9.242869 88.329910
15.248246 -1.448388 102.314064
-9.937675 10.626779 38.788681
18.947502 -7.641531 75.395294
-22.021898 12.434050 21.738495
-1.328982 10.947216 87.971214
16.584579 13.801549 17.521561
-19.873074 -5.943110 89.965836
-17.180180 5.051131 59.563972
16.974730 -8.958004 38.156590
-16.901474 -4.759859 13.284472
15.381403 1.138434 106.454353
3.586656 3.577621 67.882782
17.232250 -7.149135 87.117035
4.426390 -5.835356 32.542683
4.441467 -7.057635 65.325943
9.548007 8.595179 14.653562
-16.960953 -8.034064 74.114090
4.169924 -4.493843 51.163551
-20.930447 -4.055150 76.302216
0.698043 4.102221 86.493233
5.207821 -7.983872 91.161827
-17.158716 6.715655 72.017418
24.641924 0.356105 29.481293
-18.973839 -9.529216 71.466606
-20.065975 11.770976 25.698435
-5.309969 -4.671318 50.763973
-5.902199 -10.754886 115.933693
1.315911 -1.770777 45.897789
-24.924002 -1.231962 71.668869
4.081455 6.546090 59.876888
-16.468889 -5.075122 101.046173
19.781237 -1.952709 36.464554
0.252336 2.105686 82.536926
-15.504638 5.219686 82.314941
5.989067 4.342089 17.182121
6.887416 -6.573749 51.834213
25.376841 1.615744 24.355375
16.094942 3.480069 80.414192
-27.280638 7.144119 24.546793
-7.779368 8.312008 75.722931
14.259878 -8.104581 64.105194
-0.694907 -1.951395 67.758408
-15.805137 -2.960685 33.709839
-20.883890 12.815818 14.848107
-6.947482 -3.620493 22.258585
-17.895081 -7.401249 53.281013
4.606524 -5.586779 82.430199
7.641466 -2.627525 22.063002
2.846867 -10.638112 95.488419
-14.827253 -7.351567 47.912647
24.051304 3.415832 27.548620
-9.808684 5.857520 39.265690
5.647359 -6.368953 39.680553
-10.940843 -7.820487 13.091560
-17.921627 -7.602993 57.802380
1.743317 4.356191 68.899544
-13.672049 -7.639007 58.498863
-3.417459 1.594882 64.706360
-3.738900 4.230017 38.521450
-14.424074 -1.358495 113.527878
-26.957094 3.270656 15.173021
-22.598244 3.038113 66.631706
7.827918 12.546495 99.968216
-17.944912 -5.648104 90.813553
-16.883331 8.604513 10.394468
-4.744678 2.409761 39.606693
-10.170399 1.219260 114.352615
-18.979761 -4.722562 73.138321
-17.113327 5.194581 92.250679
8.666337 12.234911 98.154572
-19.012341 0.221633 97.210579
-0.298513 -2.284307 52.860931
14.257585 -6.616398 15.517044
9.235481 -7.012703 58.720596
-1.897241 0.194449 63.420002
12.475690 -6.545766 27.292269
-3.860394 7.444547 108.639671
-3.656897 10.971732 99.577316
-12.839164 12.208720 9.543506
24.126419 -2.825705 73.265495
21.929564 -0.987970 31.557411
-21.360182 -1.121561 53.278946
-21.501816 8.924232 44.534718
15.559057 -7.820848 89.723282
21.617054 3.853318 64.619179
20.930199 -1.316205 30.734133
-1.575842 4.287811 24.385990
1.797569 0.864934 86.193916
-1.411573 2.112865 12.512091
-11.754544 -3.981240 17.940105
-23.495182 -3.379678 33.962986
-10.929916 9.078981 53.061783
13.719798 5.922793 101.878548
-3.316134 -12.099379 104.905815
8.662743 6.419210 108.281334
2.550830 -12.394394 106.857368
-9.394734 -9.486476 86.748718
-15.856244 -5.650023 33.140308
-19.397451 -6.090699 52.870979
3.830962 -11.801629 99.414368
-24.149637 10.258256 13.119272
0.432966 8.223774 107.788452
-5.302499 -4.435066 48.342945
-3.535354 -3.195193 23.183744
-16.871607 9.409880 41.863914
-12.846523 10.109871 82.045906
-10.715456 -10.034391 78.305237
-1.039243 8.194246 20.106853
2.189377 -2.694062 42.299294
-2.779426 0.398871 54.737106
-5.705236 -11.478547 96.333611
3.065352 -8.090920 94.106644
-18.819765 -1.651766 21.276203
-1.674706 -9.219171 104.896019
-18.904224 -7.509223 47.932663
9.565683 7.981947 106.799911
-7.527015 11.390044 13.468919
-14.268253 -5.934035 27.063494
-4.090373 5.550511 7.076595
18.829048 12.536777 30.543272
-15.732967 -13.244725 83.556625
-10.629832 11.682777 32.469227
-20.936531 12.373231 11.648075
-9.672824 -4.711549 17.497538
6.507072 7.285453 15.176338
10.879426 -5.243994 14.039570
-12.490809 -9.301941 84.457657
18.232115 6.453398 92.084015
4.469009 4.992724 65.781731
-17.352650 -6.712505 57.641579
-23.138277 -0.389896 38.563374
8.177623 5.996957 109.356888
-22.996941 -3.473756 7.688207
19.387341 10.044802 37.341599
-16.021666 12.290052 34.317364
-1.223003 8.717216 89.392242
12.130255 -9.176465 70.804756
-17.333321 -2.487868 68.900848
20.243792 4.445328 86.482414
7.093199 9.599075 86.204826
-0.805724 13.380042 97.076210
3.479503 0.624368 54.186691
-6.231462 5.349864 67.887138
-8.023391 -6.561836 88.609985
10.941919 8.061845 77.654694
14.184972 -8.784792 25.999708
-20.033241 6.865904 84.936409
-19.477463 -5.298457 51.124641
11.162970 -7.920378 30.808146
20.692734 -6.273963 47.756969
-10.711088 5.496651 111.183784
20.489319 0.212939 26.325668
-22.814331 11.001347 21.744120
-0.868800 -0.895445 50.727947
-16.048960 9.533805 64.155762
-17.221134 -4.816569 102.902885
-10.560205 7.857662 106.027199
-1.548483 -9.730998 93.763321
13.463212 0.594409 109.766403
18.604727 2.780703 87.002899
-27.124500 7.346484 11.086015
13.195429 7.350623 52.698009
-10.594110 8.033432 30.511171
20.973574 12.668158 19.306971
2.712065 -5.348591 83.975380
-0.304191 -1.377808 53.804115
-6.297321 -3.384299 19.436846
-12.848330 9.357138 80.073578
18.260893 -8.463302 52.938629
-12.558282 11.583575 42.872795
-4.944670 3.658897 36.691719
-5.910909 7.677760 40.358463
-9.878659 9.935262 39.938538
24.762835 8.861698 30.674961
13.130055 11.221171 12.186309
7.836691 -5.573925 51.892338
-9.570563 -6.849329 62.314560
17.507713 -5.793751 37.373833
-4.653969 -10.161380 99.666199
-12.550026 6.589677 96.552994
-26.339890 -3.305520 61.753922
8.851519 8.997917 57.986534
-1.473140 7.089683 86.176765
16.820591 10.763002 69.207397
-8.019678 7.696658 48.351147
14.218962 -6.157026 106.358055
-13.246590 -9.825618 78.822853
23.768120 7.024610 48.911343
-21.757233 3.787375 74.012566
-6.740698 -4.980706 70.569786
-1.133044 2.891731 85.151756
-8.227168 -5.899397 82.228760
7.371967 -5.996797 70.128731
5.311197 2.657428 4.788857
-18.959469 -3.378142 17.870203
-4.167123 -2.745619 71.879456
6.540231 7.054280 53.501442
-1.957803 -3.010812 47.214306
7.758021 -9.076806 85.257782
-25.232485 0.085289 25.462585
4.513877 2.159741 52.358433
-21.150543 0.875702 72.349350
11.672066 10.426182 71.687340
-18.081585 5.224812 93.749016
1.208344 -2.709945 35.192150
-20.032663 2.526912 76.088242
-9.103715 9.628303 17.994137
-5.798863 8.430881 65.012115
3.538516 -13.346929 113.629936
-20.053032 -2.960203 72.971130
18.610113 5.049829 76.108032
14.072346 -8.067828 90.628632
13.135164 -7.046737 72.496979
-17.760347 -2.099773 96.231621
8.877488 -10.841948 101.681358
-24.432829 3.010316 62.355022
-0.605578 2.075742 39.179947
-19.352049 8.743649 32.689663
-2.114912 7.678406 109.081093
0.981456 -3.808370 50.195805
-19.015785 -6.781378 57.686813
24.171242 2.266135 56.935112
17.308800 6.631742 64.742363
2.683877 -13.375864 109.936508
-2.698307 5.940142 52.057987
-21.309797 -0.140336 28.577427
23.358730 6.278291 53.076019
-21.410505 13.540124 29.768534
-14.895975 -4.130986 54.700851
-8.158617 9.940986 99.358902
-4.245289 7.676973 101.818939
-16.081390 6.937307 74.676872
-6.943078 -4.560826 47.187870
-3.708212 6.228441 21.473063
-6.023346 -2.677268 64.899887
3.056234 -8.852052 84.254082
-12.238489 10.545182 58.343231
16.805283 -5.554056 96.118622
9.161923 -8.372890 49.116886
-12.885970 -2.445785 112.459869
-2.280638 -0.696749 71.272186
-15.019573 -5.175592 23.965712
4.569366 2.752240 26.956011
-24.525223 9.544049 30.382742
-12.691329 9.690943 47.195141
-19.394548 -3.531554 71.482307
-16.078957 0.199785 104.571289
12.670025 7.529569 81.930550
16.622620 8.474495 57.401005
-9.426290 -10.459046 112.050003
-1.812553 7.212287 107.280579
9.169997 -5.323112 22.672667
2.775552 9.044323 101.594658
-5.811904 6.062106 24.220118
-18.238503 -5.940001 25.128153
-14.887820 1.746729 108.960510
-7.160114 -6.290874 68.285477
16.233818 -6.266053 59.155487
23.203848 4.779860 53.576328
9.666716 -6.471613 38.449200
-22.236822 1.541474 75.574593
20.307865 -8.431107 41.633217
-2.943274 3.460946 39.501068
21.554089 0.656573 73.333595
13.544291 -1.973807 111.980057
20.966496 -1.435748 90.496758
22.265669 10.679064 31.083260
22.694691 10.584599 26.666874
19.613472 8.392985 60.173584
16.973700 -6.509647 28.476967
14.745739 -6.834148 38.000050
8.093272 -6.078548 17.416763
4.947974 7.422178 84.012001
18.844639 -3.363759 92.459312
-8.283943 8.437517 61.887001
-0.411293 2.315542 87.833809
12.958644 -9.514489 101.101479
18.937895 5.112551 85.792641
3.897380 -3.326366 45.450584
19.939030 -5.475484 71.086845
4.185628 8.644104 84.471519
15.628243 -10.730108 83.111336
13.016247 4.325490 108.576302
-8.021172 -10.083865 103.141808
19.402498 -6.728441 36.815018
-18.987082 7.956580 23.863213
18.270618 -7.700164 21.790766
-9.749542 9.982303 17.941660
-5.556484 4.169969 42.631618
20.937553 -0.627919 82.395378
1.796483 -5.420654 40.904819
11.419912 12.266967 20.014828
-21.829369 5.642089 47.409794
-4.893621 5.104125 74.381371
10.077550 -7.590307 42.189991
3.948789 -2.570077 83.433708
22.400360 -1.458279 34.384274
4.129771 -4.070592 66.494873
-8.954240 9.214680 83.599182
4.493862 14.945866 92.587624
-16.110229 1.974827 103.689629
13.546795 8.723940 91.612305
-13.585323 8.512757 90.166443
17.378874 11.452015 51.853527
18.536583 6.751510 62.347412
-8.532697 12.681203 89.580200
2.186624 -2.193203 53.986652
-11.332460 4.784319 107.934654
-5.662190 12.769322 91.091919
14.518193 -3.696955 103.404694
-21.434416 -0.912739 85.447289
-6.859049 9.748607 84.125252
-11.550509 -4.991318 52.074718
10.092731 -7.410472 20.969328
