ply
format ascii 1.0
element vertex 2048
property float x
property float y
property float z
end_header
14.598563 1.464953 107.873573
8.644225 9.273932 82.899139
19.194103 -5.740050 88.360603
-1.388355 -8.569315 140.645111
12.820560 -10.296308 130.950851
-9.387535 -9.117675 78.879326
10.747899 -8.718622 100.398994
-12.839086 1.654618 114.165070
13.082316 -4.825486 116.976410
-12.278846 -3.944526 112.476723
-13.413121 10.945064 135.311569
-7.447496 5.515297 116.351456
1.444706 11.031563 99.243607
0.251334 4.351191 110.043243
-0.660648 8.293403 109.005447
-3.125563 -11.355948 87.926186
1.689889 8.766320 103.647789
14.321240 -7.385938 107.074890
10.737962 -0.386623 120.607231
-6.986038 10.655190 131.521835
-19.933876 2.967545 80.588814
-14.915121 1.881704 107.009445
8.024425 -11.159115 111.446907
-10.351758 8.933305 127.978767
-7.843133 -10.743316 125.739586
-19.616846 -5.395170 80.552193
17.110750 -8.074350 102.340309
6.617397 5.698734 122.742981
-0.919183 -12.640930 99.956779
-5.171343 -13.116144 132.611343
9.893302 4.547338 125.893745
12.024347 6.254704 102.266472
11.100937 -10.583436 89.113129
-7.541959 -10.238797 102.045883
-20.198746 2.776421 80.377396
-10.917889 4.277800 152.349503
17.538052 -3.296939 99.018730
9.304935 10.234608 132.787720
11.307695 -11.519843 134.232986
-11.020853 8.524742 107.377266
-12.488395 -0.598132 115.849518
-18.486172 -9.701748 77.411629
10.391829 7.282214 77.713882
11.429990 8.058263 100.317383
-1.911687 9.968419 129.648483
13.831936 -3.212513 138.946243
-0.721593 8.601670 82.934196
11.414385 -10.243754 86.123466
-17.095360 -6.472620 108.274780
-3.294348 -11.711180 114.465355
0.615704 11.540101 149.169571
-11.505472 13.165623 143.884521
-8.795974 11.477172 95.023567
13.836491 -1.766504 108.609383
-2.270816 8.974039 106.341530
3.477421 -11.618266 134.809082
-6.972915 3.530689 116.469193
-1.663413 -11.317296 89.564293
-11.217709 8.731859 80.822968
5.780893 5.433024 111.349632
-14.652806 -7.710337 130.445282
-19.882370 2.904474 90.107658
18.193787 -7.748739 87.535347
5.397592 -9.756529 96.550247
9.538448 2.940419 124.007744
-2.778971 -11.762229 117.982147
-9.719556 8.411225 103.901695
-17.007971 -0.144988 96.673714
13.942191 10.531035 95.159477
12.500113 8.947237 83.396912
-11.485332 8.229947 133.538986
15.013151 0.832962 107.158478
19.919046 -4.091475 87.509689
-9.033820 -9.836253 95.317146
-10.423119 -9.151106 100.470146
-0.175331 -8.557690 145.678452
-1.353719 -11.940606 135.683350
-9.237363 -12.253245 136.646149
3.037000 8.217527 106.769958
11.482427 4.239023 128.119812
5.530642 7.464686 107.422935
7.836485 12.784513 93.501389
-10.854491 -8.523992 113.763611
-9.261519 -9.952815 109.251183
14.614509 -0.933342 134.881500
15.452555 -10.287187 94.253014
6.109264 -8.924673 140.593475
4.120252 7.054470 109.130142
-8.849044 4.510901 113.024834
14.327541 9.403243 96.912239
2.564248 -9.161986 80.376411
10.692913 -10.629189 90.333435
10.946377 2.139831 114.580116
-6.931298 7.631503 107.730080
9.294102 4.264514 149.219406
14.230660 -8.572273 133.641434
-12.121490 -11.006732 130.478943
20.449791 -4.570220 86.247925
9.695405 -9.269648 117.007561
13.709146 9.341384 85.179344
-11.836497 -0.144438 148.013428
20.310211 3.701559 84.278793
-10.427661 8.099303 81.809593
0.149631 11.081822 149.313171
-16.711880 1.443524 93.968407
-0.626440 11.416377 147.642975
9.537715 -11.178009 86.381996
12.591592 10.108843 77.102699
14.260465 -6.623183 129.291824
5.451347 -9.732053 101.382484
-16.838274 0.918529 101.840912
-2.223392 12.221231 92.493454
-21.588812 -4.870471 81.014381
-18.180204 5.108488 92.723305
-18.280453 1.782275 96.367065
5.831927 9.064578 107.769730
8.472980 6.928858 106.488457
-17.217577 -4.455174 107.078659
0.822169 -10.840677 120.702248
13.084515 9.871194 135.242279
6.087224 -11.026977 105.521095
10.901834 -10.285918 94.422974
2.797486 -10.617064 102.082855
16.788305 6.777156 87.567780
-14.277411 -1.671125 128.419510
4.942989 7.972039 107.198975
4.353568 -13.478463 131.416412
13.497350 0.111480 124.974022
-14.351259 2.186884 128.274033
-13.211983 -9.365154 126.574989
-19.535524 1.249300 79.097397
-4.607711 -11.253977 139.208649
2.148607 -10.762245 97.016243
-10.082567 11.071863 87.161484
15.443801 -0.241626 106.759247
-19.879986 -2.722744 88.472504
-18.869423 -0.579969 90.003204
12.134651 -6.164195 143.264221
-12.317736 -8.263171 138.980194
-12.817986 6.762124 105.987404
-19.248260 -0.679933 92.380737
-13.332581 -12.096433 106.700851
-3.552087 -8.873129 79.551292
-12.832036 -0.067795 107.343285
12.511171 1.743199 150.239273
6.847456 9.386188 128.817123
6.649475 10.637396 151.643951
13.633023 -4.304254 141.399948
3.819456 10.794844 78.915108
-7.725579 10.394948 103.518959
7.914807 -10.352423 90.883438
3.701109 -12.259752 101.855583
-9.148336 -9.646569 113.301765
17.312551 3.109024 94.174446
0.382571 11.595114 145.266159
14.784131 -6.186416 105.500084
-0.044500 13.157821 86.430603
-3.619461 13.707724 95.993889
-10.828115 -8.162776 113.237366
-9.180317 6.575970 128.057663
-14.349498 6.418663 134.393372
-7.891456 11.505492 98.627716
-6.378161 10.416877 133.718521
-6.840975 12.334205 139.475403
12.440205 10.262965 133.188644
-1.347870 -11.141036 115.222168
-19.162071 -5.682605 94.425545
10.062373 -9.403247 139.937958
-0.882994 6.202245 112.721558
-10.012507 10.954302 133.807068
8.719204 11.599704 82.688065
-5.687855 -12.010702 120.500435
-16.749792 -4.553081 102.398605
-7.162687 -9.349478 140.410187
14.972844 5.975573 95.186081
-8.687239 -5.615525 143.802902
20.112225 3.420543 78.841049
2.378036 11.346067 149.215042
-13.312685 -10.287815 101.243004
-20.448851 3.357011 88.556847
-2.914181 8.416940 122.472443
-12.893689 -9.151396 135.662430
-2.316213 -13.277452 103.430428
-18.523888 2.750188 94.515038
-9.607742 12.398325 134.553543
15.899952 -2.473913 105.801216
9.074800 -9.948031 94.654045
-12.122166 -3.612821 116.803139
10.330715 -11.612233 136.327286
19.345451 2.549337 87.246269
19.874790 -8.543795 79.365273
-11.742264 -6.788896 112.061577
-13.902267 10.081132 92.606102
1.869399 -11.718171 122.640869
-11.114964 -9.817017 105.688187
9.138825 -10.746366 138.099442
9.674935 4.119928 112.274529
3.264632 9.748721 134.196198
18.443136 -0.346671 91.854439
-12.490939 0.774968 123.940178
-11.777147 -10.218246 94.878227
5.017657 13.103392 148.589752
12.106365 3.011048 127.629982
-17.393456 2.870284 89.815605
-7.143388 6.266788 110.634521
-2.227013 -9.584421 80.121483
-13.823030 -0.737674 109.076836
-10.555645 3.567160 114.881866
8.322788 -10.580657 119.142921
3.543676 5.607099 110.911079
13.046705 3.048265 110.996246
9.882152 7.853787 126.332069
14.147102 -1.892503 141.427094
-2.502080 8.982308 76.075249
3.622963 13.206012 138.985397
10.518313 -10.311798 104.949615
11.485028 11.848123 135.716812
-0.151900 -11.239999 124.640251
-21.736973 -1.193052 85.864182
-13.529752 11.082446 96.055878
4.605381 8.372827 78.760147
-8.208896 -9.666763 101.514542
-10.365782 2.435781 115.543076
-15.294699 -0.879065 142.146683
3.142890 -12.263576 114.874466
12.751545 -0.314324 149.207993
-14.142236 5.251923 95.123947
-1.766611 6.562860 122.716179
17.650396 -6.477948 91.856903
-0.672296 -11.702220 128.354706
3.159825 -6.240165 144.398376
11.146124 11.930281 95.938728
-17.365589 -9.502359 86.286064
-15.458908 -2.817241 107.032722
-16.328478 2.762654 101.173859
-1.197667 11.906875 131.809509
-9.417657 -8.024076 97.410461
9.797236 13.944364 149.593887
6.284795 4.515409 115.288528
0.925391 -13.173165 134.225266
-5.459444 -13.426243 132.087921
12.048481 -3.144703 113.916290
-0.816552 13.111618 95.728386
-0.590538 13.295259 88.217064
-19.438959 -0.970026 86.829964
-18.859955 -5.726400 81.794594
10.358094 -10.285649 82.631729
-16.603302 -2.218432 96.203636
-10.849998 -9.807374 123.473190
12.601366 7.995477 103.169258
-1.541176 9.702435 152.039932
2.360570 5.347483 115.377625
8.305283 -3.518287 143.650467
12.574193 -1.175097 121.253525
5.211350 -10.453179 76.401375
2.252876 -9.221097 94.788467
21.114716 -1.503685 87.592201
13.823288 -1.572839 136.039597
2.248424 -8.797163 142.424026
20.394619 0.763658 92.149864
-9.225150 -11.039719 91.893944
-14.402336 -1.475279 127.776993
-5.291443 -9.203922 87.543907
3.320050 8.354710 125.596985
7.280570 9.244388 87.271500
0.009199 -11.150208 98.008209
-0.332240 -12.786955 127.852112
-9.306027 10.204641 95.845779
3.292406 11.543164 86.814568
-11.645671 -8.361784 122.592476
15.211528 4.074454 101.068069
-8.889775 9.767626 129.539627
-13.459319 -9.697952 138.055008
2.925210 -11.718662 106.994553
0.595448 8.672387 80.854218
-16.156206 -7.857863 88.970665
7.661198 4.635201 118.769028
12.030524 10.429933 94.303253
6.435221 11.041434 90.748413
4.606232 9.495733 151.329803
9.881514 8.430992 84.552940
-5.922951 4.214760 118.276665
15.295718 -6.134897 104.242401
18.352880 -3.478666 93.669472
-3.110494 -13.625151 111.858681
15.560395 5.954840 95.035316
1.400578 8.238470 105.917900
-8.974674 -9.983284 112.173553
5.536901 -8.160144 139.363037
-3.549890 -11.613691 119.251846
-4.961040 -8.515447 91.666649
-4.875885 13.831656 97.624542
4.397527 14.518661 92.259239
-2.582662 -7.608554 76.296661
-3.004629 -13.020195 122.857033
-12.773416 -1.895544 115.488426
-11.298366 10.672181 141.897995
-8.708858 -0.274127 148.773529
11.422688 -1.096158 121.653519
6.674677 13.281410 136.277817
7.498082 10.961865 86.858574
-13.375425 -2.759757 125.370674
-10.422215 -9.132689 112.650528
5.335423 8.003695 123.866035
-15.096732 6.247815 135.765976
-14.811627 2.575953 111.080109
-10.482495 11.952319 143.549545
18.831627 5.986456 83.672455
0.406742 9.375834 127.622849
-14.403192 3.909551 134.889526
3.085253 11.593780 139.291702
16.383675 6.847244 91.320999
0.841210 -12.971897 105.597351
19.858450 -0.872802 83.803825
15.339320 -0.428516 129.845413
1.976565 8.406405 104.644165
8.938478 9.367930 131.056046
5.463015 6.038865 120.397133
2.159371 9.040138 133.448654
14.466991 -8.683623 89.806847
-10.022843 0.262337 149.763824
-6.214386 -10.505075 128.863281
-3.242601 9.043137 105.266907
-9.594898 -9.234122 82.089363
2.129288 -11.530989 138.754974
-14.041636 -6.854661 133.210068
-7.301527 8.066449 106.969482
15.860189 0.511868 126.348793
-14.607202 -4.139529 140.445496
13.427594 -4.403905 140.104874
-4.512076 12.278248 89.774467
16.088871 -6.922363 89.758804
-17.470203 -1.351476 96.465843
13.741822 -10.902675 78.532623
8.256489 3.007876 116.546890
-14.379955 2.380464 136.248169
-0.791091 7.758454 77.652596
-10.831763 -8.711529 119.990562
13.677555 9.717848 94.406242
-11.560766 -9.529831 91.842491
17.952572 -2.319459 98.985977
-13.665817 -0.874821 121.249588
14.142005 -9.523871 77.425003
5.022836 10.927532 150.036285
-8.618917 6.733698 123.443329
3.630605 13.190948 93.627182
-14.692325 1.678223 135.343155
16.720743 -11.562693 81.310684
2.176244 -14.232463 128.430801
3.323464 -11.169111 84.564529
-1.489755 10.228336 88.163475
-14.353305 -6.094203 103.020386
-11.539362 9.986567 86.059555
8.556635 -9.421267 95.669655
-18.855438 -3.104803 87.992950
-6.936829 11.252775 95.697021
-2.296325 -9.422575 85.658974
-11.439852 -9.925316 95.167664
-15.991892 7.920534 84.752083
14.644953 -8.725492 130.661011
11.435733 -7.757555 109.185043
5.367209 -10.740825 108.440765
20.053429 -0.904718 93.669769
-7.099933 -12.674855 112.314804
-19.154757 4.797284 86.033447
-0.878135 -8.889103 92.169731
-19.803764 5.005659 83.378952
-15.566936 1.088660 102.493034
-8.249780 -9.244198 97.942581
12.057981 -10.551196 135.473740
6.658513 -14.962072 131.729263
4.228632 -12.366699 125.356354
-6.316584 -10.985591 121.826530
13.667961 -8.428083 138.720490
10.069475 9.081409 130.194870
-8.565370 8.263215 85.765633
17.702482 2.751095 78.456306
4.048062 9.267006 131.018936
-5.285004 -11.846166 109.722076
2.050375 13.931285 89.839439
15.666578 7.279680 87.682693
-12.950524 9.396795 100.518730
13.954727 -4.029768 130.708160
8.954490 8.500631 150.977768
3.675359 -10.515590 96.938736
1.383707 6.948512 120.437012
12.210527 -10.670121 87.649544
-1.313847 5.717733 118.549316
-1.718182 -7.907208 141.826538
18.876648 -1.420853 93.316574
4.227572 10.892517 130.848434
-6.350145 -13.359875 131.581299
-2.092183 -11.446532 82.219101
11.030583 5.195074 125.912666
6.794132 9.847305 79.739151
-12.850155 -1.995612 111.888916
-12.471325 10.467338 90.154305
8.325455 -11.061469 90.145287
-2.477853 -13.416000 112.183968
1.085254 -12.354279 99.270210
12.697624 -8.487781 98.542839
16.722118 4.863858 85.242287
11.777299 2.931451 116.403801
14.623082 -6.243767 139.019455
-13.716385 -6.795577 110.418610
13.873114 9.713575 93.296043
-12.612376 -4.320864 140.118622
-1.782199 -9.581411 85.769173
17.090385 6.347053 95.147537
-15.086568 2.667402 135.348862
-10.423635 -1.469443 146.016739
14.238815 2.710780 129.745758
20.034952 -3.174005 78.203903
1.295803 -11.876976 123.889320
20.171040 1.386280 86.495712
-8.165212 9.114071 103.675316
-4.932675 -10.596049 108.534332
-14.823614 -1.532249 130.983780
-2.781693 -10.683924 100.012192
-1.596205 -13.097959 119.737762
-2.750306 11.548257 149.387360
-17.448812 7.498746 96.214691
-16.467047 6.908651 91.028053
13.224230 -4.992941 123.404007
-12.960634 7.333180 129.403275
-14.129457 -7.675549 102.148712
15.975419 -8.125249 82.912933
-12.489916 9.165812 134.378586
-10.922055 11.126428 86.669098
-0.521924 7.379240 106.512512
17.840931 1.427691 95.424843
12.410500 8.611581 133.139481
13.082140 -10.174222 93.812248
-6.777381 8.546646 82.029045
-14.905278 -1.014544 107.291603
14.648701 -3.981125 140.478241
-12.454655 6.436327 126.959152
-15.703908 -6.472661 134.251419
-3.422182 -11.635631 116.763275
4.112900 8.587879 107.862854
-20.077917 4.412560 85.643013
-15.333690 -6.681962 95.893013
13.048412 -8.477801 100.132164
13.383165 6.371386 103.409485
-13.230282 -10.148890 85.980850
-17.131277 1.010814 99.896866
-14.744586 -1.908970 129.262070
-15.014654 -2.225265 133.010956
-11.052864 10.538257 82.073944
8.958742 10.560472 132.136337
3.335066 12.428146 100.288864
5.980984 12.448521 145.198090
18.059553 -7.146006 86.406898
-9.020421 5.484814 111.873489
16.789850 2.934641 82.400925
14.962845 -4.683640 106.106079
9.548072 -9.437116 138.894180
-15.658701 -1.730489 96.570312
-11.213640 -11.224198 85.822052
-13.464705 -10.577792 87.416794
10.069300 -10.233353 119.980957
12.631775 9.024819 132.139343
-5.637029 -9.091704 100.772408
8.194446 7.691082 82.320969
-10.144557 10.509518 83.875755
-6.298583 -9.715875 84.973831
-8.808219 3.764554 111.623505
-10.048255 1.978588 115.263947
-10.462671 -6.961520 116.860512
-21.422180 -1.158391 85.080414
-12.760674 2.169030 115.584213
-2.680425 -8.904223 140.322464
16.834980 1.549317 102.112656
0.956169 11.697152 97.814850
-12.388515 -11.068013 80.335129
14.723022 0.428069 109.364273
-6.722271 -10.465189 115.344345
3.723555 11.945124 87.803246
1.631372 -12.324220 127.726151
18.646736 -4.903764 88.913025
10.454621 10.973623 149.743668
-15.351744 -8.092541 78.840240
-8.636782 -0.517386 149.196121
-4.098430 10.706315 133.145203
13.519007 -10.619452 89.330467
-20.356972 -1.579520 80.465385
-0.750538 11.045595 134.586441
13.476433 -2.412973 145.876389
-13.198427 2.322670 125.415794
-0.957734 12.710670 136.817032
0.262871 -11.537913 118.284637
20.361767 -4.489635 85.596962
-8.000395 13.224211 95.875542
-11.018147 -13.463705 134.698761
1.578905 9.952063 129.356613
-12.480199 -10.403788 135.525909
-7.156924 -3.632943 145.190491
-15.215115 -7.099729 133.529022
15.642641 7.342916 97.972488
-12.527267 -10.255612 110.329590
8.930942 12.929768 96.145752
7.318931 -10.261236 86.544983
-7.605155 -2.148541 147.943680
13.670128 3.432220 134.830353
-11.787221 8.830597 131.485596
13.057126 -6.794882 107.123627
1.492516 -13.148490 137.342636
4.901762 -9.998425 91.199898
3.021000 12.835449 132.374146
5.265269 -10.585480 101.912926
16.581898 7.627440 89.555962
10.284104 -6.857235 142.333206
8.669134 3.637664 120.750687
-10.589738 -9.258910 89.014610
-5.007453 10.859770 151.106308
-17.600725 6.003780 92.513962
-7.535054 11.228754 91.515396
5.242226 11.314589 96.007652
-2.401451 7.893051 150.894409
7.152255 11.673170 129.726151
-7.661836 -8.185792 142.657715
-8.057004 -10.356425 77.100395
-18.588528 6.217855 88.146423
12.970594 4.412310 105.511292
-8.498251 10.541587 148.967010
-8.677805 12.463713 94.013374
-4.783028 -12.282695 131.534286
-6.789475 10.325756 86.813026
-4.559542 11.128665 143.416626
8.182759 10.781578 150.527649
-7.170300 9.715724 81.849731
3.592898 -13.629076 128.071594
-1.192051 -10.420383 77.998886
2.377796 11.598900 101.137741
13.350171 -1.431977 126.676079
-8.339316 9.764647 134.552521
-3.125081 -12.337346 120.916885
-14.828234 -8.093783 90.908165
9.644661 -9.360957 122.366989
-15.950385 -3.801974 104.471817
21.710266 -3.915640 84.446594
-4.528765 4.573246 113.796150
-14.585913 -2.192723 106.542046
11.821215 0.132627 118.870186
11.045979 -7.502975 93.760246
-3.360692 -11.336023 87.277122
6.627028 3.354257 118.410645
-6.666311 -9.711841 83.984169
-17.137365 2.150570 136.347519
8.951062 5.438991 114.044701
16.937012 -2.127793 142.767578
11.350453 -1.439396 118.917603
14.658191 4.956148 133.778122
-5.172858 -9.572237 75.608765
-8.245537 13.230945 92.939781
-4.873881 11.202682 139.604599
-14.056710 9.504557 137.386795
13.959817 10.384771 94.802208
-13.353764 4.909606 151.479309
22.063459 -3.117796 77.470863
6.100275 -9.742702 99.054047
13.183771 2.593391 109.798851
19.360458 2.707796 77.908623
3.960517 -11.047619 136.310532
12.315312 -9.482198 89.870674
6.326055 -11.750033 125.562286
19.610241 -3.579252 87.409035
-4.308098 9.493046 84.638107
-1.803301 -6.832054 142.385651
13.918133 10.291617 88.491272
-6.698836 -11.309058 127.487106
-14.156772 -0.755068 129.989716
0.076206 10.698220 147.129761
5.793213 6.216411 123.820015
12.261168 10.104980 90.237396
-4.674872 5.335582 111.407608
8.587723 -0.171037 149.729599
11.580328 -5.238175 118.701195
10.476707 1.986074 118.022781
-14.220050 -0.963056 128.568314
10.773517 9.192991 106.401085
10.086136 12.212045 97.156876
15.375514 -1.491000 137.686554
-2.598510 8.017592 77.479950
-8.663910 -10.306048 78.425369
-2.925636 9.196632 126.839806
2.894961 -13.083909 110.686035
8.085936 -12.195858 80.400391
-10.689470 -9.677987 94.922699
14.486819 3.981964 102.349693
9.153872 3.650704 150.396011
-8.299973 -10.500340 88.712158
-14.168499 -8.892136 108.181976
-5.170845 -11.695184 137.646439
-20.133865 -5.079202 79.577980
0.459028 -11.213963 129.618774
-0.059258 9.594944 105.968269
-10.150520 12.190791 144.559799
-4.945244 -11.103975 137.411942
5.250213 -12.718964 112.583771
-10.342463 11.278267 84.943871
-4.853520 10.676833 102.029495
-4.078810 11.257068 135.244644
-4.903120 -11.091225 104.451668
-15.915031 6.604169 86.624809
-17.199697 -5.544539 85.457253
-4.455019 6.618946 112.211685
20.888117 -6.262631 74.914223
18.733570 -5.110066 89.310852
-13.325531 -3.409347 136.419647
-5.493293 -5.333139 146.968353
12.482142 8.615405 79.741341
13.101384 -4.346013 116.667938
21.067276 -1.914124 78.906319
-11.224327 10.644925 96.776733
7.452700 6.777119 152.012405
-11.122303 1.881039 115.033379
-12.137489 4.763278 127.415970
6.265242 11.277904 148.187408
12.382226 8.060889 102.093353
-9.074070 -13.672079 134.008652
-4.838955 -8.333455 91.860466
1.710114 8.439337 128.756287
9.943420 10.593487 134.736359
-13.613896 -5.661870 132.067368
-12.376651 5.224575 128.585876
11.335876 -11.363221 85.938416
-12.230823 -8.018896 125.715157
17.595034 -0.342048 99.926941
-19.391584 1.911697 79.074806
3.090779 -10.585443 99.981285
-9.483138 11.635453 86.092979
20.493969 2.731204 92.602745
19.230032 -4.621141 86.075317
-2.725620 9.586056 86.334900
16.731680 2.432626 100.152115
-13.752479 -4.311471 143.121948
10.177145 -9.314152 124.229752
13.757646 -8.156991 129.286774
18.134962 6.281485 86.450912
14.267110 -7.474991 96.243523
-1.222894 -9.953310 78.994385
-5.484125 -12.257956 124.523003
-19.887995 1.137819 88.016617
10.909083 -8.845318 122.210281
5.204116 -10.007373 83.189293
12.302324 -9.963942 138.690308
17.082909 -8.594686 93.459702
3.877842 8.913434 106.334183
-12.260058 -9.132606 103.123444
-13.284964 0.925795 129.392319
-5.009341 -9.472141 101.916977
-9.082066 5.705940 124.329903
-18.466330 0.499442 89.490120
10.427572 9.810334 102.456131
10.027904 -9.305325 91.893555
-18.585716 -1.466991 101.076355
10.705175 -5.363088 143.400391
10.522951 -2.788936 142.820847
12.440055 -11.058567 130.329422
14.973237 -8.530283 97.755707
-14.432455 -6.097681 98.848160
5.227258 -12.345343 107.165756
7.187183 11.015789 101.230751
-18.671478 3.406512 95.514473
-6.053331 9.538663 152.314087
-14.780581 1.214597 107.560081
12.162647 -11.631710 137.860107
-9.862983 -10.256227 104.797798
-21.691410 2.765090 87.382614
-6.551365 -10.386852 83.281113
-14.193115 -7.773655 98.762733
12.232132 -1.116980 146.310226
13.844316 3.790540 132.896149
14.735151 1.792566 103.416748
-1.678576 -7.747103 142.886795
16.730005 -4.248783 102.971870
-7.958588 -11.588363 127.382866
8.477989 -9.751377 83.209412
-13.673965 0.325993 118.514626
1.928110 -10.413331 77.149208
-8.591786 7.795904 127.282333
8.300801 9.177040 129.006271
10.751827 9.381959 87.917168
-10.117480 -10.470055 84.576195
-6.344520 -9.641313 87.431999
3.375146 -11.824718 119.908195
-15.278025 8.657144 90.604881
6.272507 13.058588 137.655563
-6.233391 12.347499 139.424377
7.319087 -11.322569 136.587128
-6.827073 -10.011337 94.601799
18.984447 -0.309950 88.070076
12.412971 -10.611746 129.929703
5.034863 -13.041141 118.824341
9.829401 4.054773 150.962708
-14.363518 -0.529536 109.492065
-3.214720 11.246263 98.380959
7.382503 -9.719422 96.666084
-1.812285 14.285531 141.788528
14.452786 9.985751 94.314552
-3.799803 -13.694346 131.934448
-11.214473 7.916684 147.833420
6.539389 8.558926 76.964745
2.567397 12.022596 129.187103
-4.235930 -7.690981 140.906708
-14.249882 1.596663 110.606010
-9.043827 -10.275141 108.875259
-9.634901 -9.444241 86.662231
-11.224854 -10.111686 102.322495
19.790113 2.520804 80.277435
-9.800367 10.577558 132.276779
4.391953 9.230655 151.919266
2.878715 -12.173792 109.192726
12.823052 5.336829 107.234962
9.795011 1.480238 150.585037
6.251941 10.120856 100.111572
21.677576 -2.426470 92.390541
2.323692 5.210565 116.784027
-2.684055 -9.578547 83.427711
0.792795 11.709897 101.262024
-22.307230 -0.993122 85.694511
16.582577 -4.821557 92.129379
12.032152 -12.528803 86.411102
0.313210 8.246753 106.615417
-18.790518 1.209001 97.536774
-12.145100 -12.594160 130.640274
-10.117242 3.402416 152.763016
-16.447359 -0.756475 132.155228
-3.953724 12.550304 139.041122
-19.653866 -7.052695 94.395752
-12.047540 3.681834 122.069916
-13.799573 -13.477045 131.575562
-0.173560 12.299740 89.658951
13.465864 -5.386778 127.672112
-20.462534 -3.210477 77.553474
-7.769837 -2.514292 145.439575
1.074218 8.937498 108.323204
-9.658160 -10.228599 107.967117
9.717817 12.241399 138.099442
-16.623070 0.383683 99.692688
13.485529 1.642303 112.629845
18.711767 4.366584 79.087418
4.258111 -13.596688 133.629425
13.844730 0.767150 126.008041
6.917241 -9.553359 86.681572
-6.452763 5.743642 111.588455
-3.511122 10.026310 88.241982
-8.940759 -10.152354 95.685143
-17.114677 4.844051 92.719666
-2.654877 -6.821766 139.626144
6.910697 -9.979016 115.147560
-14.336186 2.728090 133.189316
-12.663383 -10.434996 89.269020
-15.067153 3.820950 94.800339
-12.137193 10.253948 86.017174
3.663594 -15.866535 133.431992
9.717221 12.362962 85.516541
-12.987226 -5.992625 109.335220
17.579777 -3.235376 92.663086
-9.028898 10.751429 133.467545
4.656039 10.168553 131.183777
-13.122320 7.948063 78.847191
-18.732964 5.002172 92.949181
-4.189812 12.237206 146.062698
12.366570 8.925943 92.564461
-14.232815 0.535428 129.116180
0.797375 7.711817 76.749084
-19.084089 -1.127525 99.101295
-3.481207 -9.363536 93.527969
17.988750 2.387953 79.251381
6.704522 -12.973264 132.052094
4.203035 -12.915228 108.830124
-12.218082 2.936472 125.409828
-8.070465 -9.533767 74.601479
8.821463 3.746723 151.931015
-9.078743 2.481847 115.185913
10.091062 -11.449242 133.535538
-18.238852 -2.697719 93.206268
-15.773012 -3.493027 133.741791
-7.047414 -11.195679 105.409851
-10.385671 11.151536 87.159294
3.875002 12.242301 97.982559
11.455885 12.583021 94.030998
16.515463 7.478273 89.464668
-17.786633 2.485631 78.231049
2.934741 -13.039693 136.618454
-5.609179 -9.245818 77.316223
-1.535521 6.010096 108.410248
-16.933929 6.263617 88.767090
-19.816175 1.091314 77.247810
-13.544273 -8.238685 139.579010
14.940497 -8.156147 129.671951
-10.623773 -6.199100 113.145973
-11.408757 -5.192596 140.923920
16.821899 -2.218740 101.773239
18.278170 4.074217 84.118500
10.157526 -9.460484 119.151451
-1.314509 9.947286 86.216454
-2.359042 10.815461 88.848595
-3.706679 -12.255029 114.717369
-1.232285 -10.064881 137.669159
17.241966 -4.582997 104.043808
-13.609416 -5.485764 106.930733
-12.822582 5.442404 109.791092
2.263560 -12.057555 101.599686
14.725301 -5.143788 127.296570
-6.811703 -10.720347 96.414444
-14.298268 -2.462692 106.384239
16.845543 -0.000030 98.900558
-4.653880 12.726913 132.001633
5.029624 -10.164465 101.763191
-9.082870 10.143167 134.082520
3.902855 7.516480 124.105057
-11.704187 0.638846 123.285774
3.624933 8.135324 128.032196
-6.388280 11.820395 100.091911
13.612004 -7.309227 136.445068
-16.564510 -10.975733 80.809464
-12.174773 -2.508791 113.929535
3.663810 12.438999 93.000168
6.235166 12.258677 101.703995
10.689743 2.327260 117.481926
18.128031 -4.668732 89.047913
11.629387 -10.735183 97.048897
-13.952341 -5.730065 140.801575
17.539932 7.935700 78.578026
-4.525699 14.273364 94.383316
-3.176698 -7.019863 144.534119
15.347127 -5.535447 109.014122
13.881546 4.181420 106.357079
-1.382301 -12.045850 136.952774
-14.631426 7.359465 100.973228
7.486197 -8.523244 140.475372
-20.253813 -1.645337 83.754875
0.556689 8.419443 125.924652
-19.542524 -4.088149 89.713379
12.018348 -5.057764 140.535477
-14.143009 2.075332 131.101425
11.123441 -8.780259 140.493790
-11.947406 -8.848292 126.551285
14.285730 8.063800 92.109276
-19.306097 -4.378769 83.946655
3.966372 -2.425171 147.413177
14.586905 8.174292 74.945427
3.104359 -11.068150 80.165352
-4.756693 -5.054472 143.628311
-12.721202 10.733346 94.783882
-9.435846 -11.634573 96.935829
3.564610 5.557751 120.993057
5.401677 11.414036 97.898384
-7.723388 7.538114 124.806847
-12.240360 -3.136719 123.545425
-4.417522 -12.601305 104.153008
-0.675800 11.843591 145.413773
10.310940 -5.696964 141.014267
9.807978 3.803474 151.783554
-10.904179 -10.548841 82.616737
-7.883524 6.053948 123.863007
12.380002 10.260751 95.378952
-1.135851 -10.908317 85.845024
-4.615470 10.831553 132.296921
4.731771 -9.741899 89.731880
-18.707308 -7.833560 78.907166
-8.535029 5.705609 114.301292
-1.434224 -11.321651 96.847336
-6.246190 -11.142241 100.486404
-13.390455 6.648749 130.511398
1.231255 6.163063 111.362236
9.860567 3.048728 120.418602
6.063653 5.237348 119.629456
15.054852 -8.628801 103.510765
16.404001 -8.337093 79.025726
-17.882454 0.730950 80.482140
-11.821297 2.615401 121.062050
15.596442 0.133558 103.941719
19.281935 -5.227882 84.638046
-17.231390 -1.232636 97.512695
10.428290 -9.667804 126.438461
11.010186 -4.153684 144.300812
13.796228 9.293050 93.279266
-7.241760 8.578485 104.829659
12.088411 10.540111 134.211624
5.365654 9.081400 128.690140
-13.594845 -8.846221 130.265030
-13.716870 -10.851524 135.288559
-6.101718 -11.303184 83.045380
4.751711 12.157343 95.943123
-8.826548 -2.949182 144.363449
-6.602950 -11.071310 104.108459
7.689105 -10.761345 78.597641
-11.595570 10.341535 98.625771
14.353596 -7.182631 109.813988
-3.986868 -11.469567 104.238304
-15.406160 -0.607730 136.135223
16.200394 -8.930056 83.359695
-7.710464 -9.359296 140.379807
0.416355 -12.893235 118.738693
-14.326809 6.331122 98.405045
9.005548 -10.011847 113.088928
-2.503760 11.278702 87.353340
-3.829439 -10.864346 81.836029
-11.365767 -5.475866 125.356659
13.502190 3.189277 132.433975
-0.212982 11.513828 129.572433
-10.468855 12.063869 94.413971
7.630974 4.187187 114.948410
15.528671 4.234408 96.950188
12.952622 10.278570 88.641220
12.016579 11.216892 96.532555
-20.046534 2.310491 83.481117
4.879416 11.422448 88.396294
-2.629144 -11.300587 81.658058
0.655023 7.223749 109.228012
-18.362661 3.591188 87.993080
-18.802948 1.988751 90.302864
-17.967258 3.844311 99.817909
12.955988 7.898217 79.363785
14.417258 7.547267 98.287132
14.191866 -10.360739 132.352463
10.489294 -2.997349 116.322197
-11.120444 -0.546762 121.756538
-12.743065 4.494317 101.631874
-9.878778 8.402688 132.286316
-2.489729 12.214624 140.521881
6.403982 0.985724 155.990860
12.524331 -9.899286 89.744484
-12.054141 9.485158 131.721207
11.827936 -2.432945 116.326447
-11.206462 0.922516 122.604378
19.651207 -3.259459 94.619347
-1.816366 12.390289 101.581879
-10.241764 -7.148788 118.920692
9.650894 8.973352 102.678841
2.284887 -12.313452 112.865822
21.774858 0.637363 85.376724
-2.782213 7.525618 104.918732
-13.557922 -8.417820 95.888474
-6.479545 -9.502091 137.456482
14.737958 4.157992 135.769806
-9.091593 -11.633296 95.841286
-5.309591 -9.535191 87.867897
-13.981544 -2.577915 131.512482
-10.063311 3.357098 112.326927
-0.540544 -11.559796 100.133003
-2.163331 8.926914 82.422318
-19.413094 3.294418 80.769440
-5.525074 11.125845 88.135460
18.630909 -4.114335 80.476151
-20.932692 5.912505 78.510765
-10.317946 11.276910 134.463303
-2.585669 11.782501 144.473984
2.725776 10.060561 130.014877
11.565681 -4.773023 116.570969
3.873147 -12.989090 78.344170
-15.009132 -8.977942 89.490433
11.291543 12.079450 93.015427
-6.947412 7.323037 127.196121
16.855553 -1.738766 92.560890
7.089952 9.906773 145.013199
-12.048183 6.237108 108.346832
18.495018 -2.120526 97.574432
-2.184569 -13.077947 132.651459
-8.470284 -10.064209 118.257988
6.443516 -9.719220 78.623589
0.075974 13.137010 92.446175
8.235198 -11.192161 125.462189
17.101875 3.867702 97.705765
17.210770 -9.598476 78.573532
-17.609873 -0.452833 91.140938
-8.217176 -9.444756 104.877579
1.335163 6.155936 111.828430
5.420782 -7.840575 143.704742
3.639065 8.101200 78.181206
-14.331827 7.615114 135.845535
3.902366 -10.548759 128.403763
10.044378 13.020221 94.202072
-16.427380 2.637448 99.617378
-10.262215 3.439544 116.987419
11.839664 -5.453362 113.726158
-10.603162 10.667253 94.884727
1.694918 12.374159 149.104065
-2.307327 7.124966 117.703117
11.876110 10.936445 88.100609
7.740428 -10.840745 114.448898
-15.378505 -7.439978 106.599792
-1.143476 -13.178802 111.372421
-16.300110 2.009311 99.485397
-15.333979 7.026556 86.687004
14.192045 3.856894 107.401604
5.657824 -11.090523 82.120308
-4.346718 -10.507501 84.220375
-8.200119 13.054719 141.514282
11.654447 -11.609140 135.442429
-10.119771 -13.128167 132.106216
-19.158703 5.664466 86.934723
-7.227195 -9.939201 81.752670
-18.260679 1.003878 90.366585
-3.090882 9.143323 79.431038
13.381744 -0.127356 132.668823
-7.497208 13.251304 97.831299
3.889242 5.590604 111.251930
-4.986602 -12.665510 136.461380
6.578727 10.132895 132.568481
-3.936168 -10.889937 139.547577
3.143006 12.728291 138.038010
-0.124846 11.585138 100.896042
-10.810748 -9.227084 111.492081
-11.136137 11.582224 149.410141
-10.710672 0.467226 119.722931
13.773013 2.587604 102.301407
10.752865 0.233176 146.699875
-11.738031 8.853632 84.843987
7.726139 -9.563967 102.549767
-13.051334 7.686659 78.988106
4.146945 -12.976404 118.035698
16.302010 -4.650952 99.728958
-0.775767 11.056411 96.291458
-14.486476 -6.801479 103.147850
-5.583467 9.524243 80.529594
-4.718578 -8.498717 140.595779
-11.159890 9.388384 96.709015
14.221990 -5.180284 138.486588
12.250421 10.742516 92.566231
-11.077359 10.332676 145.206497
21.187586 -3.062343 82.282143
10.869816 6.417913 124.632149
-15.516152 8.526079 81.151642
-0.032474 7.306365 109.330322
-1.271923 -9.995358 81.760162
5.169004 12.289640 139.595322
-15.242592 -8.515337 94.157303
-6.942879 -8.320242 140.935410
-8.901687 5.778212 152.476532
-2.496503 -10.084048 94.884621
-1.625294 10.585917 147.924576
19.554037 0.164854 85.495842
-17.957258 -7.966473 88.637451
-9.500553 4.148261 121.476540
10.456778 2.167350 124.749794
17.178461 -0.018606 104.906120
-12.179380 -13.245818 134.256409
12.955481 -9.289235 81.257553
-6.258983 12.387937 96.180565
-13.040286 7.053193 97.564697
-10.393171 -9.655483 77.672333
-10.985949 3.811348 116.261353
16.680346 -5.807538 99.665550
-8.804821 3.882211 121.583603
-15.205872 -7.526028 102.083710
-7.642897 -9.619322 79.058708
-16.245556 7.763307 155.497253
7.295949 11.467737 86.691071
-6.558175 12.828368 146.752625
-16.502279 -0.252571 104.747742
-5.684350 6.004285 153.268616
21.576487 -1.874797 85.861168
11.324848 -2.420577 119.736351
-5.374333 13.174932 101.008675
6.900448 4.329568 113.566742
4.984889 -10.770536 101.425064
-12.687567 -8.881597 74.800865
0.001915 6.245534 112.487480
-16.979185 -6.406950 96.056091
-6.191184 -13.487748 129.619019
-11.728368 -10.037338 137.342560
-12.757101 -1.427634 113.638084
17.034142 4.902997 97.316048
-6.347470 13.664137 138.134689
-10.367309 2.126551 149.383789
11.514519 8.670769 100.960312
-10.533464 -7.601868 117.617447
-15.223811 -8.588145 98.587585
14.480922 8.500733 89.800087
9.552773 -9.990705 124.539536
13.170995 7.809412 78.015686
-13.895220 -3.399300 148.650848
10.051681 9.736380 77.229095
7.487047 -12.284523 106.036087
11.047864 -10.483084 80.166199
1.226138 -13.373209 119.923737
-17.210752 -8.463143 74.476547
-0.431470 -12.869692 102.427238
-9.429611 -8.263132 118.338318
6.515127 11.431805 131.065414
-14.828282 -6.746063 111.171661
10.763193 6.118975 152.452347
-0.229050 13.517950 138.726746
-2.176738 12.083586 135.332886
-4.098608 10.096671 131.246475
-1.757584 -11.315722 138.758240
12.669477 3.457446 112.698845
-14.997689 7.337008 82.822433
-11.564326 -8.754603 110.078362
-8.822908 9.380999 103.849068
7.552464 -11.684417 83.093025
-10.029832 6.746370 127.436714
-14.472105 6.606503 136.705109
-17.457430 -10.001733 86.401146
10.650128 -8.915524 100.746063
6.509813 -8.206709 78.919052
11.777025 6.613211 104.405769
-15.286420 -0.352444 132.712112
5.729238 11.016238 102.097694
5.958646 10.484595 75.979546
9.837211 -10.009893 102.530296
-19.056458 -5.163326 75.459541
14.901511 7.620603 133.590225
-9.020083 6.259446 118.330803
-10.443356 11.707306 140.068375
16.303640 -9.438772 91.576950
8.039096 9.219400 84.527985
-4.870860 8.412401 120.701370
15.107084 1.986976 104.469261
-7.978170 11.786263 138.384308
6.009137 15.025342 142.979431
-9.955879 -9.846150 101.110512
0.500349 -9.160983 140.271179
-13.499036 3.680610 96.959343
-9.760598 10.373677 99.182922
-10.669640 -6.263628 112.024895
8.576722 -9.641393 79.348991
-11.319613 -6.540607 124.957268
-8.498631 3.851021 112.312866
13.843435 -2.749679 126.417488
-0.531150 -12.069008 102.401604
-6.000765 12.732951 91.255646
21.024889 -4.969933 84.875206
15.189484 5.154742 92.768944
-17.187107 6.039056 92.106926
-14.478417 -6.262464 98.585442
-13.812570 8.643625 80.332947
13.736028 -6.372886 135.746063
6.836195 -13.170323 117.168884
-11.922263 -5.389046 113.299156
-11.401706 3.919149 125.359856
-9.994699 3.815487 123.514160
12.265270 -1.851483 120.243523
-9.494612 7.365367 104.994698
-5.521557 -12.541805 123.994774
-14.839838 13.890737 143.066818
7.817990 -10.550793 96.093719
-3.061437 5.406281 112.134163
10.113132 8.754979 83.933228
-11.063263 -7.606075 118.745453
-18.639973 1.469299 89.805763
15.540049 -0.050363 135.253311
15.772965 -10.236102 87.958145
-11.883266 -10.941511 87.141068
8.564615 10.946548 131.292664
6.177639 -10.562075 86.385139
7.377433 12.075779 89.445648
-17.589691 0.931213 100.762848
-19.939627 -3.091224 83.060577
0.478955 -11.807999 118.492317
-8.523502 11.326586 93.233444
8.449164 -6.797727 141.272964
-10.731651 -10.018520 121.732887
9.277793 9.641010 150.866165
14.164538 -7.358046 138.726135
9.894309 3.974211 117.304924
20.791256 3.860693 82.854996
-17.438377 -0.490358 107.777344
7.890191 6.691554 152.705276
-13.984183 0.858392 127.010277
8.737815 6.750748 109.496414
3.070146 -11.761893 119.765167
14.056948 7.406105 99.635643
14.327944 -1.470189 131.280258
9.372704 -8.323262 141.218002
-19.112402 -3.581186 94.579857
-6.740907 -6.948255 144.341553
-15.059514 2.700124 93.929352
-19.725307 1.052277 88.685501
5.707301 -10.623646 114.002197
4.659264 -9.760252 98.309509
0.594452 -11.297786 109.850479
14.298006 -9.836818 79.705658
14.255029 -4.600080 129.322647
-6.827198 11.640162 148.134964
2.681860 -6.297875 141.661041
-16.218613 -4.031063 99.615753
3.500698 11.221878 97.799988
12.316092 -10.358795 95.877258
-9.998461 -6.697766 121.893913
-20.826681 -2.090404 78.119484
-2.975199 8.683544 106.406052
11.481385 5.846776 106.683067
-14.232783 -7.649907 96.994400
-7.732945 -10.708819 120.732681
-6.038200 10.559717 133.157623
-13.406831 6.553836 129.188019
0.394754 -10.410268 93.112679
15.444012 -6.491889 131.922836
17.367496 2.522660 100.242943
17.519009 6.585993 87.897118
-15.133558 -3.035232 114.555107
13.995459 -7.570813 105.901886
-8.223387 10.603506 102.428543
17.215485 0.093164 103.002541
12.680566 4.909028 106.957397
-1.892027 9.139981 127.995308
12.269346 -4.423949 114.162224
11.574734 -11.757299 135.735260
1.535402 9.338953 126.165810
-13.934111 -7.690732 133.625549
8.342882 8.197161 129.205933
-0.750801 -11.512196 118.574219
-17.109020 -6.503317 103.259789
-6.576100 8.549834 105.481827
10.248821 2.200520 123.923096
5.806966 -10.648776 111.482430
-7.973441 4.661404 119.368919
-9.044044 -13.349452 135.988785
12.904948 -6.910595 123.350182
-15.487365 -8.540386 100.543816
6.943199 -9.515197 96.614861
-20.460825 2.059480 77.829765
-4.032560 -9.099130 93.999092
2.719355 6.002224 113.584595
-1.106971 9.875854 132.429840
-12.290012 -9.412901 91.327560
18.408730 -1.996400 94.819656
-17.239370 6.101683 77.919434
-8.701312 8.966601 150.658371
5.653072 8.678913 81.122856
-2.351698 9.473543 151.034988
-18.020447 5.885225 84.290115
3.912394 -11.870021 118.643066
11.406519 -8.119034 112.426704
-7.851579 12.812928 142.888474
-13.819314 6.692806 98.998444
4.983158 -10.766070 117.263191
-1.222143 8.401608 78.318558
-7.490804 -10.486926 113.714050
-12.242577 -10.879204 127.261887
-2.627727 12.720649 144.713638
-15.771029 -8.140014 93.011604
-12.841610 -7.270384 123.272850
21.000437 4.160128 82.151016
-7.272940 -11.385694 76.553596
-5.530982 11.640266 99.064545
15.592256 1.600305 104.569870
17.981115 -4.476818 86.999680
-6.324975 -13.467328 138.003189
12.826896 -10.214011 79.222633
3.107451 -11.599304 101.015076
-7.332901 10.731169 133.354034
-15.390936 1.719648 129.940109
-12.103285 4.245800 105.712738
1.937258 9.640093 82.370193
0.732181 -12.374833 134.793015
-6.633108 8.869446 153.053238
-11.476325 -2.578486 145.913589
-14.799109 9.242246 91.421356
-12.928310 -0.784580 115.169785
-9.667226 11.258675 143.599426
-1.743520 -12.839746 134.632355
-2.392552 -12.763770 128.545517
14.932361 -9.396995 83.006744
9.349497 -10.377220 122.993584
12.338785 -8.033976 126.423851
-6.607336 -12.525544 120.199615
6.143960 -11.488437 108.697319
5.152231 -12.725573 109.220657
13.611902 -4.612041 123.092110
-4.518049 -9.978238 91.490044
-11.175366 3.013490 114.579773
3.743509 -13.003370 128.978806
-1.216161 9.971884 128.072693
12.674064 -2.698333 114.270142
-0.490698 -9.823669 97.842659
-10.148951 10.026775 88.479126
13.724289 -1.060285 134.080811
14.338943 -7.999130 110.263832
-8.731955 13.453042 144.190536
11.024005 -7.971555 140.177307
8.478834 -9.581859 91.002182
8.816135 -11.218238 108.150833
-8.864123 -13.024286 128.560822
-2.631331 12.128477 140.724289
-2.682264 6.973232 121.380890
9.000257 12.926192 97.341843
21.116835 0.272406 79.995674
10.601941 0.348064 147.929779
-19.592270 -4.054094 83.971886
25.651129 3.892794 77.082420
-0.767844 9.417702 87.726303
0.464291 11.773068 93.203629
14.926750 1.480846 146.604218
6.742620 12.499764 145.704590
14.595096 -8.468674 131.203033
-1.954044 10.340278 149.632263
7.269958 10.691745 131.196472
-12.256382 -1.676713 120.180603
-11.930058 2.392032 149.135483
20.816639 -0.239377 82.970428
-13.093585 -10.374399 101.593025
-11.311457 -2.447021 118.861626
-8.867573 -8.890630 88.143013
6.741646 -8.625618 82.879745
-10.719332 -9.725154 114.205765
7.824369 12.342163 89.668724
2.293547 7.492802 110.660431
-12.160378 0.866390 117.105286
16.253851 -8.617588 92.773666
-16.045605 -8.160995 84.983429
-10.090216 -3.742774 145.242615
6.800464 6.181821 122.223557
-10.800208 -3.695866 114.945023
6.068066 -12.845103 108.371902
-8.548015 -9.911679 104.969009
19.677874 1.904083 83.724655
-6.635257 7.939682 109.147598
0.093377 -8.794161 82.026840
-8.286093 0.287817 151.698990
-1.769542 -14.779426 133.861069
11.426831 9.314149 84.946098
12.290589 -6.483348 115.102486
-6.275493 -10.640239 113.350197
-15.726211 -4.377572 137.798981
12.438796 -8.442601 123.724113
-21.000782 -2.786900 83.603615
11.897336 -2.946465 143.427643
7.094849 8.911884 82.085190
-19.765253 2.215250 76.845673
10.280125 9.050951 150.760406
11.459222 -8.567293 109.966278
-18.465084 6.425383 87.750435
11.192576 -12.964498 132.475082
-13.635150 -0.278914 120.670525
8.346582 7.912859 85.272133
12.937707 -7.280073 124.515266
-7.701703 -9.401441 99.286911
12.649982 -10.780205 82.167198
-12.276505 8.113531 105.083664
4.690078 6.579573 119.458420
18.193819 -6.670454 88.032906
14.195240 -4.989524 108.080193
17.635151 -5.671977 81.395432
-12.357302 5.864088 112.929649
0.158388 12.292459 88.487915
13.964189 2.687473 111.839706
12.318175 -8.862578 128.840942
2.662982 8.297860 128.005768
-14.584471 1.457938 107.370964
13.482716 -9.259991 88.064690
12.232353 -6.809100 137.398804
4.416722 -10.670180 79.298447
-8.296331 2.173511 118.183884
4.634542 -4.717453 144.319290
4.355171 8.674427 127.281883
-14.946723 2.389350 133.291367
-5.291829 8.754659 153.363571
12.770110 4.019479 124.208038
14.656725 -6.154950 111.498764
-4.251051 -9.495130 101.063034
7.903901 -12.046812 78.303337
-7.432138 2.279659 118.268997
14.583525 -9.209634 80.403931
-9.046145 -8.224524 83.401169
2.163791 -9.238769 90.934166
-10.546819 10.502093 146.644897
-16.069090 -2.983179 99.112206
1.322195 9.926811 144.560165
13.716814 -7.021611 137.094299
11.788095 -6.160460 125.638718
-13.927573 9.122458 84.672295
11.816784 -4.909141 114.846756
-11.339267 -4.105556 115.298653
-2.060376 11.480712 101.306000
12.133444 -6.002531 139.127533
-5.915949 -11.195214 112.310158
-8.296023 -5.517340 143.345154
14.988072 -5.639595 135.249985
3.510434 -11.046376 84.606476
-12.387545 3.057054 109.680550
-8.416013 12.829324 96.299446
6.259366 -9.919088 85.978577
-10.912535 -4.428557 143.052811
-14.694286 9.367242 86.678368
-16.007465 -0.806784 104.844864
-10.650570 -9.283022 137.996750
-9.716498 -3.699852 144.268341
-11.535376 -10.021155 135.782776
-0.120029 8.874156 85.377007
5.829009 -10.066431 96.202995
8.449914 -10.334675 113.379723
7.069662 -11.516289 122.665474
-4.429055 13.557091 143.832169
2.401827 -11.348205 102.269226
0.311315 11.805418 146.981949
-5.139431 -5.767628 145.055725
-16.077311 -6.206717 97.964577
14.906812 -1.063752 110.097214
-7.022618 10.334460 127.537773
10.440565 10.273750 98.935745
-9.485387 -13.406963 132.667603
12.385343 -9.062950 106.624100
12.918737 -4.098189 123.599716
-5.504100 4.308320 116.687691
12.007498 -4.259599 121.119713
15.591346 8.089214 80.289734
-6.804672 -12.578834 102.438278
14.791327 -8.698982 136.980515
-7.838676 9.883601 104.764549
13.750501 12.265782 90.166115
-10.625055 -7.933558 114.518478
-3.441561 -9.665525 79.476242
-17.761986 -4.014372 91.883072
7.543533 13.600333 142.613800
13.484696 1.220369 129.975266
-4.717905 -12.122049 125.509644
-15.416478 -4.716301 131.465042
17.726767 -3.021753 107.882095
-18.215918 4.790403 92.365135
10.637156 -7.110137 115.478828
-11.553089 8.332829 133.121826
5.794979 -10.104877 76.025269
12.573968 -3.853003 123.573013
-15.566975 -3.925629 98.914192
-2.314291 12.867551 147.000870
15.260951 -6.264449 133.454834
9.288860 6.621227 109.064568
3.285772 -10.113630 96.115479
-2.588367 -8.941966 95.228104
5.410582 -5.050464 144.021286
-8.648722 -8.986830 93.372520
-7.386811 5.615928 150.834991
2.487382 -11.965622 100.074646
0.443780 11.092032 132.888016
6.289588 12.732766 97.479919
5.023140 -9.201746 76.054550
13.103526 9.516829 93.361679
13.760343 4.340889 128.622299
9.431535 -10.943202 84.568726
-8.309764 12.499202 97.842232
19.895998 -1.883258 78.722305
-9.240621 -13.253563 129.332687
6.451963 -11.790420 102.368790
13.546200 -3.418136 128.321503
-6.360788 11.033986 149.767120
10.652385 -9.140044 91.978821
-2.614447 -13.121975 130.452515
12.098413 11.511977 88.834175
14.084976 -1.949049 129.621811
3.450074 8.441611 106.873650
-3.634471 -11.539296 113.546364
-4.749172 4.391558 111.083275
18.961281 0.912923 95.208359
16.915087 -2.675814 100.712311
12.507561 -1.656494 125.584595
2.539440 -11.259528 85.181206
19.343130 2.395007 85.962128
15.356718 -9.904664 76.426384
5.114911 -9.777016 79.117737
-10.690101 11.583043 97.648026
21.920443 0.482056 79.733330
-12.588664 -3.958318 120.693817
-13.547597 7.107264 133.368729
20.279961 -3.369621 79.312592
9.754575 2.964505 112.118279
3.201519 7.967255 80.524071
-6.865492 11.703550 145.151077
-12.028251 -1.345932 121.570396
5.310617 -9.906831 88.487724
10.478974 -10.681890 77.066368
-4.901117 -10.588059 118.059837
-15.150844 -3.701845 133.475403
-1.264916 -9.486947 89.688568
-6.183789 4.940004 115.817055
-5.168613 -11.048656 78.920670
-8.145175 3.129541 150.237183
-7.999239 10.924085 148.147781
-3.406752 8.640430 85.563210
16.829409 -9.740388 87.876785
-13.318070 7.489839 130.745422
-2.826576 -10.820595 77.724655
9.698865 8.355357 82.125412
-13.227977 -6.669446 113.300606
13.340884 -8.681290 104.295525
-4.106574 -11.119636 115.377174
-12.379455 -5.139876 120.422432
-12.557459 1.403738 148.629135
2.949183 7.004329 124.536804
4.759443 9.532203 152.541351
-8.849042 -3.965824 143.023514
-10.984151 8.378874 146.827469
12.787201 8.175921 132.796936
4.102132 11.978041 143.942780
8.017624 9.999119 104.881233
-4.171062 -9.605334 88.735954
-9.425508 11.337929 142.402908
-5.234344 8.071947 79.150581
-6.193611 12.189098 141.953537
4.790024 -10.455198 109.838272
-15.277577 1.008452 104.632050
-9.334126 -13.149857 135.008163
-0.862771 -11.559895 101.938942
-18.307398 3.730351 87.125664
-12.028938 1.103057 125.679329
13.698203 -8.358962 137.687698
11.680718 -9.074538 100.721237
-9.960270 3.724246 74.886963
13.118566 -4.039165 122.342148
-17.016911 -9.575685 92.328979
-18.123383 -6.381695 82.222786
-3.499588 -11.947144 104.778198
-5.715683 9.387159 77.200035
0.093553 7.966261 113.350441
10.686605 -4.562327 143.156601
6.632914 13.801779 92.020157
-9.679203 4.200222 110.188927
-17.065544 -2.912446 135.724716
-17.955126 -2.523657 90.449684
-15.029423 -7.640353 129.391098
-12.243899 -4.009413 142.176590
-2.230345 11.927983 134.127899
-18.461714 -10.070428 91.210495
3.047793 -11.162944 99.336052
-0.096170 5.667533 115.791435
9.043038 -11.483838 120.567924
11.686697 3.303550 121.901054
-14.794032 -1.158838 136.739700
9.826356 -10.951336 127.306122
-15.555074 -7.666604 94.221214
-7.034809 12.818645 144.111404
10.050782 7.987398 83.284981
-0.499682 -8.803825 85.640755
-13.015547 -7.374502 128.146545
-14.720327 -1.450830 137.434402
16.267199 3.721850 97.727356
1.732606 -10.741982 93.018677
-11.870738 7.603510 78.532471
4.602458 12.817475 144.011108
-13.794614 -5.817536 127.928665
14.285431 -6.933550 102.633316
0.330936 5.396951 113.810379
-6.297252 -10.884889 88.303497
-7.075029 -5.182665 145.647217
-17.278664 6.239386 90.074631
-4.122854 -11.458341 136.040237
-11.667699 5.629625 107.256248
-7.187133 -11.955077 107.194572
-12.115642 11.682907 140.313629
-13.291723 -9.961181 135.916107
-9.851581 3.671807 111.864319
-10.003755 -8.307794 114.037605
-4.480622 -11.172586 110.208328
-17.622379 5.189465 93.823219
-11.049696 -8.996106 126.441200
-15.206062 -3.412382 107.958679
14.314680 9.804983 88.307800
19.213799 -4.652393 94.327728
-7.587327 -1.841339 148.587952
5.086935 -10.849184 83.292961
7.076414 5.464103 117.281006
-4.746103 10.588334 101.771095
-0.796608 -11.036629 93.193558
-13.245858 -8.716772 91.935669
12.259603 -8.046005 138.618210
0.699269 13.684076 88.107292
1.969206 -10.812108 109.711372
-4.110026 7.386658 110.120712
6.751686 -10.340163 78.795937
-9.487349 10.949867 131.242050
-6.929408 11.285483 140.049362
-12.926922 7.821597 105.164162
-13.310252 2.450913 126.951012
-11.169730 -8.157581 103.038109
-13.688463 -2.829607 113.366936
11.994383 -1.785037 116.169624
13.972033 -6.248767 128.539520
3.736530 11.797059 147.407471
18.592081 1.469207 90.332596
-15.048493 3.730139 102.741531
-10.868889 10.377596 149.836594
3.378686 -13.017891 107.423019
9.570371 -14.458929 131.174698
-6.625960 -9.392278 114.184174
-6.774327 5.599982 112.021385
-9.758921 -10.619767 136.730591
-0.073262 11.872743 101.867966
-15.855751 1.372241 109.589561
-15.455332 -10.306870 79.851242
-10.184723 -8.841119 92.760330
21.306370 1.364279 79.952827
-2.657857 12.783864 134.933914
14.384678 -7.091333 100.449295
18.883751 -7.872508 86.733910
13.543493 -8.803083 88.753311
-14.105057 -7.257214 92.935150
12.628584 9.157246 84.037468
-13.165361 2.950127 126.903351
6.311163 -13.478037 129.709717
-8.436151 3.296218 117.183472
6.221970 8.036450 125.025360
-10.295731 3.530207 125.321739
21.448879 -1.885524 86.750107
9.209206 -5.422551 142.397614
-9.795809 8.545840 86.235909
8.420232 -13.387569 129.256668
11.838300 5.208458 107.412117
12.623352 -5.992383 125.214569
-9.097070 -9.956341 139.216568
-9.956187 11.669558 133.874847
4.690325 -12.162864 105.140717
5.210428 9.277270 129.146942
8.426924 -11.372831 79.204414
1.092710 -13.308250 131.713181
-4.307948 5.772891 154.449829
-12.058685 4.590723 106.116638
10.610988 -12.079758 83.096542
2.469022 -12.849569 126.782570
3.720497 -12.822899 117.770256
9.527615 1.015579 116.918388
8.521358 12.487957 129.369980
4.466269 -7.246808 74.712013
3.213452 13.191774 137.045044
2.777412 13.337873 93.409172
-18.292494 6.359096 82.173790
13.390275 -1.164453 148.469620
-1.474563 13.545626 95.330429
1.105742 -9.582296 80.014229
1.864089 13.499715 141.283005
-6.746608 12.549866 90.412529
-2.594920 -8.916828 76.375931
-5.455501 10.190981 151.396942
12.895504 -1.214674 118.694336
-10.340277 -9.501415 86.302773
-1.404878 7.041729 115.637543
-9.523857 -9.450181 108.525444
-20.616407 -0.061122 83.564644
-13.390983 7.319825 133.741547
-9.454984 0.868826 147.226776
-7.597316 4.611599 112.231026
-8.748889 12.406313 94.543846
-8.708847 10.977899 137.372513
10.301173 12.174828 134.436874
-4.943806 -10.565486 127.057755
18.191277 -5.723935 83.310745
-6.529694 -0.898371 147.637054
-2.689441 10.095757 150.641037
-1.599650 11.150864 105.708794
-20.583830 4.663032 80.656761
16.517109 -6.877824 105.849045
8.428916 -8.831355 79.169769
-6.292031 -10.757679 126.125969
-7.130491 -11.078194 123.671547
15.451540 0.467816 136.990051
13.861504 -10.265179 89.233360
13.664641 -9.421153 89.639191
-8.388804 11.035810 143.939636
-13.766984 -0.438410 123.261063
0.251691 6.656401 117.081207
4.507890 12.610387 141.264206
-17.041201 -2.393641 102.680298
-1.237160 11.073914 129.014465
12.316815 -7.312257 136.051483
-4.621476 -12.309155 120.558334
-2.196262 10.264286 103.856232
15.656023 8.549984 73.008194
14.319633 3.105721 107.464470
2.425046 12.540283 87.393631
17.879839 -8.990714 82.674011
13.662046 3.277213 126.327705
-16.554266 7.014208 79.662521
10.578042 -8.993873 105.256264
18.200344 0.700904 95.381721
-8.775740 -3.983839 144.703400
-4.289075 -10.413513 120.418472
-9.968099 11.664804 98.250168
-14.564022 6.450331 85.764061
16.287970 0.357197 101.306274
18.871126 0.184454 92.288895
-10.350894 5.800813 111.374832
-16.688086 -5.230715 100.962288
19.640474 -4.438948 95.429665
11.693377 -8.111091 119.361374
10.912336 10.407874 85.052849
-10.819525 -8.825557 97.380173
2.052486 10.411224 87.875679
-0.099268 9.592495 128.158112
2.855720 -13.328755 127.817871
-1.912710 11.616117 100.913467
8.538572 -9.356584 116.038689
5.989747 -13.980104 128.739594
1.314001 9.371623 80.224876
18.907661 -7.131068 84.890068
-11.080542 7.656382 103.498810
6.186666 -13.942537 132.189072
13.041780 0.271132 116.876198
-4.151461 -10.011651 88.736343
-20.499037 -3.297817 80.635612
4.534909 -9.918059 85.116020
-9.961454 9.227431 103.620964
-20.963259 1.441597 77.900330
1.054367 12.614082 146.425659
7.794523 5.111166 115.969063
21.149611 2.047413 88.921516
-8.764057 9.600883 131.239182
-13.909202 2.207687 135.056625
-0.277674 9.817866 80.647148
-5.952448 3.217364 150.807678
-11.267581 1.447990 119.388588
14.918236 1.801171 135.373199
13.558519 6.291143 134.289474
-11.792119 10.930970 93.254143
-9.511967 -12.957335 132.049835
10.105947 8.192384 103.037590
10.970540 -9.403845 95.223862
-7.020424 9.874985 86.061905
-2.008135 6.566135 112.433456
9.454896 -8.691161 141.513397
12.676926 2.342530 126.073128
-12.625195 -5.056180 117.482048
-10.938444 6.769285 102.298126
-20.656689 -7.192984 85.758957
-16.447462 0.796887 102.149612
-16.208769 6.976913 136.393188
11.490880 8.063652 80.080910
10.961961 12.622299 90.809372
-19.527311 -2.324580 83.211906
4.823742 12.029830 138.906418
9.443569 -9.279900 103.215218
7.066897 9.160810 123.023476
16.058184 -6.617813 135.154449
2.786927 9.546822 155.730881
-16.568626 -7.149585 92.535912
16.441076 4.863941 94.497635
12.054631 9.649724 92.287346
17.834118 1.450108 98.265671
-7.222455 -8.854091 108.395515
6.486302 5.056818 120.460907
8.886670 -0.498488 147.019745
-12.644553 -8.167144 122.596046
14.268933 -9.480803 135.790665
9.933432 2.494470 116.501770
5.092645 8.599077 126.408936
15.409735 4.569286 137.485046
2.008317 8.252282 119.867279
-16.097610 7.483696 93.189278
-16.528971 -1.780384 97.996994
-11.855227 -6.371782 123.378403
7.898963 7.656754 150.901016
4.008133 9.530763 101.450012
-1.008357 -9.716924 87.741196
-3.838011 -10.209023 95.816963
-17.218843 5.604861 90.318375
17.656990 -6.926652 96.761246
21.065672 1.507211 82.451073
-4.797496 -11.102880 79.632118
11.126069 11.317072 87.036697
-2.851979 -12.405690 107.562180
-13.047622 -5.264385 129.893631
9.784618 -6.590852 139.374649
8.581196 12.176630 98.742744
13.932144 -9.717083 99.239571
8.152690 -9.508094 115.826515
-0.774260 11.253197 98.686096
7.119286 6.064026 119.091522
-6.965678 4.179533 118.344543
-7.091387 11.861595 138.792297
-11.586539 9.146177 102.444626
-17.281981 6.824318 78.009277
-11.806349 -8.704522 123.827141
3.290643 -10.928937 94.063126
5.720536 12.248178 136.066849
-12.679633 -8.970731 103.173805
11.756266 -1.492989 121.235321
20.216850 -5.714185 84.135941
-14.262480 7.720487 132.088089
-13.860005 -4.772698 137.956528
16.963028 -5.050249 90.325722
-5.009999 -12.216922 106.272263
-5.941333 -9.659125 92.280800
-12.719797 9.280516 93.323357
-16.316927 -7.601018 97.570320
-11.737755 8.031350 132.439667
22.138947 -3.324533 82.801804
6.371642 -10.464022 99.191635
-13.468151 10.402224 88.088486
12.333184 6.535477 129.219620
18.925884 -4.917368 92.423058
-11.872806 -12.358321 87.832863
3.809772 7.828952 124.864128
-9.744532 8.663817 106.203003
9.234403 3.898872 151.341446
15.461398 -2.143707 104.149872
16.625650 6.950248 79.569458
4.812942 7.905964 109.604584
14.586548 8.526979 97.365700
4.337101 -11.166224 139.580292
14.126680 1.276726 128.438629
12.490247 10.374268 94.794083
-10.565193 -1.393419 146.314926
-13.977676 0.054100 127.914497
-13.986110 1.512803 134.701111
15.668732 7.207141 81.145058
-9.024753 9.546324 86.019318
-8.314406 -11.323223 111.820511
14.988876 1.350102 140.029221
1.549906 -13.162586 107.318092
4.097821 -9.580282 81.176399
-8.204422 -9.508661 110.016228
-0.345081 13.524478 98.025383
-7.720137 -7.584443 138.209564
-19.824133 -1.800744 78.192421
6.066919 5.966002 114.967278
12.426771 -8.741254 103.677902
19.074430 4.587699 77.469246
-14.757661 -7.846506 99.306190
7.932084 9.729052 97.857536
12.181333 -4.157706 139.173111
6.427635 10.632030 128.404556
12.952381 -9.289990 77.866127
18.170507 -7.110183 81.002655
-2.674086 10.417839 101.217712
16.911062 2.464657 105.380981
-11.360909 8.146774 80.409813
9.932194 -6.154887 139.864304
10.167843 -3.474261 119.937683
9.250328 8.779871 80.949654
12.104950 -5.450596 139.365311
-12.917752 -4.887959 120.164169
-14.520426 2.571163 128.284470
-10.764304 -0.909827 120.749390
-8.213320 8.214993 82.831306
0.122816 6.298689 110.871246
18.569418 -5.893915 91.479721
-5.348160 -9.510419 79.680466
8.275242 4.996323 119.897285
-3.338137 -9.802745 97.688293
-9.339406 -8.709624 76.638664
11.287704 0.008307 147.632172
-8.764485 -14.584016 135.581497
13.190171 -5.169407 122.551643
-3.918992 11.425663 90.122246
-20.080315 0.491157 87.743889
17.082106 -9.557090 72.712959
0.453145 -12.648854 113.358368
-12.048594 1.438362 129.504822
11.980578 12.133855 87.171478
16.412285 -9.057828 80.273880
8.129593 4.862307 120.230049
12.579771 9.870893 135.748383
-17.698833 6.921886 81.364807
1.200645 11.919786 94.945053
-6.939805 -10.068802 99.879356
16.934818 1.183841 100.190254
12.422822 -7.532566 136.327576
16.168787 -6.018345 100.750526
-16.313028 9.471170 80.298820
-22.244707 1.779377 80.234810
-0.795819 -10.584471 102.167580
-18.964737 -2.358354 92.664902
-12.012664 2.599985 119.535492
13.906801 -3.602486 131.536987
-18.638947 -7.008533 91.369011
-12.367378 -3.886238 114.650452
7.041593 13.265262 138.845490
-4.950138 -10.077398 102.895767
-17.970304 6.062967 84.614510
8.393243 9.978508 85.871719
-2.057070 -9.668184 90.377609
-17.776941 -8.733476 80.919212
-16.565201 7.763396 88.832115
-14.489188 0.591097 129.552017
-15.277666 -7.666315 92.688660
-21.030329 0.737317 81.550743
-7.992545 15.098556 143.885178
11.805404 -5.880805 119.011749
-8.073549 7.012578 78.601883
13.095460 2.724734 107.161232
20.674358 -1.616911 80.879028
-12.816807 1.800846 147.780609
3.640871 5.815548 113.765930
13.343802 -1.439919 127.724289
13.280168 -9.277627 124.445877
-5.470002 11.267888 149.002289
-9.988672 -6.022446 143.329437
9.994401 4.274049 115.677597
-12.929332 -8.037477 122.398613
9.055624 -11.275189 140.090866
-6.736256 7.978946 123.633850
16.662312 -5.107692 100.836082
11.669172 -6.266555 139.420441
-8.231476 -10.193884 98.830750
4.046090 -10.224939 100.914276
14.041287 -9.594783 92.717216
-13.042577 -9.351438 83.400391
12.484689 -8.936021 105.682068
-1.183274 -14.497067 119.472443
9.691398 6.730412 123.479004
-19.690008 -8.573640 83.035820
-2.568776 8.986984 79.021339
17.468060 7.654977 79.912170
4.478390 7.723497 107.459969
9.829917 9.548911 80.732582
-0.725860 -8.397944 145.052429
-1.399183 -9.157619 80.795242
18.790089 5.300074 85.697739
-14.693983 3.918154 131.419952
11.467603 -9.496693 92.075729
-8.727858 10.124729 80.013123
16.247292 -7.158485 106.185417
11.890601 5.967819 108.127686
-17.024137 -3.259012 97.293617
16.051411 6.510776 94.844185
-19.446276 5.116570 83.255493
-14.796070 7.422776 107.000702
-20.019302 -8.067906 80.990547
-11.543509 5.958237 103.811089
19.625504 3.454387 84.640274
5.533410 11.024017 132.729813
12.529799 -11.242459 135.798798
18.775890 3.343952 92.628601
-12.308260 -4.243026 124.265816
9.061135 -10.200625 137.337692
-8.311610 8.981949 81.594627
2.401295 12.532350 142.886215
-16.212717 7.878736 87.209625
-19.347527 -1.943741 97.761650
-7.056871 -9.832438 138.836258
15.066586 -5.625946 130.351898
16.343796 -0.947100 97.683784
10.935279 10.987539 133.484756
5.424437 11.226422 103.786880
11.081621 5.317806 153.176041
14.720326 -9.130109 97.049805
-5.422832 -9.741363 88.651733
-6.311862 8.258173 106.129723
18.316185 -2.068927 91.339714
-2.379118 -11.773864 118.048737
-19.105444 -10.210208 78.284439
7.773798 -10.642331 117.531776
14.061784 -0.534145 109.449173
-19.572304 -7.622627 84.293373
13.881296 -5.291326 120.409859
-17.962961 -7.966974 91.467773
-14.297873 -1.182716 132.981537
-3.795609 -10.071744 100.070778
-17.194233 7.587114 76.956268
-15.768061 -9.921837 83.922943
-9.535450 2.645150 115.671249
7.899668 -8.684319 97.718002
-5.146004 -6.160009 75.220123
5.227080 7.358264 84.476204
-15.613793 8.526031 91.937805
-4.389018 13.468898 145.431259
3.986431 9.404396 149.272552
-6.921204 -11.796498 108.925690
4.846656 4.871862 114.300873
22.301777 -0.863325 80.711258
-7.289487 -7.711954 79.463837
-4.414707 7.775096 76.244011
6.504397 -11.131769 135.958786
21.708532 -3.161886 80.603287
16.321579 -9.123177 83.703148
-12.787125 -7.462446 101.491928
1.652559 11.963878 146.246368
6.724442 12.911709 92.920456
-6.639759 -10.179031 137.613525
-1.829707 -11.154658 116.415733
-14.103374 -5.391523 139.832123
11.569173 -8.534813 98.519051
21.204666 -2.206039 84.738045
-11.135977 -9.709388 99.654633
13.242933 -0.767575 113.849121
-11.640420 -9.796081 107.952881
4.337849 12.521847 90.537773
-9.448415 12.264661 140.044418
-1.702748 -10.797678 116.467560
-1.314738 6.606000 109.100937
-11.540287 9.837395 97.131912
-0.162157 13.344275 138.743942
13.206039 -3.839655 114.067009
2.409284 11.746429 100.665245
12.018588 11.099692 86.186981
-3.086305 13.365940 94.739616
-11.904209 3.492141 123.234482
17.035793 0.751062 98.760437
17.574198 -8.701076 85.790520
-14.836039 6.436488 89.961830
20.884787 -0.387744 79.523727
11.186874 -1.361528 115.889099
-15.866259 -10.052387 81.061928
-9.884065 -11.112396 128.367447
4.880890 -8.062139 84.571442
-5.458026 8.790632 106.782730
-4.438618 8.990893 128.303619
-13.366737 -2.631964 132.657288
12.838419 -8.484142 127.768181
11.577137 -12.440482 133.189529
14.713468 -3.392633 138.241440
12.551073 1.024259 147.369598
2.221003 12.748697 136.450623
-14.781404 -2.447113 137.239899
16.657509 8.250265 84.584839
-2.591406 6.523953 110.805550
8.997902 -11.412215 87.617470
9.159006 4.817886 118.338219
-7.152585 -10.836906 86.688591
-19.340370 3.199327 87.779350
-9.123667 6.056305 108.623772
9.891953 3.776132 121.325218
-14.687511 1.390121 139.953171
9.481329 -10.029500 121.653214
11.685328 -5.164486 119.236290
-13.291497 10.717145 98.389191
-3.164392 6.260949 112.963142
-2.846338 8.405365 125.182777
-9.691563 6.298869 105.969551
-16.705742 4.989732 102.967667
-14.402168 5.579363 132.818512
12.872766 -6.571539 130.478882
14.189180 -5.360718 123.223633
-11.234618 -11.889719 86.546356
-8.219987 5.219605 122.785164
-0.897530 9.019026 84.119171
0.244191 11.718196 99.552788
-2.423831 7.947269 77.082863
9.878469 -13.707709 134.120178
-1.698479 -11.775865 102.321480
-13.640358 -7.852265 128.908752
12.793325 -0.497957 110.008736
-13.059947 8.953773 84.639343
3.216353 11.679999 135.921188
14.665526 -0.661382 145.271378
13.240823 -10.462810 79.177025
-12.607037 -0.233881 146.630829
1.235387 -4.415571 145.375778
7.873626 4.781012 120.684448
11.040263 7.487931 128.024277
-20.349356 0.628656 86.073845
2.403636 9.535530 129.185898
-2.677891 -12.100303 138.739456
20.757973 0.882184 83.690918
14.118592 4.511400 130.114029
-4.297320 -10.402977 137.349014
-12.328344 10.042348 89.670990
-7.125700 13.056812 145.253036
-9.676134 -9.753205 114.989723
16.826530 7.573700 83.888184
19.469994 1.304515 80.976692
3.844882 12.392935 144.128128
17.591473 -4.963492 96.345222
0.191186 -10.935580 138.797775
