ply
format ascii 1.0
element vertex 2048
property float x
property float y
property float z
end_header
-18.046322 -4.152748 104.398628
16.321131 6.855281 91.545799
23.991877 6.258028 69.399780
-8.988496 -11.699544 75.447311
12.757095 -10.674776 69.324120
-1.761049 8.691916 77.338615
-11.471150 -3.258419 123.550880
-17.636339 8.943923 66.192703
18.007265 -9.958985 82.246803
-20.476357 -0.058755 94.394020
4.562770 11.931550 139.708847
-8.789169 -7.753959 101.395905
-13.633506 -4.107829 110.036255
-10.808044 -10.926121 66.800117
-6.717644 11.598741 132.652206
-2.555115 11.312349 99.222076
-2.002737 8.807652 84.520172
-3.128154 -13.184050 110.283401
-0.224445 -5.798079 143.395645
3.409459 7.456026 108.998016
12.039944 10.155454 98.874916
-14.257639 6.515072 99.983513
-9.395173 7.766303 81.589188
-10.733894 -1.537223 117.227448
-16.717272 -12.178475 68.667259
-23.045870 -1.259469 64.732445
3.779355 -8.841331 67.458000
-15.801823 -5.454252 135.004807
16.122896 -10.422596 70.895828
-7.918005 10.360656 130.433014
22.861525 4.488458 69.685555
2.006351 9.215372 84.196548
-2.702008 8.991235 127.290878
-10.254813 0.483926 114.109718
-9.273612 5.014005 119.913521
1.698660 6.655198 127.676620
4.183700 9.976712 87.389130
14.148594 0.026917 128.169739
19.603046 -1.726370 84.328918
-8.403139 -7.285101 141.715439
7.469404 -11.836893 119.296730
12.709054 -7.947600 82.536087
12.617697 -13.048326 66.962143
-4.931727 -9.171359 73.930656
0.895321 12.189130 69.282478
-13.445196 -10.416715 64.293404
6.714894 -8.660775 90.501228
-23.826361 2.106371 71.918404
1.547469 -12.693519 124.895874
-9.013759 7.068595 111.937073
-18.435709 -8.659293 83.400238
9.292458 -10.592608 83.491493
-5.634491 -14.055959 135.627182
17.574316 6.447787 92.317810
-19.719906 1.057509 96.111908
-14.587218 -7.317939 121.421532
5.179379 8.474509 67.749458
-8.820429 -5.526029 144.875732
-13.610971 -8.913416 112.915138
22.099590 -9.896629 67.271957
15.444250 5.913319 100.015900
-8.906458 -13.142899 69.464783
-10.481822 -8.594455 108.201904
-5.080913 -10.468209 71.734993
7.429550 -10.301032 88.169716
-12.578751 10.120489 133.941925
14.591393 -10.430809 131.633240
-2.283920 -13.691687 126.600212
22.524920 -4.149941 76.935593
20.980431 1.282181 67.661331
-16.793821 5.435673 82.966980
22.839235 -10.172278 70.915787
-9.785748 5.899805 123.550522
18.460417 4.226025 91.628471
8.039090 -9.040979 93.188400
5.716219 11.914026 141.059616
-10.606881 -12.277964 67.976013
2.671938 -9.373738 79.780884
1.520531 13.804368 67.968163
2.745408 10.339509 67.886147
-21.001879 8.238001 69.880959
-1.627556 -10.133411 86.661308
9.862192 -9.131156 108.443016
8.914046 8.302835 144.303711
-10.857908 8.766615 130.086060
7.673366 -11.671052 115.731842
-16.062584 -2.698091 97.899788
5.240576 -8.951607 70.037582
13.934353 11.032965 69.615143
-11.713827 8.478980 101.662659
-10.473953 9.064404 104.272812
-14.235473 -3.363256 112.902870
14.111263 -4.584995 125.005737
3.755909 13.247242 93.941338
-7.063683 9.751829 134.287903
-1.558384 13.276799 140.701096
-9.339483 9.020294 66.994514
4.741434 -5.635429 150.785278
9.248290 -12.774265 104.680725
9.176975 -5.612487 115.175346
-13.722702 6.976437 102.166763
2.038911 -6.629918 142.953171
13.643584 -1.738569 119.953171
-9.134487 -9.571707 73.451622
-9.434230 -11.400221 69.842216
-11.266312 -7.604209 111.572990
-9.111593 -11.771011 120.063332
6.003585 12.240944 130.827179
7.555532 -5.437279 143.494812
-19.061451 -10.171000 65.301514
-27.389479 2.344509 77.160942
-8.470924 9.284929 65.710068
16.053123 -4.544492 113.019997
-26.782738 0.087170 68.479721
-15.311519 -6.883233 136.298950
13.151281 -12.905985 71.769501
20.712999 -2.643075 69.898613
-6.678354 3.869513 117.971359
10.260926 9.771895 86.977562
17.557316 6.925508 76.411705
-4.899392 -11.145954 74.237320
22.576542 -1.960057 79.185150
9.513405 -11.048995 69.943039
11.554547 -9.172094 128.608505
-9.354931 10.013370 85.481575
-22.727463 2.510718 72.110626
3.227985 -11.441634 140.670242
15.376708 -0.170699 103.730698
17.196428 -9.200212 65.745850
-22.573385 8.282278 70.817055
1.171189 -9.043956 144.738388
11.564913 2.947196 115.863327
21.307465 -4.410348 72.390579
-2.414144 -7.269633 69.477440
-0.245326 -10.473426 83.099693
11.821821 3.850269 114.863373
10.782392 6.249417 68.532478
6.347363 13.043684 140.821655
23.735811 8.645752 69.940468
7.827369 8.332393 68.847878
5.284763 12.053617 136.808029
13.110406 1.800721 123.867111
-20.884653 -6.742577 74.240616
-9.569603 9.290087 129.931778
7.485694 -10.372792 80.016533
-2.286354 7.727969 128.168137
-5.505255 7.248607 124.598511
-19.141376 -7.637694 65.791107
2.513645 14.176410 141.954803
-13.600342 -8.789626 106.545914
-2.429447 10.417320 69.846413
-5.637866 10.085258 132.891403
-14.151871 -9.311551 137.150558
9.313244 -9.348487 93.362923
-1.512527 10.742620 126.435982
-15.719559 8.580505 64.770187
9.597853 -8.124706 96.085304
-26.135225 4.886474 68.556534
6.094457 -8.584683 69.110313
15.783001 2.735835 105.982796
11.563185 -6.980255 140.583252
-15.675603 8.348437 81.209145
-6.014930 7.909708 155.423660
-2.433954 -8.941668 91.560791
12.870502 7.518320 107.748642
-1.611743 -12.914268 129.990158
-3.785759 -8.498748 137.168808
7.979054 10.234534 101.479393
5.199090 7.440558 65.447395
13.696976 -13.694064 77.150894
0.144923 -6.303790 74.258850
-15.368164 9.303898 68.966202
-2.445229 -9.643750 85.094429
-17.481911 5.823296 90.665024
5.933784 8.275487 72.575905
-17.808750 5.970072 88.516312
-15.673683 4.785723 100.860558
10.267667 -10.250972 88.178528
12.826894 -2.957093 122.794312
-6.108926 7.986239 104.292412
-7.219072 -10.626235 137.420425
6.154362 8.178861 62.887611
4.144431 9.876803 63.695164
-14.782207 -5.994620 100.428345
13.196924 -8.969964 107.434517
11.338483 9.510569 102.210342
-3.735806 -11.208230 134.738312
-17.260561 -6.602921 132.823639
14.499675 8.454411 62.000679
21.405333 7.592344 75.086121
-14.649767 -2.744979 113.265945
-10.412935 12.957362 139.792984
2.154726 11.573436 91.333046
-12.373410 -8.815777 139.604767
-3.106760 12.581120 64.374931
-6.150694 8.538802 122.003922
1.394281 -9.016899 79.582260
-11.342698 7.497004 148.968506
-2.145237 -10.333081 141.987869
6.281818 12.812931 142.674881
20.640896 -1.114650 73.137444
11.662170 9.246096 128.974686
10.787156 9.152566 84.375877
-4.360968 -12.528444 75.448891
14.287193 8.251019 96.593803
7.704331 9.825428 85.743790
7.287958 10.099915 83.628822
18.553831 -4.146782 91.697372
9.872713 -14.474879 134.906952
-19.867537 -10.778155 68.050156
21.290913 -6.794141 80.397621
14.484972 -6.298550 111.187965
12.385612 -4.840059 122.515518
2.605379 -9.645097 76.745644
20.580139 1.886595 84.551804
-11.440721 6.537957 129.732727
-6.751674 10.916780 100.767181
-20.073933 5.106031 80.273010
7.550591 6.453909 128.977585
11.177811 9.359471 132.127441
-2.628185 10.401999 149.760544
14.894426 8.060554 80.898415
22.824108 -11.125989 70.506172
11.723058 -10.504210 101.226067
5.997299 -10.821280 89.933990
23.609236 0.816630 73.736420
3.511015 6.371795 62.507072
-21.598209 -3.237776 88.069252
-3.327300 10.556643 70.605019
15.366710 -8.701782 79.436867
-7.292796 12.222278 134.317902
-9.097649 -9.010055 107.272308
3.264078 10.962181 128.767960
3.574946 -7.624280 69.631905
-9.396441 -12.148183 90.330719
17.733501 -9.391363 67.531929
-11.657350 10.315826 97.520844
7.760421 -2.306938 147.911102
-2.480142 9.193012 128.670776
-11.647753 -9.549932 92.615349
-4.409324 11.063196 100.659142
-15.678107 -9.289689 74.274162
-12.087779 6.408663 104.457047
-10.783656 -12.091834 133.537659
10.134130 9.575068 63.737034
-13.697029 -11.929435 64.747520
23.950680 5.394735 67.208374
-4.446425 4.453145 111.596199
-19.393759 0.238657 89.110153
-7.183492 -4.763648 142.987808
7.191303 -9.185110 74.638901
-13.208782 -11.325668 82.148949
-16.111910 -8.295060 130.678726
-13.953337 -9.095263 103.387230
-2.053854 -8.944708 93.354507
-0.603914 -7.604691 73.980499
-11.542352 6.838872 63.631035
0.873066 -14.065884 132.067886
5.797674 7.536805 115.747757
-11.644408 -10.932060 80.731956
-5.033882 10.494565 64.910965
5.928219 9.207108 105.704689
28.156178 -5.895500 63.514637
0.488211 -10.356740 86.194389
-13.129463 -7.785880 108.787865
-26.112431 3.747015 73.584526
5.377592 7.372716 113.814453
28.078190 -4.624854 63.749352
-20.330645 -9.546053 72.796036
-17.746159 2.954204 85.980858
-18.708960 10.214654 79.047592
-22.116079 3.570975 78.132629
-17.324814 8.220679 73.129967
8.832983 11.687561 95.004349
3.035057 -9.726345 99.364998
-8.568245 -4.908033 145.744034
-25.937389 4.941723 71.705620
-12.589758 -8.801197 82.495674
-7.310399 7.920962 113.990280
2.943257 8.273838 69.051651
0.015029 -10.265172 80.547409
-7.536939 12.684003 143.289825
-5.069875 -11.404797 100.651596
-4.673289 -12.098807 118.603897
3.916282 -10.292973 89.870674
-18.745512 8.893039 84.152748
-8.498251 1.971771 151.290909
2.361472 -16.192698 132.006943
10.535627 -10.308481 72.041069
7.341983 6.252982 107.202652
-15.973778 -0.750031 105.197731
-18.349041 7.595204 74.635384
9.069771 7.790239 131.756363
13.138303 7.170441 86.891258
-2.446092 -12.035292 106.798584
-1.566441 6.424695 79.078964
-8.021672 -13.273980 133.237289
10.589039 -13.402608 66.689987
9.616392 12.082054 136.934799
-18.144520 -6.983366 89.353134
23.456272 4.227344 64.937927
-13.468877 9.604105 73.684769
18.801582 0.426729 95.411774
11.277432 9.447971 101.618088
5.752297 7.153116 152.822800
-16.414564 -9.952003 65.366447
1.276088 12.034698 102.065491
-4.834504 11.511081 87.658966
-12.916255 -7.637522 119.062996
19.298845 5.107672 83.508934
3.575012 -12.042002 109.744179
8.629058 8.899331 80.254860
3.536085 7.287477 111.196228
-6.275905 9.476367 101.504623
14.121630 -12.072762 77.769173
-0.597417 -5.547450 148.626465
-13.127412 -6.944682 128.828354
9.981763 2.056187 120.178268
11.762845 -10.674744 65.582825
-12.626194 -10.225003 104.387489
10.880134 12.390562 138.154129
-6.445510 7.627728 78.699074
2.319251 -10.474951 84.829597
-15.934418 -5.021665 109.321762
-15.391402 -1.457950 124.571678
2.139970 -13.988220 133.471832
14.233322 7.183945 98.915779
-15.890282 -9.831451 97.126160
13.994836 -13.091459 131.722641
-1.560972 -10.912267 77.847969
-11.396189 10.432085 96.555672
5.756390 -13.655802 132.272995
8.594050 -10.059196 118.511925
5.846288 -10.244144 91.394241
2.278539 6.913067 121.944145
4.167805 -8.980380 92.615639
12.198055 -10.475862 131.888336
-23.713812 -5.424132 71.049690
-21.760542 2.221572 67.805054
-24.600674 -1.329427 68.673180
-11.648346 2.728823 110.908165
13.515883 -2.771872 127.931000
-9.188731 -1.215477 145.864655
1.873000 8.537068 127.303894
7.769202 9.565306 70.682770
-13.521706 3.823949 108.294205
-9.790610 -10.346501 140.247253
8.086960 -12.659021 72.918129
8.886333 -10.326369 121.827293
5.305782 -1.528600 60.719769
15.883845 -10.160956 81.704376
17.502291 -5.046508 81.711533
-8.300808 -13.716639 130.623993
-21.044167 -0.616828 81.940842
-18.326632 -11.846870 67.054092
-12.515049 1.337551 128.353210
21.067467 -10.981532 74.158730
-9.679968 6.946296 107.281929
-11.156730 10.732121 84.873695
1.833770 6.859182 64.993797
-4.172566 -14.019784 64.859413
3.590739 11.659041 130.169342
1.236267 -10.991946 134.324951
24.395422 3.650324 65.320709
3.030786 11.976973 129.666794
-19.966888 0.594722 84.010132
4.616611 -9.685264 89.498116
-5.525135 7.917861 150.617859
6.900586 9.011218 134.660660
5.460717 -9.224671 62.615208
14.340122 3.560158 101.313042
-11.213894 11.664690 87.847511
-17.775421 -0.899984 94.201637
-21.388771 -0.571858 83.188553
-7.488760 -10.748990 118.703743
1.644636 -8.528742 97.182098
3.141593 -13.686963 119.337654
12.260817 2.228772 112.288612
-17.921656 8.672967 81.042564
1.199802 -6.592605 63.447971
7.349913 6.330111 114.451057
0.480677 -6.769063 72.245399
8.783021 -0.402050 149.829285
3.149688 8.237636 66.283279
1.206838 -5.197403 67.139908
-2.552115 -12.473293 134.882446
13.448683 -2.732105 118.331635
-3.813528 -10.443745 66.300125
-16.615826 5.474539 84.465065
-18.242195 -4.107243 92.886520
-19.392384 -9.552073 62.203754
3.730412 -12.272819 138.384567
9.497029 10.001165 74.532219
9.015438 -11.598652 124.323242
-1.373627 5.432103 111.344139
19.348036 -10.319930 76.105042
5.812201 8.093545 109.076195
-0.573721 5.742346 114.307137
-7.470581 12.784198 136.908417
17.738676 -10.058293 76.928139
-0.589738 -6.668755 68.926117
15.623447 -8.099040 94.721741
14.427208 -11.262046 76.370483
16.177813 -1.699772 132.533295
7.404244 -11.331779 124.840309
-2.936056 -11.369127 63.077755
6.090540 10.815915 149.382050
5.841412 9.107759 84.706696
-8.671197 -10.415825 90.763405
8.023026 8.724623 73.402138
3.021965 10.233250 130.143692
-27.093193 0.010349 69.240906
3.330233 -13.571360 114.201401
10.037745 -12.120736 136.629288
-7.367529 12.548306 149.356079
-19.473780 -7.894391 73.358109
4.689793 12.718804 138.458496
12.117683 8.108266 64.900787
-13.449896 0.156350 118.133194
2.888537 -12.904222 80.867813
-1.059058 -9.459675 81.177139
-4.779237 -9.464126 116.476936
-7.377726 13.227445 95.011086
-17.497581 4.932472 100.937057
1.739117 8.742430 126.460747
16.355465 7.812844 91.369888
-10.442074 -7.575923 98.396446
-8.446006 -12.222199 126.946777
-20.933258 7.748952 65.143631
-12.742606 7.180967 106.580070
7.387417 9.512118 75.105942
12.095381 -4.372273 123.792267
10.528408 3.429041 116.668701
-7.975944 -10.274855 98.137825
0.197608 10.612375 119.645683
-5.152946 10.839105 140.169815
5.160476 13.447628 95.981010
12.163485 0.243519 113.694115
-14.640024 3.465369 133.943619
-2.250350 -10.879989 136.364288
-4.533570 12.753980 72.200874
-8.037389 -10.150739 122.619759
0.506048 -7.710429 72.359665
-9.070648 7.694643 65.380539
3.127278 -12.737599 131.960419
7.959636 -11.055750 64.832275
2.849565 -12.762410 126.842918
7.455089 13.619808 96.500008
-6.538255 -3.672225 145.103745
5.421280 -8.488874 88.575958
7.354083 -4.638107 142.385269
-3.547778 11.595751 146.167694
-1.091464 11.797843 101.492722
-21.273594 2.298861 70.994446
-23.801653 5.700530 76.268776
-14.615966 -7.186146 130.457413
2.350406 8.173162 65.240410
4.757522 -12.398182 122.707672
-1.903975 9.858865 70.143425
0.299714 12.600185 148.903595
-17.701593 10.713964 75.988441
4.121745 -9.247504 79.713989
13.681948 6.627874 77.267784
10.992093 6.018414 106.726112
9.600418 12.566850 95.225304
-12.193481 -8.753629 137.896378
4.725349 7.224790 112.564346
-18.331316 -2.381664 94.965866
21.547409 -2.108830 74.812256
-13.072021 8.655542 70.565620
22.260880 -2.325291 73.455421
-8.062483 -11.695523 136.818451
9.716751 -9.500124 114.282661
18.508549 -6.624704 90.981125
-24.393818 6.784984 65.377678
-2.034671 -11.288861 108.889778
-10.521015 -13.215848 132.529510
-17.133467 -0.803326 104.260208
-3.837602 -9.176400 76.827126
13.598532 4.295051 112.776871
5.965840 -10.290215 97.051468
-11.557080 -7.244819 109.400650
-12.719890 -10.385231 75.100708
-23.958458 -1.449541 78.193649
19.707035 3.626263 83.608246
-12.867123 -9.837135 130.761551
-9.637650 11.959223 148.990677
-9.256280 -11.003440 89.315529
-13.755199 -2.550946 110.281586
12.940765 -4.643863 127.529945
-15.900451 10.384540 83.182068
12.407737 -3.011451 130.050537
-3.242150 8.745938 123.641304
19.261044 8.793898 68.847832
23.880131 -5.160080 67.658478
-4.231803 9.562697 129.423782
-7.642399 -2.339156 147.120895
0.548274 -14.030213 134.365112
8.773465 -10.175088 104.826218
17.023458 -9.494741 86.847397
16.561958 -3.836493 99.316124
18.001690 -9.725524 89.662231
10.378010 -6.223843 118.752174
-21.739040 4.059579 76.499481
-25.046371 3.736604 72.957687
-9.892812 12.154279 92.260757
-12.043003 -11.364730 76.851357
21.220009 -10.393515 70.333405
17.265509 4.591609 93.944748
-1.884373 -7.657248 68.108788
-22.184412 -4.714668 71.264771
3.819436 8.265671 81.792419
8.179609 0.291155 149.547455
-5.181500 -11.024997 108.783829
-20.577774 -5.553896 86.716377
6.657392 -12.472556 114.635452
6.174956 11.140131 98.624146
-14.076219 -2.227762 130.411957
4.410151 -12.415955 113.217903
-13.868661 -0.243723 115.484528
-18.493975 7.925959 78.768417
-16.850391 2.393173 101.733734
-10.607382 5.535396 127.481560
-4.902390 -6.706482 142.610046
18.559240 -7.986560 93.440384
-9.279154 -8.911193 100.890251
-14.015608 7.303897 151.804871
-4.465108 6.627630 113.900406
13.150687 -11.754784 85.050781
-0.972882 -12.870728 109.265091
-16.873783 -7.549055 101.448669
-1.200556 10.442081 141.396530
11.226996 -9.871531 123.948059
1.930959 -15.333549 127.463013
13.293110 -11.943354 77.661201
5.364245 -7.519670 143.388214
0.333219 10.292188 153.776260
21.236965 -2.195157 81.542145
3.769352 -11.562475 124.999962
-1.647860 -10.693356 111.208664
-3.874745 8.924862 83.693512
-19.179014 4.333679 72.764816
23.850166 0.538273 64.279114
20.269115 1.388815 77.665184
-5.944749 -12.568795 68.946480
-26.840963 1.648475 64.658173
-10.946391 11.092637 87.221466
13.442395 -0.691228 111.401001
12.582323 1.206907 125.881508
11.153629 -9.111493 106.129074
-1.697791 10.903530 79.687477
-11.736778 12.572701 90.063492
-21.555876 -1.409621 67.829300
9.561769 -11.236740 115.155960
-19.353685 -0.436211 88.819427
-0.195551 10.164834 132.176941
-13.185609 5.512908 129.241562
14.705985 7.383372 85.819687
5.938829 -7.993163 63.188671
-1.150744 6.226329 109.795570
8.364172 8.510494 126.767441
-12.152390 -7.782124 118.963638
-4.539929 -11.465314 72.905579
18.985348 7.042885 79.344734
13.327809 -0.672496 122.462959
-18.196390 -1.258103 88.083527
-8.832271 -14.422951 76.518959
21.719200 -1.448586 64.920914
-12.145874 10.237615 93.550407
-11.395513 -9.740685 97.179321
2.560797 -13.063341 114.146980
21.222221 -1.851776 74.851746
11.090042 -12.166773 75.006020
-12.807854 7.124238 134.055420
12.393969 -9.406776 124.399567
-19.306486 -5.157215 89.457130
0.777111 8.802240 69.007568
-7.219571 10.750919 86.535324
-16.838980 1.333603 101.956619
-19.557812 2.807047 86.444603
-9.864397 -13.055412 127.634010
9.629468 -9.002810 115.160011
-4.512681 13.044963 98.763618
-7.354051 8.512943 103.147774
-0.369632 12.222886 139.661392
-5.502001 8.020783 85.214645
-20.984194 4.862444 76.421997
7.407235 5.256879 108.266594
-12.280560 6.197665 97.982063
3.865592 7.917334 108.796890
10.449476 10.276891 68.148895
-4.022815 7.512372 126.524330
-10.224947 -11.871009 68.986420
0.278536 -8.100621 72.195168
7.671466 8.318262 116.134171
-11.928875 -6.362720 118.140297
-17.082943 -9.940853 61.201324
-17.417166 2.274726 96.060394
1.051457 -6.899906 146.383102
4.295890 11.284462 90.029121
-5.476587 -13.134975 70.015671
19.875072 7.007293 72.148270
-20.233456 8.233558 67.961639
-8.156339 -14.620028 63.992023
-9.554006 -11.414402 125.815666
13.595162 1.986225 108.618279
-10.175967 12.975279 90.172905
17.666740 -0.245194 102.338951
-4.001235 10.098607 104.278847
5.516926 -13.185302 63.879997
0.161848 -10.342696 93.664772
-12.443292 -8.970457 89.345375
17.699039 4.578413 89.366707
-32.649307 1.794780 67.607986
-4.456866 -8.197497 93.294884
16.002014 2.238654 130.219925
-3.829473 7.387732 108.855171
-14.038593 -8.559316 110.566628
-17.869740 5.063224 86.411957
-1.488027 11.181440 69.327591
-10.112477 -8.728905 94.585114
-4.419718 10.347970 72.573975
-11.904314 0.426390 129.157181
-0.168963 -9.841853 137.532181
3.915745 -8.999498 66.219246
-13.717875 11.526534 64.884399
16.675039 6.519289 81.809067
-14.234974 8.082154 130.813385
-8.431934 -9.632493 67.775864
-6.561913 -9.475083 71.237930
-13.433101 10.344502 93.785912
12.623959 10.637547 77.941803
-14.821815 10.110730 141.739899
-3.563596 -10.054276 79.956924
5.581831 10.189821 81.963707
-3.874340 10.283289 103.573433
0.883427 10.045156 150.421661
-12.886880 9.096112 134.363098
-13.026011 11.312218 96.223457
-4.981099 12.877547 133.270767
-4.582899 9.592752 69.884048
2.872054 12.577702 140.757050
-17.288376 2.078633 99.028473
-11.972581 3.706357 127.722923
-7.265142 -12.535972 88.808205
-7.993386 12.274972 93.625404
13.654500 -9.568469 91.249786
4.736869 -12.264561 124.284035
-14.119658 4.302469 131.354782
21.049711 -3.303554 79.313011
-23.292551 2.095940 73.533501
-13.581106 -5.106873 125.333534
-13.663053 1.083520 124.392311
-20.727909 -3.274094 91.659500
21.804106 -6.876825 76.600121
-3.330822 11.925951 148.204132
4.855999 -6.189067 145.464157
-11.097258 0.827865 116.213036
6.503063 9.609709 68.516235
5.538239 -11.316081 109.540405
-7.501366 10.032345 98.405731
21.327297 -2.662676 75.604172
-12.550484 -2.657917 108.962196
-5.507671 -12.308121 107.756027
6.549553 -9.970668 74.069969
14.369396 -4.021174 114.038994
2.130428 -11.696152 86.427185
6.616577 8.476871 63.592457
22.539459 -3.911966 68.769623
-20.560896 -5.455237 84.481400
16.403896 7.193274 90.573547
13.768528 -7.728317 127.248123
-5.400806 -10.769770 103.341377
-23.239697 -7.681113 72.385490
-1.551118 9.141457 107.493782
-11.677606 9.062508 93.498154
11.531292 -13.358938 68.870117
13.708618 -8.130701 97.080170
-19.945440 5.440299 74.246758
13.030109 8.206949 133.138260
22.504683 -7.866823 64.154213
-13.224702 0.795120 119.502258
-12.603680 -7.214132 136.890472
-11.081296 8.661198 146.406860
14.766966 -8.830779 131.657639
10.401876 -8.533395 113.053474
20.130507 0.991246 87.281624
-13.646333 0.848878 112.647530
8.853632 6.387752 114.488968
2.803864 9.231101 129.219894
-12.352219 -0.578399 116.593544
-15.388936 -3.754606 105.035721
9.766644 -10.404827 80.400566
17.300177 -7.929973 79.185509
-7.910056 4.789174 152.625610
-15.510039 12.759221 60.293129
0.508957 -13.094888 105.228241
-11.857262 -0.050726 116.291412
-17.922577 2.600691 94.416962
-11.982587 4.767682 110.216789
-10.687133 10.234908 89.277168
-3.929775 -10.699384 90.678452
-14.106642 11.448931 65.287445
10.484917 -8.239088 114.723137
-17.142239 11.455811 72.207275
-11.789618 -7.707968 138.735626
-18.905270 5.505737 79.717651
-4.034461 -12.327420 119.372818
14.561920 1.875389 113.257545
19.149620 -6.698133 81.756371
-8.351514 10.952727 131.443924
14.617816 -7.414243 94.906891
15.324812 7.149336 75.067436
-1.829436 -12.073546 118.171654
12.096539 6.192335 107.576141
-11.417638 -11.221518 130.360535
11.819952 9.770271 77.560051
4.245684 -9.366282 75.024323
5.555752 -7.450604 69.706551
-2.957297 10.247530 85.100502
-4.760231 11.293906 149.863327
-21.176350 7.378021 69.086792
18.641378 -9.444002 78.843895
-12.028839 -8.349835 112.009415
-28.650522 -0.906417 72.682610
25.262678 -10.351509 64.251907
5.360590 -5.011300 144.689835
-14.799873 2.296386 130.253647
-0.759876 -9.921218 77.674713
10.526238 7.419519 64.644852
2.004587 5.918017 109.291389
-13.343874 -7.997192 112.559456
17.706522 -10.132295 73.415878
-11.357225 13.106983 70.068535
9.661695 4.831780 120.431976
13.841343 0.547942 147.375870
19.637201 -10.235669 62.253536
-4.988104 7.850684 130.813278
14.025760 5.511942 131.088654
13.217553 -1.722784 112.387360
6.409642 -2.425285 143.010330
-6.325105 -9.281781 70.816010
-23.493601 2.120967 67.857552
8.937951 -11.446035 128.395935
11.384184 10.027368 78.259666
-0.799531 -10.502342 139.470276
-14.726560 -7.878042 96.152061
4.493541 11.302096 96.698929
-11.332799 10.472203 87.643684
2.469281 9.530667 60.820747
11.724440 9.776178 66.059227
13.579341 8.319890 62.610947
22.452736 -0.990332 68.169075
20.527519 5.039806 65.337814
21.295362 1.747259 64.844269
9.465292 -12.989187 67.300636
-15.314621 3.558696 99.939423
0.782854 12.679939 101.324898
8.073497 9.190388 76.360138
-10.044322 -13.279980 68.300133
-13.090403 -5.451515 122.225380
19.386307 -2.425560 72.675247
-8.348117 8.015524 63.942608
-20.568398 -5.491667 64.820869
-16.833176 -6.993722 85.830879
-0.100071 13.036755 95.255356
3.865862 -11.921635 113.245323
5.391427 -10.685010 116.104286
-8.283531 7.514946 71.381973
-19.571960 -6.212953 66.239502
-17.636623 3.807343 94.450233
7.146890 -10.376353 78.094353
8.659712 10.268209 103.008469
17.823664 -10.488980 82.487511
-6.654604 6.105846 123.270828
-6.681159 10.671550 148.170395
-14.222833 -1.632842 111.470940
1.122285 7.674453 81.336143
-9.772106 12.035347 141.764450
-13.706374 3.430322 103.472618
-19.882370 -7.722219 66.870705
22.209929 7.416205 61.880825
17.068184 -8.576550 84.957703
11.000319 -13.489457 130.048187
-21.612513 -0.238612 80.732765
1.153594 10.010241 115.851784
-15.171098 0.398540 103.557663
5.093287 -12.849044 133.513306
11.815603 -9.523132 98.378357
21.673079 8.149185 63.175137
9.898333 -13.600722 64.511162
6.916375 6.951955 111.345123
12.309137 -6.314811 112.332443
-12.679439 -10.427732 118.130096
11.606613 -11.485335 78.379433
9.516246 9.007791 77.646263
15.540882 9.440796 93.069000
-2.389059 -10.843015 85.877663
-3.643451 -10.600818 92.016365
-7.116294 10.397888 134.754440
-10.894605 -9.044738 105.580894
-3.164458 10.370902 64.635612
-4.139220 10.385395 146.539719
20.262791 6.866434 84.628525
17.161152 -9.876143 76.163429
-4.744937 5.352032 109.688805
2.156389 11.165170 86.767715
2.449413 -12.867717 108.658371
19.251108 -9.563329 70.166222
13.446353 -8.871855 86.670227
-10.092799 3.923688 121.659393
-7.683529 -8.737157 90.553101
-5.687323 -10.094893 66.131485
18.476152 2.280802 91.700928
-10.984818 -11.192257 137.334213
-1.209680 12.848150 138.798904
14.693301 8.517157 83.568810
4.123908 -12.582938 101.238518
-6.636212 -11.044159 91.721245
-17.034052 -1.321829 103.285408
22.186007 6.870197 70.230377
12.843933 8.641932 101.639702
10.061019 -9.324872 102.016251
-29.427816 3.326852 71.371552
13.477324 -10.067048 96.456238
6.625597 -11.289911 88.831902
24.048632 4.454942 64.815140
-7.254223 -7.939476 99.182419
-7.639808 -11.718132 78.044365
11.686387 7.985518 99.232193
-0.479657 -8.981064 79.930397
16.637087 -1.895339 99.523949
-14.346954 -3.873427 124.530182
-13.839874 1.478397 125.569427
-18.601940 3.390584 77.408485
14.215105 -12.948699 72.156860
20.233383 0.209662 82.937050
-0.248532 -10.030712 77.147072
-18.982588 -8.474474 86.674736
-17.373600 -1.569452 99.177841
12.485419 -8.262161 97.173172
-10.343106 -9.198745 139.380753
-20.398825 -0.256828 91.347267
8.187326 -10.333467 116.189178
-23.752522 5.457657 77.092758
6.417372 -5.506003 143.990601
22.964834 -6.845779 72.874191
-12.766658 -10.883778 101.438225
-15.037748 1.864316 103.600136
-12.292169 -2.148847 123.616783
16.785471 -9.411132 89.986160
-15.697888 -8.229207 85.307205
10.058610 -12.908981 62.340328
13.259385 5.145697 105.711487
-3.038177 7.275550 155.085480
0.680467 -6.595228 68.912651
6.328781 -9.543046 107.775864
-17.091234 -8.056874 80.361168
-8.940304 3.943074 113.427780
2.640581 11.129678 144.066299
6.298948 8.200883 65.721626
13.344930 -9.388057 104.033005
8.403840 -8.431669 141.668518
-15.589762 -5.620235 101.792862
-3.740182 -14.590840 131.437378
-17.383663 -12.073502 64.655182
-10.347343 9.503131 79.689621
0.402722 -14.477236 122.919632
19.691639 5.922472 74.022507
-8.529039 8.757448 67.830566
-19.643747 7.917221 77.626099
20.140707 2.757545 85.768196
10.716731 9.452619 102.588188
-21.666048 -4.420816 65.623955
7.458067 -6.232138 146.168121
-20.329306 6.280119 76.622459
9.714834 6.818800 108.302971
-4.376745 -9.612847 93.871063
3.343758 -5.766005 65.037247
-0.089623 -10.039492 117.026382
-29.389673 0.232659 63.485962
-0.005803 -11.021101 138.453156
-4.553537 8.103597 67.171516
2.409159 13.332899 95.658218
4.351209 9.816631 122.458923
-22.106821 -3.201163 73.414108
11.019650 10.825050 102.387802
14.080256 7.271213 80.640358
2.357848 8.589358 83.039169
22.813589 -5.786105 77.517891
5.829525 -13.443448 127.443192
-13.105495 6.680799 99.628860
11.817555 3.792485 128.244934
-4.470683 -9.580215 96.936165
4.134323 12.408818 146.739212
2.781893 -12.994360 102.814911
7.072614 -8.086609 141.076859
12.500356 -9.874916 71.570900
1.841793 -8.757668 145.817368
19.579937 -6.761422 84.401451
14.618765 -4.747254 129.758987
-9.345980 -11.665832 107.315628
20.524036 -5.952770 86.179092
-5.224175 11.817521 97.796524
14.237911 -7.477870 122.278931
14.551403 -9.287508 79.519829
-16.733393 7.883035 79.980576
-1.910081 -14.256626 131.997101
3.135692 -10.114778 117.930420
-17.432783 -4.566624 93.016312
7.690624 8.912201 128.137726
-18.987934 -10.484364 83.801239
1.057040 -11.228344 123.409477
-10.190849 -11.113578 113.466072
12.544293 2.468934 110.969048
0.395649 -11.747744 80.837852
-9.179426 10.104994 99.744728
-4.221521 -13.237002 129.078201
-3.580376 11.332644 99.981529
-3.621779 11.891915 133.500015
-8.290195 -11.814999 117.008881
-6.151449 -7.071680 142.876434
-22.766832 -3.271148 81.869942
11.259810 -6.517739 112.927513
18.375486 -8.107012 83.571793
-6.673147 12.281659 94.716423
-4.561272 -13.712438 64.615265
-0.566021 8.594083 105.945465
-15.267902 -1.673045 114.669800
4.621915 9.648822 82.558296
-16.777824 10.302943 82.788277
2.484428 -14.000206 134.571777
-19.945236 -1.928105 82.816315
23.123871 -7.067066 67.847870
16.233809 -5.174342 98.857071
0.650756 -11.323234 83.700401
-26.146587 3.859818 65.451149
14.155930 -10.951789 72.455452
-9.094390 -11.706245 119.483688
-2.151459 12.383230 96.525238
16.207674 2.351258 129.742111
-4.245830 7.062785 79.575142
-4.884307 -15.446489 62.469730
-4.385001 -10.291370 88.444855
-17.185631 -12.457133 75.343483
-2.437337 -11.281424 132.326233
8.449198 -9.268021 122.044762
2.164514 -12.137948 117.506973
-4.167624 13.086373 91.914589
-11.830921 -8.833070 64.727394
10.590187 -16.383350 62.751221
24.387911 4.443220 73.262054
8.334507 -10.880890 77.188820
3.037596 9.437156 82.491325
-2.773885 13.923254 141.011871
-25.875618 3.242723 66.988480
-17.433746 -0.020546 100.678535
13.285048 -2.565868 127.610611
-1.764110 9.874965 78.052254
8.697257 10.398188 133.308258
16.108366 -10.858378 87.062202
-9.901143 3.433256 114.963768
-0.802697 -12.867914 134.328644
-14.011705 10.886845 77.476051
-5.068780 -10.524753 89.996193
21.516592 -11.099848 71.108704
10.345603 -10.511054 84.598412
1.279933 12.011207 148.236496
15.275109 1.110328 103.800095
-0.435722 10.566868 99.653610
15.331906 -7.498785 131.202667
-17.325769 6.238498 85.119171
13.128785 -9.068723 124.678406
-13.290859 8.839816 75.518829
2.008933 6.413878 118.561768
-11.093760 10.860290 135.822372
5.878317 10.320419 105.695229
1.261340 -5.944271 69.791458
-1.850580 -13.222702 121.652565
7.837675 -13.378426 131.503113
13.547739 -12.314907 131.974274
1.917441 -9.792765 131.907730
19.499504 2.342455 64.418945
24.475052 -9.114079 67.764664
-17.429726 -5.789872 97.914749
4.299803 9.132826 64.375763
1.551453 8.888992 105.542824
23.062531 3.948502 72.396210
10.106911 -11.847043 63.843826
-8.022347 5.873088 120.096359
-20.527121 6.565889 88.362892
-19.132542 -7.174469 69.219589
-16.353085 -10.064751 67.482834
22.759640 3.207240 78.021019
-10.937860 4.192855 122.890427
22.613216 2.047432 67.431328
-5.931044 -11.005301 110.891289
8.350399 -11.036104 69.006783
10.330819 9.979052 141.700470
4.859949 -7.466960 73.071915
-8.773848 -11.026871 121.771965
-22.201456 -2.110249 65.961784
-18.284636 3.675581 94.034569
-5.951958 -13.742887 135.371628
-4.293174 -9.646489 77.768784
1.114386 -10.421747 76.920486
3.596584 12.920965 87.217239
24.876814 5.976665 63.847389
-15.567180 11.221726 74.477783
16.898951 -11.240159 82.869980
-3.085754 13.462977 140.055359
-24.748085 2.589641 76.527084
16.591797 0.200467 108.384109
-17.408916 -2.989596 133.019730
3.083624 12.277405 96.180122
9.298272 10.142212 96.351341
-1.821049 -15.723283 126.852631
20.629011 -11.310575 66.238770
26.472004 -8.407260 63.982468
-1.795237 11.816677 90.286659
-2.419369 -6.647112 64.549530
-5.259562 14.426785 91.110420
-3.806814 -5.152936 144.560806
-9.593946 11.618821 132.188110
-5.509164 -11.339103 111.283958
-8.849375 -11.338101 74.208664
-8.057445 4.476605 122.402924
7.922857 -10.540421 102.002220
0.614014 12.844207 145.594727
-4.480647 -9.764010 68.990555
-18.597641 8.472486 76.368675
-1.495669 14.988382 98.305603
-5.283227 -13.081229 134.798676
-1.122543 10.206393 121.913254
10.388440 -12.020271 70.694061
6.545412 11.878696 87.276970
-10.212152 -14.661393 62.854771
-29.146576 3.539881 71.054932
-12.847113 -10.590592 78.882195
0.230229 11.158413 62.893871
20.136215 7.231577 67.011566
7.330628 -9.355898 140.890228
4.718428 -13.604602 124.702362
6.396007 11.838615 90.969238
-20.499432 -9.240781 77.613487
-14.331930 -9.003430 69.611862
10.173642 9.501742 71.935120
1.142169 9.663357 103.799881
13.710354 -9.058111 132.558121
8.065824 -12.601055 130.756714
-4.662493 4.357529 112.389580
-20.082726 7.057232 72.837929
0.390212 8.751650 118.245209
-16.053562 -9.098166 83.550575
-30.282202 2.977409 66.328331
-10.603365 -6.262745 112.480942
-14.670092 9.419811 83.074394
-13.049138 -1.878437 114.538460
18.902586 -0.091614 94.185562
-22.285423 6.218689 69.154762
6.444961 7.922698 79.500832
22.353451 3.619865 76.054787
6.232450 8.728205 102.475960
-2.543174 -14.529643 129.711929
-11.142038 10.741580 90.701813
-13.194415 -8.841314 90.874275
-7.173674 10.557418 131.636505
17.827435 -9.723147 63.243767
7.694263 -8.825918 99.495262
9.058425 -11.600113 76.457756
-12.497989 -2.325101 118.683128
12.097326 -4.385752 123.630951
-25.594128 -2.065689 71.875748
11.718132 -6.263801 110.694687
13.042093 -0.399002 125.255898
-18.760195 -1.498316 81.513847
-20.553988 -5.999562 71.264137
-4.582763 -11.076224 116.494606
11.419902 -7.058584 120.638321
9.110883 -10.149406 88.038498
-9.219009 -9.199681 115.721924
11.133046 -8.675458 86.577583
-3.520164 -9.737004 97.713058
-9.597157 -10.052722 119.337395
9.021614 -8.272247 126.170319
13.750933 9.120536 63.163006
-9.031456 -11.780454 127.863403
10.482353 5.928524 128.833557
-1.644095 9.671776 146.260269
-4.501027 -14.408120 126.586777
-6.553068 -13.550199 124.216362
3.148760 8.227134 106.144775
-10.992982 -9.355481 112.988670
-18.916439 0.823515 85.491470
-16.547455 -0.189644 104.767426
0.645706 8.116055 82.158058
-1.313811 -10.846761 65.457535
-12.334599 -0.546246 116.684654
4.814619 -11.459007 135.180817
-5.994661 -11.119194 89.902100
-20.111097 -4.467913 64.801552
-4.504503 11.469104 87.657516
18.963171 3.639297 92.363121
-0.316125 10.457970 103.624680
-2.503779 10.322325 66.492912
15.229395 -9.945523 79.889717
16.374422 -6.305845 96.130554
12.516911 9.500235 76.335777
-3.958031 -12.457292 127.955566
-12.147968 4.597589 107.735954
4.071506 -9.598782 85.074944
-20.501698 -1.267432 85.365639
-7.249002 9.954268 138.669449
17.286953 4.703807 79.183731
7.135213 -9.630143 62.284538
-15.335260 4.298884 100.133102
-1.115603 9.348147 105.772293
-23.424023 -2.200618 70.704918
8.140209 -11.624594 106.573715
0.481183 -8.403557 95.814262
4.802215 9.838953 119.099197
7.425173 12.002283 99.293694
15.187379 -9.901406 130.097122
6.711996 -11.271213 130.964569
0.328116 10.120372 132.625000
-5.234658 -13.108377 130.162781
12.334395 -14.658287 68.056595
-17.580770 -2.577258 99.208313
5.387047 8.821591 131.873917
21.444750 2.287071 70.392525
-5.254747 7.315807 74.875633
-8.300919 8.264101 79.000534
-7.972931 -5.060369 146.463943
7.809288 8.668151 75.882843
0.573992 10.836720 151.294586
10.322580 10.512219 77.149750
19.860273 -1.380068 73.254074
-2.252812 9.271274 83.369011
-8.964336 6.256398 112.328888
-5.761020 6.135206 109.965179
14.340485 9.338634 90.483795
17.040030 -0.089150 101.707596
-9.073490 0.374927 146.142181
8.140967 -12.655972 80.295883
-14.417521 -2.693912 128.646454
-9.519106 10.893470 151.619797
-5.664677 -4.000500 143.847290
18.163998 9.162378 74.032906
-2.674836 -11.660124 103.579071
1.110899 -9.641297 139.292679
-23.851360 6.416924 74.475021
5.572673 11.768036 86.839417
-11.874893 -0.948575 153.349670
-4.967010 -10.374234 78.833992
8.234642 7.666841 127.324776
9.721311 12.038262 98.017975
2.836947 16.336151 139.021545
-4.589450 11.581341 86.523926
-24.580608 3.174234 74.237656
16.219593 8.895693 85.254662
6.899017 -9.649642 114.006866
12.599326 9.378789 84.185341
20.667917 -10.537779 76.054718
-15.434174 -2.400772 113.190773
-5.177698 9.378306 129.163467
-0.115142 9.592272 70.572151
20.993475 -7.052019 80.162552
-17.609076 8.211579 69.677856
-21.681576 7.647074 75.619637
-16.678352 -10.889340 73.699722
7.539178 14.363669 142.517609
21.080139 -11.757641 68.005676
9.371346 9.706450 71.797554
-17.489767 5.170386 95.889641
22.608141 5.144177 75.367065
13.074726 -12.288863 78.028427
-15.536122 -3.892069 133.728897
0.644840 8.949697 85.726639
-12.281966 1.646898 112.253120
-5.719735 7.825121 126.061707
-5.428239 -11.929160 138.377487
-6.087989 6.321064 115.605728
14.081807 0.004238 107.364777
12.065208 -12.167659 75.754959
10.090052 12.709495 138.492050
-4.514864 -16.092823 64.258385
-18.430077 8.708837 84.102425
-24.488472 -4.319154 76.969589
23.894022 5.398962 66.628342
0.982087 -11.979324 137.181656
9.106791 -10.936790 91.538437
8.015587 -4.772202 144.806641
3.040283 10.172709 81.072838
-3.048393 8.454321 121.662430
7.288246 12.543312 145.919418
5.575345 6.628349 119.952789
23.184898 -6.538943 70.536507
-6.383218 -9.738120 92.198792
6.470243 -11.934345 122.320999
8.043193 -15.259057 61.707832
-11.594816 12.163264 92.886185
14.976899 -8.710919 102.201630
-7.061690 6.069324 120.738022
-6.204815 -8.977213 115.346710
1.055410 8.157398 79.969505
9.688375 -9.589020 98.544693
-11.856481 -5.913680 125.050468
-9.629776 -10.319851 81.602295
-20.972532 -5.216840 77.551132
-26.537260 0.080375 74.317642
1.329646 11.839371 136.193985
-11.269637 10.146308 73.665367
-6.895882 -12.712930 130.194901
-17.185047 4.680246 75.151291
-26.833574 2.882236 65.373680
9.176504 -11.762394 80.619659
-1.013822 5.134348 112.587151
0.319939 10.495912 65.266495
16.752596 7.944949 65.461708
2.884806 8.100490 109.998550
-10.624242 -12.309006 66.289642
20.853745 2.996765 82.970612
-4.870131 -10.964131 65.223488
18.502024 -8.554349 90.112312
5.940968 -11.234975 118.065140
9.496957 -4.814205 145.603302
4.253493 7.220557 68.071503
-6.459221 -7.039400 141.477371
2.711325 -13.094101 117.706230
9.779639 -10.905598 136.600220
9.479252 9.641806 103.533371
7.735562 10.961786 79.094864
14.015345 -0.567603 117.934784
-9.727298 -8.765473 85.970215
8.084733 -13.888836 66.814621
-15.022228 9.060692 95.192429
-12.534606 12.180478 64.185600
-8.131553 8.406063 98.915039
-10.136486 -8.726440 112.820351
-16.587360 -6.209400 96.694862
-25.595173 5.925090 71.092026
-4.152050 -10.668005 101.343307
8.632689 -3.912170 62.312038
7.212198 -8.605195 85.681488
23.511976 3.527144 74.988922
-0.871765 -12.100959 101.026070
20.033730 -2.287549 66.759003
24.713930 5.870140 64.737366
-14.805820 8.454591 133.170288
3.977747 -11.797880 117.965614
-8.277488 11.938376 134.608002
-23.022346 3.220880 64.189194
12.947974 -10.664025 85.215164
20.510633 -2.670156 69.325127
6.024371 -9.316317 95.014572
-2.812071 -11.200518 137.160538
-27.794397 -0.066832 66.713966
-0.198016 7.183158 125.421272
3.742642 -10.598900 98.320259
2.942867 11.183006 143.484344
-6.022328 -11.409490 114.559708
-4.517844 8.426296 114.434929
-1.704506 -9.295699 64.443871
18.983477 -9.934075 69.426689
13.364156 9.112472 78.479233
-0.068596 -8.679394 137.999313
-4.122851 8.615911 79.977142
-18.647079 -7.741536 77.919014
-11.996845 11.103724 64.442505
10.072380 -12.498693 128.612778
8.607788 7.380289 125.553055
-0.148896 -15.113370 116.260201
-19.004774 0.959130 95.781189
15.590796 8.843629 87.388374
15.447135 7.375004 83.818962
15.921490 -6.353382 94.496826
-7.063607 -8.880075 73.137688
-18.446915 10.279748 66.195282
-2.018880 -5.767694 147.770340
3.452157 7.569554 113.975433
16.274326 -9.390746 64.629074
-11.216093 -6.127429 114.581902
2.362721 -11.422023 121.707832
-0.047075 8.642491 104.301048
-18.548471 8.175951 84.844398
-4.279938 -11.429671 67.057541
15.290042 9.071208 76.472328
10.373865 11.704644 95.432259
-9.185657 10.065863 77.057098
-0.941022 -11.227254 83.007225
12.040821 12.248944 91.877045
6.720290 10.526154 127.117676
-4.506393 -8.317534 142.661453
-1.978978 -9.629203 76.804665
-11.936444 -10.091878 83.578697
-2.045771 -12.149366 108.808098
-6.670202 -10.392999 73.779083
-10.121902 10.909445 74.025627
-20.039642 -2.551337 62.515308
-1.346670 -11.706270 111.517715
-14.250872 7.650124 71.875549
2.180418 8.841443 107.180664
3.621523 -11.367729 136.384048
-3.186203 8.466453 66.084702
-4.904742 9.518952 102.178581
10.685515 9.332475 88.291710
-14.438127 -4.347034 129.280640
10.340126 2.987407 123.116859
8.731414 5.875957 111.766197
-9.510033 9.681550 150.016876
2.897768 -13.696528 136.590820
14.571253 -8.312576 84.194031
3.723742 -10.201676 121.634369
-5.681623 -11.198030 135.517776
2.211990 9.408194 83.478699
-4.780136 10.421578 101.370735
-14.781785 -8.345745 81.087959
-22.916433 6.330321 79.003227
-7.139180 -10.626287 72.954178
12.259757 0.327536 120.993515
-10.265354 12.491887 138.474274
-8.894917 6.073711 107.143799
15.226451 14.095986 141.951416
15.982421 9.858895 72.969025
-7.068684 -11.855017 69.753624
2.143391 9.948816 101.330231
-13.038540 9.460995 85.450027
13.158015 -12.310349 72.368401
14.172849 -1.988670 128.785431
-23.848360 -0.707822 64.178131
3.612457 -7.346475 73.943489
4.132507 10.147520 80.037872
0.626751 -9.718161 82.507416
14.365025 -3.626459 135.394180
6.442071 -5.392033 143.687820
-2.582819 8.713835 122.227295
-1.124721 12.022599 93.230316
-20.925285 10.918928 73.469742
-14.658419 -3.603599 133.387253
0.473197 10.782366 102.599747
-21.085030 -6.576539 75.558411
22.756699 -4.335188 72.030113
13.416141 -4.823973 114.442467
-15.801532 -4.037780 99.392502
15.681658 -0.581877 131.050629
-4.967150 5.919813 119.733673
12.534922 -10.417884 129.418198
-9.674999 4.319868 119.127365
-17.999451 -5.891427 96.814705
5.504117 8.443257 59.728661
-7.265018 11.128564 96.619049
9.849168 11.332623 97.176178
11.853031 -0.305938 122.717880
14.563219 -0.942616 128.592407
16.557787 1.888302 131.103714
-11.219110 3.505870 115.505783
-11.318050 -9.432860 96.933937
-18.724047 6.489861 73.362892
9.253398 -12.827697 75.479042
-1.104288 -10.013843 140.137955
-10.301006 1.494644 124.547836
23.012423 4.655252 73.530052
-22.985937 3.255462 75.130569
-7.512490 -4.957127 143.606613
5.212581 -8.651419 142.105392
1.462720 -7.175650 68.339905
-10.245510 -11.876228 77.108101
-7.118432 8.611399 85.113708
-3.654506 -8.732388 73.068512
-23.531200 5.904506 68.729553
-9.654474 4.937186 153.172318
-11.019689 2.612596 120.287834
-26.316849 1.852417 64.038231
-25.592405 3.037370 76.136826
7.349367 8.989497 129.649719
1.351843 -9.252687 79.072807
9.786860 -8.848621 74.714447
13.323393 10.715185 95.081070
-19.173849 3.126992 91.511551
1.429416 8.257936 63.649124
-3.897734 7.542563 127.900986
-12.063340 -8.523178 140.354111
8.366096 -11.590591 127.100220
-1.944138 5.462964 110.914345
1.806762 7.047728 121.720268
5.095153 14.473018 91.294044
18.013325 6.561008 71.344284
13.196064 4.729560 128.447327
-16.085838 8.454032 75.800941
0.388708 -12.184154 104.481346
11.039628 1.349691 119.530746
-3.879654 9.966737 143.931519
-16.577883 7.552291 89.453850
3.517261 6.394258 109.635330
-6.009897 9.699650 67.959396
-18.715895 -12.453504 61.277752
-16.352440 -10.280283 69.947327
-3.654038 -4.663350 147.245453
19.588242 -8.975183 73.217087
-23.448196 0.904578 78.369537
-8.753102 11.109639 97.581390
7.461401 8.643294 67.670456
17.532314 -3.799992 89.488945
-13.534269 7.172756 73.377754
-23.838285 -4.853326 76.830132
0.145320 12.212443 70.127335
11.040326 -8.666388 83.247536
24.919048 -7.746241 66.732430
-14.595711 9.048903 73.362312
-3.769989 -11.745110 135.761414
-13.111220 -8.883073 134.101349
12.057241 -9.457721 106.199081
-6.069655 -12.897832 128.773438
-10.353970 10.055431 141.468231
-18.493553 8.337657 80.729080
-11.955457 -4.398056 116.915527
-4.272481 -11.355384 118.902863
-12.616689 7.400285 78.262543
-1.731311 -12.967286 115.474701
21.949333 6.141310 68.101112
15.527941 -5.921552 98.645302
-16.538280 -9.129289 80.044464
13.612585 -9.531911 140.779602
6.147801 8.999063 66.206734
-12.103564 -0.524118 123.930161
3.104568 -11.288082 127.722260
-1.778164 11.714835 136.170639
6.114760 -11.422972 137.324692
11.636071 -12.572289 136.786301
25.794718 7.016979 64.762085
-18.460514 9.405979 85.825195
-0.176208 -5.543851 146.055557
13.482995 -11.221686 93.551895
8.966364 7.554711 152.775238
-4.617512 5.780785 114.319244
-4.576706 -10.173480 137.971725
12.134138 -1.499053 117.158493
2.368103 10.768223 80.335960
-26.727139 4.207979 69.455154
8.738349 -9.344688 73.552956
20.156319 -0.312535 89.598305
-14.683352 -12.099091 78.593979
-8.021436 -14.802192 136.394775
11.883820 -10.058531 97.972649
13.232183 -1.157604 114.329857
-21.512781 0.572118 78.427307
6.173029 8.727299 70.665031
-13.468801 12.019678 62.677021
8.206667 -12.867788 135.697815
11.404817 -10.446847 83.166290
15.528029 10.080031 72.590248
12.490097 -8.814142 90.985718
-12.908413 12.568298 69.281670
-8.828801 -10.284126 101.803307
7.527871 4.636662 122.994743
15.917811 -8.513931 86.835724
-8.426653 12.250672 141.678864
-21.205969 6.536306 75.014633
-13.644914 -9.125912 104.292366
-10.062763 -4.758386 146.299728
9.287354 11.932055 87.074524
0.892595 -9.929996 79.923607
-2.893506 12.202462 130.082825
-12.819360 13.359699 68.434738
-28.313938 1.030880 68.107170
4.076407 -7.133095 142.737732
2.676864 8.799229 151.751556
-16.543886 5.246635 89.952728
11.663642 13.379617 92.255920
5.685175 9.503370 151.323273
-17.278547 -0.117559 94.164253
2.287475 12.887115 87.151001
8.656301 9.515257 121.800758
15.152837 -0.423672 110.417107
10.372650 5.375931 117.045372
-18.631094 7.791935 65.133820
-18.304911 -7.315664 88.916847
-17.764179 -3.323485 97.119492
10.634459 14.970506 138.151810
12.211358 6.905300 80.949974
-18.114862 10.857972 62.852131
-12.024254 10.476343 94.678864
-4.719936 -4.949596 145.686096
-2.499669 10.154239 134.486557
4.697056 12.028477 149.691025
23.087757 8.150711 66.252174
17.388292 -5.532225 93.485245
16.223742 -4.588274 95.099426
2.216885 9.509471 63.445847
15.161022 -9.296363 78.682884
26.137081 -8.549562 71.070168
-14.378509 -11.122212 94.045815
12.858927 -5.631334 113.811592
7.189682 -9.695698 92.584076
-18.586246 -6.320027 64.336594
9.522164 -11.112014 80.207474
18.126711 -3.542067 94.010513
-1.389477 7.838933 115.369469
-11.473512 -5.313704 145.567062
-2.644717 12.356842 90.861801
13.889935 2.212870 109.992905
6.899967 11.620345 140.249451
-20.105320 7.796414 78.134903
-5.059406 -4.525343 142.674637
-0.721888 -6.037010 69.297417
3.587625 12.357284 148.403473
0.466623 8.065994 82.389755
9.219560 -10.032159 78.996109
7.216536 12.177433 143.070435
0.455590 -9.641631 79.028061
-2.431138 10.318129 59.805389
14.955745 -12.849763 73.811852
-0.193360 12.563967 132.447006
-16.610823 8.080232 89.982231
14.975275 -10.642034 78.259300
8.684809 -10.994956 84.270714
17.962933 8.508379 68.367096
8.863617 6.766262 123.568962
13.289451 -12.519856 75.069267
7.383860 11.560095 90.205666
18.404266 -7.728854 79.653175
15.445219 -10.348783 82.557289
23.129980 6.344514 72.245262
-13.954809 -7.284937 122.307487
14.315619 11.122188 76.654991
-18.677862 8.137555 78.464439
2.021438 10.875908 146.550507
-6.365607 6.985730 117.193535
-13.626449 11.922978 65.844780
-21.227758 -3.301781 64.193588
-21.070482 -0.369887 84.803185
-13.528384 8.120731 76.396622
-20.837545 6.473547 70.523972
-8.885844 8.824226 75.445427
12.659118 -8.371344 92.569611
14.281618 -4.198367 103.494797
-13.287139 9.855413 76.944862
18.225143 3.938193 84.395081
3.045116 11.760370 81.426292
13.308958 -7.742002 123.646477
11.089326 5.086616 116.751663
-16.368517 6.830674 85.963112
17.001965 -8.606205 64.552391
-0.320082 -9.814167 94.240021
11.639395 14.530594 138.336426
17.915707 -9.959582 65.097847
5.130464 -11.575446 135.881912
-18.042770 5.094955 93.428436
-13.831058 8.668326 95.526588
3.593353 -8.383929 143.306854
-20.543940 -2.578538 83.465637
7.340540 -12.032151 92.992058
-12.069386 -9.114552 80.437500
-7.339811 -9.667616 91.165497
-7.543217 8.456364 128.877625
11.783365 5.431283 110.938057
-14.854230 -4.448153 116.138741
19.267414 -1.731598 96.858826
0.922483 7.499910 70.195740
10.507927 11.289662 138.973892
-0.442894 10.320907 102.968254
-13.039598 11.231112 100.281021
9.604649 8.626608 103.316086
-4.425959 10.955218 88.558098
-30.194696 5.562638 65.276428
6.840970 -8.617927 99.463112
16.489218 -6.965240 90.689041
-10.697850 -9.451298 138.997757
11.559677 -9.395619 140.454895
-19.909300 8.531724 70.536072
22.355314 -11.806917 68.455894
-13.261494 -2.333984 116.236351
-8.858718 -9.612102 111.861275
-13.447671 -10.258067 123.845604
19.434414 0.053920 67.353920
0.726410 12.965926 136.330078
26.270664 -4.258027 69.269508
-23.884912 -0.482137 71.107201
4.448309 7.472538 119.934608
16.597391 8.965072 68.761917
-13.294525 -8.730062 122.586571
-15.280972 -12.436149 68.466400
10.621505 -9.665836 97.211411
23.713789 -2.272923 69.950111
8.980122 -10.436277 124.412003
19.393419 7.595705 89.995735
-11.393303 12.429779 63.741276
10.306874 -9.578204 95.092262
-10.815551 3.883182 121.457687
9.064064 12.158338 100.995293
-1.882265 -11.849966 84.114838
12.514340 -11.115759 64.743164
-22.175383 5.905363 75.500938
-12.897177 10.094854 74.719185
2.572186 -12.225769 123.372444
-6.825846 -9.726106 99.308014
-9.334379 -6.450876 113.680862
2.057772 -12.350266 113.319931
-18.614906 -10.424620 72.602180
-7.430724 11.070574 85.035095
-7.782481 14.488948 138.515152
-3.817649 -14.519228 63.493023
13.761678 -9.504491 87.826065
-0.751011 12.359560 97.836807
-17.470875 8.615428 72.792824
-18.663355 3.591001 98.353691
0.332082 12.150116 147.341980
0.218715 -11.346815 84.303978
-17.555189 -11.508640 62.037464
13.311359 -10.615975 66.080765
0.428839 11.739641 70.584160
0.298839 10.115341 84.459328
-6.508682 -14.132473 61.787785
-6.341544 -12.871153 69.108574
-6.829213 2.035093 119.667282
1.164259 -10.210772 81.587608
14.584703 -11.237607 75.180077
21.547525 -9.836936 64.965958
-13.902606 -2.085972 125.316360
18.178064 -3.641411 82.814667
-8.339100 -12.126147 106.524330
18.231390 11.826837 63.431526
17.798443 -4.864127 88.964676
-0.931482 -12.345051 75.730530
-20.116161 -5.781937 75.225342
-17.998159 -2.885182 97.978035
-1.065687 12.575014 99.298721
22.212479 -0.581545 76.535225
23.049377 6.387223 66.154640
-1.339667 11.254342 68.855446
-10.334859 -11.384632 116.273758
-0.159308 -8.954385 139.248764
17.876177 10.097236 64.899117
-0.179121 6.326625 126.699913
-11.563118 -7.502636 91.973915
-19.128841 -10.299053 66.477631
0.644872 10.074780 71.356178
14.025370 -5.123339 98.220085
11.274586 9.864781 67.885582
11.880358 -8.671279 116.738487
-15.890401 -9.222372 90.888771
3.715899 -11.525427 127.211388
-16.315815 -5.018497 104.393326
-0.479811 8.589518 79.764305
17.170912 -1.016177 92.279236
-26.498220 0.651929 75.303482
-6.681370 -5.112072 144.168381
-24.179085 4.867462 77.225868
5.307396 -10.113180 135.354248
-16.778549 -7.059054 94.720734
2.366400 -6.182526 145.944366
-1.272463 11.265750 89.735245
15.758127 -11.032687 85.009636
12.911016 -8.851073 93.756958
7.492153 5.737566 152.750122
-14.751877 -0.369777 110.426750
17.227337 -7.353844 88.116570
-20.383869 -6.148262 82.614220
-23.992876 -2.098831 71.553436
19.426311 2.662509 81.423836
8.419797 -11.630970 66.577110
-16.081020 -0.838742 100.053299
-18.587397 -7.919649 79.634354
-13.474959 -3.577441 120.768906
19.725321 -2.429628 88.615753
-11.563933 -10.941678 112.200775
-15.772791 -7.237020 91.334541
13.110019 -13.216103 71.142334
-24.853281 0.352998 78.613594
-17.002010 -6.619604 95.195190
-6.235636 -11.918237 116.871651
-18.592579 1.375424 90.095436
-20.284611 -4.249767 63.644688
7.607622 -3.503742 147.642639
7.861750 10.545248 146.564651
0.591269 13.405254 65.519897
12.025113 -1.728685 117.698715
-4.995356 -11.640765 122.067024
5.564989 -10.838526 122.078316
6.471037 10.366513 69.184525
15.949262 8.193151 91.865364
19.620764 7.139317 85.765594
8.895782 -9.647868 107.863396
13.239239 1.328770 129.355896
7.028390 -14.515559 131.527603
10.544474 1.172072 118.567596
15.667033 8.657915 88.006058
-12.320771 -13.068555 132.734634
19.718805 -7.189000 85.149254
14.651630 -9.994763 72.127365
4.614141 12.770484 141.100067
-10.616142 -9.428916 104.614487
-0.312148 8.835019 120.590637
13.539735 -0.957794 127.061508
7.927050 7.751820 105.103333
-4.506363 -14.063662 62.284958
18.506651 -6.337220 79.841743
-13.304192 -9.431592 97.990295
3.345904 -9.164078 70.559059
-13.494084 11.996640 88.809357
9.470715 8.051532 107.622429
6.308026 -10.035563 81.229340
14.337870 -0.996270 111.544197
-11.489588 9.038322 149.479431
-3.917318 -12.386697 70.319466
-9.282557 -11.198338 63.712734
-2.182362 -14.543436 123.689293
-9.109138 -11.542891 129.012207
-19.734058 -3.270103 86.513802
18.562744 3.598922 84.111130
8.908033 -11.634913 86.976944
-18.032249 2.883465 97.869202
-18.968058 6.096233 88.776428
6.635946 7.413863 125.548744
-14.032328 1.851679 127.767807
-16.561041 7.489633 83.575661
8.146205 9.274410 129.475891
0.888989 12.759863 94.565964
20.642061 -5.664867 84.864296
20.571980 -0.381945 80.113846
23.500282 -8.008868 65.682632
19.919771 -1.480655 89.212646
5.775032 14.419389 142.145569
-1.218685 -12.518473 130.664810
-2.622349 10.113558 80.766533
0.674753 -12.783321 102.063194
-6.998930 -9.263586 91.432777
21.607876 -10.109873 62.988972
-11.341284 9.544512 68.826996
-17.165150 4.768026 136.075195
21.011841 7.132031 70.595825
-3.287392 10.714051 135.662064
8.707125 6.539323 113.577141
17.003893 -1.083596 95.887527
-14.033081 -10.424650 72.965118
-17.288359 -6.619071 131.810059
7.535068 8.159826 126.855247
-10.072295 -7.205017 110.264038
-16.633648 -6.404288 82.150650
10.264840 13.179535 150.975952
-2.922622 4.449017 110.171776
17.431746 -11.701656 69.244865
13.173850 11.359575 78.156601
-22.559212 -2.923784 71.213684
-14.496240 2.556607 104.732697
-9.151072 5.976450 123.501022
-9.265188 -12.159529 107.206886
11.906822 -10.589861 128.797592
0.317179 11.555982 133.128052
8.314463 6.028820 113.199608
11.267431 6.336975 103.217377
-3.482912 7.177829 115.590683
5.477041 8.463243 116.432251
-11.885573 11.053389 75.785385
-3.571161 -4.646184 145.816696
10.811281 9.061037 71.591782
18.871225 0.985335 70.002350
-6.526555 -11.222423 87.373726
13.409805 -6.790680 134.309723
3.315582 11.196003 133.086578
-4.638333 8.377273 124.506149
-19.903786 6.810732 75.865227
13.839211 -11.152961 79.751465
3.891979 -11.573004 123.865707
-11.241529 -13.105070 129.391464
-11.233728 -9.352028 122.666069
-13.856139 5.408183 101.573402
-10.538684 8.605742 69.402351
14.340160 -7.533057 102.567841
1.760453 6.417847 115.067047
11.278475 0.450923 148.211258
-27.304937 -0.031468 66.518600
-7.951397 5.227833 111.272430
14.891223 -5.561171 90.450027
-4.005268 6.391262 117.704079
-19.540182 4.518703 91.391960
-7.596717 6.318707 120.266785
1.843329 10.821364 134.132263
-6.736971 9.397010 82.258408
4.910301 10.152271 73.929535
-10.881352 -9.513058 119.055984
11.711659 -7.727041 91.641006
-6.318092 -14.315128 134.473831
-13.586454 -6.065734 113.532646
-23.445776 2.713830 70.711845
11.301124 2.280334 117.705521
-15.366062 8.733750 88.060059
3.902890 -11.042569 79.319763
23.663568 8.386874 65.008591
1.859293 10.441400 93.806404
23.493896 5.286667 67.957520
-6.247056 -12.726489 126.064728
19.024809 0.512166 69.335571
8.283778 -12.506634 68.425301
-21.575554 8.903899 66.196732
4.240993 -5.258384 61.242218
22.419121 -0.379322 63.252647
3.788390 13.189898 100.049164
-19.232496 -4.170242 80.782372
12.617484 14.595263 97.207878
7.300342 11.967308 144.701614
5.780344 10.243797 131.371918
-14.453487 -1.051868 106.262260
0.155005 -8.255732 72.578575
-4.204354 7.363413 83.482719
-7.139716 -11.256829 62.549450
-13.643408 14.566371 142.210358
-4.548426 8.234843 78.760826
7.086170 5.750252 122.624466
-15.436604 10.731392 92.720215
-13.786265 8.715770 71.650841
-7.075563 -10.030401 82.500755
-6.775877 -2.900323 146.419739
-1.807569 9.385123 120.265373
-2.086593 -12.029389 119.950668
-1.931598 11.283667 64.434441
-1.560071 -11.507979 82.161514
12.127054 10.153620 70.731857
0.636445 -12.988300 102.823502
24.519163 -1.861225 64.648102
-13.516438 8.730644 85.743652
5.547456 10.652473 101.806007
17.950262 5.009313 94.885948
-15.180283 -6.436563 133.061096
7.498549 6.860202 107.186302
18.006111 -9.056168 78.564217
-11.044876 12.890456 144.194183
-21.365931 -4.404874 73.783432
14.851488 -9.228478 89.558846
1.465028 -9.729043 109.758400
-4.046749 -13.736386 107.755470
-15.069479 7.005134 80.906525
-2.450003 -7.350026 68.298813
-3.146675 11.945780 90.449364
-1.921976 -11.675909 110.578880
-19.483278 -7.874287 67.617355
-2.258072 10.514822 81.698257
-10.178629 -11.277432 91.250587
20.202770 -3.997471 78.718842
23.789040 -2.892865 66.697876
-24.032961 4.141478 77.570755
-18.251526 -9.463244 74.205772
-3.851092 -12.486032 122.337303
22.040943 -8.730825 69.187798
13.014958 -0.615217 119.887482
10.786260 -8.926577 115.404297
20.304934 5.392281 88.108238
-0.410560 -13.532360 139.303711
-1.789566 9.859140 128.930038
-8.754169 -9.910634 110.666756
-20.450401 -9.766243 63.750530
-7.650980 12.295943 90.026726
-20.580187 7.466998 70.496223
-7.872844 10.713957 100.182610
-11.561094 8.723269 95.338974
-3.196143 9.599975 80.261070
-13.962306 -5.240002 118.755714
-20.053970 1.326990 88.726158
-16.338091 -6.340410 79.521729
11.157506 8.113878 78.139915
0.863669 9.467897 80.155479
4.064943 -8.380782 138.678604
-15.000915 -8.679758 72.363213
6.173249 7.240063 62.536430
-24.177685 4.322422 71.976570
14.028608 -11.208948 73.457245
-26.949594 -0.199270 66.087891
-11.898865 -8.334551 107.431458
8.186080 -11.729812 107.954437
-2.250438 9.694283 84.209991
17.871946 4.154016 95.074844
-9.336098 10.403025 145.595062
-11.349167 0.973781 122.539238
9.899421 -13.377376 135.046387
-10.079189 3.990753 112.678528
18.180206 -7.079842 89.667900
5.288635 -12.151289 120.189873
10.984547 -5.555433 143.307632
5.982654 -9.529691 70.337921
-9.341507 -8.919474 99.985657
25.018696 7.145004 67.460495
-27.173523 5.498026 67.637657
2.563757 -11.719935 109.573586
0.920411 -6.589244 145.855682
14.222986 3.887258 116.012451
-14.086749 -4.667379 131.247330
-15.303560 -9.289514 77.993324
-13.804787 -5.354607 104.847931
5.608458 7.622589 83.034439
26.081636 -5.570298 74.381859
-18.236385 0.059139 94.889977
25.459995 -9.105259 66.494133
16.984158 7.790722 71.563278
-20.003923 7.780484 65.482742
12.360637 5.339298 151.154037
7.919521 -10.688184 114.283768
14.418525 0.032581 127.273674
-12.396996 10.106630 74.297745
13.146394 -3.798339 113.215645
2.035761 -10.632758 98.604004
26.312513 -5.751863 69.707924
15.308725 -2.078323 98.139305
5.824056 14.306634 89.246704
16.733564 -5.453908 99.917427
1.340040 6.891738 121.084351
-16.338928 2.891438 131.251846
16.683884 8.229959 57.404369
23.454845 5.760614 72.590294
3.641225 -12.279080 104.469444
8.911923 8.884190 152.517502
-0.774135 10.965686 146.370804
-15.157687 -2.311403 131.040604
-22.058424 2.083006 76.890175
11.107281 10.278991 134.777924
-17.404144 4.329107 94.239700
22.674137 -11.311420 68.014473
8.462454 6.474208 107.855690
8.285487 5.946419 118.561188
-19.017067 -1.696861 90.131699
11.700034 0.037761 109.487801
-11.706822 2.200692 115.629242
0.406147 11.127562 131.127808
-11.291486 -8.243424 105.023293
19.414532 5.392923 78.019867
3.178338 -12.023860 98.291855
20.238089 4.119145 77.232956
3.491959 -6.392363 63.763794
19.075823 3.623164 87.730545
1.874543 -9.216514 71.090385
11.970037 -11.971683 74.186501
-0.410715 11.733732 87.939613
22.620558 -3.728221 70.316849
-25.178389 7.124311 66.899071
-18.130505 -7.864676 82.895370
-17.936525 8.570110 83.047943
9.711959 10.478735 73.919540
4.382145 8.683187 63.425499
2.010790 -4.441004 68.474632
19.756218 -7.081449 86.611542
17.736160 -2.408842 95.402214
-13.412457 -4.725210 126.981728
2.021944 -11.096951 82.144089
-26.036394 -0.127334 66.067688
-8.135584 7.936934 134.661850
23.503359 7.955173 67.860306
-6.820915 6.109515 111.336388
-14.031626 -0.591242 111.271210
-6.928294 10.963864 87.504936
12.698174 -8.701497 96.582222
-20.894726 9.208661 66.726242
-16.004534 -5.099403 104.264931
-19.350889 1.642595 89.063179
-0.848740 -15.806304 133.219299
23.318317 -9.252216 75.451492
-16.542204 -9.754066 81.646095
15.473425 11.483060 70.745499
1.453627 -11.228824 110.424622
-9.931870 12.308362 142.557434
10.471935 -7.523400 122.718979
-15.772004 7.230439 90.281609
8.391393 14.125194 90.371765
10.706299 -7.931201 117.823517
-11.047751 -9.639342 111.572945
15.674436 -1.536954 106.493538
12.926644 -9.110210 132.086243
7.243016 9.120347 123.634392
-8.308448 6.551356 110.562141
7.568266 9.997208 63.941071
11.090444 10.605552 82.267975
-8.185838 7.332190 128.580368
0.315051 10.336403 81.021576
-4.433694 -10.871560 88.644379
18.646477 -9.395897 73.154366
6.780458 -8.593506 72.840073
-2.728729 8.323130 127.677757
19.375177 -5.793771 90.684990
2.200839 -11.233823 100.418541
23.534264 -6.540607 66.832565
-6.887459 -8.643775 88.451820
14.645600 -10.780646 81.966446
-21.666481 9.019835 68.081886
21.073853 1.664001 72.488670
-3.701001 -10.070155 111.651985
5.931132 -12.432165 64.896172
13.446358 4.714521 103.748146
-16.442919 -11.439628 78.965630
17.426081 -3.363967 98.276970
6.456104 -10.672323 137.531723
-6.391144 6.020539 112.298622
12.939775 0.808731 109.590927
-12.367092 -6.146800 125.418488
9.293891 -5.747827 146.649551
20.904501 8.314529 65.111336
-17.713696 -11.776335 69.611107
-2.508380 13.024880 144.073212
-10.092515 5.999410 67.717125
20.758766 1.260603 80.903503
-12.778851 -5.514536 131.880692
-14.725546 -9.469981 79.226112
5.543013 8.829104 121.477959
-14.066074 6.256522 96.619156
0.489646 -7.625507 70.332428
12.689880 -8.831008 83.239441
-22.133198 9.021084 68.089302
12.083910 5.729159 129.010468
13.010638 -11.669090 80.392944
-13.662542 -1.679553 116.964088
18.630280 3.879580 83.818123
-13.366430 -9.791480 74.544243
7.279266 7.641448 84.151978
-3.076672 12.407544 146.460480
4.988058 12.543121 141.674103
20.463001 10.088998 70.091187
-19.421284 -7.964044 80.649071
12.336377 5.729387 132.140213
-6.269405 9.496313 100.386917
-6.459664 8.788531 118.641457
-14.525476 -10.811121 69.343147
-21.056814 -1.173655 88.823334
-6.756517 9.573159 75.959656
-0.329979 8.571771 152.375336
5.514839 14.323533 143.547150
-11.536756 10.301335 85.837524
-5.319205 10.995751 66.969017
20.151140 -10.082495 64.006790
9.295321 -9.745134 79.417274
11.477504 -6.635105 110.914398
8.623270 -9.766325 82.323830
-12.696772 8.698045 68.639221
19.834848 -8.974175 76.353638
5.960764 6.396946 107.688812
-16.857187 -5.644244 96.560867
-12.865300 5.466112 108.622055
-5.725436 -15.122370 128.434830
-10.307629 -8.722954 96.540474
10.449291 2.902411 116.499802
-13.012774 -9.660770 115.141068
-24.869480 1.025048 78.009979
8.782815 -11.752220 105.441299
5.856328 9.255087 68.804741
18.040375 4.529631 80.371231
22.093212 4.614194 64.721123
-2.487304 13.841209 98.023537
8.192260 -9.620652 73.773933
-17.774668 3.803764 93.993431
23.262480 -5.180998 72.544128
1.480263 8.978987 116.114998
-12.015228 -10.342305 121.768692
