ply
format ascii 1.0
element vertex 2048
property float x
property float y
property float z
end_header
18.067070 3.199532 133.012833
0.465740 -13.711730 133.054550
0.540756 -12.515885 137.626495
12.745928 5.599866 125.876854
-11.342425 -9.086679 112.197884
-30.490404 4.749866 132.146164
12.948751 -9.581178 87.940727
12.607057 0.272722 123.330597
16.862234 7.557275 137.297241
-14.411790 6.875235 97.802238
-27.060577 4.946143 134.874283
-7.445569 8.836527 127.181328
13.585963 7.710907 143.014740
19.375458 -1.317149 142.712830
6.344568 9.225973 108.023354
2.992893 -16.256075 122.570793
7.070137 8.119336 101.378029
4.752112 -5.023416 148.227371
-0.186088 -7.977340 145.281677
-7.340233 9.709973 126.825562
-2.693243 -12.312401 77.607124
14.585612 -3.083127 78.872116
-8.716734 -8.063572 136.771881
-3.651021 6.944616 148.105606
-19.232555 -0.971008 131.173416
7.547846 -4.708315 147.730804
-9.062781 7.813278 101.866539
-14.035371 -10.085407 93.899780
13.470474 2.949829 124.032433
-21.879446 -3.110710 140.065323
7.591254 -11.087703 120.952019
15.029162 -2.068485 84.353973
16.983374 6.162776 142.540482
-3.156518 7.452453 142.357407
15.320134 7.830286 141.901794
9.784896 -2.410054 113.785614
-9.156645 10.451764 141.172913
1.861751 -13.913801 121.911263
-3.165575 -13.849948 78.755760
13.309726 8.987692 137.306107
-2.476987 -12.532037 101.918907
-1.950533 6.950538 79.166824
14.128614 2.267455 109.479851
-21.301233 6.566267 144.118057
-10.091992 6.035781 145.035721
-14.519433 -3.258960 84.931274
-10.559283 7.942447 103.946144
2.068167 7.043746 142.696442
27.235920 5.311286 132.718445
-5.626917 10.829490 125.687057
9.769711 -11.020345 130.017639
-6.406043 3.026150 120.305931
23.601181 -3.118609 134.847519
-26.466238 5.945127 135.298416
10.072924 -11.373484 77.942787
-9.670223 5.394155 77.184967
8.461309 6.373822 102.853966
-11.023446 -5.298151 123.368774
1.946170 7.032711 144.717316
9.846085 3.206982 147.599808
14.019018 -6.281121 129.826508
-10.912862 4.940963 141.802322
-12.271425 -9.047435 84.462997
-28.025629 8.669874 139.673691
-12.523683 -3.936682 142.245575
29.546051 6.558926 135.444061
-32.263439 5.592093 142.846069
21.744835 6.521226 146.173950
11.015062 7.631836 80.253540
-4.005573 10.365253 124.954269
1.981407 -13.085131 129.497849
12.002312 4.417299 146.598587
-13.426820 2.924250 81.544914
29.097410 7.712026 144.405609
30.269783 -4.006933 139.420532
0.573759 7.002683 143.732147
-6.440719 -1.611875 148.454224
-10.645886 1.469520 145.784149
11.034171 3.326855 126.056679
11.672975 4.471712 116.425423
-12.414559 -12.204663 80.172073
13.247448 -5.024941 130.382751
-5.248624 5.685390 147.410767
4.937279 -14.321843 115.467369
14.739904 -3.533279 145.195099
-29.929840 2.421239 143.556351
14.213614 2.238268 122.469254
-2.020997 -14.191207 98.008499
-28.654694 -2.587747 138.159805
15.300280 5.199809 136.232559
-13.411935 2.213850 114.010536
-5.954747 4.341632 109.847603
11.943827 5.650066 81.853264
1.435252 9.657509 85.441154
9.278777 -14.039395 97.654785
13.359792 -0.570243 119.738335
15.236374 6.504947 134.882401
-11.542479 5.675351 76.135185
16.358986 4.221724 129.067383
8.818451 -10.984307 103.318161
-28.981918 -4.712770 140.873535
-16.266859 3.958710 130.664383
-7.413079 5.621402 116.767288
-11.658361 -10.356163 134.704758
10.299670 5.313069 83.712425
11.250145 5.489165 83.916512
-23.317730 -1.338549 142.434250
15.407202 -7.660222 90.965614
4.231891 8.353908 144.868057
1.404274 10.401896 134.511230
0.676644 -13.671709 127.141060
-5.499134 8.988265 93.857750
-7.080116 -9.294082 140.515564
2.121404 6.505501 108.825729
6.589659 -10.415051 112.879211
6.107823 4.265610 111.902489
11.218266 5.873673 100.450951
12.869422 6.464022 77.088295
-3.750897 -7.446754 145.274185
8.688437 -9.227166 102.061287
9.944836 -7.266018 138.442917
-12.902161 3.086784 109.227707
2.782101 -15.479280 123.345001
-15.387206 -3.357169 79.763519
10.968890 -5.753218 111.252686
10.999137 2.434298 105.086418
-13.238602 -8.473594 79.357079
22.517738 -1.366762 138.190247
-5.772646 3.767419 114.317696
-9.103165 11.073907 132.935471
-23.976406 -3.712712 139.672821
0.435021 -12.283577 112.435776
-3.216764 -8.940068 140.010895
-5.902647 -14.886762 84.257256
-0.040982 5.894102 109.811325
11.129297 -4.783563 113.991455
-11.318557 -3.053534 109.129051
11.466712 -12.406083 85.429985
31.602514 -2.702462 138.527039
-13.060717 -4.924955 107.107384
5.434174 0.971088 150.248703
15.274135 1.007969 145.428040
-2.017477 -12.675493 83.936440
-23.240314 5.619162 143.635437
-2.626140 10.163099 84.029633
11.714127 2.862153 78.471283
-21.273945 -2.969193 138.961533
-12.663129 -7.269336 114.914856
-12.624500 8.160027 94.841484
-15.097841 4.643456 137.090332
29.670965 6.088447 143.672958
17.995577 1.411580 133.937164
32.599888 6.339214 140.324112
13.003162 2.282188 96.604385
14.592633 -1.380836 84.026779
16.113050 -5.148814 130.772644
-27.225058 5.239665 138.811661
18.590023 -1.539625 139.171295
-15.009515 -5.776869 123.419807
20.054148 -1.420268 142.589828
-3.453219 6.959530 102.974243
25.395039 -1.817749 131.235275
26.979223 -2.447895 138.584457
-8.778451 -8.728016 122.227417
-9.425758 -14.757101 75.215179
7.740913 8.784156 127.188072
-3.989512 -13.486772 102.186577
-0.430051 8.493140 143.618652
2.214670 8.885140 83.660133
13.009511 3.533601 128.828415
1.888484 -10.648321 140.907700
-10.390104 8.645267 145.720856
9.696864 -9.722640 104.245674
12.466914 -5.324759 112.031174
-15.949791 -7.834109 90.028931
23.923233 2.849331 131.097000
5.265271 7.149725 100.727333
-27.559607 0.037670 128.143921
9.456247 8.538258 95.078453
-0.953923 -11.427616 130.676178
-11.916417 4.847167 78.312477
-16.963734 0.021726 78.647736
-31.700588 6.825593 142.233109
-13.400620 -0.386019 127.111351
3.753886 -9.127673 142.030167
9.686770 -9.777066 125.244354
0.268566 9.472937 100.526985
9.683177 -10.659146 82.852348
-26.728586 -1.958839 135.684067
12.663321 2.273241 128.092651
1.530669 10.109909 89.582977
28.819231 5.874149 137.130600
9.732871 -2.039676 145.489441
-13.831608 -3.070753 89.002609
-15.461017 -5.027414 138.676544
-0.006209 7.580563 89.437576
9.654000 5.352424 114.083946
-27.598322 7.182564 140.847977
-13.900950 6.218444 90.129433
-8.582438 6.352151 82.844200
6.414468 5.078969 115.358200
-3.186193 -13.173802 81.848389
6.583545 -12.345226 135.331970
26.403910 -1.607012 130.702866
-2.536256 9.232519 117.977203
-10.027267 -5.011741 111.045258
-11.005650 6.228222 88.565987
8.921909 -9.983242 125.364525
-11.714750 7.587833 131.624542
6.523368 -12.832182 129.100861
23.614136 1.535451 129.061295
6.432835 -12.820286 87.497589
28.284288 -0.461596 127.769646
-2.824344 -11.689538 120.332344
-4.656868 10.506974 98.061562
-8.691638 -10.369605 100.342308
12.907442 2.835299 119.609047
11.332822 5.299513 97.171036
-14.589228 7.601574 144.910980
-2.152987 -13.291731 82.146912
-15.882855 -5.782239 92.544678
-12.656655 -10.952941 88.259720
-0.030716 8.603361 93.720207
-11.128433 -10.561977 77.595459
-0.459066 8.981192 135.812500
-12.313898 -7.957474 99.564987
-28.711344 1.197126 145.632187
-8.522449 -6.440935 122.458702
10.309647 4.216243 121.518524
-4.897108 8.819543 142.565750
11.642628 -0.189977 112.125168
11.021942 -1.286036 104.518677
0.158381 8.210231 83.582016
-5.349474 9.140794 127.497665
12.616946 -1.166842 103.639366
-15.098923 -1.268459 79.923004
-6.870273 6.047145 111.746262
6.486552 -7.962772 145.491379
-11.054930 0.666863 145.711365
-15.911836 -10.489310 79.806854
-30.377617 -0.728984 142.666000
-12.925531 -9.874160 97.794342
-7.624666 -11.845500 82.828072
-22.997850 -3.221146 140.130707
-8.084237 -11.951411 92.437912
-14.488058 -2.290973 93.193604
5.981126 -11.855849 101.894310
-4.951920 -13.516518 117.784744
13.551651 -7.996940 98.649887
2.858258 7.959195 143.154526
-14.281041 -5.374370 118.206505
-1.469031 7.119315 109.188988
-3.166498 -6.766324 146.298660
-1.874389 8.408271 103.501999
12.221539 2.949643 126.028542
-2.466527 5.905799 152.057663
0.700376 -14.693791 136.712296
-6.455148 8.819072 98.481552
-2.838864 -12.035372 140.422623
7.383520 -11.692552 136.594025
-8.902606 -8.815473 123.431847
-15.591803 8.432359 141.867249
-16.439470 -8.386020 80.694099
12.122249 -7.384302 104.633545
-16.254501 -6.138502 92.026161
6.395197 -12.101318 125.697563
2.888668 8.408831 138.732727
-11.828155 -9.466997 95.754112
13.811933 -1.363584 92.441170
-7.848351 -10.327046 136.000549
-21.048449 2.947000 135.303406
-12.295687 -7.988828 131.705078
7.661267 8.091653 136.246857
12.297649 -0.305693 111.750534
-10.597764 -11.349562 75.415924
-29.971703 0.225141 142.982117
5.288958 8.785290 121.915558
-13.994708 -2.904292 113.505402
-8.519575 6.166321 77.440552
1.578351 8.020336 148.263474
27.822844 -3.450071 132.715714
-4.616894 8.836546 77.567757
10.929020 -9.636593 131.517303
13.730744 -8.614756 89.652626
-6.381636 -7.175039 141.744995
-2.760125 -12.836995 91.080330
8.737183 4.965044 114.204361
-12.981368 0.404873 107.339272
4.857032 9.387127 88.950043
6.254150 -12.005336 96.186638
8.032618 -10.719028 111.037239
14.663132 8.305004 140.271271
10.035563 -11.125359 131.100098
6.598919 -13.171185 120.373383
-12.750923 -2.988015 105.904869
10.412548 1.980979 116.087936
14.579406 -5.292315 99.722504
-6.642894 8.601069 81.783051
-4.307719 -9.690701 136.884705
10.753667 2.250562 118.744606
-8.711998 7.832955 141.173431
-20.076300 -2.025579 134.526886
-14.912563 -8.747938 83.870567
7.460038 -13.078065 102.750488
-8.333116 -11.906846 129.574036
14.396273 -2.603080 104.863876
-12.426379 -10.364886 88.004196
3.124830 9.108628 125.325005
0.725873 7.462506 125.851974
2.088688 9.690619 131.625748
-10.757351 9.570647 126.500694
-9.318013 7.346130 132.535904
-11.396729 -5.729877 110.569130
27.426847 6.791195 144.707855
27.525017 2.257967 143.698074
-9.140499 -12.817945 88.302322
23.571220 -1.939963 139.990891
-4.351940 -8.956603 138.776611
15.938619 -4.002239 128.910858
16.086693 2.983563 74.946289
-14.081609 1.771621 114.743690
8.257235 -13.078119 96.932289
11.518282 7.298379 95.343674
2.579807 -8.868720 148.212845
10.481952 -9.461493 105.064323
-15.782201 -2.036844 83.187355
1.066170 -13.020636 103.363556
6.911708 -12.103666 87.376114
9.562431 -12.529081 86.995621
4.724182 -15.926150 118.944603
6.664300 6.377539 124.004723
9.700283 5.852539 76.406105
6.893287 9.123903 128.363251
-0.802915 -9.096301 144.632706
10.236534 3.800956 120.048088
-22.023579 1.268715 132.875427
-2.995241 4.668855 153.138123
-12.463022 2.288328 118.695282
9.929062 8.111939 81.614410
-28.433172 3.516129 133.041580
25.692320 5.495507 135.585358
-15.807343 -2.857523 130.849396
7.065606 -12.424990 114.697624
-4.609362 -7.138579 149.078552
-12.481228 -4.380752 113.626564
-9.282269 -11.295711 94.484009
-14.697575 2.012963 115.427788
10.598721 7.742191 132.010712
-14.910996 -6.288846 89.231880
11.494127 -10.950096 96.219238
29.960121 0.655561 127.798729
-13.216134 -3.156426 88.460899
-29.174763 6.918808 141.913712
25.498669 -2.804617 130.098526
-22.640383 -1.692655 137.682709
-24.621954 3.778451 145.508224
-11.124144 5.725671 85.280014
2.119219 -12.117242 139.618500
23.688011 4.663188 144.610291
0.305864 -13.463900 132.875549
-3.642817 -11.944343 134.965073
0.658748 -11.646860 140.564590
15.760499 -4.813696 81.387070
-7.857642 -7.019783 144.276749
12.982731 -2.034669 108.483086
-3.595783 -13.167083 125.827904
7.362347 0.592843 112.395218
-28.198282 5.351117 132.652267
15.047089 -9.109341 80.037483
24.675903 -0.529111 131.142242
21.892273 -0.558587 141.624130
-7.085988 -0.737410 147.233444
9.986731 4.668901 105.181877
-30.034405 -2.984384 131.854553
-0.389625 -13.142469 106.706985
4.793921 7.530645 129.248947
10.868932 -8.994602 127.586357
27.647345 6.411559 131.015823
-21.992083 3.405321 136.204330
-4.821245 -11.268468 111.280716
9.600990 8.901210 90.927330
1.252888 -14.090539 96.533859
3.691976 7.586536 146.249313
5.449311 9.300283 103.405479
-10.823586 -2.087455 147.182739
9.288030 2.083651 146.996353
13.617799 -7.175443 126.047722
-14.289067 6.486939 135.173340
-13.562534 -1.139830 104.354500
16.775600 -8.734443 76.789108
-23.670654 6.639484 141.804001
-7.600224 -5.892964 146.019226
-4.645069 -13.242392 130.031647
-2.716537 -14.359223 118.561287
-16.129866 -4.224979 89.862999
2.642321 8.159280 86.633591
2.126697 -12.853983 120.059479
-3.292741 7.096747 103.439812
16.308056 -7.049428 87.973213
3.384172 8.155287 101.588242
-12.076194 -7.121823 105.242371
-9.471906 11.581726 139.259918
7.648378 -12.863297 102.657448
-15.706090 -3.842924 131.238113
-8.465086 -4.856593 145.406754
7.911534 -11.546680 137.041962
-13.493158 7.041050 136.572601
5.960875 -6.518578 144.646240
-3.965898 -14.188062 133.212219
12.822606 6.864488 130.145355
-11.715681 0.759473 147.129135
-14.766870 -4.224200 129.098465
32.158062 7.299089 135.757935
-12.872979 -3.554173 112.091530
10.450198 3.189350 123.269241
-13.809352 -6.825013 129.858032
4.902061 -12.074853 112.861465
-23.303707 -1.565365 138.431213
-10.117361 -9.367529 98.681419
-13.417710 -6.379895 110.941277
11.273102 -1.401646 114.377312
11.705965 8.824734 100.592964
15.298280 -9.276452 79.193199
8.242807 -3.276444 148.962463
-6.407076 -4.530412 146.369751
-25.081972 -1.916426 137.520111
4.531484 -14.684518 119.995750
20.926731 5.535378 134.999252
15.975026 -7.507461 94.265221
29.683081 7.437775 141.760254
13.115649 2.108817 95.821205
-9.742591 5.285851 122.710785
-7.068130 9.051917 120.834976
-32.350029 -0.701082 142.608917
-16.429922 -2.810308 87.830170
21.978735 1.481417 145.097351
-8.175371 7.354479 83.805779
12.542477 4.127284 127.733162
-4.796570 -12.926925 93.809532
5.359791 -12.884972 94.288506
14.708387 3.418913 128.066452
-3.333687 -6.871709 145.276901
-0.626518 11.167457 126.783020
-4.688593 -12.520171 90.675163
-8.122383 -10.799345 121.462311
28.416088 5.050837 131.380127
-14.868082 0.543077 116.683411
-2.695543 -11.391369 95.975449
4.014993 9.215931 143.892059
-27.003347 4.004714 143.547226
6.560198 7.764992 81.158356
-12.216052 -7.767696 104.134323
-6.842509 7.723832 104.741653
-14.286021 -0.812524 78.022987
-19.117626 3.261620 144.676147
13.198773 3.646074 85.129807
-28.024017 -0.031861 127.963844
-11.392445 5.758760 92.583038
13.633759 4.021236 146.492233
-9.743090 -2.516625 147.648590
-15.038702 -4.535800 105.890457
-3.503017 -13.466470 105.623917
-14.202431 -4.096024 84.816269
-13.278596 2.888422 106.269867
-0.495653 -12.739763 129.252426
-14.954712 -8.708776 94.532135
-4.616115 -12.312900 117.894821
-8.839387 9.481682 89.528313
12.141825 5.445994 86.966942
-12.164199 -1.583526 103.269478
-4.236037 -12.552275 97.452057
6.162807 -11.853438 134.130890
30.056175 -3.955468 138.539246
-28.710482 2.108758 129.184402
6.938327 9.697707 132.210831
-11.873001 3.807032 115.787209
-3.786771 5.688535 106.698593
-6.960875 7.639090 82.897629
-13.509892 -1.154524 144.421448
7.493047 5.943021 102.092186
8.186870 9.772396 84.625641
-6.624325 -14.295927 125.776817
32.451687 6.024726 128.964493
-14.145926 0.896976 147.441574
14.654743 6.048424 132.653656
7.079108 -11.655463 119.645088
26.780293 6.663483 137.672989
0.233522 -12.053470 114.620361
-5.962228 -9.138412 137.565033
25.293135 -2.160518 132.294235
11.080232 -3.030281 112.409180
30.696392 7.464207 143.255615
-0.508678 -14.299646 112.130630
10.896006 -11.608925 86.106529
10.763787 4.612731 109.191933
16.499182 -7.413529 90.597374
-11.279063 8.337588 141.956726
21.589552 5.462247 145.191971
13.255105 -3.255675 109.394821
1.748713 -9.612724 139.589508
-28.113344 3.687032 128.894180
15.313568 -9.122599 94.520149
-15.316372 -6.755630 137.044800
-7.570485 -10.679905 90.914673
7.685876 6.022997 80.496460
2.888304 -11.772962 137.010559
7.028835 -13.492411 92.416664
3.515975 -7.194382 142.785522
7.339609 -10.156481 135.920166
-4.605029 11.182067 101.540596
9.401854 10.463758 132.642792
-2.203821 6.741010 78.838997
-13.481503 3.416542 103.091805
-11.204397 0.938071 121.223328
9.581726 -9.127826 124.018242
18.278275 -3.871297 138.182999
-1.881995 -13.692425 84.068596
9.652358 -12.740967 81.566185
9.624010 6.986445 71.407761
-14.425882 -3.864364 107.386780
-12.919166 6.876425 144.034134
-12.213446 -1.821108 106.228508
-12.950375 2.067697 94.789330
-10.915351 -12.390574 87.412468
0.251753 8.722199 123.255707
2.176388 7.238945 152.224106
9.968285 -8.834526 127.224525
-27.811975 -0.665086 128.023956
-25.869785 6.625686 136.327637
-7.310043 4.798581 116.931335
-10.194467 -10.357675 99.133072
8.623209 10.711923 92.006042
16.538321 -4.995457 137.445526
6.588256 7.933582 131.184586
16.126080 -5.365624 130.243225
-12.044787 3.575016 108.206352
-10.372217 8.210611 126.935379
5.902857 -12.532584 87.033981
8.807134 6.567689 113.256393
-27.034740 7.410110 139.853928
16.718428 1.476449 131.299759
16.452950 -2.545693 78.701157
-13.361263 -5.893898 109.107628
14.367455 5.324904 143.476227
-12.775921 2.454752 145.065399
-11.473855 -5.817072 114.793228
-1.277542 -13.581359 88.912491
-11.137603 0.264440 123.460876
-26.237423 -0.938343 144.160034
-3.666181 6.400816 77.357849
-20.505569 5.935629 143.675507
-2.172363 -11.942942 109.163612
1.880988 8.781592 112.471642
25.844254 0.175124 128.045258
6.598459 -10.280826 114.149071
2.581819 10.129397 98.801987
4.106291 9.073223 84.031960
0.097090 -12.011964 99.567726
16.722542 3.983829 133.126221
10.603926 -0.322208 147.122055
2.875452 -11.243900 137.994659
-3.434895 9.872731 90.656479
-4.106232 -14.299514 84.971191
27.941401 5.871488 143.917694
-2.449123 9.335498 145.868286
-12.010570 -7.327164 101.212120
14.355217 1.197125 78.832893
0.545310 -13.154998 108.089874
15.317719 -4.989645 135.826996
-22.327206 -1.058438 143.737778
-8.566516 -4.945456 147.188492
-3.906048 -14.136402 103.379272
2.375829 5.270387 152.781158
-4.449429 9.017900 79.024742
3.459319 -7.454299 148.177338
8.904215 -9.906080 122.655884
13.615902 -9.713423 133.337601
-0.960184 10.434002 106.132774
11.085273 -9.467180 131.185013
-10.784004 5.800520 101.023315
18.985390 -3.496509 135.868484
6.455901 6.608040 110.675758
9.447246 -10.883265 110.850502
27.372595 0.031691 144.095795
-5.886161 -14.310881 123.200737
-3.872433 -1.694471 149.637238
30.427629 4.212873 143.746277
29.819315 0.391274 145.047058
12.445966 1.497824 87.144714
-3.769673 -11.760442 120.822563
25.500265 4.183353 143.903061
-7.370528 -13.276194 86.293968
-16.978579 -8.636335 83.485939
-13.835155 -4.303164 117.276825
4.549446 6.451420 145.903946
-11.383849 -8.741460 127.059113
12.629743 8.594553 135.928299
-2.081834 -13.772229 132.283279
-11.697470 7.469767 141.737549
-14.718864 -2.579396 120.171959
4.734209 11.082931 91.665276
-9.426486 -7.807753 123.614792
-0.219868 -12.521789 115.955872
-15.374565 1.072561 143.437805
-15.149315 2.183216 146.369522
9.725359 -9.836349 135.355865
-6.551473 4.801278 117.057114
-12.537125 2.412300 82.084259
-12.264880 -4.831614 113.880295
0.797917 10.993386 103.259232
11.699646 6.572894 129.970993
-5.663794 -13.059928 126.848740
-9.742375 5.184792 77.305618
-15.708254 -3.310813 130.267105
11.389726 -10.579623 132.991013
-27.229513 -0.454035 131.979614
11.777990 3.304496 120.147102
10.582686 4.232521 124.937325
9.869041 6.051874 82.375359
2.518287 8.261180 141.630310
15.505855 3.685589 129.404770
-12.887271 7.959546 102.717094
-2.500386 9.891685 90.900307
-17.756491 6.635843 142.914215
3.965225 7.552048 110.748497
14.060262 4.456358 143.563568
3.061194 -13.229680 116.712753
-12.293917 -9.865900 84.637016
-1.314686 6.385313 105.665070
13.060251 -4.410095 102.319672
-14.009640 -2.060821 114.319229
-12.626608 1.722960 79.890244
-12.041264 8.297411 138.490295
6.146460 8.692986 123.623070
-6.870925 -10.660050 112.931953
-14.182242 -7.452179 78.301048
-7.715004 -12.064308 75.244789
21.326283 -2.568437 139.342010
11.378214 3.038743 105.195816
-15.280443 -2.852149 92.776398
13.903512 1.478027 86.152657
2.440443 -13.001503 109.768806
16.239014 -2.908115 139.201431
7.130054 -10.767594 120.929207
9.058540 3.724547 108.839134
14.783970 -2.259612 94.344711
24.532490 -2.814853 137.136841
-14.840722 -7.198818 98.444771
2.407099 9.795640 98.768799
-18.052359 -3.558218 139.807892
-9.018505 6.302527 121.473549
8.826796 -13.203066 100.802628
17.047800 -3.949290 133.896667
-2.792114 9.765437 136.723282
-11.328204 6.131180 144.299988
-2.597802 -4.762887 149.897949
2.900891 7.758317 101.963943
-6.724535 -12.242558 103.922249
-16.197250 -5.629148 86.738449
-3.013297 -11.478215 138.926132
1.942568 -9.489713 142.486862
-25.388365 -1.609951 141.123169
13.878756 -1.961578 145.808777
-15.356336 0.833165 132.790405
8.272868 -12.160199 117.540359
-12.922963 -5.095614 126.864555
-11.008957 5.839601 108.771217
26.631214 0.598335 127.673683
-2.247617 -14.531047 97.492165
-12.485929 -6.086883 120.198746
17.462214 6.907165 134.235443
-2.079843 10.829264 98.003845
30.646484 -1.710964 135.377838
12.236262 8.874847 141.783508
-9.597018 9.147522 124.832100
15.409254 -4.069309 130.202087
-27.161287 -3.202224 133.384155
-16.070335 -6.255260 78.557281
-16.305597 -2.846152 80.695946
-10.571916 -10.812587 95.331665
-12.326906 6.381128 130.219055
24.806049 7.075127 136.851212
-7.762388 8.918935 139.238419
16.278471 -5.471015 134.045639
7.421426 8.777829 90.729874
-1.022373 -14.827726 120.941917
10.849232 -12.378142 131.054428
-0.878869 -10.259372 94.378227
-15.503686 -4.905449 84.104752
5.055907 -11.826261 133.139252
-11.500598 1.979060 101.247910
5.809928 7.563001 104.078857
13.608958 -5.291340 104.370506
-13.171168 -8.643330 95.175774
4.449987 6.926485 84.168037
0.593430 -13.604120 118.656075
26.881842 -3.651120 134.611176
-1.817272 -14.627432 104.465179
6.200365 -12.317977 94.746239
15.758772 7.148635 139.071945
-12.227033 -5.694993 142.573349
12.683250 -6.518537 123.150322
-9.269489 6.404898 82.853966
5.460267 -12.093909 122.910896
-3.122633 -12.519286 93.952515
16.741388 4.677393 133.495132
-25.324978 2.219828 129.068924
1.770286 8.280708 96.950401
-16.947056 -2.128129 141.839935
-20.322107 7.740857 140.487946
-14.090307 -2.321027 127.849091
6.929636 1.963815 147.253967
2.034537 8.320346 78.357880
3.495217 8.136764 151.364960
-10.407784 -10.933338 101.495438
-10.600467 7.540169 99.735321
-16.080061 4.172948 129.272186
29.976574 1.082659 128.135971
-23.806162 -1.917008 132.979660
-26.289124 -2.293473 141.337753
-11.902787 5.031539 108.108620
-15.423418 -2.531263 75.926056
-11.334139 -11.352962 83.052589
-27.170210 -0.007052 143.528458
12.395272 -4.827192 122.867302
-12.275627 5.217415 108.912506
17.295023 1.565125 130.616989
-0.888497 10.308288 138.349548
-15.165627 -7.259481 92.503273
2.945896 8.827102 136.833939
17.858589 -1.606659 142.434708
15.345348 4.187443 145.465469
-1.021257 8.941299 127.292061
15.551546 2.241568 121.712112
-15.319670 3.800935 144.382751
27.151705 -2.042005 143.460999
0.520195 -12.058262 128.939377
-29.629845 -2.502256 133.506592
-23.091290 3.039146 136.432083
-4.462121 7.414402 143.893692
-30.382278 -0.454038 145.640915
-8.605633 2.595228 146.478424
6.539872 3.226976 108.065437
8.363154 5.363015 105.470825
-17.600765 -1.474892 132.527512
5.312138 8.697779 104.434967
-27.516237 -3.343935 139.190460
11.637651 2.469870 122.362526
13.760232 1.983791 78.933006
30.765125 9.615378 143.053391
6.087564 4.309332 148.881760
-0.747465 -11.839188 80.570992
-12.574342 0.579454 106.526741
16.749908 -6.752544 137.474457
1.692391 -14.599448 119.433167
11.241824 -7.448129 128.356064
0.355757 11.126825 94.022514
1.985938 9.522301 141.284286
17.833500 -3.020896 141.929337
-6.953189 8.101340 123.892372
31.290466 -1.168068 133.539749
15.403287 -9.383693 88.000961
-7.057106 -12.529112 92.906097
-16.368328 5.310479 134.996384
-2.939981 8.955429 78.841705
-22.947699 -1.780588 143.434860
-5.121202 10.498363 101.102745
25.890354 -2.985221 139.252289
-0.919749 10.238921 97.870331
-6.652658 9.537411 131.937805
-15.421382 -7.396577 140.032913
21.391796 -4.111167 140.105911
6.272743 10.361271 104.961411
16.909061 8.535777 140.833221
5.065682 2.684141 153.173615
-14.481861 -6.026655 82.043320
27.250576 -2.046238 135.906067
-7.375419 -12.799354 104.163437
-6.013204 8.993744 140.771423
15.332775 -1.178186 83.662064
-5.779507 -13.424541 86.247116
-10.721383 -7.284568 125.517036
-15.548075 -0.516512 116.765289
21.826534 -2.798561 129.018921
-0.984434 7.745015 145.699615
-5.282837 6.742321 97.648811
7.332072 9.469911 78.821815
-6.073281 -13.050401 121.047157
0.513403 -15.121303 109.628731
7.237347 9.473883 130.521606
21.781836 -2.601181 136.578140
11.121528 6.380049 85.982201
11.516315 1.977038 109.792656
-10.073311 -6.033711 139.385788
-28.809612 -2.560894 133.956085
6.547336 -7.710093 148.852448
3.065642 -10.994218 106.323402
-12.427406 0.937293 121.395515
3.145754 10.193695 140.339142
1.996756 9.632797 139.428009
11.038022 -12.870654 81.566490
-12.146928 6.524253 143.785065
12.839620 -11.305427 77.762749
6.628235 -8.903241 142.559479
25.291523 -2.448984 136.242508
13.274825 4.212267 98.693336
5.887927 8.813625 97.062408
11.264313 2.312523 102.494934
-11.561825 0.263120 105.269562
-5.386242 9.138634 119.218765
3.796998 6.382729 107.695793
19.672686 -2.991714 139.279266
-16.511456 -1.924350 88.956520
-1.305766 7.328812 84.877914
1.913399 9.290253 91.751633
-2.976679 -10.191223 136.884735
11.748161 4.814495 90.106125
7.342192 7.733141 121.494667
21.940994 4.428619 146.654480
7.184423 1.860825 153.444641
15.881455 9.902125 143.063171
23.226730 -0.525497 144.622070
6.423287 -7.051006 144.477737
-6.659716 8.798562 96.576927
16.844286 -1.624677 145.385666
-24.920074 5.745658 134.186020
-3.407609 -12.655173 96.764709
-8.424547 -5.871013 147.459671
-3.082352 -5.606743 148.357758
19.239058 3.018849 135.912720
-6.063485 -3.831179 148.586136
-15.184432 5.428355 145.366089
5.569091 4.226612 108.830872
7.864254 -10.796137 108.674751
-3.075650 7.850694 75.268044
-4.955881 -12.820065 103.716400
-16.056419 0.895268 145.017822
-13.750671 -6.141374 129.532745
4.300694 10.052000 122.490120
1.074353 8.802550 128.718872
-25.048916 1.857782 132.200500
-5.794299 -9.413662 99.191254
-14.956518 -4.571026 86.938721
-5.962023 6.444713 80.038368
9.689447 9.076357 142.442383
18.308329 -0.679647 127.094673
-25.288160 -2.919952 133.574219
6.867622 4.631204 118.369461
-11.393088 -5.871530 122.650688
-6.813762 8.047815 126.561264
14.060436 -0.513589 111.311028
8.667472 8.814385 99.947060
-6.339360 2.607726 115.821419
11.755992 2.750309 92.968651
-15.428372 -2.330855 82.225830
12.652291 -6.513956 131.859406
27.047607 -0.055693 131.230438
-9.117226 0.992546 148.510880
-5.065937 -2.843619 148.846451
13.186522 -8.932325 101.239784
6.352595 6.000223 114.991425
12.738184 -10.652703 96.726768
2.744415 7.908615 133.183441
11.506133 5.575259 106.727989
16.201439 6.682215 141.495804
5.826501 9.079602 94.509529
16.529268 -2.567435 129.688690
-15.496224 4.969405 138.377213
15.996293 0.734132 146.085175
-0.022248 -12.983364 122.653580
29.701586 1.384266 145.875656
-16.567905 -2.420750 134.644531
-1.467738 -11.411599 141.906143
14.835059 -0.676352 93.440720
-13.977278 -4.322237 115.350990
-6.299781 -11.849418 138.113235
30.025709 4.750717 130.167130
-7.418417 8.877191 88.012909
-30.067753 3.614933 146.080795
-7.009430 7.201764 123.594559
8.298245 -11.456957 121.025917
23.796803 4.614725 136.077972
-15.661262 -1.262463 116.688843
-7.580535 -10.444053 116.895462
-18.484768 1.359758 146.532120
6.381330 -11.843204 99.924957
-7.896252 -10.393468 129.982056
6.562251 -12.086800 87.153900
-18.936705 3.019443 143.513062
10.762653 -9.270875 102.888329
4.587899 -12.268010 117.691483
-4.797601 -10.863598 135.635818
-28.489309 0.247517 128.030411
-8.029719 8.536744 88.224442
-3.490030 11.111274 130.806839
-13.632679 -10.074706 87.514229
16.295443 -2.321280 75.892097
13.481948 -5.107472 125.541565
-27.573523 -3.940904 135.780716
32.134022 3.124956 145.798737
5.722464 9.619677 92.623566
14.457664 -0.170668 126.943565
-7.702202 -11.516415 118.880089
-13.991374 0.254838 98.750687
16.195868 -2.117739 144.343033
-14.132620 -6.846326 99.683891
-1.124016 -14.417144 111.663094
-28.564507 7.570127 138.190765
-6.782500 -11.347255 109.923035
4.148563 7.867337 130.039978
8.430389 6.772728 97.734367
-7.162641 -8.096014 141.498413
12.344461 -8.190219 102.418953
-8.755911 -12.326529 92.828903
8.322075 7.568359 100.865768
-5.904855 -10.579176 93.621185
-9.593040 4.873091 110.434280
29.515108 2.596658 130.560852
-29.164429 6.979899 144.684372
-11.752922 0.705697 122.779930
-12.307331 4.399137 105.728951
12.178866 -5.041330 104.645157
-26.409025 5.628545 144.227020
-29.433653 0.286449 142.803131
-14.557268 -0.450902 107.719093
2.834575 9.764098 87.640854
9.212115 9.428594 89.187973
26.929623 -1.406294 130.367676
-2.383864 -13.688191 116.009254
-30.433035 -1.083211 144.840286
7.385233 -14.607328 103.209679
30.370800 5.540792 140.342850
-18.477394 -2.471249 131.250671
0.461576 9.772299 94.003784
-5.476234 11.223497 127.293770
-2.950642 6.382344 107.900543
-13.099110 -4.038714 139.622635
27.210350 6.369444 134.158920
-27.884378 7.119204 134.330246
8.976917 -10.934670 134.580856
11.407645 -9.695889 91.221642
-0.483573 7.611098 111.517799
6.894149 7.613133 121.693443
27.304028 1.361243 144.644821
-27.901005 -0.911307 141.963135
-17.087250 2.700826 79.456810
-12.094795 7.439434 144.728012
-12.061232 2.813712 106.668159
16.863726 -5.204224 140.754517
-3.761068 -14.423053 83.070152
15.581560 -4.990734 83.897827
11.807933 4.136463 109.940941
-11.542472 -5.899641 143.575363
28.367336 -3.731729 134.008453
13.291418 0.300553 115.162720
27.307178 0.569727 124.848625
-1.979627 -12.722500 138.267380
-7.893267 -7.917708 143.134735
-3.211759 7.995502 142.778366
-12.297620 -6.018890 118.360634
21.968496 7.884557 141.292007
27.617060 5.096186 130.272293
9.454074 3.369931 111.007980
-32.129894 6.572285 140.985168
28.254705 3.728205 129.293289
28.690720 -1.105026 142.274353
-17.920694 -2.636688 133.049744
16.462879 4.997944 133.593338
-0.494954 6.250330 106.322403
0.644883 9.404808 103.218231
-23.872105 -2.496428 132.456284
4.784344 7.514885 145.427078
-2.322489 -12.040975 94.975998
-4.229023 -13.583776 85.339943
-4.021978 7.954134 105.481033
-9.888781 2.571677 121.944901
-14.015666 4.991866 103.429314
-7.656984 3.410483 145.143661
13.228606 -11.220407 81.310616
-14.468946 -8.303087 138.241364
-11.053265 8.694842 142.110550
29.585733 3.958754 131.678864
5.821667 -12.571867 102.265015
-10.834336 -7.455458 127.702858
-10.110611 3.709157 111.023651
-0.976516 10.680428 101.946495
-1.267073 11.305788 129.908951
12.822204 -3.612559 96.549232
1.015147 -15.714135 118.208031
3.911343 6.794558 127.773743
-18.412830 -5.344759 134.227554
-31.655115 -2.654896 143.876572
-6.128451 -11.348988 110.450859
-8.708162 9.090446 132.937195
15.000010 -5.273919 78.400429
-8.061537 7.463715 76.622772
-25.022125 -2.958631 135.471283
10.661115 -8.668399 101.158195
21.519258 2.642716 131.329117
29.728262 -3.762511 135.459488
-2.782050 -11.291149 116.972771
-0.462314 8.307038 78.831314
7.573170 4.382476 111.040833
-13.086420 9.518930 136.975220
-9.049575 -8.868187 116.559319
12.069970 -6.469649 122.180748
-5.553451 3.170521 110.027283
7.893854 -13.553498 106.852226
15.041422 5.428470 139.591690
24.761261 3.193706 133.711685
4.140060 6.146938 116.578354
25.523010 -2.955205 135.196701
4.233160 -11.947921 116.482811
-1.904505 9.660029 78.407181
-25.202785 -2.969672 140.073975
-15.095204 -5.650615 92.917267
11.352633 -9.702238 85.074287
0.288477 7.454056 83.950867
-10.657640 4.526601 110.537773
18.085308 1.507316 144.088043
-28.991888 6.526659 140.339844
-12.724145 5.757908 95.416199
9.186167 3.749212 106.942085
-5.863148 9.357973 90.754417
-4.846070 -14.115427 129.084930
27.821686 1.476454 144.097839
-1.481318 -14.481764 132.396271
5.011780 -13.875560 130.373489
-13.824433 -2.112670 106.491013
-6.804054 8.000089 139.649048
-4.105429 -13.927443 113.512329
3.590348 6.595981 105.190918
-7.384430 -15.224325 79.418900
-3.358541 -12.487095 92.364098
5.153847 4.650215 116.560371
8.487633 -9.597712 135.924377
27.372404 -1.052629 140.529953
-14.219799 -1.650924 129.864563
2.043578 -12.633272 125.880409
22.889647 6.866487 142.186356
2.708882 -10.964529 124.409042
20.604813 -3.076363 141.765945
1.755698 7.286262 142.581650
-1.696584 -12.831383 85.057968
6.019642 8.267562 142.800598
-16.030214 -5.631161 137.674957
-9.739531 -9.004549 124.228241
0.057983 8.350259 114.834061
3.764269 -10.186076 105.137085
-11.281094 5.274364 96.875084
-5.118060 9.812530 123.433388
-25.510637 6.949005 139.404846
-2.438928 9.872652 89.253822
-8.277251 7.208647 143.628403
-1.519088 -13.022036 123.308243
9.505255 2.637053 146.449905
9.471257 7.241550 97.612076
11.182098 -9.606417 104.007858
7.690287 9.238658 143.981155
-11.116621 4.873163 144.894394
-13.077394 -3.519136 102.812180
26.458265 -0.635673 128.022736
-4.596146 -13.332287 130.138885
8.557331 7.559228 120.622772
-7.712540 -6.802247 142.288483
-8.231725 -7.675444 143.831512
-7.653002 9.182336 130.578720
-1.229547 -8.176556 149.396027
7.025806 -12.796267 83.668678
-10.353224 1.001451 115.766983
-6.000936 -12.310694 93.185432
-0.810970 -13.346499 134.018875
6.735960 -12.693817 80.874435
7.176629 6.969769 127.169701
6.304201 5.743098 120.818893
14.381176 9.625320 138.750626
-8.553690 3.654395 147.860855
-23.914070 5.174839 137.228897
5.892368 -12.600294 108.921722
-19.310595 -2.822321 77.418037
-22.650497 0.520529 142.543564
-11.368925 4.187380 83.654488
-14.866835 -4.631603 133.998688
-12.398665 -6.770114 130.055954
-18.050915 -1.545064 144.105865
0.413700 -13.950541 138.569962
-27.744085 0.076822 128.181274
14.686188 3.315694 128.762848
1.896250 10.089907 146.184814
9.467752 -12.295050 90.632080
5.629338 -0.665362 150.995377
25.090628 3.635674 131.869934
13.416989 3.035588 92.067009
8.165168 7.058129 125.965904
3.948081 -13.727090 122.704361
13.102899 1.455697 120.860931
-12.631597 -8.415710 104.634712
13.641595 -10.840689 76.090454
-22.216022 0.380239 143.641510
18.089119 6.509109 138.829956
-10.672419 5.520871 84.405869
24.407488 3.870188 142.150146
14.593004 2.968408 89.148361
16.922651 -0.300983 143.328217
-10.562367 -8.827171 125.759872
-0.182893 -13.496482 94.898979
-14.546247 -5.830724 92.583450
-6.104365 8.266753 125.662804
-7.598170 6.715003 102.366898
-16.119038 -1.318205 92.620651
-12.800017 -4.145335 120.914116
27.359571 -2.304718 138.593704
17.025444 2.768020 102.202461
-11.773580 8.090964 143.398529
-6.662119 1.873974 114.860435
-5.147754 -15.238461 83.651794
-0.052965 8.213456 141.307449
-26.813023 -3.289586 138.919144
2.743545 -9.505767 149.782089
11.180164 10.033549 95.663506
-4.253619 12.025977 123.799858
-18.790936 4.298761 144.094681
-4.115397 -13.581303 90.906166
-24.210531 -3.658471 135.223785
-3.949188 -13.331612 95.792618
-29.928528 5.001477 143.944717
3.512363 7.598926 132.279572
9.154822 -6.862943 110.111229
-3.780172 -13.162151 83.629440
7.182875 1.938108 107.259430
5.714698 0.943124 150.004974
29.974976 2.261801 145.253464
-3.451725 -6.692453 148.545303
12.012256 1.019971 118.338112
-2.976705 -13.215342 98.070770
-30.027529 0.084975 140.409241
-0.832027 10.574453 127.490524
-15.971210 -7.155053 80.185593
11.788708 3.042494 116.894707
-0.476987 9.751995 79.974083
11.937490 8.110710 144.802933
-22.333633 -0.234672 142.161606
-3.875992 10.942251 124.317398
8.786495 7.168557 125.285751
-27.772398 -1.041811 129.449524
-6.401372 -13.146025 127.252426
9.282504 5.691659 112.973923
2.817235 8.129072 133.936676
-29.648193 4.627940 144.904465
2.899775 5.815908 151.464233
14.000433 1.351762 93.668137
12.772164 -5.261790 97.831528
-26.879856 2.949601 130.817947
-15.142331 -4.573013 94.905602
8.749288 4.719855 116.562424
12.692784 1.759817 96.175743
25.538412 4.101145 131.827087
13.322099 3.959841 144.169571
2.774953 -13.894971 135.114136
-22.955256 8.027358 141.615936
10.844457 -5.301371 116.142242
1.232286 7.348538 77.506096
-8.535718 -11.549571 88.308533
-7.265289 7.034412 145.514175
-14.526062 -0.892769 76.994408
9.353880 4.979972 107.020576
12.784516 3.435154 146.000992
-19.131048 -0.434753 134.940048
3.445199 -8.299573 107.041626
-8.659532 3.418773 114.866760
15.753757 -8.151915 101.893196
-28.754572 7.290967 141.627396
10.630283 -11.060591 80.360451
13.277462 -6.505750 124.149635
-25.689602 1.472602 144.874115
-6.596244 9.936407 130.201859
8.604437 7.411654 95.126038
-30.226311 4.171198 145.348709
17.511173 6.094255 138.158951
14.765059 -4.732998 141.587540
-0.279714 8.542157 86.966713
29.450058 -0.244866 127.314217
6.101277 -10.233283 127.060997
-29.458128 7.742267 135.602707
0.612581 3.436227 153.260956
-8.852541 -4.454793 149.560699
-12.504042 -3.271056 100.217499
-20.861996 2.107435 131.637344
3.475573 -12.244302 134.104477
16.798374 -3.842359 87.877823
5.387042 7.458464 147.345184
-0.175464 -12.962472 80.884659
-20.959560 -2.941943 135.088654
-11.241912 8.153761 136.329086
11.139145 -5.649328 116.100357
8.857201 6.055393 107.335350
-6.924613 -11.872983 104.840164
-4.845669 -12.863903 112.913452
-9.436492 -9.142360 109.624222
-7.775382 1.609348 147.412903
-23.757530 6.060700 142.785309
-9.896834 -1.094907 124.736046
4.585596 6.427684 148.186615
-27.354261 5.346147 133.432968
-7.892109 7.750138 131.559250
6.802580 6.722493 144.551712
-17.260334 -4.097599 133.941193
13.029507 1.233827 117.101234
4.415808 9.044156 87.517525
9.335052 -10.308964 112.104294
2.784470 -15.045359 128.228714
11.477387 8.811211 136.223862
-13.455916 3.055063 111.843208
9.538064 7.641378 129.333984
-1.644408 9.668786 104.794586
-15.013762 -10.238278 89.711212
24.336729 -2.387810 142.188705
7.085848 6.056056 108.132172
23.982147 0.061598 128.714661
17.480349 2.260823 132.641251
15.705552 -8.078231 87.605553
0.083444 -8.218648 144.168335
15.730844 -8.872769 82.760315
12.357356 -1.546857 98.714333
22.868774 -1.476670 143.720093
-1.889534 -13.398722 106.031021
-2.546046 3.936408 152.438843
7.866463 8.423589 126.715714
9.018921 -6.774552 138.728409
20.347483 6.125712 141.584167
-6.530630 -11.944557 123.576225
11.010858 -11.907844 89.325546
-27.401995 3.557706 144.263290
-1.221513 9.272950 92.286995
-1.811013 -12.305759 81.785767
-5.619965 -12.293464 115.103340
15.289151 7.735630 141.790817
1.133642 -14.187625 108.121170
7.137909 4.001443 147.384338
-10.602881 -10.154821 125.732552
-28.846436 -2.389527 139.023743
-12.186730 2.185656 118.664925
-3.696538 8.446350 87.090965
-17.567989 6.767959 138.261658
-1.270811 6.931206 151.380798
-5.095591 -4.909161 146.680618
3.752875 6.325453 109.277885
-14.319536 0.529218 146.503693
7.292877 8.343541 101.775444
31.405607 4.056202 145.717422
-11.248087 3.177578 122.525230
-5.821914 -12.739440 112.511253
11.704634 5.966693 125.496552
0.628135 -11.837040 142.745773
-6.686518 -12.884507 78.940727
-11.915512 -10.842176 103.392990
-15.292423 -1.683332 117.144203
11.852995 -0.360566 105.788826
-10.093489 6.224186 84.681580
-10.297952 -5.739461 140.286774
21.377399 5.663134 145.816711
2.753929 -6.292366 149.442932
22.104574 4.940416 143.297363
-12.506267 5.567768 86.016571
-23.187454 6.189917 139.371521
-13.658603 4.674943 130.827530
4.937480 -12.580128 78.971146
-7.386779 -6.426394 147.639542
10.185473 8.151895 92.445473
-10.372700 3.219565 81.892570
3.158704 -10.750578 139.328705
-13.511822 -0.146294 92.382645
1.688536 8.934475 101.185928
-2.633314 7.955401 147.472870
-17.940592 6.221921 141.225372
-7.873146 4.872804 110.930420
6.880164 6.359015 148.711182
-7.365851 6.618583 142.742081
-14.331822 -1.508584 120.065025
14.876515 -3.738589 79.212074
-12.719840 -5.803395 122.219574
10.627550 -6.895585 100.897118
-23.905369 4.787011 143.312164
-9.335363 -11.110942 114.805725
-8.455068 -12.327116 78.167465
12.489381 -9.245656 126.696541
0.706944 -10.853541 138.552002
-21.052917 6.457213 140.039444
2.608922 10.708791 85.972900
-8.139426 -10.434366 123.004623
-5.226925 -13.436816 97.123634
-16.237791 -5.918310 134.054382
-12.764843 -8.395843 138.305527
-12.750066 5.643169 99.074570
5.709119 11.155663 93.003876
-4.326279 3.602687 151.492081
7.752570 7.531696 147.466995
27.726809 6.454878 134.683731
-9.802337 -9.638866 121.765129
27.052998 4.002847 145.106888
14.549010 -6.182960 99.600128
7.058403 5.498600 104.730064
0.052985 -13.115610 123.914230
15.819120 6.716275 136.856247
31.677294 1.322710 145.340317
-12.210048 -3.062762 107.218521
-6.061841 -11.927800 108.177719
-4.503834 -12.728343 117.350616
-21.367556 4.339323 143.445648
-25.449514 6.960160 141.779404
1.383389 -10.300615 141.965195
-25.210030 4.932065 137.011688
12.103055 4.096751 108.006653
-10.641809 -5.409718 144.967224
-1.427778 -14.267967 109.782875
-8.439652 -14.268875 129.200958
-24.526594 0.617160 130.558243
-8.340009 -11.543930 132.492264
9.169004 -12.666622 92.306587
6.706249 7.713117 83.304482
-14.188231 3.214013 128.921890
-2.233487 -7.170207 145.984695
5.059245 6.571602 118.291008
-9.664967 -0.777822 148.734650
13.752597 0.437579 122.645851
-26.350901 5.040933 138.637268
14.716268 3.581607 144.223282
-16.990841 -0.039110 134.114456
13.891998 1.956857 92.080742
-13.492323 -7.700570 88.933235
-14.620037 -6.732455 87.665283
29.922134 8.547294 143.239563
5.595925 -12.335490 110.285316
6.820003 -11.528059 114.108841
14.792713 -8.032913 89.406761
26.947443 -2.665951 132.621704
-14.230357 -4.689809 108.944382
11.946465 3.630629 80.163162
8.591192 -10.681683 99.763077
3.466109 7.110193 111.355911
10.361944 -3.979946 108.440735
0.813097 -13.917043 125.933060
6.059289 -11.607430 135.656998
27.996971 8.589772 135.909897
-11.033363 -7.465994 108.234543
15.885513 8.199378 135.955841
16.082449 -2.293808 89.769958
-9.260575 8.366165 132.067886
1.096806 8.264884 117.025360
2.664159 6.397477 109.211662
-1.696635 11.093384 97.450798
-6.507709 -12.276149 108.187637
-3.181729 9.606096 142.492996
4.742604 5.822561 152.003464
23.791197 3.477471 131.742569
4.340985 1.163922 150.900818
-10.770428 -10.317046 135.396606
-8.795892 -10.281656 94.884354
28.648251 -3.338516 134.304535
-20.248314 -3.084969 139.261810
4.072546 -13.070171 106.144722
-5.792520 9.263448 91.197586
6.194319 -10.470809 133.280319
11.946941 3.850006 107.393509
-12.389404 1.908783 104.594032
6.817567 -13.525813 85.474678
-30.808006 4.555726 144.626907
4.283442 -5.522161 146.849762
9.789240 -11.321532 132.068771
11.890542 8.200515 91.734200
-3.205901 6.948104 105.286659
-4.075668 7.537292 119.571220
0.182351 -13.578165 98.701080
-1.504879 10.282496 119.722755
-20.040577 0.103418 146.577377
23.474346 2.388645 146.278275
10.868372 1.138956 146.346664
11.614530 2.300914 100.208405
13.873513 0.380495 85.000092
-13.728231 0.601127 74.026215
-12.502170 -7.960696 103.527054
5.653255 8.608269 106.179512
14.014434 4.300099 108.522255
1.836034 9.644481 116.673843
-7.721469 8.792379 102.778809
4.938643 3.955141 112.883385
18.848381 1.618219 145.542282
19.498945 -0.734561 144.262177
13.225780 -1.211648 83.000038
-15.409940 -6.757679 81.499626
7.662877 -9.225238 101.585831
-12.180788 -2.196557 103.728981
9.134068 -9.921488 117.205025
28.017818 6.928830 139.279922
-7.428893 -3.379169 151.254700
16.928808 -5.279500 88.916496
-12.055342 2.799981 144.231018
16.005928 0.705979 85.785370
26.179613 4.022229 134.990952
-28.296526 5.716419 134.275757
-14.433125 -0.905890 145.683868
18.067768 -0.983048 77.065506
5.996867 -13.710243 123.004692
15.996513 -0.125195 133.710831
21.666265 -1.710809 141.038712
3.384746 -10.499363 129.006683
-3.053401 7.322056 117.668480
2.334238 8.029618 144.988113
12.509024 -3.244617 111.220642
-6.844769 -13.917527 121.479630
-24.157202 -3.369028 136.697968
0.145104 8.016941 133.687271
6.833795 -7.993567 143.616028
3.191567 8.445199 121.174240
-22.029303 3.759552 136.255295
4.722167 7.804294 95.633682
12.186703 -2.927572 146.087296
14.242082 -6.672360 93.972076
-28.079359 4.595342 144.618210
-27.229456 6.283132 135.476776
3.160470 8.988686 81.987770
13.108703 -7.654030 97.406067
-5.588612 -5.874488 142.114914
4.995287 10.036040 93.121201
-10.306879 3.594679 84.650932
7.705968 9.635288 127.037582
13.523351 -7.831317 132.149780
-8.309334 6.445593 145.313950
-33.028908 7.195018 140.417938
1.259912 -13.910483 108.127243
-25.567614 5.341170 134.850662
5.243924 -15.063087 129.446655
-4.510085 -13.913048 84.783737
10.889286 -9.355803 103.440643
-10.066344 7.797114 134.702499
11.667217 4.396300 108.290024
-4.234427 -13.490076 109.209999
-8.387935 6.971135 96.452454
15.781362 -8.604383 75.669052
2.496405 -10.836095 138.651520
-9.273579 -4.594229 144.709274
-13.215200 9.032918 139.423904
7.758155 2.056312 110.946716
-2.709629 8.329087 118.468643
-11.536597 -7.372054 111.323799
-2.096053 -14.205227 109.658134
8.071843 -0.887690 147.945602
10.532990 -8.508382 102.829826
4.012976 8.051311 105.600212
22.087385 1.409665 130.378281
11.975585 1.792400 101.874290
0.245817 8.588122 89.396240
29.573509 4.482035 134.939697
9.236577 4.938366 123.143494
-2.509043 10.818769 137.083084
-19.548697 0.947755 144.387329
30.005898 -1.493900 137.358597
-10.654439 2.407632 112.244781
11.100883 -12.387627 82.908768
8.530621 9.733474 91.918190
-6.108113 -0.975469 149.166840
-14.882741 -4.867791 102.617004
-25.712891 3.609417 131.545425
-14.954047 -4.084090 123.112251
8.251503 -13.034101 93.523697
14.520169 9.173035 138.585205
9.696213 -9.221193 133.983032
2.975136 -11.946356 134.696503
31.762337 2.471885 145.770996
-3.476794 -14.176304 124.272987
-28.509005 4.427946 144.763794
-27.015953 -2.011560 130.470230
-13.993164 3.298793 83.973747
8.119636 5.493479 145.888504
29.730623 -0.753591 145.375671
-25.260826 6.237209 139.306396
2.375371 -13.194089 114.828224
30.937410 7.294495 141.128418
0.909979 -9.786501 139.997086
15.847845 -4.059149 89.323997
7.721402 10.580532 133.543884
8.209880 -10.732574 103.893776
8.648317 -10.337428 84.017303
5.451491 4.266108 118.900757
1.748940 10.153506 87.570206
21.380665 -6.111264 79.987427
12.629221 1.504657 89.531654
6.784403 -12.206437 106.729828
-12.900593 -8.464237 105.004745
-30.130751 6.983986 136.775696
-9.571915 9.482660 140.384323
-10.881567 -9.841558 108.314735
15.556847 -3.891850 139.616211
4.810678 6.821409 83.056915
26.832050 5.062722 131.064011
-21.125380 6.749417 140.784821
-25.298595 -1.076881 131.562973
-15.777958 0.743402 84.098541
3.218652 9.599285 90.192207
-9.519499 -7.334745 134.442139
-31.154139 1.001476 144.546051
-1.839699 -13.511572 80.029549
-16.289471 -3.823578 91.535332
-31.278704 2.850657 147.965652
-12.058701 6.383664 144.254715
-14.994497 6.818571 141.846481
12.496125 -10.391706 93.940453
2.614458 -13.194339 118.147545
-29.137629 8.029698 140.889191
-1.555784 -13.158117 94.689056
-3.295081 9.971636 82.666168
11.406034 -6.183374 141.256485
28.521532 1.047407 144.602005
-15.173874 -1.355937 147.419815
0.247867 10.728657 143.192383
-14.213759 -4.490158 127.680611
26.212446 3.038969 130.266434
4.677211 6.617303 131.913712
15.944225 -2.140437 92.858078
16.656893 6.096826 140.352676
12.328600 2.160813 117.283806
-23.236547 5.028226 144.180023
-12.462066 -5.841290 116.879555
15.634574 -4.947199 88.271927
-2.683077 -7.507268 149.204910
-3.248205 -14.097996 125.903839
-13.473825 1.242505 77.545204
6.132088 7.173111 147.091644
23.098465 2.560033 146.483658
2.260366 -14.329363 133.080643
6.233688 -6.608200 145.458588
-15.708853 7.835380 141.651566
-12.509084 -0.052028 122.424255
-14.676705 -2.106176 101.030792
16.721880 -3.265455 141.846878
8.573054 -8.552116 115.638290
-2.125809 4.230693 110.473152
-14.359977 0.560537 100.709129
8.750481 -8.871968 115.692810
-3.145453 12.580985 136.335693
17.652721 5.846810 134.553848
3.133474 11.445332 101.997284
4.439321 -5.172616 143.764526
11.742369 8.380096 131.395844
-5.135888 7.555405 116.860085
6.139918 7.380556 145.928101
3.041745 -6.708865 146.403564
-10.287889 -8.412312 137.868790
5.452649 7.077734 125.193138
-1.910782 -12.549183 121.075500
-17.499979 -4.771559 137.845001
13.762751 -7.137745 85.514709
5.867002 -11.861098 85.394852
4.303784 -15.645726 109.554863
27.820412 3.637192 147.096390
22.215425 -2.859775 131.086014
-2.345944 8.408508 146.446747
-15.441195 -2.982092 90.760048
-5.722553 -11.707825 119.925278
6.490064 0.665366 148.353348
-27.909008 0.029823 126.967209
-5.450505 -6.619566 143.995865
-3.481833 11.613788 141.283844
-0.265523 11.728094 133.570160
-12.328806 7.110306 91.417809
-1.745078 10.353766 105.338242
15.312773 -6.071047 88.101219
-13.588424 -6.625983 87.658363
-6.247653 -13.737692 83.269691
-4.669452 11.185011 140.831558
6.852398 4.103286 116.281563
10.444079 -7.448658 117.384033
-11.653736 1.574978 146.738129
-13.142303 3.594902 126.071648
13.562780 -2.910433 102.333199
-23.524473 -0.294137 141.947952
-15.797516 3.935797 135.742874
-12.251849 7.517041 141.921066
0.817257 -10.232101 140.233093
2.762702 -8.149739 141.282547
-8.776019 -10.010083 99.098343
-14.748723 1.589655 133.417389
3.305997 -8.648121 100.508827
-29.920134 -3.325984 144.377655
-13.673503 -2.585624 101.967941
-19.720831 3.612375 136.476227
-29.536278 6.855933 131.166245
15.724829 -0.468218 86.338211
-7.280519 3.898018 113.367561
3.298873 9.961429 103.654518
17.774883 5.194643 142.283524
2.086207 8.747484 133.494766
23.086432 -0.917074 130.976303
6.397758 -12.093751 111.139336
-10.214799 6.276629 110.200325
19.305666 6.234400 134.740875
-4.564677 4.754519 114.569756
4.302480 -9.417656 76.617271
28.825764 -3.521040 133.734497
-31.080563 1.443821 145.784973
-29.303114 1.671313 144.607864
6.958199 5.023250 108.887169
2.078753 -12.363985 135.287903
6.277276 -9.376103 135.233826
-14.939214 -6.965170 130.710907
-7.632652 -10.824837 135.417252
-8.501838 -8.620044 142.311432
27.624325 6.175904 132.911896
4.873281 -14.011420 112.205421
-7.531973 9.168973 134.957413
2.778075 10.208763 92.777107
-11.539549 -8.655632 108.201874
-20.578197 -1.803675 133.327560
5.321151 -0.959539 150.069168
3.522126 -13.698774 126.269295
8.439403 8.332953 142.181702
6.334373 -3.443543 150.802887
-10.900934 5.067180 146.393539
2.463940 6.959098 150.896622
6.751401 5.658288 114.647804
-11.641973 3.759856 106.572685
-5.103968 -11.858065 92.822319
22.946976 2.968122 136.448746
-20.493917 5.908496 138.855545
-15.224463 -1.838620 126.787315
9.790751 -2.803228 113.747002
-17.427589 -4.274215 134.274719
19.755444 2.065943 135.284683
-9.916006 7.862108 90.384689
27.303661 4.896657 144.419968
-24.086515 -1.844532 133.097031
15.305062 -4.978364 141.510437
-4.958942 7.701213 77.560158
-29.071859 3.117023 132.608612
-13.935287 -9.112308 94.689316
-0.996752 9.866157 133.404984
-29.207558 4.980356 135.312775
-13.936837 4.281609 89.444656
-1.698422 -14.250037 98.731224
20.092226 3.141071 144.827744
14.267963 4.851050 96.677010
-26.229189 4.283576 132.182571
7.070505 -15.900747 77.628120
8.384606 10.494114 132.517639
17.036167 -5.723737 140.230728
8.880098 -11.203875 102.596512
3.934680 8.631539 95.942406
-3.911513 -11.582138 116.455658
11.763155 -10.489440 135.984772
-0.738602 10.552070 123.497360
2.475871 10.211125 80.879501
-6.069470 -8.915440 142.070663
-3.952887 -9.885373 140.715012
-10.454665 -11.636600 78.520325
5.185642 10.037513 98.279259
-11.045794 1.743475 120.761559
7.319808 5.605736 147.688492
-0.274011 -14.007134 101.805038
-15.603154 -0.454288 79.320976
5.212555 9.724953 140.424545
9.429759 5.503863 122.185799
2.677093 -12.692575 113.692841
-1.900149 -13.215814 104.820488
2.527215 -13.517793 122.478333
28.011440 7.630586 141.071869
7.278249 5.956892 105.394577
6.764714 7.414079 77.642830
11.864812 7.541830 138.754288
-16.833912 2.571214 142.599167
12.407388 7.104191 77.980217
-1.340816 -12.664481 79.772453
-6.432278 7.021893 118.607796
-15.268750 -3.160264 112.624939
9.215776 -11.035185 88.028328
-5.045850 -7.712905 142.708191
4.461267 8.772464 106.987625
-11.929171 -8.547843 110.537193
-3.365761 6.776610 85.103699
-21.614445 -4.319625 142.079498
-8.027962 -3.053452 150.509689
15.268469 -7.451601 136.262817
11.853794 0.385672 116.441498
-15.350133 -3.695070 118.064949
-23.102835 4.871082 143.598373
-4.081179 -13.224887 91.841324
0.704698 -14.852408 136.494644
1.182244 -13.726824 132.933167
5.675421 6.473668 101.932907
-9.676765 -9.138003 99.990982
13.988799 6.359188 128.973129
-18.620680 4.211400 135.409164
5.555038 8.290693 132.830643
12.183126 -1.033280 109.002136
-9.872016 -9.925576 124.128021
-20.333599 4.284080 135.546951
-5.434360 -13.843972 131.562332
-3.726826 6.940859 144.368835
9.022148 2.901391 123.226311
12.916383 -0.598233 102.858543
9.576398 -11.532793 114.359375
-3.467487 5.272560 105.733124
10.645232 5.031103 100.540375
-4.340462 -13.285172 107.776779
2.795742 -13.287971 118.468689
-7.284142 5.892292 119.167450
-24.496630 1.440596 130.216202
12.783958 3.486188 95.107689
17.822496 8.658119 140.323318
6.592861 3.610464 149.521362
9.483110 7.436471 84.611694
-13.599117 -2.598454 121.675499
-8.540368 10.896220 137.036285
-4.747788 9.565199 93.482155
15.572380 -6.057558 135.521362
1.144228 8.259571 134.558380
-5.128778 8.805506 86.507713
-5.333594 2.488847 152.388611
12.769593 3.275194 78.296890
-16.723478 -3.124783 140.230011
12.776348 -8.743437 87.677162
-11.123341 -10.590324 97.738045
8.284109 -3.759842 143.790405
-9.773237 -10.705662 102.657379
-1.033084 6.940383 149.559845
-9.156119 -8.368354 113.883499
-12.934653 4.162016 96.284836
-27.888641 -2.975347 134.545166
8.211680 10.077687 134.726120
5.768078 -3.522446 149.984467
3.050240 9.476490 104.829056
3.836311 10.032873 85.817772
10.466737 6.158444 121.801979
-5.470207 -10.184337 119.171036
-14.916362 6.659526 132.205566
4.103396 -15.077965 100.218552
-0.380644 -13.849079 107.868179
27.004595 6.873233 132.283783
6.993853 2.573765 151.940369
-10.981751 5.977434 140.579086
3.540661 -6.103786 145.838577
13.164893 -6.982476 129.587479
18.895359 -0.576618 142.439026
-5.222909 6.814877 142.023026
-23.577545 -1.937758 139.429947
-10.769391 8.203329 141.902039
11.937977 -9.402694 100.213745
5.609736 -10.994597 119.488075
-14.738247 -1.445398 97.470657
-14.847274 5.250039 144.135376
28.002920 5.304291 131.615280
-6.323231 10.879313 137.200851
-0.595367 -14.446390 77.838821
-12.995497 -6.035844 99.653564
12.071670 1.080904 112.765625
-13.592917 8.455048 133.741592
-11.072124 5.415612 79.595985
15.980847 5.299678 131.973389
12.239201 4.305979 95.472336
3.986022 6.879750 77.502220
3.430086 -9.626789 116.076088
1.416013 -14.122811 110.582825
6.227549 -1.611620 145.545410
-7.782841 9.453715 87.352226
-28.328869 7.564471 143.332703
12.206796 -5.201065 130.382095
-16.220016 0.402032 89.582336
10.573968 -4.118770 145.879196
-10.892101 4.445554 83.677811
-16.311581 4.911326 131.111755
14.570440 -0.153634 112.749229
-12.998116 -2.189313 119.832085
1.527727 -11.162663 82.570633
12.936716 2.141371 104.141327
5.591533 -9.255683 141.183487
12.479437 6.569548 140.805847
-7.290739 9.447763 87.511635
13.357562 0.350243 119.301292
4.760803 5.970051 112.338356
-12.191145 -7.029774 121.821266
28.073238 -2.977707 142.150589
12.210730 2.162268 96.640518
13.999461 1.398723 88.412079
16.237856 -4.237262 131.999191
2.950153 -13.736640 105.671478
-11.639896 -7.092645 112.620087
-10.649194 -9.874627 110.657578
4.702637 -8.842425 147.267181
16.597603 -5.526486 84.813232
9.388489 2.871762 117.704536
-4.834448 4.323963 112.917221
1.104952 6.884760 113.404694
-2.018006 -11.838213 116.222305
7.799822 5.218101 77.501137
14.453992 -6.852589 98.688530
0.343917 7.455338 126.448174
-29.372637 -1.794405 140.177017
10.095679 7.497625 142.339249
5.137316 8.808406 146.557693
10.015025 7.934337 133.827454
-3.223269 -15.094870 76.821594
2.022751 -9.605616 136.685455
-19.954222 -4.271870 141.516678
12.011301 -2.912490 110.502090
24.649982 -2.695767 139.935730
-8.507437 7.277445 122.034645
-5.645051 7.935605 79.124550
-8.691568 -8.664466 124.661865
17.739979 2.746603 132.091827
-6.805573 0.430968 152.531540
-23.047840 1.678787 130.675079
-13.037341 4.405074 96.810028
-16.926300 2.763218 131.642639
11.151451 -10.340924 85.538498
9.143761 -8.202376 115.695938
14.381517 -5.649162 94.306053
-7.738945 6.490896 108.186012
15.266743 -9.949965 85.090530
28.670479 -2.852361 131.295914
3.244666 -14.656286 97.176666
7.571848 4.755018 113.782883
14.104063 -4.064842 131.285156
-6.768891 -4.860367 145.503448
7.289001 5.933374 105.171974
6.685835 7.558972 98.620316
-15.694870 -0.323402 120.348778
-6.633669 -10.154726 111.491104
9.852265 3.882876 116.725784
-11.305987 -7.337620 106.530533
18.552826 5.251367 145.005844
-5.728516 -4.320757 151.776535
9.838934 2.995958 146.341171
-5.752278 9.814362 124.112404
4.869967 8.475233 124.283394
-29.208864 -1.666282 135.201584
1.841313 9.551477 86.700294
-16.757395 -4.877553 137.902313
-27.060602 3.893674 133.780396
11.311542 8.445537 126.903580
23.826502 -0.364695 134.996124
14.197076 2.360783 92.160789
-13.947138 -0.438394 120.434875
-18.103153 -1.187728 145.109131
12.217437 -7.547010 123.430939
-0.000845 -15.221901 83.652222
22.785583 1.670439 131.787369
9.121117 8.446780 98.501091
-14.677213 7.223945 136.881149
29.884512 4.114408 130.632050
-16.369333 -2.588563 137.899918
-9.153352 -3.382359 143.962692
-7.276878 5.930848 118.354126
1.791573 7.521795 147.044281
1.229647 -13.592039 128.528229
-8.417989 -9.294299 116.102173
9.409499 -7.366024 128.381042
-23.768551 -2.875996 135.742249
-11.317938 2.046384 103.454460
12.502710 8.593272 124.486580
-5.337046 10.312960 97.856773
7.573535 3.992532 120.765472
-9.623068 8.423690 143.147003
27.330004 5.882419 144.285660
21.646574 -0.947451 134.106445
1.319902 6.375606 117.497894
-14.772075 -4.589246 87.233078
10.605993 4.789772 119.629570
-8.733009 -11.863118 117.859230
-31.982777 3.864162 145.775574
7.029903 9.362217 100.151558
8.496612 -10.655547 119.353424
8.558889 -8.935261 113.453285
-9.882678 6.476114 101.234741
18.526466 7.508982 139.300446
26.732901 0.916610 142.740234
3.763126 -14.997980 78.448952
-23.091484 2.912529 135.234818
-12.257792 -9.915252 94.322105
-9.942297 7.496075 85.862785
16.850780 -2.050606 132.541901
5.275694 9.086309 95.085526
-28.796686 -4.724864 140.111557
3.311092 -11.711185 108.833389
-14.705568 -2.766084 83.102386
14.616473 8.225107 136.282028
30.236748 -0.020727 125.444626
-28.177946 -2.517131 139.415207
-0.000101 8.857347 81.150269
-29.685564 6.951955 142.939346
5.030232 9.445143 140.243240
21.542021 6.040242 142.662155
12.297581 3.342680 125.634674
-13.118359 0.897324 89.575974
29.481377 6.474192 134.363861
17.182856 -7.455840 140.730927
1.127816 11.374766 103.448746
7.425601 9.490301 75.601295
8.902199 9.342038 141.392075
-25.928221 -2.827031 135.252121
29.356285 -2.240584 141.513763
12.630301 9.922395 139.805954
5.586928 -11.086332 114.409225
-13.652210 -5.340041 142.741562
-8.062714 8.414633 140.926163
-9.658222 5.784624 86.901207
0.591150 7.273629 144.385605
13.527999 -7.984377 135.969086
12.057054 -1.435322 115.095703
30.470819 3.220181 144.573364
14.070107 -8.298659 89.309425
-4.748205 -12.611692 123.007484
-5.362375 -0.601570 150.280945
-26.092648 3.743028 132.438370
-13.172024 7.108564 139.084763
5.643012 4.462815 153.230560
6.624973 -13.764373 89.674232
25.512617 -3.728673 135.501602
8.622069 -9.245400 122.197250
23.472111 7.000719 138.539276
16.521980 5.127926 145.848694
-9.052090 -6.333195 144.681961
-0.611297 10.318959 93.630722
14.471551 -4.388306 94.913063
8.062032 -13.378498 99.294807
-3.854624 -14.224367 94.757492
-21.516672 -2.032907 138.154663
-1.358077 8.123728 102.483986
-19.887686 5.254606 137.047440
-15.867609 0.709303 146.752060
6.522018 -3.171344 147.505188
-13.848854 2.450718 95.196609
8.333136 -12.272589 90.412788
-3.280311 -12.636561 101.770531
8.250060 3.245969 120.709587
21.375956 2.355892 145.440994
12.205388 2.672395 124.097443
1.048222 7.795928 151.262405
-10.029898 8.410886 136.330399
-12.036775 1.605063 113.782516
-7.885101 9.184566 142.868423
4.965918 10.002443 92.160912
-13.751232 -9.057427 96.707916
16.220781 -9.105187 77.150337
-11.825737 3.165034 96.615807
-15.946003 -1.217890 103.633911
6.559963 7.868865 91.502037
0.649221 8.761436 92.840263
-4.857280 9.503080 89.549812
-16.335375 -0.435937 81.230766
12.159482 3.391294 87.987404
17.489347 -1.068634 145.562622
-19.963608 9.221677 138.287155
17.048183 -1.830162 130.845718
-14.637115 -2.337366 101.423599
4.514499 -14.776259 127.789474
-20.104893 -4.085538 140.084732
10.057362 -9.866588 119.580429
25.819271 4.629019 144.755051
-30.842306 7.486534 136.830017
4.544558 7.648794 139.894592
-2.757922 3.343261 150.302353
-6.723231 2.773080 146.768234
13.415780 -10.465368 94.596069
14.492376 -7.172940 130.659805
15.979468 -0.091720 146.935928
-12.175374 -4.844645 111.066490
-21.981470 -1.092515 133.766312
11.662184 4.798863 117.734360
28.842073 6.680147 142.113907
13.209366 -4.040892 124.286537
18.564156 1.301007 131.945587
-3.497081 -5.940399 145.455765
6.961351 -1.601598 149.263336
-25.003897 -0.009390 129.828583
-4.526469 11.549644 139.754684
-5.626486 -4.541928 149.708939
-4.600529 -12.374557 94.909447
-5.934184 2.477512 146.560181
10.799804 5.571930 78.851921
-11.837980 8.498743 132.639053
12.455114 -7.002702 137.930405
-1.157379 7.474359 81.181114
-3.307117 8.689569 139.046432
-16.011648 3.430740 135.256973
11.740079 -4.755013 97.719185
28.274227 2.752260 127.825478
28.634977 5.727984 139.418625
-16.760225 3.184206 144.343262
5.837084 -11.069773 117.558891
-11.233755 -1.360985 126.351013
-1.229576 -14.286657 94.971558
13.151056 -10.594400 88.499092
-13.888626 -1.420299 88.831146
-12.243983 3.545297 100.143593
-28.885262 2.863914 144.485428
3.303756 8.582042 128.459839
-7.639326 6.096991 108.001335
-10.042269 -13.600654 91.821289
-4.678143 9.841079 142.763153
-11.181829 -9.770605 101.519066
6.973691 -3.790080 148.218964
-6.830926 8.287236 83.123917
-15.074436 1.730559 95.714722
13.425971 4.887149 106.579079
19.675604 1.430677 135.824905
14.033674 -6.129307 95.008614
13.842101 -8.632279 135.078674
-8.048223 9.522010 139.274094
-20.242939 -0.471222 128.982712
-9.722890 -9.870903 100.551811
-0.837841 10.728499 128.227295
-26.734592 2.702345 128.260651
21.983341 -1.949917 142.080750
0.888963 8.257973 147.134338
16.959135 -4.843209 79.936493
13.627945 2.198305 120.871849
-23.935575 2.772370 138.162979
15.407181 -4.202334 140.419495
16.348011 5.212117 145.632126
27.507135 1.248188 145.749863
12.674410 0.369780 95.827332
-18.356010 -1.280604 79.270538
-10.060168 8.238188 93.813660
5.421543 10.742849 95.731461
9.224500 5.711053 145.616364
-24.233505 1.787841 137.090652
14.580411 -7.263130 93.195686
-13.555008 -9.448723 90.343323
-5.231002 2.127482 146.757141
-11.152237 -5.788313 122.747864
9.543245 5.053718 106.010490
-1.562735 -12.966588 135.192291
-23.116016 3.417885 133.005096
-29.977036 7.468742 137.744873
-19.140877 5.921384 135.107544
7.859955 -4.396058 146.096176
2.954108 8.931522 129.623505
-20.834848 -0.483009 144.214478
-2.616062 -7.971575 144.315720
-4.141120 -11.945395 129.103043
27.392494 7.738299 140.120773
18.169996 3.114922 145.128494
22.319841 3.068923 137.166763
-11.392612 5.584039 79.096443
0.983502 -12.370131 134.013565
6.890041 10.147508 136.650391
-13.232117 9.423190 135.118347
11.815003 2.868268 124.005447
13.179044 -2.680308 147.045364
