ply
format ascii 1.0
element vertex 2048
property float x
property float y
property float z
end_header
-19.092360 -10.548334 47.438148
-5.922964 -12.236270 93.212891
9.645987 9.389898 47.844273
24.254099 3.130999 50.241272
6.203359 -14.790146 91.272141
5.901087 -14.413112 85.592094
11.914444 9.062733 64.372635
0.513541 -8.262198 31.650455
20.769390 -1.719074 70.004707
-3.004578 -19.523447 44.280426
-17.736870 7.786528 80.266571
10.030751 22.322767 36.362766
15.392564 7.669087 63.155304
-3.341840 -8.951166 47.949436
-14.225173 18.613266 68.103935
-13.745481 14.813886 59.496483
-4.545158 -17.933477 45.563889
6.163413 -13.937633 100.301247
-21.043362 -1.700286 84.347519
-18.549643 10.736854 37.903641
-16.111687 12.498207 81.041672
6.315135 9.919675 68.415154
26.354898 3.299075 44.973785
-18.619661 -7.123120 84.571297
18.563988 6.961698 102.988129
0.143680 16.897163 73.292519
-5.933346 -15.263066 38.213863
0.175673 11.312994 46.287941
-3.217046 -15.077103 79.276985
16.848557 -15.536600 59.686775
-8.820174 -18.448620 70.785378
-19.333635 0.095979 77.344604
-2.972377 -15.266930 84.536102
-8.991625 -9.564464 120.194328
-11.491302 16.141113 54.560001
33.555168 1.520795 44.385185
-21.203167 12.797680 81.663055
22.145348 21.586712 41.966518
17.443462 -12.357134 50.620007
28.724102 1.695648 67.632370
-20.744989 -3.731964 50.075470
-6.896408 -14.896460 53.555809
-13.470231 -22.476343 31.621006
3.233298 8.030389 34.153107
-4.709931 8.726108 104.917740
-13.438893 19.933784 37.369370
6.217853 -10.334774 105.363167
-20.339716 -4.413162 94.616592
20.254684 -0.001841 53.001862
-12.106581 16.248449 67.584320
30.058577 -0.269506 58.536682
-9.649351 8.459792 49.291367
-5.734784 -14.641018 76.730667
-9.018006 18.800985 43.013046
-4.234659 -9.868433 99.836929
-3.640735 14.674614 85.680115
11.069965 12.595889 86.599098
4.566243 14.374297 66.493217
-25.665001 2.747945 56.165817
31.726702 2.468330 48.117607
20.081915 11.856054 89.711876
5.290712 -17.429974 45.161366
-17.095119 6.595331 89.233070
22.510805 11.081791 43.950977
-29.946806 1.900745 62.579838
-20.514648 -12.282393 55.432911
10.213552 -8.927578 114.842125
2.992324 16.935564 53.423260
26.548790 1.088363 79.071999
4.356066 -14.028083 61.758839
-7.062735 -17.160727 40.050987
3.809516 -14.203191 34.416481
-16.949261 -11.316202 86.241882
17.769827 -16.828793 44.313313
-31.495646 4.659934 50.326534
-13.861698 -20.137718 54.375656
24.841490 4.144200 63.020954
-3.924506 21.047617 61.232841
-0.835154 -17.696259 93.145103
-5.240109 -16.730509 82.088104
18.699753 -7.458554 74.116089
3.202411 -12.305524 113.953751
-10.544177 25.420139 39.437420
18.740650 -12.579331 56.374538
-2.930707 -13.126158 89.619453
-6.707824 -11.761926 119.736237
-5.012150 -11.949605 96.596428
4.668165 -9.808684 35.958958
1.366240 -6.941809 49.241768
19.831631 14.999096 68.040276
0.069934 17.931303 74.728279
-17.547331 -5.333972 43.761520
-6.807063 18.023174 81.955139
-13.241652 12.675785 50.664680
-15.395612 9.501760 92.034492
-4.534824 -13.213391 85.836838
2.712981 -14.219774 101.805298
-5.233194 -19.710091 35.277687
-12.549019 17.910267 73.043350
-3.045480 -11.350221 77.447868
13.097793 -17.522678 83.202744
3.519159 6.218557 111.551361
-15.743865 -5.756005 102.765816
5.838595 6.380600 112.925911
-3.978185 18.864944 63.840828
6.822187 -17.772808 56.530075
-6.022602 -16.463528 64.231491
-6.613171 -10.703771 72.048676
-22.894220 4.606659 43.884476
-17.847588 13.967551 58.369965
-21.958736 0.278463 53.908382
-12.598708 9.962395 66.098122
-17.842035 -10.636147 59.797848
-14.505660 17.143456 65.605515
1.440265 16.486670 56.899330
17.813503 6.259988 100.263817
2.860947 -19.480961 36.264996
-13.434703 12.774200 82.247787
17.012655 -0.208445 108.461311
-5.865007 4.416337 118.125107
-16.366251 7.185416 96.378822
-20.251915 -8.136890 72.759636
23.334932 9.651848 55.539944
-12.406566 13.958644 85.011047
-7.035429 3.625654 114.868477
19.128048 9.134334 86.269661
2.349601 14.488898 75.003670
17.159269 -14.681539 66.109016
-14.635429 12.781238 67.057457
18.944382 -5.654562 40.119751
18.185850 -2.977000 96.217598
-16.272783 18.506578 64.858116
-6.424320 -12.715105 57.626450
22.070938 12.798656 57.368996
-18.048452 -15.962738 42.972343
-3.212212 -9.136538 76.378143
-15.661909 17.573040 37.442043
20.106197 -2.302017 66.485306
5.745936 -18.576849 60.059547
7.094417 -10.733601 114.974472
7.225268 -6.536432 36.223053
10.409736 24.680962 39.215637
-23.431709 3.092615 88.089081
1.544807 9.123212 33.891987
-9.171306 8.604611 34.623951
6.680498 20.158913 62.624252
0.473513 16.018415 92.426743
-9.384986 18.737354 68.865402
3.310624 10.199132 58.526371
14.245744 -17.565556 61.877773
-5.577844 -9.420061 49.981358
15.892055 10.721727 52.653847
-12.184240 -19.433527 68.470177
-22.554295 6.996076 81.339668
21.857485 15.829974 56.390484
-10.074482 15.675164 53.029140
-16.144238 11.647436 70.531822
-14.550331 11.467356 69.731056
2.162194 6.976698 54.104568
21.581408 13.215554 69.388947
9.176754 11.724480 72.088799
20.245354 -1.204647 102.156097
-20.948885 9.626717 67.886269
-16.792257 -11.727409 58.881901
-5.348380 -20.465071 30.841410
7.554086 -9.576987 108.595802
8.108190 -12.863955 107.642891
1.147841 -9.724215 54.039165
-16.438730 -9.883034 90.895943
25.289946 -0.038076 48.219913
-28.702887 4.147951 41.586288
-4.475256 -11.126122 119.842545
12.967107 -6.116734 117.743736
2.406758 -12.106395 97.434143
-4.847771 12.495756 95.671875
0.382392 -12.525644 103.014969
11.795369 -5.190055 118.227608
-4.697616 9.900507 106.140923
29.396257 3.326756 49.430779
-11.950175 23.066168 46.969410
29.127455 1.050083 65.310028
-21.291208 12.019004 67.829201
-1.198398 21.768728 50.135944
17.625528 -16.211288 59.425911
20.803137 12.009056 85.931221
-32.959339 5.678563 48.051174
-20.634800 16.949886 47.466908
19.791313 -8.663399 79.975670
18.626280 -10.239992 54.311344
-4.457090 -7.201765 64.890007
-16.590187 -14.521758 59.804802
-7.064846 -13.820233 71.348442
6.283384 -15.776564 83.993530
33.487129 1.341319 39.625912
2.792624 17.378336 69.032059
20.174109 -2.092892 89.917595
2.415439 8.580264 39.471451
-3.879201 -11.500999 107.530380
2.394557 -10.910249 48.926338
3.770217 -9.927378 89.731850
18.036253 -1.572806 102.035919
20.034954 -8.865002 58.150108
-0.543243 17.324507 51.501038
4.377570 -16.450600 38.205261
5.826532 -18.345402 36.033222
3.152251 -6.397160 62.760792
3.623977 19.513407 63.860172
-12.768312 -2.634946 120.175964
-4.843156 -14.592370 85.619156
-2.761359 -7.312526 34.530766
16.165770 -14.322978 66.792824
-0.389003 -12.930234 115.859726
17.719015 -6.585036 97.054268
15.222118 7.452009 94.005379
-1.972414 13.595677 93.015617
20.802631 8.366054 92.959862
-8.498719 24.098169 41.623787
-3.081356 23.213783 34.532333
-16.691498 -5.623421 80.806473
-20.674709 20.620249 40.659100
-1.110918 20.721996 43.780636
-19.288950 -7.121470 84.288734
4.764420 -17.002640 37.812210
-21.637737 16.531300 40.118473
-8.471145 -18.007803 38.517853
-14.305626 14.035787 60.520828
18.252392 -10.123160 80.654114
-17.844584 13.610988 80.923721
-4.770863 -11.718100 67.376404
-13.482207 13.597278 58.738159
5.981742 -17.717329 33.553452
13.697919 -14.384048 75.979050
-27.855904 4.328032 64.016312
2.557929 -19.520407 66.311165
0.702844 -16.986492 48.081154
-14.158342 12.460142 73.843727
-7.195414 24.129168 45.906261
16.150572 -8.510800 86.079254
19.910400 9.523397 93.249405
23.926062 14.105694 66.048630
-13.269429 13.168693 73.170761
-21.177916 13.467412 58.284416
5.456031 9.008734 38.952549
6.777168 18.874247 71.436516
7.634994 -8.818707 66.467934
17.246643 1.746682 108.647804
8.574722 9.587919 53.871292
17.301136 2.313543 92.016808
-10.634043 10.395571 47.894615
19.203739 17.165894 59.136593
-6.716660 -11.325560 35.053909
-12.705223 15.828785 52.414570
-10.547759 -9.278009 108.761505
6.657340 -19.527605 36.298424
23.195759 -2.723594 71.596664
2.340913 8.798081 106.976227
4.219670 -16.798906 39.524265
-4.217774 -16.916613 91.408524
-7.300251 4.120613 114.062729
-5.875432 -11.669891 100.513290
7.421443 -8.737887 116.123131
2.033853 13.240346 70.301773
5.559779 -10.653445 68.203926
-4.738626 -14.539562 50.583630
20.549555 -1.338985 77.847839
-14.514333 16.382793 76.815506
25.581186 1.599843 75.896217
1.802947 -20.679914 78.718727
18.194080 -7.468053 70.901192
14.502705 -20.560059 31.762899
-11.196100 21.461069 60.428463
1.085002 18.061077 37.544506
6.581097 -20.812412 39.810719
3.450429 -17.212658 42.977940
20.878508 11.873096 86.863403
-10.070682 15.651120 92.952263
-19.105051 -12.679958 76.130554
10.503668 6.652653 55.752499
-19.964249 4.320041 87.413704
-0.595066 -22.087154 38.026707
-27.357244 1.874273 60.673717
23.235048 -2.317325 87.278564
-0.797996 -13.398267 93.518517
-4.009711 -15.731116 71.800262
2.099461 13.056204 65.224037
9.875298 9.212774 108.913826
10.425918 8.810821 78.947319
-6.485287 -10.285615 95.062836
19.556316 -11.612216 82.388481
-10.850924 -21.632708 56.978596
14.527160 9.494292 97.440529
25.045784 -1.220676 50.080727
-6.830312 -10.370705 120.679382
-17.752960 17.575140 41.112534
16.848284 10.727783 45.715084
1.833284 -11.972822 104.739632
27.810938 5.884161 37.282162
22.017857 11.042743 83.788765
12.034419 15.972528 58.088428
-2.209902 14.587412 93.225830
18.480158 2.203022 87.927155
-3.519227 -10.229215 87.929291
-7.718859 -10.627311 100.683876
14.182487 -22.125124 48.782475
-14.606625 13.069724 57.099777
-14.627987 11.494939 94.777084
-14.012453 11.909850 84.835693
26.898279 0.758340 55.907429
-7.088328 -19.106617 61.165306
-5.414377 -19.193172 65.811096
24.524752 -0.800064 48.351730
-7.582768 -9.437879 85.415672
-20.097881 -8.669557 61.605442
-8.062937 21.615528 53.520847
-18.522398 13.483769 59.469864
18.296820 -12.655869 43.782040
-2.977166 -11.820551 121.700623
12.476746 9.122993 65.846581
-14.571337 4.173409 100.989761
-0.290547 18.163103 38.431122
8.751520 -21.673021 59.526505
9.516066 21.230631 42.836491
-5.732912 26.072968 39.662258
-14.931714 6.348641 102.342453
7.962440 12.361855 35.016850
0.947358 17.309732 51.415607
23.616901 20.599009 42.520535
-16.302246 12.940451 86.771950
-9.186193 10.362671 103.405685
-19.396194 5.673127 30.913586
22.708141 13.249484 42.605930
-4.093337 -15.617886 67.975395
22.110571 -2.387333 86.630066
-1.971416 16.629986 72.576874
4.483309 -13.481236 69.155434
4.802534 -14.573065 83.871864
-23.108494 12.423281 40.756760
2.599190 -16.101170 29.910639
33.578209 -0.207670 43.856316
9.222524 19.192659 41.893112
-5.265833 -16.206888 97.935059
-27.084547 2.946007 64.926071
-20.088816 13.479730 57.015667
7.893152 12.337569 39.878143
-4.958584 -18.140320 48.476357
-24.265917 6.643483 75.681183
20.401157 7.113380 77.399773
16.991055 -17.631086 34.064369
0.157193 23.313385 31.675884
-11.221375 -12.993505 92.879639
5.491408 -12.412401 79.132637
-6.239858 -10.818453 44.175945
40.002735 -1.031925 33.016510
24.706108 -1.154492 58.538246
-18.035114 -11.907753 40.089230
-3.904518 -13.365174 68.382378
19.398239 6.349146 85.349281
-20.059872 17.450441 40.105587
0.776503 13.384346 35.230286
3.720063 20.352901 71.855873
-0.441434 18.742254 43.853596
-18.171825 -3.186438 85.136475
-14.114512 12.011917 71.194038
2.820630 -15.684731 37.971348
0.615243 19.585886 45.332211
19.006186 -2.458444 101.161530
-3.286514 -10.651223 93.318405
-18.909153 11.882883 62.390217
-22.268757 -0.100683 85.518822
-4.166648 -16.392557 64.570457
4.831062 -7.164957 46.384842
-13.958580 -18.278692 45.908966
23.390375 5.772035 36.244011
-18.017658 -12.604783 50.955738
-12.402705 16.237783 57.533363
25.151316 0.978296 56.971634
-19.263041 -3.228679 38.265163
0.873723 -10.896246 52.337688
-18.397816 14.198523 37.625854
-13.784739 7.110324 107.207932
-20.558619 -0.075578 61.296505
-20.954826 0.829257 78.057053
-18.101727 -13.911467 52.885826
-16.666315 -16.563663 61.185783
13.788534 7.607867 101.447769
-10.477971 3.736296 110.047508
10.297560 -9.225110 117.640923
-12.687344 8.831665 51.651997
17.463478 1.694255 98.526741
-14.081566 9.476224 32.323887
2.843710 -13.610139 77.172989
20.407515 -7.129053 45.118000
1.874552 12.105407 80.556267
12.539497 -17.044918 79.665855
24.192125 1.036608 93.359543
-14.396985 18.455118 61.865261
3.581475 -8.253922 49.092438
-21.182270 1.211145 52.624298
-1.040058 18.947390 55.358704
-17.824921 17.539202 51.297173
23.255688 -0.310331 75.104881
-0.564558 19.569660 48.425789
3.845455 -11.586329 119.481697
6.781364 -10.756750 85.837509
19.076982 -7.422356 86.113129
9.285460 21.048758 40.845043
-6.418974 -13.110698 102.695953
-2.659915 -9.572571 41.772789
17.783947 -4.898211 79.620308
1.149289 -10.104874 115.859985
-18.256552 -12.869463 55.297989
7.295676 19.172955 80.093323
3.949203 -10.383201 63.558643
-13.619847 15.238499 73.712959
17.203907 -14.978106 72.277321
11.999579 -18.878784 62.598858
-12.066179 13.724491 75.737137
-11.345806 18.083031 51.586327
-14.874422 0.106097 106.824257
20.470526 4.058644 82.263229
13.800743 -16.552332 66.314827
-5.121131 -20.657598 47.812195
19.189484 -0.723704 106.382782
-12.478622 -22.075272 60.601776
3.758714 -16.783686 30.090015
2.356517 9.212852 102.575912
14.098427 5.686159 106.407005
19.964846 -8.183348 41.866096
1.330338 13.370759 68.510109
10.349061 -18.329952 76.152100
-5.371859 19.152142 70.599266
32.578918 -2.899067 41.052334
-20.913342 -0.302471 88.024879
0.218066 -14.099636 72.854858
0.900454 15.004607 77.203590
0.868088 10.372245 104.951820
-19.052614 -4.992728 62.262264
-21.016228 -1.617963 84.675720
-16.031052 7.855378 94.576416
-16.259323 -20.549738 27.741386
-10.556190 -7.851692 112.255386
17.941570 -6.870259 90.461250
21.985718 9.923876 35.333504
-2.854794 -17.577751 34.023121
2.069651 13.734944 76.704880
-2.669041 -17.300812 45.687725
6.473225 -11.799289 89.312752
-16.666813 9.664016 75.514938
9.459623 17.619215 77.109695
-12.940877 16.031755 55.393333
12.568350 9.825558 73.761314
-0.266114 18.231598 36.947323
20.923931 9.621428 67.850731
2.047407 -13.622815 35.831722
20.660603 -5.668778 71.881622
-3.846592 -9.513591 56.199371
0.982181 -13.443943 97.892670
14.984110 2.255093 106.130447
18.325768 0.357317 105.365997
-14.785129 19.107653 47.484261
23.424963 2.581579 60.990620
-10.685123 9.862851 40.214367
4.716365 18.029751 87.821091
-29.022663 3.535919 42.424446
3.882994 -21.113604 36.762569
5.029138 -9.131380 40.611958
-14.390636 5.049474 103.024887
18.956581 -2.216931 91.420197
0.626884 -7.160663 43.129738
-13.554361 14.448908 56.670940
-10.814483 16.070019 39.911079
4.800462 -13.106990 48.020084
11.592315 20.094645 32.714680
-4.268941 24.053797 41.475677
-1.292552 -8.864985 34.955982
-17.148752 -5.755367 104.761482
23.208220 1.444809 53.739910
-9.734599 25.398762 41.466888
-2.679073 -9.551367 76.223083
-14.775935 -5.048160 110.067497
-22.658411 5.121915 86.199585
-14.366551 16.177288 48.713409
1.054496 16.444475 71.256973
29.275852 2.640043 65.202324
9.732822 17.444832 34.632721
-26.230194 3.930007 71.998917
-5.159980 -13.071927 34.069595
11.513130 14.340455 42.193092
2.890832 -9.808867 35.392570
25.381441 16.138329 56.093803
-6.398049 -18.783510 55.921371
-0.387518 11.744616 98.472252
-17.746300 -11.137623 46.354202
27.680830 0.835743 73.849510
-25.907810 -0.886192 59.209797
-10.565734 -12.982590 99.153801
-5.652923 17.841553 81.981819
-19.700628 13.846487 63.232437
-16.075111 6.310616 64.347794
-12.007870 -9.624367 116.423866
-8.437267 25.695204 40.989761
15.040254 -15.053843 55.710121
-18.276693 -3.851173 60.435612
3.343057 -10.806252 28.872908
-14.026465 4.520246 106.421196
-0.700189 -14.066575 34.349060
2.916123 -14.273500 102.133904
10.142249 -15.831671 97.461906
25.799337 5.652269 45.308136
-3.722432 8.607381 108.249359
-20.084011 -7.377217 73.574570
-24.157751 0.385487 40.310677
7.240488 -16.073799 96.755516
14.351589 -5.925289 101.089607
0.152164 -19.511503 89.154305
24.389376 5.103940 45.309227
-16.808907 12.195652 86.685333
2.935988 -16.961359 57.532928
13.269891 1.203537 114.387978
-21.735590 0.372648 43.374046
9.427506 -18.123348 73.433617
5.085798 -11.389028 112.218727
9.956940 15.940968 29.743618
-16.449787 -10.964784 82.601898
4.381717 9.050012 30.372162
-20.185097 11.189970 56.759380
-6.279546 -15.139946 36.294678
6.047474 -9.739242 76.177261
6.872558 -11.341798 55.158272
0.919524 11.151610 81.181274
-10.724373 10.969251 102.213715
24.746906 8.894341 37.016785
32.162930 2.249010 57.698574
2.704473 16.585968 75.469963
11.808271 8.568995 64.430893
2.920495 -12.709260 95.032791
1.276409 17.484783 46.367481
-14.910521 -7.189640 105.296837
3.935088 -9.153071 58.033062
6.938645 12.817084 97.780075
19.420242 -5.471011 52.284496
22.910534 -3.949117 62.347912
-3.548820 18.905556 46.729622
-3.089906 -10.884312 114.955940
-10.802739 16.662540 70.555046
7.213682 -10.837986 45.719898
3.140704 17.045652 89.490349
22.928160 11.468049 39.974373
18.735165 3.950044 96.121910
-22.960644 -5.051889 84.878975
-2.947128 19.261381 77.682701
-4.112148 19.043247 62.794067
21.114405 -9.140086 33.419292
0.115040 -15.968258 29.410831
11.810721 -12.621260 103.042595
-14.681703 12.922462 87.170609
-1.292524 16.795481 51.737961
11.916288 -20.297277 36.617172
-3.024463 23.193779 43.156055
1.487659 -17.795511 55.904602
-22.164682 -2.380357 77.557320
-20.212059 -0.153764 99.426453
-7.280426 -12.240858 80.429512
-20.982176 9.706529 78.347649
16.373539 6.844418 95.610237
21.110126 9.033901 67.783440
-0.611901 13.299678 64.241776
-18.193789 14.789494 43.453522
-0.397748 19.224316 33.680462
4.047963 22.178185 51.118359
16.727482 15.406081 55.685806
9.441130 19.794621 36.343254
0.401758 16.513630 72.721443
19.238300 -7.951717 67.149216
7.164097 -7.950348 67.191040
-11.642722 22.049412 56.204052
20.434912 5.263833 70.264351
15.639030 -12.540129 80.190506
5.809052 -17.139729 91.865509
12.273574 -8.983768 105.873482
-13.288396 -16.947371 65.581245
-23.776754 0.767127 49.915253
-14.445345 10.763739 93.259232
26.351923 16.354176 56.501892
28.595448 2.140904 63.319954
-10.295583 11.278562 95.570190
-19.389069 9.767676 65.573395
18.559525 8.348436 85.240639
3.080541 12.933549 34.655640
17.646128 -9.073819 65.549515
-1.071661 -15.557169 99.603424
6.677500 4.309515 110.074860
6.093173 -19.126120 48.595093
-0.416330 -12.148726 114.036934
-13.118064 -20.605009 48.379951
20.038244 -11.065074 68.111465
24.256857 14.276699 46.953907
7.111160 15.168607 86.494537
3.701852 -11.092836 87.111046
-17.190660 12.125246 66.710861
-1.772501 -17.074188 85.009903
-17.110716 12.711174 94.150192
18.683483 5.152768 56.749535
-15.280367 18.069691 52.956066
-9.246941 -11.549378 107.608894
-17.866575 19.524086 48.852013
-27.064770 0.990541 81.476524
13.090008 -4.182007 111.374382
24.565147 17.743958 55.774632
3.298312 -14.203414 54.049625
7.854687 -17.729546 68.644325
-24.762960 9.325684 61.107437
5.595185 11.424129 103.961182
17.478041 3.114104 102.821754
-19.161240 9.265089 71.191727
20.498899 6.048024 75.539558
2.421272 -18.378693 65.900421
-7.143417 24.713257 39.915981
23.689007 4.085443 56.241898
7.012726 -17.906221 73.116020
18.897993 -10.808447 49.585327
0.019704 11.035206 44.286110
-18.339058 -11.313170 39.750008
5.618095 -12.417212 105.969612
18.880913 12.150415 50.879944
-16.897030 12.742177 36.598946
3.468483 8.707353 88.191124
21.801870 7.647085 47.683861
-11.644518 17.752520 60.236465
-7.023836 -12.254350 44.498371
11.556774 11.183693 84.598068
-2.129390 -9.978392 107.298035
11.767280 9.251920 62.067642
2.095715 12.966591 37.864895
7.246314 -10.961934 109.284828
7.021520 -12.505703 44.073387
-14.812607 7.696618 100.315918
14.960858 7.618884 94.748482
27.859018 0.632038 63.446495
10.791191 13.344811 94.041344
-1.996708 -17.212416 45.247883
13.067752 9.309204 37.754978
0.952613 -6.798593 44.903751
17.119316 -11.862880 68.042458
-2.944355 -12.514530 36.082748
25.001612 -0.899642 72.832771
22.332520 -0.028285 71.343582
21.687025 5.399627 53.852730
-2.517025 -17.238514 34.925316
3.844557 -18.208378 64.686302
12.096790 13.879957 76.193207
-31.297953 4.352307 48.430172
13.478610 10.567336 52.116905
3.899613 -11.677466 108.428581
-10.403137 23.130947 42.994614
4.736489 15.443238 43.440907
-12.038895 16.821209 57.085102
18.571159 -8.912169 37.858368
20.717516 -1.760438 75.541115
15.884905 11.638762 53.902908
3.878188 13.952601 84.350410
-5.207752 -13.209726 34.796322
15.446014 12.950735 42.091141
18.407450 -1.772360 98.571533
16.496870 -15.645379 49.285137
-23.806789 2.025935 75.399506
11.338914 -4.820246 120.647087
6.324484 -17.670704 35.143681
-11.654083 11.480894 83.627235
-19.197004 -10.202776 44.600918
-3.930347 -12.454582 55.095020
-1.290000 -8.687747 51.029919
2.254673 -17.631622 63.884403
6.262977 20.827038 66.309860
-19.299381 19.708788 46.754528
-13.023692 -14.842642 79.919823
4.228089 21.182930 41.715298
21.956263 19.129721 49.973789
9.859722 11.272014 34.493763
2.577807 4.846990 114.628807
-21.783741 -6.650556 46.371635
1.135140 -16.729700 86.489777
4.025059 12.166123 62.951988
12.881883 -17.819332 60.030628
-6.792617 -17.259583 75.663429
-8.459011 8.286416 34.146664
-2.708304 24.487263 37.368927
25.305422 12.261395 58.726452
18.617884 -6.222622 43.648823
4.176013 -15.962481 81.243050
5.484679 -12.314122 56.418835
19.551474 19.620354 48.451660
1.308896 -12.426527 107.693588
-27.189220 5.064052 75.864273
32.554455 -4.609362 44.919823
-4.300549 19.541895 75.294930
-11.339489 -16.834103 86.816353
6.195153 -8.447853 39.606880
-9.688636 -22.155693 34.845707
-31.688679 5.243109 50.195549
18.634930 -1.225424 56.444752
19.992092 11.847545 76.810059
0.939037 -9.442123 33.931206
11.596375 10.095797 63.961224
-6.280559 16.893379 83.614105
4.091444 16.552774 90.851295
-7.585539 -11.597369 104.877563
19.955511 19.336079 50.050720
-13.317229 20.895683 37.384304
-4.324755 -15.258967 74.562187
-3.861803 -18.556227 43.482361
-3.656224 14.623362 98.831642
18.034294 -15.516258 45.915359
-8.811342 12.659100 37.231415
3.682422 -20.677532 59.238167
6.235970 -14.701784 99.252419
7.013303 -12.665722 105.010460
16.180750 9.756269 67.182617
16.004129 -15.285052 32.898880
18.565510 6.732204 84.923019
3.686557 10.934429 46.237476
26.402859 14.755925 44.088535
-0.384131 -16.902338 33.830223
-1.184963 -16.671337 44.312054
35.723911 -0.558615 40.422626
8.586319 10.107087 107.082970
1.151583 10.998831 88.779297
14.660548 13.205866 43.572933
9.173118 12.489722 33.445217
21.827765 0.051226 83.369461
-0.368768 15.698286 86.085236
-7.795111 -19.740021 52.854389
-12.098426 17.073643 41.583828
-20.516853 -3.689271 40.740501
-6.275615 -15.131636 35.551605
-14.231499 9.361181 93.631287
5.044749 -12.618248 107.613823
-7.829732 23.049793 49.385208
24.558002 -0.360847 81.709305
-6.354421 -13.986781 73.071602
-2.023248 -13.166482 105.357903
8.087031 6.443107 106.594330
22.484779 -1.785462 83.173996
-4.888673 -15.173770 63.050480
11.660347 -19.509474 76.049187
-24.385141 -0.292541 78.597473
-0.663918 -16.312201 60.203083
27.873539 0.465003 57.123199
23.416855 6.282208 36.644268
-6.426426 3.885119 110.982773
-18.411695 -11.269054 56.504280
5.512847 -20.502449 51.198380
-4.233456 -16.582436 89.754227
16.340267 10.361498 73.176552
-16.647703 15.974390 67.306084
-3.015405 -18.695986 50.177227
2.540851 -7.033931 55.775173
-17.380869 11.456803 44.937263
-4.016646 -13.758793 35.166153
2.633914 11.475596 62.294395
3.695980 24.664673 39.363850
-17.868296 -16.333353 33.903034
-14.511331 8.065382 67.955238
4.647712 9.652755 30.572260
4.100824 22.379808 32.556965
8.038595 -18.065889 75.083038
13.087745 -8.074239 118.647888
8.260480 13.330691 37.979763
-3.639656 -11.323451 60.928371
13.947310 6.843222 104.071548
20.956158 14.417759 56.166637
20.475975 0.361887 102.714500
11.569824 12.444574 94.309937
20.360714 0.514758 67.373581
-22.800753 5.537847 83.762703
-9.958164 20.323599 59.177311
-15.899781 8.297565 90.395012
17.003574 -18.834183 49.068413
9.676343 16.314465 58.624599
6.394102 -13.464555 81.874985
-14.920898 -11.519181 88.484795
4.799822 -12.244289 119.942535
-21.228909 14.063282 42.513496
-12.596217 14.419898 61.548901
20.928787 2.278067 59.406872
-19.748413 17.504311 36.511066
-10.695063 13.492936 85.409401
20.795267 10.046074 76.659462
1.963274 -14.520222 36.087627
-10.263622 19.667877 36.211590
1.568446 -17.252396 95.417137
30.593561 1.790908 57.933311
-2.747543 13.737299 93.390289
7.409294 -20.222458 42.285019
-3.326985 -16.337219 88.959801
-16.357344 10.953472 85.980850
-12.830154 -6.998980 114.309143
23.241661 -0.588599 65.518074
-23.059906 -2.982629 71.061638
-0.948991 -8.265209 47.249710
-25.014145 3.292125 56.567829
-11.117111 -5.187799 112.526627
0.532970 10.981578 80.090569
-2.995468 -10.263827 115.262878
-18.864014 -9.495522 42.984913
19.208679 -3.834979 31.858032
6.625372 -16.630157 66.492249
-23.480341 19.289892 38.341541
-13.949198 14.022210 89.319763
-4.472781 -7.972831 36.936050
-17.827080 7.908720 83.308670
-31.994518 5.428885 53.338284
-10.185138 4.612372 112.675125
10.372473 8.199619 47.569572
-5.009717 -19.531654 51.273014
17.949978 12.056005 79.592865
5.627989 -16.621967 43.706707
-14.524001 -14.018384 71.302437
-10.106860 -9.491427 111.530014
-11.372473 18.471359 53.084621
6.003394 -10.395393 53.519112
26.084469 -2.140670 60.625633
23.259722 4.029549 76.673584
23.069159 5.639984 75.137787
15.738937 12.938527 47.364105
7.045334 14.644909 86.406082
12.665848 -12.753367 70.416779
-5.965823 -15.010209 53.107342
5.632953 -10.558522 51.575401
-4.126317 -15.908429 89.295151
9.882868 14.963166 43.643280
-15.609812 3.070470 103.051559
-1.460711 -11.612190 107.832870
-16.346277 10.419520 79.248177
6.398622 -10.851567 108.923317
13.914459 -12.133993 73.390312
-21.703560 0.577933 48.603432
1.786300 13.811084 67.018555
8.521479 -9.860238 114.337059
29.705070 -1.542243 49.851097
20.676361 13.488673 59.951145
6.798586 -10.305061 93.666794
-14.720444 -18.516815 50.977135
-19.823357 7.462837 90.698669
-20.639420 2.735574 100.012848
9.985168 6.078453 107.402252
-27.460361 0.430639 64.158424
-14.222404 8.682094 73.920357
-18.352341 11.978084 62.252785
-2.826608 -17.122210 67.340782
-5.234100 -10.090681 62.855942
9.614625 -20.210258 60.133141
14.925741 -15.071774 78.091347
-21.749910 -0.039552 88.795052
11.149306 -11.555588 95.341774
5.475000 -11.122203 70.597504
-4.479684 -13.072374 115.983322
6.710405 -14.658422 64.194519
0.685405 10.046254 65.248718
-13.959169 17.217012 41.863075
-24.878204 5.645443 68.103828
9.825845 -13.191043 99.853226
-3.501270 16.586098 86.862473
-19.420630 -14.651785 51.640026
-14.135168 13.898833 70.054619
2.367285 14.333085 42.117004
5.162145 23.047792 41.336094
22.273083 19.820135 48.752533
16.092598 8.740407 93.213936
-1.244026 21.539650 38.776340
7.400265 8.583804 109.965385
9.850878 16.082846 50.119804
1.078024 -13.039662 96.728004
-5.250403 21.161640 58.146618
31.249208 -0.168274 36.368088
1.691002 -13.045698 33.307301
20.377745 14.218513 73.522491
7.311521 -10.893416 80.233475
9.769461 -7.475147 115.618034
11.525503 -4.694900 114.752518
-14.388540 16.326191 68.620148
-6.300739 -17.899998 39.242741
-13.681993 -11.730517 104.250275
-12.510437 10.940697 47.689709
4.455962 7.970499 109.465652
28.626328 20.235214 47.190193
2.027523 14.936368 69.889297
-16.941681 -10.502574 91.569977
-25.481936 8.818678 63.787540
6.065075 -16.453671 50.358589
6.956571 -20.303009 39.777603
-0.197672 -11.704671 115.660004
7.186460 7.762153 109.444176
-18.729670 -8.283748 83.594009
-13.773888 18.520985 50.139378
1.926989 10.326301 67.153793
24.770113 13.647017 71.107422
20.773191 -1.061185 40.527409
-20.058298 7.630215 87.838226
17.061008 -9.255922 97.537613
-3.121672 13.244524 97.879730
-9.881593 -17.965343 87.988892
19.189102 -9.165819 43.300697
-18.490940 -5.101161 73.203369
-2.842551 -11.219590 55.322758
1.219884 -13.124893 49.275455
7.658124 17.295652 79.408173
-1.208465 -10.721704 99.470901
-5.983696 -15.871048 38.593033
-18.036184 -7.488703 41.221943
-2.910616 -20.244127 46.974430
19.396864 -9.362987 34.487831
29.207668 0.749037 69.054543
-12.900993 -18.053829 67.220512
21.637732 11.937428 61.019218
17.899109 9.468788 54.829220
-13.394470 13.372355 68.036842
0.992733 -13.141288 53.164383
-3.903781 -14.777347 101.748566
3.092217 13.319223 96.148064
-0.946418 13.198734 85.801758
14.155775 -21.496660 37.716171
-5.582264 -12.486881 118.159088
-17.826645 15.454152 56.927555
-12.350052 19.831690 43.025566
1.854112 12.936535 36.093327
-4.560452 -18.261820 76.303955
-17.762491 15.946745 56.640686
-11.226944 9.868272 35.994164
10.067425 8.045156 41.557125
-5.590454 -16.805752 86.636581
23.043665 13.383421 62.111671
-14.176183 -21.030918 45.120705
-2.647685 16.813587 72.820221
-28.628185 0.532685 72.091385
1.976022 -14.568736 101.197273
-26.589943 1.889389 38.697205
-16.476755 -7.965238 93.157692
-17.890091 9.618214 88.596397
-18.613062 13.999812 60.984234
16.408514 10.721162 70.269661
-0.571067 -11.896470 115.356667
-9.444458 17.859591 76.642242
15.973772 -17.191652 34.421947
-21.027431 -4.718233 66.928665
19.360632 16.168531 37.327606
-9.404470 -18.887959 87.386841
19.206856 -3.887008 63.876892
14.876892 -6.078258 100.206085
-2.647003 -16.675743 94.590958
14.387659 7.825437 102.609711
9.435438 -14.895637 99.750999
-11.638603 23.217722 48.605400
-4.977725 24.152069 51.082329
21.941031 15.918093 62.697227
22.139709 -1.385554 74.097252
-8.228664 18.077978 33.277088
15.936721 -14.836627 56.877205
4.301368 -15.462863 42.117149
20.156425 -0.121988 55.687393
25.558695 15.975515 45.596405
7.138885 -10.346850 110.355751
-18.325598 -16.660923 46.558273
16.763491 -16.884453 43.448055
-19.425175 12.380387 41.650829
21.007969 9.931403 36.201038
7.305155 -17.917749 32.758091
1.933340 10.948963 62.283394
-27.393360 14.495608 38.814404
-10.253312 -23.665691 52.116631
21.844036 9.542914 58.725708
24.895245 21.730970 33.298206
-0.733777 -11.216050 47.178577
-17.367102 -8.167208 43.753864
-1.827818 -12.470580 102.130600
-21.212793 9.023945 59.816669
-11.887710 20.199173 39.892063
-17.781828 -6.209709 96.915215
19.364014 -14.806497 46.339054
30.892828 -2.220270 44.906841
-13.598544 12.043994 89.251953
20.591608 16.053635 65.551094
19.597221 15.793945 33.528374
-7.427578 -16.456755 86.351089
16.121286 -15.787728 51.566418
-29.587612 3.583988 51.281776
-8.442456 24.552332 47.017792
10.417048 16.136217 61.284389
4.617026 20.763081 44.543697
2.115563 -15.402583 47.526218
1.009356 -13.866757 104.980042
-2.199136 -15.052571 110.423004
-22.655502 -0.585686 34.991283
-30.141399 10.106312 37.830822
-21.255236 3.855408 77.896530
7.774720 -16.758118 73.077019
19.488394 2.715183 79.476532
-19.471317 15.011437 52.981293
7.271444 9.994390 105.529251
-2.997263 -8.527013 38.603699
5.566934 -16.792677 46.741341
-0.023605 -13.952675 100.993240
8.502518 -21.248209 65.684036
12.951104 -13.675207 78.768456
6.634228 -18.737886 33.620937
-9.883942 21.049599 53.079708
8.227188 18.333462 78.202522
-2.991847 -12.481717 78.955872
3.315920 -8.993398 47.677841
-14.608696 3.520691 111.484909
18.917868 -10.652570 49.590660
5.451175 -10.311663 72.719971
-14.074067 18.549971 57.166225
16.453426 -11.467676 66.540726
8.660654 19.521154 74.016983
-18.062876 -8.591203 86.505943
25.929453 18.425749 53.957165
-12.085369 14.170940 83.210251
-25.381741 2.387502 53.981533
-13.652911 -17.457779 65.005974
4.360296 -19.788095 70.143127
-10.512843 21.628031 35.233582
9.042592 12.782916 51.531654
19.134289 16.140116 38.382027
4.564828 20.106609 41.608452
2.717864 14.707518 99.584740
1.678309 -13.097160 35.220490
-11.181285 12.468952 43.913151
24.638231 24.569437 45.006374
-26.338526 3.865993 67.829445
-4.581244 -9.313969 57.694447
20.542324 5.596512 66.745110
18.928675 -7.109773 37.078960
23.120222 -1.747209 84.723335
19.028942 15.233994 34.714367
8.513288 16.462973 93.206787
5.208261 22.439564 47.924156
23.415482 15.676863 72.690079
-5.530116 -9.849368 109.848602
21.118679 -7.425110 85.781090
18.409271 3.764506 77.111366
1.949771 -13.975537 35.675949
-13.714407 -6.912518 116.422173
1.047879 9.265609 37.167278
-17.079588 -8.602851 52.258709
3.247319 15.765454 51.274471
-0.573116 -12.638062 76.823471
-11.061085 -7.550415 104.074120
19.598181 9.938083 67.168602
-17.053646 -9.605193 78.824051
-14.708943 -18.543056 80.204079
5.534294 -10.245328 113.393333
24.195078 10.190839 73.295135
1.347435 11.708245 84.284592
-12.930719 14.156066 46.987057
8.372047 -10.032227 75.795868
4.280687 -16.477304 87.772697
-9.829624 -19.249136 34.327648
-4.219006 13.451868 96.103348
-11.343594 13.883232 96.228958
-4.079636 -11.940415 70.139664
-6.000674 -12.440797 79.416222
-17.312075 -18.250378 54.283310
-19.787903 13.671307 66.392471
19.564007 14.189556 52.204201
14.919059 4.686466 110.498116
3.139461 -19.231495 67.583168
12.246163 18.032034 67.540627
-15.095614 8.581963 48.159725
18.488655 13.277184 71.055397
-0.125223 -12.703419 67.967262
-6.666613 -20.382660 45.560715
-9.381854 -8.267888 113.909897
13.394494 -18.994181 65.331696
14.279887 9.728717 80.962807
-14.879028 12.456510 76.531876
-16.603724 -10.944735 42.889576
-2.721370 10.399987 95.139351
-15.588412 11.408745 80.092049
17.528790 7.540466 86.444374
-6.430847 -16.688704 61.997810
18.531887 13.110463 56.012825
-0.331981 11.306396 97.727127
-12.706446 21.707760 38.129997
5.302180 -11.701160 74.909966
3.718491 -17.198515 49.947628
5.047410 17.017799 85.101379
-3.419356 -6.478061 47.558311
-0.762507 -9.666137 49.135468
1.915786 13.335810 71.828629
-6.504860 -16.882322 71.912132
19.754858 -4.885829 54.334755
-12.959566 18.679153 38.209339
7.030699 -16.688452 73.923561
-17.774239 1.635386 98.847115
-12.013044 22.754608 37.445145
-16.623241 -18.962814 46.821236
-4.868824 19.260994 64.569969
13.992683 9.395411 56.004944
-6.693296 10.632658 97.650139
-19.897406 -6.049273 65.693306
25.447483 22.056213 46.615498
-12.929049 11.591700 77.770561
-2.769930 -14.089179 84.177513
5.856625 -25.105030 33.468864
8.755515 13.163217 59.339233
18.181433 -12.696292 26.901846
17.705921 -4.455986 102.254585
10.229700 14.321502 76.495934
8.421834 19.966398 72.369362
-5.636366 -13.777541 83.661209
14.232479 11.926673 85.384659
27.245892 2.373453 42.840359
19.582193 3.501300 83.041481
-14.257180 19.225185 51.868862
10.675160 -12.334492 101.277534
-7.938761 -10.909016 110.356819
17.138245 -10.599851 91.245911
-11.707745 12.748018 73.233849
-7.332514 -9.135775 120.220840
-19.800220 -3.394611 60.595333
6.978414 -13.897102 92.866280
1.005208 13.081360 89.416779
-10.198316 9.351686 109.136391
22.506741 2.146894 80.023689
10.854145 15.819614 81.160797
-22.550074 4.870358 78.347282
5.041657 -18.979677 62.099209
14.205048 9.231497 52.915081
-8.781152 -17.017284 57.203705
8.086147 16.095884 73.730484
-11.555833 11.473789 35.751377
-3.705354 -8.528172 54.020721
3.242822 -7.498157 42.862701
20.482399 -7.939354 31.943199
12.417654 9.625136 62.990768
-12.387121 14.248631 67.043877
-10.407706 20.917505 55.229004
-14.159803 6.714781 96.827484
-4.234953 -12.376575 100.720131
-24.674757 1.372450 56.915859
-10.255321 19.226233 66.311546
4.820820 10.128453 32.732910
1.854858 13.192828 76.989281
-15.610526 11.599216 92.232468
19.547855 9.934222 60.585503
14.808046 -13.258584 55.350872
6.144886 -18.659105 60.925571
-11.525417 12.587125 57.096504
11.291253 10.207853 58.705784
-14.448256 12.353211 82.096313
32.549366 -1.293692 49.435246
7.410717 4.673112 116.198959
-7.250257 -20.392452 83.635460
-6.133190 14.691854 81.954750
-21.125172 1.678943 71.532021
5.828680 -15.491861 48.605621
-13.210753 -21.275398 38.469173
-20.363527 1.515454 76.473709
-0.027186 19.719542 39.259441
24.385695 12.467275 62.997734
-13.350500 19.933455 41.989792
3.215529 -15.999834 33.297813
-5.791032 -10.009104 116.134720
27.879499 4.015875 32.177822
8.339329 -17.212513 42.153351
25.000479 21.761753 39.194958
-6.152641 -10.336337 77.514160
7.617048 -13.999974 81.279182
7.758675 -16.703619 88.153450
4.273346 -17.834084 71.064125
7.498011 -10.682075 119.204285
8.631872 9.193591 52.382500
-22.400442 8.490320 72.338402
0.444692 -9.716041 63.553799
18.607962 -12.943449 64.481285
6.455027 -8.430331 63.760735
26.436661 14.272944 49.109665
17.475233 1.211580 103.402481
-9.684437 9.169782 100.777138
-9.988894 -20.095270 64.880730
20.216402 -2.462458 64.306770
-4.182656 -9.682027 57.881474
25.522379 21.477627 37.823574
0.101577 -11.471158 78.707291
-1.527676 20.010401 33.627289
0.882175 10.469523 99.982597
-15.765439 8.682264 89.459633
-17.751282 5.776585 100.597816
-9.076781 -18.392557 82.973335
23.088535 5.273203 45.631443
24.792265 4.556792 57.878319
-2.609821 -14.322309 30.466993
0.646381 -13.960699 35.735741
6.856208 -19.740406 59.935787
15.661514 9.190858 101.063553
6.201760 -12.634043 85.452644
17.707975 10.886960 62.069706
25.129454 -1.416892 76.745186
22.490746 13.178569 55.663475
20.195835 8.846794 44.801147
-2.269955 -10.524372 73.679832
-22.047987 0.315739 99.441566
-16.294943 11.723420 83.701195
6.206749 -10.871222 118.680283
-0.574587 -14.699973 58.786541
-1.285447 -10.720440 54.986935
-11.321814 18.124334 58.385296
-4.133420 -14.138316 98.346176
14.905796 -6.653014 101.913292
-22.050163 1.050033 52.234493
-1.454389 -8.634042 58.645721
23.729620 0.869937 47.429974
-16.445808 11.377661 69.676285
14.249249 -13.432814 65.810745
1.624201 12.845864 35.840637
6.385333 -8.262304 58.003620
24.136408 14.685046 72.471977
20.564562 14.253226 48.404331
1.988795 -19.961081 38.449730
12.459501 7.781515 57.618347
-5.527707 14.827917 80.393463
2.629790 18.768900 92.485031
24.723150 17.152149 38.104782
5.454466 -12.376203 90.171921
13.244320 -0.002854 120.749954
-15.756466 -12.152041 93.698265
-19.183708 -10.728999 90.547035
-27.648403 3.326965 71.862450
1.253587 12.922095 76.025276
-2.742170 -17.198402 60.643688
19.745872 -11.499171 62.560471
21.145037 12.130891 59.029652
-15.209404 10.757892 62.512959
-15.537582 -10.170993 99.863983
3.070685 21.479918 34.051754
11.986888 -19.929850 58.354980
6.486345 -15.454296 75.117889
22.410919 -1.780249 94.489052
-2.973537 -10.117592 40.846172
-13.662352 -1.663364 118.214287
-17.937441 -11.393694 55.432945
17.354582 -13.128719 68.653343
-12.061752 14.915692 89.077988
-4.916617 -12.013584 114.354179
-11.324884 9.233453 36.937744
14.361835 8.114718 44.974876
24.542160 9.950619 46.825558
-17.466740 -16.974136 63.456253
-19.146385 -4.820006 80.887489
15.903898 -14.061478 52.863728
-19.094856 -13.260571 37.368454
18.908087 -9.468771 74.531357
-11.998738 18.709251 42.786266
-15.581316 8.462651 85.815910
-12.588168 -22.132998 50.723766
11.289724 -9.071811 119.326218
11.334140 11.141792 71.175415
-3.362580 11.630640 107.691170
12.701015 11.604430 35.271786
-17.644220 -16.155251 58.723713
-1.212354 -15.062675 77.649757
3.008285 19.629271 76.373436
-7.816557 8.644015 36.200657
6.963917 -14.351919 76.137375
-19.361124 11.666400 41.775192
-16.734329 -18.765556 35.189369
13.512211 -7.040610 94.909668
24.243301 1.492013 70.460922
17.856258 -11.068247 42.947475
-7.570816 -7.777277 34.287258
8.890332 2.291466 117.301041
28.331879 1.347806 68.755806
-15.902102 -15.245756 66.407822
7.058763 -16.980215 64.081879
10.628866 -21.155481 39.485310
-1.346432 -13.253734 75.020706
15.747152 -16.725698 62.917213
-12.412233 -18.909985 66.292183
20.845524 -11.435439 62.970325
-14.602579 -10.677711 102.900055
37.655102 0.125534 37.511787
-7.830391 -19.476454 51.217327
20.510731 -2.506258 56.282948
4.857431 21.242580 56.698021
22.722267 16.103456 62.472828
4.694845 -19.009083 52.496799
1.702836 -13.704298 109.877609
-8.263775 12.401554 36.311111
-21.125145 -0.225810 80.384171
19.859892 4.169487 80.722282
3.472011 15.899015 32.159550
-18.947437 -9.042964 49.917557
18.409409 3.664845 91.036476
13.151107 9.130143 44.259132
-6.841467 17.787214 84.748299
2.515620 7.453010 62.367943
3.031288 -19.287859 61.783916
-17.777847 14.452617 47.016094
2.058283 9.223501 91.066536
-18.206875 9.369253 44.857018
14.805518 -14.335188 75.223495
16.254330 8.092000 85.550735
19.655560 -2.120490 81.941345
3.488376 -16.697758 47.699818
6.395456 -17.697744 67.418816
-3.719497 -13.062885 88.364304
22.377602 -0.413396 93.505814
2.080031 -15.347661 91.731308
6.390628 -19.757225 48.814579
-12.914530 8.782413 88.848907
1.556893 -13.069282 110.642899
-8.330678 -19.984467 62.165073
17.782009 10.192910 82.413406
20.426497 -0.391909 54.066208
-5.635096 21.126127 57.549171
4.613523 -12.269106 43.936687
2.659624 -15.053493 32.859165
18.065872 -9.990371 83.938210
-4.850083 -11.561433 119.299942
6.844069 19.693539 73.393463
-5.346680 -11.805008 99.692642
-3.988919 -9.237309 83.586380
-10.764305 14.765200 73.025131
-3.731086 17.064144 77.567421
0.761904 -15.653163 91.026062
6.975927 -13.658448 91.659950
3.108030 18.747131 39.409573
15.049438 8.047322 64.108467
-5.855539 -11.754019 76.645973
16.245096 6.790626 86.659210
14.815724 -11.219206 104.220940
-18.728649 9.366109 89.450371
-2.106355 -11.810941 111.215981
-19.760298 -6.456227 68.860275
6.574975 -11.629869 102.744957
19.044891 -6.410524 85.725792
4.773484 -15.968045 67.243752
24.946167 17.771536 42.064487
0.941609 11.625512 105.387787
1.284902 19.668407 69.972504
6.548817 -12.242169 37.803982
1.624663 4.965392 112.452400
-15.561365 12.781573 78.130112
-17.543756 14.734365 61.635693
-21.085854 10.167589 48.579300
5.223701 -6.375188 32.871567
-0.591114 -13.815566 117.917236
29.145145 3.189301 35.045536
-0.747425 -14.005008 101.997429
-16.117661 -8.431787 64.189407
-18.558149 -11.985625 87.026115
-17.326870 1.078532 107.089821
25.713497 0.038508 65.031219
8.640359 15.562530 73.871948
-19.573235 16.076944 43.533611
-17.688883 14.457535 72.619133
28.989742 -2.014767 54.776752
-8.350301 -14.247108 94.242805
18.798887 -10.656610 85.687347
2.264928 17.540865 85.308792
-0.211361 19.548752 52.965256
-2.792247 -19.592272 50.196712
-3.059000 -11.851383 113.612152
17.525677 -18.302744 47.197182
-1.726627 21.886356 59.565529
3.214573 -13.568272 45.946812
24.741024 20.414057 51.352261
-15.042738 8.895080 91.126778
-1.713535 -10.493650 118.726402
8.079948 11.906968 76.644157
-10.769906 4.356795 108.867050
10.312053 11.124956 100.265732
0.918029 13.383180 39.961563
9.170418 15.342306 75.003387
13.552220 -17.447962 55.509560
6.697327 -15.513761 41.658215
-12.039474 8.808093 104.357841
19.488859 17.270714 41.747841
18.475704 18.381475 43.769299
-3.642600 -15.339432 62.135693
-17.755306 -20.552298 35.941582
-0.721503 15.233131 68.894371
-4.972103 -15.766649 72.194870
-4.196139 -11.125630 110.911034
0.201617 -16.359072 44.585541
-6.459323 -12.276991 37.016266
9.701592 13.909226 93.297417
-0.487693 -15.416246 39.658016
6.864634 21.236349 34.258915
-4.905863 16.070095 84.496117
2.281713 -13.430984 32.445835
-12.718527 -7.214943 107.898209
18.944860 -2.980161 54.030914
-31.812004 4.638098 58.016544
24.254391 13.143843 66.987724
15.073394 -16.918188 33.273369
-5.203734 -14.181700 56.886414
14.105417 9.254540 60.545109
19.097387 -6.908815 44.419033
9.798256 15.372249 38.210094
19.774389 10.719796 60.374279
27.039574 4.358617 62.564720
-19.028791 -7.312051 70.256775
20.586895 11.503683 88.448593
-15.066273 11.324240 39.405506
-12.070332 -22.206938 39.168209
24.956930 0.041766 44.999008
-5.154160 -19.432728 31.752768
21.126358 14.927216 50.875004
8.026003 20.630352 49.906178
28.469341 -3.533035 39.436970
-3.950685 -15.585340 95.440422
-3.252650 -14.399244 35.568520
-19.374912 -3.591971 54.844460
-2.487952 19.813023 54.064510
1.010366 15.656006 74.759148
20.660267 -6.312221 59.075962
16.615482 -13.482808 71.747704
-12.572725 -18.155355 73.725136
-5.363922 -15.697760 75.459564
3.820418 -15.314165 45.405972
-23.397799 1.996453 81.275116
9.950404 12.572910 71.831711
-17.725407 8.558114 95.212189
23.192951 9.708060 67.340134
-20.357058 -6.768951 51.602249
12.657060 10.559841 47.115410
14.476759 10.041220 96.819206
-16.699955 13.208525 45.516201
4.610630 -13.840061 34.522781
-15.589481 -7.838226 97.998817
-15.481703 13.519250 38.232979
11.792925 11.887604 73.580284
17.570541 8.959737 94.849060
6.975964 -12.621621 58.930824
-8.695449 3.760459 113.405983
19.246552 11.541323 83.966774
-5.673581 -11.105909 111.539513
19.804838 13.890408 68.785362
-21.977829 6.167271 81.289505
-7.256020 23.963406 56.271770
-7.271233 -13.012954 82.388977
-17.322186 13.503669 80.698898
4.025485 11.605240 58.608807
-17.291681 8.771034 58.673904
-20.722620 9.680266 72.161003
-5.586615 -21.784777 57.848583
30.116829 2.973501 40.054489
20.484877 13.099289 62.142620
31.147375 -1.751677 46.359936
19.234186 -14.146594 37.532051
5.296640 -10.079243 68.693405
0.878824 -13.873763 55.598766
8.453100 -10.794193 118.069511
1.537510 -14.311336 61.245426
12.347117 4.629139 113.175911
-5.234407 -17.051096 73.126450
4.399957 -17.611353 35.365639
31.949427 -0.997515 50.771282
20.703278 -3.923702 60.678104
6.364888 -19.529707 34.483765
1.649819 -13.926471 37.195896
-19.211498 8.913825 81.760612
28.002714 -1.337618 63.641560
-5.076489 23.647503 57.784122
-13.430980 -20.415831 64.244766
2.125832 -12.343112 96.253723
5.720331 -14.329592 109.117432
8.898871 -23.142879 50.716831
-17.615242 14.840247 38.929924
19.282021 -5.843477 99.395615
-2.931584 -22.187771 33.977558
16.520226 -17.694889 45.709015
28.903507 -0.592282 56.249863
8.348271 9.239722 40.839977
-18.025385 15.114472 72.528358
-4.446130 21.131773 46.998371
7.592019 11.476801 95.421944
0.249844 19.472599 56.986053
-25.435265 -1.491876 61.566860
3.465158 -11.337044 51.548595
1.378956 10.799815 54.820942
7.887595 22.231306 63.954422
-10.702639 -17.275433 64.010536
-31.439083 6.215519 42.522366
16.748960 -11.522029 73.918365
16.058962 -17.041405 58.548588
21.938719 13.423356 83.019684
13.450336 -20.134251 53.839920
17.964157 6.318358 87.647240
-11.663521 11.418634 42.248657
-11.950500 22.124414 41.097305
-11.052187 10.061821 36.539551
-4.674796 -18.068090 57.000828
-0.023091 20.917616 52.078743
-0.327445 -13.901536 70.723572
-2.624198 -8.600860 32.433437
0.076165 -14.079378 93.547615
-1.022251 19.750917 56.124931
27.761194 0.002852 56.752899
-7.562186 -19.323046 71.852890
2.542561 -8.757607 41.897762
24.605873 11.766017 65.745155
-19.592834 -4.624298 71.518600
-19.615427 -5.064596 32.551929
10.504040 10.542405 69.599365
-9.000135 22.681641 59.360119
11.359346 -20.078344 60.852295
-3.994070 -9.699363 94.158325
-13.545877 8.966354 71.140488
-0.133176 -12.022343 113.498901
7.226927 18.964609 67.605492
1.994691 -17.783634 56.207626
25.482716 1.497289 69.789261
25.535980 0.603823 34.326088
4.043762 -11.880536 118.856903
9.407383 22.065496 50.798416
-7.617815 -20.211704 61.744438
-0.833241 5.573091 113.084702
15.546279 5.855149 110.389709
-24.180540 -1.723423 87.044220
11.297568 12.870371 84.861877
5.311913 -14.636967 44.805069
8.563149 15.139759 41.711067
4.089741 10.746274 61.409988
-18.833786 -3.339717 40.136108
13.052474 -11.782011 97.969055
20.060726 18.780321 41.066376
-15.367039 6.171798 90.861916
28.018343 6.763445 36.581909
15.784849 4.827610 92.797661
2.518708 11.055325 73.654564
6.053658 -10.879203 35.259773
-9.032936 22.157711 49.719936
2.358661 -18.752081 72.104080
-15.172067 20.367149 42.113087
25.896168 16.110424 58.235321
-2.753927 -18.497538 46.106834
-18.649508 -11.260567 45.631165
22.803503 16.534315 32.994694
-3.090535 -18.992706 70.643631
-1.519577 14.869124 31.259125
-11.611703 -18.798674 53.162960
7.532049 -18.483469 51.145954
-20.241192 12.521976 46.141449
1.028067 18.162563 56.807064
13.515378 -19.257133 59.558846
-14.271334 16.685404 58.673161
21.299364 1.882966 85.035164
-13.261997 12.553693 85.419853
19.537586 -11.999718 36.259239
19.676075 -2.667418 84.966919
-19.480234 20.017435 41.994091
8.851782 -17.517340 74.973953
-4.713281 21.808764 53.979782
5.403854 -18.285254 54.443283
-17.975531 7.775478 91.408211
21.172859 8.171016 49.827358
-18.312460 -5.498235 67.051682
-9.510180 -8.939120 104.809433
-20.108864 9.914187 79.795624
-10.976241 14.213865 58.537292
21.240591 7.804430 44.218643
14.399323 11.660954 36.798252
19.364317 -10.543682 73.432259
14.835485 -11.157393 79.801285
9.106973 11.558822 99.032906
-4.852972 -14.627903 76.040611
21.210476 8.744080 47.565510
-11.794182 11.747109 72.388184
-0.425094 15.210985 37.964840
-18.458761 -2.654738 43.404442
2.026369 14.851162 99.500244
-19.166521 -9.033737 61.664139
3.264081 -15.469565 92.556808
13.728457 -14.855432 78.246559
8.371998 8.960922 107.007095
-18.766005 17.621017 36.776497
16.933640 11.469801 80.742279
-11.092175 23.368107 46.522301
0.953186 14.220559 41.819298
5.192006 -7.509867 70.463554
17.601053 4.409624 92.976837
25.679384 -2.338053 43.630192
-20.136820 -3.546288 85.360321
0.860494 10.292035 57.373268
25.923855 4.088335 60.726940
-7.405914 20.607595 66.690155
-27.606058 8.430780 45.266182
-1.225206 -13.839597 67.601974
26.895620 -0.496782 47.125961
8.824458 2.218253 116.186707
-19.274599 4.249767 94.097092
-19.018732 8.211736 86.602142
-29.592800 6.105392 33.347546
30.156511 -1.180915 43.740341
0.073640 -12.992426 71.768517
19.201244 -9.784522 70.259323
-3.351596 -16.921995 72.640228
-20.368420 -4.721087 41.250210
-15.816499 -8.576912 101.836922
-17.446562 12.171342 43.008049
-5.396235 -9.666269 73.438347
9.705266 12.253244 52.789024
1.970990 -12.668268 56.024929
9.245761 -9.476079 111.462296
22.139448 0.540071 50.657104
11.869320 11.002050 99.054268
-9.365961 9.026638 103.238693
0.504852 10.299858 78.077911
1.602839 -15.021645 77.191269
21.656767 -1.346719 102.016197
9.689207 9.078174 66.752525
1.695740 -13.938449 30.949133
14.164710 4.975509 103.500763
21.831020 4.672605 48.259754
-22.489624 14.739506 35.602772
-21.218374 3.764595 81.058907
10.130697 15.535762 70.109451
-21.157021 6.823983 72.787636
12.063475 10.241754 96.910072
13.786101 4.995815 79.005997
3.239055 16.047789 35.361576
-1.158609 -13.773708 117.207268
19.575090 -10.222484 39.845329
0.829072 -10.479168 77.238754
24.324520 -0.327744 69.564445
20.478264 2.386985 48.458645
-11.616475 -12.583473 89.983025
-8.946320 -10.662333 120.251938
-15.103146 10.395688 89.960503
17.514093 7.390720 85.827682
-27.339849 2.619179 53.439823
-11.530427 -21.947826 38.397278
-16.755157 -21.227364 37.293980
10.324175 10.424053 69.364105
-12.325599 -5.550786 115.186234
-9.320169 -16.433397 40.522236
-11.345780 8.838015 38.070347
-16.187366 10.145298 56.192471
-8.796749 5.773181 114.247673
0.771368 -11.008260 115.023308
1.953252 14.697005 80.835152
13.238472 -21.014980 45.134056
16.115421 10.317122 74.099152
8.062467 -11.767739 114.362907
6.414287 15.204077 95.987030
-3.370833 -12.186474 95.141823
-16.082178 8.476397 91.656746
-19.585621 -1.876041 39.239998
26.843119 3.394710 55.715580
19.202108 9.526889 93.937851
7.816896 21.689869 32.623859
10.033960 -9.235551 122.158188
-17.056982 16.444572 56.268127
18.662542 14.436271 47.736897
16.999968 -15.704105 42.401775
26.096466 1.133289 86.900841
-3.808076 -11.858154 50.052586
-22.471645 5.974317 74.369713
-14.047656 9.404587 91.053719
6.078105 -12.007774 109.467796
-16.794619 15.584200 46.122879
12.063664 -5.825383 113.928833
-14.618481 12.617030 79.282738
2.917327 -11.892216 55.440907
-7.695211 -18.323050 61.670559
-12.147141 -15.529111 89.699951
22.991570 11.079116 66.482758
4.901386 -9.115540 82.534866
-8.723434 -10.292690 119.519958
21.799862 7.161888 50.449680
-0.321966 -12.954932 72.882622
7.745761 11.854020 53.390888
-16.978289 -16.380156 77.666878
22.775204 19.907276 43.795841
-7.628881 -18.486898 46.158794
4.590882 -14.941584 100.248230
18.547436 6.600735 101.068253
2.408004 18.180254 69.835258
-11.820023 12.485820 42.819283
12.598641 -0.555224 113.172745
-4.895653 -14.418628 79.972061
-19.903025 14.447274 72.483574
-19.165699 13.478637 80.355942
-11.876392 22.860785 44.769962
1.930543 18.771553 65.000710
7.585011 17.683554 72.896004
-4.068048 20.067101 58.917652
-1.830036 -15.857965 38.873940
12.314422 -9.477475 102.605095
-8.428154 -17.981619 90.345703
5.166648 15.368348 85.760529
-26.910027 4.736629 73.425156
-1.071100 -13.107080 112.379631
-16.114517 -14.063337 77.799881
21.470190 3.630720 59.645752
3.149980 -12.753579 66.529213
-23.136950 0.583564 77.486809
-10.202404 16.903437 64.487785
-15.285540 17.990824 57.873852
-28.908445 8.125051 43.468102
-3.477805 -7.826940 40.967724
-13.916585 -13.251149 96.976295
2.652496 -14.103763 33.791737
-20.836588 6.278730 69.498741
-7.942891 -14.945977 105.053177
24.133614 9.614777 57.393368
2.371593 12.550139 103.555275
-14.613384 3.363257 112.425049
16.672668 -18.246782 37.042858
-20.597607 -6.975523 83.625648
19.010586 17.278837 48.134464
-6.430226 -15.793762 52.517944
-25.443344 4.340867 48.808655
-24.802925 1.975902 79.511261
4.833542 -21.074018 55.825542
9.703309 -21.739161 55.768608
6.061731 -17.498987 53.718361
27.879768 0.999586 65.553070
-5.988530 -10.967269 89.086693
-16.229183 16.548298 64.889702
-11.842704 13.694775 62.034767
-10.855024 20.351345 70.015114
18.589090 -3.853578 84.392494
-12.149237 8.853832 49.078888
2.868447 16.672504 50.189186
11.346024 11.164299 100.801407
-3.995073 21.082403 67.173576
7.555130 -10.661752 44.285675
-13.895671 -23.099333 34.378506
8.571023 22.153452 28.571487
-0.208059 -14.588057 60.292240
-17.177050 -10.598314 44.305153
4.237020 -19.846256 53.914452
5.543195 -13.425553 34.096291
3.525068 -16.240904 76.948242
3.698349 22.800034 60.526649
-14.365188 14.261519 59.861355
20.358551 -3.636578 64.020287
3.424457 12.338913 58.018600
-19.766729 -1.866858 33.735802
2.651556 -18.647703 56.968693
-5.067368 -15.511747 47.429436
-17.303503 -5.963455 95.071404
12.519079 -0.854880 111.538185
-8.943396 -13.259291 108.254967
22.603807 20.049191 49.872063
-0.635686 -14.092175 71.045944
-5.831740 -10.580038 53.186817
-19.056818 6.481156 81.648743
1.331658 -12.470212 114.700172
5.062531 -12.598382 89.901016
-11.529214 19.077660 37.622894
-17.287214 -10.812930 78.826012
4.430215 20.029871 61.751610
-17.236128 7.021927 81.178940
-5.780183 -13.631403 37.378910
10.315112 14.669209 76.365028
-22.809698 4.208902 63.630192
1.889126 17.697887 59.880768
3.303429 18.016003 78.823906
-14.187640 -14.377289 90.742882
-6.720008 14.661410 90.966087
-4.615825 -17.679565 47.426979
-23.181025 -0.601549 80.303490
16.940243 -8.369924 94.044281
-17.646290 -17.751951 60.052555
7.751361 18.180626 78.787201
8.112904 -10.790358 120.480232
-7.683915 -12.530381 38.862869
-5.734187 -11.998124 116.240730
-7.116520 -17.875664 41.473598
2.422341 -18.905588 63.913692
-31.294054 6.697030 53.529255
-17.743759 12.268592 74.436790
0.885065 -12.652928 113.011070
16.970736 -8.775328 87.046860
20.957846 10.668090 86.832870
-17.013136 13.851004 69.966614
-3.548348 22.333952 36.498196
-4.798207 -17.673859 35.852562
-12.655839 -5.961739 120.564095
11.262082 2.912829 111.534966
-13.284189 -17.066158 75.158455
-4.855504 -19.657206 45.997265
-21.694817 1.403058 59.606705
-31.387163 6.659593 51.133263
1.312758 17.385513 36.154678
6.476415 -16.676264 50.127747
21.097017 14.747628 82.974052
-16.904543 -14.794712 33.998909
28.852152 -3.270061 62.983002
-3.133486 -12.660122 85.017471
14.688276 -7.110454 101.254875
-6.809461 -17.104557 84.178001
10.109564 -17.902559 84.262192
-7.967092 23.045807 33.802494
0.981091 -8.467119 34.521107
23.561218 14.587389 39.069042
16.450430 -0.759705 107.566391
-10.472170 15.001383 38.540188
-6.082187 -10.649247 38.944210
0.125339 16.062029 58.248428
10.257458 -15.493825 91.745247
15.384868 9.379077 93.990196
5.826945 -14.801662 56.139149
21.121334 0.801718 81.452026
12.515013 9.000456 107.547363
-12.823240 8.633276 68.581200
-22.354746 6.966081 69.765327
19.543364 -6.702395 70.937050
5.060337 9.757134 58.406540
-21.148008 -4.480489 64.910912
-7.843282 -17.637371 69.403435
-5.488254 -15.646147 44.544456
14.762674 -20.778938 44.938103
1.860793 -18.672321 85.208115
2.174058 -12.357870 105.720184
0.685526 16.282541 41.748909
22.979876 12.149303 57.473717
2.204868 -10.059631 33.110981
21.419817 6.120823 49.367779
11.475237 21.699545 34.024445
5.766037 11.515637 102.653816
5.954145 -21.844992 53.985901
13.574682 -10.385647 121.113869
-4.175922 -8.836359 64.364609
23.868113 -2.021089 81.043419
18.812119 6.468607 79.233871
20.910475 -2.926953 68.225510
0.774847 -16.208824 82.861778
3.085575 -14.755675 38.892693
-11.678807 18.764456 60.382027
-4.830485 28.873693 36.316326
6.676883 -8.836763 61.395542
-19.305225 -20.107994 34.478859
19.387514 -9.172562 41.634544
15.690619 -22.012663 32.024445
-18.220617 -12.680344 60.004398
-10.927930 -18.100576 93.734451
14.466067 -10.504065 101.049026
18.703760 -3.271823 95.329185
30.689022 5.504879 37.716549
6.139103 9.398977 105.432892
13.665212 9.116935 56.592201
13.788855 10.247752 68.216072
-7.554196 16.797544 77.440239
-10.437552 17.016792 43.751434
-5.050030 -13.641634 106.022919
19.743603 -1.602318 93.786987
-0.048050 -11.808863 78.072189
27.896557 -2.277112 62.197453
5.151381 16.322542 84.526634
10.277725 16.946466 34.132969
-3.511873 -8.946475 72.895370
-13.243432 10.819920 89.667381
20.568707 -4.254794 51.854168
31.960585 -1.778847 42.335438
-13.724815 11.005523 90.647270
-16.035446 17.535473 59.019276
-15.510941 -15.408696 68.655411
14.689548 8.838413 81.592209
12.212838 -2.122291 117.173309
-2.215124 22.840216 38.057693
-20.042471 -0.715019 99.387787
11.494724 -7.745319 108.691032
1.975119 12.584173 82.003334
1.403062 -15.675135 90.347824
-0.100669 -18.053738 94.415695
3.093697 -12.138674 65.130898
2.452936 6.862311 112.522598
19.040081 11.616171 90.415634
-15.244719 -7.965781 29.892403
7.561038 11.623113 107.382339
6.752393 -11.129283 60.627514
-7.950145 -12.088053 59.300407
5.374103 -10.489447 58.354259
22.599770 15.211297 65.297157
13.159198 1.354602 110.947472
-14.879905 5.447718 111.567207
12.961950 -20.891638 40.378845
8.123773 -14.420119 90.861038
12.556724 11.116928 86.448120
3.056625 -11.859269 72.871643
12.190096 10.947413 63.097546
-12.521852 -9.088671 118.912102
22.283283 19.335094 51.221958
14.423007 -10.824683 87.587570
4.312905 15.522245 47.898315
21.547310 13.001317 37.963676
6.503164 -9.718226 46.132984
-3.577282 -19.689939 33.262238
1.033569 -12.735249 94.184807
-4.638023 -17.293436 69.690628
-26.162312 0.576541 47.423740
4.211938 15.970240 35.340527
2.834593 16.348680 52.027599
-18.326694 -5.725399 94.506409
6.620633 -10.913700 78.588585
-0.523125 -19.156170 43.162903
3.774223 -20.632826 47.420212
16.188683 -2.108685 104.037064
19.575821 15.270815 61.262779
2.513410 17.466930 68.539764
-19.070425 5.119397 93.067253
7.508128 -22.472204 36.118359
0.639881 8.842859 103.490257
7.929035 -9.724604 109.193947
-12.512861 9.491445 65.482574
-19.843105 -10.867970 64.201767
18.053722 -10.361851 82.537025
6.922948 -14.324865 104.704956
25.025766 21.936193 41.425468
2.665756 17.877657 73.777641
9.790966 -11.917577 104.785789
1.826352 -9.931706 47.860394
0.009673 17.792835 61.492702
3.173194 12.554349 97.299324
-14.195276 15.059568 53.841370
7.694299 -18.111046 82.567818
19.443159 -6.243548 93.719238
-7.474725 13.237008 92.885223
0.251637 -13.660526 70.788551
21.468666 -8.125954 71.862518
4.894931 -9.726139 42.040081
6.705071 -9.540699 73.463905
6.188265 -12.135712 112.699387
7.451938 -13.395887 105.302620
21.829910 2.452002 59.912266
15.911988 -14.561715 72.143112
6.526220 -19.135302 76.913818
2.700523 -10.326221 47.854073
-5.823086 -15.209205 53.993431
5.167968 11.509297 104.380463
-13.836428 9.166018 51.593746
-28.233652 1.836771 66.456924
-13.395496 8.183908 44.728546
22.812210 18.250551 50.054573
-4.907462 -19.393326 53.216419
15.471367 -3.522693 110.736435
15.448765 8.277811 62.785885
17.720921 -12.638761 73.950912
-0.940610 20.631334 35.583771
9.359847 18.973167 54.376736
-24.833391 9.773796 52.804127
-9.709866 8.026382 50.330788
-22.079233 16.049906 35.425129
2.573572 16.050898 72.418686
19.204655 -5.457203 64.528915
-5.627811 -16.856859 72.062996
-14.047379 19.987654 44.836205
-3.406124 -12.433525 112.919037
31.879154 -1.714203 42.906513
3.008422 22.198372 64.698151
-17.586695 -0.537721 101.338974
21.356615 7.036016 59.502068
10.460853 17.166080 42.017151
2.655891 -8.872111 89.230156
1.204809 -13.772665 63.660809
18.879206 -3.835043 42.507355
-23.682413 4.558260 81.109116
20.870964 10.065585 56.302193
6.594110 -12.119626 67.041084
2.218938 -11.280381 109.769867
25.905399 19.600698 50.741035
-5.026587 -16.261543 81.379837
18.782648 0.772375 61.087936
0.260961 13.660208 90.574120
13.390461 8.213430 99.328987
-7.126155 18.991970 72.946960
-11.805819 8.545527 100.659508
-3.392258 -13.354205 95.334938
2.067705 11.601776 36.428959
8.370061 17.730022 46.097801
-14.009578 14.435704 77.929733
21.272755 17.108810 62.568642
19.822632 0.188950 94.099594
-19.052822 -1.510688 59.219227
-27.564075 3.508542 63.283348
-9.425698 -12.130822 110.972366
18.192860 -15.478511 35.932289
7.224009 -17.819860 85.224419
6.264715 -8.263648 82.819733
16.395975 -18.061626 36.585758
2.974540 -19.888050 71.328018
12.263416 -7.303820 109.547638
-17.325724 20.319695 42.148140
23.093575 22.197859 40.454453
4.354358 -10.062899 46.137150
26.430054 2.971513 69.357414
-4.212979 -18.715340 44.718681
-6.529063 -17.060686 64.097969
5.826822 -16.297163 78.980469
-18.327837 17.759781 54.487595
3.046598 12.307966 48.779736
25.482325 -0.761833 52.808758
4.595316 15.280475 87.265274
9.160384 15.375837 65.025902
8.871626 -19.449926 51.909546
-8.716333 -10.224798 116.934868
6.297712 21.337440 66.256119
-18.156748 -17.888065 42.124477
0.667189 -12.527422 49.793980
-32.168438 8.766232 45.318722
-17.862694 13.454966 76.684792
0.483716 -16.236038 86.369247
19.084583 -12.843287 31.312489
-29.707367 5.606749 46.958244
-11.998561 21.982220 34.512856
-4.491611 -12.010433 90.994781
-14.565070 10.524643 94.765236
-3.119448 -13.967330 98.180199
13.653230 6.842137 106.605621
20.342430 0.349887 70.473747
6.855649 -11.562552 105.295242
4.231220 20.117476 60.241055
11.774259 10.244885 82.612747
1.958851 -17.335293 41.420181
-0.594638 -17.068705 39.898529
2.861176 -17.313425 66.954773
-20.974012 19.050999 43.771076
-17.078312 -17.206097 36.956322
-12.914539 12.823446 72.859230
29.950092 -2.303707 34.822838
-16.155830 15.758044 66.367973
-18.202723 13.978305 73.574455
4.417548 -15.859990 55.946651
11.050465 -12.265160 97.743530
17.440197 9.980278 94.019722
8.774187 -14.378685 108.304367
7.912546 18.185596 65.069710
-17.064308 6.870340 75.515251
7.786991 -14.799404 70.294975
-15.487167 10.169972 91.832451
15.864097 -11.184354 81.224564
2.150127 12.793455 66.967812
15.503796 10.661981 88.498520
-11.509674 -8.175033 109.187927
-4.573393 -7.200393 42.343716
-31.988596 12.493051 40.927605
8.823175 15.534348 87.978271
15.957767 -4.034824 33.259140
16.312300 10.182512 49.406662
-10.715818 17.239668 68.328842
-20.680607 18.616581 39.474087
18.562664 -0.691634 60.837234
