ply
format ascii 1.0
element vertex 2048
property float x
property float y
property float z
end_header
13.223168 12.462854 144.908051
6.803575 -11.049221 96.882240
-23.544926 4.388378 75.687012
-2.942920 11.687452 84.601036
14.323800 -4.754375 108.128288
3.736725 10.091191 75.260773
13.503302 -2.434902 143.834671
-15.006118 4.364489 129.764160
-5.359134 -11.391305 115.751526
-26.764280 2.470010 72.958801
-13.211251 -10.872554 87.740402
17.805841 9.351064 81.014778
-3.725713 8.074326 151.586823
5.866909 6.710435 155.122574
-4.064544 11.334269 103.201958
-2.793581 10.597546 151.469284
-15.761440 4.678223 131.921707
0.265897 8.697392 116.256393
5.887279 5.548094 154.906631
-10.408772 -10.517561 72.774391
3.363135 -12.045334 116.528778
5.329704 -10.175296 87.189301
-5.988097 -7.581525 139.896973
-12.347284 -10.288827 133.508255
13.635595 -6.192670 122.754150
-13.886181 -0.386544 132.267944
0.594805 -10.701139 140.231522
4.745263 -11.789066 83.122429
0.694174 8.580020 116.271225
19.959005 -1.108069 83.219559
13.142398 -8.447236 130.226685
-0.658688 -7.665751 145.350372
3.767706 12.281965 77.691429
1.651868 11.447825 79.525841
1.936688 13.444146 141.881653
9.665816 -11.856047 74.756432
-3.341630 10.379075 151.115814
-11.774029 -7.733303 128.041382
18.643801 -1.483055 99.213455
14.518461 -9.705705 99.392319
18.461828 -5.371699 90.684044
-9.436290 9.344238 131.057602
6.861504 -9.869881 100.237251
15.336401 2.810549 106.386734
8.226113 -10.195549 93.412308
5.472266 8.108655 120.527916
16.248547 -2.950759 100.283165
-18.996361 8.526895 77.095551
19.615274 1.540464 85.744080
-12.877481 3.485221 130.048920
-13.311046 10.907310 145.868576
-24.205299 -4.168510 77.384148
11.567212 -10.736324 80.806473
23.784134 5.565064 82.879898
10.607757 11.246952 96.833946
0.767863 6.227685 114.947693
4.734420 -10.732416 100.018822
-13.785031 4.051893 99.059570
-8.809091 -11.086385 112.963173
-12.920015 9.730362 151.355255
-9.556770 -13.612776 133.346191
-0.119987 -5.950531 147.392365
-0.017655 -4.453536 150.188568
5.657214 -12.224286 103.862457
1.901086 -8.309343 74.635643
-15.203580 7.621578 72.263443
-19.161465 -8.654280 75.462418
9.747246 -11.890274 107.459496
-11.166409 -10.176431 128.271210
-7.864017 -6.856369 144.565536
-13.929282 3.801208 135.124146
-3.080989 11.337564 141.334412
-17.220091 -13.014860 88.044724
12.896324 -5.548230 132.495285
-4.127337 -11.285650 137.867981
7.394202 -2.414659 150.965820
-3.858272 12.177702 76.042717
8.720888 -12.202406 77.450226
10.313554 -9.220386 109.153450
6.058198 15.557312 139.949387
-13.794988 10.072830 142.171341
5.256033 -11.636473 119.661850
-18.688742 -13.165872 81.301666
-2.143725 10.726633 73.702629
-11.959384 -2.363107 120.399658
14.711054 -6.972736 98.818558
0.143366 9.668282 135.330566
-15.183420 6.150475 101.574036
6.662909 -1.475761 149.639771
-14.927924 9.989022 146.120728
-15.062269 2.391976 121.233101
-17.390139 7.276469 81.002754
17.258747 -9.381011 72.417358
2.917904 9.416786 111.414581
7.316069 -12.835782 82.749100
17.316761 7.844512 87.833817
21.444378 4.171985 81.051605
-8.156502 -10.562386 137.825272
-16.925308 9.738381 83.293274
-23.043392 -3.732143 77.344780
-12.893080 13.224517 79.867516
-19.416838 5.145603 74.817535
-8.687629 13.346591 136.961868
14.859569 -0.763748 114.799271
15.407872 -9.469186 80.941719
-11.323338 -11.522550 81.713440
-15.263312 2.311124 106.119904
-9.730641 11.694880 91.228348
-10.372561 -12.869249 128.470139
6.640284 -14.526057 133.154648
9.339999 12.142295 78.331665
-5.744403 8.554311 156.863571
11.856387 2.598847 111.278389
9.351201 -10.334802 115.703621
-23.608585 -1.115848 76.248741
2.782630 12.044060 149.574158
-12.127048 3.411285 129.750031
5.747304 8.979858 130.914734
7.504787 -13.545192 72.834183
10.159540 -9.050076 92.085342
-6.890905 9.529612 105.073059
23.947392 5.926339 79.061913
-10.269954 -10.407769 80.970451
-3.286367 8.412290 125.454720
8.204813 -3.639073 146.149979
6.974924 7.312759 113.218086
-10.701688 14.882176 73.914047
-2.532902 -11.158303 107.499420
4.828204 -11.057903 96.370445
-1.567149 10.715995 152.172958
-2.077485 -10.470254 99.628487
-12.287224 2.240436 128.648773
1.945715 4.793935 115.074371
15.730766 -1.670215 112.364304
22.180626 -11.291184 70.612091
-7.066514 -8.093825 116.390251
-2.809526 -13.270186 128.157089
-3.517135 13.161820 88.987976
20.583235 9.160041 75.268135
-19.532516 7.963019 75.406143
17.601614 -0.297010 95.871513
4.413156 -12.406141 104.964241
-23.536528 6.053038 77.353386
-12.375536 7.818321 98.385620
-11.589521 -9.683626 107.372437
1.424748 -11.083963 82.518585
15.705978 -7.850696 100.371338
-16.944809 -11.255136 84.420738
-12.397422 3.171040 113.427444
9.431834 10.456972 85.641708
17.504925 -10.293620 77.505707
2.864797 8.990611 72.686661
-6.616984 -10.716419 100.742989
-23.482439 2.409212 82.767212
-18.622578 -1.424562 93.325676
-5.981671 -10.735048 93.274773
9.401515 12.051782 145.434464
13.271502 -2.970187 126.954323
0.428682 -10.526456 140.430115
10.849113 3.244133 112.183945
11.888792 5.955914 126.273491
18.692287 2.688975 89.698654
-3.297364 7.772586 127.980461
-12.124247 -11.204653 71.964142
13.670478 -6.046124 100.079567
-5.644602 8.177154 153.553665
3.872189 -12.202707 106.672539
-18.595345 -10.164540 71.285690
21.855949 -0.525410 75.168030
19.207924 2.220968 79.395882
1.613264 11.542530 100.352196
-16.204790 -2.655887 96.846313
4.059524 -11.856214 109.558365
20.390667 -7.069959 87.231972
22.103201 -11.241600 75.301781
-2.656856 6.704214 118.229904
-12.978933 9.135020 101.197731
8.737282 8.448822 153.304916
-4.612648 1.279434 152.593903
26.707628 9.192061 70.732170
13.924258 0.551945 119.745438
15.435061 -0.614152 138.677063
-15.239516 -5.950847 134.823181
9.365634 7.807170 110.997833
1.236283 -12.860618 131.083008
-10.458069 -10.900759 90.497124
16.015642 -6.387528 133.987793
-19.079039 7.167588 93.121582
4.165917 10.680691 82.215927
-3.761601 13.033363 145.957626
-0.291607 -13.194902 128.613632
-4.711045 -10.512629 77.861206
-2.675097 -8.139494 95.719070
10.188432 5.398444 114.856926
-12.845098 -5.766326 113.185143
15.414166 -12.287919 79.530426
15.793328 -11.204974 70.771370
3.159734 6.193972 118.500450
19.871075 2.430333 87.625587
8.547571 5.415947 119.784019
20.903748 -4.796947 85.658279
-2.825967 -11.557473 114.255539
-3.897644 5.643335 112.907196
-18.359009 -10.205420 72.472504
-6.114315 -12.746898 118.169380
-9.602240 2.567734 120.800774
-17.453922 7.935680 152.265350
9.569118 -12.247890 76.709915
10.230125 5.888019 153.709290
4.894611 7.407058 112.026276
-3.534747 8.102634 105.549271
7.013204 13.064433 81.004440
-15.195418 -12.521388 86.669128
-11.516263 -11.646811 83.833420
21.346062 10.886437 78.900078
7.553029 -10.857390 83.472557
3.057869 -11.530298 116.721626
0.380060 -4.820701 142.408676
13.834339 -1.073583 123.019501
18.381611 9.920675 75.730492
-22.634289 4.249695 73.808052
-5.502745 9.771459 156.806824
-0.769226 -11.118805 86.220261
4.523646 -10.877393 74.820969
19.045578 4.444020 89.583382
-5.102509 10.771447 100.913788
-1.091815 -14.418065 133.672653
-3.045833 -10.498999 71.721992
16.467157 0.376175 106.624893
4.509747 11.402234 130.859070
-21.046818 -2.520588 89.171242
6.547693 -9.594084 76.505646
-3.272272 13.550664 88.849770
19.304565 7.496956 87.769554
19.517168 4.025322 83.625687
-15.220848 -13.063522 83.961967
9.227661 -12.858415 132.757187
6.443962 3.029844 150.434158
1.645346 -11.982594 81.849251
-2.629205 10.598207 94.061661
21.934179 -9.633343 82.986320
13.360963 2.796381 108.269058
2.001235 11.722880 137.893890
23.906651 -11.966478 75.884766
17.841232 -8.481349 78.061607
-1.941490 -10.970425 86.891327
-10.882794 11.971872 149.481415
-4.030738 11.951338 98.471970
-4.185458 -13.500463 130.059433
10.120486 12.139197 143.368362
2.778543 -6.471667 144.148941
-5.411724 -3.054770 146.950394
19.945723 -0.338232 93.043106
-0.529432 10.093667 101.748268
12.819234 -9.288818 132.946960
-3.110102 11.954977 72.227898
-11.075176 7.091551 131.936523
-14.867353 -5.271160 100.282608
-3.210519 8.683843 107.066315
13.985575 7.035023 137.375107
-7.708800 12.146095 94.480232
-11.319298 11.864564 144.065918
1.893903 -13.501066 124.457359
18.422504 -10.363404 82.239517
9.755866 4.569344 116.897057
12.469422 7.840601 101.578941
17.610928 -9.318643 87.312408
-11.076393 11.981319 85.543701
13.232958 9.355374 150.551086
-10.218921 -9.825199 103.038948
-16.812120 7.546093 71.618118
-13.918316 7.565258 134.860397
-10.612463 -7.402819 115.228455
4.701936 -12.200884 104.885880
2.428651 7.727764 112.486633
5.047200 -8.261728 94.929779
12.123527 -9.731330 113.612282
-14.350377 8.839533 97.982216
-20.665636 -12.610003 75.312790
-6.814995 -14.069116 71.640060
0.117865 9.398369 130.940689
-14.135913 -5.427268 113.782845
12.325372 6.978271 102.961029
-23.574293 -1.716779 77.864471
5.103582 11.316657 149.859512
0.919782 -9.031633 71.958771
2.898229 13.763095 92.413765
0.595275 12.051673 86.310577
-17.180252 -1.067685 93.202126
6.489948 13.536813 94.357475
14.813745 10.747927 75.849777
10.656094 11.416497 84.714355
-9.846571 7.901728 129.084595
21.013542 4.225643 78.908180
-10.953090 1.981519 123.741203
0.256244 8.734136 125.868134
-4.358561 -10.619291 103.640594
-0.490081 12.741372 132.558289
13.947565 10.881203 145.460617
10.143158 10.226724 142.985504
-18.329008 9.094615 73.328087
-16.851288 9.670853 73.807198
-20.193426 -5.405231 89.742279
-25.864925 2.543648 72.460876
7.217210 -10.058950 82.888840
1.652438 -13.779799 125.129532
-24.735775 -2.048460 75.690094
22.677065 8.198856 76.056908
5.708980 -10.945839 89.818260
13.737026 11.283017 77.990906
0.681144 -7.212622 145.570831
-3.264721 -11.982009 101.766525
-12.684810 -8.035197 110.801460
-11.790650 -3.411656 122.099899
13.031663 9.309495 91.403152
15.046334 -3.830032 147.164719
7.782463 10.247031 134.463486
11.964807 4.084291 151.539047
-9.504665 -6.577076 142.972244
20.168634 -3.375903 90.228981
-13.033865 8.283476 131.289581
-3.007987 -4.305260 149.220001
-17.055653 -3.335975 94.813301
-17.013823 4.232048 99.648514
15.127319 -5.672021 103.759766
13.529585 -2.889266 127.618874
-11.290813 4.621741 152.890335
-21.151932 -5.399080 71.771172
13.238297 -3.669264 132.902817
9.877911 -1.491551 149.482559
7.735681 9.911983 129.985367
20.759567 0.865099 92.706001
20.644430 -2.334092 77.704887
-4.373583 -10.379432 79.063721
2.631646 12.312869 138.780045
14.349867 -1.232325 132.221176
-10.720103 14.436039 84.130470
16.032402 -5.199568 132.142944
-14.518715 0.607470 131.566055
5.418425 -9.324080 96.495964
-4.692052 -11.986042 111.841499
13.876787 -8.793636 107.625420
2.782788 -12.322884 121.123863
12.560511 8.072392 151.625381
-10.657762 -11.227456 112.648689
0.596096 -5.434060 147.736618
1.405647 8.147404 121.327736
-5.782192 10.029011 147.089691
0.392207 10.112436 104.106232
-20.085375 -6.650070 72.221718
-17.021004 0.955055 92.384712
24.237471 -6.257549 75.752388
25.832432 -8.250410 72.584198
-11.644530 -5.078667 113.390633
0.599678 -3.625318 149.010880
0.227586 7.395901 113.976143
20.387423 -2.634390 81.304352
13.824036 -9.128386 106.568825
-17.519720 -3.497588 95.651596
2.154763 -12.967998 88.383812
-21.518475 2.494706 88.400002
15.383167 8.133755 132.986618
6.017176 0.009901 147.882248
-13.843801 -0.309422 129.484283
-3.508669 -8.692573 140.851700
3.184736 -11.930635 87.989906
-13.048573 -9.547759 135.715164
-8.229088 13.403691 73.056541
25.359922 -7.608470 80.098358
-3.943939 -14.403664 133.711029
-15.223975 -3.400853 133.743759
1.365044 -6.322562 79.795395
-6.341899 3.209936 154.613724
2.490452 7.964107 111.423187
0.986345 10.898010 152.458206
-4.465236 -14.422379 107.097466
-6.700408 -2.447829 148.888245
-14.117266 9.953805 85.447754
-12.000035 9.795902 152.692963
-15.014895 13.302423 74.967880
19.285025 -0.184733 84.440659
-2.458483 -6.094233 146.785934
14.564702 4.976486 133.152267
-19.574427 3.063133 81.644798
11.287405 -7.820090 121.038757
9.710269 3.650123 109.314903
-9.396070 12.779043 88.954781
3.544523 7.098866 116.609306
12.747776 0.007927 111.008018
-10.956994 10.894551 94.474365
-6.874367 -11.980678 126.998184
12.923191 11.734924 76.724670
-10.522208 12.154733 77.229271
4.124403 11.291340 102.488304
-10.304174 6.492359 153.147385
-18.853754 1.334280 97.712196
-9.011859 11.107556 82.913155
-14.457261 -6.021621 105.465874
14.861291 -1.792911 147.355301
-16.205132 -9.562461 88.727013
20.874262 4.189546 85.083885
3.283047 11.315314 72.381050
1.583449 -9.234545 70.639236
-16.433500 -12.419662 78.316872
7.574702 -10.327689 89.295120
-20.203598 2.362614 93.308525
5.290409 -9.244390 93.229179
14.238925 10.752892 81.862381
15.147391 6.410932 97.534927
-18.023340 -6.683520 99.417358
-13.719886 -4.095077 132.809143
19.042828 11.584209 69.484879
0.633287 -10.785521 106.720863
-3.915447 -13.212207 136.352264
-6.875727 11.585611 136.876221
-1.868166 8.904455 124.743599
17.006758 -6.262562 101.892105
-12.957699 15.712098 69.524734
9.925434 10.381912 135.424973
10.426420 8.487875 152.512863
-10.888535 6.365702 125.467094
4.357111 14.916171 145.065964
14.066238 4.096038 131.978867
12.083606 10.841851 91.073105
7.970391 9.607888 151.013260
8.486825 -11.239885 120.257462
7.574530 8.917561 115.002365
11.451782 -7.351967 107.963379
7.078934 11.522611 135.225342
-11.066679 0.450172 150.040161
-12.334285 -9.894870 136.658905
-13.028374 -11.463527 89.839172
24.753817 -4.890145 75.653893
4.344544 -10.094699 97.300667
-13.874687 2.157692 109.338493
-18.431429 3.801869 93.657623
-1.844041 -16.090700 67.774529
15.848332 1.268259 99.320786
-0.758122 12.136880 95.300911
-6.118690 8.802965 127.259529
12.789492 -5.627798 141.180908
-1.072530 5.363561 117.322189
-4.721313 13.083660 137.792740
-6.392121 9.687976 109.454720
23.798901 7.766671 78.072235
11.855099 7.504474 131.477783
-13.706533 8.531374 79.468025
-15.651239 8.005263 87.029060
-12.825882 -1.177253 149.506531
16.417524 -1.908310 110.505730
12.411201 -7.063711 118.830315
9.866843 -11.176270 125.514420
12.265133 11.215234 86.242706
-2.745080 -5.271567 144.987518
-2.321908 11.379051 100.340851
-10.228414 -8.843698 141.358917
-13.746296 9.181720 84.797165
-10.768609 -5.969487 115.040688
-17.708481 -8.613571 81.577133
-10.446364 10.646997 102.721886
-5.465554 11.195184 134.911423
0.467104 10.462014 149.525665
-14.667749 7.794680 85.727539
19.268373 -9.663353 83.437279
-8.623572 -9.146877 96.045013
-4.410785 -11.759868 106.923431
3.854205 8.145021 150.013336
-17.461586 0.717149 99.495361
-7.592296 -11.013945 89.640320
11.844367 4.367535 107.985321
21.228559 -9.907025 73.200432
-11.675506 5.915237 104.805992
-3.985938 10.481526 133.715622
-11.710375 5.092985 154.276917
20.864431 -2.933773 87.487366
3.162948 -10.776083 77.367500
-16.152922 -3.733163 144.449402
-5.104472 5.756631 123.481575
-16.282631 -4.389690 99.850365
4.931209 10.801758 71.360947
8.176105 -8.644627 98.066422
17.581827 -10.669033 82.972610
-4.706700 -12.093497 135.152725
15.764464 10.096733 78.228127
11.984897 -12.376010 134.584824
8.768983 11.760694 71.327179
5.030859 10.108856 80.416260
9.561558 -8.517625 108.500809
-4.622597 -14.207538 71.446693
1.176849 -12.070697 129.569687
-18.372217 9.340816 88.830948
19.995918 2.502424 79.243462
-17.338888 -1.954544 137.290436
8.467499 -13.320086 74.253922
2.633320 13.647428 90.188072
11.605178 3.264059 150.116013
-25.367739 2.270790 73.881790
1.363246 8.593871 109.443802
7.471103 -11.520155 76.312050
-11.126393 9.340672 99.998199
13.293277 -11.484772 126.780960
-10.697312 12.271151 139.032608
-0.167797 11.356964 84.975060
6.302877 -8.982349 90.980415
-1.921135 10.438347 154.192169
20.509682 -6.158203 83.510239
-4.819771 -4.701566 146.379669
-5.019428 -12.345448 134.634735
-10.118375 14.213839 75.841476
-10.452976 4.387555 127.511490
3.917477 11.610095 135.499237
12.697243 -3.491179 146.003586
2.598862 10.410246 84.957214
-9.294590 -10.495144 139.879822
-6.765469 -16.382627 70.756973
-2.731636 -12.357732 127.858643
4.346372 7.658339 123.491798
-14.309964 -4.576561 115.830666
-0.694275 -7.535470 96.623550
15.478341 -8.710772 94.906548
20.717754 1.372602 76.778297
-7.802292 11.146102 134.653793
-12.540515 14.602595 80.493744
6.639144 13.909638 80.790031
1.093675 -2.576528 147.845612
15.153443 -11.358527 130.940475
-10.502892 -10.115746 90.096764
21.706928 8.449231 79.785782
1.004392 12.792288 146.608582
-12.695886 10.461914 73.309196
-1.025170 -3.288417 151.040833
-5.205509 -10.247999 113.448509
0.014052 10.487732 149.398819
-8.870273 11.092680 130.214920
17.477684 -3.275722 129.176575
-7.095284 -12.961999 137.119019
-15.143150 1.198321 105.052605
17.168661 -5.304578 93.765984
2.565589 12.675522 155.540512
-14.131520 -9.645733 90.783371
2.029973 11.963016 133.087006
-5.269044 0.901544 153.807541
-15.856724 -12.949046 85.875526
-23.047295 -2.246772 69.491142
16.357168 4.996585 98.967003
-15.194370 3.860269 148.326920
-12.763786 5.917656 102.460777
10.500952 -8.963110 108.276474
-7.317186 7.300767 106.727676
10.930015 -5.781235 139.583710
10.380867 -10.396040 100.356735
5.953639 -8.857608 93.755402
-2.782611 -12.319444 116.279228
7.976770 10.568340 96.274300
-11.184940 2.826231 127.901932
15.668837 -0.950778 154.063675
-0.408638 8.757983 152.772324
0.526209 8.481338 120.157478
-19.813055 0.251348 91.172935
9.633060 -9.286263 99.159103
14.690675 9.168879 74.651077
-15.081358 -3.152470 141.067108
-1.810102 6.821516 123.803635
-17.223345 -1.023914 135.755753
18.368565 5.314661 87.131142
-8.945866 -1.507553 146.767090
11.815790 -10.242103 138.508316
-16.917036 -0.824129 98.942955
-15.925313 8.327380 79.978104
-6.249748 11.318157 72.022224
10.532023 12.024178 73.443535
10.826716 2.556857 118.015953
-2.849370 8.274095 124.326973
-17.476231 -11.548152 76.212143
23.214636 8.010833 79.528763
-1.069867 13.866153 143.942307
7.137537 12.694805 87.355530
-14.773323 -7.798801 102.841644
10.050184 -11.365485 86.328468
-0.503739 -10.338959 138.631500
18.946566 -0.266269 79.465309
-12.763019 11.892808 144.358002
18.495081 -8.690557 87.725937
0.568722 -6.110328 74.440125
13.372317 -7.334313 111.153954
14.937579 -6.563713 130.514999
13.779726 10.574379 143.592422
-10.980307 2.918166 124.158035
5.279323 -9.707870 120.155251
-13.237250 -6.953352 125.731987
-5.643870 -8.115885 94.315826
-5.625995 7.926703 155.953079
-5.360102 -6.541541 147.441513
4.146618 -6.745929 142.792862
-15.780297 8.517953 75.359062
7.680250 6.330751 122.798599
14.112385 6.133125 98.240402
-22.336349 -2.716379 80.222427
0.946878 -13.789704 104.503906
-3.580525 11.781228 97.764740
-5.490905 -13.590906 105.212830
13.580149 11.548504 90.413544
-11.804508 9.081585 152.384933
-5.540342 9.284890 107.515976
3.433799 4.405771 116.611443
-18.678213 4.124919 85.561348
21.172361 -9.965029 75.730240
-7.955986 -4.064799 150.374878
10.623394 11.058300 137.092010
11.428346 -10.766538 86.584854
1.521087 8.151255 126.028595
14.387060 -8.085735 125.258583
-15.233924 5.465624 133.006927
7.313118 5.628088 119.387817
-0.012236 -11.115433 70.276909
-4.759533 -8.449988 71.955986
14.893512 -0.525107 100.395775
1.383974 12.417112 103.904655
4.195804 7.366915 122.196602
-12.337124 -0.443265 115.843246
-17.234791 8.406179 77.675499
-14.063078 8.888333 147.082779
13.900676 4.809722 111.573006
-12.514812 -8.798831 93.766960
-14.707097 3.622636 132.066727
-11.811479 -5.919601 141.024429
-7.936878 -8.832846 93.042542
5.657434 5.744706 114.693779
0.352317 -8.680101 80.012497
-9.366895 -11.787333 123.348923
-17.036730 -0.389467 97.722610
2.982209 -2.412568 149.155975
-12.229754 -9.863185 124.156914
-9.688156 0.205570 147.946716
18.748953 -10.893183 87.542870
-0.528919 -12.977280 116.256844
13.038289 -3.137791 127.665176
-2.122347 -8.370615 141.914856
-12.804677 -10.037872 135.510147
4.213491 9.905820 82.970566
-2.403896 10.175000 154.131378
-2.053504 10.311317 110.730339
-19.644051 -5.318938 79.769493
-11.552231 -8.303432 111.049507
12.468882 -6.567903 128.489838
-20.337206 -4.763974 74.253250
2.702914 12.145382 80.566040
-7.102909 -9.205238 97.766022
-9.051182 9.144917 113.898613
7.884369 -11.335201 70.315788
-14.475731 10.172607 79.161552
-7.208147 12.229522 143.146576
17.517262 -5.163564 96.678192
14.111901 -7.755292 131.217407
7.987916 -12.853860 71.805702
4.858591 -8.814387 94.372658
-18.965193 -12.757205 73.175186
-10.162769 3.935375 122.068184
10.244890 12.288673 84.642677
8.081141 -10.657525 76.589653
-11.185100 12.304096 148.465088
-18.701735 8.669374 83.029678
-19.623421 6.050962 78.368164
-11.877888 -9.992647 93.615036
19.931873 10.229140 76.989319
17.784616 10.402798 81.137947
-9.371325 15.062090 76.256714
-7.844503 -8.616323 139.880997
18.245140 10.027965 75.489304
11.228615 -13.947317 84.395088
-5.385544 -9.231208 83.506691
-0.489653 11.677146 153.156281
-12.057402 10.440422 72.913826
-6.399954 -4.524323 155.111908
13.927772 12.997624 89.925140
4.021491 11.184317 93.055061
-19.346222 -8.768207 84.240639
0.199588 -8.590483 142.110107
9.016623 -8.913626 139.183899
3.241373 -8.631922 94.388542
-1.908358 13.311257 87.979889
16.737377 -5.437306 105.200851
-19.422520 -10.857348 74.787735
10.719207 6.525839 106.041222
12.418267 -8.370962 131.612915
-1.456500 10.205257 107.193413
10.360894 3.708358 122.081757
12.031358 -12.417081 126.810516
16.279705 10.364497 69.098946
15.879140 -3.838202 126.543800
10.104048 1.539612 151.669525
3.653535 8.778162 105.764671
-12.587329 4.052752 112.298340
0.419075 -9.928635 138.602646
-10.296614 3.422439 128.867706
-4.816961 14.441220 98.696274
-5.649772 -7.904308 97.856369
11.498249 -2.246569 123.679787
7.382644 -14.450060 72.547287
-11.443008 -3.842686 124.408997
8.208618 13.204724 71.735344
8.228967 12.854062 78.019318
-23.214418 3.141050 80.343781
12.913661 -2.347586 120.331490
-20.087261 -9.126023 75.622116
7.244008 -0.069347 152.386093
12.966946 11.151832 89.802132
-22.724363 3.842699 78.012344
12.916438 -4.642596 113.296028
16.331707 11.184449 84.652985
14.979532 -0.672099 101.876343
10.278148 -12.770261 75.413498
-3.443324 11.664607 141.441467
-23.359596 -0.711922 81.022400
-1.093517 -13.317350 136.613342
3.173541 -11.157186 110.907097
-19.711115 4.900562 91.759232
-9.959180 -13.384261 132.431946
-12.105775 16.721224 81.771660
-24.513067 0.097243 80.316963
2.621421 -5.555604 146.606171
14.335748 -0.186581 110.294586
-12.298431 -1.361511 145.099213
8.874580 14.352759 86.320297
1.326870 -11.551462 102.462036
-15.958283 9.068149 146.574951
2.862137 -12.745829 115.336220
5.195868 0.883923 153.344269
8.858425 4.055051 117.258423
16.779423 -8.182929 75.839432
-5.648178 10.598348 77.188133
9.825772 13.409393 89.651657
-11.572349 -12.814751 127.963120
-13.668904 -10.077469 133.639969
-22.084831 -6.148546 79.780228
14.373894 -11.588941 71.486717
-12.601921 -11.893271 83.635300
1.134440 -10.831094 139.769913
12.056800 3.502525 128.728867
-9.697472 2.473272 151.343658
16.845806 -3.482734 102.496971
-3.310478 12.384276 76.376762
16.293365 -10.112076 71.975578
-12.165281 9.288102 73.695259
-1.442383 12.113341 149.187775
-15.551786 8.222917 138.619415
4.319153 8.215338 125.288605
-5.251506 -9.619062 71.713501
6.644979 0.804073 151.671600
-1.397740 -11.056637 99.328438
14.752028 -6.058689 109.695274
3.669575 -9.368917 72.727341
-3.905915 -2.604464 151.963333
24.046814 0.006338 71.952751
6.562877 12.454533 72.817451
-5.855815 -10.971715 81.877274
-5.025272 13.385456 97.851379
2.653069 -8.326925 73.063271
-11.022233 1.713957 125.678177
4.395480 10.511712 101.774651
10.087696 4.697263 124.449219
14.388269 -4.774080 141.220612
19.242107 10.031734 72.589195
-13.975628 2.303495 107.942703
13.899303 -0.403104 102.783363
-10.975530 7.853511 101.252151
9.668475 -6.911058 142.934601
-8.896169 -8.866211 127.327415
12.980861 -12.261164 132.358414
9.483902 6.613881 111.150024
-8.773861 12.828316 77.812256
12.569519 -4.850826 145.694305
-14.594977 -11.040309 83.774178
14.579530 -11.147861 76.435120
-6.695714 14.705047 93.271698
14.882692 -8.541140 136.246887
9.050159 5.794613 120.866730
8.066684 -2.257206 150.158295
-9.552999 6.130730 122.643120
-15.519300 -4.267748 110.713615
1.446813 -10.676271 138.410095
-9.704519 11.255879 84.239212
4.563661 -13.829364 136.215347
3.091498 -11.897470 120.660606
19.710125 -11.451084 83.996544
13.510669 -12.655927 81.422882
1.598886 -7.586041 92.196762
16.234137 -10.168301 84.952484
11.818696 4.935164 114.281158
8.069708 3.015559 151.283875
11.037193 -12.085386 78.343956
-1.051217 -9.134959 93.253708
13.835512 10.837738 139.386017
8.585438 -8.579880 95.330368
-12.244810 10.904724 72.159660
-11.513575 -6.794765 117.558250
-10.175927 10.881700 82.247948
-13.291538 14.932093 74.066208
-7.638000 -10.487371 121.354210
-16.023832 9.007381 77.996063
11.279580 7.647131 102.941467
1.520540 -11.323747 139.947189
8.098940 11.719342 77.893219
-4.402621 -10.456070 84.335938
8.607116 -10.829494 110.834946
22.151754 6.691262 86.112785
-7.124509 6.082956 107.651772
-9.971380 5.129184 116.647110
-3.550297 13.357574 82.365318
14.786814 12.028522 143.335236
-7.677629 12.485138 90.790123
-3.115993 -11.925383 135.085663
5.851877 4.292824 113.677322
-1.640459 11.634056 95.921684
-5.529736 12.509888 83.454300
-21.431591 5.918560 73.640701
-0.025792 9.646517 153.443588
-16.347742 9.410974 148.507019
-6.121550 11.421865 146.208176
-4.156435 6.183706 122.382317
-1.252999 -14.517577 131.401230
-10.908772 4.508878 123.563522
7.690228 8.187241 150.953583
-4.144907 -7.939574 76.499245
-15.033385 -3.505183 135.318466
-13.472275 -3.368602 127.427475
-15.451588 -4.268550 107.551308
6.269581 8.485017 154.116302
-14.336609 -2.280388 129.509430
15.551444 -4.838288 131.680557
-12.494232 11.493915 83.958832
-11.572216 -6.480937 107.457481
16.358248 11.050447 74.587822
-12.957851 -2.290281 121.188316
-1.386366 -4.963860 156.352661
-12.481910 -0.494152 125.367966
-1.382864 9.088156 121.330513
-20.394358 3.695169 90.949295
-12.702522 -12.016705 81.963287
-15.671699 -5.265865 137.869171
-7.973322 10.132708 130.667297
-21.744045 4.451289 76.721962
12.259617 -9.098308 98.721321
6.287813 14.371594 76.539467
-4.959171 0.742699 149.925903
5.763545 8.153581 126.668053
9.956395 11.623739 80.400284
5.157466 6.321866 155.401932
-10.393293 5.135290 125.543175
4.849718 12.403218 102.478310
-17.525269 5.191246 94.640167
-8.149290 5.321343 153.523956
-12.807920 -6.267603 121.338425
-23.371170 -1.525646 81.567810
-15.154577 6.670108 101.107910
-4.791123 11.957707 96.634987
-24.419857 -2.914079 69.471352
-4.100672 11.450273 88.436325
-11.745557 14.586555 75.864647
-5.216406 8.238353 156.432861
10.537501 11.569135 144.436722
-8.242728 -9.304622 92.326851
1.623353 9.228115 153.055267
23.308365 -1.352226 72.801765
18.678036 -10.574270 72.197929
13.340896 -13.775567 79.630623
3.160975 -1.841783 152.681534
-4.908455 11.681456 140.329788
-1.924158 -6.108225 142.468811
-18.150978 -2.066397 90.987389
1.052401 -8.360060 72.603722
0.362733 12.104889 132.921326
1.588708 -9.097189 89.170509
-2.748833 -10.534039 87.754257
15.583263 -8.718291 133.054291
0.463021 -13.690262 126.879105
0.234864 -8.528168 73.901405
13.451134 -3.282139 113.938522
-1.641086 -13.193095 102.820702
0.470785 -4.936680 150.405426
15.936993 -6.866110 104.083359
0.378857 -11.043715 89.561058
3.846181 -12.389374 113.943016
7.352736 8.482306 111.057465
-21.278425 -15.223493 72.543015
9.912998 7.340981 152.675323
-2.690075 -9.717067 93.629181
-17.750614 6.226964 75.185799
0.314279 10.099813 152.359360
-7.685569 6.641978 109.640800
7.992090 -8.407332 109.210678
1.592182 -9.825274 138.593491
13.335603 8.028497 84.430519
-1.652252 8.733311 103.042412
14.616520 -0.936038 134.027710
-7.376793 5.462675 113.544083
-0.243982 -8.421323 141.127747
1.391596 11.552432 153.788620
-14.855922 -11.904952 71.212776
10.147210 -11.145170 131.890564
6.065345 -10.342460 113.279770
24.309790 7.853522 75.731323
13.454115 7.645137 104.736397
0.225435 5.549520 119.773613
16.579092 9.830588 86.067940
13.180873 12.176350 138.203781
24.274111 -9.280522 79.880539
6.653041 12.772073 141.133102
-14.074617 6.237448 98.131737
-10.100610 3.975327 118.564445
4.278101 6.351564 121.868591
9.448750 -14.861650 130.273834
13.521793 -7.744461 134.101715
13.465993 11.235635 92.241005
8.935963 -7.904195 98.141724
-3.634713 7.063878 114.944435
-5.941319 10.252117 102.836220
-19.418457 -2.414572 81.191284
9.260568 -10.707752 76.936142
-6.635250 10.683371 151.412155
11.103086 -9.292471 118.366501
-19.253555 -8.392216 84.847496
-10.360203 -9.154797 96.279785
-18.276352 -13.430857 76.410660
-14.780800 2.152261 133.283188
-6.274184 -10.101159 77.350327
-24.254208 -3.921868 73.216003
0.363073 11.954762 141.417496
24.238312 10.340379 78.814774
-9.742186 11.395513 98.803474
-11.296912 13.490622 71.624008
18.832968 2.838428 97.121033
11.720738 -4.693002 143.429810
-18.208061 -12.641692 73.516800
14.524012 -3.500079 105.252068
-20.471174 0.896950 86.664505
-14.366317 1.045424 113.033089
-4.611060 -11.309587 110.211723
12.854160 -12.482247 82.737778
17.722374 9.470098 71.936607
-10.877191 4.756620 132.474747
-17.783226 -5.160777 83.804016
21.429401 2.521804 76.696632
13.573914 -7.346230 100.363480
-8.775937 1.044844 150.117065
-9.221410 9.428281 85.597275
-23.861151 5.162382 77.234810
-18.996557 -4.921947 92.221809
-17.738247 7.368410 85.799301
-2.114609 -13.030673 102.418648
25.112371 3.993126 70.817619
21.679684 10.191135 79.211266
-10.376368 -10.797182 81.051849
15.808593 1.017218 150.315918
-1.109041 10.760538 130.888809
-9.681971 16.127436 80.777504
14.902959 -2.438234 143.022614
-3.955930 8.591008 107.634102
19.917961 9.129642 74.801346
1.746106 13.272196 148.487335
-3.973486 11.593644 97.366310
14.253393 -12.837303 79.741058
10.461676 1.594517 111.421776
6.880183 11.911537 133.629181
6.385095 -11.237011 112.731834
-15.978167 8.032631 75.480858
-16.080326 -0.966289 135.423126
-9.642420 6.918253 129.608749
3.858782 -13.780752 132.822479
-3.508506 -11.850346 71.560158
8.723903 13.165755 82.003624
5.391160 7.459479 116.123344
-22.567852 4.171518 73.162308
10.430281 14.642088 70.656296
-12.244639 10.602944 137.027969
-9.596987 1.648069 151.113144
7.892111 -12.651293 77.179306
-8.611627 2.503241 150.815643
-3.630187 -12.349430 121.790169
-12.246095 7.090458 103.492630
-11.522456 3.035965 111.179764
-6.335192 -13.165716 129.319794
18.391369 10.427827 72.706230
-4.211687 9.344330 102.677902
1.574126 8.451516 66.403549
13.550011 -8.905378 133.478775
0.519037 -6.405311 137.740234
-10.785110 1.582940 120.331024
12.852193 -9.079682 95.077049
-13.462064 -12.420712 79.572411
-10.600752 4.551490 119.247887
-5.771626 11.996343 144.334869
10.618849 10.782829 101.461098
1.815325 -9.442552 92.094711
0.192020 -8.165030 71.903961
-4.530272 4.981046 111.790550
-14.725247 -11.060501 74.214340
4.666759 -11.849591 118.915428
2.492874 10.325832 105.420517
-12.396252 -9.810133 78.165665
7.888807 14.024727 76.932121
-2.467166 -12.425702 104.379845
16.116903 12.971678 153.379761
9.229077 3.823707 113.883469
5.388154 11.878330 75.204948
-25.903500 5.128407 74.999657
13.210958 -15.042310 72.833366
29.683996 7.302863 67.824615
-14.151489 -12.419471 72.713692
22.549202 -7.899427 81.934937
-20.868500 7.932515 76.971825
-6.132064 9.561516 128.694366
12.823407 3.909525 124.764709
12.550953 -8.234134 94.263367
13.746571 -1.923577 121.801750
7.049400 -2.380871 151.794830
20.450697 -8.928123 76.640045
16.473066 10.157751 72.466270
4.019966 -10.114274 97.040092
10.956491 -9.720168 103.784126
-10.993151 -6.878675 142.690704
-11.841632 13.043660 81.251114
-13.221961 -0.564474 117.421898
-20.343708 9.110276 85.951256
11.521746 5.553045 115.038536
-1.463349 -2.193148 155.621094
7.906704 8.190674 128.674576
-23.287186 2.680184 85.910957
16.387234 -10.419200 74.195526
2.572869 7.399254 115.917809
8.476429 -1.426991 147.892441
2.837726 -11.810145 103.194130
3.364550 9.853503 128.688782
-2.001682 -8.341768 141.102585
-18.159334 10.098344 83.886215
-3.007778 1.467741 153.449234
-13.375720 -11.037621 89.532120
-11.142383 1.719304 151.051971
-8.028341 4.528049 120.157883
8.764213 -8.624857 108.974556
-18.463209 5.862989 86.038864
1.408689 7.812856 124.204758
1.651103 12.375424 99.384537
-13.750254 9.347765 83.094093
11.735762 -10.140983 89.372627
-5.057243 12.344627 140.433365
13.396373 -5.604815 127.723816
-7.242690 7.405746 114.089615
-10.871052 -7.197803 115.181267
3.291552 -11.015159 85.055405
-9.000676 -11.444974 110.438774
18.619658 2.254629 92.223053
-10.310405 9.968119 134.642929
-0.817258 -7.466643 75.801262
8.561922 -13.600468 72.008743
12.092228 3.169468 123.248573
-10.022425 11.914001 102.917007
-14.834355 11.770399 145.303513
-12.612482 14.545803 74.041206
8.875521 13.136988 145.921906
-7.106891 -10.067844 116.444565
8.432934 8.859942 150.527069
6.811133 -10.254791 96.051987
11.222072 3.749801 117.806404
15.133697 9.473446 93.355553
-10.389226 12.941457 133.785721
-13.218555 -0.272086 116.120064
-12.201946 -2.614869 118.868446
14.798782 -3.953884 111.444138
13.383556 -7.892353 125.432899
-24.655544 4.829716 77.193344
-12.072906 -5.833169 119.269882
1.555763 11.235329 79.867752
14.584468 -7.566523 99.678947
-5.149371 -9.744962 116.336746
11.190747 -7.359547 109.417572
-0.323633 -9.928683 89.329895
-19.751575 4.298594 75.918579
22.585794 9.266010 79.175529
14.905869 -0.901542 124.632324
-5.185612 13.536780 98.137566
-4.682052 -9.727967 143.894958
-21.466917 -1.523446 75.651009
24.802799 -6.425955 76.277000
14.351028 10.621542 99.873032
12.304025 -2.387519 120.733101
23.153927 -2.072338 76.477852
-9.345033 9.543355 100.710312
-16.860806 -2.446445 98.955811
17.284611 0.164427 98.986176
-7.808771 -8.589647 103.700348
-10.885633 8.059725 135.058655
12.448526 -14.428531 71.652290
-5.215441 7.028786 117.284500
-24.397577 -1.959686 78.947639
-19.907042 4.360095 85.691147
27.289778 8.203783 73.610802
5.100618 -12.922548 135.856934
8.097772 -9.620235 101.779861
-23.505650 -5.863515 73.663620
14.124928 8.287539 100.016808
9.287279 -11.046723 113.612297
-12.008328 6.289457 128.196304
-17.413157 6.239342 80.398758
0.708804 6.703984 113.640015
-5.114400 13.906450 95.776192
-0.283774 12.360976 150.909775
-5.336724 4.694680 155.554474
-9.664039 7.745576 127.908401
7.054019 11.132987 136.374771
12.002758 -0.282213 121.132370
-18.334118 4.262024 91.324898
-1.051678 -11.725787 116.587936
6.548393 -9.902215 129.061874
7.508263 12.473230 135.109146
-6.877325 -2.435020 150.332352
12.692457 -6.693358 126.746483
-11.609867 8.669494 106.464775
-0.768333 -10.601614 122.722328
-15.825469 -12.223086 83.651375
-17.049505 -11.885344 83.520790
11.424338 12.651012 72.461754
-4.702220 8.815822 120.309181
-3.432124 -12.460356 119.230797
2.922878 -11.880019 110.593971
-0.012641 10.788897 154.036606
13.470022 -0.497484 120.635544
4.298090 -11.115399 115.806046
1.596346 -10.723413 93.975067
9.952620 -8.480265 137.498886
-7.042938 -3.903497 141.847153
-12.475499 -12.968357 82.957451
-7.150908 -8.170552 116.204460
1.370725 -9.995676 140.334686
-17.810295 0.247571 98.759605
12.564198 12.316674 89.143593
-11.388273 -0.668677 122.370392
0.078923 -8.568505 80.561790
-12.040285 11.892039 136.839478
9.587878 -8.382461 102.185982
4.714052 -0.820229 149.117325
2.791773 -7.283911 142.752823
-12.179155 0.390513 149.711700
15.104371 -13.290567 71.683342
13.571149 11.504634 147.813370
-27.969500 1.452275 75.875000
-11.911287 -1.802110 148.017868
1.765767 11.255973 80.913414
-8.393366 -9.256320 97.789314
20.902981 -9.033646 73.237427
-2.550253 11.618975 92.382660
-25.654167 1.789625 78.510422
-16.438467 -3.678090 101.256218
-12.713696 -11.552910 86.298790
-18.393370 -6.766933 89.324379
-18.090822 -6.508107 89.293335
19.793926 -0.260039 87.707306
-11.092749 -9.123959 114.682190
2.333613 -10.012481 88.444878
-3.150425 -10.038825 138.939987
17.512280 -3.066255 100.103096
-12.178232 -9.786225 79.549843
-4.917111 3.343801 121.876823
-20.421604 5.498034 82.592468
-8.613493 5.103589 110.796501
-0.155029 -12.414577 105.821167
8.489813 13.283118 140.284470
-13.883729 -1.766443 108.888252
-11.111500 11.897184 148.783142
14.774907 -9.568437 101.866219
17.927443 10.184965 73.233444
20.073343 -3.427274 88.550407
14.274510 -4.825321 108.914406
-6.417943 9.301127 130.807251
13.722367 3.869925 126.626625
2.083885 -9.926220 136.287094
21.062742 -11.918017 84.090813
2.418886 13.332434 143.265579
-15.094492 -2.715482 146.953445
21.778330 5.380189 77.626411
0.704021 8.473683 127.242447
9.443592 -13.368942 129.530258
-11.855184 11.030210 74.962830
10.726109 7.235765 105.679008
-23.088717 -2.568841 70.002396
-16.199064 -4.014624 103.793320
8.330139 14.556115 79.626770
11.407468 1.631177 127.602982
-12.180248 -8.149780 120.882980
-7.762207 -10.469631 91.738083
-18.125864 9.327337 80.335991
16.973688 0.803944 139.567154
-17.758877 -3.367950 100.673752
-14.342570 -11.438880 77.727936
-20.868484 -1.553310 87.566246
6.421042 -10.713088 117.218437
12.147102 -5.696180 116.521118
-22.767635 -2.554554 82.931694
-11.047986 1.788656 123.922691
-22.893469 1.195487 80.770882
19.786175 -7.850112 81.677399
10.841324 -2.535249 148.250534
7.459498 -9.627737 93.600670
11.339576 -10.238208 109.087975
9.677689 -10.604457 119.805641
7.523110 -0.293148 150.186508
-13.564999 3.404671 152.561737
14.908987 9.084772 71.351784
22.095716 -3.153375 77.370087
-12.175716 0.390608 126.958626
-17.874569 -1.973048 102.551323
-2.731961 11.534183 134.267990
-19.539648 -6.434413 87.875458
-13.001189 -8.931216 91.085670
-16.634119 9.420883 151.321747
-8.822250 6.274490 111.850586
-6.237655 4.146239 152.404022
-4.712950 -1.569844 148.516342
16.595676 3.060750 94.684250
0.391164 11.109944 149.451309
-24.722548 0.451591 78.055367
-5.161928 -10.011247 137.852188
-18.617920 -5.745976 98.353256
21.365419 2.541459 71.770134
1.921364 9.908912 126.522682
-20.104269 6.794044 73.449669
-17.067129 6.118401 97.481865
-2.755052 10.149796 156.686981
7.426219 -11.643092 88.158455
0.131529 -10.145565 81.942642
2.754650 12.001022 139.268723
21.817825 -4.203773 80.312477
15.154691 2.463579 106.321991
-4.031788 10.281101 81.876205
11.235642 -9.804081 94.058540
16.999636 -10.302282 87.144409
-16.561331 -6.855852 94.368080
7.194413 9.217681 108.049454
19.003151 -9.452249 79.056694
5.449551 -10.477569 85.192955
-14.368307 16.297365 75.523117
-7.426597 8.041881 105.134384
10.015333 10.548778 68.179863
-1.523078 7.487832 123.330673
21.198040 -9.595223 78.246857
-10.887509 -2.581925 148.192398
7.128753 2.969406 152.761047
-10.621428 2.918827 114.453293
11.310497 5.928147 128.514725
-18.703035 4.619343 82.015770
-12.759498 -12.607194 72.469452
6.435526 13.041972 77.605545
-11.286811 11.961760 137.062439
-19.529093 4.535125 80.605156
0.898090 -11.378501 109.224586
-6.119998 -10.786498 114.183823
-8.382378 -8.093166 95.321411
-6.318802 9.123548 81.332512
14.516436 8.203026 137.657196
16.853369 0.848743 136.042282
-9.807485 -1.166760 150.683243
-19.927502 -5.543991 72.276649
-4.757876 -10.282810 101.291656
8.094772 7.409710 152.082962
-3.805885 11.107101 149.346359
-12.913414 -2.795764 116.249969
17.379812 9.409425 84.815987
3.172123 7.027593 125.707436
0.853695 -11.385903 97.455437
-19.670963 -8.235494 79.882271
12.149151 12.644608 89.190536
2.445464 -7.105928 145.722488
17.696871 2.040338 91.289238
-23.962597 -1.183952 82.471291
-12.299692 9.074431 92.325165
5.269366 -12.131263 137.093018
1.960923 -12.261508 100.507446
-9.173556 11.536601 95.990524
-24.550718 0.765962 81.273796
-28.940546 0.900195 71.092697
4.502369 12.727952 90.018890
-12.867607 -8.200481 126.488113
-21.910458 7.707325 70.469215
19.001129 -4.625298 92.805801
-7.851396 10.803917 72.422188
-11.730626 9.969779 86.900597
3.124211 -12.926798 122.675514
-8.972511 12.997312 74.530289
11.758500 6.355818 106.955719
-18.396250 6.371217 86.384483
18.837090 -6.392512 96.513130
9.012648 11.553482 73.715515
12.022507 6.325571 133.136292
16.080971 -5.281188 125.507568
15.945615 9.826060 74.242218
-6.156554 -11.954483 128.746918
-3.479861 12.673599 87.460541
-13.036736 -1.999610 111.565102
-9.851335 3.031350 113.387100
24.258146 4.942272 78.468620
-18.825930 -1.862697 95.141663
-17.104689 -1.479724 146.540009
19.246637 7.958834 87.389915
15.222031 -6.343680 107.089912
-20.939434 -3.915821 82.342979
-12.977159 11.654743 85.261696
-18.083469 -1.746248 91.331802
3.195430 -10.788123 104.143227
-9.172395 12.347637 94.515175
10.179671 -10.922517 84.937881
14.141819 -4.188346 108.183670
14.968114 -12.585881 75.095009
-6.233939 6.411729 126.565094
-19.923687 9.282974 71.790726
3.684688 10.648109 152.311569
-15.065279 -0.237118 108.776726
21.862408 2.912368 70.447685
-10.970234 -0.552473 148.232880
5.544521 -11.481483 119.263481
5.753608 7.622161 152.433258
0.857231 12.890035 79.494141
-18.952238 -7.071855 74.350105
7.551855 -10.783910 138.808197
-19.386524 -8.403892 74.428520
-3.020619 13.323884 81.779350
-12.693743 1.554620 113.220901
-4.164261 10.660533 144.122238
5.179922 7.391682 107.630249
22.875765 -11.050433 73.711342
9.981438 -10.688923 98.157089
-10.179694 -10.581894 121.014565
-12.427058 -1.108155 113.694466
16.161997 10.881806 73.335762
-22.360804 5.016461 78.795303
-23.410303 3.799645 80.520378
7.403476 6.277875 117.020401
-14.193298 6.447917 151.658234
4.236236 11.791965 87.383621
-12.266701 14.283973 70.865654
-2.888345 -12.055804 117.018806
5.837976 12.539586 138.281418
-5.552224 -13.014526 121.928009
23.114843 0.845701 82.244545
8.015577 11.277888 146.334106
17.784765 3.849796 93.000786
17.680628 3.105613 95.607399
-4.142775 -12.558055 110.808083
7.657569 7.251854 113.161644
-10.803319 -11.039099 125.017906
-11.955009 3.999352 107.852669
5.424050 12.636128 88.708588
13.790184 0.100584 111.202591
-8.095595 -11.056115 106.945068
-19.371857 -4.323770 75.630432
-11.809543 -8.168509 101.557480
3.442879 -9.871382 137.168030
9.892043 8.786535 148.914734
-7.685254 -12.196364 135.815292
-16.019815 -11.863389 75.891640
7.814908 9.381308 71.478897
-10.936234 12.427894 80.940048
3.893281 -2.468604 150.195282
-12.759312 1.879749 121.711174
-10.785655 4.656503 123.387589
20.378622 -0.191367 81.870026
6.052558 -6.481572 144.161438
8.922672 -11.792099 80.219070
15.058203 -7.396902 88.526985
6.150606 -14.516392 123.547844
-0.541478 -11.995790 104.589371
3.897859 -7.089769 142.396957
10.211076 4.344842 120.832596
-9.851333 3.020613 154.175980
7.717216 14.923103 92.537552
3.395173 9.086238 105.346840
-19.933174 3.986576 78.866699
5.809850 -10.770037 83.105637
11.324323 10.553272 71.700592
15.024237 -0.434579 118.474678
-16.115330 3.240337 95.529884
-13.908678 8.457089 83.776894
20.648071 -9.252748 82.711807
4.660486 10.653156 134.318878
-21.391088 1.390314 85.656616
-10.077003 5.221088 122.565453
-13.657081 1.480634 109.073532
2.685638 -5.575071 67.631554
-18.022316 -0.869086 94.572479
-6.035678 -13.074907 124.602226
12.699055 -4.912406 146.121307
-15.041564 1.670845 103.253128
3.241789 -7.781232 77.437057
19.737225 8.732883 87.789139
-9.281100 7.911092 105.545128
-20.270685 0.116962 92.164719
22.218906 -3.307662 76.826500
-0.221013 -12.123897 115.216469
17.827703 2.833790 95.447426
17.082436 6.716146 135.095917
-14.678429 5.581296 152.066315
-13.464725 -4.191948 145.602219
-6.874863 5.229208 114.371330
23.934803 -5.119824 78.377121
-5.284163 11.077076 99.836922
-11.404900 -7.573237 117.349503
-4.799696 -12.068996 129.152756
-5.647946 -7.727367 102.053642
9.417590 11.946822 80.996964
1.509553 -11.236253 115.093651
12.077255 9.260248 89.493347
2.729506 12.821975 100.647980
5.141654 -10.211989 76.986275
-6.565876 -11.273507 104.295471
-13.977184 -8.125743 91.704376
6.937221 -9.403140 93.706024
-4.692150 -11.504081 117.841026
11.827293 11.892015 84.685646
13.889544 -2.464399 120.863548
-12.878649 -11.105159 128.037308
-25.406630 -1.495048 78.535614
10.562288 -13.595029 82.224686
12.949993 11.838335 147.832199
-3.623711 -14.484318 133.629517
21.684099 -0.852392 75.731071
4.422681 -11.131449 86.019501
17.360050 0.490953 86.266884
8.750372 -8.294276 91.509186
13.117104 -2.759334 124.446495
11.027737 -10.532969 137.039413
-3.482214 9.877153 106.084244
6.726727 7.426387 113.021942
18.026140 0.438036 94.151291
18.108261 12.503017 70.709229
-5.687219 -12.941245 77.083603
-27.007454 0.014175 73.028656
-2.973000 7.153641 118.439331
0.634878 11.431341 126.053169
8.284054 12.852765 93.487755
5.758759 4.096411 154.271957
-2.521171 -10.575574 119.733429
-15.407246 1.292833 151.386795
2.527786 11.619452 152.206451
1.740921 -8.639663 76.439659
-13.124399 -2.536946 112.374969
2.171399 9.129223 154.550766
7.242949 -10.586685 70.618439
-10.937070 12.213963 89.065834
-1.345509 -10.874333 137.813217
4.979686 7.571718 121.211998
-0.379427 -6.383922 145.936920
-6.540276 -6.128120 142.935852
-26.389437 0.600174 75.269066
15.994630 -4.237196 138.467529
-0.693440 -10.317444 125.738556
-13.517092 -6.506217 126.589111
4.484658 4.170012 155.160095
-8.656902 11.833507 145.440811
17.187969 -0.820248 101.788727
-10.211954 13.326368 80.773109
3.624897 -9.669812 138.343979
-2.353569 -13.249919 114.775734
-4.481956 -9.346220 76.262291
-9.803396 4.364482 118.848991
-13.274792 11.329902 73.236679
1.444756 -4.385141 145.220291
-7.261440 13.818392 138.515457
-13.701177 -9.473204 104.250092
-17.688787 9.693417 146.220123
13.546975 -10.910415 89.442520
-6.281745 5.975837 113.134682
-18.216393 8.596886 148.469604
0.794239 13.600718 98.750061
-4.982917 -10.639420 120.601616
9.047188 7.666122 71.186424
-10.949077 15.505984 76.381721
5.139929 -10.550373 97.501671
-1.224785 -7.895758 72.135086
19.861235 -9.106710 82.713089
-6.175681 -10.456056 137.032288
-10.082678 11.490877 103.041718
5.786457 -13.108629 74.625732
14.781158 -7.947373 136.377655
-15.567787 -1.740621 95.435768
8.248515 -14.002661 131.363373
-12.573494 13.421726 73.430023
-10.867654 0.335374 124.230431
11.052313 3.854798 121.408585
-9.195515 12.062451 72.621979
3.365340 10.059315 105.217400
7.198186 -11.375709 117.706711
-3.551152 8.859382 111.033829
20.382370 -11.778749 71.078384
22.720755 -8.733702 80.255806
18.050106 11.563352 75.208542
9.478667 -9.519854 137.002869
22.267174 7.020682 73.641289
-1.466783 12.581204 88.169075
-9.130443 -11.666629 82.934837
17.202744 -0.610025 106.255127
11.192815 -11.051599 136.766113
-12.108243 -9.054634 127.837158
10.101458 -9.068218 113.052246
-21.168539 -3.865978 75.234306
12.942083 -5.612536 136.870071
-14.558700 -6.322517 103.330284
-12.453074 8.246806 136.652588
18.947447 3.167791 94.464195
-15.613821 -12.533824 82.670204
9.325130 1.027654 151.359024
8.266256 -12.198366 87.697906
-12.221741 10.170671 87.239479
15.730635 2.102071 100.552513
-19.824982 -11.833602 72.816628
-10.174868 -8.840770 116.816795
-9.103490 10.773655 154.264832
7.159335 -14.319040 70.851852
4.386286 9.756290 104.582031
13.997809 12.512898 142.132645
-6.764709 -8.647092 78.848228
8.550693 -7.697770 104.834686
-14.383833 13.019698 84.538414
1.364878 -3.201737 149.829193
-21.690758 -11.011024 73.623695
-3.004946 6.563803 107.540726
10.027927 -10.335241 129.965408
12.799388 -8.312687 135.097015
-12.368420 10.990685 72.999565
-13.094139 -4.849872 106.279289
7.328464 -10.975148 109.228432
2.694492 10.167558 74.219627
-5.029649 -11.800083 117.012802
-12.656426 8.534633 87.445427
16.991199 -4.502439 100.923653
-7.567593 -6.759607 140.063080
-13.986050 10.632704 143.238556
18.239008 -2.531824 136.415161
8.705201 -10.890959 127.071068
9.806091 11.909080 73.841888
-5.574008 4.865333 155.960312
9.919444 -0.778172 120.340691
-4.290854 11.165357 144.511642
-18.548252 -8.144466 81.077515
-12.971222 -2.074593 116.240761
1.310353 11.557397 135.130905
1.501045 -1.359511 147.436234
-2.676083 10.830520 99.377480
6.258760 -8.512831 94.997658
17.408070 10.693304 71.256134
18.803490 0.222814 100.527534
6.946323 12.053433 83.289520
8.779472 3.558490 123.180367
5.266607 11.231899 85.064224
4.988351 -9.266734 104.598564
-3.836395 -11.061613 96.744255
-23.149759 -1.137044 76.169266
-21.251255 -5.450078 77.795891
13.840700 -7.844256 139.757767
8.099718 7.374973 106.925514
11.588711 9.923223 74.589745
5.640523 -12.368166 116.369438
-9.792335 4.782974 114.491646
2.423761 -10.437817 84.373795
5.398863 -0.893270 152.674973
-23.472923 -1.696064 83.650864
22.902679 10.118244 77.048256
-1.285671 -13.858717 128.902679
-8.540089 5.114166 125.916573
-5.963651 2.843385 152.632568
13.661211 -13.754639 73.378876
0.749869 -13.699990 132.861710
11.334957 -9.259369 106.920181
16.267334 -4.519862 92.186462
-3.436120 -14.259221 133.235046
-8.042036 -10.476699 82.523262
13.910285 -0.524247 108.812019
-7.827303 -12.429784 87.034477
8.258025 -10.843237 81.382133
1.016600 12.674380 78.482292
0.505756 11.866674 135.537262
21.206327 2.176214 71.847282
6.749302 7.208308 155.596588
-3.990408 11.625224 77.817131
26.258541 -7.272849 73.105873
15.383367 5.193644 105.086281
8.976902 13.209970 80.407944
-14.309313 8.819226 72.423004
-11.745007 7.550008 132.698395
-13.583033 8.555754 133.514542
-18.247768 -6.778262 82.740631
-12.472506 -2.338222 127.360092
14.637083 3.723973 110.022743
-8.551044 11.648170 75.778282
-8.272210 7.610016 122.737984
-14.836618 12.784529 87.179573
12.677016 -14.521088 73.899719
8.078935 -12.649853 70.263863
-13.896864 14.154041 75.133484
16.459013 -7.071529 88.287231
19.391333 -1.171102 74.052734
21.143679 -7.374827 86.955254
-18.778902 3.978879 92.121155
0.303870 -13.330434 108.009399
14.432130 -5.683308 100.152054
2.728974 -13.851547 106.543114
5.073895 -8.895756 96.522324
-11.774857 3.437279 115.560356
18.194134 -0.922252 103.006531
-7.957040 11.056269 81.471748
-20.570963 5.889857 84.616478
24.183556 11.183893 78.228477
9.879318 9.202906 132.565369
10.456995 6.857638 122.934952
21.852036 -10.693148 72.851616
-9.164040 11.344275 105.316284
-17.774656 -4.659161 90.263290
-1.331065 13.101922 135.358536
-11.389963 5.057337 111.968384
-13.667124 -9.869206 87.214577
15.738295 -6.182843 100.861588
-1.890527 -12.770696 122.253098
-10.967053 -9.619275 111.121849
-6.577522 7.706980 109.437256
10.469472 2.978074 151.957932
-14.278813 -3.623022 130.019684
-26.408104 -0.107757 72.203438
-2.684067 11.403392 149.286270
-5.243869 8.900006 128.169006
-5.354600 11.420005 146.305710
-6.035022 5.531952 114.617203
-6.697614 -9.573975 100.090958
11.686170 12.264322 141.231812
7.675361 7.921433 103.264008
12.613346 6.466798 152.357834
-7.500843 11.029035 87.489548
-4.203905 5.568788 107.698631
-14.582753 -5.101737 133.621597
9.032344 4.134294 153.277512
13.988285 -5.424099 123.316956
-10.046249 4.211011 105.806824
14.372427 -3.592598 123.002258
-15.910318 -5.838380 95.298264
9.878738 -13.421754 72.207428
15.422704 11.175753 75.008171
-12.327811 10.378830 95.846718
-2.280280 -12.261683 105.811668
-6.524390 5.365465 111.175392
15.514894 -6.550631 96.289444
-0.078412 10.788979 111.902855
11.469656 2.342700 121.581779
-9.832232 -11.041937 88.178551
-17.786625 -12.757802 85.851135
9.673115 12.962913 87.798721
11.386155 12.247092 91.249855
16.841591 -6.808102 97.558662
-13.928074 1.677403 108.984970
-2.474970 -12.396521 102.173340
-18.219973 -5.773911 89.016724
2.501623 -11.449346 102.524734
15.743212 -7.375481 102.658142
-11.311736 -4.528470 116.562599
-16.398285 -12.152275 78.853600
16.519751 -9.589429 79.265182
20.719713 10.782192 76.157684
9.741983 11.541672 142.573578
-10.837447 -9.066734 93.504837
-19.337605 -6.902273 95.236603
-6.004538 -9.734943 137.285583
1.749194 -7.645501 77.333138
13.044462 -3.748347 109.889297
-0.080972 7.652099 111.059555
18.442741 9.722227 84.921288
22.163525 5.794018 81.505417
9.586869 -11.799564 100.569527
4.944608 11.597834 88.966911
10.800763 3.167114 151.259949
10.627125 3.623997 115.118652
0.769514 -11.118538 86.590942
13.994814 9.494238 98.688927
15.809174 -7.379281 131.666977
12.603590 10.156616 91.179703
5.846332 11.133884 92.355209
-24.026226 0.562455 80.904160
1.340042 -7.880210 149.407623
-18.099434 10.720584 82.970299
-21.009321 4.776144 77.796677
-9.574955 -8.666343 100.918907
8.633798 3.521445 117.965233
14.249325 -0.342634 135.260727
-5.200145 -5.755762 145.079010
-5.880728 -3.332031 144.273682
20.868467 1.409858 76.476357
-24.526752 1.719670 77.852051
-23.851072 2.951393 76.355011
-16.100357 4.204194 133.848846
6.733168 -14.125111 133.142410
5.531878 6.734898 111.789368
18.623413 9.619034 84.392303
16.869120 -2.684547 98.879532
-3.973962 10.107951 150.244781
-14.543364 -3.025763 127.420372
4.762298 -9.965066 73.841164
-2.459127 12.469778 86.902267
15.787844 -5.530282 101.157585
-12.230701 -6.888274 109.069748
9.678816 -9.554833 109.165253
-2.420648 9.248035 104.848083
-8.694710 3.449366 117.420692
-9.129990 -13.749196 70.673027
-11.481210 -12.425237 72.666573
13.330144 -5.146171 114.666245
21.857416 -0.495993 77.536087
-14.925916 -9.754615 89.417831
-7.784690 -11.869047 79.973885
7.684990 4.495544 123.837318
-15.073243 -6.573910 108.396408
13.638277 -8.539585 128.561707
9.731403 13.056993 143.170151
11.771543 -15.209472 76.733574
11.620193 6.380352 129.668106
6.044162 1.248715 151.624008
8.012172 -9.345461 96.379715
1.293655 10.954113 153.170792
15.943626 -0.133739 106.020203
2.273672 11.561546 131.483765
0.646692 4.581526 114.513237
-22.942215 5.002566 70.427834
12.048176 6.519858 109.162575
6.396591 10.814712 83.883606
-5.746614 5.188008 120.019325
18.705770 -8.386644 86.483437
12.867476 1.234504 116.062569
-12.794083 -6.503698 135.964996
2.003415 -5.849185 148.300430
-2.330498 11.838242 136.072754
23.878887 6.536069 80.635834
13.742701 9.421502 135.658508
10.834910 -9.479403 130.054596
-26.870533 0.444868 77.156654
14.511067 -3.058376 124.130821
17.387632 9.279721 76.561539
14.978986 10.676392 78.366158
21.683231 12.226922 71.716087
10.927570 -8.728402 121.134529
-0.815804 5.435581 114.443069
-22.254848 -0.918452 78.815269
15.812377 -4.144962 108.835854
7.888818 -11.507092 73.085960
8.156447 10.273127 137.474854
22.558825 -6.331312 78.211998
10.032500 0.636008 113.275856
-1.779250 -12.557169 109.693649
0.627654 13.245033 140.482574
-11.822422 10.335501 83.929085
-4.287582 -10.222629 105.562843
6.234195 6.850060 117.563141
5.922427 11.645067 136.295624
11.422217 -11.651298 82.992676
10.493547 10.487407 136.375290
-17.898157 7.174890 72.185646
8.624272 -9.445525 137.345093
5.706326 6.922148 119.865906
-1.624239 14.575311 148.105988
21.459002 6.035257 72.889145
-0.722488 -12.503864 108.623894
-1.697994 -7.522728 70.144890
-16.145411 7.768081 148.638046
3.739896 -10.957439 117.301414
18.934195 8.984166 82.215889
2.694022 8.133073 155.491318
14.482892 -10.718998 79.084023
7.760567 10.369578 106.679993
-10.964958 14.812016 69.604851
13.247702 -4.552283 126.787300
-2.432827 10.663626 72.257729
14.772111 -1.824800 136.671036
-1.079625 -6.878966 73.467766
-12.659178 2.474674 121.949921
15.072262 -8.003259 92.565598
6.600451 -10.874247 119.092049
6.096844 -10.602753 108.835167
-8.874312 3.342649 116.026093
18.529404 -5.835865 92.450401
2.355251 -12.787424 125.840385
-15.334415 8.497879 73.036674
-10.520482 -9.271015 137.562897
5.752016 0.917094 151.502029
-2.590107 12.974566 86.127945
-9.367811 8.385033 132.899002
14.557757 10.881509 74.697868
7.317210 14.042754 82.504272
14.732058 8.768235 85.402847
-10.355382 -12.628673 79.884850
-13.300572 11.462924 95.832092
7.739259 8.961067 105.999374
-7.850493 -12.856862 72.335526
-9.379065 -6.969106 144.732361
-1.378544 -13.232840 125.859444
-17.111071 8.165347 142.652649
0.348521 -9.478110 102.088448
23.043297 -4.124605 83.999649
-14.724013 -2.556319 144.098297
6.752513 10.155518 105.701233
-7.226962 10.039326 75.495674
-10.964664 -12.352475 76.128448
-17.220852 9.418674 146.430023
10.355091 9.211274 82.086708
-20.094393 2.137375 85.825859
-23.609879 0.368510 82.966949
-5.940464 -12.181463 95.128845
-2.891115 -8.548975 74.021149
15.798226 -1.080751 105.384583
-15.286383 8.084913 81.326859
-4.579705 8.976828 154.340942
17.408314 -10.304254 90.863899
6.493931 -11.571140 119.541672
-1.053868 -13.576647 104.263626
1.267694 13.458154 96.880325
4.574274 -4.097549 156.185242
-17.856447 -1.609503 93.423752
-14.655907 8.152244 141.257553
9.040406 10.537067 138.873306
25.434349 10.188758 75.486427
-13.232330 -2.961079 124.888603
8.496889 11.539886 78.183792
-1.715928 10.950833 81.264725
17.777767 9.446404 77.659210
-3.023783 13.246994 73.392586
4.533166 10.355840 149.397583
10.826428 6.946795 152.233414
-4.062034 -8.826568 141.575867
-3.939611 12.215320 79.792770
10.856089 -7.771266 90.971054
-24.916456 -1.855834 72.469398
9.265285 12.805073 75.751114
-5.833495 -12.646949 77.701668
-11.285914 -13.536117 77.444405
-21.449490 -1.863191 71.351021
10.281832 0.618149 148.336624
-14.202623 5.039709 130.647171
10.254852 -10.974903 135.022614
-8.451769 -9.870449 94.752678
22.783270 2.765152 73.964134
-13.914501 -11.115646 70.496307
-0.899308 12.576431 95.064560
-4.271998 7.861058 112.162308
13.487600 -3.281015 116.685188
-16.624136 -12.511658 82.097878
-10.772534 -9.829243 73.994301
-11.578686 -6.819797 126.746964
0.191264 -12.467944 134.465057
24.257940 7.706052 72.677315
10.663956 -3.078940 122.476097
-13.962831 8.456302 131.013000
8.450472 6.010529 154.181931
11.449607 -5.404654 114.065430
-1.840424 8.346026 118.183563
15.444939 9.992760 78.938080
13.721603 -0.927892 127.546959
-11.372333 -11.044349 112.444511
-2.684098 11.673470 74.255066
-12.503403 -3.976851 145.023697
5.734005 -10.040137 138.180405
4.544398 7.170660 120.264343
18.794998 -0.284476 89.205032
7.113181 10.394158 142.231430
-13.022962 9.229200 143.461258
-6.466671 -10.258802 98.810936
-15.712660 -0.338754 101.358330
-6.704511 9.263861 77.786659
-13.919743 -3.636377 123.928734
-9.967996 12.999559 78.257263
-12.748835 8.349816 100.220955
19.566252 8.974720 78.405533
13.147718 -8.133900 109.001419
-13.880810 -1.626358 124.601570
9.930560 10.842994 83.808289
-17.006052 9.448677 78.555130
16.126074 -9.983595 82.714958
14.760320 -2.608278 111.677933
10.289832 11.785814 142.674988
7.935955 11.204772 140.111771
-7.661050 6.726608 116.843689
22.238819 2.757618 75.529984
19.534628 -0.970769 78.227631
-17.588642 8.821582 70.739471
-7.701448 -14.863065 135.890839
-4.683239 5.159897 114.344917
5.273621 6.218876 155.532043
22.699203 7.035447 83.630241
4.860882 12.086329 88.123093
-1.964876 11.244232 73.874763
-4.338289 13.036310 92.719551
-0.968329 13.927837 136.605637
13.761287 -6.094238 123.524071
1.219720 -11.280793 90.032204
11.997104 -11.021278 91.543060
14.510732 7.541234 92.216095
0.563510 -12.833063 127.557861
-17.157061 9.746346 89.639320
-5.862019 -4.990421 144.651627
17.940981 -8.658547 85.303612
-5.972497 -9.037635 94.361580
16.895452 2.520350 103.395241
-3.337854 -7.005761 146.299332
21.718447 -5.795043 80.797539
4.456948 -11.411448 125.207855
-3.452579 -10.549376 116.107391
-16.215763 -7.033418 81.127960
23.854271 -7.278152 78.561012
4.515425 -10.538666 109.517052
-7.537172 -10.332927 102.875916
-5.259403 -12.429488 123.672783
-27.278526 -1.000439 74.529205
7.320274 -8.788239 137.487183
-0.136591 -12.071553 136.442123
-7.304136 11.528913 92.896706
-13.630683 -11.471425 80.250183
8.495151 -10.267797 88.309700
-6.947202 13.413708 136.851471
-5.052766 -12.680945 90.612244
-12.595833 -10.498745 132.456711
-7.644835 7.343435 113.531761
12.470279 4.277421 105.237686
8.639546 -10.042943 96.640518
-19.804548 7.999557 75.097450
6.676435 -11.861201 117.071381
-8.920732 -3.160102 147.617432
-2.978873 -13.845909 136.176392
-13.028893 13.027596 77.885506
-1.440245 -13.032657 133.767960
-13.795857 -7.259848 106.132195
-12.772593 12.580118 86.352875
5.310775 11.833738 134.554947
21.626186 11.095976 77.730209
-9.180872 -10.257950 123.781494
3.535658 9.504741 155.991333
-15.590482 2.032857 103.731293
3.601195 13.068607 81.999496
6.912858 13.671647 142.111313
-6.755742 11.406291 144.253174
-11.008591 2.262334 125.020576
-10.520061 14.087181 76.805748
-17.987829 -5.064918 94.559174
8.492614 13.577444 73.796165
14.703669 -6.431380 106.871483
-6.446634 -12.835826 97.153694
-25.199701 2.799015 83.876938
10.128145 -9.399137 137.931046
1.271366 -10.732186 116.636742
-8.416161 -11.028610 137.703278
6.861494 10.749190 111.513847
11.635705 9.936786 98.558640
10.663116 -8.571858 138.145294
-11.141348 3.118541 129.474197
-26.183554 4.049153 75.976532
-5.839978 8.940126 113.342979
-0.113371 -9.928123 89.318268
5.432129 11.578786 78.096786
-15.055289 -9.468412 93.948601
-14.810264 -4.394754 100.018898
-0.137620 12.330529 71.195686
-10.901308 13.494423 72.001060
-3.086354 0.760363 152.630859
3.894200 12.048903 133.643326
21.355198 3.511973 72.014137
17.637909 5.738215 91.579536
-19.020004 -2.761044 94.037842
20.660839 1.471533 73.901306
24.715023 9.298647 76.814980
16.551516 -7.251968 97.712807
-6.095377 -14.138805 77.277176
3.799792 -10.482418 108.805038
-6.007257 -9.576274 138.249435
-9.721045 -8.551147 74.593697
3.023338 12.632619 97.790962
-6.091138 -11.146599 118.786995
11.180257 12.256844 142.273193
5.395629 -9.607665 89.577141
1.450758 12.157616 81.358170
9.915585 -14.396146 131.214706
-17.092175 -5.184813 136.482849
1.876789 -5.964636 146.784256
13.901907 9.452888 75.708244
-13.704876 -1.827947 136.486786
-17.853725 -9.776962 84.693138
-0.582042 12.398211 77.487587
0.121695 -8.185652 91.896072
12.515907 6.868478 154.235474
11.644156 10.930155 148.485535
-9.641437 -9.903181 110.692467
16.519735 -7.666507 89.562584
-2.259837 -6.332430 149.196045
3.586104 -11.974203 101.923897
12.558805 9.511921 86.724174
-0.425172 12.274950 151.259842
-5.439631 -10.613235 78.851006
6.793089 11.691851 99.136292
3.650427 -12.044939 82.185760
5.017352 -12.490043 110.116661
-15.074330 -1.967435 130.034042
-10.088721 4.113006 112.367851
-13.711794 14.046432 80.898117
-14.806680 -0.898339 140.126785
12.705420 5.567837 128.447296
-14.307769 -0.444416 113.819099
-19.867058 8.246602 82.799889
6.798533 13.685602 71.943474
11.979687 -3.508420 122.381584
-8.774918 5.808078 154.549774
-7.770802 -11.053889 113.764198
-6.892168 -12.003140 79.887383
-16.307665 -5.614978 95.121948
-8.337770 11.872424 96.515961
16.950493 -4.557941 101.162857
14.700228 -7.358390 130.715134
-16.883396 11.420272 83.836479
-13.610134 12.459192 78.681763
-2.708970 -11.511432 102.578354
-14.093171 9.119414 71.172836
5.173121 11.697054 148.816788
6.148621 9.800537 104.650017
-5.732675 -9.852818 76.729408
6.931636 11.065112 78.661331
-16.378845 9.222078 76.715775
-3.376209 -14.358719 126.877205
-12.944243 -4.513197 128.235611
19.229713 -3.580004 98.526176
-20.727093 -2.734558 90.715919
13.779767 -1.859271 127.520699
11.688128 -10.923289 115.984863
0.772529 11.193527 130.984024
5.185495 -13.464099 135.563705
7.333194 -9.114405 95.448822
-13.702027 1.226586 130.720184
-4.178863 -12.409896 113.212639
0.396543 -8.978736 89.835251
11.047966 8.478382 102.092293
-3.445868 -15.595015 127.529060
0.857553 13.112958 144.324020
-17.457182 3.455855 90.523788
11.844628 4.479084 115.379745
12.235852 -8.586564 125.610031
17.828773 -11.147645 74.527985
-16.964409 7.353401 76.405472
4.109662 11.419238 102.994049
-7.309889 -11.162486 86.661453
13.921571 -14.818564 72.658714
-14.388799 10.171579 86.042809
