ply
format ascii 1.0
element vertex 2048
property float x
property float y
property float z
end_header
-44.091881 4.757287 137.540436
-20.086138 -0.812547 142.583191
-19.248096 2.196087 133.268616
-8.386433 7.774416 125.363152
61.505699 1.806962 145.341339
-7.025780 -0.783000 120.866768
-68.147385 0.945680 134.111801
-6.004052 4.489028 125.527267
2.701551 -11.427683 138.475815
1.783415 -9.699107 113.144859
43.348518 5.266407 143.027084
31.704235 8.740658 140.366089
-56.465256 4.414157 138.497650
13.763022 5.871867 128.742569
14.324759 -3.725060 125.035225
10.115680 3.974430 148.714813
8.627425 -10.067464 126.722023
-38.384102 3.303747 143.660995
-28.103985 -1.663407 139.801819
-56.675694 -0.904710 134.373352
56.151566 4.517695 137.740326
-12.624234 -4.310965 122.708908
-3.381233 3.618623 149.783234
9.948005 -6.020988 144.390381
-27.317339 -2.772265 141.583954
-60.817898 -2.132350 139.727295
-4.210317 8.353827 126.174858
-14.191599 12.013085 137.889404
58.287285 3.181184 141.270813
64.595268 -4.011406 143.707809
-3.661312 8.657467 129.948563
35.988686 4.780875 135.570114
-0.007892 8.256216 151.452225
-62.508663 6.636027 144.506165
-8.264239 7.438146 130.090759
57.096882 2.045017 138.093979
9.369076 -13.628205 124.134995
10.311527 -6.068323 122.823578
53.670910 -1.247945 141.609100
65.808884 -4.034881 144.479843
9.818026 1.780425 112.797806
52.178757 5.480077 141.995865
-24.446848 2.541611 137.619461
-41.742947 5.971635 134.282104
-14.607190 6.038133 142.603821
-19.638903 5.545465 138.528671
-26.799049 3.722830 142.382874
-13.681085 3.217330 129.986633
-14.457134 -0.046990 134.250168
-13.184116 7.756854 135.976059
-38.739986 -0.420338 138.178207
70.088860 2.385027 141.978851
-55.546368 4.324046 141.121094
-28.492107 -3.193224 137.971756
-3.496538 -12.998889 114.109512
27.792343 -1.172038 141.701126
-14.294333 8.398020 143.421371
61.924755 1.813944 146.952377
-30.797195 6.119907 144.143875
13.367516 6.951463 132.419342
9.063050 5.665269 119.765465
9.098131 -10.095727 136.930740
-2.350992 11.704623 127.138779
-18.556368 6.963960 136.943848
-15.254511 -6.656122 143.271378
23.107792 1.969688 142.208588
52.350574 3.855994 144.070526
-55.789555 2.679754 136.261887
-1.954955 8.401448 145.191818
-62.690968 3.747085 142.378342
-20.590506 8.721397 141.890152
63.383251 4.007512 145.411301
37.410797 4.714176 138.680115
27.897139 -0.653688 143.771851
3.218800 7.987282 146.973099
15.468982 0.365988 125.102081
6.988512 -12.150244 135.219360
-63.125008 7.603454 142.768341
-4.780555 10.694260 128.543152
6.634732 3.043355 113.787552
-10.802127 -4.204995 144.633331
9.224885 -13.815496 124.975525
44.906624 3.812442 148.100098
0.866203 -15.086330 118.184380
2.134428 12.157819 139.452362
-42.699139 -0.185814 136.791214
5.637890 9.926036 132.307053
1.715479 2.761269 115.743523
-50.991901 8.628252 138.844376
-9.846775 -3.080507 146.365021
12.439587 2.547288 130.561356
-11.660428 1.442516 124.516327
40.981003 0.640769 147.012619
-50.225067 -0.633589 146.177658
-75.999863 5.494869 145.738617
12.396723 -0.578495 124.456238
12.669998 -4.316506 129.533859
-57.856632 6.130487 139.387634
9.295872 -9.211759 119.650131
41.671082 4.175863 136.948227
2.441878 -15.342162 113.178230
19.670385 0.826939 139.662628
-6.719416 4.258150 118.081848
-16.145561 -5.910844 116.939438
0.673427 -12.815689 129.386597
-37.512436 5.781172 139.268707
-8.087513 -12.769329 128.386429
-60.659866 1.530798 140.097488
-29.968994 0.982968 143.269791
41.847496 6.802502 145.845398
2.412818 -10.821253 129.199219
-55.061554 -0.268447 142.861313
-7.400210 -11.594340 120.819565
-63.317085 -1.122933 141.177414
-10.779431 8.424345 142.402222
11.881753 2.028235 116.474777
-59.836514 -2.461401 141.979004
-0.228434 7.155733 120.604210
28.168900 0.746210 137.980026
-35.672043 0.469562 138.447464
75.545792 -6.859366 139.009079
8.371782 -12.553568 131.553650
-3.781787 -12.000744 116.932030
15.857737 3.667465 143.102386
-11.891597 -8.135832 139.172089
79.247505 0.165528 141.531097
-41.829445 3.493182 135.873627
-51.769722 3.716568 143.426010
15.724936 -5.063745 141.731140
-6.548743 -7.009321 148.187790
62.662983 -2.103047 140.569672
-1.078932 11.286061 135.261780
-7.366969 -10.594469 124.794403
-24.639156 3.382211 134.747360
-49.650425 0.807335 139.886307
-8.339406 2.369905 111.116516
-60.511864 -2.784842 142.444214
31.553692 3.846067 138.000351
-31.240959 1.821998 146.055344
-5.658974 -4.432517 148.629761
56.423042 3.519771 146.056412
-5.782595 -9.837897 143.881424
-13.301075 4.625213 131.452972
-58.308174 1.118422 134.119797
59.989929 -0.063114 138.756348
-56.217495 2.370309 145.359283
-11.044394 0.537309 146.933487
65.537811 2.117237 142.460022
57.496582 5.706109 136.372543
13.260031 2.535074 130.785355
-13.040378 -6.366910 139.810089
-7.627120 8.456688 128.421204
60.210377 5.791582 142.410889
5.992529 -13.199095 123.820267
-50.233723 5.822375 138.258545
-7.620660 -11.301408 118.722908
-45.235771 2.255189 137.670242
4.074850 9.620513 129.783340
-63.171921 0.831362 139.565842
51.367310 1.201011 139.178238
5.555264 -1.720574 147.668015
-16.072701 -3.621156 128.779465
-4.410391 -13.623543 118.443413
3.451080 4.755435 122.391113
51.060158 -2.185787 145.180359
50.438854 1.227896 144.470230
-11.428798 8.629653 128.569626
0.115109 8.795510 151.637711
-2.062440 -13.165120 112.691956
-12.850686 -4.354814 115.838409
65.252235 -0.473619 144.857697
-60.950665 -5.204616 142.656082
-72.967331 -0.684920 136.278992
43.938213 -0.672066 141.153915
-7.838309 0.822419 152.093735
21.262047 -5.281189 139.291763
66.949638 2.245771 144.643112
-8.217787 -12.350569 120.232330
-7.557820 -1.531213 151.986023
-27.324280 -0.078414 141.480499
-15.283178 -6.788954 117.977303
15.555893 -5.236358 130.500031
9.863242 -2.244460 116.531227
3.150267 -8.811220 146.898788
11.763608 -8.589926 140.908920
-24.457142 4.104936 146.963058
-0.550882 -18.167929 127.950729
32.850243 3.809090 141.882248
-7.754537 8.909295 133.475189
-40.163570 2.499870 137.909454
39.057030 -3.680189 137.669403
-45.098667 0.028742 142.365662
11.170885 -2.076026 133.221436
10.907374 6.508779 144.156708
-8.421761 0.786601 117.253242
1.133293 5.149222 117.805641
-2.441467 -12.618012 141.504059
-58.800152 2.806670 141.144104
31.411003 7.175323 135.473083
-7.955900 -10.920276 116.930176
29.817429 4.246535 139.474106
-9.345382 5.492152 146.928955
70.601158 3.658737 144.832001
4.153574 8.731064 149.129562
-36.048336 -1.229399 141.026688
14.174659 -8.848319 117.261314
34.426548 0.697390 136.409393
-7.657983 -13.673820 119.763603
53.698624 1.507266 145.148743
41.388119 -3.599269 139.645020
-0.602751 6.989723 119.065254
71.195023 -4.000124 143.336853
29.348541 7.351570 140.428726
-15.137215 4.179592 140.609375
-10.582605 -8.531796 125.803650
27.835365 9.992504 144.705688
22.152622 2.368849 134.562943
-57.378548 5.367841 146.899902
-10.710803 -9.379458 115.111488
-67.944725 -0.520498 141.040314
47.125511 -1.125842 142.438599
-52.238300 5.226091 138.213821
-70.636917 -0.500297 140.755753
12.116192 7.796558 132.652893
11.388599 3.659287 123.950111
0.790985 -15.582305 123.220665
65.402893 5.314313 145.685837
10.387230 2.325934 125.626183
-4.391072 9.112110 129.752548
-1.002720 -13.693911 130.937881
1.365630 5.935791 147.897446
11.392439 1.610130 147.537460
-43.167381 0.139838 139.317001
12.029198 -2.136439 116.663116
-10.584456 -11.216683 119.357582
-18.585636 5.652750 146.503311
53.994160 8.788265 143.139984
-21.466713 7.101390 144.010971
-18.046526 1.662942 138.701462
1.590441 -6.298969 138.662766
-30.289759 0.407107 145.193817
-14.536715 6.139942 134.228546
-68.199448 2.312694 142.301224
-11.083967 3.863989 132.570786
16.967522 3.281087 137.283279
-11.102744 -5.261138 129.134689
-12.103620 -6.290072 133.569626
31.028818 2.157001 145.275055
-38.633274 3.684607 145.111298
15.227119 -2.738890 115.088333
-4.927799 -16.800501 122.058762
10.053203 4.511270 117.286423
49.712708 5.453165 143.945145
-53.187523 -0.018644 144.593292
-24.896217 10.256070 140.156418
14.065159 8.752126 138.899796
0.827522 5.995405 118.365540
10.013191 2.159679 112.772552
-43.797935 1.777431 139.868668
68.790779 3.814322 139.903763
-33.440426 -5.267149 140.818237
7.946756 11.856541 133.009659
-15.783528 -3.037786 136.048264
8.838557 -8.690948 121.847931
-15.856402 -8.878424 118.554146
11.098539 -2.451632 145.440109
64.279793 -5.448221 139.380035
31.090273 -4.424212 139.025238
-2.133320 -14.518178 127.096695
4.592390 8.784318 125.254242
-8.917988 -0.676798 113.973946
-38.337147 3.874854 144.636230
50.247959 -1.794340 138.843811
-70.903358 -1.476885 143.809921
-41.351723 6.898513 141.599289
14.548853 9.309678 145.112427
16.797005 1.137452 148.317337
-62.038155 1.202834 137.399643
-8.270053 -9.777514 145.318237
3.511120 -13.976630 113.931854
-18.268637 -1.223976 139.598007
6.946429 -11.207782 113.592644
-24.436127 -3.233214 144.218170
70.525055 -5.384807 142.413528
-13.421596 -0.382317 114.040779
47.644680 4.240764 134.962540
-9.818940 -13.194530 123.595467
-58.415733 -2.825314 143.522568
-59.890793 5.891922 141.695175
-38.980228 5.035589 140.247208
18.256826 5.604873 144.493362
22.852541 1.327107 137.312927
4.042904 4.182930 149.342270
-41.297596 4.746404 139.486603
-67.833809 -1.268289 146.730682
12.634170 -6.920000 127.397110
-22.298317 2.368072 144.750092
-8.464898 1.621744 150.444061
-48.661057 6.225817 146.090866
6.655148 9.875281 141.196655
6.276646 10.206778 139.831146
31.150578 5.695135 137.126892
11.353067 2.914783 130.642197
-50.703651 -2.373134 141.799774
-44.729748 3.604707 144.743454
-12.769769 2.743272 114.258499
-38.663242 3.397789 143.560913
-68.933708 2.028537 141.131760
21.176252 3.345994 144.085190
40.657219 0.492233 146.982346
5.604234 7.718544 133.089661
5.025459 -11.323373 135.712326
53.644989 -3.618763 141.033035
-18.848366 4.338483 143.371658
3.225549 -10.762136 137.962723
34.999344 10.884293 141.155731
-61.719322 -2.296865 139.074127
-15.074362 -3.701410 130.835892
10.418124 5.525003 120.507805
5.973382 -14.872752 124.015648
67.539787 -0.057691 141.267548
-31.427217 -3.528723 141.952118
43.558891 1.361318 138.539246
-21.342928 -0.193076 136.211075
-61.191780 5.401950 145.395325
-62.213066 4.003233 137.201233
8.389669 -5.518008 118.501831
-13.589955 -5.568549 137.075928
-13.054380 -4.227907 117.815323
-5.964582 6.071154 117.862610
8.199161 7.057970 124.499390
45.065277 4.172261 142.517471
-2.805762 -11.451743 139.250992
14.544247 5.747617 143.621704
18.805998 -2.147249 136.387634
-45.485405 0.315856 146.931152
-64.793480 4.980366 139.496124
-51.449467 2.610765 145.920822
-8.326565 -7.994199 115.647018
53.158848 5.782576 137.872284
15.070022 -6.177610 139.514816
-4.520757 7.788725 140.704254
-39.567314 0.543637 145.835175
-6.433048 3.053668 116.233635
-5.730351 8.069856 127.710648
1.308973 10.358907 117.949379
3.416379 -11.425920 114.092911
8.951056 -14.263296 125.103989
-11.344889 -6.361805 127.170044
-52.512367 2.736134 145.808655
25.556358 -2.033362 137.379349
48.003025 6.204372 135.127655
38.073463 1.039311 145.325119
35.994724 0.931972 137.233459
3.152507 -11.516752 118.102821
8.035020 -0.844944 146.147461
3.644989 6.290931 133.700897
58.352123 -3.215017 138.696671
54.368206 2.886679 139.444687
-2.251514 -15.430894 116.191772
5.762603 7.118107 138.180603
-47.235336 -2.990236 141.353943
61.111191 -2.763463 148.430145
14.149324 -4.905736 133.219238
42.831493 -0.051906 138.124283
3.875515 11.568897 134.623596
-39.120037 -1.237236 139.237137
-9.371641 -0.123068 147.780106
-10.926906 -4.489234 125.844841
-7.174782 6.842319 124.316391
-0.016355 5.194424 116.370262
-10.873593 -6.743724 117.797943
-50.131046 4.096189 144.109177
-14.610943 -4.118301 136.997223
48.666904 3.813549 138.076035
28.215252 6.364849 139.806595
14.960215 -3.732827 144.668091
34.538807 8.322002 140.963257
-57.875057 -3.812230 141.381073
-35.355427 1.853450 137.296707
5.870680 1.730229 150.979630
3.492507 6.847941 137.353683
11.368134 4.637065 113.321289
-37.735378 4.225464 137.433456
-61.826084 2.712378 139.910095
-43.835003 2.360123 144.571991
2.863480 8.883214 126.091766
-39.390228 -1.059511 144.537201
-50.063366 -2.804119 144.831329
44.338917 0.241143 138.349335
-20.714739 7.756885 141.036957
2.632390 -11.245712 137.549316
46.029644 2.130026 139.419983
13.249434 4.317803 144.276703
-46.030361 -1.381843 138.897552
-28.002560 -1.873911 143.808014
-50.677334 2.194582 132.824768
-75.635963 0.016062 143.242203
24.226578 4.067573 138.047638
3.330725 -16.935888 125.427155
57.882633 -1.386355 147.677856
-21.658684 -2.991534 144.462936
24.866812 4.147633 139.011993
6.074715 -15.720034 123.371643
-53.916573 -4.790307 140.828354
12.433454 6.365666 119.761307
51.482384 0.545940 147.629227
-12.850537 -6.861278 144.299103
8.576152 3.065113 116.589584
-10.225516 9.092363 132.023483
5.990213 5.272856 115.056984
-13.473969 0.922264 144.600296
31.389297 -4.806825 139.577225
21.847263 -4.256779 140.045578
-46.221092 4.055201 144.945770
-13.014995 -4.437350 144.455109
6.770305 -13.911849 117.626137
-13.661043 5.268265 131.936798
-22.716345 5.296194 142.085098
-62.853916 1.194702 139.041412
33.624371 -3.764940 138.214111
34.584858 5.785268 135.659882
5.428889 -2.324095 146.724884
-22.591824 9.160534 140.555740
42.645470 0.067457 138.792160
-54.227219 -0.233240 145.752228
69.250778 -3.172728 143.466385
-6.969886 9.308612 143.214844
-34.320858 3.163815 144.469040
4.093304 5.719084 149.698410
-27.968136 3.990730 143.945435
-4.827505 6.931216 116.068336
33.489433 -2.392370 136.887299
48.136772 2.545417 143.589264
14.021166 -2.886645 121.152679
1.355225 3.204747 120.609894
-49.388382 6.576663 143.151443
-1.691666 -16.127983 127.326607
44.341492 3.689886 137.153427
-44.596546 6.651429 143.524399
13.401917 -0.191500 147.371124
-10.580581 6.885128 133.052261
-4.508226 2.774773 113.505852
52.095341 6.042417 137.011719
-19.255135 0.010534 144.571320
-11.912905 -6.680204 126.187012
10.656775 -7.356148 119.556839
-4.710490 6.332254 116.129616
7.468544 5.236727 114.091423
-52.439606 8.105469 139.938904
-1.429536 6.317556 145.056198
2.816420 4.684117 148.848190
9.117764 -10.572480 112.680916
-17.157587 6.097025 138.412354
33.434868 6.648020 144.878036
-69.619614 -0.410173 145.155182
-14.429852 -3.307485 118.422394
27.452007 6.367488 140.347076
15.684090 -2.456325 145.479095
-9.798872 5.038973 116.905067
48.849880 -1.159764 141.402573
11.915764 -10.922963 127.858040
-45.842907 6.177442 140.654968
-4.300964 2.179081 118.146477
-3.084633 -12.309011 119.340813
-57.680771 4.145627 146.602859
68.016998 -0.364071 147.484543
-14.705854 5.659935 134.731186
42.847176 -2.331855 144.988007
0.607922 -14.100042 117.026413
-31.717661 2.443337 136.470947
11.738647 -6.231896 133.552887
14.299636 6.683919 136.928375
-4.678992 6.921138 147.724716
-15.671077 7.467252 146.803238
67.097862 -3.275969 143.791290
-13.605621 -5.817019 126.609543
-18.929424 -1.254426 137.300522
-24.234024 -2.359727 138.896637
-41.506863 4.248823 135.937790
8.273644 -7.507226 112.418449
-1.787513 -14.957453 116.587128
-30.809790 -0.131414 145.807739
7.766434 -9.759358 127.233871
-6.619128 5.466562 122.736160
-19.274683 8.795749 143.729111
-0.738644 7.081528 151.101334
12.589929 7.757676 128.878815
-71.612778 4.268352 143.630936
5.534179 0.743097 148.268250
10.312652 -6.677535 110.770607
10.986503 -5.273826 131.422119
22.530874 -1.834973 142.506073
-1.824592 -12.861478 112.200119
-34.743732 1.562753 145.023758
32.908081 7.703241 140.542770
45.845448 7.636941 139.012573
61.569305 -0.499363 136.635513
-11.076218 -7.886973 115.986275
70.522255 0.410683 139.237701
-15.272941 1.605712 145.409912
8.943192 -1.191853 124.423553
1.410081 8.764781 121.588905
36.903214 5.759549 142.554611
-8.634361 13.858226 133.903397
68.355309 5.869655 146.517960
7.083109 -2.458411 147.697662
-10.541572 -2.002815 132.923935
31.609077 8.270889 139.998947
-40.292488 -3.453910 146.298981
-14.676764 -2.711784 132.550461
61.786186 7.463906 139.078033
-57.839844 7.295547 145.192902
45.647453 -0.257990 144.862091
-10.270270 0.949938 125.275452
66.994324 1.778501 138.359512
-13.428554 -3.359112 141.402390
56.211159 0.778818 145.655029
33.572716 3.505749 138.208191
-24.349682 2.104952 136.964355
-8.846326 -1.570293 146.602692
8.725081 4.632870 145.417603
25.186935 4.718196 145.345398
30.990738 -1.097016 139.235367
30.057798 2.205807 145.756317
3.393955 4.820515 113.246353
-6.674622 -5.832121 143.493576
14.917528 -0.140467 125.284065
35.630157 -4.500679 144.916275
11.460992 0.045419 119.189041
-5.570984 -9.526650 140.513779
2.534931 4.607707 120.122223
-31.542063 3.919087 135.395996
37.158653 0.282666 136.450775
-33.867863 2.435537 144.680969
13.056299 -9.500670 126.172905
3.701662 -8.564782 145.541519
5.224103 8.424994 114.283615
4.180701 4.959255 156.071335
-15.696174 1.035848 126.393951
-71.443665 3.698242 143.703720
-68.089630 5.410408 142.849625
-5.692920 4.201264 125.883598
-16.218775 3.531561 131.479584
-9.784343 -0.703383 121.961548
-0.318388 -0.578753 112.674675
-2.137578 -8.427784 139.505753
-47.409424 3.611916 140.861298
-54.615021 -2.369112 144.841370
-5.521319 -2.223206 149.547089
-6.894671 -9.563536 139.987885
73.590675 4.321812 140.824234
-63.786591 1.097778 146.683517
0.371883 5.493322 152.506882
54.105747 -3.501133 145.666779
-12.071934 -1.192223 116.540802
-63.990891 -3.676359 144.728912
1.685023 -8.094562 143.659576
7.831102 -7.100078 141.026031
14.279095 7.795044 135.871979
-38.980587 5.423338 145.483292
21.004436 -3.577349 142.172607
-52.508839 5.115232 138.522858
-5.053852 -10.300319 140.560776
-18.560373 4.797860 146.494400
-23.738943 1.020730 144.276001
8.750481 -4.733122 135.960129
9.890300 3.441991 117.199295
6.482515 2.229813 119.085403
68.603676 0.887178 147.072235
70.995117 -3.451188 141.733704
5.071040 9.373417 129.869568
64.886459 1.502980 139.213577
-55.421261 1.290761 137.707657
0.897653 -10.639069 116.155090
14.780935 4.187906 132.280853
-12.047005 -7.050400 116.777077
-59.133186 2.047642 142.775482
-7.594036 3.146140 121.227081
13.478663 1.854672 129.592407
36.381027 1.386507 144.556244
-5.308605 8.969284 143.923981
39.616852 -4.561695 140.616104
4.811898 3.480509 117.675957
-1.472549 -15.198050 128.228058
-14.023560 -0.742255 142.949890
14.748356 -3.887319 143.434326
-0.269452 8.735229 131.728424
-2.244781 6.134292 131.478439
7.096262 2.436193 113.339561
-0.530558 -12.798085 134.202698
37.909531 4.807149 144.419403
-7.228249 10.528642 142.780151
-25.483738 -0.747139 133.757309
13.592960 -4.286144 129.010452
-5.444545 -7.452550 144.189148
47.537086 5.145132 145.585999
-12.435822 -6.989701 117.585854
-29.475023 5.954717 143.604706
3.196852 1.229015 118.156013
-27.177866 2.824588 146.274185
-1.700905 5.148546 153.110947
4.415608 9.633716 143.044937
-11.697273 -4.306112 128.184311
-13.224492 5.022785 141.457260
26.102129 -1.560459 144.865891
-59.899921 -2.749118 143.230942
13.817859 0.750837 127.111412
-8.771407 -15.329479 130.376923
-7.690858 7.908255 140.505417
-2.488875 8.933487 130.640457
45.825649 -2.130557 147.029358
-64.572166 -2.237314 142.364655
46.573608 5.289949 142.913055
-0.195343 5.465465 126.049667
-2.249413 10.014336 131.989487
-3.840537 -11.244545 119.120140
-37.284031 6.723260 145.107742
-35.410629 3.862622 136.330246
-14.011429 -3.084368 118.014687
24.740683 0.378829 141.114456
56.607193 -0.052005 144.960800
9.088860 0.192279 146.142670
38.616608 6.348884 142.653336
-41.312408 0.185915 144.383621
7.175103 -13.328776 116.988976
19.206350 6.398497 136.079163
46.825443 4.655210 138.699234
13.397820 -5.291018 146.039200
18.646830 -3.243310 135.671783
2.317005 -15.661194 138.127441
18.993069 0.381371 145.922760
-29.796045 3.352365 137.693207
-6.953587 -3.992720 142.676178
19.108709 -3.824938 142.064453
-6.412948 6.489093 149.357391
61.960503 8.819000 145.724625
-7.030932 8.120111 133.109070
-28.088823 4.879085 145.608017
11.421129 3.279597 116.587563
-53.379021 0.673674 143.648270
19.878942 -1.524879 140.911072
6.985147 -10.550469 116.565735
-14.324404 -1.715354 124.611099
-7.892400 6.689406 141.444641
-63.521347 -3.353299 142.259094
26.249228 8.701720 141.496201
-28.540075 6.429955 140.342834
-41.258415 7.504879 135.308517
21.561945 3.795585 139.773270
8.963503 -13.163344 129.248550
-65.236420 2.167506 138.850876
-5.347977 6.404982 116.129936
-16.337744 -8.771005 129.595337
-6.382584 -11.324710 116.413231
37.527191 4.771332 143.560944
-3.311497 -10.964431 139.261383
46.329922 4.293361 141.528397
62.754208 7.169571 138.600067
8.196019 8.314812 144.496521
22.689924 2.510110 146.026764
-65.252258 -3.873822 137.677139
-7.441127 -7.204061 142.803268
-24.414209 4.489479 138.999557
-24.753122 2.550942 139.109604
4.089153 9.987061 133.845352
52.313114 3.203854 136.631012
-5.963831 1.381683 115.217461
15.591993 -0.529565 133.282578
-52.336037 1.182432 148.016205
36.987499 1.470479 141.143585
48.898544 -0.236313 140.475571
8.173497 1.010826 144.396774
3.873277 7.214722 127.317726
6.975499 -10.302105 115.059036
-5.300988 -13.573763 113.704155
-17.581806 7.769092 138.149490
-4.890955 0.631991 151.966843
-2.909772 -17.697439 126.592163
-7.134928 -6.205467 145.303040
16.730301 1.457847 134.455795
47.336174 -0.270784 137.606476
-35.692410 -2.282470 144.007706
-60.811172 4.761030 145.132843
53.868324 -0.711274 141.431076
28.661577 3.419029 136.246460
-1.031678 10.575424 137.030609
6.665899 -10.785882 118.207947
-12.011767 -10.628522 131.934128
58.724365 1.935048 145.896942
15.992893 -2.580440 131.341522
2.699707 3.189976 115.112061
-13.090947 5.411380 142.660767
-69.512115 1.539830 140.022614
0.689237 -11.982749 115.920059
22.229212 6.447277 135.233765
2.664819 -9.989831 138.980408
-9.615037 -5.228344 128.843094
-7.931459 -9.422431 118.040947
-10.195150 -12.858937 115.742676
44.440079 0.649735 139.506439
45.621902 -1.587433 139.605133
-46.717297 -2.903776 138.169403
18.654663 7.003526 131.720352
36.006321 2.139686 147.945297
-2.567362 -8.757576 151.848221
-1.259760 -14.520028 115.033386
-47.409225 -0.362900 145.962234
-26.533279 -1.107839 138.740555
10.190628 -11.747462 117.230957
-4.611518 4.178732 116.620773
-10.617542 -0.019493 120.197212
53.696434 3.320045 143.907837
10.873507 3.572946 124.977898
-14.959421 5.175359 130.354858
-1.634355 7.517130 136.179123
-63.700520 5.573702 139.331329
14.589511 0.589626 144.804321
-10.520332 -1.769618 114.170555
-10.491818 -8.820609 140.276413
-13.769304 4.141418 129.678589
-61.469097 3.780725 143.258957
-58.409813 3.340161 143.938446
4.563238 -14.185585 129.442947
-54.056129 5.655782 139.256073
2.484451 -13.627752 112.898575
-13.394264 -2.125401 114.661667
-29.898985 10.482541 143.031265
75.212151 -4.044941 140.719910
-29.322809 6.805633 139.176895
-8.707691 4.697639 116.550720
-71.573326 -5.786060 140.487549
-15.513501 -6.462933 139.311386
-7.532275 -5.936255 148.346771
-3.613110 -14.284949 117.573021
9.198903 -14.773540 120.646065
8.632572 -11.293499 121.503624
-11.842183 -9.560018 124.214584
-2.183665 -14.773242 122.559853
-53.885185 4.700250 139.471527
-11.156505 3.634863 145.207230
-35.397610 -1.698472 141.974686
54.831245 4.913703 138.423233
77.080574 2.820299 139.644974
29.721550 -1.039393 139.335114
-57.792877 5.931539 140.510040
-3.539889 10.721972 138.677094
47.666374 1.096794 147.529724
-55.697567 -1.614737 137.987839
-33.315102 7.064102 136.517380
68.249413 1.459637 138.960129
14.963391 -5.451557 132.236496
17.570761 -5.406171 139.015472
-15.622598 -0.027960 142.926376
-18.045174 3.247794 136.356827
-32.791470 3.789724 138.059418
-65.209770 1.922318 139.230652
9.710165 -11.515846 130.644165
0.429583 -14.545137 116.744606
40.481472 1.799155 144.875320
0.076386 4.812290 145.997681
9.064033 -8.813219 124.126205
-1.825244 -8.069042 141.656158
7.742398 -12.485203 136.285919
-12.203845 1.553924 120.141136
-35.983994 8.990355 137.133835
12.084630 -7.510411 114.305962
23.642712 1.469276 138.614212
11.521242 -3.251132 131.015945
2.910515 -13.596972 121.947128
-9.024213 -12.101026 116.188995
40.598904 2.371871 137.196274
45.993286 -0.812494 138.324799
-72.613358 -1.551318 142.743103
8.234136 6.025909 117.446404
5.957526 -10.058414 127.362663
-13.354727 -3.568659 123.086639
-20.399439 6.523449 141.583618
28.313337 6.859655 136.623810
-51.740543 0.349426 137.647659
0.668424 -5.299782 146.113892
12.408781 1.346091 147.875519
27.887856 5.437242 135.553665
5.206043 6.214948 124.362099
58.931171 5.144926 140.717224
-14.363839 9.432853 139.781891
-23.310335 4.393420 142.825638
-33.090328 0.434097 136.608841
-11.265781 1.581249 111.654221
-22.926914 -0.669917 144.908401
-34.827148 5.740635 145.305313
35.736916 4.330377 141.130341
10.335660 5.266603 126.232582
28.146076 -1.898105 139.522263
-34.167549 0.128957 137.335709
58.959938 0.566011 139.096329
-42.379978 0.776181 137.368942
14.373726 6.200928 140.521698
32.664551 -0.444626 137.543121
-13.620018 -2.111485 135.709488
-1.946140 5.694677 146.031082
-36.103031 -0.330691 137.869766
4.630114 5.034008 147.767990
-29.579641 5.644273 145.896118
-75.058365 -2.241615 136.933105
-5.222570 -16.431669 113.120842
64.512909 2.224458 144.363708
-53.040668 7.696536 144.537155
-41.624645 -1.074293 137.792587
-11.128762 -3.766405 127.219727
9.480138 -12.274977 123.242165
-63.352028 5.981985 146.527054
27.118383 4.909361 147.223511
0.128266 -7.767511 142.965469
66.730827 2.138894 144.214432
15.472453 -6.553052 130.523132
42.998783 4.507464 142.795761
69.371368 -4.571721 138.335770
10.575677 -3.800515 145.360199
10.875355 -8.218852 114.673111
-5.163831 -14.673242 118.862274
-32.779747 6.361177 134.572952
63.104519 5.798983 142.718704
-8.586764 -0.110407 112.207710
-0.048578 7.155256 111.915688
-10.328999 -6.019058 112.559479
-43.320164 3.888727 144.560791
8.065091 9.192653 135.489136
-24.586102 -1.343139 144.088837
-40.873466 4.134673 142.826202
-17.216324 -2.490982 147.180984
4.119495 -13.245965 125.400040
-38.532398 4.136765 138.856537
12.618286 -0.658867 122.401482
-23.214605 -0.953160 137.538803
-28.740013 7.527212 136.954819
-11.967533 4.044087 120.843582
71.858467 1.573697 142.883408
-7.474440 10.258695 139.458466
-12.927977 -8.433949 133.908371
6.574124 4.824084 114.591476
9.929558 6.468367 131.895279
41.632500 0.872908 140.773422
-49.264610 -1.957419 145.960861
-9.196847 8.943142 141.822266
2.168630 7.419803 126.137421
-15.930052 -2.960399 143.684158
14.430806 -1.974170 141.677444
-4.037130 -10.974689 138.260132
-8.310280 -0.907669 114.580727
-58.816753 -2.919439 139.936325
-3.946338 -12.314371 126.200233
-8.381956 9.218209 132.333282
11.484470 -9.252602 115.263069
-17.682827 8.734679 137.062363
-55.697041 -1.910581 146.063766
13.501342 5.605405 126.726761
-31.768560 0.694894 147.977722
41.953934 0.030170 134.850052
76.326584 -4.247356 136.106064
-5.889007 -14.658068 126.715202
-2.140085 -6.451651 148.804260
43.914684 0.739036 147.319977
-8.568286 6.593007 146.304855
12.215208 -5.105705 123.294853
-5.458635 -14.318944 131.824677
-4.291552 -10.874264 141.403778
2.415578 -13.270529 121.480011
6.414435 0.626581 148.748016
-15.784388 -1.582942 130.345413
5.664901 5.744534 147.384338
-47.269054 0.964072 144.842850
8.017243 5.050441 146.553238
-57.139862 1.979313 138.070206
-11.789557 9.074659 138.465057
-5.737546 -12.353131 137.879868
-40.567532 3.604383 137.202591
8.096836 9.427796 122.099182
50.956615 -0.049181 139.386673
-57.904461 6.712095 142.859207
61.577114 3.105264 137.316422
10.802399 -11.238996 113.292183
-2.874318 9.618569 132.842224
-20.637033 5.306325 144.224396
62.540325 1.709343 139.464279
62.587162 -1.614431 140.414566
9.615294 9.214319 131.369446
15.687928 -2.987760 146.606186
-56.913883 -1.882468 144.300705
-18.043932 0.753926 144.481186
-56.961151 -1.410799 139.937546
-3.270527 7.530051 113.465042
-41.215683 0.142828 136.897324
67.724213 3.539209 142.448151
-4.337524 6.895234 120.598320
-6.595984 -6.984333 115.194427
47.104221 6.150228 138.060150
-46.204037 5.584455 143.623260
16.802156 -4.519321 143.417786
-9.807358 -13.087255 142.832657
-25.488384 -1.106403 146.763229
-33.250195 6.630172 146.403091
1.713500 5.469085 113.835403
54.503021 4.136366 144.698074
-0.840757 7.969802 128.243027
-13.482129 -4.143867 134.752533
0.791041 5.211100 117.709091
-14.177054 6.307726 138.145844
-45.445641 -1.106510 145.888412
-10.246775 -2.471671 144.925705
-33.104321 4.739748 139.442474
8.453117 -14.135512 127.602196
2.802653 6.253843 115.074623
62.521259 -1.994248 142.191269
56.991405 1.650038 137.186508
-4.882790 -16.760929 118.534744
-63.550446 -1.145267 140.988892
-62.247757 5.010404 142.446564
-26.274687 -1.055492 142.990433
9.998675 -12.452997 131.391724
-59.667480 -0.201786 148.456268
-13.518023 6.643919 142.014557
-25.535921 3.227772 146.174103
2.381828 -5.387147 143.713242
-3.681938 -9.373223 142.374878
-15.164009 9.124941 140.650818
-15.306321 4.610583 136.415421
43.672184 -2.010463 139.202103
-8.630906 3.385378 115.696335
13.946350 -5.109740 139.531265
-16.091496 -0.388435 124.177086
14.029874 10.301429 140.948425
7.750935 3.805846 119.772095
-77.103706 -2.784185 138.026215
29.287891 4.939502 144.843628
-35.133156 0.419430 133.191238
13.204123 -9.459241 139.557861
8.261243 -8.834764 136.686234
33.864834 1.610680 136.710403
-12.971755 -4.437324 113.544136
-9.788068 1.790154 146.164536
10.317487 -8.065453 129.261459
13.204543 -4.055339 134.377518
-13.321000 7.485095 142.655594
-3.265042 -7.311991 145.680588
14.232942 -12.557183 129.616028
28.496996 6.463255 142.621887
5.058202 1.813996 150.325943
-8.991021 3.817610 113.838013
10.737431 -10.994725 122.988167
-10.579035 8.096744 132.140900
-28.034176 0.535127 145.075653
58.515141 2.014149 144.954407
19.688284 -5.082731 140.099945
16.323368 3.497187 142.733704
-33.046146 4.097802 136.583252
0.129230 2.520950 115.686142
-27.231237 4.811358 145.128204
-0.709172 2.950607 122.564438
-15.950542 -4.188013 146.859573
16.910049 -1.110224 143.566635
39.642487 4.857816 137.683716
2.925998 6.981667 131.558655
-38.606251 5.860647 137.502747
6.705935 0.776314 149.055984
-27.379749 -3.838264 145.158142
-12.490849 -9.371259 136.524094
-56.797745 0.572524 136.700897
6.413926 4.602920 150.022415
8.305361 4.388896 126.952980
12.211426 -10.506038 121.707207
5.235601 -0.223729 151.275284
17.383038 0.484958 123.798088
-34.134457 3.952134 142.744308
-73.401268 -7.102257 140.050064
53.638252 3.978000 142.493790
-15.005185 6.473565 143.562424
73.504921 5.901791 143.043228
43.126186 2.458414 137.322296
2.872383 6.224047 117.933014
6.781419 2.835313 147.165131
48.031563 6.416059 138.048233
5.221848 1.943872 113.236588
31.604599 1.991056 140.698700
-7.682680 -7.620605 137.178482
2.729839 -14.059576 130.823273
-2.738781 5.746953 143.144058
11.246939 -2.012167 114.994804
65.628403 1.707128 142.432632
-13.222013 5.260490 144.469162
-32.006802 0.369520 139.037903
65.562386 5.140519 144.408661
-13.693556 9.596496 143.911270
3.068631 -10.902411 116.422722
-7.854385 1.990818 150.974091
-1.275656 -13.861149 115.900009
-19.982487 -0.412858 143.938004
8.648024 8.611155 128.524841
1.270611 5.261106 147.389938
12.248047 7.584247 139.199493
26.343561 -4.794224 138.437469
12.494240 -9.714287 125.657318
-8.597661 -12.144744 137.036041
-41.095543 6.544180 142.459076
1.616826 3.735139 116.021446
-12.044103 -8.647083 117.901466
-58.552391 4.315451 144.988358
-58.762928 4.068645 138.814041
5.944675 9.225619 128.270920
7.471508 6.728770 125.660843
3.184777 5.861696 117.043396
-0.279673 -16.989475 124.094994
3.585377 -15.782197 125.632362
10.606133 -2.415117 114.829567
35.704399 -2.149181 141.730347
-11.741033 1.499022 115.395264
62.141907 -0.672464 139.913727
-46.127563 1.220486 146.245071
33.946251 -0.858794 139.738678
-24.009705 3.720407 135.867661
14.164974 -3.825062 132.756058
63.678814 -2.985729 142.817123
-8.530603 -7.935589 141.129761
11.222222 4.304260 146.639389
-15.241146 9.275334 142.066498
11.810575 -0.251395 116.131714
-16.575258 3.937864 133.761200
-57.220058 3.634562 139.695312
13.255600 1.968018 148.920776
-22.922668 7.334299 135.008804
-27.061295 6.800773 139.694916
-0.870866 7.538921 125.723595
15.929089 -3.066755 138.232864
-9.384409 -3.590565 119.383263
-14.586098 2.360668 145.933624
11.053823 -8.717103 117.564018
22.146999 0.135684 144.564575
-73.938782 -3.998642 137.616333
-10.107411 -8.693834 132.354202
20.204952 6.371724 135.337708
-23.095108 5.217405 142.961227
-15.008792 -2.364721 127.240654
-38.689384 0.995903 147.155106
27.239372 -1.043742 145.845215
69.925903 2.451319 140.276672
-12.032806 -3.042158 149.406982
-11.938183 4.883971 118.289612
19.672884 -5.288741 142.733780
-30.275110 1.305359 141.204086
5.283906 3.489358 150.689499
24.518679 -2.298878 138.355545
12.244750 -5.633439 132.306091
48.453846 4.470594 146.876526
57.884613 6.242800 139.649597
-52.909935 5.100160 138.437698
55.240009 7.113803 141.495483
-0.041583 8.158640 119.835152
-72.710213 -2.067020 137.271545
-44.748314 3.145306 136.916962
-36.844780 -2.185170 141.116119
-19.836113 8.064361 136.105667
-25.384258 2.622226 135.968582
31.018612 -1.240842 142.695801
12.746165 -6.085651 132.124130
-23.709249 -4.276746 140.414658
-14.112368 7.522448 138.750931
6.238586 -11.431531 113.992714
-17.304831 1.538138 135.279297
-35.200752 0.301517 140.205185
53.535255 -1.973201 144.348206
12.231127 8.933727 138.115387
-49.772095 0.567407 145.735260
7.087109 6.694762 114.862099
22.012138 1.362609 145.134369
7.616595 -5.436087 128.742691
1.163100 4.090058 111.583015
-48.287769 -1.182425 146.512421
4.716948 -11.911583 110.831665
-7.439822 5.840322 131.325256
61.083431 0.037122 150.089966
59.993992 -0.239625 139.696365
-17.212645 8.799399 143.197815
-8.478139 -8.308761 114.372688
-44.785229 -1.082251 142.383377
-7.214318 -5.307542 148.122528
8.866117 -7.419633 137.519165
-20.501154 8.235550 140.169388
22.302694 6.549551 140.675858
-45.379257 -0.785398 138.975616
15.339474 -3.330014 112.084839
20.987261 1.869262 147.426331
10.099460 -1.464477 116.549812
-5.138795 10.278992 133.237244
19.884670 0.382734 134.102234
-49.733025 -1.442348 136.656326
-34.059708 -0.028215 138.220734
-19.836037 9.574433 142.644241
21.830523 1.582302 146.582703
9.911940 3.528561 122.724350
-71.239456 -5.579205 134.481491
-3.135028 10.509185 139.504944
-1.802148 -14.273792 126.796837
-31.562546 1.855001 144.292450
3.054547 -11.041950 112.523254
36.766674 2.103259 135.628540
6.950570 3.736650 118.293167
-11.483060 -7.975562 128.883972
30.609570 5.660482 141.588211
-53.631611 2.300438 144.037445
23.920458 0.072001 147.229446
46.840435 -4.491167 140.421127
11.334246 0.492392 117.704590
-39.968815 -2.509639 142.769180
12.764155 -2.751796 138.400177
51.335884 0.344050 137.806366
10.159287 10.688375 141.287308
-4.504033 7.768641 117.416878
-56.979347 4.201503 146.256653
9.858807 1.350671 114.479118
-5.941747 -2.702821 147.002853
-0.756242 -11.205384 115.261780
49.856613 1.027781 150.207916
-15.767275 2.431236 132.899612
37.572002 4.286682 138.725311
11.589457 3.760957 122.343132
7.667618 3.849796 115.718124
13.755375 8.069677 144.333130
39.271149 -0.968374 143.698090
60.056828 -3.374871 139.772064
-58.246063 2.204695 142.255081
21.447618 -1.057563 136.002991
-36.225742 9.202998 138.162247
-20.097389 -1.463582 144.006470
-15.243235 -8.471346 128.698608
28.848705 -0.252576 140.396942
-12.048292 0.116760 124.769302
11.562336 -4.647129 134.951050
16.685457 3.086620 138.140320
30.608715 4.877757 140.467926
61.661064 2.437805 138.323257
51.327068 2.907165 144.579987
-15.386531 -1.854472 112.900276
32.916050 0.868955 139.549149
-45.148071 -1.321751 138.479385
-44.018875 4.699084 144.396286
-44.722107 0.231314 138.810745
3.911751 8.062346 144.807907
16.807222 4.410757 151.411285
6.654670 -8.866426 138.926926
3.361666 11.933763 140.410858
-1.077554 -15.715268 117.819077
-61.561970 0.580193 142.407776
11.380984 6.367117 140.107758
30.039999 6.054251 137.423141
24.758694 -0.082081 136.681076
-6.106484 7.909401 147.310699
-29.798702 3.740696 135.964325
9.670627 -9.956258 128.468918
-49.264019 4.378850 139.324326
15.935283 5.784624 144.212082
34.150112 4.163475 138.936462
4.535120 6.731868 117.509857
61.940643 -1.155026 145.316803
7.405675 6.030610 149.363480
10.969384 -6.375934 123.183167
-12.755185 -8.519575 138.872940
-45.288651 -0.353055 141.196701
-4.238574 12.687502 140.475372
-10.306066 -8.545551 139.982040
-38.294487 2.004701 136.910690
-10.764851 -3.349364 120.553215
7.904377 4.428600 111.663429
0.553051 -10.967785 136.192978
-15.763187 10.030804 133.981735
-30.148859 3.352376 137.084793
54.246567 -0.111333 139.772186
6.638005 -7.289351 143.122162
3.667995 -12.612334 138.020630
-19.893595 -1.369400 143.234451
11.036178 6.079004 124.479889
3.866099 5.147410 116.436790
4.752450 -13.796464 118.821114
-10.213102 9.045166 140.071289
-2.797834 9.250820 131.267395
25.874006 3.426390 144.211304
-47.020042 9.289215 144.780350
63.471527 -1.246352 144.895508
30.022202 5.758919 134.325607
-14.442391 0.407146 130.950974
19.842644 -3.359460 145.822678
13.427022 -3.801696 119.047722
13.896896 -2.752626 139.301315
8.393701 -8.731284 143.651215
1.427510 10.380123 143.321991
-14.951835 1.337865 133.616531
42.579124 -1.018602 143.182388
3.387111 8.591621 134.590866
11.391326 -6.474285 132.821396
6.003143 7.625947 129.052979
-6.202577 2.184235 144.389008
9.796882 3.204958 144.286194
-39.833252 1.021127 142.962814
31.331457 0.046055 139.296204
-11.364565 -5.737614 118.826950
-51.677082 -2.036754 146.222488
-12.258834 -12.998215 120.077919
-40.008888 7.168867 140.900497
-34.538116 -0.333363 135.564560
-10.762500 1.042785 126.941727
-7.988883 3.847636 116.553268
36.914429 -2.194404 139.826050
-50.401634 0.879998 142.096725
67.973640 -3.439518 143.858536
-61.362423 4.323403 138.360687
5.482623 7.396177 117.922867
5.202134 -12.909781 119.849289
37.559193 -2.263688 144.671112
11.721352 -2.630291 115.021942
2.382715 3.402243 149.880859
-6.964213 5.387851 120.474106
-47.893616 -0.801742 142.675644
-1.585394 -16.213160 120.304054
10.501297 9.097532 134.794678
-12.221293 -0.228739 124.215012
-30.400869 -3.374687 141.763702
16.643841 0.245770 146.095505
-8.744054 5.496822 115.245857
65.016914 1.249306 145.233200
58.411293 -2.873552 140.739838
8.997211 -7.532376 113.198540
-12.120431 -5.789498 132.544952
40.793297 2.155819 139.332687
73.289597 -3.705018 140.718033
5.163608 9.737803 136.345779
-37.611607 4.057538 142.089569
14.515114 7.366062 142.300980
-40.959839 -1.617820 137.518814
15.309899 -2.787271 134.124527
-10.823185 -9.627490 123.012360
14.670547 -0.062741 120.507645
3.700674 -10.715260 112.498192
14.982905 -0.483027 145.857483
14.423159 -6.882139 135.277298
-56.895943 0.130236 142.250687
31.376314 4.888063 140.800858
-9.575056 -14.102719 125.972328
-50.447895 6.963687 139.421143
8.311760 4.612519 117.654022
9.100224 -5.686627 116.132454
-64.990990 1.748919 138.432541
-29.973961 1.060316 145.477173
-7.099599 3.609998 116.223305
0.096906 -14.956511 128.763535
-4.673779 12.189439 136.669022
12.582926 -6.682592 116.946686
-9.569144 -10.056355 122.618088
-74.648170 0.366467 142.648117
13.201018 -6.387729 138.675858
-71.668694 6.804292 141.446350
3.350507 3.688609 149.366699
36.907608 1.468230 137.137787
69.436111 3.527236 137.207703
-28.948776 7.027576 136.263489
55.401115 -3.055990 142.250504
14.498908 1.437961 129.165146
-35.243587 6.628125 143.655380
-69.673698 1.797017 137.750870
9.591253 -7.701872 119.661079
12.585574 3.397549 148.052689
-3.337637 4.666874 114.174194
13.283634 -11.460737 132.820358
41.739258 2.255546 145.352051
10.233267 -14.017816 129.409531
30.908836 3.579658 141.642731
-1.270231 -16.260237 118.025360
2.498891 -16.977348 126.613258
-21.755573 8.714532 141.961136
-1.676353 -14.346680 116.721474
-0.762794 7.586960 122.461937
8.387097 0.607671 111.690422
-12.481699 -1.170044 121.126801
-30.173344 5.322277 136.586624
0.073770 -11.801250 132.690918
7.530419 -5.516280 145.142899
-4.785072 7.833110 143.534805
2.149851 7.235262 113.331985
-36.327663 4.985213 146.270584
-46.779091 5.711491 141.715637
-51.018761 7.173538 141.456879
2.419538 6.114163 111.854446
-2.408015 -10.651146 145.594040
-63.730446 8.000233 139.045563
12.997455 -5.605613 136.897430
4.282963 4.005533 114.730522
-3.071196 7.426763 121.506172
9.329314 -10.891067 131.563660
33.549385 2.389708 135.699432
59.122292 4.899236 143.643265
7.003028 4.857343 114.344727
-67.060616 4.054445 140.301987
7.135862 10.447819 140.047409
-13.784451 0.426313 147.286606
-3.393043 11.075514 129.700851
-30.977272 4.413086 143.963562
-60.002235 -1.541422 139.453918
8.129317 -9.854890 143.451111
63.942543 3.924483 136.664978
-18.608637 -4.769843 141.858459
6.879173 -14.413939 123.567429
-43.589413 5.144814 142.095749
8.001678 -2.813591 147.311813
-0.805643 9.849625 120.609039
-11.880560 8.136519 129.796158
72.731621 2.317443 137.695099
57.673481 2.673369 144.978470
34.665298 8.987340 137.807938
-62.430435 3.328391 135.985336
75.913498 -3.735548 143.965912
11.285366 -1.839323 127.245140
-17.120321 -4.190354 139.131836
44.375256 2.945666 146.724411
-10.929737 -3.574002 116.861778
-19.907162 5.315078 139.188324
7.730447 7.543814 143.145813
-28.385506 -2.183293 137.918228
31.764000 -1.717783 142.282288
4.520888 -0.457176 149.808899
1.612043 4.885476 116.926872
-38.113491 7.061888 138.515930
-16.526602 -2.537309 136.272491
16.752571 -0.303014 123.146294
11.333864 -10.682904 128.283585
-64.701317 2.490538 137.682922
26.649067 8.721078 136.938110
-10.709408 -10.776578 118.654411
-2.322214 -12.947407 137.400696
-2.410768 6.041376 147.374069
-5.949005 4.836758 123.263847
36.013210 -2.003283 140.245255
-9.153571 -7.902135 122.486748
-51.456314 4.831105 140.292007
-41.687752 3.140546 144.478226
-11.442936 -14.634540 127.679474
50.176521 7.035213 142.994263
1.226075 7.460236 127.185448
-6.537534 2.975282 120.033554
66.979683 -0.707231 144.858902
66.679321 5.291021 144.254089
26.450588 -2.029682 138.451599
3.879995 -12.557610 114.880676
11.998718 -13.145984 117.926544
9.077992 -9.360805 136.479721
-6.408755 3.778524 144.767792
-61.147003 0.543507 150.276199
33.341381 3.790030 140.091171
54.989784 3.978993 139.496201
3.347736 7.466101 116.105453
-25.811407 -2.984099 138.978363
-24.295801 6.973615 141.494980
69.502800 0.417092 143.871994
44.329830 -1.653896 145.974777
-1.966139 -12.280385 129.860260
-3.356764 -11.572839 112.616158
60.202465 0.479068 137.260925
-68.912369 0.144028 137.460770
65.586098 3.621335 141.252396
11.402974 7.048935 147.387573
42.574600 1.509426 142.914642
10.657264 -9.159453 143.059418
43.035713 1.256720 137.926117
-65.556366 4.513766 141.201416
6.495772 4.089631 119.931221
11.304202 -6.509372 129.546524
-14.322440 -6.724096 113.533615
-59.269337 4.093607 140.006516
5.770081 -13.367499 116.884804
64.729874 -2.345119 141.441467
-25.043941 4.675844 145.599884
12.086657 5.580936 122.011559
19.227764 1.251647 147.646378
-28.566843 4.259486 149.953720
51.964130 7.673813 139.051025
8.528346 -8.436271 134.714294
-61.993126 -1.848568 139.094299
14.250307 9.174806 132.871307
-7.045365 2.884697 121.877892
7.013877 -12.908538 126.887444
-49.450043 5.707795 138.976929
2.340040 -11.321836 134.497238
-14.485662 -0.521933 125.881577
-10.507051 -5.310229 123.464828
-12.825253 6.900786 146.618423
-48.394455 0.897576 135.974030
30.870131 -0.423507 136.183670
-12.370536 -0.578297 146.625580
-10.535161 -4.961497 139.788147
29.473469 1.074000 138.966537
-60.273163 5.207692 141.347885
1.689521 7.705718 122.817146
-19.065832 4.095129 143.656387
5.339226 8.269646 120.395851
14.181645 0.740737 128.155716
8.335080 -16.140320 126.456085
-8.180140 -10.602477 130.789871
-14.229835 1.182951 144.623856
-22.563690 -0.471266 144.685989
18.651951 5.538146 141.033142
-2.441010 -2.419064 151.905472
28.745893 -2.347179 140.097427
34.161888 3.188106 137.723602
11.058584 9.130908 135.112366
-17.339588 4.017666 132.902603
-8.762559 -12.460669 126.386650
-64.759811 -4.295639 144.318695
-7.860486 2.393577 152.272675
-13.494848 -3.300840 118.981392
-62.878468 7.764374 142.776138
-4.965450 3.696025 156.149490
-42.889751 4.962973 136.990387
13.693920 1.381006 126.417336
-30.830099 1.616072 138.141602
33.159580 4.372856 136.986298
13.595776 5.437699 138.169373
22.355213 0.682023 145.928757
17.411346 3.213969 135.144485
15.990688 -0.628838 145.455154
-0.563061 10.842756 146.345856
-2.357609 -15.030330 119.088806
0.233881 6.242688 150.276718
36.260815 3.100470 141.369278
-43.822395 9.416798 145.757599
-38.580032 -2.518626 143.504395
9.242236 -1.109860 117.681900
-28.053865 -1.499024 142.408340
-6.126553 -12.787603 127.226730
-13.420320 -5.335175 121.256020
-5.544111 8.309216 143.449081
2.442295 11.348369 135.012360
8.531050 0.072651 114.380417
-8.173666 12.668173 139.066162
-12.184367 -6.430742 141.275757
0.403155 9.802794 124.996338
-23.237339 3.059721 134.687042
-1.427289 -18.183508 128.326065
9.651259 -10.875283 117.666878
-32.221966 6.724653 145.889435
-3.659086 -11.433549 115.427124
-19.844936 5.601293 136.821411
-20.510582 -0.283390 143.929337
12.958126 -2.433280 115.609764
-0.387392 11.288386 129.203033
21.471401 -1.199086 144.420975
12.356908 6.488771 129.006866
34.403790 1.220291 144.949265
-26.682938 0.870267 136.893860
-37.712410 0.470835 137.149414
54.352257 -1.475626 144.247574
-3.420924 -19.244268 121.911354
-18.497644 2.190083 137.286667
12.584459 10.360457 138.383545
-28.591621 -3.756512 138.965424
-11.799952 6.359745 137.028778
7.113291 -6.892434 113.544632
-5.660362 4.608263 116.597145
31.252213 -1.899965 142.136230
39.459217 3.733187 141.509262
-5.692988 2.041127 115.468475
2.348465 -8.387389 136.825699
-2.802336 -12.389242 132.826736
16.033815 -2.402924 135.391937
14.535675 -4.335308 123.749275
-2.351974 7.341218 141.292999
-53.422493 4.943380 139.431931
-9.711569 -15.960186 118.803650
34.525520 9.963315 144.915268
-39.832867 1.854182 143.788635
13.869384 -5.067865 127.314812
-14.659246 6.429538 144.668564
24.380400 5.996387 138.822815
55.900383 6.265033 143.188477
-51.644939 5.206054 138.178131
53.981613 -2.007363 146.502548
12.570482 -3.883893 112.681427
0.572827 -11.048902 141.407074
14.712695 -5.815933 123.259239
-9.782663 -5.705621 132.063400
9.255114 -7.521196 113.617149
4.096024 -4.246256 148.132278
-33.668140 3.065182 144.445053
-2.049410 -7.749885 144.593765
-2.746569 10.226068 144.676147
-5.003363 2.489609 145.857651
4.928203 -1.866438 150.327927
57.918999 -1.695829 146.487793
11.533665 6.884046 143.008072
4.887739 5.977743 117.808319
24.398081 4.215122 146.837631
5.425248 -0.050779 149.922867
6.219221 -11.260174 125.219902
-3.176317 -12.079925 134.456070
-12.485973 2.937916 111.857079
-62.891861 -3.543201 142.963074
31.252579 5.759376 134.381775
27.007517 7.458981 139.723160
-8.755981 -3.538419 145.019196
-56.217491 0.599746 144.598831
36.031898 -3.196988 139.164398
37.865124 4.056654 145.482498
9.363628 -13.447862 124.179474
51.345299 5.228397 139.152939
50.415337 3.903518 144.920349
-15.818620 -0.832262 144.452759
-5.176356 2.083826 145.212158
-52.817509 7.794165 138.193253
-73.951561 5.637181 136.013916
6.272024 4.065471 116.815361
23.563396 3.777181 135.532013
-36.650711 3.930727 137.699768
13.131934 8.379553 140.699341
12.392260 0.611333 126.710899
-13.332859 -1.287341 119.435417
23.294167 -2.205867 144.690536
7.052826 12.011398 140.245331
11.050420 -6.272848 128.419342
10.666758 -0.372463 120.333298
-13.647976 6.706276 134.154755
-72.061890 -2.864668 139.029037
70.434715 1.184206 144.096786
-42.744553 2.446155 137.891281
1.907091 7.243301 130.037094
-29.879181 1.365435 144.848770
9.210696 -10.496847 119.242477
14.663488 1.548098 146.019867
-67.994484 2.675304 144.210724
-5.950078 6.005383 124.504532
-9.277106 -5.302720 141.756485
7.083924 -11.493001 138.996841
-3.796186 8.602590 129.662842
-54.718731 -1.563472 144.856186
34.413502 3.634483 145.679871
-67.937103 -0.616658 143.251709
-7.002604 -1.358946 148.986267
65.198181 -2.316056 145.144379
-43.110863 -0.796689 146.529465
2.564898 5.696478 145.275040
6.351691 2.295384 116.287018
-21.082745 -2.749431 140.975586
-10.817284 0.943700 115.270447
-1.835542 -8.438667 137.785507
8.502408 8.534369 154.374985
12.120464 -3.462802 142.482559
20.964275 4.518955 144.303375
-4.688222 8.903672 146.915283
-2.221594 -8.204526 143.292847
58.749043 1.817484 147.590942
50.281876 -4.334317 140.984665
2.813475 -8.598200 144.938293
-28.394650 5.722721 145.337067
-38.469925 3.354396 138.770905
-14.264631 -2.169376 144.567612
65.018677 2.606448 137.114075
11.937536 -8.034192 116.051811
-34.980598 6.063386 141.903595
66.138603 -2.665107 143.159927
22.836439 -1.503571 143.669846
-52.061226 -1.378445 139.017792
-57.438469 5.727279 136.171005
-23.370747 8.769111 141.941177
11.207757 -6.779686 113.388512
10.780700 -5.549802 129.290619
21.937675 -0.020718 136.391861
12.232615 -6.071140 133.074860
57.758728 -0.227647 140.296448
-5.962248 5.847016 127.284042
4.630836 -13.822771 122.725044
-8.968205 -10.833951 119.115501
46.206123 -0.531596 139.855042
-27.449175 7.680828 143.045090
-1.994223 -12.203361 108.174225
3.881909 2.081843 148.701096
-37.647854 1.308798 141.942535
-55.595619 0.363259 137.896957
72.612152 -5.017439 140.636139
71.599968 -1.467544 139.206741
-69.644875 0.583784 138.211624
7.959423 9.141313 128.076447
11.231668 3.400053 114.779900
-9.821138 0.601121 147.273743
55.454659 1.161111 139.011261
5.056272 -7.242987 141.328491
12.086804 0.481791 144.500015
10.187527 6.004180 141.352478
9.917557 -9.100763 117.643433
8.060462 1.450349 112.594757
-11.869579 -2.074715 144.939774
0.828523 4.130333 113.978333
13.806937 -0.993153 132.115616
-44.270599 0.965835 146.128693
-18.330065 10.751212 140.465393
20.413155 2.537505 136.298553
-21.587976 2.244434 144.083282
-66.269836 0.528725 137.847641
4.834771 11.689364 135.966751
67.954437 6.238120 141.110031
12.975376 3.442226 131.377274
0.453104 -9.372417 140.314468
-49.277016 4.223514 145.370834
4.843743 6.281434 123.630745
55.395306 2.113847 135.542526
11.728366 -5.081366 124.262924
-50.839008 4.674286 138.002533
-39.588516 5.348339 139.442184
1.025472 -16.313929 124.062057
10.340697 11.217363 137.014679
-16.602097 2.992115 135.259048
-30.913748 -3.282624 139.102539
-1.551625 -7.755505 141.217224
-46.366562 4.792597 146.647522
13.874003 -4.369665 117.368736
8.768669 -0.422739 113.575096
-43.291267 -1.049412 135.241257
-56.535591 0.928900 137.505661
53.713924 2.438297 134.869949
-57.551662 0.749859 143.119690
-13.396316 1.580932 149.160080
-19.696325 7.449670 139.181900
62.506123 -2.446160 143.258362
7.236387 9.797434 139.450760
24.674536 2.848848 139.935211
-7.846800 10.265950 131.613235
-32.634617 7.794253 142.647263
36.159492 0.407892 144.577606
-50.858582 -0.776558 139.280762
46.629574 5.664083 145.739548
16.525621 2.141192 134.288513
49.245312 4.664599 145.031128
-21.001400 8.897777 138.906860
47.892948 -0.575723 143.717941
11.752959 -8.374851 129.582947
12.681906 -6.900627 131.085388
69.797470 -4.577378 135.693527
13.397955 -2.837618 112.938202
20.909475 4.570965 137.941727
23.757978 -0.370242 139.801590
-5.687008 7.457726 128.227585
-37.113419 -1.207447 141.289474
1.479903 7.138770 146.607178
31.692358 6.176651 142.121292
-31.648829 -0.862588 136.007156
12.904486 6.717041 136.903046
-2.439059 -5.221937 148.495178
-8.055290 -12.535667 127.337761
-0.243868 6.574862 119.626358
-19.147011 5.375100 140.908615
4.561588 -14.036397 131.653671
-3.605380 -12.409056 133.426651
8.017946 -7.502445 136.204758
16.806992 7.629909 144.730835
9.004667 2.364462 113.662598
47.800983 0.333694 135.034012
65.507866 -3.434540 142.460236
-29.875523 -2.386730 136.057953
43.407234 -2.461331 145.233612
-32.456295 -2.094946 141.430847
-54.619484 -3.750323 143.614365
-10.230543 11.638396 136.593826
25.295490 -0.664177 142.825882
-19.711960 -2.536092 140.758972
1.688969 2.178425 122.699684
-8.353926 4.157744 147.766144
4.229135 5.734657 114.982529
0.386979 3.596380 115.616058
-36.410591 2.639075 144.914810
-45.273060 4.984636 143.236969
13.291201 -5.817246 120.418816
67.714302 4.884918 138.119980
5.281893 7.023565 116.255760
-16.937201 6.502486 139.772446
19.424612 9.204295 141.146332
53.287292 -1.619250 146.418076
21.959658 -0.495521 140.301422
9.199944 5.256973 128.414200
0.103567 6.754671 127.585197
-44.341358 0.105006 139.908691
-3.502337 -14.853092 129.095184
-30.609484 -2.026518 138.798798
69.845253 1.885007 141.723618
65.716385 3.983926 143.585648
12.410271 -9.995936 116.412613
-13.177956 8.332891 145.214355
-9.582273 3.766129 147.391129
10.075550 8.896536 145.923660
19.145861 1.618039 143.224442
-21.919615 9.152589 140.770569
35.875298 7.851434 141.051147
-5.176991 -11.769148 130.796326
-9.125761 7.715753 132.549133
-3.050938 6.733221 148.658386
33.302929 -0.418561 136.837784
-42.123798 -1.167213 142.717041
-10.593178 -4.325612 114.721123
-0.194321 -7.446754 142.088058
-11.280201 -13.820381 129.479507
10.270566 -14.017236 117.632401
38.697090 6.664014 142.139114
-4.229806 10.247916 137.686874
-7.658798 7.011677 129.343536
-65.272629 4.044937 147.030838
65.843636 3.100199 141.367996
58.164650 1.989715 145.461411
12.396850 -6.305294 129.138062
64.763428 5.632541 136.745132
9.621925 -13.066551 116.423485
-9.464499 -13.759257 120.224495
-58.190166 -3.003516 139.627884
-43.152214 5.205003 138.694443
5.272590 -9.856924 146.282837
0.324028 -15.681927 114.867218
-7.026524 -11.569430 120.380333
-67.685860 -2.126199 144.128143
-21.326286 0.071914 139.023361
23.675819 2.291300 137.017242
-36.847504 4.298643 145.205780
11.500504 -8.646334 129.346603
10.922514 6.083823 146.192551
-42.246887 2.257638 137.500305
45.760056 -1.732103 137.595184
6.771590 8.637599 149.508270
-15.306358 4.770084 121.289177
11.936122 7.749469 127.627991
-46.574562 -1.550264 142.858978
-8.123509 7.511000 133.922165
-43.166008 -2.646098 144.732849
-36.631329 5.128212 143.584778
7.964740 -2.653727 145.559250
-8.743555 -9.088080 142.846298
58.314514 4.693511 142.385742
-35.480232 0.336026 138.699753
-21.780800 -0.244336 135.755356
0.480310 2.689735 109.481728
-30.907137 -0.012703 135.746750
8.030410 8.877946 132.931412
-70.009064 0.744105 140.240295
-34.804611 -1.769526 139.428558
10.514650 7.839468 132.584015
-50.064320 -2.861274 139.544739
23.224106 8.511770 142.385300
-54.121906 -0.485961 142.421890
36.058872 2.409431 136.054367
31.077114 5.141257 145.380249
-63.135902 5.645646 139.023560
5.630146 12.472735 140.580658
28.134310 4.417269 146.487244
-18.061234 2.850436 136.659271
-41.726608 6.668332 139.921890
-45.800995 8.698106 141.210175
-5.008260 5.140821 119.339760
11.762077 -2.366774 128.636139
-34.575520 -1.557097 141.822998
-38.003643 6.175622 136.904312
47.753895 0.760189 137.757843
-13.536935 7.263601 148.644730
-32.828335 1.951717 144.658936
24.601723 4.351292 145.337784
30.208231 6.069972 139.793747
-25.118189 1.353039 138.390762
-22.863075 -3.899225 140.542862
-35.478977 7.044090 144.766266
-64.123062 -3.942574 136.285446
-12.022617 -1.608233 125.870804
78.490883 2.986921 138.624207
-22.502352 -0.598981 138.733582
-9.997701 0.661777 112.177345
-8.472651 1.837790 121.244675
15.921759 1.758117 133.729813
7.232660 -16.882114 123.621826
9.932394 6.118287 114.908607
-41.148834 5.495844 145.307129
-7.332740 -7.346991 149.524475
-3.995293 -12.046365 132.149017
-3.352582 7.034128 143.622360
-47.060429 6.290909 149.138351
63.186081 2.821236 143.447311
23.361464 -0.170136 138.028793
20.583969 1.385668 136.601944
52.160992 4.673117 140.809082
7.729109 9.559847 132.346909
36.767780 3.076596 145.966385
29.195572 7.523813 134.315475
-75.105568 2.008596 144.347412
-51.755245 2.187326 144.028397
41.717705 6.329587 145.792999
-36.745991 4.404242 135.302414
12.522087 -5.918068 121.808441
-11.572331 -6.048840 120.068596
75.400246 3.698789 140.330795
-21.643921 2.841513 148.122955
-50.067734 5.054047 137.979904
-2.817025 7.146176 118.859306
-17.789871 -0.366973 140.066116
30.600782 1.832323 136.829849
0.179584 5.870561 121.517838
29.601765 5.242311 140.784897
19.225830 2.073736 145.716019
-27.695614 7.031722 138.326477
-75.385849 -2.726171 138.763290
-38.327484 0.342444 135.956680
-35.030445 -2.881682 137.175476
-38.518612 4.837990 142.466583
-14.306276 -2.024219 137.492554
12.692008 -5.311965 128.017670
-55.905075 4.177155 141.514328
60.146572 5.528430 138.968292
5.950301 0.965993 157.381638
-24.653294 2.986551 138.340729
-22.991072 5.152011 144.528488
-47.830868 4.937256 141.702759
-45.300034 3.723227 147.388794
33.991982 5.403209 144.180130
20.539976 -0.411984 140.978470
69.209290 2.403507 144.288864
-6.328120 6.044890 119.650070
-7.014011 -4.248103 145.827606
13.288368 6.646389 132.438400
14.560529 0.022366 128.561584
4.474389 -13.349804 127.786469
11.106442 -8.039907 130.269684
-2.740445 -17.684929 128.981995
-70.897011 2.002309 135.735580
7.968583 5.703232 142.441391
-5.542643 -7.286892 114.734642
-60.708504 3.875961 138.900253
-65.089806 5.154464 138.187531
72.482086 -0.030980 147.340836
7.525115 -9.898271 136.995560
-54.340889 2.002022 143.040726
21.198864 2.603182 137.476929
-4.771255 2.582875 120.453171
1.077911 7.764592 126.435127
6.078753 -9.865326 112.218491
-10.749438 6.520994 114.905563
-4.970037 5.208855 112.628761
-11.126247 -5.751876 137.743790
13.976667 -14.005921 117.530830
-9.514425 -4.546372 120.912315
60.021599 -0.525659 139.485168
-4.588674 7.583089 139.647980
1.461856 1.903120 151.467316
20.076620 -0.171646 145.633560
57.542793 1.241380 138.439484
-9.139389 4.159565 120.032059
10.909456 -6.850355 130.428833
55.788490 1.530239 147.381607
37.262245 10.100756 141.925308
-24.291483 1.641403 142.197784
-0.274182 5.337100 114.411758
33.171741 0.096193 142.071915
-58.132931 3.941283 137.739517
-14.635492 8.619568 141.194809
-54.062252 1.528460 137.772141
-16.561001 -2.450995 145.505951
15.502726 4.137751 147.979431
-25.690777 4.570484 134.687073
2.757690 -17.392763 126.309059
19.887205 5.759238 136.930878
-75.801918 -0.975852 145.066513
15.985481 -8.060058 128.806641
-8.574249 9.702457 139.085052
-78.099907 -9.122989 137.433487
50.118107 6.440793 141.018692
-9.392419 -1.207049 111.022285
-13.911489 -4.697782 141.798370
7.791638 -9.289767 124.398102
-12.598623 -3.555958 113.586571
3.505228 4.767056 116.992416
-56.534122 1.304616 148.998291
-15.637840 -0.139801 146.254669
12.698628 -5.397427 126.091690
25.953539 0.200917 140.187729
-58.178162 -0.559008 142.293106
-5.290203 -10.600585 112.230438
57.728058 -3.659982 143.680206
-64.095528 3.754878 137.286530
-27.995638 -2.239178 146.219147
-8.508296 -6.946746 115.204460
64.317833 -3.462919 138.288376
59.092995 -1.043913 140.415039
-2.710530 -14.669250 116.764091
7.268984 -9.191322 118.781509
-10.680196 7.436145 140.033600
38.167572 6.445567 141.071671
16.844202 7.992484 131.929611
-4.419370 10.573827 138.092163
-54.823517 4.243172 136.496384
12.433963 -1.438195 145.677139
-13.057713 -8.379878 135.087006
54.044846 4.792280 137.561874
10.425446 1.266102 125.080933
11.142883 -1.397161 133.977020
13.004640 -1.121968 121.853882
4.669633 1.924924 148.153976
-9.908362 8.601213 136.386200
-17.776134 0.896706 114.888977
-3.333024 -14.397751 125.902580
-61.636028 5.619902 143.072128
2.181362 10.439631 135.324997
0.848596 7.222432 115.008560
6.842861 -6.987116 141.410614
49.875065 4.798009 136.732773
6.661538 8.359905 125.559746
15.336201 -5.091735 145.562408
-4.489739 -4.709978 149.862030
36.223732 6.444411 138.929779
-21.910652 -1.188003 145.164597
13.183434 -2.659254 145.303772
46.475754 5.488273 142.950653
7.895457 5.098315 124.012421
5.613741 2.800450 115.035660
-4.798680 -12.003314 115.322510
12.953735 11.252478 140.693329
8.970819 -10.976628 113.327866
35.931866 8.194189 136.648819
41.228233 5.842657 139.814301
-11.886816 9.166059 139.854874
-60.776432 5.309561 144.643982
74.399422 4.194222 144.791107
11.441208 -7.645153 127.295364
-55.998672 -0.656260 140.256943
-66.568382 3.702961 143.962662
-31.400589 -1.658569 142.280716
-64.698715 0.256653 139.216965
-6.250380 -9.295168 125.965050
6.709048 -13.104772 122.930504
14.189268 -5.516134 141.457291
-43.226875 -2.494168 146.435104
-7.525677 1.360401 146.972656
2.544566 -14.262230 135.366470
25.651381 -2.476049 138.890900
65.812164 1.613644 140.701202
7.707300 4.330064 122.186287
-65.707993 -3.633228 148.432083
48.186317 6.751210 138.590805
-59.926079 -0.040195 139.838867
-8.936559 4.679165 146.263123
-12.244431 -3.856327 122.274796
-4.310545 -15.780635 128.400574
2.438386 -14.684083 116.301376
59.556232 4.934596 137.705948
-13.540611 -0.844661 130.376389
-14.556685 -9.324529 141.718979
-11.003292 -1.469854 117.469269
5.546964 7.840057 145.317581
15.584496 -4.460103 129.234375
-11.034273 -6.995043 114.497070
-50.830978 -3.122051 140.708710
50.871468 2.352126 145.722229
-52.927727 0.253974 144.737213
-52.593906 5.285819 141.979034
14.401581 -2.512873 140.298599
-9.359864 -4.074726 141.584427
52.818249 3.663468 144.956543
-15.635927 10.779037 140.225601
-26.914347 0.223398 143.560822
-20.602152 5.553993 143.474228
-47.158939 2.044389 140.770218
-15.227029 4.534463 131.986282
-57.922684 -3.482807 143.571320
-57.787949 2.384316 142.420410
0.051042 -11.143273 138.260971
-11.992232 -6.502864 123.256691
-8.708670 2.484339 117.209518
-27.442621 2.301880 134.983749
-18.322561 9.441274 146.315536
-9.248837 -10.879980 113.983231
20.538763 -2.512111 142.056900
-59.534897 -1.098458 140.160614
20.492714 1.448437 136.029617
75.674789 -2.267530 136.893097
-30.793690 -1.325088 143.165955
26.388451 5.273172 138.543915
-17.636934 -0.214438 135.081741
-29.715473 3.844974 146.250778
-49.039574 1.517611 135.711533
-24.417641 -0.528085 144.798492
-28.422913 3.931360 142.613190
-12.415994 -7.541019 138.787781
-5.490345 -7.471922 147.589264
59.413307 0.148801 144.166138
1.954701 -13.814919 118.693977
-0.340095 3.612350 150.395157
12.703492 -1.292231 145.660095
4.972035 9.710849 126.773849
-1.352250 -12.373698 126.938835
-7.756631 3.511646 122.095032
-39.995804 4.699911 137.164108
52.530926 4.824219 138.214096
-63.711903 -0.636857 141.029648
-14.627860 3.325305 130.360794
-53.359226 -2.614542 146.310501
50.036758 4.503273 138.162308
10.381533 6.958654 140.989426
9.392543 -0.531615 128.048462
-9.845115 -9.713671 135.023956
-13.815184 -4.504766 133.347931
13.903626 -2.848170 145.424820
-11.882882 -2.145493 126.490677
-54.801865 5.765073 146.306549
-35.618763 5.522325 136.453598
-0.708327 -12.656468 128.212006
-62.546501 5.896554 140.696564
1.335191 -13.836285 122.005707
-5.190364 1.535671 149.908890
-2.906640 6.415731 130.607178
-12.399076 -10.018084 138.889038
58.219036 5.847140 144.084457
-12.145347 -0.146280 124.439857
53.232731 6.370245 136.264221
5.730422 2.184333 150.908157
-23.246628 5.844677 146.340439
-8.892757 10.668602 139.382263
2.919553 -11.419702 144.056259
-51.191589 -4.618073 142.155579
6.693244 -2.342911 145.137329
4.358882 -15.286827 131.527466
10.788477 5.245214 119.145798
-24.469021 -0.220809 144.842010
2.904711 -16.434904 118.827209
10.259821 6.350980 124.683289
24.739559 5.244339 139.324295
10.729865 -5.832501 144.158600
-9.321351 -10.209130 125.403275
-53.566158 0.477723 144.497116
27.334349 3.237633 144.937363
-5.239811 8.126510 128.022125
73.556252 1.137526 138.604935
-60.872116 1.281500 139.966568
4.331794 1.321698 115.967102
27.490892 -2.748646 141.635849
2.943438 6.402948 142.134293
11.358420 -0.561546 127.784767
-21.698528 -1.795589 143.889435
-20.571491 2.725374 135.830994
42.547501 -0.985621 144.255508
17.019314 9.763929 145.427185
10.568075 0.270998 148.280365
7.057477 -8.820872 145.830383
10.696377 -3.198957 143.424545
10.485351 10.878278 129.135529
