ply
format ascii 1.0
element vertex 2048
property float x
property float y
property float z
end_header
13.248453 -11.210320 107.040466
10.048515 3.806763 148.252853
-3.271709 5.613375 120.596809
8.422878 -13.591099 119.338631
12.254438 3.820863 127.327843
14.124253 -4.958175 135.835770
-3.305322 -12.799248 110.393074
11.584019 4.735786 132.808105
-13.309009 0.618145 113.135208
-21.776562 -1.391330 141.798904
12.365375 2.923901 122.720215
-5.746142 -2.802058 148.078568
9.438556 5.854436 107.690399
-8.930307 6.723343 108.957748
-6.535174 -14.306582 106.211914
15.445897 -4.748348 119.084129
-1.167006 -13.176192 109.873688
-7.075743 -7.102698 140.382431
10.735302 5.023129 107.770264
-8.570560 5.311122 145.257431
-13.786476 -4.503730 138.114273
1.956945 -12.108881 130.446716
-12.849694 -9.182775 108.040726
4.429351 -5.031029 149.487778
17.631048 -5.769955 107.045570
-19.234570 7.637844 142.387222
4.191848 5.984276 107.971497
12.905982 -9.455654 105.283012
3.920564 9.043667 136.984512
-3.155036 -14.254021 123.226196
-2.419635 7.472032 147.585449
-13.119381 6.147862 136.365952
-22.261297 -2.716257 142.889832
17.026888 -2.243074 142.051682
17.212957 4.420394 144.960571
12.874310 -4.337491 131.645462
0.974495 3.166149 115.719879
14.922640 -5.886694 111.281776
16.764109 -0.960838 133.962021
2.144140 -7.285893 146.979538
-22.467793 1.441834 144.926224
-4.255539 2.410191 151.975571
2.081920 6.189893 127.772125
5.005825 8.876970 131.261078
4.077430 4.403272 109.999474
25.864603 5.788663 141.932861
-1.972807 -10.263032 138.143616
8.099447 2.331348 146.681198
3.804869 3.320175 120.875801
4.821176 -12.007556 122.494736
-11.123159 -10.013830 129.358063
8.946559 6.491995 107.408928
15.215753 -1.542257 114.467453
-11.728460 -9.408458 119.312996
-21.211370 1.161576 144.158875
-6.855218 -12.445157 117.908051
12.330866 -8.827730 114.029083
0.086939 -11.864952 135.608780
-14.377851 -0.956411 121.375267
-7.115545 6.050173 146.572189
-11.763959 -10.936059 132.993027
5.708173 -14.574366 105.231979
-14.328870 6.956260 136.492920
24.209381 4.532986 143.913223
14.850426 -1.447419 110.798576
-3.875328 -8.106661 145.230469
-8.356597 3.359550 121.105461
-14.177443 -5.043847 139.033218
-8.105343 -9.432225 135.428650
-9.267750 -9.732120 129.439163
9.866280 2.763388 113.334793
11.204512 6.624924 144.488174
11.648903 4.490498 105.636734
-0.508466 9.824341 137.454834
5.106052 -2.566953 147.951294
6.088665 -13.195449 122.692558
-22.729313 0.120773 144.164978
-0.828154 8.099172 143.008896
1.627509 -15.404050 107.661362
6.358943 -1.262801 148.454895
-8.790555 8.977169 138.614365
-10.678016 -12.094389 105.909576
18.638222 -3.515093 108.883148
-14.502252 -3.189970 119.575027
12.185124 -12.518516 105.207687
10.565302 4.385685 125.336922
12.082170 -9.749311 110.374786
12.622832 -7.076708 137.463333
23.480665 -0.541596 138.201004
24.700228 7.533161 138.731247
-6.519816 -0.638107 146.890991
-15.036069 7.809679 138.798935
-20.330814 6.685771 136.633026
-13.496203 -8.930497 109.800850
-14.927193 7.420576 145.161057
-5.586125 8.656137 104.153305
-17.233543 1.979276 132.958420
4.489734 3.856623 118.927086
-9.613237 9.419724 141.177826
16.735813 -0.619057 145.609833
15.424401 -1.044919 129.937729
-16.183283 -4.816687 139.285522
-14.007024 -2.512481 128.144608
13.746872 -8.931265 107.536888
23.926943 8.055879 145.043259
-15.205063 4.876505 132.223526
1.304325 -12.674503 139.014877
-9.130682 -11.353714 133.549438
-0.472057 7.340677 127.000404
13.814541 0.782320 117.441368
9.078165 -11.672883 133.391342
-0.955513 7.762778 146.856216
-10.649389 -8.252761 126.915253
-2.494544 8.438996 148.824951
11.254188 -11.448113 104.693619
-4.319257 -8.931004 142.290466
-1.182642 5.337771 122.117020
4.902761 -13.188909 121.711739
-17.263018 -4.302816 138.783005
13.931700 0.043796 119.881279
2.263147 4.370350 113.977730
-0.856849 7.289617 123.912193
4.386534 2.237488 148.584412
9.007922 -12.558177 114.446609
25.362984 -1.515574 141.434891
-10.467352 7.946741 140.440399
-3.341918 5.420671 108.766205
-8.264494 -12.554571 112.528801
-11.950915 -9.832935 117.366074
14.573772 -6.232203 114.846809
8.494236 -13.181368 123.005959
-16.728104 -5.142116 107.832024
-0.265739 -6.917114 144.122238
11.608512 -4.572802 147.258560
-9.750710 7.365758 102.817734
-20.547688 2.355665 144.786484
-7.660386 4.258818 120.888489
-6.736291 8.397743 129.393326
6.253269 -13.236363 118.945717
13.770552 -7.842961 115.078819
-16.360937 -6.884111 108.261154
14.032337 1.818004 106.066246
14.339910 3.140439 130.814301
-15.114167 5.523939 144.134018
-24.654274 -0.412581 143.745544
5.537811 7.262345 127.546707
12.010153 -6.718551 134.144348
12.955865 -6.583077 133.578217
-9.005810 6.116772 118.630852
9.995337 7.078017 145.332108
15.040119 7.307488 139.170319
-10.084000 8.197577 137.316406
15.204389 -7.547357 111.248672
2.791244 -14.726141 113.750015
5.706900 -0.753581 149.014252
10.737399 9.176754 139.242966
-0.585729 6.767783 122.993591
5.736341 -1.108503 151.791351
-16.347038 1.880064 135.073013
5.236450 -9.940095 137.869415
5.855814 4.067141 110.086487
5.866858 4.933236 115.976730
-11.802724 -7.465481 130.528900
12.169014 0.142239 116.998734
15.917994 -3.291725 114.876724
15.963317 -2.294667 132.584412
-10.642710 -10.706830 114.069565
-10.433249 6.690548 107.249542
9.077992 -11.511434 119.726952
25.249559 7.457688 141.854935
19.067015 -0.690017 104.241936
3.770670 8.289923 143.986374
-9.787587 -10.905445 115.875778
15.748002 1.668880 134.317352
23.874945 2.216901 138.159897
-13.406070 -5.121674 136.933640
-17.593491 6.875648 138.135071
0.201607 8.820816 149.015579
1.526095 4.866777 122.393822
-14.843833 3.432400 129.225098
14.938793 -5.608942 116.597481
14.271235 -7.135484 110.341972
6.645454 2.865912 116.762794
-5.417444 -8.967232 141.453537
-12.642533 -8.956553 135.279449
-12.813613 3.470154 111.292358
4.719446 5.015689 106.049431
-8.891341 8.234365 130.546967
15.868778 -3.879744 136.497375
-13.793303 3.291344 127.855896
13.208841 -5.159070 124.557205
-13.027746 -2.846037 128.327271
18.997616 1.119838 144.716461
10.114552 -12.157584 117.285202
-5.856005 2.591691 149.761749
-6.218445 10.023334 138.840897
-11.343287 5.551698 109.092308
-2.489169 -7.809056 144.681122
5.270116 -11.191289 133.983719
12.661702 -5.544734 117.150360
-18.033476 6.855836 141.467880
15.009382 -2.486190 143.640305
-7.936784 -11.847847 126.635597
4.643034 -13.145000 118.739677
-4.652267 -12.923532 129.403534
-14.838590 2.453129 132.663269
-10.592932 -9.214392 128.358337
5.772217 7.117998 102.323235
16.321558 1.824712 146.869263
6.052073 8.480152 133.795746
4.560778 -13.245998 128.215530
25.089302 -0.328463 143.937561
-14.812564 -1.095234 130.698074
-9.371415 4.190064 118.177444
15.813657 -2.763757 119.429077
-11.394682 6.113592 144.675537
-7.588996 5.503138 116.047264
-13.969090 3.333895 147.121490
4.731254 7.242903 109.535210
25.199556 6.179918 140.624420
8.359535 9.229742 134.316895
9.088304 2.161823 115.841919
13.349636 -6.582199 125.646576
13.914474 6.546154 134.586563
-15.382647 -0.325396 110.529961
13.850940 1.298054 146.703232
11.874898 -2.886755 145.149734
-4.552425 -5.388835 148.415726
-15.547091 -1.714331 134.270645
0.759892 -13.160744 114.784065
-14.269553 6.166251 143.192535
-1.014741 -6.128833 145.013306
-7.139325 4.928947 146.117462
24.915636 2.362753 144.974289
-21.978838 2.355315 137.825058
9.691766 -9.798575 127.097191
-0.177266 -10.366436 141.038437
18.345325 -1.007986 144.154266
2.008679 -10.829801 138.918411
-12.519551 -5.922263 139.225586
8.961526 4.243811 146.710846
-13.827521 -1.814425 127.345505
5.183247 -7.582790 143.337677
15.096136 2.845043 125.866478
-11.537770 7.507360 137.349899
3.546909 7.015687 146.162552
10.793090 4.819340 146.053375
-13.112877 -10.493629 110.613281
18.731739 4.192366 144.869232
-0.093433 5.635612 123.468407
-16.075890 -2.106649 133.441757
-0.826306 -7.957323 142.799240
6.436103 -13.110134 119.230927
-8.531320 6.168081 108.287529
-14.365035 5.588659 135.183121
5.739130 -13.148110 121.954475
8.434761 6.924680 102.248283
4.432178 8.367469 103.934380
-12.003795 6.235806 143.924866
-13.468303 1.970480 125.833359
-20.279118 5.522305 137.592590
7.194018 -4.694211 149.383713
-12.218439 5.520013 108.852989
-16.042377 -0.373889 145.297913
12.548754 -8.151831 110.942436
-0.790612 7.279845 106.381149
-5.735929 0.019556 150.914429
-17.388365 6.414477 134.051834
1.198449 -6.642417 145.595505
15.467997 -5.745843 109.565308
8.735403 -6.070013 144.506424
-5.782892 1.064964 151.830658
-6.365593 -10.940597 135.725845
2.719870 -13.301712 125.363365
-16.343220 -3.587565 138.107697
0.065530 -15.391191 109.221581
15.540248 1.499620 126.548889
-25.368820 -1.610810 140.108917
-3.721712 8.676379 103.818741
8.148907 9.098467 135.086838
-0.488954 8.680445 139.436172
17.026787 4.976389 142.936081
-3.058525 7.432652 127.357040
-8.093142 4.938107 116.699860
-15.654934 0.018340 107.616905
-11.465082 5.796582 102.394760
-7.954910 -0.216492 146.009842
18.474709 3.431010 135.871628
-8.295994 -9.846330 133.116135
1.688967 6.940822 152.093750
8.742521 -10.887563 133.872391
-13.011815 -3.656547 129.609665
17.688389 2.797347 137.177185
10.970638 3.536522 117.245171
-16.182777 2.824670 104.019981
13.026247 1.285556 124.808502
-21.527182 1.781458 145.427505
-25.036676 2.374413 143.434387
7.438242 -6.335833 144.864655
5.640542 -13.856525 122.851402
-25.934378 5.443721 142.841156
12.261882 -5.251076 142.811035
-12.230639 4.022522 126.755936
-3.167632 6.670492 123.024513
8.116780 -8.692420 137.408661
9.514466 8.231308 137.809769
-15.389620 6.873365 141.602646
-13.782537 -3.883729 121.159096
5.437753 -8.583611 137.871216
-0.841114 -15.071539 105.935204
-7.791305 -12.119545 106.454216
-14.695045 7.571215 136.256256
-4.963611 -12.657499 130.663376
-13.260558 -0.144719 146.139526
9.354580 -11.268209 123.237503
18.731565 -0.759107 143.386887
-7.020366 5.039052 123.629387
-13.393391 3.510780 133.863403
12.130536 6.768164 143.219101
4.027917 -9.118795 140.668976
15.244593 5.956957 139.968521
-5.216930 -12.673670 122.598061
-18.840639 7.095775 142.931000
-3.695521 -10.803138 135.463364
3.424396 -14.704043 120.346779
7.213935 -13.657341 118.470337
17.180246 0.147577 109.347069
-14.167971 -7.670360 112.699844
8.532598 9.116634 104.058716
4.951354 8.800824 133.612961
-7.231087 -10.236189 136.016083
-6.814824 -12.217194 106.654312
-15.921451 1.518358 103.890228
-3.750861 -10.258859 132.850800
11.146111 -11.617226 115.419945
-3.044186 8.493215 144.519989
5.623367 8.904575 136.382248
17.453625 -0.770703 106.897995
-5.920858 9.108845 140.153076
-4.613109 8.765318 104.147774
21.561644 4.101019 144.570663
-4.788244 9.487491 134.171158
8.534680 5.905113 114.087135
-16.529932 -4.559770 139.248901
-2.446154 4.203687 115.178375
-6.464302 -3.280323 148.977966
-22.998280 6.436500 140.952698
-5.431759 8.833836 102.513062
14.502268 -0.931530 123.576675
7.739349 -13.613032 105.297295
-18.001196 6.380355 144.094955
7.537680 6.213596 122.399712
-13.437979 1.485175 118.879684
2.093147 7.479701 127.413956
20.181217 6.623617 141.842667
-12.116769 0.158117 146.780640
9.775683 -6.175699 142.872025
6.132162 3.697090 113.929756
8.073303 -7.842540 144.117996
-3.506994 8.539869 103.740883
26.546349 1.037714 136.763245
17.274395 -2.481183 135.614487
7.624386 7.790233 128.714142
8.890833 -8.831935 133.504288
4.824780 -4.347211 148.619049
-4.836020 5.991473 113.656227
-12.140502 -9.546466 111.884705
-20.420681 -2.097254 142.036652
21.640871 -2.789225 140.569931
9.542496 -11.184264 123.086182
-14.340284 -6.445851 109.965233
-4.608381 7.142548 146.920242
5.047852 4.960103 148.226959
-20.826349 -3.362764 139.861313
-13.173151 3.246934 103.798889
-5.064546 4.872868 115.715607
9.100641 -3.157024 144.439362
-10.234014 1.484536 146.784256
-3.400752 7.045079 145.973175
-0.652311 3.013209 115.506851
11.329546 5.455052 129.635040
22.737036 1.367438 134.083374
-15.405581 -6.335852 106.281578
-19.927021 6.806130 142.241150
24.120712 -2.062701 142.266525
-3.197224 6.027201 147.455582
-2.559103 9.079455 140.876587
-25.808252 3.982708 145.026550
-8.511213 -5.121357 146.132202
-12.091730 -4.689569 145.323700
-2.603834 -12.766221 112.437836
8.816797 -8.321708 139.596252
-2.890049 -13.619097 125.301178
-9.432928 2.678180 117.558075
4.645594 -10.467389 135.725327
-10.164564 3.477088 111.142578
8.526891 8.798400 141.390869
23.749182 -0.939519 139.570892
-13.468255 -0.111236 111.950569
13.721304 -0.048230 146.247238
12.645082 1.823019 117.612762
-2.048958 -3.538558 147.780960
8.735585 6.814448 104.003899
-16.976498 3.634758 143.699875
4.801704 -14.996510 111.460770
12.240044 0.667995 123.842781
-14.360476 0.700266 122.152481
-2.856686 7.005734 146.127548
-0.760934 -6.055307 140.025909
5.872058 -12.870831 122.703972
-12.303018 6.639097 133.168564
13.332597 -5.724110 132.610504
-20.961121 1.793084 136.505844
14.944988 1.557991 106.625389
7.637969 4.308263 145.634445
0.574291 9.346607 150.227203
9.931184 -9.540159 122.523201
20.273264 -2.563488 105.821892
13.501810 5.336174 145.985580
-3.638171 5.797392 120.963272
-15.235754 -5.278248 139.688812
4.267093 3.894234 118.962845
19.700621 5.936388 144.038559
-12.767684 -0.372235 146.855469
14.653634 -10.505572 103.551514
0.652832 -15.938015 104.684959
-5.009813 -4.260097 150.466919
2.318949 -13.252821 125.982155
8.334831 -11.965253 135.124527
18.610302 0.365892 137.581787
2.784483 -9.845205 141.575302
-15.536604 -2.070756 108.692307
6.445765 -2.980924 149.365738
-8.100758 -12.247368 110.174393
14.320820 3.145927 127.035988
-22.449287 6.203508 141.593231
20.626215 -0.170931 145.740982
-10.374195 -9.132953 127.996147
6.675176 10.109786 135.070267
-5.074049 -3.901638 150.911163
-0.164698 -15.063253 114.456474
-19.345013 0.103232 146.114319
16.324440 1.756534 147.070160
-11.175108 -0.510309 147.879929
-10.780155 7.639782 136.329849
-15.394932 7.763228 139.534409
-8.655927 -12.116744 132.263153
14.354259 2.804506 105.098228
-0.696892 -15.866688 106.958786
-13.933887 -1.385150 122.422607
1.816737 5.031446 111.902634
-14.172810 -1.150403 114.320122
11.314028 -10.195718 120.603912
11.802934 2.698756 147.227966
7.285466 -10.799793 136.788116
10.141646 10.108711 140.200912
17.975531 -3.565223 142.485733
26.568472 -0.734754 144.406952
-14.332861 -0.964115 131.286591
-10.272916 -9.447338 129.987228
-5.113558 10.705352 137.490723
-14.937587 6.784199 143.101181
-2.215541 7.645850 147.728210
4.844109 5.139416 146.680679
22.193460 0.514427 143.224808
-1.119212 -6.478377 145.300140
3.073166 -14.214257 119.546753
9.204541 1.188359 146.383087
-1.502787 -9.488892 142.686966
3.199662 9.054184 134.436905
3.811379 -4.654845 146.964798
1.146968 6.026443 150.749161
17.278324 1.700822 105.319984
1.681412 8.900014 102.018456
-2.880148 -10.923182 136.954651
-15.461956 4.939454 136.524307
-8.363063 -10.639963 133.654160
17.858618 -2.709629 107.038391
6.715599 6.766998 105.406998
-22.544546 1.034645 135.717377
0.596211 -15.782024 104.909729
14.033895 -2.227731 113.539680
-8.382874 3.105894 123.213425
-12.515483 1.672660 124.128273
-10.583453 10.640437 140.044678
-2.666070 4.701062 109.634315
-6.263136 -4.152339 149.476715
-17.746058 -1.826334 111.855247
-1.291055 6.197846 111.516479
-0.945816 10.594356 137.793243
10.998528 -7.786660 138.596558
-6.829276 4.376678 107.169510
10.819880 4.181417 117.928162
-4.789118 1.942012 152.224487
15.164013 -2.371476 123.660652
15.427469 -7.039348 109.138130
0.268322 -9.116236 140.304062
-14.153225 7.173629 142.893188
-20.657627 2.599412 145.313629
-24.901636 -1.017125 142.184906
-14.981647 0.113717 129.869476
-2.394038 -14.122014 119.406120
5.477082 -7.825602 141.691772
-3.893070 -14.576555 107.106438
-18.592386 -1.475010 143.222519
-0.313438 -14.375506 111.970551
10.676650 3.917156 110.542664
-13.518961 -9.141972 111.919701
21.066265 0.497666 137.902191
-11.975645 3.782329 109.516312
-0.417150 4.820507 112.822350
21.420330 3.966297 145.462891
6.218555 11.202224 137.996750
-11.777291 7.749439 132.482849
18.721838 -1.689312 140.294632
13.450155 -5.050553 118.568542
8.342331 8.825529 135.631149
13.738124 5.859300 142.858231
-11.413779 3.373838 115.435333
11.332426 -12.571738 115.931679
-6.062916 5.370738 150.865082
6.995276 -13.771778 123.575897
4.175849 6.948978 149.848114
-4.817332 9.815705 133.445602
-10.355922 3.196373 146.973099
-6.064069 5.319965 127.005554
-7.342550 -11.392323 122.901695
-16.715137 -1.991404 105.188011
-4.192819 8.662379 141.680191
-0.114367 -8.114603 141.686600
-3.325111 -13.970826 112.342003
-9.964001 -3.499088 146.753510
13.722431 -0.078350 109.311432
-16.102373 5.508351 143.964264
7.771721 -12.675688 124.244423
0.277566 6.881194 127.758606
1.328294 9.643320 128.781387
-2.316095 3.965840 115.255257
-13.436447 0.989681 105.008865
0.824588 8.321066 145.326294
-8.358499 -12.421869 113.128983
-19.415270 1.329532 137.209824
-19.378103 -0.827427 143.851776
-4.798516 -14.923897 105.591896
-4.543645 -6.249324 143.002960
-12.345428 -5.797359 125.749489
-10.442574 -11.461660 105.954880
-6.450056 6.918785 144.614960
-15.677385 5.627740 136.822998
-10.711698 9.382947 140.762177
7.643114 5.984346 110.561974
13.203945 4.882341 145.714066
-16.548124 7.838934 139.490570
-7.221642 2.829865 108.273033
-7.296270 -1.227459 146.801361
-4.561068 -13.525993 115.884598
1.910544 7.150613 133.231476
10.066175 3.514809 146.720901
15.707327 -9.271397 106.049110
7.010871 9.952825 135.543228
-0.990650 6.278137 108.962814
4.167280 -12.995898 127.863976
16.472666 -4.466559 138.158096
-4.894399 10.814003 136.612808
-14.093549 4.086265 104.869881
-12.664057 4.563960 129.721649
18.707527 3.624340 145.436768
-4.547405 6.465345 150.597000
13.658558 -2.388938 125.954506
17.519028 -6.061878 106.307533
-16.324692 1.061784 145.686813
-23.075478 -3.009327 139.349091
-7.843847 7.656469 103.808571
-4.219899 7.709085 103.591515
-25.127922 1.298955 144.164581
-6.300065 -12.293791 113.294151
-16.613491 3.696371 146.696243
12.848845 3.888493 121.529343
15.344583 2.568317 107.393791
-5.385974 -6.026709 151.667892
-2.442614 -12.164870 129.301132
15.494537 4.249332 144.644379
4.057399 -15.672928 104.818016
-22.190285 5.717639 143.182800
-8.628471 -8.487889 136.931335
7.193398 -2.913052 148.412384
16.549156 7.939467 137.138351
-11.591328 5.268031 106.746704
-10.358284 8.792652 138.635834
8.217908 7.468508 134.342392
-18.344837 2.291384 144.885544
6.856130 -1.147410 145.837967
0.152267 -5.881763 148.035126
-12.435055 -5.809154 125.249451
-10.973665 -11.396503 103.455231
-6.926805 9.730435 137.912354
23.620516 0.678039 141.798309
2.681619 -10.880911 134.460236
6.590661 -14.250782 107.860397
13.803935 3.214398 123.526093
4.947891 7.007797 146.593582
-10.825699 -11.658071 116.213577
16.672787 -3.592762 140.253769
6.804256 6.659487 125.079643
14.526361 -2.514637 128.969955
7.878531 8.817441 132.388672
-14.654189 -4.964212 130.979187
-14.920660 -3.851283 109.785675
3.998695 9.821842 131.424561
-12.835555 -5.394720 119.421745
-8.060299 4.137865 109.632484
16.063387 -5.313262 109.620537
7.922675 5.570069 144.292450
16.837593 -3.946768 117.666321
-18.666300 -2.143068 137.792099
-12.896325 -1.459057 120.239716
10.039165 -8.461660 124.259682
11.326033 -7.398396 139.200592
-13.124820 -7.365071 111.294022
-13.918641 1.701179 120.281021
-7.389445 8.574871 103.384743
3.132225 4.338233 111.576263
-16.024302 -5.509708 107.282440
14.198519 -0.368707 113.674187
0.376333 9.332519 150.587173
12.827609 -5.659372 125.060791
9.665058 -7.223468 142.377365
4.100126 -3.910405 146.330444
-12.252716 -7.757986 125.084221
23.102682 6.109169 143.391830
-0.972307 -13.517538 133.960815
-16.875690 7.987464 138.518509
-6.350756 -7.836633 140.448975
12.540748 -6.019553 130.818344
-8.455410 2.443174 146.970764
5.684241 -12.929838 120.945061
-6.269444 10.365411 136.366592
8.063620 -13.808192 108.773148
14.300165 -7.239480 115.478470
6.747332 4.926546 111.920731
5.593262 -5.689287 144.916565
-11.999941 -9.349902 133.318863
-13.608448 -3.106807 125.110954
-14.224167 -1.267851 120.931053
-14.117676 6.637368 145.861038
-8.555859 7.146336 105.309242
12.829019 2.437762 109.898727
-12.822914 2.365609 149.977829
14.788030 1.289049 106.166954
-5.129645 -14.529993 125.132668
-3.986110 -14.104123 119.420601
-12.979537 -7.717542 110.508347
15.530390 8.670240 142.798798
6.434226 10.914170 136.982986
-13.099280 -7.769736 116.325768
-16.808987 7.921657 136.940369
15.028112 -1.405631 130.424286
10.552183 4.926138 147.559937
-4.455621 5.310338 147.594452
9.723505 0.922306 147.951950
-7.282448 -11.133699 126.369362
14.712856 3.233133 147.595947
-15.765593 3.023828 145.728745
-14.078359 -2.289151 125.672707
15.178760 -1.703130 121.690170
-5.570866 1.106222 149.345047
22.908455 2.217117 138.458618
1.467555 10.140596 103.710449
-10.817305 2.743469 117.034737
-10.874173 -10.628349 123.545799
1.041382 -12.725296 131.227493
12.707825 -7.544112 117.490440
-0.118321 6.500531 124.331757
2.941027 8.911918 110.168999
-6.991027 -5.273705 145.378372
14.626583 5.987763 136.186813
-12.142663 -8.370070 122.936638
4.142396 -16.092905 104.727974
8.023731 4.118142 123.177948
-9.017435 5.171571 145.769394
-1.504323 10.119591 135.944183
-0.796537 8.863225 149.720795
14.392847 7.326774 142.052521
-1.741064 8.656970 104.964531
-9.828286 5.930598 119.370483
-10.094248 -4.842085 143.390839
14.772435 -0.073266 133.008469
9.317719 6.843640 103.373474
-9.567612 -9.994651 125.101059
6.439412 -12.986916 125.901169
-17.953785 1.190306 146.164017
15.274611 -7.035307 107.993103
-15.350710 7.088837 141.860840
-21.246325 4.167723 138.356766
-14.438991 -2.924265 137.505936
9.757615 -10.352227 123.275124
-2.507061 8.344337 105.141586
11.510747 5.380778 145.017395
-9.546752 7.000937 127.780930
-16.735970 -2.570391 144.431427
7.586321 -12.862172 124.794456
5.949783 10.039975 133.162064
18.398205 7.449793 138.954926
14.974205 -5.528464 110.527931
-16.849684 -2.541938 110.404984
-2.360152 7.756028 148.397461
5.319237 6.423715 149.466125
14.360579 -10.244050 106.242760
18.683455 6.394259 142.501358
14.182128 2.014878 124.247742
-11.657789 -10.304095 106.617348
25.086056 -0.781234 142.347809
-22.927153 3.898895 136.460327
2.700763 4.832983 112.329613
1.376365 8.146154 109.836136
-7.951169 7.287807 103.041100
-5.335998 4.537836 116.862175
-17.175806 -3.277606 111.783257
-18.452026 -1.314910 137.683334
15.623146 7.104939 139.548874
-2.544557 5.506974 113.392311
8.536781 -12.728608 108.720924
-14.062541 -7.680217 112.466232
12.606056 4.632294 145.766724
5.747217 -10.272559 136.486435
14.723597 3.892565 121.901047
-14.378579 4.213960 133.965073
8.213328 6.508525 129.811768
21.373650 -2.131749 138.371384
-11.312398 -5.939343 144.224289
-8.656584 2.291817 113.650024
9.208564 -12.527948 128.303894
-15.531157 6.736652 141.396255
7.687286 -2.970729 147.204498
-5.312637 -13.698709 103.610535
3.019352 -15.735034 104.769867
14.688398 -5.455917 114.419228
-7.282810 4.947794 123.266418
-10.595811 -10.292463 129.700333
1.456754 -12.717461 122.095390
2.066147 9.958200 146.001587
-2.903307 -16.531134 106.323273
-15.262046 3.880660 147.578308
-12.978893 -2.689026 124.818275
17.560606 0.949474 143.345901
6.317590 7.655496 103.477707
-5.936046 -2.141218 150.459305
7.883592 -3.929920 146.442963
-17.987597 5.549086 141.996506
27.125927 1.288153 144.751190
-0.940446 -7.327962 146.532867
-1.506956 9.184296 134.867432
10.616660 -12.830887 111.134476
10.609389 6.289132 108.220894
-0.565777 -5.072845 147.406509
3.315184 3.655621 118.687088
-21.446705 -0.241643 142.596848
-8.707195 7.096062 143.590836
-3.158511 4.596839 119.974754
3.614602 -2.679802 150.316437
-14.840694 6.079531 142.292358
-9.320690 -5.978935 142.132935
-0.104184 4.871441 108.255638
10.944604 6.707182 106.991142
-8.806559 7.245791 132.847366
-13.800602 0.387897 122.123817
-10.847113 -0.983078 147.398544
-18.769464 3.045521 144.483673
-5.236980 -13.711664 126.286240
9.968092 -12.956141 113.169167
-4.023329 -13.846737 117.544266
5.068523 -12.706591 127.714493
-8.762603 -3.865208 145.081100
-0.087611 -12.480377 133.053970
14.265974 -1.110670 111.710327
0.707823 9.856428 138.341858
-8.466209 8.969050 142.079041
-13.251880 -7.121973 113.099823
3.795332 -13.199001 117.320862
7.939738 4.482542 146.872314
-5.928727 -14.074874 116.823746
13.869303 -4.605400 127.100945
5.831567 7.829141 109.956993
-14.559807 -1.543966 108.531479
-4.565676 9.779778 133.355011
-12.157658 6.992336 133.012344
-3.327153 8.064915 147.880341
-13.045452 -7.893306 112.120926
2.949903 -14.473117 115.193901
-2.259372 6.245789 118.888039
-5.978992 -6.376206 149.590149
5.219551 4.313201 114.307350
-13.017730 -6.233702 128.060059
-7.961637 -13.383899 115.538918
13.315281 -9.225311 108.903160
-0.357096 9.756764 142.497528
9.152709 -10.484655 120.686470
-13.442415 4.546921 104.353096
1.992338 -12.832305 113.716331
24.556259 4.274908 145.014496
12.000880 -7.575540 122.936226
2.174781 6.077229 143.376312
-8.649564 7.581182 144.104523
4.186185 7.899754 128.676453
-8.094767 -12.332331 117.722412
3.566566 10.878849 135.207947
12.117765 5.195058 107.748520
10.837716 4.577844 119.039513
4.776606 8.147638 134.777237
8.945117 8.286710 144.422241
-1.570575 -9.251466 141.221115
-0.306448 -8.061999 144.952591
2.141513 6.197550 125.643707
-14.494576 5.914643 144.245529
-12.396693 7.553883 135.484512
-9.876283 -8.110963 131.293411
2.715396 3.950330 114.696678
-12.820138 2.033688 123.310562
23.061495 5.536765 143.971848
9.178169 -12.472464 121.900940
14.955184 -3.683303 124.814224
15.431939 0.037679 133.043503
2.176410 9.563233 141.085205
-5.280175 -8.537320 141.371429
-6.266435 6.503340 104.713829
-0.716109 4.758248 113.623695
17.411976 6.098873 139.413498
14.877002 1.843114 104.253883
9.197927 -12.959771 128.647675
-13.060881 -7.001350 131.366180
21.081964 -2.190941 140.360657
7.825553 -12.547023 123.932823
12.723682 8.040417 132.967453
19.519848 0.529933 144.635071
13.536244 -12.923942 105.450180
-14.003890 1.312639 147.270569
12.846591 2.476117 146.120773
-9.694818 -7.641722 136.665039
24.050129 5.620745 145.764328
12.890388 5.620632 121.859474
9.434757 -0.389136 145.992813
2.681975 -16.255547 105.495758
-3.820648 9.961592 102.712906
-8.497085 -10.700653 119.918900
20.051815 -7.288845 104.447449
0.164644 -14.559433 108.686417
12.217210 3.549955 132.151230
-3.713343 -13.027220 123.939552
-11.751462 5.678866 103.951126
-13.259151 0.364369 110.896973
2.250463 -6.615229 146.495010
-7.852165 9.376563 133.432480
11.485172 -7.836662 119.131599
-14.425629 -3.916212 113.220169
6.159025 -3.742990 146.951385
-12.691227 5.153676 108.179283
-4.116045 -14.108562 104.376091
12.554916 4.523269 103.855186
-13.510993 -5.676880 122.086609
-10.692352 6.122062 120.766029
13.439922 3.797891 130.801636
-10.230432 5.049986 110.981712
-10.801260 -7.846212 138.041489
0.026423 8.486274 105.635849
15.012550 -4.417003 135.699997
2.568539 -14.859294 124.175888
-6.709378 -0.193638 146.961655
9.131900 -13.344841 106.954002
-1.963914 9.032148 147.344345
6.302619 9.186329 141.314880
14.939765 6.003178 136.272659
-13.703074 0.900921 115.025879
15.189077 -4.697596 110.870338
0.471756 -12.488817 134.993942
-9.715820 -12.935826 105.680931
7.980048 9.378024 136.435287
22.024712 6.029237 142.641037
14.320394 -1.383926 127.359261
-6.290843 -0.574177 150.612015
1.483251 -14.437922 105.890846
26.584471 4.409728 144.608704
-14.145914 0.056693 130.301743
7.339583 6.396588 146.083633
-8.798023 9.284553 141.646667
12.276659 -9.195356 109.068199
-8.810417 3.237077 120.341438
7.559175 7.085809 143.585693
8.027303 -8.210064 140.100845
3.670357 6.506475 123.798218
6.418785 3.299214 123.509041
-18.197330 -1.613733 109.608147
-6.088068 -16.132154 105.802101
-9.043591 -11.559945 107.464874
-0.090614 8.975417 140.843887
-3.313002 6.197225 144.866669
5.996916 5.396479 111.680679
2.814111 7.908435 109.232567
8.133163 3.901817 119.344261
25.994343 -2.422541 143.256744
2.400018 7.565702 129.502396
-0.864432 -18.156687 106.732872
-5.926511 8.156538 130.988083
3.361431 -5.186687 144.562180
-3.785502 -13.898899 108.115814
-6.829647 8.762712 134.668869
-9.449331 0.718145 114.727875
-0.478922 8.973563 149.009781
-10.671613 -9.002323 121.272736
-7.056686 -6.445169 141.632965
-6.720651 -0.305673 150.203293
-12.486831 1.928092 106.584885
4.982540 6.673203 150.832428
9.955359 8.370297 131.473267
6.836111 11.138629 135.194504
-0.460025 8.799223 147.944382
25.309799 7.613271 140.711548
-6.163591 -15.599818 106.082298
2.837823 -15.308613 106.208458
-16.795067 -5.188920 110.436150
-10.725554 5.214615 131.056732
-10.034338 -12.544519 127.301895
-16.091698 -3.525872 117.923920
-22.380106 -2.033703 138.651642
-23.999043 5.603605 141.292206
-15.013646 -3.550516 132.344757
17.004826 4.589148 144.557236
-14.460660 -0.448573 120.335770
-9.027177 -11.571173 126.012833
7.737725 2.513466 120.320892
6.071772 7.589120 143.864731
-22.773432 2.579425 136.943436
13.379953 7.549971 135.039078
-5.129221 -12.547205 133.321564
18.081602 -1.937202 144.084595
-14.791833 7.637994 142.144943
-12.540789 8.566895 140.283768
6.853604 -8.623170 138.953262
11.279531 8.012036 135.368835
-8.639455 -12.220717 132.773743
-15.471327 -2.987291 116.648918
-9.019517 -12.418124 114.550247
5.120508 8.039326 131.678314
0.872142 6.869878 144.003189
-10.323235 -9.934414 122.363617
-3.866577 -4.227977 145.149292
25.571892 7.063777 142.322205
0.061587 9.766011 140.466385
-14.280141 2.833276 146.758347
-9.382723 2.782452 120.570450
9.541222 3.700221 111.972023
-16.484030 1.395007 132.564438
-8.264644 8.582796 138.320801
15.071572 2.881422 130.235062
5.819709 -13.434786 121.590088
17.450531 0.717160 146.695160
-0.368368 11.418229 138.039169
-3.252408 9.903755 101.955414
10.991125 7.379577 139.699066
14.429338 -4.735436 139.516052
8.405457 4.894446 112.160339
-17.441284 -0.660771 106.282585
-17.755869 -2.005826 139.070267
-13.406633 6.858521 133.033737
4.142416 -5.244692 144.182266
22.495562 3.753449 136.261475
-10.326403 1.167695 118.599449
-9.287687 1.905571 122.866005
6.669743 2.617393 119.368462
-16.604113 6.055227 144.476044
7.216403 -11.987149 127.306435
0.499306 9.685852 102.784622
6.354643 8.200713 143.809494
8.822812 3.641948 125.276443
10.029213 -11.734305 117.268440
-13.418885 3.024898 126.908012
-9.730357 5.854849 102.265045
-3.326981 -13.034534 125.189682
4.239577 4.507437 150.112137
11.291970 2.692939 124.567924
2.345737 -13.559589 114.995255
-5.232681 7.722379 144.983109
-12.236771 -9.602395 109.126602
-4.434266 5.309245 109.236534
-4.663565 -5.106345 149.543884
8.016989 6.564006 113.187500
11.492185 8.132991 132.863907
-19.592482 3.492636 137.539062
24.716375 -2.285189 140.842987
-4.888864 3.020566 152.422897
-12.667873 3.059538 144.855988
-7.432072 8.534470 141.666504
7.891919 -1.846403 146.391922
2.316692 7.891305 102.831474
-25.251825 4.315033 143.387344
28.313469 2.318577 143.783737
-14.952378 -3.256280 121.369751
5.934728 -14.243928 122.486267
-2.496755 5.836142 111.312752
-1.825983 -13.394343 124.616066
-23.328680 5.291910 139.223846
-15.647445 -6.213231 117.568192
-10.907232 -3.386472 146.898651
-2.901120 8.892044 148.606216
12.678598 -11.049283 104.689323
-0.680307 6.375097 119.367607
4.738711 -15.714208 111.616890
11.538474 3.768986 105.236031
1.784825 9.292031 149.750549
-10.917198 7.265783 142.829300
-3.391662 7.972105 138.420258
14.678497 3.609989 128.707306
-13.740774 1.775239 125.956505
4.229457 -2.833378 150.443451
13.510018 2.518889 108.230560
14.906271 -1.817355 146.473618
-10.692280 -9.625803 110.724373
-12.997790 -0.553746 117.189407
22.143497 7.632317 137.963318
-11.988531 -11.362242 130.663162
-2.855468 6.794420 148.157944
12.528923 -11.293176 106.228035
5.097300 -4.768277 150.602829
-0.508366 -7.934017 137.351852
17.268707 3.139854 135.448364
9.910028 6.639130 129.861954
18.798672 4.829397 137.554855
-5.683019 1.974865 151.414307
-11.165583 2.525344 124.688286
-9.984871 -8.240987 135.606552
5.927878 0.924179 151.360931
14.291888 0.791436 144.971863
24.798513 -0.945766 137.309021
-7.016351 -13.143768 130.252106
15.432528 5.445095 143.563370
-13.490667 -0.417383 121.447296
2.187981 -12.851020 117.363197
-14.822059 -0.630242 145.880585
5.648733 5.412580 109.946632
-8.119246 -13.080365 117.828804
-13.374247 -6.277592 117.743019
0.201140 8.746302 143.905853
-20.216656 0.141965 138.618042
-2.980602 -9.207449 138.424377
3.712736 9.056304 129.162460
-11.454021 0.181881 124.715797
-22.743744 4.373445 137.316147
15.501575 -1.741449 127.920555
7.251094 -10.392270 134.300339
13.387202 -0.847838 120.453445
-6.767110 10.135420 139.951324
9.967366 3.979544 125.596870
3.703183 4.512567 116.308876
-8.234563 6.732869 103.532417
-0.459373 -9.862215 137.142380
-12.361824 5.632902 114.439133
9.135625 5.305762 118.418236
11.488198 2.553934 126.821663
-11.401863 8.119085 139.954361
-19.481056 -0.421215 143.306412
15.655241 5.967938 136.478683
-9.187550 7.002273 105.473228
16.302254 -1.137191 110.850281
13.014250 4.729401 108.512619
-14.619164 -5.768541 113.503052
-14.733043 -3.641916 133.575027
2.276042 -14.634855 113.339729
4.913304 8.771142 101.756439
-7.400982 7.719138 126.537552
-13.659288 1.041321 147.385284
-8.501677 -14.695060 106.534866
6.567373 -8.148420 139.019333
4.239704 -12.296332 125.137909
6.436546 -2.783714 149.820007
-25.348404 4.229944 143.934921
4.260221 0.644885 149.014877
5.055041 10.351348 143.336456
12.389973 3.628539 122.501060
-13.402600 -5.059138 123.822739
-14.180442 2.593208 147.690948
-23.943699 4.189238 143.550003
-15.140456 -2.359486 130.816971
13.199157 -3.699116 144.177490
11.193027 4.284647 127.294746
7.155106 3.677415 120.691940
12.219416 -7.017621 128.702774
6.842543 -12.738142 112.690613
15.054725 -1.956955 146.175171
6.652987 3.242913 118.669083
11.188883 -8.734914 118.826775
13.353043 -7.588335 111.707741
-10.738260 9.324179 136.518311
0.207538 -9.166254 142.530243
13.709475 2.887756 110.099953
3.269641 10.159225 131.945129
14.032597 -8.862296 108.319786
13.491145 7.665739 139.807358
12.514979 -6.977854 119.864685
1.829487 3.262644 114.963753
3.701413 -13.137800 133.524002
15.653353 -3.830839 138.640778
3.811063 -4.717611 146.045837
-8.633442 3.883641 143.366791
9.206507 -11.366749 114.368805
-11.199992 -7.945454 126.925087
-1.389519 8.276266 149.448654
0.282696 -10.857265 141.190247
-2.367390 -12.454028 126.981369
-4.247178 -2.840487 151.518188
14.199743 -6.588182 109.141373
11.075625 -8.608933 136.057205
-17.044872 -4.146888 139.077133
-4.722304 7.893492 148.120468
-1.644058 -9.796065 138.231415
4.239880 -13.886996 129.058731
-13.267542 -8.835568 110.701065
-15.941442 0.903659 105.333344
-9.073422 4.107330 118.457489
0.921630 -8.886256 143.624527
-11.891175 -0.994220 145.021866
-5.012586 -13.420720 121.948753
20.592308 7.398279 139.242874
-10.898780 -11.328574 130.535263
10.451923 2.848377 146.707123
12.041039 -8.127427 122.229622
9.646004 -2.667816 147.186188
-9.500570 -3.489843 143.434723
-10.827564 3.861582 119.107010
14.105570 -4.997133 129.299683
-11.824256 -4.246445 144.062561
-7.713677 -10.909992 131.769928
22.988197 7.221654 138.127136
-4.692749 -5.874691 148.751907
0.512591 6.140923 121.398666
4.405516 -13.235920 125.097145
-9.991471 3.108597 114.438263
12.865042 -1.072343 124.890030
10.645165 -6.309284 141.846100
15.240004 -0.803728 131.151184
-6.046763 -11.349794 137.680267
-13.857484 -1.741851 111.328896
-20.977587 6.094657 141.333527
-15.408315 -1.126920 107.187668
12.308990 -9.289565 131.135818
-13.622266 -0.961073 126.347046
-14.779339 -1.830720 107.813988
9.549017 5.086343 146.141327
-15.174168 -2.052645 129.808304
15.692124 -3.626592 145.146652
12.238370 -9.713860 121.786209
-9.452419 -10.178741 133.485474
9.581290 -11.682912 123.640381
5.097762 6.932944 123.362206
5.147233 6.414709 112.601921
-15.507521 -3.535818 134.115952
-13.586002 -5.532590 129.849274
-19.558228 6.036990 141.302628
-6.106737 -15.132386 106.485619
-14.921798 4.800320 146.254318
12.056054 -11.575883 115.422646
-12.240251 5.611239 145.224411
-2.915874 -10.652082 136.928619
11.781042 -7.395839 123.345016
12.371564 -10.951375 109.492752
17.841269 5.770823 142.885529
-14.732131 -0.003208 108.981140
0.040571 8.716440 102.130486
-7.605185 8.753240 140.093979
-10.388689 5.096734 103.173172
-3.872676 8.786015 133.195328
-4.064647 -10.696343 135.476425
-10.220775 7.725875 138.090439
-19.142626 -3.065477 138.392685
10.469852 4.403363 116.337410
13.306601 5.730585 143.316757
-9.511232 9.078470 140.864807
-14.012288 -8.001442 106.860031
-16.276588 -4.193576 141.310806
-18.868462 1.300194 136.983521
15.722251 -1.618313 115.606621
13.685069 1.486342 106.984467
5.394891 -13.462957 125.591660
14.613204 -8.568170 113.781563
-2.209435 -13.690949 118.667488
8.127130 -5.486799 146.111801
14.484184 -5.082336 110.587952
22.270716 0.981684 138.025223
-12.159662 -4.195107 144.444595
14.444802 -9.923413 105.247253
6.471844 7.736826 148.501770
-15.043382 -8.344631 104.959671
7.770373 -12.972369 112.069702
20.572130 -2.426611 137.256470
-12.321082 2.446948 117.293518
-9.247558 -5.338334 143.926727
17.516291 -2.348803 136.379974
12.153796 -10.786504 130.882019
4.270137 5.774960 108.377167
-2.491518 7.496129 126.947502
-1.092896 -14.940388 113.186401
15.459712 6.789372 136.062088
-5.930362 4.462731 148.958298
-3.878609 4.674575 148.308441
6.485343 8.444325 133.777878
9.498911 4.154759 114.070580
-12.692349 5.179914 144.502808
16.211996 -2.857811 140.831284
11.130066 -11.336789 120.570465
6.683044 -12.918925 121.672089
-2.684820 -13.811727 110.796387
10.480938 5.568628 107.712494
7.088919 7.524224 129.826950
-11.558283 -8.597758 121.272224
16.403374 5.246836 142.962692
11.956222 8.760918 135.527313
-3.843411 10.046798 135.459137
-12.044491 5.219191 103.395302
6.771451 -2.088456 144.272095
-7.047256 8.554787 127.963570
22.413410 -0.959788 145.055008
8.702966 3.784696 145.698196
-17.002842 -3.622459 142.368027
13.607301 0.876599 113.756310
15.762385 -8.681053 106.344780
12.208823 2.755848 110.578918
-12.420140 2.573822 113.014420
-14.011810 -3.392120 121.354187
17.215057 -4.993731 140.740860
7.779206 -12.859419 118.286026
-12.142215 -6.575820 128.658218
-15.835754 0.245628 145.495575
15.874942 -0.476392 108.037056
-18.997208 -2.226505 140.496017
-17.307438 2.139388 130.660873
-14.880904 -2.797646 134.648361
14.746462 -4.645491 139.794449
1.430664 3.908742 120.632309
-14.676017 5.277468 131.814224
-13.618978 -0.230850 120.323586
15.812784 -4.991370 132.145721
-14.349190 6.924989 136.367569
-12.567439 4.524632 109.271149
14.894429 1.949281 146.117661
-8.962457 8.806235 130.888901
13.011949 7.121188 132.568893
-7.758866 8.254454 105.090897
-3.110017 7.388645 111.813858
-11.117448 -7.598665 122.794853
6.749799 -5.169308 146.379379
-11.616557 -0.157929 118.863464
2.638405 5.117753 109.615227
7.250119 -14.278378 107.068184
-12.953752 7.844564 141.467636
10.798847 1.560576 117.205048
-14.102668 -8.388980 106.756027
-9.402546 -6.984210 141.791809
-9.579198 0.049042 119.654671
-6.099719 6.332483 112.508011
-4.090538 -15.927924 109.218933
17.394630 -6.557148 105.934784
20.741112 2.553327 136.555374
-6.932475 -4.891432 146.054199
7.234700 9.096977 143.254745
-2.274034 3.564215 119.875832
15.940705 2.527156 132.173782
-20.754440 1.640872 135.953522
15.668943 0.931457 131.024551
11.172892 -10.295720 121.713257
6.567072 6.868532 106.668900
-19.474117 6.515699 143.320374
6.894690 3.571055 113.220329
23.977818 1.795623 138.449738
2.521083 -13.094667 124.072304
-6.179683 -6.992046 144.835709
-19.890532 -1.231789 142.436829
-21.885960 2.289511 137.159149
3.848211 -14.800166 107.868668
-9.447527 7.249868 131.837143
-2.758766 9.206838 139.521088
-5.912298 6.417029 125.735497
-8.825333 4.259034 144.844116
17.612778 5.818590 144.133911
-6.878189 7.341516 127.471832
18.663652 -1.985508 138.503830
-12.184548 2.896540 122.727165
4.372472 -1.825169 150.107269
-0.609767 -6.556915 149.679443
-24.025764 5.875896 137.599518
-1.405208 10.388392 141.802963
12.435567 -4.855790 130.726181
5.513059 8.253441 128.675095
25.146355 -0.536860 143.719055
-8.769402 -11.687915 129.928589
14.166038 5.048082 148.586212
8.807932 4.323351 126.190201
-9.386913 -9.409416 130.335281
13.183500 -6.189868 119.347000
-4.218653 3.245560 150.566422
-6.412439 -14.034435 104.598335
-8.365085 5.157327 118.967476
-7.526145 7.471264 105.549698
19.092886 0.147743 144.681061
-16.962145 -3.240447 111.385773
12.489229 -1.138510 121.319946
10.325686 -3.360695 146.812546
-3.712712 6.089824 111.880653
-2.536868 5.168895 112.778030
-5.246959 5.170691 107.357201
0.630599 4.959238 120.511818
-16.686567 -1.024516 144.919937
16.120729 -3.215034 122.659912
11.072793 4.780895 109.735329
-11.375384 4.273584 113.789589
0.414434 5.932950 128.184494
4.263522 9.818615 130.392441
1.529892 6.464063 108.223915
-16.153860 -3.412399 110.529366
-23.700172 1.279986 143.143509
15.937222 4.994303 146.803070
-12.321926 -9.180867 107.222672
-9.633122 -9.721300 128.523819
-11.032384 -8.416231 126.735779
5.494452 4.109616 149.233597
8.739553 -11.697206 111.674309
11.751409 -9.655201 116.372131
14.536988 -1.833485 117.707573
4.055397 2.511497 116.811264
-6.927790 -12.862162 110.974838
15.603813 0.056597 133.073395
3.614591 -5.119782 145.275421
0.495307 7.827096 110.564835
-8.657951 5.376919 125.128273
13.585052 -6.186795 115.069801
-0.532138 5.811886 106.942787
-15.238562 -6.176891 121.926407
-6.793967 -11.930675 133.439957
5.218463 9.868603 143.346863
10.168303 -9.244252 132.905563
17.054405 4.278963 145.035965
5.766146 9.861433 150.891541
-11.318493 2.336477 126.308937
-13.304044 -1.357186 111.665390
5.555654 5.575146 108.624176
10.361729 -10.401244 104.239876
-3.001444 9.465700 137.936096
5.238662 2.500689 116.801376
-17.851681 8.062954 139.735901
24.678967 4.226085 144.960190
-3.750027 0.385772 148.705902
1.381940 -10.815703 142.943359
-17.273090 -5.276871 105.520081
2.758058 6.752259 105.658096
5.549993 -1.388362 148.125946
13.750552 -0.238850 110.218155
0.223894 11.654127 149.502319
-4.327222 8.663180 130.767914
5.711496 5.150652 123.191101
-15.970410 -0.829284 132.067017
-19.218185 -2.712426 143.718933
-0.050765 8.182412 148.416428
-2.829914 -13.140997 133.845291
-18.921158 -2.445592 104.990150
-12.989293 3.464969 124.861145
-6.850237 -12.978638 123.497261
9.895638 -9.462970 129.262787
0.513184 10.005696 143.819412
-5.259612 8.035370 142.459229
10.180589 3.639329 110.220894
-10.349514 2.155060 113.961395
-15.770527 -3.526069 140.143188
12.874382 3.036252 112.310867
1.540553 -12.787573 131.904678
-5.836930 6.905731 145.858047
17.221416 -0.525023 147.635162
-15.280995 4.264256 135.331802
-15.141773 7.908730 141.354187
14.712332 -7.939597 111.281059
-11.086025 -9.159673 119.716164
-9.477707 -10.527969 118.858101
-5.197976 4.313095 152.226593
-10.454576 2.343029 125.545532
-15.432315 -1.627849 133.138229
-9.479819 -11.863792 107.485313
-7.488073 -12.333085 107.764603
-4.377699 -12.473560 132.698959
9.391077 8.498049 142.474258
5.701908 -12.177229 132.675568
10.229978 7.279093 134.532867
-15.735700 7.000888 144.262375
11.376877 -2.144513 145.789200
7.471304 8.111650 128.925934
15.758382 -2.683436 130.544128
18.383188 -0.965297 144.453384
4.942546 8.270784 103.862160
11.052004 -9.000564 132.760803
13.894742 2.771011 112.533531
1.215339 -8.093037 146.804810
3.555520 -14.102204 123.514877
23.983393 4.316308 143.967148
10.281779 6.926906 143.916061
14.904649 -1.585515 120.673256
2.031192 -13.494718 121.838554
20.442808 2.543938 135.858246
6.064589 -5.438150 145.575516
8.008599 5.772178 124.586464
12.489959 3.559349 148.017044
14.717734 -1.454602 116.888451
26.236704 -2.970556 139.275482
-2.524447 8.000003 148.163239
14.289707 -2.558871 125.534531
-0.852633 10.195511 129.858627
-7.481781 5.546807 113.985306
13.498025 8.008719 141.674011
-0.706346 9.304623 130.731537
-13.660521 6.338470 133.304352
7.309863 -13.077113 105.361160
-11.388572 -11.251358 113.076576
21.366316 6.328884 137.802551
-23.244040 -2.564073 137.890610
10.017187 0.000483 119.210831
16.594910 -0.357734 133.190659
17.126305 -0.671943 131.649109
-12.087803 -0.984643 125.261208
20.540087 0.969374 138.243774
19.819098 -2.019878 141.888489
0.601286 -13.596972 119.677521
19.920971 -0.365001 143.677490
-12.018576 -7.371464 124.991798
4.659687 -13.440447 112.675209
24.128593 -1.198881 143.128052
3.305600 -6.555527 144.694305
-3.741844 -3.714443 145.510529
10.895679 8.244173 134.155136
-12.052943 -7.731167 124.401978
-2.876312 8.363232 150.134354
8.962330 9.590697 134.413803
11.078945 9.818554 138.511002
13.072114 4.581489 121.227356
-1.140088 8.949818 144.926971
-7.752260 2.416559 146.289658
-7.425597 3.951451 146.351059
12.618268 4.464120 121.098083
14.184536 7.727561 142.219711
-18.181816 -6.400913 104.658440
2.435618 -15.718823 106.031937
13.459762 -3.355769 121.007118
-0.311608 7.929501 131.141617
6.840649 10.188903 136.489838
-14.052684 7.805051 140.206284
-10.580747 -11.415248 129.851089
2.254147 -14.297477 105.477913
13.689854 1.716257 123.023354
13.785910 -2.825576 145.556702
4.636790 3.454589 119.303619
7.390004 -3.085183 147.904907
-13.346432 -0.623692 128.201187
6.775655 -11.160970 131.996536
4.791099 -0.583504 149.191223
24.788572 7.635666 140.102158
5.103308 5.035595 146.614822
16.107574 6.289048 143.151947
1.657308 6.274279 148.691422
-2.490310 -13.874821 125.632210
-18.227705 -1.151407 136.143143
-11.673803 7.833348 135.801315
4.585144 7.888827 123.844688
2.019291 3.776548 114.500748
-7.079266 -4.812864 146.670197
8.233382 7.435492 126.177612
12.457208 -3.642435 144.986893
16.800524 6.442408 143.340698
-6.144020 8.963234 136.258041
9.636111 -12.488525 106.950691
-4.214588 -12.508883 113.343414
-3.141318 10.624821 136.022339
-6.343527 -12.955905 106.870811
-1.483676 8.038332 129.738602
-3.955803 -12.745074 120.164680
10.376651 -10.021281 121.818825
-12.928991 -0.516458 122.843727
0.215605 -6.292200 146.910004
17.632105 -2.632314 143.799255
7.681092 7.280856 105.621834
-3.846160 -13.368162 127.657387
-9.805988 -14.371733 105.710632
-10.601942 -12.511004 106.889168
-9.944412 5.288391 120.270432
-15.512362 -3.886157 124.024773
-3.683487 -5.148150 147.836609
2.280398 8.879139 106.479843
-11.664526 1.557921 119.382957
18.069956 4.529119 136.141052
-12.303958 -11.726256 104.575073
5.490161 8.780272 142.556671
14.800314 -5.093904 108.492523
-11.192465 8.111122 129.988800
-6.431827 -5.388899 143.928665
-16.396717 0.595442 133.571777
-1.089466 -14.710041 106.538277
24.294579 4.670087 144.456100
16.388376 4.017575 130.287216
9.121347 6.197308 144.483627
15.895385 -5.067565 109.937378
-12.781517 0.976266 120.043098
1.134634 11.509886 149.928574
-6.179189 6.534324 105.551613
10.390983 7.682474 131.469452
12.546025 2.881453 123.870872
21.964447 1.943470 146.478561
-23.241959 3.973462 144.853958
-11.380042 -8.819722 113.573097
-5.798158 -5.978298 144.553497
5.497141 -8.754889 145.513245
-8.612613 -7.444973 138.249390
-16.181618 -2.477701 145.753052
3.010514 -15.151174 110.418701
11.003262 6.517974 129.284363
1.891278 8.783996 132.017456
-2.830256 -11.787275 122.202950
-4.930288 4.896486 115.714729
1.096352 -5.862706 145.227249
-23.915678 8.428462 140.508835
-0.802123 -14.250071 107.250648
-0.078212 -6.885539 147.274384
-12.952503 -4.936365 130.999908
-9.948744 7.438071 104.367775
18.508549 6.253695 136.221939
11.395194 -2.410096 147.872971
-8.636117 -8.783593 139.235764
15.416818 -2.044040 133.431992
21.330011 6.146954 137.509949
16.610764 -2.994827 141.722626
13.660406 -8.063358 114.741264
12.022359 -11.037493 108.294746
14.322680 -0.359238 110.888336
-14.167751 0.892862 126.646729
13.407603 -5.577156 130.379333
16.282553 6.447565 143.283920
-16.843872 5.395923 142.381531
7.438234 -12.631090 114.706184
-18.723665 -0.571387 134.331757
-8.509897 -11.319378 118.399467
-23.538708 -2.053582 139.130432
-17.050451 -5.704824 107.167221
14.413397 4.824672 133.830353
6.013926 -8.922570 139.859360
7.600142 5.760213 113.749901
25.266438 -0.212340 143.764923
2.037592 8.173424 141.485703
-5.023413 6.526804 106.004272
-8.465652 -10.108188 137.291428
12.715538 -1.111136 120.382545
-5.476338 4.163043 150.300842
-16.841854 -3.291494 137.045425
-20.084467 2.501372 144.698059
7.945807 -5.260669 145.438843
-14.837332 -3.399376 114.154709
11.209657 -10.170840 135.462204
-21.809406 5.402864 141.744827
24.361759 3.932610 144.215210
10.958588 7.496140 133.493759
13.751271 0.234192 114.090927
5.684931 9.668526 136.048660
-1.781641 7.230946 143.224854
-1.449215 -8.244487 145.648422
15.401635 -2.348708 120.544151
8.645989 4.680927 121.444565
-5.352776 9.664227 140.808182
14.572404 -2.896118 128.437515
25.189957 -0.163358 143.252625
6.511787 2.317984 149.683060
-8.439281 8.330470 103.640549
3.024148 5.323284 111.703087
15.662343 6.804962 141.719421
10.162148 5.405356 129.611725
-7.735212 7.900804 103.486435
8.144317 -13.377937 112.714073
-18.800734 -2.743814 140.648849
11.227555 5.999548 108.589729
-9.344717 2.206521 113.563515
10.181432 -12.263616 116.265900
-4.398210 10.567886 152.830276
23.642353 4.564193 144.268127
-6.403218 -13.202567 129.769547
-17.271198 -4.615039 143.918991
8.798407 8.692891 140.587387
-8.678746 6.974523 103.469879
11.119348 4.142605 119.122826
-5.993136 -14.716562 109.383698
-7.206201 8.585690 131.437881
15.169058 -3.849649 130.955811
6.299621 -8.864564 141.067383
-12.913939 6.721417 146.223251
9.808212 -12.344342 115.537537
-8.918796 -11.037187 131.854813
-13.014602 -3.784687 141.455994
-0.559186 9.990739 139.282684
1.602576 8.285001 145.895966
-4.303232 3.129172 117.429741
12.428804 -6.484186 121.521881
12.264553 -6.798793 130.682602
7.006244 5.195426 110.155342
-5.802368 -7.825658 141.593231
7.336419 10.204657 139.028946
6.533138 6.255958 147.957474
12.472050 1.860205 146.764236
9.661276 4.617336 113.928940
12.643595 -5.946175 134.546432
8.935012 -11.120572 120.364449
-5.174814 5.844796 114.636742
15.036685 7.469681 143.246323
-9.766264 -3.619582 145.280014
16.424902 -1.281601 117.090317
-5.493549 -14.049060 135.451904
-12.891443 2.709820 142.805496
4.454345 -9.727968 134.970535
6.626245 1.667679 148.421829
-9.734632 -12.456690 105.129227
1.772341 5.861056 145.914810
19.926025 5.846476 142.318115
-9.499886 2.003654 148.524384
4.912991 9.306253 129.296158
-1.638697 9.406713 137.537537
10.056217 4.934711 118.450729
-20.806349 -0.171175 135.189041
-9.774961 -9.178672 135.139328
19.018694 6.431907 143.388092
-5.782558 7.817336 127.518372
3.328914 9.311213 141.439041
15.315870 -2.854385 116.996941
-18.722780 1.457196 137.032043
8.533805 -1.708342 146.130768
-7.073076 -4.055615 148.355850
-11.016881 7.916516 130.117188
9.670963 5.086178 109.403915
1.448762 -10.260725 136.953506
-10.515809 -3.508785 145.012772
9.146812 -14.407161 104.987358
9.218283 4.689192 115.550507
2.250270 8.273112 137.017166
-0.571170 10.254848 145.869522
12.194565 6.955295 145.229095
10.730145 5.275712 128.999466
7.549983 9.526398 141.651962
14.355463 1.386124 124.948074
11.515121 4.173600 117.125145
9.182157 8.006859 144.265121
-24.249046 5.120966 137.182190
22.947746 -2.758637 139.593796
-7.042465 3.587863 110.296364
-5.172647 5.452206 150.038803
9.117381 -7.116030 143.740021
16.068914 1.619412 133.253601
5.081511 -2.776178 146.694550
-1.543043 -12.182444 133.215256
-6.015579 -10.105085 135.895264
0.969032 -11.231122 135.835480
4.246934 9.610186 131.458069
-20.971003 -1.019288 142.921738
16.960299 4.742391 145.498672
17.076643 0.796683 146.551270
-12.921794 1.198260 116.766991
-12.862333 0.058075 122.941681
1.513856 3.973820 116.541275
-14.344698 -2.528819 130.643906
21.899252 -2.414985 138.385513
-16.819479 8.876071 144.123367
-1.375078 -14.477164 121.004349
1.177612 -12.859784 130.211823
3.139766 9.229569 150.302887
11.806129 -6.831311 130.501968
-3.542872 -12.689605 121.193909
-20.262632 6.551497 139.653732
11.448343 -0.683018 147.079880
4.244691 9.168224 140.589874
-6.268163 -13.693814 132.943695
-12.990120 2.997252 129.433746
11.745661 4.457903 122.034088
-0.064494 8.057427 127.318665
2.089954 -6.603965 149.047348
-10.935042 -10.718613 106.578629
-2.072865 -12.380070 124.804222
-23.109861 6.307254 136.439438
9.626156 -10.025455 120.130333
13.002232 0.402496 115.218712
-2.499007 4.213772 117.944550
-10.381256 -11.175746 128.932999
4.962661 -11.418070 135.172729
5.291061 6.992597 123.676674
-10.600354 3.676533 122.039543
10.839506 -10.032657 120.065300
24.230923 3.714374 143.762497
-12.536828 1.550333 116.529961
-7.425329 8.487041 142.477921
16.797050 -4.171925 108.760254
-3.581712 5.646496 109.717369
-16.518421 -3.260502 140.738892
10.272322 6.817671 128.672501
12.945624 -7.166911 115.089760
-2.445843 -12.949566 127.892731
4.557310 2.771381 149.974442
-12.116561 -4.850063 128.475662
9.341614 -11.848517 122.690315
13.504532 0.498712 110.992195
12.636870 4.785405 130.191360
-12.731668 -3.816065 134.542862
-6.799857 -12.469881 106.403755
-21.577219 5.210324 138.853882
14.250265 -3.238048 124.415413
-6.553559 5.895476 120.342758
21.356308 6.104045 142.902878
16.989122 3.144008 147.753952
13.756527 -3.182428 134.753784
-14.875439 3.147940 147.134293
-17.570736 4.512182 147.611938
18.888649 -3.140571 143.927933
-4.620455 -13.087074 116.709106
4.213203 -12.799659 132.090942
9.320538 -10.705055 132.658249
-1.696728 8.712911 127.244514
-17.166325 -2.200593 108.008003
2.451191 -5.945177 146.522919
2.836118 8.036931 106.736313
-10.612936 -8.385525 137.007538
-2.819706 7.978918 140.830032
15.255907 -3.860729 119.881821
-9.188294 -9.708739 134.253433
15.501036 -1.290887 117.363037
-14.263195 -1.085610 117.429680
-4.748440 -1.261509 147.821060
10.937279 4.796032 113.428123
11.966514 5.925550 132.730133
-13.617704 -5.371999 140.119202
8.085560 -12.374190 122.839088
-3.265009 5.005814 111.326759
14.321500 -2.794842 123.057266
-10.787247 -9.821260 109.213791
-12.421357 2.582246 126.212914
26.629066 3.914607 144.192749
3.212722 4.455584 120.092270
-13.353544 3.146355 104.148163
13.129768 5.331759 102.953316
1.740291 -15.085450 105.971886
11.670871 7.391043 135.903046
8.590733 -2.266790 146.232361
16.860199 1.474275 137.344574
3.450919 -4.704823 146.136948
-2.614739 -7.717313 142.593384
-2.789908 5.825301 112.729179
-1.332434 -7.953589 142.283936
-1.672338 -13.432632 129.241028
-12.700936 -5.515431 130.996780
0.741695 8.850604 146.728317
-0.684676 -7.402629 144.419357
15.482422 2.987855 104.453445
-9.780458 -11.522880 105.415977
13.362872 -6.276535 135.351776
11.416190 -8.620356 138.066376
-4.278864 4.719344 123.967087
9.534739 -14.557875 104.856384
-3.565866 -12.412790 128.204346
-4.751625 9.786551 105.746086
12.268542 7.624603 141.873123
-13.926308 -2.804149 125.088905
-3.237534 -7.998863 144.239548
-5.832856 6.230869 144.976166
-7.134786 3.829130 111.532394
-7.268609 -4.747365 146.097122
14.520485 -5.952052 137.432358
-10.123256 -12.469603 119.912590
3.815823 -11.346071 140.861160
18.573105 -0.197835 145.175232
15.632624 -1.359312 113.272728
15.567604 -0.421643 134.595322
12.450276 -4.727931 110.588181
3.663827 7.188833 125.648560
-11.772111 3.830345 147.575470
3.056372 -13.947040 122.711082
11.484480 6.604302 131.362564
-14.847845 -3.302865 143.742340
-9.994826 -12.536031 110.539742
-15.342003 -6.654741 111.259163
7.626511 6.906222 128.714554
14.550729 -3.365168 112.441002
-24.676596 0.726500 143.832153
13.710889 1.558377 108.039566
13.093249 7.047206 142.015274
22.341225 0.860705 139.044296
-17.994440 6.138742 136.578812
-11.135746 5.895906 106.337090
15.445580 -5.347789 112.639992
4.779307 -13.412623 111.131393
-10.760586 -7.246078 133.613663
1.122965 9.060209 136.950958
16.186186 3.787663 131.442596
5.604884 -4.164054 148.482544
16.467516 5.584754 136.683121
5.656151 -9.121069 138.001297
-6.033584 -6.701041 145.124115
13.668479 1.699905 120.268669
2.450257 6.782360 150.147629
9.650791 4.280925 115.064423
-13.535150 -7.072165 104.829201
-11.679658 -7.330258 135.135910
-4.514399 8.110572 131.489761
6.012719 10.227453 139.810287
-5.479171 10.078924 138.695572
1.527480 -14.538925 126.603111
3.197424 -8.602760 138.815979
14.087359 4.621418 131.082214
9.435804 6.405616 108.296661
11.813874 7.420272 143.541107
-5.863101 8.317947 102.771072
-10.337620 2.362700 147.480911
25.176092 7.881400 140.176407
12.906464 7.164739 134.138840
16.043665 -7.980288 108.159088
-0.916224 9.700367 146.321747
23.501369 5.063400 138.495529
20.149975 2.334354 137.666794
5.867503 7.393314 125.980461
-5.356545 9.663268 132.797501
-3.582132 6.865732 148.647873
16.924891 4.513766 135.057251
12.166934 -9.880847 109.233971
10.501023 1.311944 146.808716
-22.391682 -1.994267 137.068176
-14.992671 -3.234394 116.357819
6.858479 -7.032102 143.890900
18.578829 3.276959 136.304794
-3.396386 4.063831 118.787949
-8.207744 3.957163 116.238083
-14.191709 -4.137314 130.495728
-12.021597 4.594167 131.280457
-16.298822 0.708407 145.336960
10.913620 -12.106913 104.033653
-13.377341 3.069568 131.547958
-9.319148 -9.054329 137.753708
-0.811859 -14.478840 115.224854
3.431858 8.718971 137.123047
-0.483230 9.460453 132.139801
-1.661552 8.221580 104.789444
14.703881 -4.660362 130.150391
-11.464930 4.971127 129.661346
-0.128074 3.877578 118.547714
-15.517324 1.791130 133.042191
-1.258550 -12.984215 128.804703
-17.016451 -2.762653 106.290054
14.329477 3.556337 104.603004
0.731240 -4.313501 147.562531
11.299743 -10.571102 122.078972
-9.278936 2.415174 145.690842
-22.735222 -2.710706 136.131851
14.327600 -8.064446 113.222275
15.514475 -4.566209 136.405167
-13.282439 7.192967 138.624146
-15.511041 -6.452380 106.203644
4.328045 4.201106 119.503830
4.449199 -5.241391 146.033859
14.071636 0.461806 133.482391
-21.680424 0.317248 144.192978
-1.277566 -16.834126 105.263382
-11.079813 4.112878 127.515427
-17.936279 2.260250 136.683578
6.903064 5.242700 124.783173
-3.572817 5.053450 122.580162
2.662785 -10.762698 135.332489
-4.176831 -12.832414 132.221542
12.662069 -0.379901 145.175369
1.180675 -16.201496 106.855743
12.640429 -8.619852 134.934326
4.469723 -13.896310 122.146500
-15.802090 0.774801 104.925743
-12.188445 0.408423 120.134621
9.488105 -10.483628 118.901863
-3.855922 -3.608132 150.944733
-15.587426 0.947090 105.780991
-15.511366 -3.873396 106.777718
-4.628470 8.913624 139.181076
2.973944 4.152202 116.799934
6.364685 7.434834 130.319229
12.160203 -7.498937 125.281601
9.725145 1.815747 114.500351
-19.390608 4.689478 143.985184
6.998304 -13.687951 106.361351
-0.242296 8.041851 144.484802
-15.400546 -4.074407 117.220154
0.215149 -14.760608 140.483002
-23.416088 5.856325 143.018494
0.502581 -10.912267 134.788071
2.914652 -11.438461 132.027420
13.103265 -6.250856 128.849915
-14.039038 2.757254 133.735229
-0.326795 -8.507329 143.823288
19.270369 2.322627 136.521500
-7.542604 -2.873901 149.274734
3.866292 -13.016909 130.807678
-3.662015 5.671364 151.722351
-4.737399 8.548346 140.229279
14.881490 5.815893 142.920670
6.212746 7.522247 128.241272
12.567318 3.537366 148.192032
10.457067 7.721537 135.685059
-5.826422 8.388277 130.486145
-2.015166 9.587171 104.777321
7.596734 -12.012095 114.389977
6.121676 7.105577 144.701111
23.164906 -1.268083 142.790985
-9.549537 -8.991406 133.477844
-11.542149 -8.920429 138.502060
-15.627976 7.846504 138.665161
6.317649 8.185063 103.881660
2.166349 6.411931 127.784134
3.890519 9.851719 137.037262
-5.606979 -12.848701 132.712540
5.761710 3.845927 151.312729
-19.180380 7.770776 139.660660
-12.717089 3.991260 108.166618
7.275019 6.920552 126.529747
9.853437 -10.567420 117.546051
-16.829056 -7.252646 105.644966
0.670533 8.333562 148.565750
3.017820 7.231505 149.068649
16.360649 7.241317 137.429291
8.902986 -14.664533 103.704597
-5.732905 -12.859264 115.682350
9.918703 -11.214454 131.792282
24.807369 7.568933 142.091919
-15.422595 -2.814646 109.595276
8.392062 8.961099 142.219849
4.085995 -12.953056 132.884720
10.183655 -12.315187 106.044785
-14.216588 -6.588049 137.537811
-11.712831 5.160534 143.811905
-7.689648 10.582843 141.603226
1.612599 7.251674 125.423119
7.511346 0.940700 147.078125
16.230400 1.388152 145.854156
-8.470877 -11.374211 129.131790
-7.977881 9.421727 135.840561
-23.167521 1.853920 145.515228
7.737551 -14.085279 104.959068
10.785810 -4.745396 143.710815
0.153696 -13.055350 129.649689
6.182127 4.322930 150.422287
17.498268 -0.299497 137.407135
15.388359 4.616867 135.416901
-9.655723 3.595667 119.506439
6.016532 4.489170 113.960602
-10.598502 5.593287 129.524780
-7.933414 8.053331 129.083466
14.825603 9.029855 140.017227
-15.078482 8.585738 140.731552
4.712705 -12.665496 112.941277
7.466944 5.484815 114.446449
8.462974 -10.542346 133.943390
5.768520 8.109993 143.084991
-15.423582 -4.382199 110.773582
-5.160230 7.973825 135.360458
6.633061 0.086037 145.991180
11.222793 -12.648542 108.873932
21.696772 3.159529 136.679565
-11.484821 2.898406 116.235405
5.452816 8.208553 102.172508
0.654455 10.587321 150.398315
1.870154 -16.558056 107.950127
-23.663513 5.992951 137.025391
-5.708863 5.794029 107.655113
-11.001860 7.610854 145.314713
-0.456517 10.185908 136.552643
-4.225486 -14.609486 117.896545
7.832331 -3.037092 145.460724
23.243265 7.271484 135.926407
7.283581 -13.495206 128.981689
14.371861 -3.738563 118.030029
-13.368544 2.104208 117.855774
-9.701434 -10.405732 121.099319
6.639059 8.144403 103.165123
12.368734 2.722943 107.419174
-6.007539 3.979653 109.395805
-9.828197 6.230914 105.896362
-10.561852 4.219312 108.509895
7.400681 10.666734 137.536758
-19.115503 -3.102548 143.213379
-12.502422 -11.031944 104.221001
7.191064 9.757620 133.428375
3.938159 -9.199198 139.741989
4.409379 -15.839767 106.332451
-18.848995 -0.645307 137.208847
19.044964 -4.201844 139.633148
10.778235 5.902122 103.151291
18.825180 5.685762 137.071243
-10.913014 7.603747 144.611374
-11.369175 4.609723 147.473389
-8.036003 8.712235 143.059387
8.863741 -12.005187 120.595406
13.402533 -8.653644 110.800560
-4.769350 -12.913963 131.876755
8.864800 7.625225 129.322113
-9.692834 3.465047 111.544769
10.049590 -4.203928 144.595627
-8.032734 9.388747 136.485550
-24.319130 6.174079 139.428009
-1.754719 10.814065 135.519333
-8.517589 9.842110 138.959381
8.189510 -12.304555 124.400864
-10.820639 4.004736 117.559647
8.318643 -10.247938 134.351624
8.570898 -11.925709 131.984039
-10.846976 6.489578 142.975052
-6.250667 -2.344401 149.306870
21.032316 7.460361 139.551590
-18.865376 3.161681 143.430389
-18.224319 0.795619 144.729477
5.981493 -6.150863 144.505325
-7.807030 -7.051691 142.797134
-13.392561 7.715838 135.660049
-13.243303 -10.453775 105.583717
1.266089 -15.038568 108.870590
16.907030 0.357334 135.127243
0.824881 4.621758 117.058563
-5.149753 6.347532 106.108353
5.918296 -13.036658 124.207954
12.421976 -6.540008 128.323120
15.940279 5.754948 142.856613
-8.744636 7.311851 104.669441
1.899116 5.810665 125.547325
-0.875132 -13.959677 114.505135
-21.618744 -1.569444 143.463837
10.339691 -10.733333 108.933968
1.809700 8.459981 140.397125
8.511013 7.295242 104.668671
12.560717 -11.124418 106.867439
-4.353800 -13.104669 133.308655
-15.308318 -5.260002 115.905914
9.606988 6.597040 128.666290
24.241003 -0.604144 142.986649
11.512313 4.831089 110.174309
-0.137090 8.184122 149.171036
-16.380270 -1.883055 105.486099
-11.210111 4.357872 109.354111
-9.786007 -1.170813 147.191315
14.913246 3.250946 130.377121
-10.282387 8.446575 138.400314
-19.685768 6.093459 142.506882
18.562227 -6.020716 111.431351
-7.604388 3.631571 118.025360
10.650673 4.349191 122.447578
-4.988490 -1.175372 152.069763
