ply
format ascii 1.0
element vertex 2048
property float x
property float y
property float z
end_header
-8.442922 -8.682903 80.503250
10.798199 17.869829 69.541298
14.635762 -18.230886 64.337646
5.839036 5.814321 111.630272
21.773590 18.104759 61.173489
-15.153349 6.932990 98.126320
-13.546471 14.498684 78.221413
-0.607477 13.405750 60.405598
-20.804953 -12.057276 76.157608
4.926996 -13.317116 58.804810
23.070534 2.348039 62.054890
-14.072227 21.364328 59.374340
-9.212759 -11.633358 83.977486
-19.082186 1.249569 92.682556
5.549388 -8.044682 86.031204
-26.255014 -13.027540 62.934437
3.826032 -8.455275 84.315765
25.356087 -1.168041 75.053543
-8.177013 -16.089903 64.624786
-9.375001 -12.455832 97.723244
18.032253 -7.263429 64.606140
1.463605 -12.257100 60.406307
-7.727058 8.210445 80.086639
-4.647760 -15.195360 94.616592
8.618882 4.536956 111.833580
-4.893359 8.116666 72.113403
-14.225247 -12.117604 72.575592
7.452699 5.406956 114.960266
12.822518 11.286918 81.177467
-5.552465 11.582419 59.886860
20.182856 -0.257479 99.322968
-16.965282 -16.527420 59.764427
-16.218700 -13.198123 64.503387
13.848811 15.633629 71.601181
-5.940712 5.420842 57.730724
-17.232426 1.986833 99.532791
-3.182113 -10.296509 99.891449
-18.739811 -13.232086 80.766228
7.639291 -5.358882 64.476357
3.775406 -12.165845 102.236008
-6.572131 12.962529 70.673409
10.559511 -13.383739 95.668289
14.300465 -5.905354 102.946968
1.524829 13.010674 82.837448
-9.096116 21.258991 57.507282
0.253999 -14.868672 83.978523
-17.470692 9.609550 91.053131
21.414690 -1.298895 90.869362
-7.010639 -13.819793 104.157166
20.088804 -4.220735 88.981865
-6.557939 -12.997149 95.935844
2.081829 -10.149648 60.514153
8.158969 10.777954 82.580368
12.177135 -13.920183 87.544487
22.864536 -0.848887 78.299675
-15.520636 4.268560 102.098763
-18.524549 2.404088 97.585129
-15.808922 -10.137039 85.179123
4.994684 -13.936025 94.187782
-17.863005 -8.992703 86.414368
-9.191324 -13.185179 99.786850
4.977506 -8.580083 79.208176
9.804767 21.875692 57.239246
-4.940058 5.881145 71.536453
-13.771678 -1.154722 111.427261
9.749424 -12.345619 106.478439
-2.952264 10.395231 73.369438
19.937368 6.197258 71.989784
-3.800912 14.744916 60.846077
17.936520 4.418295 82.386421
7.047759 21.722151 64.663742
19.149008 -6.437364 67.960144
-5.609179 5.557931 117.065727
1.343916 -13.034543 74.357018
-12.883572 -3.988970 113.694725
8.730417 -12.941331 97.180885
24.173149 12.385810 57.692791
-9.803547 -17.986979 57.403606
-0.780709 6.320713 113.688416
24.705790 -0.060187 59.155071
-17.773243 -12.736260 76.965057
5.123517 11.095293 63.876888
-32.867020 9.371493 58.209362
20.259247 3.928171 82.687164
13.337308 -16.128965 60.594551
22.949972 -4.680673 76.600868
-21.105398 6.090403 85.015297
5.555897 11.482530 106.761780
16.863491 12.237248 80.523758
8.814888 -8.642920 57.420490
-2.163041 10.933146 92.454315
17.139519 0.978159 97.517754
13.835536 -10.164038 73.079781
14.867215 -5.950806 57.860512
-15.995115 -13.644144 60.800625
-22.066643 -14.207677 73.783501
-15.989507 -7.714907 87.263802
-9.321263 -8.081713 85.550507
9.524025 8.047437 101.222572
9.546284 10.660044 59.850891
23.250381 10.824975 70.159370
-13.628172 12.647228 78.893471
-5.615175 -11.500581 110.337051
-18.809376 -13.568633 73.785759
-10.686331 -14.016507 72.871010
-11.830971 1.770100 116.945259
23.187309 12.002946 58.368500
14.168120 -15.472421 59.024605
-8.337079 -15.094432 74.178772
2.053713 -15.074406 85.393501
23.403547 2.115968 59.317287
-12.200376 -11.131145 63.316216
11.106871 -19.093397 64.404160
1.563232 -14.835454 75.280914
4.028623 -12.117817 61.939148
7.783756 -10.166237 70.231583
-11.427744 -11.828590 64.101181
-20.703926 -0.742518 87.416458
-18.450865 19.009527 60.234955
-18.621046 -3.925426 92.547600
-25.428839 -4.067455 76.429100
4.736367 -7.604760 69.125282
7.074896 -20.116444 62.528137
-12.848556 8.866854 102.630905
-23.125502 9.422018 72.821358
-9.752984 -10.440785 82.876228
-2.569984 10.289477 82.810173
2.811867 11.983845 59.488968
12.796105 -12.105894 99.019821
15.691522 -7.313263 98.347794
14.592950 -14.909711 72.109413
11.840319 16.679762 53.652439
7.922127 -14.109091 64.532394
13.502261 -9.558618 71.538597
17.405840 -2.450343 96.718887
-1.664585 14.544203 78.287483
-3.046414 -13.179738 113.220123
4.959088 -8.149745 65.361107
-8.919362 5.685878 113.246292
22.100298 3.130850 67.762238
7.585219 22.984646 67.088516
-7.926809 -14.819585 90.719734
-6.953279 4.960788 59.083408
-12.241676 -11.360898 89.497414
8.960071 17.737442 70.731346
-0.713136 11.950465 86.702446
-4.086871 -8.826434 72.905022
28.035973 0.005923 60.112095
2.437195 -12.032875 114.713974
2.109385 10.543129 103.841805
-8.081511 9.674584 103.055450
9.605769 -11.182272 60.131401
13.753838 -18.757708 66.179741
0.074632 -17.371542 73.225327
6.226541 17.052643 61.555336
10.880202 15.380453 65.762093
-29.457653 3.970354 62.636387
-4.419349 -12.442597 69.036964
32.284843 -3.221687 64.662811
-24.631304 -18.358503 64.203285
3.941981 -12.525338 110.053215
-5.729498 16.257902 74.511848
-30.573183 -7.929212 61.486217
12.805908 -13.345214 97.222176
-25.933512 14.720354 57.876999
-20.143372 -17.178783 67.761093
-8.651843 -1.867223 58.544342
-14.418460 -3.715983 106.780540
15.179935 14.774855 77.477448
-1.757491 9.573783 106.011963
5.072081 -8.732878 55.957230
13.257237 -4.724539 59.982441
-21.651537 -11.476011 76.876228
-0.478130 -16.621107 87.916893
-21.847803 3.446130 81.879974
-31.540041 -8.209847 62.816093
-7.063818 19.253199 60.849339
3.086324 -16.880789 78.980415
-7.485013 5.129310 65.059525
-9.187922 -8.032121 56.034298
9.187893 16.723015 81.948883
-17.394468 -3.281909 100.700043
-18.217861 -11.163298 74.674011
-5.771673 -12.715209 62.187511
21.413370 -3.853430 82.341187
8.116874 -14.094410 85.381950
-4.155371 8.341330 79.889557
-10.818199 -10.362481 71.511528
4.968328 -11.441006 77.649544
7.728091 -6.552178 89.926430
10.737695 -17.096535 68.093887
5.502494 -22.907049 62.199425
22.311749 5.270064 64.063194
23.420050 -1.149501 72.995819
33.789478 -4.730566 60.509338
9.416238 11.351334 73.775726
19.460693 0.412250 97.482269
3.112481 -20.603960 74.940361
-13.981508 -0.727175 117.437126
0.534207 -13.577893 95.653099
11.687666 -14.253650 76.686119
9.048999 16.435528 76.492790
-13.689214 9.258485 88.799469
8.638533 -15.615357 68.487022
-8.494408 19.701374 73.240013
-26.006849 -1.076555 71.725777
-0.117530 -18.079861 82.386269
-7.295120 6.408490 115.475456
-5.104886 8.996809 66.374451
-4.418943 10.268334 89.533691
-20.410437 -6.918064 91.947609
-2.150942 9.363274 105.319771
-12.728555 -14.643820 74.870575
5.547410 -13.422016 91.206818
-9.413260 7.950018 62.323383
-16.221754 -9.039112 78.556519
-9.363159 -9.756965 84.466690
23.445889 7.400113 58.748440
-10.060478 -13.635679 79.169525
24.535215 -8.727494 60.359898
9.125506 -15.403771 74.160149
24.765205 -1.964105 81.011040
23.091732 0.096410 88.912201
-18.485291 -2.904198 98.650459
-18.386736 7.964221 79.558426
14.036091 -18.379210 79.506645
10.298697 2.837273 112.454369
-12.336370 -8.514074 65.723251
13.788197 -6.733962 61.125576
20.184227 -7.918815 74.763451
-22.586086 -14.362710 69.934433
8.164529 20.847380 73.077751
-9.065098 -11.049157 67.590302
-4.019461 -12.868052 63.438225
-16.330492 -8.597774 96.111244
4.864741 -17.218908 68.890007
-14.089995 -10.578287 81.093582
0.613596 14.804105 60.135159
-16.968483 19.800268 57.717823
-22.529984 -2.028211 76.617332
9.236677 18.568441 60.625847
8.032270 22.024673 68.984665
-5.300081 2.024893 59.278820
-13.347859 15.024810 75.185471
6.221226 18.644934 81.844872
-10.937653 -11.790011 57.940918
-8.930265 -7.625915 61.754387
-5.634120 -14.438036 73.727821
1.220732 -16.224060 88.759598
-4.247282 -10.063177 86.987358
-15.540448 -16.304836 63.104973
14.134659 -15.258557 90.745888
13.290589 11.893600 86.024269
1.214597 -13.082010 108.665344
21.734699 14.577293 64.366165
8.832659 -8.503030 79.781982
31.354256 -3.941526 74.373772
28.075859 -0.594309 76.925728
27.781956 -5.885471 59.503239
20.260679 -1.455920 95.981720
9.087613 -10.271138 100.644341
0.986498 -18.594927 66.011055
0.876051 12.437057 97.305672
-9.738269 -8.981358 89.945465
-18.282881 9.112591 82.898560
13.383482 -5.838078 61.401741
-21.693096 9.058305 76.650024
16.186680 -19.223722 67.718758
21.429523 -5.984628 59.911709
-28.271038 4.094910 68.258156
-8.915637 16.120428 88.719505
-7.896108 12.797696 92.579437
-11.832887 -9.222711 65.982277
-20.155376 9.500182 79.479271
9.891777 -9.999106 114.706779
6.538748 25.343594 61.027191
-25.985285 8.977980 67.710251
14.748199 -19.859926 57.641079
-30.335709 9.534243 58.783363
-8.419020 17.684168 72.809967
1.222999 12.944917 87.254036
-6.488970 -12.480645 100.718925
-15.669904 -10.014897 85.848953
-10.770660 -10.097042 96.319878
8.035134 -5.049923 63.809929
16.009260 -21.144081 61.627502
-8.068748 3.460486 109.982147
-5.377325 -8.782050 80.350723
23.246939 1.485145 65.970924
24.679464 -5.454818 65.723724
6.385359 11.807839 79.016373
19.301062 -2.689292 93.877480
8.402006 -14.541706 56.314449
6.799538 22.874699 58.261444
11.222946 -16.770945 71.300056
-3.503855 7.912996 113.978523
1.320477 -14.498741 68.803467
0.305182 -12.242632 90.174362
-10.208408 -15.858883 70.934761
14.044680 13.979567 56.750000
10.402495 17.993690 63.080467
1.597122 -17.915627 70.802383
-8.385671 -8.212493 102.492867
12.289701 -11.363249 88.357239
6.142209 -19.481464 62.644207
19.609268 4.465604 76.049866
-6.929354 -11.289337 112.851517
-22.593571 12.599817 67.888428
-30.226725 -11.587671 62.266701
1.417008 -14.623153 96.650932
-17.795153 -6.317207 90.581932
-21.897625 14.910094 63.428890
0.453536 -15.984797 80.442635
11.092735 -17.597401 73.630928
-25.241524 -16.474072 63.046574
-8.059758 -15.817889 63.229477
-11.108363 -21.226847 58.420158
13.577951 3.267308 108.585999
13.949017 -20.554670 66.001686
-15.758247 -13.093596 64.945679
-5.941535 13.939224 97.203865
-3.430325 -9.578471 86.891922
18.832003 17.641790 56.295681
2.888960 -17.403431 63.891468
37.471542 -2.384651 64.755188
-7.134259 11.756801 81.788292
3.710875 -12.643761 107.707138
10.047343 -18.089523 63.855278
-5.459293 -9.808496 77.905258
-10.360091 14.502129 86.398849
-15.221919 -12.236830 66.386765
-19.499926 12.041241 71.310768
9.998877 -11.027149 70.465523
-6.052500 16.781162 56.726471
0.839774 8.876968 74.353966
18.750732 9.454142 76.374779
19.518309 5.846385 80.771507
2.902579 12.947844 96.817619
7.979918 18.167679 58.141216
-26.327673 -21.142340 62.068092
-23.206245 -10.536931 69.044891
9.111400 21.822514 66.971062
-8.112377 -9.088283 58.902782
-9.851097 2.345103 116.645836
-2.237308 -11.005175 115.956985
5.601096 -5.590834 73.381012
7.637140 -7.047821 80.662483
12.449580 -13.933506 73.709053
6.155237 17.193964 80.094009
4.523291 12.340635 94.930344
-29.111046 12.353508 61.912556
7.758212 -12.047436 78.733849
20.126179 8.213449 70.880898
-29.628750 -0.352658 61.700611
-15.396007 8.993068 87.445320
-8.681108 -6.508607 66.146034
-11.508652 -12.042936 77.745323
7.511736 -10.804437 97.201469
14.211776 -16.384203 70.133438
-11.094780 -6.521716 57.284019
-5.518502 -10.029046 87.144646
-0.054104 -13.357300 89.329666
35.000916 -2.131917 64.949493
-3.229121 7.882994 78.468979
1.388875 -17.124760 65.038910
6.918393 -13.802687 63.557297
-13.541264 -0.309269 107.096832
-17.370722 -8.051529 84.901703
-6.837632 -16.512575 60.768478
8.491100 -7.471168 59.332840
-8.282876 10.016212 64.087685
-32.434517 9.783076 60.811825
-12.446166 -15.774865 56.963684
22.151400 5.589982 60.971222
14.401680 15.218054 55.157276
-3.819613 -12.535009 61.010948
-6.930010 -10.735172 113.572685
7.563310 8.903687 106.064774
7.423476 -12.390409 79.238358
0.444804 15.108506 76.087639
1.912613 -11.107590 61.115696
-17.984228 -13.648184 64.953888
13.086177 -14.247450 75.365570
-24.538315 -13.050118 68.830444
15.391386 -8.659268 65.901375
-21.781466 11.844576 68.379448
-8.832260 -12.857753 102.031418
-3.700118 1.487361 58.341732
7.494906 -7.555851 62.310047
12.827804 -15.606290 56.953415
-9.119167 8.732942 56.688622
7.538045 3.983739 111.029984
-8.816375 12.950197 69.170830
-2.003087 10.897537 87.738449
-14.300358 -12.457566 66.589798
3.724868 5.398388 112.889519
15.913871 -3.163806 105.193275
6.682184 -5.888487 60.049572
-5.307228 -11.342159 81.803017
-14.658931 11.841256 84.948914
-26.851341 -10.485667 64.768028
17.241016 -0.076009 104.005424
13.641556 -9.450431 63.061287
-22.437748 -11.855339 73.339050
18.287380 8.392735 86.161850
6.584508 20.121050 65.093521
-9.998026 -18.065910 63.549728
5.330118 -14.905181 68.479065
-22.607462 -14.074565 74.650398
3.953458 -12.533551 104.831696
-5.812527 4.251905 58.160217
2.021839 6.743775 112.224121
-18.944731 -4.741092 96.295601
20.915186 11.088481 63.424652
13.797156 -9.922213 95.294136
9.150464 -11.023675 91.622894
11.051395 22.315969 60.950390
-20.258961 -11.941013 74.647026
-0.912731 -10.249269 55.890945
29.025675 -2.873533 76.909897
-7.675869 3.726575 61.887703
6.725306 -13.302753 59.370991
6.066638 9.881611 60.121849
-6.723186 9.381661 60.272877
3.547626 -15.692240 76.107986
-31.598774 -3.570284 60.859745
-0.802859 -13.474628 103.121918
-12.024317 12.800367 96.881851
20.931499 13.834827 69.500656
-26.973234 -3.836507 70.582993
-11.767962 3.707560 110.315941
-7.559861 -15.283566 76.655472
23.180513 -2.712517 83.106850
18.535923 -2.991040 101.182365
22.607189 5.494812 61.856030
-4.901810 -9.124879 70.753365
-8.294950 9.997827 99.000244
11.080674 8.615714 101.671516
-11.032704 11.804011 98.250519
8.085095 -10.715729 58.999783
11.234696 -7.388839 110.139503
-0.573181 15.343518 60.237961
-26.689201 -11.116910 64.998924
6.502628 -13.247114 75.522415
8.210770 14.929234 76.678566
-19.036560 -8.320986 95.145256
9.533042 16.864202 58.051769
27.593370 -3.779916 73.212616
27.667166 -2.918900 77.431725
7.256931 13.692835 88.354279
-14.162454 -11.473579 81.345116
-6.706020 -4.123046 55.364361
8.851187 22.271029 78.922363
12.152759 -13.541026 75.468498
10.021519 1.129471 113.019958
23.937717 9.979316 56.254330
-8.962715 -9.872809 101.174973
7.204217 -4.927371 56.702610
19.108322 8.835918 75.119156
10.279472 -16.906580 81.009888
-10.305169 -17.469446 79.888229
12.869781 -16.024033 84.671326
15.530059 14.031924 69.221436
18.378578 -5.225358 95.241425
-25.634573 14.835032 60.819870
-25.262144 -9.065972 65.798622
14.713215 -7.747738 102.895248
8.751272 17.360626 82.122940
1.787776 -15.489319 102.339600
26.226461 0.033765 76.803177
8.888021 12.786970 71.909462
-13.467069 -5.720771 118.060684
-25.919102 8.805405 73.398537
-1.812818 11.904832 82.606812
-17.652458 -8.118363 93.271950
-1.362857 13.449358 92.492592
3.257390 10.479553 58.140160
-21.495173 -0.300232 78.010078
-30.173779 12.910224 57.870209
-15.339462 20.236126 56.161671
10.777494 -17.548317 59.549992
-29.430246 10.519901 60.160252
1.718018 13.986985 62.802433
-7.614202 -5.731346 54.452030
9.188940 -12.587520 62.362309
2.828816 -8.090229 92.332153
7.015497 -11.898337 60.709084
-5.171753 16.829760 72.846657
24.799610 0.600761 70.515831
6.038916 -7.931319 95.550636
-17.960295 -5.289224 98.273758
2.732873 -16.756651 89.061325
11.186573 -11.151512 57.240829
-20.394094 4.205436 87.635857
-4.111160 -13.413679 56.468678
16.492645 -5.208724 55.853863
16.783710 13.052808 60.781574
-18.154381 -5.553030 106.208267
11.028816 -16.897720 75.213692
13.088554 -21.074978 56.536026
14.104488 -6.469758 104.481873
-10.473834 13.352944 77.751137
-10.631730 10.725268 82.897163
10.401918 -3.203754 61.793602
-19.944319 6.977551 89.500832
-18.804689 -7.369433 94.897240
-18.423685 -13.678744 73.130203
-4.917694 -13.405094 69.179131
10.543963 -13.340973 97.707993
20.518568 -4.553663 74.472618
4.563283 20.833326 57.288242
-10.099573 -5.265920 67.994011
14.273261 -22.283092 57.468800
-21.389259 -19.633833 59.360050
-7.032276 12.821013 57.150909
-22.309523 -12.124583 66.643890
-16.229006 -1.903147 101.765663
-25.385923 -3.517927 71.477242
12.749269 -4.276201 57.256927
17.555437 -6.818969 86.467094
-16.827637 -10.104727 75.253609
0.417234 6.112143 111.084549
-13.424022 -8.847338 96.525856
1.872704 12.281179 95.463394
5.473047 10.034677 102.031448
-7.681511 -13.784883 105.477524
-6.379879 -6.462138 67.169304
-8.027936 8.241856 63.707706
17.705929 13.593900 70.575951
16.705381 -8.181656 92.495171
6.266373 6.807846 110.611000
6.620562 20.765291 56.116131
6.856712 20.054831 59.277546
-1.672577 -11.757753 106.257843
19.041162 -3.233015 93.483879
-21.623962 -1.961003 89.339828
-8.796115 11.916656 102.551048
-12.164448 13.729259 76.662666
-15.973825 -5.131594 109.617874
-23.536413 18.304306 58.693874
15.958763 -5.682384 101.891846
-20.683086 -3.850679 78.559586
0.708344 -18.812738 82.582420
-9.533283 -12.646865 94.189507
-25.568895 -16.030621 60.590088
-9.003245 -15.226017 89.082298
15.303908 10.838227 88.254112
22.573244 -1.497547 77.126877
12.228688 9.024430 99.615608
-27.822687 8.472999 64.461449
-7.827944 -10.419714 74.494576
3.883378 10.953407 58.123840
-15.086893 -5.999014 109.684029
8.675879 -10.238364 113.239441
2.500982 9.662999 101.048538
-12.071415 -10.601093 57.859734
-8.499216 21.267012 59.042923
-2.621122 -10.990326 115.598938
22.400970 10.908238 74.414001
-6.925688 -9.311248 83.392769
-26.042070 -1.611137 67.630051
-7.745042 -6.765538 58.238392
8.854242 22.224770 66.814827
-18.034258 0.468172 103.648949
21.676178 1.794539 64.548157
-0.891987 11.461642 88.355911
5.927902 12.462688 79.652191
16.005074 -8.749641 79.622864
-3.801807 6.894199 115.913139
22.685734 5.093234 58.148235
-9.268269 -4.396544 57.104649
3.898905 -14.003138 65.763496
-27.697050 11.869015 59.217152
3.058060 12.012712 85.020622
21.737064 15.414631 59.731636
9.820913 8.481530 102.186752
19.064150 8.586738 74.385689
9.157248 13.642222 59.877995
18.688362 -6.269145 66.240402
-12.887946 -12.838063 67.805931
-6.968232 6.724922 72.147339
1.873936 11.778065 88.105606
-7.031858 -9.371782 111.935585
16.429281 0.678519 103.032784
-20.333954 7.855655 86.011635
7.679546 12.042350 87.998383
18.930334 -0.632462 100.204941
-5.981650 -11.842204 70.939125
8.514708 24.496284 56.772141
-20.238708 -11.170679 80.844009
7.499265 23.256931 65.787331
-5.207802 6.118030 111.192520
-1.322443 13.647258 77.015022
8.818258 -15.042293 86.154732
7.456771 -11.749874 107.480873
20.473810 2.462856 89.707733
-4.655545 12.344220 97.766289
15.169422 -8.032925 107.877029
15.961473 -8.597209 67.254837
-3.989189 14.748888 66.868790
25.307457 -0.373222 84.250206
18.746012 10.079899 91.426239
-9.220770 -17.291521 72.005196
-7.196863 -9.500309 67.066902
11.367439 12.604170 91.990303
14.977142 -18.369833 62.161026
-19.084108 -7.273856 85.302170
-10.713030 -9.068732 100.243126
9.456877 9.521091 103.482376
11.548585 -15.833271 85.677963
17.502932 11.512401 79.689819
-6.737172 11.773651 61.001694
5.697915 -11.383978 74.807037
-12.110307 -6.400854 115.461823
19.258303 -7.299572 65.179619
-9.134002 -8.795382 114.539581
7.359078 21.043922 69.633995
-32.086773 -3.783242 63.492756
20.648750 -3.001407 85.630898
17.565475 7.180743 84.305786
-15.327036 13.162658 80.787666
20.380838 -5.835514 57.278858
10.031500 -19.026102 60.417164
16.090687 12.268561 79.430168
11.554035 -4.708846 115.515907
-1.797066 9.565988 99.463173
19.245338 -6.027259 88.552322
12.502431 11.929358 73.023705
18.361099 -6.479887 87.685547
16.747723 -2.511436 100.186722
-5.448861 -11.324820 113.125992
-21.985508 -8.956273 75.592743
-10.710320 -7.657012 62.150768
-9.388592 -9.337529 108.630653
10.035034 -11.264415 58.614223
11.325245 17.087831 55.900902
14.643395 -10.786876 79.580925
1.173755 -18.461212 66.998055
21.276094 2.880664 73.965912
-5.096070 -11.216667 102.223625
19.293116 6.173663 83.605156
-6.609684 10.900325 72.337662
-1.964856 15.224517 79.851379
22.799906 14.612089 56.014977
33.118538 -1.513859 68.966278
-4.343624 4.899003 58.540134
3.892034 -15.707345 72.303886
10.174205 -20.843727 57.301445
-6.706485 -8.300126 79.497322
-17.386728 -2.110953 104.460938
0.436872 -10.763788 67.164566
-5.938788 12.606105 87.508263
-1.326722 15.868940 81.651543
10.306521 -10.573009 105.479370
7.644202 -11.632837 64.905388
-12.725273 -16.482080 69.708084
3.372642 -9.934956 79.112457
-12.200525 -0.033727 113.358124
2.911713 -12.357148 90.196571
-14.301111 10.195047 92.460022
14.842381 -20.793530 57.365166
-9.789585 -7.943911 58.451359
12.337111 0.127749 112.723030
29.072611 -1.020740 77.942429
-6.715388 3.142392 60.360210
6.987095 -11.920134 96.370148
0.730794 -13.608637 72.678719
10.738632 -9.624027 72.454910
7.982863 18.338171 56.529781
9.310831 28.091383 58.011986
-8.288028 -16.342634 62.699707
3.612214 -14.062150 92.458015
19.100773 -3.064072 99.201134
-20.650356 -8.631776 88.325645
-8.197624 10.426663 104.667038
8.069279 -4.965217 61.976765
-1.198276 11.694257 90.341019
-7.290833 16.694809 87.052841
17.028347 10.749521 81.427078
-27.894966 -12.798120 62.242298
18.944431 3.872251 95.393166
11.727736 -6.456019 116.671310
-12.526726 12.461735 84.267578
2.561364 -15.081166 112.491814
8.079932 -9.945510 97.387390
-17.384485 -9.028236 85.843277
27.244160 1.168728 72.930893
4.290653 -10.461749 79.130989
13.030866 -23.082794 55.396858
-5.584709 5.330042 61.982765
-10.553054 -17.196142 73.978775
-21.922440 12.600681 66.060234
0.090950 11.754960 68.418648
11.064989 -9.240715 61.413746
-33.055134 2.237380 61.641075
-8.550364 -9.512962 114.307037
13.212087 -23.125422 64.187286
-5.808997 7.960721 109.913712
25.100874 -1.885469 77.578682
14.496844 -10.269963 71.996414
-10.936498 -19.728752 56.215214
-18.467522 7.078156 90.700211
5.847783 12.757437 94.490356
8.474935 -9.154077 72.161942
11.867885 1.976657 113.271187
18.463139 -1.049549 100.499855
22.208416 -1.235262 60.467339
30.417995 -1.996913 71.495094
6.122394 -10.642641 106.081566
9.009806 -10.999227 103.623360
-16.950523 16.359812 73.037415
-4.290944 10.752933 66.837044
6.341875 10.718047 107.306931
-13.427646 -16.223270 58.627426
-8.725744 10.696720 73.309624
-19.540827 -8.036756 78.094215
-32.432812 7.870364 60.370022
-15.870042 19.628380 59.798855
14.332750 -15.458447 64.465752
14.695407 -17.514057 64.380119
9.389421 23.401007 61.090889
20.292240 -1.602320 91.053711
0.755917 -19.053049 73.585823
-5.618350 19.982594 58.789890
12.785098 -17.656584 78.392372
2.887213 7.717923 115.315346
-14.871999 7.900053 96.275543
2.669767 -19.301432 60.448135
-18.968365 -6.109249 86.970337
9.833193 -14.979694 59.883862
-34.372452 1.191210 60.724239
3.843828 -19.215248 76.624207
6.072546 -10.623981 96.271210
4.424290 12.343690 61.089725
3.840728 -6.630001 74.259758
12.797602 -4.518295 112.328018
8.732635 -10.532269 77.785950
-10.181064 -10.438732 101.182182
5.977183 -19.312902 67.619812
6.736706 -9.777304 88.610428
8.990770 23.703623 59.637890
-5.733942 8.708303 78.327568
3.503247 -9.611115 60.198734
-5.511434 -6.731980 71.796661
-8.701790 -11.539291 105.796402
16.233370 -6.775987 102.812111
-18.146515 -10.537444 76.099396
-20.698576 -18.659538 70.667648
-6.892316 8.078505 68.757629
19.257839 10.252733 79.141541
20.680342 5.345763 68.719612
-28.163641 13.688564 57.748314
0.043406 -13.589155 84.020485
-28.380482 -10.438131 61.863541
-8.997766 -12.975782 77.593178
24.333677 -1.076777 67.307518
4.575422 -13.562591 96.215027
-30.890181 -2.715310 66.311852
14.139316 -4.233463 110.886040
15.287938 -9.496391 86.891167
11.534616 -10.160396 81.217415
0.318345 10.008787 97.647079
2.684734 -11.076818 108.672424
-4.289906 19.282825 55.286945
-13.383401 -10.845891 74.578072
3.712500 -14.448977 95.369431
14.805510 -5.314593 105.006638
-10.663009 -10.012593 92.308800
17.673759 4.956069 84.074585
11.302457 -4.155342 116.013351
-29.645908 7.685575 61.072186
-26.581263 8.401855 68.256737
17.621435 -9.047948 79.740005
6.102010 -11.062365 57.212772
14.718860 -6.105636 107.091492
-18.906021 6.524280 88.919479
-11.910668 1.235671 114.820244
6.653213 -12.516254 58.618504
-16.577417 -10.514265 67.864288
9.216583 -19.466412 62.663395
19.786062 -5.407589 85.399246
18.389183 -7.883369 70.400230
8.056597 -16.897947 60.976788
-16.000704 15.818251 77.511261
-3.318282 9.837809 71.264091
11.750260 -9.976238 94.346886
-29.852489 0.681783 62.714420
-27.857302 4.774151 70.114067
9.614213 -17.071835 84.018028
-17.220350 12.795989 80.888901
-2.334120 -10.170588 63.522175
21.095646 -3.883118 78.367096
-16.590792 12.639586 82.393913
20.118629 -7.251279 58.185028
-2.722045 14.117085 67.177666
-11.069233 -9.932285 72.788177
-1.087305 -10.133882 62.397919
21.607582 -8.108114 62.349834
29.554575 -5.124572 61.816959
-16.579502 -17.221794 56.897499
6.696512 19.673819 82.917999
9.893661 22.729572 58.011387
8.314944 23.497576 59.189426
-8.084662 -18.772947 57.498848
-9.723469 6.968944 99.897995
15.116452 14.201732 72.439941
28.914974 -7.973883 64.403656
7.153813 -9.883740 58.352043
0.929813 -16.316673 96.628349
7.014887 -6.790358 62.053699
-9.113419 12.708121 93.451263
-10.832251 9.411113 100.120972
-26.515018 -7.820715 62.585758
5.751498 -18.685204 64.185257
27.146660 -2.880957 70.109535
-18.591120 -2.971543 86.361305
-4.911645 7.514542 112.841278
4.031151 -12.305649 57.472454
-15.594402 -10.444539 79.554733
12.335699 -9.763250 79.675941
-15.792391 -4.911280 115.227257
11.934740 -10.264965 92.462479
24.330061 4.836856 61.198788
-29.616760 5.766460 63.317825
0.494168 -14.855712 65.569504
15.399947 11.599668 75.103790
16.514034 3.146526 95.927216
12.550527 -16.582218 56.837261
-7.809101 -10.033112 110.925644
-10.604959 -11.845246 71.985947
-12.445655 -7.349826 97.818909
10.890915 -11.062788 81.487518
6.675812 -11.505204 74.095650
-12.177176 -8.030966 77.642708
-0.157145 -10.352094 59.282696
-4.950814 10.048018 66.668320
2.974837 11.679079 60.824341
-11.990196 19.385273 63.782787
5.092814 16.339123 76.410629
-12.771639 17.282309 87.392937
-15.253833 5.187229 103.774773
7.832343 20.835543 74.765717
9.507096 -12.155954 107.888924
-7.044584 6.020598 64.819633
5.893407 -11.174545 62.459518
11.705863 -12.265996 78.383347
12.844981 -9.790301 83.148811
-11.789461 -10.564940 88.830391
24.274765 -2.949772 80.072639
-28.937212 -10.852698 63.797146
11.279519 -16.740685 63.833157
11.900962 -12.625305 100.737251
-15.895390 5.924180 90.856201
20.752996 3.672347 90.351822
-5.702704 7.786660 61.356316
1.323048 -17.716034 81.830101
0.183678 -21.482977 78.147324
10.320817 10.986743 80.364891
16.161301 1.278892 105.950752
5.054919 -8.514466 91.455910
-18.761427 -15.530182 66.512505
11.819995 13.572999 68.071320
-20.169106 -6.158277 80.903465
-16.196348 -4.804344 103.555222
5.154313 10.174278 62.750851
11.296721 -2.626437 115.912727
20.122074 -2.302992 81.512459
-5.604572 12.520450 86.968254
-17.765083 1.652364 97.431297
-12.515809 14.514742 75.165947
12.626198 -13.134485 55.452637
3.436113 5.964978 113.671837
9.456824 -11.717544 84.701950
5.047909 -6.453426 56.101856
13.202230 10.092350 86.297043
-22.811911 8.701903 72.738434
-7.347784 13.347511 63.800262
2.506018 -15.644984 91.807617
-12.425634 -17.696680 66.548668
16.273539 7.118809 95.473465
-28.316027 5.727375 68.541542
11.749669 -12.649304 56.813446
13.669695 -10.043441 97.676582
14.994750 -6.426579 101.413757
-8.011267 -8.471634 68.136772
20.736950 -5.303759 66.990959
11.728662 -7.394570 56.568733
14.756691 4.272356 98.908966
17.294222 0.596857 96.665672
15.836356 8.550722 86.073708
-16.167429 -1.911892 108.046158
8.830410 -11.132263 104.292603
-13.106297 -11.468431 56.442825
6.839213 10.892210 64.789726
-16.729395 3.467489 97.233337
-8.719517 -15.357861 94.997849
-7.711272 16.692402 64.062263
-26.072868 14.655666 59.161011
-10.559588 11.086968 82.817146
-20.893494 -1.653946 84.814644
5.788561 -8.054901 99.851585
29.883005 -2.567918 73.450920
-26.265255 3.596615 71.360634
-12.663725 -9.757632 61.046978
-4.387811 10.812321 104.001671
3.058732 -8.966759 79.630875
-4.772809 -11.892609 60.550976
20.693747 14.910816 57.917454
12.462510 -7.731475 55.969048
-0.171526 -11.378411 81.182632
-8.256258 -8.810892 70.937996
6.366335 23.122921 65.255959
19.013754 -3.415202 95.777657
-16.221502 -8.894156 87.294777
7.307746 -6.120604 75.645393
0.806109 -15.015428 91.838684
-8.026118 5.747349 110.004562
-11.496992 14.067032 75.074791
-12.273271 -10.974180 72.184830
-8.981274 -8.891596 85.786980
-32.029579 -4.291385 60.203190
-12.781854 -12.957808 57.100079
0.772630 -12.109090 85.620895
22.092934 4.250584 60.450832
16.297522 10.716824 89.941246
-24.936224 13.194460 65.695770
-9.477901 -10.295147 101.282852
-3.980992 10.593087 73.377831
-7.803562 -16.886091 67.750931
-7.560288 5.079559 108.225647
-8.827734 14.443221 92.124695
11.946411 -9.227128 75.887848
-7.183342 -12.864727 104.814232
-5.026900 4.081609 60.485764
-6.311571 -14.996436 60.986301
-2.965255 17.855165 70.013542
-11.668653 -0.400963 117.035568
14.642266 -9.171325 105.841072
10.859462 -2.841682 116.101601
5.756209 12.156866 69.608345
-9.583838 -8.048028 103.523071
3.175376 -18.378752 61.301998
6.758308 -6.990291 88.586731
1.965973 11.430223 68.541786
-7.526530 10.632255 82.950653
11.353161 -15.188730 69.901901
1.743449 -12.297687 107.740959
-7.718910 11.616236 98.873581
5.104983 -16.674452 58.958408
1.042379 -14.000995 100.880325
-17.658871 14.835476 70.175163
1.734630 -20.818836 64.948402
1.094555 11.980662 60.854069
-29.473673 10.552769 59.590061
-5.761362 8.577688 70.943016
15.799419 -0.152439 104.737160
10.035068 -21.456432 58.679787
-22.181389 9.591819 77.527954
-1.742805 5.506811 114.833542
21.812414 2.041005 62.218029
5.676988 -19.913748 63.491390
8.790991 -6.838482 69.656059
-31.983807 9.947059 59.684193
-14.762902 -11.185763 88.820587
-18.217045 -12.634212 80.533279
-18.022535 2.650308 87.037148
-19.281822 2.526175 94.120323
-14.869746 -5.448485 105.062309
-21.270428 -9.062057 72.705170
-6.605955 8.862826 69.323647
14.710150 12.382792 81.705620
-26.935095 -7.427966 64.944206
-0.453092 11.601753 96.346336
2.718618 10.252869 106.643486
-0.302293 12.046254 81.991531
-9.478802 -15.632958 87.929466
10.678654 -12.631711 91.066277
13.051685 -12.825041 85.257935
-6.767160 10.862077 83.250656
-5.178741 -10.545197 72.707077
7.525440 -10.703384 80.681572
16.373938 -6.402393 94.724876
-15.033960 -11.756861 69.266800
-14.412211 11.274753 87.966911
-5.606293 -12.813786 110.663780
-4.142858 4.822425 60.462143
-13.243495 16.003759 73.271698
6.233871 -10.393277 86.285606
-12.671204 -18.548485 68.795311
12.758149 -10.874002 86.766777
8.900484 19.004175 57.678654
10.252965 3.040112 116.346237
3.519508 -20.877718 66.938194
-33.086437 -2.871779 59.185204
-9.727235 15.533843 79.776062
-0.711487 -12.726984 80.678734
5.289951 18.945518 77.283257
-7.630195 -18.236086 70.452568
-12.699607 17.755058 65.537781
-24.265862 20.170780 58.323212
-30.159950 5.229881 63.989536
-6.439942 -15.048040 66.738762
-10.439617 -16.984274 71.409691
-7.855003 10.192861 87.523796
13.208420 -10.957534 87.446121
-3.674693 -7.801533 74.006348
33.793194 -5.136467 63.040588
1.983729 -14.392670 106.601486
-9.697651 -6.178197 64.507233
-20.251757 -15.563276 71.829369
-11.531712 -14.989434 69.462639
-6.309746 2.850320 61.219753
0.307906 -20.351067 69.753227
-12.000870 -1.169384 115.714836
18.496592 2.821342 92.268318
8.690796 15.656629 75.199509
-0.357211 -15.283394 107.148216
-5.924523 12.281821 84.306862
-14.235415 1.278344 108.280945
-20.155272 13.760275 70.302849
10.953929 13.257666 96.229347
-9.241890 -9.797071 62.978310
14.609708 15.720526 58.220875
-11.266066 11.376515 70.102257
14.795784 9.602966 84.741463
2.900319 -14.489838 101.266174
-4.525634 -10.827077 69.469383
0.243757 11.238837 83.241753
5.728792 9.356090 68.872116
7.098074 -15.244844 64.075272
17.100056 11.024453 69.878777
12.014283 -10.540443 81.924286
-19.141926 -8.061255 92.710289
5.302322 11.794470 81.489799
6.656230 16.231058 92.004379
-1.473820 14.165680 80.860893
-19.987503 -8.603387 83.131668
7.986750 9.086359 103.239807
-32.785797 4.519251 59.644341
-20.365267 12.662769 71.306671
9.714479 -17.305492 67.276901
-19.152105 -9.586090 93.016144
5.783333 -8.732188 61.697010
16.874439 10.301500 87.246292
-10.977461 -11.581547 55.015720
3.423394 -20.134344 68.671455
5.989340 -17.997498 63.256092
-20.342241 -19.088051 64.388100
6.747388 -9.401291 114.475258
-13.446041 -15.470280 56.259964
-2.352436 8.504745 84.042107
13.070433 -11.994583 85.351761
18.779306 3.720008 83.935692
15.868393 -18.539030 54.920574
-1.686676 -11.786139 106.206551
-11.358273 -16.976582 80.338097
-4.602175 -14.212092 105.689041
7.474685 -11.840673 78.812256
5.690656 8.390063 107.687004
-15.522309 8.939438 84.499908
12.926282 -0.688484 116.942467
-18.626490 18.151052 63.639000
-14.958905 8.812377 88.489937
-20.154552 -11.992598 75.881584
3.801704 18.992685 65.171623
10.822712 18.146963 57.919849
-25.120281 -10.124276 63.001381
3.178134 -15.565525 77.210846
-9.757260 7.029290 71.770378
-23.156647 -6.347298 81.009041
24.683733 7.946058 58.453403
11.198171 14.668488 71.766792
14.675980 -20.937506 59.651939
-12.307352 -17.973793 60.970158
-2.957836 -11.880933 56.494644
17.217613 0.075466 98.229950
-13.043152 -10.808650 58.223900
-24.408846 4.085987 74.856674
20.804241 -5.139935 83.706871
4.871651 -7.406404 62.475719
10.002786 17.204435 68.447662
-7.106056 -12.440302 116.286087
17.698372 -10.612787 79.645378
5.607538 -7.480983 64.986298
-5.434028 16.581545 65.220741
-1.411584 12.120579 83.372276
-6.773167 -4.521392 57.231853
-25.585052 5.431326 74.763123
11.575738 14.247174 60.813213
9.309778 19.612907 67.660278
12.208843 -18.155313 65.870323
4.845089 12.958560 90.433578
10.134548 19.326878 63.662083
-0.831607 10.930466 93.269920
-6.916818 -15.489254 57.787773
-2.586625 5.924453 60.193462
-17.508261 -8.129088 75.899895
-8.084124 -10.075985 83.084755
-22.209137 11.085390 68.740410
13.685704 14.398007 59.771908
-9.841552 -8.534871 111.483322
8.448418 -14.014471 57.039860
-13.648210 13.028894 85.552422
28.652428 -0.274492 74.520462
-9.036147 10.217758 81.677269
11.459625 -18.096256 56.694595
6.551769 24.495770 65.944374
2.404996 7.285191 115.245667
-10.030974 10.478037 77.574364
18.393700 8.535801 81.990913
-0.147552 -14.768818 81.927544
6.015385 -5.270677 57.518555
9.742058 -15.231983 84.890755
-21.218412 4.091385 86.934418
-14.603429 -10.021870 58.024284
6.206490 23.372660 64.456879
-2.983747 11.028597 79.638474
-18.498575 9.115820 80.401344
-21.725321 -9.158576 87.156570
8.205307 -10.997392 84.120781
-11.236843 -6.985984 111.646591
10.072437 -15.640801 85.371872
-25.056242 8.247872 76.645958
-19.633158 -13.313849 77.079964
-18.776941 -5.298047 96.763489
3.660078 -15.295228 97.026711
28.800058 -4.463786 61.562641
-5.409619 4.451059 115.119751
-23.483521 8.561461 73.891884
-11.047850 -8.651231 87.565437
11.252371 -12.984301 66.413086
-10.047873 -12.822695 79.984581
-4.333195 7.764405 61.932835
-10.435908 -14.839739 73.622543
-6.816933 -7.086781 73.025360
-21.791946 -6.172545 83.029755
-14.387643 -12.319454 64.762840
-5.756924 -13.716849 105.321228
9.615677 12.429820 63.740643
1.520880 13.054391 60.705456
12.165667 -12.937569 59.030186
9.590691 -4.340949 63.780582
-5.978865 6.405866 59.361824
24.269327 -2.335410 75.110023
-3.383442 -14.376060 57.507481
5.759761 18.276520 58.619263
5.170377 -11.081846 91.744316
20.467760 -7.628278 74.220634
7.959762 -11.889184 87.352562
-0.686246 -18.208237 75.003685
20.833519 13.309988 72.771156
-12.552707 10.637632 87.445267
-17.147955 5.593095 87.657524
8.805165 17.255524 78.734680
9.745502 -13.535977 64.230743
-12.274924 19.234047 61.545124
-8.339032 -8.431034 55.562183
11.768568 3.700643 113.964088
-18.694656 -8.918014 84.108200
6.634076 -11.274778 89.635689
-17.102348 1.805952 90.427467
-19.408512 -6.690975 91.953743
-12.807882 -20.296906 60.169613
25.226280 1.035351 66.540703
15.843953 -17.152662 72.908844
-11.666842 -18.505302 59.505226
-12.597345 -11.231787 83.999031
-4.715527 -13.844541 86.085060
14.465212 9.240414 96.530701
-18.778597 -3.912662 80.587097
-7.807499 16.233778 73.761070
17.189983 15.875055 56.439465
21.853088 1.557100 70.155624
0.795922 -16.874973 87.468353
10.385997 -18.316586 59.766762
-7.670991 12.309099 93.704018
-29.518003 12.663401 59.613541
-12.158478 -10.677515 98.551933
0.164711 -11.621796 80.338898
-8.347314 5.756748 60.912544
-7.877613 5.966993 65.196617
7.788656 -9.443222 65.894531
14.575882 15.940619 58.726143
-14.203485 0.865934 101.685913
-6.043511 7.645032 75.230011
7.143771 -5.183266 71.340515
-10.999005 -7.570289 71.329155
-6.641425 -11.222586 55.738518
-30.301601 -12.567071 61.482891
-14.655098 4.914051 97.104103
13.231564 -0.918533 108.723251
8.875273 11.099439 66.628319
-7.785006 -11.760166 95.126068
-5.834969 5.701376 67.000755
10.017277 6.142522 107.811371
25.494659 -1.201960 85.084946
-14.745498 17.838800 63.770226
12.322897 3.088844 110.327225
7.047742 14.703303 91.328865
-2.471181 -10.413796 78.082985
-22.150476 5.425586 88.055145
-8.117899 10.704163 77.244431
-3.974590 -10.075562 93.698891
12.798593 -11.402172 66.539001
-2.988862 3.888213 60.902039
-17.124395 15.400578 72.524620
27.822775 -4.661274 72.997482
-6.386098 -11.714852 101.036774
-27.966103 -12.976378 66.074120
15.540233 -9.052109 62.390419
-5.748164 21.216751 59.532986
-5.193470 -12.151743 75.051079
6.091897 -13.543383 63.440681
18.941757 -7.941960 82.511421
-28.341749 -1.748995 70.649765
-7.502832 -10.055957 70.983955
1.712668 -15.623427 89.397484
1.831135 12.894808 61.904388
-6.692178 7.962736 73.117546
-19.108559 -14.152369 64.850769
-12.309412 -12.536256 79.899025
-17.447773 -12.462044 64.093109
10.562497 11.316399 82.493225
7.083607 11.989480 61.545971
-20.040121 -7.350905 92.005379
18.399866 -7.863681 70.119705
-10.550547 12.563691 86.790726
-7.998022 -19.668831 61.668209
30.401077 1.987090 71.892181
20.495401 -4.271220 71.402023
-7.772682 8.871483 71.232315
19.079184 15.052691 75.189110
-17.557568 -10.584564 78.248215
-13.839322 3.973205 109.117813
8.234010 21.408377 74.651085
5.537990 -8.452199 89.334175
-9.934327 -11.322357 96.509666
-15.115101 18.906458 60.166359
-5.464161 7.279035 109.839890
-4.377031 2.760493 63.666889
-7.092511 14.084132 62.265179
23.742817 0.875809 70.582443
-11.916340 -0.909644 115.512405
12.922123 9.452171 81.294205
-28.746149 0.086855 60.596130
-9.348843 13.268315 79.014061
-10.283780 -16.444090 82.154495
-13.072043 -2.903463 115.131569
8.203897 7.615432 104.147987
-3.930258 -14.638451 59.439228
10.506501 21.550877 60.626041
-4.394144 -13.310390 96.545891
3.744828 -13.410767 92.609268
7.496284 12.699978 80.936462
-2.295074 -8.384711 65.322792
-20.332760 -3.978593 80.290016
19.577326 -2.668404 82.181793
-2.819264 -12.734395 116.136879
-10.361323 -6.322892 64.370041
-1.952173 9.732696 79.683945
24.208147 16.158426 56.771126
-22.254490 21.468149 56.791275
2.712041 -12.124254 60.465973
-17.442085 -9.448638 90.112846
13.137852 3.823508 103.453896
-28.693682 10.637374 60.163067
-8.493688 12.524160 82.426689
5.588523 6.279353 112.244606
8.942284 -9.162403 72.776123
-13.857496 -10.228766 97.987778
9.300441 -13.800841 86.406883
-16.040096 -14.904395 64.762505
-5.188603 -11.696256 108.773308
6.490986 -18.511774 58.840988
5.986022 14.106383 89.715179
17.457201 -5.283334 92.889877
0.113111 -12.113872 59.424709
-15.997339 11.382298 79.533707
6.326523 -22.161234 62.078094
3.232719 -23.973583 61.341038
18.680496 15.280011 58.798023
13.130447 14.358635 56.802475
-7.493016 -8.496894 91.136505
-10.451662 -19.145479 71.946251
4.169703 -14.637348 61.034157
-6.016046 -12.882627 95.555748
-6.249365 12.206380 58.961044
13.555713 -3.301770 115.912758
-1.968345 12.352262 92.134155
7.093160 -10.003883 79.668518
-6.395753 20.898621 57.418201
-6.865321 15.339036 76.583702
-8.488485 -7.871859 73.986198
-19.637239 17.830893 57.620239
27.674324 -3.078039 76.278603
24.984016 0.896091 60.457600
-5.299135 5.784317 65.596199
20.370052 9.231829 81.725121
-12.971518 -3.079715 116.563858
5.617627 12.616981 82.832108
2.552814 10.449746 83.522491
-14.938161 -8.344048 94.212639
6.447168 8.149006 110.523422
8.609615 -12.271868 64.786583
-8.007702 17.272022 61.525177
-16.289474 -9.464183 89.128426
-17.309584 -6.483901 99.164726
-10.713426 14.727671 95.442017
31.089979 -3.243830 67.372314
0.376672 -14.516113 75.720520
-18.351341 -4.043522 94.553116
1.667509 -11.919101 71.758606
-12.329561 -9.274608 113.447998
-23.034267 -6.317689 70.339828
-5.435514 -11.646626 102.568222
-2.198584 11.553842 94.985062
27.495949 -5.378242 73.987411
-11.850826 -9.849601 77.578148
9.057794 -10.868945 67.176231
-8.416008 -10.770580 65.332115
-2.345153 -16.432302 96.202759
0.571984 -18.330742 74.180908
-10.012082 19.632896 75.952835
9.221404 13.252993 64.576736
16.257950 14.407781 68.886734
-22.218344 -14.468577 74.060928
-16.608721 11.460599 84.517387
-10.552875 -11.041390 66.520096
19.352806 -6.400464 73.890503
-9.536030 -12.633931 68.989296
-5.221932 16.919781 73.195305
1.465362 -15.373913 98.049667
0.971384 -16.440031 84.894127
-5.440847 -12.450538 66.632011
4.645549 -9.519299 81.037636
25.748913 1.788902 58.506645
-23.907806 1.287519 78.916740
-1.569352 7.093553 74.502571
33.690807 -5.069839 63.651703
11.513679 15.479471 64.550339
-5.048530 12.861279 61.240074
2.026613 11.100104 69.158478
5.282255 -9.830866 101.122696
-1.100955 -9.123597 89.990364
-4.813340 12.351315 61.795830
-5.201236 -11.154321 92.866592
7.011134 17.131470 85.303299
-3.168416 12.627253 84.428589
20.928007 2.500106 93.956062
4.645594 9.982729 104.031540
8.779446 -14.715722 80.842316
-27.584505 10.393454 65.719223
11.022495 24.299036 61.584999
-19.905910 -7.271325 87.640221
12.518190 -0.576259 113.774979
1.165403 -17.739836 84.642029
-0.480807 -10.632073 73.374825
-9.529090 12.621899 85.170685
8.573307 12.178073 62.075481
-7.979171 -5.467786 61.514576
8.817437 15.400769 74.554497
12.192991 -9.736571 96.163208
7.539850 14.185382 91.290535
-5.061830 -12.503299 83.887405
21.755495 -3.936772 77.395935
-7.366534 -12.406905 112.741432
16.475790 -0.014434 98.676704
-17.212231 -9.868160 88.782509
-9.779300 10.306148 101.979080
-7.945856 23.025105 57.809898
-0.923141 -11.001555 85.019836
10.069869 -14.983974 58.769497
-22.167015 7.607525 82.753761
2.928841 -10.701859 59.163647
-10.821199 12.108228 92.849075
32.676487 -4.464672 64.410057
-7.209328 -8.069875 74.748619
-0.938101 13.668206 70.210625
5.024012 -9.061482 60.142551
6.452432 8.525634 116.503815
13.030743 -8.298017 113.380219
-6.720163 7.480575 72.215057
29.820681 -1.608181 72.521835
-17.595377 5.029563 103.326340
-4.654292 9.186400 55.677551
-27.522745 0.359309 66.177414
6.753234 20.882719 62.236774
12.709302 -15.304397 88.558784
-14.067206 -4.561518 113.984200
20.449249 8.956806 76.228355
-7.280817 -5.292912 66.439240
-13.914820 -10.328286 60.872551
20.264561 12.125052 71.370094
-0.021355 15.488074 85.180450
9.169623 -12.686598 73.037483
5.661022 4.669553 116.065834
-13.271821 -7.864451 113.614365
11.633853 -9.089675 91.101204
-6.094344 1.463640 60.102379
-1.180217 15.486032 84.331718
-6.961363 -13.152562 74.660812
-19.110815 15.263954 70.187080
-7.434407 -11.306420 108.423958
10.130030 -12.782071 92.040092
-6.475792 -10.826287 100.290283
7.951750 18.903738 79.828300
-15.043398 -2.909724 106.959473
-4.557491 -11.710658 58.927902
-22.280117 8.604465 77.751259
-2.657278 5.001518 116.382675
22.329126 0.823577 69.352119
-7.037780 -15.632336 76.534897
-8.171161 -11.550730 102.717987
-0.532344 11.586435 75.661987
-25.442574 -8.157425 66.185699
35.544914 -0.929077 61.615704
-2.324255 -10.479575 67.488327
13.749705 -9.549761 76.579803
-9.320210 -15.629146 64.986412
-3.540167 8.680206 86.105354
3.464285 -17.101456 74.765999
-17.774385 10.742170 77.870819
10.166370 -9.975979 97.859428
15.143018 -17.121008 57.904572
-15.767630 -4.761824 106.351425
-12.152193 12.326585 98.851494
-25.825739 12.114660 65.179649
25.168287 11.748354 59.604218
-9.326616 13.588538 77.664864
0.906447 11.591287 78.446030
-8.604351 -9.509359 60.562984
-9.270804 7.542517 85.706985
17.672140 -9.215559 92.434311
-16.925444 19.158237 63.225166
-15.377573 17.632599 62.859478
7.207492 -6.185051 77.990814
19.508379 -0.128708 97.761482
3.145522 -14.578809 102.004433
21.550900 8.150696 62.487099
8.685447 -12.185194 71.692719
0.353029 6.646117 113.698929
-11.362947 14.629452 78.670616
-5.191162 17.893242 62.933258
-20.705704 10.224836 76.716301
11.471622 -6.622132 114.131187
-31.501461 0.668952 61.828876
1.306443 -17.952572 62.284878
-7.016357 10.210718 106.430138
16.931631 -5.487535 58.047508
-28.068489 -2.522800 65.469093
-9.857567 -7.816054 80.939995
6.722615 -16.652285 74.923637
6.761354 -8.627957 75.547432
-3.574644 -14.637104 109.602089
21.843605 -5.808822 70.113853
-17.135546 -5.068183 97.467285
-10.967548 10.255849 94.097809
3.471239 24.334309 63.081158
-26.477058 0.595123 70.918762
-4.698438 6.587046 79.893600
-3.974627 -9.165344 72.879440
-1.727697 -10.435426 87.715363
-6.135127 -15.702307 79.220665
-31.363758 -3.470687 64.079071
-12.156666 15.429775 88.660492
-8.995185 12.776164 71.050758
22.115950 -3.290450 68.882042
6.941767 -17.558065 59.357094
0.652957 12.497944 78.710510
-3.323010 -12.987798 109.457726
2.929365 -17.591839 83.095924
-0.378783 15.932076 68.286713
-16.282661 4.516840 98.333496
7.451896 -9.718361 59.752419
17.861692 14.012038 72.665749
-7.612546 -14.381641 71.249741
17.561544 9.970748 85.042381
-15.835746 2.883682 104.351547
-14.608264 -13.320561 62.158680
-7.922144 -9.184029 114.553230
1.043441 -19.225096 74.317780
16.790558 -8.723281 79.361641
-3.193950 14.548052 79.225922
-7.834983 -17.407173 67.906776
4.943682 -9.005731 90.909416
-11.933350 -11.902267 70.120712
-6.084133 -14.594069 70.697273
13.380885 -9.062778 99.034676
-9.086982 -16.786297 59.825535
7.151922 15.184125 71.765961
-11.135859 -12.096385 69.887749
0.731968 -10.894002 115.170425
1.553880 6.009562 112.682907
24.044270 11.975641 57.181263
6.037976 -9.327271 62.791382
-16.827105 -8.575670 91.059364
26.485991 -6.981952 62.367062
12.634749 -19.377062 66.767860
-15.454780 2.674973 102.196083
-8.285766 -8.214758 60.604061
-22.119120 -2.244287 89.063736
-7.037321 12.922736 71.662582
-13.683322 12.865157 86.391373
25.254910 -2.343463 77.779549
13.717562 -21.331896 59.238373
-18.110182 2.564521 95.507614
-17.102215 4.173525 99.335648
23.300449 5.944751 59.377956
-8.426957 15.597987 76.265953
11.616827 -13.846622 88.752602
-8.513191 10.875750 98.592026
-6.721962 -8.674311 84.754181
-20.561550 -11.296092 77.393707
-0.552198 4.902002 115.264641
11.344699 1.422065 115.047401
14.490350 -9.000793 74.877144
-30.421753 13.824489 57.321251
12.864249 -15.547980 55.747093
-6.000813 15.387864 69.843735
-11.290011 -4.909295 55.427353
5.961085 12.248120 88.612778
-15.557763 13.100767 71.719406
-6.161112 11.414865 56.693130
-8.974166 -10.718201 76.890953
-31.109224 3.364329 64.078705
2.034060 6.980123 117.006638
-14.763038 -1.302808 114.653419
3.280645 -11.036808 62.387875
-18.328413 -5.136726 92.560936
10.723890 13.247233 61.991409
-13.431427 -12.855923 59.122826
-23.133516 -16.203789 64.860985
11.493864 -18.524055 73.100151
-2.824143 -12.004000 79.444695
-28.750174 14.483867 60.030647
-8.230387 -5.911193 58.961514
11.593454 -19.806429 62.222336
21.671322 3.073488 70.366051
-7.456662 -9.616885 68.014084
-16.990992 -10.249073 72.323654
29.866283 -4.963680 61.679260
5.567745 -3.558606 61.057289
-12.541733 -16.365421 61.589893
6.002419 7.155630 111.828972
-23.537113 -12.598121 68.057449
-24.199053 1.363555 75.369385
-8.174126 14.273190 84.240082
-14.457460 -1.050205 108.176857
20.864925 8.365548 57.990067
-7.376652 -15.914279 82.474472
0.669818 -11.794844 108.031990
18.684629 0.314948 102.927315
-8.713731 10.340394 66.053719
-5.645377 -16.991470 57.820934
22.137852 -5.626844 56.184986
23.236874 -2.180499 85.702065
16.957897 -0.997485 96.611366
-1.798133 -14.083748 107.316780
-15.046067 -0.501860 108.717339
-20.169533 -12.955779 69.028656
-12.928475 13.495856 85.915474
1.664593 -17.697874 88.283607
5.339933 -8.121378 94.940086
-1.777241 -14.773027 99.857719
17.773521 -4.817035 92.706650
-6.273477 -13.512008 100.238022
15.365738 -7.692266 65.219963
5.307282 -10.692780 60.512012
33.117100 -2.664447 65.146019
-19.956932 -11.697638 81.038857
5.608672 -13.486406 77.089973
7.489388 5.679175 112.755074
-26.628277 5.975622 63.397072
-11.005815 -9.398333 87.709076
-15.033533 15.081451 70.548721
-1.650242 -11.447658 113.605713
11.000751 -16.779991 92.939117
-11.829186 -10.817871 78.536240
-5.698523 -13.615415 65.912552
27.689276 -2.167925 63.397476
-7.994773 23.444084 56.962822
2.848185 11.562825 95.510529
-18.280224 4.785631 93.939247
-8.111650 -10.082124 66.075470
10.237789 -11.980740 69.034309
2.932417 -15.394412 62.033028
-9.769297 -7.152266 59.872047
-10.958029 -7.564964 113.829803
-13.516897 -11.895002 57.225849
-15.542410 -8.710717 89.127090
9.575694 -13.944298 75.930832
3.544941 -12.636486 90.891411
-12.617218 19.062952 64.560799
11.703771 16.257442 73.000183
-21.357189 -16.561186 67.367096
-19.312405 -0.122257 98.693314
14.763275 15.345064 55.748810
11.468838 -9.844434 56.982033
-4.176275 10.571797 86.509514
32.228977 -3.268740 63.660034
6.244057 -5.989058 66.156387
-3.609889 12.946043 87.589012
14.074941 0.411232 114.215317
17.641804 14.835765 61.198906
-31.277931 12.352535 61.060101
1.596079 10.544917 79.111450
-15.060740 20.595186 62.412277
-9.879563 -10.685956 65.398582
-22.137722 -12.242939 72.493530
-13.204667 7.571153 94.686317
17.685596 -3.445507 87.268639
-11.472732 -13.463936 58.805298
4.630339 14.354552 87.724525
27.202131 -6.296675 57.535782
6.394193 -8.697758 55.861000
-24.603050 11.349366 71.445206
10.772974 17.179756 60.389736
-11.874693 -8.173724 108.970406
20.865541 16.870844 59.559666
9.653835 15.504463 82.742661
5.249751 17.476248 68.931641
11.694391 -18.302704 58.069374
-2.877232 -10.987411 84.231186
-6.763339 8.195589 109.494690
-24.426874 6.519076 82.017838
-11.938134 -9.374378 63.780979
-10.779246 -8.481277 71.650620
14.124290 -10.082708 73.292702
-18.944204 19.702103 59.046955
24.774483 -1.183522 82.402145
3.506166 4.303622 115.990730
-14.870008 15.378602 72.005936
9.765715 9.723988 85.377106
-1.404043 14.076874 94.605469
-9.672007 -17.141188 81.554001
15.862184 -5.059055 95.145668
6.281521 16.008101 84.475754
12.420685 -2.802238 118.399712
-3.057820 12.894465 70.151192
-14.978999 10.166482 87.908592
23.863390 7.363640 58.768608
26.677202 -5.720309 75.752571
15.315052 10.265691 94.654076
10.322262 23.249203 57.480209
23.685623 13.448071 56.328796
16.531975 9.644494 95.624886
-12.447881 -7.642031 64.667793
-18.396719 1.273001 98.260323
15.722980 9.907077 94.116631
-6.984720 -12.826193 112.455795
3.676723 17.253435 87.040657
-33.193123 1.248466 60.714409
18.287968 -5.982100 58.221703
2.459357 13.924943 93.550354
-3.102954 9.139959 70.383987
30.601877 -4.021958 71.062881
5.296153 -14.391972 83.866745
-22.511232 -3.276805 80.317398
13.715812 -17.680202 61.465538
9.688541 21.669230 58.591770
3.163946 -13.215247 86.687859
-32.576954 0.253246 59.289467
11.945612 13.471985 81.822350
-29.708126 -8.332522 64.037453
-9.350815 -5.203846 56.159119
-25.298307 5.278405 70.355499
8.800678 19.959862 64.717140
19.534903 0.148090 101.204445
14.442907 -13.597370 83.275482
0.472921 -17.363462 76.755928
7.781628 5.275096 115.702286
-7.860226 -10.309546 92.748932
-7.996887 12.455054 98.650848
9.352633 4.215724 107.736626
4.252856 -7.361914 71.940178
23.733110 9.300944 55.180653
-5.406472 -11.470302 96.138542
12.459919 -14.720781 66.202141
7.475592 25.792847 62.064308
20.740015 11.807422 72.782806
15.670831 4.067552 98.369804
-13.933257 8.333409 97.994781
6.565279 -11.095375 58.892776
10.446278 -11.779772 87.353088
-20.448326 8.167091 89.339302
19.156240 0.043296 96.373543
22.262295 -2.492569 87.576393
-7.019783 5.935150 108.974411
-3.337966 11.849417 73.589996
-10.371091 -13.791386 85.784958
17.718811 -7.227245 69.245987
-30.479425 -2.884777 61.168827
-7.495848 -3.206280 57.159508
16.528736 3.357373 93.331520
24.885681 13.419011 60.839565
-28.150402 -10.489712 61.825306
-22.819584 -2.701893 80.372917
-7.335367 -7.382415 73.044434
-10.197749 -10.806791 109.304543
15.748242 -19.670574 56.111931
-23.225975 8.022490 76.075752
1.973542 7.539079 109.715805
-1.905294 9.863887 72.335632
21.594334 1.926014 74.003235
-9.629498 -11.077221 112.140129
5.857596 14.130469 84.967117
7.630345 -6.442445 62.359600
11.698106 -13.910536 65.292252
10.890306 -10.165589 111.201324
21.464027 6.216671 71.657631
-31.084768 -1.212294 62.949184
12.190536 -6.297678 112.081131
-9.338235 -17.045357 84.191864
-5.956952 -11.389971 97.056892
13.012344 -22.232962 57.716694
-18.091864 9.059960 73.414940
-10.988446 -8.369841 72.044365
0.828225 12.053609 88.794525
24.055000 -0.126933 67.446098
4.779045 -10.691682 114.937653
9.430543 -10.456083 105.170753
-11.047038 -7.864923 101.770172
-21.244589 -17.001114 70.548592
21.579975 -8.487640 70.832779
8.484980 -9.847651 96.254440
-9.610727 -8.123574 83.468018
22.300203 5.165168 55.907574
-7.792551 19.909294 69.790810
3.815493 -10.446145 98.898064
-8.157898 7.233024 67.726570
0.653443 -12.592294 92.055206
-7.993237 6.106030 57.835804
-7.267342 -16.288939 63.856052
-8.510887 13.135176 87.860184
8.123819 19.874744 72.706001
-8.401779 -7.647597 72.909912
16.375208 12.445635 75.036873
7.385757 16.995863 85.175949
23.137386 -0.052086 86.707352
-18.756344 13.831919 69.568108
11.787246 -11.660671 56.736557
-5.979267 9.628025 85.885231
-4.477573 9.208824 103.096046
21.005594 -2.779095 80.958923
-18.450125 -0.209732 94.323738
-11.752105 13.551796 93.659004
5.738449 11.894574 77.920441
11.996492 10.960427 93.553322
-13.562953 -17.028427 55.941563
12.503039 -14.801354 95.961174
-32.517776 3.369939 60.900116
-12.453224 -9.508377 92.430077
2.317177 11.247707 72.884659
6.740527 -12.092067 83.142067
10.534372 -7.189788 111.722099
-32.388401 -2.530546 59.700718
31.829275 -3.233319 61.080734
1.822533 11.757880 78.815887
-22.285244 -2.414092 80.963417
4.301592 -11.856084 111.489845
7.564030 -14.775757 57.682999
-18.946112 -5.922862 90.611565
-12.379620 -10.657707 91.371025
9.887275 -6.596738 71.976807
7.701557 -10.029022 67.142769
-21.757122 -17.839830 62.098095
-12.326007 -8.939262 109.603241
6.467899 -17.894854 66.484886
-5.955544 14.887869 63.622097
6.368016 10.727436 67.021423
-13.410508 -1.828676 116.044525
3.767339 -14.762547 101.811455
-18.346272 12.454764 70.963280
-4.898388 13.209260 77.289604
-19.125120 -13.914579 74.879524
16.298677 12.441085 87.645241
-4.113333 -12.947775 87.556328
-27.614178 -9.920250 64.143791
10.659596 -14.030996 72.856506
-4.535287 19.913324 58.459095
-13.492507 -10.269961 82.042198
-0.158046 -20.116486 72.585960
-17.771696 -2.126841 93.177727
-13.744304 -6.040421 101.887436
0.871255 -9.494682 68.826775
-0.698437 -13.765348 112.180199
-13.324236 -14.336950 60.500252
-6.403604 17.425766 60.754242
7.708869 -11.717249 76.505669
13.142043 -15.672154 56.187946
-7.969590 20.277323 63.525623
5.970715 12.753551 95.437904
17.638634 -7.494812 82.836075
-10.329570 -12.794970 66.237244
24.209257 2.030082 63.609222
-21.967268 -17.081676 68.138451
-20.190025 8.309592 75.074600
-7.043734 3.463979 64.012291
6.302961 -11.250655 73.164375
4.249505 8.782469 104.540588
-3.982856 10.248466 81.499367
-4.546019 -12.958856 116.925659
-9.007887 16.786242 78.244232
7.694126 -11.359245 74.769989
1.231063 -12.040990 74.886902
-1.567687 11.212307 75.497032
19.307131 -4.762125 92.479813
-24.047348 -11.049187 66.934280
4.915558 -19.758457 63.519802
-26.840643 -5.565303 68.322540
-18.953848 10.384134 70.953781
-32.857529 7.515362 59.683418
12.906655 -14.677578 56.594139
12.655535 -12.181776 94.679817
28.028761 -4.694942 79.571274
6.625302 -10.466096 72.936829
-8.459892 -10.553990 86.302734
-24.712044 0.918728 70.152191
-16.418140 11.667500 78.760818
6.041385 -11.169023 59.770638
-12.906746 -10.991089 70.469925
7.359468 20.904579 76.200310
-6.635687 9.304155 61.917603
6.915693 14.982662 91.698509
-2.474473 7.098580 110.292488
25.480976 -0.489326 80.945061
-10.815193 -15.647495 83.065498
8.616178 -11.238225 104.442627
-18.559011 3.889181 92.411201
28.774523 -5.528848 64.189407
-21.235331 -18.428017 60.910061
11.781982 -9.904008 61.555519
21.915632 14.982309 56.091267
17.574396 -2.574313 95.578949
-4.754952 -10.893864 63.491318
16.551846 9.912793 93.831627
9.427836 -15.956313 66.693298
-15.822698 9.429354 94.394455
9.585033 -11.959910 99.571030
22.675293 2.410901 67.008514
-7.071749 14.762841 71.610107
7.599533 11.935534 73.622322
15.568391 -1.964176 108.442673
-15.773352 20.488039 64.323059
9.914643 -12.574718 79.895020
-4.006455 -11.310377 97.990822
-23.292120 -18.004513 62.980606
-24.829813 6.868057 73.023529
-5.715104 9.497468 67.100433
33.439976 -0.839403 66.492355
12.149561 -6.549975 59.010132
-20.895996 -17.696625 59.896088
9.543549 3.929699 108.718384
3.864933 -12.600145 101.390945
-30.140341 9.705132 61.405762
-29.005142 13.050949 60.650990
12.123783 -6.202529 59.275311
6.262059 -16.659302 62.929939
-3.092058 10.665549 57.977322
-9.506427 -4.327133 56.510456
-14.642507 5.338203 97.910507
17.330217 -4.471658 81.191093
-22.421860 -8.655953 69.110649
15.995110 -7.913251 71.431297
14.193863 -3.500316 111.878777
-12.114629 -10.164906 84.474174
-5.534680 6.392280 110.843056
-1.011702 13.201777 59.934639
-12.485418 2.955639 109.973930
13.201981 1.611845 104.997711
-9.494523 -12.458373 86.309196
-6.228389 -18.135174 63.136539
-2.020237 -10.460390 58.774502
19.219282 -7.616824 68.475555
-15.215057 -11.658584 68.656349
12.282313 -14.862364 64.654633
-30.018526 0.524611 62.229248
-20.200073 16.304579 63.835159
-8.986560 14.172441 77.163460
-15.571346 -1.461604 109.350441
-19.724203 -14.120387 56.601536
-7.615295 -12.276964 74.201820
-19.095837 13.386890 74.470734
-27.572395 -8.248164 64.765266
27.101467 -0.457551 62.843037
3.701797 -22.668343 64.187325
-5.509634 15.054227 60.670059
-21.550516 -18.123877 68.189865
-8.128455 -17.008688 57.570583
17.535456 -8.020984 87.187325
-0.066432 9.339865 107.178352
-22.874094 -3.505223 84.094734
3.669791 13.690906 102.145485
6.701772 13.092216 96.314980
-26.722330 -4.522336 70.973984
8.228266 -12.212842 115.226395
16.942476 8.385718 86.753242
-19.199558 20.993395 59.693787
0.244004 -18.561142 69.791313
-6.651286 -17.280590 54.746815
4.438458 20.755272 65.377754
-11.000525 -13.257635 85.095642
30.047775 -2.957133 71.982437
-11.381651 11.690857 94.238403
9.387465 -12.816586 56.918121
13.694879 -2.446876 108.424988
16.254206 5.098309 102.885139
0.463291 -9.986506 67.299072
-7.456411 -10.204830 95.576553
19.074455 0.956105 97.668327
26.257423 -5.366332 73.003647
-20.570124 -7.739617 80.741241
3.847456 -18.137680 71.401466
-15.215257 -12.617832 90.918198
10.221392 -8.263223 86.848305
2.965300 -16.849264 71.650597
21.282032 14.700139 65.393036
-9.176534 4.989796 115.299789
1.178518 -8.967344 83.405090
11.622663 -12.728101 64.814827
2.580014 -13.791727 81.969330
-16.162945 18.831591 64.862038
-6.357790 -12.811731 72.719704
-4.220715 -13.784884 82.082848
-15.824286 -1.722376 105.460541
-4.785611 10.091742 106.065422
-5.095997 -10.741682 79.666542
-21.203445 -14.605498 72.597549
9.593108 12.481925 75.590401
22.225986 15.060505 59.086761
20.648212 4.390046 65.219223
16.861338 -7.226431 72.175812
2.207586 -7.751379 64.479591
23.573839 -1.082118 78.468536
-9.957338 -11.071193 84.629395
9.556622 14.187435 58.159378
-7.566078 -7.740453 62.481827
12.918548 16.483139 57.107941
-18.721788 20.671219 56.908901
7.547226 -12.398830 56.506001
19.903429 1.421989 84.072906
11.244545 0.358028 113.306046
15.313915 -20.286392 66.559410
-1.653483 5.998622 117.464142
-10.736866 -7.009140 74.136162
-19.551455 7.387098 94.672081
21.606012 -3.150616 71.363274
-2.965569 -11.257941 92.562653
-28.905615 -8.752665 65.954552
8.749798 2.265783 115.620209
-7.348850 10.875502 72.411118
15.051821 -8.364118 69.063339
-21.340015 9.038443 80.093773
11.939311 -10.050490 64.160645
19.871828 -5.718091 60.502907
3.406250 12.724524 59.893139
25.453972 0.253367 70.561607
-8.085996 4.768961 117.572739
9.931578 4.964002 116.508621
8.726345 24.579899 57.676392
17.372072 0.985889 101.512436
15.995960 -6.708288 97.103989
13.840989 -13.316446 75.698593
-6.933641 -8.396834 66.785423
-7.362132 18.388559 67.168724
11.996328 11.683927 85.407928
-3.068554 5.745379 74.570412
17.049068 11.552545 80.625565
14.296351 3.831800 106.750130
4.665434 -10.773541 64.995461
11.584928 -13.606233 92.820618
0.615822 10.294947 70.038345
6.004530 -11.612472 70.052948
-19.154165 -4.907148 87.448517
26.117022 -1.236824 65.616447
3.650748 -17.805290 81.580246
-22.720982 5.231531 87.572159
4.313512 -21.351986 60.873665
0.491040 -9.736540 60.980328
-12.410465 -9.439322 88.473373
-22.974035 -17.695400 69.354485
-7.427621 15.823138 61.996677
-18.011097 -13.527290 73.277130
-5.733455 -8.709341 85.033463
-13.103225 -13.017814 78.455704
9.432937 14.306618 82.907867
-10.161479 14.734080 83.380516
-27.744631 1.951205 68.529892
-26.970013 8.860772 73.082237
4.680224 -7.482877 68.375351
-14.627247 -17.871481 56.260189
13.043913 -0.116469 106.701721
-16.456516 -6.172775 102.883224
-11.176785 -8.797168 85.919518
20.092546 3.633395 75.720512
25.074726 -0.934291 84.336960
13.311433 -17.119402 76.502190
8.546241 5.013016 115.300697
5.441626 -7.793764 98.082306
-14.085127 -3.383303 108.987030
25.236511 10.035469 56.957127
27.915655 -1.119609 80.680267
-12.469487 5.523360 110.424706
-0.545102 -12.295130 118.223114
0.282913 10.136515 78.666199
12.155414 -8.458879 100.575638
7.952222 20.474100 67.869545
8.998587 16.590708 89.390404
22.905313 5.691347 68.760307
12.258455 -11.129273 98.114258
-7.940215 -12.117104 115.371475
-14.465972 -12.253083 58.374168
18.639772 7.732362 94.171631
8.467671 19.416456 76.893768
-32.709332 8.728777 59.191029
9.274001 -9.117038 115.742706
11.596381 13.095263 69.102081
-24.070824 -7.014037 70.887993
-16.475874 -9.328423 79.240578
11.490788 -16.000277 66.333839
-22.918251 13.286768 65.026596
-18.099522 -9.096684 91.124229
-12.918691 -7.710609 54.846638
9.669730 10.572230 69.888306
1.133208 11.085179 105.395393
2.798441 -10.547530 58.115883
26.274954 -3.216991 74.824051
6.327485 6.480744 114.484261
16.072638 -7.540452 70.406273
4.235588 -10.901406 78.628296
3.914382 -12.491261 101.610405
1.311084 -14.205389 88.281219
9.251870 20.867254 75.765083
7.315384 21.621771 71.397202
-19.288975 -5.984918 80.160072
-16.074379 -10.965765 73.575111
-0.350189 11.644342 87.991531
-0.533477 10.517365 95.776154
22.492657 4.047504 64.322815
14.069804 -2.049741 113.747215
-9.418988 -13.996546 90.695633
19.316652 6.257086 82.147186
-20.587389 -19.374247 59.053108
8.467184 -13.021336 85.678200
-2.990650 -9.474922 67.250656
15.946436 6.123494 103.149818
9.234703 -11.695964 116.037117
-4.723544 11.984158 61.411697
