ply
format ascii 1.0
element vertex 2048
property float x
property float y
property float z
end_header
7.581198 12.082907 92.939865
17.523754 8.909478 55.593124
12.905478 9.002259 87.631912
19.494122 5.968242 77.864532
-20.360884 -1.138755 56.595673
-1.625995 -8.996745 93.207657
-1.557105 10.218960 89.277870
18.581720 -6.665721 74.246063
23.251247 11.474916 27.360716
17.583744 -3.239730 40.913059
14.817764 6.744851 30.114250
14.283113 5.442087 32.346485
2.486129 -11.676632 103.940315
6.759284 4.581748 113.570961
-7.836969 7.457892 62.788109
-5.662212 5.490705 67.604919
-12.297883 -7.499249 108.610031
-6.172797 12.586980 99.784988
-20.722000 3.027043 84.213989
19.291328 -4.165306 75.110344
8.498117 -2.757683 66.043686
3.962472 2.672417 78.705650
-22.593388 11.273893 27.134947
-9.290822 -8.040134 74.927025
7.981085 0.944630 63.805344
16.211588 8.767570 72.922821
12.056134 -8.617799 100.789551
-9.415147 -0.796185 55.117672
-6.548073 10.787122 98.844925
16.930096 -4.607077 97.428680
-14.470349 10.708600 35.329636
-11.223830 5.549533 38.012451
19.123474 -0.193435 38.747616
-10.239080 5.965345 62.611591
-2.586608 13.065277 93.273857
-16.852007 3.388646 20.839668
-18.771856 1.853197 72.605362
-15.026795 -3.662143 110.851120
-3.108127 -1.842335 84.383064
2.613838 -13.148977 103.253624
18.068563 -1.475549 58.181232
-14.138807 -0.116882 104.799950
-12.653665 8.795033 26.996891
-12.953851 4.376474 31.667728
22.199932 -0.768193 58.738506
13.250187 11.280407 95.497780
7.471438 -9.731991 90.930023
5.956594 -4.893993 76.103493
1.705335 -10.936460 103.138123
-20.604574 3.868793 56.113705
-2.749183 -2.982234 73.370399
19.938097 2.557605 24.044651
19.538475 5.883971 61.390972
-17.762974 13.051421 29.978676
17.008413 11.384183 20.405624
11.997314 10.227802 99.097443
22.017265 -0.638321 45.333572
-19.363590 1.024673 72.564270
-4.242816 11.681961 98.363060
-12.725870 6.480680 73.080368
13.126534 12.495563 21.357136
-7.338786 7.702405 105.887344
19.649815 0.810456 19.528767
13.730059 -2.876056 104.674355
-17.368660 1.186302 95.417549
-6.165589 -9.498000 95.698685
19.094959 0.703588 27.201370
21.178135 2.392599 76.881577
-17.662655 -5.283003 96.205048
18.654293 8.932159 18.587532
20.305529 0.778058 92.040466
4.591006 -10.500922 94.908318
-6.055747 -10.299518 106.181747
4.179498 -6.432172 83.715546
20.981630 -6.716052 86.048447
-6.827550 12.096527 98.206085
-14.061036 7.506350 19.827971
5.173060 2.882755 75.260323
15.079938 6.061357 98.185768
-7.782287 -9.704851 104.054550
-13.157210 7.404323 32.292442
-15.980967 -9.345370 95.300339
-17.702961 13.580996 32.139423
12.600427 7.739170 77.146988
-4.053050 -7.080002 89.189095
-21.319258 -0.515690 37.921272
-13.095648 -9.810850 85.453323
-15.890542 8.639079 85.836113
-21.348803 9.155351 20.806593
-23.166304 5.017988 38.539188
17.618860 1.392850 101.445503
-2.029483 -5.061823 85.592712
20.614685 14.404056 19.721760
22.000813 10.941129 23.660379
6.785986 -0.275352 59.149929
-15.873338 7.916653 66.660942
5.651706 5.730299 112.902985
13.069822 6.247574 40.374989
4.819194 5.051560 71.591423
-9.179656 -12.029479 97.619827
21.901423 2.412161 35.495655
-22.288242 -2.797692 51.931667
4.780349 -9.407002 90.682732
12.295688 7.924958 61.419731
-11.180066 9.514490 36.589268
-8.267299 -10.660105 84.791763
1.398272 -3.330609 78.774467
10.386296 -9.293240 73.272743
19.831760 14.705795 18.829594
-15.514536 10.152215 26.253937
-1.830113 0.122759 78.393227
10.250415 9.218835 102.331200
19.362581 -2.299695 38.121815
19.771833 -3.333337 62.786026
-8.612381 3.515315 61.583763
0.369856 8.038274 107.134888
11.302809 9.343341 77.682251
-9.317228 -7.118500 62.690285
6.390073 8.414983 82.617935
21.029352 1.691541 48.617428
-7.930526 7.474888 39.059746
20.824562 2.429383 27.379257
20.292305 8.275252 44.192120
9.428342 8.560299 58.002033
15.210093 8.409009 57.433620
-21.699697 3.115578 26.601067
18.709742 1.918331 26.085917
-10.044947 2.103272 50.666798
-7.774679 9.780795 65.033760
-0.564511 -11.666974 110.841927
19.935316 7.612032 51.836933
19.116228 2.790480 49.959061
15.571110 8.149167 103.057823
-10.297238 7.795358 81.085022
-22.868231 11.131922 18.599455
-16.379667 7.396432 63.751083
22.662203 9.841860 16.074085
1.658227 -12.272223 102.920090
-8.602268 3.838158 111.469208
-18.680948 -5.791338 92.471878
21.780838 8.589067 23.239590
-1.522919 -9.462411 93.437401
-7.772669 -4.744110 68.600258
14.242064 2.958047 105.579941
15.372058 11.100476 37.817879
3.171482 -13.870678 103.140099
-8.880851 -4.718703 60.973305
-16.777710 6.595245 97.506104
17.433302 -0.352956 102.612389
20.401472 2.742962 50.840626
-7.700974 -5.409873 57.519779
1.465034 -1.594107 77.939041
8.386898 4.435767 66.645363
-9.674394 8.651921 39.670303
-2.426289 -11.093023 94.366920
-19.682938 2.094282 28.779726
16.009792 -3.099706 106.376297
-15.360734 2.915861 21.874557
-8.646420 2.394180 114.623726
12.194015 9.116964 99.190331
-18.980921 -6.657650 71.363136
9.509573 -8.148842 74.529221
21.398533 12.070899 14.440011
-19.427958 1.290713 64.517082
-25.364449 8.732574 24.242643
19.470282 9.669081 48.005417
13.578345 10.660848 48.006351
-7.061369 4.512611 120.453934
11.237185 9.676542 54.978443
-13.176008 -2.339882 49.875443
-17.474922 -3.799304 94.662277
15.432476 -7.476998 67.055290
-17.210062 -5.616385 75.771667
5.343439 13.051177 99.534546
-20.954773 -2.268752 38.661095
6.971277 4.960083 59.017460
12.619519 -11.678256 82.927307
0.346405 11.564740 100.441780
19.342152 5.749000 81.790642
-21.016872 6.527243 41.651199
-21.534771 0.768804 58.032909
-17.154459 7.547026 82.558945
10.391889 -9.275078 106.411934
-15.914934 0.856812 21.042841
-11.246828 -8.539690 84.449219
21.248152 1.792410 43.038876
21.195848 -1.517470 73.642380
15.724504 9.545375 92.976189
19.794956 6.212509 62.284145
-16.468529 -7.737143 76.210991
18.988466 -2.208477 93.427170
17.163597 0.013231 31.759941
12.786078 -8.736103 63.573986
13.558662 9.734012 27.195261
12.714722 2.948244 108.664627
9.300683 3.861040 111.490746
-4.525327 4.168151 77.959686
20.983622 -0.559286 61.287102
20.548222 -2.508376 85.577560
13.446613 -10.394079 74.436546
-17.760637 -2.664537 51.513042
11.135433 1.858168 45.433258
19.356152 3.456692 82.378502
-14.544967 1.505567 32.169037
-22.439651 13.084636 33.365871
-2.919484 10.923868 106.140533
-16.128675 8.424540 56.035839
-9.522361 -2.338889 60.487198
-7.390530 7.560524 85.660545
18.284607 0.003348 63.120209
8.362803 11.898235 97.210945
-19.780098 -1.447833 57.434856
-21.048359 5.123154 31.709450
7.999033 -0.533850 51.848747
15.588381 -1.996247 42.144512
18.518768 4.518389 55.287270
25.460922 4.370532 38.207859
-3.465362 -2.441105 82.709389
-10.517757 11.182496 45.727928
-17.300047 2.030807 19.208838
9.001187 11.894131 101.382774
-13.224879 4.859403 107.245979
-15.307697 -9.379983 95.260307
-15.542537 -10.861248 88.339584
-16.839485 5.505717 59.256901
23.106785 7.376597 41.890594
11.080257 7.015625 81.037148
-18.111368 -2.476186 56.553310
-21.042963 1.856972 75.747025
19.450850 2.366402 79.589066
-5.710698 -10.971497 98.629677
22.402349 2.067003 20.461491
-15.735513 -4.270406 107.801857
-19.073511 13.407317 35.893227
-4.099132 -12.734430 101.727814
13.385047 -7.120720 96.948349
-17.773783 4.143594 52.575562
-20.176371 4.380699 62.705112
-9.727663 -8.725349 91.328987
5.342758 -8.910227 83.620461
-7.455302 6.395125 77.230965
4.415462 4.252367 65.838379
-23.190920 10.347315 18.063671
9.351928 10.116150 97.183487
-18.572124 14.088181 23.606314
-18.360325 -4.146717 47.098457
3.860147 2.200847 82.158936
19.202799 13.870784 24.779282
-12.552808 10.096646 87.065269
-9.650916 -7.883405 82.129440
15.675055 -8.859452 92.187630
-23.008598 0.539842 80.881302
-12.628498 -10.818757 100.930695
11.635614 -2.412390 49.099380
22.088202 0.915272 29.079197
1.241009 0.507452 84.796799
-14.359164 2.580175 106.483246
-24.191637 6.318289 24.263144
-12.519201 -8.661772 114.441582
-16.068756 -1.135624 35.348946
8.667123 5.455030 62.785358
-11.445912 -10.158291 83.824081
10.101176 11.077845 92.553459
-5.943273 -10.648013 111.780113
-7.684252 6.825419 57.925529
5.970249 4.289351 68.045280
-12.300553 8.118237 98.621613
-18.479897 5.461536 15.785169
23.334568 8.385288 16.200371
-14.002788 -7.149200 96.385918
-17.656796 -2.225181 102.942154
-12.922026 11.117370 43.346222
22.715380 5.028138 28.579403
14.484157 -8.623652 72.658195
-2.135373 11.535996 93.993790
10.303345 0.261030 42.292652
-3.937764 9.700572 101.880646
-5.548436 12.248281 89.630737
22.554996 7.277943 45.746021
22.159231 7.751574 33.878323
14.457819 7.322330 83.039467
-7.495574 6.343547 112.339310
-10.538516 5.051164 36.060776
-22.674799 1.377875 24.013195
-20.810276 4.795061 74.702110
-8.920146 6.276580 61.917847
-8.321638 1.978837 59.098145
23.768990 4.945765 40.784660
10.818663 7.659441 42.059105
18.406477 11.914554 49.907265
-4.014389 -8.577957 101.049149
-6.464698 2.462695 62.231361
-17.353956 8.829323 59.271576
-11.026234 11.103491 67.460762
-14.140716 7.576802 100.550644
20.429661 -2.354621 66.458870
16.570332 -2.109587 103.581795
20.406317 15.243584 17.624290
1.804905 10.132730 88.214218
-20.062401 5.500391 52.878986
12.110855 -7.788040 109.123863
-17.110216 7.238730 18.533796
-14.377972 6.322536 90.986320
16.731329 -3.951300 98.571098
-12.784444 -6.491136 61.169678
-9.996952 5.903513 43.145294
23.570978 7.571478 36.461327
-2.781613 -12.864667 110.887390
17.327183 9.718089 43.291645
-12.430426 5.248479 107.286209
13.869214 9.619701 35.073750
-13.273909 4.147145 28.089279
7.793186 5.533894 61.004951
10.193445 -6.096809 65.026497
-9.662450 11.758397 85.179924
9.901609 -1.960781 49.139339
11.815901 -7.947737 109.512833
-2.251714 -10.990329 92.247795
18.994394 -4.014208 97.190010
-7.170436 -5.182845 80.013779
-24.032063 9.797268 18.135765
-7.903289 7.690792 58.465408
-9.535120 4.693809 39.503689
12.047739 9.175780 85.540863
-10.763353 -8.734271 77.313087
13.142202 -10.589573 86.420677
18.588171 1.918526 66.375252
-3.330714 -7.114529 93.205811
19.231771 2.704730 63.089428
10.453728 11.412447 92.122643
-2.557018 8.997573 107.655174
15.781261 -8.323492 73.436066
17.770765 -3.694926 95.944351
20.147118 3.040577 58.368813
9.695189 -9.095507 72.550659
-8.066228 9.138832 65.889038
-21.178333 1.658466 19.586271
-14.517385 6.889826 82.234360
22.237505 0.905170 63.220993
13.403128 10.094254 22.484129
17.219435 0.029994 37.523720
14.518767 7.894582 82.987511
-18.380537 -2.318817 97.804192
18.684343 12.694781 18.534729
-20.922527 3.257183 47.703888
7.384752 8.124537 104.744713
-16.634480 3.509619 16.764099
-18.275158 -1.376851 50.297161
5.992051 -3.725444 57.988869
-14.314419 -1.407051 39.154823
-15.986045 6.901486 69.466682
15.092267 1.335760 35.570221
14.318178 0.335693 42.571899
13.759483 0.815717 39.234226
4.994065 -13.061827 105.841690
-18.555386 -6.904058 60.270149
14.126102 -1.056502 46.005379
16.474367 -8.143615 75.645035
12.654392 -8.000137 55.188217
18.929914 -2.137570 57.403133
-22.654976 4.015751 88.597748
-5.353642 5.356438 80.388992
-7.228125 -8.652407 88.904938
-17.097664 -3.730746 97.282440
-13.192726 6.702996 103.255074
-17.653934 -2.692949 41.237995
17.645105 15.172654 20.055756
-16.939775 5.685998 81.802010
16.623440 -4.559053 54.276234
-6.193470 8.765038 103.953651
-14.438800 8.902351 25.564449
12.831089 -10.179080 91.595734
18.333178 2.917671 108.011154
15.304041 8.276109 81.377571
-16.575865 2.338447 19.396721
-1.839827 -6.481182 87.988907
12.136431 -7.769556 73.588409
-23.151890 4.971701 22.135691
-17.950956 2.431324 93.277962
14.485901 -9.760626 84.387077
19.495174 -8.437701 80.163635
3.405786 -10.324978 109.671669
3.847453 -3.599381 82.203697
-7.308973 8.207378 70.193214
19.511951 0.237746 87.935341
-19.003757 -1.127506 53.118324
-12.953127 4.376045 110.027802
-19.669567 -1.348060 37.565952
-17.076139 -3.372656 101.233368
17.540464 9.255999 40.564274
20.346497 -3.106440 82.136597
-20.483490 0.752310 31.575260
-0.795547 -14.698960 107.714165
17.253349 7.502341 64.107536
10.871740 1.622091 41.419735
12.520582 5.812149 98.654938
5.378120 -0.237810 69.627502
9.962332 -8.902406 80.831734
-12.594020 -9.770185 112.776695
14.259224 11.068988 50.584183
21.132732 3.351083 15.551990
-21.488449 3.099540 38.902985
21.860313 2.647505 17.099768
-7.817237 10.150459 97.025887
-13.279675 2.751868 110.436890
-2.176399 13.837233 92.006874
-20.635641 12.067041 17.699537
-5.573079 10.860311 88.915817
-22.350788 2.354896 18.633520
-3.187198 -5.000098 83.455940
0.246624 6.953578 112.498177
19.389917 7.814809 67.153259
-21.600321 5.841842 45.694046
-13.675251 -9.068688 87.834854
-19.491282 9.428226 41.595287
-21.885735 0.113006 27.072359
17.841818 13.334139 30.562336
-13.046510 -7.589808 64.360893
-1.113053 9.467070 105.457947
-7.634493 -12.699271 107.774712
-7.078814 -5.122908 76.765404
19.736048 -4.707956 88.709023
-12.825150 -0.716243 109.619347
-16.788782 7.492177 77.228470
-3.108426 -3.971159 86.270058
-23.241777 8.156425 18.966208
-5.132916 -2.075852 79.029961
-11.587766 -8.428305 109.357277
-6.870761 9.357436 102.910828
-4.293847 -13.724813 97.595169
-0.152324 13.366739 98.838081
-14.595917 1.534981 25.249552
-6.696856 2.271655 52.979801
-4.765040 -10.107514 107.938263
4.768167 -3.477173 77.545128
-20.954912 -7.004223 77.684418
11.185507 12.625388 93.380150
20.785517 2.785625 74.365791
21.169525 6.788279 32.568707
-8.683817 12.131948 92.695076
-0.331721 5.713766 111.561890
-15.468560 -4.408269 109.735970
14.133791 -6.750778 110.541512
18.673723 9.341340 45.620846
-22.855753 1.717101 35.292213
-18.600763 -1.136711 99.143745
-11.612539 8.352879 54.948326
5.257792 11.876639 88.238846
19.125273 1.106299 94.744331
21.570713 0.437796 32.164188
13.196525 11.159679 95.548080
-8.427366 6.213108 51.396000
-14.758714 8.940250 86.901573
18.884651 5.779249 61.009140
16.863422 -5.159624 93.662827
10.004725 8.511810 60.229080
14.863383 10.138570 98.368973
-10.526752 7.544253 62.537807
15.352768 2.604518 102.662643
-15.903208 14.470040 33.083855
7.731207 -8.961477 108.532585
-19.765738 -4.047276 84.184616
17.755377 -6.561137 83.045174
-12.191881 0.612345 45.766270
-16.942987 3.747838 92.296494
-8.601324 -10.523227 94.508102
18.494604 4.156301 82.404922
-17.564459 0.761778 56.583172
4.871802 -9.388216 97.119774
12.447475 9.982290 35.377453
-12.159866 3.348633 36.940826
16.986248 2.626236 102.894241
-18.382370 -3.118106 94.839561
-15.695987 -0.954107 34.742130
13.337169 6.078269 94.283836
-1.679996 -12.901709 100.864685
21.244936 -6.397742 78.826729
-7.987748 5.002361 51.298862
2.625644 -6.356869 83.966858
-12.752989 -4.494976 39.474667
-9.713973 9.248477 75.085434
-16.135517 1.804142 14.039599
13.249425 -9.559462 101.634438
-8.984330 4.332591 110.434784
-17.759813 11.171037 39.255585
-3.828137 -6.887965 88.350784
-22.490356 9.241911 42.725754
19.239319 12.729076 17.031420
-12.542658 -1.116265 117.625488
15.707449 -2.311477 41.157188
19.556143 1.237822 81.511368
9.304205 6.145222 113.216980
8.858534 -7.578609 81.315079
4.540939 -4.878197 79.933487
-14.505318 -8.381572 65.539581
9.107757 5.840281 67.954582
-9.977696 -11.743777 105.321564
-14.638321 10.263959 50.520870
-16.359287 12.258771 34.844128
8.717509 -8.244957 76.244873
19.735735 -0.537334 33.266502
-12.244689 -8.104708 70.496468
2.758688 12.168379 98.656097
5.404560 -2.936803 63.367859
16.017439 -7.754730 83.786133
-16.956127 -6.694960 62.195335
21.806139 12.275509 25.279997
-15.617746 3.438694 28.197077
4.521946 8.446928 85.776909
-17.158131 -8.798940 83.710732
-5.356114 -6.305435 81.338707
12.527763 -9.694880 83.933167
13.357456 -7.619800 107.411011
15.633051 11.427823 37.705635
2.183094 3.067127 82.581886
-10.817261 -8.119679 69.700317
18.271072 0.655867 99.911827
18.812996 9.717400 45.227776
19.780920 -1.544243 77.685257
15.464403 3.778553 27.974133
-4.673654 2.215433 67.508156
-11.623158 8.487679 62.590359
14.029816 -2.350724 46.202038
-14.963059 0.390892 34.893337
-21.288584 3.729985 47.328854
-1.421575 -0.282155 83.157410
-8.237062 -11.198837 83.565796
22.706581 4.278401 32.107197
14.215613 11.467374 27.658396
1.595537 11.562644 96.742043
14.747925 7.266968 29.888657
-6.977338 4.972818 66.089561
16.789549 -0.326212 97.823997
-8.647026 -8.467814 83.811150
-23.213606 12.419676 22.143528
22.878960 9.995903 33.042458
2.621372 6.921748 109.399841
17.729206 12.333682 43.963890
-1.547120 -8.760795 90.924568
21.259974 -3.349399 51.453186
-5.183562 -2.708645 65.690697
-6.882871 -2.671325 77.239098
-11.758693 -9.304407 66.165024
4.956459 -4.720488 78.979645
-18.368807 -5.367323 60.877377
-14.504870 10.728925 45.676342
8.409912 -6.958240 61.759609
17.159641 12.687156 31.634789
19.701382 -1.328456 59.523651
3.675035 5.526026 87.156395
0.436513 0.824528 85.424843
8.534444 14.742142 99.496254
12.824640 8.676319 46.303665
10.391541 9.032404 66.660126
-16.480774 7.152723 76.997765
-2.207304 6.649515 110.486252
-14.489866 8.172917 83.814926
7.403962 -9.659739 104.241226
10.967094 -5.993998 61.812637
-8.199924 7.888638 116.360168
-13.186310 0.580043 31.961189
18.517103 -4.223752 62.679947
-23.402346 8.826503 30.976089
23.580641 6.680372 44.648495
16.460493 0.689327 34.344128
-7.241972 -2.828598 63.589016
-22.463882 10.029266 11.354653
18.387825 -3.981375 44.290745
-1.570470 -14.850414 106.117905
-15.517653 4.764499 92.477982
17.378273 -5.499084 80.117393
7.681798 0.985483 61.254997
3.886338 -4.644312 81.875137
-15.409842 -4.082230 56.985592
19.068691 1.940450 84.511765
-8.064468 -10.229302 106.478691
-20.066839 -4.092235 70.286751
19.927908 5.920943 81.732773
9.141483 2.460816 62.676521
-15.975041 6.261842 80.495605
16.183275 11.258523 45.648251
-0.209261 11.154459 89.392761
4.813167 5.191044 66.201729
-18.540997 -4.557544 58.755089
14.839949 -3.499779 105.799622
2.588224 -7.483291 86.430031
-9.356384 -8.432720 106.842781
20.865738 -0.301837 46.820473
3.657146 5.553341 86.232903
8.271218 -11.018018 91.774773
5.735023 13.693693 95.143745
6.215628 11.175100 95.806686
13.105536 9.458834 77.510399
3.662750 7.926896 110.921631
-7.370094 -10.170894 101.928162
17.923351 -0.290921 81.741829
18.139118 1.146460 99.697166
-14.167387 -1.355450 40.825439
20.093393 1.327668 22.135538
9.358367 11.067958 89.201019
-1.425933 7.574417 107.546585
-9.376010 -5.961303 62.201553
-18.820169 -0.986766 70.247528
14.127747 -8.841282 73.857437
23.061825 7.141512 41.322575
3.640796 15.210886 96.048553
13.685793 -7.204960 58.983360
8.765151 6.315771 64.357887
-19.876150 -4.365849 72.116638
11.792182 6.667173 78.403465
-13.636629 9.555404 54.647732
2.449390 -3.885785 82.501732
11.836519 8.486413 43.373360
21.316956 1.428191 47.108532
12.063110 9.165861 66.388344
-11.893495 13.170253 95.115623
-8.912021 9.728765 107.543541
-5.478526 4.839992 54.962761
-13.331326 12.316658 39.152866
14.316850 10.033917 32.805088
-14.919527 -0.322757 105.580673
19.916859 2.164406 94.226357
9.857499 8.411949 78.893585
21.480337 1.602696 75.460670
3.820741 4.209366 68.593536
18.431328 -4.984564 104.863541
-18.193958 4.148583 63.007137
1.566635 -14.116109 104.881416
13.831604 -11.008608 102.252167
11.329920 8.114648 84.202507
-9.363792 8.025884 68.888046
-16.270313 -2.921498 103.720711
9.536560 6.939284 64.715630
3.758198 5.812561 111.860497
16.963205 15.432145 17.671215
-13.782653 9.844661 60.159473
-8.709608 9.989439 104.720566
16.706165 1.272395 95.117996
-13.426973 8.524500 25.570312
5.929407 0.864541 72.522476
-21.974899 1.241301 39.723225
2.332334 5.649179 90.257950
21.570307 -2.705582 68.735901
7.380296 10.867940 83.545479
-21.643862 9.259205 41.645672
-21.342552 0.900995 79.584595
8.924435 -10.254218 86.678329
-20.134386 11.217919 18.036829
-17.872335 -2.783773 60.409882
19.239540 -3.747260 47.893250
2.592011 -12.314649 106.611420
-9.821218 -1.385151 62.178940
20.830814 -6.681557 82.819962
-17.312056 -3.370432 64.472664
-3.198768 -0.463701 78.088585
13.129859 -9.473924 86.697014
6.344127 10.148933 104.551743
13.724486 9.654665 83.702660
-20.260345 10.714154 45.726601
10.941938 5.683255 27.739782
-22.863209 7.710094 24.365965
-22.737625 8.304417 39.205528
8.585489 -3.042485 62.702213
20.420761 12.134363 25.224224
-6.408207 -1.283806 70.007751
-20.047739 1.863643 38.132126
12.509535 -12.005299 82.192749
-16.000322 6.307662 50.631653
-20.519567 3.500567 49.253952
18.430664 3.259238 101.940979
16.647722 1.748583 25.289255
-16.567535 8.686800 48.605701
-11.333664 -1.870095 47.124001
15.163465 -7.457683 94.994263
-5.306868 -5.778405 79.800064
-14.390689 -9.074090 95.704651
-12.006652 10.069505 96.785179
-8.148162 -7.544940 80.798073
14.597309 7.018489 67.757935
-14.156750 -7.787639 96.541061
16.601114 9.230036 51.605450
-9.106320 4.008673 51.457672
-8.916568 5.108312 41.353237
3.058844 -3.686652 80.108643
7.927854 -7.959559 74.155457
10.578346 9.032178 100.904724
12.927719 5.309591 29.459862
-21.858166 1.584990 39.167896
9.179354 6.280591 48.049294
-20.537285 2.917349 75.373672
20.177418 13.789494 31.929728
2.899027 -11.953840 97.253342
20.984945 8.338725 48.793823
-19.201324 3.007949 36.663967
-0.006820 -3.324667 83.934364
11.152388 11.555347 90.968674
-9.390477 9.122282 79.757370
-19.124723 -3.429883 61.945145
-22.311207 10.567658 37.206596
9.472893 -2.731501 55.794510
22.115437 8.412152 19.182312
-20.281635 -0.706266 76.343010
-2.036817 0.501368 76.876076
-4.602071 -0.442103 66.100777
-17.768728 -8.594782 73.348381
5.902948 -10.736856 96.841499
17.221994 -6.709778 54.226109
-7.724276 -3.482138 60.812180
2.146512 -16.918596 113.557343
15.510803 -7.008182 59.725758
-12.881105 10.945610 88.495094
20.059237 4.131693 67.241905
-23.308531 6.856148 38.750336
-23.362825 3.577951 21.444151
12.777264 -4.923182 51.530308
-17.288448 10.449065 47.485710
-13.696539 8.143043 27.079815
-18.118299 -0.360296 30.462887
6.620266 -6.714626 88.609505
19.192703 7.315332 60.540382
-16.848297 8.184787 69.097176
-18.436108 12.408128 27.130878
15.826346 -7.693361 99.592293
-10.512856 -9.788770 77.489685
3.420101 -8.614326 93.224197
10.117521 9.329913 37.712429
-5.355402 8.339542 106.402138
2.625527 9.650484 85.589569
5.201403 9.125365 105.088142
15.141459 -9.811441 82.925941
-4.730380 -14.406528 113.591331
-21.343729 9.327126 21.741423
-14.748634 -8.996528 96.622391
-16.519358 -5.023503 70.826691
18.725164 -8.111650 91.400070
16.777760 11.016753 39.337753
-2.367062 10.318831 102.305771
-20.532665 6.403231 48.159637
-13.316160 -0.262690 37.132736
18.698462 -7.722207 55.487366
-20.477453 -0.532685 46.262753
6.566686 3.738216 66.763649
18.577343 -5.852789 59.690639
-1.794924 11.647572 91.473076
-18.705664 -0.783469 99.201805
-6.311768 -9.255682 96.471283
21.154264 -2.489780 62.461563
16.313265 6.897753 69.694016
13.898221 -2.568187 32.502113
18.787260 -1.961713 46.557503
-14.273585 7.403330 96.831596
-15.979255 -4.352502 104.742752
-14.957782 9.857956 24.650129
-11.636588 1.978616 110.109604
9.608600 5.973593 59.988949
12.639033 -8.480618 109.638557
-9.493537 -8.297914 71.724655
17.031662 -6.544066 82.159279
-20.916277 2.064481 53.999409
7.438304 -4.245077 65.187401
19.880241 -2.985012 26.043039
-18.821201 11.994331 24.731243
-18.713146 13.995584 25.288303
-7.651806 7.911677 66.618546
1.366736 -14.722543 111.744843
-21.523954 0.847274 84.866348
13.442226 -9.767632 82.298828
19.486040 9.713592 41.296955
-12.009397 -7.798019 108.302261
-14.376610 6.445154 103.952972
-19.943007 6.753893 50.663166
22.315601 2.114265 48.303616
11.792097 -7.974830 76.718704
-13.509959 7.326070 60.663834
17.331497 4.694689 77.929314
11.612587 11.518209 100.721138
5.971093 5.225984 110.470276
20.812494 3.437734 88.459343
-8.236772 4.429467 59.302467
11.822457 6.594058 75.401222
9.327182 5.079566 34.564430
-19.120354 12.123516 33.021450
-18.851957 -2.477980 60.788364
-20.068817 3.413990 69.840858
4.390418 3.791127 74.996971
-6.044168 5.494770 70.300934
9.514638 -7.357236 70.224358
14.273910 -8.621892 100.434113
-15.448750 -4.788481 57.100292
-13.001733 -2.304194 110.840004
-2.080413 -3.494822 86.610947
-12.891900 9.960743 47.504364
12.519848 10.026656 43.137798
-17.298813 6.206725 58.283970
7.108965 2.169383 61.485321
-22.531322 11.507701 39.400074
21.807707 1.923507 13.933307
-20.386200 3.686830 77.219986
-15.516932 2.889668 107.231987
11.412739 2.743462 38.374359
-1.532614 -10.294854 102.405273
-13.856055 10.406255 38.107655
-21.793766 3.897378 20.197336
2.729381 -10.626661 98.451782
21.723278 5.204881 60.578609
-10.719887 -5.133492 60.287613
17.902880 1.179489 31.987068
-14.434425 -7.682548 96.877625
8.115444 8.314257 79.685593
-14.988910 6.930272 25.135860
24.044979 2.195692 39.377369
-8.678876 3.808616 52.343887
11.587150 -5.539505 109.342522
9.629206 -5.621285 69.838837
4.114241 -8.747172 88.840645
10.498852 13.116439 97.376320
20.493034 3.852620 82.126564
-18.637211 0.008833 54.309071
-19.473577 -0.887125 40.538448
-9.117950 3.488234 116.554581
-10.114470 -7.149381 65.757919
-20.923927 -4.118976 72.245674
14.664342 2.360003 19.728321
-15.986643 10.201209 50.272972
-18.487627 10.051497 51.625423
10.142692 -6.137430 59.244164
7.368313 9.256024 101.019707
-7.532253 10.357716 85.962502
-20.204575 13.178373 19.813292
9.376955 -8.635806 92.377747
11.576056 2.428504 39.873726
16.453426 -6.951015 87.687820
-11.402061 9.123761 50.656288
-20.152267 -3.627788 65.198212
15.111410 -0.930389 23.657930
-10.300982 -8.564715 80.648689
-9.671963 6.041406 38.056656
22.010803 5.170071 19.822731
11.397329 -10.678507 91.224876
-3.314121 -11.454618 101.222832
15.657534 11.511353 31.295322
19.445366 1.516174 60.674477
1.747469 0.469307 85.183640
-17.337652 -3.802435 63.738041
19.136379 1.051342 23.785744
-0.101728 13.337309 100.663437
12.346357 -8.034428 102.544685
-3.016194 -12.244909 108.852379
16.724651 7.850641 66.715332
19.324057 10.735972 37.899399
-1.766814 -11.663191 109.154617
14.928100 8.320531 89.998367
-1.489954 -1.074833 75.442139
6.108666 -7.266797 88.804039
-17.894106 2.249826 19.844481
4.599878 -1.251830 63.774670
22.335260 2.551533 32.250294
19.225838 -7.915101 80.119095
-5.770967 -5.013793 72.304817
-13.874424 -6.680730 59.380245
3.935545 11.516971 99.463776
16.948933 13.756813 22.284470
22.061361 1.699827 42.616081
15.742507 8.740188 88.900604
15.918940 -9.365782 95.911469
-21.639164 1.899329 61.091713
20.529133 3.395506 93.519608
18.107380 3.154877 77.692070
-10.931978 0.713862 45.299683
-13.701723 -7.846353 65.906303
18.170122 7.115073 67.984734
-4.732883 -9.069527 85.360329
16.729790 5.852522 74.863594
16.574686 -1.435898 37.714958
-10.694963 6.284810 60.430595
-14.015969 -4.456186 58.266991
12.068047 9.356589 96.365845
-17.958021 -0.999049 39.688385
14.413563 9.634842 27.229128
6.263456 5.667846 78.144508
1.563714 -8.806552 88.865402
13.104617 6.786592 86.710655
-18.065319 -3.135956 37.321739
-14.616309 9.684180 89.516388
-12.544365 -8.066531 102.703156
-14.186628 10.064168 91.907921
15.216962 4.852870 81.688538
-16.251400 5.995097 53.269211
-1.203772 -12.612937 103.607742
10.527300 -8.185509 111.432411
13.163103 8.900942 32.213173
-20.557194 -2.656057 87.709328
-21.019808 -4.789150 86.393692
10.727538 -9.523613 77.555885
7.493217 -9.119077 109.018608
-21.272715 -0.820378 63.737034
-18.242945 6.364699 71.414764
-20.304054 12.335129 29.357653
10.571651 5.277855 47.147438
4.403871 -2.831905 66.975746
-11.878049 8.771789 80.194168
17.153255 5.310136 18.582367
-18.263004 5.486275 54.917393
-21.008993 -0.606510 67.461136
-17.977526 -6.613173 88.515686
2.575686 -10.661924 112.476631
10.016534 6.312604 41.066204
13.792035 -6.827796 107.641632
-10.854934 -9.562139 66.993011
-12.424159 -4.948924 112.725342
-15.993324 6.382026 83.705894
21.593716 10.286253 17.533136
13.847311 -5.651775 47.523338
-3.127075 -6.671146 86.175682
3.522612 -8.157217 88.534134
12.468081 8.437021 42.633060
-15.115870 6.344514 69.162468
-1.968729 12.211599 96.577888
11.713616 9.718626 40.609642
-7.654468 1.766098 62.325176
-19.773493 -1.150271 99.663628
23.734276 5.695603 38.064148
-20.087029 -6.729839 68.083725
17.251089 -8.220885 85.903259
-14.462499 4.541295 25.610847
22.783587 -3.223684 47.024055
-19.794739 4.105639 50.100506
-12.688378 -2.036275 42.505432
-4.328239 -12.167781 102.785706
3.881059 -5.435728 77.993958
17.883884 -7.902339 59.637032
-13.124718 7.963511 84.634270
-21.719673 3.368019 61.298843
20.738974 1.777323 31.568035
21.953272 11.391166 27.128464
9.157130 -8.739071 77.552238
19.220459 0.215907 97.168007
17.424583 9.839377 88.632301
19.122057 1.184841 29.408049
16.078030 -3.607609 45.411884
-22.270031 9.284224 41.108494
-12.192868 -9.199858 83.361099
14.587416 -7.978242 88.738258
11.362716 -8.672457 111.220184
-2.966442 -3.493907 81.044914
14.918612 3.116349 101.525681
14.845900 11.157940 37.675442
10.587379 3.017844 41.449451
3.689853 1.003603 73.092293
18.027952 -5.680963 72.287201
-17.866854 -2.725130 50.020603
-20.207106 2.043565 23.484219
4.908310 9.111922 85.950439
-11.719522 3.164446 33.738209
-11.209060 -10.562678 113.012978
15.423233 14.218967 22.129057
7.335651 8.380164 80.369911
11.862232 10.465165 38.976040
-11.354866 -11.418265 109.132057
22.713482 -0.517328 66.194664
-20.155687 0.338568 56.757229
21.682564 2.307808 50.989483
-3.084874 -11.563721 98.248230
-19.257450 5.886519 71.636070
-18.315609 -6.324252 85.201935
20.858212 15.746034 23.310181
18.329964 -6.478936 67.111366
21.992861 2.242005 41.974239
16.627260 2.341740 20.240910
-9.677811 8.140422 109.028130
-12.976906 -7.249010 102.460411
-19.525295 -3.101133 73.155449
20.789743 0.228594 50.812462
19.262571 1.562876 94.405548
11.432899 9.856252 33.325314
16.406906 6.702439 73.124870
-3.552803 -11.453399 96.167229
-12.426924 4.351961 25.784111
9.288827 -1.799428 58.146999
-0.206630 10.088501 106.407326
-8.386338 6.469446 58.681557
2.900636 2.220868 76.212135
19.269419 4.568262 90.496590
-6.664636 2.389228 69.246040
2.917468 11.137698 92.709991
18.127081 1.640834 91.862961
16.295412 7.652293 69.375053
17.905447 -6.703252 57.897274
22.052149 12.285896 24.203911
7.158533 4.373689 57.448624
16.456308 -1.146076 39.248363
-13.629036 7.861076 25.305355
-19.329372 -6.018494 90.050072
-10.241168 -5.200313 112.582458
-18.647434 10.188046 47.470093
11.160219 -9.296717 101.688629
12.038336 -6.596212 65.965996
9.435264 -8.875840 84.482956
-10.755641 7.575846 52.829952
-18.146313 -2.592728 97.758362
14.346715 2.529925 25.207338
-8.874635 2.489761 56.463886
16.386793 2.361948 107.907410
-9.117556 -5.425208 57.624714
-13.038426 2.615426 113.326744
21.873489 -0.004472 20.757271
-5.260121 11.202479 89.170151
-15.930552 -7.680399 73.104774
-20.044834 -0.898061 43.080750
6.039442 8.363791 105.298889
6.490137 0.863824 63.433144
17.040541 2.317424 97.985558
-13.131339 5.972817 24.443651
-15.005561 -9.639950 87.076019
9.396852 -10.046939 111.802834
-16.058792 -7.812636 101.733330
10.066463 10.252758 87.535385
14.686188 -7.572387 106.705757
-11.101528 2.062882 113.272560
17.270100 -1.024324 56.798931
-6.297720 5.978723 55.486980
10.522195 11.215355 91.309822
6.714866 -4.632453 69.059708
10.389441 10.261288 40.770027
-18.982016 -1.282534 86.323883
7.257910 7.806686 75.409317
-3.918629 -12.528966 104.398476
-14.560962 1.579540 112.211937
23.505188 4.496193 29.918051
-18.213369 5.276487 57.717281
13.465842 8.808671 31.923313
19.123539 11.401744 34.647438
-4.494778 0.735877 79.920364
14.720811 1.667755 38.856964
-13.244424 -6.711548 105.169418
24.203232 8.021101 21.810926
11.707328 8.217076 75.246475
-8.920361 -9.513182 86.557098
19.540386 -9.424813 79.141586
16.408531 10.202189 21.947348
-12.515410 7.996302 34.118481
-20.352127 4.234432 51.780666
-15.486259 -1.395192 104.892967
2.516841 -12.074898 108.314316
-9.599983 4.244788 46.828911
17.518320 7.337561 67.243713
-5.796662 -8.884808 91.277512
-16.997618 3.122697 60.279922
-19.328602 0.861545 89.651375
-8.365191 9.460606 68.896072
0.878792 -7.139390 88.424286
7.551018 11.808702 91.231422
2.222428 -8.615669 92.817963
19.360197 -1.703701 78.067123
-14.624865 -8.167324 95.848892
-20.276331 -2.597719 57.005516
18.257681 -6.466090 68.464905
-10.140760 -9.377352 90.081680
-2.322429 10.480247 102.966743
-23.971949 4.562096 30.612619
21.841288 1.131741 53.351208
17.206720 2.728858 93.082893
18.412174 5.256382 77.252647
17.301886 4.318534 82.022964
-7.578806 -4.028666 69.665054
17.884586 -7.338664 69.320381
8.304844 -9.956257 83.278526
-0.510540 -8.965206 89.006989
22.822248 6.630628 32.671146
-19.617510 0.474068 62.948608
19.798882 3.141851 54.415462
12.101187 7.354274 68.405128
13.481771 -9.380853 87.061295
-21.334284 4.133129 38.575848
6.454675 -0.896709 55.138062
-9.741096 -10.797494 79.245728
-1.389055 11.916245 95.030617
-11.342952 8.608975 54.239777
13.642389 -5.312174 109.428123
-11.441767 9.289153 39.667213
-21.348492 7.553216 21.360590
7.181212 -3.405864 66.483887
5.069176 10.804251 101.449867
-10.011714 5.463056 40.138908
15.464479 6.951192 59.410141
-12.955124 7.714511 35.184967
8.243961 -2.158809 62.899719
7.589148 1.180921 58.797485
-24.027073 9.859038 38.506931
8.791536 12.543643 97.858887
12.371614 -7.945338 101.699661
7.323471 5.944824 81.130005
-13.459944 -0.940189 110.468582
6.334414 -6.915740 83.370773
-2.529280 6.857091 85.970093
10.589530 -4.016462 55.079288
7.710757 8.551305 83.837914
9.915691 9.123130 59.666592
-4.052143 -5.445407 78.430206
-10.488998 -8.997852 79.656174
19.246834 -5.254275 72.748825
-15.624537 -9.696233 85.002899
19.220716 4.003152 72.795937
12.538703 -6.464748 58.271305
11.652958 1.974694 33.989628
19.469599 -7.141938 85.661293
24.157917 5.481635 46.796322
22.268137 1.894265 54.808445
-17.473524 -8.721044 94.740753
18.824381 3.459052 63.637226
-5.873422 -7.156891 81.699379
22.011606 -1.057279 29.422993
-14.201005 -7.657833 56.580662
-0.306861 -11.302915 99.024681
-6.744972 5.005432 68.524483
16.512653 12.526322 18.322439
-18.895329 11.348500 40.085625
20.280405 1.644948 48.326050
15.724877 -3.409073 106.027718
-19.273899 0.654841 25.741596
-12.974426 7.581057 95.008476
13.583560 8.660400 74.798920
12.935195 6.593906 108.337997
7.348530 9.633460 87.919792
-6.218804 2.531466 68.087349
14.306600 12.878126 31.223898
22.962570 6.870870 23.965599
-0.330171 10.663980 91.775566
3.793590 7.827917 86.094307
-9.425363 9.302228 76.984421
11.047410 -7.423880 62.458134
1.650054 5.533011 84.618080
0.895848 -11.922577 112.300407
-13.753382 -3.569253 56.602566
-16.350161 1.570280 22.409555
8.578620 3.240837 112.128441
16.182756 -0.266091 107.494766
-16.908361 0.924006 25.723509
-13.460470 -3.436435 49.495430
11.924042 -11.987379 88.576172
14.599052 11.175725 37.035763
9.971592 2.978936 113.409508
13.160292 6.369316 26.419970
17.660219 13.031065 17.563297
15.811393 -3.287750 42.766563
5.371744 -11.401975 102.217285
-17.407393 -2.497863 42.966438
24.866106 7.568987 29.958813
-22.083342 1.300148 25.996792
-24.189383 9.676303 18.322359
-16.129385 -0.222647 97.050056
-11.440260 8.628324 104.423904
13.419670 -2.459011 50.932877
2.868872 -10.486809 102.682198
-17.119644 -6.484179 101.265083
-13.288818 -8.513115 74.839722
-8.369327 3.356287 112.257759
6.748156 6.467657 71.683487
5.909418 -6.376786 69.250488
-17.199509 -5.418625 66.880417
16.659042 -9.479989 77.054535
-10.808779 -8.956138 88.004753
-8.370916 6.683435 62.903324
-15.850254 1.875455 27.094875
-12.675009 10.051683 96.300621
4.410941 2.212986 73.593414
-16.747072 0.813001 22.476002
14.597473 10.632701 93.872147
13.849895 -7.031549 62.083042
20.760881 7.973443 49.110809
-19.309965 8.513347 48.879120
12.298904 1.815294 36.479584
5.616222 10.580328 101.930115
15.924754 8.444765 80.142326
17.744066 4.788107 18.071653
-18.505342 -4.390359 89.483429
-3.669900 -9.193396 99.048744
16.481602 1.416438 26.587931
-23.380125 2.978493 31.678068
14.736560 -8.754346 105.044846
19.972050 -8.000444 76.779640
-14.635038 9.500718 22.970196
-13.309516 4.073857 105.868080
-2.058063 11.637954 99.564774
-5.892668 -9.504940 84.773819
19.159044 0.183416 21.017799
-15.369587 6.495386 50.729652
20.156864 3.541647 53.734661
15.734359 8.490443 96.071114
-9.897571 -5.929338 67.424347
-17.584528 -11.051560 83.380463
-2.356723 5.477439 86.867790
10.443092 2.753022 113.074387
10.002786 9.871807 75.416023
9.936768 6.877628 37.825298
-15.665389 11.714566 27.508221
-10.405930 10.457715 102.188835
-14.429302 8.810171 69.179298
10.832960 9.508893 29.335995
-1.082363 -1.450858 83.987999
1.273214 -15.523146 108.790863
20.236174 8.013089 68.933121
19.530329 1.837260 79.231041
-20.691109 -5.111057 55.550636
-12.774691 11.036976 81.588127
12.949295 5.494286 25.281492
6.044019 4.217547 110.820709
-19.959576 -0.255867 32.235176
-2.511747 10.125644 103.028015
-17.329702 -4.904718 62.281937
10.538167 8.915321 78.065361
13.457603 -6.157083 56.753899
12.908338 -11.008882 83.858040
8.912799 1.206643 57.111259
-12.110067 4.019722 32.411312
23.175190 3.328903 30.887289
-10.710985 2.383001 36.767979
13.126011 4.873049 26.155714
-10.945604 -7.093808 73.579391
-9.109057 8.224837 67.725479
-3.388431 -11.835901 100.937965
-18.587868 6.428031 76.193573
18.420103 -0.070717 97.482155
-18.416731 -3.459875 43.199162
16.806591 6.557426 93.753960
-0.666638 -10.739535 110.832993
13.182150 -6.201127 52.423725
16.574743 -6.337418 97.275528
-16.772505 2.294919 27.212862
-0.519873 -4.859904 83.426300
20.655388 12.363818 27.712389
-7.032556 -9.444847 86.348999
6.822833 5.485648 64.494576
13.836802 -9.976691 79.917290
-13.191094 5.249962 105.439980
-17.246569 -6.898688 75.540749
-10.366502 7.761771 107.846474
4.303891 12.270105 86.979973
-22.665152 10.976309 20.214031
-6.757107 -11.089962 105.693344
-14.279160 10.644121 27.540310
-4.533164 -0.491606 71.256912
-13.811033 8.383373 27.452929
19.733288 -6.469409 87.569786
5.618371 8.931396 84.024605
14.232627 -10.694929 86.057610
-18.986176 5.626719 50.022758
-11.812018 -8.113372 72.217041
15.590394 -3.843937 40.583904
3.663704 10.215937 98.009933
-9.893472 8.518935 84.538055
10.435727 6.406439 43.108154
18.780338 2.856435 71.513977
-22.155598 -1.361658 34.116245
11.217745 5.826077 48.842117
15.699729 10.781320 52.457260
0.781450 7.484316 107.027069
9.397305 -9.310030 109.965302
-20.293427 1.681720 45.619267
-10.829975 -9.296532 79.011932
-5.785690 -7.810328 82.758675
16.088697 0.597725 29.379269
17.628649 3.112277 79.458107
-0.132240 -13.600734 107.630363
-6.377088 -11.452200 112.258301
-10.748404 -2.954303 50.050194
-9.925097 -6.667067 76.374321
-7.274120 7.240721 110.997391
-3.897432 4.566125 78.844292
-12.195129 4.871258 33.583378
4.292520 11.081541 98.005119
10.553530 -10.261215 112.157059
10.791122 -10.975284 106.989388
14.282700 6.743202 70.458145
-19.157141 5.979866 89.920616
18.961369 13.598829 15.384894
-11.621337 -0.001074 43.132614
-20.515732 1.243138 40.888916
-4.709039 -3.890930 72.718452
-18.012701 3.813596 16.679771
18.132610 -1.329270 42.649315
-1.167829 11.338106 96.034172
-13.934456 6.912369 67.112770
27.084038 10.337885 17.487722
6.590181 -5.872802 72.505432
-12.221033 3.699867 35.536621
21.586735 1.501833 30.289595
9.457082 -9.103690 101.351768
-16.948507 -6.475640 49.456547
6.607564 11.918918 92.034348
-11.439084 1.773350 40.655418
10.733586 -8.592286 64.175682
17.145454 -9.621904 77.532433
-0.632859 12.582591 98.765335
6.614147 7.016945 108.598557
20.692390 -6.592345 76.779617
-19.977409 3.523497 79.572464
-13.773872 8.551917 29.028545
13.713380 9.983576 23.047796
-4.029107 -2.356370 80.802849
-20.055756 2.973434 65.230644
-6.829188 -0.631486 62.473591
9.331354 2.179205 114.221863
-8.565632 9.026732 102.351746
-10.119713 -2.037017 54.139557
20.190445 1.016508 53.166004
13.172271 -6.571788 51.500645
10.946266 -7.439507 64.434143
-4.241866 -0.123640 80.242416
18.541128 1.186682 85.049324
5.140426 9.681288 87.071953
-21.634716 5.615517 46.286316
-19.221123 3.349528 69.324371
-16.236063 -2.316080 107.828255
-7.630124 -9.556745 88.357780
12.734408 -0.121099 48.552868
14.529025 -8.778194 97.429504
20.820919 2.315551 78.908012
6.720768 5.671286 111.869362
9.853838 -9.977472 106.769760
-9.022373 -11.121375 106.883804
-8.316133 -4.834066 72.966164
10.334149 -8.886301 98.382690
15.729012 1.143599 105.805580
8.053057 0.883146 66.315979
-17.772102 -0.615941 56.224098
-13.837896 -8.378919 97.081200
3.869508 0.849230 71.585884
7.711598 11.022669 100.190643
-14.150345 0.140939 37.733459
-23.663883 5.431795 21.314537
5.112332 0.988949 64.312454
-8.842621 11.498296 91.348099
20.196505 6.074543 49.553539
-7.449387 -9.467800 100.739281
-1.550279 7.262566 108.542969
5.170003 8.592986 105.156662
19.210997 -7.124906 88.579765
-16.995028 -0.682044 16.694548
-3.706665 -3.466227 77.653168
12.773242 10.097256 42.904606
-19.435434 0.124298 44.929161
4.247752 11.275282 94.999565
18.515537 -5.999413 62.773823
-14.889842 0.384493 43.306629
-20.652653 -4.247105 86.284157
2.021187 3.821420 84.850723
-3.414850 5.861280 86.411438
9.122568 8.935473 83.186630
-12.540428 0.976740 38.680092
17.949446 14.104970 17.543438
13.571489 -3.977888 53.999588
-9.270288 4.843233 46.969345
-4.534710 -11.091050 103.544456
12.698393 4.842615 104.560341
-8.417723 -6.166485 76.573318
-15.954169 7.433488 59.769558
-18.878098 3.741664 17.840107
9.862164 3.012139 43.687542
5.313328 -8.164927 87.657738
-2.302474 4.181377 81.654640
-12.424658 -4.790538 110.786690
7.446975 -4.072355 65.010437
13.652088 -8.655662 61.903244
4.911890 -5.677805 80.648453
-10.626975 -10.173395 84.453140
17.767454 -3.534453 99.399895
21.307423 -5.102471 81.055305
16.584944 4.539477 83.084579
21.577332 -2.486001 80.772408
19.575245 1.197613 22.971292
10.262864 -2.939268 55.203403
12.287158 -8.147741 79.477432
-5.665843 7.031297 108.271065
-20.236105 5.601826 55.385891
-15.284560 -8.155999 89.740074
-11.794747 5.894335 29.607826
-14.692308 7.334284 96.601357
23.861900 4.576424 19.821268
13.026680 -11.723685 84.484718
13.413919 11.049701 24.942078
14.823010 -1.757219 43.748215
-14.837692 -10.043095 77.267075
16.164507 3.471566 102.270355
-7.595510 5.997105 73.086632
-16.601471 -5.390102 52.247181
-18.340206 12.944268 20.190685
-12.369402 10.375232 28.739038
14.322668 3.947323 24.035904
-22.583328 1.818456 51.152119
19.377920 1.709291 94.328545
-7.824932 1.447642 48.744411
12.328482 -5.234846 55.988388
22.850182 5.885307 21.257141
-11.734075 11.246391 45.646420
13.874563 7.368350 92.813087
20.345882 -2.119916 38.335320
-16.150640 -1.351254 101.822884
18.332001 9.702312 46.074512
18.393972 -3.023439 51.977509
-4.697702 -10.319179 98.417351
-11.457699 -8.008003 98.883751
-15.531616 -8.446941 79.769234
13.556669 2.238972 33.304344
4.252123 3.151839 74.882408
24.568539 6.527915 23.618172
12.222690 8.831872 31.888062
13.827342 -9.991476 71.821808
-8.076060 -7.830527 67.502754
14.330603 -0.077954 111.234917
11.868684 7.452265 54.713627
17.071796 11.838893 29.433010
3.718037 3.255973 74.396156
4.187757 4.759686 78.284134
-21.207792 -4.817924 79.848961
-21.077473 1.412104 44.356167
-20.836023 2.501910 56.519417
-11.424247 -8.731544 104.154114
22.079712 4.837828 29.407190
-10.572726 8.831553 74.256920
-17.890100 7.385723 73.475418
19.886177 -2.624675 67.750084
6.298827 -10.596955 98.903549
11.073861 -10.858374 99.353668
21.087114 3.056119 74.939857
-1.830124 -11.484147 109.841858
-19.786631 10.127975 46.421295
19.868835 3.134921 79.292526
-12.606427 4.936942 28.811443
-13.158303 4.510743 19.011044
0.359119 -9.865408 104.171898
-5.280215 11.108482 98.330841
15.585232 -1.451736 24.306768
-10.337735 9.129629 66.083397
20.104925 4.027156 70.173683
12.132837 7.231807 81.678345
-15.686369 9.273183 61.163662
16.721968 7.567315 89.349648
-23.771027 1.645136 39.044296
-21.284374 2.092816 66.771515
-11.402635 -9.678247 94.766884
23.441586 11.395868 20.681889
21.630369 -1.591126 65.203430
10.189903 -10.677751 80.640198
21.826077 2.492885 47.842411
18.579128 -2.484658 37.049816
-16.895401 -3.236472 96.159698
10.770347 -4.448325 71.767120
15.268271 -9.330210 76.130302
-14.863437 -9.256587 86.243469
-19.674051 -7.168218 67.730110
-11.711495 -11.811422 109.442421
12.347198 -8.438821 105.637566
-8.984378 9.270615 87.419785
-16.406658 -1.245647 102.401314
-4.384573 -10.849389 107.411530
-19.362564 -5.842062 82.613876
19.451571 -11.135924 80.465179
8.256629 11.287595 91.882507
-22.405052 10.719867 33.751442
6.567810 5.305987 68.070641
-5.354443 1.554199 74.682121
-16.588072 -9.734977 90.089539
-18.120472 3.917104 90.126663
5.971992 7.257267 73.935196
-3.904614 12.699633 89.551750
-18.403393 4.252316 55.861881
-9.833932 -2.123624 52.759209
-18.325270 -8.687783 82.140182
16.896030 9.897165 45.331932
18.113270 -0.916957 61.942955
-2.155350 8.916224 115.216698
20.172749 0.470166 38.911949
19.304285 -0.065588 84.492714
-23.674707 4.190167 14.998233
13.246139 -10.402822 88.741959
-7.931796 9.680877 102.081276
9.693966 -3.318182 50.139359
16.211323 -10.887549 78.339844
-16.514149 1.267632 36.610180
-14.507765 2.430666 21.974234
-18.633228 3.780468 69.313354
-13.542155 1.996701 110.720840
-9.363863 12.740579 98.127464
-12.426587 6.399208 118.949783
-2.291971 13.191738 92.639275
-17.919113 3.463844 63.864883
-21.468731 1.361552 34.828835
-5.114680 12.408431 94.494583
9.184282 5.980132 44.718773
-13.597728 3.377141 34.112389
-11.197619 7.061110 107.103432
-21.512579 11.329949 29.759596
-12.063251 -0.141947 34.045486
-15.783974 5.800538 78.060478
10.959017 -1.893021 50.596535
-0.457447 6.222495 87.587738
-0.705044 13.100861 96.985077
-10.018750 8.214771 61.151917
-14.922925 -8.331558 100.352684
-18.504265 3.613022 86.468239
17.458048 -1.782859 23.154154
14.226856 9.562059 56.513885
-17.436844 12.345692 13.199991
-13.574819 11.711350 39.779179
-11.851285 -2.813472 117.424736
4.763214 -2.936365 64.109245
-16.453701 -4.032436 48.264389
12.115250 -0.601850 111.534088
20.508152 -4.326513 92.194466
21.523111 0.514422 47.121193
-17.014561 -8.621561 73.091339
0.581564 -15.661019 111.827667
3.397122 14.974570 91.925308
4.107315 3.290981 79.751633
13.472294 -5.549679 112.798798
6.173813 -10.366435 96.014824
-4.515879 -8.553743 84.968521
6.689486 1.592657 114.143898
-18.400497 0.664924 74.769279
10.093384 -10.150857 82.973892
-6.226792 -4.340160 66.638184
-13.843369 -3.784613 45.102127
-13.598582 0.583724 109.407318
3.278438 14.792915 95.127083
-6.452985 2.864159 73.219566
-21.710258 12.918145 22.527048
-18.910494 10.830675 36.686222
-7.541574 -0.303743 61.814186
19.662392 0.665136 23.204945
14.956761 6.802508 20.427233
-13.395999 -4.865428 60.124123
17.473564 13.121344 30.225531
14.915258 -6.787370 101.914368
0.091232 1.691080 110.870552
9.186991 -7.153069 73.075287
9.517946 8.049495 58.941307
6.929240 7.532552 69.289421
15.282971 -7.621070 109.899475
2.391040 9.516319 87.046043
-16.359478 -1.745046 26.277975
-1.062707 0.311621 84.877953
-15.614268 4.548336 97.226906
-18.564989 3.926165 85.436089
0.810610 2.791221 85.590881
-3.799888 11.201692 101.755058
-13.250510 5.618163 103.360733
-20.769001 2.878865 79.245209
-9.006583 -9.047421 91.790588
-0.977706 10.784412 100.240990
10.348035 6.690478 68.439056
-15.334794 2.182222 28.152945
-19.658339 2.434019 40.078159
15.693562 -6.091695 56.476131
-13.303240 9.559268 99.710365
18.766380 -1.737296 50.695000
-20.419491 -1.277194 82.904068
-20.257944 -2.303441 66.287239
1.805152 -1.587804 83.847572
-19.861364 11.128391 25.878220
5.007573 0.280146 65.568924
-7.066747 -6.781721 73.323830
-19.452065 -2.034892 59.774937
22.634495 -1.150923 83.348961
21.953264 6.041592 40.706341
-5.243202 -0.181595 70.209625
-0.501402 2.159968 87.858093
-13.176190 7.819851 28.624481
6.764780 -11.369534 94.469597
11.684160 -9.271534 92.259705
9.642074 -8.018867 79.260925
0.041127 -15.957273 109.717606
-15.396813 9.024469 77.861801
-19.618031 -5.702456 76.449509
-19.516855 14.039126 24.930847
22.791134 7.434375 26.506966
18.825191 5.374462 57.643864
-7.779051 8.906044 106.701736
8.965293 -9.424696 92.476631
17.986143 -3.308352 90.345215
-15.453723 9.158288 52.881279
17.992140 10.397129 25.482025
20.541626 2.353326 23.316614
20.075027 -0.841078 56.730446
-24.077341 0.545830 12.414055
-11.838812 7.158765 63.160477
-9.050905 -5.051064 62.967655
2.459218 1.851982 75.407616
-9.591089 6.766417 76.756798
7.840099 4.952315 49.089993
-1.599372 9.724505 87.056313
15.141924 8.193545 71.403976
17.402847 2.745418 19.230520
11.254843 1.188316 41.563190
-11.020225 4.142107 40.640980
-4.698112 -8.317410 82.015373
7.934390 5.506809 54.988140
16.041407 4.808527 91.475456
18.746355 -4.767047 62.973915
-16.558641 0.556771 21.825459
-3.058453 6.922244 85.601990
-9.893211 10.841944 78.165894
-20.282383 3.918365 59.299034
-19.767031 1.989136 87.460510
-21.015684 6.489005 18.071568
13.956254 9.714087 57.698643
-4.074731 0.064251 71.831879
20.224581 4.687686 57.218506
-17.552830 -2.415468 89.844368
11.752329 -10.742118 74.836159
1.670660 -0.610458 79.558571
-18.061985 -5.827348 55.699432
8.844630 6.352238 108.641121
11.916965 7.211535 25.328789
-13.345698 5.108592 27.818731
-7.209472 6.829360 111.112595
12.699188 -0.004086 112.565842
4.798924 -2.525530 73.121681
19.349607 -0.055940 94.573761
-12.086944 9.121781 87.321953
-10.872067 -9.641339 82.771629
15.571219 6.159619 103.263374
20.424561 -5.619623 80.704666
-17.516567 -0.059625 32.446060
-20.377218 0.606893 41.730789
-10.100455 -4.981790 55.475826
11.126088 8.504919 82.450996
7.407433 6.095804 64.127991
18.817022 -2.817352 93.343529
20.681412 2.464098 61.167580
-8.235062 9.024204 101.959862
24.113432 12.447674 26.140123
7.647951 -1.342655 57.551113
11.185571 9.938158 47.834286
-9.919065 5.666497 46.387127
-20.734758 -1.715973 68.445465
12.304862 8.198592 55.129456
22.142757 2.177956 36.415489
-8.874352 -5.270083 69.262779
15.478588 2.994178 28.452488
-21.498760 9.797445 35.322758
-20.230858 0.842689 56.769730
-11.485212 5.838866 31.733240
-3.912683 7.036788 82.090645
4.131936 -10.241193 93.399033
13.070951 10.374511 89.396515
-16.717131 8.793591 71.009918
-19.125505 12.549010 19.710600
8.640149 2.151395 56.295052
7.268322 6.541962 110.074547
7.218845 -2.080678 69.507439
-2.338844 12.792942 90.897797
19.090216 9.205707 47.301834
15.464683 10.919533 42.502335
21.749834 -0.140004 41.070801
-16.948095 12.742300 25.404984
17.445328 9.205285 46.460510
16.229763 5.675668 89.085739
-18.538464 -2.769414 60.681648
5.551095 -5.571236 73.272942
15.184552 3.340605 105.087395
-18.839621 -8.533933 86.814148
-5.883540 5.827481 70.438110
11.743784 6.967954 106.164642
-10.372896 6.759260 47.006702
2.573415 6.608958 84.332535
7.372781 8.288013 62.849495
0.956796 5.859786 86.861679
-22.846590 5.544236 38.771938
14.761952 7.951760 30.332163
-18.955393 -5.709290 64.030090
12.869411 0.529511 41.495960
-16.601700 -5.175274 104.446556
-13.442321 11.624557 33.154331
-12.760077 11.759418 33.644283
-22.359461 5.112642 47.811222
15.936973 -8.656131 88.494270
15.747775 -0.802826 32.943233
-9.407149 -7.830907 67.428871
12.323783 8.113692 87.264999
-12.977236 2.140574 102.343079
-18.216311 11.872593 29.120392
19.165300 6.138086 64.230255
11.168481 3.770407 34.372028
-18.027731 2.567073 92.386421
1.779947 2.008281 87.735664
18.053078 -4.205036 69.642395
-16.667349 3.112463 89.414490
-9.558165 6.107864 101.453697
10.746875 9.719846 74.484879
20.162724 5.621130 49.942600
-20.609337 14.127066 22.925900
14.380878 8.593332 85.707306
8.918575 5.627198 53.034325
14.167155 8.835243 96.846985
18.216425 4.913079 65.162720
-7.011101 9.796769 85.232048
6.997389 5.433831 57.603569
5.924856 -1.221131 75.077095
19.144808 -5.932627 80.417053
-12.967771 10.801872 46.749527
2.653308 -2.246750 85.724861
-20.518448 1.263427 48.141857
11.243428 9.288434 80.410881
-18.115013 -3.987376 86.129112
10.808357 -1.239232 43.499249
16.225298 1.438045 93.570671
20.581232 6.008332 43.045170
6.151497 6.234437 82.735344
-21.069914 11.678680 26.599428
-5.676651 -9.980774 101.649651
12.706847 3.819048 30.076609
-7.179670 5.044518 66.288162
2.088683 -10.586007 95.119003
8.331500 0.818923 62.232292
-14.888928 -3.551610 49.530148
-16.905088 6.437688 19.445774
5.131211 -0.167639 71.313393
3.946699 2.588917 83.324867
12.342364 11.500109 91.099724
-20.500891 6.230786 46.538017
22.602421 2.214532 15.664319
12.060862 3.576015 33.839630
9.143609 8.008673 76.807999
-4.794378 1.363626 58.608219
-14.344000 10.517297 37.264004
16.627075 -5.003339 98.224922
-19.793694 12.725659 28.857870
-15.562882 3.606452 104.220612
-15.950463 6.701807 90.443810
-8.629268 5.250814 112.268463
-6.215734 -4.433688 76.096344
-22.397150 8.010998 43.686764
-17.533726 -5.753579 61.945568
-21.921534 -0.711398 80.163742
-12.011157 1.499647 31.750898
-1.204640 -3.078557 82.407997
-21.811018 8.202021 35.117115
-13.691528 9.381882 48.667877
-6.070215 -4.772233 68.927986
-10.415168 -6.224070 63.891941
-6.591220 -6.031511 59.207623
-3.686903 -4.288264 82.167969
-18.092684 -6.105095 80.036018
-18.579439 -1.830317 90.554466
6.683654 -3.413579 61.860973
-9.382293 -11.181517 110.815460
15.217587 -7.553971 104.486366
-8.525656 -0.678272 52.324879
14.239401 11.799498 50.528378
3.510182 5.564739 85.502243
8.560987 -9.393281 90.766808
-8.739304 -10.147449 82.815666
-13.683952 6.997339 102.704445
-11.592409 11.022796 30.324507
-20.335224 3.577427 48.719566
19.486534 -4.117442 86.296158
16.399122 2.472396 19.857864
-8.254141 -5.629566 75.307808
-22.285549 4.325602 29.259285
14.441970 -0.517591 34.105709
20.427013 0.680043 63.109673
15.007173 0.290443 27.060219
12.042187 6.040424 38.892879
-2.126163 -1.924627 81.831306
17.545578 8.574091 77.562645
0.996555 1.865375 85.751884
-23.377218 3.632110 18.188648
22.064800 2.631297 53.482635
-13.226823 11.767031 28.183590
5.248318 14.681722 90.390808
2.946130 8.118669 83.626480
-14.843462 7.769010 71.025681
15.771323 13.085594 21.589699
1.873478 8.855736 107.471352
-16.461298 13.260680 19.435987
5.522206 -9.953142 108.637314
18.927292 -2.763402 54.000107
-20.306385 0.753716 90.972656
11.608641 11.552588 84.131981
-9.700698 9.719959 100.668709
19.329018 -1.976639 68.153244
11.860242 9.399869 50.441906
-19.053467 -7.086292 76.387192
-13.935434 -4.662239 51.825504
12.044398 -3.952869 110.131012
-21.018621 -6.256950 72.607086
8.584368 5.298673 109.672798
21.499582 9.604352 38.835148
-20.459467 -8.006869 82.274315
13.303682 -1.218834 36.603897
-0.363453 5.734965 110.453720
9.609002 -8.706291 85.702385
14.632623 5.593200 22.125053
-17.315243 12.196367 34.404293
-23.999834 5.366516 26.880871
-2.656594 -12.922533 101.889732
-10.372918 4.430092 39.097828
20.660877 3.347008 70.146698
-17.160177 -6.747658 51.700645
17.614143 4.911024 17.744450
-22.959381 1.222791 31.854671
-21.729931 3.644278 51.095360
-14.807428 -6.392516 54.012505
21.837336 4.379199 35.181137
13.061468 3.031378 107.560829
-9.704060 -6.458944 66.741692
-20.085884 -1.431482 51.209187
6.681997 2.252054 52.801918
-14.183100 -7.345366 62.119587
24.399752 8.984602 25.255714
22.874222 13.655606 12.764714
3.686872 3.151842 73.636009
-14.013832 -4.826967 104.606422
16.356113 10.534151 47.205868
11.866355 11.107180 55.532211
14.902434 -4.523200 98.364769
15.856327 13.049250 48.395958
3.526445 3.541676 83.064850
20.336935 -1.890004 72.011230
0.438290 -12.061646 100.695122
19.627365 -0.990746 66.915329
11.160139 9.014432 47.854607
-4.590355 -2.921197 73.452995
19.505960 8.404088 49.184135
18.224962 0.680630 28.849306
3.813345 7.708532 111.115578
-14.816308 -9.501144 99.797615
2.370042 12.462666 97.445580
14.246030 12.545602 51.238220
-0.509747 -0.641906 86.010612
-16.565699 8.548051 13.869132
14.382599 10.153101 52.333420
-9.359621 -6.155818 72.284645
10.837101 6.330005 56.081928
-6.662179 -7.386261 79.785034
-15.498453 8.848627 25.679100
17.418163 -6.480278 70.079597
-4.513986 -10.311831 90.934410
-8.515918 -9.996460 86.795021
-3.127097 -9.761828 93.303421
19.080175 -1.987871 64.676186
16.740490 6.459360 71.752151
1.222058 4.849496 113.948280
14.949513 11.242578 26.664984
16.752388 3.131654 21.782219
-10.837626 -5.506058 112.130020
21.905603 -3.959631 61.654160
0.895488 -5.275849 85.728271
12.123386 -9.516058 105.199173
13.865821 8.164424 76.206207
5.839024 12.937606 92.131027
-16.548435 14.135618 31.341932
-21.858572 -3.237996 44.929855
15.256635 -3.306351 47.621525
-20.024307 -0.709602 25.105793
-1.153161 11.395020 98.577347
-14.366451 -9.522469 85.951767
-14.820817 7.339827 101.984093
-5.604914 -10.811741 101.406410
19.986988 -0.790259 73.295189
-12.874249 -6.156044 112.139099
-15.529058 0.943605 25.740387
-7.902917 -5.791178 60.725060
20.261431 -2.622027 74.562820
10.844619 -4.657235 60.376930
-17.278919 -5.813623 105.051643
15.255063 3.119569 19.670174
7.842353 -0.513669 63.884289
-13.550433 0.165453 38.437065
6.285621 -10.115214 93.272888
-5.430815 -0.365342 70.752350
14.923677 4.978636 23.784142
19.846540 1.215531 12.471201
-20.864117 -3.326551 79.014877
16.265249 -1.193944 40.956490
-3.275916 -10.941328 110.117393
-14.977629 1.139433 109.712151
-10.257586 -2.694160 56.555794
-22.880316 0.521570 16.705246
17.842857 1.782667 61.855675
-20.427063 3.600968 60.303764
-17.582869 5.209484 93.411865
-8.201399 9.324419 72.542313
-14.784894 6.572309 81.056656
-10.730686 13.748921 97.026329
-14.173271 9.187559 26.057589
-17.102213 6.236227 57.808155
14.888670 5.109657 93.370247
17.289684 0.792369 31.472937
-4.235929 -11.570405 111.021393
18.404816 -3.335794 87.874191
18.523439 11.097293 25.897036
-21.412735 1.682827 68.352097
18.015533 -1.798605 59.169960
-18.222054 6.735458 68.557800
20.624866 2.639831 86.348351
-18.375935 9.068049 87.100830
7.322652 0.008663 66.450172
-11.684321 10.717178 63.764557
12.689973 11.321501 36.024769
-17.514421 6.351491 56.196789
-9.413824 -10.837889 88.916328
-11.340319 6.546825 44.303703
-17.363918 -1.135320 93.774742
-15.404855 -0.537851 106.427170
15.696294 11.757401 32.027515
21.214930 1.343176 44.678810
-11.526963 -1.280244 47.775341
-7.703020 13.165525 91.065529
-14.579503 -2.846524 48.978012
2.940657 -0.518336 76.286514
4.148598 4.106287 79.612701
-13.832209 9.205255 43.349297
-7.109843 4.856025 110.456810
14.967352 8.780693 90.663239
13.902521 8.445020 63.182461
-19.080334 2.926721 16.950319
19.948580 5.520376 65.350288
15.805731 -4.475177 47.205734
20.499508 4.910741 59.511726
-23.771204 0.696437 14.067920
11.249570 9.451540 81.855934
18.818020 5.104342 54.890522
19.057808 -0.212358 66.641472
20.051580 -4.055699 44.019886
-14.858895 7.510764 78.356323
-21.108143 -4.073760 83.639442
-5.086726 -4.953069 76.783318
-16.333765 -1.872484 34.846912
-17.005768 -11.170751 90.135307
19.929882 3.311361 70.883194
-18.261780 -0.960278 103.681068
16.527889 12.352055 24.922213
-14.496969 -4.162541 106.525002
3.603087 -5.543238 84.341034
10.357347 11.017394 93.287361
-21.963448 0.007170 61.851505
18.863142 -6.418943 68.832024
-11.706516 7.058498 55.006912
-19.932125 -0.394619 88.996315
-7.452041 8.068872 83.278793
-19.112465 -2.720602 73.273163
-14.873368 8.819008 84.211952
-20.227062 9.579423 33.638103
-9.268984 -10.553187 105.286697
-12.792956 6.448272 92.448296
10.052134 11.965353 96.219406
3.726819 11.073921 89.769806
14.588268 2.490227 25.776960
7.226115 2.504713 75.178932
1.289737 6.394808 110.476578
-23.813375 4.888614 39.751526
18.809456 -1.544089 58.332912
-20.962742 -1.796394 50.476536
-13.410461 8.487640 55.433582
-10.777588 10.979507 42.205299
9.215801 0.875273 118.076286
-5.530667 -4.113631 77.222229
19.569622 -3.072780 105.646805
-10.543120 -10.363619 89.939072
-21.569424 0.397266 76.604950
12.997775 -10.342663 72.215965
20.599215 1.337708 43.879463
21.047342 2.469516 56.235214
-10.139307 -1.841850 52.158062
-5.068494 6.856655 78.581627
-17.496586 2.762523 88.553375
10.043931 6.221776 109.400002
16.531244 -6.719665 63.214043
-17.353855 -2.227868 98.839943
14.447389 -1.609950 33.055466
20.038830 1.141483 20.716867
-17.503660 -3.482029 66.287117
-16.063349 4.407762 85.829819
15.109131 -8.592636 98.061371
-7.001991 0.716218 53.475807
-15.069541 1.596569 109.562218
-13.419558 9.892494 74.692657
13.309751 5.980509 25.442507
9.294895 -9.321662 91.172638
-15.341227 -1.471403 110.086731
14.787359 6.739794 62.652794
21.237581 6.502115 44.806698
3.274550 2.573621 83.552185
9.198842 8.836800 106.355995
19.597912 -3.617471 80.545433
22.140482 3.272529 54.226440
-17.204769 -8.772126 84.982819
-14.978629 -3.312916 50.862297
17.037249 -4.555366 104.748108
13.797996 10.476025 86.135429
6.100636 -13.819934 102.061859
-3.135646 -13.716969 98.843979
-6.180210 -1.653831 67.679016
22.529154 1.629435 20.616045
22.046103 2.860022 27.978455
-8.404181 4.099053 43.575687
20.564713 4.198130 73.489906
11.203026 8.157775 58.738380
-8.960032 1.848831 41.513042
-3.082643 -12.531874 98.837502
5.074350 12.758802 98.763939
12.342125 8.669708 99.854897
-14.798807 9.088030 15.110084
-23.151861 11.393382 24.590733
-12.904112 -6.367356 64.767456
-4.230818 2.960692 68.207771
-18.071564 0.555586 88.148560
-18.989897 -6.213942 78.712868
-15.008659 11.589410 38.013893
-7.655081 9.623024 81.360229
-9.788334 -0.207907 52.317375
9.070665 8.407450 57.428417
13.297591 -9.088725 86.820732
20.884598 -0.203545 83.179802
-7.246004 -8.395352 113.958763
-12.945322 -2.991402 54.350166
3.779503 12.119675 91.228447
12.849458 -8.596704 100.743988
-23.365807 1.329494 38.556496
-15.825833 4.304529 99.854340
16.305933 -4.658754 93.042389
9.966745 11.043415 91.221992
-8.566955 4.581783 51.970051
22.470541 3.977486 48.805763
14.460718 10.389817 36.071102
18.415237 -6.508777 85.286865
13.720334 9.649948 43.052753
-12.319836 4.128781 106.548386
-16.451149 11.237035 46.025063
11.084656 4.113746 50.039387
-15.888886 -7.800929 61.869720
24.886583 4.170656 26.215553
-9.252692 3.810388 47.048668
17.960615 -8.083875 71.149338
17.955320 13.546549 19.182030
-12.672744 8.207504 36.858120
13.809917 7.862020 95.610062
-14.953967 8.411506 51.107437
16.825500 -2.156111 93.426979
7.252698 1.481194 62.526024
18.384249 9.870670 50.564590
-6.879621 13.440443 101.766678
-21.551886 6.988266 35.088612
-11.031416 9.703236 45.477623
6.624656 5.985702 71.346558
-8.970619 -10.709129 96.994301
