ply
format ascii 1.0
element vertex 2048
property float x
property float y
property float z
end_header
15.585158 3.853589 107.634735
12.257871 -8.826365 102.551239
-8.052801 -11.179248 44.735737
-20.163595 0.317862 94.606888
-19.801373 12.026062 9.383617
-6.265585 8.458694 106.353050
22.944706 -2.140933 68.964996
10.972646 -7.373094 111.760765
21.593882 7.679909 54.822693
2.300044 8.816395 66.820351
-15.259218 -2.870106 106.394920
7.128812 11.446752 98.832458
7.717151 10.516768 19.469070
-12.477793 6.917501 87.076797
8.191045 11.251905 52.414028
-20.914583 -2.698988 64.228584
2.153548 -9.055948 89.368980
11.361336 -9.866464 16.465265
21.000385 0.093498 73.733261
-20.823017 -3.064952 83.050186
19.537764 -5.145396 74.187935
-8.851330 -8.886609 96.246178
-4.045327 -6.167785 78.747017
-23.954189 -6.447199 14.300224
17.164181 -9.524413 70.979942
20.119215 -4.010155 36.516937
17.816730 -6.137354 52.348438
10.284811 10.846232 15.431554
-11.206170 8.280178 35.223598
20.659002 -0.839098 59.855156
21.418333 12.039536 29.033224
-23.859753 0.887939 14.973585
14.938079 11.881165 53.450806
4.000243 -11.347057 73.665436
-10.360840 -9.759326 48.296074
12.683362 6.882797 100.391434
21.608568 -0.983171 70.322006
11.896508 -10.723761 89.794655
-9.416825 -9.515590 109.128548
-19.150070 11.178253 58.191692
17.044315 -10.368211 89.419212
14.284886 -9.335494 91.272308
25.826418 -3.419016 14.865667
-3.016697 13.378832 82.958633
16.634392 -9.735866 61.139744
-18.341022 -9.887774 64.449669
3.645546 14.729953 77.855362
0.513507 -11.614642 109.032829
-14.967138 -6.856313 44.830536
1.683566 -7.481572 75.193581
9.323785 -8.708178 103.910988
0.654696 9.510070 86.515785
-3.665029 16.949911 85.246269
-7.930999 9.227344 17.813633
-22.736086 13.156756 15.764770
16.593285 7.271758 74.776283
-14.208214 -7.693256 43.892731
18.981339 -5.733313 76.362671
16.934494 -10.634925 49.489891
-4.543270 9.109511 23.274582
15.451275 8.426941 71.239845
17.026125 -5.637313 11.945175
25.820700 -3.325667 20.438190
-21.745115 1.092095 51.796024
13.724366 9.130888 52.184723
5.558991 11.171750 101.089813
5.585209 -11.596576 80.819626
0.014000 -9.970750 27.891060
-29.207430 0.060681 16.938736
-17.484884 -8.970450 92.528214
-26.247152 -0.919303 29.421438
-0.540342 9.864209 107.561409
-2.994660 13.802030 16.844311
12.696178 -11.614210 105.605728
-23.038090 -2.377084 49.027409
18.438572 -3.054516 92.679970
12.807066 8.832127 76.342728
-13.395492 7.682953 87.659279
-4.806656 10.735003 25.864594
15.473539 -7.566473 96.639465
-13.101120 9.533877 42.602116
-20.916779 8.391195 51.874397
-13.753450 11.856055 37.052330
13.962004 -9.062730 47.822208
-17.777575 -4.433311 94.098564
22.455378 -1.728605 77.695442
-12.862262 12.003700 43.803436
24.623304 10.969646 18.256821
3.092671 -10.866743 66.730522
13.012918 9.204940 56.569965
23.690586 -3.377293 15.388072
2.018975 13.398379 12.842547
23.496857 -0.552219 59.521111
-0.317784 8.881847 83.894302
15.951162 -6.836774 18.880070
3.967789 11.513200 100.530106
14.195711 -0.433297 106.653503
-11.885156 10.787460 93.661026
16.939953 -4.415959 66.431480
-0.382824 6.798810 79.532196
3.772651 15.135447 42.327091
8.775008 -10.988598 103.434746
-6.821129 14.407218 45.111805
-18.221422 10.421150 46.383308
-18.217670 6.408291 81.888580
13.119328 -8.888140 99.470444
2.076668 -11.074490 101.448151
-4.250249 -8.524543 91.131897
-1.325390 -8.429715 72.691933
-12.488054 11.300491 44.498913
3.474625 12.057433 70.414062
12.062650 10.860966 94.385971
-20.420567 8.464812 53.290493
21.148521 10.806676 23.650099
-21.078524 -2.812175 75.807480
12.105909 -10.674505 103.900864
-19.110382 3.849119 84.494530
9.190886 -11.595633 46.342506
-23.624304 6.831907 29.162031
-19.879358 -4.497501 16.407743
-23.394665 9.245384 35.896667
-9.715981 11.688157 73.682724
15.872961 2.159986 100.677689
3.262408 -9.628479 73.019745
16.956951 -7.670063 54.275150
18.177509 12.670196 19.910807
0.367651 -9.121809 24.244873
-1.196563 12.609176 83.679428
-1.828343 11.973421 94.941559
17.618732 3.208941 89.104950
11.293616 11.552766 25.804127
-2.033431 13.538132 89.114220
-4.355204 10.446643 85.528854
-19.101709 7.384071 93.672974
-20.100542 -3.507924 25.070259
10.326065 11.936662 38.235535
-4.249408 11.693980 79.034706
-13.553598 -8.767296 60.009632
-25.964918 -3.755443 32.251678
-3.756321 10.765906 95.338737
-23.552727 1.538270 32.653915
-6.042918 -9.522573 84.950867
-0.051066 -10.429860 55.948853
6.485420 14.106489 43.941372
14.927246 -10.011126 40.307777
-1.117213 11.133282 73.874542
10.895442 6.604965 101.952431
-16.145390 -9.741168 35.757530
-23.322300 -1.981606 45.873302
4.387043 -12.299500 105.460297
20.628901 9.586348 56.715588
1.986465 11.411208 8.918547
-12.376369 -10.224058 84.132248
-5.826621 11.563778 58.235081
2.458559 -10.471028 91.074600
24.429886 -1.961046 32.295044
-10.732851 -0.067020 114.494545
7.171832 12.205352 79.897636
11.149531 -12.552323 113.438255
-22.846737 1.641494 57.852974
-21.690449 0.445792 47.380959
-23.217621 2.763124 58.665489
-13.550584 -4.229125 107.786926
24.220869 -2.110898 16.789900
6.787430 14.058287 67.907265
12.420233 -2.671606 114.631989
-10.218163 9.661359 100.785202
-25.189062 0.957202 30.903797
-23.360554 -5.053612 38.697868
-3.985050 -14.874735 53.829376
19.733103 -0.390129 82.638916
-9.932812 12.234874 95.628769
-4.588995 -9.138833 83.836037
25.648256 0.353591 15.793990
1.052628 8.615673 89.616165
-9.641729 10.492466 67.836777
-2.187192 10.074366 4.988481
-3.681809 10.279128 10.890707
1.169435 -11.696196 110.144089
-15.153802 -8.964019 51.345772
5.399579 -12.081960 32.891300
-23.593035 -2.906754 49.933777
19.498728 -5.109829 8.674870
-7.315229 -10.408300 88.921204
-21.031553 7.162264 58.387909
13.777099 -9.684986 66.764099
21.780201 -3.645705 37.816387
1.398148 -10.781870 56.219456
9.930297 -8.528272 61.621387
6.675977 -9.518125 86.451660
10.128159 10.296607 22.275030
15.723124 -8.808503 110.596642
24.775337 -2.959617 25.726707
11.359735 13.035202 30.737923
-0.366813 14.801631 61.682014
4.684649 -8.268023 31.740042
-23.849995 7.667276 12.395089
12.973136 -8.018605 17.807188
-14.996640 -10.214317 46.137756
14.507423 -7.360580 102.428802
20.921324 13.891592 11.670852
20.233093 7.927323 60.139275
-4.224468 -13.070822 104.804428
-21.795660 8.240668 44.057796
17.238739 12.165229 60.563427
3.577905 11.612086 27.041887
-23.629608 2.541729 35.969208
19.110971 -6.173452 89.726326
5.160969 14.684050 64.670662
12.018973 -5.947701 107.187729
0.842755 -9.174104 61.903336
-5.764686 -13.481496 61.372578
16.967985 11.311223 47.720863
6.910009 11.755331 25.436647
-19.315094 2.305417 86.696785
17.231575 12.920510 13.470942
11.718510 8.793948 53.837742
-15.344671 -2.610475 35.126289
2.883193 -11.375504 30.075706
-22.807795 -3.529969 68.695274
-1.510649 10.926996 74.898361
18.282789 12.085981 11.028836
9.146097 -11.355612 86.755981
-4.758033 9.426902 12.425103
-6.878483 -7.263761 96.052010
7.551931 13.614379 85.632141
-2.227239 -9.590502 72.416756
-11.892799 4.214380 111.238022
20.636806 14.379331 15.647951
-13.460980 -8.245588 110.287949
8.391714 -11.321517 21.585913
-5.063444 -10.147058 46.946724
17.805529 8.154446 67.167717
-20.947687 6.992686 67.774620
5.520100 12.586371 69.010025
-23.682051 6.482861 30.164412
2.064706 -9.978844 113.581139
22.924816 0.546632 43.168747
10.676995 3.708378 113.558517
4.704359 -10.163898 112.888756
1.329251 7.355192 110.320869
0.503720 11.715218 80.442093
-0.597875 -11.781298 51.086128
-18.187471 -8.432999 95.447044
-20.277613 -4.219403 34.512871
4.383302 11.523897 27.056124
11.311218 -8.700714 97.274033
7.119523 9.496784 42.227055
13.996218 0.856219 100.433586
10.156097 9.865294 61.501888
24.573637 -5.428511 38.008228
17.608278 11.334217 52.807949
15.911028 -7.226575 55.675438
22.426895 -4.194674 68.259941
15.125422 8.929577 77.313538
5.248887 13.929145 52.436958
-4.557002 -7.689125 81.208038
-21.408903 -8.833488 73.443214
8.955328 8.835675 47.786758
23.893391 8.023248 40.742744
9.876433 10.084912 8.551890
13.312955 -9.914022 94.827286
-2.014956 11.368190 44.697762
21.253429 5.848571 57.300964
-0.693795 -10.570203 95.043465
4.354061 7.052871 107.584366
7.776066 -11.999086 69.597984
4.332153 12.761833 95.394112
-10.202851 -11.255033 46.586063
-21.510542 6.067965 23.057316
-15.417169 11.735888 23.439646
8.328259 -10.613077 93.276360
-0.376630 10.771017 82.820763
3.679258 14.794748 46.266163
21.243027 -4.327718 48.230183
-18.976999 -9.117670 51.444302
-10.026651 -8.987276 36.594841
11.752266 11.480226 91.718376
-15.008228 12.305880 10.878417
-2.030612 -11.272329 108.567459
14.165559 8.719345 32.197731
-6.383968 -10.324297 96.893990
17.118954 -12.579196 77.255081
-18.120651 -4.375444 29.882101
-2.579715 13.874454 92.290215
15.357776 3.247848 107.401329
14.095588 7.108385 59.895107
18.922457 -1.665300 90.224266
-11.355231 -11.280261 71.496254
22.393852 5.263508 58.565899
2.878699 14.480719 75.461403
10.559805 -8.987087 106.711441
10.158880 -8.096084 17.734699
-21.412369 13.027280 11.654936
-6.971156 -12.341160 105.271515
20.013821 1.401140 65.229820
-20.935431 -4.410518 11.870914
10.891306 5.524690 109.466194
-19.300095 4.214523 83.191628
-7.737324 13.950086 75.700890
-13.680389 -8.570097 83.104210
16.450121 6.117566 93.307083
-15.607690 13.882499 31.759737
-22.558620 9.932104 13.715611
21.529413 2.172844 84.181168
-20.901634 13.779852 17.154058
-17.032894 -5.102849 28.284721
23.891638 2.166709 12.097516
8.102084 -9.408319 42.997105
19.882698 4.329435 64.738754
10.560006 7.652842 54.231720
22.840574 4.227661 9.780423
5.787357 8.817621 107.204079
-7.782518 7.580389 15.152407
22.929125 12.242288 16.774794
-25.220282 -4.395582 44.589325
12.359924 -6.448764 112.933075
19.304911 0.699250 96.407341
0.034154 3.114491 115.893959
-3.039873 9.746411 20.559034
-16.055241 10.751210 61.632439
-5.860317 12.122438 31.581289
-4.195096 -10.766786 24.354162
16.914579 -1.876202 105.729469
-26.027542 10.237593 10.730503
3.200259 13.404355 96.578087
-4.315381 12.214225 84.795990
-24.097477 7.196838 29.284391
-21.668537 2.302889 67.390465
14.468299 -1.081317 99.564293
4.077087 11.039992 40.210258
-15.833463 10.556531 80.209778
-6.822815 8.068502 106.123962
-8.847338 -11.974811 103.177078
18.193922 -6.912945 84.871925
8.545127 13.066654 61.716785
4.721463 9.192727 103.790810
17.328062 -0.260666 106.511024
-14.707744 13.642743 24.217009
11.649632 11.859735 72.411034
12.829088 -1.175876 112.654007
23.390980 -0.149526 17.643921
-18.511862 -3.586248 72.302788
25.002716 -0.193611 16.021637
-15.253934 -5.252849 11.625154
-22.055672 1.439894 55.723850
-16.858923 -6.206243 72.176826
-9.417282 5.307955 107.474289
-24.712910 3.745095 15.079625
-6.058756 -9.856647 43.663040
4.414039 -13.429754 104.321014
13.612220 -11.387666 6.704203
15.135190 -8.873521 106.706909
-22.323729 3.474535 10.333282
-1.344296 -10.248411 42.812374
-7.117692 9.464900 5.239895
-5.700202 12.176516 87.841385
23.056019 0.220661 58.260231
-14.261306 -11.196172 82.807556
-14.025395 -8.810138 32.015953
-0.988407 12.727331 20.998449
22.058456 12.003188 35.312401
18.038012 -3.545530 93.167572
-25.884941 0.954126 37.523293
-12.148479 10.756381 50.253426
18.705635 1.048844 93.596336
12.645145 11.213364 23.790541
-1.664313 8.355504 14.066839
-8.963490 8.623438 71.125725
11.422048 9.566056 85.190842
13.853544 -11.551693 91.950851
-7.132592 9.477467 72.809357
-3.199621 -12.337256 109.418045
-20.256973 11.735544 32.208954
20.036484 -0.475703 72.866837
-19.068329 10.472662 56.219547
8.263262 7.961441 30.049868
13.233213 9.495591 39.220486
6.095993 -9.778011 58.689014
-16.542204 -3.546175 39.076717
-8.918159 7.995056 78.497055
-23.360285 0.857844 74.602531
19.223314 8.579531 38.061192
-15.260017 0.854153 105.127449
1.738927 9.434872 103.290504
-10.631311 -7.446677 51.830914
1.174401 -10.643427 37.440735
-11.606187 11.590742 90.555916
14.992309 -8.449564 35.336506
15.659844 -6.558149 32.719303
-18.022697 0.751445 98.891586
-21.229914 3.764624 83.629135
7.410147 -12.237793 95.400032
16.188736 12.957949 43.809795
13.448321 10.743432 30.195234
-20.891123 4.455240 74.507286
1.730468 -10.661072 18.213232
11.404591 7.793945 78.595108
-12.503216 -9.743996 78.637733
11.028008 10.728088 62.512520
-4.433879 14.679195 52.538212
14.520866 -10.049520 84.791626
12.879773 4.765624 107.720100
-21.247692 -7.109008 9.845061
6.413280 14.341926 97.749405
1.498038 10.572617 82.708221
-15.674825 -5.300212 106.233925
-24.113483 -2.607348 52.099976
22.735064 -2.677108 70.914024
-6.178104 10.896639 64.860138
18.958115 -4.875521 22.086472
8.421484 12.753830 101.850639
-19.685883 2.075883 65.849747
8.302851 12.311793 82.320572
5.660900 -8.486905 46.373199
2.247632 13.431403 59.280586
-3.771289 -11.462109 45.739616
-19.422647 -3.121796 53.501133
1.667081 -11.694674 23.609106
-18.483824 -9.462744 88.439362
20.382998 -4.962224 81.838936
-14.612226 -9.729856 66.468803
-14.116514 -9.403053 94.693062
-19.129681 2.909341 95.011154
13.342596 9.627612 43.475979
-23.059267 13.972385 27.048664
-5.556000 11.602084 12.645441
-7.217994 -10.743501 110.520531
-27.401730 -3.869765 23.962719
10.900349 13.588721 13.719534
18.836586 -4.742575 23.605553
8.510705 11.824434 98.321579
26.382721 9.439115 15.479323
21.141108 -6.734533 10.794267
-19.791355 -3.564704 37.883083
12.780663 -9.234706 21.508846
-15.761624 8.054302 96.936852
18.288940 1.320280 83.073044
8.635928 -8.763652 39.137390
-19.574171 -1.225326 77.331726
12.602893 9.926479 57.836643
24.905138 2.213067 36.574535
-21.616728 11.610066 13.033738
20.805189 14.042385 21.920465
0.795011 6.616713 114.003609
-10.198684 10.227528 80.465965
5.298479 14.590442 33.637882
14.941162 -9.533849 67.616333
-11.177037 9.106518 47.620258
0.677309 9.389072 73.827362
13.511762 -10.653437 41.251450
-7.637921 -8.068219 13.731368
-9.638880 -8.780709 39.270618
-3.402434 13.029452 38.893501
24.279060 -5.954514 48.658600
-17.637156 10.830073 50.695183
-4.164461 6.547773 112.035980
23.030119 1.582932 24.258934
1.538956 10.160955 79.575394
8.975633 -9.782836 45.136871
-20.626755 -5.108816 48.640446
0.585940 12.766502 49.196320
18.316042 7.567777 70.490730
-18.089964 -3.153187 32.759117
-22.077534 4.377915 66.662079
0.189215 12.721910 88.405708
19.821798 2.907068 71.689102
-7.347263 -10.064749 98.424599
21.013065 11.087897 29.278065
12.331030 13.278258 51.360943
-1.838679 13.627625 73.746284
-19.164276 -3.128952 52.919819
-2.804690 -12.598374 66.661804
14.124627 9.191612 69.153053
12.202076 13.452200 17.619837
20.413887 4.030634 72.461777
0.967615 -13.350946 104.150627
24.079691 -2.217469 50.311127
17.845018 -2.621480 35.752556
-8.801668 10.852235 43.771095
14.369900 11.165769 13.344873
17.133675 -8.855507 91.640312
21.710703 -1.192863 83.966942
18.220390 -9.536029 65.007843
12.512987 8.029531 54.353474
-0.818475 11.623269 54.249935
22.455679 1.941160 39.671558
-1.316875 -13.459360 110.456718
24.978552 -0.192494 11.302320
-19.202305 7.461792 68.894989
-4.883459 13.531226 85.278175
-5.909742 15.401134 77.539131
15.660192 9.996811 81.602783
21.846439 -6.308018 27.715117
-11.595568 -6.717759 10.620548
-26.487347 2.253147 13.926443
7.786809 8.601830 88.898392
21.416578 1.880582 44.351349
-19.486633 8.687370 55.809464
-0.731641 4.722270 84.003105
6.189435 -10.220696 50.682186
1.186734 -14.940072 102.464561
4.850738 12.661849 88.621162
-12.649454 -1.941755 114.070679
25.140123 -1.519900 38.480194
-4.949219 -9.636786 78.226219
23.145220 3.679516 38.352097
21.258417 6.375139 25.842731
17.797544 16.833155 20.745483
-17.383137 -5.561151 10.286821
21.172983 0.709215 40.335228
4.836642 12.705915 98.960396
18.903669 14.193439 12.124464
10.237559 9.980769 70.469032
-9.470952 -8.485945 75.797867
14.234536 -10.831215 73.131165
15.801576 -4.766951 32.920033
-14.028441 -4.244315 13.406923
-23.729712 -0.174420 19.772915
-10.869688 -10.122991 91.480942
-17.879398 -8.031508 73.130638
25.498220 -0.370536 13.073508
13.969029 -2.316820 106.310616
9.129855 -12.824418 99.326668
2.282711 10.273445 73.875252
-3.509016 -10.376086 111.489067
5.043710 14.753647 72.619492
14.983013 -8.906300 26.554276
6.484615 12.413988 80.499329
-5.896174 11.557514 73.454933
-10.563502 -6.802855 114.697174
8.130392 -10.321000 63.024483
-18.357679 -4.381912 47.977230
-0.398595 10.083453 20.935724
11.271732 -8.470282 73.480286
-14.360745 4.455835 105.238655
-0.429532 7.545341 86.223587
5.443610 15.541251 44.419788
-2.087279 -11.960888 101.099609
-13.024031 11.380565 20.591845
-27.033293 -0.893652 18.146294
6.987868 14.154292 67.851929
-1.005013 8.019801 107.838432
-21.485144 4.529753 37.216782
21.720325 8.330981 32.843960
-0.664114 -11.109274 88.469231
13.851003 -8.706223 95.776993
20.007023 12.907695 16.100273
-18.951885 8.438038 55.103100
0.671163 13.412936 33.144470
17.903667 -7.256638 85.571259
-12.809806 9.093330 83.796997
-19.593084 -6.951618 82.107597
24.324024 2.265621 13.992126
-10.943540 -6.976614 100.376450
14.868366 -10.776476 99.242699
19.639210 -5.117608 15.714947
-2.240408 15.602120 42.198242
11.978523 8.786207 68.477684
-2.193515 13.286850 31.918200
-19.984215 3.867815 58.983543
-3.633991 -12.068135 23.999680
7.051481 -13.010141 99.871101
-15.494645 -4.872036 101.392578
21.576593 8.508745 51.253773
-21.057522 -7.853004 76.207230
11.557677 11.030699 47.340546
21.324989 1.126124 59.019325
-22.390373 5.642389 34.581509
-19.948233 -1.204723 54.531487
-0.092453 10.109830 59.848549
-3.872139 13.319223 37.084213
-3.958111 -6.610636 73.576210
24.547325 9.198104 38.738411
-11.315015 8.635561 105.261482
-7.599176 -9.646348 72.239426
-8.066130 -8.377928 13.370831
5.011362 11.893164 19.490692
11.515654 8.653575 75.898270
-8.404256 11.167401 68.290237
-22.644962 3.278300 47.181564
9.632987 10.470516 73.963478
-25.924805 -2.014128 34.062141
-23.742676 -5.957007 6.361621
-26.863117 0.286060 32.951763
1.210919 10.416397 65.325150
-9.388440 -9.726975 111.327576
11.276211 -10.482622 51.186539
10.498530 10.763830 79.997391
14.729281 -9.585250 33.723728
-8.879439 9.145016 66.414223
-10.388947 -10.184681 64.675583
-20.422791 -6.178030 16.879622
11.033622 -8.307947 14.216213
-22.640163 0.352525 67.985329
16.945946 -5.653798 47.434326
-4.501248 -10.336895 66.182480
15.503006 -8.256077 91.823250
4.263719 -13.020026 114.486053
11.545004 -8.406828 100.819939
-19.637856 3.401775 70.052505
12.181212 9.994743 31.768822
-4.300896 -12.746089 62.776474
16.685251 -9.960186 83.050713
-12.083241 -12.413394 96.026482
-0.782752 12.180125 67.538445
7.919982 9.057692 36.529579
14.717943 -7.417135 93.461433
19.697620 -6.740975 80.723206
4.255037 12.893002 60.446972
13.603854 -6.219909 111.122192
19.900959 7.333642 67.228394
-5.518095 -13.348616 104.690331
-0.999213 -8.449777 28.347803
14.562862 8.392849 94.164742
6.268501 9.706272 11.223904
-26.606476 -2.219975 18.713533
-5.339041 -10.147976 105.529556
16.557592 -4.183867 15.027604
-9.339076 11.725820 96.624908
28.521381 -1.921678 20.501900
-12.590867 12.183029 17.450151
20.083759 -5.554189 68.819962
1.692356 11.757317 62.662449
-2.145454 12.183651 81.256432
-24.544855 -5.101736 23.591204
23.137562 8.736458 23.414564
24.254189 -2.807731 62.292301
-4.671637 12.055123 19.209700
-23.623848 5.211573 16.596651
0.791759 11.671143 63.761620
-10.303844 -9.943264 80.878883
-6.792339 11.389929 12.096680
-21.464762 -2.538177 36.698856
-16.889547 -8.447809 92.102310
3.128496 13.038609 31.615810
-17.140362 -4.016245 18.226358
21.066574 -0.855350 59.021923
-15.405680 11.004598 36.904133
20.866310 8.531449 59.665405
-4.818645 -10.072397 24.098581
2.084770 7.668577 84.580208
-13.634457 -6.059230 27.324247
-4.302861 13.512252 90.004723
19.973322 -2.793964 83.293221
3.912061 13.100264 7.378779
3.963588 13.620449 26.845049
-21.485605 9.692638 50.601837
-21.422495 5.040999 45.361118
-12.784725 9.069654 60.021618
8.860079 12.911537 69.772621
-7.571780 -8.561756 55.230164
-10.837448 -7.682615 10.396409
-2.322299 -9.058323 21.342485
-1.343432 -7.674187 114.626320
-8.546070 -10.158072 101.977173
15.822351 -4.095653 100.735977
-20.118887 2.607322 81.552834
21.637138 14.615129 9.384616
26.312172 -4.631602 47.640812
-9.835057 5.657374 111.657700
22.570072 -0.205302 58.153458
0.198030 -14.729280 104.509621
19.070553 -2.901760 83.919922
13.499055 6.964599 71.073280
4.093513 13.165656 77.259102
-15.422709 -8.191718 97.627182
-4.139751 14.320199 91.152832
14.451162 -2.569908 111.658432
23.095730 1.804986 42.423435
-1.173459 -11.325238 52.927921
-23.467667 5.300529 38.648335
-8.176459 8.868995 104.440781
0.862494 5.314145 84.524048
4.549259 -13.110576 100.263504
-6.910152 -8.443422 74.932526
-18.740133 -4.454855 71.257896
19.280287 11.882225 12.744841
12.013746 10.064647 41.627026
-5.125138 11.649505 21.066305
16.381687 -5.234793 35.778099
-19.744423 9.585057 69.172577
18.517736 -5.349085 75.685631
-2.285458 15.491595 35.991314
-10.931099 10.732377 26.725029
24.727333 6.154883 16.366306
-8.717868 9.181142 20.430979
-23.963634 1.905951 50.171253
-7.334443 1.952435 119.855820
-14.051425 -11.430190 77.595345
14.603122 11.579308 55.767879
2.916916 -8.311625 22.962103
-24.181732 -2.151309 55.280891
13.546474 -10.077948 36.911938
3.942589 -10.752998 52.415916
11.806604 -12.482996 44.259899
0.763392 15.135902 43.631641
19.226101 0.285416 96.080841
-9.376834 9.350300 27.619192
16.229834 14.922716 15.906339
-22.484253 2.548297 55.809303
27.957527 -5.744460 12.507990
-22.044643 -4.648239 68.707588
-2.542353 -11.066293 44.357231
3.425429 13.503639 25.746758
23.051779 2.610368 55.110550
-15.325447 2.152341 107.290611
9.739002 -9.951715 13.273948
-9.885787 -9.353590 51.459492
-8.392147 -9.907286 48.143482
-9.432695 5.849077 40.861782
21.739893 11.075017 35.397919
23.190302 -5.202394 9.738271
2.518089 8.660902 82.059616
-4.081343 -10.395177 86.982262
8.907364 -8.149948 50.567554
9.068625 9.716449 42.481560
6.122585 12.226289 75.823883
-14.605929 -10.092609 83.592201
-24.570656 -3.644020 19.092930
16.413857 11.817002 50.198421
6.015534 9.169913 26.441954
2.556908 -6.274318 72.356682
-14.018200 -9.558497 52.251076
-1.764229 -10.938142 95.767906
11.687063 8.648107 67.648659
24.712017 0.477574 16.409927
5.517316 -11.535326 64.035156
-20.003643 8.278380 66.927597
-22.701149 8.615172 41.143124
-16.543608 -1.976153 4.459429
-13.501936 -9.835781 32.890327
0.606605 -6.227140 73.614601
4.510892 14.986352 43.649559
-9.673068 11.413600 9.268343
12.903578 -6.377892 15.647703
-18.737595 -3.321214 84.129105
-13.589844 9.304201 26.064415
-16.664398 -3.360341 98.559082
22.302027 11.547086 23.562838
-11.892143 10.002364 42.154728
2.282977 8.149201 61.360168
22.682756 -0.893852 28.237629
-1.003918 -11.854250 49.603195
-8.797719 -12.172091 103.886879
-1.214958 10.824169 89.507927
-23.123922 -4.225404 25.325739
-0.221707 15.273426 95.203201
-10.978272 11.435858 35.292175
-1.896028 -8.190805 87.772415
-22.784973 6.732572 57.930584
0.524071 10.647936 72.199600
-6.612227 -12.110580 92.068817
22.726463 9.838228 32.131363
19.392700 -4.071321 13.323932
9.427746 -9.340949 70.172935
20.168966 -3.542700 23.807802
13.972528 10.086280 51.508816
21.822702 1.750200 20.513140
-5.074476 -9.165340 71.077415
-10.541952 -10.223640 69.165527
13.309116 -6.516864 43.119148
-16.894815 10.825438 54.272045
4.899925 14.494013 60.953960
-17.412790 -8.098450 53.276569
22.737366 11.622658 14.780321
16.284065 -9.041199 87.631195
-16.789619 8.888257 62.420780
-0.502748 -13.673660 100.405479
-19.740841 3.773228 46.766445
-10.464742 -8.822792 99.513664
9.740207 9.329054 20.072292
-0.106188 8.965183 70.568321
6.653492 -7.873523 101.121552
11.403915 -7.778578 97.850189
-7.167992 13.613499 54.700653
-10.614924 -9.669707 34.419544
19.453985 7.646976 61.815315
-23.394911 1.017074 76.307022
-1.566420 -6.119799 74.189636
5.458884 9.510000 25.159086
-5.450272 10.318999 9.882539
10.186285 9.275558 9.098020
-1.657283 -10.820384 50.324917
-21.175844 3.809343 61.775444
11.082317 11.749528 12.830446
20.875496 11.121623 19.166939
16.853498 5.062086 82.224136
19.778364 0.896175 89.131104
4.672698 -8.779085 17.686304
-23.564436 -2.555111 37.859177
-3.431356 -8.331071 81.670547
19.867214 -4.260366 16.003298
-17.646984 -8.174691 92.824203
5.300755 12.979091 89.904037
9.865869 10.986256 13.433687
9.534201 -6.626231 16.821873
-21.188643 -1.661865 72.516235
-13.634767 -9.122714 17.607788
-4.504888 13.585637 61.345814
-23.056746 4.901545 20.713629
2.821992 12.544736 49.969341
14.837265 -8.140449 39.921719
22.187181 2.041298 11.793447
-19.010338 9.726632 71.714241
8.740032 10.727340 99.495628
11.755492 9.458664 55.771633
-1.453818 -9.093274 16.683580
20.787003 16.028332 11.100349
-21.081360 5.288919 72.497810
-9.346731 6.660111 100.370430
14.795695 9.304058 30.833155
15.039717 -10.844104 96.914803
2.923527 10.284330 85.259247
-18.236628 -6.067957 16.660011
23.686872 -4.624893 48.341972
-16.190228 16.643391 18.674904
20.824800 2.844502 72.049522
10.898971 10.461122 97.639381
16.417839 -5.414708 39.777519
-22.319202 -3.347605 80.680885
10.393691 11.819690 68.895096
-19.543627 -2.552621 16.250992
16.736797 -10.038507 55.131676
-10.453108 6.784331 105.252342
-13.059151 8.685297 59.483883
-6.788678 13.891146 91.972351
-22.967308 3.629473 54.382584
-17.884092 13.545773 50.924450
-16.342415 -4.015121 97.656242
-20.738264 14.251125 13.211801
-16.842089 11.772437 13.163959
-17.668671 -4.938202 96.101997
12.293579 7.771121 95.268867
26.598812 4.944073 24.816071
10.962788 -4.655904 10.581809
-6.180962 8.725084 103.535294
17.046242 -5.381572 31.846687
20.475405 6.410850 74.181244
-13.954298 -7.598551 87.056190
-14.337794 -10.629082 72.591866
-24.187628 -3.381401 28.477728
-22.147337 11.308375 16.964195
3.628242 -11.423628 28.737411
19.604120 -4.019380 19.021156
-24.516411 -0.343589 67.976837
-26.784357 -1.292891 18.808876
-12.253698 7.540279 106.924316
22.986544 4.374870 59.244236
-19.413147 -4.701388 84.874542
-7.923886 -8.667240 47.699165
19.588797 -6.404490 12.069802
-4.020021 11.286169 70.343285
-23.767406 9.369963 10.903120
-17.310892 -2.673333 95.799110
10.808370 10.297526 58.859695
-18.015829 -9.921560 80.081902
-16.658810 7.831558 85.809685
-16.886919 -12.147524 82.982803
0.522707 -6.894338 88.714844
-21.847450 -0.325925 79.222214
23.261452 13.606541 17.744553
-12.338517 9.506443 98.389236
-4.372882 13.160498 79.529243
6.898248 10.597248 22.250023
7.337047 -9.157150 21.593733
2.419889 -7.879350 78.493484
10.950530 8.832043 23.480036
-23.485691 -3.821007 62.872463
16.553829 -7.032608 24.941132
19.562208 -5.397902 49.926529
11.390539 -9.381021 64.355743
-7.590091 11.219320 34.983833
-11.615058 10.274243 31.366655
0.165344 13.633183 94.356796
-14.125973 -11.796365 31.524073
-15.344273 3.801925 103.500298
-2.048486 -10.081236 36.299622
2.547594 -10.747253 109.445892
4.153307 -9.573955 98.989746
-25.378401 10.940069 13.295037
-17.248053 -4.914959 98.043144
-18.287146 -5.334530 32.649834
-6.753216 9.995476 98.514900
-5.852813 -9.099331 48.433887
19.462400 -4.705735 12.742699
-2.545247 11.999382 52.400417
19.619528 -3.445687 73.953308
-13.127030 -9.788147 71.599281
-3.117763 9.989165 23.467331
12.414200 11.810298 18.021332
21.700703 -1.516244 62.571308
18.901346 4.900813 93.965660
7.956038 10.628870 10.520499
-5.101869 12.355077 48.344772
21.300600 -4.589521 53.915550
3.874749 -10.710521 87.855751
26.549847 -4.281379 16.173155
21.799063 11.273501 36.428207
-6.312474 -9.982564 32.794285
14.288612 3.510561 98.016602
-14.764390 -7.549326 60.576054
13.344037 -0.493144 112.183060
16.248686 14.419467 17.453358
-14.243809 -9.901962 27.884098
-20.697926 3.308435 80.407425
-22.416416 -5.556559 40.819431
12.609139 11.431224 36.424294
-11.523158 -9.916770 78.466446
22.493973 11.338998 31.838821
-1.184608 11.208233 8.763461
-6.549011 12.941051 90.913864
15.464537 7.885415 77.700615
-15.715240 6.070615 93.880417
-25.844584 -3.697634 31.686188
-15.091398 -7.814710 30.572731
-6.725823 -8.573226 39.201328
-22.062084 13.157275 26.465843
14.699641 -6.518695 12.350745
-15.545971 9.399525 60.754807
-0.877660 -12.307151 113.476875
17.713289 14.346236 10.294728
-19.759571 0.606311 80.002869
12.695097 -7.629388 20.472036
20.779963 6.611814 39.769871
-18.944811 9.274040 65.254166
11.206463 -10.142020 108.701797
15.422478 -8.664344 27.825634
8.060080 12.709424 65.204308
-9.615093 -10.064485 83.122391
10.322901 4.084530 112.209457
1.676720 -9.629735 80.115128
-19.659332 -1.921834 91.498268
-2.820837 -11.251019 89.834419
11.366907 -2.724435 112.642006
-13.715674 -7.787820 38.184551
19.191435 -5.317519 77.398232
-17.710804 6.948733 79.705742
-8.880928 8.684608 24.570667
-0.839952 5.028119 113.062019
-13.927481 9.476541 56.997101
20.135185 -3.600460 15.422665
-11.321902 -8.716952 65.241257
-8.761770 7.916234 36.554131
-7.811275 11.299379 95.772903
-2.400012 8.366669 9.964791
-19.837168 4.680402 69.994499
-9.354011 10.419422 75.954979
4.676542 -10.072978 76.087883
-21.829725 3.014975 49.106186
-19.305590 -8.051781 73.930580
-10.371031 11.298058 83.251411
-18.456619 9.849595 55.524269
21.090937 -3.047562 59.558319
-12.081091 -9.717257 36.378708
-7.074085 -9.868534 106.070068
13.113505 10.755547 42.982559
-6.360160 11.290153 63.083866
-9.479960 8.609496 26.204288
-1.823691 13.431208 97.572258
-2.329485 -10.692202 12.812700
22.625885 1.993821 14.762077
19.693914 1.319559 81.539284
-27.028681 -3.835402 17.353394
-24.153790 2.469852 64.609352
19.961599 -3.752158 85.207748
8.284233 7.651679 103.379974
12.659944 7.394461 95.214401
-14.372113 9.581215 41.017933
15.566132 12.659575 18.638483
17.432499 8.933629 64.835510
24.792143 -3.916516 34.128590
-5.028592 10.773589 34.440269
12.878431 9.902875 44.149391
21.318596 -2.350879 50.923027
16.856236 6.046802 79.638809
5.584360 10.886432 98.506500
23.866722 -1.358282 60.775761
-20.760118 -2.945053 45.125488
-0.481713 -10.043551 52.526466
21.409201 1.671868 28.216845
-19.069424 -2.461057 26.636301
-9.599542 12.579200 95.036110
5.276706 11.399417 90.665123
-12.423008 -8.858076 81.019981
-15.771312 -3.938923 35.057152
1.355497 -7.753351 41.012028
-6.551219 -13.861761 109.641464
17.325239 -5.506381 104.495346
-25.518539 6.852149 22.326950
-6.082606 -10.519389 38.064800
-23.397125 -0.062616 40.541832
2.569410 -13.035541 98.183060
-1.181188 11.859184 24.732649
-4.422260 12.945044 35.124847
10.541672 -9.948104 51.104183
1.474211 -10.927592 92.134041
-22.818867 8.292614 17.937847
-26.094706 -0.403275 29.597103
-0.736071 -8.691592 39.403347
4.611902 13.077842 95.020508
-22.315212 -0.594613 15.073998
-7.575587 12.298075 42.031109
27.410801 -2.518390 9.850399
-17.514820 -3.967037 74.033234
20.654747 0.618940 72.510796
15.856890 -11.701755 64.734863
3.115260 -13.457730 103.162560
23.348728 -1.936051 56.980968
-5.251544 10.065366 98.298241
-21.681906 1.317438 77.852715
-0.275842 12.807819 81.913483
16.277018 10.966528 57.855324
-16.004639 -9.264806 51.460705
-25.698872 -4.225669 33.122059
6.899876 -11.816609 40.708885
-17.409359 2.843943 82.189713
11.554178 11.014123 77.338875
21.353155 -4.809317 14.545689
15.409249 -1.948270 106.096977
10.075368 -10.467402 109.720001
-6.648818 13.724789 48.302887
-21.065962 0.703685 71.361046
16.040915 -10.831762 62.426861
-7.145802 10.352139 14.365095
-19.386225 8.588306 53.946461
8.594844 11.539392 83.232872
10.038097 9.624976 63.813084
24.615387 -2.415344 77.806091
-22.675484 -2.605804 20.829290
-15.432445 -6.946967 100.756271
26.696442 -3.447178 35.372917
-17.147995 -9.699588 83.121918
-8.979899 -10.397930 94.450729
4.045469 12.991688 31.374311
-6.181017 -9.127884 21.529871
20.459063 -0.825509 78.547562
19.994236 -4.588974 70.503227
-13.347648 -7.537872 76.329208
-19.230082 -5.856824 85.216805
-1.277869 11.271986 71.644897
-11.396872 -9.541254 33.176205
4.974978 -10.927780 89.587006
-11.982975 -7.036281 7.752210
-6.674356 5.759342 107.583168
-19.166889 -4.648489 49.892323
-1.545030 -8.462577 12.032861
4.567840 -8.509550 26.781626
17.065701 8.012181 69.925133
24.055012 8.413426 17.605011
6.466264 -9.562300 18.149611
18.064011 -4.999961 59.297237
-8.082054 -10.864593 43.000019
-17.185186 5.650207 59.385471
-13.994942 12.248146 23.269436
14.672927 -10.537522 57.622772
-13.663251 -6.724761 14.773857
10.370016 -10.011234 30.865841
-7.279255 -9.904051 36.152599
-20.473806 -1.151699 72.606956
22.019064 0.807951 55.236591
-21.822981 -5.351087 69.241440
-11.220882 -10.979028 9.432673
17.325443 9.944383 50.153843
21.942930 7.007863 44.015781
17.817135 11.098912 43.045399
10.384862 10.887733 20.570124
-24.887136 10.202199 11.222999
-8.345286 9.642786 52.478210
20.297737 -5.448416 53.057762
-2.328494 -10.189757 86.753113
-11.241285 -10.073780 82.996025
-9.640067 4.064508 108.713890
21.021372 4.891472 68.364784
-8.495118 -9.467904 34.891449
0.087216 -12.545585 59.740341
-19.895308 6.885740 69.138870
-14.170834 -8.297934 49.013489
-14.236085 9.530387 86.337456
3.376398 -9.052480 85.054459
3.826377 14.491612 62.734623
-7.453410 -12.662803 64.162323
14.749504 -2.592590 103.480942
14.904554 10.311473 37.909309
-10.030513 12.154625 55.023247
-14.134334 -11.472383 89.394081
0.327220 -10.051384 99.210144
-22.606318 3.896399 65.464256
12.649977 -9.787611 89.424980
-15.520988 2.114651 105.132576
-20.043270 -5.631375 60.762280
5.511418 -11.914565 69.773911
4.506523 -11.490705 65.792824
15.000299 -7.084126 35.089508
-16.229616 -9.144218 79.204575
18.805950 -7.658481 65.769707
-2.988481 -9.346617 82.416946
1.405833 -9.092680 82.086227
-24.160122 -2.625375 47.616699
-15.087893 2.054521 95.819801
-20.046749 -5.244086 32.424751
1.144467 11.338083 73.774452
-22.360226 7.571084 48.395702
-3.896278 2.249720 116.055794
6.135948 -11.908391 102.288147
0.672448 -8.698869 38.439949
13.671514 9.876309 13.060530
-12.457826 3.883038 109.297226
16.070419 -8.375561 38.065041
-20.810448 -5.101596 38.002899
10.536584 -12.199645 61.710587
-1.863808 -8.895826 39.002537
-22.786217 4.645823 27.763210
-4.931703 -8.350225 12.984746
6.131459 -10.673565 29.291706
4.591794 -12.975524 99.731812
0.882952 -8.526048 35.361492
-13.910326 -1.924593 108.279358
-5.299926 12.809379 91.312500
-12.092243 -11.080917 75.109848
16.891611 -7.886475 95.868591
15.768577 -4.760506 27.661060
2.142477 -6.857227 35.051926
-2.915546 -7.195571 82.696106
-1.120817 11.842274 76.923233
8.547814 11.099313 29.496080
-20.558691 13.183487 24.708628
-3.502820 -10.653028 41.630253
11.736290 12.022866 11.052130
4.142194 -13.979145 112.806953
-2.998487 -7.833077 75.655190
-3.965305 -9.106409 44.242283
-10.327147 5.432021 108.453598
-18.211466 5.166741 97.812012
17.864658 -5.509044 22.802010
-11.574425 8.633583 67.290665
11.668802 9.104733 73.642387
-4.818957 -12.503335 46.610950
5.451994 15.299302 80.261169
1.318324 -10.184836 93.236824
-13.070779 0.199663 110.166870
-19.196922 -3.838580 44.066986
-5.928895 11.376298 94.958496
-11.753903 -9.572248 101.723961
5.160604 -12.864634 108.476463
-12.880450 12.889234 21.133310
1.535725 12.291710 79.231277
12.272843 9.061270 60.021683
21.006744 3.189043 89.036896
10.803337 10.423711 65.143700
15.286630 0.429184 106.601372
-2.312323 11.260133 102.717896
5.252918 -10.510139 83.220291
15.576071 -4.746517 42.220798
-14.443886 4.833653 112.106171
-12.338608 -10.386481 40.460995
-9.728464 12.790120 97.630714
11.041712 -10.494875 112.743042
1.029279 6.256268 111.523323
-6.476643 -8.472007 91.038033
-19.463028 5.612465 77.339630
-3.177933 11.849109 29.808687
-1.509943 14.402439 61.293121
18.422941 -5.923541 42.775715
-14.567839 -9.239495 34.000057
-3.326511 13.589842 74.707039
-14.857720 -7.044544 24.353550
15.305085 -0.386019 103.735802
-16.980120 15.093323 29.158546
2.224993 9.999770 14.985881
15.873525 10.942952 20.134830
-15.188146 -6.563167 24.527689
-20.731762 6.764315 67.364189
22.887764 6.975862 30.083050
18.802006 -4.619798 54.029095
-3.588204 13.846910 82.802620
2.882220 8.815327 70.118759
-5.764924 13.124949 83.288879
-8.662054 9.495467 27.306919
6.996470 -9.016574 89.052200
-9.367509 -10.105812 99.071678
-14.437451 13.579762 25.803846
-16.678623 -7.895434 80.855400
-26.843393 -2.902326 21.152544
-20.483152 -4.107584 93.406418
6.762996 -11.210574 109.430008
21.521170 -5.433645 12.814183
-12.803372 7.823339 99.665100
-19.355074 14.651153 10.385676
-0.348537 -11.437787 114.791565
5.078773 11.697291 19.181557
-7.155057 11.471824 77.464714
2.133395 -11.691489 64.441521
-20.660950 4.740824 51.353420
-26.012201 -1.366788 34.874062
-4.605350 -12.327987 116.754875
-12.660399 6.855639 99.873505
-15.854248 13.700091 40.464169
14.977908 7.520807 75.538376
1.975258 -10.372221 57.631298
-2.423090 6.804285 110.185562
-15.103415 10.858802 33.433788
3.392332 -10.587526 14.714833
23.999321 1.391432 36.920055
-8.302430 -7.619900 80.092407
22.041965 11.930050 21.858784
15.963387 -8.528743 65.037582
-16.089615 -9.382742 58.395332
-11.792008 11.055129 12.656489
9.070520 -8.620973 16.475658
20.901009 2.099570 83.827652
6.510479 10.555759 26.492050
-20.700451 11.132511 33.863796
16.164444 -9.798196 83.227417
17.589960 -3.495871 28.522362
-9.713882 9.547413 105.056870
21.351913 -0.346821 70.778801
16.621950 -4.514247 85.879181
-18.387577 -8.712683 32.075298
-13.097798 -9.413898 51.099262
-0.795356 12.145530 54.166733
-5.248197 5.030178 111.514709
4.471165 16.343618 52.434414
-4.070470 -10.290695 87.544785
17.924620 3.932364 76.870110
23.387581 9.046576 23.471472
-25.418753 2.683219 41.014172
24.170492 5.590847 26.997326
23.603985 -3.136220 60.738194
1.802652 16.113926 48.439846
19.668642 -6.298391 15.761626
-16.506548 -5.275696 105.662651
13.073418 9.979107 92.435112
15.817594 -5.729931 32.157730
20.957739 6.573780 45.622211
13.925981 1.860865 98.664459
-16.372032 -3.158377 101.333366
10.150496 9.552019 63.295864
-18.917181 4.850025 94.278786
4.363870 -12.219232 110.450829
2.787490 10.590775 97.162682
9.473040 11.256235 66.240761
-23.160944 5.744850 17.552345
5.608580 -11.004771 88.931793
13.991739 7.393933 96.694389
-22.171144 -3.995430 38.959251
-28.408398 -1.324504 40.905098
-16.697828 -3.987247 10.378909
19.890402 2.677214 69.117119
19.714144 10.893807 35.455299
-22.600075 4.967417 17.952465
0.800514 -9.814077 83.750244
-15.009789 12.096770 55.217720
-23.086540 -3.034551 42.616795
14.273945 11.756641 39.177223
14.473790 11.554089 38.563972
22.219696 -0.413858 55.670158
-10.014082 -13.674440 117.041649
9.757370 -12.112005 21.614559
20.427114 -1.469359 55.769775
2.378950 -9.634468 48.698105
1.421100 12.472245 3.328376
9.145726 -9.439734 24.565784
8.631527 10.999748 44.854965
9.080329 -8.651587 15.040181
1.976284 8.889322 68.810173
19.534813 1.119994 91.351242
11.142820 3.939631 113.719505
5.808629 10.972423 15.562974
14.054827 -8.665772 38.892994
3.106557 -11.629099 105.216347
6.761974 9.839509 31.507215
-18.697987 6.371382 77.982864
11.355672 -8.510005 96.422714
-23.340080 8.675714 23.726732
21.151955 11.851137 42.879570
5.786376 -8.657789 82.569786
-14.880549 9.008604 74.777557
-8.589184 -10.362773 84.894257
14.104487 -1.347552 111.122147
-16.526501 6.969783 90.919807
16.697996 10.685510 44.287468
-25.475702 -0.681499 27.431530
18.751223 -3.439540 49.728970
11.458581 9.288992 10.501595
12.723104 8.317712 81.646324
-22.559589 3.294621 40.363659
9.056264 9.497356 36.291794
8.862010 -3.128564 112.306847
-16.678255 -9.534298 53.948486
18.754379 2.858412 85.604942
10.734471 1.222191 111.682198
5.009341 9.520232 16.353228
-26.163086 -2.127356 29.039013
-19.978695 0.408814 47.096157
23.405527 6.400389 24.644968
12.421496 -10.096542 94.280243
15.170232 -10.717297 70.342583
19.314697 0.091945 93.187935
-22.427593 8.654049 39.250019
23.918453 -7.241045 9.054126
9.191399 -10.605235 48.181660
1.274215 9.660915 64.217293
11.210019 -6.866864 66.957901
14.872944 4.723963 110.429398
19.405737 -5.880113 79.822754
-23.857023 1.497070 18.598322
-2.362992 14.027832 72.811005
-5.154118 6.635653 117.578003
11.638002 -11.979600 45.345726
-16.431108 3.638376 87.801361
-4.286909 13.314481 99.208221
-14.084410 11.436671 97.239372
5.472263 -6.693783 67.703415
-15.349592 -1.543381 100.697052
-22.220394 2.713403 40.966095
-18.282566 -7.345136 37.047562
15.766421 -5.222626 11.936866
11.289235 -9.660049 95.260818
-16.904507 4.288761 100.606110
21.041775 -4.379561 30.976555
23.445742 11.615378 20.100828
24.483606 5.546129 16.141289
-6.169317 -9.076240 22.995291
17.316017 -6.000263 16.542288
9.798425 9.731212 27.502695
-17.154757 13.282804 43.872257
-27.028196 -2.290549 24.449581
-11.514306 -8.915377 93.397217
19.250427 11.694200 37.701996
6.262743 -11.573785 77.682037
2.226351 10.027374 85.400459
12.412584 11.148112 85.422783
8.975769 -11.987316 102.835373
-5.651127 -8.286784 50.425224
8.319212 13.271290 65.958275
10.803114 -10.670934 19.754681
23.074652 13.837729 33.137146
14.426695 -6.902307 90.298378
12.920744 -8.725236 11.440617
-6.034048 -11.224174 105.168007
-8.247273 -9.037116 25.231781
8.514162 -10.676642 105.906189
-2.537436 12.666997 60.813095
1.230013 13.944633 89.480873
-12.352771 -11.124987 50.214069
17.916107 -4.286255 36.475952
19.586405 -5.442561 25.812807
3.438905 -12.424103 103.680237
24.289658 -2.986058 67.216148
-25.302034 -3.476378 24.554560
20.235008 4.747252 89.493889
19.663685 8.065824 59.283474
21.847101 10.414145 31.146303
-3.123761 -9.708208 58.064812
17.982405 -5.581813 74.740982
23.413355 2.219463 43.385105
24.571754 -5.510803 56.996101
-19.536602 8.452836 51.886883
14.917850 12.784025 26.857533
14.908216 14.983502 16.895647
19.356636 -8.586589 83.303902
9.359747 -11.255845 93.223602
17.181376 12.000190 44.457073
-26.830667 -4.683684 21.259426
-8.887493 -10.363331 77.988373
2.507478 7.046032 108.591850
-2.599712 -9.347934 50.397324
-21.044813 -4.221169 46.967072
10.535423 -10.952173 97.073997
-3.082837 -10.889718 97.686890
-6.837315 10.734306 91.739418
-22.865679 -2.144295 53.022491
-6.170739 8.283549 103.509132
-2.383069 -12.776275 56.391739
18.147566 14.281203 28.013405
-22.895004 5.717204 66.368713
-7.466319 -12.479548 59.035511
22.955912 13.022414 28.909088
15.975079 11.627519 50.050980
-19.214798 -1.023954 92.985893
23.625240 0.290173 20.331223
10.450222 8.522803 72.494209
-15.215875 6.506809 65.989548
11.242858 9.291848 79.551422
10.828738 7.663579 64.103523
20.846998 7.731531 44.368202
-3.896346 -7.226331 78.922569
-16.556492 12.981088 34.981857
1.123477 9.886297 83.360237
24.704948 2.725687 23.175379
-15.218410 9.283362 75.315552
-16.513491 -6.293760 23.953314
7.367624 13.691463 46.743038
11.127946 5.800946 104.062012
6.672900 -12.344069 98.141968
-2.820663 13.742766 24.047537
-6.515613 10.035699 18.792936
8.054654 12.261436 66.710960
-7.259795 -11.181932 79.950409
10.594876 0.209995 116.170753
-19.394283 10.125740 50.484089
10.964166 8.904695 105.395073
-9.227726 4.527429 112.440361
0.748952 -11.086023 55.189396
18.042198 6.735849 94.168564
-4.698690 -12.199203 102.108757
-1.852816 14.177914 77.204620
-16.329891 -9.411846 50.371342
-11.342759 -5.726081 20.021221
-16.238653 10.424559 69.701225
6.581051 -11.595807 99.964256
-20.315924 -2.562143 13.608780
25.646095 -4.064354 14.745476
11.032255 3.606288 113.566574
2.625291 -6.902154 39.810383
-16.959953 -9.706569 38.378998
1.607746 7.781387 83.002769
15.643274 12.253706 90.626396
-11.297928 9.726349 84.325699
-11.591614 -9.389362 43.112003
-21.895277 -3.314112 16.810450
-14.796270 -6.429684 94.414413
1.901441 -12.556771 110.151268
-12.551122 -8.357519 13.495641
-10.532476 -11.190755 16.481617
14.861245 -9.638692 72.235626
11.136959 11.010973 84.863098
-11.627041 -8.892867 97.590248
8.457632 10.608669 13.706430
-24.049992 4.646344 33.313217
23.956108 -4.640971 37.708145
-3.877608 -12.536942 24.150055
7.839325 11.074956 30.518061
5.116364 -9.943769 57.999462
3.294992 -12.031703 92.245102
-0.459715 -11.019773 63.462315
-4.499218 -10.658453 16.009361
-22.107138 10.649539 18.783459
-2.084117 -11.464622 64.922195
20.688354 -3.459918 67.850555
24.320848 14.529153 13.234661
12.516548 10.197499 87.294594
-2.510896 12.418506 84.659645
-9.193762 -10.598468 101.759071
19.052074 -3.894186 58.308887
0.232551 11.393560 75.903519
-23.810326 9.751428 41.135643
7.107994 -7.985252 54.289169
-24.390797 -4.675569 17.073792
-6.058835 11.916945 98.125359
9.603299 11.969316 97.814377
-3.772152 12.638078 19.793806
-10.099719 9.628934 19.715433
-19.858383 6.105852 79.110870
13.362915 12.531910 41.868774
16.182055 -7.256457 55.414234
7.208632 -11.463511 81.971222
17.804686 -8.681651 84.365578
-25.323582 -3.040757 22.165525
11.156781 -9.665979 86.733536
-1.557104 11.918815 24.691492
-16.727167 -8.951973 75.746498
-15.128543 9.336803 44.335045
-3.598180 -8.753748 40.803883
-19.775198 9.250252 73.647575
25.677912 -2.231384 32.490128
14.114504 3.980311 102.040352
-3.027040 -10.686767 43.847561
-17.617064 -2.345042 21.111792
-13.121553 -5.923992 21.702868
8.120719 -12.805693 33.794529
22.113737 4.590525 47.338730
8.656201 -12.241504 26.320507
-17.734402 -8.272431 45.620979
3.961872 -9.888590 111.893646
22.422766 13.700362 23.561306
-15.350039 -9.024676 93.757805
-18.872641 4.696865 70.597343
-10.891143 8.289280 58.382298
17.877357 -7.394216 43.542084
21.644667 2.569110 71.872780
6.936045 -10.827853 27.195049
11.842049 -10.460416 94.899857
-1.788377 13.309978 83.314102
7.627339 12.996951 81.379364
22.984768 5.807456 31.198662
19.904428 -9.181766 71.055084
3.502813 13.187661 55.169037
-2.735226 -8.121023 84.342873
-17.608820 0.379338 89.210075
2.107326 12.064898 74.067307
12.651242 11.512772 57.348892
4.940037 12.648753 28.661060
18.138222 8.350441 60.806210
-8.302928 8.633609 27.607914
-7.847774 -9.725367 38.512634
-17.476421 -6.374841 82.879539
-4.589923 9.824793 17.340883
-16.221569 -6.481342 96.449631
-0.224036 8.961681 70.323936
21.185356 0.732812 65.481758
-12.106847 9.634893 72.460426
4.497231 13.964417 49.243206
8.334364 12.620939 76.451241
16.417288 9.061737 77.754761
-12.284530 9.292820 35.911423
21.218075 -1.257149 56.332172
4.299992 -9.861078 78.309250
0.834465 -7.622908 74.616585
5.533772 -8.255973 69.231102
22.453831 -5.434163 9.634277
6.731720 12.648549 78.654495
-22.754496 -2.745212 77.893486
23.671423 5.609460 42.481136
3.108140 6.888093 108.581039
-6.153366 10.691965 34.164909
-20.627037 2.940156 66.155655
-10.288363 -10.854043 47.770576
-17.977791 -9.115480 77.593979
-10.524318 11.176876 28.393833
15.945727 -4.772592 103.031151
-0.444376 12.429425 71.457008
-18.540142 -3.664567 69.400497
-10.904461 11.763807 12.859778
2.522765 -6.250970 89.103951
7.572323 4.740691 112.787155
15.080707 -10.729459 93.694710
19.409393 -7.485712 81.996803
-9.729850 12.089349 40.847790
-17.184855 6.723672 68.048775
-3.287967 14.046791 59.891899
7.171060 -9.875431 45.385033
8.066252 -8.285183 57.844482
-5.617595 7.259421 110.724098
4.309574 12.272606 80.328056
22.927557 -1.158428 72.218414
23.207077 -0.253668 13.587498
-22.207232 7.683809 46.049023
-23.062078 8.907043 32.226727
26.341854 -5.407053 30.043200
21.567562 -5.691692 24.071276
-17.037519 -8.359261 61.565346
-3.628397 12.768036 56.609276
-22.337833 7.854981 54.886101
1.100304 12.784081 65.679718
23.506376 4.133996 53.831394
-18.759323 14.042378 25.208635
19.223370 8.247540 65.184731
-12.003541 -11.922049 72.000214
-18.722219 6.192845 78.036827
-3.444098 8.690271 103.666763
-19.885063 9.238923 59.023975
-23.968220 -2.108152 27.911530
17.178486 -6.998448 86.607346
-10.948799 8.566831 25.991648
-25.155958 7.816514 16.926092
-13.460048 -10.121043 92.864609
-23.256578 9.400139 35.923489
-10.568738 -8.815145 113.767128
24.481251 9.303833 10.045946
-19.609259 -0.913033 73.449898
-24.454662 1.081691 23.539295
-8.675679 8.326862 38.892479
17.208817 -6.251215 81.698944
1.338385 10.475235 72.790741
2.589320 13.529945 74.897430
6.555321 10.117722 101.335670
20.585884 -5.440659 64.987473
-8.671265 -8.515132 42.468929
-8.046019 9.302929 26.938562
-4.965518 6.110033 109.797127
5.908728 11.845962 55.778175
25.112034 9.257077 19.614094
-22.349556 1.855512 24.320545
-9.296729 13.220430 73.315872
5.955150 12.642583 62.640369
-18.028004 -6.744704 39.612297
8.571094 10.361683 30.050720
4.742476 14.375151 35.619644
11.075224 -10.066289 52.938137
-3.474362 13.671770 30.291016
0.373033 -15.046688 113.608917
2.216984 -11.848606 47.723854
19.617804 11.362476 32.177841
-26.013115 -3.081405 19.585484
-18.258150 13.385009 36.419056
15.335686 -4.674260 36.538364
16.183823 2.585840 98.976707
20.202137 -4.246000 17.198120
-5.340983 -10.502305 33.505039
-13.178450 -9.893793 58.825607
7.746904 6.624267 112.543816
18.145998 11.582684 50.954159
3.401203 13.557762 67.448776
-7.234110 10.413911 12.186826
6.033784 -8.906146 37.783100
-20.991560 -3.476153 49.653652
-7.933251 -7.784847 100.524239
-13.751356 8.141470 80.423103
21.187967 4.703747 52.851719
23.039595 -1.949395 27.777319
-0.763468 -8.933290 93.467682
0.682603 -9.439686 27.433968
-11.673743 1.741149 113.569954
-0.870803 13.191451 76.275566
14.677814 -8.541310 89.803169
12.103041 3.049379 109.942307
12.014958 -4.583919 113.456383
-22.711031 10.905121 38.749664
2.177974 -12.453301 54.492542
15.960385 -7.823450 85.004776
24.330381 5.503171 16.490189
-3.860344 10.320181 14.955081
16.501513 -4.715457 17.859114
-17.416876 -3.005768 50.991940
-20.712292 10.896366 41.635761
-19.839678 3.829432 56.187481
18.145063 -8.217615 82.109482
16.481546 8.205165 73.016380
-13.639577 2.994195 105.179916
-0.328565 13.773427 82.975578
-15.381050 11.516571 42.179401
-11.071569 13.172223 89.043068
-10.187501 9.360651 37.231365
-19.056067 -10.379276 57.932175
4.884017 11.715605 102.697533
-21.287670 9.635592 37.844627
-16.651634 -10.180327 61.181602
-22.065866 8.324189 47.621391
21.398741 0.423773 80.796013
-1.694259 13.136901 70.632668
-15.893385 8.980076 77.215172
-16.266836 12.167232 42.347397
23.446672 -3.236050 38.941082
20.138908 8.202157 40.414738
16.729929 -7.120516 54.940872
4.373171 -9.909480 99.779549
-4.428711 7.895082 9.081879
22.935905 5.060471 49.062038
16.970226 -8.685929 70.342285
14.763525 -11.507348 85.530273
-2.110795 12.848353 83.558548
6.962840 -9.882405 45.905354
-1.131387 -10.243744 90.782516
4.508332 14.238370 45.854397
14.870207 9.859124 88.998932
-15.555750 6.770507 88.135338
-22.669807 -3.239923 58.592823
-14.359262 -1.108268 104.647034
-5.050402 -8.361513 20.989975
19.742836 10.131799 48.301544
20.975641 5.018374 37.372684
3.221032 14.137415 96.961014
-0.487662 -11.251732 102.310722
18.073553 7.109396 84.360298
10.297205 11.849014 93.241730
12.825228 -11.131214 75.253525
6.936987 11.790265 43.812931
-11.816178 -7.881276 104.960274
12.446150 -10.073955 78.424393
8.049312 13.491698 90.533005
0.071989 9.025718 60.256210
-20.663620 0.258175 70.110886
11.560870 10.387377 13.895380
9.768229 -8.881722 15.014954
1.470512 12.771133 29.247768
15.202325 -5.542343 23.962776
13.320768 -6.768763 25.441275
-10.736638 10.637009 78.669495
-21.856493 -1.552552 69.765015
-15.756731 -9.700830 65.605812
-22.863775 9.897882 36.063728
12.735148 10.046216 87.008446
-3.502083 13.399306 41.415192
-19.922709 -5.095718 53.843895
11.216963 -8.154555 113.294922
-7.784393 -12.581104 106.314827
-14.232943 -11.256050 86.518684
18.736954 15.259368 13.911143
-10.688516 6.425344 105.443359
-20.797918 0.241570 73.148949
-5.055000 14.589118 74.153130
-19.557217 6.783326 74.921654
16.342691 -0.732566 103.146950
20.241415 1.543833 78.306923
-23.817179 -0.918706 65.866226
-8.519074 13.229106 67.842705
13.383573 10.790092 90.641426
14.316917 -10.163986 89.276253
17.430876 6.827093 81.109863
1.902419 13.324157 64.141418
-15.997366 9.465474 67.690521
-11.212433 10.190220 34.903931
7.411315 9.333634 30.077229
-8.556381 -10.237964 104.439468
-24.512606 12.995060 9.835327
21.911976 6.646054 48.341091
-19.059700 7.767159 53.877552
-1.425007 -10.800308 70.192162
19.252670 -6.293839 12.204418
-16.686916 -5.882061 34.702477
-23.684389 -3.749610 32.333641
-13.832231 10.491915 70.815651
-10.637527 12.038563 42.776649
22.897232 6.437208 59.726055
20.761326 9.661857 38.811321
-2.723797 -10.887830 99.039116
-15.343211 -8.977519 77.407059
-20.281801 -5.656739 59.990067
-15.726486 12.146520 25.866877
-4.949271 13.732339 41.464306
-14.300610 -5.878457 27.653812
23.405430 1.112282 11.980268
24.976173 -4.243368 32.407936
3.786041 11.819227 99.563126
-24.311049 1.463306 61.503494
-23.872866 -0.811539 72.163116
8.340691 8.569375 20.700087
2.692636 -10.499633 95.376823
-22.911564 4.455918 45.694489
-8.951116 10.842769 97.281120
-1.592038 -9.847114 84.047340
13.446942 9.078699 68.840340
-16.330980 -1.141197 101.735298
-25.789190 -2.673844 18.072165
8.701466 2.608021 107.609344
2.557766 -9.504402 11.208782
-9.392649 -8.852990 16.186125
15.625484 -7.623641 109.573494
2.082387 -10.570370 31.637613
-0.273087 13.693994 83.783340
-15.505960 10.946486 61.838470
17.264889 -6.493949 49.778530
-18.569542 -4.714622 53.191631
-4.310668 9.694966 104.535843
11.754708 10.544972 87.486359
-26.397270 2.338961 24.925072
-17.040876 -7.700395 70.839714
21.193884 -1.715247 65.101654
-18.520218 13.627831 12.358560
-9.741779 9.413304 12.378605
-16.131186 7.069466 90.184685
22.886927 -7.589237 23.967268
-9.817121 -9.459095 97.857071
22.311251 8.551806 28.112495
15.675702 11.475450 56.940990
11.210665 10.401705 80.211838
17.832088 -0.457840 100.945160
-6.258680 -10.348993 29.247854
-1.638952 11.635338 71.303535
13.647271 10.791966 57.682716
6.225050 14.212751 95.314827
3.417884 13.706825 64.235397
11.670135 11.777251 37.902580
9.697152 -9.922435 24.996832
4.292330 -11.615565 91.917061
11.327832 4.464997 103.910484
13.673334 -9.826788 34.965309
-7.332995 11.575377 20.461880
-13.089741 9.723677 38.910629
-6.563821 -10.879978 38.784775
-17.562853 7.776380 76.957680
-7.134981 3.812135 115.557396
-9.192656 10.808720 104.875076
3.298475 -12.205282 100.284363
21.847139 7.295949 31.503405
14.277166 12.478478 25.875679
10.136021 5.996091 107.116852
15.971067 7.049326 74.187988
-25.529428 7.056743 11.217514
-18.106197 7.956464 65.394386
-18.618906 -3.106854 13.168426
-17.677927 -5.420124 96.807541
7.433716 12.675007 78.164101
-3.296752 13.210280 66.837082
-8.010154 -11.359798 107.310181
12.365398 10.908242 20.539669
-12.928613 13.650674 9.353494
-22.044788 -0.780385 12.315474
10.397141 10.839540 34.499363
4.642474 5.040192 114.807419
7.773465 11.070455 8.536777
-11.197516 -9.534034 22.546741
2.332742 6.845650 84.690483
21.866327 5.185550 66.097778
-18.568752 -6.222676 68.859558
9.434130 1.700941 116.334785
4.437243 -8.842936 31.458466
16.689613 -8.397088 65.378113
13.698134 12.567691 16.540163
-18.132196 -5.728464 64.633774
-0.197532 8.814923 70.618301
-4.378450 13.980634 55.004169
-3.610968 -8.364490 12.647067
18.846268 6.003836 50.302017
-14.873822 6.982927 98.722359
-16.537058 -7.610895 56.846004
4.015765 -12.662622 99.123535
-11.716146 -8.135233 80.785660
9.564658 8.902986 63.814404
19.567692 5.546865 63.755543
14.091625 -8.417385 46.196487
15.369860 2.785117 103.761765
10.784216 -6.985718 14.847346
-19.121483 11.896863 10.503984
16.036072 -8.709957 51.851471
0.972491 -7.561884 41.324852
23.892498 -0.020649 62.671303
-12.976507 -7.350441 103.631714
1.031201 -11.112604 94.175270
16.343138 -4.454455 54.577385
5.333149 -10.383387 50.065300
21.627876 -3.791532 90.024376
16.451817 8.813361 65.780838
22.140530 5.115577 74.132355
5.846634 11.767420 75.551651
-18.603453 -3.146286 18.093317
-12.110482 5.770751 105.881813
-14.934122 6.459596 99.140907
24.551384 -2.488569 15.315260
16.397987 -4.684494 13.198230
13.010465 -8.057061 65.429115
-14.663877 10.197053 54.002552
-0.843932 10.121076 105.759621
14.894210 7.018620 101.486946
20.467648 -0.977425 93.434784
23.146826 3.616918 33.446079
19.074259 -6.138489 37.583355
-23.710524 7.943255 16.733511
23.438725 2.851201 30.470030
12.545165 -1.174100 113.582260
22.219749 8.780050 50.478207
6.429342 12.379752 84.260941
26.564354 -2.579691 23.503431
4.929070 8.624757 16.845348
-25.239193 -5.462336 17.229507
17.993389 -8.876763 38.688938
-18.617992 -6.370469 36.318401
17.170523 -1.818100 98.381378
-5.979778 -10.904363 72.067909
-8.196272 10.974001 100.158493
4.703868 11.183574 39.789963
2.445123 14.623086 88.763908
5.407770 -12.077181 107.875435
-1.785959 -9.482040 85.974541
-24.579710 6.676597 12.164752
7.320951 12.480235 42.469345
22.754793 6.840016 26.594368
1.630842 13.143866 54.674221
3.669592 12.733179 60.601952
13.614458 -9.989301 56.720863
-15.481609 -9.315247 70.658028
4.712732 -10.425302 39.433636
-13.088133 -9.215031 105.015511
-21.854216 -0.180672 76.817619
2.449558 11.922915 60.857162
11.528472 -8.072519 27.837551
0.959642 10.606699 74.083122
6.132135 -11.909524 84.212517
14.114783 -9.197562 20.267143
-14.640991 -9.557997 90.141289
-11.528949 9.842567 64.537491
-20.757217 7.339727 47.079418
-14.720860 -8.397750 107.420738
12.121529 -8.693414 24.449469
9.643915 -11.206721 70.205597
22.739042 4.631559 75.960922
1.358580 -9.730338 67.593910
-27.470947 4.443190 18.747438
11.515447 9.374584 9.657471
9.587277 12.720127 88.156677
2.821321 8.443939 82.936180
-14.278986 4.864044 99.033295
13.733827 9.104836 96.400536
-7.574237 -10.144183 41.395199
19.328356 -4.345600 77.110092
-16.063711 1.712153 105.908310
-9.605643 8.292650 39.449898
10.074301 -12.683031 44.993824
-24.845480 13.239222 16.221117
-18.134125 6.623332 76.071342
12.290071 10.115843 24.236330
-4.984360 13.982023 33.379597
-21.312866 -0.895850 63.734886
-22.440550 1.403387 43.526707
-26.011032 -0.173539 19.072803
11.607898 9.320447 69.307175
-18.928427 6.956428 81.717484
22.284389 -2.906869 80.825180
-7.946188 -11.577919 29.147242
-13.914273 -10.293444 41.410141
13.242341 6.794037 102.711273
21.478136 6.123122 59.158405
4.291203 -10.499454 70.644104
-3.690982 -8.578312 77.148582
10.245266 -11.350079 77.683815
3.571587 9.484239 85.245972
-13.407228 -7.106229 74.097984
11.405727 -6.952213 114.697968
14.328394 -6.231986 18.898529
8.003845 -9.397864 94.542542
-22.693836 9.843279 10.972122
4.052495 9.054535 105.738182
-23.366844 1.983923 39.266285
-10.848646 -11.895789 61.927437
3.315233 -11.611609 95.315132
-23.545919 -4.017613 49.518017
26.987085 12.275551 15.780922
-2.425269 14.465146 90.622498
1.986415 10.533222 73.525604
-18.310602 9.516837 68.523003
5.747236 -12.165933 110.620728
-15.513837 -10.902653 61.506310
-7.043260 13.202965 44.860462
-24.134996 1.011933 39.450031
-1.922520 -11.069642 95.416840
-26.388950 0.326973 37.591488
1.049702 8.347337 108.425056
3.314085 -9.630154 26.110920
-10.976796 -11.895995 71.560669
6.766080 9.288659 14.139372
13.615789 11.077409 92.430473
24.855259 -3.016084 52.655678
4.706912 -13.360792 104.641747
-24.195904 -1.356545 57.813763
1.657556 11.282038 96.236053
14.796651 9.485706 53.816147
-8.959899 -12.988081 32.167480
-2.585066 -6.592051 72.024994
17.109945 9.616003 77.786682
20.182446 -6.207355 51.912659
23.419291 10.763330 30.568329
-11.454149 -9.682021 108.075928
-5.574594 11.407702 27.459324
-21.754713 -5.427269 10.583194
10.890962 9.987796 76.073265
-17.349342 -4.911842 39.105270
12.705473 -9.040860 91.747223
-16.299889 5.895198 76.643814
-21.074789 9.483988 38.575836
14.885965 -1.345301 106.520897
20.521238 1.312499 71.376587
19.732832 6.553780 72.916489
-19.664747 13.670182 16.310547
14.782449 -7.334298 32.708252
13.789741 -10.846545 37.382683
19.878101 -6.624141 75.711517
16.333704 -5.704327 13.143048
10.575602 9.568756 74.792030
4.159556 -9.001082 73.040413
0.295328 12.457207 84.875824
13.467255 -8.227015 41.692871
-4.642797 -10.490472 39.267117
2.185550 -8.575878 84.865944
-12.761213 -10.443376 91.070518
-9.905490 -10.244740 85.602348
3.135050 -7.434018 12.734824
11.002689 -11.674102 44.008282
-10.715586 9.804200 25.764767
8.459951 9.919511 53.929123
-10.785055 8.894661 90.990562
-17.557283 9.604362 60.240784
12.981215 12.774979 23.286545
-3.535037 13.146616 39.333191
-0.010233 13.971633 61.655510
9.094564 7.530483 59.276051
-12.134454 11.803948 92.579109
8.312273 -9.252562 58.590466
-0.087587 6.940246 106.779465
-17.077520 -5.820695 49.551243
5.316111 12.890166 39.889423
15.740081 10.623955 57.151005
5.596545 12.937882 47.657692
-12.421909 3.477884 104.740837
-6.486996 11.509053 36.749596
4.312138 -8.916787 73.676201
-11.394096 12.204582 91.337151
9.622173 10.059515 39.988907
20.389219 2.174844 67.813171
4.502299 10.640601 8.104858
-5.802932 14.691422 94.934486
6.973959 15.666297 64.913849
-19.135040 4.051339 46.516975
-23.271988 1.427207 60.413582
-23.463928 -0.615851 11.895431
-16.505775 12.617864 33.582561
22.090921 6.221225 46.718647
-2.402209 -7.407195 8.943524
7.453584 -8.419578 16.080034
18.159248 -7.085138 100.121780
1.039507 12.718493 101.199203
9.507069 10.949050 75.728363
24.443771 6.402897 12.419538
19.775549 -6.033662 13.174547
0.882476 -10.635016 18.847994
-14.752625 -10.882122 69.059692
-17.038635 6.413467 87.660072
17.816444 -6.620951 73.042488
-10.610967 -10.332701 90.190125
-16.159111 -6.579266 27.619556
-21.346560 8.109811 50.905052
-23.523312 -2.480942 59.109730
-23.338669 7.855573 30.827866
25.121271 -2.072307 31.677649
18.483934 -8.342007 77.468658
4.724285 -11.838115 109.682030
17.652224 -9.168925 85.298141
-22.220728 -3.551199 21.043337
-15.946240 -2.797849 109.878258
-16.542818 -2.852293 99.395851
-17.696754 14.354538 12.785896
-13.481621 10.716141 53.200287
-18.773497 -5.535995 73.956253
-20.460464 13.001189 33.195499
-7.846220 11.397541 47.464432
-23.316658 0.212754 11.494650
14.777424 7.656735 81.297325
-4.809756 -8.403014 11.273023
9.179432 -9.789780 57.467484
-6.536758 -11.230524 49.903599
14.701185 -7.523525 26.126312
6.867113 12.205565 83.328636
9.652584 -10.520772 81.502144
17.633381 -4.858483 52.688416
1.272742 7.200818 85.551208
6.198532 10.594775 97.684502
-21.751373 -5.042390 31.849842
-10.940447 -9.402432 81.216576
12.286057 -9.737566 51.487766
7.777784 -11.799361 104.777039
-5.181609 -10.766046 104.750938
-8.524418 9.018209 83.566170
19.736864 11.047249 46.352650
-13.289741 6.768893 103.764343
-1.415572 -12.369220 108.932228
21.426525 9.925259 24.379698
-4.934036 11.967804 26.621088
-6.081301 -11.120339 73.078133
0.319355 -8.241438 12.209759
-23.685699 0.726427 51.690502
19.226955 -7.086267 52.531933
4.297413 -11.554435 54.693615
-9.370329 -8.293241 57.050873
-19.039658 2.093903 91.115501
20.966679 2.601170 72.056396
-2.208151 -11.790113 91.628387
7.088647 -11.446079 26.962284
