ply
format ascii 1.0
element vertex 2048
property float x
property float y
property float z
end_header
8.261059 6.672678 117.365005
-4.283904 12.313002 138.871277
-0.570739 11.548170 133.411392
5.731404 7.917065 125.831787
4.852482 0.592743 150.652863
13.219639 -8.000328 129.429001
-2.569924 -12.821044 116.505852
-0.238596 9.232000 112.953194
-2.410017 -9.964057 112.296013
11.788314 11.222161 98.193748
6.091445 11.196198 100.073112
-1.347428 -12.823167 121.167999
13.445404 4.315581 127.231522
-8.739306 4.496940 120.683510
-13.547271 8.398832 100.914192
-6.569034 -1.109907 154.327911
0.519810 -4.136043 145.659912
3.954566 -9.474528 140.161636
4.279608 8.352489 110.078278
1.812764 10.311411 151.455276
4.893776 8.486638 121.700226
10.818625 -7.459117 105.006310
2.911364 7.387091 117.342491
4.260096 -4.592252 145.742188
-11.346175 -7.450705 126.676323
2.340099 9.944871 151.244431
-14.160475 -3.632621 114.827080
-10.649434 -11.055605 101.977287
8.965755 7.201892 127.238449
-4.028258 8.779229 112.578194
10.963412 13.325725 144.412827
-8.946818 10.394650 102.665268
0.750296 -5.043607 146.895187
-3.592443 -12.259638 103.560211
-11.134303 9.071337 132.368683
10.266264 12.889567 143.625626
6.097950 -13.089765 124.075294
-8.992479 12.233643 135.054779
6.063944 7.522491 121.955582
-11.800127 -11.616418 132.070663
-10.111223 4.253385 113.554199
9.068144 8.103631 128.824020
-16.641518 -4.025764 103.224480
12.823923 -4.349991 115.798241
-9.875244 11.245053 97.020134
-12.386278 5.406246 127.416252
0.230429 10.020833 155.466888
4.184602 -12.792430 133.360733
8.411340 4.722889 118.736206
-12.353797 3.461864 126.244194
-11.592894 0.260201 115.646637
0.070202 10.545122 92.470634
-7.848636 -9.636299 108.364922
12.258314 -0.794498 123.415283
-14.263115 -1.890246 111.675407
-11.143260 5.899662 106.097191
11.562681 3.113141 152.894836
10.848332 -9.905522 112.665245
-7.485268 4.177763 155.793442
-13.956496 -0.431668 112.074341
-12.834292 0.444458 119.239014
-14.348801 6.139010 133.038345
-9.631588 0.015454 150.311981
-8.130704 11.544655 97.773392
14.765352 -2.785166 136.131424
-0.759987 10.029255 90.273071
-10.549524 -8.515924 122.531136
5.472461 8.935714 125.445663
-5.026634 11.624954 138.891205
4.828965 12.363813 96.419258
-7.699465 7.752739 125.331421
-13.316053 3.984080 151.852539
0.345785 -12.051601 123.331512
12.350192 2.947476 129.324768
-5.562815 0.233699 153.816940
7.522771 -13.414013 135.247360
-8.073562 8.884693 127.565239
-0.676444 -9.412355 138.295181
-8.636802 -0.150997 146.957138
16.222887 -5.368690 136.676926
-10.070703 -7.750140 110.390259
-6.961197 5.758302 156.458145
-3.873214 8.550032 106.826538
-10.996019 -9.006194 119.678215
16.435835 -2.397218 102.415039
-8.816223 4.215476 154.756027
-16.254164 -1.675092 107.746429
2.468444 7.658665 120.919250
-12.068324 -1.102080 143.390640
-0.306215 -10.510852 115.828262
16.316206 2.810236 101.917152
8.395748 -9.927746 97.641838
15.582047 -0.111496 106.286026
-14.575898 3.763999 131.581726
-8.148869 -10.506660 123.311714
-12.815760 -6.293665 119.812935
-3.485994 -8.709361 140.839615
3.691566 -8.771540 95.353104
1.387825 -12.560557 126.093262
2.707640 12.021948 146.923096
3.203341 8.535632 107.123032
4.577188 -11.965834 106.779533
14.274833 -1.294900 125.417419
2.613664 12.300681 133.637634
15.070639 0.464815 105.661377
-6.784511 -10.615600 107.984161
-1.043437 -11.744708 115.264076
4.509827 7.922557 111.330063
-4.513292 10.006566 153.257767
0.365203 12.610488 137.190094
2.023652 -7.849844 91.943230
14.289649 -7.069879 104.693062
7.165242 12.138724 144.511887
-16.123976 -1.613499 108.242729
-13.985308 0.289460 116.273567
3.642501 -9.715911 111.104530
-15.121385 -1.690802 140.987183
12.497949 11.595242 140.570892
10.709716 11.255760 146.780487
4.188370 8.753989 156.361115
-4.182287 12.956915 99.766960
2.621221 11.813074 132.151245
3.290688 -12.159890 137.237488
-4.048281 12.304118 136.398148
-8.608183 -7.946957 101.762253
-11.636072 -10.117010 130.677994
-5.076404 10.861036 148.684753
-14.418018 -5.697319 137.048569
5.692839 7.771145 122.099510
-9.479240 -1.209695 146.963211
-5.654467 -12.140491 103.902596
8.950186 -0.197924 149.617172
-0.889332 -10.177632 97.593765
-1.245279 -12.892989 101.691605
-7.160981 11.607691 135.613327
9.566307 1.582978 154.945969
-5.413075 -9.735486 96.111298
-3.225228 7.168111 115.263710
0.018915 -11.585033 113.291176
2.686418 -3.876445 147.995438
2.295685 -11.985421 135.804092
-6.415984 6.459624 117.198044
-6.993228 2.032746 153.600800
5.765971 -10.022929 110.239418
-14.261127 -4.489357 112.013023
3.926386 10.742755 102.657158
-13.104967 3.484628 128.904297
9.356062 -9.542166 104.124641
-1.250668 -12.241993 128.767944
13.567717 7.187053 100.594307
0.180484 9.845202 110.755623
-1.867249 -11.646759 124.331520
-6.377317 7.753477 112.926842
-7.099109 8.919395 105.500542
8.028116 -9.946815 114.247627
8.302155 -7.131243 140.284210
-12.438107 -9.283795 99.545898
0.752987 -6.291982 145.263153
-13.944976 -4.304347 135.912476
-6.615548 12.020108 146.307785
-6.420452 -0.106314 153.533112
-7.444477 12.658409 143.114655
-1.393933 -11.142557 98.216248
-14.443016 -9.541738 128.139252
2.623906 -3.339368 151.200974
-3.508893 -6.385738 90.272865
-6.581846 -10.689211 107.472481
-9.210366 6.280693 151.650925
2.301178 13.348741 141.890579
-4.463875 7.745599 117.906395
10.862647 11.192066 134.291107
12.171843 -10.827186 135.516983
-5.818061 -10.695111 118.398941
-1.840639 -6.541565 89.769760
12.385132 -7.754832 114.296562
-1.210110 -7.611435 91.751564
-6.486191 -10.717439 103.189095
12.834475 -8.620989 121.231514
-1.113176 -12.505943 117.417091
7.643440 -10.856485 137.905701
-7.204274 -10.588114 123.843895
-2.292529 -12.661841 121.975418
8.175722 -9.246002 102.664452
-15.030354 8.694194 101.940758
1.856273 -8.853369 139.550690
-9.851633 5.115253 125.734154
7.577239 5.275920 156.947266
13.519210 -5.849287 109.087326
10.686590 -9.552645 105.938240
-0.481169 -9.828021 138.879379
-2.007727 10.101083 99.498268
-11.352278 -8.079294 108.712570
7.166224 -10.750585 99.198212
-7.641603 -12.278395 132.533813
1.791916 -12.684449 123.720779
11.763047 -7.802265 140.437363
-1.184728 4.587360 84.647560
11.182261 6.408127 108.144905
-9.732242 10.551960 136.497253
9.237808 11.749737 101.534897
-10.156581 -8.590529 118.745300
12.709339 11.931673 135.569733
-5.102571 6.920647 155.918915
-6.949290 12.127496 143.557724
14.275468 5.236171 102.280434
-12.418531 8.904084 151.887314
-0.666781 -4.007091 146.167465
-6.137752 11.833014 133.000458
0.825458 -5.369092 144.892822
5.037766 6.223085 157.270081
-15.415183 2.541768 104.444771
-8.470516 2.466648 151.216232
-10.658052 5.641383 123.281662
-1.165310 -12.542714 120.774979
-9.594589 2.235325 121.028511
-2.265535 8.905100 126.197525
-8.457953 -1.604110 146.459900
-10.576005 4.679594 151.703995
11.545130 4.968917 127.800667
10.477244 11.562682 148.504013
6.630175 11.357000 133.975281
9.018671 11.732296 147.466751
-7.070191 -9.584561 97.042595
-9.154184 11.924957 142.857941
-13.335809 0.435501 108.779747
-6.530979 -12.162869 120.523499
5.449525 9.177691 127.722672
13.166603 -7.673847 113.403694
8.914616 -13.822322 134.720413
-3.957963 -12.899840 135.259384
6.033220 -5.219370 144.741486
4.792118 -8.410351 93.945976
-17.239302 -3.522553 102.909866
-3.644911 -13.253850 115.775345
12.208288 5.918837 151.623093
-0.472765 -14.076739 116.008987
-5.358973 -10.414866 99.132271
-1.422928 6.808366 121.036285
3.407377 -14.357907 128.967682
-6.409316 -9.906639 100.655853
-5.023842 -9.347749 95.300194
-15.743304 -5.037964 106.566933
4.995443 -2.076491 148.992203
-16.123085 2.421930 131.607605
-6.854725 -13.056079 133.274246
11.368642 -9.776677 127.759598
1.887495 -11.917693 119.440605
9.592890 6.888439 150.409821
-0.129971 9.836060 91.751534
-1.580204 -12.118016 110.930405
3.129445 -10.871993 97.099892
-14.982252 -3.480994 110.806000
6.674002 11.752468 97.452194
9.177364 -10.667784 124.840897
13.323290 -1.376086 129.543945
14.332642 1.039078 130.493073
3.927806 -10.281092 101.100075
11.517418 2.299893 113.806480
-11.006594 5.694166 126.844589
-0.011410 -10.759038 96.113602
12.674583 -2.672448 127.294701
-13.511400 -9.081598 131.085617
-1.661886 9.728098 107.926697
-12.750890 3.110942 111.370628
-5.191353 -12.721992 101.554771
0.465466 8.794242 90.143799
-3.839687 7.740290 88.100304
-11.125559 10.849747 139.149231
13.967414 -8.279892 132.795868
-5.987120 7.573419 107.746620
10.872870 -1.959638 145.835571
2.314819 -13.747729 105.916000
-0.799914 7.800063 124.033661
-10.610187 1.679648 118.538094
10.190623 11.407563 100.123497
1.173659 11.599716 100.912323
-10.607498 -6.225661 142.467682
14.140855 4.288027 105.021988
-4.816496 -10.158967 96.724243
8.519758 8.742654 99.411270
7.290400 -11.438605 116.275215
-2.720312 -9.884656 141.426849
-2.672040 -11.220415 112.621384
-7.039526 8.036572 126.186676
-1.514966 11.240034 148.881912
-12.777837 -2.306461 126.386581
-14.574825 5.710548 102.709351
2.273190 -12.265419 124.064346
7.263280 -11.418613 114.112946
-2.198534 -11.706944 125.685127
12.669010 0.908928 118.387848
0.863260 -10.904962 97.033760
-16.455713 3.910098 154.457184
6.154379 8.702638 108.082001
-9.422622 9.422376 98.542747
4.809414 9.014320 155.518265
16.636311 -5.131855 141.248260
10.284126 6.216847 127.291168
-0.531484 10.871422 147.370712
13.847340 -8.133037 122.389572
0.223406 -11.562889 115.978806
-8.846293 -10.361803 107.622314
-1.733950 -12.708815 103.941002
-0.507115 -11.176962 130.515625
8.551091 11.580682 133.780441
12.863602 -0.170188 124.812981
-10.730144 1.876681 117.540497
16.197575 3.732014 134.581863
8.252569 14.232404 138.762863
-5.805329 -12.682570 137.561462
4.298088 10.491793 147.138382
-3.892853 10.624724 102.909203
11.281112 9.076688 135.155457
16.827362 4.690918 100.881371
-13.866010 -6.897079 96.450958
-16.938643 2.366045 100.762321
8.962756 -9.390520 111.936333
-12.977296 -5.263106 139.634430
-13.370415 -2.615212 129.341705
-3.726620 -10.902036 94.589378
4.907322 -8.499791 94.245506
-2.424286 10.359510 107.862709
-2.119590 -7.706832 93.770050
11.770720 -4.406340 117.770622
5.227434 -10.839315 119.221565
-12.715191 -0.790708 137.672318
-3.397528 12.386643 94.383636
-0.112973 9.421390 156.748520
12.776362 9.702461 142.163742
-8.095196 -12.210855 126.279610
-1.657998 -11.478532 109.020599
11.351325 -5.001356 120.247963
-5.085001 11.113392 140.539291
11.316325 7.760866 106.465942
-6.561099 -9.995659 95.829788
-0.069242 10.487309 106.949310
7.549366 11.527718 94.631752
0.969360 7.998286 116.857201
-9.294797 -7.273924 142.062119
7.699138 4.020184 155.379959
-0.663630 -12.031282 127.081688
11.037205 10.639008 98.709389
16.280546 2.105202 134.466034
3.617805 8.461720 105.380669
-11.439947 10.472625 134.821350
6.297554 11.395443 137.079773
-12.322155 -8.616833 115.904266
13.889588 -10.461525 132.321548
10.855519 -0.556046 115.067459
-7.316135 3.552488 155.368271
16.340298 0.206062 105.493340
0.002238 -11.894590 114.799294
-7.461120 -11.965090 123.238770
-11.783375 -11.723608 130.687637
-6.543990 5.045953 155.026093
-6.818386 9.126273 126.748016
-7.478230 6.949352 152.452042
-4.952960 9.639130 149.615845
10.079929 -8.296886 122.026154
-13.376395 0.156487 116.469894
10.441301 8.268702 152.261642
-12.753874 11.252068 143.755814
6.636703 5.334726 155.064072
10.284151 -11.680515 125.164909
-3.023921 10.131235 102.786804
10.341833 1.520309 149.324295
-3.339682 8.122150 124.304085
-13.781308 10.112592 135.185745
-4.988799 6.753743 117.943085
-8.334979 6.984783 125.798210
17.194269 4.234562 102.106468
-3.182161 -11.874904 120.839096
9.892620 9.557761 145.399780
-0.532309 -13.583471 135.009430
3.702229 -10.757567 96.509415
10.610337 6.470398 111.629501
-11.649964 5.074306 108.098236
9.138517 4.828918 110.743782
0.587710 -8.333412 92.070992
-14.656090 -1.426134 134.520157
15.315410 -9.521786 133.942734
-9.590244 10.205966 133.840515
12.660177 -4.262046 114.973343
-11.114777 4.362036 110.612503
-3.427784 12.652550 141.396423
-5.984559 -12.593927 106.212097
12.791782 6.987024 150.086258
-6.426977 13.638141 91.674911
-12.135552 -11.458491 127.899040
-8.732038 -9.465474 118.726738
7.166489 -9.971119 103.738449
14.975537 1.491540 104.611557
0.552698 9.809711 91.846741
12.297614 -8.062558 123.340302
1.429523 -11.520768 103.154198
-3.334978 -12.728816 133.171722
-0.997867 11.438976 102.121780
-10.945491 7.736993 150.841339
-12.205496 -8.426424 113.759377
11.138309 1.531510 116.201736
8.423635 12.411283 142.710983
-0.855370 -12.860538 113.834740
-12.544895 -8.479688 100.529152
-12.025333 1.242436 126.406479
1.424479 11.655043 130.061325
-2.409968 9.356215 119.064407
15.537100 -2.249168 103.639740
-9.577854 12.303929 141.802673
-3.279930 6.917416 119.754974
4.666230 13.270114 133.848190
-1.840290 -12.749475 116.404953
-11.920554 -0.047832 128.454132
10.490400 10.460608 98.819450
3.010061 9.726075 127.937080
14.009187 -4.085133 121.370872
1.619281 9.214233 154.505997
11.674403 11.056453 145.202042
6.274923 7.479130 118.933784
-3.128969 -12.317495 109.617744
4.360207 9.571331 116.917679
13.642048 -5.863923 108.721252
5.503787 -2.583873 149.137039
3.205525 -0.037685 146.951065
9.392511 -12.422895 136.040710
10.606511 -9.432768 104.270691
13.570757 1.845715 110.119431
13.224135 -2.493937 117.934128
-2.281543 11.496428 97.354538
4.100606 12.250440 135.252838
0.442669 5.869104 90.046043
-8.221939 5.437468 126.243958
2.388631 12.547180 143.349258
-11.782775 -7.293596 125.227531
5.313894 6.805328 120.217888
0.049531 -11.293683 136.721848
-6.191610 -10.943647 119.512459
-3.398562 9.738647 106.123909
4.179461 -12.129297 118.300056
0.542638 10.885201 92.645775
6.117156 -11.084331 136.678253
-10.857191 -9.452806 118.248116
4.477438 -11.909242 105.836472
-11.576196 -4.979360 115.408539
5.958162 12.593660 131.622086
-10.359335 -9.082026 137.745499
-8.916773 -13.561363 131.046036
-17.445471 -0.128933 102.593369
4.984930 -13.471814 122.736465
3.631349 -9.132783 95.052269
11.242248 10.645148 137.814102
1.784430 1.317374 86.325638
7.969236 -11.805440 122.921616
15.076625 -3.389257 135.551117
1.384517 10.365578 98.689034
-15.161888 -6.928138 133.006195
14.699940 10.019629 136.750870
-6.334260 -6.234751 140.205872
2.501219 -2.663018 91.836235
-3.257316 -1.351047 154.316986
12.677170 8.273787 100.918739
-0.053304 9.732975 95.731720
0.803643 -13.061728 128.106064
-12.583667 -0.109324 131.027435
16.873844 -0.490660 131.922501
-10.036834 10.553274 98.387978
10.171343 -10.018548 124.065910
-4.293159 -12.999479 127.539642
10.519578 -8.999490 126.522385
-3.155033 -13.720054 129.747421
-6.017372 -8.484735 98.556671
-2.886646 -13.345285 100.482841
6.112117 -11.885737 130.603943
2.510445 1.098534 88.655167
-3.531371 7.811404 158.782089
-3.578963 -1.495259 153.038773
-4.928840 -3.331015 153.577301
1.016730 -10.188261 141.992065
17.765692 4.256199 133.566147
14.323843 -5.605563 105.746536
-2.957053 -8.662766 95.306427
-11.563609 0.413653 117.842133
-12.154250 -2.582572 118.250847
3.658412 -8.076124 95.109840
-10.208266 10.775038 134.350357
-12.659049 4.880995 151.928238
-17.166721 -1.018682 101.992104
-3.998612 8.164819 118.851212
11.059969 0.114474 153.995041
-15.864444 -5.361174 99.509659
8.087075 -5.997460 141.979568
-14.351799 -1.971925 116.978088
3.151429 -5.079761 145.728775
-5.043521 6.784143 121.613373
2.461767 8.960020 106.591507
10.870657 1.287591 119.267578
3.278210 -12.406405 111.462860
-2.131448 7.548471 119.081902
7.225872 -1.900994 146.276810
-4.677871 7.134911 155.203690
-15.507802 8.841706 135.509796
-14.189067 3.734415 105.944290
-3.022364 -8.078398 94.748909
8.633174 7.773771 150.718765
-1.178453 -11.057849 110.839142
-12.130289 8.201097 138.626022
-6.451652 10.434516 131.967133
-9.168829 13.180902 141.505676
7.334554 8.153955 153.214066
11.566096 8.517638 147.854004
-10.085488 -9.301010 107.271713
1.887351 11.178211 132.775650
-6.481574 -10.258843 98.310661
-1.462925 -0.063000 87.681122
1.199038 -12.875844 129.732361
1.779242 10.190872 96.522308
4.593336 7.603248 117.056335
2.100473 -7.066295 89.996674
-3.699989 11.366001 149.580246
0.706474 -12.121322 115.545586
4.119668 10.549343 105.159622
9.544043 -11.615187 129.115891
15.314878 -2.872798 144.778488
15.407091 -1.901747 132.533371
6.481138 11.173361 142.213303
9.737734 -9.713616 99.893173
11.038605 10.324013 136.753235
6.036542 2.538800 154.696335
-5.365888 10.085238 130.804016
1.284369 -13.564265 126.252090
-9.041300 -9.551663 114.559975
11.701775 -9.679878 130.409149
-4.339788 12.468468 137.144669
-11.083850 4.739151 117.985016
0.875988 -12.041736 108.736717
-7.327826 -9.538356 99.596848
-6.657522 -10.369134 124.297646
0.673490 7.644159 88.952736
12.508379 0.402154 149.271072
-5.149201 -0.345309 154.493179
-7.987733 13.186658 137.904099
12.733508 10.161081 147.606720
-5.598939 8.120399 156.444290
8.174747 7.917927 103.858749
6.258323 10.254704 151.065643
14.109669 -3.125083 126.252495
15.610783 9.213649 140.453690
-9.442567 4.917896 123.551964
-14.510685 -4.698847 106.393448
-13.974576 -9.636751 136.734711
7.075129 8.005966 156.503052
-12.324772 -4.688270 121.650192
10.710093 -11.775246 136.019104
2.510563 -4.978188 146.713547
-4.590073 -11.251472 140.467300
-4.205002 -13.050240 107.606804
10.187901 -9.007000 112.819534
-7.199934 -10.077507 121.242630
-12.728235 -8.089078 126.555389
13.790165 -1.562818 112.797211
-4.653893 -12.069497 112.668106
4.215490 -12.474719 135.184158
13.006811 -11.309194 130.863235
5.434864 10.514669 131.947754
-10.457490 5.224348 153.556778
-0.203503 -12.653326 116.028122
11.004394 3.529522 125.350853
4.994716 -11.373636 118.946533
-15.571132 -3.726528 105.201355
-0.017406 11.118384 97.798950
-0.312621 8.927663 101.199669
11.713578 -1.053951 147.380539
-11.011529 -5.520741 142.288727
-3.516825 8.115668 115.907082
-7.358182 13.966884 141.329163
-7.097094 -13.118927 127.294373
-1.025472 12.635560 99.088585
-13.536357 10.324266 137.531403
9.996029 -9.198469 124.011696
8.758911 -12.915226 134.479507
13.208547 2.232683 130.297958
13.745545 -7.035649 131.539734
-14.526046 5.467045 134.108200
-1.451175 10.440132 103.519936
-7.927478 -8.762107 113.583771
-14.457251 -10.898883 137.022903
14.837031 -5.156099 140.227081
9.326081 -11.583166 101.849800
-0.388877 -12.504789 106.801559
-10.249237 -10.375481 117.569283
3.213168 -12.258320 104.108040
-3.496575 -13.843451 128.810883
-1.017255 -5.304885 146.216110
-8.158666 -10.462787 118.952446
4.052869 -0.555676 153.836975
-5.270645 1.887404 154.046951
-4.918760 -10.739124 141.769043
-9.056061 -10.586426 116.428375
3.082383 -2.116499 150.336288
-5.807811 0.071838 153.383377
6.293612 1.897081 150.672638
-3.394476 -10.766783 103.727798
3.173205 8.433526 116.172882
-15.313349 -6.578166 99.702202
6.592559 -10.864301 102.957275
-6.268060 8.114108 111.606720
-9.703580 0.715889 150.147507
2.183782 12.603408 94.343948
-2.269688 9.964201 96.735107
6.869294 13.704534 93.808815
8.825875 4.784660 122.038101
-13.585368 -7.606283 102.591675
-6.795864 -4.029259 150.746567
3.074470 11.521643 139.363220
-5.933713 -14.266001 132.266830
0.257308 11.326256 144.017059
-8.132967 12.765213 138.419144
-7.330389 -9.586609 121.103645
-7.488109 1.582888 156.690704
0.197946 -12.286086 114.020561
13.393268 4.937058 104.799324
12.951732 -8.098184 126.549934
0.854274 -11.395941 123.249855
1.653917 11.081650 146.481018
4.382819 -7.851429 94.337128
2.169505 -12.483033 132.858231
-12.813530 -2.013774 115.189705
-13.741843 4.530178 103.965111
-12.318944 1.041153 128.109192
13.273823 3.455495 125.282471
-8.857331 -9.034528 118.691772
12.401603 -7.260648 126.042717
3.539413 9.342398 108.439323
-12.891278 -5.815784 139.414307
5.617517 6.955318 154.605499
-2.271820 7.944172 157.752502
0.614190 -12.715142 129.444733
-1.088551 9.149988 128.029099
15.233841 2.401521 132.284241
9.674370 5.770518 110.060516
-0.131444 -3.403069 147.815720
5.135061 -11.005058 107.312447
-8.784778 -15.391847 133.728195
11.489098 -9.512656 102.725395
1.592272 1.260160 87.915382
-9.874438 2.976704 152.088348
7.661371 -10.776189 112.275581
-0.801303 10.404964 92.618622
6.082134 -13.996555 134.357895
12.581440 -10.330467 132.237396
5.077916 7.006239 157.339645
6.671868 -11.122561 115.691818
6.071091 6.213182 154.152176
-6.956452 9.263952 151.726288
2.402034 -13.277308 129.977478
7.300348 -11.510937 138.429138
-0.363564 -12.446151 106.379410
0.690750 7.877370 103.530334
-10.871708 -9.230869 124.037689
11.541539 -9.556479 113.865250
7.943439 9.767787 130.373840
4.024933 12.769476 142.394211
-12.695394 10.438067 136.891235
-4.314505 -5.615557 144.649750
-13.055079 -2.494782 149.128494
9.083828 9.891823 132.641754
9.947433 8.273207 100.176239
-7.817184 6.659316 109.656487
-4.668110 -8.180664 95.960243
-8.392577 -9.537362 122.414398
-1.323844 5.688730 89.994453
-0.901862 -13.932412 118.999855
-5.554736 8.088588 116.280922
-13.163214 -8.566689 135.000778
8.326194 10.218499 147.942459
1.003405 11.850849 140.291687
-12.999166 -10.508018 134.351852
0.190524 -12.538511 133.868637
-8.761248 12.404046 144.068237
-11.860981 6.045252 105.445953
-0.000889 -10.925776 136.705002
11.361072 12.665254 141.272461
7.880823 6.466307 116.231590
14.209854 -8.362129 109.740753
12.213109 -1.467788 122.749626
-7.875347 -9.695143 110.218063
13.339204 7.399569 133.505585
4.738768 -4.057523 149.041565
12.296568 -7.570299 135.227997
9.845798 -4.333191 145.251175
-11.708169 1.544627 119.679543
16.354862 -3.988576 101.224030
7.761128 6.387031 118.233009
-7.461783 -8.712846 141.331177
1.050379 11.219952 148.645203
12.342290 -9.397182 137.846603
-12.752808 -2.836667 114.993301
-15.302729 1.984524 104.413414
-11.472200 -4.483240 118.322708
16.727934 -1.288432 104.275803
-15.665597 -2.812729 102.740303
0.279312 -12.659349 119.158531
-13.115415 10.684509 139.500992
13.599477 -1.752163 122.639694
9.778336 -9.946439 97.052109
-11.483682 0.675822 122.554657
3.158690 -14.168703 128.452347
1.381837 9.864931 117.006775
-13.795113 5.002684 100.913612
13.718792 1.232539 126.883087
-11.674035 7.209163 101.734131
-1.199180 9.494208 153.182755
-10.722215 -9.148991 121.431946
-0.938520 -11.395714 97.952042
-1.226019 9.089766 151.811264
-1.560141 2.229100 148.342972
12.814507 -4.668744 122.364548
7.662720 -10.885933 124.577202
-4.472451 6.789354 124.362854
7.260571 -9.580863 100.127701
3.377005 8.369161 154.002686
13.625697 -3.494179 124.659149
-10.314796 11.728541 145.641998
-1.092714 -12.765872 105.267715
2.790769 -12.374078 131.826859
-4.565920 -7.238593 143.878067
-14.048140 -4.511452 123.492470
-11.691000 -8.328623 117.908951
11.357254 -6.577957 113.658043
5.792109 -12.338145 118.830376
2.209972 11.302520 144.331116
8.614045 -13.448735 130.931320
-0.037843 -0.889163 144.889740
-11.707018 1.951229 113.670494
15.320946 -7.208373 108.079704
1.413524 -2.209996 150.056946
12.639628 7.397198 102.607544
-11.282574 -9.053705 123.383553
-0.322685 8.671475 150.727982
17.321123 -0.885176 104.641411
4.083414 12.736410 99.158157
-15.521594 2.974907 102.276886
-12.387659 -6.982060 140.658371
-6.367786 9.734769 106.531059
-1.064147 7.883399 113.745819
-7.346864 7.230212 112.111725
10.200411 12.683212 143.552902
15.630165 7.988553 136.067764
12.496908 -6.445053 125.253876
11.253675 -7.581080 137.744232
-3.058986 -11.393360 131.840851
11.389658 -0.298216 148.627716
-11.253680 -9.920213 138.312531
12.726297 -11.331220 130.246170
-14.018949 -1.803566 113.137039
-2.965556 -14.580251 131.604340
5.335696 -3.025458 149.852173
12.664264 -8.922731 139.685822
-13.191195 7.300365 129.163544
-8.152892 -11.165243 124.719368
6.355458 12.102229 139.040802
13.954576 -3.431520 135.475647
-4.885157 9.056184 152.351837
-5.082968 -2.867566 146.662964
-0.047823 -12.627865 114.838188
-5.385829 -11.971635 126.063408
8.547130 9.748334 104.822655
-7.833004 6.905600 123.254349
9.162741 7.887792 129.954178
9.071996 12.422914 139.863983
-14.582884 -1.806049 126.319588
-2.545633 10.023139 130.312912
-12.228453 2.955343 122.151405
0.076768 10.012725 105.194267
-0.159595 9.236817 109.573456
7.132229 -10.088621 116.873100
12.107066 5.032719 133.600586
0.040954 7.217881 88.382774
-1.868491 6.082251 89.030327
-12.453119 -10.764925 134.626328
-1.071656 9.508943 103.594292
-8.915016 -5.299056 143.684921
-2.857717 9.880057 101.960983
7.795146 -9.030772 139.465286
-2.022066 12.721575 95.181793
-1.162510 7.854519 124.613350
-12.613499 -10.329157 104.429024
-8.724921 3.838019 151.472656
-0.943710 -10.350574 123.072716
-2.683188 9.028399 156.285141
-4.551365 7.309374 157.992157
10.788969 -9.421463 124.372498
6.501125 10.947619 102.691032
15.529137 -0.788382 102.163475
4.733330 -12.740197 131.242508
13.189044 2.510022 132.063217
8.483501 6.748842 112.086967
-1.260097 -5.236479 145.326172
5.517580 13.278663 97.567802
-6.523750 -10.222173 117.421532
4.644763 -4.256014 153.971939
-11.977343 4.262297 109.036125
-3.517536 12.157504 146.938751
-11.976632 -6.697309 112.032875
-0.148164 -12.867496 125.393822
-1.253158 -9.404929 138.916779
-0.911263 -5.583595 90.147087
10.841920 -7.474827 140.501266
-0.183606 -8.572514 139.768997
13.391460 0.314709 129.628571
15.053995 -3.904763 108.648689
-12.272747 -12.319085 132.859695
3.400170 -12.522305 126.194458
13.922691 -7.664624 133.191818
-13.662310 1.793954 107.590553
1.189177 -13.616871 126.038528
13.844193 -6.584596 131.309570
-3.315795 9.984822 102.746933
-2.925417 -8.254961 140.874207
-8.264877 7.729404 111.399361
4.052231 13.314671 134.441742
4.692945 -10.474099 138.707794
8.435684 4.183604 116.091393
-10.680450 -8.961416 122.796257
2.692349 7.266825 124.595688
10.401158 12.004097 97.945114
13.445387 11.330293 137.739685
12.367004 9.566234 100.351608
-13.211120 -6.002055 136.955872
4.133928 -9.557101 96.746780
4.041237 10.908623 127.909653
-9.237260 -8.902216 108.804031
3.948179 -9.350061 94.116447
13.203731 -2.086629 118.244667
-5.803083 11.986520 98.693932
-5.441988 9.193936 128.576111
7.539217 0.927177 152.613235
-0.296337 -5.364742 144.202560
6.117640 12.311450 136.213455
4.704570 9.400294 151.047180
12.551289 -4.082911 119.829697
7.372475 -13.210807 129.603531
15.481497 1.901617 128.687500
-2.655696 8.663640 124.718796
6.852460 -6.747238 142.429657
15.144130 4.176337 103.817917
8.186839 -7.024333 144.546585
-6.008995 11.831212 98.034821
14.571112 -1.947629 133.072266
-2.272472 -13.372725 123.262825
13.603951 -7.790716 107.752937
13.558874 -5.271298 119.720688
-13.475862 -10.173753 126.853165
-7.232531 -8.750561 111.293617
-8.725018 -13.161429 128.402618
-10.416951 -7.921681 114.242409
8.575811 9.467926 130.550400
2.782670 -2.105197 149.653076
-0.659182 -12.277424 104.367294
7.799651 3.659103 152.242508
15.439420 -2.074995 135.199738
12.112657 -9.145557 99.494118
-11.182146 -6.241147 142.104935
14.260226 -3.600582 110.945786
9.579988 2.461842 151.056595
-13.330042 3.330601 103.137077
9.688500 -8.707896 119.704262
-6.199214 11.346479 144.035782
8.923652 8.640924 104.567375
1.319958 13.373903 142.841675
-6.161410 10.008757 105.984650
7.121043 9.059715 128.607971
15.587155 -6.637295 105.883873
-10.631552 5.103547 115.072273
1.004859 -11.764573 115.666023
10.357376 12.645468 146.533752
-11.387476 7.359826 128.207123
-15.030464 -3.642792 140.108231
-11.654943 8.980532 98.607155
2.769706 -11.929575 123.194084
12.831584 -6.570218 117.697227
-1.320733 9.440696 89.926750
-12.609553 8.651257 149.845581
2.579570 9.467649 153.880447
-13.675920 6.351532 102.917938
-5.581404 0.271316 151.761200
-15.682557 -3.563221 106.505043
2.644742 8.138318 111.428757
-13.425644 -7.534371 137.572388
7.024406 0.828150 155.704254
13.927299 8.179353 99.936508
-3.468174 -3.637625 147.180389
7.308303 10.697191 99.051414
9.107382 12.250699 137.186279
8.750673 -12.589476 136.435165
-0.809597 11.227377 94.847679
-4.232415 8.496906 156.552521
-9.764249 11.372074 97.307152
-14.156584 1.292113 110.347931
16.584152 -0.664501 102.622383
-0.627371 -0.880545 87.873611
-13.522197 -10.251577 134.983429
0.071242 8.028358 123.300491
-8.289569 -7.582960 96.619736
-3.685470 -3.041914 152.926468
-15.148432 -7.292746 132.950668
5.203511 6.219487 113.803261
-6.797491 11.136295 136.358612
0.695095 -12.508332 134.615372
12.241917 11.091290 148.532791
-9.450107 7.697618 128.491623
3.510915 -3.914150 146.610672
5.564493 10.114830 107.866425
-8.219823 -9.071291 101.149803
-12.790317 1.237038 123.127113
-9.911758 0.933506 118.423683
8.520700 -2.579826 147.434677
-2.784010 -11.676200 118.984581
-10.149071 -11.649135 128.285233
-13.336484 -8.373514 137.265121
2.625785 8.986154 107.617622
7.058677 -9.986614 101.109703
7.909283 8.505476 110.528061
10.626341 12.409626 147.020752
15.705592 6.841006 101.110664
11.408503 -4.901757 139.509659
3.071941 -1.584920 152.016785
8.846651 -14.013085 131.682449
1.542251 -12.641414 121.174202
-13.404705 -0.310918 117.823349
-7.772484 6.675682 112.982307
8.146096 -9.694769 111.721512
11.525405 -4.063874 140.329666
4.848868 -10.749684 98.953880
-2.798734 -11.278689 101.815735
-5.352786 9.863576 108.261703
9.606091 11.364811 145.223755
6.207879 0.724672 151.424255
-3.709441 9.762681 128.600662
-13.867841 -8.428032 99.994965
-5.216646 -3.355738 153.416489
-13.894051 5.592718 101.658920
-1.005142 -12.489513 102.416130
-15.031939 -1.084476 129.979401
12.917019 -8.429991 104.618080
14.082679 5.430656 153.526459
6.775357 -11.019443 127.909950
16.558111 -5.343613 103.023849
-8.154626 11.719668 136.197678
-0.339785 -14.338828 128.151276
-6.755628 -0.880493 152.752029
1.123948 9.441424 153.499847
12.378797 1.256878 127.246063
16.117382 0.029867 131.811325
3.292242 -1.806750 149.889618
13.426641 -10.386586 129.977615
-13.205155 -0.553155 121.934769
-11.456846 -7.889228 123.216621
14.304142 -6.180199 135.820099
-9.516469 8.088183 153.375824
-4.016251 12.126472 130.678558
3.100087 12.307007 136.044357
1.772955 7.990927 121.151932
12.764650 9.712081 97.616936
15.031796 -10.706280 131.237869
-14.002484 2.718289 130.062027
1.822833 -14.479431 125.579071
-9.372390 11.305848 136.084290
8.908915 8.764354 130.948090
-6.957796 -6.804267 142.236374
-2.327314 10.558434 134.247620
1.667792 11.749307 98.086075
16.840956 -3.879328 98.084335
8.523418 8.212751 129.515671
-5.245228 11.282737 99.596306
-6.121516 7.337534 125.118759
-12.256310 0.526955 122.257019
-3.850176 9.804420 103.905411
-5.913714 8.538751 126.322388
-4.553000 -13.090435 130.548340
4.167678 10.015757 95.410652
-8.056291 2.763490 156.020569
6.547719 -2.851792 148.282669
0.096622 -7.805611 93.596581
-8.477012 7.030747 117.097084
-9.043058 -9.282187 113.578972
-7.923514 6.954435 153.669937
15.555727 -2.126296 106.193138
0.828611 8.831207 101.818611
0.955069 -11.063213 137.894180
-11.315458 1.440800 124.159576
-5.343025 1.740880 152.945923
-0.818779 -12.107059 113.822525
4.049506 9.367506 152.811707
-1.464546 8.516851 114.429863
-15.395456 1.741152 100.394005
-0.794573 9.745564 152.427780
7.883463 9.725972 102.258987
-7.632611 7.877050 154.408691
13.340107 -2.117607 122.484993
-8.779363 6.643304 109.131851
0.435732 -10.060451 139.515762
3.724971 7.817140 125.269325
-8.885767 -11.938439 123.609818
-0.602439 -13.280597 108.236015
-4.759696 13.170138 134.008469
11.166625 7.498003 102.906677
-5.570523 -4.420832 142.218918
0.179088 11.360639 95.839516
11.470151 11.361442 135.642593
5.522691 -11.619546 137.641769
11.774114 -11.154516 133.459595
7.001596 -6.023201 153.634293
-1.518157 -9.343151 140.923691
13.195212 7.801864 131.472595
-7.700564 5.645084 121.554245
10.300708 4.178644 108.258293
-8.988714 -5.255101 143.768066
-0.747236 -10.317758 138.914200
-10.759413 0.739797 153.504730
8.993577 -9.115480 108.322968
-10.864111 -9.374913 110.407936
-4.355590 -9.686842 94.603851
-3.413711 7.808601 114.099007
8.018351 5.679249 111.915939
-10.726527 3.632845 118.526077
13.584541 2.192160 131.944229
-10.555808 -9.397122 115.977371
9.867129 -10.529332 126.310066
-0.209335 -9.791369 100.788948
10.886172 -9.167695 123.954750
-2.686752 10.691907 147.583221
6.387788 -11.711738 108.986206
-9.956105 -9.751974 122.568253
-6.148082 -1.498349 148.386551
6.363009 11.020277 104.334938
-3.871618 -7.705915 138.987427
-9.794200 -9.337728 123.996239
-9.666574 -9.774465 112.337463
-0.264550 11.185571 134.255646
-1.736936 12.395977 96.094124
1.368043 -13.166789 127.512665
11.433452 1.861615 116.841484
9.117518 -14.176643 129.125107
4.036772 -10.598961 95.714699
15.011017 -2.897563 105.580040
-10.624834 -11.352715 135.887070
-7.212952 11.256117 140.538437
1.724118 11.888613 142.335281
12.019797 2.686362 111.691345
-1.011633 -12.984756 116.103004
-9.220566 -12.057780 135.615509
8.918303 5.227582 112.175003
1.230186 -9.578536 138.696671
-9.215490 4.932189 115.152649
-4.251446 7.633397 114.376564
0.031628 -2.418221 147.346024
-2.878728 12.905359 134.280487
-6.568098 -10.395952 115.250069
-6.029095 3.619153 156.024750
13.299253 -4.619993 129.251434
-15.393307 -0.086617 102.194778
13.523207 -4.578980 113.874138
-1.891361 -5.473601 143.668808
4.090983 -12.014215 128.113724
11.494408 10.554927 138.462463
-14.322557 10.992715 140.949173
-11.903528 9.961211 99.805618
-10.726094 7.767383 104.554970
-12.883495 -6.804197 129.649612
11.364620 -3.256605 122.697838
-1.103199 12.688169 140.584778
5.106719 -13.684931 134.229462
-1.717463 -12.626081 101.674660
3.524307 7.329467 109.676476
-3.604070 12.455827 143.495926
2.140273 -6.411032 91.631615
5.105398 7.419451 114.013954
-11.702308 10.417511 143.268814
5.342500 2.323233 153.302475
12.542530 1.945035 112.562675
-15.546079 -5.787685 136.240204
4.201437 -13.122493 101.939514
-6.067206 -12.407872 116.512848
-6.871397 -10.804660 123.917191
-1.965739 8.034938 125.348816
6.491655 11.342852 146.337173
-10.571643 -9.094130 126.385704
-9.545765 9.023314 131.695023
-12.453866 -4.800862 115.256721
-7.305296 6.783567 125.629539
-3.189790 12.478681 91.725250
10.855799 6.076864 102.936905
-10.312029 3.588941 123.416000
-1.036037 -9.490881 141.446533
-10.770180 6.911132 107.790054
8.971023 -9.617896 111.481400
-11.710478 -8.719396 107.955460
-6.594026 6.350941 110.751694
-9.414771 8.277202 101.932762
-11.419248 -4.874654 115.125679
-12.598780 2.554800 125.213722
9.785648 4.256280 114.046791
-5.420447 11.722081 145.037033
-1.113473 4.715710 86.603851
6.834389 -10.682483 112.284195
11.967287 -5.212690 139.583984
14.298067 -2.674654 125.363922
-3.883058 7.374234 113.909660
-3.389939 11.285423 99.333519
-1.495459 -11.712256 113.752708
12.282831 -2.700354 142.397141
-1.631994 -12.466844 128.402283
-10.221313 11.784285 146.847458
-14.408015 -7.551062 104.482147
12.620996 0.809908 123.836372
-12.705966 -2.400818 125.621918
-2.847382 12.689307 97.415588
-15.468666 0.694664 135.057953
-2.527132 9.871627 129.858826
-8.408006 8.616500 126.838982
-7.464807 -5.958324 140.975159
-6.035882 8.290487 120.410004
-13.981161 -6.488425 109.563667
5.348644 -8.357324 98.170197
-1.312064 -10.332383 135.738129
15.053623 -1.527223 132.447678
-2.132521 1.625159 87.727737
-14.679878 9.997408 136.619263
-5.346062 -10.435463 116.403725
-1.097112 -10.348053 135.474716
-14.294376 1.268773 111.170334
13.716881 -9.634194 133.158829
11.449080 -5.597245 142.231964
13.151464 -5.720806 126.572830
6.368880 8.440905 128.722641
9.047612 8.736837 106.644363
8.440755 -8.762255 97.044327
1.125398 -11.617395 112.679726
-7.996143 -10.951586 103.114120
15.435697 2.085311 101.659492
-2.070858 -7.981078 140.448730
9.421970 6.186247 114.021599
-1.551652 -0.607418 88.184006
4.617639 7.551455 122.391602
10.953195 -3.525653 141.826141
14.077379 3.676813 104.126999
8.826621 5.410735 117.592468
3.021022 -11.380351 113.873291
4.958405 -9.819143 106.187347
-14.391493 4.237339 102.711845
-14.527088 0.995264 110.377945
4.890543 12.695820 141.264771
3.370339 12.525143 91.388481
11.646885 -1.226079 124.722847
-14.240099 8.181141 135.311829
-10.183111 -8.128147 124.540276
16.695030 -6.899650 104.096268
-13.562710 -12.055406 128.579163
-11.158695 1.165447 149.782593
4.709828 8.984093 120.251259
12.941880 4.130103 103.533279
5.473691 -11.291708 111.304184
1.872007 -13.471478 133.432510
16.631004 -0.448709 103.451797
-9.663519 3.132723 125.486679
13.673789 0.020030 110.294472
4.199308 -3.583425 89.538185
-10.217958 -9.504586 100.927460
13.472322 -4.485753 111.462608
8.949083 12.287099 143.775391
-1.770394 -12.877720 106.957466
-5.987341 -11.795070 127.343536
-2.030043 9.412963 110.956940
14.937656 -4.704747 107.964905
-7.795394 -10.483684 106.054001
7.735947 12.978167 146.744598
1.543626 -13.062353 115.445480
-1.866038 13.015265 99.740273
10.302809 12.631142 146.703705
4.675952 -13.009075 109.196671
-8.419105 4.023757 151.420868
-17.132086 1.815207 98.523277
-2.634808 -11.739232 131.506714
-2.850413 6.226397 123.202286
-2.181500 9.394973 153.861465
3.091790 -11.577036 137.285507
0.387177 -13.624410 125.617264
11.516761 3.239192 111.746902
13.803560 -8.652380 106.742607
-0.235068 -11.769810 115.228683
10.641640 4.404846 150.654480
-0.966813 9.341466 126.433815
-14.430567 -7.368535 138.825455
6.024675 -12.136577 136.955017
-6.904092 -0.871008 154.730698
-4.654334 11.589344 99.451073
-2.742565 8.545205 113.635117
-10.371889 -11.074018 123.075569
-3.683157 -12.163508 135.744278
6.357523 9.888772 104.396477
-0.000221 4.951149 89.178940
-1.354927 -0.215285 146.630463
-8.109010 -12.938864 131.736618
3.079615 -9.290835 140.031754
-11.511559 -8.874534 137.623367
-12.630534 -3.180938 122.914841
-1.005650 9.485507 150.900604
0.748047 -12.049940 104.041168
-12.834656 2.902828 150.187866
4.804420 8.210817 115.630516
-13.502192 -4.612627 142.402771
3.000149 13.298543 96.891426
-1.500167 9.621737 152.894440
-8.009907 -10.120879 102.305779
2.309488 -9.239493 93.503479
-2.957804 -11.416961 100.321381
11.140942 4.300167 150.790070
0.666599 8.707157 110.379242
9.036986 11.644024 98.998215
-5.686327 7.249039 120.784958
-8.350183 -4.861742 145.401001
9.984234 10.398818 100.124336
-8.140595 3.386840 153.587845
12.386537 2.753204 112.446625
-13.247441 1.642744 123.929092
0.473034 10.513383 97.955643
-2.802765 -12.076535 112.005875
-7.504982 2.653270 154.814026
-6.228366 11.922449 148.806778
-10.904748 9.798248 147.656967
-11.657762 0.197369 125.062546
8.391093 -0.862113 152.805573
-1.320702 -11.160071 137.856583
-8.855348 0.919420 150.577576
14.553421 -7.424017 131.109680
2.016241 -12.399895 104.795876
15.470917 -2.083843 104.140762
-0.571782 -11.327785 105.989876
-9.678348 11.694180 135.696609
-10.325723 11.132424 139.489197
-13.368029 0.311876 133.283051
-13.512425 -5.478368 131.291443
15.208260 -2.433889 110.837379
10.525764 5.516990 108.191399
-7.867365 -3.339879 145.208588
-4.131202 -10.258257 113.868629
-1.927715 -12.080349 137.337524
8.426042 14.106220 145.160919
-11.804385 8.794676 132.305481
-12.949226 -5.354688 120.919922
-2.807102 7.552624 122.868095
-7.052214 -14.152719 131.954086
-4.787634 12.755075 137.064346
8.039672 -13.910532 134.694000
7.379978 -1.844705 146.894287
0.854491 -4.571990 145.100708
1.917699 -7.481562 142.045761
5.834352 10.706348 99.780258
12.263992 -2.824230 113.934120
1.309442 9.689779 151.052765
1.230709 11.485105 99.546143
4.623012 -10.704278 124.693535
3.428512 -14.043003 131.321152
-2.826115 -9.709452 98.968666
-14.791989 -4.379452 137.642624
-4.113602 12.530919 139.993073
11.891470 11.345213 145.207535
1.062655 -4.899052 146.124176
0.463665 8.433363 105.042618
6.733810 9.594417 103.257797
0.827693 -9.809037 138.312302
0.163897 -12.924276 133.830063
-9.600014 9.622517 150.845215
-7.916492 4.669335 155.972702
-3.143566 10.605593 103.366173
-0.167871 10.997312 92.350815
-2.449607 -10.918883 120.333992
13.847322 -4.246984 121.385872
0.892235 8.847020 127.053001
-13.230358 -6.046618 118.038925
-2.983675 12.359212 93.271683
2.471388 7.758985 123.275078
-2.381545 -7.861166 140.468140
-1.670051 13.271984 135.432083
11.493814 -9.393076 126.315048
14.701164 -1.763046 113.271927
-9.000991 -6.350398 141.446518
4.093678 -12.168970 129.412247
3.437428 -12.439183 113.933044
0.721520 9.784288 97.531204
10.016483 9.914568 130.425079
-5.504222 -10.029067 139.483765
0.399815 -10.414695 110.416443
-3.128976 -12.930178 116.166649
-3.229153 10.394148 132.113358
10.491417 8.931485 147.636795
10.856501 7.070120 105.496948
-13.426018 5.398855 109.860039
-12.621159 -0.358937 130.300873
-1.696746 10.988061 92.007057
-1.201769 9.202022 104.375496
7.761391 6.816258 156.463760
-8.870120 9.799116 102.599968
3.028961 -3.637912 147.080612
6.205670 -10.261409 100.655724
-10.934728 1.420722 149.616135
-8.312419 -10.656551 106.154968
-15.329103 -4.543062 130.503662
-12.989949 -4.150409 123.108009
-7.361866 -10.599951 138.620590
4.000609 -12.162260 124.209656
2.203955 -14.146665 126.930359
-10.489583 -7.752914 104.246788
14.191307 2.102676 130.103287
-6.292400 0.824961 153.935440
7.721548 10.088463 103.877914
12.933464 -9.324143 130.482422
-15.632053 -4.666127 104.875572
15.906902 -1.823521 102.188965
8.441914 9.434643 104.830925
-14.762779 0.131447 104.265099
9.884957 2.688835 112.283966
6.547980 -8.909496 99.997459
10.137190 -7.214868 115.103470
-5.818738 1.596152 155.230240
-12.953075 0.883430 113.389786
6.855097 6.496390 124.941818
10.258262 11.822774 97.519356
9.287008 8.376913 104.114456
1.746228 -11.982696 128.656891
7.870389 -14.406194 133.995422
-16.307310 -5.857809 99.124184
-7.144982 -9.852942 102.142334
13.214503 -2.566520 127.359116
1.650526 -12.251478 114.869179
-0.406382 7.394017 88.602432
12.674883 -4.628288 111.700348
7.007350 -4.684212 146.572067
6.103035 8.031452 154.554245
15.057413 4.252154 130.919342
11.649134 0.473719 122.089729
-5.841572 -9.061352 139.414963
-14.069936 -5.287320 138.864197
-14.579963 -0.852366 141.052017
-1.002750 -6.316982 144.650314
-2.806205 8.774424 121.705147
-2.001386 8.447593 105.312065
4.740933 8.543231 113.089539
-7.593802 -6.460571 142.596939
-7.896571 -8.938054 102.369820
11.427762 -8.583599 140.156158
3.405554 -11.214814 138.015015
-12.193514 -6.280221 108.894836
5.066522 -10.759167 138.382050
12.704288 -7.073932 106.457458
12.563185 -4.727848 116.215736
-15.011942 2.925862 132.941681
1.024007 -9.682844 139.292313
2.127005 -0.762896 152.144104
1.237455 -12.733258 106.280167
-5.738994 7.923212 127.298958
-11.890114 -6.716886 117.393066
7.007343 -12.575731 107.123856
-3.364930 -11.910346 117.288605
-11.839869 8.773360 132.813400
-2.023666 12.340837 142.584335
3.873724 -13.680891 127.910225
-15.857246 -5.143472 103.192619
-12.625656 -11.631762 134.371887
0.725213 12.476244 139.699448
-1.630236 -13.418562 109.695877
-0.441267 3.148142 87.103294
-8.059317 -11.266672 117.331200
0.055698 -12.363567 125.482895
2.668788 -10.298692 111.678085
13.368258 -4.652571 112.233185
-3.135754 -12.186881 128.647446
-6.537897 -7.635998 99.656403
-6.920505 4.268966 156.633743
-6.969803 6.801511 123.143532
-1.736960 -11.471678 124.517220
6.051026 -11.375133 117.308861
15.556936 -0.689297 128.219940
-12.756842 -8.687301 131.712784
-13.328880 -9.811885 135.742920
3.739217 10.688107 149.282166
-7.177296 9.822556 103.296501
-12.925011 4.716004 129.726379
6.648934 -0.681038 150.999374
10.388138 9.591165 132.032166
-1.318869 10.523482 107.731003
13.302695 -3.859031 108.549706
3.338321 -10.663946 110.654343
0.271011 -10.333148 138.674988
-7.189682 13.027997 142.829651
0.431341 -12.917462 134.023376
-9.887012 -3.302074 145.672058
-11.454319 -0.486314 118.060303
12.140761 6.445984 131.451721
-3.008899 -10.249420 99.723160
9.073796 -10.466062 121.270576
0.719242 12.816415 145.136536
7.256990 2.193405 150.770065
6.226199 11.111673 141.622421
-17.765890 -0.148338 104.076401
-13.581561 -0.345191 131.850998
10.878423 4.034916 117.889366
-0.742748 9.609427 109.960320
3.720300 -11.829811 111.056564
-1.190272 9.830957 104.149345
12.096743 5.303449 150.024826
-1.414279 -13.211824 115.202469
-3.872855 -14.443455 127.743515
2.878420 -11.891542 102.118950
-6.844776 1.921769 152.746185
2.768636 6.550183 112.714996
-16.553595 -6.412795 100.238693
15.846039 0.844044 102.812294
3.446657 7.609849 124.539207
4.152376 -13.444108 134.113663
-17.293600 -1.360610 139.932587
9.495113 4.291575 123.112244
0.346324 1.235686 86.817345
13.918402 1.751082 126.253792
-3.020567 -11.700452 122.287270
-13.310364 -5.485325 138.728378
14.696069 -4.258203 109.643669
-11.353875 7.226994 105.335915
12.506160 -6.006853 138.784088
2.942514 -12.549027 133.498917
8.151487 -10.318202 112.127663
4.218935 6.400869 111.802010
2.873325 -7.698664 93.414848
-7.220546 -8.795766 107.342972
15.207479 5.041975 132.558792
11.440975 -3.125469 137.831177
-2.458145 -11.678828 133.947449
14.420555 -4.123018 132.285355
-4.741827 10.641413 149.945038
1.195756 9.670956 91.501106
6.099240 10.020845 103.556664
7.577439 9.871539 98.863998
14.976243 -3.932258 129.415649
3.110523 9.247004 109.498192
7.173864 6.566271 127.322121
5.742741 2.242948 153.743118
-15.564785 -1.883670 142.017639
-11.928101 -8.845299 125.732132
3.676502 10.131176 154.611130
1.188246 -11.162820 137.428543
-15.171874 7.565124 99.427292
-9.271022 4.142897 122.326149
3.053890 8.350875 123.243866
-4.001409 -9.600885 97.333107
-4.490795 10.098134 104.180946
2.165410 2.179309 84.188385
7.860512 9.058475 128.799988
11.879622 6.124866 127.520844
-8.133917 6.168997 117.641159
-6.587472 -10.505376 111.019127
9.681585 -9.357882 109.623886
1.292178 -13.099060 111.602104
4.052030 -11.176584 137.021103
-6.851534 -10.889009 117.593285
9.323952 6.429452 151.078598
-1.243303 11.634903 148.760651
0.812433 -9.469834 138.754196
-14.949954 -7.396622 103.635277
7.218932 12.606461 94.939934
-10.888912 2.261941 151.279510
5.057503 -12.387108 128.942154
7.005931 -11.293946 113.394409
2.087206 -10.804197 135.569824
9.827524 4.287628 152.365265
-10.104368 -6.455362 116.181755
5.610286 -10.166969 98.102127
6.226265 9.679868 100.640823
-14.075942 -2.452696 111.874069
-0.544470 8.375714 112.670067
6.846855 6.752871 107.496933
3.420887 -3.781408 146.653168
1.542192 -12.304694 114.465256
13.831351 -7.157154 106.025742
14.791929 -5.829559 133.397263
1.013135 10.314350 149.820755
-11.143867 7.174028 105.730072
11.334188 -9.490355 106.247978
-0.072376 9.727924 128.434830
2.552086 -12.166189 118.031685
-9.706987 3.727314 123.085228
5.376936 -12.946222 128.843063
2.155782 -11.831204 115.443733
1.678985 7.506908 124.337379
-1.135755 9.803697 91.003555
13.745283 2.795990 131.372421
-14.070737 -2.597570 109.591164
-4.414627 10.612247 107.795486
14.130023 -1.123663 114.285576
-12.383650 -11.974430 133.913513
-7.884146 -11.902412 127.772148
1.552062 10.535305 128.784943
-12.953432 3.554047 109.545074
3.445858 8.576883 128.464874
0.372882 -12.613578 116.481270
5.428321 7.419433 154.302826
4.691489 -9.504417 142.864441
-1.425651 -4.478660 88.009583
-0.133320 -12.787816 106.649620
13.138119 3.291663 131.074524
-7.640436 -11.940557 135.416687
5.947462 -11.964472 137.260986
-11.463784 6.550828 108.838257
15.338873 -6.754018 136.949738
2.157300 9.563232 124.952301
6.907968 5.278176 151.642868
9.814453 -9.106511 99.579254
-0.492476 7.432069 118.451332
-3.485017 -12.035848 123.353691
-11.497593 11.415673 141.266586
12.777987 -6.567034 115.523766
-13.326341 -6.748479 126.200111
-2.111398 -10.208242 98.523911
11.641212 -9.442598 106.568344
13.763398 2.824811 103.894997
-9.805167 -2.493665 145.888687
6.895906 8.997177 124.810776
1.118354 11.307404 132.222549
-4.676818 -14.729583 131.898666
-10.545088 -0.366019 148.385132
-6.049655 -6.285258 142.798630
14.462765 -3.498283 143.608307
9.395228 -3.103415 144.259415
7.773026 9.916121 131.301010
-14.596756 8.401147 135.300522
-11.678026 10.812089 147.615250
3.515129 -10.113004 139.791565
12.853895 11.317017 148.273865
-13.316532 6.141737 152.409500
0.570420 10.619609 105.986916
-14.562263 -9.355387 104.580589
13.826699 -2.943827 141.037384
-7.298300 5.967216 113.460503
-15.084623 -1.048690 130.335236
12.727830 0.176471 124.373009
-6.010879 12.169263 141.050018
-10.651248 -10.605196 116.562119
-1.149109 -11.362070 120.579910
-12.605573 10.457254 136.666779
-1.068778 12.601883 143.953735
11.451200 -0.277902 119.884064
1.320452 6.461055 154.952301
4.181229 -8.315071 139.441284
10.210076 12.733238 136.336990
-10.903049 2.627600 120.720703
-5.199152 10.597485 150.355957
-12.769300 10.326213 135.543610
13.239511 4.476955 131.750687
2.714877 11.942559 146.363251
-7.993602 -8.269167 96.948822
-6.852948 7.097476 115.729126
-1.394364 8.579172 156.360016
-7.253469 9.427217 108.375870
4.031508 -9.269743 142.505829
6.301423 -10.729337 118.603149
10.764188 -10.724208 101.479332
10.731438 12.046090 145.029160
6.204483 8.077576 152.510010
4.272663 -2.527397 149.654449
-5.768623 13.107312 141.910690
-10.698622 1.123418 113.895340
6.898188 11.948428 145.657990
-1.571952 11.031094 94.291145
-4.351755 -3.651521 146.932724
-3.238003 7.382171 154.554871
-2.613874 9.230090 153.598816
-13.768023 0.507075 126.189079
-1.129826 -7.063544 91.930176
1.212946 11.813800 140.361511
-13.612465 -8.780251 104.332504
-11.972472 -1.255185 117.776779
-6.874252 6.002021 122.607430
-0.128830 8.861405 116.180122
-2.485515 -12.185443 128.656906
14.587548 -5.764665 105.718193
15.690756 -4.593760 108.562874
1.523788 9.222445 105.184784
-5.833394 -11.474091 117.202988
9.000560 4.395693 155.714462
-1.351658 -2.671420 86.673470
-1.342848 9.175933 155.395798
8.406048 11.388573 98.169136
-3.336471 -12.938844 136.970535
-6.374972 9.725809 132.587753
1.816820 7.215616 152.512222
-11.326106 2.107589 120.572853
11.225380 -2.233971 143.334869
-1.294526 -9.358130 138.764664
9.797237 11.279545 95.650421
10.990874 -3.890126 118.189438
-7.915812 -12.121059 137.346298
15.741255 3.018288 103.149139
11.614442 -8.570974 137.515686
-11.335656 3.055337 112.565628
-1.687329 0.030399 85.152115
7.609142 -11.491381 105.771027
-4.887043 13.394213 95.233490
17.151566 -2.937604 101.872772
9.873921 8.178445 150.502243
-2.411583 7.631220 116.365524
-17.195356 -1.357059 102.337135
-2.315220 -9.224702 139.369308
-4.637601 9.411117 152.186249
0.339315 -12.810504 129.530609
-8.568220 12.035645 96.160469
4.862219 13.323739 133.009552
8.399671 -3.889357 153.398956
6.839005 11.655187 146.132965
11.098505 3.622291 118.301140
-13.825974 3.536917 129.594742
-15.168798 -0.138934 132.881546
-9.231106 -8.411070 98.302597
-5.356694 -12.002879 112.954910
-2.019001 -12.832006 120.392639
-16.647007 -6.329741 101.719193
8.157553 -8.004695 139.250977
1.972969 11.510266 92.018684
-6.658131 8.680393 127.179459
8.642694 10.436448 100.200882
-6.198628 -11.339479 117.800781
8.326651 -13.544615 136.029312
-2.003449 9.315970 105.949020
15.422910 -0.885568 135.984146
0.254674 -12.122602 128.170486
5.961075 10.490499 149.458557
15.803783 -2.917438 109.466034
7.529170 12.963115 136.068527
15.227011 1.520088 100.681183
6.274198 6.679046 115.047073
2.499446 10.297372 103.360886
12.686070 -2.046132 115.004692
-0.688943 -11.498580 101.957314
-5.563344 -8.930620 95.618607
1.742428 -12.810608 136.173599
-11.653225 -13.027841 131.065262
-11.371439 -8.065359 137.485092
10.691673 9.529670 135.940216
12.265452 2.909677 111.770271
-13.601225 -0.606313 132.706467
-6.256427 8.286912 149.579132
-5.336350 11.654335 141.089066
11.484316 8.356403 149.980499
5.321171 11.174006 147.650711
3.503557 12.458602 143.854919
-1.277978 7.159108 90.691406
5.300536 3.801182 90.432915
1.806921 -11.608011 97.046532
12.069115 10.085399 138.292160
-0.736055 -11.455115 137.941467
5.219546 -6.112818 143.900909
-6.073906 -6.311024 144.201920
-4.965330 11.143257 100.494865
-7.361969 7.576722 109.455177
5.097919 -12.268421 111.481628
-13.444559 2.238702 108.656075
3.385405 11.499932 142.814926
0.811891 10.259771 150.692642
-16.063099 7.075685 135.885117
5.537914 13.006023 141.636627
-16.297626 -1.224633 103.141525
4.412403 -11.522207 126.544830
-5.503630 -14.202038 104.824501
-5.847775 -4.178020 145.171188
-0.717143 3.242239 86.988693
11.503599 -5.942616 124.211021
1.469649 11.275052 136.296387
-10.074725 -9.348895 100.749542
-11.618148 -0.489561 120.890366
11.082151 -4.601133 116.456924
-1.482245 -8.321029 95.399368
15.720158 -4.569559 111.810356
-10.971562 -10.417390 102.254303
-4.164564 12.096410 137.341080
6.838294 -10.955509 123.250824
0.522162 9.477368 110.020203
6.601515 10.738794 101.312820
-4.595850 7.203027 120.602600
-7.656889 10.507150 149.734741
-4.211489 -10.806254 114.886642
-9.354735 -12.230862 130.564850
16.007446 4.203765 102.102715
5.642925 -1.607615 150.538773
-13.213272 2.027815 119.341286
-11.786858 10.398742 144.195572
13.738462 5.554503 104.091393
-8.985548 9.324872 130.781555
-3.031047 -9.186211 94.566162
-15.288357 1.424000 127.772797
2.303765 -11.125270 97.340256
9.160307 -11.454905 105.472023
6.412163 -10.477311 103.000145
11.786628 -7.926624 125.850235
8.094332 8.884333 152.059799
11.935326 -9.003661 110.523560
-12.915274 -2.196930 114.980942
-0.282755 -7.058800 141.742188
14.842493 -5.656150 128.456543
-11.754088 11.291991 95.480392
10.857311 6.220226 126.125114
-0.183955 -11.755870 135.212372
-8.837820 6.204097 113.870926
3.423732 9.743320 156.902237
5.192527 13.723867 141.030914
-12.704991 4.720509 128.523605
-8.006862 9.279649 103.139717
-10.139265 9.079741 102.182610
0.657768 -5.677055 147.455231
-15.198649 -8.178115 133.000183
-10.291849 -15.354856 134.344025
13.190356 7.034115 132.339386
9.170033 -8.073590 94.542137
-16.880470 -4.705963 137.481018
6.294766 12.996908 96.621719
-6.406174 7.011733 125.755463
-12.207626 8.679786 149.604004
-11.538192 -7.889368 104.934135
-4.127249 -13.484534 111.756172
3.464450 9.530189 125.175270
-0.818311 -12.329606 103.980743
-1.966568 -4.599202 147.451965
2.252511 9.452950 130.149597
11.901615 -6.358555 115.398972
-13.911009 -4.919743 126.863136
11.736833 -7.552538 122.649658
0.579679 -8.563577 142.565063
9.515618 4.080564 151.603790
-11.933891 -5.066792 113.091949
8.567462 11.820919 101.863281
8.904119 -13.077172 130.844543
-8.180621 10.352560 151.478180
-12.908396 -3.232972 115.162308
-3.470024 -6.735697 89.107742
-7.696655 8.940186 128.335938
-9.567658 -2.313015 147.602692
13.668313 -10.034088 135.242371
-1.422666 -12.980712 135.155975
8.727142 -8.535126 111.639954
-3.115161 -12.989569 128.515823
3.043712 -12.475131 119.740738
-14.387299 -4.154566 133.432724
15.596553 -4.212852 106.234337
0.731825 -2.844603 145.545456
-14.251674 1.982937 135.053955
-3.933427 -10.615274 137.688141
-4.372632 -10.988182 138.234848
-6.609677 -10.166192 103.383469
15.602576 -1.478199 104.425331
-12.080078 -1.798106 146.499207
10.130378 -11.315840 129.247589
-5.882330 11.611302 99.172745
-2.128522 -7.989745 139.860291
10.034276 3.377751 121.474037
-9.457631 5.997165 120.317513
8.088363 7.100762 150.224945
12.510633 -7.197728 108.748390
16.861731 0.007343 104.005074
-7.176400 -9.188861 104.626480
-2.754888 -11.496997 132.097198
-1.264305 -11.960497 101.581985
14.914360 -5.978903 107.494225
-10.874796 -10.154190 119.186340
0.044763 -8.248266 142.823334
-5.418460 8.842187 123.248535
-0.101057 -13.229925 128.466782
-1.850477 -2.950541 148.922546
15.002011 -1.683279 108.368134
-12.908014 -4.956636 126.984650
0.648817 -12.325977 123.051476
4.263477 -11.914016 134.526901
13.744376 -9.071335 100.056175
13.051076 -3.284243 129.133926
11.605032 0.649658 120.175385
-12.939703 12.715359 143.494232
-2.715870 9.575525 149.729004
8.525538 -11.251261 139.260025
3.769333 6.809801 122.417992
-6.098547 6.302179 113.055099
7.447284 -9.022861 105.727875
-5.079330 11.599036 137.671753
-1.334202 -12.773561 109.720764
-12.389764 -7.953981 116.105217
9.507212 -11.707021 137.044128
-15.144081 0.285683 131.694260
-7.632274 10.076145 151.336349
4.898634 5.674120 116.927574
12.652684 -3.980522 126.317032
-8.936847 -3.315535 144.772980
-1.360199 -12.764678 108.674835
10.480045 -9.664502 107.298149
6.165833 -7.517375 93.298607
-8.600113 -9.006392 116.161148
-12.607512 -6.220854 119.495613
-3.417238 -12.971980 130.191437
12.899291 -10.711333 130.097641
6.818562 -3.977274 144.945999
8.981565 4.204170 111.776062
-5.430295 0.804887 154.453644
12.075093 -8.143195 109.692375
1.521562 -7.639215 143.610382
7.848928 11.483003 100.545784
14.073507 -6.805424 105.141708
3.744279 8.727780 109.160126
-0.094983 -10.716867 104.777260
12.014232 -6.979878 114.903160
-14.400351 0.352540 104.058235
-9.873406 -9.865734 110.531578
-13.648054 12.414753 146.795410
3.784984 -14.418405 133.839417
-9.371374 -9.151197 121.066193
-14.269024 -4.114237 108.356438
-7.496294 9.569418 149.546036
1.588255 -5.250634 89.177956
4.372342 -0.543697 152.378983
-6.462522 9.316630 127.048630
4.301337 -7.463695 91.108154
8.979400 -12.269352 129.630966
0.309316 -11.686385 105.621216
-13.470727 -9.266428 130.895798
2.315558 8.561218 125.167450
-4.175275 12.496142 139.913635
-10.510324 -11.418086 107.529602
-10.963091 -8.056525 114.138824
-5.866772 -0.079186 152.472092
-8.771157 -9.611613 105.167290
5.923041 -8.961131 139.817825
-0.338770 7.289394 107.905380
-14.147218 0.989415 110.210960
-5.665393 -11.113735 106.384834
-9.344481 3.285900 122.859314
-6.269893 -12.912243 135.912415
6.879483 -7.289326 91.329720
-5.226510 10.472230 103.622902
-5.732599 -0.164440 149.861115
-13.863198 6.084581 132.296539
7.579038 -8.459538 96.166588
-7.268229 -11.530615 113.700066
0.781850 12.508804 96.946869
0.618088 11.302183 157.044128
11.393449 0.246462 118.284691
12.644342 6.306988 105.987656
10.867508 -8.850592 118.430695
-3.442652 8.430923 110.221657
13.803535 -5.062779 139.617584
-9.124753 -9.846701 101.159157
7.713734 6.386271 128.367752
-6.833282 -11.659204 138.873032
4.910595 8.765059 108.228416
15.168110 2.964230 102.772232
0.396659 -11.247327 101.571175
13.672997 -5.943312 122.468239
-8.769635 7.083199 110.926003
5.829813 12.875051 137.687729
-14.660145 3.573275 102.951447
9.687424 -3.262575 154.842087
11.258052 -10.566868 102.561821
-16.538828 0.361237 101.257195
-14.220154 2.542304 133.405121
-4.774504 -7.087211 93.456787
-3.991382 6.235765 112.348236
-7.013118 7.011693 119.501099
13.610858 -4.836011 132.861938
-0.069854 -7.290819 91.223465
13.515100 2.867317 109.997116
-7.600518 10.375436 130.860245
-13.181581 -11.683949 132.057098
-10.069547 8.809172 132.796921
1.066772 -9.483010 93.605492
-8.575340 5.424411 111.206245
-14.053082 -4.487557 113.550018
-1.028873 -11.864811 103.107834
-15.042142 -4.034606 133.565811
3.231919 -5.902618 142.837372
13.291659 -1.552673 123.524788
6.613366 5.233873 152.735870
1.624896 -1.831771 150.225311
-13.850513 -5.425767 131.631134
-3.636419 -2.987128 151.376587
5.459094 9.652374 109.198128
11.628762 1.167827 120.871071
9.423365 12.388863 137.786758
15.699200 5.225548 132.428131
0.125363 -8.510210 142.000290
-10.265026 -10.200113 96.090935
-1.863772 7.489474 89.481293
0.269080 8.319505 108.113426
-14.229755 -8.215796 100.471985
-11.594706 4.148904 151.490494
-7.942577 -14.147892 132.648361
-5.536625 12.875230 146.646591
-1.515141 -12.081171 113.890350
-3.222654 9.779428 103.586357
-10.847498 9.195018 103.590141
3.518307 8.653559 157.553741
-7.253436 9.264810 129.024979
13.193494 -1.887387 135.817780
-6.557154 12.306233 145.892609
-10.701358 -9.110775 102.302429
-8.693583 -10.100921 119.203590
-12.042034 -6.361038 108.875298
8.231084 -1.364427 146.812790
4.920833 -12.672387 107.695824
-16.439211 -3.047041 106.308296
14.744575 -1.645561 132.259048
0.710783 12.102759 145.527374
7.393252 -10.003293 117.909340
1.207941 11.034931 135.132996
-1.146403 10.764606 134.546921
-1.165126 -11.907654 106.622162
13.413168 1.769534 132.257111
-12.708429 5.079643 102.679207
-12.664934 2.686276 110.765648
-5.344586 12.176067 145.196487
10.376664 -7.940494 114.081192
8.401371 -14.810070 131.919296
6.724505 -11.121147 105.276588
8.370321 -0.579751 132.667175
-1.963840 9.723959 150.271317
-5.970853 11.017445 101.252777
-0.468153 8.362254 124.798683
12.322245 -6.465478 121.405891
9.409986 -0.891764 149.322250
0.842492 12.321974 94.023315
-1.347205 8.419249 124.866478
-8.754581 9.117082 153.068604
8.101662 -11.409737 105.862709
-9.370343 -13.633317 131.730850
6.393752 -0.536793 152.294418
4.311252 -1.516559 148.292786
3.054973 -4.550041 147.526520
15.521767 -2.072252 109.701721
12.239056 3.150984 112.118958
12.024326 -4.623957 114.091606
-5.673452 0.596947 152.494019
-13.449232 -2.033905 124.758789
-12.539833 -3.059034 133.959229
-7.058605 -11.610186 124.471672
6.681691 9.127766 130.167755
2.397883 11.916042 143.001160
1.761485 -11.665318 111.730431
-14.708355 0.480627 109.161011
-6.931334 -13.293920 130.708664
-13.351210 2.588165 127.486153
-4.340201 8.012321 109.317299
14.357306 -0.645907 110.338600
-3.201056 11.176207 146.609161
7.105865 13.279373 136.665634
-9.633224 5.107948 117.740280
-0.552379 -11.523065 129.955872
3.020506 -13.249393 129.507538
0.517352 7.517223 154.729294
15.151327 -0.572892 100.027603
9.844204 5.222458 111.529594
-12.681581 5.513024 129.177536
11.799178 -7.841096 139.324783
-11.563754 11.052763 144.404388
3.440974 9.486440 156.324600
-10.722345 6.545616 125.945854
6.260136 -6.376725 143.760544
2.319642 13.554177 147.936096
-9.019260 -12.957334 128.363190
-1.373065 8.191516 92.390038
-11.191598 -8.909769 124.163567
-3.839445 12.201643 96.413063
6.681465 -11.007625 110.398232
-13.526490 -5.294930 127.571808
7.335489 6.028678 114.409172
3.419439 -12.426191 116.974899
-0.363818 13.042721 141.017975
4.128499 9.664415 128.356140
10.673137 11.312675 144.178833
-14.778375 0.599763 108.637276
-14.248497 -7.310841 125.300323
-4.965537 -12.608438 103.696709
10.386721 3.177182 124.362633
6.897898 -4.889765 144.635834
3.812115 7.047805 118.650497
13.715287 -10.728276 132.797485
10.426508 -8.591611 107.780144
-7.047638 7.848558 114.644051
8.208122 -11.562911 124.805695
-11.434421 -7.778768 139.319016
-13.243059 7.117484 130.655045
-4.076306 12.161983 97.653641
10.243618 3.650686 113.736702
-13.913189 -8.576486 103.750626
-2.175969 12.841914 94.539131
-0.948357 -13.702371 128.982117
-7.582474 12.310682 143.211594
12.837759 3.492949 107.506500
-9.116364 3.824975 121.654350
-1.704308 -5.043243 90.646828
8.259461 -10.210502 139.107803
-3.630036 9.873862 128.780472
7.541730 6.466663 119.686447
3.487377 9.663556 119.280258
1.371311 8.701217 110.768578
-9.597629 -9.933966 119.817299
-8.407162 4.894897 113.629784
-0.642296 -1.316946 88.169563
1.742936 -12.943971 123.784981
-15.507139 -5.439867 100.307442
-6.157856 11.602986 140.864883
-2.182642 10.176622 91.074768
0.462563 11.380398 148.232681
4.591980 10.223901 102.102997
5.025636 -6.104542 144.600677
7.249336 10.443087 99.898270
-2.160925 12.395091 140.708374
-2.243179 -13.621517 130.063385
15.993165 -2.840204 105.122971
-6.923562 -11.733293 120.546761
-3.584510 10.299256 133.479141
0.245184 7.915453 125.986671
10.166209 -10.221754 104.210686
8.707378 5.447174 151.438354
-6.174025 7.923455 112.869667
7.953460 11.355803 148.362289
1.993920 -10.056361 99.445557
-5.440852 11.567116 142.647812
-15.644879 2.838377 101.745079
-16.842892 2.133741 101.811440
-3.277386 -12.069971 107.023186
1.135196 9.192202 98.603195
0.177326 -13.356259 108.302101
9.004209 5.779862 111.056381
-3.291287 -8.293612 92.966721
-5.447522 -0.652550 149.527756
-0.587772 -1.828753 87.698311
1.204410 10.727859 151.174149
7.995377 12.854852 140.832321
-9.345508 5.731946 125.575943
-16.196722 -3.379987 134.163559
13.790112 -2.825607 127.766586
9.629326 9.586048 131.776138
-9.390668 6.177307 118.306992
-13.091843 -7.378464 104.273460
12.532263 10.887303 144.125702
3.996488 -14.275299 131.392303
-5.434540 2.899961 152.311813
