ply
format ascii 1.0
element vertex 2048
property float x
property float y
property float z
end_header
2.354517 -2.479429 150.733246
-15.091864 -1.030430 97.043976
-1.225121 -12.296339 81.521309
-22.867367 9.637149 137.558350
-0.595043 -10.784729 58.813980
-7.918318 8.107872 105.688469
-8.416667 4.714124 110.099701
-21.919447 1.067583 147.091568
14.746275 6.718626 98.733688
-18.483353 5.559860 133.958359
-6.772789 -9.254424 88.352570
-9.662716 3.739128 152.580566
-17.281292 10.978208 92.718445
21.302113 7.276807 145.423889
5.339237 15.349335 97.999352
20.395094 11.356352 144.607468
16.297779 8.293001 138.374771
5.739541 10.436055 152.708969
-22.231495 1.729154 146.366577
29.458567 2.787220 135.281250
-15.640490 -6.006654 129.080917
-0.880878 -8.496055 73.004440
22.931263 3.282004 132.144836
2.419471 10.146515 75.672653
-14.101751 0.351230 146.951706
-9.681222 -8.305761 59.968487
-16.124163 7.964952 65.473076
-12.393162 -2.395746 112.458412
-4.377022 8.637613 59.591160
-1.720391 7.917135 117.118927
-5.091982 11.641764 139.662277
11.090689 -9.120419 117.162308
26.658619 -1.044872 129.142197
12.771852 9.200104 77.582611
-22.270002 9.247066 136.525375
-14.654559 -0.358274 107.310265
3.258202 -7.578413 144.667984
-8.041751 -10.430223 78.055618
-9.852946 6.110712 107.905685
-0.173244 -10.737718 115.678940
17.460070 1.335292 99.751717
0.965056 5.192798 116.379951
-8.840542 -12.160206 76.666115
-14.606221 3.900544 130.086227
-18.087975 1.427136 137.638397
-11.570541 -6.286226 118.579529
19.249718 6.117039 71.483803
16.659594 1.577959 137.849686
13.553784 -5.989944 111.095779
-3.084555 -11.511368 120.884499
8.460042 10.999734 68.346367
15.574894 -2.678229 145.999191
16.907143 6.246408 77.334709
-8.285342 -2.069912 149.709030
-12.163634 9.573895 97.607582
30.276451 3.986644 133.933563
18.826988 2.545141 89.638237
-17.118753 3.647408 150.741348
-14.817631 -10.964058 97.957054
21.353628 1.599361 76.355438
13.383042 8.979324 84.306419
-10.027242 11.032674 150.579208
-9.396152 -8.135868 92.662781
6.871496 11.044259 62.744640
-11.449157 -8.684336 60.176144
-20.729671 1.868394 146.069733
20.074306 3.215787 87.248901
-13.016447 -2.102201 121.747787
-15.263976 -6.277889 108.760902
11.067556 13.818628 136.940155
9.356133 11.613209 97.816322
-13.431627 12.380750 145.157288
-22.170826 0.253051 64.822388
-5.195324 -14.099694 110.737518
-21.951424 -2.437829 82.276581
16.897808 -0.797567 94.751305
-9.302484 -10.074977 79.095978
-10.311018 12.034204 101.310364
-16.978067 4.453513 66.265678
0.096804 5.338326 118.140022
19.575026 -5.403595 76.686508
14.803914 7.343580 85.626480
16.158323 -3.336758 134.993774
26.115507 2.049606 140.404221
-7.736069 11.123693 141.018555
17.258844 1.953912 97.990860
-32.596706 8.369205 127.613121
-18.752163 2.326801 137.521957
19.225590 -3.204684 86.348846
-15.845376 -7.659735 97.662674
23.866444 0.691424 142.190491
-15.706687 1.932216 132.452744
-31.903364 2.365225 129.618805
-4.122461 -11.047740 119.812889
11.795062 7.342431 110.615219
-32.546738 5.709487 131.350693
-9.835925 2.899033 151.059357
23.182739 8.476748 130.912247
15.517825 8.467132 93.071114
19.706644 -0.427008 65.306114
-10.590727 -11.658356 132.700241
17.796238 -0.268767 146.797226
-3.116548 -8.997931 143.833435
12.358769 8.443670 137.296677
-21.214766 0.589154 64.032188
-16.083437 8.783550 69.745934
11.821790 10.145704 65.030655
-15.286328 9.652883 93.539101
-4.608446 -1.116920 151.333191
-3.564985 9.660301 147.126007
-12.648075 8.277899 153.145584
-6.184810 9.895901 127.295219
21.542833 4.165086 151.386673
-20.975397 -1.527102 68.292007
-3.407552 -8.902969 74.967155
-10.973742 3.341822 112.354324
-0.716183 9.608078 73.927208
-15.244638 9.474133 83.045486
-9.918041 10.693027 135.248535
-2.080556 -10.669212 73.216766
-10.705605 7.300979 81.643219
-13.924047 -5.419237 139.572403
7.703173 -10.891397 73.261978
18.828611 -4.394642 65.599083
0.310673 -12.756671 121.121002
13.237404 -5.961529 114.793213
-15.510462 -6.571056 131.365677
-16.143202 8.086066 135.795532
15.350941 -0.925941 145.938889
-12.489575 3.722963 109.628403
6.499163 13.154295 146.299622
3.301672 12.021839 147.789032
12.981801 -2.738386 114.642883
-0.458117 -12.054445 126.157913
15.173390 8.917360 99.241371
0.179180 -9.063321 78.401443
2.921656 -6.528820 145.164246
-28.125191 8.483083 130.507462
14.631973 -5.014426 117.416084
-14.744513 6.485102 104.702385
-1.839251 -9.433708 101.089745
13.046127 7.037722 73.628441
-14.891358 5.146204 92.979485
-3.764496 -10.668653 87.706451
-5.039801 7.241908 113.386681
-22.353897 -1.016405 60.291218
-1.466546 -7.898552 144.099060
-9.871996 -7.590332 105.036407
17.936684 -8.058625 60.626865
-18.627701 4.014260 98.976624
-1.600733 -8.240130 66.607361
-5.514806 0.761040 155.286133
10.097220 7.140649 152.754669
0.557635 12.133546 151.001785
-14.074800 -3.816746 138.426025
15.044355 -0.563807 105.002975
23.197767 1.335827 140.915237
20.344942 8.092546 140.950104
-2.411176 8.870932 86.277412
1.826561 -13.647711 103.943291
-6.112660 -12.783348 122.290398
-17.471296 -8.015640 98.445869
-8.506495 -13.223357 111.395294
-14.506519 -0.509709 108.316437
3.769794 10.636948 157.241516
-7.107168 13.298437 90.299194
-16.816259 -6.338221 81.593056
-6.261483 3.082575 155.667908
22.709677 3.199690 141.494278
10.884281 -9.167305 89.611656
-17.472816 -2.705525 135.437271
9.488812 -9.540931 71.445328
12.626810 -16.729536 130.247467
-0.994503 7.247858 70.940620
-18.162743 2.093125 85.061073
10.682796 -9.731759 105.084183
2.012210 -12.179865 110.400070
-18.151407 -0.042335 80.289131
-3.210572 10.343368 93.881454
-9.281832 12.096517 90.620399
6.375662 10.519849 134.918320
7.427837 12.895439 89.886536
-2.207391 -12.184326 121.934097
-17.801561 -8.641203 77.960770
-17.222542 2.546966 139.739578
-0.973617 11.256421 93.687881
12.361310 -11.342283 64.837120
9.536514 -8.485298 63.080833
32.560040 4.864727 121.680374
-9.424612 6.408478 80.481873
-15.323131 1.953381 130.364380
1.797722 -15.059799 134.510849
12.726318 -8.831528 80.055542
-5.251573 -2.405935 147.003616
12.029247 1.218009 123.395660
26.450804 5.281250 135.039001
11.420844 -3.933480 144.278076
-4.847640 10.162253 82.967140
-11.045912 9.512444 98.427048
18.831842 -0.780289 149.737137
-12.858604 -4.107381 140.138260
10.942052 -8.757113 141.030579
-6.958955 -9.314557 138.611115
-7.703448 7.443002 122.520401
-34.817043 2.932068 129.499695
-12.977533 7.666448 152.471909
-15.781816 1.589649 101.799385
-11.235766 13.058086 145.947845
-4.154600 6.182697 60.511761
20.813011 0.116378 60.346542
-3.848651 10.677781 145.428497
19.557055 -5.091122 60.216431
12.075315 -4.144392 117.281960
-9.040381 -9.260678 124.851730
3.842934 13.982617 94.735443
-4.512186 9.197541 130.553635
12.510475 -7.086851 102.385193
19.468744 4.388044 87.017929
2.405004 -3.469874 147.603180
3.519513 -12.416471 92.850945
4.103345 11.466556 128.419495
-6.640852 12.493896 135.667404
-20.753778 2.299228 73.030968
33.704994 3.080917 131.572296
-3.483701 7.719192 113.346733
14.652740 7.886616 149.709641
-11.240162 -13.387401 135.360962
2.920135 3.907290 114.014511
21.945864 -2.837024 67.534164
0.316011 -9.594049 60.386936
21.126558 1.490593 133.213226
15.978983 -1.783860 134.900131
-34.364658 3.679548 128.553223
-13.288477 -7.417537 129.234955
-15.143408 8.199970 75.298615
20.270498 -4.552141 59.966038
-0.837958 12.531832 96.782906
-1.316995 -9.802240 73.252563
24.126959 2.470277 128.791245
-9.864862 8.865389 65.918671
-9.325050 -11.693032 90.295723
-19.724533 -6.395318 63.232445
17.939650 -2.326920 85.366966
-0.138212 -7.774157 78.671257
-32.625881 8.633635 131.614334
-21.082230 0.800634 145.537018
0.042820 9.499100 128.807922
5.716390 11.182272 104.831703
7.074124 -10.673371 89.648018
-12.264528 5.182555 116.174301
-7.406209 -9.178690 69.427902
-10.702835 -12.237777 61.786594
-24.289158 7.148688 137.038544
-28.109131 4.894544 126.758461
-17.209038 -5.661209 92.600754
-13.867261 -9.244849 59.445370
20.746124 -0.355226 65.000008
6.715411 9.179156 155.516205
6.335433 10.648030 102.528450
-20.491047 4.127711 64.253433
16.277988 0.231218 133.513489
11.516123 -8.555407 119.327293
-7.935701 7.252224 66.645241
8.709509 4.343832 116.933174
12.004399 -1.238068 143.339478
-27.245356 4.988219 137.461441
-18.291126 -7.140859 78.141937
-2.817459 -10.157770 63.575981
-25.578442 12.783033 131.868820
1.445995 11.696795 100.955772
14.031878 5.257233 127.321167
-22.187170 0.988946 89.734596
6.538502 -8.331672 73.442940
-24.905209 7.095327 127.052490
-5.164865 -9.747943 61.583263
4.724192 -9.723048 81.397568
-29.241240 0.597934 126.102974
17.278028 -8.077872 79.644638
8.648785 8.844500 78.922134
30.089285 5.301867 133.695114
-18.917973 6.113114 148.287567
-9.040887 -9.687877 116.150368
11.437901 11.178099 80.339783
13.073102 -3.372773 126.328224
16.994606 11.083340 148.997787
-1.171593 -8.709351 87.963173
-13.278384 -7.969271 134.186035
15.344847 8.807247 90.988617
-12.397449 4.174570 124.508537
-14.385386 9.785799 91.357559
-1.259140 -12.959846 79.276695
8.648451 8.770406 80.426208
-9.952110 -9.091811 62.176285
-11.210852 5.629839 150.935516
16.532885 -0.537262 139.372055
6.405965 10.787578 152.590668
9.614211 11.506164 131.862579
8.261268 12.209105 142.442444
-33.557686 1.989146 127.930283
-10.793184 4.404914 124.130432
-12.373512 5.760755 73.568489
16.421762 -3.662211 98.363838
-3.848107 11.543081 154.399902
-15.694807 -7.758243 59.923477
-10.253984 11.609099 145.929138
8.341209 -8.988384 81.075195
-5.025475 4.285723 122.828178
12.653090 -8.547078 137.469391
-3.014000 7.794021 108.215675
-23.741287 7.282549 137.154984
7.616162 10.180224 131.081589
-11.066525 -9.628054 65.126991
-9.133492 11.574690 149.982849
-1.487961 -10.486256 127.609238
-12.961370 7.677737 132.137451
4.520111 11.647723 88.119171
16.063660 8.227851 151.606766
20.464184 -1.386124 86.669250
-15.321078 -3.963016 91.636742
-17.320549 -7.389634 79.529831
16.338564 8.219898 149.971710
15.983775 6.408525 151.129288
-21.663912 -3.353052 59.526535
19.347021 11.851695 141.497589
15.097504 -9.910683 78.010040
-23.763510 -0.549093 143.287979
13.894711 -1.928079 143.700943
-16.915892 6.224675 78.509247
-1.160925 -4.543582 146.553131
14.282616 -6.822991 133.560638
-14.662990 5.069870 106.139725
16.352562 -4.175121 102.019302
-5.670706 -10.798014 98.713501
14.710788 6.980419 151.628922
6.766945 -9.746563 116.275230
13.037771 5.668540 149.618759
-17.265221 -7.210823 88.461136
0.788950 11.527774 87.059776
7.053227 -13.174217 124.074661
5.194688 4.043576 113.505524
11.431063 -9.026131 92.302132
-11.928109 8.121104 66.264221
12.401021 -8.061964 60.918098
35.172089 5.433658 128.510483
-35.648796 2.631064 130.391113
4.597094 -2.454921 154.269882
1.577986 8.429410 82.295433
-1.149753 7.853671 120.766457
29.883230 3.548684 136.240341
4.478178 -12.714603 127.673561
-21.742018 7.363955 140.149490
-16.567005 7.074632 91.941063
-1.131108 10.274118 91.630821
-2.970584 -10.742643 85.627548
12.427299 -10.818805 130.771484
20.256905 3.281892 68.695015
11.743902 -8.419706 90.594841
-3.701863 9.229477 106.885597
4.579937 10.702604 81.016632
-18.592047 0.013012 92.076630
-28.695894 5.659878 122.662796
-6.105187 7.740920 60.493179
-9.854192 2.582298 123.803581
-5.892165 8.739316 61.953033
-18.680882 3.379344 75.922668
-7.924417 7.309434 109.675545
-10.260280 7.061132 84.554405
-0.818644 5.567411 112.227615
-16.358734 7.269077 139.561310
-8.922307 12.955517 147.846283
-8.820223 7.179766 79.700035
-29.877306 3.900735 134.043365
-18.573191 -5.710280 88.108955
-12.402214 -9.922480 77.825775
-0.526945 8.641123 61.046753
-7.485749 9.753578 65.111214
4.203933 13.211589 138.402390
-6.754650 7.082454 81.314194
-15.589424 3.192305 150.121735
20.161549 1.047909 68.347855
2.328695 -11.377111 101.541710
20.062946 4.670931 147.955093
7.015189 7.861464 66.599953
7.725313 -11.914214 137.941025
6.064419 -14.803107 123.252357
-1.546099 12.802588 76.519714
1.911294 12.515252 132.067383
5.312069 -10.986122 137.116013
-6.337669 14.760532 98.264000
7.200492 10.809814 59.520912
28.479956 4.767774 137.115417
25.459068 10.987592 135.697617
31.541376 2.373009 132.809006
-3.241848 -10.422135 99.060158
15.855514 1.243755 98.164093
17.886566 -8.265116 65.924164
-11.298957 -8.287137 125.607590
17.573040 7.917688 147.173706
8.783545 11.309421 152.781433
3.934935 -11.475835 88.996391
-15.122588 9.566835 84.380562
-21.763004 8.497337 144.761307
5.019259 7.570672 64.500496
13.066746 5.547428 151.771378
4.070783 -12.613094 81.211853
-3.280289 0.583730 153.568390
-0.105175 13.142172 134.346924
-8.270232 2.506828 114.334435
13.780630 -3.023926 122.288559
12.634719 -9.012258 135.266129
4.705064 -10.945731 121.475639
-1.513103 4.985889 160.112076
21.327858 4.973517 71.697144
-8.671296 11.921066 144.020920
-8.218626 3.032500 152.552704
3.356727 9.060041 75.729118
2.226477 -10.866921 120.996132
-14.717956 7.513028 62.167049
17.159121 5.812118 90.455284
6.526626 -11.147370 80.003166
20.503853 -3.359189 74.566551
1.385296 6.776951 126.244499
-10.610852 12.492056 141.185623
16.468462 -3.047201 130.550491
6.061279 10.815518 68.921043
20.137737 2.501117 63.659058
-18.216042 3.497014 88.029938
4.233637 -10.807350 102.411491
-12.973593 10.339578 73.201378
12.662276 -1.802923 113.843086
9.654951 -8.878235 136.665070
-21.358130 -2.943731 85.450050
13.331611 10.349663 150.431366
14.180647 -9.875668 96.028603
18.727116 8.468008 71.292122
18.618082 2.836271 138.060410
-20.312151 4.560222 66.818497
-14.831662 -12.501207 106.418900
-15.529500 -1.371904 105.205536
-13.710400 -7.020038 106.760025
-6.076292 -14.300200 129.335068
-22.312281 -1.288137 78.826920
12.889750 -2.793367 125.931511
8.869731 -10.009990 90.742775
-25.240454 4.564370 126.290207
9.054893 13.820803 142.576141
-34.062786 5.483285 129.296341
6.893642 12.106821 100.095512
16.540054 -7.948735 90.300156
-2.334079 13.935801 146.324432
-13.673859 7.021036 153.377823
10.977369 10.360872 100.087013
3.278614 13.139786 87.176865
-5.760323 -14.127640 125.035835
12.174062 -6.220221 143.341095
0.768272 10.197988 82.972916
-19.649651 3.299498 136.016220
-0.903748 -6.685472 139.326553
5.989630 -7.507147 88.468994
-9.655761 -3.253967 144.734146
5.441907 -10.637998 67.987778
-9.675052 11.482424 149.348557
5.495314 -12.999133 118.636414
-8.781105 -4.329120 141.404312
-14.564060 -9.528409 97.726791
1.078918 -8.070579 77.849663
-6.368678 -13.632097 128.393082
7.519906 -9.420609 135.082184
-5.951282 11.972289 81.292740
15.544527 8.193060 150.477600
12.752338 -11.204567 60.124798
-13.139710 8.528821 101.175194
-9.298368 -10.140176 137.032150
26.313181 7.774880 133.159027
-6.729916 12.932322 138.409714
14.534571 7.181043 95.533806
-7.560777 10.078515 131.145432
4.180212 11.848157 139.920883
35.827625 8.597653 125.422592
14.405945 -2.276666 144.573196
13.292151 10.685000 87.146408
2.757102 11.026193 100.562965
16.483412 10.261242 60.765652
20.716364 0.554536 68.533470
9.457695 -11.930790 105.201378
-29.958803 1.599018 125.196434
21.512234 4.823789 146.947495
-14.769197 2.081492 136.694672
-14.768756 7.941465 74.496490
-6.852370 -9.188835 66.874146
-13.371693 -4.208876 139.657181
11.653436 -9.459645 91.766647
-11.489945 -9.729287 123.326561
12.632381 -2.487226 129.312256
-6.299919 -10.807070 82.952980
1.532353 -10.614939 124.750458
21.346111 6.344939 133.028198
5.829085 -5.381723 144.977982
16.855045 5.724231 150.016373
-6.156688 8.737124 69.496658
-1.462932 11.946365 137.132675
-26.003399 2.083131 134.061142
-25.897774 8.254473 126.568520
2.608741 -13.817280 129.731461
0.774828 7.421436 125.418495
18.332830 4.434779 131.923447
9.257503 -5.056586 141.947525
-5.234404 2.038319 153.214554
16.462843 2.581099 138.690735
25.523212 1.778524 129.819016
19.687538 3.385751 63.050873
10.231636 4.915995 126.600548
-11.163589 -10.276168 127.509270
-5.736130 12.582573 95.153336
-29.090160 2.060541 134.002151
-4.082752 8.962808 130.840363
-14.294797 0.709141 141.842346
22.436209 -6.676538 65.980568
-7.526151 -1.034186 150.953369
0.247493 4.621555 109.761139
-13.521727 -10.737449 73.607742
-6.726333 8.077044 124.284569
-0.183976 -10.742759 123.782265
16.015194 8.594960 93.517952
-6.470282 6.669739 109.821960
-2.064030 -8.592594 69.006470
10.244633 8.250333 77.416550
-18.418243 5.678191 58.855053
-11.476059 -10.216591 97.465462
3.156955 -11.834737 71.209503
5.267433 -12.285491 140.207794
-0.967177 7.685928 107.993805
4.791687 9.708698 103.028847
2.488452 -12.753345 117.051971
12.208366 10.764174 136.861481
-15.724972 5.502928 137.480179
21.091982 3.256869 147.138351
15.993621 -0.327123 100.207558
14.901638 10.684855 148.056625
1.153823 -8.609269 67.558624
-19.240368 -6.941115 75.179771
-2.070991 7.281291 118.058060
-2.555686 -13.863929 108.643433
-9.911928 -11.010784 75.996330
20.847475 -4.797008 61.912025
-11.009939 -7.423461 140.766296
-25.359106 7.508831 139.831802
-15.452132 8.653615 72.282173
-7.877251 5.199060 154.496078
17.466364 -6.467134 87.164062
23.946186 7.731393 127.429893
10.626298 -11.340849 122.751793
-4.951426 12.125655 99.255363
-10.718128 3.759579 113.134903
-6.543974 -10.123659 73.851318
-12.530457 -8.248826 53.539711
-11.751264 -11.150191 93.761345
-14.450415 -7.691339 100.593071
-16.011990 3.181491 95.668907
-21.847820 7.686364 131.897797
3.896327 12.922148 138.319962
9.508008 5.929475 59.530991
5.962066 -11.794984 119.099602
11.179877 -9.740571 104.626030
13.268950 -1.996336 135.859131
30.649797 -2.103096 128.423233
12.531929 6.173887 102.849785
-5.084152 8.280081 112.448502
-12.509992 10.336894 85.745049
-1.911551 7.857396 63.821747
-6.366364 -11.396692 126.623779
12.901721 -9.611885 105.950378
21.253796 3.531743 64.668274
15.440345 -2.889858 102.318901
5.146361 8.549991 115.773972
-2.594057 11.508255 146.379227
13.503164 -4.066746 110.659050
-17.886768 1.701074 137.426437
-4.461574 -4.954709 145.779312
-18.624212 4.935192 66.467064
-21.129028 8.694195 128.575928
12.410057 -5.561592 140.275848
-6.780520 8.793193 67.658943
1.141712 -12.190578 113.125954
11.115595 -5.432755 141.300156
7.444071 12.692497 135.335846
5.416626 9.793423 63.149460
-4.026341 -12.749312 122.457001
-13.657978 -4.529432 125.367653
17.134048 -0.541649 99.655693
11.945268 -6.890330 117.176300
-14.831367 7.966361 71.537560
20.865995 -6.345494 91.715569
-12.094980 2.792843 152.103622
-4.762413 -11.595130 87.085625
-22.282576 7.597842 130.122269
11.396224 -9.152800 67.806938
-4.381060 7.783897 111.777496
35.926613 5.364668 131.198837
-34.128727 6.932261 127.725227
-1.311472 12.526962 143.660751
-25.140482 7.245650 125.999519
-3.659474 10.930802 147.831482
-26.100307 1.713020 128.780487
7.586852 -13.971190 132.041290
20.520628 4.907880 78.686195
-13.377947 0.909895 123.284676
-13.624680 12.296625 142.115341
4.244888 -10.741120 57.938141
18.184746 -4.622543 98.697845
-20.506035 11.653009 138.414902
-10.998557 1.978196 115.755257
-5.343692 -2.877201 147.063110
9.231559 -2.835846 146.235199
19.954956 -0.832845 81.742226
9.871645 -10.443969 69.323700
24.617380 5.535800 130.038239
-10.276950 -9.052679 91.748070
5.652566 12.237120 145.453888
3.674441 7.670467 78.038475
8.603662 -12.124189 102.255440
17.788839 3.751102 83.431389
-5.594996 12.582708 144.646713
16.164450 -6.072284 77.137878
-12.292837 -6.835680 127.984329
7.851362 9.548263 75.400200
3.964434 13.230664 93.721321
8.731609 14.322392 139.174423
7.802807 -7.972371 61.942390
-0.533276 13.398352 91.689644
-19.412663 4.987982 135.030960
0.566797 10.250714 141.849777
15.677051 -6.705924 97.826057
0.729529 -8.938001 54.176567
1.842406 11.735795 91.269684
-8.494421 -12.641229 131.573624
-12.369394 -6.559545 94.815704
-12.201720 -7.094061 109.840118
8.664458 -7.739369 82.639053
6.133526 9.019569 153.466522
5.395679 9.586497 82.614952
14.669633 -8.622323 79.287666
-21.851818 -0.634478 59.318649
-8.678461 -8.687301 100.764000
-4.726601 -12.399738 115.340607
17.201279 -5.690893 76.370415
5.489639 9.338255 62.762516
-6.967434 -11.175715 105.173775
-18.036652 6.256063 80.072525
-3.512578 12.512924 132.145264
-14.983323 7.466284 71.699501
-0.265158 7.660100 69.507629
17.971712 5.149549 74.425888
-20.330332 0.807580 60.136230
7.603449 -7.581502 113.195412
9.540110 12.331054 144.805649
-11.798458 8.132827 136.286087
12.360381 9.531847 81.039764
-14.899573 -3.792588 106.833740
-6.633207 8.999181 60.569569
18.204002 -0.680906 67.095901
-29.030514 5.318714 124.273445
-5.342193 -15.287530 132.379089
8.986629 -12.450544 131.222275
19.073868 10.463341 68.866058
10.921868 -9.511408 65.988045
-23.104460 5.276208 128.750305
-14.153259 -0.620129 125.132309
-7.074556 -14.212214 128.673218
19.847065 -3.391586 63.360447
-13.398396 -11.317608 77.771896
-2.449498 14.571416 142.074966
-12.795668 11.110680 89.325150
-18.179436 1.104307 147.880844
-14.171864 -10.654303 129.420425
-10.163061 -8.728055 71.900116
-7.421966 -9.974268 71.107346
-21.885511 -5.293646 69.722450
-3.095883 9.547830 102.311455
15.085613 -6.249436 98.771980
-8.409223 -8.992591 92.980942
28.316343 1.397344 132.806747
0.593843 -9.472185 78.683205
7.470475 8.534597 102.801170
-13.621773 9.940842 66.245796
-11.765360 -6.587343 129.460571
-23.790668 1.095717 56.687466
20.673080 -8.174517 76.738068
-32.835991 3.828779 129.734329
-27.700047 0.600310 132.332336
-22.746130 0.089959 133.247879
18.267395 4.727735 67.598625
-34.382645 11.217890 128.570343
-9.454407 -9.220449 90.493271
-27.860464 8.936776 135.721451
-17.614182 -6.057683 90.680145
-8.298954 2.834224 115.673820
19.091749 -2.208803 83.999077
-13.026973 7.945790 83.577339
13.937119 11.637998 139.420929
-35.032337 1.615499 127.989067
20.198311 1.186280 63.109955
4.039488 8.823540 66.452652
27.079533 -0.199131 131.957764
-29.701611 7.404111 123.151985
19.743259 4.687644 62.732426
16.465691 -1.504763 124.713402
26.628592 7.881447 129.818161
-9.822372 12.197629 92.485283
16.485601 0.977978 149.176285
-16.509699 1.440467 88.742836
-15.800134 7.684980 68.259720
12.388774 -4.634238 143.504105
-14.435480 -9.772141 92.280525
-8.943107 -8.117241 80.487808
14.877133 0.215262 104.806694
13.002746 -8.053871 123.276398
-36.034771 6.078025 126.087639
-24.406570 0.121360 138.047714
-14.986135 -10.910256 70.438087
15.897180 -7.672313 84.128296
21.041687 2.195030 66.249870
3.210244 -13.213074 133.474808
20.580881 -0.830426 139.603165
17.988634 10.059794 89.900978
-13.256433 -1.702055 151.964050
4.275593 -10.038265 67.423607
-18.087038 2.747389 140.282959
-11.380190 7.215892 83.594658
-19.506405 4.941796 61.887337
13.061914 -0.507394 120.110733
-9.918693 -10.664369 132.827057
-17.591022 -7.177614 58.047146
-12.641243 -2.257126 127.374176
19.228380 7.429000 79.146133
14.502999 5.412260 100.719444
20.025253 -0.714669 91.038666
-15.679844 4.834654 137.261002
4.309604 10.759751 100.697517
8.335824 -8.958780 67.655106
-15.938449 -7.941595 59.154076
-21.471573 -7.166999 64.263596
-20.223337 -5.767950 64.408340
-7.187337 7.483305 155.541946
5.748570 -2.439703 148.846573
-6.937664 -9.283160 88.251503
-14.960712 -5.417671 133.129684
-5.159179 -10.772321 75.005249
-14.731068 -6.510601 119.954453
4.446716 -7.766954 73.355797
-15.740090 -7.933935 96.348328
0.685433 -11.307768 138.693329
-12.638134 7.516836 62.241219
-13.102738 -1.277779 105.189476
6.963594 -10.490068 138.406708
-8.833489 -14.161511 129.276657
7.859647 -8.777903 97.469727
-18.229555 -2.653887 101.832344
19.411860 0.827406 93.765251
15.072320 3.982511 105.426559
19.147907 -1.780936 69.999771
19.602131 -4.363677 82.849388
15.583008 7.712718 62.510693
-4.906190 -7.592867 92.348877
17.961464 3.566392 141.202332
-21.109837 6.036283 147.432343
4.967572 16.184298 143.926590
-12.553252 -9.042828 92.328339
-25.736298 -0.133887 141.873398
11.138041 -7.528725 107.700897
8.760408 -14.836796 135.446381
1.780993 7.055632 118.352371
20.211708 -4.759721 91.380379
5.001465 7.683264 111.160156
-4.802955 -10.268345 74.561363
4.641365 -9.428250 68.754936
13.939973 6.620908 72.958237
2.597163 -8.934735 98.896553
22.693378 2.312981 143.166824
-5.140728 -10.500285 113.728294
5.400435 13.432651 148.128662
-13.189233 9.210808 133.386200
-2.319995 7.692026 70.749603
31.082697 6.191200 132.058334
-14.492338 -10.321641 90.753105
-8.675968 5.199195 153.573013
-9.456004 13.648681 138.849777
9.375404 -9.507859 120.481720
0.624809 -10.083977 138.283356
3.756972 -12.495934 136.388870
8.652430 -4.740241 143.388046
7.804586 -12.037111 125.328773
-21.497204 7.908704 129.423157
5.250409 -12.775868 113.096252
-5.034839 -0.025829 152.532806
12.131562 4.923859 111.427910
-22.726942 2.196071 144.202118
-14.135829 -7.501431 129.909653
-14.771639 7.176221 146.425156
-22.532415 -2.621470 80.139847
-24.419037 3.337431 132.549774
-5.992530 -10.791018 112.392349
12.610008 9.683096 72.584335
15.151960 -1.525824 134.365555
-18.969917 -5.605604 94.725754
-20.494326 0.659059 88.156601
-7.180663 4.008568 119.236809
-12.031632 -12.098908 83.680359
12.556376 -7.258820 115.545998
32.622688 2.593198 127.770744
5.467679 -9.315112 118.890900
-13.523691 8.074141 82.822975
0.726831 7.720790 107.990265
21.074091 -6.273903 71.356880
-10.798385 -0.064008 150.312866
17.615967 8.882853 70.530441
25.676311 7.994176 136.384750
-16.131550 -3.841936 71.245438
21.815285 -0.906271 69.956741
-2.683857 -8.156371 73.378128
-9.599102 -10.369849 98.493324
-17.416800 1.253483 147.567795
2.238801 -2.341646 148.717773
7.257428 -8.364947 114.118179
-10.586475 -10.516664 117.767197
13.639376 -12.083315 130.941681
-3.584352 9.094226 100.572655
19.165157 -2.387190 89.167770
11.535174 -11.225687 134.946594
-16.702284 -9.105084 132.715317
18.068777 5.810696 87.669731
-4.418965 -10.386374 124.733505
6.525747 -12.077026 123.729912
-10.010710 13.533955 140.852295
-9.701487 2.983841 152.790939
9.685128 8.527493 132.136826
7.028647 3.264190 120.339760
3.980079 -9.082887 98.092667
9.296494 4.460215 129.264328
-19.443214 3.821741 85.294006
31.881136 11.928191 119.111710
3.313919 -10.125240 95.162102
12.654992 2.042068 126.707199
9.687278 -6.536541 118.038971
1.028484 13.956354 148.111816
22.161180 -0.821538 70.957245
10.068029 11.665750 101.135056
16.371729 4.028338 137.585403
-2.908545 9.613853 142.879135
1.190137 -8.397539 71.547318
21.094780 -4.586590 66.898048
20.398066 0.170519 136.218338
14.195693 -10.898528 93.301826
8.351184 -10.388738 101.007416
12.017538 -13.299669 130.642899
-17.985699 -8.719967 84.877029
3.416388 4.810472 118.369087
12.520975 11.979950 130.468796
6.502375 7.733787 104.490692
15.347575 9.084475 88.209427
11.738812 3.640555 115.674583
-9.896753 7.931017 70.043556
10.412388 -4.520981 141.974503
-8.972793 11.697733 135.831345
-7.905121 8.727563 110.028931
-18.912418 -1.063818 89.337257
9.922894 10.596483 86.836342
-13.494409 0.333850 126.661018
17.684689 6.582092 65.437660
18.542597 8.790509 146.200714
11.450392 7.460131 58.017887
-0.467394 8.830964 63.592140
5.763538 0.493309 153.967514
9.413020 9.901650 147.662857
-5.045539 14.538697 95.683647
9.728593 -11.088613 94.387299
11.942487 6.543985 124.740654
-19.843067 8.017496 91.480156
7.146135 8.572366 60.080112
6.762065 8.551072 67.851273
10.823491 9.927122 100.096962
-24.849337 2.487207 140.547699
17.709827 6.609815 89.824104
18.339077 -7.077712 51.508553
-22.866869 -2.021046 58.495564
6.062360 9.343224 86.991615
12.787069 -1.278892 106.860451
2.718479 -12.066386 107.542679
-19.897423 -6.802142 64.152336
19.405203 4.500121 61.250183
-23.055592 0.628914 139.655167
14.532708 -8.508935 67.481728
3.376911 9.961894 111.920761
-5.722571 7.946458 74.445808
17.944918 5.255550 135.958191
19.403645 10.885572 132.495636
12.729507 -3.814476 115.904793
6.481890 2.192726 154.984924
-4.572534 13.657830 140.496506
31.255846 5.270380 121.544838
-6.550235 10.401165 55.686447
16.755131 5.657236 89.980751
21.698471 4.818508 130.443710
-22.418041 -2.449239 84.216568
-3.784168 -13.241743 117.347015
-16.284388 -6.253301 97.546036
-10.127868 -3.929800 143.651993
-9.506597 11.539109 145.970032
15.323755 -0.035373 148.952133
-6.495498 6.716808 157.048538
6.309620 -8.797823 72.151978
6.941200 11.784436 84.924034
23.147913 1.233564 141.158112
-9.281898 7.304172 70.242523
1.036251 -10.374245 89.061569
-18.129234 4.423160 136.478043
-12.917881 5.054610 128.554947
-12.734764 10.351192 78.277466
18.318283 -2.442711 99.774529
-1.218266 8.859294 65.376282
10.506807 1.927542 122.802032
-17.158615 6.066691 135.565811
20.240728 4.467426 80.911545
23.118252 0.851682 56.811703
10.519917 -0.985588 147.079971
-22.408566 10.580997 145.251328
19.514408 6.507504 143.773239
-25.866079 4.327319 130.360962
10.410420 -7.759619 108.069527
-12.369069 11.206778 92.991013
-10.477326 10.722604 131.922821
2.246764 13.006758 94.714195
-17.436197 9.644339 145.837845
-18.849689 -6.153923 76.781212
-13.140182 9.031433 136.729675
-3.564001 12.255524 75.494011
5.860436 -11.593299 128.715240
18.481407 -0.693772 93.017639
-5.711500 -9.944201 92.298767
-8.445681 9.159795 60.894333
-8.165624 -10.959111 62.543556
-17.609959 4.722370 139.306015
11.880550 -6.782578 83.643486
-14.893609 -7.174081 82.623962
16.433004 7.633187 82.255554
-21.808308 -0.743886 65.611305
8.129787 5.210571 121.074547
-2.660578 -9.359220 142.363297
11.321119 -5.676698 140.884155
-13.131056 -8.104492 93.709305
-5.410791 -11.921238 62.918736
8.610779 -14.435266 136.397003
13.325972 8.903858 66.037697
13.797319 7.437141 57.487343
-4.156425 7.792938 123.341537
-6.997232 0.784357 152.630341
-13.168728 -8.292340 57.653744
16.507456 -6.122505 57.131569
-1.904477 14.237053 94.941833
-11.335432 -4.959198 145.696503
-33.135624 8.039067 129.586166
1.223505 -0.849594 152.686920
16.199425 -5.460900 94.766457
-33.375549 8.851796 126.855156
-0.207850 -9.690389 137.371979
-11.438447 7.851225 77.162117
-10.780216 8.796269 82.974281
8.917726 -8.345490 56.862328
9.827836 7.377666 126.808975
-21.437790 -1.290387 59.269550
15.524519 0.596859 140.024612
1.331326 -10.681288 86.324745
8.365901 8.526817 108.400681
-15.195094 5.307825 97.171898
-16.487169 -4.909981 107.241745
30.526203 0.786255 129.954391
-10.548312 9.712435 142.430038
5.382169 8.901254 121.808083
-5.276283 14.189534 154.827866
20.637829 2.454035 58.068993
-13.355950 -5.646848 138.957748
-3.274981 3.780895 155.344025
-6.390832 12.484583 151.611572
36.700813 9.173521 123.006401
-0.795088 9.677685 58.861012
21.367037 -6.622110 76.610199
-6.217342 10.670664 86.107048
17.496078 1.743616 72.938026
-18.919033 -5.803003 96.624939
12.587037 11.389514 138.176483
14.750760 -8.545254 87.152000
-19.833897 1.817901 144.705994
9.058731 12.131571 86.832802
-20.357252 0.357211 141.018448
-34.889442 0.032236 126.640800
-8.067121 10.380841 68.952217
12.264125 10.254829 73.417274
-11.964730 -5.214170 117.072235
11.615214 -7.506966 115.990387
-12.604716 9.942917 80.474617
6.613427 14.565885 97.273788
-0.455438 -1.912962 146.859329
7.741867 1.332342 150.615967
-13.538129 2.716808 105.062492
-0.940430 10.901547 85.246170
5.773418 13.276793 142.693359
-25.880745 6.428498 143.284164
-5.467192 9.718230 68.337784
5.391710 -11.452153 65.546677
7.801289 -7.014964 69.509247
7.237471 2.121513 154.327881
21.876986 0.594558 134.089951
4.395730 -2.412721 148.447266
-27.151876 6.790992 123.809799
8.072123 -11.066823 60.030365
-0.772904 -11.689777 121.427994
-18.981979 6.704350 85.031639
-11.282993 5.084631 113.295456
-34.178120 -0.296527 126.500969
5.902547 -13.724429 127.136078
-1.030618 9.804922 142.155777
-0.794484 11.640835 143.882080
-12.125471 6.857708 128.826248
19.075863 -8.412556 59.951511
-15.055705 6.358122 152.679672
18.479427 12.432507 145.526062
-11.656147 1.053651 147.059845
5.725575 7.440128 114.262985
6.930478 -13.318455 129.570175
-7.524752 -6.217803 143.590271
12.551408 -9.268324 66.395546
-10.611127 8.830543 129.408371
30.840847 0.056014 123.251167
6.179711 11.513805 102.349365
1.803886 -11.448668 125.041237
15.363035 -7.608688 79.674423
21.735531 -0.600910 59.531677
-18.946955 7.323905 139.374603
4.754282 -8.870756 117.898796
1.409760 -14.003933 120.534470
7.497863 6.510249 105.172874
11.002176 9.996467 70.700943
-9.172788 6.038757 122.523842
-13.299289 -7.708794 56.330860
-8.117003 3.829493 151.145599
-17.000154 -3.855662 100.942429
22.631924 6.216900 131.303452
12.593311 0.553357 150.632965
-16.608797 -8.882833 79.126755
-22.360607 -7.284808 71.869576
20.611549 7.644639 137.674973
-16.935822 6.908553 59.202080
10.957552 11.471318 137.056244
9.250411 -11.141419 115.036278
5.981415 10.942648 81.981956
19.532524 -9.337018 63.370529
-0.332611 -11.439378 59.773029
-0.875605 12.600281 86.527794
-18.741867 -0.018373 147.100388
5.320472 -10.689823 108.514954
-17.837425 -7.150916 74.321861
-18.892673 3.834437 87.385727
8.178879 -9.538510 87.357918
-5.125098 2.837497 113.559067
-8.555234 -8.993155 91.721863
-5.438957 -8.392008 103.565338
19.418804 -0.182471 93.477173
3.246932 -7.833797 103.282616
13.773907 10.179224 150.037170
-13.289400 -10.129991 82.808464
16.533337 10.267335 144.302429
9.811251 7.445618 79.601677
-8.470737 0.652176 150.510956
-1.676730 9.840813 70.689499
-16.518702 5.961989 94.060120
-20.176979 -0.768028 135.494095
2.852633 -9.421651 59.618240
5.505140 -10.869201 111.607864
12.660353 1.347128 135.340546
-12.661565 -1.470132 115.174957
16.369307 6.600826 65.764542
7.346589 -5.872993 141.002502
18.893667 0.079373 91.482338
19.401846 -6.150674 66.439293
-7.726343 -9.492869 69.536682
-14.974542 -3.005229 135.892899
-13.124597 4.412467 107.657867
-11.582603 1.046030 116.087517
-1.680132 -9.971137 95.774918
-11.523263 9.132865 73.396034
-16.078558 7.167757 85.321747
-3.621763 -11.300424 123.066666
-5.311603 2.064399 152.067108
-0.871595 4.207266 80.012016
-1.930558 8.829599 101.818634
3.152403 11.150186 148.952225
-1.832174 -0.720018 150.216919
13.269153 -1.570023 109.957649
-10.691760 10.426769 65.645096
-0.758343 8.772944 80.868172
20.046829 0.513481 141.070099
-8.093619 -11.344057 137.090378
26.820835 8.139631 135.343079
14.118318 9.758565 67.051987
-20.104534 4.845273 69.374489
-20.145996 -1.691393 79.592812
-5.205621 13.667355 139.005005
-22.169085 -1.363684 145.403000
1.477688 -10.088694 80.551781
16.901186 1.229245 140.227432
20.399548 -0.107051 87.487175
-17.977095 1.893748 142.350769
11.452562 9.717185 82.332909
22.344715 -2.856107 73.575195
39.034737 5.766071 128.911118
12.122977 -9.250625 76.676453
-9.005342 4.554581 112.502777
26.140083 6.012422 125.041924
14.513500 2.127693 129.509521
0.921241 5.638122 117.565193
9.549178 7.282910 63.097008
15.064667 -9.050666 79.892769
-3.464050 -11.063440 122.449631
5.297023 -11.177018 112.953384
16.031225 -4.504691 97.391518
-18.898794 -6.430565 79.714035
2.964143 7.678710 67.218132
-1.587138 10.284167 136.498581
-25.746973 6.248268 132.100708
16.416786 2.882607 106.025040
-29.818274 1.554324 128.158646
-0.745835 15.425302 96.194077
-6.987982 12.201101 100.554398
-14.016865 -4.067008 125.289246
-1.417844 -10.258182 73.563599
-6.760502 9.051213 58.863434
9.816843 -10.008257 138.882965
-10.371570 10.486427 152.280090
-3.694781 12.027262 104.006699
-7.653551 10.452029 147.519928
-20.732353 5.253318 147.130783
-12.140988 -2.345615 145.323807
-5.539738 -10.554969 63.064732
15.423059 8.880198 58.097202
-6.998507 9.435089 75.332603
11.840582 -10.343186 104.669388
13.723923 -9.873905 138.657608
-15.237625 5.676028 138.248886
-25.338169 8.385850 138.579315
-11.406482 8.786942 91.734703
-16.086496 6.886742 98.367950
-10.194342 -0.746287 118.887451
-19.565634 -4.630790 80.450775
2.830072 -13.581161 121.822487
12.102096 -2.519663 121.654114
-1.109861 -11.574325 126.396683
20.154472 0.156745 67.079239
-1.840174 -3.371746 144.072327
11.375247 -11.821522 72.338341
16.841267 1.114740 109.403580
5.250193 -10.277459 70.634560
15.663844 6.025025 92.438904
29.295258 2.851619 129.733627
0.297059 9.467060 64.064896
9.364847 7.740273 58.807594
32.198597 0.630629 123.494087
11.531796 -13.392086 49.608887
-18.801130 3.042188 78.154861
-16.089220 3.860857 151.859146
-2.191719 -11.043378 79.902611
-17.572672 -2.457726 99.573822
26.965952 5.291754 123.976761
16.598097 1.916539 107.075699
-10.848828 -9.762454 63.390057
-6.153304 2.432418 152.834152
-5.353611 7.704389 159.093674
-12.326570 -8.719954 109.799690
9.123818 -9.958249 85.015060
8.126789 12.529984 87.155647
-8.512619 -9.445750 105.118042
20.475557 -1.232585 81.591263
-2.307348 13.014015 91.294930
9.558053 -10.426053 110.778618
12.965961 9.129099 94.204575
30.256893 1.469320 130.119827
-2.966733 7.954606 59.938435
-18.085272 6.073846 58.211140
18.028336 6.409867 146.210846
1.935207 -12.913948 105.699089
5.176059 4.995721 122.282501
-29.000063 1.326310 125.740067
33.774506 5.998744 123.895607
13.258997 10.743458 62.806820
-5.420566 -10.074841 67.013283
-2.400205 11.470007 89.744530
-10.945883 5.317782 111.292000
-13.937848 1.109006 111.377319
12.433561 -11.233032 123.485458
38.293076 2.972653 126.707870
16.517204 -9.054403 81.369827
2.689343 10.758800 70.875946
-12.217456 -0.254469 141.285797
-16.746040 3.781554 136.829819
-16.245943 -9.049441 98.411987
-2.643608 14.871455 138.764801
19.294174 -0.591462 139.976181
17.931681 7.156360 137.079269
-8.227677 -8.607776 88.839272
10.493632 4.268744 110.079170
1.769181 -10.588236 64.801231
-14.762644 -7.396221 92.387215
-3.782264 7.372141 125.905708
21.435776 -4.846107 77.120659
17.958036 8.039011 137.024765
-18.303532 4.273298 138.029068
-0.709187 7.943623 63.359184
19.628412 4.969267 80.201569
11.571499 -1.243791 112.333748
11.039702 -10.957478 99.763382
8.450180 -8.220803 65.042992
-4.052063 8.896693 66.830055
-7.465100 -11.733401 137.946243
26.948792 2.224168 125.253120
11.949207 5.545785 125.153397
20.594837 -0.733002 80.257759
6.593112 -9.388134 82.764191
2.225254 -9.200767 67.621368
-23.880033 9.617058 143.031479
10.900861 11.823881 69.811745
-33.007439 0.886715 129.680344
-0.250907 11.092991 134.615448
17.490007 3.587234 135.451294
24.011665 -6.549628 55.576603
-10.954389 -5.827759 108.411453
1.504288 -2.478106 147.438171
5.901562 12.212123 84.736588
-13.021197 -4.209234 126.194984
1.570623 -12.992929 67.172256
-17.288925 -6.161748 60.129715
21.594179 3.594960 62.734028
-27.825514 9.197181 126.661232
21.497707 -3.096541 61.186089
28.584154 9.043155 138.356277
1.845358 14.265635 138.116730
3.116260 -9.244266 57.839584
-11.836085 -8.760959 71.232521
-6.680975 -12.101562 126.303246
5.322408 13.287171 90.103493
-26.984604 4.726372 134.905609
-12.499065 -10.888626 112.064560
-1.532258 9.050225 114.456215
20.642628 0.746920 79.629654
-12.542733 -7.258580 128.908203
5.074275 -9.106592 98.065392
-11.203856 -9.192997 100.961151
20.623936 -2.995983 82.994095
-11.799095 3.988987 108.642960
-2.075160 11.505873 95.190865
-19.265572 12.211477 138.537735
-8.979812 3.231797 106.111557
-3.571200 -8.248542 87.007385
-7.421834 12.468113 97.135918
12.600308 -9.658545 70.821129
12.866038 -7.638131 111.708618
32.531399 0.950365 129.268616
-12.819592 0.844111 137.732864
-31.383511 11.236133 125.369019
1.515985 9.783414 83.872665
-22.413841 -0.782018 66.555984
23.754429 2.820120 134.157089
-20.816143 -0.637091 76.766335
19.098080 1.701659 84.098503
1.616882 -11.524586 114.908180
17.446844 -7.781525 76.739197
15.769290 7.517811 59.548080
3.330827 -10.986631 93.331367
1.414585 -4.358776 142.137024
-10.825523 11.238371 156.428238
19.344616 7.069914 85.577179
-11.352264 -9.814583 83.306465
16.399343 -9.440590 74.594025
12.469408 8.824821 95.127655
12.251525 8.801881 82.852386
8.041937 7.591980 152.825485
4.716710 10.261289 85.875229
-30.294693 1.655452 132.518967
-5.725024 -12.833905 128.666458
6.272819 -13.177633 121.978775
-3.972981 -11.395130 114.900940
-35.766064 7.544351 127.700188
14.141931 -5.191306 128.640533
-6.556301 7.618598 123.681473
12.246703 7.717890 77.090591
-4.133664 -12.372714 67.939529
-12.192659 -1.072668 115.173882
10.315392 8.425962 61.701565
-17.988678 3.380989 136.000961
3.201754 9.176119 61.487766
-9.482202 4.871225 152.129868
-10.130711 1.874284 119.985611
10.188981 -9.269723 124.685471
8.457552 -9.001021 71.213425
-4.708847 -10.957939 136.968002
-11.545573 1.227033 122.726219
-28.740414 8.324867 126.419312
12.030439 10.547813 150.054581
-14.394203 7.062314 149.681015
-10.487193 -9.117181 111.058090
1.806851 12.346889 137.396347
-13.542180 10.533566 93.296028
-18.772781 11.418952 136.352615
13.682938 -9.234396 72.573166
32.396179 7.046415 124.356979
-2.191068 -10.946185 88.863808
-8.032907 10.389036 103.312393
26.131601 -0.139583 129.922928
-21.015320 0.296796 72.314705
-10.608785 7.114979 74.217636
25.856457 7.242917 139.701721
11.193753 0.264971 115.592346
11.003706 9.363111 79.968941
12.709831 -2.601546 141.754242
-1.202137 -13.026007 108.245811
16.000790 4.238017 104.320038
18.658773 4.630040 94.074234
6.019342 8.447840 113.743729
-13.747289 -7.692248 105.353676
20.703329 -0.927023 58.228161
15.172212 7.751598 100.528862
-19.782406 0.750102 145.762146
10.318800 -8.846617 80.948982
8.943598 7.750853 123.875023
-13.781238 -3.508920 142.094864
-0.751762 11.637273 147.859940
19.678507 2.234283 66.047028
-21.025286 -2.090469 67.358513
-26.684313 -0.731896 131.580307
22.562536 3.419106 58.242432
-2.174951 10.155198 74.886627
10.316030 10.109893 72.422241
-13.462094 -9.129601 82.707352
15.923635 7.102674 71.888824
-1.131815 -14.606404 127.470894
6.725261 -11.652700 71.839256
15.277433 -1.218168 144.602661
-12.884874 -1.773042 133.777588
-10.676728 5.172099 122.270996
-27.862631 6.657360 137.837860
24.143528 0.133167 130.999817
-5.860325 13.346129 90.951073
-17.376001 -8.094592 74.293449
12.550577 9.779270 145.890930
33.896378 1.745400 122.481758
20.860668 -3.273784 89.969093
0.833760 9.457369 85.000336
-23.060266 -4.399234 71.201637
-0.629947 -8.935476 123.955872
5.525113 7.299675 104.888664
22.575386 1.667300 143.286835
-22.407118 -2.852803 85.754585
-3.305305 -7.014721 79.076591
-31.599243 1.168020 127.943283
14.410537 5.152273 80.234444
-15.799473 -6.478939 55.367069
-6.781440 12.049687 89.951187
-21.200951 -4.444785 85.022598
-11.812021 -0.029721 149.587692
15.929644 7.315822 69.590355
-6.050148 -2.015792 148.786774
4.849587 6.227455 110.322098
2.981588 13.661037 136.360626
11.578079 9.047752 65.298584
-11.529963 11.610293 138.281555
-19.964563 5.061276 149.530640
-14.012754 -0.725596 132.898636
-8.751807 8.599267 153.189407
-1.379415 -9.313177 63.273293
4.464238 -5.880805 143.530685
1.675362 -11.698979 111.754082
20.055387 0.187936 79.297035
14.176430 7.463295 88.942329
-27.679213 2.847789 131.132217
-6.849442 -7.956961 91.395050
15.194479 -6.616916 110.092514
21.646158 -0.638433 87.746834
-6.819777 5.714500 121.463425
33.921951 8.692813 128.987274
22.456560 -8.936290 76.868744
-13.065368 -10.568705 70.116760
-7.065535 -12.160499 137.625092
0.813711 5.415419 123.444992
-7.367389 14.499592 147.086456
22.236792 8.848545 132.012497
22.119379 8.879274 142.797913
14.101053 -2.535540 117.048737
-11.538968 7.003773 83.216087
18.743040 -7.777009 73.424072
7.359205 9.363814 87.887527
25.103733 1.428374 139.173294
-7.414042 14.710133 139.984131
-12.423100 -10.579139 64.621994
6.510886 -9.713220 81.273254
-25.775719 2.208385 140.617874
-4.176197 -7.412064 55.837528
-18.828310 3.328590 91.883987
0.510267 -5.524466 143.161407
-12.943592 10.152911 62.519505
-35.739353 3.963703 130.614670
3.735882 -12.466187 124.040550
-2.688714 12.166412 93.978264
22.428778 4.748063 127.742531
28.646189 6.064042 123.349419
-8.120341 7.973631 78.293320
14.033667 1.636078 134.836273
16.080837 -1.212726 103.091957
-8.916043 7.664743 150.939209
-4.957740 -13.207622 101.810066
-10.049962 -10.336753 70.202751
11.874730 10.473886 58.098827
-9.539309 12.159199 78.994568
-9.833530 1.245203 151.569504
-19.337814 0.747810 142.194870
18.787024 0.571751 144.413498
-13.058796 -10.630261 84.991013
19.172758 2.696976 71.953217
-3.149847 -10.742646 60.963043
6.042223 8.373530 132.270630
-8.809072 -8.193427 101.149956
-5.376675 -11.260818 136.279770
25.033596 -0.809074 134.371994
-2.205315 14.336631 96.423515
-16.057167 5.021142 99.218613
-5.367433 12.932001 89.756630
13.292244 1.530234 111.405724
26.239527 -1.055267 131.860626
-14.783313 8.386885 149.017044
-7.743055 -6.831467 143.035980
-6.084474 11.274855 85.290924
4.274515 -12.098974 137.482437
-2.736530 -12.192112 107.438866
22.078262 -4.446487 69.927849
-2.648372 -11.544844 135.447556
27.860870 7.921845 135.181610
4.311260 6.611678 109.768417
11.202579 -4.802538 113.661026
6.209620 12.704365 148.996353
1.312443 9.245111 81.486664
-13.695164 1.627703 134.047836
14.642413 -10.508914 81.178230
7.280149 5.475336 118.670937
7.843778 8.562551 103.864822
0.863650 10.129148 82.085739
19.602484 -1.006559 59.343788
-5.654256 11.312713 101.867386
-19.562725 -4.473066 84.152206
4.256453 7.753048 111.993202
10.903374 -12.939940 129.156784
-8.580223 -11.828962 138.309891
-11.290465 -12.224370 131.241699
2.263573 -9.272204 86.896706
-1.376156 14.505028 154.164444
-14.035163 -3.494121 107.522118
-3.618970 -9.702264 140.881851
-12.177120 11.867673 94.717827
-16.401539 9.683790 83.725876
1.398315 10.813517 146.413559
29.465734 6.033358 122.127739
-12.778057 -6.061902 139.434097
19.701490 -1.273587 142.690964
15.445449 10.499632 140.445633
11.355061 -11.572991 90.094978
-4.297585 5.805743 106.972076
13.562186 -3.160949 126.229439
-30.486315 9.637944 132.648315
-15.639570 5.260414 150.619308
-30.590691 3.736789 133.394058
5.226049 -9.529415 118.047783
-10.835189 -8.986042 59.984188
4.083606 -8.983047 141.233963
14.328176 -0.646743 107.192421
-7.887846 -9.755450 97.784302
-3.298250 8.042874 61.399452
0.197775 8.964255 76.801628
-7.255873 10.485976 83.264404
24.076012 3.887731 144.030106
-15.753820 -6.694417 128.956070
2.367352 -7.638744 65.759995
-16.019609 2.338408 137.225769
-3.816231 8.307832 109.064110
8.893882 -12.259003 93.179375
-26.086462 4.118477 123.674522
4.351265 8.123496 79.360802
-4.030914 13.487782 133.864243
2.247687 12.563882 71.535439
-9.135056 -10.050640 72.535378
-2.384890 8.791482 69.572411
-18.634151 1.794858 149.160339
-2.900395 -3.136506 148.915680
-8.523780 -11.363540 107.770447
11.118645 2.763362 110.245476
-4.037445 -0.271530 150.690277
-4.509604 8.329777 63.217670
25.728596 2.883894 126.134224
11.275294 -10.258998 79.927116
0.785739 0.074366 157.050354
20.381369 2.651473 90.642502
-16.160416 -4.208149 104.505592
4.445921 -11.878793 119.980118
15.023573 -8.094366 83.788651
-35.093792 3.515916 130.206619
-19.673378 7.928187 57.710793
7.234695 8.638138 132.298065
-3.063057 -1.855953 150.460724
2.889958 9.769180 67.717880
-11.839739 -5.282435 120.454376
-4.278093 -8.521052 66.554092
-8.607140 -9.685364 75.027657
-17.511393 -8.781384 78.730019
19.012217 -5.744842 93.812744
5.623704 9.536888 65.024811
-14.987926 0.496028 141.635071
-18.744232 1.982940 88.113052
-13.045078 1.571510 112.587555
18.441814 6.093926 73.038101
14.277484 1.916563 102.836296
-15.634581 4.705287 105.274712
-1.140068 -11.824789 141.139786
20.995106 3.024486 69.188789
-14.160559 10.529245 140.064819
22.990690 2.265919 130.770142
4.515429 7.795255 101.479935
-20.746698 0.434853 138.852417
13.994206 -4.289455 135.168671
0.098343 8.424857 63.016880
0.148298 -9.704542 112.763725
19.643873 -4.173316 73.165527
9.545457 9.985456 131.479309
-17.971491 -0.228918 147.348373
-10.903998 -11.870497 129.904175
-15.194296 -6.635121 96.444443
-23.617992 8.419370 136.420822
-1.185006 11.801583 88.897499
10.206343 2.720660 125.249496
-12.730855 -2.853243 125.461250
-3.241402 -9.076998 75.969826
-1.708666 9.097408 83.704269
5.993561 7.360678 115.570000
-21.930126 -2.700073 66.789307
21.060152 -1.699439 70.945969
-14.917780 -1.359842 126.494598
18.870737 -7.115847 62.432156
-16.372290 -8.009359 74.188202
9.687024 8.245098 85.290222
8.060029 10.931597 82.010910
6.137768 -8.990414 85.237228
19.281609 2.494040 65.094681
13.448998 9.359679 140.234589
-3.729378 -10.051111 80.568947
-32.754856 7.929293 130.209549
7.398247 -14.377719 134.359085
16.354801 -5.011468 95.934624
-5.341558 8.262717 58.120007
7.162205 -5.829549 141.431015
13.126161 -8.499682 65.889282
13.862391 9.317287 85.538078
6.809628 11.975678 98.576935
13.331410 -1.616388 138.284378
26.948013 1.777061 140.458755
7.236144 8.186618 152.685791
22.395176 0.853806 82.253761
-14.438912 -3.378571 111.281441
6.284021 12.239342 91.188660
32.982605 4.597914 129.041611
4.627318 -1.170674 151.655441
5.166792 -12.726691 127.154106
3.078266 -5.923680 141.964172
-2.155474 10.165973 67.278564
12.448417 -8.786431 123.504631
0.282470 10.166467 138.714859
12.473629 -5.266229 111.452164
12.194598 12.447368 94.945457
6.128752 12.361917 142.416306
7.636845 -6.357940 141.602997
-10.526941 -11.228891 83.120918
14.456327 -10.857582 103.409576
-10.469036 -7.676044 94.221497
-2.721377 12.289351 141.643616
22.458111 -0.737813 136.249878
-9.162026 6.826371 124.943665
-2.178834 9.217810 81.761482
-0.488569 -13.615031 111.330284
1.461886 7.670031 110.155067
-0.831089 8.280855 128.978638
-1.949653 12.674441 139.780792
5.364130 10.509852 63.012489
-9.077581 -8.456835 70.511093
17.989624 8.911124 89.501831
10.288921 11.206137 131.539230
3.481054 -8.833215 70.515617
-2.119542 5.331226 115.879883
-12.480546 -6.459142 121.803452
-23.881849 6.941327 130.776230
8.823028 -10.073017 111.524994
13.054447 2.056556 116.819115
19.384912 5.854464 62.528408
-10.504708 8.455795 151.183167
10.192195 8.441121 67.211739
-9.398172 -10.910708 100.442329
4.322961 11.125963 59.801338
0.292692 -14.162643 129.465286
-4.693264 6.439718 78.360443
-13.715834 7.892707 82.514626
-11.868134 5.667585 115.129333
13.226866 -2.743038 152.106415
15.238544 -7.247261 135.847870
16.915234 -2.315510 95.231018
-20.315674 1.677415 60.974140
22.407877 10.960958 139.972641
16.959202 -5.745702 85.395729
-21.660997 -3.071260 55.746712
13.238160 2.331304 137.785629
-14.934822 -7.319850 98.881485
33.337006 0.525647 127.773384
-18.016508 11.921766 139.062469
-10.799709 10.214277 138.306915
15.592951 8.170405 144.146973
16.008999 -3.367432 100.157692
-20.310625 4.295780 150.065689
-1.563735 9.562251 78.269127
-0.782733 -5.161410 145.596283
-26.227842 -0.603148 129.921600
23.475061 1.510420 133.625732
6.524302 11.097982 131.924850
23.093771 -1.186672 137.585922
10.804848 10.419835 143.441986
17.387798 0.186158 60.253685
-20.250660 5.995496 78.097885
-16.572863 -4.831823 102.387680
31.024029 2.898557 128.065735
31.371817 0.860650 131.070160
10.836157 -11.070392 129.397842
-19.266060 8.166553 60.732277
15.541990 5.129793 139.194992
38.000256 5.599146 127.460999
-12.913513 11.192454 79.143906
-13.211450 -7.679801 121.071152
-7.826210 6.464542 128.675690
-24.037943 10.497165 141.059219
5.458955 9.230106 100.869331
9.302418 13.145853 101.034317
-18.412155 7.117310 66.234390
-7.568920 -10.389817 97.208412
-11.627973 9.712704 138.731659
-9.497454 -9.486911 123.505325
4.053007 -14.734262 129.268600
-32.641788 5.783794 133.295212
-11.902135 -3.709100 119.795555
3.018728 -10.370718 89.584312
20.910374 3.005704 147.951736
-11.202273 3.469676 125.790321
-20.636681 5.192518 147.486893
-13.615223 -6.749901 108.677345
18.690304 1.192749 150.682724
-19.917896 10.160209 145.682007
10.459616 7.687123 106.040848
-13.584903 -6.115194 136.835114
1.069047 -12.624657 122.958519
17.682899 -7.286406 65.455910
9.317472 8.263535 59.362045
-10.175474 9.194798 73.515472
17.510456 5.274932 150.552048
-8.531116 7.381961 104.641182
20.482624 -0.214658 69.599632
1.882804 4.709100 117.967377
34.159950 7.513978 120.104294
15.889898 -2.549500 96.126106
2.374991 -13.565805 104.071915
15.840210 -9.610216 70.419106
19.853661 -9.384233 89.135651
-13.194482 10.665429 78.898460
7.231030 9.658874 65.850273
15.537343 -5.918659 106.674431
-9.612648 -11.847928 129.009613
33.061317 5.664391 125.783546
17.426407 -7.088943 81.667717
16.174309 -2.896230 101.973030
-11.429754 12.337213 144.012161
-10.609199 4.878337 127.407051
-21.254393 -1.311674 71.171936
18.848862 5.226105 71.821426
10.557170 12.632309 145.478287
-28.215368 8.586959 127.539108
-4.334089 -9.129330 63.328941
21.413260 -0.749759 71.244270
-12.219053 5.516396 111.121346
-10.168033 11.721102 134.954041
11.135193 11.350766 91.220940
25.126032 8.490131 130.747131
-15.052207 -3.429076 106.307373
4.765626 5.065176 119.125999
-4.583763 10.275162 131.302567
10.313766 12.888756 140.884354
-4.870431 9.870904 154.521805
16.708855 -6.859752 104.022774
-14.781858 3.996212 127.427391
7.574617 7.176168 121.758011
-7.689373 -11.802056 96.065262
-5.274954 3.443016 122.449089
-17.226542 5.522501 98.785988
26.489201 2.707410 135.231384
-5.321644 -10.829327 95.733803
21.078058 3.524263 81.213814
-8.941467 -8.692278 75.521553
-3.126998 -11.693517 102.459129
-10.974128 -9.925785 85.047318
0.330396 -9.972655 75.702690
-1.046480 13.320970 88.965569
-15.887123 -2.698592 143.495163
15.498823 7.399987 61.251480
15.690593 4.846420 101.276665
1.006020 4.137785 115.159988
11.895248 7.680083 131.665115
4.597694 -7.101833 93.499725
-3.022566 11.959929 134.593674
20.403080 1.686980 90.643494
12.896545 9.517752 97.659576
-21.794706 1.753549 145.499008
2.422131 -10.192711 119.963249
-0.876418 7.064924 74.003181
-19.981750 0.515779 140.265305
-19.609049 -2.251172 92.176857
-12.779545 6.834875 152.236755
18.039942 5.502631 76.037651
-30.600161 -1.289348 124.924049
-7.734925 12.035513 102.017776
-7.701711 -4.612713 142.455978
14.251589 2.120270 148.237930
-1.325260 -10.744238 128.298111
-6.316206 10.087328 98.960594
16.744722 -8.122055 71.735176
10.930967 -9.112533 90.661484
20.938614 6.890173 135.032166
15.841579 6.895319 60.760090
13.343613 -14.079432 136.180466
15.093412 -10.126331 91.554802
16.769609 1.363616 95.698807
1.256780 7.925183 72.621017
8.442449 10.294497 65.707512
19.797901 -5.122551 78.721169
-4.765410 -13.477602 134.325104
-18.759912 2.926916 136.025040
1.488009 -6.268219 143.936615
5.800896 0.118170 146.736832
-12.059288 2.422101 127.789703
6.929933 4.753428 116.650635
-15.990765 2.615561 134.321167
-12.575935 9.842560 143.588593
-6.158523 -12.855804 125.558456
4.724340 6.084037 110.776497
4.098493 -10.448878 95.447289
-17.297455 2.799599 146.621811
36.590420 2.407660 127.042061
20.300886 -5.374776 70.342445
5.012945 -10.708387 81.604797
20.812382 -9.234331 63.080494
18.152933 3.948996 135.266754
10.802583 -12.345805 83.417938
-24.946377 2.662800 137.314651
-15.464576 3.448486 101.598083
4.318136 12.746157 150.359802
19.778048 -2.983933 94.797371
-3.573213 12.206350 143.352036
-16.247749 5.593368 138.129028
10.784575 -6.481028 57.822311
7.772605 10.795070 142.225861
9.409871 11.972761 94.211205
22.146358 7.809575 134.744934
8.278749 -4.644928 147.808792
-14.849331 0.195154 100.666847
22.856731 0.126748 134.486267
-11.604811 8.676249 102.549034
9.510074 -9.129478 98.433472
-12.779013 -10.577310 89.073288
-5.304976 -9.466291 100.514717
-5.012370 12.407845 100.214615
14.507413 9.947564 89.437943
-18.627995 -5.526505 76.332977
-14.884719 9.261388 91.673431
-11.777272 -2.526262 122.178505
10.922055 -5.131828 142.163956
3.942833 -13.022478 98.063484
15.029599 9.138031 74.966217
-11.183989 -9.206152 125.515945
-11.993857 10.935680 133.347900
-4.638281 -11.243494 117.624016
12.627509 -9.375048 88.239281
-14.483990 10.906052 77.479477
-20.030289 -0.348296 60.878502
-4.721154 8.108158 121.734451
2.675341 -9.219869 139.717041
9.302440 3.468434 119.487114
-5.930627 4.684828 155.304611
16.975719 -8.975716 62.479424
-16.230516 -6.645771 107.621590
32.830158 0.824272 123.778481
-14.581237 2.856784 153.178085
14.881636 -0.654413 102.919540
13.154138 -6.265162 115.367920
-5.042583 -10.300838 81.557335
-14.975867 -5.470158 132.731079
-1.746323 -7.890900 147.412079
6.985622 -8.317465 61.683613
1.763224 -9.810130 112.071701
-5.052974 -8.333426 139.034073
-4.800060 5.912081 112.416634
-11.857819 1.472339 127.416176
-16.040569 -4.078108 103.201279
-10.926823 5.146817 110.026100
-21.000227 -1.973767 88.801521
-1.803848 9.506669 88.265396
12.082163 -10.005142 64.073898
-10.073181 -11.150656 121.150558
20.786854 -2.331259 141.907120
18.375805 1.331438 103.236122
-17.940016 -9.033430 66.313187
-3.033150 -11.895482 90.329987
-18.729309 6.300070 132.720413
-11.071146 9.568258 149.906235
13.137022 8.737290 70.404175
-5.132502 9.770494 70.970360
11.403942 9.268801 79.579582
5.443913 6.133982 114.334366
-20.843956 9.782718 137.247437
-1.155754 -12.579570 91.946922
-7.161841 -10.070163 75.191284
-22.695837 3.254257 129.737686
-10.793824 8.480850 107.333466
-15.233065 5.407245 105.290657
-23.361217 -8.346807 60.164982
21.233047 -3.284715 70.538315
8.146012 -2.017608 152.667465
-14.783751 9.890807 144.027908
24.257681 -2.666939 59.075356
-11.566924 -6.615096 126.457977
17.528631 7.356992 64.381805
6.735815 -10.031005 73.359154
7.115888 11.089193 102.391388
14.022384 11.449782 145.999054
19.194508 -5.780790 85.608299
-19.522179 -9.166428 68.603333
-3.394887 5.483547 120.730392
6.006640 4.466225 66.514732
22.060844 1.786801 133.237244
-10.453165 10.646879 136.699783
-16.453373 -7.859716 86.347786
-1.863383 -11.878386 96.758209
9.290383 -8.516451 78.323845
7.526652 -10.105907 63.274376
10.151493 -4.999976 143.019409
3.487785 -10.411627 90.813210
-15.352425 -8.395262 100.829292
17.635027 -7.182047 67.570450
-18.895658 8.798433 138.702560
-2.051589 12.197974 145.684113
-13.508159 10.012193 150.989120
14.482873 -12.380032 72.539459
15.757411 1.250881 141.151169
10.041207 7.267824 129.931946
3.334637 12.910918 146.084061
12.598541 4.474136 132.175079
-3.892530 13.395142 95.617195
-23.101286 8.018929 137.544403
14.621245 7.551140 76.407677
-4.952394 -10.568178 104.355919
0.199880 6.458218 75.944099
-12.950380 -6.361073 117.906082
-3.162884 -10.238374 89.381332
5.423276 7.114685 78.894943
-18.236725 -4.031585 104.740005
-1.535279 11.363359 131.239532
22.333733 1.739973 143.302521
16.302538 -1.418604 143.919052
-28.469393 4.061777 137.432510
15.135742 -9.741548 79.304581
-22.380138 1.766621 142.287918
0.519143 7.457810 127.579033
8.404028 -8.906771 76.205704
-21.924572 1.540909 136.252655
-8.056856 -10.375962 77.870895
15.876679 -6.093636 135.525726
0.300591 11.674395 59.099483
13.096472 -6.345512 113.472702
-13.235764 -0.615805 126.634323
37.686222 -0.588371 122.653976
-10.963986 -6.991329 129.544922
-18.196543 -4.618747 79.007294
2.609817 12.566435 146.470718
2.848069 10.593893 77.330383
11.269261 -11.029416 96.000443
15.910435 3.757281 126.828735
-8.414488 -8.286654 67.106438
10.598356 -9.982195 125.518776
-9.305641 11.527477 91.255783
7.264718 -12.599768 78.310783
7.803305 8.466567 78.000572
9.918688 -8.361611 70.950729
11.587804 -9.002242 86.581650
1.932835 3.866512 115.043472
-6.403453 5.883604 112.841827
-12.037877 1.092230 125.643410
-16.789776 -11.426088 86.731773
12.229784 -2.961343 126.330620
3.469809 13.368288 149.958481
11.870295 -1.148679 114.022804
18.449692 -8.171107 96.960579
28.275358 3.986478 137.822388
20.440754 -3.370706 81.594406
7.250435 7.897145 66.299133
-19.796305 -5.789841 67.914337
-9.796961 -10.204879 69.412209
-26.356611 5.661115 127.514297
-20.574265 11.602108 134.044250
2.599463 -11.651920 98.682747
14.699966 6.141307 135.914612
5.610021 10.322510 79.772797
27.202499 5.978857 122.315247
6.926223 12.195747 140.935822
14.874031 7.106663 58.453091
19.909075 7.148097 146.571289
-1.153604 -10.011485 97.059341
6.770166 -10.656732 138.545151
2.571469 7.688409 113.634338
-8.822290 -8.815879 114.090004
14.097420 -3.117822 112.658455
-14.335570 7.037279 153.642532
1.354544 8.817642 121.155418
-2.516520 9.222739 59.777714
-19.730854 -1.412656 95.103172
-0.812714 -11.299550 89.139336
9.668110 7.969319 62.931904
-5.800102 6.481900 152.878815
3.616888 6.011306 116.103363
9.464923 -12.970381 129.800980
5.410724 14.606317 95.336792
14.786234 11.371916 96.939049
-18.890520 -7.564683 69.285088
11.579533 8.338667 74.763916
-11.532401 -8.942446 81.761505
13.122869 -4.983236 122.318291
9.282258 5.429271 114.614685
2.913904 -9.469704 62.637131
-9.455304 -9.057560 100.935402
-35.338531 8.579117 129.881531
-6.046454 8.302441 129.592239
-24.820824 7.683130 132.625122
-26.072596 7.075553 130.265854
-8.726584 15.423036 137.629807
-26.859264 9.241606 130.799484
-0.443546 12.916290 151.658920
-6.725584 -12.082007 107.624977
-0.389664 5.707655 115.428787
-8.783115 11.398430 91.381088
-1.772124 10.986197 141.879196
14.451455 7.304822 91.038948
21.591566 0.848623 63.669842
-18.415678 -9.998446 56.048824
2.049952 8.072574 110.046898
-13.130626 -9.550964 104.290520
-8.475581 4.439816 117.094620
-1.941707 -10.027822 66.522049
15.551227 -8.485541 73.854424
12.547583 -4.483553 121.767593
-12.149682 -6.728296 134.916931
16.722204 9.836057 140.277222
14.335291 -2.819583 124.282089
-27.191257 9.544629 140.627304
15.957236 -5.512323 106.502007
11.133246 -13.269453 125.684258
12.741831 10.606112 61.187778
-3.331824 8.381057 72.961578
9.351473 -7.448701 105.102051
0.139901 13.113544 154.086914
3.177256 -10.047963 59.361839
17.032505 -7.471872 92.338097
29.051401 5.664762 133.429855
-25.785601 7.592176 137.807480
6.058298 7.839293 62.051594
2.607238 -9.292644 98.016800
-2.806923 7.256505 126.355148
-12.304172 -8.578169 136.816666
-5.739743 -11.786544 112.088821
-13.976557 6.376470 68.612869
14.626753 -10.820153 83.963440
-13.980034 -5.022413 139.918839
11.018450 5.135913 110.976517
6.449906 9.413077 131.146439
5.233079 9.340297 122.832054
3.460873 -10.066106 64.913155
-19.036999 -1.972396 76.109108
16.922934 -9.519240 81.502838
15.964701 -8.178762 90.403107
19.796400 10.687434 136.369186
-0.498002 13.850007 152.102356
-19.831223 -4.301117 63.708733
5.768270 10.866460 114.704140
14.490885 12.354841 141.576599
-16.646778 5.887220 137.413437
0.215490 -9.156273 68.812386
21.493923 -2.067681 67.446297
-5.763678 13.698781 136.905167
9.609262 -7.533947 110.797745
-14.073274 -9.237714 92.450706
2.003125 -5.588893 147.848419
5.117302 -13.772231 134.210251
-2.905957 -14.068160 109.901085
17.595943 -9.436068 69.241554
28.861782 8.775144 121.075966
-0.982796 10.036423 87.696892
21.610291 8.173712 145.510345
-10.696795 5.487578 108.453682
5.478557 10.506017 86.724113
-14.458342 6.349844 152.299728
23.796345 6.424148 128.165863
-8.052709 -13.351092 131.353683
-19.807409 -3.899031 66.652054
10.619278 6.425058 109.858070
-17.618057 -1.146710 98.183113
-16.757221 -5.255327 98.661888
15.785448 -0.049972 130.559570
17.570154 4.543762 92.777283
17.878372 -0.834509 88.725830
-16.511354 1.675011 140.064301
17.739811 0.473527 89.159203
0.576499 -11.715703 133.886047
-9.081026 -4.033599 142.534500
-7.460997 2.531213 118.318962
-12.063517 7.530544 82.147026
12.162546 4.455680 109.392975
13.044886 -4.848655 128.519196
-5.478584 14.812551 147.517014
-7.124876 9.213235 133.116913
11.389674 -9.233393 75.154869
14.855348 -1.598826 131.463364
11.485579 6.181115 109.207359
-19.721958 9.184237 134.725723
-12.255474 2.899751 133.646576
17.895803 -8.013052 61.623287
-20.442965 -4.294384 74.038155
