ply
format ascii 1.0
element vertex 2048
property float x
property float y
property float z
end_header
6.948140 7.254435 124.734741
10.974585 -2.214141 121.264763
-5.836671 5.379036 108.466522
1.690546 10.196480 78.827194
-17.091837 6.404812 79.501320
4.964740 4.731935 108.386681
-1.421827 9.570828 83.024963
-10.453572 10.079398 91.078995
-0.900951 -14.490968 130.111389
16.113869 -1.453224 97.742943
-10.508254 12.127185 88.781960
7.445419 -12.438725 130.384750
-18.348583 -4.291968 91.352219
-12.196165 3.508086 128.669235
-5.833372 10.065467 99.385139
-10.898693 3.855517 123.225792
13.247512 -10.672709 74.684196
7.012218 -8.836000 70.721504
12.024146 1.610768 115.725578
9.064654 13.706872 92.422501
13.900862 -6.832973 137.029785
-15.975348 -9.126504 86.141098
-7.191020 -12.312993 120.323898
-18.256361 6.938906 73.493248
-12.847561 -0.151413 113.993568
9.579482 2.738346 120.477615
1.578038 13.520763 99.770531
-17.549950 3.941025 90.725487
5.811386 -9.277728 68.357063
10.145096 13.258827 95.223038
9.192158 14.224407 93.787430
-10.656263 -8.392009 98.243439
20.260424 -4.083782 79.084106
16.131418 7.302388 96.731888
-8.813190 9.776454 69.803665
-20.526667 -6.261307 89.266151
15.272787 -0.828411 129.087753
3.236707 9.939204 130.085754
-15.618555 -6.737925 69.399445
6.780346 -9.293507 105.793617
-17.138397 3.186547 101.902809
-2.689487 -12.877510 107.353325
17.363714 4.896124 98.682114
14.396004 -5.626260 135.407288
15.012243 1.105694 109.388268
17.696802 -6.229797 77.541298
-19.180611 5.280596 95.746101
21.037243 -6.849737 82.699600
-20.877306 2.304257 76.317352
-20.777678 0.739596 75.897560
4.996794 -9.258769 92.633904
13.528799 -11.455950 134.519958
4.272553 10.959625 87.055099
-18.350365 -3.273461 96.982277
2.790958 -13.353145 130.160370
-16.345253 6.484234 98.332855
-15.278458 1.005662 109.738525
12.951219 -9.763647 88.850174
9.421575 -6.216963 141.886810
-1.339644 11.500122 99.288483
13.839889 -7.182702 97.106010
-11.714956 -8.186184 124.437630
-14.875175 -7.923218 78.831184
-10.585940 2.524831 121.364891
1.534004 8.675443 80.499359
-18.089445 4.990351 71.401741
-1.998840 12.679637 91.858322
-13.404469 8.924494 91.483536
5.753059 -10.394781 92.047523
-8.286579 3.897763 115.745079
-0.241819 -12.958145 100.731544
21.195541 -3.182771 69.677406
-2.522151 -10.661525 119.913368
18.998642 -0.521169 69.425117
-3.918178 -12.187896 125.454300
-5.184122 9.102398 103.739151
-10.434581 -6.812551 97.619766
19.173496 4.329024 84.441299
-7.861342 -10.000381 91.695763
15.147794 -8.524193 133.722977
1.610727 10.674897 128.542007
-9.663204 6.892814 107.822800
11.732576 -10.248171 135.404968
-4.785424 11.379932 65.654945
14.544596 8.538783 75.700249
-6.649731 9.455712 83.720673
-3.151286 8.559447 109.867081
-9.576399 7.368967 73.153061
-18.814596 4.147677 85.871559
12.468306 9.307092 64.192703
14.331330 -0.122183 130.733826
-4.104705 -11.617548 75.028816
-17.790962 -7.498267 68.501915
0.295819 -10.476283 111.695602
11.227980 10.391693 68.278519
11.166059 -7.935258 123.464386
19.031387 -4.242013 72.580322
20.330132 -3.417765 70.418190
15.610040 6.299459 98.194550
12.601021 -6.880556 140.285355
3.503367 -12.285353 115.275696
-4.911909 -13.689739 129.739365
-12.968142 0.706412 126.060867
-7.476729 4.429518 111.799988
4.026963 7.298206 71.397720
-17.748695 -5.119258 72.151093
6.813631 -9.074262 100.698715
13.008647 0.768503 113.130943
9.639599 5.975391 111.374481
3.534276 -12.785801 118.308289
11.222823 -8.722617 119.744232
7.108539 4.383247 116.863548
-16.759607 6.964181 80.902641
6.046628 7.436932 116.246429
13.647453 -3.963430 129.905853
-3.493337 -11.838998 114.576698
-6.536108 8.506218 74.386093
4.688382 6.900793 124.825119
3.951644 -10.168826 77.108330
-19.279903 -3.689336 80.994553
-8.414699 12.606972 90.497673
-13.234700 -7.936925 114.516052
-6.907368 -11.100953 104.692429
19.118959 -3.829080 91.103691
-8.746730 6.080780 125.155396
-6.775314 -10.874249 111.980461
-2.224233 -10.729583 117.403961
6.880291 10.125732 75.811699
-14.397046 -8.535028 69.541107
3.368352 13.050463 94.137802
10.597143 -9.398024 77.793533
3.006841 -13.732835 135.866806
7.337638 -8.222651 78.840515
10.909588 1.827713 119.122826
7.813257 -10.375316 75.075783
21.398474 -1.051621 78.091988
5.751413 -8.621346 74.323753
-19.247286 1.386550 89.215477
16.611347 -6.895397 97.997528
18.012836 -5.797201 101.545242
8.211420 -13.844389 132.571106
19.469135 -3.605361 83.292427
0.808699 -8.707742 93.246483
-14.837304 8.061001 77.618752
14.713772 3.323273 107.200798
14.549934 -2.750985 127.862144
10.070589 7.270011 79.807732
17.244953 -7.564152 69.720985
-15.309072 -2.035422 129.619492
-16.814383 6.472644 82.773987
13.675510 -7.284550 125.054092
-5.890271 -10.837693 106.692650
10.299220 -7.448116 68.021233
-6.433406 12.331596 85.205315
-8.938898 -9.064221 102.148521
4.252792 11.218020 102.714340
-0.577224 8.351586 74.606003
10.858457 8.398353 85.353485
11.476973 -9.411520 106.351677
-18.657820 -3.198070 94.427521
1.185121 6.537927 113.345512
-13.892319 1.993081 117.439461
15.771536 9.331954 68.592194
14.307777 8.204224 87.549187
-13.687341 -4.047076 115.697670
14.837138 9.919251 87.197876
-17.295115 8.899190 88.625168
10.199935 6.022126 65.062935
10.895663 -9.440086 101.858879
-2.627456 10.246926 131.594437
7.299383 -13.126945 135.269943
10.931168 -7.044545 140.148926
16.131929 -0.048273 104.175148
-16.625208 0.957464 105.212410
7.076508 -14.142535 133.945267
12.984863 -9.117137 100.014214
-7.038037 -7.805802 97.974899
11.055347 -1.396354 118.108330
-10.343307 -10.088381 69.845474
-17.957609 5.528470 79.231651
7.017725 6.049994 114.105606
15.967078 1.899172 100.114243
15.389183 6.507984 83.879189
16.217932 9.085434 73.337570
-4.622231 -10.509892 85.242462
-7.775640 -10.980377 114.212067
-10.313972 -6.987017 139.213455
-6.414642 8.810513 124.726578
1.915791 -12.173201 123.926010
-11.483333 -9.925954 118.257324
-12.104801 -10.770217 83.090904
-20.039785 4.774527 71.582993
-6.715979 -10.632095 121.687492
-9.479944 6.786438 78.052574
18.626808 -6.977854 76.094009
7.598780 -6.584197 138.971313
-12.629319 2.534448 115.009880
17.319138 -10.040612 75.956726
15.742413 5.879404 68.440102
14.462694 -8.436110 88.603378
-1.492846 7.340284 78.609047
-2.070804 8.031319 106.853951
-1.641843 9.719013 83.725029
14.361592 -6.035288 108.380814
-8.206502 5.009469 120.521423
9.795724 -9.830622 120.749954
-13.045537 5.460944 131.648819
-14.392302 -5.656956 131.320587
-4.548268 7.647270 121.006828
-18.900900 3.098465 64.157967
18.085880 -2.202189 75.890617
-14.932047 -6.550204 102.685760
-0.324162 -14.276220 104.707947
0.314598 8.774565 65.707832
17.206486 -4.168276 97.647720
9.134900 9.185513 66.634003
4.778996 7.081471 114.478607
-1.159113 9.495884 77.389626
3.762402 -11.793152 96.985474
12.770913 -11.802678 134.974045
15.610110 -8.525657 70.404297
9.213250 12.162740 88.254128
-3.396214 -13.979392 133.163803
-18.801428 -2.956365 89.574966
-12.872224 -9.416584 130.400223
19.082241 -6.552145 67.379715
-2.145164 9.173633 81.669907
-19.350210 -0.600711 97.547432
-15.386250 -11.196246 64.573982
4.688501 10.665568 130.398712
-12.787691 -10.628975 136.423798
15.760447 -7.317920 67.440781
1.482305 9.749968 119.885849
-20.676914 -1.442334 80.768211
17.131683 -8.411125 86.844696
-4.331503 -12.273205 98.473633
13.419812 -7.087177 138.177277
-16.644012 3.976601 102.994286
-9.327825 -11.423877 81.548271
-13.232119 -3.049735 114.916199
2.218348 -12.029416 121.124741
-1.523444 9.991294 133.520248
13.121032 -7.633402 68.533157
-4.677970 5.864639 122.701393
7.680258 10.397512 129.529343
17.135317 4.223525 94.225128
11.792089 3.801132 128.771606
-16.280588 -9.980964 85.196808
-6.447846 -10.693257 115.621300
-6.825849 -9.451163 81.254112
-11.186463 -10.786724 93.404564
-5.241223 7.056363 115.280876
13.875879 7.530995 84.332733
-10.326504 3.029082 117.063324
-6.109323 -13.423226 130.101974
13.811791 -10.536234 134.537781
12.085336 -9.522921 83.111000
17.003332 -2.212241 99.352554
-11.695045 -9.164330 109.045021
-14.926520 -2.400360 130.990524
18.194794 -7.826159 88.375763
-0.450409 -12.850395 107.701088
-17.106277 2.720903 89.686859
11.909273 -8.623406 85.277046
7.171664 10.220244 86.702820
-9.245492 -10.786948 92.793259
15.297234 -2.441231 109.956619
1.768104 -10.303260 82.891693
5.658237 7.664899 77.784378
-4.261780 8.502163 72.017166
1.362997 -12.524419 112.407928
0.475958 5.088267 119.525208
11.060427 9.437495 70.817123
14.449435 -5.272697 126.390816
5.833791 -11.534813 138.145096
-16.515100 -9.529537 87.137062
20.158148 -0.212862 80.566879
18.816574 -2.730813 77.638794
10.779687 10.653833 101.035248
-12.382246 8.012566 76.470528
-20.045029 3.037494 70.083694
10.552359 -11.624160 139.449554
-13.266818 -7.314534 101.756195
5.665395 6.560992 108.004547
7.324702 -9.897154 119.859573
6.051537 -9.862164 69.282967
5.354129 -9.408343 115.984573
-7.819421 -9.425329 100.557625
2.429212 7.553225 108.027054
-17.564493 3.080622 69.833839
0.462717 11.243047 86.068695
12.875527 -6.218713 119.069260
-13.337008 -7.094678 102.826996
-6.226045 6.851274 121.300720
-9.024958 8.199308 75.634865
-18.508766 -8.547479 70.573395
-5.416583 -12.881864 131.322388
-16.175135 -5.684126 62.316277
10.160908 9.839415 105.935211
14.175544 0.631610 131.317795
8.018661 -7.523279 66.287537
11.782003 10.619396 77.997498
5.728332 -9.632401 72.595047
11.550546 -6.716569 113.198929
-8.221295 -10.021142 100.811684
7.159608 6.328911 77.424858
-6.198566 -10.836674 118.863693
-13.923688 8.715775 97.264885
11.303748 -8.270151 83.519073
-16.319458 6.092052 92.824966
11.742806 10.259282 97.919037
4.830979 -9.036369 103.221222
-10.747695 -9.287624 103.057472
-20.538626 -2.880574 84.189507
9.904824 -9.757722 77.608170
-14.046363 9.498375 94.076759
2.970702 -9.248713 84.078239
5.687280 8.883777 74.376999
-12.126359 -7.838608 114.631264
-13.096766 -8.363501 118.785378
11.031194 -6.889491 126.406403
8.197831 3.645551 121.546547
-0.296509 10.335286 85.854172
-1.523703 -9.149834 73.799347
12.227572 3.081130 127.789528
20.436703 2.217579 87.664368
12.554749 9.836368 86.950653
14.085631 4.266993 107.623215
-19.737400 5.117043 79.894333
10.383591 -8.587901 93.737434
-18.776312 -2.626470 93.463814
2.347840 9.251686 124.200264
0.620972 9.101932 77.161552
-10.436754 -9.632234 97.324387
8.772883 -10.361898 140.199860
-1.111599 8.668322 77.928352
13.144354 -8.303314 131.260345
1.553367 7.892828 80.210022
-17.798071 -4.575233 93.825935
-6.305238 5.712587 123.988060
12.939933 -9.826792 115.822517
13.605921 8.149232 73.319145
-20.058626 -4.916746 76.284164
7.133936 -10.189520 86.991791
6.235873 12.509974 101.500229
-16.089874 7.739409 80.246521
1.275113 7.842577 120.236046
-10.617043 -8.509794 115.485947
6.906562 9.276278 78.603027
-8.897468 12.148087 86.986542
4.227067 10.062716 83.456741
15.329664 6.761912 87.651192
-1.024678 -11.014427 120.436760
-8.172942 -10.254017 109.407570
-17.548895 -8.920352 103.583778
17.449638 -0.919383 95.780777
-15.255693 8.340963 84.120071
-18.986536 4.327148 79.838142
-0.314648 -11.044327 80.795135
-4.200020 8.864555 126.637672
3.888357 -6.504348 66.505585
-6.985044 9.198165 68.050461
-9.525743 -10.579710 99.822044
-0.766819 -11.759601 102.281929
-18.843487 -4.833765 81.572632
-14.504786 7.497462 74.865829
-12.683544 -8.668620 86.649063
-0.117386 9.827734 71.300323
-4.723375 -11.344445 110.218704
-14.563601 3.107535 132.411011
8.764406 7.809466 64.067078
10.430956 2.061971 152.608124
-15.422123 8.817121 91.065399
-7.793548 -9.434327 103.038826
-13.583328 -9.791801 66.217552
-12.972364 -2.559251 118.792404
-8.761705 -10.196755 112.420914
-10.245342 4.227343 119.056992
-7.357964 -14.249107 132.181702
-9.545589 7.478899 75.101227
11.726994 8.360455 68.598076
-15.688224 -6.956002 72.013161
8.590500 9.493229 74.413612
10.720345 7.305339 70.669685
5.111733 -11.155993 83.994659
-15.493395 -3.431500 132.528503
-14.055883 9.338413 65.832664
-6.193786 9.447286 67.122063
10.759697 -0.251112 115.604385
-4.530900 9.395377 72.256950
15.732300 -7.688750 73.844940
-9.246313 8.007078 106.373024
-12.649155 -8.082962 71.020493
-13.150102 -4.674442 117.850441
-17.629408 5.413513 88.546219
-9.708538 -7.439141 140.454346
-7.237750 -10.323010 74.898567
-12.346619 0.196868 119.623146
15.300429 -3.478161 135.888214
12.943884 5.167477 126.798691
-0.313693 -12.419159 103.994522
-22.632446 2.093767 73.198914
14.358139 8.440440 67.000572
2.858367 -7.607548 69.195168
-14.317750 6.992346 99.118645
-14.194295 9.359386 77.029419
3.633331 6.834522 115.115021
-11.964292 -8.226825 117.455322
19.658737 -5.103498 89.630669
11.674010 -9.438677 85.231636
13.655328 -6.718882 98.676514
9.448610 -10.498201 94.127739
-7.619322 7.345081 106.662857
-0.613110 -12.254886 128.935211
-12.131649 -6.640342 69.597923
8.046258 -11.121325 76.080460
0.769545 12.974080 88.375008
0.616117 14.258045 94.779602
-5.380389 6.302596 118.518349
20.394974 4.199441 69.337257
-0.865755 13.806284 90.837158
-18.243870 -5.785292 96.060188
-7.596584 3.398492 121.043060
-3.734824 -9.921182 72.160904
10.709198 10.689666 139.682404
-19.361641 -0.020373 70.285568
6.706475 6.553706 119.972183
-2.935347 -7.800030 63.393253
14.841333 -10.707872 76.830963
-15.115965 2.559999 103.079643
13.499895 -6.913247 106.518471
-15.000312 7.045445 131.021286
5.408465 -10.070394 91.706451
-14.104064 3.325940 131.116287
0.675418 -11.425291 129.071884
-9.111633 -11.141628 135.980331
-12.500408 -9.835853 75.768646
-11.877473 -7.372178 111.769691
16.743299 0.698903 100.130943
1.636843 -14.303269 126.699379
-8.449463 6.883306 130.573807
11.430630 8.806681 66.635155
13.243408 8.300545 70.571609
19.422791 -3.002219 65.568169
-6.652759 -10.361698 90.806534
4.539809 -13.491194 136.079269
-17.099955 3.051412 78.482147
-19.860605 -3.056820 63.578140
11.745523 -1.999341 144.571259
15.399791 -6.727785 104.524574
6.711543 8.344893 130.270905
-2.358333 9.677576 78.130997
16.354151 -8.678753 106.525848
-13.729694 -1.104868 113.519646
-11.784184 -6.561789 122.915321
21.184326 2.529007 84.704987
20.992775 -6.303927 72.032852
17.997814 2.704335 73.789345
-21.614372 -3.327890 79.874695
-14.477312 -1.525026 128.722076
-12.601906 -8.048123 106.886528
14.888574 -5.439686 135.748154
15.353287 4.055329 107.497185
7.660629 -11.527106 126.432518
-11.396354 -10.113911 68.919098
0.084956 6.563187 109.813286
13.198938 -7.707942 138.918762
2.182143 -10.378802 95.881462
20.274178 1.183900 65.850540
-8.129952 7.830659 128.356537
-8.883245 -10.209951 138.973892
20.344568 1.087831 63.278679
-13.060464 -2.465905 122.933647
-4.960230 7.861321 111.426376
18.689953 -3.179797 103.263168
13.465650 0.002327 113.774544
-18.874002 3.469018 66.638573
6.106780 -7.365684 73.426414
11.844402 -9.401410 103.588165
4.726006 -8.617434 70.953529
-7.724665 -8.128977 139.698242
19.271671 -4.813846 68.991165
10.937181 -5.936633 141.788055
-13.459956 3.474525 108.952927
-13.101828 -7.376137 111.940811
19.229725 4.084782 79.338760
-10.094668 14.044119 97.109550
-8.005498 7.113307 63.041359
-11.559982 3.628674 109.440773
14.033378 -0.310995 126.884041
-8.346584 6.556893 123.361046
-16.798328 8.480072 74.019157
-3.992919 -10.648654 136.008606
9.029202 -12.803852 119.740089
-10.867149 -7.657736 116.733299
12.479744 -6.754677 121.062820
21.747078 -2.389974 81.062622
1.989283 9.617900 103.881783
2.915633 -14.358891 116.133774
17.859449 -9.187035 74.120811
-19.536594 0.578245 91.456894
-6.473270 8.232559 108.881935
-10.948885 4.740570 127.565300
-7.121600 12.167830 90.181953
-12.406394 -2.108433 121.893433
17.077190 5.061379 74.561981
14.531417 5.932010 61.674732
2.699406 7.496267 124.902794
13.173399 -11.818376 132.029877
-6.464618 -8.322542 72.814163
-7.010484 -13.509147 127.734581
-20.360275 0.845411 66.709709
12.729708 6.268089 133.104340
-16.889791 -5.432907 100.964951
-9.620929 8.389645 79.799194
2.316391 -9.096062 70.308228
20.110102 -0.076689 68.014961
-12.639123 -8.398230 113.383324
-4.557891 10.420025 88.640450
-3.335142 7.587775 109.709236
-19.497982 -5.116990 86.501434
8.175290 11.082837 100.449966
-5.320168 -14.181582 132.306595
14.789095 6.453659 81.061089
10.722846 -8.811395 115.133636
-12.721930 -7.354036 114.783485
-15.032277 1.290478 132.882324
6.341812 10.344470 70.113777
-17.606104 -6.121978 83.236519
19.445423 -5.685384 90.291153
-14.778485 -0.926575 129.960159
-6.269357 -11.854924 116.625237
-3.825527 -9.126326 78.061829
-11.511110 -9.205874 70.572517
9.786401 8.035917 108.425003
-20.238249 -2.825793 86.159828
-2.003691 9.716475 75.609077
-1.087208 9.062176 86.758316
10.306612 -11.483472 89.826843
9.713095 -10.269770 97.486610
10.732911 1.891933 127.507774
12.281593 -7.575339 111.079620
-11.457065 -9.944381 97.515282
16.560640 -7.999153 67.799408
13.838849 -1.934896 111.185059
-15.770276 9.307120 74.496590
-1.716537 9.023816 68.238106
-14.292928 8.812423 81.419624
18.759619 -5.925602 88.672707
19.278004 -0.416318 73.265526
16.134594 -6.903812 67.599953
15.021676 -4.880366 124.005768
4.962780 -6.963319 65.695602
-7.425949 -9.339695 75.374313
15.091596 -3.460588 121.897247
-4.677333 -10.114405 90.285866
12.888306 7.506854 101.991066
-14.705072 -7.682024 129.517532
-15.610055 -8.631070 82.580025
17.563671 6.827543 80.138985
-0.253974 -10.009570 89.938980
-5.319769 -14.083340 137.186295
-11.491219 -6.719345 121.366280
14.264698 -11.356299 132.323486
0.702385 -6.708837 64.234344
15.830048 3.475848 93.217072
15.130963 -4.077337 133.857544
-15.049159 8.975027 96.234779
-2.979836 -11.091163 126.763466
-8.760688 4.112842 115.221931
12.420784 -11.798425 134.683228
18.892962 -5.231666 74.034111
-11.212772 -8.820576 119.339180
-5.739990 -10.260159 101.636848
-2.137737 9.733768 131.314560
-11.087992 2.039916 113.166862
17.194969 -4.439818 75.509071
5.625916 -10.368124 94.352318
9.478728 9.830604 100.940987
14.817856 -5.829966 102.175522
-9.468320 1.577560 117.614990
-3.925769 7.932674 124.585487
-7.420795 -11.616998 117.342133
-13.361230 -7.707034 105.736320
4.997156 -11.237075 117.491898
-6.916859 -9.280757 141.187912
-12.180367 -6.979532 112.211296
19.741259 -8.942627 75.512161
6.797997 -7.556448 65.988655
-6.235551 9.352356 130.426605
-3.222993 -8.595399 93.060768
12.355324 6.513433 70.388870
0.079566 9.652687 125.517197
-14.608027 -3.220838 132.648956
18.195959 -0.917365 96.705627
11.555697 0.875068 123.465508
7.970649 -8.057916 142.581879
-15.883561 -7.059868 93.498215
-15.791244 2.242151 104.003456
19.465178 -6.315491 73.719429
-13.079433 -13.031953 134.183487
-11.745127 -2.574613 121.661560
15.839073 -8.703979 79.464523
-13.832879 -10.533726 82.220695
-7.674392 8.582719 79.087029
-13.716070 -8.213364 126.703392
1.783986 6.404731 115.658981
-18.082363 6.337241 92.266159
12.236258 -3.024723 122.897568
-7.497744 -10.803102 77.967972
1.092252 11.365039 131.554291
13.608153 -11.256199 81.379768
-8.348966 -11.133007 138.535278
-14.500772 -9.735393 88.678856
-15.090544 7.419409 81.573051
18.062889 5.106392 77.310753
12.269910 -11.184361 131.116547
-9.671259 -5.602029 141.623718
13.184307 -10.996464 75.485214
11.336576 -10.728751 106.647728
-0.955015 -10.415564 79.236259
15.473617 -3.090757 101.913612
3.577132 -11.617097 97.426224
-18.244741 1.292706 101.336617
15.794485 4.071395 100.022224
18.170752 -4.474936 71.802940
2.452086 -10.489439 121.362358
-18.858458 -6.618475 81.549377
14.420203 3.865381 103.698372
-18.607014 0.451851 89.172958
13.906917 -2.213666 114.819305
3.304058 -8.871019 104.472702
-13.309735 8.607074 71.822914
-4.885396 14.016754 95.763161
-7.148674 8.225349 73.362282
-1.493773 12.360229 87.752518
14.929811 -6.021305 104.913116
-19.175438 4.577960 69.621925
13.111399 9.880196 71.270164
8.116012 4.131489 112.336143
-19.817083 -1.735750 77.634155
-10.519873 3.428813 118.460907
0.779565 -10.922640 89.319435
3.871711 9.312470 105.170952
-10.283535 6.325659 109.855354
16.812176 -0.646772 101.030396
13.378187 -3.164442 116.784958
-19.716215 -1.251839 90.605698
13.667132 -5.555590 109.680267
8.841391 -2.550591 144.829758
-9.449201 -14.252368 134.273926
-17.722795 -5.635966 95.505951
-9.418831 9.144791 102.225708
-20.346184 6.099961 72.362007
13.035813 -9.261206 83.951363
18.382778 5.538102 81.583961
-19.790806 -6.154397 87.574402
-12.890839 3.541405 108.187965
-7.627125 -8.443193 68.205307
14.411144 7.476691 86.402756
3.715128 -12.055428 130.241302
5.263853 -10.751629 76.975449
-6.238761 9.808385 104.997070
13.600746 -7.668583 126.247337
20.416327 3.192433 76.616104
4.214936 -9.511924 70.311546
-12.522132 -10.582404 137.400040
5.240204 12.738414 99.266281
-4.584823 -12.619959 116.708221
10.986779 4.901226 113.750542
-18.020885 5.051800 88.878738
10.531078 8.127461 127.549850
12.212188 -8.520700 108.778603
1.799923 -12.090926 115.076927
-12.303354 2.280700 120.535217
-13.560249 8.099384 79.840607
11.469170 9.855239 84.272034
8.535577 5.562624 124.112045
18.505297 3.473569 83.910141
4.096305 11.052079 103.331917
7.821536 -9.307636 100.730019
15.636229 -4.087833 97.308144
2.967020 9.624845 104.512871
7.102978 -10.781592 119.659103
-13.402700 8.945235 88.988098
-5.012263 -13.528913 132.103149
-14.538719 9.754015 83.370598
-16.453558 5.831781 72.326469
10.994576 3.647919 118.437279
-4.349673 -10.759441 136.866135
5.139597 -11.288006 114.441864
11.446736 -0.715184 114.693405
20.781136 -4.148955 82.813019
-12.922492 -8.034354 100.778740
6.791514 6.438875 115.972862
10.648680 -6.889557 125.563690
7.531988 4.989044 114.720299
-7.890991 -8.594952 138.087479
-14.165220 -1.044101 130.435089
-5.511817 8.373765 115.529060
5.197715 -10.623889 114.690086
20.242832 -2.872521 79.426964
4.701917 -10.790896 102.219208
13.052774 4.646117 127.503860
-13.018224 -4.334935 109.280891
9.139200 -6.627100 140.474976
-14.913311 -1.706738 133.669144
-11.165960 -9.972235 127.358322
-13.978284 -4.944201 132.137726
1.331763 -8.368998 76.423584
18.431688 -3.610138 79.856712
19.734455 -1.032554 65.195160
9.039156 -8.453978 96.939865
-18.670483 -10.182670 78.867142
6.991954 -11.300256 112.336227
6.517565 -8.556170 104.478737
17.631830 -5.844222 75.304871
11.515162 -9.196170 120.723434
-11.323477 -8.235631 102.971619
-4.543211 -8.707877 90.589180
10.023580 14.155741 89.285660
-3.652766 9.343369 106.255775
19.121214 -5.160775 79.102249
11.100403 -10.563297 73.927986
10.954295 -11.444133 118.863815
-11.610122 -8.888248 119.746140
7.250661 7.152696 108.738152
14.581515 -8.621040 130.946533
10.728515 -1.526411 150.014114
9.499881 8.050812 69.834679
-14.797262 -3.858990 129.218887
11.551490 6.153937 109.984116
13.692708 -3.603639 108.140533
13.253683 10.000985 150.773605
-11.985781 9.228699 68.286446
11.071037 11.465689 137.420731
-12.581629 -1.300056 130.080902
4.492625 -11.294584 117.428482
20.822905 -2.120564 84.687927
12.758099 6.225874 108.255028
10.093117 4.097746 112.425476
13.143400 -7.723655 73.453239
-11.748857 4.426562 128.770889
1.992563 7.735593 108.632027
16.602667 -9.389152 82.748802
17.326012 -6.382001 94.512039
13.171966 -5.901586 115.953011
-16.386602 -7.473306 71.123634
2.984918 -13.989966 129.832092
2.471828 -10.815088 129.365112
-2.265780 6.328606 121.186874
19.921988 -2.338913 85.260452
-12.011179 3.019396 130.774368
-3.534740 8.557185 75.289558
-14.921490 4.397801 99.465332
10.481858 5.744370 106.699928
-12.775387 3.009036 106.892799
5.484086 7.926847 121.078667
-2.130928 7.567572 123.782280
-17.230597 -8.042975 81.104866
-14.582111 -3.247280 122.371796
-13.728907 -5.740650 130.084518
1.788973 -10.916428 127.380493
-18.651157 0.694667 86.076904
12.258195 4.019544 115.092453
19.403282 1.667312 71.145485
3.552745 11.377455 100.434937
-11.876656 0.515565 130.773529
-8.620112 11.659155 94.316872
-9.894181 -9.900786 90.101120
-11.728208 -5.235634 114.039940
-7.718604 13.731146 98.652756
-20.142942 -0.604586 82.251297
-5.948904 -11.002272 115.924385
-13.270008 -9.516890 74.175354
17.499311 -6.097507 88.064888
15.848675 -10.951728 83.247665
19.722429 -4.095872 67.402328
11.049281 -8.897745 104.088333
-14.872581 -1.306114 108.491928
-21.018166 4.679248 84.477554
7.644197 -11.917889 121.196960
-20.246351 -1.890461 77.702446
17.037029 -4.157186 98.851845
-13.352926 -7.669617 138.670197
14.339746 -4.797600 130.227127
-2.676992 9.793013 80.377289
18.589619 -5.592275 92.871376
-15.984652 -7.073660 132.116989
-7.097517 -11.113346 86.007912
-8.007654 -7.525735 69.600349
3.063932 9.620123 104.100861
-9.642166 -11.859051 138.623093
10.866144 3.546498 114.391632
14.030340 -4.685503 131.942749
-7.060811 -6.490952 136.956085
17.696217 6.928646 78.150932
3.917039 -11.699815 120.185310
9.912169 3.755418 126.252754
5.041905 6.990356 107.802338
-7.905873 -12.481664 108.433701
20.788490 -2.251371 86.831985
-1.165136 9.100342 74.604874
-5.519550 9.173904 106.214302
14.315427 -6.179567 65.398972
-2.678746 7.490331 118.852592
7.132506 -11.862846 133.719818
2.121485 9.374841 79.546608
-18.864256 4.880191 75.073555
12.232656 -4.508270 116.108864
-9.272846 8.401153 132.088730
3.347419 -12.309898 117.833824
-10.993832 9.439631 84.625732
13.788633 -0.657823 129.163177
15.283596 -1.917634 105.066940
-15.003707 -3.802624 65.666191
11.921621 -3.196260 120.298958
2.097360 9.984279 73.139290
-12.699369 -9.180450 92.017731
8.748348 -9.341907 118.162895
-5.908167 -9.625578 139.819778
-3.628910 9.699935 108.006287
15.957333 4.788224 93.551834
-2.556707 12.035302 100.768288
-8.337372 -11.397997 137.450882
17.000174 -8.179713 71.853134
-4.141931 -11.048877 101.812775
14.995345 -0.287422 103.495865
-11.780889 -8.960004 126.353271
-10.599159 9.525709 100.654053
0.913368 9.823131 112.012955
16.128826 -9.106098 77.936569
-2.308590 -10.762761 99.253128
11.582812 5.819547 109.721046
14.728710 4.282578 134.414871
-0.013940 -8.534885 90.391884
-14.150109 -3.158561 117.736855
-10.202092 4.134359 109.561668
-5.646328 8.053630 72.332375
-8.495968 -8.529020 89.197014
10.970640 -10.225075 80.078217
13.169466 8.811965 93.157722
12.995689 4.821638 124.715599
-18.149759 8.076412 66.475029
9.570054 7.840142 130.958847
12.672479 7.735426 80.271553
12.485237 -12.561739 130.973511
-5.991463 -12.106718 113.528191
16.925215 7.425003 92.454781
10.736856 -10.748761 129.960968
-20.307730 -4.928886 72.962181
8.595552 2.776695 114.301636
-11.754835 -8.713590 85.614098
20.286602 -2.621297 83.801903
-5.530450 9.970346 101.400162
-0.107980 -8.080151 75.827850
-12.003836 10.547571 87.361214
-9.920873 9.678885 95.195923
-3.370048 -11.395299 118.972946
18.053791 -2.913858 103.421959
-19.648346 -5.509366 89.090996
-12.640968 -3.544233 113.070969
10.519646 0.317458 122.168922
11.245204 -3.863670 117.777473
13.232000 -6.531022 103.200775
7.083659 -9.760115 112.393478
3.963306 4.407239 118.849236
12.585139 -9.834808 73.689545
9.146350 -11.616109 122.132439
-6.701451 -11.021614 104.377495
12.437058 -9.606133 92.443436
-14.270213 2.217666 111.884468
-7.574379 9.834651 66.819199
-18.033953 5.379077 84.603081
-19.490046 0.790392 72.005630
13.035981 6.058523 130.831711
-11.647722 1.749928 114.996017
7.773428 -13.700625 121.480469
-1.944580 8.296347 66.553413
-3.130486 10.925403 88.244286
9.466992 -9.552394 112.725861
1.974963 -10.747460 98.062607
-1.579326 -8.752959 82.830292
8.676090 9.201551 66.085182
11.048636 2.362205 118.171272
9.001348 10.577073 136.296722
-3.527291 -10.116081 88.915657
-6.626966 -12.684204 130.201126
11.034315 -10.481827 123.227707
-9.556071 -9.545976 127.692635
3.502928 -9.959117 79.505264
-9.086606 -10.996900 88.183563
13.844298 -5.895303 128.004440
17.441719 -2.517071 105.537254
13.437372 7.418043 80.735771
-17.932270 2.775824 95.534698
15.789743 7.860455 88.446571
-10.076248 3.771635 112.141289
-11.554050 -3.852004 117.561607
7.510013 7.891890 106.025238
-14.220250 1.120366 102.822960
-11.861601 -3.683628 122.932190
-7.407307 -11.851727 128.288635
-2.246384 10.525086 104.595573
-6.713953 -10.297706 109.849159
-17.203659 1.317765 96.474930
-17.233625 -3.694082 103.390129
19.119566 4.521107 79.432571
18.396832 -0.075117 100.791397
-21.060884 0.258110 74.862808
-7.334248 4.844632 117.941101
-14.641637 8.885365 95.683052
-7.960886 -10.040618 98.603699
-17.569012 -9.196388 89.480293
3.348208 -12.848758 132.228729
-6.544002 -10.840019 105.477547
-3.425564 -9.970805 77.509315
7.013978 10.679255 91.460846
-2.622988 -10.405348 123.924004
-12.434225 -1.130253 114.494217
12.130730 -5.828972 116.982971
6.586357 9.434711 128.215607
3.691797 -10.838242 90.558716
-7.662498 -10.040671 76.911575
12.244094 -8.224329 99.718674
20.114754 -3.145241 88.692978
-3.193016 10.569698 80.013725
-4.177831 10.430965 64.700912
-14.487774 -6.071461 135.680649
-2.140045 8.628107 108.605591
-15.357644 5.537367 65.890366
17.631165 -0.219871 105.678535
-11.759741 -7.613925 122.812569
4.486717 -12.509355 124.511078
-19.015957 -3.449113 64.937576
-2.024440 -10.283994 99.560112
8.751932 -9.169825 103.946716
11.895520 7.488410 130.409286
-8.716178 8.290284 76.514404
17.241957 -7.172870 90.684708
-18.123144 6.720294 90.852631
-5.581666 7.425614 109.569672
16.424820 3.225156 101.404411
-5.460781 9.732759 82.147568
11.618785 11.725114 85.784309
11.737754 3.225736 122.498657
1.467706 8.964460 82.538757
1.380305 -11.333525 120.828270
-12.731923 -6.036383 121.038284
-6.562495 6.616999 120.165375
0.014232 -10.323817 87.091858
2.244554 -13.849517 132.044739
-4.145098 -11.969999 117.253479
6.395325 -10.569398 118.731300
17.161526 -3.100012 103.888542
-14.845645 -3.851203 124.595764
7.715579 6.099178 113.143944
18.341618 5.797165 94.553543
-7.706880 10.197401 76.847229
-9.804843 -9.267886 110.708275
5.756816 -6.202927 64.043434
-10.260190 10.100521 68.596695
18.960571 1.881460 94.215347
-15.250227 -7.682227 134.928680
20.928289 4.221233 71.217567
19.308681 -1.060087 69.725296
-10.234158 10.623011 99.269981
-4.181924 6.830325 112.633522
-11.549590 4.057139 106.996101
17.616583 2.631121 94.649612
12.943724 -8.243237 138.961624
8.488314 -11.003368 116.547935
21.377895 1.921610 82.919044
-4.753544 10.699870 83.645866
-9.012003 9.562140 131.467224
13.695422 -9.064311 69.196762
-0.057831 -11.094459 100.964905
-19.180681 1.155499 93.115105
-3.917031 -12.845766 119.535606
-5.137467 6.887888 116.179482
3.377935 14.267267 95.467918
-8.251031 -1.531135 144.848175
-5.255437 6.336289 114.603127
20.544521 0.505436 82.980080
12.855930 10.645083 87.008774
8.210721 -11.842482 120.667694
1.506466 9.271935 106.416260
-11.350842 6.257900 81.478592
18.450130 6.342280 86.914871
7.005574 -9.815012 111.363235
-3.434090 7.674411 123.126228
4.178530 9.328601 130.884720
-6.529011 6.022928 117.345222
7.907276 10.711725 88.893456
9.950006 7.677671 103.477303
2.941489 -11.399497 99.033493
-8.362934 7.468939 127.299454
9.703053 -12.171176 129.798080
0.574176 -8.735160 79.110130
16.406404 -1.503241 105.841858
-7.988965 11.034704 98.317162
-4.062894 6.669282 115.318001
9.259324 -8.288317 69.110809
-5.707800 9.000741 73.819328
3.824721 8.380211 107.244217
7.998688 -9.458227 116.136154
20.678568 2.560887 82.488770
19.391872 3.409390 94.933456
12.373123 -8.669620 102.582375
-1.806422 -14.291401 117.484665
17.718904 -8.722874 81.753151
0.476598 6.323311 113.294289
16.933556 8.793901 75.730835
-15.787765 6.629480 93.985855
-1.765796 12.895394 99.804527
-3.126793 -11.686233 123.356651
14.713583 -10.003691 71.509605
-15.304409 -10.333665 88.945816
0.181852 6.955268 123.746681
-5.424139 11.706737 131.302231
1.407907 -12.196839 109.199455
-20.861797 -0.685449 77.665161
0.384913 -15.236644 133.491409
-0.724889 -9.976758 66.553123
-16.962296 6.670303 88.812012
15.317136 -7.017205 130.589264
13.998383 -6.354064 108.471786
12.468376 7.276128 81.272377
2.819384 -8.342690 73.331772
12.950804 -7.275342 106.755623
5.143076 12.146651 89.420906
-9.407949 2.973485 120.472549
-20.247601 -4.782999 90.595161
-14.264352 -4.468887 113.373421
8.539794 -11.158596 120.573402
-17.906475 3.747361 98.324348
14.708545 9.008090 92.534454
-12.091248 -3.991773 122.627922
-9.081547 14.680544 147.891205
-6.441537 13.039902 97.227203
-20.196285 3.575498 74.541962
1.536682 -9.703481 84.108612
-0.628709 10.434274 84.417992
5.307230 -9.239409 103.655228
17.144402 6.620348 66.205460
-10.659038 5.161879 125.496323
-11.727265 -7.451051 64.959373
-13.723906 -10.614602 133.076691
-6.219841 12.999833 96.484222
17.575157 -6.795679 67.781570
12.981651 2.618792 109.189041
-17.811180 0.478521 99.261887
13.700471 6.892985 77.734818
6.045777 8.332067 66.706070
12.038499 -11.095865 132.773056
-16.031157 8.325687 96.381729
-0.191908 11.055676 90.786095
14.649487 3.836395 102.272446
-16.528576 -11.613832 84.322510
-18.484749 -6.066150 85.761444
10.843640 -7.561553 109.550117
-12.407464 -6.188352 127.552315
15.576743 8.579727 93.255806
2.890344 5.976001 116.328506
-11.695083 -9.867153 136.710312
7.873969 10.284952 128.185272
14.196919 -7.863526 133.433243
13.272395 -1.937666 115.200775
-4.166770 8.710187 128.893051
-10.484285 -10.297643 83.184319
-19.062187 4.181653 75.555840
-14.430315 -0.528391 108.862526
19.437933 2.524306 87.602875
-11.213073 -8.539168 84.237816
-2.989224 -11.761413 119.953773
-7.773979 7.319692 63.212997
-2.149507 -9.591490 96.480347
17.670891 -4.853139 69.904633
4.613443 10.240710 86.109406
17.777908 -7.536430 67.175117
15.141768 6.927145 97.205070
-13.809216 -1.863298 124.992737
-4.585462 8.887197 105.629478
4.805203 -12.445848 103.798943
5.024791 -9.732877 69.775604
-11.303846 5.078711 130.630295
3.812279 -10.573818 111.618874
7.699143 10.001908 77.528275
-10.402497 9.968526 68.763374
2.292796 -11.939587 123.636292
-7.699865 -10.416820 83.183998
-16.221508 0.876918 100.545319
-0.549698 10.861451 85.608719
3.259812 7.680820 66.510811
-8.983150 -10.204158 90.798569
2.019923 -14.751716 134.616318
12.740772 -4.794157 122.544716
16.970406 -7.232155 95.114098
-6.083278 -9.854445 91.677521
13.425489 -9.843057 90.490356
-12.150368 -7.022700 112.608147
-12.317036 2.862535 126.809631
6.664671 -13.323118 135.675964
-5.561711 -10.758772 71.065094
-10.600956 -10.054258 126.870193
12.768106 0.993221 114.885315
4.676864 10.594993 67.650352
5.331059 9.087107 83.999100
9.040104 4.274801 122.479919
-14.112509 -6.632260 117.547432
-10.092432 1.981697 117.700775
-18.273800 -5.826752 94.378891
9.094946 -10.112448 71.256271
-9.008649 11.272135 96.669960
16.354204 -1.031711 132.837128
-14.105055 -6.091471 134.766953
9.453863 -9.379230 73.746056
-3.950115 -12.369311 114.436005
3.085308 -12.337611 91.820999
-8.256716 5.883797 112.895226
11.354821 -6.736287 125.080940
-12.742265 -9.583632 75.683464
-14.898979 7.760282 87.407799
-8.929999 9.247369 102.372688
1.141668 -13.557653 109.595634
-0.707107 9.011946 78.002914
4.384361 -14.021232 135.108292
-17.211054 -3.123959 104.897217
-15.893861 -8.568668 70.204926
-13.957375 -0.960826 105.611794
5.734306 8.163849 81.371384
-5.703307 7.242805 120.273384
-7.962549 10.702203 100.673958
-4.380207 9.434864 130.183472
2.397739 6.643525 119.570030
-5.775382 -10.170841 110.771713
-18.015753 1.164054 100.161690
6.809039 -14.274952 133.391830
-0.421901 -10.273747 77.654388
-17.471914 2.974945 70.549309
20.362782 -6.539087 79.971176
-13.300428 -7.529093 101.041245
-15.675653 6.147255 80.425270
7.718200 -10.713699 71.000656
16.437986 4.729372 100.430191
-2.433162 9.999300 71.833939
4.730703 -12.252990 133.770004
-7.665180 6.607533 109.663963
-12.148079 -9.736808 82.897972
-4.774153 -11.269727 136.964722
1.010872 -12.151820 134.236450
-14.461393 4.125552 106.428741
-11.973921 9.440714 96.191872
14.213120 -0.690397 131.365692
4.750512 13.218583 95.470184
16.075020 -8.605125 81.467438
-6.275115 -8.519639 95.461342
14.131536 6.231144 64.578827
-12.108506 -7.052115 115.569221
15.146022 -5.863488 136.634430
-6.180605 -11.573077 86.227341
8.251869 -11.182053 122.332436
9.736504 -10.107490 71.927704
6.106142 9.273241 65.832565
19.712629 0.079867 81.514481
2.050390 8.887472 81.246918
8.006271 -11.881780 125.488068
-5.091332 9.256783 85.243744
12.769401 -10.126880 131.005081
6.759895 -9.020749 69.623543
19.162296 0.453929 101.252281
-3.364533 9.236556 86.799065
14.528145 -1.967606 130.105545
5.025450 -12.380534 110.501602
9.432013 -10.347031 109.638329
4.898514 -13.567688 129.522430
11.694771 8.477552 78.633430
1.502403 11.809715 93.165817
15.689829 -6.175351 135.281586
-6.679641 7.069278 107.287651
-11.875404 3.721975 127.349693
-2.191583 -8.426475 71.417389
11.838237 1.942780 123.823219
-11.419805 2.824348 112.078369
-16.672735 -7.217585 75.609703
0.876852 -9.795116 84.225723
-11.145006 -10.018689 100.077293
-11.349669 3.099594 113.046120
19.684956 3.627934 67.337395
12.116949 -3.242934 114.510353
0.706156 -11.420216 103.502563
-10.352226 3.202592 120.459259
8.572290 8.467077 106.486443
7.277154 9.293407 79.484146
4.456327 8.913717 70.550781
5.314049 10.097169 102.252403
12.443448 7.440095 99.444771
-15.563931 4.751278 79.983887
0.069197 -12.247435 130.784058
-10.186069 11.807631 138.837341
9.288340 8.817791 68.895340
-14.470158 -8.138475 84.950912
-21.332626 -3.399212 79.397018
-17.096489 1.287256 97.930031
-3.182575 -13.525221 130.493195
11.955125 -10.818379 130.026794
-1.753199 -11.104906 96.882782
-20.847439 -0.881314 82.560669
-4.956199 -11.077448 137.472443
-15.191554 -7.263443 102.037994
9.054052 -13.160744 133.564880
-15.154560 -2.216859 106.253799
-5.254747 -12.501955 125.301575
-7.239906 4.318991 111.999939
14.103407 -11.256151 129.414932
17.666739 -8.885831 76.098717
-12.369514 1.484936 125.694397
10.366134 -14.857854 130.854065
-14.400780 6.149652 98.382950
-0.020635 8.575846 79.317863
6.763569 10.867689 103.472252
18.307343 -6.969004 72.669159
9.108213 -11.785401 103.897209
-3.926161 9.023213 82.683891
6.831769 -8.690122 87.026558
19.957907 6.192913 73.531906
6.146977 5.917871 116.917000
8.184872 8.743818 128.407181
5.755980 -10.633485 82.909775
-5.674114 7.176100 121.916336
18.111511 0.718663 100.718811
-1.854505 -8.950202 93.188820
19.995329 1.408383 65.802620
20.124197 -4.252224 74.035873
-5.121315 4.072870 110.244858
8.675261 -12.009206 80.679749
9.124743 -15.250771 132.346695
7.988141 6.182318 121.736679
20.561974 -5.639226 86.236679
20.342772 5.606773 83.967499
-6.270676 11.379415 78.611893
-8.535695 7.922859 128.269943
1.095366 9.419657 72.215332
-13.485032 3.750127 110.826988
14.512850 10.975949 92.813698
4.125565 -11.104874 80.990677
-18.872322 -0.843500 96.110291
-7.244092 -9.440444 96.054085
4.134537 -12.059027 138.676132
-9.925530 -10.891070 126.846649
-17.350901 -7.824737 92.346611
-19.305994 -6.796379 78.249290
-18.623127 -2.658385 93.124298
5.646433 9.280659 78.112152
-3.997495 5.996398 114.548103
-3.163421 13.445614 96.780571
5.188703 9.084579 70.046219
18.976738 -1.505609 95.713097
11.886123 -8.511971 82.004303
-8.163568 -11.576225 122.938438
-9.807700 8.985311 73.983360
-12.967594 -10.699860 84.659798
-0.922827 12.667583 91.482430
-20.093939 0.925809 68.327057
13.791812 -5.869968 131.667694
14.130142 7.861168 74.650452
-2.711276 12.618914 92.720070
-5.929693 -12.479007 108.412941
14.141376 -5.813364 132.575058
-11.720866 -11.962254 128.400864
7.817605 -13.149142 130.234070
11.735744 2.658178 112.957420
-0.242658 -9.599080 129.260651
-14.555957 -2.016556 121.327957
-13.622499 -10.322912 129.460587
-19.261604 -7.757268 82.509308
-2.040260 8.455467 84.608307
-3.435760 11.396042 104.284592
16.325842 6.991333 72.651848
0.032060 9.525723 124.802376
-1.120281 -8.228796 69.624641
-7.190523 7.484378 77.040535
-11.310266 -9.743691 111.231293
13.441669 5.671694 103.815285
11.058083 -11.009134 120.266823
-11.266982 -11.694709 137.914703
5.597294 -11.736977 119.085892
21.789482 -2.019209 82.987839
12.724731 3.528982 108.173805
1.659232 9.832067 71.454346
13.153687 -8.130454 129.936981
-6.149403 8.353178 74.051605
19.874981 -2.896310 75.824509
11.640572 12.088513 91.375870
20.519663 4.742799 79.237022
-7.795224 7.503211 116.474739
-16.281471 7.349926 68.945557
10.511225 0.503831 123.835403
-20.060324 -5.029514 81.320221
-12.056279 5.160582 126.773972
-10.449001 -13.159962 133.008545
14.196100 2.737736 132.845749
17.586433 1.581769 99.076843
-3.835323 12.519948 96.233406
-19.707670 3.300139 83.942261
-11.842986 -10.941516 87.924034
10.071332 -7.676600 100.542732
2.285038 7.735761 66.652039
12.029348 -0.112069 117.285156
2.873581 -10.470732 77.231583
4.148338 9.705840 103.880119
20.578100 -4.233114 80.847679
3.959386 -10.449632 125.985184
13.193239 -7.830483 97.088181
13.559308 3.521335 105.441704
12.025831 1.155962 123.332916
-7.812162 -9.808937 106.485893
-16.969118 -7.373702 91.485374
-20.431570 4.362764 70.212990
-10.280734 9.904636 101.624771
11.754084 1.522700 150.038116
2.669025 -9.254431 94.036461
-10.210814 -12.395693 133.967133
-12.269327 -9.425146 79.183601
-12.264515 5.829280 103.432114
-12.265980 -6.101324 125.176987
12.842043 -1.163016 125.112213
-12.338984 -0.785963 135.059341
16.156418 2.114519 96.122635
21.272158 1.808695 76.355003
13.057166 8.554384 99.559982
10.029527 -11.102854 140.878983
0.020780 13.379176 95.004028
-19.281351 3.394673 98.360527
-0.238376 -11.057831 117.370033
17.014698 2.867995 79.509399
-6.673903 9.369829 128.947388
11.221515 8.791090 87.002098
-19.463207 -3.795954 78.780693
-18.543587 -1.113267 92.348114
-12.712865 -6.554891 118.801414
-10.733466 -0.307705 119.235596
-6.627608 13.951505 93.191162
-6.290112 -11.444283 124.436226
-8.760229 7.605765 105.231964
9.604927 -8.604136 127.429062
-7.899874 10.363433 127.247475
19.345432 -0.554744 64.854774
-20.117382 -2.712551 82.252769
18.081339 -6.275159 77.481606
-16.808371 7.398231 65.200432
-6.629114 -12.049542 121.786537
-1.548297 11.515952 98.225266
-13.000686 -9.566243 129.914505
1.561721 7.171440 123.339966
16.414883 3.285846 101.058769
-12.550564 -6.873803 63.416924
7.657739 7.811803 108.363075
10.828765 -9.958598 93.913239
-10.407009 5.135885 111.367378
-15.798779 -1.192079 135.168030
11.117985 9.237958 101.432907
19.909393 3.154843 80.118912
-20.520739 4.630379 65.157028
-10.841626 10.174872 98.955452
-20.674540 1.947061 83.117424
-11.551790 10.912945 85.301018
-0.221378 -8.962580 92.544510
17.018970 -2.544586 96.190460
20.061916 -5.872972 86.123337
0.629147 8.384800 71.499619
-2.787040 -13.493205 117.650566
14.891632 -1.018150 132.568863
15.485809 -3.765138 132.597321
-0.135875 -10.522016 91.885941
19.587399 0.153854 81.990700
-4.634936 -7.727653 67.397675
-5.170949 -10.360023 101.339218
17.271477 -9.163136 75.434135
3.357631 -10.921841 117.293396
6.383202 7.525717 81.186081
7.077265 9.628292 101.773933
-10.227990 1.745583 116.480339
9.335499 9.862671 97.557716
3.469929 -11.726409 127.798164
8.937245 -10.883887 78.628983
14.738240 1.850775 127.170372
17.954458 -6.889326 72.334206
-10.034778 -8.452241 124.931320
-3.532466 5.705894 115.462387
18.303806 1.899519 96.021973
-18.200474 -7.344615 89.853394
-3.997204 -7.623424 67.072166
-12.550092 0.431512 123.964821
-13.644637 -1.254881 130.027527
-4.337646 -12.407227 115.371994
-15.295662 -7.337561 70.567841
-2.053516 7.794226 76.163994
20.389730 -1.337212 73.463997
11.645369 11.701215 91.914490
0.491444 8.491486 106.125221
3.611001 6.012020 108.960281
-8.367181 9.064890 129.339493
2.909066 9.003271 106.267326
3.218561 -11.274644 77.688560
-12.080957 8.886643 87.158279
-14.102683 -9.241166 135.231430
-18.707710 -5.055025 83.527313
-14.483030 6.308551 97.770813
-11.870353 7.357409 128.377243
-13.209763 6.261125 102.866104
-0.736121 9.375893 70.905457
13.199587 1.020776 115.619682
-12.572394 6.491969 104.283966
4.605599 6.099550 123.273216
16.248682 2.050471 101.007965
8.457377 -12.101707 124.756126
-11.210140 0.554724 117.349960
9.587545 1.691304 118.517815
-11.889661 -8.267066 115.776176
-21.458164 0.364405 93.345856
6.910066 9.557206 102.571068
-11.222310 8.629488 85.037567
1.275982 8.097531 63.243355
-12.730950 8.134521 74.570938
4.584690 -10.857188 81.958534
-0.607493 -8.803699 86.337830
-9.399434 4.488476 123.049835
14.552711 8.452267 81.696991
-18.064558 -7.671019 73.749702
11.377201 -5.584370 119.823471
-14.842127 -7.600331 132.862488
14.114331 8.315110 94.664757
-14.204901 -1.763281 104.098755
-14.425796 7.861317 87.195778
21.421513 -4.183127 78.253616
-11.777882 9.497073 81.276634
17.281467 2.159763 83.637871
-15.155772 0.069207 132.325241
-5.010666 12.533776 94.897072
5.275251 13.679620 93.253342
6.955932 7.668320 128.204102
-14.461000 -3.856068 110.424637
18.163572 6.811435 72.163742
6.049266 -8.499179 98.939827
9.741594 -12.144642 137.509720
14.774655 7.628200 76.888527
6.230359 -12.060813 123.256187
-15.391927 4.142335 96.510757
-16.081612 -7.767678 69.950546
-20.386980 4.276753 81.437546
-12.712357 3.808379 126.961700
13.802588 -1.131395 125.641121
6.551462 9.222939 86.178650
9.280604 -8.989086 93.072495
12.700171 -8.772518 106.315994
-1.017825 -9.440063 70.769760
-4.034735 -10.819206 97.490692
-2.857010 -10.033917 102.445045
6.102920 8.728438 71.088112
15.294294 -8.261399 135.865189
-3.388922 11.853404 88.204842
10.145897 5.243140 106.452354
-5.633167 10.427698 85.211441
10.853289 7.167728 107.899040
5.640911 -10.085431 75.185242
11.521513 -7.884478 127.447716
5.213508 8.102201 68.529755
-11.514702 2.384881 124.765137
-14.341699 9.357607 72.405167
17.870953 -2.475259 102.116943
18.724823 -2.335716 68.330208
0.485619 -11.068271 133.859940
9.098086 -12.991261 135.737686
-8.146359 -13.027868 132.305145
11.103230 -11.973741 135.956924
20.433628 4.039646 76.424652
11.524637 -8.051066 116.313423
5.663157 5.371574 115.204819
-13.417990 -7.901442 112.306175
9.999903 -7.175457 99.734787
-14.561365 2.541360 131.280762
8.192232 -8.888293 106.497169
-9.762383 8.291676 65.373825
-1.374051 9.175872 116.505051
1.660665 10.334682 98.340012
10.309319 -9.916625 69.184418
-16.891260 7.933254 70.419296
-5.736916 -14.925056 130.723236
-5.546539 -10.945476 128.071732
-4.575332 -10.146305 90.142097
12.749673 -11.905592 132.217911
-7.610014 8.108397 79.226852
1.801547 11.718815 131.702530
16.017780 0.754903 103.350510
-17.552298 7.733026 76.561966
-12.815955 1.961676 113.503021
14.383899 1.016775 105.434578
1.674475 -8.591608 91.983070
5.999938 -11.184431 113.142281
14.199195 6.714441 88.034714
-8.476398 8.686054 73.229088
8.378579 9.922652 77.981140
-8.112309 -11.041809 120.155884
-6.559035 -12.968880 125.271492
6.585288 6.281645 124.128120
-4.480827 -9.848719 78.186317
3.222169 -12.620510 129.513687
-20.587933 1.549899 69.365433
18.805103 0.847157 93.063797
4.059707 12.259309 96.869469
-12.253538 7.233302 130.603287
3.903210 -11.969258 107.828934
2.362903 -13.107876 138.254868
-15.566928 7.131455 85.878906
-16.565096 5.772850 76.495865
19.510109 -1.321092 70.088165
-8.439146 -9.697598 69.788193
2.692508 -11.529183 108.242989
12.798822 1.672477 146.197937
-9.346009 9.250825 98.435074
-16.022522 8.400764 74.575371
16.865273 2.968905 90.034386
11.131023 -9.063891 104.577400
-12.938685 -2.874040 123.611816
-22.129826 1.033117 68.881813
-11.547640 9.753515 96.668854
-0.008629 -9.466290 90.017113
3.676333 10.924289 104.668900
18.103945 -8.743706 91.514351
13.220783 0.643510 123.026855
-18.708906 5.357102 77.547279
-16.192493 7.367526 85.491325
16.542067 5.690902 99.853127
-19.394140 -2.580044 66.183693
-13.330227 -8.782076 131.123764
7.685633 9.095347 102.316978
5.489994 -11.056496 80.589584
5.596842 7.973623 123.349541
4.491878 7.940526 66.824547
-14.359837 -0.611606 126.686012
-7.058509 3.378183 113.657700
-8.929347 -8.552585 75.308807
20.206615 -3.971157 90.736320
13.787644 -11.211796 78.730713
13.765025 -9.941186 68.922035
-4.701069 -10.671623 72.842575
0.564298 6.968070 108.115883
-14.144169 -9.217078 78.686829
18.401676 5.773014 66.791283
-8.983747 -11.388721 89.451790
-11.201560 12.603157 145.447571
-6.400978 8.199942 73.892067
5.390944 -8.988659 93.938202
-15.998552 7.280003 90.005905
12.017417 7.190081 100.255333
-12.121642 1.402860 119.546730
9.514975 -7.654811 71.880165
-6.302831 -11.487071 90.908745
4.240640 -11.970812 104.255058
11.006942 6.708829 99.241409
3.588253 -11.138268 119.593231
-7.335718 -10.107447 112.827423
7.628016 4.662178 110.260162
7.339897 -7.880140 139.143921
-5.010983 -10.575998 138.249771
-14.057407 6.421419 129.847534
13.706790 -0.927319 108.839233
5.209050 10.337450 84.369644
9.932847 5.149229 106.975159
5.132688 -9.355795 74.595261
-12.780864 -10.685322 83.614494
-18.142515 -4.433434 95.451805
-3.362777 -6.464486 65.615425
13.514770 8.965577 88.950081
4.419611 7.953468 107.390297
-7.891741 -9.680793 87.074203
-18.280676 -3.600781 95.461426
13.745474 6.995423 104.522903
15.736832 -7.724059 131.523590
15.182703 9.173756 72.716072
-7.917333 7.708251 107.111191
-8.760496 10.423801 99.333954
7.318336 -12.200017 122.611580
1.421601 10.575448 104.190269
15.617478 6.992567 96.698967
8.469227 -11.255207 79.746773
13.632827 -5.835053 121.379036
12.837440 4.572502 106.941658
-19.061478 0.972767 66.111069
-2.762162 -13.032976 102.278824
-7.615845 -7.179137 65.919014
16.546555 6.430406 77.365799
-15.179639 6.235541 98.254105
-4.338732 -10.060683 98.521645
15.135518 8.720710 91.000664
8.438686 5.116116 119.922462
-11.629274 -7.711182 69.451851
-16.618593 -5.669726 71.471199
-19.483213 -1.590039 95.554626
-22.005798 -3.689854 79.540512
15.085922 -8.525740 72.365387
-5.332745 -12.382627 119.235573
2.552620 7.776646 78.303345
9.960143 11.497479 90.772858
18.850050 0.295436 68.483894
-12.275508 9.614430 99.766655
7.842788 -11.148438 123.908600
-4.502631 -14.861887 130.701370
20.146063 4.810305 75.311035
13.766173 4.550399 105.818398
-2.539111 -7.585469 65.414459
-4.588226 6.751095 122.533943
13.381230 11.737044 89.237068
18.782318 -7.382607 82.609459
7.898410 -8.885357 64.338699
14.742102 -6.660171 98.268700
-9.855001 10.255310 129.732056
10.426943 9.634125 75.875374
-2.154019 5.782300 76.705902
-9.539656 6.564787 115.841858
-8.501031 -10.095814 106.228104
7.640075 12.033464 86.745956
12.087708 -9.360962 91.039627
18.670408 -1.133460 95.830116
10.930134 -7.298658 138.554855
-19.447342 -6.647408 90.975693
-8.087415 11.098562 77.939919
-20.119722 -0.322217 87.792564
11.870724 10.327929 84.594208
-17.701246 -5.334283 66.481224
20.270857 0.516016 87.710953
-11.804444 -9.087204 119.433594
13.688634 -6.072304 107.575378
9.730336 -11.098705 128.251770
16.447077 -5.054086 98.243263
-14.787748 -7.514825 128.023849
-16.189701 5.369811 91.773529
0.107824 7.770180 124.292274
-14.929926 -4.396750 122.437889
4.148507 8.405916 105.778702
11.426851 8.624819 66.819572
-9.076363 -8.205537 68.623001
-11.595181 -5.990503 119.051300
2.825379 -11.640175 122.988075
-9.126304 6.163220 105.697083
1.581136 -9.431669 85.028114
-5.279915 -11.352310 104.114662
10.437468 -10.434848 127.922112
-18.283733 2.183199 84.173820
9.046243 -9.456851 103.370178
4.439325 9.716928 127.104881
-1.097650 -12.244141 128.335373
-11.290149 -8.928441 137.828659
-2.066971 -9.163504 98.103676
8.079878 -12.043773 123.734100
15.263377 -7.839962 130.398209
11.918127 1.066810 112.919548
-11.261024 11.565045 91.689201
18.999161 -4.568706 70.152267
-20.951292 1.649318 86.359467
6.278435 -8.465163 76.839989
-11.974024 10.486584 96.161720
-6.780216 8.255961 131.265747
-5.124967 -9.555689 93.828506
-14.942053 4.984845 97.064941
-15.037931 -7.325395 138.694214
10.113786 10.838424 99.361748
-20.024242 -1.760696 80.465889
-8.938450 -11.049664 84.769020
14.874740 -5.441243 133.038818
19.439507 2.675319 84.537758
-5.909246 -9.757286 81.969337
3.389538 -9.296633 85.366386
-0.086546 -12.192434 125.739441
-15.629800 6.761802 99.614883
-6.211488 7.437115 71.049904
-9.843838 9.075619 87.065643
-15.616396 -2.413206 126.717789
5.675550 8.038247 67.490524
-9.618809 -9.877723 87.365273
-13.950758 11.464042 91.685966
-11.418352 -10.002604 102.509087
9.335745 -10.511360 116.036911
-11.187692 6.855582 71.621048
-12.217900 -9.939233 127.987549
-3.871308 -9.733493 105.819839
2.944496 -11.318565 99.765358
13.946197 -8.553094 65.680374
18.553017 -2.338114 69.346504
10.000678 3.385659 121.637062
-19.363449 3.648189 65.209412
19.657513 1.918073 69.189735
5.767341 11.388919 90.506554
13.460071 -8.668924 93.190063
-3.998886 8.886674 105.692238
-16.918440 0.112181 101.259903
7.939947 -11.481424 88.032761
14.325903 6.131411 90.854637
13.756738 -9.948274 86.669861
-15.610107 -7.804977 86.151299
-9.384677 -8.498786 66.925171
-5.579217 12.073189 99.974960
20.491428 0.038631 70.899673
8.915492 7.412839 68.599022
-20.720385 -1.895511 87.158775
11.547593 -6.852093 115.579788
-13.284603 3.455205 122.825592
8.098757 -10.928528 93.073372
-0.491235 11.086770 85.058640
13.767235 -9.152574 88.044426
15.298895 -8.905517 78.511040
-10.744879 -10.442780 137.922653
11.482880 12.627972 91.468430
8.820930 8.520339 103.999207
-11.952533 -4.174660 117.100677
-5.588533 7.041654 108.560898
-22.471397 -1.971253 83.116478
11.671930 -4.700491 124.725594
19.575871 -5.771772 65.981537
18.294264 2.337424 80.973907
-0.062436 8.742641 65.293396
7.982829 -9.851769 121.688530
-12.731974 2.650322 121.602577
-8.316676 3.930563 118.015472
-18.667250 -3.304678 70.462677
4.939910 -9.536757 85.189713
6.313893 -8.513914 96.317833
3.736207 -9.655879 86.502068
7.371997 -7.575111 139.460266
4.668931 -13.719534 128.418045
13.060706 -7.109890 129.259872
-5.976872 7.428882 121.557732
1.898604 -10.958860 119.883659
7.675012 -9.348035 110.078583
-17.083113 5.253817 95.022995
6.569263 7.463372 110.286369
-14.757092 -10.186724 70.894119
0.428081 -11.946877 112.152733
-7.596519 -12.242330 134.759415
17.675962 2.199703 98.236443
-15.097387 -0.129879 134.669113
-9.845922 -9.534534 122.928459
11.842389 -8.952753 125.099785
-4.549839 -13.186833 128.412399
13.588426 -7.729985 104.683403
19.268267 0.916414 96.077744
-3.134018 -9.796735 82.520134
19.491930 5.768732 86.142319
-12.126519 -0.324751 124.089668
5.462444 -12.509195 119.578987
3.941202 14.791896 89.451973
20.508244 1.354033 81.202927
0.603023 -13.132448 122.935516
15.922879 -7.774732 107.196701
-2.784680 13.350543 93.536827
18.214500 5.874646 77.724533
10.362741 -11.431111 129.649185
-17.715199 0.217427 103.925575
9.021735 -9.376878 101.437469
18.386232 2.464528 67.971657
-12.668536 -10.154268 69.235214
-10.866357 11.830495 86.828255
18.010712 -4.405375 77.766998
-3.819864 13.703793 96.054031
-12.167653 -2.288154 119.386749
-18.468607 5.719294 84.053909
2.125536 -8.681931 72.077324
1.695811 8.946637 120.169930
2.092054 -12.691066 116.581177
8.791430 -10.871011 86.300507
-7.691258 7.230247 108.819763
-13.186592 0.659431 108.178902
-1.093123 -8.584445 67.360008
-11.828855 -11.486489 137.482101
11.845159 -8.147534 65.304543
1.432832 -12.112214 88.902199
-0.987218 -10.153234 81.897858
11.520799 5.255177 125.432137
13.644181 -8.682400 136.944336
-3.101378 -9.389538 80.313652
6.907847 -11.310899 111.486908
1.517964 12.712300 89.877571
11.818867 7.555738 131.090790
-13.705604 -0.719147 126.417900
-12.800050 -0.235517 111.052956
-13.185301 8.083825 68.379906
11.118616 9.418556 148.374863
20.358374 1.987413 66.498566
-17.541660 0.849522 95.670959
-12.564203 -6.841444 125.122192
14.307101 -8.669991 72.645592
16.185257 -2.099466 135.021988
19.778673 -1.125059 85.257515
9.754303 -10.520607 96.779327
15.388000 -10.156077 91.877739
-15.371311 -6.946083 99.197838
-5.247703 -8.992053 102.444489
18.973955 4.526413 70.648003
12.162320 5.146960 106.125565
3.031748 -11.358652 95.369705
-9.095106 2.471404 124.402199
-6.122528 -9.418873 99.445457
-5.588514 -10.001808 121.000145
16.429554 -0.184543 104.169525
9.414197 5.788516 113.078690
8.606797 10.832971 132.789368
6.069996 14.228873 93.879562
12.513579 -8.890260 99.526886
9.572013 -11.863210 79.947426
18.993973 2.525704 87.671661
-13.276223 -10.137402 88.054832
16.031677 -7.356485 66.300659
11.062895 -8.457975 127.230217
14.824329 4.584686 107.731697
-8.490536 -10.131685 125.244926
14.730514 -9.708202 83.104614
5.691563 -7.389512 74.870010
-12.614542 8.466671 129.501404
19.597237 -6.382324 65.832481
10.788263 -10.745263 94.942207
8.601641 8.410072 109.193001
16.536552 -8.749481 79.405136
4.152409 7.541858 66.979797
9.102400 -8.180223 71.115906
-15.457541 7.088829 67.098824
13.506599 4.113685 106.161423
-5.723370 10.221544 105.539978
7.416395 10.800674 102.253693
20.199776 -0.870207 84.585808
16.415625 -7.225426 84.645821
17.150051 -5.482642 70.648232
0.759421 -9.320708 83.312431
15.317875 3.869773 97.025742
-0.469098 -12.213637 113.717148
-13.014284 -6.786299 120.475105
-8.722943 7.642490 107.629417
-9.824662 -10.767540 109.749428
-16.069300 -7.797637 129.922974
-12.021407 -10.745079 97.149124
-19.802723 1.886299 75.326698
2.765928 -12.420084 111.799492
4.334192 7.930894 76.120331
14.580857 8.452197 72.308525
13.679505 5.866558 100.863663
3.909636 -11.575047 121.116264
12.410935 1.624854 117.401245
-15.028153 7.160561 95.709785
-10.736125 -6.217411 139.572937
-10.920128 5.768015 125.088051
5.946989 -11.624190 123.797234
-16.974598 8.057240 92.957642
13.507207 8.605111 67.471741
-9.568334 7.988359 130.401688
-12.877810 6.401072 133.879929
-2.467647 8.490364 68.755386
0.796813 7.900772 120.057625
-8.978855 11.986674 88.334175
-2.496475 -7.289474 74.263809
-20.160837 2.287957 73.535057
8.676480 -9.234356 105.566986
2.216006 -8.827682 68.422989
-11.262849 -13.389820 87.430847
-15.638106 -9.701981 88.554008
-13.493197 -6.770578 113.316887
10.841016 -9.321136 108.829460
-7.345962 -11.372988 78.496384
15.511289 9.285398 94.311462
-12.569433 9.702964 101.453140
-10.228501 -9.383574 78.967239
-2.370873 -12.991504 112.943474
15.218698 -9.850783 86.080910
-15.958626 -5.691893 101.466568
5.278087 -9.844619 71.256111
-10.687191 0.460974 117.544212
10.508709 5.484303 108.130310
-1.226471 10.846889 86.376289
14.095571 6.894864 131.399094
0.304346 -10.135329 72.812172
10.372011 7.163195 124.553085
-3.682107 -11.650647 116.629219
11.528950 -7.835955 113.970444
12.793526 -6.128108 126.062576
-18.018303 0.643206 95.990227
-16.121447 2.117692 107.958832
4.059542 -11.193542 102.794998
-15.376891 -7.729214 95.020561
14.830318 8.101095 78.192039
20.410589 -2.106753 90.626602
-21.131645 1.224548 68.367599
16.464029 8.989693 61.356071
18.051180 -7.745424 80.602043
-10.523440 -9.499575 90.001022
-16.304832 -7.097165 86.646965
-15.293326 2.796062 97.390587
20.177141 -6.501007 81.197403
18.931488 -5.639935 95.232361
-8.807172 -11.276092 108.401543
-8.438194 8.346863 129.135422
11.589191 12.167942 89.983696
7.812437 -7.638017 66.676460
-15.471643 -6.508167 95.719727
-11.704013 0.558159 122.308968
-16.239655 7.518219 92.367699
6.996560 -12.637125 134.350174
-18.121321 -7.751514 77.212349
9.752061 7.993815 78.941689
-9.945260 -8.024418 100.579773
13.594703 1.731104 108.119720
4.779244 -8.674208 76.147736
-4.146473 -9.158645 97.924995
-16.754915 -2.305112 94.766708
-17.934525 -8.160848 67.501747
-6.154190 7.778464 108.991013
-10.337971 -9.004128 76.348831
0.937330 -12.059080 80.489136
2.840044 -12.652455 114.725227
16.699558 4.223938 97.242958
-16.760090 2.081129 104.291389
16.611250 -5.119052 61.526371
-0.182212 13.380438 95.361938
19.502075 4.609719 72.752594
-6.776686 -9.536402 90.436401
-14.695552 -6.111385 106.223198
4.895741 -9.624632 95.039497
4.360620 -9.876836 74.626274
-19.750147 2.681774 84.347824
-7.992188 8.368480 82.958488
5.830332 8.242468 66.717613
-3.585348 5.868566 117.469360
-20.110466 -5.253306 84.253693
10.962203 9.709559 130.831650
-5.144051 7.869588 65.952675
-13.448589 11.622850 85.582542
11.748715 6.539090 126.359818
17.278448 -9.290964 77.405586
9.775459 7.326925 128.693817
13.882854 -7.272219 71.146973
6.491606 5.856421 112.684418
4.930367 6.397092 110.790688
7.699222 -11.265615 79.967682
-16.032106 -10.657258 77.609657
-4.045353 10.028550 101.725845
3.836509 -10.645361 103.568474
-11.830174 6.991109 74.160583
-11.066743 8.934792 85.096237
11.988741 -11.111036 77.794296
-8.288837 -10.337915 83.304207
17.151167 -3.365731 108.662628
2.768404 -12.772972 133.453094
8.291804 13.130749 100.896446
0.851815 10.550114 64.590286
14.302337 -3.964296 107.397041
4.687434 10.674388 128.388519
-13.860214 -2.800879 114.970947
1.964645 12.178320 96.810760
7.812696 -10.482533 102.206284
-19.775694 2.321526 84.459755
6.004654 -12.701525 127.941139
4.144698 -9.160204 95.880386
18.801765 4.459531 81.952095
-21.598497 -2.149293 80.180252
-1.032429 -8.790051 92.609573
21.640512 -1.721533 87.018608
19.933310 -8.008433 81.864174
-13.100405 -8.207603 100.014771
3.059238 -10.032334 96.472870
-13.340834 -9.089987 73.720093
12.151257 4.917203 128.886871
-3.385446 -9.771082 94.977104
1.712299 10.862555 103.476051
19.505358 -0.560414 71.790352
14.019489 -5.133467 109.976112
11.401671 9.688513 75.714561
12.694286 -9.543326 92.295334
6.352109 -9.497987 79.944580
8.053040 -8.826550 62.836472
17.920778 1.161622 94.471367
-9.481781 8.489429 70.144875
8.512328 11.870876 140.615448
9.543362 -8.988207 66.072624
5.015082 9.320045 104.819939
6.772329 -10.416947 120.592468
-1.546678 9.286542 107.994026
13.613102 -10.598756 127.035149
15.485327 -10.617995 94.712135
-7.534825 6.644697 78.733757
-16.324509 1.373163 107.976166
14.222782 4.213937 108.208366
8.667226 -6.677968 59.997623
6.612548 14.018128 96.430443
8.920634 -11.164680 126.802666
12.376001 -9.879296 81.311874
-15.818156 8.035197 64.824394
7.098001 5.464817 107.748878
9.302671 4.493846 112.414986
-17.122164 4.144103 97.775284
-10.453354 3.704462 112.830215
6.798765 6.060118 118.609299
-2.105263 -12.648606 121.372681
-9.973474 -7.493544 141.005005
-8.884172 3.851158 118.413818
-12.574304 7.522121 101.419556
-13.617749 -4.598483 132.795258
3.964232 8.498521 78.148575
12.449414 -11.156466 78.955750
-10.780011 -11.011570 90.113380
-8.914396 -11.028778 108.549927
16.992138 -0.316774 97.221481
-8.169877 7.709774 131.827011
8.105208 -9.606197 139.607819
12.581829 0.282783 111.431984
-15.442603 -5.569887 105.956673
10.155437 10.976145 85.268074
-9.359662 10.020799 86.956665
-17.477638 -7.883694 84.171936
5.166166 -10.879606 125.573120
11.766089 1.164136 120.628242
8.623013 7.941430 77.418610
8.302611 -11.234400 119.814056
-17.638834 0.279818 102.500221
-16.441847 7.181082 80.655701
-10.848738 4.775893 121.489967
-16.456409 -6.641306 101.208275
4.574430 -11.645859 102.797569
4.786482 12.672251 97.660492
-14.101320 -7.293521 125.269005
14.628736 -7.397655 136.678131
-10.706290 7.841031 105.017670
-17.818356 -4.036656 95.346756
-1.613777 8.104026 125.221489
-18.871689 -0.610939 74.047607
-20.977148 -4.045819 80.663399
-17.241186 7.109553 86.404640
-21.341022 -1.039611 79.057877
15.434746 4.544907 97.971321
-18.452505 -1.259675 66.370583
6.857040 -11.464386 126.074631
13.474407 -4.104177 113.348038
-11.458858 -7.775871 124.824707
15.793924 7.683798 87.496246
6.261753 9.222498 85.788788
-9.766847 -10.718575 87.076462
-16.887337 0.862005 88.033836
-9.711775 8.617839 97.070778
-15.938924 -7.516969 95.014984
-0.608604 -8.333240 74.136826
5.556937 11.350344 90.127449
