ply
format ascii 1.0
element vertex 2048
property float x
property float y
property float z
end_header
-0.032713 12.991317 137.321289
18.714697 -7.714634 88.484749
13.322846 0.675941 108.290955
-20.653252 5.360700 143.303253
3.084596 12.908981 70.490387
-21.668509 -4.551286 40.634457
20.400261 4.901177 74.086586
21.258434 -6.585135 39.646599
13.183924 1.393671 119.171906
6.809942 10.672361 101.189896
16.517967 12.032945 36.480850
22.778875 1.176789 143.965988
-2.330836 17.867950 38.844353
-1.172035 11.156349 59.297005
-15.097312 10.113862 70.853760
-6.879421 12.619834 131.404663
14.129795 0.497781 98.660965
-0.685904 -12.048044 119.442505
9.238811 9.094753 125.397346
1.912511 17.610527 49.369492
7.792500 8.771398 110.911552
10.156774 9.562591 98.659973
-19.969692 -10.968066 41.088474
-15.646967 -10.729886 48.078686
-13.237804 -6.038846 105.991501
23.452034 -8.551386 51.843128
-15.563773 -9.304737 92.612244
20.841703 -8.679992 71.808563
2.977086 11.892987 87.328705
22.469896 1.035091 51.581474
0.129223 11.613612 80.836426
12.384525 11.287720 43.597534
-15.955120 0.701374 102.962822
-16.365814 8.312186 36.984295
-5.474765 -9.894021 136.770615
5.887169 -7.088921 144.834320
13.454521 11.828664 91.014160
-7.530211 5.393703 111.991959
-16.328800 -1.372873 98.343567
6.815086 6.260972 125.087334
21.112953 -12.499566 36.415653
15.916877 -9.959944 49.820644
-13.550534 -1.416377 130.679367
16.853535 -10.452329 44.027317
-14.774945 -4.266893 92.328102
-5.917667 -8.017090 102.821465
-20.334972 -3.260152 52.784180
-13.594170 -9.001251 87.612022
14.074410 -6.029377 143.182114
-12.183769 5.123656 119.817291
13.219110 4.910968 107.634972
-7.191265 13.107119 138.221008
2.307708 8.860987 105.007042
-19.321283 4.319108 62.894363
-3.943357 9.084603 70.662292
-14.274872 13.281550 57.368599
-6.594910 -10.648886 117.559158
-1.244882 11.853938 70.297836
-6.512301 12.189386 139.209503
21.517895 5.427851 49.746552
2.000230 7.396346 113.041534
5.424957 -14.183030 132.147507
-20.667776 -10.271652 65.077080
7.862104 9.403984 105.600563
20.020905 -7.358865 56.657978
16.640633 1.850985 91.611458
-14.778316 11.804344 64.619469
-1.008590 6.787964 45.218513
-16.229996 4.013391 95.560150
4.150452 -11.658730 113.290718
11.388160 -10.453950 81.907700
18.510494 9.951908 147.328369
-4.933293 -2.465093 150.817368
18.977381 0.325665 72.275673
-11.663100 -7.261854 114.482071
17.209656 -2.913431 41.322254
8.187689 9.112297 78.046425
2.408453 6.975090 121.343605
10.261674 2.277938 145.169754
-8.492972 -11.934395 136.688553
7.584630 12.234573 81.481758
13.984150 -10.199348 45.006443
-11.933613 -12.849276 131.740738
-22.833260 6.455893 69.206009
-23.469843 -9.907510 78.028313
-11.051476 3.517313 114.460701
8.824933 9.071796 151.498657
-9.294714 -12.104013 125.231995
-18.925289 6.740064 52.956741
-5.078768 -10.349252 97.952293
-13.339726 7.711504 92.042343
5.328462 10.198075 76.894897
4.367791 13.542133 48.406467
-14.767256 3.632409 131.004166
10.876424 6.616158 103.329994
20.647062 6.703151 43.021301
6.589818 7.248433 115.692001
23.379377 7.381344 48.227428
-6.581071 10.676133 53.645409
-22.868048 6.052120 56.550228
11.780133 -4.270260 117.177544
-21.913326 6.551675 144.638077
-22.895115 3.622320 38.552380
6.353345 10.654166 103.995232
11.223042 12.960939 72.576149
-3.482403 -12.787016 119.615280
-17.205748 6.629393 94.975983
2.345619 8.218475 105.351128
23.227793 -9.443638 38.784477
-4.162492 10.162939 74.949203
3.553794 14.231534 145.340958
-15.207825 -4.004545 109.965431
16.001640 -3.413444 62.172749
21.668655 0.815940 58.462711
-10.483502 16.111675 38.719402
-10.021839 -11.724322 41.272476
-3.251156 10.850141 129.199570
4.274722 7.237842 122.430923
-13.820480 11.120035 80.824776
6.396449 0.422464 147.012589
5.547446 -11.451760 105.611221
-9.153461 9.334752 102.106438
-10.498990 4.040779 113.894432
9.736371 -1.234947 147.028107
0.794649 -14.854489 113.450836
-23.158722 4.475706 74.865097
-9.894190 -10.160727 95.515388
-18.897741 0.382665 145.924698
-21.287025 7.711916 47.098511
21.387438 1.758114 48.375729
21.593462 -1.122391 88.218384
24.430706 -9.147654 54.292629
11.323845 -3.514772 115.511711
-8.183993 1.645142 120.905418
-0.773466 -9.536404 109.050140
10.535788 -10.358590 124.998413
-22.815321 -6.108847 44.008286
24.862167 -10.398381 43.497955
-18.592400 -9.431712 40.535416
10.366552 12.877018 100.708534
-10.728019 -8.629080 109.803612
-5.206137 13.317217 81.880646
18.762762 6.030262 150.741959
18.655455 -5.308563 77.137650
-14.685511 7.129519 99.083588
12.117873 11.340291 84.818161
-8.490858 -7.750840 141.192764
19.560396 4.914288 149.442139
21.456968 -6.055252 55.148338
-18.499290 -0.952713 74.266541
-17.059586 8.307277 78.159378
14.082118 7.029297 127.262276
-12.225245 11.272509 49.236828
-11.856982 10.774465 91.523727
3.626849 -12.803293 137.435608
-21.345078 7.994553 70.199722
14.141045 12.198398 60.109463
5.047274 5.343340 36.614738
6.226202 -5.189381 149.767593
-10.358541 -10.054561 82.369095
14.116880 -10.406886 46.404213
0.336496 9.628662 109.759712
-20.538689 5.748431 146.577408
-0.420247 10.096920 53.655506
19.881523 2.745788 55.760025
-20.975798 1.156048 44.911201
-3.108298 7.553474 42.221771
-12.994326 -9.137893 115.075783
13.593621 -10.955969 45.794392
15.093625 7.982290 150.434311
6.355652 10.206141 60.429508
23.099594 5.009971 50.167435
11.790195 3.307913 132.245087
-3.218156 6.706609 112.554596
-14.610898 7.187082 78.797028
10.708741 10.366974 92.700905
-9.811658 -10.615074 100.644958
18.883362 0.216403 74.904694
-16.810169 5.275726 146.956543
-17.438400 -10.760196 63.174358
4.310137 -12.783883 138.608582
15.835182 -9.390859 58.714233
-6.216364 9.847756 149.070068
23.873291 -0.909363 42.222385
-7.796193 13.376486 145.625381
5.407478 -10.658355 117.477692
21.188377 1.184732 61.707203
-11.231784 2.686041 121.643417
12.263821 10.755637 77.855095
1.405825 12.906082 132.466187
-13.103301 9.816449 89.294395
12.653929 -1.158596 133.352936
-3.964959 10.589113 131.263214
23.311241 -8.801785 43.895687
-16.237556 -10.833764 44.035004
10.627851 1.104073 150.183060
-12.951298 -11.395226 80.624573
12.146381 -5.930044 115.974411
23.596165 -7.330048 69.825577
11.171905 -11.868310 123.297897
-12.133753 -10.973439 129.167297
14.294425 14.542966 59.319164
15.862997 6.308478 91.543968
-7.956653 12.160046 83.129158
15.496691 6.295138 136.645828
-16.211750 6.670612 62.715111
-6.733961 3.859644 154.209122
-21.427786 2.232381 44.965084
22.193558 10.117287 49.290257
-10.964764 7.659209 66.615219
-13.183980 -2.765545 118.016861
-6.286731 11.733108 149.833710
-6.080835 6.449361 151.694839
4.623025 16.129869 40.244770
0.110654 12.611138 48.656174
-13.068028 -11.312571 135.910629
-19.953833 -7.668716 69.217140
-13.020661 -10.316232 40.298920
-20.455330 -6.236014 75.163284
6.855608 4.775465 107.712669
-10.018692 13.715429 148.840866
-3.973455 10.910289 131.776886
13.430031 -9.674318 106.021446
-10.897618 7.591152 150.170883
-13.308472 11.022020 92.935860
-14.784016 -11.032223 36.394016
-11.714289 12.364036 56.484257
21.448742 2.260359 70.495720
-9.977570 4.596787 126.295601
-2.597293 12.435475 54.107460
-18.464750 -1.851296 145.102966
7.464447 -2.192982 144.898773
-14.294709 9.542845 66.187866
0.964636 10.469984 151.655807
21.209011 8.309711 138.469147
2.218902 15.408982 148.227905
-8.948382 -4.528933 142.743576
-1.931629 11.527982 90.258926
-1.895972 9.257078 105.752899
-25.174389 3.039257 142.618073
16.484520 -5.644886 119.194260
6.301838 6.606604 114.101646
12.801854 -1.750211 150.881042
-5.364693 6.044346 154.022934
-24.793556 -0.461209 140.914352
4.540824 14.191408 41.992832
-15.040874 -8.975159 70.129990
20.794567 6.810657 55.581337
-12.617530 14.166511 67.051918
-20.009195 -3.600096 90.215477
-2.031805 7.119258 36.456314
8.299953 8.127960 124.426102
-8.256241 -4.627961 147.704834
-10.366456 10.145314 105.163841
7.857162 -11.145112 110.252014
-12.003345 -9.778901 70.274437
-16.106863 11.672253 40.656689
-15.351366 2.861277 103.448349
10.190500 -8.064087 109.185982
12.594443 11.878061 145.286484
-1.016706 3.769431 115.169518
5.962754 8.039830 154.383194
10.344220 12.983836 70.125977
-12.477035 11.465257 77.736259
-14.111313 6.816255 136.835892
10.543804 12.554056 84.998856
-7.424138 -0.075489 153.598297
22.736221 5.425597 61.413914
-15.198247 7.503379 72.441216
-9.395820 10.640040 34.521523
-16.651171 10.680325 59.120758
18.815495 -2.501155 61.231209
-15.266494 8.116331 90.856491
4.555791 6.730639 156.542389
-13.758667 -10.022133 74.519096
-20.274969 3.766512 72.967361
-21.048944 -0.387009 45.061279
-2.988412 10.004168 47.356308
6.358675 13.022360 145.067108
-13.504020 -9.229727 56.242241
9.474327 2.607790 153.748154
-16.073463 6.330827 152.406494
-20.904696 11.951405 134.541351
-19.367231 10.006142 86.029045
14.254141 9.721800 149.958191
-21.391312 1.814864 140.349976
-21.814220 -6.729115 41.414387
18.246477 -12.959502 36.079762
23.583618 4.881788 42.004742
22.401291 -8.422653 42.507824
18.149000 -3.759052 84.708427
6.015942 6.949311 153.410828
21.726677 -3.877254 43.360176
-3.707017 4.427107 117.725311
-5.263971 13.529404 92.212082
-11.103397 9.106188 100.100929
-14.002812 -1.631122 130.496887
18.399935 2.566769 149.016663
15.361423 -1.341425 148.271347
-19.230936 3.713048 86.976341
-14.221186 1.855001 135.820328
-7.646453 -6.004508 59.317089
-12.967395 11.281830 44.009567
4.899733 7.311553 117.177643
-6.174395 -9.434096 141.779648
-0.238133 7.844151 37.138229
-10.979206 -2.181262 146.733688
-12.763326 -10.265634 125.175865
-18.510477 -9.879768 46.332481
18.297583 9.717206 46.263443
11.887873 -6.974889 112.721336
5.370844 -8.024775 115.030807
4.594970 15.392078 81.981750
13.955729 -2.892787 128.534668
7.081873 -11.597412 97.550774
-2.502483 13.502382 91.884949
-13.162050 7.370463 136.032318
4.712078 -10.041672 123.906090
21.185715 -8.774579 55.645527
-5.165239 10.727641 82.422295
-14.644933 7.527177 71.418541
-20.970997 9.077690 45.025307
-10.386726 13.292987 42.507442
11.944886 10.087363 45.732159
-21.927107 -4.677383 60.277943
-20.501030 -4.712590 37.650558
1.683559 10.881290 77.799416
15.249813 -0.785403 100.946198
-20.854176 3.851562 62.791378
24.333851 -2.111997 139.056808
-7.717247 -11.809422 73.329651
-7.010378 2.857451 154.036057
3.322311 -11.264638 111.222488
0.577057 -13.984788 117.064201
-18.953743 4.007068 67.221741
-9.757450 5.779422 106.997169
13.844418 -9.524345 130.205124
-17.176817 10.665691 46.006367
-7.103871 12.731589 79.403618
20.119368 -2.956982 53.031704
-12.547884 -8.245928 107.045151
15.800730 -9.954979 46.029381
20.700178 0.915988 87.514656
16.490309 -0.341523 102.465118
-19.095081 4.541601 76.654106
-0.814701 -13.992189 132.108231
9.361036 12.505878 49.190990
-5.491205 13.143600 54.208366
1.812120 6.500964 121.114204
3.992351 9.915029 100.655975
13.969224 -7.296992 45.189507
-12.964009 -7.831176 119.963684
13.311331 11.904976 46.242058
14.333000 7.151495 102.732605
17.375839 11.805731 49.124569
4.641762 -11.660218 118.799423
-20.651644 -1.849323 77.224648
13.396102 4.493085 131.086456
-15.591620 4.120884 102.407860
1.502296 -13.845182 132.819504
-15.390995 -8.219333 87.358688
1.978022 8.612480 125.674004
19.862476 7.392231 143.618317
-3.395759 -10.206328 96.001747
10.231098 6.555772 121.047279
7.802019 4.936924 125.686371
13.492739 -1.859667 121.856964
4.835130 -11.917822 108.465050
-8.327417 13.436717 37.531292
4.412675 -13.829223 99.046837
-16.521168 -9.427502 83.492317
15.448527 4.456220 151.882462
18.792414 -6.019877 50.939388
-19.307602 4.247501 89.580917
-6.777854 -8.101330 66.310829
-7.905555 -8.143803 111.273743
1.793503 7.043726 117.228188
13.242741 11.503759 150.480423
5.251971 -7.727283 142.468140
0.213017 -9.419192 117.193436
4.900184 12.668075 141.815002
16.050106 -3.155774 102.042984
2.616108 14.972708 63.111015
18.905716 13.273080 39.058342
4.276939 -13.440407 111.087883
-9.338350 -9.973209 140.333527
-7.899458 13.544289 86.611137
22.297255 -2.668935 77.109642
-16.865767 -10.538200 74.272324
17.746126 1.078177 60.487904
17.174654 9.930791 85.132202
-1.356357 -14.374519 129.451904
-9.879210 10.099343 134.186981
-23.801815 3.721909 68.690147
16.669954 6.538855 80.998100
-12.697072 -9.057407 99.509262
-25.298828 4.547825 42.599300
17.281277 3.652217 104.271500
3.532406 -11.649834 107.047470
-22.270063 -8.904867 51.890110
-20.663370 10.188018 44.554787
-14.691937 13.849342 79.418953
3.224781 13.362294 55.844746
-15.347084 -8.576299 59.962666
23.367281 4.632669 65.244225
11.784365 13.665594 71.900803
9.498990 -10.369720 115.066772
-9.754189 14.916671 142.405167
6.126669 -11.356302 108.922630
0.461047 11.530432 141.879486
12.601373 12.215938 53.716240
-0.707815 14.278506 146.421722
16.540426 13.857507 37.909004
21.939657 -9.847285 48.241425
9.343624 -8.553264 61.450325
-18.098207 1.351699 92.327934
6.523036 10.748392 83.517746
-6.395796 -5.593360 141.898041
-14.418243 11.381919 140.525589
21.625231 -7.381662 33.960178
7.372837 13.014086 49.125259
19.731192 4.688341 82.929008
13.452697 -6.787603 132.883545
13.789811 -5.628382 49.962471
19.424549 -2.960521 58.568718
-9.290624 -8.195393 46.137814
16.056995 -1.102048 100.583664
-8.936111 -14.777450 82.137680
13.445539 4.490880 150.631821
3.933945 -9.851071 114.036682
8.382534 10.900331 71.530670
-9.136124 5.859293 109.567657
2.204365 6.802383 114.905289
3.872531 -16.970844 97.849998
7.772263 -4.718630 141.261414
-1.950962 -12.135552 137.765686
-6.174330 9.566322 51.857597
-1.208803 13.012644 79.619453
22.599535 5.627578 60.800037
19.254318 12.194449 36.397430
1.872586 9.981663 56.999062
-8.643853 -11.631783 96.841660
-22.783293 -13.503585 38.353153
-12.208517 -9.887336 115.425644
-10.316628 9.284387 41.442997
22.264803 5.286228 51.494686
-10.267208 8.856324 124.645996
-1.483121 7.482088 37.081226
17.895845 3.544775 67.591858
-20.105778 -5.837871 87.535439
-15.726692 -8.385177 45.695717
17.463844 -5.435261 79.204674
-0.231687 14.391486 58.214397
19.043997 6.283770 90.839958
10.893874 -11.846273 76.174820
9.794809 11.770138 52.655659
10.102546 -7.814917 63.251945
1.170227 12.971910 60.996197
23.083710 6.069413 50.545059
16.443388 -7.074878 66.469406
-9.236537 3.256590 120.462029
9.006072 6.400153 112.896858
7.930271 9.242481 83.918137
-8.557320 -10.070450 134.636398
21.500431 -3.951376 53.986725
-15.076172 8.944688 67.776649
-11.338016 6.621930 108.249451
14.369061 8.002251 137.339813
3.884532 12.285628 101.067696
-3.396277 11.748828 87.643578
11.221279 11.479174 98.324005
15.293804 10.575433 44.794098
-10.541744 -4.288702 141.015808
19.518263 3.410194 71.040695
20.441807 4.963542 68.345596
17.144676 -8.031259 99.372894
-13.661396 7.870127 59.518406
19.301374 -8.213792 84.590919
20.299835 -4.109611 79.996803
20.372759 -1.593930 143.732605
17.416073 -10.049922 68.788658
-21.464634 -2.409868 74.721588
19.485292 6.121603 67.531403
10.809546 7.444130 98.462540
20.736912 4.825921 145.323914
6.888370 -12.901666 92.945053
19.961813 -2.803160 70.789085
14.961759 -1.362952 133.371613
17.730341 -9.877817 60.483360
-6.506753 12.970910 52.490623
-20.526226 -11.799708 57.955524
-25.736851 5.464624 61.272266
23.889530 4.816392 36.779335
15.164955 0.109781 133.800278
11.605660 -5.474342 141.102142
-13.826301 15.071807 34.180195
-9.699339 9.611316 131.057007
-5.496608 6.973052 113.104324
-14.587305 -0.580669 113.849861
15.551394 -2.554146 145.820145
-3.200107 9.193275 45.399136
-0.935704 14.916475 42.594437
-17.288462 8.118623 58.075512
-3.884492 -8.407087 139.511230
20.575687 -6.625807 62.719734
-4.882553 -12.313673 132.409943
5.335185 9.686864 105.426445
18.809439 2.698283 47.141273
22.050812 -0.044490 84.953926
0.361597 12.944541 148.564148
11.745338 5.336664 127.838684
5.909777 11.223920 66.551903
-17.870716 -1.289268 139.365082
-9.584785 -12.580175 140.927078
-20.237383 1.180629 50.061714
16.534445 -6.352101 134.747223
15.100449 -10.857173 137.977493
-14.321114 6.115151 99.331688
-12.349879 8.180634 95.018280
12.977748 -8.705533 103.025574
-16.433022 -5.007489 143.344757
8.681432 3.342888 113.539642
6.654984 12.220611 94.416672
-0.168850 -12.924058 111.118912
15.107715 -1.872112 133.688934
-3.607710 12.696905 85.630821
-13.293125 -14.321678 75.448517
5.471068 -12.258077 122.587303
9.457113 -0.197355 147.423782
-7.480938 12.498192 42.803986
-12.831930 -2.112034 121.382767
5.370902 12.714291 138.158630
-14.241777 0.098870 101.856827
2.251243 14.032066 83.910912
8.998488 7.274366 153.934662
-12.891781 9.335208 47.035305
-21.213266 6.572837 66.917114
-11.504345 -11.137790 43.490059
-8.016623 -2.839326 148.724976
-7.761973 10.588814 59.954662
-11.916702 2.090137 113.198364
21.490343 0.678174 67.455879
11.386468 -11.645425 94.929482
17.718164 14.156007 57.758099
11.421987 7.028811 126.664841
2.664620 14.569083 39.997757
-22.817421 -13.334983 64.844093
10.099919 12.141672 58.046600
-4.692642 -4.153174 145.168381
14.257486 -5.535738 142.544113
3.570827 6.102418 116.210785
9.756672 -8.288833 78.658989
-0.127766 12.543502 132.189148
-2.609592 11.345353 99.868202
23.577230 -9.205928 43.187813
-21.631096 6.349478 147.358932
-13.768501 5.067455 133.684143
-0.872424 6.316885 113.658478
19.327950 -1.923360 140.737579
14.276454 11.154346 81.149963
-13.026554 -2.870231 110.579063
8.451096 9.211329 154.230820
-0.313251 5.920939 116.406944
-12.670584 -13.145929 131.803726
21.563648 -9.099170 55.363220
22.038170 -8.473747 45.217033
-13.967108 -12.810986 132.128967
12.296492 6.365220 153.815033
-14.599817 -6.989684 109.032166
-21.392483 4.571674 72.625839
1.846917 8.346839 149.416626
22.220259 -4.666463 50.658310
12.093718 7.210322 104.998947
6.512357 6.915259 119.494118
15.600978 -4.354113 126.525063
-13.137410 -8.900988 130.779388
-3.738985 9.008004 48.463791
0.842474 14.605623 57.512398
-9.439793 -8.106167 114.445045
-1.524599 -11.031987 125.200516
-5.117136 -16.243063 136.019531
21.899622 2.531133 72.639442
17.647842 -8.508097 76.907639
-13.030123 -5.170610 108.236374
-6.139165 -11.874306 92.082092
2.726564 6.082364 118.126694
16.107426 10.471466 39.133820
23.610085 5.295595 59.799496
7.709101 -12.441272 135.764633
15.245211 -9.123156 73.982224
19.396076 -4.761709 40.917923
-14.464895 0.193185 99.807724
-11.691186 -6.047182 41.400032
7.222851 12.691451 45.405891
-0.877857 5.026662 120.345085
-2.869025 13.056588 142.477753
21.870506 0.547256 54.349651
12.014189 9.232028 82.326645
-21.348818 -7.810153 62.907387
-1.976474 12.369364 78.652054
16.930220 -11.100946 53.015133
11.116244 11.912965 140.370193
-20.888445 4.808723 87.400955
-7.464008 -10.976331 98.549469
-8.649948 10.943884 106.456329
12.342202 -5.128527 142.089615
14.883517 6.982054 99.697327
-23.746761 11.338681 37.872379
-24.442015 -0.797825 134.544403
16.228045 -10.247994 48.387012
18.114113 -9.472871 78.743553
4.872544 -5.129295 147.597183
23.729053 0.462137 78.765419
0.462541 -12.888960 116.854225
6.615373 -11.731466 120.125145
-6.304513 15.437737 98.369476
24.766426 7.502313 54.268127
-13.245164 13.681141 72.041847
5.146796 -9.157963 122.219429
7.171044 15.894869 41.297195
-7.200488 12.281732 53.870468
21.927296 -7.474663 53.353851
12.025244 5.614292 110.389076
-13.697711 -6.182349 128.869736
-21.620169 6.670355 60.775883
-11.114282 -10.659008 66.635040
-19.467897 -1.133813 37.990673
-2.916448 8.692198 34.883038
-15.342066 -7.913962 100.770721
7.425452 11.690833 150.249130
0.304048 8.763144 151.900223
-18.864286 -3.566311 56.060364
-5.322876 8.822070 42.358330
1.083141 10.454584 147.112595
-20.520779 0.282855 49.884563
-10.453218 -9.897248 94.219070
6.526064 10.997104 151.325119
20.325195 -9.679680 54.643688
10.899048 12.259188 94.411171
-17.043320 -1.436446 100.911766
0.764568 -13.272566 110.739464
-14.909780 6.226204 88.453682
5.241691 9.231763 128.912048
15.451649 -8.641115 52.351650
16.951454 -9.314138 44.834949
22.407276 7.373002 32.245472
22.860323 8.705743 50.501472
-5.939558 -12.279435 82.820709
10.831720 13.424558 89.296791
-5.368458 -11.795347 127.686775
25.500261 -7.732399 43.848892
-1.336252 13.565893 83.884834
-19.141338 -9.325507 35.401299
-7.894102 -10.541565 35.766113
-3.433391 6.618397 39.782146
-14.423631 8.196136 56.525974
-5.968025 3.330958 155.311737
-6.675801 6.368941 155.402390
2.153275 10.513734 131.757080
-10.927975 10.595209 146.567398
7.895963 -8.236354 80.836891
2.090573 12.519532 56.146297
18.825308 8.307614 148.844513
9.252865 -4.324418 142.120224
12.827800 -11.471679 99.375771
-5.776421 11.579185 139.042267
22.029312 -0.905889 51.368549
8.425485 -4.338346 143.367798
10.186950 13.158900 58.731792
4.127963 -9.808820 141.793823
-12.451259 -4.582234 143.384323
6.787661 6.015763 113.530289
-18.550774 10.933462 139.563828
19.442593 -10.597289 43.323978
8.860423 10.044962 133.481857
25.958481 1.589372 50.521366
-22.160507 5.648236 68.142166
-7.929940 -13.096302 134.806152
-21.068584 1.825140 46.327496
-12.003991 -11.192086 96.153450
18.414488 3.692491 88.021675
-11.105183 8.723500 82.216583
13.745054 -10.112282 66.978821
-14.468852 9.286630 89.917641
-8.632026 14.045588 138.862259
-12.488476 10.912976 131.230438
11.172313 -0.408056 131.602692
-14.455373 2.332329 110.787170
-7.950731 -13.329337 107.768150
-8.287666 9.641708 108.290840
14.723786 -11.029545 36.118557
3.166787 7.873923 109.749687
-13.977760 -8.538704 108.558899
-7.969762 12.636026 49.233818
-20.466179 -4.359240 37.207775
15.057381 10.675518 77.786148
-19.945515 0.446089 88.051834
-10.306980 -12.555183 128.756226
-9.462159 10.851209 97.511269
12.991125 -2.826205 114.398392
-9.271440 -7.590795 100.763557
-16.516163 -2.053016 144.462189
11.386322 -12.044107 123.150299
7.499264 -4.360804 144.136230
-6.224406 -9.776758 95.525711
15.764963 -0.835684 134.055130
-10.335690 11.216796 58.539402
20.299339 -7.784767 66.112328
-15.343247 5.353834 92.780098
16.638494 5.934657 80.378860
-0.480558 10.667924 43.252682
12.903811 1.236710 112.452377
-4.179019 12.689389 64.667404
22.329679 1.567819 58.296879
-13.102280 2.380052 152.241379
-8.845528 11.955142 45.576881
-19.795742 -6.399117 81.587936
-3.594738 4.305996 113.043739
-10.592247 -8.466505 101.809189
-6.020113 3.495613 159.134232
-20.608231 4.778656 57.395832
-23.946083 6.504982 35.630314
-3.265212 7.961232 115.805573
-18.823200 4.937060 81.282616
-3.407903 12.033978 58.251724
-13.212709 -10.160779 78.242630
-11.890469 -7.250603 119.221802
0.015949 11.656141 58.238163
8.655877 13.320397 91.007851
13.803364 13.129901 57.842838
-1.102444 -12.830416 120.964920
-9.446127 5.126015 154.207474
1.822061 10.112984 57.607658
1.556578 7.334776 46.292912
-19.739157 -3.619840 84.572006
17.900858 3.602270 77.820648
-9.686356 11.824738 142.890381
-13.738619 -9.488072 87.750824
23.581421 5.783955 54.292709
8.024610 -9.202789 65.125885
-17.544617 -10.432115 81.417473
-24.414721 -10.653989 52.797718
2.308378 8.746230 108.694031
-11.471256 11.709035 50.807045
8.613349 5.489438 108.560249
-19.041191 -9.064752 71.700333
-19.829344 7.166198 76.516945
-16.541752 -8.597238 62.909039
-17.653591 -6.702563 82.259354
-9.416359 13.508114 138.385010
-20.752842 -1.917009 82.310097
-23.184101 5.097420 53.704880
7.215531 11.289325 149.329651
-3.182359 12.392227 68.334564
21.280336 -8.146387 78.289482
-10.282389 10.235150 142.234131
-10.863850 -10.474683 114.078415
-12.532969 -1.926544 144.316605
-9.270541 10.926451 64.299995
-7.091821 2.614499 151.908478
17.479715 -8.636690 59.199768
8.755136 9.693735 71.323120
-9.953211 13.297478 144.071106
-10.508257 -8.105043 72.007851
-1.770319 9.453420 158.522964
-9.765778 11.314635 95.482742
-8.354176 -11.786577 101.340408
15.621699 5.432467 95.257568
20.221977 -7.412208 62.410465
-14.200972 -10.881484 129.090332
-21.940563 8.902398 46.692074
12.207487 10.249326 147.157852
2.042418 13.418222 67.098663
-13.280725 7.710957 152.518311
-21.607531 -4.139570 84.755524
-5.600112 -5.982678 141.848663
10.851030 2.422970 115.450722
20.980215 7.588446 40.298744
12.948460 -9.434062 90.646332
8.902412 -8.260742 140.101166
-13.348242 9.487134 47.861877
12.424158 -9.772440 73.798393
14.806230 11.513169 148.141144
-21.231892 3.999384 68.834000
18.878132 -1.488093 93.391129
1.939313 15.982666 96.037193
-17.329868 1.761207 96.082588
-22.392969 11.418873 46.594986
23.864141 -9.207706 61.020779
-21.932549 -3.404094 36.235455
-10.500485 6.933877 152.649521
11.839911 -3.755887 117.021515
19.697927 -8.896489 63.158813
15.423434 -3.156139 143.287033
4.466424 10.716877 149.495499
14.737384 3.687872 126.628799
9.909951 12.228948 59.032028
15.037812 8.379889 91.763603
-21.054941 -12.837559 39.843567
21.137312 -1.243753 60.553398
-11.596932 -12.756005 28.717014
16.666899 14.391798 40.118282
-11.747050 13.383935 68.009651
10.323196 -8.951282 93.132980
26.145847 8.604025 48.615993
2.908442 11.735632 45.728683
15.039411 4.051166 94.688469
21.706049 2.800172 86.279007
-17.948072 10.648368 76.089622
0.441508 -11.087363 107.961037
-22.681360 -9.876373 46.600403
15.818382 10.514137 85.151337
12.412819 -10.055102 75.944153
6.109252 12.481377 74.115295
-11.824029 -12.514490 134.826477
20.456413 0.288122 69.088486
21.799740 -9.152217 75.968834
-2.380194 11.801903 155.512894
-0.496694 7.224943 39.141171
4.212217 12.153652 140.177643
-15.971233 -9.819966 89.752983
23.642170 4.804616 64.832100
20.754234 7.094519 62.263161
-11.373049 -9.948144 86.433365
-10.586935 7.564190 128.070831
-6.622368 5.743289 119.821480
-14.811289 -10.193794 134.858719
-8.698021 11.050090 68.890388
-16.396912 7.278519 44.387085
-3.414000 4.938848 120.989647
-5.598961 -13.308447 137.366653
6.173055 9.168304 122.929626
-3.334116 9.843143 44.507801
20.049881 -6.274175 81.607292
19.278370 3.431630 85.645950
22.431690 -2.272600 59.253929
-22.217640 3.196299 74.117432
12.861881 -9.198071 136.159363
-20.768074 4.473423 65.635765
13.450904 -12.328002 62.375633
-0.777362 11.059455 80.895493
14.437633 1.570353 106.193352
2.949190 8.007402 129.742447
-8.789749 -9.709475 96.688873
-10.797635 10.970140 65.798599
13.323013 13.488558 140.850296
8.073915 14.935978 55.343319
-14.439025 -7.756038 103.143265
20.973270 -0.346639 97.501122
12.527649 5.677343 128.789825
-17.197140 -1.967445 34.997238
-5.795534 8.085508 157.349304
-1.099044 -11.194568 132.895172
-15.855567 -0.484784 135.445953
16.640549 7.817286 74.734520
19.297829 -0.428094 51.993118
-1.242352 -11.610023 114.110474
18.754162 -8.495938 71.630508
15.211184 12.754611 55.044731
17.174414 10.259607 59.826443
12.976864 9.068801 89.473000
18.473501 -9.669987 59.187553
19.966995 -6.129487 61.558437
19.822550 0.385089 65.542801
9.247525 2.365092 118.111458
-15.116703 -4.662586 106.798485
-6.143365 9.323457 135.870041
22.167645 13.749810 35.821251
20.651188 -9.287541 63.165066
17.846344 -8.823666 70.523010
-22.226767 -0.107174 74.028229
0.659607 9.184833 148.978455
15.723635 -10.279365 46.526546
5.780167 9.764440 116.320503
8.904995 12.354323 140.633469
-21.046169 -12.045916 44.347816
12.606244 11.672654 45.022938
13.251486 2.663410 133.034485
-9.912130 -10.953011 85.366257
-10.517705 -7.856211 44.396835
10.900057 13.225211 47.810608
-4.153549 9.221305 130.228561
-23.626343 -0.003305 64.059845
-15.432248 2.447942 152.053467
22.936840 -9.843241 52.345024
1.590053 13.564712 40.379208
10.422763 4.124397 113.613289
19.385584 0.347194 93.457184
-3.877717 6.921394 159.947815
-6.381917 5.923039 109.819061
-3.328643 12.805898 143.276733
5.792462 13.293028 47.419449
-11.610970 -10.656539 51.880821
-4.813894 9.070250 156.138229
2.670112 11.843002 47.750759
-4.280300 11.045696 75.826851
-11.661948 -8.644568 86.172241
13.669054 14.886122 57.606777
5.506788 13.287012 139.836029
-12.910049 -6.937356 120.826523
-10.521214 -6.734666 53.604149
1.299182 10.579778 103.262207
-4.665812 7.807942 40.444698
6.303612 13.961502 87.284569
-11.300874 10.551630 149.982742
-4.846194 6.769770 36.773144
-10.544756 -11.092451 81.231209
-11.964240 8.938474 148.207260
-21.811480 -3.827858 39.844021
27.433464 7.805478 142.308594
-6.300005 -2.266887 147.837479
-19.373838 -12.467003 65.192986
21.095831 0.194182 76.799797
-21.042574 -0.769377 64.067795
13.727293 -6.890966 132.635178
-20.915394 -5.083519 63.545803
-9.312788 2.552929 122.459862
-11.557940 -8.493026 95.211792
-1.749398 8.317450 155.225952
-4.940331 4.558637 114.909546
-10.859357 11.830722 44.149639
-13.096747 3.730714 128.989441
-16.104778 7.343269 152.713821
-23.780666 3.051952 47.133331
5.764564 7.441549 113.039330
-0.872234 7.673594 38.262531
4.827481 -11.451294 98.937836
-14.385878 -10.540110 84.705940
2.328913 12.567949 149.851608
-18.501444 2.270176 150.298111
19.004147 4.291822 148.786560
7.897450 0.116759 149.447968
20.184168 -8.024572 73.181099
-8.762148 1.003256 151.165924
8.573813 5.623947 121.294975
11.713099 -10.086073 84.034294
15.753333 -2.792341 133.392395
-3.344658 10.635027 135.958984
-22.639822 7.403085 146.979935
10.013041 9.653653 88.918556
10.534071 -7.548474 83.053574
21.676567 8.308429 41.820522
4.205519 5.793242 121.924286
6.677359 -12.345172 88.764656
-1.511844 12.255406 95.002754
-11.975134 11.293991 94.766258
-22.116734 -5.785779 76.149353
0.883640 11.501848 78.950195
-20.661694 -0.848907 66.621689
-0.580897 12.746347 129.115509
-16.974424 -10.428390 83.224968
-12.468145 -10.086151 130.100739
16.456604 -9.395310 58.316742
-9.815664 6.148469 107.650620
11.314220 -9.206118 66.000153
2.582027 5.202070 116.317223
-13.782541 -11.372470 132.363785
-10.109373 11.820915 65.185814
13.672177 7.921506 96.867134
-14.341561 -10.464671 95.567253
-7.860606 -13.421302 137.813171
25.052629 4.488982 46.171619
-21.342352 -1.380115 85.107597
-12.698934 -11.334972 44.296219
-23.435165 2.493198 79.796768
4.527714 7.062618 112.743271
15.423218 -9.828484 71.631546
14.774252 -8.370180 102.285950
-0.848840 11.753027 91.242554
16.981142 -12.990865 133.573914
-11.569160 -13.291367 133.767975
-6.012247 12.280848 99.486847
-5.190307 5.337065 153.783051
-0.768605 8.677574 111.924873
-13.937257 -0.880549 147.304489
3.767489 15.276197 54.244354
-4.838667 13.792752 93.414978
13.014578 -12.511208 76.317360
8.742204 11.245801 40.957027
-20.193443 -2.376154 50.586205
0.820132 9.791742 127.447960
-21.715672 7.014788 40.707455
-7.533735 -3.510823 148.570023
-6.524396 12.287755 47.413380
14.995575 10.351116 79.555771
10.160475 5.810376 112.193344
14.482548 -0.249392 114.208076
16.794718 9.092129 54.510086
1.434784 15.166497 93.258957
24.999529 3.892083 41.764648
20.587070 -12.258844 41.401608
12.886038 -5.174247 124.448074
23.227343 -5.993564 37.990646
-13.418695 13.169216 84.168053
6.083533 8.882207 127.546799
-5.084751 6.874106 126.940407
12.012024 -8.606691 79.268150
13.243530 12.573256 58.292084
-22.117323 -7.130220 50.060074
2.051100 10.106841 61.880024
16.249695 -10.058346 70.671326
-7.771087 8.914454 129.843857
-20.306452 -1.208744 68.099312
-21.551342 -4.906877 45.293915
17.744310 -7.493825 85.409401
18.618753 -2.534914 94.640724
21.056448 4.061524 54.513882
-9.093457 13.377613 66.055481
-10.354521 -8.461944 45.209442
-2.217975 7.751633 44.856888
11.223059 8.892583 99.046158
13.981667 -11.413129 62.267818
-19.596661 -9.292724 71.988747
-6.389336 -3.126410 146.661728
0.101646 9.148766 55.617664
7.323977 13.344465 148.515625
-16.717196 -4.248197 113.330582
-10.334474 -10.139924 137.352478
0.928243 -12.765073 121.871414
16.620090 0.434861 136.638184
-0.527050 -12.017763 121.844208
18.386700 -2.170825 63.601654
-0.208717 -11.412629 136.220551
4.570237 9.476492 43.791779
18.383879 2.477553 149.894455
-10.755711 4.339926 111.579887
-10.313081 -12.073498 120.526840
20.292786 -4.159406 63.179195
-23.497595 9.042166 145.929230
-12.751685 7.509066 152.876724
-14.446677 12.682796 40.394154
-11.451689 -12.862873 37.595974
15.736603 3.489594 133.434570
1.392487 12.309756 57.453049
15.154631 11.552112 37.874809
20.724632 3.896971 147.636032
-15.799800 -12.792452 41.937912
-8.713408 13.689755 50.616421
-14.582790 -10.289015 56.123585
-0.974810 -8.900652 115.311378
-21.075533 -6.179756 45.945766
10.554258 -12.237757 98.275719
-16.189121 1.025218 149.555740
16.414856 -6.989552 81.542610
10.754444 5.095688 123.056183
-0.497820 6.850272 126.233917
1.743399 13.620693 43.159401
-1.022128 12.845167 59.959042
18.672729 0.826054 90.970528
1.905691 10.945355 45.043427
-18.583139 2.660905 64.963661
-4.069777 6.792320 107.769417
-5.459408 8.674810 126.923393
-20.855450 6.342370 78.515167
8.532972 0.643518 149.939331
-20.026398 -2.343708 56.635777
-18.278105 3.637144 133.613708
-8.468181 -8.648865 105.934349
12.122059 4.289431 109.955078
26.121912 8.827200 35.651081
14.773364 -3.686778 106.643242
15.655866 -10.798483 130.315140
14.293939 12.147470 50.163109
24.581533 7.139527 54.971249
-17.977768 1.414915 86.203911
9.371527 4.469603 119.137421
19.153807 10.160227 53.498352
0.861117 -11.776308 116.138084
19.734547 -3.516908 136.101547
-0.467197 6.667752 108.099052
12.249403 -6.606364 128.114639
16.123064 -10.029610 55.904007
-20.347048 -7.552986 59.198040
-8.174205 6.235294 153.983490
-11.318924 9.303843 95.178543
9.933228 -8.391000 80.583435
-16.596838 9.393842 139.928329
20.041660 -7.353731 65.808456
2.065267 11.621436 134.160538
6.148781 -12.814999 83.653503
-20.968266 -3.362598 63.607857
-3.815814 -7.656188 142.259430
-18.519482 7.570147 57.827763
15.364149 3.342504 148.290283
-2.465911 10.564089 55.755489
-22.088703 -5.903626 42.385872
-7.146617 12.551387 40.606014
-11.526241 -16.044544 59.714012
0.240877 11.018992 46.893673
13.431510 3.656502 133.072983
-21.893463 6.293606 40.191681
15.027488 -9.102880 70.091431
5.727079 8.740482 130.492889
11.723498 -9.265114 115.600830
13.000735 -6.814450 106.643723
10.584482 12.387786 42.770424
-18.762838 3.707874 150.690475
-7.218711 14.708882 99.663071
-5.649528 -7.710042 144.584320
-16.119595 -11.759607 129.584183
11.844738 -11.814695 49.066750
22.125957 2.975438 61.998661
-18.391613 9.750476 150.813980
-10.443420 -7.876540 139.822403
12.890251 -10.613939 136.937790
11.729505 -0.104489 120.107262
16.169392 -7.952421 93.813065
10.278801 -8.750009 115.582481
15.209438 1.692690 96.737335
11.917519 6.229715 133.566483
4.343840 14.070107 75.659660
-18.959061 -1.611268 45.411953
14.573179 -6.134763 141.765549
-14.530543 10.939300 46.483582
-13.187605 -9.753266 68.175133
13.490190 -4.860703 116.140625
17.678139 10.498733 148.146317
-17.252342 -8.469525 63.051853
12.070821 9.960543 138.508972
24.508551 -6.931564 36.400410
-12.743253 -5.149922 121.895386
4.861228 16.228004 37.078568
21.850960 1.861445 145.307480
20.094465 -2.052099 90.072029
-7.937301 7.765441 153.613678
-8.192661 12.206831 133.330734
5.058364 10.968054 147.582092
-12.748980 6.091856 106.862106
-5.712204 -11.021331 137.266861
10.284263 12.955627 63.007755
-8.516917 11.103127 86.786949
14.430074 -1.574823 124.910332
6.877132 12.327566 56.707767
-25.410645 7.850977 59.271976
-14.918477 4.585018 146.680267
-4.516102 9.081607 38.389641
0.646462 11.099757 50.726315
15.235281 7.869253 149.943802
-18.667101 1.088655 69.440361
-10.958044 -9.790257 108.436043
-13.452333 -1.098637 110.653145
6.198806 10.116316 74.335930
-5.796216 -14.049337 130.641830
-9.216788 13.398549 35.072041
7.410319 -7.341497 144.726227
-2.377015 -12.151603 128.138763
-19.558115 -3.360210 62.740955
-22.696192 0.272161 52.826206
-21.043037 -6.745094 55.442677
11.003839 5.010902 156.621780
-17.519825 1.271052 149.348206
-10.101995 5.001276 119.055901
25.285011 7.801380 35.880177
-9.468446 -12.261472 66.099617
-0.152471 9.824667 153.417496
-15.159719 8.942307 59.363945
19.831152 -8.645157 44.666641
3.396320 7.462101 125.304626
13.800114 -5.217665 120.504616
-19.849483 -1.622041 80.632912
12.891580 11.541983 58.708580
-15.085299 -8.680738 135.233810
25.446716 1.201832 51.597778
11.627789 9.340044 136.267120
-19.914766 2.745175 148.687973
-10.617787 5.232439 112.491455
14.876931 -5.243385 96.374466
20.537773 8.882412 138.861099
-23.621849 4.113461 38.822495
-12.024747 9.820341 79.376007
4.655343 -8.902034 93.938744
-20.494190 7.091924 64.737862
-11.400737 14.150764 66.276169
1.262550 15.124743 73.471054
-20.762440 6.747752 47.366432
11.534733 -2.139949 143.623398
16.533695 11.365707 84.860817
-1.751158 11.500484 130.576996
-20.486456 -3.975560 64.653786
-19.354155 -4.806714 88.654549
-24.067846 5.379953 56.390469
-6.845028 -11.746137 125.766327
7.350444 -12.992187 131.144287
23.056452 0.182819 78.738617
-1.646662 9.742559 109.577431
-14.696802 3.220568 96.423775
16.086515 -3.569372 148.607239
18.443151 -9.052473 57.305840
-15.202654 -4.092099 106.465546
-21.151548 3.364675 80.401939
20.353512 7.482607 38.608185
-24.710749 3.302328 35.899292
-11.918328 9.274065 65.123779
-20.774256 2.050554 69.846458
16.725014 8.233261 69.493637
13.039283 5.434540 126.582413
-19.129606 -0.201300 97.686104
-19.900648 4.955175 75.666809
-16.813416 -2.938285 141.731186
-15.304538 12.271679 43.561787
13.588194 7.287553 154.146530
-16.673458 11.311501 150.003998
10.583560 -7.836107 127.341919
-11.555119 -15.279464 41.834686
-14.227305 -8.440292 93.712021
23.385712 3.588633 56.083485
-1.248395 -12.362463 113.118515
-13.107933 11.422615 56.076790
-22.550186 6.132668 63.245014
3.022491 11.431409 100.509224
15.144089 -3.414284 106.031799
-14.999083 3.762973 102.311852
-5.016807 12.244924 139.682129
13.629177 -9.598818 88.484612
16.680141 -4.500826 141.025024
15.901862 -0.184264 134.472366
-13.464362 4.718551 128.196686
-19.836161 -2.551713 75.185272
14.800994 1.190028 117.004303
9.569907 8.066065 129.126450
18.963360 6.128992 148.093491
4.336379 13.875117 90.335739
4.362736 12.550097 52.525337
-9.010479 -8.431024 100.630669
19.385872 6.645323 70.674004
8.870258 -11.414212 74.103882
17.172068 3.408474 100.343178
6.019646 5.832899 118.868629
7.956189 -0.219776 147.969894
-6.062070 -10.986045 93.190331
-14.922785 -7.982997 130.541885
-21.225990 -2.741864 138.891235
-17.000647 -11.600848 89.191757
-18.353651 6.407818 149.930893
14.360504 9.852864 135.325165
12.830858 13.083142 42.534016
-9.830864 10.042860 80.771317
-10.046701 12.016178 149.666000
-20.757364 2.947647 73.150131
-19.259689 8.352017 92.490982
14.649412 8.034579 97.234833
-19.326950 -10.889430 59.684982
-5.929336 8.371560 115.087479
21.663082 -4.152008 40.513962
-23.875706 0.963538 40.051720
7.218610 11.060689 98.562752
8.393977 -10.288704 109.288773
-1.930030 -12.312537 113.052704
-19.828720 -9.363458 62.226658
-22.780767 6.191082 35.283806
22.510128 11.411125 146.023224
-18.739922 1.897029 96.055443
-5.551713 5.285354 116.459923
-10.607072 7.714036 151.373093
11.050399 6.069334 109.501213
23.152292 -4.258748 58.359322
21.678486 1.766754 145.834213
5.755365 4.755890 153.030869
-0.631421 14.818623 148.060349
-14.872830 5.900578 79.520691
-5.585631 -11.194880 89.363922
-14.831301 -7.492694 132.586411
19.069931 -0.538444 83.712021
-0.148221 13.609386 84.754601
-0.411821 9.204469 110.884232
7.584882 6.070520 112.289787
4.452277 12.870943 96.157501
-20.182959 9.717737 147.446304
-12.484777 -8.783069 40.514183
-11.884238 2.704618 116.459892
-9.594009 -7.714046 143.073517
-20.737724 2.330151 67.006256
12.186027 -7.045003 96.667671
-2.789751 5.116613 110.246246
-22.079075 11.516617 138.479965
14.583059 8.867453 99.874611
-15.694899 4.629991 96.379669
-23.408485 8.183155 39.502918
8.745547 7.460230 128.447021
-16.064180 1.681727 104.559036
15.722171 8.103830 90.597275
-13.403246 6.489177 96.711090
-7.843053 -8.647049 119.567825
-22.493753 -3.954017 72.698517
-10.430412 -9.881414 107.190407
21.904037 -6.922268 66.387276
1.357766 8.685444 154.801239
-21.733833 8.141182 53.967461
-15.470109 7.770389 76.137894
-19.513309 3.292828 91.163925
21.478844 -0.069967 50.514671
-5.218671 -15.529876 131.845932
0.542631 16.506063 88.006012
-8.770906 13.255231 94.784492
22.062748 4.088267 144.036499
-7.243486 11.885319 80.226341
-20.011614 9.249133 75.032684
-17.364517 8.807243 143.478149
21.538568 -5.829946 46.500374
11.474318 -6.750029 45.150803
-7.146111 11.329515 39.291874
2.337555 -14.137979 122.862694
-20.306696 -9.984594 76.713509
-22.151915 6.156613 43.473255
-11.645504 -12.063991 59.135765
-13.073180 -7.935932 106.956932
-13.386545 -9.278167 59.981583
2.728820 10.150794 46.504490
21.136665 1.285303 74.131927
16.461445 -0.410948 106.191101
21.196806 -4.636423 59.727394
-15.251580 -12.444896 51.297016
3.191515 -11.299328 109.469917
5.652899 11.492874 90.944351
-7.541615 12.716353 84.044197
-20.810575 12.642766 35.971783
-21.130026 6.908620 67.470253
16.119333 2.512516 153.515778
20.007586 2.646450 74.211494
-19.395172 -7.322978 88.100624
17.291010 10.487362 146.015549
18.456036 -9.634531 45.369831
18.729279 -2.160170 69.627579
-20.535763 -4.464734 51.261986
22.391569 4.394447 57.774673
12.027105 2.858169 147.800140
18.029419 5.911436 96.898628
-6.165861 12.959801 49.332893
8.093323 -11.797027 118.685875
1.523747 7.017877 122.326378
-18.843513 -13.117627 42.806316
16.338127 11.106706 144.441910
0.346324 -11.882886 121.260536
3.565454 -9.967469 140.699539
0.835778 15.340996 94.918930
22.616871 4.037300 65.877266
-12.876820 -11.267817 95.249268
6.801675 12.840261 95.422890
-24.206268 4.140528 57.680771
-8.971853 -6.875803 76.149544
-4.992528 -14.555912 63.193161
16.724964 12.303083 139.937424
20.160986 -1.043643 147.210571
-17.095428 12.341996 35.623905
-16.525291 3.605262 95.947289
-8.369555 -5.644134 141.547455
-20.792185 -3.612019 66.692215
-13.567195 -10.029751 42.184013
-3.976948 -12.671243 138.055161
13.249825 9.688137 101.967842
23.948896 -8.832561 45.211334
11.023479 5.274666 109.135765
-13.848812 -7.199323 92.398643
1.720003 -14.211447 129.639984
-0.748400 11.123529 97.223000
21.024426 -1.217575 51.190445
-15.593893 4.747904 150.934723
19.269569 10.848349 64.089722
-18.863306 11.008012 139.580963
0.460363 8.523145 108.230743
-10.578211 9.986670 44.552876
-16.727167 6.041080 80.777824
-17.201824 15.212012 35.195278
0.294847 -11.340567 138.644608
22.464764 -8.598400 34.540215
-4.946558 10.442535 51.566116
19.466932 7.973102 60.919365
-13.606315 -8.100639 105.853806
-13.087558 -0.859532 117.184914
6.512577 5.405839 120.762344
-10.856516 13.335561 89.226471
17.679073 8.698566 68.191956
16.299582 8.525776 53.672943
-17.333515 11.009719 149.053467
-16.129541 -5.359786 97.452858
-24.267279 5.808514 47.500919
12.650201 -0.257830 123.183319
-9.545979 13.545428 57.559486
19.451117 -5.691268 89.615288
-10.639551 10.837327 136.824661
21.456995 -4.749229 48.964432
-8.468920 -11.687050 114.487221
-2.875447 8.550848 52.876015
5.722992 10.457224 96.669853
-4.516093 12.375239 99.886124
-17.303045 8.021695 50.897480
13.526515 -9.475097 132.227676
-9.027903 -10.662959 90.512352
16.031519 14.773851 39.324207
-0.223980 9.690315 42.855381
20.834616 3.560297 59.543587
11.821836 13.208645 145.970749
-18.679010 7.763569 93.169128
11.863208 5.320799 135.294983
-18.665424 10.801925 51.060558
-15.014989 0.542331 123.515099
21.525045 9.393268 42.257450
0.611668 9.198658 117.173782
-20.628643 6.929798 60.636478
8.382977 6.751833 109.865028
3.384131 12.182633 85.546669
9.993421 8.799584 134.014313
-18.722326 -7.224281 48.689442
-10.640108 2.023150 151.171295
-7.045784 12.553473 89.717590
-6.961758 -11.595646 80.818695
6.718200 -8.125160 139.365112
-19.107466 -2.515502 143.496078
-10.559050 10.425212 52.986160
4.565533 -11.909264 103.454109
17.158998 9.631594 149.804871
-12.561686 12.930604 135.460831
17.284418 -0.221955 137.970184
-9.940836 4.638751 123.500648
-2.911847 11.814842 81.819832
-21.448847 -0.240020 140.819931
-17.292223 2.933626 97.608459
-16.261330 6.030036 97.166794
-2.826152 7.504499 115.733528
13.726950 10.171432 41.714100
-23.934187 -3.300116 35.578953
15.144422 12.036005 150.358597
17.110483 12.465665 56.218822
21.103527 -8.624357 60.489162
16.823061 -5.992909 140.380936
14.493015 -9.266088 51.607468
-18.658541 -2.046168 37.337208
-17.363338 11.955260 49.067669
10.866422 -10.004166 86.713440
11.188386 12.539708 67.446014
1.543036 5.835583 117.548637
-8.998783 -8.970435 111.837799
-11.128708 -8.698426 126.949860
17.605906 -12.054733 34.855564
0.226665 11.189795 98.046432
-3.460347 13.217130 135.723557
3.410724 13.010868 54.915634
-8.076910 -6.837189 72.424332
3.247728 7.403139 114.838104
15.207449 -0.695062 117.050690
-8.143441 9.718419 79.149361
23.650932 3.173650 59.239872
20.390480 -2.528462 49.889450
22.640110 5.978612 49.076538
-21.353338 0.896224 36.307781
4.522872 15.244257 38.678234
9.534584 -10.739274 55.015476
-21.057156 -4.717980 58.467621
18.414497 -4.498580 98.325119
-10.022802 -12.453820 83.056801
7.517221 -12.208954 92.206825
0.088275 11.375162 137.224014
-9.011837 9.308175 40.158897
-2.548072 -10.593250 138.201569
-18.271763 2.717142 85.313217
-14.321383 8.031830 80.943031
-0.579258 16.471188 54.177555
-5.239613 6.292789 117.060043
23.119596 7.255807 52.777870
16.148212 -10.458124 64.391739
12.705099 11.626687 83.337509
12.391893 11.870568 65.418465
4.219067 10.622603 68.973038
3.783455 4.934807 124.576889
-11.887834 9.526381 79.481552
-22.113810 6.560614 64.566643
14.999435 12.635926 148.128616
4.321150 8.888068 45.826324
-8.117881 7.002624 129.997467
4.387238 13.223635 69.016075
-8.687493 -11.495458 137.696121
21.788492 7.276200 51.625019
-9.089409 11.059577 60.270920
7.544445 -11.026815 140.070282
8.922362 4.466719 105.253555
13.186303 -9.945520 88.607452
10.450723 -11.440284 94.904846
-8.024891 12.983031 98.248009
8.177571 10.184961 61.562054
2.552484 13.166135 39.795094
2.243410 14.607839 40.089054
2.410276 12.565845 95.992119
-0.088013 10.863179 88.415283
-6.688966 2.058169 152.604813
19.641878 -3.452011 134.313950
16.053181 8.758757 54.967735
6.894041 14.394711 41.184761
-9.510125 12.987745 145.376999
-5.369606 -12.594995 120.787018
9.767524 12.662510 83.104965
-19.528709 -12.729437 74.734230
-5.973524 -7.516303 145.692810
13.475393 9.562193 148.202240
-11.077275 6.942815 149.456192
-15.288378 11.906266 147.631638
1.374270 -11.865973 120.947830
18.460712 -10.464347 73.638206
-17.855949 -9.556265 55.578384
-7.435516 7.575788 104.057457
18.001659 -7.700701 52.040688
-13.588545 -1.132681 156.687485
-21.455294 -3.785497 53.817047
10.844069 -11.104798 88.515427
-15.106894 -10.759967 58.849686
-6.036736 9.225167 49.021317
-23.146374 4.907813 39.677605
0.378759 -10.807302 115.799126
19.209673 -4.419042 48.857452
12.934273 0.618612 127.518730
11.751576 11.914701 101.847183
18.439335 -8.083453 88.574539
-8.832051 -7.719109 49.402298
12.350217 -6.572305 123.322517
11.112414 -13.060151 131.304718
-7.059408 -10.911227 92.493263
20.662073 -4.705070 57.416630
-6.197577 10.896191 130.357483
-13.726547 -2.913114 130.636459
-12.219076 1.639558 117.488678
18.875431 2.410226 147.715485
13.450481 3.404549 107.671341
19.310730 -0.035307 141.162689
-10.310212 -10.688467 92.811119
10.687786 8.015459 134.047516
-25.686951 6.042678 37.217525
-6.611246 13.467332 91.117027
-6.451711 9.056172 107.466217
12.466024 14.203609 69.684669
8.698359 -12.221779 131.929825
17.369051 -4.339914 109.637787
-20.457624 -9.400140 36.911926
13.886197 -10.030560 43.728386
17.881014 -7.391783 134.871948
9.220499 -10.618755 103.212524
-16.451601 -10.342600 41.709351
-13.299576 -7.481984 130.309616
-22.795362 -1.326721 37.027355
13.852772 8.697189 150.502411
1.162778 13.297500 50.272804
11.084320 -9.598968 48.721092
7.907523 -11.793889 125.672997
-18.807068 -0.491916 54.781944
16.786734 10.453399 145.127914
20.106256 9.047969 42.544586
10.215825 11.866449 60.306274
10.457498 12.853868 82.761269
-3.142841 10.552938 58.067730
-15.072859 3.125402 104.955330
26.264656 -2.755500 41.815681
2.630160 11.722718 73.473145
-1.363716 13.079238 138.214035
19.295624 0.725032 61.723251
15.336889 -7.293987 86.700363
-16.252819 -3.657400 143.647736
-20.675236 5.073219 80.016762
9.417643 11.836144 63.118778
15.502245 -0.891757 119.246536
3.846515 -5.742765 141.266693
21.073759 -2.669434 41.187183
21.607866 -3.303312 57.416180
-19.491840 5.516376 147.993073
10.707483 11.490658 73.857422
-6.471439 3.568000 121.432129
6.218186 -7.576389 144.489426
-16.114429 -11.274968 39.630150
6.341086 10.534406 69.584076
14.322197 -0.852395 104.419098
-20.403568 -5.532717 52.461483
-11.236544 -3.512594 114.164398
4.991323 -11.916420 110.712692
-12.718482 -10.682803 101.407982
-14.084861 9.371171 91.088875
-19.928270 -2.584675 144.317322
-12.503984 3.810830 150.798065
12.960618 -1.773580 109.345406
23.073105 7.464290 64.351097
-19.427582 11.694153 45.576717
10.598005 12.741322 46.557228
5.474347 0.637833 150.901871
-16.569267 9.632396 146.087357
-21.389309 4.665422 48.387302
-19.959887 -7.346755 80.098396
-1.679766 8.971972 50.059242
14.204372 -1.294564 116.033241
1.691993 11.223641 91.054092
14.692998 -3.534416 124.978905
22.304247 -6.721743 74.151382
21.410826 0.950919 34.429382
0.523114 11.179321 74.650505
17.530500 -9.775617 86.208946
-11.695014 10.343010 68.187302
-2.156798 8.940204 89.148132
-10.487867 0.157869 149.219620
1.379847 -14.492684 133.354828
21.679138 -5.442542 42.632706
-12.642071 8.248868 81.094131
-14.430072 -9.925791 56.076485
-20.419621 -10.091688 69.500397
3.983992 10.709676 95.012817
-2.124791 -13.910896 123.856247
21.741062 -5.925761 46.298206
-4.755925 6.694070 116.429253
11.838247 -4.164886 141.485626
0.719338 14.286666 138.002686
-8.174055 -12.009809 105.924232
14.856808 4.166589 133.186325
15.044480 1.367516 130.142502
-12.976073 -8.511443 116.760788
-14.429057 8.417624 79.667648
-3.412750 13.207450 59.214317
-3.592386 -13.255616 101.971268
-8.719154 10.529523 86.955002
-11.248580 -3.485481 146.532166
-20.207247 0.921133 146.735077
-19.580408 -5.021573 140.570847
-21.508278 -9.804863 59.344547
20.261480 0.351065 72.727921
-13.818064 6.602262 113.594933
17.243629 -4.201355 70.218361
-1.208172 -13.345172 136.324295
2.887772 7.381102 159.417389
-18.863535 -9.977953 49.614391
-20.863771 -5.404229 76.096893
23.444122 4.471047 60.424904
-13.159090 8.602145 150.022263
14.139826 4.063061 152.029449
14.687730 -2.633653 129.561874
12.386287 -10.156723 75.811508
-20.104298 -8.685004 73.666496
16.874228 10.909305 144.612946
7.143443 10.242085 95.148438
4.875795 12.942614 140.193024
-0.543232 12.823004 102.621902
-18.738260 -10.729182 78.207336
-0.373650 -14.124889 132.019653
4.525035 12.139695 93.238632
10.440630 1.113970 121.056831
-14.256436 -9.677212 97.598946
-14.611697 -8.162818 98.552124
-8.592916 11.452293 44.005184
-4.210095 14.204663 88.395119
5.076511 13.035424 50.881844
-4.078218 -11.250612 135.805969
10.447968 6.956928 100.157921
-17.953293 -9.698183 70.318886
-19.542616 -3.909548 93.229553
8.153719 -3.849206 146.746201
9.725842 5.340353 125.660492
-22.954988 -0.715934 89.728088
5.645919 13.828125 33.407837
17.635918 -5.709988 58.925415
-23.286669 6.068043 60.391022
12.230143 9.017000 130.143372
-11.367414 8.171453 84.068848
20.975010 5.700855 77.638474
12.165300 -9.036469 73.160271
10.054043 13.118673 72.824509
-12.344267 -8.793140 50.544029
-24.124290 3.081615 38.395058
-8.016962 -13.624340 105.130424
-11.344030 13.555882 72.261223
18.343351 -0.277419 61.900902
-16.230217 3.348121 100.691582
-17.094334 4.045203 82.663467
1.039165 12.067983 58.472153
21.645008 4.796266 66.810089
-13.387771 12.861044 74.386940
-18.401913 -9.870877 36.683392
-14.524170 -4.022788 98.671028
-11.579043 11.584117 62.949581
-14.854549 0.332504 131.797501
-9.692592 -3.074124 146.072250
11.786275 -9.739320 79.369507
-0.238006 7.100932 112.816574
-12.474516 3.964150 129.284851
-8.754134 14.146079 44.852520
-7.095212 2.789929 153.757339
17.874952 -10.212186 61.476795
15.607697 -0.879438 139.431061
-6.193692 -11.145191 118.895287
7.635458 -10.072120 104.043221
18.905386 10.475872 143.298447
-11.496136 -8.146319 98.874268
5.638566 12.260723 47.331783
9.860933 -14.002775 132.295776
11.527902 -11.510854 100.488197
-5.764329 11.713675 152.505737
-0.184832 12.856078 60.138649
-19.930902 3.864770 81.423882
-14.278173 -7.096118 125.129730
-8.924505 11.226308 59.316963
-12.804624 8.777436 48.869759
-9.954122 -11.225327 96.184639
-4.160402 9.736445 44.590034
-13.963534 -10.867940 49.690510
19.321148 5.381494 66.778397
6.748222 13.254666 40.419712
15.074410 11.674279 66.126991
-8.968262 3.626923 153.436340
23.668915 5.702355 47.969124
16.047205 -9.121254 89.100998
-14.405108 -11.753828 130.577103
-5.534961 13.919422 88.862244
-8.295220 10.751383 97.097771
15.441408 -7.523715 45.338753
-9.418439 13.390213 56.844936
20.374191 10.964534 63.302914
4.020752 -9.916003 107.711037
-7.155000 14.162820 98.794601
-2.311456 -13.225990 129.828873
13.149193 2.425486 128.581268
-23.203953 8.915572 48.056057
-1.414613 13.145680 92.190598
18.992338 -2.822477 83.236435
-14.574323 9.863132 56.029831
-10.959536 -8.698256 55.557892
9.895217 -12.468246 80.265076
17.257397 -7.760889 92.529785
19.336620 -9.709405 54.215645
4.217107 -10.434778 111.509575
-8.383005 6.112609 152.565094
10.999281 10.911015 141.839569
-21.128458 -0.622243 62.191681
9.633534 10.980096 81.284431
-12.949452 -11.991591 58.670193
12.537558 14.028097 56.460632
14.141195 -12.557034 67.738319
12.663178 2.462866 112.680656
-22.045244 6.199792 143.294754
-19.436663 -10.718445 46.572624
-3.383616 -12.715320 138.119095
-12.528320 -1.610882 132.206223
-22.595045 -11.312208 49.925617
-9.325203 14.488414 89.336281
4.253773 12.696176 71.704697
8.893559 12.192836 80.781746
18.515455 8.257259 148.198792
8.017353 10.148819 150.036560
21.570671 1.829655 92.412140
-7.937024 -8.689538 68.904343
2.247899 12.350962 157.727295
16.755678 4.974170 93.499962
18.911451 -8.934543 75.140961
-5.333152 13.210863 92.633957
-7.905480 -12.092236 77.488701
-1.009000 7.715639 155.402679
11.248926 10.269167 80.862289
21.768278 9.144225 140.606720
4.442636 5.956775 120.300545
16.149002 -1.589894 137.731918
-3.719097 -13.913052 111.983215
-21.190397 -14.739721 34.093864
2.812543 2.320333 116.451233
-3.389649 -12.779629 85.246628
15.557819 1.098228 108.695961
-14.173653 -5.108700 122.357048
23.162075 6.679104 141.951950
13.558016 12.824882 49.644260
-24.731081 4.107792 39.148895
21.096468 1.997103 60.692959
-8.423842 12.150700 143.381073
18.658766 -10.128405 53.517818
2.846401 13.694666 86.237579
14.951735 -9.347381 130.302872
6.669832 12.857358 56.633682
7.525845 -7.799927 145.573227
-9.564449 12.742750 81.662064
-20.854290 -1.211246 140.425537
-10.976152 9.444169 58.815258
-5.580576 12.092352 51.882072
18.927942 9.981453 67.476952
23.489853 3.319175 57.677734
-0.329697 8.408019 124.332268
-20.372992 1.851073 84.115921
4.081413 12.725383 46.096756
7.401921 -12.136815 87.731705
-22.702597 1.662509 51.479450
-6.372429 -4.863653 147.891602
16.813576 7.899452 139.582672
7.635477 10.705889 150.668930
-20.787939 -3.278745 84.150291
-12.279854 4.815083 151.354446
9.103761 2.507075 153.639481
-18.869707 -10.968140 79.119942
-16.907982 -7.105820 84.891144
20.507231 4.818709 67.982658
20.902092 -9.675454 36.503269
9.089370 10.517618 102.619972
-14.024194 -2.823000 113.528290
17.442043 0.639097 76.360214
11.158847 -9.379440 131.559647
1.365193 9.874447 108.616600
2.543638 10.038537 69.461990
13.433036 5.043517 104.374382
-18.634642 5.125803 95.053246
17.748089 6.450294 75.152611
-12.671926 -12.190917 85.125069
-15.125832 10.610690 42.928127
-3.728173 9.470968 109.950729
20.339972 2.103839 94.436745
-14.840597 -3.904857 122.477898
-11.300347 9.308744 81.970329
20.542587 -6.196131 54.966084
-9.151718 -7.850182 122.576233
-20.496452 -10.112305 46.570732
12.087008 1.020840 148.121033
-0.200089 8.136905 52.294144
-21.521492 1.161813 41.166088
23.253695 0.760334 61.999004
11.226211 11.187473 138.662842
-19.550480 -4.326736 85.767349
-6.011308 1.020983 148.898026
-16.076395 -1.148448 96.135063
6.314500 -13.075453 121.913956
-19.303652 -0.078355 142.309067
-7.568976 11.706507 85.666695
11.785629 -8.138487 85.365791
8.751698 10.142634 63.711231
16.790110 -5.652403 103.351570
-17.896452 8.753511 55.963722
-6.551284 -9.729615 143.460815
13.479407 10.374555 150.071747
15.401209 10.776563 81.205605
7.333348 -7.032019 137.041061
-1.915258 -13.512261 115.165390
-16.070040 -1.993739 136.061264
-12.453076 11.927466 94.162903
-6.129361 13.259736 96.177910
14.590242 -6.147418 106.643700
-11.842208 -12.378242 134.556000
17.284050 1.200969 94.107407
8.809565 8.364005 101.653557
-12.464293 -1.755458 125.036011
-3.603805 -10.896914 53.875927
-8.527098 11.267244 68.541107
-12.692556 -10.060750 85.114700
-3.355292 10.789231 45.523804
19.039034 3.226843 73.660156
9.227525 6.676005 106.521973
-15.678115 6.577860 66.678001
-0.445016 -6.888315 121.508156
15.831919 -6.249678 87.174477
-3.608628 -13.562814 132.458908
-8.135019 11.701108 133.360718
-19.452686 -3.464282 81.359718
9.764452 11.680772 62.613556
-22.115545 -2.529916 61.170391
-6.489337 -8.144944 144.260864
-9.931911 -10.472405 122.622559
-11.852723 11.544436 136.477493
-18.565037 -7.418355 69.095230
-14.813782 0.225324 128.211227
-18.010221 2.201815 104.311325
-21.235489 0.673849 56.370022
-19.428761 -7.968346 80.195839
-18.641647 8.472204 37.816296
8.916136 5.694938 120.824936
-3.933966 12.142188 77.576637
16.947567 -2.808719 133.285492
-14.942915 -10.570478 75.460335
10.447050 -12.726411 123.224625
-18.872829 -3.755663 97.020645
9.038031 9.991224 48.198174
20.464258 -6.752993 50.312710
9.038597 13.161411 65.632851
2.072863 7.889792 115.247292
13.524635 -3.191393 116.928658
-10.798806 2.009373 115.713341
9.536179 -9.708230 62.093742
15.286057 -11.475868 70.186996
-11.404320 0.824685 116.724861
-0.854519 6.583089 113.024635
15.390073 -8.915914 136.178604
6.872673 11.246380 82.650345
18.376554 -1.347898 89.147408
-8.178990 -11.465221 92.425713
-15.586293 5.104973 135.609711
-11.771865 5.895469 111.308990
15.669686 0.187889 106.276031
-8.430861 -10.997654 97.339943
-12.532102 -5.931155 115.788246
20.721249 -3.161101 37.748291
4.445261 -13.464602 133.823502
-19.799034 -8.403290 87.202621
9.278191 10.193684 29.821198
5.592743 8.298298 105.597488
11.757053 -11.599298 87.358452
11.644877 14.218018 74.423920
12.946223 10.540328 147.063400
-11.501657 -0.684780 145.147873
-20.711727 -1.199467 66.191788
14.773978 -10.061335 65.110291
20.518936 9.334674 61.953297
0.990489 14.826952 43.319366
-6.351912 -3.434545 146.133881
-17.181633 -1.252597 146.464478
-21.309870 -6.400527 68.195816
-17.967754 10.046867 58.934273
23.054821 -10.035154 52.277435
16.782419 -9.484200 88.370461
16.235525 -2.131950 130.994614
-4.130765 12.934718 93.947433
14.000250 -7.716308 91.959656
-4.102411 10.348819 49.343346
14.037036 -9.288586 70.896675
20.059240 -3.681151 95.758453
22.331936 -2.461813 65.332596
3.560813 -10.701820 138.347321
-12.111736 -8.472507 124.999939
1.523863 12.275984 102.859886
-22.830168 3.310060 54.175274
25.894621 7.583290 50.906277
-6.349770 13.827846 62.995949
-11.916560 12.250034 39.430836
-9.333400 12.647098 96.521454
-7.330886 -7.664645 144.959717
-9.011500 -13.235802 88.604462
2.129657 -11.635800 128.138260
8.799172 -10.300221 107.089409
1.864949 10.595860 40.140495
2.817108 13.309963 36.805107
11.214577 11.499858 41.778614
2.425279 11.733456 55.350037
0.033819 8.251915 130.975571
19.445511 -10.461549 61.267876
-21.486794 -3.571524 53.737038
1.022681 -11.028717 117.867882
-10.874884 0.611783 150.074570
10.462656 -13.881241 88.962036
-2.547362 7.619803 115.324265
-15.601365 -9.189200 69.938904
9.181700 -12.685930 123.338043
-20.423836 8.351835 46.119133
-13.212939 2.609644 111.931580
19.286837 8.832622 57.910954
10.133965 6.420223 123.854355
-18.828156 -4.250501 141.944092
-15.090727 -12.913385 78.215515
5.628047 -10.872796 124.920723
5.531184 11.039953 139.993668
18.983202 0.672871 59.192371
-19.151594 -5.238466 65.251846
-9.423273 9.569137 134.212479
20.419041 -11.444291 37.109356
-3.803946 14.845201 80.497154
-12.339359 1.242732 118.789429
-10.811745 9.558526 132.944870
2.902519 -11.956610 131.140137
-19.158146 -3.620113 65.208527
-4.561718 10.512699 62.039768
18.136961 1.534632 58.465889
13.722361 -3.157850 122.696884
-4.520176 10.724571 76.699394
15.601298 3.402290 95.301689
-18.799238 -10.484673 38.609116
1.445234 12.265346 74.712326
-6.800130 14.026481 144.474472
-10.253257 -11.495197 39.858135
-11.221844 -5.148011 140.085342
-14.190113 8.301278 60.900471
12.643635 10.962831 59.116104
-10.194393 7.624098 99.375381
15.103365 -5.270875 98.479561
14.985600 3.583237 126.683479
-19.503714 1.921985 152.045105
2.374934 9.365535 131.528503
6.613865 11.081605 89.370209
17.422853 4.545778 96.725128
-14.576831 -11.348753 69.638725
-16.490425 -9.230680 57.593002
2.545254 9.417530 37.999432
-14.233832 -0.561498 149.283585
-0.511430 -8.492986 118.043236
15.573699 -2.544497 134.255127
21.125732 0.685802 90.804565
-21.265121 -7.468352 46.296364
-20.855274 5.883292 76.519882
-5.490283 8.894545 36.623203
-7.137201 0.248897 149.201981
20.122711 -6.770551 78.952339
-17.937897 13.978225 37.040543
7.530036 -13.051645 95.983673
6.452152 3.559964 114.886032
0.335846 14.519903 55.936214
12.820903 11.116557 79.067215
19.515108 6.666948 80.684120
-17.508013 9.623168 147.022644
13.961589 6.391762 101.495087
-22.357121 8.429832 50.452518
15.173519 7.674412 150.152267
4.537748 13.190576 88.103874
-13.357367 10.541486 148.318558
-15.555428 -3.921549 129.615402
3.456206 14.021205 82.960960
11.931735 12.172609 93.362007
13.737999 -7.749222 108.954765
21.668518 1.938784 77.696312
15.825840 0.980036 108.552773
-1.107840 9.059763 116.315071
17.384212 -1.069455 97.368355
-13.901497 1.433703 111.524635
-3.315491 12.652705 142.712769
13.732664 -7.838354 105.432747
-14.912658 3.156203 107.303375
10.594959 8.292150 128.806747
-19.531452 4.205229 83.271797
-11.770107 -9.354112 61.641586
-20.743320 -6.755526 67.239822
22.382374 8.000021 61.965813
0.763878 -11.477281 130.703842
8.166073 -11.459363 117.101318
9.210018 2.503494 151.884232
-15.150320 -9.942973 53.566990
-19.168756 -10.342952 39.707310
6.185177 8.185927 127.752205
21.360432 2.231761 139.683044
7.188661 6.998474 119.453239
18.121258 -9.799118 71.136070
-0.569595 11.851236 58.523842
20.362757 0.807328 88.830688
-8.785597 12.834291 72.173134
-1.388387 13.829901 146.621735
-23.483980 -10.416322 47.105392
23.654694 9.656883 41.710732
13.665830 -11.438416 44.964050
-6.247945 12.821356 53.157650
18.348476 5.143754 81.190742
-10.986898 10.100740 45.452946
-23.824982 -3.488469 41.160137
3.028198 10.856468 72.277016
14.615484 3.331163 98.483086
17.890678 13.146421 43.486210
22.097130 0.352594 57.426010
10.021290 10.276654 153.622299
18.911459 4.420693 92.996803
-7.876878 -1.567188 149.998032
18.490751 9.400300 82.695557
17.154171 4.645709 150.840469
15.900923 -9.703098 62.891197
-8.200417 -15.476407 135.820923
24.515476 6.254553 45.037773
6.131039 6.121825 118.140060
-4.679821 12.842725 144.113663
10.105193 -7.697121 142.128754
6.862790 13.677905 76.501198
-16.310402 -0.291458 99.085655
-14.529143 -5.010783 128.674988
-12.670845 2.375322 150.620590
