ply
format ascii 1.0
element vertex 2048
property float x
property float y
property float z
end_header
-8.614168 4.397716 110.535980
17.467943 10.403465 67.407494
-15.573156 7.454854 106.917824
3.036419 -12.576907 110.314491
-15.650034 -7.558158 99.553329
-12.693692 7.760061 105.112183
17.178728 9.186496 75.115921
-0.643392 -13.995502 101.172409
19.126137 2.673911 87.806496
19.862625 -3.591701 89.794769
-11.394998 -3.497329 117.017685
-1.777884 -11.315654 97.147469
18.018955 10.597494 80.459503
4.810556 16.952963 79.410172
-20.329458 7.794228 75.329773
-5.458757 -14.343184 92.711159
-2.838223 -14.016723 63.408188
19.015720 -7.831411 94.471054
18.112818 2.807549 90.107712
5.544899 -11.137608 98.891182
-20.050846 8.618600 94.875076
-17.492321 -14.904646 91.164597
-18.652647 13.992961 82.369339
11.421051 -11.603459 79.336922
6.665852 15.400453 77.907761
5.347722 -9.160664 64.583832
-22.535837 -7.870947 67.564804
-11.610497 7.621974 106.124817
24.835457 -3.103913 77.558525
16.455528 -8.908469 84.164650
-14.418253 -18.940273 71.275482
20.269979 -5.322620 98.065063
1.391263 13.076321 83.110916
-6.624607 11.040265 97.462044
-1.029938 13.124909 93.372421
12.572752 -16.439131 74.345055
-6.240327 12.025428 80.832832
0.794843 -12.442232 95.100311
-8.252590 -11.132215 79.830406
6.491248 13.043615 95.498413
-17.289375 -8.860854 87.102425
9.350381 -11.166054 102.536446
-11.222728 13.793271 87.200363
-13.184304 12.884038 68.442490
0.952024 17.414108 77.672287
17.524923 12.936797 76.851509
14.996163 5.851336 101.183937
2.021119 -16.045389 88.686089
-2.166166 6.794593 109.871552
-14.181145 8.150679 75.865936
-13.394936 9.754356 95.544922
18.397181 9.991847 91.148849
19.835567 10.361338 74.320755
-15.469628 -8.854504 105.840942
17.070206 3.314898 99.979797
22.702047 -0.653176 81.585747
-15.021106 -10.703806 99.846382
-10.514550 9.503366 101.546997
-5.932775 -16.539618 80.408356
-6.225502 -13.885025 98.246506
-19.016338 -7.098403 100.193512
-14.882537 6.909041 82.678764
-22.961176 -3.366769 76.159920
-11.484967 11.365423 83.021416
7.101745 -8.081642 65.966774
-4.986893 -12.687675 101.491913
13.255704 -6.939525 114.162880
14.279554 10.407710 88.113670
14.654952 -8.485620 97.710945
-9.053885 -8.443988 75.800064
8.486214 -14.397151 74.116737
-13.423110 1.075348 114.799301
-6.271478 12.180609 70.692131
17.089931 7.619158 90.710526
14.496941 8.028905 73.820137
20.843773 8.393017 75.279884
3.655546 14.351299 90.625488
-7.637779 12.038767 74.118034
22.438114 1.327078 74.572357
-16.125324 -7.052699 104.633881
2.940079 -13.760131 100.978218
22.750252 -9.193277 70.972900
9.549085 13.548877 91.707291
-17.751661 14.251724 74.270813
10.460134 -13.550372 93.601219
1.508628 15.364582 85.472527
15.618810 -12.749209 87.535759
9.739879 9.819366 98.702469
6.338688 -11.670459 98.105125
21.163738 -9.440134 76.587944
6.574452 11.799001 93.097595
-19.105795 2.969032 97.935608
22.526493 -7.676987 85.209686
-0.093281 -15.706307 70.040070
13.455917 -5.597227 111.314125
4.806932 -12.176748 81.455818
12.728934 9.504281 79.709953
0.112494 -15.523391 83.745178
4.472068 -17.569489 66.308319
-12.055751 -10.655789 72.923088
-23.136448 1.448292 76.266197
14.669031 -12.718512 78.207329
19.195446 8.740722 90.832451
17.140293 -6.463381 92.239777
5.566961 -11.588674 114.805054
-14.131395 -6.043890 108.244537
5.719481 -17.065590 68.658897
5.841383 -15.623251 99.416824
-21.553572 -5.559234 88.725075
4.466666 13.076225 92.472092
-17.356987 7.297298 87.010666
-4.105984 -16.188326 91.108421
17.428749 -0.308808 103.829185
-7.429729 13.262114 73.534470
7.944290 -16.548941 67.530968
7.033183 -10.620448 72.282204
10.198116 -9.732867 115.336258
13.552403 11.013875 95.833313
8.326422 -7.285629 71.617897
-13.904833 -0.210591 111.208435
19.859694 -5.141508 89.019501
-18.957270 -3.295906 90.667519
15.604749 6.684443 99.117470
-1.863078 -12.581807 71.511269
-1.111556 14.745408 80.276360
-20.910831 0.521607 86.114960
6.603465 -12.188135 100.655228
14.246952 10.098901 72.283112
-9.811086 -9.036704 64.627785
-3.910341 5.929569 113.404198
-2.524635 -15.355026 75.569054
-21.207045 5.036561 80.656754
4.289036 -16.888489 75.990677
-2.892529 -14.483099 71.772995
8.246145 -9.287347 93.721313
-3.390579 -16.856627 78.546593
0.921191 13.321741 101.975876
-17.038113 -11.513290 80.036339
-18.218224 4.342526 96.122231
10.138604 -10.810633 89.998627
8.580796 -9.669813 114.699356
-14.055938 9.440197 84.740211
2.445845 17.635521 76.066925
-0.902212 -10.585288 91.690193
5.706937 -7.337023 66.349373
12.416638 -13.753834 89.826500
-6.152136 -14.429667 94.396049
-14.766132 -12.215168 81.464867
11.525391 14.005075 73.971550
19.730145 3.683896 85.572601
-19.927288 -3.263638 91.827347
-6.356648 -8.977814 115.497849
21.051004 -1.186855 92.314079
1.521903 11.130703 100.072136
-21.878899 -9.095296 77.272568
0.572991 15.307073 87.216415
-12.975866 -2.432738 113.221405
3.527335 19.162634 70.724571
-5.829317 -13.385431 95.766891
-11.325010 -9.671372 118.286720
23.730478 1.974076 78.683586
-5.534812 -11.161927 105.158493
13.207716 -9.099384 102.815758
-16.933231 6.089283 82.036301
2.378994 10.064540 103.909676
23.734402 -1.375883 88.152802
-10.014178 14.567514 78.070633
-1.964791 -12.981678 88.459503
6.062119 -10.949320 66.512550
21.262175 -1.735782 80.839233
-17.108776 -2.661762 105.042351
-14.983946 -19.184294 70.746529
-13.473980 4.261370 109.580879
7.849999 -9.830918 70.684189
17.493544 9.080994 92.302055
-9.681700 10.991679 96.691261
-1.218529 -13.229263 90.277527
-15.469974 -11.425528 90.309273
-16.179024 13.728221 79.407738
18.114511 11.972121 78.517136
-10.708562 -11.113063 84.774544
-16.329748 -9.966866 94.804253
-2.542566 15.563802 73.806129
-0.550238 16.035875 80.099129
0.433417 -12.398721 115.596802
21.742216 -8.490985 76.784081
6.321162 -12.326948 92.394058
-14.015633 -11.371998 74.560974
-2.233175 15.596067 84.890862
7.905960 -13.440342 64.902153
4.623638 13.101749 84.260796
-15.107139 -11.360848 80.024887
11.282063 11.171161 72.535828
-10.441738 11.169600 93.366966
12.711754 10.965953 79.513702
-9.246045 -10.541009 112.572891
22.025581 -6.745523 67.076088
19.413754 -2.213836 98.881851
-12.630083 -14.487362 77.288986
-13.060561 -7.233225 110.161163
-0.879746 8.000384 111.618607
-0.895335 15.440604 90.489059
-20.166199 -6.699992 74.975685
9.174736 -14.518302 71.285950
19.800714 -0.749805 100.468925
15.512877 -10.837201 89.512238
-19.587429 -5.399964 99.792854
19.266302 -1.668828 103.501137
10.442330 -15.215313 71.594048
-16.799906 -8.742215 77.824600
-16.977400 4.978433 103.530991
16.176264 3.853725 100.053497
-12.989807 4.728871 110.109070
-10.699527 -17.263245 70.652702
-11.337990 -11.371980 101.350975
0.036019 10.849439 89.769051
10.870432 9.511466 103.341248
-14.435200 7.848243 89.282463
10.330239 13.474174 71.926559
6.691471 13.413828 96.928993
8.632482 -9.506533 81.692558
-15.706071 -6.593715 109.870163
-17.903204 -3.821460 96.540337
12.330096 13.388196 68.806877
22.936874 -7.102022 74.500313
14.436090 11.047750 91.330566
18.719933 -8.693910 84.163162
19.159163 -5.127500 93.206329
-23.816154 3.027148 77.996216
-0.014361 8.359485 108.437386
8.099627 -16.572868 65.334084
18.832970 2.106039 103.985352
13.768285 11.013126 69.902878
-9.837911 8.185907 107.769760
-9.972388 -9.451520 67.776192
-1.824032 13.650542 91.909584
-12.129082 -9.115679 72.130653
28.057060 -8.293265 70.562645
5.963343 -10.180972 115.729836
-16.021353 -1.181456 109.051003
-11.608244 -0.091340 112.879524
3.548636 17.303680 72.828316
-5.683553 -12.601757 63.284073
-19.183372 4.353375 100.533981
22.231606 -1.655895 88.928749
-24.773996 -2.548241 72.620003
16.029648 -16.265055 73.295525
9.919147 3.339357 115.189018
7.219673 -8.006199 89.664963
-16.069639 7.952638 96.740662
-0.834521 -14.676769 71.175957
-8.665843 -9.011539 86.965164
18.090710 -9.465782 70.765778
-21.984991 1.478377 74.028496
22.228304 -7.094480 69.083611
-12.049359 12.641043 78.806488
-15.645226 -9.711621 102.036369
1.233520 12.483978 76.416496
-25.346123 -5.332423 70.358810
22.935619 -3.453223 86.669464
17.405199 -2.169303 98.917160
8.826225 12.355378 71.591881
-23.517828 3.704505 77.354378
-8.786427 -8.465821 76.446770
7.531743 -10.910937 99.785835
-9.988126 -16.380325 62.825439
-20.481400 1.923275 86.633804
17.750538 14.474312 71.745575
-19.937248 9.866133 69.948532
-15.654556 -9.731235 90.214027
-6.084212 13.519836 78.211983
-13.312858 -14.337092 81.014450
-17.872200 12.935363 69.607208
11.602175 15.523277 73.826294
2.286169 -17.077044 62.249111
-20.878088 -1.546485 88.774788
3.193095 -11.422367 100.237846
16.490910 8.656342 99.040176
-7.575329 13.350942 79.033882
12.472336 -12.325281 99.214409
-9.425725 -9.353946 109.799210
0.462782 8.626160 108.128784
9.820669 -12.957992 93.569443
-19.745148 -1.362933 97.882172
4.092111 -17.218014 65.242447
15.918725 8.939210 71.295601
0.156791 10.229179 95.959488
-18.916771 5.187585 88.895966
2.779896 11.551350 102.909813
15.902067 13.698791 74.998230
0.165965 -17.023720 81.224045
5.720937 -12.479241 90.626587
-16.046356 -9.080251 86.630394
-7.917813 -17.195448 72.495911
-14.641565 -9.330733 105.011032
9.967234 -12.874271 71.198326
16.321808 9.729026 87.148132
1.511932 6.952980 111.700073
16.364893 5.458221 105.968460
-7.913155 -13.356928 96.414345
-6.184850 -10.239541 89.415428
-13.514431 -12.439597 85.434425
21.702242 3.146963 74.844353
15.738181 -2.815526 104.925331
10.706563 -11.505279 109.208755
16.216541 12.167896 78.176910
-2.286932 -13.750047 70.379517
15.302055 -4.805745 117.958130
-9.807289 12.654335 74.222023
22.139383 -5.115702 91.121094
18.943008 -1.263111 95.138847
-11.580834 -9.525352 91.884521
-19.654348 4.118136 75.706841
2.215949 -14.764923 93.288223
-10.891542 12.501614 89.269608
2.790854 17.701851 71.180031
-14.242179 -12.425114 87.819229
-0.705851 -17.788767 65.448868
17.339994 2.981029 100.275795
15.044847 -15.935854 75.306953
14.885575 -12.023293 85.570465
5.717585 8.451591 108.098534
-11.294984 -9.424843 74.860283
2.967613 -16.605715 82.971405
18.776493 -6.246316 93.619370
-16.527857 9.315313 95.287827
-11.268156 -8.666199 104.324478
-1.500642 -13.064037 83.520454
-6.379865 -10.110728 77.027504
-13.278089 -7.255652 106.718407
17.953588 7.415424 93.507248
-14.432518 -15.202585 90.813171
0.159109 15.571044 74.304268
16.386763 -5.656336 109.352348
14.095997 9.831479 70.055565
-3.722878 16.467018 82.503586
-23.510094 -4.973564 76.230057
-0.843816 12.947665 85.927513
10.110073 -10.752386 82.181557
17.441608 2.591676 103.589066
-19.259855 9.686871 86.568474
17.452633 4.535629 95.294823
18.891247 0.904808 96.259171
21.036463 -5.368085 80.566948
12.341169 5.883264 109.212807
-14.557662 9.450751 70.982719
-19.267889 3.865670 86.586601
15.338851 -16.094805 69.622177
-3.087568 -12.167683 105.644608
-2.188257 -13.640960 88.070938
-6.203136 13.185325 91.838760
13.017059 4.399488 109.236977
5.905659 14.326403 86.085289
12.362328 -3.459086 118.297394
-5.214855 -14.263680 107.391029
-5.719832 14.726929 73.235909
-13.570866 1.334430 110.655663
18.017822 1.685077 96.662415
-12.386987 -10.674526 83.647049
5.988125 7.901150 106.686157
-2.787315 -14.936641 79.108429
-21.104858 5.753366 72.148323
25.475351 -0.724165 80.345558
-10.539065 -10.931027 83.982025
-7.075026 -10.453998 109.952553
3.980069 -17.088755 67.814087
2.543451 10.836613 102.526161
-20.094021 0.545559 97.918442
-6.776924 8.206348 107.432404
17.338898 -11.849344 78.872154
-3.575841 -13.036219 67.740211
-10.774837 11.724442 91.136093
-16.135235 9.651988 94.029579
9.608244 -11.351465 70.175003
6.478709 8.302977 106.311020
19.768261 -4.697116 96.700165
-13.591070 -1.792646 114.725754
-23.105022 -5.063659 84.883591
-1.259285 -15.206581 91.229164
13.872509 -15.044182 89.061874
-19.697569 11.183952 91.399284
19.514853 -3.117461 82.288124
20.369345 -0.219599 98.475937
17.741682 8.810115 84.773048
22.806246 -2.817055 80.305809
-12.779268 9.620728 87.776863
5.542970 11.047335 98.365021
-11.030146 -9.417785 112.398232
6.292544 -10.427287 105.370514
-14.950734 -18.501101 76.237206
8.895866 -8.479515 61.938148
-18.630789 9.012893 83.930374
-13.205694 1.462396 110.491371
21.327015 -7.982537 75.881248
4.805923 17.409445 76.237061
-13.953700 -10.098408 100.970360
13.473759 -2.231124 110.305069
14.291401 -9.634109 101.481308
-19.451660 -2.395071 89.305054
25.774603 0.467093 79.727104
-14.675255 7.260004 86.059952
-9.359892 -9.471759 84.891640
-14.085223 -12.361532 102.743370
-4.344791 15.467297 84.110634
17.116697 10.303377 76.213318
22.310717 -6.748082 87.833748
15.807403 -10.255862 95.483337
7.725323 -13.112997 66.606056
14.085905 -14.787948 88.117363
-16.434565 -10.542428 68.420174
-10.877823 7.104360 109.032471
-18.164726 12.308784 90.143738
-4.505760 11.889482 81.025429
-21.975193 -6.238047 83.589371
20.422785 -0.333788 87.325928
11.285630 13.067427 83.714401
5.914196 -12.947021 109.404373
2.146989 13.908369 80.620789
-3.312515 11.936507 88.118393
-1.226921 8.770485 107.578529
20.953472 0.780771 90.413513
21.930983 -4.661873 82.566292
-21.901487 -7.126473 85.200943
-5.106752 4.619746 116.313011
-9.313751 4.069489 116.070862
-12.595172 -13.184071 80.898102
-14.272408 -4.455916 110.906418
8.035363 -11.638002 73.334236
1.328059 -14.043688 90.632622
15.131500 -10.556640 82.300453
19.848864 -2.576145 100.081909
5.242349 17.312477 74.085442
-21.631413 -0.630795 93.978813
-22.397068 -8.387293 78.704491
-8.278244 -16.497793 67.950478
13.438384 6.415451 103.502609
-14.835587 6.243316 94.064407
16.535246 2.165314 103.452271
8.924407 -8.720680 96.403999
8.274011 -7.441328 89.118553
-8.007870 11.232635 98.093506
0.245776 13.700885 76.773109
-7.961368 -7.966962 70.146584
-17.038319 -9.215046 75.755386
18.754637 12.503155 75.180275
-24.265060 2.343451 78.528366
-5.367111 12.464687 96.470551
0.600832 -11.563797 91.129990
-13.405614 5.554523 105.013504
-3.321886 6.468193 114.249794
-18.579315 10.346888 78.957977
4.573727 12.362558 92.670029
4.082317 15.085788 86.878059
-9.867636 5.718610 109.889046
15.393988 -4.447666 109.940414
17.277224 -14.095527 72.633484
17.190500 10.314931 82.187820
-18.551565 5.335835 75.064171
-14.699148 5.552030 71.970856
19.077562 -7.163331 98.230713
-3.361026 9.678588 105.552444
-7.411093 -9.602180 100.267578
23.106720 -0.978456 85.136589
16.499884 8.277136 100.339615
-5.726089 -9.175738 71.206253
5.867614 -13.004665 95.733444
-14.406901 6.638474 102.831375
-4.950436 -9.872616 85.411728
-19.440556 6.642972 80.363968
15.647528 11.922979 82.663368
5.819609 -12.426741 79.320564
11.404095 -14.079207 97.898857
-19.019367 8.170764 83.808296
2.303865 15.507824 74.593948
23.767059 -4.360006 76.993538
24.357655 0.430226 76.479652
7.087846 -11.738647 119.895836
19.126717 11.722692 75.523537
-19.982920 7.588243 72.845520
-7.082744 5.819926 111.068497
-8.723766 7.878890 106.241158
-16.905813 12.101026 87.236290
10.479353 -14.845820 82.004784
-12.041808 -13.880598 69.189835
1.786713 7.279055 108.933327
12.721150 -8.294409 111.016136
1.856560 -17.269417 69.152298
16.902065 -5.026275 109.795120
-7.891307 12.763186 101.121452
0.806427 -15.542413 78.959999
-18.918484 -6.287430 96.284645
-4.836070 -14.470262 68.296486
18.890806 -2.784648 96.556252
10.179419 -13.216707 94.564262
-15.616969 -9.749727 106.420593
5.431596 -16.146828 80.230095
1.869859 16.179939 74.002373
4.450075 -14.259944 92.245491
-6.179470 -16.429455 77.988953
16.963907 8.173777 77.544075
-17.735937 12.333517 89.663727
-2.418780 14.931078 80.693420
-10.385189 -1.048391 115.165573
19.617121 1.952362 95.128815
-20.871498 -6.458190 84.219604
-13.501173 -3.648654 109.102959
-13.136024 -14.155692 88.288597
18.269621 8.928018 95.631691
7.536832 -13.327057 75.074188
-1.350582 18.281040 79.203827
-9.513804 9.023502 108.323959
11.663775 -14.765710 85.378677
-4.065542 13.536337 83.362396
14.957240 -14.959719 69.678642
20.195932 -5.353367 92.133644
-10.860559 2.608243 116.580322
4.284781 -12.150177 79.585342
0.774963 18.417540 68.575859
-17.906216 -6.138525 93.176811
21.417006 -7.722532 94.310577
6.667913 3.160777 109.477783
-14.947990 -13.278884 91.091454
15.825397 -10.405803 84.527313
12.636950 -0.098552 112.987144
21.366043 0.050621 83.440948
4.116709 -19.484858 62.890247
-8.695211 -9.304498 112.658569
11.751480 11.036296 90.364540
-16.162355 -6.485871 102.797005
-19.707565 -6.177286 80.109596
-11.542877 -14.042933 100.343178
0.531785 15.544556 89.942200
-12.195375 -10.244139 85.038574
0.792191 -16.783684 79.542107
-14.478223 -9.029737 92.300888
9.732272 -10.666741 98.653633
26.533043 -1.864178 76.962532
19.814274 0.472581 97.940636
20.151941 8.341970 88.386131
-18.746124 2.438026 93.228622
12.721497 12.371706 69.698746
19.293882 -2.138447 96.780174
1.241824 -16.414034 63.865990
1.541156 10.391921 88.794594
-7.534979 -17.089767 66.952187
7.397668 16.225683 72.459846
-12.086620 -9.797750 63.710667
-15.394808 14.495323 73.362564
-6.838740 -14.251330 64.950394
9.266318 12.634430 91.071350
15.877273 -9.416612 81.499870
6.904923 -9.031166 94.489532
11.090527 13.371312 80.289696
-19.469261 -8.769573 73.009773
-21.670933 2.351310 80.791107
16.272951 8.405404 97.993744
6.157167 -14.176892 75.148491
-10.905691 -8.533179 68.212044
-1.096200 -15.188732 78.860954
19.812096 -4.308358 78.370453
24.021919 0.035930 88.416718
-16.670856 10.783603 75.054291
-18.906767 6.864002 71.708870
-15.669145 -12.197762 71.892853
-3.312365 13.843555 93.768570
17.668676 1.543459 105.381279
-14.537712 -14.006703 83.786583
-11.735938 -11.732855 81.298439
17.174101 6.856533 93.700714
-16.661863 -15.312181 72.182449
3.835811 -14.422511 87.978127
11.504013 -11.387989 107.314842
-18.093487 7.190082 89.100395
19.285461 7.400102 81.194801
13.623297 -16.681883 69.566925
3.088131 -12.114636 103.284584
-4.969414 -11.165732 103.521912
9.323350 -9.599338 73.781792
13.489927 -16.559534 71.890869
4.021705 16.425297 79.030594
-21.313915 13.105566 74.465744
13.505957 8.071362 85.528954
-17.146013 -8.170731 79.623222
8.821337 -13.160919 66.684662
10.911607 11.337569 78.367432
4.478396 8.466330 107.247353
6.329899 14.260673 73.359169
21.298832 -2.569357 82.591721
9.496780 -11.045002 77.304916
-13.104146 -12.474547 93.587227
-16.887959 -2.280217 107.068161
-21.966862 -1.045617 97.539337
-19.219143 -2.798795 96.081665
-3.381532 12.517252 101.460030
-24.069372 1.528848 73.450844
-5.513633 -15.054356 100.909760
3.671319 -12.136746 105.790756
-2.447673 7.667096 113.969460
-3.858023 -12.348035 109.967087
2.321932 19.781750 72.880318
-8.734389 -14.573975 67.880554
5.011293 -9.119354 85.350410
0.626686 -13.736387 112.380035
-20.164198 0.195272 91.189758
-6.789679 -13.711720 74.508698
-15.123917 9.051394 90.230919
17.769844 -0.843355 101.600891
-7.493500 -10.873876 98.033684
-2.780303 15.673375 81.770859
-0.376593 18.758305 71.820786
-18.958651 4.981132 77.812904
-0.497005 8.555336 109.211433
22.107164 -1.421682 75.710747
-18.558037 3.765307 103.951538
12.151168 -5.411159 112.312500
20.864630 1.271243 76.886421
-13.962582 8.311532 82.228157
11.862871 -7.822567 109.730164
-10.871262 -12.719455 88.079330
6.355096 -8.696399 116.008034
-17.194132 -8.212729 95.555344
-0.483432 10.919011 88.560150
-11.901763 -15.221091 76.935410
-2.975190 13.564286 78.705872
3.430449 -17.636862 85.521118
8.084228 -13.251270 74.530708
0.450883 10.504626 101.833282
18.107861 -2.067985 104.592827
11.063039 3.845425 115.211784
7.046366 -14.458940 85.677399
-10.627732 -10.480997 98.555969
-14.937019 -11.857191 96.117737
-3.791221 -15.595278 98.322067
-1.156315 12.880496 90.280846
-0.855830 13.891121 97.724075
6.134669 14.906949 76.776115
-2.053334 -12.086590 93.757744
0.726802 13.792239 85.838959
-18.999588 8.682518 76.287819
11.111707 -8.286820 113.940590
5.075931 -15.220451 92.654518
7.985682 10.132183 100.423553
5.967039 -8.747439 80.230591
-14.050000 -11.282336 85.377831
22.229332 1.478959 77.022064
-19.576313 12.802267 81.276512
-10.498383 13.840517 68.116562
2.550328 11.491533 97.754860
-15.169319 -13.993492 93.427261
-14.735210 7.255742 102.338730
2.395150 6.654378 111.901581
-12.893220 -7.042587 117.173439
-10.398528 11.126259 78.727005
16.462362 8.533473 73.010330
-11.495531 13.481157 76.512611
2.679707 -14.700529 92.634132
-20.681820 -6.866193 96.744232
16.184929 7.186167 83.289940
5.812992 -11.739613 115.846970
18.612967 -5.106144 95.899445
8.844477 3.088788 115.284904
17.045988 8.901111 83.752365
-8.776102 -8.508590 85.274094
-1.777969 -9.834003 114.768890
18.570221 4.262043 88.393372
-23.379683 3.613580 74.773438
3.201478 19.585550 72.232513
22.175165 -7.299222 76.935150
24.255112 -7.404145 80.097176
-12.536733 -10.822061 75.495125
-15.509283 6.665802 74.233131
-18.140190 -2.912118 103.684296
-5.784992 -16.035875 62.355503
2.120103 15.719487 70.041199
18.771622 -4.926324 95.919533
13.477884 8.830441 83.140503
-25.297049 2.855809 83.103615
20.639921 8.093142 74.656189
-20.534275 -4.198481 88.329849
-10.638198 0.458195 117.885376
-6.084054 -10.251905 115.097763
10.274649 -18.425194 65.413376
5.376379 -14.078646 87.543343
20.745335 0.494142 88.652954
13.939803 2.334997 109.168205
-22.735125 -5.197227 75.408073
0.109064 17.620703 68.890488
5.627751 -18.229340 63.317951
2.831927 -15.515220 77.379036
-7.236501 13.513301 74.289597
-0.509572 10.048679 105.338814
-10.278407 14.260540 71.111183
14.485916 -11.185416 100.540741
8.932161 5.021108 116.008102
2.343794 -15.150840 84.443062
-18.760250 -6.621531 88.376335
-0.732316 -14.211098 74.023201
3.754568 17.941298 74.531563
15.688257 9.914827 89.803749
-10.813267 13.060284 84.226456
15.700423 0.763532 106.242050
-16.612888 7.968352 81.154762
-1.860038 13.445506 79.034904
-17.262091 -6.463635 100.884010
-19.541769 7.139638 98.930298
-12.561955 11.629787 89.852219
-20.987949 -4.699558 96.033669
-17.468208 11.396053 74.950142
11.304758 13.633165 73.043915
-16.567278 -4.808218 107.625031
8.783601 2.583762 118.443787
10.370907 6.721088 109.200371
-12.571323 -18.471251 66.439690
21.393950 2.202760 77.254318
13.052956 10.062449 91.199280
20.033014 -1.726041 94.080055
-21.276070 4.830866 81.559311
-6.409868 -11.678361 115.200439
-13.354849 -2.012677 112.902840
6.541900 -10.484519 107.614929
-11.990471 -10.469446 99.923378
-17.153276 -9.154821 77.778992
21.366947 -4.239005 91.259705
-7.195054 -17.697613 62.266197
19.301577 6.604766 80.901077
-17.062939 12.637795 79.587151
24.597303 1.152782 78.315002
-1.632773 16.638411 84.772758
-6.658716 12.553449 96.271866
14.863100 6.261699 107.820717
-15.726503 -11.453114 78.742538
9.948500 5.661903 119.436478
6.376781 10.423706 102.663734
-6.141693 -17.652203 65.727303
19.895210 -6.340260 95.343834
13.165573 1.244085 114.539665
-23.333105 -1.444187 75.193832
1.879963 14.034344 91.196724
1.486167 15.262129 93.204926
-16.266041 -9.727532 77.718269
9.515179 -8.255696 70.681862
-10.365567 -9.340112 95.926247
-22.739920 -2.116094 72.611816
-15.919552 -15.258486 71.195389
-22.069565 -4.135500 76.088684
11.316334 10.599289 71.155220
14.175361 -14.371199 92.558701
-0.648523 12.309777 103.107971
0.705695 14.635639 69.967903
4.344686 5.449607 111.422386
1.850465 17.046593 70.585915
11.023119 -15.087378 78.091301
16.078897 6.142741 102.774834
-24.373968 3.553162 76.965744
-21.068100 3.302717 79.976608
4.624761 -14.232473 83.331329
-20.372946 -1.371766 79.158569
4.519770 -16.980576 76.755661
-10.729403 13.999128 79.110039
4.142385 -18.561689 77.239021
8.946159 -8.012007 62.780193
-20.607105 8.744877 76.184036
-18.999670 10.148098 76.005531
21.090433 3.402659 75.755280
10.529728 -16.544649 75.004959
1.628668 11.944114 96.074989
-16.363375 6.582005 77.440269
22.340683 -5.682865 85.246399
13.153395 -17.281391 66.830544
-18.302368 -2.995249 103.260048
-19.462111 11.927907 91.861557
17.737045 12.051805 73.012917
-7.361258 -14.111162 72.450211
-18.243078 -10.616251 69.686256
8.393568 8.268651 105.431511
18.546980 2.005630 103.950821
1.291820 -15.746281 80.122025
-1.004545 14.637954 90.462334
-19.614086 -7.881281 74.576714
19.172155 9.184284 79.651199
15.224259 -14.381792 78.633522
22.460537 -1.059853 83.233467
-21.125858 -2.222010 88.984711
-18.348625 -2.529327 105.804390
-11.205417 -10.058061 64.852188
6.162563 -13.658484 97.088707
-23.104641 3.791362 78.060905
-20.821033 0.992169 88.275810
-16.391390 -9.415532 72.942741
-11.547644 -9.072207 74.859863
10.286173 2.152079 112.022987
-17.708002 5.432971 93.376640
18.058935 -2.787208 97.772507
15.582651 6.159108 108.680344
-1.801898 11.318082 108.651451
25.262936 -6.999965 78.082123
15.809657 7.872461 95.343536
-9.439420 -10.306784 110.087929
-17.219719 -4.450317 104.693970
-22.470942 0.893370 84.620995
6.913913 -9.341430 75.170464
-23.634872 -1.649460 76.141579
14.428013 -8.544303 103.796570
17.766537 8.664251 95.539192
-0.574300 -12.294646 84.352821
-9.763611 10.571176 99.808624
14.202858 -16.565033 79.517723
-9.318824 12.039819 83.924889
-12.063331 -12.467688 85.196129
-3.182760 5.577413 115.474709
-12.038927 -10.658281 88.748207
-18.638649 10.176228 76.600044
21.501566 -7.615032 92.090347
11.703846 -11.599748 105.101990
3.474349 18.300510 74.186737
-13.315713 10.297796 75.024239
-4.017466 -10.214467 109.344437
-17.421944 -6.069308 95.019089
2.088115 15.166869 77.726776
-22.116392 3.850291 74.876999
-15.539550 8.021495 97.394920
2.204278 -14.988165 103.460289
6.279884 14.998634 89.380592
16.517609 6.520787 82.264389
-5.561348 -14.284370 90.395760
19.321062 -3.563290 102.570328
-22.742668 -4.731377 84.371674
-6.620318 13.033536 76.650955
-0.848188 -10.764514 92.139381
2.054683 13.559711 76.554855
-9.016214 -9.789870 84.307037
11.682274 -8.451355 111.881645
17.126558 9.977988 87.269516
-20.051823 -2.034724 94.178551
-0.092813 9.644367 104.097466
12.027796 13.960505 71.945969
18.091969 5.424013 74.685753
5.423764 -18.504633 68.365623
3.193830 -17.822802 61.916355
8.522339 -6.917232 63.893715
-10.166463 -11.563146 106.452515
4.615382 -10.517286 66.399467
18.604805 -2.257848 101.708427
18.885532 8.299765 75.424973
18.932051 1.759272 91.847267
0.726498 -11.197255 108.886520
-1.554111 -11.740865 117.454536
-18.354593 8.494926 83.972504
26.963066 0.777725 76.941673
20.647186 -2.541783 94.782944
14.376450 7.915881 104.003326
16.892891 11.840869 72.620522
16.944376 2.494221 93.764473
-16.914845 8.460386 101.751106
-2.610117 -13.964569 72.550194
19.343439 12.098267 72.877083
22.222757 -7.616365 86.212479
14.571061 -2.288070 111.610992
6.683489 -16.457211 70.463997
15.401116 7.681556 97.186371
-4.476232 -16.321072 72.953644
22.549330 -8.945784 76.994614
-14.900145 -17.400656 71.240311
-12.274245 11.020923 92.049065
-20.350151 -7.512226 72.518265
1.150610 -17.214809 85.906715
21.391724 -8.321042 74.358154
-14.819752 -10.652086 92.179192
-19.383486 -3.482748 95.934662
7.940183 4.094313 116.085098
11.483314 -2.461878 118.599052
10.441136 -3.381528 118.085228
-1.366454 5.935668 118.683235
-4.463159 12.214975 88.406723
-16.662283 -14.467045 79.705750
-6.826016 -14.296260 69.686676
-13.393079 -13.511164 96.562462
12.760261 9.990618 69.965981
12.352764 1.852061 115.113060
9.596349 -11.407216 82.548592
17.657341 0.851376 98.571930
20.474470 0.859451 89.405159
-19.216381 -8.185624 71.313438
-14.798273 -17.541674 71.227333
20.632166 1.766117 85.152138
-17.176798 11.355761 71.804741
-20.681141 2.375215 80.447533
-9.544748 14.783959 69.297569
13.457465 -18.229805 68.850525
6.617591 -17.199879 64.725967
21.153952 11.179410 80.437782
16.553335 6.486721 74.748184
3.675303 -19.224415 64.285545
-11.604891 -15.162771 91.013351
8.842605 13.386445 71.965630
14.017210 -10.434041 95.068565
10.176990 -13.120153 91.596130
8.342459 -14.298552 71.244026
9.935860 -10.768076 89.086449
9.692587 -16.836292 73.549019
-8.743552 -15.462097 66.526764
1.259718 12.721509 77.700890
14.926988 7.161797 101.393410
14.674726 -6.989943 100.807503
-5.245076 16.247129 72.847900
-13.438427 5.987401 105.268051
20.897696 1.436104 93.764534
-17.543564 13.562095 76.900887
19.287653 -1.225718 101.260727
-19.496981 -0.925083 73.530907
-20.341225 12.108605 78.743973
3.211171 13.647376 91.222839
15.989095 10.795182 91.170532
6.059841 9.641059 106.653381
15.939566 -14.039539 86.959526
3.552245 6.459946 116.820335
15.869394 -16.241348 63.831509
-14.579262 -10.476928 76.842361
6.769816 -15.794366 62.913006
16.552023 -7.867061 97.343185
14.214830 8.955244 91.874718
0.439477 12.019459 83.964546
-21.902557 10.085050 81.302605
6.058404 16.624521 70.022469
-19.355509 -4.914561 101.696014
6.111016 6.505285 109.497047
-11.214328 -13.867903 65.666008
-6.981621 -16.509706 87.197655
22.507626 -5.768202 72.517441
18.544397 9.127586 91.590698
-19.748362 8.928554 82.564957
-7.400917 -9.042971 73.228638
-17.020344 -6.455306 96.075325
10.473996 -11.980504 101.992210
-5.567597 -12.652293 111.039177
7.350384 -14.499132 85.163040
-15.210051 -10.909000 92.729073
-8.474468 -16.359541 73.698128
19.933624 -7.972894 86.519943
22.324907 -4.242927 82.132545
-17.238565 -14.811644 71.250679
-0.238794 14.259100 98.051399
-23.809353 -7.143008 86.732918
-14.875293 -6.825920 105.741722
-6.620883 -10.487225 107.796188
18.517763 -8.803658 76.083534
-13.667434 10.414202 81.221245
3.441962 -13.909253 91.066429
4.780066 -11.588703 64.776062
17.660978 3.659898 90.639603
1.031376 -15.310992 67.651749
8.015909 7.720577 105.116837
3.133047 10.576553 106.272911
-5.716362 -15.349978 62.891701
-15.458876 7.855237 102.138161
-11.497917 9.899005 93.532921
-3.539897 12.098335 98.125122
-7.790961 13.132106 74.351662
20.546671 -6.490941 100.402710
-14.148234 -16.261278 79.613441
1.069088 17.408491 66.940788
-13.328895 -5.234776 114.493919
14.565472 10.255117 94.810028
-11.859772 11.201818 86.717827
8.463368 13.632998 91.762444
7.554688 -13.318812 72.837021
18.700968 11.320512 81.312256
21.270910 10.388440 69.264778
11.546203 -13.026522 98.497566
17.118185 13.928467 74.411484
-16.464701 -4.103425 106.902107
24.135059 -4.520960 88.414932
11.086131 6.659143 105.247627
-23.866156 4.295211 73.241432
11.286190 -11.524261 109.701576
-3.985838 12.883467 70.299942
19.824392 -5.231186 99.744225
-0.731068 13.591395 93.842392
-0.217557 11.631246 97.721542
-23.800331 4.539903 79.445366
8.820057 -14.095412 80.708267
8.374894 5.598763 111.047440
16.441074 2.619287 99.490768
23.335516 -5.870353 88.013329
-4.277291 -14.490866 87.952522
2.573578 -17.203135 82.619095
6.412822 15.883430 71.414047
2.511442 17.856789 84.874779
4.364029 -10.205789 114.881760
1.045019 -18.128559 77.480667
3.372409 6.895507 108.743423
17.000441 6.830194 104.492119
12.509253 14.067263 74.646782
-20.048328 4.577177 78.167725
-13.493559 -10.770820 68.878052
-9.656347 -8.552588 114.093224
-16.595692 8.745601 86.769653
8.784634 9.351882 103.950996
21.285925 -4.999140 84.600586
-16.917194 10.232770 99.838463
5.642999 -15.346683 93.646057
5.490783 -9.129356 72.327721
13.988864 -11.084659 99.497108
-15.136833 -15.285808 92.874359
-5.646410 -14.702738 78.600121
-0.309332 10.235042 96.577873
-15.578167 -11.423646 71.688637
1.751841 13.413010 78.534828
20.394236 9.707004 72.127647
-17.378551 -10.513732 70.944511
-13.852772 11.811044 85.903496
-19.738400 3.791570 90.842766
20.615494 -6.635385 88.238228
1.672814 15.166771 87.997139
-17.781515 11.074903 91.449387
17.954594 10.467668 87.196167
-8.855882 -12.920943 80.030899
-18.164043 17.015562 76.092484
5.625355 -17.482025 76.275558
5.000831 9.133566 108.022049
-18.337408 10.316935 73.848602
-15.904404 9.186931 73.938347
2.681526 -15.087571 94.665344
11.448466 -13.478324 97.934746
-2.196693 16.112040 74.877594
12.883863 6.166342 106.314690
15.471301 -8.024606 106.541756
-10.363503 -12.014448 104.080215
9.694849 -16.828228 69.238983
-7.859914 12.228720 71.147133
-16.506495 -15.190055 70.252113
20.412521 -2.150782 77.335815
11.053264 -12.261115 102.540352
-0.191158 12.962999 84.848213
14.961052 8.003141 68.225212
-12.557982 -13.096919 88.239120
9.364644 -9.248480 104.552284
21.660973 -8.762733 87.783989
-0.312810 -14.539837 68.735596
22.837643 1.459280 85.458847
-3.724086 4.923288 116.351158
-11.784634 -9.513215 67.769386
-17.739445 -0.272413 102.763023
-6.418496 -15.956502 73.807442
-4.261820 -13.872194 95.983322
0.117594 16.968996 74.596916
-16.074396 8.117244 83.973106
-16.029917 -7.643649 100.309174
5.346690 -18.641855 70.751549
-3.160287 15.866944 78.060616
12.258968 11.685265 91.023514
-13.184480 -8.855915 104.959274
21.409992 5.821527 75.709602
4.074510 17.960239 76.449242
16.275873 -7.188726 103.710297
-6.379368 -11.316283 87.564171
-14.416942 -15.804661 86.729431
-14.818437 8.363415 77.155830
16.996069 -1.428790 107.679283
13.139555 -8.386198 112.975533
-5.775408 -16.356724 75.844986
4.259894 9.774900 106.758919
9.607139 14.825160 79.075859
-12.644314 9.837668 75.852638
12.601306 2.735093 110.305641
-13.090263 -11.687879 72.451736
5.064751 -10.493445 66.488113
21.152346 -0.809443 85.102768
-0.762055 17.891085 73.201401
-16.607225 -12.865449 88.477066
18.538721 -3.359702 90.537506
-7.279419 12.957647 73.494789
15.171265 -8.050398 100.172455
-5.749564 -15.117509 96.564232
10.416371 -10.462443 108.084442
8.945954 -8.948127 73.468597
7.704343 13.620339 92.490021
-6.749769 -10.550529 110.424217
-18.581614 7.148611 98.439575
10.645741 -9.179731 87.875099
20.219940 -6.856492 94.756592
-20.622082 4.026148 81.617973
-17.119228 7.124663 74.791969
14.003284 5.320695 108.477325
16.594530 -13.913649 71.000816
-7.994869 -8.451758 63.050293
16.687950 -8.756898 79.986664
-11.275329 11.886698 83.237976
-1.492905 17.848837 79.710358
-10.005440 4.877668 114.711914
-16.284153 7.977279 86.923668
-2.615378 14.374628 69.821198
-2.242393 18.965078 72.758392
-9.555117 -9.526995 112.703674
15.822365 -10.854154 88.774887
10.281286 -15.599529 70.703796
-2.916742 13.282467 91.487183
1.362901 14.248501 68.253242
-17.351730 10.173594 84.551880
-7.722589 14.051907 76.134682
0.435597 14.631200 90.675529
18.693329 -4.870454 103.309425
11.951575 -13.658024 105.044495
-3.737544 -11.803572 115.054977
6.714972 5.864403 110.717560
16.883644 7.918086 81.645256
-6.867942 7.093846 114.270676
23.388702 -4.661351 84.053429
0.764791 14.318384 74.072838
-16.245157 6.316186 79.429863
-2.995253 -12.608510 108.539513
-2.951878 -13.214057 58.786320
3.809203 -10.888742 94.281013
12.640023 -13.614044 97.052124
-0.058526 17.123222 71.399628
-16.861588 3.770806 105.853767
15.552579 -6.702029 103.873985
-19.632977 10.908024 89.545319
17.937607 7.536643 79.898834
23.141348 -0.839113 89.958755
4.466914 -16.298285 66.735939
5.427048 -12.570857 104.082924
-2.174311 12.470652 92.041328
-20.700254 1.526744 91.903496
6.381064 12.603279 86.477997
-2.671143 14.964564 75.781570
8.015266 14.028396 91.729874
11.771813 -16.015232 90.626831
-15.836374 12.228139 72.331085
7.142933 10.422828 105.567154
19.854734 -5.217331 93.175224
19.843889 -8.833800 83.420723
-16.566965 -8.551047 85.909927
-0.331614 -14.290397 104.029205
23.817240 0.230964 76.968811
9.799256 -13.320579 100.131775
2.828081 17.670021 77.418594
7.709664 -13.719136 65.260262
-4.855988 12.066611 84.326134
-12.543300 -10.850785 100.910034
-4.558886 -12.374832 72.821388
-18.937567 8.719027 76.211189
-10.945709 -10.520114 102.422707
-19.473066 9.658437 81.438416
-9.852409 -10.261468 96.277184
-0.366566 -14.621038 63.204800
-5.889251 -12.731048 101.643135
-3.418373 -11.616838 114.843460
-11.983937 -15.964378 80.325043
18.130365 11.413977 89.860718
5.115245 -13.738848 91.236832
4.980633 16.737404 83.506668
0.060684 -16.556244 102.527580
0.772974 8.644425 108.162018
-14.012795 -3.725143 112.501389
5.931935 12.215721 89.288429
22.599785 -5.712949 86.355774
-10.177610 11.527409 89.542366
8.414023 -7.818020 79.736526
-4.713779 -10.971484 87.665161
21.286051 -6.272391 84.114227
0.839625 -17.844286 66.454430
-14.227774 -18.100723 74.940582
-17.109886 -15.841713 66.875908
-11.477942 -11.129404 105.064728
18.598293 11.103786 73.553520
-21.129358 2.525345 87.057274
5.869678 18.506544 87.974205
19.673798 3.176153 89.936485
-0.794963 13.761850 100.516434
-22.016340 -1.379522 73.191864
6.174616 -16.572203 72.217735
-22.075459 -5.807421 81.527412
-3.492755 10.736114 89.012299
22.750740 -1.311238 73.040680
-21.013552 -2.949970 80.288101
-8.080564 -13.227117 63.027767
-5.322966 -17.393610 71.379112
-3.222953 -11.277220 111.299774
1.261137 5.421285 112.060707
-12.841508 -12.133079 68.358482
9.898791 -4.382061 117.080261
13.630260 10.548256 81.211273
-20.318224 3.374782 91.169853
18.289371 -11.413362 75.682137
-9.296488 -9.487316 119.177094
20.994499 0.684529 82.487297
-16.619137 7.056443 97.104630
17.942539 6.567762 98.145332
-21.982918 -2.937656 77.488388
-5.791731 -15.524362 84.155853
25.411631 -0.620298 78.342567
-16.995266 3.403231 103.842392
-1.127619 7.239127 111.224434
-18.239555 13.087049 76.377426
-0.621289 12.933392 96.378761
18.396317 -3.993016 94.540298
-2.094368 12.431334 94.486778
-19.865650 6.506347 85.019516
-11.015867 -9.368464 64.154305
-0.067777 5.858637 115.861374
-7.328955 -13.880855 89.654366
1.222628 -18.312632 65.889198
9.451880 -11.620892 99.242737
24.589813 0.153482 86.052231
10.352181 -16.055029 69.183586
-22.751707 -0.316403 78.561172
8.812253 -6.909284 85.602417
3.470063 -13.692737 117.748535
8.141493 8.899526 103.212654
-20.378065 9.931637 78.834190
-16.245216 10.488067 88.893150
-17.702118 12.565169 78.863342
-15.328671 -12.357070 99.034172
19.343901 -2.636089 94.535187
-18.549145 7.604948 91.042931
14.760452 9.111680 83.721359
-19.879671 -3.172907 84.691391
12.219174 -16.752756 71.371284
6.915301 -10.067240 112.785133
-6.780025 -11.671260 103.642067
0.711290 11.944051 88.427345
-4.215964 -16.492863 63.148170
-9.566283 -10.934628 100.597778
-2.136297 14.201062 85.134926
-5.864567 -16.735054 73.808922
-2.459252 13.110316 97.064835
6.108292 -12.356702 73.195580
13.431883 6.300383 108.066833
-0.822656 -12.742603 99.070381
5.355966 -14.273904 84.232208
-19.436626 2.101249 93.218987
-4.121890 -11.749001 114.886169
9.076792 -8.316010 74.237770
-0.312144 -15.968315 63.864746
6.132213 15.092983 72.692032
5.745808 -9.057719 69.263885
-2.419104 -12.856901 79.214035
15.063471 3.512238 97.781471
-9.333400 -9.245737 86.029335
2.432175 9.068765 107.428535
-8.329240 13.036669 78.051277
-11.618102 -10.338408 113.193863
-7.063219 -9.263105 113.584427
19.957775 -6.526699 95.261894
-18.282631 13.030551 85.004501
-6.677668 -13.081982 102.418610
24.277315 -5.237449 80.591110
-7.199505 -11.287957 65.782524
10.469478 11.519699 94.537613
22.460360 -6.154411 93.714096
3.967237 6.642015 107.113564
-11.002309 -5.559158 115.335922
-10.825997 -11.850349 97.592621
18.430824 5.865559 98.230820
16.225449 -10.562394 74.366943
-0.584282 -15.722329 92.923111
-12.838227 -15.907080 71.493622
-19.155563 5.892786 82.638733
12.350494 -16.630871 84.354126
18.436993 13.537036 73.851677
24.333109 -3.187750 77.865189
8.128342 10.382555 101.956223
2.529416 -13.645986 98.761597
-14.399720 3.994378 107.988770
14.662308 -4.022622 109.565575
-7.551132 -16.636105 73.006142
18.398226 -1.857327 89.982277
17.320623 -13.379703 67.414558
9.473046 -12.599261 75.900970
-18.307571 9.527302 78.935730
16.330643 -7.841848 78.147606
5.744309 17.309202 68.893776
7.242439 -13.441215 76.854729
-11.187381 -13.193556 81.498695
21.716244 -2.373688 95.461922
-12.883438 7.477250 78.293808
5.215305 8.619829 107.242073
7.558425 -10.737289 95.843208
-18.663759 10.585818 79.927574
17.305204 12.083544 71.836578
-18.915045 11.512638 89.371613
-22.196321 0.866850 91.901253
9.763999 -10.191912 95.380058
-22.625834 -5.350364 85.295006
7.884948 4.400131 111.478531
13.705330 -4.784300 112.422325
-11.674019 6.087799 106.354614
9.697270 11.717244 86.367386
-6.429022 -13.145402 77.349274
-14.940401 -15.188094 83.777641
7.547480 -16.368841 79.377472
2.503772 11.505972 79.943764
-2.822294 -15.234509 67.600327
9.690021 -11.385880 103.041176
-12.559078 -7.526578 111.161263
-13.617684 7.240505 103.331612
19.786150 -1.877542 92.457413
5.541898 -13.488914 88.717468
-11.178246 2.849954 111.876465
11.552458 -6.999015 110.647758
18.737452 8.527098 71.963547
-2.607935 9.101921 106.376747
-11.737887 -14.844998 71.587509
10.031982 -14.549653 75.458923
8.195888 -11.071988 90.003799
5.183186 12.865767 99.849075
-2.865326 11.576309 87.033966
5.853474 -8.943425 82.832527
-13.978205 0.230175 108.634933
19.398050 -4.695790 91.984367
21.194796 12.061838 77.649651
-13.730419 -13.266789 91.921211
4.075032 15.018240 90.415680
-7.127429 14.233064 82.040604
17.696535 -0.253984 101.188782
23.332504 -8.013198 75.122620
23.785295 0.530700 75.406906
3.090048 16.321278 69.760971
-6.551683 -15.324927 81.178749
7.421696 3.425150 111.998848
-6.326957 -10.345586 66.496071
-19.243799 -9.074114 69.877266
-7.782445 -10.084678 91.597771
0.273040 11.132659 74.707680
-0.228322 13.300988 89.192337
-16.941263 0.799744 101.190750
-15.801754 7.782554 96.936913
0.746854 -12.018456 88.042603
-7.530001 13.229314 70.800499
12.542561 4.702463 110.970741
-4.102123 5.818115 112.459930
18.566593 -7.444374 98.003502
19.613411 -0.520191 102.283081
10.775283 13.004033 82.640671
8.608638 8.539116 104.397614
-19.423727 -5.929113 99.430557
-18.070850 9.418437 98.516136
2.677158 -13.192939 90.800621
12.680533 -15.406815 77.245811
-16.265190 -11.926308 99.331398
-12.062630 10.644564 95.085381
-16.442987 7.159461 106.066032
-16.640522 9.764771 96.617134
9.879949 -10.328617 63.523556
-19.114531 6.534651 78.098244
19.846317 11.004367 74.290588
-18.848763 -2.237352 94.563797
11.471228 -12.072415 106.801758
-1.212188 12.829979 82.239235
-14.509157 -10.892136 83.130386
3.498725 14.279221 86.034889
5.300534 -11.825332 89.694489
-10.996443 -7.617902 65.304932
-4.643475 -15.863688 66.238487
12.370575 -16.415609 76.993423
18.445610 10.929897 82.239296
3.076115 16.326511 80.141731
10.501639 -10.147250 68.176926
7.539041 11.120391 101.382660
12.037882 -7.006637 116.449684
9.040078 -12.602431 79.525002
-2.208705 14.724752 82.821831
-22.828840 -6.992065 71.489037
-6.581329 -13.060321 87.363892
11.205782 -11.584198 64.307198
-16.199467 -11.013906 83.956551
-15.844573 -1.978881 108.037895
17.341625 11.103110 76.821892
-2.002854 12.909760 96.057945
10.211073 13.452452 73.827477
18.279736 -4.470699 92.497360
4.150067 -12.666685 105.070480
20.108904 1.473371 82.725716
-1.867982 15.471367 87.780060
14.067109 3.716573 106.431564
21.693096 -2.177665 89.918686
-21.075914 -9.038986 73.587814
18.360813 -4.790477 102.501389
7.583757 -10.697382 114.378693
-17.308769 -2.888922 110.558968
22.944969 -1.912142 80.030090
-0.854543 -11.885377 108.434410
18.269651 -0.954983 106.600418
5.479798 -10.787343 78.440392
-12.972897 -9.983750 70.897926
-16.433084 -5.229295 104.536552
9.994885 -16.964619 77.519379
9.798002 14.010382 82.866653
-22.777817 2.529169 83.316048
-18.105902 -9.485765 77.183784
-1.964438 -12.804399 78.525299
25.396214 0.919050 80.642288
19.650204 8.689794 71.514885
21.644543 1.034535 78.984718
17.347176 8.805679 77.267220
-6.359496 -14.621326 69.691841
21.435181 8.379125 82.926010
-5.765678 9.512905 105.947792
-15.969323 -17.010248 77.171890
-2.121702 12.823711 84.883873
9.932610 -12.255405 85.179047
-1.294922 18.033897 78.797218
-0.642452 6.077937 117.059181
18.002728 8.642814 93.432083
22.921896 -2.610612 84.693314
-23.208336 2.618466 76.016502
-15.300740 -7.599090 101.446968
16.869106 -12.888644 67.527519
-6.298576 6.156230 112.350006
18.497095 11.451254 73.244972
-17.921661 7.618564 82.500328
-17.697990 5.573948 72.391937
10.704870 -9.661128 95.642616
13.435574 -11.208397 85.514870
4.670665 -12.506352 119.125908
21.562605 -2.101059 85.745918
-21.935284 2.253193 80.139809
-18.121712 10.002335 94.442001
-18.216400 7.831075 71.866264
18.733057 -0.129944 98.570892
-20.175585 -6.786251 86.678589
18.351868 9.459896 95.264130
-9.192191 14.244597 84.621788
17.712957 -9.544744 74.812553
6.590991 -12.536978 73.715195
10.260549 13.074849 89.975044
3.088670 -17.076887 82.364067
-11.822886 -9.072099 81.889061
1.016019 12.232439 71.343147
14.065006 8.924352 81.746010
4.686906 -11.822618 95.110901
-7.549002 -16.067442 75.997856
-8.728739 11.285007 99.936958
-2.755578 -16.177685 70.625206
-13.966655 9.121602 80.074944
-19.697144 5.371228 89.693222
-8.383314 5.372091 112.838074
-20.512579 8.859140 82.834549
4.498560 -11.974401 100.319664
0.877137 10.445849 91.017487
10.462145 -12.719069 88.175125
5.998014 -9.593293 90.605782
-6.559979 -16.613167 64.678528
-2.506769 13.219892 80.842995
-1.063139 -14.643773 78.308525
14.776281 2.811342 102.304443
-1.999837 16.269815 77.908913
1.084744 13.163667 83.266808
-2.072139 -14.655938 68.425613
-8.162408 -6.852856 66.134216
-0.281080 12.457355 98.359215
28.320776 -0.493060 77.656776
-21.396992 10.148751 75.588707
11.540879 -10.156508 114.378860
-15.659801 12.175203 77.229164
-2.555677 -14.008221 75.566635
12.889034 10.192451 88.176994
-7.700743 -9.575872 97.639114
24.970974 -1.319858 81.525757
-1.001170 -13.487761 105.294228
-9.157018 -10.794096 98.555351
-14.060403 -14.573708 97.760933
1.090522 11.482144 100.239677
9.599404 -11.512370 67.894257
13.497136 11.249413 72.554977
-18.907200 3.890552 84.361481
8.935583 -8.989347 114.458588
-5.392568 4.078502 113.909935
-16.207584 -12.295281 70.865852
2.680927 14.645664 68.618172
-16.663469 6.243658 85.539185
15.349133 7.581569 95.888168
14.153947 -16.849876 63.639622
20.860367 -0.423192 79.710892
-11.546780 -14.909460 73.918854
-10.583825 -8.109617 66.660294
21.658709 -2.292074 78.932732
-16.199816 -0.603473 108.249496
19.967781 0.863132 88.024231
25.788626 -0.545976 78.667091
15.686040 7.724850 76.923325
11.390946 -17.996998 75.129112
-7.004826 -10.814485 81.530724
13.825472 0.397951 116.058060
-9.337720 13.136956 75.621307
-5.929185 -12.077224 89.058060
-17.091213 3.734715 98.162155
-6.886730 -17.754299 63.417542
19.766563 1.188301 86.225372
-20.196087 -8.617131 79.395775
8.720190 10.912802 98.588432
24.323303 -9.299245 71.456001
-2.506840 -15.230159 73.701157
10.649554 5.767189 106.494728
-10.817198 -8.767727 67.934624
-10.934004 -15.773013 66.034401
-1.308387 14.755466 86.509773
20.866714 -1.590544 79.086014
20.022694 6.093649 77.102051
-7.498568 9.359062 103.737228
-0.436092 8.379975 109.331017
-23.953238 0.829874 87.874588
-12.640563 -10.158821 100.848854
19.948952 -2.904733 84.471733
-8.351315 15.702631 71.528885
-16.694363 5.640615 94.678299
6.641300 -11.760856 86.746857
3.990970 -15.473366 95.657089
-6.086535 -12.676513 68.673576
-7.846105 -15.247378 70.204750
6.435660 -15.398090 78.869148
10.342695 -15.979383 73.699799
4.839938 -13.596243 102.036430
-8.201112 -9.435257 63.841290
3.636454 -17.469160 71.785095
-10.914840 5.508418 109.407280
-12.860790 -16.590376 70.622627
-20.146755 12.183955 76.377823
-10.236813 -6.822177 115.553337
-18.704948 7.214692 91.264847
6.622593 -7.539315 92.164429
15.438669 -14.372455 69.755157
3.820037 12.982382 95.173340
11.614820 5.653016 110.274857
-9.307298 -9.026601 115.266014
-18.232166 7.493026 91.673157
4.127431 -11.922966 100.778320
-12.125280 11.215211 83.462845
5.141505 -9.031751 78.458038
16.456308 -5.549388 99.519531
-16.824610 -14.181695 85.907837
-17.553310 -10.091607 87.423775
22.706778 -6.971094 73.188416
1.350059 18.717051 73.446785
16.715881 4.616951 77.167259
17.958324 -6.112257 104.885933
23.569115 -1.647688 80.454147
0.571562 11.220280 97.694939
-15.483455 -5.935022 103.941307
18.079384 -8.529318 80.163597
-16.039356 -6.515784 95.780228
13.857989 10.077607 73.317116
11.326280 -15.197548 87.266495
11.349195 5.385535 109.330154
13.902248 -11.466331 103.524483
-3.240838 16.091682 71.593803
15.317121 -1.942107 111.645020
-6.481803 12.067893 106.161873
-7.182780 -15.332814 71.471664
16.074408 7.796464 84.246895
11.441743 -15.550981 85.491348
-24.098930 2.843756 76.699104
22.136890 -4.459958 78.728577
-4.049530 9.176099 103.931717
2.497993 -15.102278 103.310852
-19.903370 7.488620 84.644470
-9.464336 5.415481 111.724129
14.898858 -1.868356 109.148392
3.856062 -18.832415 85.940468
-6.868936 -12.040271 112.066299
-6.295228 8.660835 104.836617
16.549347 -10.704733 67.683105
5.737950 4.463429 114.355583
-20.100550 7.727482 79.330826
-6.266237 -14.206944 94.594429
1.587622 14.735973 79.410591
19.055326 8.691783 99.872841
5.433009 12.842923 86.603767
4.221650 -15.119072 97.533661
-12.895111 -14.367063 75.263878
12.514893 13.163020 68.971581
0.959245 -16.396486 68.485695
17.091478 1.858473 100.589943
10.028590 11.004992 99.804024
-1.303384 -12.764663 114.616951
24.003277 -8.009214 81.617844
17.627388 11.866386 74.751030
-6.696404 12.025698 71.793274
5.737790 -11.653894 72.492325
6.281075 16.216009 86.156357
6.484348 -8.456234 84.065224
19.013206 -2.406751 106.497192
13.927081 2.048490 111.672981
19.831228 6.183322 78.131012
1.180327 -16.595823 74.351074
-5.108618 11.334623 71.572189
4.236386 4.834144 113.778114
-5.168945 -14.778284 102.985275
17.347116 -6.519591 98.795395
-17.636454 9.205738 99.051804
5.036406 -15.439830 92.310196
26.789318 -0.791417 80.697281
-4.670462 -17.047712 73.286034
-8.032089 -10.468681 76.557213
-1.425313 12.020164 98.140671
20.428034 -7.198305 96.855042
-11.906901 -12.506936 68.405586
-2.480443 13.981702 87.446396
25.116854 1.761701 76.655128
0.484069 15.968459 72.041321
-20.735016 13.175171 80.206360
8.004567 5.731512 115.783989
-11.892974 -16.664778 69.051163
-13.176593 -11.473504 103.866653
10.753086 -16.675968 85.132088
21.267864 -4.468344 82.373833
22.079052 -2.045828 79.605423
-8.572666 -8.349166 93.026649
8.141272 -15.846481 71.639526
16.168318 -13.532531 83.901314
-21.424839 -5.579091 85.941956
-18.857321 8.484167 86.076195
20.347406 -6.393340 99.664383
11.829538 -11.436667 81.746613
-7.817949 -16.761900 61.629993
-1.753161 -13.177226 73.042809
20.607418 10.243806 79.199326
-17.962255 5.847995 96.714409
-10.664940 2.738845 114.968262
-0.517782 -14.624220 63.733288
-7.901810 -17.059059 72.619217
-3.792383 13.036691 71.065056
20.589699 4.473368 76.375183
5.336435 -12.339503 104.092232
10.142975 -18.116478 67.725464
-17.836496 9.537802 89.332298
22.015482 -6.029491 90.695282
-4.420569 -17.185905 78.207939
-16.787609 5.139274 88.442757
-11.712641 -10.477338 88.452393
4.795263 16.258196 80.111633
6.356831 -18.884672 76.797684
22.900938 -1.850763 91.984253
7.237638 11.911232 101.027138
15.582785 0.516427 108.239624
22.475021 1.159898 72.743729
26.571667 1.782579 77.526672
21.145803 -3.218898 93.542038
12.334390 -12.404276 98.606995
-23.516924 -3.362393 72.253250
0.426654 -14.129941 103.769630
-17.518776 3.184419 104.674828
-16.953835 -11.454420 83.381302
19.734396 -3.316499 85.428001
6.793588 -8.259872 67.170700
18.723722 10.353645 85.881416
-13.126543 -11.431272 83.806740
1.554446 15.401874 72.591537
-1.197534 13.738396 69.073303
19.496883 -6.957763 98.091827
-3.326814 -13.397147 84.175644
7.785436 -12.914851 85.326447
14.751954 -17.018517 72.721725
-16.042017 6.697803 70.232681
-17.770124 -2.355920 93.160927
16.094301 -7.565629 100.235710
6.103585 -10.506902 78.732178
-4.763969 -16.161285 94.125046
-6.437067 -10.934799 63.806988
12.334596 13.669259 72.483604
17.192350 8.284038 90.670944
20.541132 0.578718 86.192741
-5.051920 -13.908892 96.565491
-0.310728 7.580769 108.727303
4.723187 4.252767 110.983833
4.471310 15.777239 87.265739
-22.223619 3.693646 84.631927
-5.778700 -18.268217 63.316456
5.609776 13.583193 87.593987
14.227192 -9.712091 94.457809
-11.735650 -9.553134 75.670135
22.078241 -4.928857 92.916023
14.373973 -10.055711 88.642693
-21.093166 -8.303716 80.100464
-16.519444 -11.081861 68.253365
-12.855537 -9.333731 108.366318
-8.097676 -10.062789 88.532349
-23.184814 -2.896722 77.697701
-17.759600 3.362319 95.892128
-2.891903 5.755869 110.702728
9.995162 -11.671994 70.615639
-21.499479 -6.164660 75.010025
-10.589173 13.394692 82.608498
7.512858 -15.524585 63.764839
16.339804 -8.252364 93.084221
-11.540532 -10.653547 68.028069
8.354152 -7.802009 69.298607
21.601683 -0.199573 88.225784
-7.441447 -14.927623 81.214249
-23.600061 -5.018931 72.467995
-20.564325 -5.460433 78.542030
-22.974428 3.435679 76.738182
0.043844 8.090458 105.073563
-19.768591 0.940750 90.935860
25.825600 -7.869024 70.771034
13.199571 -16.421984 70.868149
-10.484667 3.107132 110.624031
-4.242129 -15.636297 72.282166
4.845971 8.866890 107.802338
-19.557005 0.709625 94.042290
-5.256753 13.557185 74.861702
20.599203 -0.108668 98.477104
-16.615650 6.031828 91.530701
19.360979 -0.990119 106.955582
0.911658 11.239421 82.659958
-20.979259 10.015527 83.644867
-6.438888 11.489644 100.749435
-14.184642 -10.010550 82.287582
6.250350 14.727959 74.826256
-15.614621 -14.733109 87.789421
23.921061 0.441045 87.039864
-11.859162 -7.831198 97.560738
7.875382 -16.178715 73.030228
-15.802567 -9.013693 78.345451
11.532564 12.589391 72.354034
14.989981 9.362306 88.550926
-19.188396 2.899363 91.014435
19.282347 -7.456612 77.070305
11.392095 3.293983 112.358871
-9.183596 -8.981174 82.720757
9.189626 -14.433044 68.320419
1.361185 14.488801 68.697075
2.658222 16.006002 85.788475
17.681906 9.340203 70.700867
16.333427 -1.408150 107.532265
-4.818933 11.657157 90.083778
16.432350 10.484065 84.692032
-13.784099 0.276873 112.783287
10.328745 9.120749 101.450447
-21.676390 5.141520 73.892982
1.867828 -16.546621 73.907074
10.692117 -9.672121 93.338036
-13.877222 -9.650181 96.305145
-19.554449 5.840565 94.842941
-13.447526 4.385126 108.677864
9.064282 -13.425862 65.488197
17.784216 -8.799015 81.608612
8.461588 -9.289341 65.478149
5.284056 5.829165 116.932617
-25.992842 4.714787 74.752197
14.515660 9.685729 91.036575
-7.395133 12.811616 90.986115
9.680373 11.819588 89.909958
14.705990 7.439812 100.928276
11.116849 -12.964872 96.067978
-11.647938 8.440573 103.009537
-7.060361 12.900102 74.177422
17.433361 10.492678 95.362427
-13.353436 -18.793324 70.012138
-19.916317 5.096589 78.317566
-6.688076 -9.845894 85.509079
9.747589 -10.549702 76.152916
-7.914464 4.192038 113.245132
15.059775 -12.950198 78.286865
0.693322 10.597084 89.426598
4.416845 -12.025539 102.379959
-20.925634 7.821459 87.384476
-19.030668 6.877162 96.519211
-12.461562 -13.168562 100.124565
-13.184958 10.920197 70.378510
17.608444 -7.405809 78.938232
-15.260234 -9.622955 92.923332
-13.406734 -14.450073 100.447205
-9.309677 9.462784 101.046173
-13.419683 9.334171 93.611885
9.427652 3.079358 116.146011
21.659201 0.585207 97.442207
21.195536 -5.289481 76.390709
6.659668 -15.034201 70.650978
-4.603474 -14.620168 75.399826
4.821505 -11.979027 111.043297
-7.674239 -13.634421 76.160416
2.816565 -17.330517 63.231998
-4.599548 12.647550 67.363083
9.130543 -11.374731 115.340416
5.820329 -7.783129 89.177719
0.762148 5.467494 113.253082
0.650158 -18.467148 64.279289
-7.733995 -10.961543 104.895447
-16.129692 12.521417 82.947220
-10.334806 3.270078 115.994568
-23.960541 -4.376338 76.588867
4.248451 -13.011312 117.049828
-5.211347 -9.890088 99.146637
-10.792838 -11.192492 88.728371
-8.777411 -14.378920 62.660629
21.646721 -3.939141 80.969345
16.778830 -0.694106 108.342194
7.949649 9.695784 102.808685
-9.213799 1.404692 117.430573
-11.367687 -9.432994 82.108353
9.695300 -12.872602 64.199593
-18.298887 -3.723309 91.536377
-6.978776 -15.306210 85.430702
-21.094181 5.861527 78.657814
21.706215 7.414304 73.219261
21.750116 -0.894601 73.872650
9.852462 -13.341630 67.475273
12.653310 -11.370467 105.094025
18.653879 12.536670 91.183121
6.248069 11.715767 92.057480
4.221300 -13.140112 93.027451
2.619834 -16.990200 85.825172
-12.292218 -10.294129 66.575668
25.420631 1.248059 75.629639
8.205558 -8.614243 80.816582
13.287274 8.773807 102.672882
-15.253610 -13.179593 70.944649
-13.647458 -4.707632 116.470840
-2.476436 -13.795541 92.451889
-15.687821 -9.901411 70.118423
12.568932 11.154179 88.888420
12.097179 -9.969186 107.264694
-24.625557 2.668358 75.276810
-0.433871 -10.843771 116.782463
2.079322 17.861122 71.425858
-11.728307 -15.518129 90.210434
-13.811541 -12.035890 93.272202
-0.142408 -11.384920 90.907135
-0.243022 -13.123178 92.783600
-17.972115 1.503654 103.335426
-6.140930 -15.934766 84.249466
-9.920212 1.350276 110.548820
17.384735 6.511025 92.426476
-12.172894 -8.820505 70.394096
-3.255160 -15.538202 62.376957
17.834753 -11.091070 78.755226
10.953915 -4.924170 113.853394
16.469025 7.180298 80.724495
-11.160967 -12.876084 63.693699
2.045717 -13.365947 107.736389
13.406845 -14.031571 79.368401
18.918289 10.726620 80.821220
-8.150753 6.142975 110.393143
9.111988 11.671222 86.356544
-3.267007 -13.889580 86.693016
-4.373383 12.369400 73.462875
-14.473707 -13.940381 94.258354
-0.691683 10.933804 104.001762
18.123768 4.375343 88.121330
-10.651038 -9.236327 88.804092
-16.389469 7.656299 92.666519
18.504473 -8.499840 101.776581
-5.069376 -16.971340 67.957748
-19.710081 1.707201 91.637207
11.475788 9.057965 109.875916
-20.968597 -3.961812 95.278900
-21.370756 -0.571873 89.573563
-2.957693 6.359686 115.547516
4.125157 14.201318 95.297295
-18.890322 13.588063 71.302795
-10.676525 -10.728659 76.677574
4.341808 -11.557322 77.984993
-17.829296 10.003240 87.336113
-2.135390 7.708096 110.700256
17.521025 5.237475 97.463478
21.129078 -2.609288 96.286285
-0.436916 11.575794 103.326614
21.728817 -4.714719 82.105293
4.670696 16.493143 86.385437
-2.948298 -13.642223 67.829987
12.642522 -9.845757 104.844963
-22.240768 -2.712690 77.799240
-14.703597 -12.900714 78.956703
3.823720 -16.087807 82.161179
14.810903 6.640829 101.440170
16.852112 -13.077749 77.806831
17.257662 5.527403 97.810135
12.885784 -16.631559 80.188911
9.489401 -15.819657 75.602226
1.232714 -12.751213 106.605347
-6.382138 14.661187 79.317429
19.953613 -11.133959 68.124657
-22.682589 4.386970 78.776848
-26.819855 3.943147 76.785194
-16.629080 -3.278555 109.541618
-19.505449 7.580433 71.305618
15.301122 -14.893834 81.733109
11.444213 -12.466096 80.935356
2.042286 -13.995993 104.084633
-23.934704 -5.899220 84.331421
-18.706511 -1.486978 94.731941
4.705857 -10.584915 81.073647
26.491497 -0.728000 72.097359
20.294210 -5.014263 103.774185
15.723891 -0.613504 108.713364
6.039419 7.976710 103.321838
-22.242935 1.535336 83.635071
-14.539896 -15.116287 72.563660
10.279637 1.907259 115.720276
16.690422 10.086684 83.406357
17.911821 8.900103 80.711639
18.508287 3.511324 87.088585
7.811336 -11.956817 108.327751
0.380095 13.641123 87.769547
20.892782 7.617588 74.029343
-15.753088 -9.935246 88.036850
1.803666 -12.551173 105.328842
-11.038971 9.999059 67.255432
7.679229 -11.826110 99.172905
-15.347460 -18.001860 69.556023
3.831683 -11.778575 114.165154
-3.336909 -14.794844 66.104431
14.294488 -13.765586 84.557762
13.946592 -15.100814 89.863419
19.024637 11.788636 80.913094
15.372399 -13.403500 87.794151
-12.828894 -12.958404 103.361351
-18.126253 2.700743 102.992004
3.619135 15.164910 88.352730
-11.736136 10.790145 83.856033
-16.490294 6.910218 88.536644
-3.547300 -11.326914 110.787117
7.963937 12.833285 83.865509
-23.697699 -6.291246 70.505676
18.202507 -10.293645 77.669708
21.359098 -6.050388 95.944473
16.855652 15.317474 70.862350
-15.008295 -17.376917 69.347511
19.185991 12.126647 75.213974
16.849352 -8.354324 83.280922
4.078897 -15.434600 81.786949
3.423210 15.680872 82.406868
10.356579 -14.095699 80.801712
-22.286812 -6.411227 86.057083
9.595177 -10.065131 71.593399
3.578238 -13.651431 91.695511
3.457989 -14.155772 97.682159
20.793182 -7.681820 71.718597
-10.866971 12.746337 95.671768
4.810644 -14.032301 92.487381
-18.400839 8.641335 91.943573
-10.954497 11.292911 91.853844
-11.626795 9.415906 91.782036
-14.267896 -13.197439 101.750877
19.329546 11.630982 76.605019
23.511883 -9.482305 74.424316
-12.315984 -9.214696 73.756035
-4.630864 13.342451 84.853752
-1.423414 -16.523851 60.040501
-15.619830 1.485362 106.437241
3.581241 -16.650656 65.033562
-2.548182 -11.799004 74.062073
12.866282 -14.694676 89.529709
-17.650331 4.209147 101.543854
6.916058 -14.472266 79.004662
-5.577212 12.803415 71.999390
-18.187401 -2.789413 90.011253
20.881182 -3.052569 96.863495
-0.870162 -12.575634 79.658478
20.209192 -8.172736 100.850800
13.200416 -16.200863 80.575150
4.146420 -12.154917 110.507133
8.026521 12.563373 90.319183
19.317701 -0.112309 106.975060
-18.260075 6.493071 73.788567
6.638715 -9.721932 85.149811
4.184196 -11.004001 82.776688
8.045225 -7.891150 87.830467
-15.696445 -5.972739 95.773949
-19.650030 -4.453450 98.306725
-13.809934 6.069861 105.752159
-6.755572 -10.121149 112.414566
-0.966394 11.035482 103.465385
-2.185116 14.875627 88.863922
10.569064 -10.834176 62.782539
-15.087648 -8.984928 90.528481
-7.135576 -13.331900 86.259865
23.211643 -8.117639 71.613945
-17.707294 -7.163376 81.916573
-5.652729 -14.121576 101.323830
6.323336 9.957010 106.161377
-17.262690 15.071229 71.897743
-15.432567 -9.899126 80.402534
25.813906 -7.926516 70.451736
-17.855734 -6.385124 105.049950
18.326868 4.648929 89.083954
-2.500335 13.715393 94.138634
-0.886402 16.236719 84.372635
12.286474 10.066029 82.806992
17.248291 5.844332 102.530548
-2.178458 15.576812 78.380722
-11.138274 -14.215343 99.287933
-21.215399 -1.436332 84.399651
19.426338 0.444219 91.420265
-15.520205 -10.064057 83.557510
7.670380 -12.447614 96.292725
-15.424681 -18.085728 66.323120
-17.812752 12.812730 89.444077
14.597862 -1.318826 111.925888
-20.439182 5.287772 75.091263
0.820907 15.761922 79.910423
19.391109 1.269395 102.084518
15.821711 -18.153231 66.043358
10.470636 -10.252088 101.128113
-17.997221 3.024444 100.362793
-15.646473 -14.760245 75.117210
18.654179 -11.491833 62.817543
12.100410 -12.387661 95.211220
-21.409384 -3.330889 71.027420
-15.405118 -12.103287 92.357803
-14.970940 -16.254410 75.554886
-14.376598 9.037378 98.753822
15.636484 4.640362 104.408951
-12.451135 -12.529263 69.815971
12.383183 -16.138700 77.187607
8.012320 -13.479065 68.570190
2.020302 5.865640 116.599030
11.142344 -14.906301 82.040108
3.318698 9.924505 107.854240
-14.842606 9.732432 92.297279
-21.110933 -3.843707 89.370850
8.504331 -11.171920 64.887970
20.266283 1.778285 84.823624
15.663513 4.491666 74.576927
-12.152611 -16.819399 79.049843
14.275104 -10.617710 103.187286
15.345049 -12.986176 91.646461
18.770317 -2.011809 77.341965
6.313454 -8.433021 64.235512
-9.087630 2.922230 115.432693
-11.535262 -13.190058 66.711540
20.507343 -3.679632 77.026855
16.433067 13.172949 82.944679
-7.237480 -12.085644 68.798248
-6.314157 7.654891 104.671089
-8.657677 -9.797617 81.608864
11.981332 4.247826 107.311104
-17.749224 3.463532 105.860405
-1.784574 -15.051772 74.137520
-5.047918 -11.262843 69.635223
-8.582672 -13.920851 69.282776
4.020453 18.019655 77.226974
-22.383659 -1.457941 80.662270
-13.407090 -11.657508 64.930664
23.034685 -5.157244 87.722557
-17.284077 7.230218 80.905869
-19.838852 -7.536867 88.759430
-21.660587 1.819608 76.404243
-11.488626 -12.126361 104.872177
7.737587 -10.364482 101.354797
-9.975458 -9.095771 110.198853
-16.290508 -14.698004 91.294136
1.502935 -14.137364 72.788803
12.268018 -2.388481 115.097214
5.974378 -10.267089 108.076576
-0.159865 5.132267 115.821701
