ply
format ascii 1.0
element vertex 2048
property float x
property float y
property float z
end_header
-13.578601 -6.507782 97.530029
10.257442 1.348514 118.943649
6.554531 -10.612820 108.595703
10.332741 -12.624233 110.609856
-7.789402 -10.132210 119.022705
-5.936255 -9.078485 123.963203
12.034917 12.336323 93.366173
9.598076 -10.161146 113.466949
-22.173223 -7.351132 86.574234
-12.293199 -9.253121 85.575020
10.789071 -10.491376 81.930367
-10.785640 3.429058 121.406197
14.665593 -4.444277 113.996689
13.000278 5.011303 105.967178
16.745152 -4.241126 109.739258
7.121727 2.641403 149.120941
-3.575118 6.847002 85.664062
12.673018 12.107024 146.774857
9.550660 -10.921386 106.719383
-6.622904 -9.703714 85.941536
-26.593163 0.413117 136.901108
-1.455275 -12.090177 133.877991
7.510063 -12.454290 69.185387
4.684848 -13.166548 96.396675
14.823107 -10.013411 113.596077
-21.838770 -0.159040 138.478683
14.613070 -3.057029 143.525436
-10.731907 10.556709 139.102463
-13.099285 -8.667704 73.677299
-12.420610 9.291769 74.601250
17.472551 5.696747 80.513893
-11.508093 -9.074069 110.737053
-20.566732 1.352219 74.138039
3.959216 -10.806554 85.226875
15.286790 7.183327 97.390442
7.008699 11.786281 140.206482
7.677343 -14.249520 95.738556
8.120613 5.889685 131.186920
-7.992745 -12.754030 111.421204
16.483765 -10.021629 101.318161
-8.820401 12.005405 98.900215
-14.059721 -4.778064 111.459442
0.855750 11.972497 123.908829
22.866560 5.803917 87.962769
12.302979 5.311725 149.096237
-13.267500 4.948225 115.454430
-7.708104 11.912347 97.724953
12.526943 8.840524 133.516632
-0.535542 -15.442280 125.932861
1.773472 -12.409759 73.806465
0.773174 6.189537 119.804146
-1.713291 -8.170718 151.108383
19.640337 -5.033622 106.729172
21.650782 -2.201920 72.854172
17.856621 8.697620 87.163132
-10.069262 10.994576 93.354813
11.575543 -10.534078 90.901291
-2.831648 9.883673 88.666229
-4.270881 10.714210 138.066681
-13.290855 11.979412 91.758682
7.597159 9.970122 110.096962
14.869162 -3.011794 143.311142
15.287793 0.890716 105.248711
-1.384770 12.498178 98.773567
18.325487 -8.893104 70.584587
-20.052027 -1.560941 94.866310
-6.720342 2.633497 121.556351
-9.043976 13.772073 75.762352
-1.039816 -10.012142 127.829666
1.486339 -15.361513 105.117378
-15.526571 -6.056645 136.319443
-18.179129 -7.315627 139.690445
-5.043554 13.302758 123.211044
-4.730289 -5.525173 69.703514
-12.570358 1.030439 109.216133
-4.885258 8.214588 157.991394
16.215187 1.435714 103.221359
0.620108 13.996971 150.542786
-0.219207 8.174426 123.535789
18.468485 6.847092 150.410324
10.766489 -6.926336 87.852554
11.640720 -9.229917 101.259613
19.977577 3.295254 76.934975
-16.540039 10.362708 143.733643
-6.329607 -11.209805 80.190239
21.880024 -2.655437 75.558319
8.775142 6.801259 154.529694
17.444349 8.022772 89.846703
-14.960957 -4.809914 125.482498
15.261355 0.209377 142.509872
-5.965791 10.099438 101.780159
2.972268 12.807451 78.569077
18.279289 3.784738 82.455322
16.819550 7.800972 135.344589
2.557088 9.675845 117.252411
-12.186707 -6.174582 86.914574
11.044560 3.441892 114.852020
13.448554 9.415380 132.373093
-14.561187 3.576849 97.427696
10.892581 -12.543785 98.890923
-1.644941 -14.089428 107.269943
7.786455 -12.909682 101.952469
-13.551914 -11.240840 102.560097
-9.633109 6.785279 117.101204
12.379849 3.020934 128.376678
-11.682039 -9.881490 140.547302
-17.165777 -0.323597 100.525719
-3.708059 14.055175 154.732910
-11.800579 7.483059 109.107864
20.168655 -3.564857 99.587463
-17.478928 5.560678 137.569077
8.389449 13.499479 133.767776
7.346767 -10.762878 119.853012
-1.487856 -8.715931 137.940506
7.633727 3.422998 152.758911
-16.668373 -4.708763 142.236572
-11.394721 12.352255 99.259506
13.247999 1.012208 115.042000
15.518693 11.383391 82.629311
14.066356 12.132289 143.128418
-7.743293 -5.323087 143.805542
-4.759901 -1.999382 151.559906
-2.495571 7.448813 127.560600
-22.843637 -2.787086 80.578072
11.595399 -14.001974 132.042953
-19.456738 -0.466395 71.770470
4.291474 10.071848 128.987122
4.902286 -14.201840 117.872078
-16.529543 -5.735377 91.234718
-8.097391 -10.953786 142.013962
1.175889 10.787127 151.990753
-1.870579 4.730507 120.965965
6.440551 11.730254 132.129303
0.413001 -8.580828 73.228981
-11.728000 -11.704186 94.143837
11.787418 12.943856 146.942169
14.081457 -11.282317 90.252113
11.482545 -9.387845 124.959442
-5.732743 5.841441 154.677643
-12.356020 -13.257239 134.963348
-12.848507 -0.713186 123.340134
20.958309 3.409813 75.937149
-8.964631 13.219255 71.094673
8.733607 14.467144 82.064651
23.558189 -3.617488 74.109261
7.329951 2.747406 157.841049
-19.902916 6.379321 74.833298
15.295607 -13.361596 68.038101
2.121765 -10.556060 141.938965
-1.160317 11.199937 82.530998
-1.595801 -11.340624 108.328087
-15.011501 -6.945349 95.481750
-7.539052 10.560575 127.108978
4.127231 9.755644 157.777115
-14.054821 -8.813037 132.733078
15.663709 -3.210498 97.805656
-9.614321 8.254188 118.531754
3.898603 -12.863721 88.578316
-15.299401 -6.217362 141.618561
-10.752058 -6.173073 90.560638
11.976187 9.274458 135.339432
2.873619 7.735137 112.483482
23.756437 2.757502 77.607689
11.377310 11.213653 77.863144
4.363330 9.714244 155.001785
4.704790 -3.232020 147.041519
10.551623 -11.826504 134.462570
-20.172104 -9.386730 72.149246
17.524323 3.588264 68.357903
0.802211 15.403893 130.765503
11.877803 -7.836277 139.411438
-4.773488 -5.246765 142.107117
14.984640 8.238446 91.599091
11.679066 9.364738 132.223724
-10.949239 -14.407568 136.502579
-9.126216 1.580554 153.424347
-14.124359 -1.577241 131.494202
3.499786 -14.026052 120.855598
1.262009 -16.536182 64.787567
15.716026 11.630240 136.699417
15.546787 8.551889 79.978096
9.949526 9.406551 133.526581
5.371546 13.835147 138.634476
-9.888806 -10.098500 72.123795
10.905433 7.860465 139.954468
-6.406861 -7.808531 123.191956
-16.044846 5.498053 77.245544
-12.712141 -10.998072 80.773926
-1.014561 -11.851306 97.764702
-21.015465 -7.018469 77.674583
-0.155828 -0.081919 155.212204
-19.888552 7.812100 137.691559
-3.550982 1.950552 155.432159
-6.622708 7.260465 151.551331
17.049992 1.397495 110.956192
-2.855058 -9.000903 115.706383
-15.516520 -10.246051 78.725502
17.155926 -8.797658 74.726662
-16.371967 -3.529054 141.671585
-4.393760 6.970527 115.700989
19.074253 -10.923368 76.971420
20.203110 -4.043510 86.156891
-6.162735 -8.854254 126.848473
8.748082 4.653940 121.932449
14.533409 -8.548870 75.776001
9.796025 10.154314 106.042694
-23.245575 1.341253 84.301064
-12.895737 -6.641303 127.536911
-12.655074 -8.901680 134.198471
13.409095 8.624962 70.483406
-5.707012 -3.247384 147.416840
14.876545 -7.684429 124.747017
15.270280 -8.925412 101.336807
-4.332482 -10.801408 141.289398
14.394093 0.999782 119.503441
-19.741928 4.844825 136.717072
-6.664968 7.026515 112.806465
2.167978 11.814208 149.618301
-10.884470 0.695298 151.103882
-6.650677 -12.003273 123.854614
8.707788 -6.399212 120.422684
-15.119954 -1.962890 114.500710
13.147318 9.854698 142.839859
3.524734 9.187864 150.590668
6.756739 4.983239 156.555649
1.693716 7.526302 155.430191
17.464314 -6.047761 73.454109
-8.286245 -9.300675 119.080681
-10.781471 0.152745 153.067612
12.234370 -3.931071 120.614510
-9.505462 -13.611057 133.109848
-16.838558 -8.194396 86.524834
2.465669 14.650948 83.780525
17.843315 6.007298 70.375679
-5.823962 -3.981485 147.973419
-1.600600 12.129663 144.966476
-2.678220 -5.739295 146.718842
10.861026 -6.838793 140.174484
-5.807880 11.509134 107.293144
-1.051041 7.604756 123.750496
-3.215791 12.131474 147.722595
16.230415 -4.607945 91.896133
-24.148829 14.097416 131.869186
-20.403419 -0.271359 80.820847
-11.562111 9.249665 136.489090
-12.777317 -6.786867 123.004547
15.000624 4.206127 135.258469
-10.134976 5.623745 154.037506
-4.275562 11.819956 152.731506
-4.218835 6.169591 152.906418
3.861304 -12.971113 116.896202
5.285635 12.656949 148.783875
14.858264 -2.032511 127.111298
-9.842925 -9.118021 135.693329
-15.889069 2.841647 113.290932
12.844678 1.428055 133.092728
2.354378 12.928471 147.754776
13.152584 -4.203085 105.291351
-25.393019 -3.468275 65.997879
12.624326 9.419236 78.944870
7.813986 -10.220645 136.512421
4.292589 -10.369168 86.217728
17.178856 5.664870 100.227715
19.035769 -2.026046 77.317352
9.880929 -10.168520 136.399475
2.583287 5.248717 114.364761
-4.425866 6.417634 116.812805
8.690441 -13.572499 138.351425
20.972727 -0.537822 83.980637
-24.906139 1.883018 142.136734
6.276528 -7.593845 87.677307
14.719378 -2.375896 143.785172
-13.462439 -8.949289 98.467789
-8.234835 -13.145679 102.856964
-13.674377 4.308990 105.063705
-7.801342 -9.409430 87.115196
3.921160 -4.249260 144.451492
3.228272 11.125791 155.198944
-0.525859 12.708818 100.759903
-12.473705 -7.599775 111.186684
11.128227 -10.775384 74.583389
11.047500 9.671296 97.105103
-9.082218 4.508689 157.325867
-0.029736 6.062095 148.218430
10.007137 3.743762 119.892303
-26.576378 4.192269 138.080597
0.721930 12.109602 138.842041
-5.149613 -9.626273 133.189774
20.415197 8.051188 141.052704
5.160050 -12.888151 110.656410
-4.796947 11.833192 86.284081
19.560991 3.766182 88.132927
-10.836739 10.930307 74.191444
-9.447281 12.712735 87.558617
0.599771 8.546165 149.403473
-12.435671 -8.672786 91.924438
-14.452501 -3.015509 147.751282
-1.158470 -2.489091 153.476425
-12.515415 6.502182 84.132210
2.467287 -13.134574 123.114708
-15.122731 -8.603500 73.259758
-13.127800 3.112887 129.725769
-1.940168 14.254093 129.743027
15.343138 9.076050 135.248337
1.314186 -11.656219 108.819443
-13.614460 3.805094 127.130096
-18.316692 10.507683 148.008743
-14.563458 8.251228 99.235893
2.140453 13.320369 88.529724
-12.559490 7.997546 76.342575
-12.357456 -10.324521 105.999237
13.783747 -4.269248 114.461906
14.302914 -4.928646 96.753654
-9.213160 3.294857 155.136017
23.085428 3.876976 85.324677
8.637428 11.429954 83.935150
21.604336 -2.154871 72.204002
23.000935 8.026073 135.907394
0.657019 8.585798 71.833946
-22.242714 3.914571 82.161797
-5.235225 9.197906 106.550766
-5.050422 11.146962 126.379860
6.689609 2.677706 159.590958
-13.147951 7.893212 88.801697
9.409452 2.301864 150.633957
-1.388608 -7.922495 77.289017
-9.524517 14.666400 100.688339
-14.404938 -9.186253 139.724213
7.616799 -9.512383 142.583084
-10.359388 6.008775 154.783386
24.856232 5.543079 144.182785
-12.736138 8.676991 79.523407
5.297972 14.201045 143.528458
-3.899456 9.740485 105.114319
0.903756 10.593900 79.182098
10.911089 0.956556 125.140381
-0.500430 -14.677324 135.202866
-8.700426 -12.054338 120.344864
-5.484691 -11.846211 137.658447
14.149287 4.321570 132.164764
-4.578800 -1.043326 153.369629
-21.911911 -1.947505 138.767517
11.560357 -11.213939 99.488274
-3.495228 -11.574131 99.251015
10.778962 12.999459 94.552315
16.576870 11.366214 147.709778
-13.345248 6.847486 87.652473
-14.540195 -0.641038 128.834763
19.503559 4.635392 148.371368
20.245487 9.484601 145.314621
11.507702 -7.318521 99.895454
-20.488525 0.108562 137.513763
-19.944546 3.300369 150.567947
2.822107 6.407246 124.886276
3.048963 -3.698793 145.052353
5.496399 -9.515347 127.304482
1.056190 -13.326305 126.101837
-14.344254 -6.146896 138.469254
-19.232430 -1.476922 146.662079
4.886023 12.932250 142.477768
13.047130 8.463401 134.502853
7.118192 -13.958797 104.752518
2.676980 10.719312 146.187149
-16.487282 -2.986773 140.864792
7.558539 -1.151844 147.322968
10.222963 7.254131 84.901222
-9.078619 4.167546 117.726273
9.541903 -0.161154 148.991684
11.779306 -9.433360 110.065979
19.280212 -0.868724 132.928040
-7.955191 -13.622137 126.704010
1.157304 9.739700 158.071823
-14.496864 -1.070395 131.031845
20.529427 1.552653 136.313278
8.034477 3.573218 116.346268
-10.408963 14.217578 150.306396
-19.228107 -4.175254 75.799614
-13.282701 -9.225739 114.979790
11.194645 -5.246590 119.131348
-16.725950 6.464208 138.538666
-16.706017 -1.078675 85.593391
9.791452 -2.567279 152.020432
-6.946821 -12.705463 81.594315
13.773964 7.744848 152.425949
-5.581473 7.144361 126.769814
-3.379237 -12.612133 101.409515
-15.777202 -9.290567 88.984489
-6.836588 -14.451130 128.597641
22.754408 0.258183 145.817322
21.759569 -2.632135 86.956474
-0.424953 -10.526477 93.431229
6.120221 -10.568371 83.677025
16.726522 -4.514645 132.522171
-9.795499 13.175240 91.952759
0.226357 13.487200 98.913078
-1.060542 9.915302 73.312073
9.021255 5.959770 152.898865
-25.891870 1.040262 135.764496
5.350585 10.145361 127.744568
-13.742219 10.281270 97.869102
-5.672884 8.300647 159.206894
-19.926588 4.509715 80.674850
7.287931 -9.764157 91.386665
14.009251 -9.784223 82.928825
-11.236650 13.516769 142.836670
15.994924 -6.498137 129.979736
-18.095821 -3.804111 82.063095
10.184918 -8.437812 119.163788
6.189407 -13.032318 96.015533
6.939940 13.777250 89.822510
13.199307 -11.989786 110.904465
-10.563935 -9.515358 78.843941
-14.488452 -5.002635 106.275902
18.121479 -9.208525 86.090530
9.399575 -9.522512 138.685837
25.331587 6.286223 139.159882
2.511648 7.489233 120.106468
17.829760 -4.850810 80.111870
-20.179665 -3.349933 73.200607
19.049763 -1.734445 134.243896
-16.024029 3.828125 107.937920
12.795205 -11.216194 107.443489
19.598473 -11.223940 71.444221
18.115110 0.828969 102.738228
14.989611 -2.623075 133.650070
3.551234 -10.067501 84.099396
8.099413 -15.189812 128.853806
9.858444 -6.449057 109.776657
13.046306 -4.652752 141.394699
6.346547 -1.950953 154.888565
-3.647783 -5.460215 151.276077
-4.981942 6.821354 109.725945
17.600454 -1.868087 96.926918
-23.161705 9.344963 140.051758
12.925871 -6.661619 101.313850
20.539520 6.317999 147.533600
-17.766829 7.206299 83.203201
13.094897 -8.352947 137.472137
10.179933 4.388786 150.390930
19.126232 -4.354592 78.006325
-10.581892 9.817022 68.780319
21.225338 0.000441 97.291092
-14.733936 5.713371 95.417191
14.145285 4.503561 128.986191
-4.797157 10.686662 130.342957
-22.362747 9.054308 138.800690
0.899783 -13.904465 85.311646
-14.260413 1.092024 106.462860
-15.356164 -8.435244 137.426086
-7.720062 10.672119 154.175262
6.391759 2.242804 158.499878
17.191063 -2.350467 87.152847
-11.239728 12.818372 136.003296
6.408400 6.809046 154.702271
18.574648 3.894581 73.683846
-5.323987 12.648960 95.930138
6.089283 11.351727 93.058456
1.429588 7.229543 113.044762
-13.288108 8.457009 140.137955
18.984571 -4.130275 138.193878
-4.720700 10.649484 88.663994
-23.478539 4.873930 140.822556
-10.871535 8.090192 149.487350
12.415595 12.295776 87.518478
-12.928347 6.838255 99.122147
-12.635562 -1.467109 121.547241
-6.677000 -12.887728 98.868683
-8.033585 10.334804 87.261314
24.809252 9.954591 141.814758
1.176500 -14.277867 131.889099
-7.331704 15.364422 144.230087
-7.330211 9.618616 152.243347
-9.799477 -6.710703 108.808289
1.752076 12.699450 88.261612
2.195090 9.568897 132.268021
-9.764869 -10.248066 86.225029
-2.046769 0.348525 -4.156699
-8.305080 13.824500 89.138817
3.997552 9.564487 100.826591
-15.508682 -1.546321 101.377388
3.346121 -10.474191 115.078354
8.567447 -12.066177 116.738068
-8.958888 14.686351 141.856079
4.517916 -11.508369 124.790260
-13.390924 9.859284 136.729584
17.759008 5.189137 95.836861
-16.359282 2.996864 89.730835
-4.483997 7.136856 120.749138
10.052669 -9.438494 140.446198
-9.187022 4.298519 126.129852
17.677050 6.668580 77.912689
-13.337324 -3.553794 145.949081
-2.648920 11.889080 127.684860
14.193048 10.277113 140.646164
9.847028 -9.300510 73.649757
-13.855024 -8.066697 119.687553
-13.915740 11.293619 148.365326
15.775775 -0.804423 101.758484
-12.758333 -5.837368 115.790901
6.497810 10.132872 100.632729
7.721819 10.402189 130.930817
-20.596371 -2.449750 83.011925
-4.664503 -11.429490 110.530464
-16.420668 -10.478991 80.238625
14.170046 9.105863 84.319962
5.340810 2.863021 156.288239
17.280357 10.974753 140.779648
12.285530 11.024459 87.033615
-5.885337 13.178114 95.717926
13.995927 8.342035 101.277748
-1.511055 -11.963775 110.343040
-17.839931 -3.742259 139.861420
15.217038 11.908258 79.541397
-1.780607 7.958103 154.178787
-9.227436 9.060546 109.686699
21.896938 3.809988 147.985321
2.996946 9.762803 98.066154
-0.540501 11.939657 101.395760
17.147625 -2.599339 78.065872
-13.265177 4.621764 113.164429
-1.743711 -11.848956 86.403282
17.363682 -2.696517 119.416420
2.692875 13.184187 97.956612
-4.393087 12.960649 80.000977
-4.465569 9.463753 149.331650
2.485421 -8.186233 87.350700
9.524845 0.525181 153.755035
-12.847178 -11.082565 83.385506
21.151178 11.453853 142.681534
-7.149756 2.351290 154.467560
-3.291823 13.874397 135.543549
-18.977104 -4.302849 139.298569
-13.670897 5.119292 99.474098
-15.608040 -4.520361 115.920616
6.069497 10.853442 102.832878
7.214212 -12.525172 91.391541
19.651056 8.654666 72.396004
-13.835702 -1.435093 121.458183
5.812384 -12.285074 106.889168
20.090618 -7.364110 75.109764
6.813928 5.493750 121.924545
11.307007 -0.958168 121.950104
22.183035 6.657274 131.103958
13.570566 13.416524 141.332169
7.231350 14.569395 92.487793
5.740479 5.869193 120.479454
18.602161 -4.402720 82.513824
0.069356 -9.746581 96.960594
-21.182716 -6.895796 76.934151
-4.135345 7.937648 74.654503
17.796112 6.126328 149.255341
12.005503 1.039691 118.851677
-9.448887 -6.246197 139.943939
12.928766 -5.755143 130.886276
16.548847 6.337290 69.759514
-1.292565 -8.954739 95.453987
15.388497 6.783309 94.072464
16.613974 9.989418 67.302536
-19.131599 7.633184 81.056480
7.485291 2.158294 156.348404
16.176939 10.443259 147.468567
0.418867 8.040385 109.314392
-17.456663 3.586941 86.675560
0.373080 15.202361 132.643768
17.542536 -9.300766 84.359413
3.573730 10.982870 101.977623
7.851554 -12.128016 132.096848
6.352296 -10.146788 72.658272
2.955492 9.402678 152.181473
-3.961101 -11.022996 116.015694
-7.266398 12.152319 99.004211
3.562434 -11.273232 142.277283
14.274300 -3.093144 123.626007
-17.072262 5.021905 99.619164
-4.875461 -9.506447 126.112503
-8.885527 13.074732 94.264580
-14.284973 -14.911192 130.142303
5.291927 9.413502 127.857567
13.829577 7.817348 104.572304
0.908102 14.150706 89.732704
10.950974 8.801874 102.113266
-17.434975 3.152136 87.501892
-23.548090 -4.504146 71.724518
-16.196198 0.696977 134.341385
-2.897125 -12.019962 72.676422
-12.258672 -2.646568 118.895546
12.387470 7.704260 134.786179
-14.615438 10.276028 79.825325
-7.788742 6.394120 114.925491
9.566737 12.316175 140.273285
11.255095 11.639590 146.540131
-13.328335 11.915023 146.063919
-9.701270 -9.951963 78.452400
-6.742324 12.019588 71.438362
-11.568331 -3.982072 141.659042
5.304553 -10.854445 116.596558
10.543743 9.371140 89.163811
-0.304782 -13.596284 106.496643
-5.982014 -10.188355 71.742645
-5.642995 -7.727477 79.171654
20.424276 -2.249810 141.220383
11.971337 -8.908102 124.876640
-26.736464 6.045932 136.048431
-22.231110 -5.509704 76.657951
24.995552 6.300914 140.914917
6.243129 9.845668 110.457123
-7.875173 -10.486613 117.303970
1.417099 -10.259262 126.463562
6.004183 14.421793 144.369431
4.223480 -3.392803 148.271011
7.614414 -10.862361 77.971710
16.081598 -11.848841 136.372070
-12.950605 -2.066238 124.736435
16.608276 8.944931 146.186829
-6.325592 -11.079308 109.614960
4.596087 15.169995 152.662994
-4.893869 9.820296 89.068207
-12.355363 13.625748 146.236603
-12.205702 -7.961160 138.257370
-18.464451 10.870652 142.274002
18.519770 9.682328 141.575500
-10.386367 7.578525 154.894058
16.982708 -3.975824 107.327278
-12.581334 9.347470 79.711479
-8.637177 -11.533834 111.317215
1.915322 7.681067 156.439178
12.337984 -1.169073 133.140076
11.139381 -9.250868 86.918289
11.911745 10.966287 75.866554
6.077269 4.099679 154.231918
14.091892 6.913993 131.377289
9.668690 1.553743 121.140770
5.810760 -12.947419 101.289291
-19.513412 -11.290928 74.922729
3.552974 -12.341606 112.201797
-16.761026 -8.218725 125.533905
-9.207240 14.001701 94.190979
26.159975 6.765019 136.971481
-14.768145 -10.684928 94.621277
7.066622 4.282752 116.803802
-8.230942 7.054691 113.123024
16.481331 -10.539860 113.563950
10.943311 4.165414 152.271133
-17.556179 -4.632232 96.125237
-6.510217 -4.382836 152.224991
13.473886 -2.760142 106.317558
24.183943 3.220617 149.473312
-16.407345 -8.569841 85.694893
6.021749 13.189035 136.133057
-11.953218 7.982522 80.801514
-0.744120 -13.702940 134.691177
12.696777 -0.408180 110.717201
-0.285564 -10.997187 71.945564
-18.327461 -3.713678 94.148582
-6.059792 -10.831637 82.797112
-5.429346 -10.909576 124.331932
-4.647209 4.446229 153.505157
-18.325769 8.474116 143.434601
3.040180 -4.489147 146.645508
13.182377 -7.938283 110.187218
18.041973 5.350826 77.183769
7.997617 11.301892 103.130806
9.980548 -8.204393 111.306152
-11.449493 -8.102050 106.148613
-3.014495 14.145761 145.165543
9.495693 0.966301 152.623398
-12.490155 -4.906484 101.737099
-19.743732 4.694987 147.727524
2.402174 11.259653 132.075760
-18.190311 -10.230105 75.631470
9.486182 11.863094 147.232162
0.024617 10.907371 103.147179
6.571471 -2.813950 143.736069
-14.531391 -12.766292 83.340912
-4.147368 7.325804 153.896484
-0.862348 13.472205 139.925812
-15.871026 3.138007 106.933891
-8.281380 -8.473292 114.699493
11.719856 9.778789 104.484451
-17.502707 3.398910 101.753693
3.976620 -5.595842 146.836960
20.399946 6.424329 85.775627
-12.020581 -3.147290 129.445419
13.658033 4.868172 109.047516
-13.794079 -7.545606 91.404587
2.276647 13.556934 145.728821
-3.986833 -1.125646 149.676559
6.304820 16.733349 135.025055
20.036650 7.425906 77.675957
-5.091001 2.343904 155.439651
10.912918 -9.396061 138.383575
8.469235 4.684689 117.976479
-6.209433 -1.364520 147.377563
14.967790 7.104468 100.803276
5.987925 -12.836938 116.169998
9.291056 -12.431973 120.229607
12.288300 -7.380667 88.403801
-0.905025 -8.218853 73.773857
-15.512152 -0.218765 98.084885
-6.057175 -10.541985 121.985550
12.657208 10.848047 95.905640
14.336008 -10.795744 96.303162
14.572338 -1.190677 105.729179
3.239857 -7.461128 72.387535
-6.015178 13.555696 99.787239
-1.029990 -11.169758 97.461899
-10.425781 9.620865 102.318077
-14.719751 11.187566 82.254211
-15.120463 3.959065 86.005905
10.977496 -13.747787 102.748550
-14.208445 -10.255883 90.162865
-13.407841 -5.147653 108.867889
0.415081 -8.804091 91.971481
4.599952 7.812414 153.430679
-1.308022 -13.979102 107.643929
-12.558460 10.615745 74.998383
20.120274 -6.984432 82.743568
-16.151402 6.202775 98.313553
-11.354060 -3.712431 145.557831
-2.950037 -12.472260 114.054260
-8.349935 -11.509479 103.185013
22.063322 11.415494 137.860138
-13.045984 0.170639 144.939255
-14.344675 3.338985 129.244370
-19.383846 6.840826 82.538315
19.722380 1.918688 140.862106
11.931024 3.364063 123.900055
-8.185978 -9.041520 100.543106
-15.118325 -3.231221 93.139076
12.367388 -2.585869 144.830399
6.820615 -8.886177 82.886337
-5.041013 9.414616 73.214867
-16.410833 -7.930420 95.882713
21.474766 -6.806207 79.000298
13.317990 -3.585961 130.784805
-19.468254 8.777901 138.893265
-17.551413 -10.610364 76.859642
-27.736012 5.122205 135.086319
-11.985846 -5.411794 127.625313
12.546576 -9.137279 98.950668
-6.563139 6.127994 150.829468
-18.543919 9.909297 138.432770
-0.260478 -10.082136 76.127228
9.145140 -10.241425 115.370430
-13.791238 -8.617964 87.559189
-8.414381 -10.919930 118.839050
11.234002 7.907970 96.979424
6.669633 11.201723 105.815681
-14.587255 -0.237106 130.910248
-3.893242 -10.982977 77.316803
-12.273407 2.614400 123.564209
-2.473842 -14.415524 115.866096
8.336143 12.358341 90.856415
5.056990 -9.250538 94.880493
16.203823 -8.385306 81.948067
2.289338 13.404937 83.439766
19.681099 -6.247203 74.990746
-3.252340 9.178808 121.066811
-0.990775 8.996124 74.785378
-16.153833 9.494925 139.504135
15.401129 7.130320 95.253716
-17.111099 10.193639 146.380142
-13.835348 11.304526 135.606842
-17.942141 -1.977046 145.617645
3.222955 -9.594837 121.967712
17.880611 -3.883288 83.808723
-11.207727 12.159109 71.636024
-0.646033 -12.710577 132.986282
-1.333999 7.747303 119.233490
1.934685 9.876249 156.069366
4.880667 -11.477606 105.466995
5.778629 5.759165 155.998657
-17.318050 -10.139734 83.299889
-20.924482 2.526480 135.573730
19.697039 -0.265255 72.828171
15.953506 -5.857731 144.328964
-7.343057 -13.345565 138.356354
14.121935 -6.903738 96.627670
13.078634 -9.507749 115.449982
9.541121 11.249059 148.455292
-15.913514 6.688830 154.878876
-14.070244 -5.064902 87.553406
13.160425 3.069761 118.076454
8.503075 8.002384 124.812256
6.864487 4.632911 152.072586
16.970537 4.321946 81.416016
-6.772294 -11.941204 79.880623
-0.634613 12.455728 139.612167
-14.857935 7.712064 97.207954
-15.259468 3.219146 149.223236
-9.075684 6.399516 155.794708
17.763479 7.528567 148.084351
-15.624571 -1.173497 108.264687
-17.575762 2.366804 132.686676
0.115430 -9.806109 139.412079
-11.274344 -9.584643 120.599709
-17.606657 3.982795 151.381973
-20.259134 -2.869915 82.432861
-12.803319 8.069476 132.841156
7.139271 -6.674925 142.705170
7.620494 -1.112580 150.901215
-16.933264 -7.512690 75.336029
-13.763092 9.142572 78.851395
-23.380505 1.836665 65.354050
-22.522156 7.274778 136.614731
-7.989311 14.243687 135.965347
6.307357 -10.220754 75.860825
15.622472 -0.406524 149.834335
6.753635 13.395582 148.494522
9.931032 0.858176 148.349136
-10.400012 10.405478 74.135078
8.209756 -0.598901 154.843491
-11.423057 -2.081602 144.772430
12.679327 -7.364360 73.338646
10.752151 -11.064363 81.947189
-16.530079 8.713713 94.409286
16.899374 -0.903959 102.952957
10.529592 7.005311 155.825104
2.397887 -14.921926 93.861710
19.268314 9.556764 134.645691
-16.314283 0.725724 133.853287
-12.668101 3.638747 127.430138
-8.354807 6.404123 153.797165
17.612917 -3.703352 91.589005
5.450131 11.272558 111.519775
-8.358869 -11.360232 75.808693
-11.382707 3.158693 122.722916
-1.771954 9.225718 154.421600
7.278027 -6.614932 142.141403
-16.581522 4.666677 99.612900
-8.382192 -2.228311 147.377289
-3.056352 -10.029367 126.819832
14.572946 -5.759793 145.398865
18.633394 10.079139 142.216934
6.875596 13.841979 142.541214
15.784174 3.760620 132.392242
-11.594017 -7.893971 110.141518
-0.210813 -3.471829 153.530960
9.859683 13.793626 138.845688
5.108761 -5.077320 145.189774
-11.766591 2.966647 153.355209
9.117882 11.193913 90.983902
11.858067 11.267020 135.071854
2.400499 -11.430474 132.282578
-4.848275 5.315322 118.595955
-6.042296 -13.820376 131.924179
-3.410178 10.240291 80.497528
-11.419367 -12.175696 81.283913
14.723018 4.432557 128.615707
-16.874569 2.686926 150.860901
-17.814705 4.613781 101.938652
-7.397213 14.038080 105.729836
18.429352 0.528795 92.835304
-19.600834 -4.419796 93.159264
13.304486 5.711007 72.668976
-14.580287 -3.542010 143.689728
-19.219753 6.487082 147.966995
0.828741 -8.357909 138.311127
-2.544288 -9.111914 140.281113
-0.591171 -12.145580 112.695511
10.919546 10.384267 93.199493
-8.457322 9.316407 72.149704
10.643375 5.617055 109.434273
-12.924253 -0.509770 149.157928
20.577690 -7.216096 75.430473
-20.096786 4.720224 77.798294
4.198740 11.407572 83.313652
-11.782142 7.759849 150.976929
-3.033942 -12.516804 76.490280
15.394961 9.844850 74.644470
10.844099 8.105021 156.844879
-10.031101 -12.699673 130.088730
-5.516108 -9.016116 104.185249
0.729375 -13.064207 132.271423
-12.378819 9.145194 147.387512
-7.494152 -14.882370 127.323013
-3.040941 -14.513954 96.927780
3.141560 -11.183659 103.763901
19.392653 -1.563767 142.997238
-21.811874 5.215307 148.073059
-17.902826 -3.568495 108.088989
4.353189 10.679515 75.013206
22.996571 4.340105 146.170731
12.928854 -4.289552 143.297623
-20.322083 4.400026 83.528511
3.071391 13.013319 68.186150
-13.728369 -9.290665 126.502541
17.803078 -4.525687 137.920975
-3.782704 -11.828186 96.356834
-18.787441 3.408486 93.839584
26.955971 10.887719 140.615509
0.632307 10.384646 103.433426
-14.146024 5.673297 132.083755
12.135323 -9.348011 130.604980
-0.408149 8.968293 123.641762
11.860560 10.183912 89.373611
7.527370 3.732764 110.602814
9.698299 1.311543 153.692154
-13.466183 -8.325735 90.436363
2.018102 12.657697 103.129410
-11.580955 -7.644884 98.931320
-0.146225 10.568671 89.635475
5.297350 -15.406719 115.994904
6.998392 10.174765 104.543686
12.288944 16.306429 70.084335
6.217912 5.107272 155.866867
-19.086044 1.891070 85.852615
-0.427440 11.070718 126.339355
16.202951 -10.557289 72.836174
-6.475418 10.379086 147.272156
-5.681965 -11.455300 77.754822
-18.948065 -1.148492 100.479141
16.849733 0.611041 137.389984
1.166445 -11.325177 75.241661
25.050980 10.410968 139.834274
-16.918308 2.174676 153.266220
0.829180 7.939102 155.415909
-0.454585 16.889318 71.429794
-21.541965 -7.433877 81.732018
2.279196 8.961044 150.629761
-16.399496 4.214570 125.816696
-10.313910 6.931252 107.393600
1.778642 11.886633 143.562927
13.517956 9.537146 136.667526
-8.240216 0.052679 146.519272
3.174641 -10.981176 75.012207
-16.407116 1.605596 77.945007
-10.919682 5.762352 127.854622
18.204802 7.840637 131.918823
-6.109268 0.993108 150.025208
-13.747660 -2.402109 115.064545
-22.093359 -4.019323 78.958916
4.358020 11.309852 151.308624
-18.361555 -1.350181 133.489868
-13.523914 -1.430114 112.874084
11.716969 7.820406 92.666100
10.284805 9.466533 112.718857
-6.719589 11.655278 87.922165
-10.672194 12.419683 86.769463
6.244767 -12.217091 110.275566
7.389135 -11.522757 77.439735
3.249131 9.864176 129.326645
-9.937405 -3.320228 143.589096
15.769490 7.248845 100.861679
-8.594702 12.268772 138.103119
8.976146 -8.849446 84.106644
-7.833846 1.727365 116.056908
14.322436 -10.846829 89.675163
8.011066 -10.451921 97.067261
0.568993 11.985807 92.576981
3.222257 13.049839 99.913246
-12.468331 -6.115510 111.739365
2.562119 -12.336439 92.939049
-10.918223 7.750972 124.018517
13.794325 -9.889457 85.579132
-5.738871 -4.928149 144.406708
8.702477 -12.766417 96.410599
13.935301 -11.328959 137.381805
-13.940363 6.259009 71.847351
-21.266472 -3.916512 143.020874
-2.620357 6.004447 -1.469250
-11.286568 -5.257025 127.346405
26.784750 8.038975 137.825104
5.186809 11.207404 91.550377
3.792563 -8.456336 161.546387
-6.387225 -3.754429 0.368249
13.314023 -8.864494 75.293854
9.879680 12.346312 150.022690
-9.479587 -14.612638 106.628990
-23.932825 8.934742 145.824432
13.011161 1.994651 106.994377
19.349346 -3.847717 85.162323
18.216385 -2.305926 91.849976
-14.535645 5.483029 135.039734
-16.314829 4.602352 134.778168
18.720982 -8.145976 86.594391
-12.947618 -6.332023 112.496407
1.635865 -13.403822 137.398361
-17.976040 9.735834 147.225998
-16.111332 12.862129 148.129456
-27.347288 4.634465 137.103836
-18.669308 5.340197 143.761124
-11.926443 11.935032 131.610825
-9.254150 -10.886201 141.098785
19.009487 -1.075444 136.672409
0.593630 -3.065085 149.097977
-0.412230 -8.180537 84.696526
12.563169 -6.942484 102.996445
5.100974 -6.705142 145.604340
10.475228 5.656337 112.622475
-10.392014 -8.790112 81.385834
13.847190 3.044460 135.233734
6.847919 -8.963189 68.513420
-9.173592 12.787213 138.222107
-7.071424 10.621193 105.200096
15.379386 -6.239266 105.840668
8.941997 -9.510953 130.215820
-3.247117 -12.302966 71.712318
14.039293 3.619518 108.260185
7.390773 -3.283905 152.310623
7.644393 -9.520041 88.084679
12.225481 10.880332 92.439529
6.228366 11.170183 145.340088
15.509555 9.538869 138.035187
11.689290 6.349791 110.380707
17.745152 7.692985 136.672729
0.064891 7.958652 111.291420
-9.318234 3.403202 144.408264
8.519781 -3.910541 147.260620
-2.103441 11.475693 148.454208
2.140625 12.725719 156.249802
3.381069 -8.936047 129.362839
6.757488 5.506958 120.839470
-13.027580 4.362697 103.587959
3.449090 -12.028014 86.264908
-0.850460 -4.899868 144.367416
-14.328937 -2.956728 137.666122
11.146785 -7.553217 105.662842
11.559566 -6.197535 117.573982
1.017609 11.297651 157.298050
-2.047862 6.497523 120.577721
0.121388 -11.827090 108.366814
12.095740 11.005771 80.832359
-0.226556 11.754524 91.229866
10.291097 -10.694412 118.769119
-12.813942 -10.835016 87.296722
-18.616543 3.464539 75.401123
-13.778569 -10.265008 137.933685
7.580966 -8.886985 72.794479
1.670068 10.364844 142.906540
-4.437444 -15.554461 126.139130
15.890618 -5.084894 137.632507
13.112121 -9.134136 103.048027
-2.250825 5.152266 122.954849
-8.487993 -13.189953 87.539383
-7.563231 8.056459 126.643936
12.632286 -3.715759 113.954414
-9.627377 -7.896286 128.536575
-14.383971 5.565566 98.072441
10.311035 10.596107 73.157600
-1.394817 11.364931 99.332230
-11.907046 -6.230911 116.268990
-3.591241 -13.658054 72.054092
8.603126 -12.081703 116.637688
6.155653 10.471710 79.768173
13.636283 -0.502433 126.820663
4.672500 15.053186 99.013237
-14.400213 -3.818539 126.893990
13.839513 -9.547958 89.845009
8.293353 9.680810 147.467819
6.137197 -9.146309 140.510025
14.506085 2.847681 98.968063
18.895018 -8.068375 86.161003
5.997734 -10.621817 71.477615
-0.485583 -11.261023 87.614662
13.029628 6.367962 112.763748
2.056363 -2.704668 149.503754
-14.631407 10.405201 71.573479
-15.051948 5.612437 73.522690
6.217894 14.773296 104.216515
10.743809 0.904147 148.589539
-3.447935 -13.246558 134.377045
14.283181 1.780274 149.809769
-5.176056 9.019444 107.674400
16.405973 1.496083 128.841080
-2.484489 -10.722377 100.099609
5.254013 -12.348770 126.231026
11.947960 8.186865 104.290718
-21.560423 2.919128 73.606865
-17.320610 4.383932 84.568855
1.838743 9.340307 120.144348
-22.266443 -0.961010 146.054092
-6.592145 -10.671597 101.585358
-8.600843 -15.497249 62.632896
-12.174243 11.340999 141.892395
11.960623 -9.051827 136.749985
20.110847 -2.928811 99.012871
-0.631541 -12.882426 112.419807
-16.482122 -5.159829 141.514984
11.361060 -9.114241 112.713348
-4.930487 -11.198299 90.390205
11.070972 7.819932 84.568214
-16.471142 -3.271007 111.299667
-10.586659 -11.632030 88.173599
14.611259 -0.900445 117.601555
-11.188534 12.465555 73.095032
9.029039 -13.441802 107.704842
3.504738 -14.320724 107.069458
-6.512496 11.835650 136.351242
24.135767 4.250223 140.158417
-8.843875 9.739676 130.604416
11.221946 8.013834 126.385788
-9.437753 -2.864650 150.894150
-11.521704 6.587288 116.015518
1.282618 13.396089 85.725250
16.401848 -6.151688 110.949883
13.014101 -4.408245 140.390366
-15.557172 -10.301043 85.303810
-15.677310 3.565942 152.174210
10.745757 -12.771538 127.152657
-3.775956 14.025887 138.964935
-24.903292 9.444057 137.690170
8.642888 -13.080936 99.302338
-19.127190 -8.222492 94.610764
10.856915 -2.282717 135.536819
17.990778 8.068360 140.170502
4.203976 -8.732786 73.923332
-20.814264 -0.061393 87.615524
-1.124232 11.177547 151.364883
12.306791 11.968956 132.464981
-6.513776 9.346122 73.713486
26.172867 6.436585 141.063034
-14.766731 -10.394466 67.715424
-22.682949 3.171148 142.809738
13.729790 -6.776301 128.655273
-1.618314 -8.478399 83.647133
-24.692198 -2.949886 137.078796
18.461880 0.659309 136.434464
-6.535172 12.663516 143.375473
-25.988466 -2.714272 68.930672
4.724785 13.721125 93.765114
-8.221268 0.397769 153.302078
10.937190 -5.959656 72.594315
-9.070459 -10.911736 126.547394
-8.809320 9.654178 125.017876
23.482353 4.954457 142.194427
-5.491142 13.180717 78.564880
9.885566 -8.406705 76.869980
-0.867603 11.986562 90.615250
-9.562531 -10.415500 114.544579
11.025313 3.538063 108.528999
10.286735 -3.047146 142.568726
12.985872 -4.433579 120.925049
1.829547 -10.919789 113.798225
6.172128 -4.969335 146.014191
-4.355282 12.073863 70.172813
13.491901 -0.555029 132.444168
-7.089123 15.513898 143.586166
7.455241 -10.487209 71.854774
16.291779 -8.409420 130.306335
6.350702 10.650807 86.092438
-13.853418 1.587400 111.590858
-24.830244 14.655564 137.168610
11.864104 -5.142333 127.332901
-6.572657 -11.320755 131.543884
15.339317 -1.950486 140.998688
15.016833 0.831207 106.369186
20.548208 4.159238 89.418449
-12.363354 -9.543889 106.644104
12.346078 7.045106 127.678947
14.684382 -10.560691 119.335251
6.127498 -9.959145 140.869141
9.952125 11.561471 77.273010
17.360510 8.260880 70.991486
-16.024296 3.095333 108.447891
13.250462 6.619458 152.171402
-16.539665 1.882761 128.032974
-6.685618 10.796679 102.139511
-14.342112 -5.499051 126.305077
-8.996876 7.695714 155.236313
-6.203259 -2.298034 153.431107
-14.997641 -5.960235 95.512039
18.534613 -4.600167 74.724342
-13.371898 8.315904 83.478363
-0.515446 -13.684762 104.585220
-14.850354 -7.390959 93.136269
8.223309 -9.643315 134.833206
-20.865692 -7.645836 74.100052
-15.776946 -3.813225 121.572365
4.218920 13.202517 80.561623
4.534434 -8.119204 72.048561
17.454021 2.999010 133.892120
-13.960217 6.947320 92.272293
10.350244 13.867764 89.386604
-19.787697 5.382596 133.862595
-12.965742 9.125184 99.596077
4.511595 10.766910 130.112244
12.391743 8.624296 125.912407
13.605228 3.093683 133.402893
13.699948 -5.670410 122.061424
-2.254024 -8.482469 145.534195
-3.862906 5.133376 156.821548
-2.994136 -4.599187 145.678970
-2.184478 -13.905543 134.334412
-8.115067 14.613209 147.481186
9.002981 -9.859941 83.695518
-2.720070 10.925905 115.676308
-9.328903 -11.924236 96.573891
-14.964327 5.845759 150.815643
-15.842432 9.041010 88.855423
4.542792 -1.707027 152.880386
19.419397 1.310225 73.379044
-11.963532 5.146465 116.850761
-13.705568 8.428203 79.990463
13.157908 10.139836 85.018539
11.931268 -10.005466 126.931343
5.458841 13.772619 144.107071
-4.000927 13.604636 142.283997
16.484484 -9.915149 80.256737
-3.228721 9.413044 154.847900
13.957118 6.627585 70.999550
13.232481 -5.286519 111.071213
13.781109 -8.864329 109.749702
-14.392497 12.110517 145.088165
-8.966521 6.585073 123.577980
-3.199967 -1.106630 151.415619
25.658806 11.858999 141.500351
-2.866301 8.801765 96.512131
0.929121 9.739820 157.360077
-0.653226 3.116202 153.563095
-12.772230 -2.569295 122.664146
6.394813 -9.712340 138.067047
-10.887102 -9.622777 90.222832
21.847408 -1.371495 77.708496
19.598459 2.021513 73.401451
8.961997 -13.172166 100.762878
9.830150 -5.273054 142.617096
3.100269 -7.852526 143.407562
17.876747 -3.006798 67.359406
-9.459306 7.775465 113.227692
-9.477351 8.084188 71.278595
6.145608 -11.501829 78.221870
-10.730940 -13.181023 127.011932
14.800414 -3.523142 145.170654
8.878311 -14.486272 63.880280
-10.389233 12.293540 139.014984
-15.841130 0.124973 105.224747
-2.496706 -5.203284 148.704315
-13.004779 6.166050 80.591301
-17.612459 -1.674975 97.551964
2.701120 -6.437703 142.310806
24.120539 1.956456 85.547646
11.234441 12.046698 142.691879
5.930568 11.123082 87.073593
-7.345738 11.224899 145.168747
-11.494791 5.991987 132.415909
-14.464424 -7.793591 96.920990
10.174071 5.728765 121.049133
-6.883098 12.496099 129.567993
4.724442 12.652174 94.430130
-8.675348 8.946353 107.378647
-4.700971 -8.774487 76.144600
-6.823354 -13.633933 93.571480
11.105638 11.248749 100.071159
2.211550 9.727035 153.771194
9.219733 4.018852 153.644348
-14.130074 -7.188211 104.080307
18.268839 3.442600 91.482727
-4.898361 8.901376 109.944389
-13.267500 6.874735 121.868050
2.436853 -12.693041 102.817101
16.026905 -8.826085 96.005165
11.048807 -9.897538 102.850418
-12.986953 14.925144 69.981674
-7.496628 -14.035323 115.216507
2.329472 -10.469065 80.486809
-5.018058 -12.668109 116.778732
19.125383 5.861913 100.028717
-8.929070 -6.335073 139.371887
1.428372 8.674503 153.583801
19.101807 -1.655730 139.328445
12.451333 -10.322710 136.151154
-21.356161 1.580077 70.236229
-13.395459 8.414956 74.045143
-25.758631 4.976455 142.146667
12.396993 -8.947492 93.586128
20.910007 3.889236 144.522430
-8.418900 4.020118 155.872009
-8.529737 10.795068 80.058716
5.297377 -9.523257 114.669159
18.482859 -10.792712 78.072304
-17.420860 -4.047401 124.348839
6.740715 -9.997105 119.200874
-13.780612 0.315617 120.949722
22.961971 1.486588 75.836945
-7.704193 -8.711547 122.223373
10.535540 9.424608 150.767151
10.625922 14.199526 81.980034
8.007579 -12.394450 92.381378
-5.260162 -10.756091 100.360413
12.285427 10.208350 87.284225
4.324793 5.556444 156.351990
11.622763 -5.315440 114.198601
5.862004 -5.105889 68.291481
-9.608657 9.683994 111.258255
-3.806056 7.637888 154.746429
-13.665139 -6.752619 107.403778
-15.979292 3.141401 104.562531
15.932344 6.491586 101.396774
19.105192 2.482304 134.047684
19.628557 3.932995 91.978836
19.449364 1.938776 136.475037
-13.442648 3.241581 95.693115
4.758457 -13.290489 128.344910
-10.183470 -9.504889 125.198318
14.086238 -0.944818 129.398087
2.673330 8.414748 126.047882
11.500933 -8.316186 99.367249
11.087435 10.869201 94.088341
-17.384642 -2.706789 109.145950
-19.358805 6.167583 148.039780
-11.084001 -10.767044 106.621628
-16.856483 -9.833582 87.447372
-17.276165 -5.364748 97.029762
-5.361149 11.704363 79.392258
-20.269474 -2.304814 81.928329
-5.435825 -5.105032 142.469864
11.909431 -9.090545 99.861412
3.596398 -12.436051 114.493713
-17.608044 2.512779 72.380592
-19.884735 1.606966 75.574226
-13.438448 9.923400 151.007904
11.274469 -7.363320 141.946716
-1.735102 -3.245952 152.770813
16.321270 2.148044 106.296753
-3.636474 -11.891441 92.707390
-0.614273 7.554739 113.616020
4.215908 10.161322 87.895287
-7.978600 -10.643198 109.860985
-9.792864 11.785736 95.947159
-16.534233 -4.237118 124.288231
-14.455441 4.806785 91.955048
-0.413077 12.872395 70.665474
1.234720 11.345148 84.129486
-14.416975 9.281682 85.050400
10.868466 4.090680 158.236649
-8.778357 -13.612079 78.260368
24.091871 -4.107532 75.784119
15.012627 -6.814874 101.069878
15.294769 -0.872422 112.069954
1.643792 -11.884597 141.044495
11.618826 -9.744462 141.039566
-8.512115 12.837246 139.542542
-10.784022 13.206472 142.124771
15.642828 -0.992037 109.045555
8.662485 12.206583 141.141815
13.492355 -7.561662 124.606987
12.153041 -2.130881 110.519760
20.213268 0.584716 82.410057
-14.892507 -4.356273 100.027351
-9.961781 -10.150997 107.147263
-9.357016 -10.037053 102.303963
14.152369 -8.129081 122.324326
15.478844 10.046928 83.159019
23.745539 9.985724 142.105850
-18.710941 12.881675 139.862244
-17.979633 -1.919235 102.889297
-16.300987 1.565108 100.738907
3.392837 6.398190 124.814110
-14.742164 7.275814 97.967361
-10.929626 12.433007 97.271210
5.974442 14.346661 141.711227
-13.609075 0.444995 111.712051
5.226160 -2.877689 155.198441
-14.506628 -4.816450 142.086578
-5.175237 -8.874599 83.420471
8.620883 8.286579 147.701492
-6.917304 -11.431150 74.917915
5.629498 13.642014 138.110733
-14.081538 1.481313 134.130508
-14.134608 -1.242835 144.598572
-17.505442 -9.748058 85.975868
28.226212 10.389903 136.998337
-11.310427 12.544705 85.432007
19.014467 2.814465 77.232010
-13.585152 1.980191 108.894211
-16.197941 -2.799542 112.276482
6.315302 11.582798 126.620483
11.755337 -11.385317 107.295280
0.551472 -9.751056 139.929825
-4.267860 12.960788 83.894295
-13.326159 -1.849798 142.167099
-14.872052 6.556644 90.604477
-12.981327 9.673240 137.015121
-24.427929 8.630550 144.214676
4.940908 8.023628 107.219635
15.854476 -1.390908 115.055389
-19.609980 8.359796 70.882805
13.227438 8.390877 128.107971
-21.698156 -3.095076 89.751175
-20.034996 0.264501 148.196655
4.099050 11.394552 83.890671
-8.532202 -3.079164 150.106430
7.391137 -8.070789 78.371155
-6.797984 14.146327 142.763748
-10.293758 -1.201968 144.363342
16.934530 -9.540202 99.749725
-8.673485 -7.692172 76.596642
-4.225377 1.516710 154.290558
-1.586150 11.034777 132.611450
0.059609 9.373235 123.904945
-24.843149 5.744059 140.536224
0.916559 -5.970225 142.682159
19.032181 -4.723367 135.512894
12.742962 10.951326 88.352036
-12.277555 2.316489 150.661240
22.639095 1.766696 139.320328
19.460066 -8.662657 70.538307
-5.323204 -12.030036 141.945312
10.638256 -11.118548 92.780945
1.279093 -11.924120 113.148285
-9.986228 -11.342657 136.996841
-0.390061 7.699371 113.420929
-5.758278 12.969881 79.010689
-11.021393 7.373869 134.844635
-16.966217 -4.774603 104.240433
15.701225 4.028998 105.673462
-9.108830 -11.869526 133.149460
4.046076 -5.704294 147.886276
-10.527568 -8.994925 71.341637
-9.859644 -9.915601 138.226257
3.066638 9.174870 112.784515
0.478703 -10.932557 86.784218
10.776218 8.992957 88.298958
13.937834 -10.493553 73.611542
12.461900 11.273555 149.210449
-18.878862 -0.914083 86.545998
-19.577139 11.703042 144.066360
-12.372779 5.376378 123.572372
-19.320219 6.191604 132.632828
10.265921 -8.811758 127.237694
-4.244580 9.390837 107.139313
-12.507380 -1.175305 149.424103
-0.773119 -11.094421 106.156425
8.477926 12.061979 146.134537
14.196773 11.234044 139.386612
12.035745 2.973440 128.328415
-2.069621 12.322876 135.570358
8.146381 3.050802 153.445663
-9.476262 17.286903 142.132385
-21.489794 -6.159818 69.641235
12.484741 4.919232 129.959930
15.516513 3.803945 95.919235
-8.152944 4.127838 123.836594
-14.276325 10.011971 134.792923
-8.822504 -0.555305 146.519104
-7.804198 9.746818 144.901520
18.763309 14.040849 141.603165
22.584391 1.654928 137.341476
25.567114 2.257392 144.089951
-1.927917 7.079753 108.121841
-23.339100 10.021287 141.005249
-10.944479 -9.881205 96.981926
10.170523 -9.869438 133.086548
18.483212 -7.089259 100.858971
24.605915 2.195709 78.531494
13.213142 3.330327 126.381393
-10.439809 11.834481 149.210693
-17.649828 6.429925 77.799416
-19.326479 9.054701 138.425354
-0.194039 10.396605 85.941536
7.746515 8.362270 152.047348
12.768641 -11.896828 94.580475
-21.438354 -6.861240 72.683769
14.004852 10.070819 145.706161
14.561737 11.222092 93.871521
-9.636274 11.109564 141.731323
19.690920 6.624069 140.280838
-8.327857 12.721401 95.363609
-11.284634 10.446053 105.041420
11.677966 -0.553104 146.138687
4.764978 7.576102 124.389603
-12.727916 8.735061 85.448677
6.567850 -11.805622 92.014694
-14.775806 2.439507 100.992409
-16.091108 -1.366108 130.429169
7.087711 -6.572066 139.896133
20.597250 -8.104516 81.355331
-7.097223 -6.670093 78.001869
11.358355 -2.601616 122.008560
-1.468564 -12.324831 84.453964
-15.964393 -10.149147 72.341492
9.259939 -8.876562 71.449860
-11.494338 6.728146 85.589211
3.572939 -12.981177 76.523506
-2.820912 8.027597 110.654152
-7.831365 -8.585984 94.074341
-0.751293 -13.630321 120.907478
-3.097487 -1.732295 153.359985
-17.800653 9.544218 73.185333
3.553663 11.544551 129.124084
12.953551 8.177021 147.351166
-7.458136 3.717910 152.817047
16.034437 -2.983663 105.039352
-9.623594 -11.995237 111.763519
-22.231611 -3.592452 77.302452
-20.406237 2.349304 85.594101
-12.324562 7.938198 148.698395
1.117586 10.906796 78.822968
9.359907 11.638106 82.506104
9.175784 6.654229 130.360260
16.769144 5.463948 150.720551
-21.466257 1.708515 71.603249
-16.623960 8.792237 138.821640
-7.027592 1.807547 152.159454
-16.079214 -9.584355 128.535217
5.648654 -9.947297 125.493103
-8.276054 10.981441 103.325325
14.392885 0.264047 135.994431
-14.793006 5.975749 134.398865
13.272686 -2.645030 130.093872
3.484203 13.124098 146.808304
10.478124 5.528729 65.017868
-0.989471 9.524060 131.990448
-8.340660 -9.997241 74.288048
-14.964500 -7.919600 114.055145
-11.150691 3.468887 110.854202
-10.320886 10.785864 131.274857
-21.798191 8.040919 133.780151
20.735262 -0.240485 94.891853
1.681810 -11.950092 91.316757
-3.620270 -9.928867 126.928162
8.874594 1.123308 149.899384
-8.142028 -9.489030 139.835922
-20.983925 6.701212 87.353027
22.559311 11.580886 141.760620
-2.462221 -12.764802 111.861465
3.225593 -12.774294 92.703133
0.220786 11.162204 155.957565
-4.689160 -11.868045 79.291115
-16.993708 2.635622 131.231628
1.701629 -4.182734 153.318298
-15.871069 8.265320 88.018730
20.001041 0.859127 88.481194
3.086416 -16.681734 100.663025
-5.402565 -12.528740 127.616959
21.160883 -1.442910 80.327789
-13.310552 -0.583116 113.806198
-25.391958 -1.244945 138.568268
7.873511 -8.793540 126.341820
8.177919 12.968620 89.775543
-9.089126 6.159473 81.367912
-15.369332 -1.357129 148.037994
-7.350139 11.937718 131.119949
4.837115 -15.033506 112.751625
9.828958 3.276297 110.216736
6.983315 10.997386 156.889908
-9.153507 -6.887143 139.625793
-16.779211 1.297068 151.727875
-11.871342 -9.321125 136.190063
-3.192875 -12.025790 105.378281
-19.691387 11.425582 135.251511
-5.467330 9.877743 127.832436
15.708931 -4.103039 97.941994
18.153620 10.149374 144.786865
-5.136084 -14.218878 114.241402
0.366031 11.368288 88.855949
-13.243445 -6.685497 132.550217
19.802780 7.280821 145.453949
19.627876 2.983618 104.990219
-3.161605 -6.717313 74.797920
-21.548975 4.111857 146.461945
-12.170961 3.961523 112.893372
21.667480 -5.736269 136.833771
9.281915 -9.113984 117.804031
13.628663 1.606577 100.957329
-18.316397 -6.724262 81.773987
23.486237 -1.931926 143.266693
-1.291378 7.905366 154.483215
15.410215 -10.483757 74.162186
16.517561 0.163700 142.370026
-9.162583 -12.854389 106.753029
-3.785546 12.055719 82.206627
14.368774 -8.142886 116.714104
-7.041129 7.567358 157.279190
-16.481985 -9.942142 81.998444
10.910878 12.300511 74.316849
-14.302094 -8.551627 135.457291
11.968906 5.650786 128.895966
-12.405562 2.079772 127.801041
17.592552 3.790118 90.692039
20.834776 -1.803479 78.598579
18.660355 5.528161 77.605606
22.756565 1.723943 73.843613
-18.789968 -6.349915 92.466209
19.047945 1.058027 102.825096
11.871378 9.650807 73.727577
6.471382 -11.187764 102.279854
-16.295238 -5.647314 74.840218
-18.426273 -8.835574 88.895332
-4.089612 -1.401005 154.810730
11.100814 2.845768 122.935249
-13.113743 -4.657747 123.028534
-18.399673 -1.067196 87.626526
-21.360023 -1.461256 79.812157
7.949178 -2.334215 147.417023
-14.324808 2.780921 102.957062
-1.878970 12.599377 143.889328
1.323446 -9.858877 107.154900
-2.190556 9.055139 156.017914
-22.910799 -2.773834 141.414627
-8.269689 13.411884 100.391945
-4.584971 15.028682 94.116913
-11.872744 -3.772115 120.585579
-22.809420 -8.336678 75.747665
12.624908 -8.306468 95.204079
-14.511641 4.337597 108.585594
-14.120744 6.727495 98.026123
-10.834022 7.604618 132.805206
-17.483568 -0.908247 138.934387
-4.335748 8.093155 104.955734
-4.912839 9.846759 80.145233
-19.216593 -8.932862 79.021667
6.093555 -2.670832 144.735519
-6.808880 12.240538 73.429817
-8.297808 6.225836 116.025185
-10.739094 -7.908117 87.263031
12.510413 -7.187949 95.482338
15.657420 6.750214 149.487503
-7.534147 -9.197851 142.239609
-15.737720 10.605764 148.259476
15.356666 -8.651051 105.316483
14.544563 11.619371 100.266624
-13.171670 13.211983 95.610016
11.227355 -1.049396 149.045074
9.144102 2.305435 148.584351
3.598792 -6.710120 138.800186
-14.306383 9.436961 93.047050
10.932773 8.580751 138.420517
12.260467 -11.430594 73.424652
-18.633942 0.863620 69.730995
-9.778500 -8.919040 105.507019
-8.773514 7.556469 121.552139
2.132638 -13.970687 124.718971
11.911171 0.358362 133.281357
-14.704130 7.994090 139.749542
3.124296 -8.959482 86.936295
16.392891 -1.377777 101.756721
-10.867640 -11.649744 117.752213
-4.669757 11.209151 69.247269
12.023964 -12.727801 119.233620
15.187104 7.647458 131.000229
14.469635 1.858374 96.525642
-9.768334 -13.498994 99.504860
19.733603 2.274068 79.896240
4.644096 -1.237567 157.212036
-0.868548 12.448006 101.429657
-3.710118 8.024338 115.651047
22.208845 8.798278 132.887817
19.202919 6.273087 83.615402
12.077774 5.208510 129.421448
3.427901 -13.283710 106.691711
-13.410580 3.431237 128.895676
17.802803 -7.945206 82.722420
-17.857029 5.953400 139.687759
-25.308668 8.829754 140.469528
6.128911 5.331977 156.910217
-6.839624 6.005495 151.879486
6.649724 12.149299 142.213577
15.053679 7.646249 93.303871
-20.849382 -1.147266 144.799011
12.955436 5.815982 149.730377
20.356852 2.255672 151.870422
-16.244278 -3.771512 116.851173
7.007409 3.675346 152.657074
-7.394136 8.943104 112.382065
12.431619 9.363777 134.262772
8.767102 -11.752036 100.147812
21.550459 -3.968236 77.724655
-11.870647 -9.773011 106.686073
-0.302350 -10.974850 125.118896
-10.898108 -2.223220 152.437851
-12.883948 -11.493305 71.959251
-14.898153 -8.070329 70.558395
3.962098 11.110531 152.201904
-10.125995 13.304314 137.240067
-8.813610 -12.044930 119.387772
10.711220 -12.204177 96.374649
-21.658220 -9.233921 76.554977
-9.999618 2.539689 151.998047
3.843348 11.346407 78.434036
21.689018 -0.753043 67.751686
17.478176 0.575588 129.939621
9.918565 -4.723124 140.289764
-11.985346 4.222349 112.530449
9.008260 17.183891 94.248276
5.500713 7.113497 155.583755
-7.764623 14.225849 140.880600
-0.439685 10.918308 149.498260
-7.152608 -13.386247 128.680527
11.602226 -5.381353 102.661263
16.397776 13.981784 137.810165
-20.343773 -0.573737 106.964233
-8.458402 14.092822 136.215500
-5.473272 -12.332421 93.243767
11.837378 -11.348718 132.608398
-19.953783 -1.191133 75.583961
8.004667 -9.787477 131.615875
-9.173781 -5.595235 143.549179
-19.947636 -4.057693 132.955612
-5.258537 12.673898 95.270599
-15.286978 6.827505 91.072060
-20.761923 2.032598 145.930588
-19.340769 10.824795 143.059677
8.446036 7.166190 153.902267
11.148688 9.996433 147.707169
-14.202529 4.741188 73.921036
-12.413464 -9.926435 108.530121
-9.223460 -10.051447 104.740173
-9.741509 -2.288806 148.342514
15.586966 -7.389700 102.795700
11.948156 -11.224827 106.406563
-9.354822 10.188025 101.039551
21.619390 1.107810 71.016624
8.011110 -10.591984 86.746849
17.264160 5.999892 149.971359
-7.085192 8.312310 114.486252
-8.723172 -7.622277 126.234245
15.741274 4.058830 146.449341
19.373604 -9.451520 78.265938
-14.483605 -5.581361 129.152496
-5.356992 11.026119 74.591866
14.808065 8.250945 94.479309
8.569450 -2.847649 149.792358
-13.302341 -8.331566 67.948990
-1.970287 16.181431 98.625092
14.978960 -1.796473 141.389832
8.688678 11.154896 140.734848
4.177635 13.869658 96.892273
-0.423538 15.496298 72.900887
4.334765 11.024687 146.814819
-17.377180 3.414738 89.585060
-13.545273 9.680702 137.861664
0.170372 -1.877340 152.783447
5.422767 3.345215 154.888397
-2.300683 -11.382890 119.606667
-5.422646 14.398984 146.055420
0.431306 -13.284204 70.000351
13.644555 1.094093 113.983742
-12.775636 -1.813965 129.684296
-19.628082 -1.177435 139.809372
11.454778 -9.068089 141.813126
13.185001 -0.186876 114.684143
6.633615 -12.363330 134.468826
-15.982337 -9.665092 72.680847
10.587211 -12.513220 94.513802
17.511728 -5.755958 101.753601
0.086743 -10.462645 76.401543
10.469879 14.112008 149.492188
-8.156207 -11.306188 137.025177
-10.024956 -2.713034 142.140396
8.952694 -9.918922 71.657051
-25.079805 2.138579 141.434906
-5.813246 13.230985 134.292633
23.607485 2.804049 76.025558
11.494320 5.787521 109.053856
-9.603577 6.093660 127.734863
17.169222 4.796501 98.332832
-16.865152 -2.097430 100.336563
-12.117457 -10.545592 106.297859
-10.838416 13.020353 89.949402
-5.683061 -3.222167 148.699875
-14.298845 -9.552270 103.027344
-8.307337 -10.626281 87.240234
-18.744196 7.855403 84.660568
-10.713155 2.430357 122.021294
10.037082 14.214482 135.372360
3.921434 -9.939237 89.259186
-20.443857 1.232850 87.200600
-14.903103 9.487693 83.691132
8.422818 -12.622177 103.929138
-5.681347 12.531657 111.837440
-14.988356 -9.762897 100.321091
-16.387882 5.994651 138.946487
11.054186 9.141296 135.325836
-13.745208 9.953046 101.220581
-22.021605 1.748093 88.955696
-14.448996 -14.104769 94.655373
-12.112978 9.840912 135.583694
-1.429042 -11.232930 101.412086
-0.107521 13.211506 72.306808
-13.263375 4.868421 129.759262
15.053179 9.238780 151.438400
-13.736281 3.371728 129.178665
-12.177773 -12.079803 91.154587
19.048687 6.576388 88.745224
15.520144 -4.258509 123.829224
9.561146 -10.439786 123.539574
-9.101233 -1.999700 149.430984
3.345497 9.634538 81.695160
8.261138 -2.695024 152.676315
5.528293 0.121211 151.493607
-10.460519 3.370703 123.908562
-15.862753 -1.300537 149.902695
-2.700432 9.729066 107.898056
11.127904 11.141599 90.283272
18.460670 2.000825 77.697716
-0.520602 -10.081861 77.655731
16.490055 -12.191086 76.322365
17.634968 -4.808572 112.213120
19.391243 -3.066488 144.939957
-1.590912 8.031725 123.608421
-21.215145 1.010348 80.675430
13.408837 2.347682 113.854065
-2.526927 -8.559813 87.926918
14.631038 6.593412 135.634033
-15.112521 2.544524 134.559662
-0.197596 10.491796 155.168839
-10.165269 -4.892636 145.073792
-5.873805 -4.440448 153.713425
-1.333000 13.696804 146.257294
1.619111 -11.446609 111.827698
9.552000 14.238195 96.826019
16.480667 5.245635 91.292160
-5.312134 -10.837017 120.163620
-15.022302 -9.732880 77.301628
-7.311790 5.321429 104.227829
-2.300438 -2.931940 -3.681883
-2.321862 6.814542 112.546768
-21.278557 0.385886 136.208511
-10.531590 13.329873 143.047699
12.321487 9.599672 95.854477
14.988686 -6.037948 141.186295
8.368358 11.842701 147.716125
11.202343 -6.564236 105.991203
-0.539008 -3.708618 148.280914
-14.150033 -6.003396 107.395653
-10.043936 -9.388784 83.278595
-21.035387 10.772214 138.634979
-2.110652 -13.224222 109.312119
-18.369678 -10.915131 82.980850
-11.230750 -3.153854 111.114326
15.383548 5.106678 99.927933
14.099146 -7.020804 103.369591
-21.152819 -4.021452 72.337463
-8.605857 12.736663 90.057045
1.989241 -12.992444 105.053986
13.125010 -3.397152 121.033981
16.363518 -3.410987 104.575684
-18.532967 0.011763 144.076187
12.571039 7.753653 116.287209
13.047232 -2.087142 133.536453
-7.077638 4.821666 155.343933
12.824644 10.950108 97.004074
18.770452 -6.503400 79.185974
-15.485674 -8.163448 107.182861
2.047444 -12.315341 131.914780
11.989975 11.321930 147.976288
25.133375 5.141825 139.466095
-9.660606 6.718029 122.451851
-17.220114 -1.655596 98.837151
5.827344 3.881725 151.983856
-3.132643 -10.320390 94.692131
13.497668 -6.430965 126.862045
17.461842 -7.114377 96.003380
-15.057052 -13.066880 133.024582
2.132570 11.429638 129.813782
6.265171 -1.572771 149.839752
6.462010 4.827714 155.684586
-4.142254 13.240493 136.442947
5.967757 -11.099782 96.279274
12.662119 2.100156 111.471909
-5.749400 11.144517 79.419441
14.917542 -7.386924 137.365128
10.999454 -11.884327 111.387177
19.163101 9.885804 76.341873
3.167890 -10.391541 122.038101
-6.166273 -9.485183 90.088463
9.214375 -11.834783 73.817139
-10.081505 12.362395 127.951454
-11.547846 5.218079 152.146378
-9.254290 10.527287 85.095276
-1.282736 -7.926739 138.443832
-21.656219 -1.061127 144.060379
-23.963350 3.523653 139.155914
17.963470 -7.958936 80.149788
11.812390 -7.773082 120.013138
14.102930 6.058957 135.402023
2.876082 -9.952287 97.151024
15.139511 3.040786 135.110870
-8.311006 -11.508267 137.958405
-18.252729 7.162295 139.107712
2.036345 15.606961 140.383621
-9.878955 10.266067 81.606262
20.319767 -3.581884 146.658417
9.484911 12.106217 140.588074
-2.240027 -7.249144 85.125938
3.482823 -3.919809 146.815094
12.271225 13.993209 144.903229
-13.737441 9.955284 80.550964
19.475010 2.940515 136.879150
-14.731577 7.884883 101.677429
-13.655782 -4.075124 127.464905
-10.207500 9.486879 144.168610
-5.623962 13.776185 132.147873
-14.665161 -4.870728 143.239532
4.558657 -11.267274 77.661880
13.699984 10.871161 147.853104
-16.059401 1.793050 148.743240
1.347285 -9.338202 75.652153
2.616581 12.576442 141.253708
12.269540 10.955090 91.641479
0.657039 -11.196239 71.547745
8.341794 -9.697758 77.210381
27.438702 3.337536 141.934952
9.482964 14.251779 139.917389
-13.163600 -5.112200 110.412346
6.800121 -13.139670 126.286140
17.695200 -5.071621 82.710327
-11.178011 1.285001 130.703094
15.324389 7.071938 135.293137
15.119225 12.365149 145.502594
-12.102198 -6.496688 110.483162
-1.190425 12.923511 148.674774
12.493045 6.360604 92.864517
-0.771633 -12.606246 83.954063
-10.058372 10.425580 133.414413
8.231916 6.576955 115.858391
9.965358 11.080609 93.876526
-10.904243 -12.287990 112.741493
-12.660810 9.169442 71.084557
-19.914427 -6.749930 81.637276
-8.582973 -10.642826 93.531807
1.153860 11.796782 129.894409
-14.161783 -6.189316 110.325050
-20.244576 -5.865092 91.266022
-13.447813 -4.692492 110.829994
4.173402 13.397603 101.611145
1.261638 -13.552843 95.285843
-13.021004 -4.391165 109.871605
-2.593114 9.241794 123.820290
-6.470650 -12.159780 110.598236
-7.088006 -10.944652 118.650795
-11.772366 -11.978539 100.791313
-10.827021 12.607245 130.461868
-11.992126 4.004646 122.594406
-8.814601 10.898823 153.281158
-22.098967 -2.155346 86.923347
7.401889 -12.437757 129.646713
3.408992 11.854716 144.876236
9.406820 10.654812 137.024811
15.783329 -11.456292 83.583908
-9.159657 -9.999810 125.644264
-21.537100 -1.636959 135.703583
16.011749 -4.936658 95.771133
20.307629 -7.601584 91.522163
-15.755544 1.759285 148.521561
14.638942 7.323942 98.391357
-15.119551 -8.228922 94.326469
15.293823 2.312926 149.737686
14.407799 7.680489 132.293976
-15.761617 3.839119 150.646622
-20.442270 -3.518716 97.278641
11.989237 -4.175308 117.076195
10.014066 -11.685462 117.710846
-13.499527 2.064666 108.733292
-13.185797 6.044638 69.630440
-13.217700 -7.154666 123.431351
-12.468327 -4.265810 144.732452
-23.247427 2.520881 80.391136
-1.943818 12.131686 157.943420
12.016537 -5.169473 124.077522
-8.857237 -11.209036 74.617439
-10.085770 -0.181683 151.013443
1.238570 9.393213 129.275986
-0.218078 -15.978122 107.865776
15.315946 6.113032 77.526924
-14.278575 -6.349995 135.483261
18.224457 5.293814 74.003502
15.078918 4.437622 95.113380
18.279613 3.027308 136.775665
7.634494 11.558897 130.746811
-24.317930 -1.864402 137.982071
-9.136852 -6.895822 144.086517
-7.605209 -11.766648 96.822166
-18.394251 -1.413385 94.411072
-10.346361 0.194607 149.664673
13.762336 3.486491 149.782227
9.234524 14.862165 143.348587
-10.931974 -10.130200 81.963791
17.258638 3.838080 98.419724
7.321965 1.759714 148.371872
16.406988 4.914371 110.559158
-7.007676 13.808746 87.110580
4.953298 12.242908 95.371567
-6.823634 13.242676 136.998550
-14.456125 -12.773883 132.920654
0.494158 -11.454458 99.315704
-5.128386 -11.508455 90.001091
14.150803 -1.470970 149.207382
12.630651 -1.770673 125.780373
-7.926448 12.378523 78.163574
3.988613 -10.804040 106.747307
8.913647 6.382192 154.203552
4.756230 -6.114924 146.309372
16.984734 9.306258 74.760490
-4.022228 12.796713 90.816887
20.263414 -5.276175 72.168823
14.546030 -3.314931 123.865860
13.993136 -3.353477 114.813881
-9.682930 -10.894229 98.708229
-10.028255 11.336849 86.257347
17.546000 -8.224420 90.015251
-2.151392 14.549407 96.615479
11.049412 -9.193129 80.893692
6.107634 -8.686337 105.619133
-14.882611 -2.775759 146.891754
16.469820 -10.427898 66.953384
-17.901922 -0.719634 101.046822
11.587526 5.153334 152.243835
14.273639 11.305133 89.608429
16.582418 -2.772460 145.499939
3.102482 8.004586 101.340012
2.347862 -5.549405 68.020050
5.315612 7.420947 114.407898
-10.059855 -3.083843 146.970856
3.322657 -13.256612 105.119324
-1.770831 8.366417 110.888008
-0.010221 -7.658269 123.277893
-14.902575 -2.802661 133.368561
11.764052 -0.518352 118.210220
-18.486811 5.744488 149.726257
1.255396 -9.426037 123.269135
18.160639 12.405396 143.301971
-8.244930 6.764337 121.047211
-21.315786 4.370119 83.660248
10.749160 12.041325 138.192123
18.895515 -4.942117 80.636444
-4.154777 10.397050 136.794296
-11.747493 -4.534373 116.386223
11.610350 -7.200807 108.184326
18.305269 -1.999024 89.504997
-7.802625 -8.707971 112.331039
16.020775 -1.930070 125.453293
0.856508 -13.041123 127.826393
17.312897 -3.451677 98.653091
-0.807725 9.723898 148.202087
-11.779455 4.012143 151.189148
0.557404 8.940920 96.082146
-16.533478 7.832936 137.204056
20.243231 -1.273644 92.485840
-6.923550 -11.229809 120.250740
10.369660 -11.394305 92.645943
-9.964621 -0.687944 151.141983
-3.309756 -3.797259 150.531021
13.014685 2.918791 109.864914
-15.818952 7.742313 74.867897
-8.252765 -9.357911 111.098618
6.683314 -10.409999 82.621689
-19.291122 -1.231306 101.152275
-19.512009 -1.663139 80.854630
17.747366 6.211198 71.021461
8.799091 -12.816471 135.581879
2.895385 9.426277 104.986145
-6.808685 5.213556 158.554001
16.116179 -6.580156 91.664764
9.895260 6.567894 148.913345
18.499044 -4.991864 84.501976
