ply
format ascii 1.0
element vertex 2048
property float x
property float y
property float z
end_header
0.111672 3.546447 121.328621
-12.657195 7.465312 126.829796
31.063623 -5.267361 131.806320
-51.200928 9.435789 121.095306
18.158352 6.529233 150.300613
-50.118408 -7.798878 110.144257
27.906437 -5.167475 127.263832
-46.527493 -5.302019 123.627792
-39.751862 5.878973 132.890625
5.378925 -11.476652 74.053200
-10.692408 3.379045 152.176193
-20.308949 8.399078 90.687759
-2.738310 10.439137 157.300385
13.711335 -0.060157 124.635201
-8.586308 -10.754568 93.828133
11.932784 -13.592895 88.398613
35.681339 -10.700302 116.155350
-12.573889 14.164809 70.371185
-0.643285 12.889820 103.555832
-19.973022 -5.180028 82.135147
-33.059883 4.811659 131.971619
-5.502170 8.881075 108.086250
23.659187 7.836491 81.530289
11.446468 -18.172506 73.588493
41.109329 -11.263825 114.028152
-14.386154 -2.968958 142.576416
28.324085 1.430030 146.096024
15.210318 8.330174 150.880463
38.444942 0.135909 110.165253
-0.137239 -14.810503 132.771393
-48.659138 3.893619 126.037094
53.925766 -0.653466 119.896767
9.427445 -9.607900 86.338509
14.020177 2.072787 131.853745
9.745662 10.964417 97.278847
-10.528413 0.671051 147.852631
-35.061459 -1.951358 133.121475
35.948826 2.216801 108.883026
46.814091 9.782463 117.522308
-1.613590 12.044194 77.618088
-27.380247 -0.079475 130.995483
28.544542 -0.164036 136.220322
30.251322 -4.898697 134.117188
-19.496698 11.084304 78.739029
-16.042374 -7.621517 100.501350
-25.032103 10.644822 141.525162
-37.833469 -1.223253 128.431030
44.344048 -8.245655 124.925682
-47.109295 0.104258 129.898972
4.751743 -0.729724 152.850479
7.840929 12.616622 88.571075
17.401594 -4.466578 97.476418
25.129856 -5.473951 128.603073
9.241980 11.989466 146.926865
-54.267292 6.791368 118.094849
24.040836 9.086272 130.224243
17.089054 -3.065455 141.234268
0.621581 -8.817666 143.141769
-48.959869 -0.799182 125.454430
20.944105 5.895015 132.631485
7.196219 6.847754 118.592300
-20.766666 -8.614605 84.848984
2.433667 -11.157933 110.814964
-11.102198 -7.724067 113.756981
48.147457 -5.367959 125.421150
-34.894741 -0.480125 129.259338
7.095667 13.430966 137.119705
12.358264 5.707094 104.478561
7.058599 -13.781633 133.084015
13.240340 -4.884905 122.873505
17.857903 0.020826 104.810089
48.210423 9.475780 115.996529
40.325935 7.158902 127.654716
31.553562 6.068794 134.348038
-13.643222 -1.185521 126.755363
7.401446 -9.168194 125.000435
-9.376312 -2.509451 115.812492
-54.731346 -3.349385 116.197548
-20.258659 3.411192 89.806038
33.785667 -3.207747 116.438004
7.459230 8.653272 122.802124
36.984009 -5.458499 128.056931
-28.008833 8.849126 132.110748
14.395027 -14.378920 70.188866
-12.531604 1.123267 124.069054
-14.680481 -12.456742 81.271835
-30.458258 3.776770 135.159561
13.691250 -11.847569 72.308563
-54.470562 -1.577189 111.129120
2.443084 -14.178073 124.139282
18.541941 -6.023603 89.963409
47.759464 -3.304869 105.673241
43.688705 1.882882 129.155579
-37.482090 2.123154 139.081100
24.379114 8.178648 135.157928
46.248009 -11.199961 117.027336
-29.698057 -5.103220 126.385040
12.360035 11.286663 144.022339
49.989357 -13.677032 120.758247
21.954548 -7.277373 91.358757
27.456863 9.668801 133.868973
52.174007 7.095004 113.500771
28.547014 8.927677 123.638298
-41.037964 0.302092 129.882172
4.048503 -5.430360 147.466248
-13.829117 -8.736866 90.961700
7.789153 6.204169 122.047859
48.117931 -6.595284 110.372604
15.923174 5.616871 132.460022
-35.594051 1.113918 132.943405
13.123375 -0.906126 122.733994
51.702343 -0.948943 121.531761
0.693379 5.910872 115.714142
4.825639 -10.747402 118.477585
-21.251774 -3.550652 84.387924
29.131607 5.727412 135.432434
17.825024 9.279938 139.582062
-48.401920 -0.856501 107.880280
35.589230 12.683096 123.515915
34.353004 0.027441 137.255936
-17.917603 -15.053325 79.939148
2.337899 -2.477365 147.711746
13.047175 4.152823 128.724548
-35.508224 -7.652857 113.807678
7.056800 8.371775 109.460098
49.175209 -8.881339 108.499832
6.538866 -5.298841 140.958221
25.144611 11.213122 139.901947
-33.275017 9.194527 127.008980
19.591013 9.587844 83.180450
16.511410 10.199511 90.690216
4.935858 8.580896 120.584518
-15.640987 13.491324 145.078430
-4.266058 -1.132092 151.118118
17.089344 3.688590 153.133240
-4.909201 11.138906 150.344666
53.775723 -3.879654 113.454224
0.854374 -6.285111 145.865540
46.549999 7.809184 112.969498
-13.428276 -7.547073 80.471863
5.718204 -11.405929 78.687790
-14.109047 -4.054417 114.517471
34.628315 -11.127359 117.589363
22.228601 -4.862569 138.899734
33.937878 7.098029 129.213516
-2.010756 -10.176802 103.436417
34.725513 -9.991522 118.146912
21.025368 9.099854 144.523483
-15.226744 11.573468 72.923096
-18.577343 10.557030 69.948174
-42.843529 -5.146522 120.733078
-26.064184 8.547576 141.781326
-2.819971 -13.469178 128.716446
42.026268 -7.086587 128.093277
-19.288630 -8.926472 76.580757
21.113258 -0.409140 125.139618
10.159053 12.054134 94.138672
4.834836 -7.190954 144.143951
46.380619 6.681686 108.907608
23.687273 7.544739 76.038727
2.904869 13.732424 94.262840
-16.539774 -4.682866 110.444328
-19.163166 9.188557 149.793076
-50.389900 -0.782386 126.387383
39.465584 1.353490 126.871231
24.006374 -3.779215 139.752975
-15.082630 -3.375565 105.882095
-16.787678 7.149739 90.309029
0.906194 12.483614 138.827972
55.033997 0.746540 118.888962
-21.244017 2.014932 92.602814
-7.417148 -8.029205 111.141701
-49.813759 15.115788 110.959061
29.871130 3.634524 133.844681
3.360611 9.300435 129.934906
-17.308607 -9.944064 87.145042
-50.470524 3.108036 111.101837
11.103307 -7.981304 90.401665
-27.261995 6.715537 138.845428
-8.790644 11.620579 133.198425
0.823405 11.733318 128.332870
8.892965 13.792068 149.928329
-25.331287 8.403110 131.562012
18.473274 9.327369 136.810898
39.037655 -9.833365 119.960060
8.702526 6.468766 151.602753
-34.950554 1.527174 130.244553
-32.446545 3.755247 133.545532
15.469669 -2.142174 120.143105
16.120966 -3.926358 103.739082
-27.099127 4.709733 124.521179
14.014275 -7.430372 122.688812
4.525659 10.857960 91.432068
19.880129 -2.673899 141.478348
-6.505799 -11.073804 112.076042
36.915215 8.618897 114.256531
52.714268 -0.773782 113.821175
21.882006 -1.541946 146.513809
-21.267885 -2.182254 143.939011
-55.137173 -2.393108 114.418854
-23.757690 2.102204 150.076828
24.938011 -9.883834 77.178795
-0.014950 12.801158 145.724503
10.028823 7.586582 128.368484
43.476303 -3.918277 128.862381
-55.956738 -4.954738 114.629707
22.212883 11.385798 135.993027
24.504932 8.244951 72.672432
37.959938 -10.764189 123.283470
-3.538594 12.453891 85.770348
28.420681 11.178202 131.896332
-22.734596 -0.361505 82.359924
47.172325 -1.751146 109.995209
9.862844 -5.356108 142.254272
34.516190 -4.743673 116.037781
1.229067 9.687551 148.952026
16.936737 -4.841596 108.362076
-21.925871 -1.994680 134.697372
-37.345005 -1.246233 109.514885
-17.684666 -1.682032 106.280464
16.875942 13.524018 85.751297
54.664192 0.288865 112.645859
19.944794 -7.725628 80.599541
6.047301 13.449361 88.929100
7.008064 10.312806 133.880325
-16.822990 7.123067 72.392525
-9.089285 -6.354201 141.824493
11.381897 -2.019994 121.879227
-14.023847 6.087183 96.775513
-11.266299 2.803502 128.860992
22.946177 -1.691909 145.092087
17.015270 -3.040578 147.210938
-15.115263 7.081597 98.502663
22.524883 -1.924214 143.642715
7.937820 7.128580 153.281860
-6.129553 13.221133 62.001678
38.038494 -10.809607 122.508133
13.230360 13.147574 88.400391
-17.396166 -1.709305 141.020294
-9.649931 -12.736390 73.761711
-18.930136 -3.998161 80.533348
-21.512804 0.484053 143.948746
44.442673 -1.375794 107.695503
15.896665 -4.392437 135.648956
34.655678 -0.465178 113.022736
3.416634 -4.863013 142.612259
-9.362594 11.121369 134.073746
8.599617 -10.019738 102.037605
-2.749985 6.317944 127.831467
-28.055677 -4.330026 114.895088
51.281185 -9.261510 122.129837
33.139030 5.815099 132.734787
23.124060 -2.028503 138.478546
34.773212 -8.866329 125.975006
45.891209 9.045225 109.606522
-47.405010 -10.635586 119.735168
-4.836297 12.683389 137.955109
-1.091209 11.677980 73.134094
-2.946064 13.746524 105.047554
-24.094671 9.283108 138.940399
-9.963807 -11.041743 113.399422
42.176582 -8.430377 119.584000
13.579862 -0.600843 147.664093
11.317791 -10.285141 121.471748
17.634594 -9.727851 78.398445
-46.582626 0.401331 127.243607
20.415672 -12.173430 74.716751
0.334542 -8.695462 144.156769
-16.704128 -1.082824 148.818115
-12.315819 4.212332 117.602959
-4.845163 1.780167 152.843536
-15.812429 -7.713346 99.804939
24.640694 -8.694776 76.252380
23.171818 4.841638 128.455276
-15.719859 -5.855966 95.567368
-7.939786 12.242005 90.803146
0.396058 -9.175476 89.485382
-13.801857 8.852430 151.416229
42.584415 1.347725 105.462570
-40.509430 -2.650980 127.732315
-46.197746 -12.022645 115.000824
-34.727482 -1.753626 108.770393
34.845982 5.768901 121.651939
-8.769430 8.270694 124.024559
12.888652 -6.100202 109.793190
-27.170557 2.085361 133.212372
-4.348858 -12.618079 140.058350
-12.568095 14.466984 73.893227
18.149994 -9.689156 75.053795
-7.830428 6.320425 154.812897
41.875648 3.398998 127.236771
-24.544563 4.443163 78.097244
-0.734464 -13.634247 98.920082
36.538929 -0.011374 128.746674
-3.458636 -12.377270 122.067360
22.820175 -8.534802 80.555939
2.721216 13.851151 97.486710
5.514112 -13.972857 130.314453
-16.655510 10.774014 84.223145
51.933945 -1.826257 114.519371
-22.446508 -1.364120 138.495773
26.505798 -3.980492 73.997375
55.568306 -0.166678 119.723663
52.518948 -0.455991 109.748100
9.137564 2.885546 152.435745
-38.767982 8.314096 119.857315
-44.283512 11.376990 110.741310
53.652443 2.740211 112.937622
14.274429 -11.546863 71.196320
-43.760201 8.206440 116.085457
11.227129 10.567327 139.951431
51.074757 -1.949495 119.648697
-2.738867 -4.270979 149.838837
36.053978 -0.428401 111.751595
-54.946136 5.940938 122.882271
-48.384434 -0.865869 105.810181
13.778728 12.690887 78.975548
4.486290 -14.956356 106.628281
47.402264 -11.759274 122.481819
24.745134 -1.410578 137.116730
-17.072216 9.563702 76.605194
-22.482824 1.794505 135.383591
-32.144569 -1.974818 111.889259
-51.318481 -2.302549 127.186157
-24.258539 4.784217 144.046021
41.104042 1.490400 126.424004
5.212852 -12.526654 115.518547
-0.836617 13.110875 138.085434
11.899153 -7.682805 129.259903
18.564367 -11.551759 84.633743
36.934216 -1.933130 134.001740
29.124790 0.328934 139.063324
-28.987503 9.248779 124.824089
-6.242735 5.738632 154.733078
-43.876751 -10.447807 116.934395
16.194761 2.567191 131.882614
4.234044 5.565182 112.197510
20.458847 -2.119752 87.139969
-9.874688 11.618955 77.099678
-36.446316 1.372739 110.662758
-37.817734 -10.350485 112.138680
44.357868 8.674662 120.815216
-53.221317 -1.516531 111.499428
15.358850 0.505561 133.200760
-10.906658 -5.855501 145.715973
19.312260 -2.310985 145.033966
-1.038272 -8.478486 143.009689
-36.153988 -6.406950 110.665665
-13.665094 14.486272 77.133057
39.465862 -2.854148 135.602951
-9.359190 10.557177 131.687515
31.732515 -0.077496 110.821365
-34.704178 7.111125 130.820114
9.655475 -5.665186 112.688820
17.920321 -1.425327 145.864960
35.512669 4.701487 119.381920
18.585255 -2.897643 107.905823
38.523792 8.200900 111.925369
-26.551512 9.713645 132.943085
21.051678 8.948050 140.865219
-7.347172 -13.575769 75.418900
22.225515 -0.725693 137.952454
-11.119644 0.349539 111.570175
-56.480686 -1.264294 116.638130
-19.178858 3.694850 101.353691
13.535835 3.265161 108.565720
29.590084 7.941159 119.731232
-14.784698 8.476804 87.988815
-12.905612 -1.642285 112.934769
11.269957 8.825090 103.704292
11.370627 -9.236951 94.292656
-41.171944 -3.268696 109.498482
-0.152036 9.477735 154.018036
-37.906689 -1.929053 129.542755
2.560497 7.293418 103.732468
46.416439 9.328539 117.620979
-9.097286 -7.567110 115.380127
20.798580 10.767676 74.717041
-17.045086 9.586864 85.139801
11.383997 -10.925086 87.974899
-37.868851 -1.148077 124.741791
10.461358 -9.568447 105.479355
-40.694557 -3.537068 108.275810
55.160595 -3.869905 116.154961
-19.553076 -1.793551 92.682144
2.669059 10.862872 108.683342
-5.610546 -11.707172 123.519997
26.089277 -4.318635 125.723015
9.771416 13.668970 143.948059
-39.922226 -0.196809 134.319565
9.402862 -3.360141 145.592850
-6.792192 10.683212 76.615967
0.215711 9.629269 108.823486
-36.161076 -7.190051 111.678337
-41.293674 11.464742 119.098328
28.085403 10.706320 128.374588
-5.023880 -9.876000 94.284096
4.509057 -8.637845 140.164536
-3.441995 1.301018 156.065430
-42.829857 0.639977 136.646606
-57.083542 -3.965158 120.563110
49.528137 0.979898 104.745026
-44.479988 0.572240 107.770302
2.378580 -10.995847 133.418320
-2.223478 8.271744 150.268646
-7.908534 11.767817 145.311798
-10.597694 6.551295 154.442307
51.520443 -5.249392 115.815224
-25.534573 -0.352028 145.911652
48.797688 -7.385701 112.591393
9.055838 -12.742299 104.441254
0.032156 9.517594 104.024193
-2.308366 14.425684 96.601059
15.502017 0.048656 136.076111
-1.550890 -12.198025 136.858246
-12.129135 -6.008227 137.968475
29.237209 -3.407378 129.519241
35.366802 -7.637291 111.536362
-47.130371 -8.717344 111.337654
10.560620 -1.023309 144.624710
-11.300577 5.865929 128.079712
-12.250852 -0.350547 147.724457
6.928689 -10.712322 77.331398
-36.475666 -12.080814 114.874748
7.876384 2.540883 154.490555
17.093618 -0.494612 104.180283
-14.558674 0.451630 130.687683
8.612162 12.283498 144.739059
48.728622 0.181324 120.888153
10.594805 -4.013995 116.129395
50.545265 7.489184 111.214966
-30.870165 -0.720098 139.527740
-50.166595 5.359306 119.621353
-45.362869 -8.645898 111.003448
-34.180126 8.199970 117.887360
31.850073 2.736789 111.168640
-3.333755 9.081299 151.806732
-29.321587 3.703992 113.767136
-0.122434 -11.424876 119.213776
34.506142 -6.905895 122.279289
-15.724464 -7.005518 92.304672
29.512306 -0.827701 139.575821
11.483581 -12.554820 132.978378
-14.238760 5.944947 154.192032
-54.513908 -3.242830 116.156128
54.873104 2.351048 113.690407
-22.311317 11.511474 130.139954
19.951721 5.489739 81.316826
-41.430168 -3.040787 108.683105
5.814446 -2.003056 149.289886
15.610834 -0.013306 103.740318
-20.525867 3.373834 79.302109
-28.678875 5.492723 114.054016
-25.929100 -0.645229 144.379562
20.225817 10.030253 135.127945
-0.385015 10.528933 151.767212
54.110321 4.862339 114.655411
-45.616970 7.672494 115.269836
47.004601 -13.825450 117.743103
18.244741 -3.705812 141.752075
-43.289791 -10.531795 118.821533
20.041882 -1.605978 93.921890
-3.818960 6.277389 119.457565
-34.587303 0.370749 109.446030
5.082329 8.243648 104.938828
20.035755 5.619303 149.620712
-40.344917 -10.053346 119.306801
-34.680080 -4.710227 114.130043
-2.242769 10.594467 101.618217
-8.830471 9.496646 150.883621
33.650661 8.688730 130.202866
-2.617064 10.082925 80.341721
-49.818291 -5.176342 111.977737
11.405590 9.348766 71.870926
-33.500751 4.020270 136.270264
-37.349972 -0.314942 134.763474
50.289333 -5.925114 114.017670
-36.403091 8.922288 112.348320
11.679236 3.266369 117.389412
-46.424896 9.162959 116.402489
28.824684 0.653952 115.984299
12.103045 12.343260 89.116501
-53.316830 -0.891815 114.258415
-51.058880 -7.477965 111.336441
-10.502803 6.463308 151.796631
-34.283215 -2.643355 125.577606
7.439955 -9.761286 114.899162
-0.233236 -13.829544 118.240562
-2.385568 -11.303779 115.604454
7.206009 11.022093 78.038109
9.931972 4.789991 113.238510
9.074832 -13.626660 127.189728
-18.452330 8.080568 148.086197
11.055534 2.020324 122.688087
1.652199 13.013153 150.029602
-52.522293 -3.630698 122.900948
-16.043171 -14.403436 75.851280
-31.421839 -2.175888 126.562843
11.547072 -7.335673 131.685043
-13.052503 14.469851 83.850075
-51.543354 -0.658516 109.170364
-28.428299 1.217154 140.189499
26.464363 9.865418 135.233566
-32.861691 -0.674320 138.072937
-13.870527 -6.909281 141.520660
-11.463413 -7.253755 111.363983
6.790777 5.930589 124.003128
11.859415 -8.582337 87.134865
14.737173 -2.458658 100.372826
-24.584593 0.595843 72.718132
-17.254147 1.098685 149.356903
5.898847 6.027267 126.050850
-27.711838 7.332057 134.871902
-8.573969 11.043234 91.504128
15.762787 9.738074 145.417572
-11.369031 -11.839424 137.617645
8.212532 6.404162 152.159485
20.759584 -0.124672 74.417061
-12.865384 -6.820196 136.253342
2.379656 -5.368276 143.600357
53.563377 0.629668 112.187698
-38.896667 -0.861166 107.866310
49.217869 7.180301 112.065536
-5.638363 20.512785 74.770493
-42.408318 5.686010 108.832825
-5.559670 -10.850354 78.224068
49.597420 6.827173 115.004143
-6.610587 -16.633787 70.466125
12.366578 -13.311659 77.626968
-51.597221 -4.060254 123.704758
-12.996598 -8.716379 142.931091
30.800381 5.578255 135.123642
-46.648411 1.589255 128.849503
-38.359203 -8.187017 122.305862
-43.432510 -13.735649 113.514572
-39.169998 -2.704949 109.025711
-10.725674 -12.784360 134.493179
13.705608 -1.232473 128.288284
49.277916 -2.418449 122.725502
50.773148 -5.473368 122.713142
-19.546509 -0.426349 136.572556
31.923691 -2.615083 127.661285
41.323162 -4.961460 130.553864
-3.405339 -8.986356 83.312019
15.509762 -2.107751 91.543678
9.007262 12.197136 150.570251
-18.714373 6.563410 85.767525
8.760046 11.380645 144.665665
10.810909 6.951780 125.035065
-14.526753 9.952196 96.674065
1.388410 -8.528769 143.486786
-3.399775 -12.558427 69.591225
50.390224 6.580360 116.690308
10.469163 4.745472 132.111740
-49.215469 7.591940 108.959824
-48.769730 10.970226 112.045685
39.137886 -5.666908 128.085754
26.572844 7.388302 126.522461
-15.946205 -6.478743 103.332924
37.753571 -10.617528 120.763901
-2.961488 -2.016260 150.976990
-15.228786 -2.904079 107.766029
25.300217 -2.030457 136.084534
30.317097 -6.474658 129.583221
32.293392 -0.744238 111.795647
35.646893 -0.560830 108.916893
9.182937 -2.584274 144.676651
5.430485 5.663625 158.815887
52.198597 -5.588712 122.680550
-54.013348 4.240593 122.567169
44.175549 -4.576569 108.356628
40.680580 8.193603 113.036888
45.739288 -8.948076 110.965988
18.412899 10.378551 144.602737
5.386371 -1.942369 151.722610
-27.224825 -0.855241 143.566788
11.417943 -6.740021 97.094170
-37.874893 8.926198 108.554504
-6.252622 -10.986307 107.795181
-17.189734 7.683457 89.450516
-17.682837 7.647285 133.074966
-3.907077 11.876384 140.631927
20.650145 -0.306640 147.615417
33.521259 -9.251974 114.387039
50.870697 0.402478 122.222290
-6.143749 10.049275 125.581848
0.708408 8.141117 110.781799
18.082975 10.221640 149.954239
-53.764671 -6.269009 117.396492
39.100632 9.987518 122.750084
39.627388 8.320559 112.401222
12.368734 0.196342 108.030968
11.136783 2.360805 108.188499
-5.776158 -0.961551 153.566330
-1.073305 13.628526 85.267715
18.454401 7.118406 74.150787
-21.915754 0.235761 125.873322
-30.723085 7.048178 132.643173
35.690006 10.946486 124.434250
25.248663 5.742706 130.102692
19.511448 10.424138 74.833084
11.704611 -15.355041 72.525558
52.677807 -5.095837 112.206085
-25.838762 4.177526 127.650665
-51.524467 6.179648 111.429153
-9.758178 -13.865159 74.903000
3.427135 10.405087 129.221909
-54.712761 -5.052399 122.056145
8.858164 -3.238457 118.149292
9.176411 -14.026193 128.015335
43.249165 9.395917 122.295044
28.640297 3.732382 120.060463
44.252373 -6.328631 107.666512
-20.055243 5.771214 80.980644
36.422123 0.816797 108.728882
-2.747971 9.341606 65.714920
-54.006512 1.242373 115.259331
6.307081 -12.358618 71.576859
-9.857155 6.556695 114.713303
38.462139 -0.605777 129.496902
23.282621 6.417364 128.871109
-6.350096 -9.785846 73.336136
36.616863 10.915500 122.902466
-20.246975 5.659075 73.979179
-9.562926 7.423063 127.300774
-49.257015 -1.234673 127.698509
21.795403 -1.569705 125.658623
45.455391 2.347136 107.412910
-14.273941 4.751940 105.221748
16.388912 -2.023430 104.440254
-36.086403 -0.553021 138.312119
-14.944502 -12.745419 131.635742
-5.729736 -15.151797 131.533463
-38.540451 -4.454244 107.917961
-16.035954 2.575257 151.161926
-7.790491 -4.843809 145.440399
46.708454 -0.507241 107.523735
-13.351604 10.435720 145.532837
-18.880762 3.987755 133.225586
-5.734743 -9.047028 98.762787
-33.380718 6.271031 133.595795
-2.716798 -14.401876 111.421310
18.475838 6.112103 87.879280
7.390471 6.533991 130.374359
43.543324 -13.897182 117.274078
-1.872234 12.330918 150.029160
15.800427 8.244736 137.593979
13.072347 -9.806417 92.781204
23.926094 -0.223509 134.142258
-43.216579 -1.045437 107.828568
-3.762761 -4.979867 148.452484
16.749769 8.557783 152.180298
-8.714832 5.730921 122.335609
4.563121 10.310423 98.983559
50.268917 -6.890570 112.339958
-10.185586 -7.723198 118.195793
15.615982 -1.674006 145.900131
-22.116991 3.035463 146.084198
-6.118575 11.448186 73.323036
-15.912678 8.947030 89.512550
37.654957 -0.230390 134.908737
-40.839935 1.265680 136.283401
21.423141 -5.408350 85.775780
-38.604183 7.175852 111.474052
-0.848872 -8.692338 91.467857
-44.926559 9.686437 118.824837
-27.778664 4.202442 115.261230
-3.248756 -7.949979 76.557495
-7.230214 12.860212 146.950104
37.154560 2.652725 128.362701
-20.022694 -4.726932 145.037354
24.464851 -5.120618 126.975548
-12.856600 -1.089601 114.659012
-19.328712 6.744626 132.902405
-4.044459 7.192203 127.206253
21.632904 1.625583 130.559464
-48.658424 -1.446638 121.809219
7.554123 6.943995 155.648331
5.500706 8.258895 72.731003
-54.617809 -3.384884 117.104218
-53.742645 5.828148 125.272644
17.867239 -6.029628 89.069847
6.211938 -12.064039 114.528374
13.631536 -4.642261 145.850876
13.270514 -2.215224 110.154366
13.780363 -3.499081 105.866821
53.284256 -2.127253 122.850769
6.585089 6.063654 155.038834
-0.166708 -8.508696 81.876602
26.570274 -0.955287 144.891617
-48.832943 11.265969 110.843246
-31.736031 5.526918 126.878357
13.999999 2.539832 101.782661
54.816521 -5.688336 114.586571
-25.648039 8.861702 141.871445
-11.578280 11.163151 86.485420
-42.803402 -4.946914 108.109344
-52.457050 4.843732 114.642784
-48.815506 -11.563911 116.945885
-21.560280 -0.804553 78.846016
-46.415470 -3.832715 112.910255
-20.043877 -14.619043 77.141792
22.710802 8.540964 81.271156
3.362786 7.748807 115.950172
50.795151 6.580170 111.941170
5.432456 -11.261609 71.995346
27.467964 -3.958043 129.847397
49.758602 10.186154 118.424400
-23.950176 9.372004 133.807251
45.297779 0.587215 124.733696
52.541294 -2.386214 122.554924
-51.967907 -7.867183 115.629478
35.200085 3.636081 114.216484
-15.246002 14.179806 74.039551
44.199951 -8.088305 109.439728
-30.737940 2.406849 139.158493
47.225597 2.728107 121.575851
50.300934 0.445826 104.152771
2.242425 8.279234 127.402130
-11.055671 6.779357 131.737228
21.108191 7.847113 149.771057
-51.165539 3.293410 126.458977
-21.229332 10.184794 138.803055
0.298840 -8.774974 81.596428
-39.536594 7.694946 124.829834
-46.142227 6.698955 127.963852
-23.687962 -2.249176 71.977318
-37.545464 8.435003 117.199532
-47.883522 -11.442156 112.154289
1.598485 14.958945 137.031281
-30.807936 8.078547 124.760086
3.975990 10.941739 133.882492
-23.853481 -1.150115 135.897476
3.797961 10.385840 156.032852
-0.341386 10.916101 144.188843
-53.587002 -7.614659 116.205536
-44.822109 11.274575 117.885086
46.618973 -3.645056 107.505806
18.154690 -4.744015 86.932770
-46.039745 -9.851896 119.024673
-17.319012 -5.260876 89.047249
-2.194173 -9.234556 136.915924
22.807451 5.523255 132.383957
50.950844 -3.077471 120.893524
-15.033213 -3.903195 132.307236
-16.150290 -2.691707 104.313408
43.398857 -7.563549 119.856750
27.432476 1.602278 144.381485
23.176390 -3.813650 132.832672
12.729910 9.126405 94.084816
19.700241 -0.984716 88.121567
0.837940 14.226599 80.096062
29.999577 9.761509 123.158463
23.001930 2.955972 146.900803
-14.802189 -2.222214 131.997528
-43.298977 1.193440 130.661896
49.281319 -5.262539 124.441849
19.367794 5.700663 131.674713
45.281559 -3.119106 108.476257
-15.913321 -4.074666 124.293243
-6.945971 -11.437506 80.052750
-8.831342 9.113155 132.595184
34.810345 1.929534 132.599289
-12.266094 -10.246372 111.783508
13.805698 -6.324533 118.948242
-44.907204 -1.106815 126.026108
29.056061 -0.166008 111.144165
-56.774281 -4.312374 116.937149
22.129614 -6.141885 78.981903
-28.224751 -0.140607 131.612869
10.253322 6.746102 120.972687
-12.074828 -12.644692 74.571106
13.274411 -7.122581 137.372070
41.487869 0.117816 106.493935
23.243721 3.450855 141.803299
7.834668 7.914573 128.796005
12.277506 11.401568 95.750565
7.843219 -10.178627 111.742119
15.605050 10.095314 140.282120
-15.386124 -1.573951 139.715942
-1.413344 -14.259933 122.434509
-0.345305 -9.714747 143.046600
15.804853 -7.779338 93.770584
-38.371979 0.519986 110.113335
9.540798 5.076639 151.721420
-9.919493 -6.178595 113.006470
42.741127 -4.868927 111.289627
46.768127 3.543387 125.015060
18.676294 7.699372 137.470810
49.027016 -11.168019 115.322159
24.310125 9.218398 130.805038
-17.219851 9.794157 139.924484
15.815166 11.123950 81.398293
-9.375086 -3.318762 144.742798
-4.275407 8.615983 155.634430
-12.875199 11.060026 83.378883
-18.007059 10.898493 69.563217
47.526211 6.905124 120.678421
10.670059 1.720096 120.948509
25.907593 8.400800 138.947861
-12.655744 -8.908329 83.064644
51.832554 1.302404 120.311813
7.089704 13.582603 136.810196
-27.443525 4.334026 142.447952
3.363454 -12.188580 100.924698
-37.557430 6.611968 129.929947
3.727060 -13.212319 103.294701
33.193092 -7.321787 119.203743
13.773586 -3.850035 141.907028
35.603451 1.471214 131.503586
30.405497 -7.951871 118.622162
-16.347847 -10.009307 72.442551
-42.175255 10.436629 116.116142
24.432838 3.768694 144.454407
34.692127 -2.967086 114.691673
34.152672 -6.604138 128.878708
-41.625595 8.925326 106.443787
-10.451355 -9.907720 90.185432
-13.272944 0.664554 141.068756
27.749607 -1.627869 119.444595
-18.419802 -6.578952 89.078262
-55.403687 -2.873412 114.834793
49.986736 -9.111877 120.157684
16.444956 10.572292 141.681488
7.238490 6.949047 118.233360
6.726607 -12.636136 127.235992
-1.764431 13.273026 134.318420
6.686041 -11.807750 106.530403
-38.164749 -4.141994 122.798645
4.471527 -11.252074 114.364006
-45.257523 0.910873 126.967300
-4.938164 9.027984 89.688721
-38.165390 0.182099 108.571487
42.494114 9.607310 107.594398
-27.323183 -0.970858 72.460106
2.271819 -13.617327 120.077362
-13.956717 2.318568 107.670273
-24.190100 1.921911 123.635086
-38.657177 0.693886 136.714310
-43.798512 0.872089 130.835617
22.303583 8.505382 75.940079
1.767428 -13.406926 116.093880
12.643165 11.792603 137.668152
-40.266079 7.877394 125.818909
-39.704819 -9.710588 114.612236
49.284649 -0.106257 120.113640
-21.180933 -0.088001 132.519394
-15.299971 15.214729 74.811966
21.120441 -5.866234 89.926575
-15.157103 7.916208 85.418579
-2.231810 -8.668017 97.167763
14.310163 -1.723803 140.899765
-45.310524 4.587293 106.205505
53.986355 5.479417 119.130844
-8.489019 8.615833 155.471954
13.500198 -5.349394 115.658157
-7.606200 -11.729526 118.962036
7.968616 -12.794794 127.656906
-24.010986 0.586024 146.818268
6.202739 -10.783180 115.504349
21.943958 -1.251379 141.235489
-43.296326 -11.319688 109.811142
-6.647526 -8.564520 116.934486
-31.566133 6.758483 131.224930
-25.764170 -3.145347 117.206764
-29.694515 -6.639843 118.293541
9.226016 3.073180 152.103668
33.590614 -3.442212 135.594971
-3.338640 -8.341151 84.175568
-12.822091 -4.260008 128.741135
-7.607313 7.323107 123.156631
40.992027 -12.904893 122.669708
-15.001925 -2.603756 104.549103
1.333762 -11.348083 126.538345
41.425167 8.703469 123.086960
24.021196 3.657542 141.826691
18.695749 9.271231 146.916855
-14.642206 8.266841 85.143013
45.057915 -1.571049 126.507332
8.434708 -15.822696 70.050529
-20.306513 -10.664914 70.459518
-15.236115 7.508736 152.357635
13.409560 -6.221588 141.389969
17.527550 11.913195 139.950974
0.565795 16.402626 75.854584
-56.772747 -3.409872 115.452255
10.094464 12.028738 78.240547
-22.226254 -17.256300 68.167389
-1.034393 -1.439042 151.288574
13.233914 5.748258 128.439835
-43.479691 -6.321596 109.081543
-19.109045 5.658493 89.341743
11.029522 -8.126440 105.102112
-9.791869 10.529480 128.450928
-5.871689 8.841919 127.095947
2.463124 -7.211125 143.862671
34.632957 -3.065340 115.780548
8.964509 -13.834173 130.315674
-14.171681 6.808309 91.544006
22.255400 -1.265458 128.894043
-20.082369 -3.503227 141.599823
-50.773438 5.492171 114.044769
9.563043 12.206955 135.319809
52.726757 -2.571761 112.895500
-25.368996 -3.462403 72.430756
-30.041794 2.869874 140.518280
-17.205563 -6.289186 78.901558
10.833237 10.033408 135.686295
-8.615174 6.970926 105.836197
14.545589 -1.041832 152.529861
50.277687 -4.757805 125.030937
-9.944124 -12.504479 77.610016
3.832029 6.258384 124.349197
45.326897 -1.389254 109.560410
-0.712889 -10.054501 146.394379
55.392803 -1.475756 111.671356
4.085034 -10.455539 75.357918
-30.619055 5.853408 130.879105
-5.243752 -7.953984 97.162163
-13.682832 -2.217986 127.224335
-40.135948 11.391153 121.820824
46.769665 -10.871870 116.908318
54.408676 -3.125599 111.131470
-44.461563 -2.813051 123.249161
27.379896 10.916697 134.269547
53.198856 -9.178361 120.631119
1.024060 -11.520965 125.063538
25.995186 -5.776197 78.599922
-29.361034 0.558367 134.095657
37.057232 -6.533143 125.804131
20.082546 -3.352364 133.541168
33.868481 9.377119 130.594620
-7.069481 -10.024674 112.911362
-47.193279 -2.076304 126.029808
16.197191 7.631617 84.165611
-39.083534 -12.948144 113.955368
15.596334 -5.577543 95.200012
-10.624441 -12.877254 80.578026
33.447975 0.244814 116.343948
35.622910 -3.528642 109.593452
-19.645578 -4.501901 142.860977
3.278100 9.886769 134.611084
-48.491722 1.792354 106.505096
40.168541 2.450521 130.068817
-20.545132 -11.254519 76.739143
44.201153 5.670583 109.734749
53.774563 8.959119 111.302803
-21.033899 1.756779 74.251350
46.908905 -10.963506 113.534241
-39.001942 -4.907635 124.242531
0.313476 -9.312119 99.963326
52.671032 -9.647686 115.067711
-11.740260 -9.700951 110.768669
31.504036 -3.188049 132.603027
-38.536652 -1.461559 125.765785
7.401645 -10.155830 110.871719
12.776983 3.134164 152.403275
34.380474 9.565229 128.956055
-34.598110 -7.695981 123.294846
21.695440 4.066266 77.836250
55.421696 -2.492951 119.063766
-49.251759 -7.170928 113.979950
4.949318 -3.046462 150.892151
-12.792268 -2.208001 109.714394
-29.873056 -3.451328 126.779541
-11.970490 11.325527 98.641022
-12.833009 -13.698271 74.532555
-12.322052 8.398159 76.095413
2.030958 10.905809 74.697884
40.354984 8.067451 119.726448
-31.179173 -4.833870 129.296280
6.132183 -10.929075 125.955696
-6.891695 -11.215705 75.253662
50.066803 4.214879 123.497734
8.170135 11.392429 97.563545
-28.057146 4.139145 138.373672
-40.618263 9.844090 117.687592
-30.060310 -0.148387 141.446594
0.436440 12.345994 84.936142
-52.040466 5.097701 122.117477
43.119114 10.097651 115.303513
-40.601917 -10.281179 112.421211
53.987377 -2.080454 117.586639
41.738617 -9.252857 113.972710
-33.880260 -1.713462 110.859268
-18.155241 9.854486 144.160080
33.863934 -1.048329 112.721985
51.734745 1.771489 111.482399
11.349292 4.133767 133.963654
-5.717132 -13.901372 123.594284
12.330875 9.797624 151.930359
-14.525699 4.221491 125.871315
-44.822857 -4.210956 129.263016
54.890148 0.386501 120.237038
26.489218 -13.037150 72.838501
-46.148476 0.895452 106.651367
-46.494686 2.362585 132.122406
46.395496 -11.684461 118.701698
-18.036613 -1.938189 144.584091
-3.499351 7.880730 156.380737
14.309414 -2.174220 106.418251
-48.841961 4.997164 114.781158
-44.991173 5.267506 132.546997
1.258101 -6.080933 145.345688
12.370413 9.818764 130.111481
-3.293822 -12.914549 101.335022
14.314421 8.025527 138.913849
-2.773664 7.324781 118.843521
-3.375581 -9.734135 139.189941
-1.023477 12.439533 78.576591
0.919052 -9.173563 75.916039
43.625160 -10.144365 123.132805
-49.313915 -1.105907 109.391174
8.736539 3.544712 113.554886
8.782141 14.479050 76.009636
-0.372047 -10.122716 105.359413
-18.832468 0.680968 130.221619
2.458441 10.560654 132.136536
48.336277 -7.057096 109.397720
44.145710 10.353226 116.393036
12.980121 -5.428603 121.047150
-9.535926 6.851654 130.483215
-28.983206 3.775860 122.688210
12.425406 -2.662343 120.214180
17.436281 5.329070 103.705147
-36.622940 -10.216348 117.480576
-38.425705 2.303870 134.725479
-47.070225 -8.338029 115.694626
19.114248 12.540075 135.691818
-36.371342 3.520130 138.309250
-12.670646 0.894320 118.445755
48.282978 8.257345 112.117828
0.390832 -12.588394 71.813652
18.614687 9.860594 84.112648
22.543537 7.018378 147.352127
53.085983 1.657017 110.162552
49.466534 -10.155403 110.480148
17.626060 9.434648 149.235367
12.824059 -6.043795 114.098015
32.406124 0.098523 138.405762
-14.480485 7.656641 138.063248
-10.661694 -10.763353 107.470314
-6.868833 -3.349034 154.566574
1.667257 -10.808485 117.603722
20.794968 -1.067003 83.064499
0.617167 13.493598 138.446335
38.053505 0.375628 106.159050
-17.057430 13.657108 143.036407
44.085083 9.492208 111.716843
-47.525612 4.630520 111.073761
13.891549 4.545715 136.669708
-43.032467 7.040614 114.813011
-17.777248 3.333884 133.225204
11.006616 1.373476 114.220901
-4.184371 -10.750915 104.950745
-0.135051 12.103392 87.014336
-18.227562 1.188359 93.879288
-41.600517 12.370524 114.970047
-12.236698 6.710594 102.848663
40.662983 -1.580977 133.673569
-51.002773 -1.472377 123.909142
-31.529387 10.049406 126.846222
33.244560 -8.991478 116.175156
20.847212 10.755561 71.252426
17.082438 -7.600544 89.054504
-47.665138 8.796917 115.115242
32.523857 -0.678224 134.106537
-26.782856 7.107069 122.659988
-0.095681 8.587119 157.083984
-54.042252 -3.192922 112.260933
-17.466442 6.502146 132.690811
-4.388288 -4.371473 143.215195
-19.690926 -4.171769 78.957275
39.195316 -7.340289 126.662148
-42.673512 -1.890269 109.125137
39.730797 5.683129 115.504150
-26.989592 3.229997 139.988159
44.964844 -5.928019 109.209473
8.535466 -3.142270 144.769699
-2.083375 -11.009803 88.637505
-23.310009 9.648855 147.668549
48.523338 6.078377 110.360550
-25.083591 3.260036 72.464401
0.918651 14.180408 143.696640
-37.027580 -3.187157 123.519722
4.910187 10.059045 106.750259
43.753029 2.106750 127.991394
-39.091732 7.885789 115.606247
2.431097 -13.228635 125.949112
22.689281 0.485054 119.340416
-23.306866 -1.198688 84.028130
8.620656 8.763346 110.965187
-7.376290 -14.102797 84.547005
-52.743599 -3.696144 124.687698
-47.085831 -2.126023 125.659737
-29.845596 3.423597 107.952316
10.810964 -10.365023 91.475792
12.933969 -6.450058 123.137123
20.128590 -1.042044 133.160126
47.343666 9.121519 111.254959
38.959328 0.371407 134.101532
8.938488 10.741292 132.349838
-25.191784 1.506360 76.871605
-50.167240 3.104785 111.104065
26.520807 2.875504 147.895157
20.472033 -0.846158 76.178688
-4.522005 -11.899413 115.153374
-27.860193 1.430400 144.064224
32.241852 4.331114 131.499222
-47.887421 -0.115989 107.632675
-54.142975 -2.461738 114.672516
13.852666 5.517115 152.596909
4.665674 8.310841 119.489120
17.324095 3.661404 90.665207
-11.610649 11.160556 94.440025
5.354386 -11.507823 87.200211
-57.016342 -1.580821 123.510735
28.820206 -4.445804 121.061729
0.862681 9.037992 79.006851
-16.210754 -2.163497 95.625450
48.653355 -10.812286 113.464951
35.634464 9.217891 117.064140
-18.248356 4.694778 147.823730
20.530172 0.440201 88.526405
-5.966493 11.241405 75.683121
20.858795 10.201703 133.044479
-14.692644 -3.877173 139.679642
-18.144894 1.506591 132.956238
-6.663640 -10.502090 84.875183
47.456593 4.342939 107.297646
-12.744104 -2.271973 110.967049
1.671476 -11.618403 136.738922
-12.738805 4.083858 115.800430
-34.617321 5.696290 132.358582
11.280151 -10.985893 76.154404
-31.834906 0.439389 109.468819
51.890003 6.589933 122.802963
45.514416 10.683209 119.411217
16.592911 9.492325 144.963837
-50.178902 5.919117 107.553162
-37.520737 1.599196 107.878014
-52.799015 -0.643683 114.466042
47.926262 -8.514587 123.751976
42.100510 -4.833263 126.690819
28.292650 9.524263 124.841202
13.170520 3.612329 103.845100
-48.554745 11.162592 116.135040
-38.002068 -0.436548 136.297501
46.145088 -6.826556 111.548141
-15.253518 -2.396310 125.367226
-22.339041 6.800745 73.887505
-7.904089 -10.055696 127.608124
20.831802 -8.690733 80.486580
-39.282085 -9.214334 108.831848
2.919299 15.382901 72.303368
-8.243279 4.222457 150.843002
-38.715584 -3.469508 124.745895
-44.752586 4.975368 130.655426
53.120461 4.653397 110.374443
52.529999 -8.932278 114.867569
-43.393257 6.562560 130.328384
12.957888 -0.638890 120.926422
-10.776932 -9.345662 92.380951
8.174695 -15.185370 131.909500
21.688425 -9.316202 83.353989
-8.438479 -7.736867 140.657593
-26.368889 7.771159 139.979340
-55.995914 -2.268367 117.503616
-16.523239 9.207212 71.390846
-10.552696 -8.040591 103.149338
-45.931610 4.087007 123.584991
22.773945 2.905551 139.338791
-32.733414 6.598029 113.752205
10.784134 2.395527 154.342163
-30.566916 -2.099511 128.152954
-43.912540 3.820746 133.001419
-27.915522 3.642197 139.732651
5.997716 8.081803 116.053337
56.478054 -6.278251 115.609543
-8.723083 8.846525 127.151100
4.165724 1.153781 152.703445
-4.024159 10.315245 97.806343
-16.594572 -4.877490 140.603714
-10.129674 11.376036 73.729530
23.310818 4.201230 81.511314
-17.696682 6.178802 75.388405
26.112173 9.270945 71.692574
-5.181583 10.854310 75.263107
-33.977856 5.355309 141.689041
-22.008869 -7.848399 73.455925
24.828630 3.022460 138.217148
-23.206581 0.487531 150.385040
-48.315777 1.371379 130.649063
-18.654566 -0.263119 94.787842
52.137020 -7.743572 119.752480
-13.910842 -5.007458 121.270065
-5.831398 11.288197 128.342331
-37.853695 -11.628338 112.102936
17.568123 -0.593640 90.089638
52.923328 -5.228426 115.593918
13.565639 3.789330 153.753906
27.036228 4.164585 124.396614
-35.108078 1.692411 114.625732
2.769942 -11.809481 129.411285
-31.131809 -0.546788 134.950714
55.009369 -9.090658 115.061882
49.736713 -0.970618 124.445900
-13.249880 -0.137951 150.030945
-25.104393 4.793819 71.298302
-41.401993 4.418390 121.079041
23.038109 -2.445367 126.086823
13.978019 -7.123993 125.272240
-30.279831 -0.117545 143.456833
0.165260 -6.649680 147.187302
-23.654810 -0.150946 126.110695
23.307770 13.005599 136.473618
-37.171547 8.277047 130.199814
45.692268 -7.786959 126.236725
16.860481 -12.730220 71.973923
26.453091 7.089668 135.945328
-37.711540 -1.794039 131.014832
-16.625793 12.084096 92.919525
-10.906682 11.555307 97.493019
21.171663 -8.384454 79.903069
24.583054 5.566374 145.712326
15.136105 -10.482098 90.871315
-40.404678 8.640144 121.731079
25.808678 4.027180 137.221970
-48.456837 4.676652 122.920326
-12.166581 -9.205285 99.742737
-8.561221 -10.080392 122.524788
40.061333 2.155568 124.086823
37.391624 -3.992824 114.202751
-2.325921 -8.390359 141.022186
-19.531729 9.307839 73.238533
-11.047066 6.620000 108.779366
18.609566 7.856987 73.448891
-5.995084 -12.002577 114.223763
-49.080578 -0.722911 125.156815
-18.336691 4.914961 85.339516
24.046000 -0.398475 122.420036
-1.989174 9.144850 149.142197
7.447231 11.460572 80.573662
6.617063 10.701225 96.110229
-38.899178 7.337370 112.859520
-9.353202 -0.279018 147.301208
-11.999233 -6.180975 123.592751
-6.840238 6.610180 114.074226
21.150545 -6.210640 133.523865
55.468948 0.513345 117.815338
50.971458 -5.104731 111.324265
30.677031 -2.526255 120.645027
-38.898483 -1.995982 106.889946
36.430828 10.921542 129.659470
-10.312262 11.624075 139.246109
-47.894909 -2.620549 106.860207
-14.704326 -1.673842 137.132294
29.260733 -4.090368 118.593025
9.988739 -14.437623 80.410706
-55.355358 -4.973376 113.880013
15.640735 4.180387 97.015526
8.328138 6.003284 155.153503
38.777119 -11.582485 114.355934
7.216730 4.009222 153.305359
17.254391 11.561349 137.050995
-19.006531 6.297391 77.133675
-54.834290 0.546294 123.873238
-22.421627 -2.950420 77.740799
42.184002 2.629905 126.817520
-19.504684 -13.045270 70.057198
-22.239567 2.323108 137.292404
23.299219 9.541840 81.176888
-10.887665 -9.420358 100.471054
33.166225 0.559002 113.072273
-25.676960 8.554259 132.838440
-20.724113 8.671564 148.216187
-22.425741 3.333426 149.270264
1.835757 11.734110 152.409973
21.597696 6.018054 77.087105
42.993946 -6.556930 124.931610
-9.660223 -12.448047 124.765167
-27.946024 8.740373 131.137863
9.180115 -10.725238 134.698914
8.994551 -11.245916 82.961517
15.578066 1.640048 133.383469
42.982849 3.039407 110.634926
45.647522 -6.062449 110.587929
-38.782814 -5.234687 122.504623
17.600916 -3.138122 95.218040
47.218220 7.649039 111.653725
-55.652462 -3.790137 120.069023
-35.879425 -10.810514 115.475395
-2.329834 -9.309197 72.172630
13.872573 6.948171 132.145538
31.510403 -3.466105 116.058983
-6.537101 -7.596984 140.116348
8.261449 -13.319099 78.702179
13.676170 3.819788 114.712570
0.314923 -12.173369 123.306664
-13.561415 1.981196 111.035675
-7.709427 -11.666897 121.601585
-38.311069 2.775234 108.293144
-55.719555 -0.405741 120.792641
-16.855959 -1.202504 97.094765
-19.824354 -5.191283 87.980080
-2.458032 10.488643 131.051544
42.295788 3.306510 108.430283
-14.184068 -0.499237 126.580673
-26.867462 5.044478 126.467499
29.880161 0.469044 143.809570
-51.515202 -4.728209 120.985344
-44.957867 -7.122548 109.522171
45.929672 -0.772612 106.875008
-50.730694 9.306985 122.606819
2.816484 4.255111 122.218430
48.208794 -2.650182 108.050026
29.749403 -4.511783 131.011414
33.106625 -8.808487 121.435272
-34.880222 1.338192 135.040756
-14.592743 -3.950990 103.837234
14.654997 5.286875 96.560333
-46.834064 1.005465 108.602196
8.554044 -9.133103 116.830681
23.576965 9.408930 138.050827
37.947895 -7.285159 126.989632
-15.372137 4.261019 93.372330
40.916016 6.313416 116.080338
6.338852 -6.103254 141.929230
-8.863827 6.616700 115.136566
-7.064116 6.649451 109.327492
-1.967167 -12.491337 112.691582
-40.822304 -7.991157 120.739098
40.116611 -0.150532 109.359573
-46.615704 -5.181697 111.484779
-26.348934 3.988104 120.083794
25.058758 -1.783637 141.451477
16.530678 3.118955 94.294327
50.491615 -5.235327 112.975777
4.166954 -10.177017 104.238518
-21.467430 -4.380389 76.503754
41.231617 -10.197944 111.741539
-54.365391 -6.435919 120.446571
36.893333 -10.054997 128.875732
-20.184628 -7.731952 75.937721
11.419288 10.322996 78.042000
-4.082729 12.024934 144.741104
7.814844 12.460664 80.876633
39.866795 -4.285343 129.594009
-14.521490 -13.118700 75.504822
43.002594 -1.217421 107.880714
-34.841614 -4.499569 124.626228
31.447838 -6.910521 128.213806
-44.493496 8.721223 123.828445
37.933662 -9.705202 119.527687
-50.162861 -4.704892 122.690575
11.355598 12.253263 135.235855
43.274616 -3.293278 108.571640
28.102772 1.803601 133.660187
13.940548 -11.923649 95.290268
4.781539 14.544852 75.250603
-11.363888 -10.226428 124.768372
55.101524 0.648625 109.434898
14.326233 1.183396 128.826538
-23.726603 0.693231 125.147865
-30.284658 3.032814 137.035385
-19.315977 9.036850 81.885345
-2.729669 -13.818841 129.283356
-0.044711 10.932965 106.382027
-0.781263 -13.987758 118.713631
51.210793 -10.233104 120.941032
-25.135160 9.755156 128.719147
18.859243 -2.331689 137.019897
-36.020054 4.760406 133.015900
0.613882 -11.204207 87.490273
-2.257074 -10.956887 88.291359
-0.959241 7.575711 121.093987
-25.327034 1.176706 124.905182
-50.869514 -4.021623 117.596878
-15.295180 -7.135496 128.646515
26.954651 -1.079893 138.496658
14.957585 10.333302 78.753281
47.371609 1.383236 110.732277
41.651115 2.929296 127.525673
-16.244284 8.899283 80.960136
44.562065 -5.970293 105.551491
19.543161 -4.240179 84.068222
29.762852 7.120943 131.768631
-11.869181 -12.069914 79.726776
7.586673 10.513288 98.539383
-12.122050 15.209900 79.831650
18.007710 -2.458343 137.880768
40.061775 0.888713 133.691055
-15.881577 8.763219 144.596909
8.730137 -8.283215 88.776886
-50.869164 -1.481059 113.170784
4.252995 7.202753 122.683655
-11.966342 11.995162 83.002739
-5.526731 6.995398 124.757866
12.919545 -7.280524 113.841087
-12.350800 -8.605202 136.803391
-19.461351 -9.706919 81.190796
-0.463669 -11.506105 108.014748
8.194625 11.121114 136.051804
-14.032909 4.585179 103.727531
-40.298119 8.541500 122.130905
-19.869703 11.788404 137.072433
-15.489840 -4.815229 110.571884
-7.258754 6.710241 113.572327
20.086378 -0.038249 121.619377
26.788572 3.359528 123.013519
53.271568 3.464686 114.790390
32.664921 0.450144 116.964684
-14.877828 -7.077511 126.105789
-10.317176 -11.332267 74.005180
43.184109 -9.120867 121.694359
-25.634314 -1.413541 147.233215
3.528374 -6.897026 144.551025
23.592817 0.285940 136.798126
24.871773 8.562419 132.446396
-4.463055 0.123221 151.288773
-22.342907 11.401442 136.237442
-19.993305 3.382700 134.684494
19.243660 0.274263 145.853531
16.945553 -13.704229 130.220596
-26.243099 -4.254636 130.825226
-15.158095 9.478725 75.748566
11.081100 9.778407 100.059708
-15.427274 -1.796720 110.575500
17.984198 -0.332562 96.924515
26.303885 -1.438310 137.647430
-13.197309 7.781894 129.450226
-48.683598 10.450428 113.232071
12.267712 -9.832821 94.818573
-13.693095 -10.758199 87.733749
16.405792 -10.047095 78.946632
35.109943 10.641131 126.208099
-37.458492 7.987951 116.336510
4.408611 -11.673735 140.296143
-39.223518 -3.724684 111.678604
15.818100 -11.940872 84.423378
-8.053505 13.281214 85.170044
10.580984 14.899550 145.892380
-19.247734 -5.443642 75.928108
-3.452555 -12.457955 104.311501
35.282188 10.829563 125.494232
-52.497585 -7.794063 110.194710
-11.784639 -7.003915 118.136650
-16.257254 9.816896 75.396370
51.330475 2.386265 109.113655
21.445425 7.013622 81.943520
-24.372503 -1.046007 144.843384
14.573324 6.978539 90.924133
-19.117825 1.231191 147.687805
20.143368 6.406515 88.294579
-38.067451 1.163112 108.941650
-8.084264 -13.637031 71.873245
41.082809 3.354205 124.070847
-45.477631 0.941878 108.571457
14.824444 -14.398363 77.322433
-16.754662 5.396928 94.833839
-1.216684 5.944991 116.658333
17.717234 -10.587637 83.788414
-13.894282 2.413934 129.048096
36.559799 6.757790 118.955376
10.873451 5.758458 123.760025
40.851063 -0.181102 108.375565
-22.984934 1.288591 81.349861
21.816206 -0.045148 90.045029
-23.322290 0.530788 71.023590
-20.894255 7.216593 145.100128
7.376634 5.893459 113.194191
-10.564137 -1.047535 152.491531
-21.016397 -6.662899 79.176788
-32.716026 -3.889430 117.164284
33.498661 1.177849 116.057243
-5.079173 -2.228218 146.117737
36.434299 7.574631 126.606056
9.497884 -10.670808 103.170418
-7.178079 -12.573662 122.654396
-56.525055 -4.492028 116.146484
20.457577 10.224030 142.168427
-13.497452 -6.487869 111.705521
-19.925983 7.184484 134.679291
9.089743 11.175135 94.867531
27.767366 -4.553134 123.489136
42.907455 -7.811973 120.886246
46.406731 -5.830065 105.840233
-15.213538 -7.556733 97.495667
1.014946 4.980909 111.842529
-41.163300 -1.077162 108.126053
-48.369247 -10.516565 121.711189
-44.091648 8.308580 119.126015
12.469962 8.010344 151.272690
-38.634369 4.135602 138.355148
6.261403 -13.765200 125.698547
28.037443 2.273528 134.310425
10.884050 5.368147 110.586563
1.996580 -9.323913 82.936302
10.882411 14.777909 71.545990
24.489639 -11.005737 78.500038
-1.150415 12.892497 148.422058
-25.301197 5.464690 125.716240
-44.089848 2.350354 106.798180
10.534032 5.421283 115.286919
6.482698 13.587651 74.323761
4.044334 7.662827 120.529739
-7.026058 8.864369 112.182182
-36.540001 6.036640 123.302383
14.344693 -2.338978 111.993942
-38.073563 0.441323 109.186279
-22.425451 3.618690 85.026711
-54.345112 -4.019143 116.344048
-50.047913 8.003530 121.269287
13.414361 3.269795 128.000275
34.068878 11.316008 126.136017
-29.114532 1.474152 135.231583
0.113847 -8.787484 76.411491
53.380028 -6.977241 116.379456
12.870954 -1.477010 146.800903
-17.543869 1.432954 148.246109
5.748194 15.764809 72.431870
51.738304 -1.384019 113.507851
-2.321780 -13.059260 124.276993
22.420507 -6.228561 71.650131
-30.959698 8.950501 134.210144
45.513577 -10.106782 110.939651
35.740612 1.582997 138.100754
12.624947 -7.739339 116.842178
-21.052074 -7.319043 86.834366
12.855740 -0.637213 120.784729
2.555223 -4.190923 143.328476
-12.841230 -13.119799 70.393517
-51.728699 -4.780418 108.470993
39.313988 -0.672440 135.477478
-9.159241 -9.636132 93.767784
41.802372 -4.941476 129.620544
-12.834398 -3.770842 111.334625
6.880970 1.200752 152.743393
-15.322334 -12.214537 79.227516
-10.973581 0.970374 116.545876
-5.850810 11.498737 132.444473
2.140968 8.069860 130.402435
-39.958946 6.020432 113.763115
13.722395 -3.017878 141.692337
-31.948307 -2.574487 137.125076
23.080048 8.698970 134.915405
-2.874899 15.868879 71.770119
20.264742 -1.863661 84.373833
-40.476322 -5.194548 120.933601
27.926888 0.347610 135.523895
-19.860901 -1.727262 148.860062
-25.531485 0.798404 86.079704
-5.687647 -11.276484 120.487030
48.254093 3.446282 106.395134
-42.871449 -6.987890 110.487213
-55.786873 -4.416774 116.941040
21.738041 -5.062194 124.232140
48.983238 -5.426469 122.184837
-13.474467 -3.285833 136.683350
22.201231 0.057338 145.121323
-40.879539 8.311508 114.843971
0.508292 9.631605 72.118721
16.446293 -1.660480 133.344620
-26.719763 2.684827 126.403786
-7.570626 4.860879 115.640739
-13.579648 -9.173178 87.609573
28.932268 3.166609 128.271027
35.479786 11.435719 125.932701
25.381170 -8.410164 131.890518
41.417042 4.795979 106.915901
15.720964 -12.033714 132.156799
-14.564266 -2.758370 118.687622
-11.226042 11.158080 138.288559
50.599800 -9.309542 121.873840
11.066054 6.279885 131.542557
4.901675 13.133018 145.551697
-4.528512 8.135687 112.988037
22.329233 -2.544993 143.842102
51.525726 9.509581 115.385757
12.163115 11.123625 80.126175
-2.804824 11.872980 149.202393
29.036692 9.187783 134.294144
19.785507 10.954129 147.177933
22.510468 -9.508185 75.005104
-32.749119 8.622981 132.237900
-50.805279 5.826283 118.853973
-18.720781 9.802492 148.124405
48.578976 -5.179303 123.985260
-25.531483 6.771662 129.020432
20.720797 1.478682 147.043854
16.392548 4.935452 88.650856
-10.688988 8.423810 129.195709
27.454353 -5.148955 133.409302
12.301740 7.688948 97.405014
45.649666 -4.511777 127.999374
-15.425763 -2.073345 107.193001
13.181636 -2.062901 134.584412
-1.630635 -9.192386 81.095634
45.785328 0.012608 109.273178
-31.858900 0.505669 112.879761
-32.710499 8.098320 110.970573
-2.186715 6.007051 122.389336
14.850307 -5.174365 120.223602
-1.776701 6.117410 113.783592
54.256775 -0.138360 115.601021
-24.757048 -0.192614 136.283859
32.699383 -0.232959 133.295074
46.313057 -2.254147 105.262177
10.362676 6.621002 113.579872
2.436193 9.857216 111.108467
3.122681 -11.827662 140.223755
-11.345436 -7.287612 112.906036
-57.014988 -0.372126 118.106346
10.516040 -5.521166 144.200439
6.080451 10.860582 127.723824
9.241874 -9.268627 120.283813
9.869482 12.333263 150.330795
1.005567 11.919766 78.844681
-19.256229 5.099125 76.811798
13.076097 -8.641864 103.255898
8.432531 -15.212671 74.347755
33.694614 0.029087 108.640533
-30.053976 -2.278537 130.019135
44.131371 -3.939050 109.446945
2.018704 -9.640513 96.323006
-41.093075 8.723369 112.958443
12.319422 12.987679 137.890396
-35.864716 -7.123858 124.343018
-8.350753 -5.204600 144.521347
-10.568477 7.196393 101.591415
-14.283156 2.597446 125.899971
-12.417995 11.507687 77.600838
-20.267454 7.091263 72.942871
48.478020 6.964314 121.549889
42.371971 -12.580236 119.270004
38.630539 -2.916500 109.928108
-6.486765 1.614382 148.846954
15.491555 -10.053446 74.865898
49.034031 0.022469 123.327179
-44.391869 0.479563 126.772789
-38.303749 -0.044533 128.144836
-16.117737 -6.246130 108.241104
-21.364267 -3.038740 145.786621
18.292377 -7.261074 129.491928
47.005692 -6.062383 110.434937
-3.864255 -8.126833 71.753761
28.268888 -1.443331 121.567413
-54.134789 8.944516 119.581207
-32.792686 -0.800840 112.255966
16.145464 4.233214 151.742477
-16.632656 4.388299 91.603958
-51.764523 0.580855 108.407738
18.123953 -1.771154 109.297173
14.118799 9.857927 94.233566
43.630791 -3.818183 109.311081
20.889214 -13.621802 73.325836
-16.313540 1.025412 147.154221
-5.748766 3.154162 146.615753
-4.962721 11.446314 143.050583
33.788597 -11.908068 121.063896
-57.845051 -2.974007 117.795197
11.536446 8.371643 75.200516
31.300076 5.560246 116.296837
-21.081329 3.870306 146.900055
37.153275 -4.299396 129.258896
48.475658 -14.882322 115.874641
-15.726526 11.555183 72.923050
-4.515350 -12.971030 133.540405
-39.923607 2.419553 134.473770
25.265488 10.437951 134.264999
46.026482 -2.742673 122.675148
-40.196922 -11.358625 117.317917
18.696938 7.138260 85.559448
1.279836 -6.954967 83.852554
25.535818 1.961319 142.025925
-11.335400 -11.090400 80.052002
27.117807 7.426036 131.931122
37.040657 -11.232977 123.305878
15.186956 5.430724 94.120201
14.647302 -9.877739 85.088501
-42.640072 8.774590 117.604698
13.505557 -5.242382 109.376381
1.558451 -8.956866 75.137779
46.436138 -2.046631 108.614655
-16.859554 -7.909005 85.396912
51.483395 4.065045 122.970970
-40.011181 -4.432987 123.904617
-6.669731 8.457034 127.756432
-11.249393 -3.453337 142.435532
3.813882 10.784993 139.367722
-37.867516 1.988491 136.478348
-11.590754 -12.051577 136.148621
16.309841 -1.166123 110.730072
12.699863 8.421416 80.599159
-37.315826 -2.548342 111.553040
-21.035532 -3.430805 124.633484
-41.090050 7.395216 109.927589
-8.200395 -8.962664 92.496788
-14.457925 9.668108 150.190994
48.521404 -4.839070 123.499741
-16.713818 -1.856292 141.159164
-12.607482 -6.979321 102.650131
-17.176626 -4.929757 92.927902
-27.463377 0.985189 116.397789
15.176760 -3.939324 130.512558
53.528236 3.031868 118.214485
22.578766 -8.037683 80.437355
-7.343658 -9.237091 103.725166
-12.268694 -7.011176 135.804459
-54.917950 -1.427040 118.239952
17.378880 -0.534691 146.410904
0.107248 13.844124 147.744385
-20.753429 9.074936 72.590714
10.873254 -12.976473 134.553375
54.742126 -1.687586 111.955803
-3.513219 -10.438680 135.740219
-5.768077 -9.993282 109.878738
4.648474 7.584758 128.402802
-16.770197 11.630022 139.417450
-1.330979 7.501750 117.089951
30.796135 -2.303207 134.988266
-3.750996 -11.998790 114.719360
48.782600 7.668213 111.218323
-35.522583 -3.671856 112.344788
-49.051525 -7.536262 113.113113
24.312101 9.982869 133.990952
-9.574317 7.316714 110.101784
-25.273029 1.739071 140.825897
-53.807903 9.598027 119.715446
-2.590588 9.783806 86.995293
23.951868 1.049295 146.152664
-51.882435 5.733716 120.540123
1.089154 -8.662318 90.842491
15.166192 -2.956921 109.223816
12.287813 9.825067 88.879822
-23.501589 4.072952 146.593811
-7.980721 13.192646 94.711075
13.429657 9.977883 81.329468
37.131313 3.054967 110.790207
-10.779822 -7.438131 114.150482
8.823467 15.455770 82.810318
-13.549371 1.189713 111.975937
13.574618 2.495849 113.420609
13.584935 -8.775555 94.596710
23.162788 5.916264 73.593506
-20.866961 -3.895410 85.188072
-16.518246 -3.805636 136.585510
20.221821 9.799614 81.060471
-18.329754 6.424568 77.529793
48.958389 -3.227180 107.655708
-0.937274 -8.087500 70.909576
15.351067 12.250226 98.046844
-39.608402 9.601151 110.816795
-29.702471 4.519939 136.112350
-45.230484 -9.301810 118.542351
-28.415691 7.415089 139.863159
-18.404840 8.700523 148.029358
21.255371 10.662641 148.196213
12.668619 10.788226 82.304382
-24.933794 3.375758 150.383255
-34.898926 5.097942 130.670486
-37.457767 0.025568 129.920685
41.291828 0.282137 107.974030
3.974525 -9.775824 137.069077
20.897259 11.585416 77.531212
12.936294 8.103086 82.169205
11.941330 -7.526688 112.383408
9.370967 -11.175598 79.368805
9.858319 -6.045697 140.058472
-4.472786 -12.897302 135.952271
-55.037842 -2.029134 115.826271
-19.588585 -9.679399 79.498650
-46.154469 -4.512398 112.907913
-12.951276 5.728093 93.100891
-8.161768 -9.221529 93.770332
12.755786 -4.785172 110.248848
-13.245396 0.578468 122.731544
30.192528 7.817834 126.061226
53.264648 -4.127222 109.700775
16.188759 -2.419707 138.230759
-3.024139 -7.545160 93.449432
1.127193 7.457414 118.155067
-37.422951 0.279559 131.401947
43.963093 -1.902630 111.463348
45.752819 3.927829 123.712845
7.449264 -12.255240 127.626534
-27.167923 2.885315 143.469955
30.889648 5.173288 124.642502
-6.104155 -10.678118 108.879204
-19.875795 2.200443 95.117371
-14.412355 -5.335733 128.243561
-25.237200 2.836022 146.912735
-46.618629 8.799954 110.599655
42.526108 -3.147166 128.245255
5.158944 15.600272 72.179977
16.669806 -13.834429 76.056450
-14.917850 8.544358 133.891861
-1.861520 -9.818232 138.958893
-44.778599 0.168139 135.331085
-19.743896 0.613455 146.205963
-25.510784 14.105677 143.810181
12.226871 4.568406 123.746811
-0.962893 12.376737 69.882210
24.144241 5.994329 124.986969
48.439762 0.845963 108.873001
8.099688 11.965085 74.090248
-54.889671 -4.866945 122.949997
26.529846 -2.965758 137.378326
-20.767908 5.886150 134.043945
3.001227 -12.447765 117.434845
6.959007 18.375677 139.848190
0.631947 7.685271 130.488266
-22.049246 -3.483537 145.226089
53.027328 7.194032 109.177254
15.541156 -1.524354 131.866730
5.776896 15.557019 70.406677
30.888601 -6.616765 119.570946
0.802659 -6.667141 77.831154
-14.942587 2.738034 111.803627
42.845963 -0.413580 106.796478
59.061192 -2.952600 117.369591
-8.468548 -10.066225 112.550346
-41.198589 0.564909 107.869492
28.391972 -0.151830 138.036423
-5.632683 -9.686922 95.909683
-8.763441 14.523623 78.677536
12.122023 0.322404 121.223160
-0.672375 -12.514784 127.570404
-29.874743 -7.636308 119.682739
10.001233 9.738572 137.254532
45.174526 -6.305812 107.047348
-52.947159 -10.009105 111.891899
34.992737 1.794098 132.440338
-39.191544 1.820182 106.367027
-37.003548 4.186139 135.309586
26.304207 3.353615 146.920410
22.806170 6.493425 128.527740
-6.563397 -10.210022 140.252243
24.795341 6.829097 74.290009
17.706608 7.742496 135.620926
-31.870609 9.233704 124.251770
-55.926537 3.537496 125.407440
17.279165 8.051803 68.026054
14.626134 11.634913 91.296410
-9.689838 -3.014548 145.452927
-30.437376 3.159808 133.931824
2.341331 10.307525 109.509567
3.924739 10.563270 155.700287
-56.214947 0.252715 115.837524
7.945445 -1.876368 145.323700
-12.354758 0.349031 113.445152
-53.929405 2.240742 114.023621
-11.203203 7.618724 91.154312
42.878109 -10.195389 112.941116
4.704288 11.492167 83.401512
-43.217697 -8.943446 123.033028
-23.678135 -0.312891 123.802124
-42.408180 -7.050766 119.457703
-16.592510 -9.985980 76.841812
-50.924400 -2.740867 117.758430
14.313078 -2.205287 140.502228
1.925458 12.472073 69.302536
-46.992794 -4.103981 114.288757
-29.002644 7.314703 137.228302
13.313657 -7.928351 96.975121
-22.420940 10.166499 132.953537
-24.510946 -1.042661 140.427963
-49.975555 1.408337 111.440147
14.845171 -6.813316 105.719398
32.252983 7.224891 121.705658
-44.710289 5.704069 108.706421
-12.782138 -12.110450 129.471756
4.490302 -9.276178 100.685913
11.766911 9.613238 100.004753
5.072127 11.806021 96.139442
32.631790 4.391734 131.684814
35.618664 -8.001281 116.733452
-12.717022 -8.582802 95.443741
-8.742517 -10.390311 100.756126
-27.604046 9.521850 132.030197
37.170406 2.631014 132.564362
-34.764744 -9.336469 117.071106
27.396856 6.253531 119.279480
48.516708 1.442325 108.887756
-14.659270 -13.777570 79.405968
-51.213501 -0.807918 125.858833
-43.187866 1.900913 108.666245
-16.625498 -0.012636 134.617386
-8.784710 5.025512 112.064896
31.131853 0.521888 115.397812
-18.089266 -3.175783 144.602280
-12.611439 4.617398 113.536987
-22.779385 -2.819100 128.292923
-14.614281 -1.536279 112.284477
19.222008 9.891612 70.620110
-45.422543 -1.490054 127.686340
-10.433131 13.825145 74.462921
25.092119 3.103309 142.402710
-28.791018 -7.133983 125.449272
-9.647573 15.047494 83.705223
-3.792389 3.924784 157.835663
30.423820 -5.744925 64.780006
53.968887 5.616324 121.063652
20.432331 -10.783786 80.256493
4.303067 9.600462 75.925552
23.576895 -4.151727 72.130951
-39.435001 4.955045 125.606949
17.712015 7.136200 134.014893
30.220861 3.569309 144.776886
-19.345833 2.632788 149.585648
1.536039 9.673987 151.688797
-46.416164 -6.810527 119.618561
-13.098425 13.021178 137.833008
49.319725 5.240425 111.436272
-5.992031 -12.248524 118.787910
-18.522417 10.627532 144.238342
-1.767337 -6.380634 73.096977
15.501257 8.417338 91.273643
12.521255 -4.382170 126.048737
-2.977156 13.961768 138.097214
25.552961 -6.141937 128.525787
0.603567 10.950437 145.174088
22.176077 -1.822175 87.165154
-5.931160 -4.088199 146.552170
47.371353 -7.502110 122.507622
-51.115677 -0.814829 123.073799
-53.108711 -1.093174 115.192757
1.195963 13.497098 138.575073
18.760452 0.141819 81.996902
20.877466 5.531723 80.598602
-9.186351 5.643115 124.847313
-31.988983 -0.369235 112.500618
22.876764 4.627717 80.716881
20.225765 1.393513 89.565117
-27.510366 -1.505159 140.562225
-22.833719 8.777260 130.437393
-13.894838 -9.664946 84.625534
35.430477 5.275480 115.202995
-10.497839 -12.716744 138.914368
11.408025 11.669878 136.359131
-33.535065 -8.972090 122.467506
27.572018 3.892123 119.318085
-33.621918 1.692993 130.512894
-29.228098 -10.924067 121.536018
25.883327 12.707164 139.005829
-4.998933 -15.022765 75.489212
-48.061089 -4.402558 113.638161
20.854958 -4.795814 98.411331
13.394179 2.134895 151.907959
-8.849808 -12.462015 132.128220
30.716066 -1.978021 117.480095
22.125900 10.951262 132.358276
-13.917185 -7.999771 112.541283
21.053141 1.359747 144.901138
-39.979061 -11.161151 116.223068
-7.530773 -10.446329 83.538811
-15.340953 11.804665 137.490585
-25.652725 0.132096 140.100082
-53.974289 6.205491 115.687546
-9.026277 2.892863 119.849510
-51.797272 -9.468673 109.570457
34.580517 -3.429642 132.793579
24.632347 3.635593 82.560219
20.389950 6.268097 77.853798
-48.362396 -6.800222 114.048882
23.948715 7.595207 128.150284
39.024395 0.251564 110.129608
-37.195137 5.021276 107.585571
23.069786 -9.496615 76.530342
-18.590364 6.765880 131.319595
-1.521589 -14.002737 136.265015
-29.469919 3.979602 113.794083
-7.234513 -5.114963 144.223068
-50.690052 10.472974 114.902122
39.802017 0.360925 108.780525
-24.321119 -2.748500 121.098602
6.649574 -5.090533 145.594406
-51.204479 -6.073548 113.993103
8.275231 12.452298 83.745781
39.933331 -10.516286 121.633347
25.971624 11.089139 126.743690
-45.457619 12.039778 112.922668
-16.795307 -8.179844 84.239502
20.136190 10.487474 139.521545
-39.777821 -1.893705 126.961411
-25.834347 8.265573 138.084503
-32.104942 0.425294 142.258652
8.828720 -10.862046 122.647789
-51.885368 1.855699 109.364311
-0.133566 7.711320 121.111244
-3.530630 -11.191545 108.825226
-14.255148 2.274669 98.664848
31.663603 -9.838575 123.613533
-37.975925 2.376656 136.690048
-27.094852 1.408087 74.344864
-14.150458 -4.736162 113.702629
-8.579686 3.109951 155.838257
3.877193 -1.802357 150.471390
23.361610 2.198384 126.066559
54.380386 -7.013155 121.716446
-48.146538 1.020665 111.559074
44.943714 6.670659 119.689133
31.329460 0.333154 139.043808
53.847534 -2.156260 118.956207
7.923892 16.576670 77.864624
-51.052864 0.477071 113.842316
-18.314686 6.939850 84.255920
-34.789848 -2.557823 128.229126
-6.639727 -12.667679 126.280960
7.054031 10.423188 150.309921
-6.451272 9.852079 85.558052
14.644014 -0.978988 136.285980
48.704521 -8.489944 120.174339
29.431520 7.819310 134.361099
5.031103 -11.677594 141.798248
-17.337603 -9.294571 97.557144
-16.318531 -4.890557 96.762573
-10.730215 11.332741 149.184662
-48.833744 -0.085776 109.011169
-5.546252 7.192785 154.846130
31.075327 -4.404015 130.898911
-6.878158 10.376186 99.683830
37.777634 10.776410 128.287277
-23.256788 9.773214 148.157852
19.494818 -2.694127 146.950287
47.899822 -2.050435 104.024864
11.716337 8.526150 154.760788
34.434082 -9.787964 115.430847
-57.883717 -4.070170 117.718376
-6.275815 -12.054296 132.185303
11.494750 -14.180267 66.283127
-32.536190 7.483680 135.250214
46.642792 -7.353271 111.501251
-21.959814 9.723177 150.297333
23.359238 9.428802 144.858536
-42.558521 -7.508862 118.658813
-15.718916 -10.086728 82.104721
-9.136328 -14.305190 80.930511
-48.024456 -3.024423 106.665314
13.707426 -8.875709 123.073700
-50.474930 -2.312353 124.022400
-28.706329 0.601173 130.244827
-10.059908 1.441574 153.276520
28.970558 2.055231 136.091583
-13.521424 -2.513912 112.646248
-18.025560 2.697156 137.125931
-34.588600 2.774561 134.970932
6.923284 6.385823 112.750732
