ply
format ascii 1.0
element vertex 2048
property float x
property float y
property float z
end_header
-8.427462 9.675569 133.353439
-15.219110 -11.381901 107.200279
20.855446 3.253851 145.104065
16.937061 3.860896 134.302094
13.477549 1.464222 115.009125
-4.061266 -13.106539 108.302742
-4.030818 11.635164 82.284286
-2.669382 -11.272236 83.876884
18.664970 -1.232587 98.798431
11.569016 -14.800386 104.981377
-3.762636 12.698251 79.843979
0.928564 -8.363998 140.362411
5.333188 -16.233707 124.172707
4.104982 -14.982428 115.160965
0.411433 8.761101 127.668327
-1.312331 12.743350 73.704468
9.829184 -9.671531 140.005753
1.878092 12.146651 137.025253
19.312235 6.803243 83.313858
20.083513 -3.744109 79.499886
-10.125214 -10.718640 137.743103
-1.190478 -13.520033 89.086296
-14.192978 1.974061 131.839005
5.334087 -13.876972 117.565636
-3.935119 -17.053705 80.762527
-16.121807 -0.610834 96.260101
-11.924184 4.665701 126.708344
27.116411 1.836364 138.972061
6.172812 12.058534 88.121529
-9.844309 11.119337 145.626694
-7.430552 9.914914 129.175949
8.473657 2.759666 124.635742
1.569121 10.900885 129.417023
13.456852 -12.721360 112.535301
-20.710754 -6.000119 92.202164
9.577512 -15.373501 85.434555
-4.971985 -13.334778 102.830971
18.494934 -5.831850 86.959091
-16.022587 -5.523393 118.504951
-16.351870 0.052773 148.913147
12.095105 -11.704450 126.286201
1.760875 -14.472839 114.979599
13.369242 -6.860903 133.985275
-7.609682 -14.674747 108.902428
9.717638 -12.716184 80.601448
15.534016 9.004187 73.203415
-11.609523 -11.929450 122.178360
-11.576642 13.404053 82.289162
14.192886 -9.334146 106.804192
17.164196 -3.743608 93.225098
13.576091 -0.819522 127.093803
1.597895 -17.463856 87.163795
-22.162720 2.694608 71.725105
3.504944 -12.209508 83.373779
-25.022860 -1.822461 137.976440
-18.072094 4.567028 93.870422
-16.280035 10.781066 136.697571
-4.931467 -16.341795 86.479370
-13.678428 9.767922 144.974655
-29.098188 8.224864 128.896957
9.748764 -15.494655 119.691788
6.714170 -12.114881 103.026894
28.264597 4.637433 134.733551
13.182855 3.492784 130.628052
13.182078 -11.399388 103.148712
6.754408 -13.566253 133.019913
17.024437 6.962898 98.018036
12.399982 -9.522418 113.496719
5.623356 -11.948812 118.101593
-0.013790 -17.395727 90.930992
-19.904816 4.978105 76.089737
15.019806 -1.929217 138.264450
-0.443524 -14.973917 88.890381
12.636212 5.412514 113.870865
-0.247173 12.549098 96.948196
-2.811803 11.836350 97.800812
25.295158 -0.307103 142.203552
-8.740301 9.312122 127.879189
12.389527 5.514886 136.607498
-13.672673 -0.729452 132.197479
13.502977 5.469216 107.978271
19.437105 0.752839 144.689972
-1.195155 -14.105536 126.713699
7.535507 7.797024 120.609009
6.313803 -13.210691 125.700958
12.483174 -10.980146 130.579651
-16.729382 -1.727049 101.389465
-13.158682 10.771170 96.218887
-10.647914 -9.422777 80.536018
-17.566338 0.817306 136.954010
-0.429969 -11.494606 81.917755
7.629127 10.670716 99.009201
17.195084 -8.872040 95.181183
-15.290725 -0.126284 133.750275
-0.438909 -16.115549 78.505333
-7.599195 -14.862088 96.134010
-7.476028 -6.413277 141.107056
3.377904 9.039438 128.975189
4.168563 -8.940516 139.739197
-21.120058 -2.561488 125.733376
-6.919479 -12.154008 83.462349
18.504173 7.372246 70.713867
20.767141 -0.950673 130.165222
20.299997 3.941909 85.163345
6.165799 14.880067 136.929337
-29.749744 -0.986061 129.945969
1.159312 -14.562939 89.630371
-14.029969 -2.030661 122.997879
-9.252775 -12.923935 79.895920
0.137320 12.336434 106.668594
12.307639 4.957286 126.374420
1.766071 -15.861194 87.904991
-15.906173 -7.027014 97.516342
15.172736 1.874631 132.702744
15.371287 -1.875904 113.250877
-21.191257 0.553554 88.359100
15.579763 8.354256 82.381279
25.034769 5.404730 125.139938
-9.934598 12.234109 136.417786
-12.873398 2.456772 109.936447
15.595797 -10.923633 81.349083
-14.077370 5.136768 107.808250
5.655194 11.980388 95.532669
20.238184 -5.742509 73.028275
-14.776071 -8.726524 135.961365
14.763885 10.163259 141.116104
-11.869437 -9.512043 135.570282
-17.890221 4.766670 93.260818
2.934594 8.516972 114.854355
-23.076744 -3.486576 133.737274
11.499745 -11.880204 133.672150
10.903538 -14.211841 110.970627
16.393229 10.557762 134.618851
6.648161 11.183879 90.162415
26.175182 3.511240 128.777084
5.326885 -11.534522 95.651505
10.714727 -12.596113 74.040337
23.720808 9.501256 140.971664
4.688605 9.765556 81.401718
-21.550629 10.760814 135.883057
11.303541 10.943380 85.279320
-7.356438 -15.974338 74.418228
-26.554789 2.574497 139.165359
-29.092958 8.924062 130.227219
6.139409 -13.945970 125.642250
17.640556 -6.451687 96.273209
1.075071 4.484500 114.797424
23.586588 2.338786 127.972763
17.153397 8.456348 136.258286
13.687971 -11.611753 87.767242
-13.528655 3.529740 127.855789
-8.213617 10.943266 73.247040
-9.256683 -12.670909 78.584435
-14.587893 6.222647 97.707550
-15.938061 6.930806 92.003845
9.321373 -12.738978 83.186111
-0.676001 -12.309628 79.440186
-13.713293 -1.762078 126.399178
-4.067811 -12.643415 116.058517
-31.846773 3.084543 131.423721
14.684493 13.213208 141.906387
17.514650 -9.804668 74.315170
-18.609808 3.624454 132.280640
-7.179911 7.936859 113.554619
1.279199 -15.261337 77.214523
10.022056 11.233315 77.723351
18.929241 2.565368 74.243408
21.163353 7.609950 139.011200
4.362570 14.742613 75.705063
-21.699877 -0.235302 79.081032
19.984350 -3.364051 82.347816
8.045319 10.174194 71.408043
19.632801 -1.585379 146.706787
-20.150356 -5.022773 142.752457
-10.365732 -3.068114 145.086258
3.378075 6.408009 116.626259
-9.478605 6.186951 108.299652
3.654562 4.506880 113.501724
-3.632765 -8.015821 140.800674
10.284896 12.088253 83.151367
-10.772377 11.122973 93.292236
-15.569784 4.949904 87.574417
33.868954 0.149083 130.991241
15.406157 -10.066134 73.711792
-4.344681 -14.885741 109.225594
-19.827085 4.948825 77.904953
-14.648374 4.898143 98.864830
-22.756268 -6.121125 133.667435
5.999378 -13.275035 102.383369
-21.685617 -7.275069 76.327744
-18.089483 0.979151 95.783966
1.953715 -12.784700 106.660439
22.915012 -3.575804 71.664963
27.570576 7.852421 140.105774
-13.841637 -5.730297 129.355042
9.543491 -11.960469 120.687965
6.140613 11.343706 135.419357
-4.648984 10.396151 134.281372
17.206306 -9.107783 108.104179
22.810926 -2.453376 77.739677
-6.469530 12.883982 97.908859
-1.190991 -12.797698 99.027382
3.802613 12.794723 124.873810
-21.156496 -2.335044 80.155411
25.447306 1.865406 138.159348
17.918650 -3.443599 109.832375
1.587780 -17.646280 94.209312
19.358820 5.977434 92.531868
-0.508191 -14.076712 106.840759
4.664466 -13.128071 135.645874
-19.094469 -1.893468 139.432602
-13.595834 9.967697 135.800919
2.497037 -12.468625 103.372261
6.529136 12.112582 86.040489
-21.372189 -0.104015 140.991913
-7.415888 12.359645 86.129593
17.031607 4.560111 101.368660
-20.587816 6.600614 147.940491
11.802965 -12.106481 129.135056
11.944084 -12.169533 124.798836
-13.306295 -10.452713 96.754967
17.506445 5.040396 136.612213
-2.573183 14.076384 89.982315
17.796000 -4.615362 106.139801
-0.173629 -16.620197 69.469681
-15.506227 2.046683 105.566528
18.341467 5.001759 82.311981
3.354189 -16.685106 97.255707
17.870026 8.090611 72.204269
-5.270143 6.856148 120.290962
15.965996 -8.126328 134.302887
13.502200 -11.029494 83.999199
16.879610 -11.519997 77.475891
-18.669157 -1.785387 88.628960
-14.411717 1.510833 112.378365
19.754446 -7.101351 72.610046
-14.517950 -0.284996 109.739403
-23.843018 -0.346996 132.248169
-3.862834 10.491036 133.389099
2.866301 12.122020 71.117203
18.702347 8.636900 80.863808
13.834299 10.634550 139.057953
-2.206119 -11.791155 112.250038
-15.868481 -2.601007 109.312363
-8.019858 11.430387 101.267014
-16.005753 -2.308537 140.677597
-3.197056 11.784459 76.797562
15.473492 0.971982 115.030632
-5.411239 -8.951656 140.115341
12.628101 -10.354410 105.557762
17.393547 5.774961 71.094620
11.363354 -2.140297 124.631752
0.883652 7.887204 112.025955
18.444792 -2.985444 100.182076
3.809966 8.295768 115.898155
-26.337542 -4.788592 129.624161
3.442708 -14.912448 111.010170
16.461046 4.680378 98.954239
-13.995972 4.219707 102.147766
4.721429 -15.914576 77.355263
0.232228 -15.533519 89.811493
13.166996 9.922941 98.010139
10.994543 9.886241 72.908524
9.809810 -14.164640 121.644478
-13.368997 -2.907833 119.960037
-17.818291 9.896881 79.764084
29.397835 -0.897701 126.517250
-25.080194 -2.766636 131.745285
-11.751228 1.706271 117.037392
20.139282 -3.185833 80.022530
-25.992828 -1.499550 136.505524
-14.830885 -3.813258 109.948967
5.031306 7.359641 109.149353
19.296154 -5.856170 86.334244
-18.184622 -1.347537 97.759010
-3.312449 10.328401 92.715012
11.626840 7.534087 92.948082
10.687517 11.636147 85.658272
17.111004 -2.500817 138.332748
4.297116 -15.216370 85.713020
19.876606 -6.481247 79.693848
15.059271 6.038092 136.521439
14.473077 8.844391 95.679649
-15.631886 -3.207917 103.057617
-5.987197 4.505205 116.273071
-11.916261 -8.466354 137.451614
14.350523 -1.463470 127.055992
-15.443699 -4.542282 102.210060
-15.642339 -1.858124 65.089233
-15.863782 0.040808 94.354919
6.001860 7.888703 115.501411
11.614861 -13.507366 99.579071
8.426574 9.395040 115.309853
7.339704 9.779841 132.921738
-24.512993 5.731579 127.967972
3.424113 10.065225 123.941696
-15.055498 -9.918748 119.204071
10.872037 10.309309 81.095581
-7.082315 12.334305 79.689926
14.020928 -11.268180 111.245697
2.006777 -11.633207 71.319489
-13.517299 -9.973039 93.564743
11.214176 5.349231 107.255585
23.461004 3.077495 127.469017
20.079937 -2.735872 83.903168
3.335003 -12.183219 88.159325
-3.392712 -12.755140 90.646996
1.266168 -15.979542 75.675888
-18.484015 -8.739010 87.811485
1.799154 11.871333 97.762360
8.611355 -10.940244 125.396790
-18.057508 -0.259237 95.008499
22.160027 0.033443 129.378433
18.174795 5.559924 69.707909
-14.092856 -10.700591 111.618179
-17.611786 0.233715 136.917664
11.732143 10.462321 82.535820
-19.021814 2.470552 86.192551
-14.637239 -8.465980 106.926216
9.775698 13.705911 134.604324
-9.868563 9.608002 85.620094
-10.234680 11.117679 102.151558
-7.682455 11.196000 140.162796
20.249298 5.889034 151.007309
21.990757 8.247182 144.409836
5.898792 -6.638320 142.969727
-0.538679 -13.782660 118.543594
-22.290909 -2.326741 136.088943
17.608627 -2.039335 103.219765
-14.787306 0.721196 114.825615
15.623373 9.483540 135.919983
-14.367244 7.563002 93.759537
-12.409260 -9.910086 87.532639
2.283577 -16.426033 82.804459
-18.607121 -2.817293 98.869293
14.954911 -6.810678 108.741966
-15.261080 -5.552051 110.989349
14.901136 0.602010 116.717896
5.132264 8.402817 113.304855
3.492561 -10.439106 111.665863
14.165459 5.194871 131.252136
17.599716 6.475762 71.049438
-13.459463 9.678896 71.541397
2.952845 -14.662554 96.368713
6.311697 13.464211 95.672203
6.222967 10.126624 101.486351
13.378655 2.128880 133.961929
-20.472099 -3.657508 83.864586
-9.947445 -11.380786 113.472656
-32.128899 8.489271 130.801117
12.612389 7.108144 102.243988
19.082922 8.472591 148.018768
8.912394 4.222474 123.027306
3.048493 -18.147808 85.184860
-14.485620 -1.251878 114.916496
-14.306973 8.211347 103.623924
-25.262861 -0.420470 140.922409
-6.963903 12.994470 79.810188
-4.557922 -14.936413 78.204346
14.225901 0.413534 146.169830
-6.622096 11.975821 73.013161
14.446957 -6.120200 126.484375
-14.384929 -8.421069 87.949249
-1.449210 -11.985901 108.208801
-11.239749 -11.305706 85.468819
17.207991 7.227391 91.255974
-15.604343 6.676689 109.908379
-0.387977 -13.669974 130.849579
18.295988 4.033960 79.217216
5.574468 12.422522 87.295609
-5.986309 11.022957 86.612320
-21.225842 3.817560 147.543427
1.073652 -14.756212 118.007538
-0.048300 12.869186 97.119400
-17.113941 7.965422 147.727203
19.668104 1.882108 70.764984
-19.434208 0.972378 85.374519
-12.771578 11.565686 81.483101
-18.324806 -10.433285 71.770714
-16.104015 -3.407582 116.514236
-15.036929 -9.262433 71.858528
25.004534 12.160943 136.671951
-13.450916 10.908781 85.775970
-9.883049 2.225837 119.036530
-15.218113 4.524478 94.189423
-13.808191 -3.612756 119.763893
-9.931665 -11.003959 120.949257
-7.576159 11.047110 74.939842
11.594439 7.172177 115.770920
1.750796 13.432659 137.847794
-22.560127 -1.891210 75.107140
-19.081858 -0.251744 132.603790
-20.536121 -3.782202 142.847916
12.274837 -9.604822 106.835358
-3.546474 7.069153 115.660225
11.341770 11.693570 91.820480
12.633614 -10.147125 89.529648
-2.041858 -14.738454 82.083275
21.647585 3.463485 69.652161
-13.800941 0.592671 137.392426
-4.256001 -13.104810 136.311630
27.072250 0.433056 136.867523
20.781260 3.262337 78.347595
8.080596 10.342640 101.918648
-5.770657 15.664295 138.095810
6.380085 7.756385 126.101440
-2.282049 -13.407090 112.341026
32.930859 4.630612 131.297272
-7.981230 -13.666288 70.525734
15.441680 -6.996411 122.977417
-11.370145 13.626444 78.250114
-14.497700 -7.638104 99.517319
2.325607 -16.828777 73.442734
15.967965 -0.132198 88.602348
-1.937777 11.641930 71.034737
-16.707464 -7.401477 86.465935
16.636036 -1.038255 133.565567
15.242882 -5.901981 137.966248
-4.695417 -14.083839 132.731750
14.153444 -12.397166 77.361046
-0.055215 -15.315028 101.291695
-5.825614 -14.068276 107.645103
14.717274 7.129959 98.362869
2.051296 13.558964 95.991081
17.238911 -8.030602 97.487770
7.642175 11.478344 130.013901
-14.280333 -8.027927 131.294174
17.062019 -11.013813 81.878647
-20.697668 -1.281142 72.348785
9.036780 9.489585 114.605545
-19.065924 -4.124771 85.222046
27.296087 7.273011 138.054016
2.060161 12.072562 132.484695
16.311201 -2.699611 139.197769
-5.848968 8.812533 122.976997
18.169611 7.734899 136.848831
-9.332685 5.017573 127.842758
9.920776 8.664234 83.757210
16.277235 -4.249396 97.488167
0.085110 -15.832006 74.313370
-5.112965 9.739082 128.558594
5.118582 -11.889077 91.625946
7.859536 -13.392984 135.641418
-8.043070 3.840167 114.729355
32.190914 3.229536 130.893143
-16.693949 0.926523 128.644684
3.543497 -12.717566 86.466774
2.440558 -12.671263 101.683670
-20.634157 -1.186078 66.756592
18.577669 8.305137 136.964523
10.302114 12.951653 98.289146
-21.811045 -6.740494 84.473907
-4.582624 10.681814 107.951294
9.972363 -15.564194 110.035820
22.548912 0.114472 141.263016
-0.053452 -7.388277 142.729477
13.756987 10.003513 78.417885
8.448650 -13.674095 132.128159
20.919113 8.448380 138.885193
15.919409 -9.842039 76.325439
-9.321539 -12.112539 79.395409
-4.187635 -15.853226 98.619232
-15.064762 8.373231 75.627464
-13.670589 8.992057 136.428146
-19.745644 -4.833703 71.305916
-12.137727 -9.931571 82.869583
6.365650 12.803553 98.647453
-16.162830 -2.518795 145.231125
9.038546 11.212039 100.217804
-0.015486 11.920398 72.913078
-16.094139 -4.374339 133.613541
-15.176771 -1.885285 146.393234
-11.222046 -13.576854 125.386269
-13.858472 7.224377 79.110710
-11.075642 -10.597015 125.277412
7.981292 -13.435982 93.945030
29.320486 1.062639 133.910278
13.488338 -6.300683 119.220703
3.221691 -11.644765 88.690033
8.046574 -12.628018 119.708206
20.285294 -4.442005 89.363609
-11.190727 12.020172 85.622368
4.235736 10.784679 74.834641
8.452538 -14.679764 89.382210
-18.151360 8.926730 138.399384
8.766650 5.303540 125.253754
27.625343 4.804091 137.790771
-15.498880 -1.655882 145.394592
4.863078 -14.825522 118.751625
0.944924 10.819344 124.730927
-4.461624 -14.035140 91.022545
10.702114 -11.602705 127.278893
-1.721680 -20.040981 72.585838
21.599350 2.491487 75.734604
-3.830215 11.818969 138.407211
-19.769144 -4.100269 81.497147
-15.074266 5.370840 106.628448
-12.147354 -9.180654 116.980911
-4.167159 7.104186 123.147850
10.744634 -8.905231 137.533173
-4.394600 14.587306 91.631783
0.422252 -14.868372 122.356667
-13.603575 -11.025937 114.510986
-23.460464 2.243208 125.114494
-15.496914 8.774187 85.246674
-16.690145 -8.251524 75.651039
-5.209958 -15.442969 109.017960
-8.027124 9.405500 104.554939
-1.059268 -8.491550 139.933014
19.067818 4.091194 73.676636
8.760287 7.171282 116.401047
-7.863249 -12.556170 127.419350
-1.037948 -14.377774 120.171448
21.684351 0.017127 128.262924
3.806633 -14.372447 99.510536
-24.072695 1.446932 142.847046
-10.338448 -8.394550 139.225327
-3.826193 -15.309052 93.272377
-8.534659 8.845900 110.787186
-0.195344 -12.363974 111.512810
-18.725504 12.003267 141.725128
-5.342872 8.577414 129.183105
-13.834782 6.641019 101.138130
0.111449 -15.539256 112.598419
-17.456892 7.298806 96.940247
7.001964 9.343121 121.284172
-9.431839 -15.026861 68.335754
-3.711711 7.010923 115.520767
-26.170340 4.390316 127.998566
8.506864 -13.731804 98.496872
14.551303 -7.733259 126.503326
21.760157 -2.879227 82.460869
2.506886 5.303225 116.972282
18.704401 -6.805577 80.797371
-6.295341 -15.474646 74.404961
-3.605828 -14.515206 88.902863
-20.509800 3.343447 77.829231
10.107277 -14.838914 110.321045
9.034245 4.594419 117.184395
-11.190917 -6.820246 140.736755
-22.653728 -5.639842 139.209427
27.937269 3.846765 133.136154
-13.100892 -6.987619 138.348694
-12.651425 2.327283 113.530396
-11.400871 -12.151604 98.688164
14.173214 -2.032377 137.765305
7.196477 12.028421 94.297379
6.237815 -11.602907 85.638916
-2.699943 -13.249554 78.010704
-13.914511 -10.629087 87.114693
2.635432 10.364953 130.670105
-17.041836 8.941284 152.350098
0.325401 12.154329 100.006447
-14.919434 -3.625183 117.272728
-11.804353 -4.979972 141.205383
-13.776764 1.488372 112.862801
5.809517 13.769239 76.566696
-21.282564 7.338961 141.829727
15.564266 -7.662617 99.241814
-16.034609 -9.298553 93.040970
24.621737 1.833016 132.924896
0.375771 -15.671587 72.116844
-2.046006 -11.692347 85.547638
15.610520 4.573499 96.954163
9.738327 3.509999 121.771164
-21.416576 2.453840 76.868431
4.154188 -12.046773 98.470253
3.829078 -10.945336 95.782799
14.996541 -9.584340 89.535164
6.986801 -13.090062 128.169998
-8.189264 -14.009850 122.992912
14.252102 -0.372610 120.976532
1.267162 -12.473206 139.781189
13.127596 -2.041615 139.552231
14.058646 -12.238039 86.424934
14.240287 4.137564 113.472198
7.835826 -13.319781 98.318176
14.260988 -9.192315 86.574585
18.920017 5.720792 132.957291
-13.955965 -12.645825 69.638130
-13.092879 12.751980 71.137093
12.827105 -9.884127 136.222595
-18.809132 7.382219 145.945023
-0.510714 -15.396832 122.706429
10.601925 -12.231983 111.191986
19.845144 -2.499208 141.055923
15.464926 -9.807263 110.168541
-5.481945 13.169810 78.044411
0.116318 7.987542 107.686882
-12.448958 -11.980453 92.554634
2.836452 -13.951053 87.244476
-25.745718 8.054725 134.398087
-12.050128 11.607452 149.425034
-19.147213 5.053937 92.817619
-1.865887 -12.200268 115.483047
23.694181 -0.873445 140.658325
14.272871 -6.417546 128.072800
18.274202 -4.644450 72.036324
13.778664 0.468857 135.751465
-14.679596 -1.098890 117.661057
12.360532 6.891202 115.087601
-10.988647 12.535093 141.765045
14.185975 -9.034467 115.558960
-20.591406 -1.612379 86.166351
23.747328 5.280975 146.589447
20.828451 -0.778529 138.715668
13.871120 -2.422131 120.142441
1.881299 -14.195329 116.723465
-11.214221 -14.936925 130.198502
23.573463 10.531178 138.737335
-11.927538 -10.857289 82.876976
-14.558707 11.315356 142.241867
-17.370205 4.866721 86.270279
-12.989624 1.210015 114.514091
-16.585897 7.967595 81.418823
-12.965477 12.365199 77.091698
12.874683 -11.502027 94.959702
-0.513987 7.310760 109.189583
-15.592123 -5.397203 110.409927
18.805786 3.908204 149.245148
-5.132468 -13.713527 126.528801
-5.589943 7.827351 105.409241
12.421764 -10.752307 123.275833
-14.821960 -2.294079 138.083252
-18.245020 -9.111250 99.993019
31.082235 2.823363 131.090881
3.267053 -15.132643 126.048073
-13.149317 5.964231 100.934090
-17.170307 -2.955717 113.803680
9.211341 10.317458 73.526611
-17.418182 7.281008 100.469551
7.205097 13.336504 81.582169
-12.809349 12.370338 92.880699
18.818420 3.917684 71.808258
-13.137663 -5.051502 110.074051
-1.253199 -13.673839 76.871841
-2.580651 14.512217 75.035805
-15.580799 -4.850635 119.943123
-5.662379 -13.448400 136.818802
-1.030288 -11.989690 93.634247
0.286779 -16.680386 86.528549
11.956118 11.845662 135.349182
-9.723145 -13.760231 132.825821
22.504349 1.701827 130.287659
16.461540 8.668797 137.155563
21.018276 -0.372988 87.404823
-12.229111 5.065006 110.535316
-0.119004 -13.688376 135.461029
5.661152 -13.659524 87.943550
28.340408 -0.412955 130.499069
-12.571711 9.702048 98.708321
3.545492 -11.360283 83.270248
-7.632002 -13.666324 81.122673
-10.748912 -5.210273 126.213051
23.074970 -0.227188 126.053139
22.356298 11.717319 133.318649
-5.534204 14.192379 92.015404
15.288916 -4.815154 126.254501
-14.675774 -9.570038 69.119225
12.411802 -0.139696 115.937012
-16.753370 -8.528479 72.980110
12.092013 -10.510083 82.927368
15.191799 5.645973 109.954292
8.174567 -13.319827 116.878510
-1.631819 -14.730161 106.779274
14.672915 -7.358623 129.797974
-3.966445 -12.571342 76.517151
-17.220243 -6.236819 119.177277
-14.540534 8.616751 149.172058
-13.572916 -2.133877 139.890427
-20.210423 -1.234874 146.071060
0.057801 -15.766268 85.013000
-18.282639 -10.101434 88.313934
-6.318055 3.838405 116.569641
-8.225731 11.509991 136.715607
-1.604462 -13.894311 71.443413
12.781638 -6.340513 116.907265
11.910646 8.128637 63.922619
19.435726 -1.145750 131.528336
-15.475140 -4.714541 95.721581
5.221801 -13.729465 80.405373
-12.806128 5.071385 113.814339
25.869564 5.027851 137.330566
10.955052 9.262320 68.285942
17.432981 -4.656129 77.553787
-21.916668 3.544447 81.329788
-15.747322 3.658365 101.334152
22.363247 2.067761 144.675140
1.041178 -16.854620 77.349525
5.678121 -15.296688 117.401131
13.205592 3.480819 111.488907
3.252594 -13.301459 129.875763
11.507519 8.561395 140.305984
16.643320 -0.245932 135.854019
-8.405643 12.423282 82.336502
-1.058447 10.812248 104.874130
-7.578777 12.145283 138.374924
2.497431 -12.185458 79.376633
22.732462 -1.305954 133.553604
4.903800 9.755379 106.768196
4.596989 10.646760 106.967903
-0.368020 12.947957 93.300362
13.035576 11.521685 78.792847
-11.163245 -12.755392 126.475594
11.914814 -12.907451 136.976166
-19.381077 -9.875475 72.803436
-14.633907 -4.674212 110.998520
-26.890198 -5.758095 130.764206
15.911752 2.615140 104.771690
7.996445 -12.041509 94.097473
-26.916031 7.420924 127.512955
-17.490076 3.498583 98.588310
-25.427767 8.524718 140.382843
5.058929 -10.338776 84.225929
9.543653 11.891932 96.111588
17.792355 -6.940196 86.188385
-18.085239 4.384820 68.463860
-3.381155 -12.350803 133.753433
-14.780479 12.284207 139.994034
1.570628 -15.439413 90.973938
2.460923 -14.759169 84.416283
-13.759988 1.224035 116.481369
19.532158 2.225128 133.733276
-23.374582 -3.395758 132.473541
-19.743137 5.245064 80.257507
-13.537422 7.070832 137.580292
13.017151 7.117774 74.799377
11.595455 3.046281 118.531784
3.158382 12.581615 86.151085
-3.539372 -12.525052 129.309753
16.772102 -1.950012 103.176682
9.749477 -11.626361 112.576790
4.643398 12.112595 139.143890
13.885149 1.071981 132.639847
-12.132673 13.140566 75.592949
-12.168431 12.872834 71.010071
3.361294 9.764813 87.380959
-26.192638 -2.804163 131.319855
-20.470131 -0.381882 88.982620
10.382992 -13.717175 94.264801
7.148656 12.966632 74.323997
2.357896 -13.462829 97.661674
14.782104 5.307412 97.675423
6.922359 12.614806 133.242844
14.818818 5.115537 112.919899
5.622448 -12.101002 96.230942
-17.721834 5.312204 68.865936
-1.915090 14.284671 94.863235
-7.360838 4.072097 115.947456
-13.392511 2.196511 118.697800
-21.651222 -0.593588 81.786919
21.392490 -0.248173 72.368362
-3.122845 9.614804 116.167145
9.332772 -13.589241 82.269432
4.632892 -15.821512 71.532845
19.252256 -0.493650 103.434868
-13.250979 -2.620931 125.478676
18.472301 3.252621 91.727234
-8.929173 6.744696 115.465767
-21.418047 2.048216 82.033577
-13.480726 11.352522 71.750290
8.023254 8.411603 123.036552
-13.117587 10.140607 84.167671
-15.101985 5.584026 100.786804
13.751002 2.025902 113.311935
-8.968492 7.888538 127.016907
-9.651446 11.720972 95.075806
-14.110265 -0.590957 118.022430
-13.946751 8.203375 150.566605
16.040672 -12.589602 95.903046
12.849768 -6.392382 125.862083
13.380163 -12.116967 115.336754
-14.297625 -4.549582 112.320450
-17.749458 6.901064 152.553177
-12.873401 -10.903861 75.437393
6.479339 -14.155344 136.397751
13.279101 -13.371366 106.187729
-2.066451 9.692571 130.090546
4.462138 -5.462354 141.154129
-11.788887 -10.705511 129.975418
-32.325771 8.133728 135.068863
-2.661777 -12.197968 119.832024
-24.301514 -3.808296 140.071472
-0.546550 12.953689 74.360626
5.454201 -9.049754 140.711746
-4.556347 -14.597233 89.288429
12.524751 -12.362870 131.233887
-13.372596 -11.897958 136.324692
-15.605979 -6.757609 110.267868
-14.945738 -10.296944 89.812691
22.237497 4.506432 143.634262
18.284712 -7.704229 73.580589
-14.114892 -9.286894 82.009285
1.296700 -15.088614 95.562218
11.348956 -0.065650 117.525101
-20.619589 5.851801 82.339539
-1.569892 14.160783 96.249359
-1.129863 10.453291 99.241707
-19.357128 0.579241 83.096764
-10.405750 -5.381876 142.425446
-19.210276 -6.474339 93.819359
-23.584717 3.765590 69.267372
13.284923 -11.744296 119.825478
-16.236916 0.951720 114.012512
-10.119823 -9.736189 73.295578
-7.750849 13.844289 71.621277
-25.183321 -5.598582 131.356369
12.546389 -12.232335 73.447800
-14.140422 -1.974560 132.918411
-13.014173 -1.042152 117.500275
12.739098 10.744290 74.675323
-17.559996 -5.385343 71.805321
7.761084 -15.319508 111.083755
18.439430 5.980639 78.476974
-4.073412 9.781003 129.780731
14.519321 5.378483 100.791519
14.997110 -5.112436 128.755447
-27.787367 0.221862 126.418701
18.849316 -4.235111 92.788239
2.642295 -9.569829 139.134628
29.141508 7.567931 131.621841
-24.449657 9.168568 131.764832
-15.260132 -0.548878 125.612724
-17.762466 -7.496771 97.957695
14.807081 3.636351 98.595459
-22.244413 -3.086522 140.022919
-22.864561 -0.446169 75.818214
10.212168 5.955052 110.262939
-17.473179 2.931429 78.600563
12.647935 -12.463981 131.509521
-12.092144 8.991099 70.225204
16.419262 -5.687506 109.119400
-1.838275 5.890027 117.735870
26.739052 8.699338 135.928360
-14.747981 10.332803 96.728249
12.953352 -4.532009 142.967270
5.216149 -13.071608 76.600067
2.678997 7.352196 113.689964
-17.676172 -8.293650 97.239120
13.145604 -11.742579 79.531952
9.426158 8.140510 108.144234
-17.813990 5.337990 85.353790
10.801722 9.773935 105.768944
18.507322 7.462754 135.101959
18.906092 0.388655 93.221329
3.375006 -11.155577 77.090660
11.469666 -12.035889 131.113953
3.481115 9.941928 107.534058
-22.368990 1.860748 140.252563
10.633137 11.622086 91.529259
-21.114477 -0.593432 65.276093
-11.567959 9.667590 67.480316
-13.440390 -5.214293 110.992126
16.071207 7.781966 100.214325
-12.301182 -10.697491 125.227196
-14.635876 12.381439 85.616623
-15.317734 -5.084965 129.798157
9.509744 -14.067617 121.512260
-27.010351 10.805452 130.826523
-18.713339 -10.101717 98.511734
-22.124928 3.227754 127.823006
-27.070370 7.705746 132.767960
16.262016 5.366901 105.540703
2.705389 -13.337174 124.197220
-1.977851 7.671738 117.111450
-14.453951 -10.893924 86.044342
0.367993 11.421369 91.038605
-9.703576 -14.476618 127.697884
-5.024748 6.580285 115.133209
18.877712 -3.542566 142.520035
14.306652 -1.311828 124.907852
-11.704791 -5.646507 141.246323
-11.175732 13.659384 81.282738
16.841330 -7.109318 106.682251
18.067127 -8.434191 84.880730
-10.005030 12.749815 74.847122
0.550033 -16.410986 91.611061
17.116768 -7.805827 106.439255
2.821239 6.679487 111.862633
-18.226694 -1.872551 144.710175
14.017029 -7.554834 120.026741
-5.095897 -13.446580 83.909904
-23.640772 -2.866905 128.106033
-16.817911 11.593543 143.433884
-0.414332 12.110217 103.913994
-9.385932 -10.213745 139.886993
0.706839 -9.593315 144.478775
-8.197916 -15.229989 112.416382
-19.829945 -2.174141 145.481277
-4.444958 -6.869393 142.607315
-1.745404 -13.077433 86.686806
21.845493 -0.815893 78.555428
10.416668 2.028470 116.341896
-11.571282 12.456711 77.409103
-12.564655 5.314145 123.584740
-24.045834 8.420043 142.589218
-10.875315 -14.073374 120.383575
27.102898 2.872786 141.485321
-16.662077 -3.171002 114.846115
32.677124 6.664132 131.263580
-4.954326 9.636152 133.130722
-7.504692 5.364952 111.426193
6.209067 14.076949 84.749809
7.012738 -12.251921 131.546585
13.669497 2.354437 111.308487
1.512231 -16.278631 88.610107
21.033663 -2.346126 95.046440
-8.256271 -14.329311 78.432121
-12.174348 10.657470 132.062943
-9.591024 -14.364338 100.987076
19.366697 -6.432206 70.115562
1.682764 -13.508289 71.868782
-11.839077 -9.797256 89.482132
8.925238 8.448625 105.729416
-17.664650 -11.314801 93.508896
-16.175856 -7.839578 78.339211
14.785588 -0.765997 131.280441
25.048420 5.711257 127.075851
-15.454277 0.650746 126.651108
-16.602888 5.200889 150.891876
14.269377 -2.005575 138.505615
19.208685 5.280119 94.637741
-14.953876 -10.862076 81.142281
3.912297 8.685109 117.542511
-22.052549 -5.913153 83.480919
-15.794999 12.127596 144.977036
10.199983 8.608109 114.535896
-17.794546 3.917425 135.971222
1.478566 11.565421 104.591942
-4.881627 9.839808 101.650253
-15.115285 6.122651 133.019104
1.227779 8.991646 111.795898
29.457170 -1.091103 133.057632
-9.406223 9.872558 140.770874
10.780178 10.537313 134.139374
-0.554420 -14.111182 132.678726
13.592474 -12.754297 81.368599
2.382042 -16.064825 98.617195
16.063248 -10.613327 85.300842
18.637074 5.019754 73.174133
-21.431778 0.119741 128.628616
-22.200336 4.053584 70.661209
-17.495560 -0.164813 114.280998
11.870051 -10.405678 116.701691
21.263241 -3.132417 130.309433
-5.773203 6.425811 114.863533
-13.727333 6.137326 149.678253
8.214715 6.106378 120.572853
-16.115854 0.963371 140.408554
13.516136 -9.222182 128.482986
-23.381731 3.898048 144.392609
6.308200 12.352870 138.137207
-18.543640 -1.689715 102.613800
10.537739 1.456362 119.924995
-14.085453 -9.380919 110.151573
-12.269122 -13.315374 74.895592
10.697536 10.048292 67.556908
34.780651 5.270228 129.252930
-11.461022 13.121910 88.270012
5.666295 -13.635515 117.690239
-19.517834 8.142419 138.174942
9.842920 -13.211245 97.434227
21.651041 9.723389 133.385071
14.804304 -12.779044 115.571487
-9.537000 -6.157390 140.727661
-8.135175 -12.985733 126.461388
-21.134203 6.967568 130.583923
-14.356047 -2.390147 120.213669
-5.469117 9.427428 125.793335
-19.426218 3.197471 77.703735
-11.699776 12.595198 143.884964
10.493960 11.318926 72.560295
17.985285 -0.627325 134.485535
-2.407402 -9.494017 141.548172
5.264976 11.042242 76.257683
18.218510 8.231276 149.247543
-8.364774 -12.406628 104.013268
-10.638305 13.640533 80.856804
29.950291 2.220749 133.242477
12.957958 -7.805257 127.465210
-2.964517 -13.209738 129.006439
-11.286406 -12.898861 136.622955
-7.203328 11.609366 105.422653
-7.158319 -13.351655 123.588425
-15.317828 2.071779 121.314400
27.356634 7.417665 137.859222
-30.642136 6.307387 124.505341
-11.400340 2.001155 122.378876
-8.230500 7.338716 123.187218
9.362952 4.631025 121.485710
-15.591608 -9.016000 88.179642
-11.836631 5.655798 114.854210
-9.102998 13.423028 85.025543
7.817936 -13.237887 100.299706
-4.061752 11.965641 74.431580
26.707130 5.107176 126.008095
-9.517442 -11.630020 99.754646
-12.408609 3.037170 113.432053
15.888535 1.468315 111.380539
-13.527216 2.746030 130.106308
15.532902 -6.794242 113.714973
6.517138 -14.743623 72.868034
-17.503588 1.039655 147.426727
-7.144051 -13.031589 112.831467
14.406281 5.748444 110.293991
-19.755064 -1.553176 132.448715
-19.607231 -5.481499 65.152039
-22.648516 10.861394 136.937759
4.213851 -12.210470 98.211777
14.473922 8.145049 132.695511
4.187244 12.833938 81.002960
-11.681210 13.644486 78.357475
-15.766976 5.706366 83.460770
20.304100 1.596491 84.882126
-16.007624 4.951409 124.626221
20.516684 9.144120 131.538742
-22.445259 -0.222578 141.374741
-15.299993 -4.781066 99.124504
0.355414 -13.555705 124.670700
16.094770 -2.230736 95.151634
15.370063 -2.382346 110.875801
-17.682430 10.051950 140.767822
15.743076 7.541105 90.217361
21.192356 -3.299864 136.027084
22.038620 -2.543498 126.165466
21.110167 3.154538 76.833435
-9.639894 12.263257 82.254906
-17.395937 -2.315240 94.237396
-10.890043 -11.658923 113.579155
2.772800 12.363729 99.417938
-3.433331 -15.207253 82.576469
4.423793 12.903866 74.261063
-13.613022 4.084839 121.000015
-15.109873 9.643626 139.657639
8.150206 -12.288926 69.324295
-21.184547 -3.850694 86.466324
-9.610681 4.073981 116.684532
-19.363728 10.936722 138.847748
25.535961 0.715947 138.618286
-2.028768 13.512887 87.012718
-23.132198 -5.743729 131.023239
4.675179 -13.334981 102.810036
11.465769 -12.933046 134.443268
16.012304 8.159497 139.198563
-17.275322 0.046807 96.091064
31.894077 2.613899 132.078140
-21.607304 0.306352 82.135841
3.315421 -12.300205 72.060539
-13.685526 -8.798974 125.769485
-3.192415 -15.285238 86.629692
-8.172012 -14.713436 82.256760
15.088613 -9.238781 111.986717
0.894688 -12.669708 82.563057
7.319327 11.438228 76.938110
9.467949 -11.288558 125.560677
5.160658 12.326647 135.203156
-4.534473 -13.459478 115.931343
7.277160 6.820138 108.272034
17.895870 -8.221931 100.515793
3.572013 10.891504 100.653664
18.944880 9.852404 141.936722
-27.340807 -6.314620 133.400482
6.097645 -13.516450 129.785782
16.361586 -9.059305 104.148918
-15.028117 7.799319 152.145767
17.535160 8.160575 145.860886
-14.588128 -4.427814 122.805473
6.752327 -12.550220 76.819084
-8.424883 13.222176 88.687630
-20.340673 -0.827592 74.722969
-1.820751 -12.133530 116.185425
-5.651971 10.245534 108.812813
14.402911 6.873457 94.229645
-14.007341 -5.085724 121.148178
-17.763914 10.455997 143.271988
20.557743 -1.361062 85.047142
8.664083 -14.277925 131.387604
9.073239 -12.707306 83.680222
-15.777434 5.224983 78.615532
-5.105634 -14.744840 101.785172
3.250715 -8.141019 142.021698
7.934450 -13.656291 96.278633
-9.570733 -11.731578 127.119766
-18.556736 -7.376673 75.102371
12.145635 12.290741 89.091461
12.110833 -9.592815 121.226715
0.401352 -16.181322 73.901047
-14.946794 -0.319584 108.835640
-11.611165 -10.045580 92.442825
-15.577846 -5.133408 112.393814
-17.231733 0.774141 148.763702
-11.215318 8.815601 102.024475
14.337996 -11.455726 74.375954
2.189510 -17.039200 74.973991
20.942724 1.487595 120.793755
15.269496 -7.377895 107.396240
16.634830 -4.868979 113.107407
-16.689224 2.595429 128.381439
20.577675 -1.027953 127.336960
-16.389942 -3.329079 141.868271
1.734103 9.104030 125.692757
13.719225 -6.922801 122.968018
-30.740326 6.743937 133.477051
2.316709 14.743701 92.193756
-19.016705 6.314725 95.500626
19.672527 2.291070 131.110931
14.384023 -11.135814 128.638275
18.769650 -2.822675 137.103149
10.270600 -12.419228 86.423325
15.056264 1.515222 108.196053
22.083328 2.558851 142.538895
8.707018 -12.902360 72.759796
7.915091 -14.382180 100.122971
22.205050 -7.377663 88.194695
-14.688972 -10.962501 102.456703
-14.129205 3.630160 124.326302
2.447768 10.304296 123.008095
16.156727 -2.794858 108.992859
11.661611 -11.283786 136.406082
-7.475322 10.523229 88.963570
4.011581 -11.747169 130.790985
-1.083073 -15.589762 78.114769
28.260822 3.741601 134.843872
9.158901 11.519326 136.283569
-9.859767 10.410681 104.392197
-16.785887 -8.101505 86.690567
19.232210 -3.919830 138.912766
-15.514536 -9.705646 109.225540
-9.685161 12.990130 72.422806
-25.235048 5.805008 129.190781
-27.882418 -1.812284 134.905823
-18.461540 -5.450631 103.880432
19.104954 -3.432602 94.301567
18.962822 -4.151190 129.915298
-11.536058 10.424125 89.365349
9.129342 11.139402 99.684227
-4.880251 -14.606060 91.923775
-18.356409 6.431308 76.469604
15.727007 -0.194215 132.459854
13.903321 8.633084 83.164146
-10.341717 5.961789 122.326477
-27.576141 -4.382687 131.116776
-29.956841 11.050270 131.032272
11.101363 8.752979 131.449387
-16.757477 -6.511272 111.118057
19.612181 -5.926071 90.240555
-8.359434 12.024495 88.872490
-9.790386 -14.062677 122.588348
-10.559747 10.146073 102.694954
-0.501303 -13.259355 106.638290
24.036524 2.294581 140.173889
8.129028 -11.541753 81.578323
3.548180 -14.712152 75.988823
6.878851 -11.311991 78.126305
-8.252909 8.906293 127.119812
13.834772 -4.450833 132.867264
-30.024870 6.816812 132.446045
-17.530718 -4.794612 110.480682
-5.325560 10.114186 97.382919
13.825401 5.941854 130.398376
14.930534 -7.713253 96.317986
13.336470 9.538271 71.376678
12.530475 8.483360 77.222260
-10.514349 -12.964187 128.477509
-14.476296 10.082072 79.971825
-22.428402 -4.052478 140.939224
-5.463109 11.868329 85.254272
-12.246251 10.416454 137.271255
11.415431 9.705672 89.713303
18.605398 -4.556071 98.651695
16.844652 0.077616 135.401520
13.462843 6.323123 113.426842
12.433731 -6.283119 121.368927
9.837014 3.715089 118.673943
-9.312415 11.403536 88.088799
-29.428272 6.194821 134.670334
-18.662630 3.510478 90.892517
14.509983 2.632168 109.418213
-19.161329 2.766484 76.216324
5.053120 -12.388139 115.924072
12.367316 -9.992352 135.408737
-10.422856 -7.451990 141.352692
-7.855689 -12.780875 115.929779
-9.588765 9.574448 87.784866
-16.372156 -9.073817 86.156403
-6.984755 -13.581909 135.002197
-17.277321 -10.594503 97.838882
-7.132117 -14.624421 101.523697
16.613771 4.129529 135.063507
14.407668 -9.111206 133.030319
-7.100665 13.594870 95.057861
-3.868081 7.272478 113.990074
-22.337713 -3.564540 73.538078
-8.529464 -12.824179 135.760162
-13.037618 10.180843 84.335022
2.513856 -8.754532 139.578964
10.697608 2.810951 119.183510
4.235392 -8.784746 78.025146
-1.932787 -14.331457 108.776840
29.357807 -0.008642 130.629532
0.519607 -9.058295 140.884827
13.741851 -0.169242 118.341995
-15.013297 1.365715 113.865715
5.314724 -11.377563 88.307022
6.852458 12.350085 99.888794
6.044035 12.009400 80.185135
10.861556 -13.105974 129.043945
-11.515542 11.285486 100.732155
11.511879 8.210320 130.916092
-11.167249 -10.090022 83.008110
-21.387110 1.531746 83.361740
14.042306 6.905034 72.331940
-17.468750 0.750177 151.986938
1.441580 12.659636 68.635857
-18.381069 4.605305 78.091034
-0.562034 8.983133 102.889679
-0.914003 10.055766 124.419807
-14.643097 -1.269145 113.933937
16.884205 -2.935161 140.917679
-18.279097 5.080272 83.013039
-6.174280 11.992198 81.973587
3.109255 11.305000 82.788788
9.849247 -13.836094 133.329025
14.004433 9.516965 83.487480
9.989237 8.450397 82.115730
-13.538015 7.312037 102.871857
15.722378 -2.722514 138.213043
2.659976 -16.849657 74.221123
-15.703928 -0.388140 98.078850
16.396564 -1.684599 135.713226
-13.230534 -6.751246 117.108070
-6.179875 -14.096611 73.369545
17.835873 2.614633 92.075439
11.784605 -10.159428 118.344315
16.866833 -7.883159 106.050728
-18.948963 1.784818 95.831276
16.987125 0.429859 111.586540
-18.667852 5.212825 135.977463
18.691263 -6.736657 99.201370
-14.560770 -4.876241 116.695374
8.036545 -12.052202 125.215691
-4.279002 9.314178 103.001587
-23.830366 -3.565031 139.507309
-28.271618 -5.302947 129.410507
0.321020 -13.416494 97.607323
-16.122002 -8.514190 99.914909
4.474256 -13.347052 94.664986
-9.526749 11.909054 138.052628
-14.868167 -7.882439 134.795639
15.421229 5.849665 86.957527
22.184744 7.210357 144.048981
13.133852 8.854898 99.011917
-12.548379 -8.852983 118.420616
31.199984 11.986514 126.183052
15.986809 9.673213 138.457794
-4.717266 5.374935 112.234627
10.636753 5.010011 124.612312
-9.441115 -12.760159 120.629250
-9.964375 -12.597120 130.005508
16.963430 -6.616809 102.335236
12.358680 -10.784780 125.924698
10.730045 7.323221 115.518639
15.710843 5.725367 102.732529
-5.718411 10.308597 110.136993
25.659771 2.803273 125.462952
-28.626209 8.701378 133.403290
4.860543 -19.264433 86.122620
-6.257376 -12.869328 109.854950
-1.792182 7.406892 120.149170
14.438071 -7.086623 122.164375
21.674698 2.041610 69.559128
-14.182495 -0.015956 113.569229
18.848370 10.655538 141.378937
0.366454 9.680573 128.643616
-16.754934 2.654487 88.581833
11.079871 -11.493242 122.249992
19.138670 2.889233 99.804482
13.145239 -2.875617 121.084030
-17.179604 -4.418243 118.629997
-13.806396 -5.969097 130.308945
-16.554480 9.018921 143.093231
-0.627283 10.911959 97.153687
-14.396837 7.934505 84.926155
4.681768 -14.382596 74.138947
-19.630148 -0.120158 94.931099
30.777685 5.184818 133.697952
-21.515890 -0.659676 76.044250
-24.658627 3.506640 147.624008
17.143890 1.908567 105.703041
-8.966425 -14.424080 120.853653
-10.628092 10.948207 90.803146
14.241261 5.173192 111.738686
2.770302 -11.946848 98.959816
20.056417 -0.883331 74.312630
13.545778 -6.132597 125.095345
12.581007 -0.752072 121.582550
0.800988 12.588575 71.555740
-8.523910 13.766414 73.683746
2.984711 12.291481 136.684540
-2.458057 7.645778 115.369026
31.262239 3.398434 134.415375
-15.191088 -3.842441 129.110016
7.573225 14.653567 90.787956
13.692262 -7.530107 122.522583
6.966488 -13.457747 73.428146
15.181720 -9.998622 119.405403
1.972480 -13.526102 75.449844
1.218611 -14.721992 118.159012
4.684904 -11.970411 94.667976
18.769749 -7.977180 70.064674
17.983051 3.941538 77.519165
6.300141 -13.702003 123.470955
13.072113 -1.514107 116.750816
-11.904922 -2.029328 119.055382
-7.719347 7.896506 106.496033
6.621173 -12.516274 75.387733
-11.829482 -12.014000 124.412323
24.410633 4.836133 144.674561
-16.461740 -11.163993 97.238358
6.395102 -13.602512 111.697052
9.283304 -13.936572 110.939392
22.990118 10.537560 138.416489
5.481937 -11.990738 86.937912
30.033937 3.893734 135.246033
15.565034 2.554282 136.413345
-16.554159 6.944262 139.501099
16.429216 -3.442811 101.590393
-4.958443 -12.770388 100.348816
-11.848091 -8.690625 140.638565
17.561197 -7.099682 83.218216
-26.400133 10.758048 136.056717
-21.537813 2.448912 86.776527
12.247325 12.502419 81.072701
-12.117379 2.315468 111.031960
-18.260666 5.047508 93.653801
13.873277 -4.322319 147.421646
9.407804 8.745272 114.403122
-12.647482 0.919328 134.255020
-3.403240 12.078839 99.536034
-24.878197 9.345000 133.925537
15.686130 3.496368 105.720795
22.700396 4.644682 147.747940
-17.601954 1.361474 133.444443
16.549145 -7.724427 98.775055
33.745808 7.431130 128.741211
-11.932656 -9.644871 122.136368
-12.026980 -13.506434 118.921196
12.784958 4.632624 137.623535
-12.327929 11.914214 137.162628
-1.689352 7.619120 107.229187
-14.522417 9.747808 79.017395
23.093166 1.723862 127.960068
-4.932863 7.659983 122.353081
0.044755 -12.330436 78.098831
-26.390026 8.497348 133.864410
-18.759756 -0.203413 85.975800
11.734027 5.479912 120.203773
13.055764 -10.362009 111.915161
20.616964 2.795938 71.260925
-0.309126 -11.206354 70.753365
18.422941 -1.878019 104.932739
-9.272961 12.911590 138.334152
5.692041 4.645931 116.001457
16.882582 -7.568827 100.716728
18.766657 7.335913 136.876480
-5.589004 11.203612 81.629211
-14.944920 -0.984465 110.985565
-14.325157 -2.887429 110.535034
6.082134 -11.732430 90.164070
14.285628 -12.879612 131.103653
13.607618 -13.911852 102.975739
16.844873 -10.664444 82.415161
17.401203 -1.451142 107.076248
2.310407 -16.665707 92.513039
-15.940526 -0.211662 142.022568
-18.054911 -2.139248 94.173332
-19.039660 0.971228 77.314056
-17.522800 6.483577 104.428215
20.293922 0.055538 69.325348
-3.791573 6.227262 113.963722
15.716136 -9.866875 77.695244
12.060963 0.638943 124.493706
-12.213428 -11.208003 119.616394
-8.788098 14.172159 75.314972
16.854851 -3.138740 95.919502
-13.872774 -2.780371 123.406212
-4.032798 -13.908495 78.632423
-10.069770 -13.079118 131.083755
-2.209053 -13.372007 113.188568
-16.659756 6.296321 75.700050
-0.144749 -16.335047 85.118660
6.497120 10.293781 89.734306
-20.211710 -8.790694 81.542168
-7.396048 12.155965 100.249161
0.975047 13.215881 133.802689
-18.664972 4.254873 150.482162
-5.236977 -13.608199 98.110931
14.192343 9.702876 69.513901
21.119408 -2.803321 72.428436
19.438931 9.791128 134.271362
-4.565974 -12.687937 113.944633
-3.237668 12.073599 77.478851
3.476968 -12.116646 81.490723
-16.676323 -2.943543 107.473122
0.179790 -15.173757 132.467728
5.157137 7.750553 111.288612
3.063766 13.757506 100.896042
-1.003707 13.412487 92.388763
-7.617601 -14.661901 107.465958
20.642715 2.354135 90.382904
-0.547240 11.113061 90.560287
9.586885 -14.244544 106.025696
-19.708504 4.417343 147.936844
26.422075 5.520552 140.917282
9.073130 0.905360 118.780220
-15.947162 -6.051381 105.150185
4.580513 -14.084924 79.684921
-17.213333 8.496651 87.244026
-13.547077 -11.411525 87.590195
-1.104058 13.106016 86.859612
-20.808199 3.002513 144.462204
-14.013638 6.701531 73.066177
-11.490932 8.717791 135.510315
18.396572 -0.541624 88.944107
17.298326 1.525587 101.049889
-11.426519 -6.107227 139.455231
-2.064155 -13.821762 96.059258
21.699011 -3.913264 79.353371
25.396605 7.521635 138.761276
-7.998294 -13.440283 137.125778
-1.116716 -13.590288 107.268959
-5.866359 -13.570850 131.033951
-15.672444 3.051557 151.307510
-19.081707 9.946696 135.476822
-4.705948 12.006336 85.654419
-6.179455 -12.923282 73.535187
2.281967 12.883408 73.757980
14.656582 0.915842 114.719894
14.859211 6.174911 111.809258
13.492672 -0.917016 138.717239
-1.726355 4.731607 113.911842
3.248209 13.236265 75.756897
18.635929 -4.145515 84.335098
5.525519 -12.377230 87.619171
-28.989281 6.416565 134.334854
14.458015 2.476200 115.429741
-17.003916 1.138021 101.076973
-6.356661 -11.650534 124.690475
-12.195827 -7.780765 138.152008
-16.433506 -4.798707 105.812210
-16.510105 8.569465 137.496643
-11.827200 1.781320 114.776764
-14.106526 -10.892904 117.131256
15.943222 -2.112690 109.970757
-6.399612 12.442569 132.167740
-1.601308 8.013959 120.922318
-11.838838 -14.257893 103.314888
-23.494715 2.918610 146.114899
-2.969408 -14.371565 104.388008
-10.446694 3.767200 118.986084
-21.968443 9.946134 142.321625
10.953382 -12.040373 124.439484
2.981655 -10.760037 74.913925
10.067547 -13.070685 78.389557
1.788167 -15.991623 91.330299
10.324200 4.586423 110.670975
-15.631418 7.080398 137.400604
-25.810003 -0.536718 127.720459
15.928054 9.452349 139.004272
34.924736 8.635904 126.063271
-29.788956 3.314451 133.219604
4.493828 9.647567 117.217064
-18.327049 2.693837 135.921844
-11.457790 10.665397 136.758057
15.706450 6.537269 95.158455
-0.262385 -15.620215 95.010025
-13.803582 -13.622637 107.394852
-20.023161 -2.752882 102.893700
-20.054556 -1.920206 132.100800
-11.665251 -4.633649 119.378403
-13.800375 3.798609 121.112495
-11.203140 2.789975 125.930550
0.331910 6.942733 108.419861
-15.675896 7.277308 97.648849
-3.038637 11.630474 109.591614
24.821774 6.846228 130.432144
-20.191257 0.977702 138.634445
16.045340 -8.195135 77.976158
8.030154 13.846156 86.336014
-15.649427 -1.144257 102.811104
-12.327094 6.319410 117.017189
-24.499910 2.450046 126.144958
-21.600733 -2.794079 140.995041
18.113062 -9.700692 95.214432
5.366890 -12.777607 115.312737
-26.511095 1.280992 140.142059
-1.694940 -10.605801 91.220680
-13.893502 8.057471 84.677742
16.292671 -10.028033 88.090187
-9.636985 -5.364944 138.740036
10.437446 -13.423259 132.395630
4.289629 12.071809 85.697578
23.634403 4.431801 127.870987
18.383911 -9.171741 85.555847
31.187279 7.661911 132.355789
22.568743 2.032705 141.338593
14.834936 -7.000708 119.849869
-12.547672 -10.838343 126.205391
6.965396 -13.516226 126.830551
13.983761 -3.296441 132.936203
-20.072966 9.716288 139.207077
5.128386 -11.410352 72.224098
13.759583 8.335066 99.611938
7.251798 -14.305959 83.629303
-8.170240 13.035260 91.298729
-20.714729 -0.687737 79.888748
-18.448065 5.046478 70.159019
33.902679 5.727324 130.052200
17.015556 6.883394 107.338203
17.820000 7.411073 72.913589
-10.056169 12.024893 95.983658
-11.310127 -14.379210 133.700348
32.268566 6.158680 130.976913
-7.077318 16.035610 71.086067
-2.366050 7.197960 117.410172
-15.036016 -1.088146 111.654045
29.309105 -0.940092 122.671188
16.656429 -2.289168 102.507423
-0.554397 7.475390 117.537971
23.051661 10.938544 134.204376
26.290464 0.165183 125.044716
11.677098 -3.242101 123.206657
-11.469995 4.199477 116.225807
-12.167753 -10.938135 126.633789
1.332121 7.709097 107.879288
19.454706 -3.602739 93.318939
-9.861254 -14.178684 75.661850
-8.867288 6.169693 146.473740
0.824876 -7.259921 144.042114
15.187243 0.046984 131.575729
-11.843630 11.915442 101.759544
-19.433228 0.175584 148.769424
16.563641 -8.413624 68.194939
-13.671151 2.558558 151.567734
3.264592 -16.530993 111.684570
-4.544022 -15.261462 127.123093
10.974360 -12.809169 100.494522
-18.020330 5.022681 93.120651
-11.777467 3.651830 122.018600
13.850183 -8.967647 110.839233
17.905222 6.330212 89.898224
-14.854248 -4.268488 130.186813
-10.412399 9.536793 134.449219
-20.913210 -6.244113 92.012070
22.056913 5.360785 130.377640
10.563409 7.579358 115.676186
-13.633595 -5.099658 120.892998
4.525761 10.148432 124.572464
0.639677 9.186984 121.204292
16.683569 -2.314379 107.462997
13.498652 6.706902 106.981850
5.200651 9.255265 114.947296
-5.371893 -15.003872 77.745201
16.025101 2.787016 111.301163
21.319897 1.046930 85.812515
-15.383665 -0.006404 113.676300
-3.291530 -15.884668 101.654007
-2.111021 10.399229 91.239647
-3.244425 10.793683 104.694557
1.340232 11.693209 99.425079
-23.490538 -3.155371 130.042786
11.523252 -12.884752 127.760231
-8.843689 11.658311 100.959549
-0.654488 -12.031632 87.941727
-1.045829 -14.950794 109.732910
-14.745639 -3.774752 116.432144
-27.898890 7.436094 126.970337
-1.733386 -12.404101 79.872253
0.160023 7.156350 119.433556
-17.335474 12.521035 140.153961
4.052559 4.919678 115.070251
18.854010 -0.063100 96.734772
-14.348680 1.883498 112.081017
15.112513 5.337372 133.324875
-9.116532 13.503921 93.144417
13.046543 -12.927711 70.837776
-21.588200 -1.177719 73.590691
10.702348 1.970343 118.652718
-8.901570 8.305201 120.579849
19.221119 -2.342986 141.002380
-35.046936 5.844148 131.042786
-18.687599 0.383517 82.641609
-10.889664 -13.398381 132.464523
-12.674005 -5.464095 135.425888
-16.782307 7.908706 74.323494
-17.825590 2.147132 100.596283
-20.173651 -0.380781 134.065903
-14.847253 -4.175620 135.101028
13.918219 2.366626 100.038193
-7.661458 -14.267204 130.362534
-4.624841 -13.124887 116.596405
11.338754 7.971340 112.183662
-5.721779 12.125852 77.441498
-5.874737 -14.279803 78.302231
-17.244202 0.459525 98.034698
-6.497710 -14.766026 135.500198
22.578392 1.442775 139.749969
-14.235266 11.166971 81.794670
-17.816109 -5.066840 97.480003
7.438037 -7.145491 141.706863
18.308758 9.848699 140.871902
-17.728155 -8.659856 73.708000
-14.400215 9.790874 84.386765
-28.398588 10.232772 130.008713
9.998099 -15.233337 101.013031
-2.161433 -12.896704 84.460426
-5.969187 -12.325747 126.218819
11.153909 6.735883 121.895042
11.309600 -10.806492 128.225113
18.009172 3.181124 135.166473
-11.253810 -12.380857 84.582138
6.980962 10.394960 97.345528
-7.201673 8.569760 105.393631
25.527271 3.479834 141.852753
10.498442 10.266521 98.570702
-13.677631 0.628758 118.930557
-21.045710 7.092893 148.844528
-18.709049 -7.481044 85.242371
-8.413794 14.871208 79.657707
-12.345017 10.129166 99.223083
1.779421 -17.421389 107.717133
4.655280 -11.148211 102.598831
-30.221762 3.885506 134.733765
-15.905645 10.517079 147.437866
19.659382 -4.272855 79.794090
-16.777140 -3.029930 133.853195
11.530521 -11.568836 117.518578
17.433680 -1.066152 132.352631
-24.389765 -0.668009 137.726685
21.465887 -0.472469 68.553474
-3.758404 -14.347260 101.628922
10.431729 8.819955 138.320023
8.010715 11.702807 78.173370
-12.975917 -11.065752 114.917755
7.753654 11.645538 71.408882
3.131013 7.595734 115.907837
-12.546942 -6.186749 132.395340
19.702427 -1.364173 90.592171
2.436576 -18.618925 71.025436
23.964401 2.999804 126.475304
20.231771 0.401034 142.976395
6.040382 13.834667 89.328514
15.226296 -10.542463 97.941696
-12.922781 -1.288014 138.253510
4.154329 -12.110490 128.874908
19.237156 4.643155 71.895554
17.351404 -0.256318 108.636009
5.356093 -14.245690 111.778229
-25.431437 -5.084176 138.017319
-18.640001 -2.235616 134.101227
14.527920 8.845878 87.553139
12.854970 0.181391 115.473511
0.452489 7.660289 108.995529
-17.992090 -2.498452 97.706993
-4.940324 -14.895874 99.247337
19.518902 5.456391 76.839699
12.722625 -12.248264 80.856445
7.585747 9.507531 129.373459
-28.934853 10.629747 129.696487
22.903168 -0.675005 137.519684
-19.287579 1.938757 86.618134
12.161988 -4.478849 138.729034
-1.405913 -14.048232 107.076874
9.273144 6.329939 127.423775
-14.644484 7.387661 74.976662
5.004851 -12.738290 74.918213
13.767323 -10.068878 75.850624
-12.445687 -11.626230 76.325996
-4.792102 -13.760105 104.180138
17.202330 -3.305151 145.912292
18.989866 -2.426161 142.369125
15.925142 -5.578814 112.663300
-19.588095 -6.555184 79.165947
-6.438729 -12.623290 101.708565
4.585234 11.318931 77.078316
16.997704 -0.282401 149.071884
-20.172327 9.141051 137.378387
24.086569 8.539562 135.051315
-19.816401 -2.646180 142.762421
2.592462 -14.001420 125.971169
17.881567 5.014803 78.984634
7.761175 10.038962 130.100311
14.085582 -7.291106 112.431610
20.287235 -7.419905 79.327858
15.666802 -0.818795 136.745697
15.325455 -12.717909 101.687172
13.315541 2.866502 117.178421
-17.751648 6.440918 86.389465
16.682503 -2.369922 138.336182
-25.581245 -3.730884 138.512329
-11.614777 -13.615973 133.499680
3.853399 -12.652791 118.294731
-13.807283 8.116172 132.932953
-7.776270 11.674971 74.116547
5.139246 -12.631951 84.814034
-22.692366 1.888904 125.584946
8.345625 6.421268 124.386826
20.123331 6.998678 146.701233
2.636369 -13.930395 102.729225
27.193998 7.071484 133.392181
-17.144003 5.520612 68.769684
16.068764 -10.733808 83.144806
19.816698 -2.676439 86.106445
-6.909427 -12.184505 136.910431
15.592300 7.771753 73.553192
28.254551 0.550819 131.433441
-3.328133 -7.731684 142.391144
4.120272 11.440022 103.374847
-17.461319 0.181103 104.201096
-19.201437 10.302173 140.753723
-3.217541 -12.473258 78.053185
16.744614 -2.069021 132.812286
2.391355 -13.991488 122.519051
3.906961 -15.512496 113.168175
6.701495 -13.891721 128.912552
32.495407 1.983774 130.077332
-3.966406 -15.510453 91.255096
-2.169239 -9.757541 135.751038
-21.285877 0.628827 129.354660
-8.016438 13.510149 73.361313
-15.190758 1.128821 140.235138
-13.495396 -3.170338 126.663673
-21.036551 -2.863384 68.498444
14.465300 10.110390 98.989891
-2.666075 5.266581 117.826881
-8.486004 9.436561 131.621414
13.404064 -11.115396 85.343109
-11.293285 -8.043316 130.817032
-20.908588 6.956557 130.755188
15.669247 0.608729 146.360504
16.331715 2.670883 132.986786
-22.688889 3.188416 70.862282
-21.935213 -0.393920 145.645340
-18.024221 4.394178 97.106316
-11.476730 7.209770 133.628342
-29.162533 9.046182 132.200592
-15.595633 -2.481223 105.145065
9.862574 8.907927 104.710403
-11.692674 10.155603 75.609741
4.209363 6.629303 108.514297
4.181211 -12.675561 87.768005
24.081253 8.750191 143.802017
14.340057 -9.534905 103.066254
-18.311234 7.285311 76.328590
-5.613317 -13.833283 133.008682
-17.032671 -8.353270 73.939011
-12.908701 -10.492394 116.425972
-4.658241 13.811839 94.175781
8.263778 -11.260357 65.983734
-15.884673 7.273943 90.280525
-17.478584 8.173323 133.104767
13.906831 2.962531 127.306305
1.616221 -16.649031 66.974281
-27.279390 8.136804 132.446014
15.902016 8.857865 89.736420
-21.645004 0.477704 84.000374
-15.223377 7.715746 93.904228
-9.315395 -12.537540 125.196579
-18.509533 3.558922 84.692223
3.258435 -15.289654 72.941368
-14.905988 -10.750124 84.511246
27.043774 1.119238 126.973366
-5.701729 -15.552158 87.635429
18.586021 0.801461 102.872162
3.333713 -14.688130 126.007736
20.059193 10.214602 132.526688
-12.871650 -2.668613 120.410881
-14.043585 7.599953 99.378090
-12.460232 13.361499 88.822289
-4.568843 10.802732 100.576294
-12.932755 -5.607758 127.614700
28.492340 4.288056 135.098618
13.700578 7.837565 130.923325
-0.924988 9.002245 108.514725
7.329278 -13.581113 128.121643
-9.828530 0.964880 113.615654
14.832384 -9.815693 90.700439
28.949993 6.565296 132.443619
-13.811814 4.672215 129.037521
-0.907487 -13.608343 73.412170
9.974450 4.531363 118.822937
19.078577 1.648632 147.881302
-17.933872 6.166182 86.273613
25.602873 5.414006 143.642792
-10.612442 -11.723857 122.560333
11.703548 10.560831 78.796951
-12.715705 -3.470781 142.391037
13.014004 9.842526 140.756622
1.765639 -14.330169 125.525070
4.438233 -15.477082 96.502617
-1.627062 -12.128121 103.034294
19.734688 10.323303 147.116867
-17.548649 -5.799153 91.029694
10.366927 -13.879215 132.773499
-20.106440 6.981609 147.740799
-5.387778 -12.270452 98.177361
-20.773048 -1.662812 77.642960
-14.537783 -1.035304 128.965179
32.447094 7.466874 132.446121
14.436422 -8.071180 102.792709
-11.510010 11.437794 93.480499
-1.629476 10.734451 132.908524
-13.433722 -7.473071 133.337952
-0.971799 -14.893792 127.316689
-7.361250 12.169932 92.512680
19.807085 10.735085 137.090744
5.587783 11.592244 132.326370
9.213774 10.387922 100.717064
-14.526397 7.407616 81.698845
-6.876353 9.491777 108.441444
23.284285 -0.773743 141.480576
28.211685 7.865038 137.803223
-9.845201 12.768118 72.928864
6.198133 8.067298 123.158577
3.458489 -11.357064 85.368889
25.972277 5.373447 141.101700
19.541805 8.342439 135.656555
-12.743160 7.481113 95.029587
5.142602 -9.246285 73.260429
-3.075783 -10.931155 128.403580
16.341099 -5.027251 136.574112
-8.978618 12.042049 93.281952
-1.414606 -12.612823 86.804596
-23.968105 0.800200 128.743179
-16.600822 0.111812 108.295944
8.981716 -11.429162 133.349579
1.213903 -14.008869 104.135727
-11.418954 -12.652665 101.832718
22.993799 -0.268012 127.586807
5.175625 11.902870 87.437424
-31.331627 6.777909 131.007111
-10.774375 -14.665422 107.234779
-18.476009 0.538807 90.655403
-17.959095 -1.493251 104.353996
-18.975899 6.643363 78.772270
17.687170 0.170359 144.236008
-1.153779 -12.630519 84.895302
16.477682 -8.891241 133.540909
19.599333 6.202112 77.521980
-18.710310 5.937073 72.665909
-10.895566 10.247954 138.005219
-15.737128 11.722468 138.648529
3.273586 -12.565521 84.816177
18.927574 5.026809 87.353828
-15.333527 4.558313 149.364075
18.842642 0.775948 141.904297
-25.078133 -4.192133 127.196945
-9.658622 11.819785 81.969070
-21.509216 -0.197842 144.328247
-3.707842 -12.888455 92.716919
-3.784428 -15.120348 127.571167
-6.996492 -10.983341 140.037186
-18.503508 -3.712231 147.319458
-19.222351 9.451565 145.101929
-0.562513 13.514628 105.556931
5.428624 -9.994766 140.615906
26.099163 8.073000 127.212761
-8.368367 -13.177821 118.347916
15.044980 -4.092746 128.537918
3.978508 -16.192980 132.485016
27.910553 -1.503284 123.991135
-14.624472 -3.833137 140.321350
-30.841078 2.674270 133.962799
12.648306 -7.558376 125.187866
14.028952 -8.844666 83.485107
12.528180 7.998337 114.162964
2.934966 8.264519 124.478874
-17.592497 -1.411305 135.194138
-25.791801 7.738374 137.678284
25.157499 10.360023 131.561432
5.036407 9.746981 121.070221
21.401125 8.629438 143.527863
18.555565 2.599388 92.608688
-7.624464 8.571024 105.886513
-27.568932 -2.233563 130.438751
3.754519 -13.589087 99.843925
-2.933017 -13.248751 117.204201
3.375846 -13.739584 80.493271
15.204099 3.148614 107.204575
20.280050 -6.015071 71.778740
0.657995 -7.472643 142.118515
4.814540 -13.826307 92.046837
-14.786549 10.923237 141.619049
17.433952 6.450901 69.412506
-9.212306 -11.968413 126.445175
20.418119 -1.309449 133.969376
-19.199816 0.762283 133.208450
-16.423658 12.965136 143.035706
-2.799619 10.650904 101.236565
-7.574056 7.702318 111.000862
16.490942 8.378311 138.793961
-12.048028 -3.525495 143.771698
11.932432 10.949917 100.262932
15.470635 8.832078 84.283600
-10.057579 10.820284 95.487053
6.969027 -14.208783 93.501915
23.302242 5.799846 132.312210
15.819645 -7.957936 108.721596
-0.024668 8.193827 106.969467
-16.836906 8.703050 148.773529
-12.354734 12.324229 71.841934
-1.624780 -13.931550 109.871201
-13.148151 7.781765 120.619858
1.686243 12.881828 139.155045
-13.814507 -10.572697 92.629356
-19.189289 -4.910539 79.709290
7.322267 12.824076 78.189880
18.526512 2.652452 103.394241
-23.023022 7.114573 130.168228
-0.051083 11.177959 133.121918
-22.856058 9.636431 134.341232
22.983217 -1.250155 124.211121
-11.970524 10.205228 89.460159
12.986938 -4.561138 128.661591
20.258085 -1.026816 89.193802
15.000894 3.950622 103.250648
4.823914 -14.456189 121.819290
-15.305596 -2.005457 143.592743
22.670614 0.753163 124.048416
19.315371 1.518709 136.444687
4.363332 10.898950 98.071793
-1.102635 10.595948 104.139420
-26.983831 3.305628 134.111206
-6.586536 -15.175273 80.816628
20.365608 7.391904 147.600571
-15.996502 5.816644 96.592880
-14.732989 -3.901754 140.099380
-7.930774 8.021586 119.776428
-3.671535 14.517873 95.885193
3.186980 -11.425355 88.296799
6.152694 11.519692 105.119553
0.180155 -11.856310 103.194962
0.712650 12.742360 87.012390
13.463858 8.361702 100.951172
-17.730022 6.477563 83.815430
-4.864007 12.050262 75.963058
2.091622 -14.926003 102.477112
-4.415427 9.165214 110.544571
16.023376 -7.117649 100.883507
-16.590216 8.170372 79.092796
-15.428988 -0.929785 142.261246
13.278578 5.115122 108.084351
24.760693 9.319318 137.522354
33.369514 5.743762 131.929810
-13.837742 -9.762856 95.235512
11.767570 10.237404 84.540230
-17.533749 3.773416 131.687790
12.713758 -2.255931 122.882645
15.887181 -1.928526 133.283722
5.387196 -11.611924 115.737968
-5.256755 11.605025 72.856499
8.283312 -14.565250 117.503342
-24.461424 2.465476 127.493027
-14.229968 -4.519266 119.782463
1.716052 -11.461113 77.599098
11.214369 3.759327 124.562729
-13.412603 10.601549 80.622208
-7.047831 5.343602 116.136238
-2.729104 -15.023534 97.337593
-8.301679 -12.749889 124.619606
18.535625 -8.458817 81.549393
-12.461898 9.440366 72.374542
9.444955 8.894572 128.961029
-16.173962 -0.226189 106.614197
20.741013 -1.835922 75.271935
-12.371947 -8.842643 83.925293
-18.945135 7.523575 73.664909
18.413136 -0.453375 91.875473
16.437143 5.366895 98.773880
14.161020 1.883477 134.156021
9.413427 8.975379 112.345116
6.900938 -13.295397 94.196838
-19.251987 4.114714 93.292679
21.876904 10.932493 142.580795
-17.439209 -7.624290 124.976578
-9.346217 -11.717500 87.830711
-3.241727 7.179711 110.093285
-14.787412 7.919081 135.287216
18.175375 -9.829268 73.928772
26.854591 6.269241 128.397018
15.216997 6.317985 85.206146
-17.106459 0.897166 101.064087
-12.996990 -10.040932 84.994194
-18.217901 5.660919 96.401672
4.589517 -10.456517 90.327728
4.304627 -14.829926 79.077698
-29.030361 6.795423 138.754990
16.774021 -7.809654 113.365723
1.412114 12.681805 104.130463
-17.357498 -8.776818 87.908836
-16.603962 -1.298992 144.706177
11.922254 -12.996717 108.933281
17.640699 -6.539577 95.311638
24.041441 -0.888497 140.363754
7.219000 12.047112 134.236816
-12.249832 -5.626081 123.626686
8.299467 -8.830888 144.857269
-15.282482 1.910766 150.289642
-28.547752 -5.056000 130.491852
-21.956547 1.716877 69.457031
15.853726 9.569361 145.180664
-12.566067 -9.397871 135.883545
-25.137865 9.433153 134.002243
-7.236222 9.135807 123.124458
24.007761 6.667970 139.523209
19.522581 -9.581585 68.144623
19.010948 1.225270 150.527466
-21.968166 0.317574 82.116638
7.182319 11.721879 73.256721
-24.393028 -4.381728 131.301086
-17.229071 9.716463 73.692223
-14.575745 8.209416 99.498322
-1.552777 -13.250057 80.081924
10.100339 9.587655 84.584396
-29.534821 4.038989 136.805679
-10.608608 13.928613 74.927406
15.865481 -8.163250 104.162483
-20.712942 -6.918394 69.726936
-11.993185 -10.999305 99.823601
18.215771 9.721279 139.174286
3.446576 10.440227 104.542877
0.855936 6.265700 117.029984
-12.452471 -0.225736 126.486076
-32.478176 7.262182 132.458557
2.632621 -12.269217 137.080383
29.014454 9.619653 133.160202
-25.782742 -4.352880 137.347595
17.092247 5.150008 93.271042
-5.530008 10.693187 88.761391
18.695141 2.984699 134.579666
15.459675 1.560591 108.254364
16.417149 8.885979 83.083534
11.527760 8.838623 131.576859
13.001184 0.019081 124.331017
11.936476 -8.890087 127.199753
13.352532 -4.034104 128.881866
-5.072454 -14.728065 96.827560
-7.821950 -13.815164 132.829834
