ply
format ascii 1.0
element vertex 2048
property float x
property float y
property float z
end_header
3.924581 1.441437 59.607555
-12.115213 -11.374949 72.637779
5.392855 -14.237425 72.136780
12.904867 0.121963 68.210564
0.487201 3.120432 68.444641
-18.545334 -8.278130 82.873947
2.693713 -13.080780 105.856544
6.431961 -15.277693 93.394791
14.070065 -5.516394 59.805820
18.335253 -7.117537 81.466103
16.222427 -10.810135 83.153641
-15.233021 -2.242072 78.149681
-8.097757 7.852343 87.485016
-0.886541 -15.741289 91.702553
-11.609652 -6.593606 107.190422
16.682364 -5.841707 97.865486
-13.876894 -9.318550 68.176765
14.658076 -7.584134 95.857414
13.750996 -9.809855 72.544235
-16.701694 -2.060193 88.426178
12.951500 -0.093430 77.947350
-4.421638 10.100906 92.225212
-3.286757 9.836409 97.328186
-10.933665 5.316905 103.622772
14.892657 2.851358 100.674622
5.033656 -15.695367 84.673325
13.418569 -4.485086 107.952072
3.248251 5.161366 72.221001
0.431131 -15.368478 80.742249
-12.914158 1.155686 107.840469
-6.066321 7.887549 77.938782
-16.036942 -9.590242 90.544464
9.561993 -12.355332 69.155350
16.337925 -10.797393 93.692207
-3.393248 -13.760942 99.168930
1.639922 8.799815 92.625671
9.021583 -10.402550 105.761330
-16.148640 -4.288529 100.769112
-2.348507 6.604179 73.302498
13.197092 -11.903999 98.309380
-1.531043 -15.180692 86.974251
1.414396 -14.802986 96.190392
-8.987145 3.042085 110.434387
3.900610 7.951271 85.214111
-13.531092 -11.277304 93.433838
14.935922 3.538019 93.353249
0.147848 7.338414 103.505447
10.114687 -12.079440 105.054054
-4.374975 3.490370 66.647972
-8.862156 4.943985 80.688408
14.393253 0.573270 82.147957
-13.890261 -12.818573 82.359108
2.146503 3.586549 58.379341
-14.767414 -10.609643 95.367355
0.137752 8.973593 87.232025
11.043932 -7.755925 60.192383
3.826108 8.684994 100.441025
1.632733 3.420669 64.977493
10.340466 6.972930 88.638618
-12.089397 4.488757 81.968681
18.781071 -2.517156 93.448257
13.560319 -3.198033 77.885895
-10.147348 -10.873462 100.978294
19.212122 -2.573558 96.841682
-9.356044 -13.706194 78.830734
-10.115658 6.871543 81.078217
11.091854 -0.071538 60.688591
6.476262 -16.583967 82.818275
14.018826 -1.476484 73.771568
11.504163 5.483895 81.550919
9.505624 2.055249 58.457340
-8.950881 -13.563487 89.412155
17.523739 -2.953295 84.463837
9.769385 3.211164 111.860458
8.084168 6.607230 81.153107
15.777970 0.708275 98.324486
-6.732145 -10.444030 61.903076
-2.446931 -9.342664 58.195717
16.246429 -8.653519 90.090363
-0.580121 7.371259 76.163956
-13.488150 -9.903942 100.017967
12.628849 -6.824111 108.257065
11.923567 -12.871901 95.420830
-1.003398 6.782785 75.727272
16.798203 -5.737294 75.575150
-11.103148 4.097196 79.031982
-0.476037 -13.913656 104.791275
-14.688354 -1.150023 74.428528
1.015545 6.376613 73.386414
-6.722301 -14.779148 81.296059
-4.365010 1.608301 57.663658
13.930282 2.146894 102.056267
0.070712 -15.597130 99.840263
-2.353698 -15.937482 86.906769
-9.002837 4.715141 108.500061
3.705575 10.078589 87.153313
-13.810946 -10.699594 95.863976
13.747689 -9.696952 77.600616
8.483899 5.492381 74.109406
-15.005280 -1.306630 99.463806
8.292797 4.338632 110.130394
18.521534 -7.907314 94.241486
12.392911 -12.816001 86.781662
12.593128 -9.655645 103.817139
8.203646 -15.311647 75.819717
-11.664212 2.313863 73.988235
8.861279 -12.877766 71.257477
11.846017 -10.334630 67.679047
-10.845301 4.744189 87.909576
-1.478228 10.149703 93.012924
-10.309414 -13.020491 90.378357
-15.164352 -8.109967 67.432014
-18.511026 -7.679756 78.685028
-10.893784 0.570095 107.789322
-12.482483 -3.297550 107.623703
-2.759954 4.266449 65.248116
-5.133540 -13.113435 72.358047
4.384156 5.177125 69.682884
-3.613152 7.627063 81.260727
11.091321 6.040744 78.343513
-8.014810 -13.186851 72.595627
14.509942 -11.640800 75.558952
-15.867256 -2.947597 90.291504
9.974965 -12.519951 74.103294
-15.854624 -2.984215 84.407677
-2.782045 7.042852 75.074844
6.280750 6.658083 72.902100
4.200011 7.565286 80.496552
-6.566789 -13.149041 92.683884
-15.047427 -1.865235 79.162064
-17.322052 1.229511 92.020355
-19.022188 -4.975901 88.499420
-15.839314 -8.494205 76.759933
-9.448926 2.162875 67.375328
12.201864 -9.730176 105.127647
13.622499 2.913357 96.890480
9.934843 -11.637234 97.609207
14.988827 -0.293567 103.617996
-5.610230 -13.233083 107.502853
-6.138290 6.122888 109.417282
-4.299998 11.386080 89.948502
3.900632 7.692749 102.591454
-8.255150 8.749162 95.453606
-10.875294 -9.323112 104.826149
11.614979 -4.828667 108.989479
5.624341 8.574533 81.746803
-1.986917 9.982974 92.828003
-2.173000 -16.447245 88.924438
16.565119 -7.081499 96.853874
-7.787746 -14.777012 80.759407
7.684663 -9.761414 105.463760
14.427855 -2.695750 59.020111
-1.746729 -16.271370 86.654007
-13.447676 -7.641181 64.454926
-16.335205 -2.149923 100.757774
-14.786509 -0.435806 105.394707
-15.272350 -10.311376 79.959038
4.342372 -13.050326 69.324455
3.518183 9.656843 100.049171
-4.129007 6.630512 79.767944
2.942804 7.916524 89.268944
-2.210738 7.197427 73.904541
-7.028100 4.695158 108.872429
-10.691431 -9.598619 108.451126
-15.154445 -5.591351 71.411575
12.448077 -2.726825 108.104248
-4.665679 4.329664 69.773323
-15.100738 -5.369835 62.487873
9.386994 4.413116 109.791733
-4.237468 -14.155230 98.863380
-13.602835 -0.665926 80.880585
-17.736513 -3.803484 96.738594
14.645446 2.934567 94.836388
-16.512758 -7.817631 93.073120
-13.286720 -6.124438 101.832130
12.280398 0.383536 58.947315
-11.164650 -12.953135 78.423744
-12.793767 -0.905696 72.212593
11.537108 -8.389723 106.192879
-14.441154 -8.869920 97.355179
10.582653 2.743986 71.010872
-14.006825 3.012268 102.302872
-10.848478 -12.776777 91.192719
1.798020 -8.717230 56.659382
13.604001 3.736416 103.634201
-0.485454 -15.096207 81.015800
5.110453 11.365433 96.858597
0.203048 -13.418032 105.082420
-7.619285 9.658505 96.272346
-14.395353 -6.489965 100.054443
-13.391559 2.891862 88.876892
-14.642137 -1.854895 104.422585
9.976903 -10.030165 106.371719
-19.176592 -2.486109 95.411247
13.916934 -10.595261 97.244705
12.005987 3.514405 72.811234
1.328692 7.471123 104.024300
-18.089933 -2.644113 98.863045
7.256595 -6.427969 56.350025
-6.421351 -13.289667 97.530144
15.483605 -8.963638 77.229469
-16.355610 -9.768902 77.452637
16.693823 1.449577 93.550827
15.237023 -8.363689 75.154114
5.021702 7.402504 81.896156
10.928414 4.350168 101.114235
15.277726 -6.157777 71.595200
6.026901 -10.847434 61.642700
13.457059 5.386311 95.397087
8.092322 -12.097490 103.634239
-18.462879 -7.850776 82.027214
-4.523838 5.314756 110.831711
-13.560888 -3.529503 70.228279
4.323666 7.376025 100.118027
12.747537 5.544918 97.356880
17.824863 -6.404680 98.811470
-17.274117 -5.516306 96.479912
-4.516886 -13.116962 101.922783
-13.417282 1.010055 96.913383
3.741283 -15.612324 93.769890
16.980913 -4.016066 94.538719
-13.098314 -7.807670 105.946335
11.963253 3.266749 81.169861
13.511167 -8.064643 96.302780
-13.422983 -5.736632 107.576675
10.946324 4.556034 104.201294
-18.144604 -7.322748 81.393471
-11.922969 -11.497374 66.899590
10.024475 2.614037 65.061584
10.738795 -8.958713 106.778473
10.597157 2.338934 111.213196
-12.983783 -8.977463 103.306023
1.733950 7.663388 80.057152
13.961534 3.948827 88.124725
-0.872796 -11.823357 60.964653
4.148585 -14.714007 87.857025
-13.950580 -3.480374 102.567856
9.788843 -12.718575 81.781685
10.568063 6.684632 84.878860
-14.677929 -0.701214 74.314651
8.770248 6.831112 85.844879
15.839529 -5.850924 98.453896
5.696368 -8.443264 57.165680
9.670044 2.709418 60.860607
-2.105078 -9.773359 58.532673
-3.499904 9.474942 99.244820
13.735113 4.121216 94.006569
-18.308596 -4.810197 82.103249
-15.993831 -3.369507 71.803085
-1.729543 -7.501138 55.253933
-14.069833 3.258305 105.452057
-10.719510 -12.002265 100.908463
-14.445649 0.312239 73.577888
6.718927 -12.099788 106.370323
-3.470309 -15.026926 82.466942
14.922353 -11.873677 81.605034
-15.439057 -8.814816 77.932198
-18.329756 -8.687749 92.672798
10.128031 5.276305 77.091934
12.198256 -14.196212 83.708321
17.222692 -9.987395 87.145088
-12.204655 -1.078490 61.984066
-6.469850 5.852204 109.188080
-14.621350 -13.100612 81.726318
0.225128 5.754795 72.610435
14.793164 -7.660191 61.784332
-15.946710 0.864366 97.950089
-16.564661 -5.029428 78.725479
-14.889876 0.248748 81.301895
10.452698 2.685845 108.685783
-14.463438 -6.845284 62.843376
-2.068388 6.345958 74.443886
-15.107098 1.794073 101.525726
2.764419 7.426132 102.702515
-13.741539 -6.748583 103.326981
-8.393200 9.015174 97.607910
-2.927321 10.530527 96.234703
4.365148 9.034446 83.589203
9.972111 5.786663 75.825226
-13.596091 -8.422213 101.928253
-14.460638 3.497447 88.850021
14.439548 -12.473882 98.162140
14.243324 -8.766791 83.402504
-7.689546 4.728867 67.296150
-14.364902 -9.661530 96.660820
-4.405515 7.830112 104.493057
-13.184045 1.841160 106.720367
7.337752 3.050015 57.095020
2.208890 -16.140726 79.905350
-15.412386 -5.891096 69.826378
16.661608 -3.223574 78.284286
-14.077950 -1.588748 72.494240
17.336061 -8.097679 96.385735
-9.682802 3.984493 105.372284
1.247762 -16.124924 87.867126
15.161708 -5.229485 102.036064
1.350354 -14.964687 71.818954
-1.191950 -8.854901 57.404808
-14.548662 -4.074968 69.571533
3.811842 9.384247 85.812820
-12.502950 -11.559651 89.510658
10.884555 -9.176869 60.253174
-10.252435 -13.017174 79.344681
5.656074 -15.267045 86.991524
11.724559 4.353388 105.494972
9.618733 -14.488779 88.586235
-6.328660 4.437730 62.928940
14.237298 -1.398147 77.791161
12.746787 -8.791234 60.222065
10.641874 -10.630958 64.609879
8.708467 -14.070421 91.274002
4.479549 9.378862 91.482094
-7.228454 2.924030 65.400772
-9.677957 7.801059 104.075943
5.737447 5.650837 74.100601
-9.235793 -13.230208 97.643837
5.403824 -15.020450 92.728157
-4.132212 -13.341398 98.591614
10.290933 0.515249 62.857929
-15.361989 -2.349226 60.696030
16.959885 -7.754791 86.748161
0.853664 7.060572 107.465073
-11.104065 0.627660 107.501862
15.046404 0.322091 102.241982
1.561869 7.000623 76.668633
15.916144 -10.677526 99.419525
11.104296 -14.770044 87.484444
7.610689 5.713066 106.089676
-4.076424 0.376376 58.745205
-3.456494 5.020929 108.689514
-6.525414 -14.273296 98.936829
-9.170848 -13.403453 100.150024
0.214579 4.913790 67.711571
12.915253 1.341319 78.877060
-15.787127 -1.403002 98.360847
-0.117790 -12.851976 70.019379
0.636864 6.781770 80.203148
-8.517710 9.428189 89.075935
-17.859118 -4.916262 94.999580
2.446307 4.336841 70.412582
-0.056932 1.707843 58.726116
8.000033 4.001669 108.920937
14.310487 -8.353153 73.421700
7.987597 6.437105 81.037003
-11.357534 0.838542 107.680527
7.126660 5.847125 77.479668
1.342093 -9.500073 60.204987
14.057600 -1.676521 103.841255
9.445903 -15.076016 87.743736
-3.480275 -14.902835 94.965805
11.367877 0.733782 63.403263
-11.269701 -12.016885 76.100983
-3.821025 -12.682381 105.351746
-11.421413 4.861596 103.553604
11.873508 0.601397 76.406555
-4.037815 -12.921812 72.182999
1.729303 2.221238 61.101181
7.298195 7.191558 104.697678
-9.863487 -13.101630 72.759109
-14.105058 2.389723 91.317284
-18.024336 -4.632583 92.608757
14.214295 -2.526046 102.010681
16.557919 -2.110368 80.808342
-4.818527 9.559549 94.057175
12.921111 -7.835260 105.825546
11.133060 -11.684620 68.988113
-10.684335 -13.471534 88.401527
2.775449 -15.707046 93.753510
17.624382 -3.789731 78.007698
10.818465 -14.585329 84.466789
0.477828 7.783320 86.812492
-14.326252 -1.582371 63.298573
-3.732153 9.827598 93.475197
19.134630 -6.446482 93.480835
13.814268 -11.980265 75.328125
-12.937943 -5.714948 58.061703
14.351686 -1.086153 105.951347
-19.421442 -5.003720 90.362755
-14.687816 2.794297 102.478027
-13.403064 -2.245756 103.933411
-14.071095 0.313650 74.492981
3.844606 4.964621 111.376724
6.392004 3.264835 61.857624
-10.723908 3.693815 73.951111
-2.213530 7.181024 101.623024
-0.611690 5.222740 72.728157
6.124924 -8.645479 58.951817
-17.931057 -5.378669 80.314110
-14.792021 1.337933 83.692047
14.264712 -8.943122 93.929153
-18.702923 -2.270950 88.437828
-15.990103 -7.869641 74.462257
-6.012058 -14.407933 97.346077
7.106441 -13.543093 85.424530
-4.407467 -12.464926 70.421364
-13.217236 -5.468932 105.954247
-19.276558 -5.771425 85.227020
18.535067 -4.088690 87.181145
12.715510 1.910895 81.525345
-1.266268 -12.781587 104.431160
10.797273 -12.563446 80.468941
4.246364 9.931300 86.365479
14.822750 0.586360 82.835350
-17.365654 -7.777205 84.139893
12.049631 3.083283 73.891617
-17.672470 -0.842312 87.235207
-4.655847 2.410144 59.753166
12.051560 4.831498 104.933548
5.047081 -13.226502 99.556290
-10.661851 1.574968 108.506363
15.374357 -2.238585 105.080078
-1.185821 6.471536 105.033203
12.556875 3.345493 86.913567
-19.453436 -6.055883 93.042206
0.028690 -9.341619 58.462109
-17.875128 -3.723242 96.233139
0.207163 -12.213716 73.112907
2.634594 -11.487343 68.040794
16.141529 -3.232403 68.193008
-4.772726 10.081118 94.447571
-9.599607 8.217885 96.734161
5.669981 -15.625992 86.567276
-6.684215 2.224668 59.013283
6.617596 -12.336206 106.455856
-2.297851 -12.188107 62.343098
14.486363 -10.921030 89.753105
-13.424984 1.136868 104.860420
5.487973 -14.300474 77.678917
10.318316 -11.890263 67.884819
6.175266 -12.684169 75.870308
14.096200 0.169974 80.168236
-11.263105 -12.863673 91.360153
7.983654 4.937082 109.844467
16.833933 -0.406466 91.056061
-6.387829 4.989151 105.715607
-14.933758 -7.236185 82.198730
-8.489254 -9.406132 58.094818
3.594513 -13.065306 106.964554
14.476891 -5.821136 62.755585
-10.130440 -14.531998 91.863953
-17.374697 -8.860929 88.562973
-5.448142 2.695729 62.856163
-12.735286 -7.998584 104.875732
-14.616584 -8.438876 81.550179
2.657903 -14.238700 70.242256
4.404975 7.928059 81.493294
11.809781 -14.026797 89.825058
15.396710 1.513727 87.639290
-10.943047 0.356782 66.448410
-9.368959 -11.578877 102.658890
-12.812952 -9.251086 101.596863
-0.542724 8.953237 101.906181
-2.310797 -14.971262 99.960938
-0.599097 4.498453 70.424728
-6.074124 -14.320237 78.607338
-14.449965 -2.961716 103.904510
1.448180 4.446219 65.298477
13.688837 -8.910054 67.004807
15.379098 -1.094300 99.746880
-12.602937 -7.016283 59.366032
-3.482044 -11.085724 65.609688
13.977308 -5.163514 63.022892
-11.089745 2.112223 70.138161
-5.590111 10.511193 95.238029
9.953034 1.131664 108.118813
-17.938847 -4.562266 94.345078
-17.277008 -6.579567 94.187469
4.457232 -14.641641 77.800262
6.009563 -15.511114 98.685959
6.965281 -14.407553 78.512024
-7.570846 7.642745 86.222740
8.283889 8.280680 89.377296
15.739706 1.742912 97.441933
17.815439 -7.218819 79.638512
1.714989 7.207622 76.541695
11.022470 4.067110 82.627335
8.324095 5.228772 82.159317
-7.098680 -11.835657 73.327469
8.778112 -11.762552 68.209297
4.685785 1.989656 57.789967
-15.634808 -8.562431 79.822792
-20.041700 -5.173864 83.380135
-15.739743 1.104844 102.147507
-12.866619 0.017190 72.236633
-20.776573 -6.680244 87.007156
-4.037465 2.136946 58.907780
14.281369 -9.942012 92.633492
13.729677 3.973401 89.508026
-12.510997 4.636613 96.465675
-18.030561 -7.558074 76.565018
-5.618503 -11.189627 61.979542
-12.365359 -10.880072 71.119301
2.656035 -16.274418 97.371208
12.259837 2.154306 76.134171
-0.750853 -16.505598 86.652908
0.986075 -14.523540 75.355850
-5.602645 4.781970 71.307571
-1.708354 -15.868194 96.849998
11.673365 -1.370342 107.490631
-3.328416 -14.533449 80.910965
-2.318356 -13.538844 101.527496
-11.475042 0.640603 107.396957
-14.485160 1.820519 88.361122
-14.850844 0.912008 86.299606
6.010243 -13.442620 96.302017
-18.230608 -2.887230 90.210449
14.357461 -2.731440 105.131432
1.750460 7.320132 80.285606
-8.192675 -10.722907 104.735954
-12.810608 4.621708 90.951080
2.553153 -16.131796 90.488571
7.884092 6.261110 81.338608
11.513762 -9.031587 108.085579
9.053052 2.321565 56.596809
13.633676 2.138401 105.005394
-4.525128 -12.673368 71.906387
0.663417 7.190604 81.855133
11.775601 -8.469350 59.665127
-7.269737 -12.889565 76.269905
8.889894 7.198275 102.056274
-11.769037 4.735284 82.324684
15.393659 -9.976173 86.157188
-9.589273 4.588912 111.035095
8.815320 -13.162855 87.281326
5.401033 3.168838 60.660641
11.393574 2.269155 67.968719
-11.671481 -8.904869 105.160301
-15.404551 0.414807 85.757065
-11.042430 -13.306747 98.165001
7.112992 5.073198 70.981796
-12.080790 -5.523431 106.746437
1.178834 7.807412 99.469589
14.016334 -11.899174 76.734131
-3.601817 2.291359 59.582218
-11.315461 -8.949310 104.693192
-14.713512 1.246423 91.862373
5.709861 -14.657192 89.398300
7.090860 7.575718 104.505760
-6.500415 4.541378 71.642319
2.919404 -14.843513 99.467834
-15.358848 -6.258216 87.164307
-17.752264 -1.588871 83.540115
-8.353448 -13.416573 78.269279
11.844619 -9.212812 68.424057
6.434436 -14.387297 84.522873
14.793326 0.199540 83.163918
-5.475448 -15.498761 82.615799
-11.316254 1.421906 71.293167
-12.401398 3.101454 87.696884
-3.708972 6.463266 108.728668
15.048775 -4.126871 61.165588
14.738345 1.932310 102.447876
3.356158 -14.572162 91.861183
-0.645198 -13.256402 106.382072
-12.209995 3.648666 108.634476
3.521483 -14.496367 103.326050
1.373281 8.676062 83.934479
-9.809203 3.541347 71.796364
11.818403 -13.732067 82.285835
-13.303518 2.841132 103.116226
18.577879 -5.803808 91.015686
10.790807 -10.306766 61.567001
11.042909 -10.430267 69.147972
-12.317326 -0.013100 63.977390
-0.544347 6.609303 104.206482
2.810846 -14.994020 98.390350
-8.283503 -14.689881 88.240814
-12.134010 -9.493342 64.395218
-2.694132 7.252065 102.505234
-10.428250 -12.657302 72.976089
19.612068 -7.387271 88.818794
-11.565840 1.407222 72.947853
5.230193 -12.066107 104.234901
2.463438 -12.375732 104.195580
5.818448 7.500905 81.539925
-5.056474 -12.101230 105.948044
7.097520 9.210320 92.560364
-1.791804 8.611150 85.821434
4.762805 5.875759 79.564926
17.287647 -7.924038 81.310524
2.531943 -14.300108 72.162117
10.012347 -9.748366 105.456421
-13.461722 -3.150781 63.340477
-13.828895 -2.050950 64.241257
9.049689 -11.473558 62.249428
5.829125 -14.354123 84.131561
-18.095955 -3.653160 97.076836
-14.760196 -1.825155 78.851707
9.654724 7.583645 88.801628
12.629838 3.789182 90.868553
14.069746 -8.346808 64.328094
12.627389 0.849005 73.140732
-3.522524 -9.630073 64.365875
0.119962 -14.146533 82.591965
11.255879 -0.115011 109.230217
-3.098801 9.407541 94.407593
3.354062 9.213141 91.436211
-6.190310 -13.425709 98.848991
-14.843780 -6.835196 69.100510
-13.728393 -2.097109 102.706810
16.682980 -1.288521 91.296234
-1.048415 -13.888867 81.500481
-14.110483 -6.371424 102.589966
1.586952 -15.941430 88.688362
-13.436341 -8.279668 103.673363
13.275275 -10.351026 74.730843
-14.796296 -1.647221 76.594261
-0.904905 2.892814 60.932022
11.743010 4.168578 74.457893
9.569579 5.821575 104.502853
-14.179799 1.742904 80.724266
-16.174955 -4.409434 69.213730
5.945326 10.740836 92.784744
0.414609 -13.539054 103.569481
-4.848907 -11.352710 64.118622
-8.262076 8.648385 88.664490
-5.752881 -14.366217 76.124611
-11.125649 3.784968 73.549873
4.669002 -9.475571 58.920620
11.344780 -11.876638 97.533447
14.028295 -7.914981 58.089088
16.173765 -4.349781 97.824944
19.028154 -7.841959 87.634941
16.096727 -12.895867 90.756493
10.903162 -15.022676 84.234360
10.632697 3.925150 71.789124
6.519931 7.137071 81.333092
9.259908 3.273418 110.055984
-17.539038 -5.130950 94.254852
-14.692382 -1.976735 72.105995
-8.271864 6.991968 103.729492
2.251488 -12.891076 104.291092
2.601767 -16.658764 89.856537
13.256445 -1.104373 58.598343
-15.618814 -6.722650 71.651093
-6.339235 -11.744534 72.344048
15.362872 3.893815 98.919373
-8.640663 -13.765496 75.666977
-8.383138 -11.334229 102.975388
2.381375 6.034341 106.807030
9.099319 -13.863708 93.314339
-16.144894 -0.874964 101.204742
-16.978807 -7.347824 86.557640
-4.241895 2.422417 64.502983
2.781079 9.263463 94.262550
1.545253 -9.785122 59.555305
14.652148 -12.810858 86.224602
12.270568 3.422243 107.217995
20.202795 -5.198761 92.956581
14.897186 -8.730105 96.196991
16.496902 -5.483881 73.449944
4.518736 5.709773 76.745781
13.208449 -4.727679 62.963295
7.674200 -11.672397 104.752975
11.536771 5.671683 89.970444
7.954309 -13.868365 97.619652
-0.695691 6.530726 100.378319
9.415891 4.776198 106.611290
-14.912756 -7.842653 63.936234
7.327856 -14.117956 87.180519
8.784484 -10.748583 103.850006
-4.925723 -15.279738 100.379601
-15.725340 -3.985224 95.950394
9.438852 2.019134 63.297413
5.042481 -13.394199 71.532394
2.848990 4.072286 64.484604
-17.946287 -7.576614 89.679436
-6.157797 -12.226885 98.439575
7.264637 -14.985482 75.505295
-6.750912 -15.499936 85.225311
-6.917157 5.577943 73.597084
3.260644 -13.825577 102.548508
-9.324721 6.052452 80.332504
14.635302 2.298548 87.949402
10.668192 -11.325040 103.429977
-0.442877 4.409469 108.965294
-12.628961 -1.179449 60.375732
15.321624 -11.028056 81.239372
10.443098 -5.221584 106.823135
2.023464 6.162560 109.154602
13.407077 -8.106686 60.969494
16.297245 -4.346137 77.511169
-16.355461 -1.221788 91.857964
10.740586 5.252908 74.051735
-13.624844 -7.843369 64.239807
0.661270 8.152589 84.068268
-15.475111 -6.807894 70.334892
-1.415422 -15.452776 80.036255
-10.495014 0.564491 59.536892
-13.069197 -11.350148 84.496773
-8.838948 1.969261 65.137657
-15.156052 -9.327657 86.534149
13.388154 0.402503 106.817177
-14.700897 -5.050417 102.576843
16.731995 -9.493076 90.809708
9.176065 -10.875972 106.909348
-12.429107 -7.224290 62.749546
7.751740 -13.521565 69.648590
10.572938 -13.511411 77.663956
-5.598123 7.146214 76.069061
3.234277 5.923669 110.506950
-6.758144 7.769755 81.745766
-2.862070 -15.504317 100.993393
6.713574 4.120511 69.178917
8.467099 -12.393854 70.252205
7.926078 1.669619 58.216240
-13.934914 -0.792465 75.367470
10.896708 0.782731 61.831036
-3.370959 -13.020508 105.067307
2.115505 -13.902186 100.399986
-11.997543 3.120850 80.027603
-7.170062 2.720472 57.872669
-19.688959 -5.215953 87.740501
13.175045 -1.243982 74.468994
3.977687 5.941190 76.538292
-6.884988 -11.358883 67.464676
-8.782379 2.395880 70.406769
-11.474937 -8.271528 107.479958
5.911454 -12.876836 95.399467
-14.858901 1.506930 95.950333
16.086420 -11.928509 79.988838
-12.638400 1.172325 59.576164
4.245734 -14.863264 100.623100
13.476682 3.413122 100.252647
-2.459672 7.092510 83.627525
-0.224249 9.383789 99.835945
0.248077 -15.380264 97.860138
-12.911884 -1.674168 61.224911
1.524004 10.072814 92.935593
11.837339 2.894176 61.225323
0.691456 10.101775 95.102623
-4.936065 4.146636 65.873528
6.110681 -13.947718 91.245117
-6.500596 -13.462457 70.465256
-6.640804 2.066005 61.119003
7.218697 3.727433 66.085983
-5.003924 5.894605 74.339622
-0.706231 -14.727648 79.739998
7.813392 8.875589 93.892235
-10.901710 4.410945 74.341888
5.186298 3.609309 68.305099
8.941445 3.427166 109.452789
-10.873766 -10.758264 66.495911
2.952869 8.647220 105.457001
-9.475156 3.932048 67.401955
-12.018966 -11.679168 79.158447
3.485789 9.052386 84.127853
-16.822567 -8.972342 85.590233
-4.138094 1.962834 61.510628
-9.245563 -10.577076 105.923882
2.935940 7.149547 83.682854
-6.822287 8.631540 96.602921
-3.573785 6.377841 71.671120
12.389426 -13.187203 80.042694
-16.057770 -6.508444 88.248581
-2.441039 9.904929 96.856720
14.586976 -1.690758 109.475342
9.247639 -14.168740 86.650543
12.588921 -6.126286 106.284866
-4.218624 9.285069 92.175949
-10.196750 -12.142860 99.825363
-10.463321 5.325954 97.250298
-10.432579 -11.614512 106.967773
-14.073407 -2.622403 61.898724
10.838253 3.055182 78.164986
-8.619087 4.348190 68.929276
-15.452106 -9.812492 88.954529
13.819571 -5.100316 62.050682
-11.176075 -14.957805 88.961021
11.299984 0.537718 57.812401
-15.511151 -1.195022 84.556923
-12.368728 -1.764827 61.899033
10.065350 -14.789665 90.034378
1.522633 -11.160819 58.282867
-11.286386 0.426915 111.333229
14.849548 -1.226618 77.229614
-0.444577 2.736741 64.285469
3.476653 4.986659 68.483047
6.592239 3.946944 109.072662
-15.335234 -3.039766 70.840569
-14.255458 1.617829 79.870331
13.643256 -7.673640 85.526268
-4.474494 5.504224 110.107841
7.773576 -11.218574 106.460411
-2.166168 9.384953 98.979370
16.253178 -10.300449 96.743614
-6.532632 7.089135 104.206627
4.704010 -12.834351 71.446846
-1.438937 1.184922 54.522900
-5.198060 -12.134275 104.019035
-13.365768 -7.608746 66.067200
9.783105 -10.837680 101.809074
-10.305456 2.844618 57.656101
-0.480372 -12.852755 104.414818
17.374510 -10.044904 92.993965
1.258893 9.136727 98.811562
-10.082583 -10.474447 105.506119
10.131150 0.430383 108.978889
-16.224815 -7.651500 76.698502
-9.817373 7.668329 100.907310
1.531778 -13.519335 66.599632
3.081695 5.548306 65.831932
-15.521282 -3.222517 98.149635
-2.795240 9.125272 78.608727
3.995490 8.142906 82.180183
12.332478 -11.407334 100.145233
13.421455 -2.225285 70.286224
16.602211 -9.610106 90.386642
-0.385144 -15.755560 98.660744
-11.350801 5.765063 80.540779
17.239626 -1.914867 98.033691
13.917300 4.613569 95.145638
0.315354 -11.148957 106.116486
10.353844 1.359425 107.962654
11.143370 3.111929 107.919029
8.780769 -10.803143 105.219612
-7.870303 -12.928755 104.667366
-12.216990 3.473462 83.204369
-0.278713 9.675801 88.467491
1.492995 1.469904 56.607510
4.806290 9.634177 99.928879
13.297184 -0.922713 104.434959
12.206252 -7.334622 107.008919
1.942424 9.739645 85.018143
12.645919 -9.307309 101.207634
-13.487890 2.291746 84.026558
3.213360 9.004800 105.519844
-8.924320 -12.276817 70.997757
-5.633230 8.603375 85.501396
-1.217347 -15.885412 99.359398
-11.966730 -10.584853 66.010284
-9.254837 -12.993481 72.625793
-17.828926 -4.724584 98.678284
11.891715 3.458669 107.324615
19.173031 -4.406249 83.372040
1.439298 9.215075 100.269073
10.802800 3.447042 75.381714
-14.763041 -8.381988 99.160110
-6.611074 3.678422 74.414314
15.640797 -0.491291 95.076408
-13.262902 4.511621 99.260849
3.199711 8.892512 87.873398
7.342824 2.331485 61.535919
16.230755 1.952275 88.850220
-16.729961 -3.717688 96.423523
4.743515 8.482636 83.107269
-9.185907 5.320944 69.712341
-16.096638 -6.650747 72.536835
-10.107051 -10.813097 101.261604
-10.867603 3.116675 70.754807
-17.570265 -4.292705 79.225319
16.278198 -8.460032 95.269783
13.273026 4.316113 90.246834
8.928271 -11.799336 70.620964
-17.679495 -0.964926 88.637054
-15.157218 -11.226263 96.987267
11.141569 -7.772432 61.559029
-6.184539 -12.578060 72.637711
7.727547 -13.416647 99.468864
-11.775022 -10.047269 103.684601
-13.140326 1.535572 72.961411
7.707203 8.313375 96.135506
15.236065 -2.546858 71.432121
15.480505 -5.902411 103.878555
7.242919 -14.653741 74.260773
14.116542 4.525389 93.172417
5.783365 9.533121 89.558205
-13.772728 -8.597354 71.874657
0.731286 -15.418819 93.269981
15.889233 -2.455767 102.007820
-15.083340 2.246857 101.918770
-2.516293 5.295297 72.373032
3.354132 -12.658853 104.553864
4.756577 7.190502 75.421463
0.217691 8.597344 84.182693
14.778423 -4.236207 69.891006
-12.422385 1.709144 55.863087
13.007289 2.413480 102.899437
-17.747787 -1.048805 92.640030
7.973916 -14.820366 91.541519
-3.688261 3.567683 61.415028
13.687304 -4.459382 105.627396
11.332394 4.844147 90.647064
14.675287 -2.767849 77.412743
13.888541 -12.357801 86.379417
-2.670440 -11.523617 65.706001
-17.900383 -3.826921 93.898788
17.952881 -3.645323 96.169762
14.828429 -13.104297 83.461220
16.264570 -10.435894 75.212204
-8.184752 10.082349 91.809799
-13.951585 -9.449620 65.844826
-4.988723 4.159365 108.628304
17.718496 -3.907663 97.179214
-8.686197 7.427041 105.256592
-13.556753 -10.281972 79.851303
16.695763 -5.372734 98.654266
-13.998131 -12.294668 91.719841
5.717607 4.389867 69.844429
14.710729 -5.246727 69.941765
-12.823427 -3.610403 107.355171
4.915883 8.389430 89.164162
-8.766898 7.272041 85.494217
-19.445799 -5.909084 83.057510
-8.345097 6.864051 101.867241
0.554966 9.619234 92.436867
-15.791414 -9.003654 77.362877
-13.193454 -10.168553 91.595261
2.194245 -15.132117 79.788712
9.411533 4.955667 109.073257
-5.395418 7.381258 82.647484
18.182653 -7.248549 90.433594
16.320265 -3.858240 101.280884
-5.622349 7.866877 76.016960
4.392418 6.088639 82.779442
-11.471425 1.474692 61.345993
9.478762 -8.180167 60.087193
12.696923 4.463561 103.315712
2.581132 4.062163 59.743023
18.850611 -10.675023 85.671288
-11.144365 4.501324 83.295288
4.759253 2.794410 57.339535
-13.798325 -8.986055 82.163467
12.724264 -11.448374 74.454117
-17.178967 -8.373896 86.059662
12.143187 0.304782 62.523903
-1.265230 8.376963 83.806015
-0.046360 5.390174 68.652817
-7.462905 -11.680599 100.208633
-15.467235 -7.321595 98.240540
-16.608683 -3.437885 103.088287
14.157761 -7.705560 99.165283
-3.187591 -15.159622 104.334366
8.429269 -16.100651 85.347839
10.271998 6.753689 98.734421
17.088362 -0.321874 94.871727
-0.450059 4.228909 68.518974
14.957044 -13.243222 77.607765
9.755068 1.232732 61.000469
7.281446 -13.443587 73.406113
-18.297312 -6.911884 89.480301
4.566384 11.023604 91.889664
9.779462 -9.179540 104.042290
-1.348459 9.330053 98.137558
6.066792 3.658137 71.593330
-3.592499 -14.245412 84.225365
13.336590 -2.272280 106.013397
13.100446 2.509560 74.857346
-14.273344 -3.885172 61.219856
17.060963 1.761653 91.115547
11.723150 3.087120 88.830696
12.675763 -9.433214 66.047577
6.375340 -15.631756 79.708748
-11.727530 -7.462093 105.681396
-12.438787 -1.403659 66.188271
-3.625850 -15.256453 82.894264
-9.710099 7.132229 83.252220
5.881756 9.373786 88.385368
-6.702587 9.307587 99.110474
-15.819710 0.072021 99.643669
4.698761 7.189897 80.651497
7.530962 10.640932 90.040665
-6.187709 -13.893889 77.650955
0.331036 -13.518168 104.676346
-3.926135 -14.869444 96.036362
-2.035990 -13.504921 73.033928
-13.027085 -13.985621 80.724648
-17.677141 -1.618674 91.393173
-6.765613 6.349188 74.929420
12.515316 3.153174 80.215546
17.404133 -5.863067 99.068901
13.553419 -7.945801 90.683273
2.352382 6.121042 80.995255
-11.895609 0.067455 107.795624
-11.181266 -8.540348 106.517975
-15.068723 -8.663478 73.801376
-2.437946 8.385405 87.201065
1.495292 6.482997 75.477325
6.199033 -9.905603 52.551193
3.725814 -15.596324 91.583000
-0.579741 -12.216104 66.042625
-3.589919 8.496223 101.558235
-13.246554 -1.495374 74.550667
15.414333 -9.836123 94.729156
0.003941 9.385297 85.670845
-9.974489 -10.321105 98.992134
17.993181 -6.391358 79.461502
-10.870388 -11.295490 101.421814
-8.018338 1.916099 57.244831
-7.742806 -12.039659 104.396507
-12.264136 4.107738 77.271461
-0.558522 6.152900 65.894684
11.440862 1.435570 110.826019
-14.378173 -6.466614 60.144108
-15.791010 -1.768396 97.655685
1.783458 3.575442 63.321922
11.313840 0.314281 61.950455
-1.294453 4.907622 69.188545
14.427490 -1.570703 102.264275
20.131529 -3.993520 91.482857
0.665782 3.666566 69.359718
-6.093023 1.701556 61.226917
-3.280426 8.955977 99.206902
-13.206348 -8.940073 107.297997
-8.015910 4.082708 64.272606
-7.467534 -10.617190 63.303146
13.448473 -5.262116 70.767624
9.435985 5.993491 106.200958
3.368431 6.162781 72.148666
13.960882 -2.645592 100.863876
2.225447 9.186567 101.866356
19.304548 -9.322368 93.819496
4.638014 10.124378 95.997063
9.977660 7.621154 97.045532
4.175169 9.896644 95.266129
4.011415 -10.468395 63.460022
15.715411 -4.798971 68.520897
-9.201881 4.817359 75.516006
-7.337341 -11.237353 65.422066
-6.928435 3.863733 67.732887
-16.943884 -0.500375 96.391159
-5.034785 7.743047 106.143379
-6.133621 -13.486171 75.724297
-4.182359 7.920380 81.364815
-0.386423 -15.606957 94.655251
8.124697 7.956730 100.768547
-14.418549 -7.400799 84.523727
1.115137 5.736652 73.553452
-14.539618 -11.671946 97.282562
-11.546986 7.282006 93.462914
5.221046 3.598075 64.789276
-12.817868 -9.272559 102.916603
-12.684756 0.072949 106.840454
-6.860620 7.520856 81.152061
7.758710 3.898494 107.832382
15.180019 2.335365 94.176125
-15.775070 -10.700586 91.569862
-7.284841 -14.780326 78.578522
-1.167560 7.303356 72.111305
1.526727 2.460764 60.297215
-16.692461 -7.131544 83.567978
6.384950 2.864458 66.846420
-12.028248 3.729782 102.945488
8.768005 5.192074 107.990730
-2.761626 -15.189022 76.911400
-5.946142 4.372222 106.532555
5.315591 -11.775736 67.674538
18.123569 -8.082507 93.622658
-2.224932 -12.404114 102.884132
-10.447741 -13.040786 80.698143
-8.909898 3.587823 110.404617
13.486336 4.474021 88.850502
7.638828 7.943920 93.347801
-11.391933 -14.023026 97.998016
6.838559 8.433607 84.366432
-9.263877 1.030672 64.679527
-10.212007 -12.727821 99.726250
14.883461 -7.852240 68.264977
16.675341 -9.321161 80.568863
0.393444 8.643104 83.506851
5.715610 -12.521613 69.632820
-1.585677 -15.217106 97.062454
12.362167 -9.196573 61.112148
-4.544895 3.830186 67.543793
-12.942770 -11.309579 95.718163
10.009700 -14.306705 93.425125
8.858367 8.539623 88.576088
-1.790506 -13.098045 66.822350
10.327084 -11.097920 64.109314
-0.811169 8.565150 98.390358
-8.669330 -12.250442 102.043236
3.605036 6.096014 106.087204
9.639078 5.954561 99.116333
-18.869360 -3.883404 92.967789
2.112191 2.241076 56.745113
1.425459 8.475479 101.859253
18.120890 -2.074737 85.762619
1.176685 9.589714 96.132179
8.303287 -10.537798 65.139610
-10.952210 5.210273 93.262711
2.002863 8.533082 83.449257
-14.464528 -10.416054 73.840515
-9.291928 4.125053 110.444916
-13.324458 -0.764600 60.340885
-11.474195 -9.141156 62.390076
16.789629 -4.584256 73.471962
8.909484 -10.826525 106.992287
7.432416 -0.339599 57.277298
-0.555465 8.284147 101.738892
12.317919 -12.931992 93.689507
-14.022160 -3.907021 62.559002
-10.759447 -0.970714 110.500275
18.014267 -3.755110 81.423553
13.820544 -6.212457 62.732025
17.632759 -8.008554 80.776176
-1.503209 2.665465 62.410473
-13.806948 -2.003699 70.341660
21.160862 -6.627873 88.104561
1.031886 9.958705 88.241272
-8.157629 7.517468 99.254662
1.831934 7.294316 102.792854
-15.186842 -11.435613 86.236862
-7.568470 2.401254 63.367550
10.860065 5.616152 91.355278
-4.916912 -9.840013 56.251228
15.595284 -8.506811 95.442329
4.307324 6.475568 75.941452
-14.788722 -1.560845 102.208321
-15.581182 -9.245855 88.451073
-0.319652 -13.646811 69.109200
14.815014 -7.481214 89.857300
19.671885 -2.918445 92.056862
-7.328565 8.840400 96.424675
11.171132 2.778853 107.669678
-0.877898 5.778459 106.985832
1.916682 5.739017 107.964081
-13.525809 -10.481183 77.984138
-3.903832 -15.747387 96.309433
-0.047802 -13.907148 76.383987
1.522681 7.667311 76.013733
-14.816916 -11.968448 83.980431
-5.641215 5.823563 69.100769
-7.694950 -10.452020 58.734062
14.665900 -12.120427 84.064812
-16.892443 -1.383589 92.755630
-13.069029 -2.260819 103.003685
-14.360205 -5.393632 60.110188
-4.756259 3.088317 56.217548
12.197203 -9.013757 63.091167
11.792727 2.441071 65.026955
14.202562 -12.557808 82.454857
13.634642 4.832902 98.964302
-9.621779 2.672562 63.992287
1.200304 -10.008261 62.244076
15.906131 -10.713263 91.200211
-13.124254 -1.071783 70.495674
-5.192463 4.272406 107.947716
-12.142804 1.976103 60.290123
-5.412836 9.572616 96.955070
15.667711 -9.478980 82.917992
-3.055100 -12.992064 72.387993
1.882974 -15.085889 78.478310
13.775963 -9.131297 73.104492
12.359246 -0.439837 108.700035
-11.302554 -7.658737 108.381027
8.738044 3.717861 73.755455
2.185956 5.069527 74.135315
-9.842797 0.955594 59.359394
18.864563 -4.508159 86.079338
-1.496423 9.247427 90.006126
-13.938056 3.522210 86.518021
-13.099608 -8.020283 61.332851
11.957379 1.800346 73.304604
7.179438 5.973475 79.189346
-1.465627 4.970022 109.239929
-15.050135 -4.416424 73.097252
-12.287747 3.187366 88.036201
-19.538801 -3.984935 89.597351
-8.342196 -12.426616 71.878006
15.803744 -8.486119 74.564819
5.382389 -13.130610 74.080086
6.467630 5.120707 109.313492
15.076207 -3.318942 99.027428
-8.374657 -12.755514 106.760918
14.058900 -4.681458 60.552250
14.459134 -11.638519 99.205544
-2.693580 8.768375 103.899254
17.025093 -7.567313 94.141266
7.024276 7.731023 84.587746
-12.322534 -9.290896 66.909225
-15.023813 -10.024014 92.675491
13.776917 0.719938 76.137489
-7.599023 3.982152 110.674942
-3.058916 -13.863420 103.896690
-11.435663 -12.239922 73.685158
-1.089296 -14.735752 76.172447
13.561884 0.833775 67.710312
-7.366461 -13.614506 88.667801
11.943018 2.367068 80.702911
0.931930 -9.206473 59.388985
-13.981816 4.483027 93.928368
11.057631 1.457668 109.128929
13.229480 -12.583296 77.407661
8.591234 -13.269038 73.951065
-13.550639 -0.742109 105.844681
-3.570181 -13.421321 76.414246
-0.575417 -15.346504 80.965759
-13.887074 -0.475370 57.606365
-15.992366 -7.015473 69.548553
9.032319 5.395811 107.648827
-0.801025 8.478978 104.149605
3.383549 7.927687 84.600746
8.116810 6.248774 105.874268
-13.297039 -1.061966 63.469032
-13.475307 -0.474060 81.708420
-1.264470 10.346082 89.908585
16.388037 -0.446505 95.906876
-5.457098 -14.801709 89.137527
-8.222566 6.514869 105.555290
-2.911808 10.209483 95.221840
-14.850296 1.998895 100.574287
10.228553 7.134863 92.214577
-9.290783 6.758462 100.900414
1.072179 -9.062031 58.368931
15.347292 -6.391621 76.107315
-12.428300 1.328275 66.273232
-1.807019 2.320594 61.934784
-15.433554 0.478962 96.691460
14.505865 -2.507132 72.633705
-7.083606 3.548484 68.037437
-3.732922 3.725099 64.525360
6.988422 8.849823 87.478050
7.823813 2.739671 62.034672
7.264734 8.490541 94.600929
-14.764161 1.667943 93.378868
-12.529782 -10.297208 95.705215
-16.258898 -5.782570 100.145500
-10.089295 -12.828174 72.635696
18.370964 -3.843139 91.118172
14.005576 -8.638679 69.301514
1.240843 -8.662855 54.497093
-15.541841 -9.023623 79.462036
12.999001 -8.038093 68.075455
7.426676 -14.876887 86.648560
10.804422 3.553755 57.599442
14.658565 -11.621133 91.248459
19.159254 -7.119143 90.362625
10.893802 6.952102 99.122902
2.758298 8.212617 84.870514
-11.056996 5.078723 82.733948
5.051921 2.757406 63.136955
15.390869 -4.976403 102.377579
13.155494 -7.697589 65.374100
1.034306 -13.819309 73.882187
8.331611 -9.735847 59.487526
17.611954 -0.792389 96.223274
-4.512487 -12.911975 103.687881
-13.417697 -12.213235 78.782990
8.226677 -11.865401 106.224945
16.729330 -8.682363 75.827820
-19.022011 -3.930404 85.431931
5.264886 -14.971870 90.190247
-8.741894 -13.590564 72.450424
2.704606 -13.838749 74.541847
-18.444008 -3.000653 90.546524
-9.799719 4.349803 109.656990
-11.066707 2.524670 70.459198
16.557743 -0.325011 87.019333
19.179308 -1.559856 92.804680
12.800037 -14.532142 93.087822
-19.415756 -2.493099 85.832710
14.906727 -0.013673 82.734200
0.574521 9.661031 91.538155
9.410113 5.609350 81.854134
6.988017 9.032081 90.439148
-7.217515 8.901241 97.413002
14.982697 -2.441183 79.171326
5.340192 8.816159 103.496758
14.589172 -6.784400 71.247437
-12.278235 -7.383278 107.414879
3.317994 7.214031 103.650322
11.427485 -11.790594 97.993507
14.118525 -8.611379 100.596840
14.767878 1.698025 84.978653
-17.014809 -5.500235 78.029251
10.358158 -12.056929 98.680550
-4.222803 4.219981 110.265060
-6.352083 6.807214 74.383797
8.849513 3.899808 67.307938
4.501607 -13.932987 78.063202
14.248372 0.574189 105.099060
-5.351649 4.294773 64.451134
-11.438212 0.733634 56.724754
5.920963 8.793018 100.262047
7.293339 -12.795760 71.507919
-1.130836 9.133638 87.497284
15.685197 -2.704151 78.564011
-11.529595 1.209201 68.558884
13.473564 -1.504457 102.392532
-6.473066 9.300592 93.786598
17.643782 -9.915398 91.008911
-2.990346 8.397267 96.264885
-5.115821 10.674499 94.209953
-9.064210 -12.778398 68.940544
-6.023714 -13.410297 74.556213
-19.870512 -7.604556 85.052094
-0.233143 8.359575 82.207367
14.925919 -5.640573 102.141144
15.785198 -13.210758 88.695030
4.077160 7.932596 91.036308
2.175313 6.466438 77.792244
-9.766460 -13.441059 96.096603
18.069002 -2.974270 86.033882
-13.729289 -12.290998 85.730164
2.257238 -13.217493 69.911400
10.968953 4.669897 83.451012
0.270103 -15.719792 87.330566
-13.737695 -4.559097 101.398720
-7.587292 6.417121 104.112648
-1.435305 -14.560398 104.829636
-9.812724 3.525806 66.932770
15.886708 -6.244406 74.082703
14.992332 -10.146038 96.903084
-0.123480 8.941100 88.674522
-2.267282 -15.825125 81.023712
-4.754501 4.238373 67.648605
8.829075 -14.200397 89.309319
-6.374886 -13.705187 77.952736
2.262371 -12.474509 66.513245
15.091951 -5.992925 71.461731
17.802053 -2.634335 88.609230
-15.243834 -13.030356 86.890495
7.861477 -14.776474 78.438889
14.798089 -10.672522 80.336220
12.906302 4.627069 81.479996
-1.491512 3.931012 61.122162
-7.756491 6.610265 105.520035
-8.315534 -13.458891 93.568718
8.680001 8.841976 100.569710
-5.480258 -14.235459 97.285080
13.048499 4.159667 82.044510
3.995840 4.877899 74.376465
15.067359 -9.860550 80.256226
-11.422259 2.542120 108.301842
-6.316253 -14.281995 94.592445
15.161489 1.850126 100.072151
-13.602271 -8.546326 69.957619
14.311478 4.375638 103.040047
-19.019650 -3.415076 94.258919
-12.005959 -0.252726 60.047600
-9.875204 7.166700 82.311584
12.842340 -0.670654 64.894958
8.780574 -11.168925 66.393211
-11.280828 3.014635 105.009842
8.546662 6.523438 82.788315
12.667289 -0.310353 108.162796
-7.613664 -13.180304 71.616852
-12.776625 6.252967 97.379318
-15.559609 2.808654 97.483299
-15.615601 -5.411477 98.634544
-2.992457 -14.276285 98.548866
-11.048582 4.171329 76.720978
16.067852 -11.441346 81.656395
0.766592 5.650170 109.563232
-3.402838 -12.779881 67.344337
9.021950 6.040301 74.864151
15.937350 -4.650648 70.522964
-5.234838 5.214030 108.492043
4.020197 8.398485 89.856750
-13.722052 -12.107602 88.872215
-5.258094 9.385822 90.840034
11.605886 -11.898560 68.597183
12.381759 -13.286695 87.009346
-15.087297 3.404522 98.000229
-12.070362 2.309506 72.705223
4.623180 -14.563555 100.458237
-15.593074 -6.466471 72.720543
14.362653 0.651236 80.206383
-10.760794 3.519762 75.548981
10.561711 3.255827 60.183418
13.964829 -7.381248 104.518684
14.238029 2.257459 96.484772
-9.315342 -12.329508 77.277840
2.887277 -11.064791 60.842667
-18.077740 -7.518908 90.525688
-7.033035 -14.574836 90.895584
15.144689 -4.031928 65.770401
-15.807515 -6.986369 93.672531
9.531300 3.078125 69.360580
-9.568636 -10.475166 104.669273
-9.169319 -9.973819 106.514160
-12.982490 -12.676908 86.934891
-16.856167 -6.095944 72.789360
19.076992 -2.503556 92.993141
-15.463213 -6.725484 96.119308
13.851053 -10.044590 101.856865
-11.439736 5.884589 90.736725
-4.225054 -11.667008 66.707809
8.899501 -13.833176 92.465096
12.092232 -12.802277 73.668465
6.991621 6.305788 77.228600
-16.558105 -6.646217 100.241280
-6.582732 -14.240395 75.033409
5.579299 6.014009 75.354698
-8.261823 7.199996 104.042801
-11.746252 4.335901 77.734604
3.950818 6.372633 107.586143
-7.066052 8.093660 81.367455
1.429050 -10.880630 61.172955
7.053823 8.662530 86.607109
10.371976 3.081569 110.362579
14.069567 1.145620 92.921852
-14.798337 -3.059341 73.280205
-13.354443 3.528305 102.830658
-16.396294 -6.134446 71.367027
-4.618488 2.069811 66.046249
-12.158540 1.484518 76.472694
4.361524 4.702370 108.475922
-1.463299 3.162080 57.825989
-7.603729 -14.956873 88.322754
-20.249716 -4.162396 96.847641
-9.496258 2.677604 64.941399
14.850333 1.118208 78.890610
-14.755948 -7.632847 103.822586
-7.453502 -11.139885 68.133453
1.654955 -15.566088 102.575813
16.024075 -3.857374 78.611633
-2.967176 -10.006317 61.170795
-16.593840 -4.588349 95.932877
13.321272 -6.768641 68.170425
-9.758324 7.495997 95.242310
-6.619433 -14.371902 102.824112
2.765691 2.815407 60.925327
-0.586350 -11.277078 58.041840
-2.379206 -14.448961 80.330475
11.457660 -14.934729 83.227997
-5.724329 10.010722 97.206177
-10.625856 -9.491765 106.118118
-15.862508 1.743707 86.290451
-8.203556 7.189675 84.955444
-6.331208 12.101444 90.961487
-13.327926 -10.406343 98.188171
-14.996191 -9.595798 94.702263
-9.835701 1.647592 60.345741
15.365543 -7.986472 96.193192
-7.339406 -11.959889 104.808197
-18.774355 -5.639784 81.817795
-10.244999 -13.868688 95.454033
-18.673141 -2.402817 89.495834
8.466950 -15.504231 92.876526
11.498505 -9.455479 57.466450
5.632797 2.738908 61.715702
-14.358494 -0.388510 90.589378
17.232859 -6.086985 94.049545
-0.772382 9.750141 94.982109
-3.535183 9.796735 91.989113
16.694569 -1.888180 98.103012
10.007312 6.527493 87.195366
-13.677887 -7.723445 97.762245
3.833967 9.971017 93.851540
-2.602441 -13.770752 103.136719
10.957354 4.721805 79.450966
-1.706514 10.112641 89.025764
13.397385 -3.462602 110.043709
0.915055 4.282147 107.429375
3.386244 9.216458 99.995995
-2.501004 4.408774 67.640770
10.033011 3.322421 107.948959
-0.462198 7.183274 77.153503
2.212686 -15.987772 89.123360
-17.275824 -6.854334 75.927879
12.039884 -0.255434 70.619530
-10.355192 5.694816 101.223427
15.315512 -3.929469 67.088043
12.817067 -0.685134 108.557777
-13.002833 -6.630828 106.115196
15.233429 -7.082153 95.902855
-16.230064 -1.401330 93.348206
2.099401 2.163160 57.739227
-0.276233 6.532860 102.745781
14.292127 2.255234 79.641838
5.033401 6.171239 106.361305
-2.134534 -13.943996 106.049667
13.314822 0.326781 76.583664
-1.451904 -10.083609 59.447716
-2.575929 4.919001 108.525536
-13.285205 4.460290 87.595230
1.545200 -14.649316 99.385757
-7.773479 8.846324 97.309563
1.643406 7.159220 102.319054
-8.105528 3.495727 110.583336
-2.827230 -13.374662 90.920532
4.920485 -15.437109 74.577400
16.220568 -4.419868 97.524078
7.382627 4.729005 75.401375
-12.869552 -2.218301 109.962708
9.013392 6.801467 83.721680
-15.770886 -7.551414 72.591980
-7.241823 -11.541870 103.859383
-6.108322 -10.969292 104.065315
18.498112 -0.321181 91.239021
3.835322 -13.769795 67.183266
-3.518949 -10.570557 58.620708
11.518918 -11.616747 95.176666
-7.323822 6.496559 77.663879
-0.869837 6.001121 110.451187
-17.974216 -0.119984 87.119705
-16.991369 -7.206966 81.355637
-0.977620 -12.840880 98.374626
-17.691164 -6.470888 77.771103
-17.393658 -9.189634 89.317612
3.257589 7.823370 78.519272
11.344422 -9.036845 59.987659
-9.116569 5.373405 105.939095
6.457578 -12.397918 70.360489
-5.893055 5.292137 72.504936
0.793087 -13.720903 77.294716
8.476330 7.124482 100.989967
-20.304041 -6.010991 89.000359
12.859941 4.575353 90.488792
-11.670244 7.625637 93.370636
10.514532 -10.472175 106.530190
11.646249 4.706074 84.799957
7.482538 8.517849 95.618538
2.956011 1.586985 60.088135
-15.284710 -8.621206 92.198517
-1.535792 -9.510845 63.446121
-5.935361 -14.461618 94.962448
-4.846999 1.853977 63.736744
11.605301 1.079260 71.791542
12.038289 2.659212 76.915543
-10.900849 3.660835 74.001701
15.123805 -5.653526 63.618385
-16.676052 -7.544965 87.309616
-7.052703 -11.942658 72.229797
-7.806588 -11.097878 107.412155
21.342854 -6.586358 90.227501
0.835735 3.017479 63.572113
2.554595 7.195479 82.169754
11.100647 -11.866408 95.866310
6.060850 -9.923780 58.775913
-15.415952 -1.635247 101.726494
15.655384 -7.029028 97.798798
-8.571118 -13.168787 76.539162
13.602552 0.119147 74.093025
10.240153 6.198653 84.020287
-13.756096 -9.163285 79.848831
-16.467176 -0.213677 92.927963
8.327791 3.673343 73.496346
-12.794983 3.410197 93.375381
-13.151488 -2.498967 57.409496
-11.452361 5.565691 90.987267
-12.279516 -11.968404 69.443939
-3.696562 -10.342450 60.932861
-9.974207 -12.238263 76.435059
10.120534 3.649569 69.523636
9.356844 2.087004 64.619209
-3.286541 -13.861238 99.052238
16.168392 -7.143860 71.597992
-5.267054 -13.218274 73.666405
5.122978 -13.101371 69.482384
6.262090 7.533722 104.360229
-15.247142 -1.403249 96.916870
-18.914761 -4.326480 91.823349
-14.460582 -6.871368 102.021881
-5.811478 -13.629943 71.041664
5.490695 9.531104 93.275681
-7.066753 -8.938952 56.439587
-12.465963 -2.829577 66.723183
-4.319981 -13.040171 72.328308
-9.570832 -10.056098 106.502892
-4.360391 10.317931 92.570824
-18.243114 -3.789054 80.368164
-6.409864 -11.922915 104.189674
7.505421 -9.889948 61.477287
-6.520815 9.047369 91.724380
-12.706891 -4.560657 107.006485
-16.829819 -1.859681 87.190590
-16.177654 -8.826546 83.943939
3.773504 4.055892 110.333267
-12.585455 1.236668 83.024750
0.487280 -15.446584 80.973129
-17.786055 -4.261935 83.490982
18.919052 -2.450377 97.654686
12.796680 -11.557411 77.329269
3.955858 -14.136536 105.634621
-11.351711 4.481921 84.414062
19.412933 -3.740076 94.535645
-3.834993 -15.466953 92.111549
11.132293 -8.986255 58.132324
11.095411 1.466068 68.353287
15.221157 -11.293884 81.256279
-5.657238 -15.109556 92.622147
-12.898422 5.703084 79.810425
9.547312 -13.302558 98.208649
-4.505047 4.015534 108.709236
8.436523 -11.205608 104.406227
-7.989458 7.105575 76.887878
-17.404108 -4.223215 84.823555
-9.212576 -10.369015 107.968330
20.101715 -4.799024 89.996712
13.837324 2.557597 91.634262
8.117705 -13.638060 86.910538
-13.723380 0.836489 106.229050
-13.755301 -7.288567 104.636139
-19.924341 -5.940611 93.327293
-16.092302 -1.283948 84.877396
-13.488623 -4.816086 59.574047
3.543709 4.086960 109.725243
-9.904904 1.673214 59.302299
5.887187 -12.224581 105.321648
17.692463 -8.325768 90.836342
8.457594 -12.924894 75.041664
17.738497 -3.248600 95.593979
13.956207 -8.938439 72.152443
-9.585673 3.158483 108.724998
-2.023167 4.560673 108.459793
5.763324 -15.301905 97.040298
-12.878616 4.414171 88.194893
-13.361650 0.424865 69.629990
10.725298 6.515086 101.442703
-12.872909 -12.840803 82.172203
12.811777 5.514518 96.342888
12.011548 2.697321 66.763290
1.033654 3.255651 62.965729
6.092174 1.957307 55.324711
-12.217108 -6.685477 106.077309
14.101703 -2.550669 62.172894
-11.227620 -10.057758 65.291557
-6.897404 -8.730016 56.640205
-9.554666 -9.498817 106.353058
14.759853 2.020417 94.278610
17.807398 -5.260293 84.591553
-3.680620 4.686651 62.149487
-3.077510 8.699409 103.259949
13.380972 4.992453 89.621590
15.399171 -1.293156 103.523102
6.702375 10.540447 93.727592
5.233409 4.756061 109.511253
-14.613461 0.512752 98.277138
-19.167845 -4.698782 86.765854
-13.598834 2.181688 79.842033
16.079515 0.495526 83.799881
16.556255 -9.862696 79.152199
17.553310 -6.284135 76.088753
-4.606377 -14.653879 78.033470
-10.970621 -10.503192 107.551064
4.000238 -15.195164 98.774582
6.759052 3.411703 66.687897
-4.868407 -15.100010 79.748840
19.459064 -9.653049 86.527779
-11.319658 1.263644 59.847523
-4.241027 2.962094 65.859886
-12.977731 -11.509995 98.175644
8.841307 -7.609381 55.678600
12.733895 -9.966211 104.593925
10.542461 -10.614552 107.841736
-18.234863 -8.426316 89.094437
-12.849916 -5.170236 102.633690
3.145978 9.766696 93.041313
11.895775 1.303141 74.476479
-15.580202 -4.652926 72.236198
5.101059 10.289792 89.657204
-3.335319 -14.480453 78.161652
18.990486 -2.177397 96.453705
-11.479394 1.335153 60.403919
-5.108646 -13.947433 104.876671
-10.679108 -11.343995 98.108009
-2.935730 -12.782498 72.331268
16.978506 -6.085452 76.689644
14.743285 -12.815172 76.632118
12.921815 -2.288386 63.671314
-16.898380 -2.658170 95.321815
12.479152 -10.408866 101.024353
14.790650 -11.122874 83.598526
-2.728310 7.139728 80.023300
9.869293 4.973500 76.083763
8.923661 2.303410 71.681068
-6.932466 5.348080 73.126747
9.646153 -13.312064 74.878174
-8.915375 7.736024 95.992416
0.109439 6.878866 87.066696
15.531860 -8.550416 83.776100
8.646856 -13.831783 77.689362
-5.190367 3.295943 62.026787
4.055455 -10.481565 57.494534
-3.007887 8.865419 83.282806
17.537155 -5.004061 95.456604
-7.868460 -14.173592 92.364258
-17.639143 -6.687167 92.655624
-11.016754 -8.684621 107.738434
-18.198816 -2.972671 84.032440
-13.581697 1.166838 106.541077
14.019509 -3.023528 107.589111
11.554856 4.965394 85.931923
13.521316 -8.575177 67.450188
-0.688507 -15.550140 84.582733
15.513871 0.703051 94.888664
5.602044 -12.022305 102.484558
18.746365 -9.710546 91.617195
8.880028 2.080209 66.446381
-13.030072 -9.003718 102.482246
-16.827225 -5.792450 77.038750
-7.972451 -16.147135 88.966362
-13.842148 -0.661747 57.761826
12.669677 2.410938 67.945290
9.336126 -11.766827 103.452644
14.040724 -8.675024 104.709274
-2.239604 3.021511 65.249962
17.057936 -6.226439 82.345451
-8.359975 -9.876451 59.251408
11.333776 -10.036877 103.122139
-15.444491 -8.825724 93.604080
-6.095694 -14.056577 75.618156
11.192358 -6.953750 106.274246
-12.004250 -10.186540 73.725739
12.098165 -8.810209 57.115417
-15.063950 -5.933741 68.689873
0.278087 -14.862805 81.057808
-15.323027 -8.114024 78.372017
10.359983 -9.616108 63.876289
16.395613 -2.337628 81.840088
16.889473 -8.197501 90.921951
0.262409 -15.522094 83.379204
4.088857 10.145360 90.647491
-5.640707 -14.868160 92.013466
-12.132349 -12.121141 73.925247
17.876587 -1.968068 94.665840
-12.192326 -10.632557 96.865128
-13.332384 -5.945167 58.742054
19.907785 -7.561864 86.397316
-11.585012 -9.822898 107.453751
-14.045424 2.674209 91.419685
-13.036593 -8.365371 63.619213
-14.518106 -4.997558 59.894974
-16.050352 -2.883522 79.494156
-10.069727 -14.987052 89.571266
-17.027254 -1.403779 93.024979
1.277298 6.141502 67.825417
-9.973643 -15.829728 94.322464
1.427090 3.406307 110.274895
7.462532 6.248586 78.102737
1.844735 3.292801 64.173782
14.320431 2.079167 85.794289
-12.715130 -0.883339 64.450562
11.981262 -12.893657 90.842354
-12.892838 -10.172132 74.092796
-17.602745 -7.275547 82.074432
-13.620354 3.335589 98.039909
-4.072340 -14.773429 105.679039
-3.199247 -8.820734 56.494503
11.568200 -7.844088 107.435349
-6.858102 -12.848199 98.993370
-6.494806 8.827070 89.563660
14.078520 -9.100601 89.732277
13.333319 -8.267488 63.048542
10.280138 8.239418 88.624870
15.838492 0.772907 92.773109
-7.454347 4.505302 72.564789
-1.798063 -10.210212 64.809723
-13.357666 1.870623 94.059402
-0.097567 6.801566 81.667572
-7.898044 6.487323 81.163940
14.399282 -6.130286 100.770767
7.603942 2.724619 58.945091
1.857546 -9.485500 59.625904
-1.105346 -11.168923 61.703449
1.115988 7.733912 73.593346
-14.118532 -7.427178 66.484146
-12.222320 -9.048956 103.588074
-15.098639 -7.596732 84.613518
14.879127 -9.601826 85.672539
-2.721206 7.132438 80.508949
7.787633 7.730649 91.208282
13.804443 -10.885269 78.912048
18.249062 -3.402279 96.401398
-6.722442 -13.645537 74.947174
0.979428 9.193906 96.197083
13.419215 -7.518859 67.645088
1.936052 -12.401024 66.801788
-13.771634 -4.288908 103.857567
-8.587041 -13.240360 74.943161
12.768781 -8.135795 60.402443
6.738501 9.107298 88.406601
1.667763 -13.157043 75.361687
10.499623 6.840222 99.627968
-13.205078 -10.933645 95.771400
11.338625 5.673761 83.351181
-15.561497 -4.881849 101.424721
-9.747753 2.158744 111.283127
12.910565 -14.272848 87.697304
-6.087799 -13.817291 99.322304
-4.142738 4.405066 110.881775
-14.052637 -8.911924 80.538513
18.748468 -2.682648 95.210632
5.510484 -14.518414 104.815506
-2.120730 -14.067019 105.262367
-12.767109 -8.761724 106.106903
4.196433 6.593124 72.256676
17.372494 -8.205569 85.199333
12.314385 -12.483446 93.951645
-1.889780 -15.086937 88.227127
-12.633044 -10.263413 68.337486
14.154191 -9.373412 63.615170
14.278654 0.691926 81.030037
10.339924 4.280653 111.037605
-7.285816 -11.263635 65.706215
13.847653 -12.320872 96.414085
-11.673141 1.258659 64.832222
-12.535607 1.594589 70.414207
-12.708447 0.131184 67.348145
5.402194 8.566128 98.894165
14.321656 -9.774851 93.828468
-14.677058 -8.858796 83.733429
18.042482 0.461640 90.052017
-14.061606 -9.014164 99.883499
3.048717 8.385523 100.038284
-14.145020 -6.085312 59.273281
-14.972648 -11.903997 82.430870
15.564939 -9.390275 92.773979
13.095823 -0.132736 75.213257
-7.376227 -13.823321 98.574341
9.419716 1.873307 59.456409
-0.541779 7.530889 103.932961
16.340326 -8.262913 83.165504
-13.971167 -2.379957 73.833908
-9.936542 -9.318624 107.850990
-11.447548 1.801704 67.311432
14.233312 -10.787733 86.896988
-18.762484 -6.205215 82.756210
9.518560 2.975005 68.392464
16.454107 -6.301194 100.102341
-15.726709 -8.908099 92.260956
-15.682789 -6.839236 91.945282
2.841083 -14.069770 74.768547
14.510176 -0.006187 93.172569
-1.737197 -13.574958 69.300041
-7.365501 3.019705 56.217113
3.144576 3.296795 107.807755
-15.086736 -5.844364 102.011017
13.070268 -1.290006 62.290054
-5.391596 -11.198997 107.415916
-15.948449 -7.585173 73.830711
-14.003763 3.253618 84.073280
-7.958084 7.155059 82.934151
-12.669494 3.306782 94.890709
-12.750502 -2.507982 104.662109
-13.498933 -3.444093 105.724579
-15.421422 -4.137901 101.574883
7.078643 4.348748 73.482697
-14.545142 -12.142442 80.833878
15.355530 -11.664845 80.796257
7.547801 -14.634913 97.959167
16.523890 -0.992286 94.080833
7.574956 -14.709292 75.697693
8.635262 3.491042 76.606880
18.627899 -3.730947 88.967377
0.947473 -14.311636 93.997635
5.803367 -16.575386 83.807457
-8.343700 3.946416 75.309555
-19.140631 -3.443985 82.182533
1.050043 -12.507960 69.664207
8.738153 7.329764 100.385513
-12.609492 0.784676 75.026718
14.494007 -10.266373 100.506752
6.666082 7.907073 100.036613
-2.581718 6.504738 105.423721
13.773477 -13.433629 90.620155
11.606143 1.357483 71.801537
-8.097868 -12.992912 99.133270
-4.248240 -8.295979 56.914116
-16.041294 -0.535849 86.542557
15.977083 -4.885706 72.656082
13.374701 -13.079159 94.779617
-14.804454 -9.436054 84.507401
13.833331 0.056581 82.459839
19.369301 -7.060876 88.936478
-13.930895 -9.315068 97.777512
-15.691600 -7.184172 95.860588
4.665216 2.812413 65.993248
-13.474645 0.946016 106.252090
17.677864 -5.806562 84.401855
1.965623 9.211418 98.969238
-2.087899 7.084757 106.540001
-9.766521 -10.927643 101.595825
12.364757 6.174223 97.333900
0.112104 3.236474 67.300735
-2.788511 1.913613 59.601501
6.048332 3.529518 63.294342
2.739189 -14.960229 80.763664
8.594129 -14.137149 78.454819
14.629753 2.387684 84.763870
-11.372088 -0.273276 109.195473
-0.052014 7.109734 76.254860
15.532898 0.977973 94.169502
0.060701 -14.071255 106.301559
-12.579541 -11.568925 74.482674
-9.135613 3.533847 109.417625
-15.791321 -0.515704 85.548141
16.488752 -4.123382 74.970177
-8.194971 3.227914 64.690147
0.068417 8.808339 95.082512
11.915075 -13.739556 80.434677
-13.212723 -12.087799 76.853577
-3.106283 3.252324 63.736198
13.791526 0.192337 105.546364
8.531794 7.212348 96.978264
-12.360023 -0.382533 63.067245
11.600051 -14.667924 88.670258
-15.343299 2.968814 94.364075
-2.837087 7.839953 76.533943
-6.235562 4.160651 109.781044
7.847156 -11.489144 107.883911
-9.949334 -11.497138 107.663811
10.751927 -7.946286 108.245445
3.945716 9.766461 90.362877
16.437069 -8.287556 91.420586
-13.184119 -4.434345 104.656494
0.367075 8.131227 83.235779
-14.309774 -3.376104 103.690353
-8.684230 8.438737 84.259735
15.978008 -1.996789 83.507797
-14.225104 -6.356173 66.674042
-5.773125 5.733950 73.167168
2.654455 7.314227 78.852318
-2.292847 -14.826201 75.811066
-9.754680 -13.006541 89.298294
12.826422 -6.687041 65.324852
6.002575 3.772425 67.174553
-14.967259 -5.285837 71.670563
7.062050 -14.420783 98.257034
-0.756910 -13.162719 103.643333
13.280981 -7.314216 103.578781
-10.912043 -12.469424 96.931641
17.506720 -2.981767 80.759796
9.471755 -13.401690 79.546028
5.464594 9.727636 88.156670
-11.313917 4.794746 101.194046
-0.662470 7.580678 101.741447
-12.681484 4.848051 98.590248
14.181964 -13.376134 92.052422
1.855541 8.262990 101.415840
-10.523058 4.591031 99.484810
-5.933989 8.675681 87.199097
2.270893 -15.292630 98.943634
8.042401 -14.925525 75.776260
-7.048127 9.149590 84.067116
14.562640 2.708024 95.465210
13.505468 1.021914 104.841446
-10.124090 -13.270075 93.588493
12.792341 5.554330 83.999687
6.752801 2.943353 61.404308
10.374214 5.087319 92.734001
13.831017 -8.359798 102.680405
1.769437 -13.471113 69.026421
-19.513783 -3.578170 89.995499
-5.414122 -13.008837 69.821762
-14.336357 -5.265058 63.548611
13.517930 -8.578778 74.454330
-8.744760 -10.437950 106.399849
15.332775 -9.792802 81.371437
16.327072 -4.738543 78.345558
7.301662 4.920197 73.060333
9.658619 -13.864848 81.792610
-15.223183 -0.861818 74.389717
1.345756 -11.765890 65.462334
11.097042 -10.889222 67.206184
14.396401 -7.227546 98.717461
-15.255615 -3.240336 79.685913
4.460277 10.481873 92.730820
-12.981995 1.589069 71.062675
-15.575695 -4.266863 98.334602
14.170892 -4.269973 64.782341
-0.853708 5.373041 109.485497
-11.875985 1.563796 68.335930
3.272087 4.591351 108.738297
-1.344077 4.008433 63.241779
6.333961 -16.182592 92.399246
17.530430 -4.397358 98.804573
13.820485 -11.309717 98.764870
-15.247012 -5.897046 99.196121
-15.715625 -8.295922 94.675980
10.203275 -13.551626 79.305588
0.002416 2.248301 59.537376
13.973045 3.791499 99.373421
-17.819395 -4.308691 82.171471
8.897280 6.396420 101.382317
-16.415234 -2.851449 79.264252
-8.420597 6.289438 102.714859
-5.805083 -14.559027 94.571037
-7.846857 -12.798482 77.354141
13.986862 -9.741083 97.817314
2.168210 7.546095 81.752785
2.872804 -9.635412 55.987579
-5.122528 -13.470333 68.638672
-13.116796 -5.928083 60.084896
-14.720476 2.980978 88.695793
-17.209738 -8.759230 85.994087
-14.982082 1.459245 88.244148
17.240526 -0.210488 97.416176
-18.739758 -6.914720 78.246819
-4.757487 -13.935568 92.607628
5.256701 -13.221949 98.622772
-9.439180 -11.461658 105.414322
7.076313 6.675735 105.644783
-12.133033 -0.363746 62.482944
15.036754 -8.478193 95.110016
14.325611 -9.236389 89.037827
7.241685 5.708047 107.312790
-13.020431 -3.072182 107.951012
-7.631880 5.316094 75.384323
14.020992 -9.840438 74.592705
-7.579257 9.029375 90.182579
-13.606947 -6.117513 101.540359
10.784168 -11.783815 105.567162
-12.253261 3.817726 81.590912
18.214548 -7.851898 91.542740
4.995363 7.305375 79.011757
5.976722 10.221277 89.874054
-1.912682 4.795678 68.829544
9.384570 -13.282014 90.766724
-1.234306 -15.484892 77.340553
9.615785 6.926510 87.391541
-14.398557 -2.485118 71.348114
2.756476 7.650881 104.282066
15.687716 -4.259116 98.951248
-10.380879 5.330597 107.470558
-17.390017 -6.692255 76.438118
-5.993269 10.045608 93.878731
9.432101 -14.703424 82.006096
-16.153524 -6.987350 71.868675
-19.297247 -6.436550 88.420624
-15.896061 -5.316672 70.631615
-15.629839 0.247267 94.838898
0.505044 4.831181 70.779984
-11.151175 1.824718 57.083755
-10.206223 4.775513 78.456970
3.779334 -10.833343 62.046539
-18.330526 -4.293749 80.558075
-12.755503 -13.129284 82.505005
-12.191392 -12.457163 88.833672
-10.074129 -13.297803 75.313911
-11.508636 5.299782 86.861290
12.163071 5.050295 87.892509
-1.451673 -11.008944 60.682888
2.692002 -13.873541 104.976471
-7.706661 -11.686914 104.402321
13.445215 -9.128984 65.041161
2.841278 8.604857 99.489899
2.976756 8.782405 106.021797
-14.495455 -8.817538 77.113922
-4.425438 -11.802891 67.557976
2.428572 -14.890869 98.151733
-1.494263 -15.585465 85.712494
6.469674 6.605671 79.350090
-0.055976 -14.323976 95.662041
-9.355897 -14.829367 90.542923
1.860057 8.804937 83.908318
9.154843 7.241078 84.228806
6.365293 -14.526137 86.213715
1.015275 -12.702019 106.269951
-0.396691 3.431175 109.179565
-5.452778 -14.952561 96.287331
-18.284695 -7.328096 83.877998
-12.724702 -4.034858 106.880653
12.250727 -7.871434 56.209892
10.631223 2.223516 65.136955
1.778645 8.166571 77.530067
