ply
format ascii 1.0
element vertex 2048
property float x
property float y
property float z
end_header
13.445302 10.097598 151.395157
1.891612 9.646667 159.672012
12.598156 -5.703047 113.719322
5.480333 14.288151 145.446259
43.316544 2.868139 117.128578
12.254769 7.621942 130.467026
24.605785 8.740802 137.695099
-5.247329 -10.847721 102.582657
-12.434141 10.625495 92.321136
23.567867 -3.869493 138.862015
4.654768 10.800856 152.876556
-44.790825 6.714465 114.549919
50.013023 -3.884299 113.660568
5.504827 -12.105810 104.408737
-17.213896 -6.046573 137.379181
0.330814 13.496449 144.201843
1.383905 10.334753 104.240082
21.751064 -2.551727 82.577980
-8.906954 4.978699 126.691063
-37.691216 3.704086 114.315071
-2.012376 -13.832603 106.878876
-14.487221 10.580077 145.278870
42.114418 0.092506 109.648170
-48.420490 -5.359488 110.070374
-40.992786 -1.175105 115.894798
-34.001797 7.396482 120.754974
1.654213 -9.384526 133.961823
-6.099923 -1.643317 150.634338
13.654280 -12.341416 123.467377
42.452038 4.955709 120.563545
13.368020 4.202178 151.204559
15.173814 2.552909 95.428925
39.957825 4.165914 120.940689
9.485750 -7.284355 138.807571
15.442245 10.240826 90.518349
7.776604 -15.508874 135.394669
-45.657455 4.935158 110.007790
27.546270 -1.321079 127.399704
11.208579 -5.307230 143.908478
-8.172191 -11.939626 110.739853
-19.860670 -1.433826 138.804428
17.433176 -5.409489 106.137192
-5.088407 5.662215 116.197067
-5.256698 13.503277 139.767487
-48.567848 -4.123498 115.879303
9.429833 4.643130 114.036118
-14.868081 -6.153395 141.656525
14.732685 8.291968 99.695518
-0.417227 13.234049 134.129852
-1.050276 8.103518 149.799698
-19.759468 -6.083025 79.596329
-15.828232 -1.863193 106.841850
-12.226236 5.664939 106.537079
1.782227 16.034880 78.851120
20.109694 9.006764 148.454880
0.655374 11.753633 92.501007
22.776819 -1.085418 77.489670
-16.186541 10.410712 81.445206
13.471664 1.137425 132.678772
17.821011 -7.384836 79.770554
-11.923384 -7.533088 130.440079
14.473654 -2.771276 137.484131
-16.762573 8.514468 80.524330
-12.978534 -7.426129 140.086105
-0.099085 7.187856 122.276970
-33.478600 3.675115 121.187424
-1.511601 -14.274213 132.577225
-7.939414 9.927133 118.236732
11.802299 -9.521883 103.031158
15.819358 -0.069824 98.995399
26.351404 7.278819 139.287491
0.597486 10.814652 101.879692
47.611370 -5.932335 113.046883
0.764517 -11.651248 105.189537
8.417513 8.973907 108.133568
11.163566 -12.387748 93.051567
-5.080266 -11.800499 124.380882
38.175877 1.652325 125.925369
5.590662 13.455044 96.268524
-11.662621 8.772119 99.604683
-2.384877 -14.285691 113.610237
-41.256218 0.618702 111.490036
34.661476 3.831560 133.965622
35.578377 5.409146 117.327492
17.716345 3.956876 94.189575
9.445303 1.568195 123.009148
9.743711 -1.206977 150.509323
50.145069 2.782256 111.891144
-20.927839 -2.643748 86.078453
2.686978 -16.034910 121.233521
-9.552200 6.737865 152.896072
10.133560 9.262239 131.654541
-16.539211 -6.806982 142.074539
-11.396606 -7.788528 142.769516
40.741589 -4.052557 111.797745
-3.968910 13.449009 97.362335
-10.797551 -7.358669 121.523300
2.816305 -12.761877 116.843529
-6.742438 5.281296 157.157166
-0.379103 16.361248 78.874390
-1.707326 -14.793024 126.310760
-36.977661 7.146383 120.725166
-7.616361 10.992359 145.507645
45.539185 -0.867021 105.359444
7.318024 17.853844 83.305481
-5.766991 -11.179361 84.392143
-46.461384 -2.301530 112.592430
-4.223103 9.013889 125.069000
-8.464284 0.896909 155.214554
-15.527514 4.643456 152.614838
-5.304773 9.080677 102.759438
-31.623688 9.098036 130.026367
-46.613510 4.999815 115.877785
-2.951095 -9.541841 83.849960
13.028911 -9.449562 109.270454
-14.778590 -8.151649 105.171661
-17.601656 1.942826 96.895439
9.171981 -11.629610 84.402016
-43.766323 6.247765 116.309746
-5.033329 8.090018 118.868019
2.949630 8.722404 152.693130
16.006685 -6.849342 105.557846
-20.487444 7.922337 134.255905
-14.400080 -2.591367 128.321594
-14.339092 -8.777966 89.705940
15.178976 -7.696410 98.247429
-2.695873 11.188511 133.589157
6.558518 7.803389 156.424316
18.941177 9.021714 137.788940
-7.333276 -15.132055 89.288795
10.578671 2.550771 119.032028
-32.390625 0.449017 131.715881
3.963425 15.657265 140.989868
-23.609314 6.210124 138.254791
43.847248 2.651698 111.142990
-14.633274 -4.678014 117.903526
-18.107399 3.702208 99.148460
-8.602158 6.382319 116.610588
14.163132 3.127033 99.140381
0.719546 -11.668724 129.434555
14.520177 -4.787323 102.463631
-47.338657 4.390183 112.055077
-9.258053 -9.251179 89.879402
5.314144 7.509768 115.838326
25.852621 7.583409 139.273178
30.911423 6.806030 126.413170
39.593262 -1.752581 113.157928
49.075359 -7.115416 106.284088
-7.892680 1.511430 117.386627
-15.890201 2.867147 108.279305
18.002020 6.240908 79.918541
19.663237 2.455011 147.850723
-9.952361 13.618729 92.576492
20.677513 9.912061 136.877777
35.042057 6.676452 119.429840
-3.104810 12.796321 99.099785
-13.221566 -10.498516 99.780479
47.892052 -4.397702 112.742722
8.985758 6.592896 107.731186
23.589861 6.732100 135.242920
13.566582 9.651604 87.599472
-20.533722 -0.871850 138.418686
19.858185 -0.101420 83.967155
11.245210 -10.583179 91.734245
-16.918434 -8.175820 78.809563
9.914869 -5.396186 143.056534
8.186664 11.324573 148.444901
-12.963962 9.703385 151.911469
10.409435 -11.469613 87.751411
17.869684 0.866602 103.189659
14.921876 10.861984 92.468925
-12.795419 4.750281 106.692520
8.775496 -10.816011 127.433174
-9.638783 -6.954273 142.426590
-17.383240 7.284352 140.215652
-41.669720 3.917489 116.172012
-37.255474 -3.064808 121.678619
13.744472 -7.358299 97.306946
19.810328 -3.356742 82.486038
-37.607891 5.453144 127.228111
-12.273232 -9.468200 88.524292
6.091101 15.068913 90.424080
15.560183 -10.883619 136.348312
13.676515 -0.169200 125.240517
12.031768 14.297762 79.262932
13.541789 -6.012643 125.792709
-0.466458 -15.069603 120.633980
-1.080257 -11.142956 97.436813
-13.637366 8.997702 132.369217
-33.593552 -0.667632 125.474976
3.119875 -11.750092 90.609077
3.874353 -9.466494 97.773140
1.118100 11.579388 128.908295
8.446831 -4.650096 143.450562
49.481796 -2.626956 111.609734
11.214173 5.190483 113.622604
40.138718 8.168903 120.118919
13.425056 -9.822441 87.378555
39.493317 4.037066 111.763351
13.235832 -5.123241 114.152863
4.594118 -8.320506 138.319122
-27.958111 4.020299 142.518173
-10.817761 -6.988482 141.724213
-20.568966 -5.242011 86.090408
-13.721629 -4.874714 136.245880
-13.516831 -11.605571 131.849411
45.311031 -3.117265 105.571785
22.644981 3.356607 142.397873
35.479153 4.321319 113.486206
-8.966821 11.348612 96.012115
13.145773 -7.101914 140.021027
-10.838082 -5.970011 115.934158
4.032671 15.884620 87.641846
-9.821177 -11.378927 118.425873
-0.515432 -13.747760 104.593277
23.560425 0.289577 139.799225
-17.697075 1.021547 133.573074
-11.164952 8.092906 104.788605
17.303698 3.631329 102.979080
13.859995 13.631373 83.620483
-2.209075 -12.103582 136.884338
14.433286 11.007999 90.090340
49.174469 -3.790303 114.625450
-18.540970 -7.523558 86.290565
18.932037 -2.168966 141.300278
53.092537 -3.303419 108.734726
5.808559 -11.532573 92.076080
25.528494 8.324245 129.672592
29.982866 8.712562 127.078529
51.418842 1.469612 110.244026
-15.373065 7.392290 103.228691
19.192921 -3.625932 96.742409
14.766441 -1.326196 115.113945
-3.676914 6.189425 159.867813
-44.202160 4.854486 118.398148
14.874778 11.412754 93.476784
-33.816181 5.411470 131.147186
3.373235 15.872692 93.658470
-0.563968 13.960982 146.567642
-46.659611 3.546799 110.255524
10.866525 -11.375727 94.701714
0.939367 11.496333 99.543976
-19.723845 8.675390 146.284180
34.377518 8.681669 125.838036
13.633064 -6.770045 107.986176
29.533936 7.231662 134.790527
-33.275616 5.505136 118.894905
-35.871914 -3.278616 119.521187
-6.246194 8.063532 109.141449
-7.215645 3.547059 119.462090
-5.923885 -11.260018 127.806282
21.217489 -1.546834 139.646088
19.660667 9.133967 151.345657
9.200781 -9.065300 118.905487
-53.243587 -9.072100 105.971245
-51.931362 -3.723311 110.716080
5.994330 12.430065 145.991196
-48.575691 4.317709 104.327782
-12.746314 -5.082491 116.684616
-13.367713 4.447707 104.054680
-0.457615 -13.280542 121.210457
6.870082 -9.277685 117.490662
35.856163 -2.680969 119.591606
-0.840173 -15.559667 107.420815
-3.126284 12.272099 152.141037
33.286709 8.432389 122.992767
-10.832080 -8.951886 96.396553
-3.087797 6.308920 110.199348
16.950987 1.231193 99.861450
-31.563486 9.615896 128.647614
16.638088 0.606551 100.601028
-13.229644 8.475947 101.351982
4.017733 12.369819 141.542419
45.761047 2.881085 115.957275
1.495152 -16.448753 133.560730
1.358608 9.420993 152.553345
7.571978 14.376762 83.626549
16.468456 7.139698 86.055954
12.134559 7.071528 153.033752
1.784455 -13.702410 101.635841
-1.158016 11.382636 150.548294
-16.412672 7.594279 87.111725
-10.959572 1.919671 152.348557
5.075731 -8.997472 90.570618
-8.969601 -8.167832 121.204468
-3.437054 7.676634 129.064117
5.412519 8.024540 104.643875
11.352217 10.835545 138.237732
8.737847 -11.297791 104.531967
23.261137 6.206105 141.386002
32.313412 0.271214 129.994202
-14.385365 -6.764861 117.202774
9.435141 7.829753 98.738579
-27.367735 10.769625 131.157959
8.303480 11.620323 137.198181
-3.139117 17.135960 85.226707
-44.745892 4.643446 111.927666
-1.746326 9.034504 154.237473
11.760318 -2.870449 111.157516
47.670670 4.676521 109.990761
-22.666870 -1.503304 85.206062
-5.851620 -8.523371 77.077347
-26.638840 6.696646 123.813187
-1.807553 7.136495 126.246460
10.236004 13.360453 145.695358
-37.856709 3.278020 114.569107
-22.722687 7.824875 144.906906
6.612879 -10.755709 88.472168
-8.943437 10.835175 148.485840
-3.117277 -14.479075 122.072655
-6.181232 9.104015 158.144836
3.049370 6.745278 159.701080
2.109324 -15.292446 127.888145
8.172005 12.677854 139.317444
26.315203 3.368585 137.169769
7.420363 -6.645339 138.754349
4.247150 -12.144280 133.356979
-15.691922 8.927425 137.362015
-10.034352 -10.627510 130.675690
22.243336 -6.601037 81.380524
42.272839 1.461815 110.320274
34.288292 8.678972 116.807831
20.628384 5.861685 80.899132
9.583273 -8.740132 140.734192
4.919775 -10.909968 116.413506
12.971355 -5.663970 143.249878
-9.025723 -13.683058 133.473495
15.431269 9.144404 92.505936
-37.061813 6.442901 120.689651
1.349380 9.125089 100.914185
-0.145776 -11.696264 106.373055
37.227829 5.193069 127.036888
18.819336 1.775977 92.192505
-8.706183 10.398609 142.737061
-15.609794 -0.447950 112.852997
-42.146351 5.704602 119.380089
-4.317279 -11.481015 133.315063
22.530874 7.302400 150.833557
23.391445 10.778893 134.100800
-8.693770 11.929008 139.675842
-7.811964 9.662135 151.479599
7.924438 -11.944822 134.054977
7.677785 8.297467 108.049561
-7.142919 17.264708 78.958199
-23.269892 10.221379 139.345154
-4.457973 -5.340649 151.212204
48.873615 5.638137 110.763481
-8.818771 -6.966357 144.648544
-18.447203 7.592987 90.026772
0.794638 -12.549479 102.634727
-10.077013 -0.362555 124.089493
-13.691634 0.705293 111.573593
1.942117 14.104352 94.263016
-4.311120 13.588147 98.000053
9.114165 -8.987086 83.216408
13.797425 -10.258526 87.773064
14.598710 -3.503436 128.408356
23.902645 8.144066 130.161530
11.616722 4.940660 127.661530
-2.981205 -10.900119 84.549377
13.663918 8.745181 137.903717
7.613598 11.722528 134.825531
-43.899448 3.757533 108.463890
13.681297 -7.352427 134.225098
2.164686 -11.554891 114.643677
31.580776 5.433812 133.985565
19.773483 -7.495097 88.177773
-11.967050 8.438857 129.208130
12.345216 -9.666950 126.413231
-12.962058 -0.759988 113.638893
-0.292467 9.547603 105.498131
8.829750 -10.157968 124.279732
-9.961919 2.628016 115.365227
5.674455 13.482866 91.928284
3.094432 -13.704231 117.355835
7.353789 10.145125 132.350708
-1.882167 -13.465506 85.669220
47.213902 0.329807 106.261520
-0.479637 -10.558352 91.233009
11.672294 11.862456 91.918655
-16.803139 -7.482473 92.789360
44.314915 5.956483 113.398666
-18.707314 0.748711 87.438232
-9.902567 -2.526217 147.726944
19.761551 11.169509 142.598648
-36.306469 7.805972 120.984657
-2.322325 11.636169 128.203491
-11.081927 13.665091 145.890488
-36.768234 6.449902 128.801163
-7.585598 2.447567 152.213425
-15.209738 12.597651 139.753967
5.103471 0.057249 154.611771
2.428461 11.011222 99.361916
-5.864172 7.968597 119.886887
15.317715 -2.578501 132.069580
-51.889137 -0.077418 112.275284
4.409421 -10.745203 139.387573
26.144974 10.983333 130.796051
-10.915936 3.401861 116.511299
-6.804755 -11.420438 117.896545
23.860264 0.685863 128.556519
13.247522 3.638070 128.875061
-16.366249 11.419960 144.422119
12.752706 8.084130 138.099182
8.056551 -4.786508 147.227066
-14.462132 -8.424677 103.212112
3.033978 -11.078352 127.909279
-17.290092 -2.291388 138.066132
31.055429 9.242586 126.393433
14.922766 -9.293902 78.830170
-5.922426 -9.675309 138.482513
6.647510 -9.937508 81.959457
8.103581 -12.701104 132.888184
-13.490800 -11.158699 128.318390
11.651278 2.397269 129.431747
11.433760 -9.855433 127.524788
25.218319 1.180195 128.431259
-17.301115 7.895260 138.510437
8.241944 -4.468080 143.104813
10.729422 -1.691079 144.768997
-13.521926 10.163654 137.083939
4.438391 -13.570087 132.240372
14.423723 -2.513949 132.122055
12.838055 -9.143358 119.265724
2.466214 9.802899 97.995384
2.424501 14.061154 95.305885
0.309640 -13.592889 107.414734
-12.074796 -7.578660 117.812408
6.829372 10.747614 125.484177
-9.086615 14.056458 96.253365
2.898460 5.699817 119.955559
13.180554 14.057632 143.473892
-17.803404 -1.061967 107.462799
-14.760215 -5.063599 114.621902
-0.915884 -14.759078 130.741501
-0.371285 14.175508 140.763824
-6.424203 5.812802 153.442291
-19.197365 7.148178 134.547562
-1.262126 11.080677 139.943481
4.863205 15.808406 81.308685
14.751863 10.079139 139.491165
10.599069 6.892657 102.950684
-20.790485 4.150575 134.832001
-11.910227 -9.226265 141.448669
-41.637177 5.118996 115.331451
-5.576746 -8.676280 142.069366
-10.535234 9.966595 139.773163
56.855412 -4.813388 108.694092
-32.607105 0.298717 121.958969
16.084433 -4.233451 112.849030
-20.679596 -2.011940 76.910492
-9.459249 -1.460254 153.783951
46.487694 3.480853 108.228783
-33.566231 10.018141 132.923706
2.834913 -11.680321 115.428116
-6.329675 -14.870329 137.320389
-19.443624 -1.145953 132.986725
1.042195 12.900454 95.498123
19.993290 6.683676 80.410530
10.478775 -9.605254 108.688171
10.742414 14.226834 82.598503
10.977257 9.579903 103.485260
8.134860 -12.151751 110.197456
33.580761 4.749564 130.287827
-10.646101 13.586051 79.540565
-8.641047 -10.340305 114.304062
5.280756 8.868843 154.117157
13.902149 -3.406979 105.737961
-12.807627 10.442228 84.337624
11.070217 -8.167013 121.883377
17.015577 5.949662 88.405083
7.795005 13.353557 139.994736
-13.540597 -7.147633 105.958046
1.171763 12.473626 134.409866
-26.536459 6.964109 129.092102
2.439963 15.026899 143.685226
-44.965744 0.897337 118.744743
-16.077076 -6.190779 128.035248
15.589657 -3.024799 139.156799
-10.319483 -9.789960 111.501404
-31.683891 4.555536 135.288437
-0.526865 9.580396 130.562195
29.953796 8.609407 123.264008
-13.974226 6.783932 155.107559
15.889854 12.367189 139.830963
-14.881680 -3.355231 126.966095
-6.379186 13.978481 84.456436
-5.505451 18.668139 83.572189
10.267021 -12.709938 105.752251
-29.614820 3.861904 122.519180
20.071024 -3.547832 77.583260
-5.669274 -13.594526 136.837738
-5.745393 -12.910574 138.776031
-11.953259 -11.432865 98.263611
5.248245 20.145103 84.161903
-2.371473 -13.761743 119.382034
6.621995 -11.732274 111.285088
-22.130547 5.319973 130.231750
5.218218 -4.094649 144.372177
-3.930650 -12.250447 121.297554
2.365823 7.752094 126.535690
12.333203 10.007025 148.352127
-25.432089 4.478041 126.820183
-51.494591 -2.369113 103.108994
14.780051 1.354306 113.874435
-14.388196 -11.570970 88.432549
-12.946887 8.016583 101.865517
0.897876 16.627522 82.473091
-10.939751 1.099729 147.870941
-30.451075 4.158397 135.562683
13.872525 11.010218 143.606476
14.521486 -0.175987 132.380692
48.994156 -0.428004 113.223854
-2.214855 13.668091 79.610565
-5.181127 -14.168286 131.157104
-13.790338 -5.940333 129.659134
-17.196796 7.367977 89.733925
-16.631989 7.469340 90.637138
-3.320113 -12.468641 94.058861
31.442192 1.879764 121.081215
-9.152951 8.694972 151.995193
6.783242 -10.910647 121.309860
41.830395 1.633475 122.387291
44.277733 0.027631 109.410103
-7.499324 -1.860216 148.487335
-25.552101 0.060677 131.997437
2.476447 14.693869 84.310585
8.640702 6.713495 155.371719
10.790203 8.118515 135.511124
16.573338 8.403953 135.850433
33.051071 5.281257 131.280136
2.493858 -12.047701 93.328964
7.700510 13.551183 137.460114
-8.378047 6.841679 115.929039
2.894857 17.668808 79.837059
-12.145358 7.856841 103.847069
9.757200 -10.994430 103.284859
-19.000072 1.507040 133.626602
17.259554 0.435812 97.159752
7.927559 -10.470951 87.669449
-17.301334 3.402130 152.297577
-47.113949 -4.200215 112.092537
-8.178398 -7.901874 95.108543
-9.756640 2.285385 116.974579
-23.664564 -0.193400 140.199417
12.368520 -2.089605 116.013077
18.815178 7.226155 148.741257
5.850243 6.455097 129.466263
-7.252581 -3.560371 148.146225
-15.692767 0.222784 101.004601
-32.960533 7.640251 119.008118
31.522854 11.716093 124.614960
-8.290577 10.066785 98.371712
-9.727695 2.995708 152.712402
-10.395047 -0.058095 123.359329
47.650272 2.248210 105.824921
-13.063194 8.416392 95.776077
9.735395 7.045481 107.640762
39.807205 7.154625 113.053009
21.004444 0.714023 85.334862
28.006611 1.168445 138.704926
12.915287 10.068317 140.635773
-0.344653 14.884865 151.061966
8.604096 9.507574 101.365143
51.192238 -7.382314 110.792702
-16.744894 -7.877665 139.462814
17.913769 5.723201 91.165840
8.242933 9.592430 120.191734
13.342440 -4.799051 143.435272
22.552567 7.436704 142.858749
3.771390 -10.693100 116.358368
32.104897 9.890432 132.136581
17.407911 3.301951 95.111748
-18.370340 12.057424 142.597031
-16.805576 -1.706894 135.204956
-15.061817 -8.000018 109.869110
-4.492024 10.187691 154.962753
17.004663 -7.798748 93.124504
47.983562 -4.212385 110.392708
-23.667397 -2.938989 70.232971
12.284810 10.567614 98.200836
11.510052 -11.690781 100.245659
34.448917 3.592304 118.633224
8.829689 12.910177 99.181999
14.053101 7.564236 102.154503
-1.280984 12.117020 97.852211
19.238413 -0.458804 136.567902
0.442031 13.881787 95.779938
-24.198513 7.259457 131.271515
20.132082 -6.845240 80.357346
20.585514 2.952336 150.005844
-21.965893 0.977624 129.565536
26.987904 7.148142 141.507599
-4.286593 8.549615 107.951576
-23.574133 4.023473 138.595688
-22.045853 0.388379 141.241364
45.838284 1.949411 118.710289
1.938528 -13.846384 100.633179
-6.709517 4.461747 155.782791
1.446187 -13.385651 114.307350
-32.589771 1.401934 132.968323
-13.280982 12.387711 146.621063
-53.089203 -2.059026 108.798737
7.839931 7.334048 120.587509
-29.746250 8.875858 123.894028
-26.257256 11.408791 130.134644
37.873390 2.126312 122.733688
16.133423 4.078802 152.191010
-9.451650 -1.484779 147.741226
-17.953936 -7.696300 81.610001
-6.176554 19.933216 79.044968
10.617270 -0.490991 118.345703
-45.529919 -3.274575 105.104912
11.980987 7.515322 108.481453
4.024401 -12.233455 134.996521
17.641745 -9.481315 82.782768
1.614007 -11.923018 89.624672
-9.062675 -11.685719 127.665283
-12.801715 -4.470611 141.739426
12.205779 0.599129 110.923500
18.217203 3.299756 133.359207
31.150892 8.038199 126.147820
9.742857 8.643811 132.229431
0.757415 -12.979250 99.424377
-7.238419 -10.931732 119.793076
11.081403 -5.621106 140.901291
32.759232 6.893576 130.662231
6.188915 8.781659 114.458885
-3.027844 -16.695946 118.745308
14.961414 0.272013 115.353622
-22.785065 2.593513 143.545975
-23.021557 -6.675355 89.743683
10.329823 12.593458 142.806427
-11.149958 -9.141568 82.395767
24.140635 8.551173 125.699806
-48.639118 -6.140853 113.915527
-8.665550 -0.937856 122.093147
-13.321122 9.256828 100.689751
-49.001431 5.190437 112.045059
-13.074090 1.896493 103.488503
-6.256910 -4.547021 143.557343
6.155938 8.023709 156.241028
17.072647 -2.502571 134.930145
39.456234 4.797026 123.272507
15.958042 -0.300794 131.595825
-17.286106 4.299646 133.383102
3.935561 -13.372520 114.706741
-6.449147 11.449091 145.994614
-7.064442 12.409326 146.247116
11.225055 -10.460206 87.529236
-19.327991 0.039366 76.769814
29.262394 2.561002 133.634003
-0.476029 12.055294 137.426697
-1.584023 -14.289396 106.271187
-0.129205 10.666273 132.624802
-17.032633 -1.110660 100.592857
-6.327795 3.903344 155.936920
15.107594 1.033992 118.435478
-18.284866 3.092555 90.207550
8.129486 8.748807 126.338882
-1.764451 -12.357350 141.108948
3.110647 11.271352 91.570564
-8.822566 9.135135 152.655228
8.651466 11.912326 146.292389
-8.268340 -10.697632 107.412582
12.874222 -1.199053 115.307320
-9.181236 -10.399753 81.223709
13.033914 0.118898 118.454147
10.404645 -1.213035 146.588181
0.144964 -13.013091 106.335701
-14.467346 8.495408 88.041687
8.797287 10.534860 138.783463
8.637150 7.080901 114.564255
-8.333742 -11.279965 114.879143
3.195236 15.896062 89.197464
10.854575 4.087294 155.644714
2.171233 7.815725 127.266876
-4.140567 10.862989 111.138580
-16.286871 -8.336922 142.301514
-4.289939 12.561956 86.070831
-10.310845 -12.197917 114.410141
-6.819136 4.423234 111.794693
-3.786374 11.368125 98.296585
-19.274458 -4.090017 92.127747
-13.373720 4.917010 110.070183
-19.271549 11.079715 142.153748
16.828201 -8.484464 95.185295
-12.297396 1.131683 113.647537
-9.746547 11.765162 137.728241
-39.702629 5.063748 118.964943
12.092741 1.337252 123.660545
14.767643 -3.905840 133.523254
10.538302 3.450566 106.753555
-46.620815 1.888481 106.025986
1.810372 -11.671928 83.102898
24.796041 10.041257 125.561722
-4.280194 -14.470465 133.408768
16.001091 10.530218 149.801453
-10.066078 5.079696 113.871597
7.354626 -12.780694 117.492012
2.705524 -13.120003 107.679604
13.915873 -0.620905 111.566467
16.326302 -1.099239 149.329575
-13.369941 8.869027 98.025024
-4.218873 -10.822293 107.452576
23.575138 -1.253310 137.330261
1.783347 9.810527 115.639206
-54.674965 -4.311512 109.387901
0.645304 20.702915 83.802277
15.098518 -7.422283 117.483253
9.472894 10.758843 95.324486
8.791846 7.101519 130.233795
-8.268352 -10.939762 118.064339
-30.826548 -2.510276 126.537170
20.524721 3.209551 81.275917
45.038467 5.571135 111.285141
-37.006710 -0.589639 124.959808
11.249371 0.102974 145.820984
38.481480 -2.296992 125.066612
-12.469316 -12.652990 129.006516
0.880784 -12.173135 99.410629
-13.936735 -3.014144 111.460052
8.686699 -10.779960 82.207779
41.213963 -0.592315 120.271095
-1.040775 -14.237411 116.891708
-9.238514 -11.675127 126.495552
-15.717589 -0.978520 134.329742
-8.521398 3.004030 121.220634
-20.750389 2.763062 151.920029
16.591305 -3.165932 108.779076
-20.870022 5.717796 89.845840
-41.632988 4.610530 110.084045
6.270647 12.796600 149.752121
-2.678073 -13.573782 115.018105
4.997651 -13.043762 105.091042
-4.004730 -10.084558 138.790146
-58.277359 -1.903374 107.806709
16.273201 -10.755198 90.274055
17.135902 4.827660 102.441879
-43.935230 0.568203 107.312981
-14.127642 8.405602 97.227592
6.458270 -11.267593 121.559685
-13.023063 -11.592158 107.224380
17.090939 -3.513187 100.706329
-11.371942 -9.692909 111.276657
-4.130091 -9.546529 107.082939
34.848236 3.246011 134.701172
-49.000385 -6.596144 112.649948
52.592773 -4.691850 108.519569
16.789227 2.576574 107.436302
-5.894214 11.302406 120.878746
12.929893 -12.083177 135.305298
13.223394 14.664669 81.543152
3.035958 16.084913 148.319092
-9.180494 -10.602066 95.552437
-13.682725 -9.534869 100.622726
-4.903333 7.310686 115.411865
31.945223 4.366291 129.658340
-1.863433 12.336441 145.720169
1.567639 -11.824270 121.832245
-8.429797 7.139197 153.877151
-5.904128 -5.746210 150.425308
-5.710053 12.389410 103.490952
-23.412107 4.352975 129.171112
0.370072 8.468510 120.216377
21.130438 -2.194057 85.406700
5.080339 9.179667 144.026642
-11.292008 14.113510 97.635658
11.767344 -3.612714 141.186722
-33.880268 7.352585 120.943962
-15.627298 2.942660 152.104691
41.993851 -2.206438 121.412971
33.927551 9.954645 128.291473
-13.657069 9.699980 95.638916
-6.097416 -8.485946 144.921677
21.304758 1.986432 144.836731
3.521612 -8.972393 77.481079
-19.795477 -4.614966 88.590469
8.973693 -10.881311 115.746628
-15.543412 -8.179808 80.758148
-4.676794 -14.570729 127.229866
-20.655535 5.977241 150.660461
-20.503733 -3.084287 77.884491
-17.885832 -3.784150 140.670837
-41.429218 -1.060064 108.587082
29.744553 1.606511 133.907486
-4.296511 -11.247496 95.135399
12.948729 -9.433460 93.795105
7.052743 4.771545 122.430878
-22.147482 10.825169 136.780777
28.015621 7.510785 137.214828
-11.853615 7.828677 128.393921
-16.625666 2.622263 151.642151
15.846376 3.759577 152.046616
-30.974924 6.653932 122.162857
2.492680 -13.661688 116.295807
15.264959 4.698232 134.995728
12.720944 -3.545955 144.409958
16.335686 -3.372134 136.855392
-35.156509 8.689866 125.683594
-29.028072 8.116482 134.661865
22.684048 5.193423 145.329666
0.690290 7.714131 118.393425
-6.693451 7.175923 158.053528
-15.882373 7.511478 136.530243
19.615362 0.095413 85.198135
-8.509511 6.006210 112.728401
18.714209 -9.409728 79.986061
0.790052 5.510407 160.974106
12.936400 -6.989542 113.820717
-10.871530 7.446727 156.438675
-15.426458 -7.278506 142.024048
-15.533112 -4.351421 101.590240
-28.444990 5.667808 124.736038
29.377054 8.306106 130.818375
10.837085 5.928691 153.406921
13.199636 3.991605 127.977890
34.247566 3.167617 115.933769
-7.382134 -10.149903 127.697525
0.603987 -13.959504 115.529129
16.153418 -7.337866 130.871887
23.216417 10.206682 134.060745
13.632958 11.040177 149.650879
17.456429 -2.297441 109.872894
14.256101 -1.252014 114.016258
-0.365953 -14.649080 137.720398
1.693740 19.431309 86.867271
-44.273266 2.443924 118.587570
6.813929 -11.376187 118.932861
13.493075 -8.930283 103.903481
-16.953133 3.659798 99.773117
-20.982887 -5.633018 82.057083
-31.806099 5.634272 121.474869
8.412574 11.059745 153.983200
-39.878101 6.255511 124.800095
-10.382594 10.665373 132.321671
5.376419 17.489719 84.550674
5.630733 7.281432 118.763145
17.279566 -2.790954 141.051208
3.982645 8.902751 157.296982
-5.708092 -9.180181 143.282272
-11.110991 3.828631 127.223915
-3.497957 8.500877 107.235611
-10.331870 -12.914917 82.591736
2.810536 9.108515 153.937607
1.996038 -11.806619 97.677971
16.127808 7.688137 90.351280
-20.298918 5.318940 148.217865
-0.671064 -11.671729 90.460052
-22.498920 5.252898 145.473297
10.222767 1.330154 127.220581
1.008875 14.131418 144.153259
9.392900 2.946639 114.682945
-41.925339 0.874097 122.224152
-49.929550 2.785737 115.202873
-6.237669 2.334467 157.138184
-5.822551 -8.098902 138.250458
-45.791813 -5.654130 107.787582
-26.492851 5.806961 139.028503
-8.750284 -8.302922 89.605522
-44.924721 5.332376 114.967712
15.930605 7.196423 148.766388
-4.363893 6.457068 111.353973
-10.145156 -13.891568 130.359848
-4.178086 10.049393 157.087463
11.717078 -15.877048 131.517014
-15.090241 9.698887 84.635254
0.449991 10.854741 116.867889
-42.894684 -0.105100 110.390106
-4.869727 5.773393 120.419449
-16.720760 -4.586781 98.283142
-0.154969 9.087690 110.473137
17.670366 -2.292076 90.302933
20.593351 0.422532 96.813774
20.350279 -5.557790 91.675049
-2.505365 -12.343713 104.512901
-6.256292 -12.470314 140.280304
41.135029 2.166754 111.121956
-39.463406 7.200187 115.371513
-1.870035 -13.552271 119.131088
-6.688787 14.312630 85.650505
8.161304 9.808105 101.894936
-18.971638 -4.919940 96.984543
31.176352 1.075467 122.520325
-15.006159 7.325975 152.285477
-8.077093 13.361751 139.265137
27.425722 10.736830 131.027283
-37.610619 -1.535764 114.437180
15.396328 -8.570577 105.451813
15.817673 4.684191 100.159050
1.060980 9.871181 151.369720
12.226974 -6.844555 110.237297
8.575539 4.622194 153.931152
43.909706 -2.724756 105.585472
19.683784 -2.883777 94.433273
-13.042519 9.490667 71.053680
-15.016417 11.527017 140.008530
-8.228492 7.786353 129.936081
-11.788256 9.345122 99.801849
18.331993 -0.032127 87.037094
-51.442234 3.958815 111.942307
1.838211 -10.383142 121.657028
-40.540257 -3.659636 120.133560
-16.490932 -1.254807 135.549927
-14.457080 -11.121103 92.186768
-11.690873 1.818604 152.747711
-8.403122 -4.977178 153.748230
-11.108997 -9.344123 110.233910
4.271115 10.905567 126.411636
-7.471007 3.762604 120.592979
15.564403 4.162796 90.970665
-5.163453 14.792480 91.741211
-10.462733 -9.389967 123.191414
-20.441744 11.300920 141.572998
11.656251 14.520237 86.864517
4.078432 3.526867 153.136414
0.832416 12.371943 150.321136
-47.363636 4.076701 111.432777
17.647310 -7.432706 84.156540
14.180655 5.025552 104.659454
13.757655 2.481143 132.994797
8.805912 11.240507 144.875092
-40.968620 2.273067 108.547295
17.732180 -1.823809 92.046051
42.183636 9.077919 119.756828
4.760615 -2.211162 150.577866
-19.256819 2.013584 131.229340
-19.532375 7.774184 135.505676
10.505347 0.520427 151.528793
-28.823582 1.014175 125.720787
-33.981461 -0.202198 116.039322
-0.277125 10.612067 104.048447
8.841045 -10.343786 123.932526
-2.247561 6.498235 112.382996
-16.295046 -3.305763 112.261238
2.382876 -11.823320 127.545807
-17.018126 8.539067 134.903107
-43.796761 -4.569285 118.220703
16.884188 7.036144 81.736542
-50.546192 -0.968623 105.598518
-3.904116 11.409869 97.206963
-0.367037 -12.846767 126.704277
-15.304974 -0.090551 99.972404
-36.228447 -0.535716 117.640221
-13.191567 -6.368768 115.052628
-20.478521 -2.394809 95.947342
0.161770 -13.044275 126.733414
-14.063446 -0.984345 127.695938
7.502409 0.930756 153.899460
-6.861654 11.890400 139.191452
17.869896 1.337133 94.207428
3.249262 8.559962 153.687256
-23.067724 -1.776066 133.059784
21.623110 6.522517 137.514069
42.836151 6.403898 115.480659
-6.810923 -11.830259 123.281654
2.067597 11.641874 140.588730
-5.471120 5.921519 150.372742
-4.425233 4.175834 120.186340
-29.101055 4.689848 118.733047
19.044617 4.702861 82.579384
-47.278934 0.141318 104.413734
-7.583242 0.035297 152.500626
7.267864 13.441828 146.350815
2.974254 -12.964401 83.369904
-13.290163 -8.373128 131.142181
32.121620 0.093492 134.597672
10.152401 -9.365545 105.675102
-3.247456 -10.832862 96.488388
2.588922 -11.527657 82.404709
-15.162878 -8.480211 80.242348
34.563587 0.339380 118.059235
-7.775047 12.175644 156.365906
-54.792686 1.219778 103.864059
1.813231 9.706024 161.572174
33.164879 6.185569 129.535599
15.920742 -2.957179 120.819931
5.337423 -10.225533 129.748306
-2.983794 -14.415059 114.441986
-6.259077 -12.725410 110.401878
-10.310175 1.108119 153.037186
17.953012 -1.235541 104.104187
-1.172681 12.971960 146.255325
-0.103120 -12.523668 100.410149
22.630720 3.279993 132.193420
11.742049 -15.564361 133.455795
51.487598 -0.947397 109.296822
-2.153741 -12.054822 99.877029
13.474383 -9.649650 92.226929
-9.315525 -9.455597 135.800507
-28.365238 9.225430 131.886017
-18.260176 -1.831618 99.347542
49.515194 -0.376985 109.249588
-9.240169 -12.931156 102.140244
-3.611341 13.066111 84.252960
-51.094261 -2.603957 114.122093
-0.976790 -9.718448 90.972641
-35.854298 -2.049400 122.771080
-3.166165 -11.010990 78.438461
6.768334 -12.951479 120.808174
-0.104054 8.633326 100.954605
5.725613 -4.970952 145.740372
12.290227 6.988268 106.859528
14.713528 -6.977306 134.074265
-4.934434 -5.089478 147.444260
-2.494017 -12.536031 82.964806
-4.409038 8.742398 119.007965
46.978386 -0.154167 102.636299
39.103180 6.203399 119.154457
-0.805419 11.996572 89.133331
-16.809315 10.388671 144.977264
-1.446120 7.769890 121.800301
-7.750806 2.049772 117.284866
9.660283 8.506216 127.810364
-11.076185 3.681181 117.193726
14.414931 0.151801 126.691566
-1.877910 11.157988 150.792542
-12.531801 -6.265040 79.653999
13.751196 7.091023 133.654007
24.553499 3.090070 139.995056
-14.109675 -6.794326 111.006203
3.044016 7.040547 129.121643
3.635140 -11.066262 141.306747
-10.325250 -12.711704 136.731827
-31.003115 3.884123 131.661942
-7.878837 -2.070417 145.282242
-25.289927 1.463490 129.679321
-33.104576 4.680904 132.547592
-3.380528 11.316748 153.196045
0.471693 7.130721 130.200302
-3.560368 -1.928180 147.864929
45.805706 -3.825323 112.264633
26.857580 -2.325171 135.942062
-3.984384 10.528164 130.353027
7.041047 -5.209422 151.057022
9.246230 7.159103 120.319420
17.008154 -9.016033 89.734886
-20.315727 -1.923206 87.159439
-6.463648 2.558331 153.348969
-6.116559 11.189810 130.265076
2.192577 -15.204224 116.198700
-1.565230 8.972401 159.947632
-26.548914 6.156509 138.537842
6.983270 -8.086375 119.500099
-15.147465 -1.911324 110.988564
-14.741568 -4.194117 129.748032
5.450929 11.832082 131.152451
-10.663692 -0.237697 150.800507
50.032848 4.688607 106.980698
-7.474225 -11.959306 82.376160
-8.944652 -2.328275 147.494553
42.666832 -3.155211 117.971878
-9.877848 15.218895 143.267502
-6.397212 -3.308137 150.731873
6.177032 8.450018 130.117157
-30.310389 1.212411 128.308243
-40.325363 4.537599 111.235085
-17.056812 11.863717 144.199860
-15.166439 -0.546213 102.161606
-0.822640 15.728271 87.610092
13.776144 -8.756271 119.810181
-5.489598 -13.739131 134.843857
-0.760366 11.259340 103.673767
8.052762 3.181910 156.077148
32.306248 1.813359 130.189606
-12.137318 1.635571 149.892151
-4.381550 -15.260005 132.853348
-6.933349 13.348409 83.497391
10.279922 2.405170 117.915962
0.912609 -14.429628 116.471687
14.902288 -5.363276 116.341866
-11.873388 12.444542 150.928970
-41.802353 -1.207381 117.597107
2.879199 13.285828 147.751129
11.930122 -12.361091 128.449997
3.672488 -12.421754 87.310921
13.706829 -0.086030 106.155205
-5.918975 -8.510689 145.745560
4.196568 6.380319 152.532272
9.440049 6.206485 107.424156
2.706247 -11.020103 140.520615
10.848556 -11.992962 133.262146
30.226629 3.380275 133.029495
7.442849 15.508664 89.579155
-12.636197 0.595324 122.209038
24.220865 7.734089 133.263626
6.780084 -11.981593 126.675972
8.288763 6.593595 116.261757
-13.032470 -2.707544 123.405418
-12.778476 -5.672525 144.384293
-5.303904 -12.210729 89.682693
5.059398 8.091744 117.045326
25.582083 8.329200 128.219254
12.724205 8.498728 96.133873
28.866570 1.252398 126.888489
-12.367524 -9.211187 86.844238
-1.379454 15.299715 88.977768
15.703891 0.583397 137.241821
9.302748 4.561944 125.089638
-5.646901 -13.301914 112.839287
-27.546917 3.679148 137.702469
7.335642 4.521419 112.699432
-4.401019 15.920194 81.516457
7.288154 2.783321 153.349274
-26.381437 4.631521 143.489716
-15.587570 -2.514154 118.130089
-3.922177 6.865938 157.103592
-10.646683 -11.934067 84.813759
-20.284609 11.897060 139.562622
10.208377 7.909554 152.484283
16.503740 7.895300 132.951630
-10.946141 1.659380 126.798569
-42.534393 1.859359 119.303490
5.197747 11.653576 141.177826
-9.821952 -5.949786 142.834473
-8.329465 -10.334501 89.376442
-0.096824 -10.471049 75.507118
19.358215 -3.867579 86.769325
1.483451 15.959245 91.958183
0.715962 15.577921 88.296402
-16.756462 -2.799409 133.317474
-7.292164 10.286324 104.175758
-6.333752 11.530095 143.637421
-25.530085 8.314505 135.635773
-3.315697 -12.242795 108.906105
30.822327 8.919925 132.261139
-34.370945 7.430906 121.339134
-18.543383 6.864861 90.095551
19.965939 -0.674846 140.555496
21.698801 0.515868 140.518341
-25.283831 7.378296 129.621613
15.988996 -8.136879 135.492676
-47.119049 -2.944694 111.796806
-22.718084 7.831940 145.099579
13.244444 9.287383 151.930862
-15.173854 7.754915 91.126450
39.082672 0.061427 126.764992
-15.570051 -7.714368 88.193848
17.217846 0.690270 104.861404
22.769257 9.935541 133.077072
25.536482 2.000175 138.428345
-17.974470 -0.918931 98.248123
-36.035164 4.286710 120.246460
13.120912 -4.812448 132.227158
-13.020289 -9.296618 103.680077
-6.704655 9.850996 129.853088
-0.234340 -15.721890 119.553574
-2.212387 9.591675 157.080017
-4.846045 9.980345 99.684196
5.479820 8.119963 129.054871
-10.498534 6.913322 111.544510
-14.156116 14.112010 143.131516
-22.291925 0.097331 136.017319
17.959278 -1.537747 98.652306
-16.142454 11.413809 147.844009
-18.512608 3.633316 149.498215
5.871745 1.894632 151.580261
-1.348018 11.285100 151.740829
-17.199333 7.099257 88.163170
11.555182 -11.981392 136.774124
-12.502383 8.511475 92.207695
-9.601577 10.658577 101.268204
16.957123 -0.686227 110.823517
-16.729467 -5.279948 136.264923
-7.514420 -5.063367 148.272232
-13.539296 -7.462488 128.483521
-23.741381 7.519717 144.818436
52.582394 1.470813 115.152138
30.041143 -2.185751 132.065506
12.510231 -2.819763 130.339294
-9.148012 7.083568 107.616966
28.650839 -2.048577 132.487579
0.745780 10.841714 141.562943
18.104597 8.748802 148.734680
16.304436 -8.435423 90.151176
0.146348 13.096514 100.464333
34.732185 0.305655 112.942749
-8.141371 -12.905097 128.574585
14.620518 5.315018 93.950775
-7.196610 7.155983 155.808533
29.748354 8.559660 122.816879
-54.573364 -4.348167 110.918762
54.125401 3.035373 108.864120
-6.143904 -11.946530 135.529236
-15.953058 -3.477885 134.112503
10.597787 9.718774 147.432983
-7.735680 19.360727 83.025902
-37.604858 2.159773 125.542503
-22.863613 -0.231653 141.967438
1.921808 12.400359 88.207405
23.577684 5.360347 138.975006
14.170597 -9.681892 120.341629
7.558420 11.083827 100.211525
12.823136 -9.774514 116.147667
0.986484 -12.823510 128.950790
19.171888 6.084093 89.744278
38.550213 3.494300 124.460991
4.852370 -10.524543 87.102600
-21.638786 6.327715 145.128250
-16.558828 -5.335965 140.829514
-19.622623 -0.437374 135.387390
7.001636 1.942807 156.765579
2.646694 -17.897190 134.001251
-1.975344 -12.347216 102.138107
1.083654 -9.518081 116.825638
14.237629 9.297812 94.917664
21.080750 -2.057508 142.553558
34.999191 9.681940 125.896767
14.852551 7.466809 87.311424
18.798719 1.774733 79.697334
16.460739 -2.940696 108.695061
18.956034 -1.786888 133.682556
-31.795328 9.603836 125.216667
7.939278 13.258339 99.231728
-43.589199 -0.412763 108.408722
-16.966103 -2.035653 99.272026
24.273769 3.474591 126.433350
-51.021339 0.992022 110.740959
-3.465551 -13.506762 128.817642
-17.115936 3.316332 133.973358
-10.750504 6.490761 125.748802
5.229268 4.291751 111.985611
-1.771923 -15.136094 131.893768
9.398584 10.806448 97.835197
9.673805 11.156097 149.356781
-3.465420 10.252751 105.679565
-13.166628 -6.826695 104.586304
-28.921154 2.130288 133.901016
-12.220934 -1.616711 150.362701
-19.051247 -7.377979 80.901009
5.299528 11.694112 101.995934
-1.438771 14.736450 90.263420
-37.673306 7.558523 120.993111
7.082114 0.599188 145.664444
-18.532719 -0.302836 96.809547
-11.824882 -7.878677 137.299576
11.150607 6.622023 126.072205
-11.123657 -11.180892 78.845535
-33.905083 1.177046 121.088768
12.461270 11.456995 80.643440
-27.855368 -1.257806 128.035645
3.061297 -13.968291 117.520386
3.252924 6.879426 122.224686
9.088919 10.879871 88.789093
47.650356 -4.483243 108.476860
5.107147 0.920042 154.289627
11.875827 -1.151401 122.912804
39.348328 4.647418 114.926651
-2.701684 -11.340546 91.939674
-38.657944 -2.972513 119.320267
-6.705077 14.537085 92.774010
-19.392986 -14.880547 78.619957
-28.473343 6.682712 139.785461
-4.445547 -9.706549 102.407021
16.171263 -4.573616 102.845367
26.862921 5.965942 123.055267
14.213668 7.805024 79.064117
29.973091 2.885020 121.495178
19.220972 0.890733 91.639114
-48.451225 1.905450 113.136787
11.611179 -13.007825 128.298584
-13.440072 2.595252 94.881874
-20.995832 2.630945 149.620758
25.123959 10.938225 132.685455
38.247219 4.765793 124.180595
-1.913900 -13.608254 140.608780
6.708820 6.806536 108.173454
13.828959 0.416076 123.245720
1.994705 10.659034 94.194321
-7.781448 9.783564 103.303146
15.791273 9.878558 146.101730
-4.460397 11.518970 148.268616
7.995811 -14.170469 131.314575
-45.469337 4.810992 118.826897
5.595739 15.219947 78.056267
1.508807 -12.239407 82.118538
-0.489570 -13.445357 86.605347
-33.383320 4.319086 130.179947
-37.374668 3.447389 115.889786
-23.752401 -1.683348 135.551041
-34.151409 1.513580 115.414391
39.739941 -0.597765 120.036400
18.304222 -9.150993 80.937881
-19.163712 11.439960 141.491821
23.121239 0.750058 128.960220
17.928810 -7.476759 84.350647
15.986657 0.392512 100.778847
22.274511 4.642611 145.902771
-4.031951 6.588890 115.901962
-9.516410 -11.016358 102.634132
-32.180218 5.898448 117.249535
-4.197009 14.389906 82.163734
-17.661869 2.773152 135.178726
15.136197 -1.460732 131.248413
6.628091 -6.397282 80.642647
40.536575 0.850714 109.797005
12.513412 10.196419 89.558769
1.283444 19.468872 85.201012
15.615234 -7.937914 110.878922
45.660393 2.920387 109.068008
7.482425 -10.263208 110.878433
36.821838 3.313910 126.983887
8.369304 -7.908471 109.341301
3.959098 10.238503 93.408203
30.597834 4.850776 139.171219
-9.421121 -9.282466 116.873474
-25.281176 5.032761 138.599548
-5.689186 -0.920216 149.991577
-49.220467 -7.960157 107.689369
16.991137 -1.030342 99.696770
4.660620 -10.838010 136.405914
-8.419257 -14.704178 135.153870
1.363793 10.383714 113.619080
16.022823 -4.195994 111.941345
5.084887 6.192677 153.929932
11.863048 10.953610 140.480942
-6.324847 6.312338 114.924263
-16.727966 4.797142 99.394150
-9.673340 -9.845387 84.581413
-13.064322 -4.104345 141.102142
8.957170 -9.450218 111.494232
22.674559 0.393573 137.679138
4.506544 -12.918181 124.793839
40.324768 -1.209707 125.312485
12.441828 -11.358728 123.840317
50.376736 2.377674 111.451355
23.029955 9.970364 135.255707
5.225377 -7.908438 83.150772
-38.913525 0.483272 126.008583
-3.149324 -10.879854 95.642227
-25.208033 -1.008955 132.747971
36.875957 7.092592 122.394157
0.959354 -10.477966 125.479279
-6.471169 13.325510 151.996033
-15.656990 -6.378523 99.303146
-23.948315 4.687871 143.687775
-25.124458 10.988561 136.981918
3.457885 -9.037873 140.267319
9.676575 16.370632 77.883011
48.890308 -0.511145 112.417809
9.027570 -14.840499 88.041855
38.258080 3.471254 125.940277
-8.109508 2.342443 151.514725
35.684555 0.475641 126.202972
1.837925 17.381037 87.014191
-17.368822 -7.714816 85.464859
-15.405817 -9.311156 84.846764
-9.203684 -1.327280 151.478210
19.166677 -1.890040 92.886810
-3.498254 -12.246468 116.308762
-46.881519 3.511740 115.915215
-9.223013 -6.890788 141.056122
-13.106170 1.299674 123.690170
-7.177872 -11.437271 84.832542
-14.080309 0.391736 148.581268
15.000021 -9.080291 86.776031
-33.345730 4.764743 115.230255
19.552881 0.299080 84.473778
1.878721 10.706463 149.856766
43.473320 -0.067428 120.939720
46.362793 1.691855 103.344040
14.513216 1.692893 124.952309
-36.629189 -2.389435 128.019760
28.325928 3.910833 128.562897
5.787863 7.467944 109.661987
23.741709 -0.314963 136.886215
-16.468496 -5.807493 95.973938
39.275269 4.711581 113.584068
-11.220381 8.856150 127.900215
1.375253 -11.806297 99.972382
-46.539249 4.768096 116.964111
24.896929 9.332046 131.846680
7.166446 -13.070389 129.260468
17.287308 -6.689947 108.372040
10.637725 11.619316 97.937782
15.674148 -0.179896 132.440536
-38.061321 5.022478 128.665741
0.776735 -13.182919 123.302788
16.486671 8.935640 95.381172
-4.166015 8.968243 128.062546
4.905703 9.676457 110.786339
-5.965411 -2.333837 146.804352
3.417351 -10.237668 85.042351
12.916935 -3.754707 117.868484
-47.275856 -2.877788 108.298416
-13.475469 -1.276972 112.702835
-3.905203 10.299126 152.911026
1.522179 11.735158 95.830368
-21.820078 -1.539075 135.566422
-13.015299 -13.811119 134.439255
8.889050 5.589071 113.870552
16.726452 -3.683128 128.633118
-35.159142 4.345288 116.340729
-14.459301 -10.139571 130.699921
33.189465 3.814024 128.635666
9.230314 0.854160 149.323059
11.019402 7.741981 105.611015
3.123729 -13.636703 96.263947
-14.417202 2.430235 113.591278
1.480092 12.592392 94.994843
51.253147 -2.310423 113.563850
5.138182 -13.681809 133.778595
-11.269833 15.736175 88.622910
-43.152912 -1.171467 109.794495
-19.186977 3.370681 134.492065
-4.846257 13.318924 137.672180
-34.177509 7.236623 127.648537
-12.454899 0.963179 117.945358
28.606745 6.736825 136.341217
15.395341 5.667676 136.951233
25.619148 1.116972 139.831787
9.143748 -10.604667 103.569778
49.995575 1.702140 110.318130
-11.343135 -4.750389 126.205299
-35.448372 9.136596 120.157028
1.666663 14.889585 85.518509
18.302963 -0.588766 106.975998
0.066953 -11.663978 99.288757
44.693813 -1.928885 112.518707
-2.039427 14.057047 82.060951
-5.124092 5.735643 109.338669
15.028822 9.188920 85.821358
38.293625 -1.486966 115.804245
-47.750000 0.621161 105.951218
9.610075 6.212244 112.045151
-20.491039 4.472385 146.850601
48.703190 -3.554696 113.657173
4.195691 10.839508 130.621902
-15.101305 -4.791861 97.493462
-10.119881 2.080756 150.863129
12.624615 -9.544999 104.280830
18.056099 -2.180355 90.067909
3.415648 -12.085844 79.005943
-11.142298 -1.682392 122.655975
-10.518846 -11.671200 124.597473
9.876210 9.075824 104.293030
-19.015610 4.714221 145.787994
-11.962671 -10.926380 96.198761
12.328758 5.983037 152.922348
-29.589880 9.231347 122.165009
-4.812426 -13.619109 118.149963
11.333787 12.516045 94.264030
-5.989698 -13.270340 100.692299
-6.614387 -10.361166 116.303085
-32.777447 8.177352 128.481018
-15.700127 6.856861 89.368370
-1.574067 11.387599 145.983124
17.165619 -4.410377 94.984726
28.972620 8.658792 128.982224
-17.251003 -3.204281 113.881516
-23.440672 2.873849 128.636292
18.287277 1.686677 136.124054
-0.832727 4.719418 108.236084
-6.209150 -9.481844 87.575798
-10.686563 -9.595252 108.839203
-20.840361 -1.080118 139.088684
-0.536534 15.787283 78.513840
-13.288869 5.193409 153.187210
37.582123 6.404692 123.719391
38.943115 -2.367248 117.949913
-19.219019 1.811082 146.062500
-14.953717 -8.652118 89.339333
33.716110 9.827900 124.169212
-9.455460 -8.989554 86.423569
-11.409509 9.714832 132.525528
0.565668 -9.277637 79.689468
-34.126438 9.977499 123.371330
-2.182802 5.782305 104.150650
6.379494 3.291221 152.978271
-16.852858 1.616598 150.020569
3.928865 6.917694 123.655006
20.331694 1.384450 85.561104
14.475130 6.767688 130.020554
14.796005 7.672946 101.938202
-6.095049 -11.852592 100.126297
-11.618591 -7.087605 118.814362
-44.239635 3.876740 110.903191
-5.933812 14.403773 91.422058
-19.665401 2.761114 80.773720
10.652349 13.087645 87.424973
28.460173 2.994239 124.297104
-10.877089 -6.906291 113.125458
-36.299526 6.527961 122.373230
-46.291328 -2.065934 109.705727
-32.143440 8.533740 127.147896
10.734153 -11.454094 102.754898
5.469262 8.737541 143.348434
-14.163490 -2.531060 134.912216
-19.140293 -2.067157 141.710831
-19.254625 5.781440 136.514877
9.053136 -13.943987 118.802429
-54.350128 -6.680840 107.591682
-41.537113 4.935453 116.246330
9.060658 -6.548141 139.173935
-17.018166 -4.790490 95.565331
20.544067 -3.156303 132.977722
18.684519 0.016616 139.618881
0.384620 -12.098434 110.496567
29.964846 12.572705 128.324020
42.375408 4.547313 115.144775
-50.878258 1.696715 111.132515
28.368093 0.859678 135.597565
-3.298657 -13.072270 93.538795
-13.454860 -10.157119 107.096642
15.805362 -4.710968 107.974297
0.058181 9.761197 123.478912
36.842682 1.454953 122.566093
1.454762 -12.788425 126.790588
11.774491 -3.603809 121.189278
14.786557 2.290357 111.016525
28.647732 4.151879 140.409561
-8.482388 -11.305120 100.867607
-5.827398 15.632136 84.523109
-30.204424 -0.885553 131.138153
53.078426 1.498059 103.116379
-9.330383 -10.970256 101.951523
-52.710148 2.440052 106.765289
16.819763 -2.723035 135.187500
-28.746262 8.168054 132.671616
10.651985 -0.644226 155.311951
-31.956602 -2.698621 128.722794
12.690531 1.642022 149.718811
22.111450 7.008449 135.422226
-2.064956 12.755014 94.192055
-13.756842 -7.910384 97.123940
-0.980891 11.339350 103.454468
43.657478 3.022513 107.324570
41.142010 3.232203 122.904495
15.414213 8.098088 142.917664
8.848318 7.004352 107.088295
1.225581 11.076649 155.618362
-11.958327 -6.517571 138.937256
-5.471674 -10.995668 132.032318
-1.530678 -14.956063 131.738297
-6.117876 7.174668 117.507072
7.431967 -10.887889 97.719070
16.263969 3.225830 89.356171
33.788544 2.091855 117.325539
-45.542496 2.195185 119.939697
-18.200966 7.775497 137.072693
-50.154110 0.759830 102.028519
30.481983 4.792792 122.384895
-31.764435 1.899408 122.509979
11.917101 6.134706 111.216286
-27.682102 0.577364 127.946640
7.820220 -3.240591 146.722626
22.574963 0.531860 138.058136
21.276264 11.293995 136.078873
-17.477934 -1.914247 148.520416
48.396011 -0.830621 114.918289
-10.199274 9.376787 131.686142
-3.122025 -12.433862 94.835533
4.683424 -10.596694 114.053192
-22.421371 0.305045 130.351944
-1.399183 -11.686620 128.133942
2.624381 15.398629 90.439728
6.177011 6.243814 124.292038
-46.510941 4.321526 108.089561
-17.061125 9.412607 141.208389
14.806547 0.374446 113.773972
-9.230225 10.038170 147.544571
-16.035717 5.926263 105.655441
8.753683 -14.062696 136.974045
-8.548026 -10.900936 96.816299
12.837588 -5.378351 142.815445
3.621108 -12.121178 79.961876
-24.310314 2.427410 129.067688
13.438839 -8.792139 131.894669
-6.663769 0.019620 151.721207
-12.174984 -10.672385 135.585114
-9.246686 -11.463674 138.424423
-1.290275 10.283747 100.006950
-9.004561 -2.388429 147.911026
35.349510 -0.756103 123.153023
15.989964 8.280154 153.761810
-0.815015 -13.512189 108.960854
-9.169037 13.274220 89.334007
8.756419 12.321734 141.129318
-47.215397 -4.645370 106.477570
-16.983978 11.297720 82.078598
-38.501163 2.310340 126.827568
-15.503841 -1.814681 108.409462
-29.012442 7.817003 135.916519
29.001263 9.734251 129.613098
50.377678 -5.520690 109.120117
4.065698 -13.416990 95.827560
20.682686 6.531118 133.483337
-14.413927 -8.836172 100.416634
8.871079 12.314116 85.301735
33.706188 9.841275 129.030289
-48.357292 6.791643 109.262566
-10.821874 -9.215585 135.457718
-24.858727 -0.407582 138.851685
7.024698 15.979419 80.330315
22.038868 0.336513 137.324066
8.671820 -10.008120 96.343063
-18.759050 10.261509 143.965988
30.886793 4.279205 135.335632
-16.496044 -9.037212 83.048462
15.570256 -8.871036 101.021866
1.456618 -10.575370 78.827103
45.782154 0.215537 122.565010
-7.533997 11.144440 95.880135
28.113159 8.620902 135.846268
-27.609615 4.888537 143.131088
-23.437387 3.610458 143.666992
-13.056000 8.469003 89.554062
-0.998284 11.985458 87.833420
-6.643210 -2.013773 146.921997
7.631873 -14.735972 127.208115
6.870166 4.910269 110.183838
-24.693073 6.737539 131.037048
-8.409079 16.560226 85.435486
-14.447427 -5.345804 101.656586
-12.189845 -6.853273 114.658218
-15.716786 8.571826 147.722275
-54.400826 -0.589405 110.203033
-12.670703 -7.678559 121.990120
-14.146354 -5.316558 122.427063
-3.130791 -10.645292 104.489143
8.142869 -13.182178 129.857086
-13.749967 -6.082567 137.404953
-18.192543 -1.860440 135.489426
-15.278776 1.035439 130.686508
0.705868 12.886341 98.383400
-3.922495 -12.191364 100.159958
14.988781 -7.945518 99.591599
-43.725025 -2.754069 109.980461
5.093948 9.854275 111.158089
-15.524958 6.687664 149.502075
-15.396531 4.359393 136.432556
-8.329981 11.634974 147.904572
-11.316819 -10.954216 141.713043
-25.914946 6.961183 136.892822
6.975257 2.361892 158.039825
20.608120 -4.338005 83.207741
-6.477767 9.242067 104.573639
20.092693 7.045979 133.131058
-8.547407 -6.350476 119.434334
13.132113 0.671480 133.772583
11.681287 -8.703264 138.641052
8.463737 -12.981383 135.497482
-27.677050 1.180837 124.583099
-43.200336 6.452916 115.319359
-16.076344 -10.134982 104.740738
-21.379721 8.514435 131.272110
-11.687593 -8.666863 127.978195
-9.482514 -13.696145 132.816833
14.081085 -5.732983 146.420929
15.887842 10.360117 147.170929
-12.280998 9.816371 89.869209
-22.208815 0.519887 132.142990
36.894119 1.727588 116.020889
7.854982 8.358864 125.345024
3.089418 13.538047 93.553421
-10.432721 13.342950 134.979889
19.339870 -4.860694 137.081757
-7.910543 -5.086905 147.799957
21.588215 7.119029 132.709030
-4.573916 -12.696974 123.446587
-18.515348 3.714687 92.761932
6.702047 13.450325 141.957199
19.280016 1.344686 88.978104
-14.837694 -8.147288 124.125900
-5.248043 -11.588087 133.740402
3.399996 6.663622 119.858276
-12.333986 12.731786 87.277847
10.859494 -9.972544 84.645767
-42.340107 4.615203 115.737930
6.541066 11.510339 138.995575
-14.103918 12.668158 142.914444
-9.869946 -11.240281 79.029503
1.525415 -11.487282 103.481400
-0.384607 -11.833061 98.968094
9.255556 6.051916 153.787445
25.889280 11.123501 124.767067
6.901968 13.100395 79.679893
-11.223413 -4.927191 123.291039
-0.556409 14.750669 144.015289
-12.688211 -7.080101 78.574654
-7.102134 9.731197 116.747322
-0.021410 11.720383 97.242462
0.945550 14.316349 79.364075
-12.364374 5.828855 76.127785
-13.257691 7.206118 154.513763
-5.693587 11.271457 150.405151
-1.196716 -13.160797 129.841736
33.633690 1.693910 127.927597
12.937790 -11.282429 98.646423
-7.235037 14.834303 83.838509
12.162336 -6.799073 141.225311
17.837736 -1.468062 91.032532
-42.935863 4.762576 107.386398
-4.507238 6.898063 123.613449
-6.604195 17.025740 86.636971
9.010168 -11.732470 136.169037
27.308243 2.779222 128.653183
-49.004555 0.707656 104.519653
-3.692548 -11.129324 139.352493
44.077274 -4.136140 119.332291
4.417326 -13.117894 110.314407
-2.375565 13.011661 82.124626
34.813580 1.843600 124.684410
-16.098579 1.459433 101.201775
-4.253991 11.127792 147.940536
0.260129 -11.332862 88.394455
-30.866188 0.435621 133.821472
-2.362693 11.606169 151.265244
-26.416956 -0.836963 122.884369
-14.523916 -4.574113 119.458328
-15.593085 10.702160 150.421448
16.246700 4.897335 149.484268
-35.942577 0.642537 113.908043
11.376075 -8.528454 112.894722
-8.338140 -5.660635 144.950027
-15.673670 2.460147 93.805008
-3.579653 15.141077 85.514343
4.833600 10.742215 136.577347
15.158962 -7.383042 130.254562
-48.436016 4.716310 108.742218
4.866912 -4.584233 152.004211
28.311432 9.067360 125.258942
-22.679121 -2.235262 141.138489
-12.338903 15.856181 83.650009
11.162558 12.662229 138.851501
-8.972828 8.194483 130.246063
-0.638685 14.777089 138.313263
14.612788 -5.948373 127.004440
14.595133 11.951569 87.377495
0.859142 -16.238043 125.322197
-51.027443 3.821704 111.219513
14.500582 8.600720 150.906357
-15.681430 -9.352390 129.963989
-18.945963 10.275802 146.651855
-15.485914 -8.608986 93.896408
-13.246558 6.169520 135.389832
-4.428751 -9.354990 122.815720
-11.109515 12.874772 92.250504
-10.436275 11.060090 133.175400
40.185448 -1.378382 115.751999
-28.599926 9.307323 130.134689
32.091339 -0.081745 131.962891
-31.766348 1.715428 122.938210
-7.144456 -5.343851 143.940704
-6.672146 13.037777 150.437424
-5.475851 13.199543 140.217270
-8.484865 6.083792 128.583313
-43.013355 0.056335 112.354599
-17.572575 0.380775 106.034798
7.356853 5.860041 154.300140
17.582655 -0.125929 151.718079
3.814239 18.576040 83.917671
28.690010 2.199174 135.962326
-19.278021 6.254793 144.393082
13.742573 10.048536 147.661224
-39.709534 -2.422300 118.182343
29.855305 7.202850 135.040833
1.323947 -12.413482 112.292015
-1.391694 -17.753805 124.243294
15.419754 -5.895485 131.106491
1.846808 -11.980699 100.238274
23.018475 5.481576 144.258163
45.649757 4.098258 110.483978
17.222050 1.071390 102.123230
-33.289562 6.520381 121.195145
-13.077633 12.887655 141.509781
8.849735 -11.308392 116.363312
3.100465 13.156952 142.569962
11.070584 3.307476 152.329086
-14.896979 -1.343687 145.944641
6.345320 8.468929 104.312088
10.006565 13.544534 96.185150
18.493996 1.655078 96.063896
-6.331215 16.687246 82.040565
15.594233 10.763274 141.242386
8.699240 -10.778096 87.381783
27.921341 2.869936 132.963760
9.879531 -9.059891 110.069443
8.313427 9.794848 100.566292
-0.181017 -12.303840 91.313927
9.830426 -8.832075 103.719597
1.540523 11.351543 97.340858
-6.861523 -2.099244 148.500198
5.283254 11.320643 104.661743
-36.408737 7.505576 131.358353
-6.700698 -11.871523 103.480370
-15.217874 3.931482 90.536545
-12.985343 -6.563695 120.436356
49.219696 -2.740107 116.266899
-18.082438 -9.190279 80.821831
-10.440541 -10.104883 127.443130
10.615130 1.713064 112.918190
-31.110275 7.382798 121.455330
21.387484 3.186137 143.490921
19.021235 7.347184 80.096863
13.864929 1.562461 124.887657
2.008077 -10.765311 84.872559
5.933778 -8.944219 111.737534
-16.502455 -7.425307 92.794525
-17.608597 6.376403 83.890144
0.683850 10.883689 136.839050
-42.505779 -0.684010 123.610168
21.622429 2.532164 142.937912
-20.607262 7.932381 147.891968
-0.093598 12.873731 84.754005
-9.451305 -1.781685 149.700333
-46.983860 -3.125200 107.001633
2.693360 19.407352 77.382454
9.428435 3.724360 147.676208
-15.115357 9.293248 149.707809
-3.369089 -8.179920 130.395630
4.311781 -11.337939 79.883163
19.608236 3.775595 150.535858
-1.705169 -12.175028 107.742256
19.950457 5.233304 134.046768
-46.103058 -5.207449 112.125824
30.070871 0.152395 127.866081
1.213515 -14.921253 99.005081
-11.749949 -1.604462 145.676453
29.644590 6.825016 123.846863
-12.748251 -0.044357 118.013039
-20.475101 5.436055 94.122330
4.874621 7.401381 154.675949
-33.789371 6.360071 135.236557
35.246708 6.391742 125.103813
-10.779424 -12.978189 79.216927
6.800360 -3.792620 142.695175
-10.129859 -14.161207 104.744911
26.750015 -1.379371 141.008469
9.951075 -9.082257 104.883904
-17.147224 -5.655453 103.220543
5.371680 11.609845 133.684738
14.142377 7.291773 100.660606
-53.227703 0.189875 108.953743
-24.271858 6.357548 138.827698
15.838996 -1.754281 130.584076
11.572248 -8.440517 133.295792
-7.453629 -13.219731 102.555962
5.352482 0.442812 149.374023
47.293385 -6.549054 109.330147
13.552169 -9.030298 100.706558
32.024574 -1.078939 121.244080
-23.564276 10.699748 134.232559
-5.701530 -1.439028 146.565262
10.356594 9.248697 132.491776
7.736473 7.378347 109.192169
17.498817 -8.773526 104.474014
-51.720802 -0.017676 112.316231
-4.116794 9.761129 130.556854
-9.094249 -11.324056 80.736267
-39.090847 -0.999899 126.905022
-6.157027 6.257899 154.013885
13.679037 -10.665958 87.884468
22.445244 4.396641 139.711029
11.147529 13.262702 142.613220
0.019490 13.313828 138.579987
4.973034 17.958340 82.530113
-17.420858 -10.086151 82.133621
13.366673 12.710402 86.906128
-5.871328 12.442043 153.441223
-10.045911 4.721263 124.492188
-3.433261 11.568716 152.812424
4.497791 -11.585338 118.786041
13.620295 3.129962 133.497604
-6.816252 10.772167 149.995041
16.891680 -5.864800 136.659912
5.758299 -11.042695 94.599472
7.836478 -9.577632 134.123657
-10.895593 2.555460 109.853691
-11.451717 -5.523493 119.996735
9.511921 4.718774 155.194351
-14.574967 -7.212750 119.703232
6.262987 9.963408 107.621277
13.675687 -2.348226 147.503494
-6.381605 -3.597996 153.763901
8.900786 15.963149 80.939453
-49.436390 -3.343747 112.552048
16.775396 1.824718 102.649284
-12.533245 3.307598 109.209595
9.893955 -16.046465 132.124252
-18.610220 -2.775246 143.730392
6.652671 -15.477544 109.771461
9.323221 -13.079264 86.212883
7.217255 10.832747 149.040192
-14.333179 11.263537 89.262947
-33.111542 5.536685 125.596306
3.658419 -8.884048 142.100693
19.476732 -0.705353 143.606995
-18.127054 -7.395363 140.839859
7.959937 -11.294554 104.084114
10.569543 12.508826 84.917557
-4.758385 1.152488 154.264404
-1.735322 -12.476314 104.932892
10.984548 -2.823044 124.076645
-34.011227 4.431507 128.030899
-40.111496 -2.411011 119.747787
10.586637 6.059754 125.605957
-9.210068 -10.582270 127.366661
-18.363874 8.884257 139.852768
-44.536224 2.384624 109.091064
-10.052929 13.082784 89.450783
-5.511236 -8.153041 141.790085
16.252573 -2.790956 100.685799
-15.564874 17.351574 75.268372
-36.324337 3.471737 114.985107
-4.953797 -4.884036 146.846970
21.438759 7.557963 138.702805
6.190742 -10.251071 97.700714
-34.311501 7.829716 121.476692
10.173034 -8.954176 77.284172
14.029337 -3.909288 120.420250
7.444290 -12.365986 87.320793
-3.858351 11.437353 103.917778
11.011009 -11.407390 133.683762
44.719498 4.597477 117.732620
17.326021 5.795922 84.946220
1.837721 9.870152 112.530411
12.517691 1.138463 150.063522
-16.293491 -3.358499 147.742310
12.657343 -8.980042 82.959976
-14.941493 -1.593113 135.576675
-2.674519 7.016581 104.123810
13.203687 -9.723887 88.818161
-33.502598 2.048584 117.485649
-1.606974 -10.381353 90.814682
47.664963 -5.673959 104.727257
-4.353672 -10.961134 113.983040
-43.230247 -0.039372 121.658913
3.656453 13.181470 102.271637
3.705385 -19.027592 125.668312
44.691895 2.269783 121.946587
-8.510838 -10.131448 91.567703
-2.432000 10.659768 109.056480
1.306030 -15.498777 132.546982
-20.384832 -3.211764 101.536980
34.278061 7.992495 128.346664
-20.270287 -0.380057 80.592567
9.529890 -8.342416 121.668297
19.261192 1.189655 89.787468
2.820683 14.849199 146.224670
-2.414344 12.478155 88.596962
-41.641079 -1.357850 119.169655
-12.236412 -10.603539 96.236038
-13.453601 -2.320169 122.410500
-7.481747 3.385707 152.372330
-16.841965 -0.362970 77.185608
-18.132080 6.259979 137.001251
9.539807 -12.676901 129.498444
-16.661802 -3.648623 106.781425
52.109951 0.524690 107.705070
-17.156176 -6.481290 89.600967
1.029519 10.831406 96.914314
1.381012 -12.030869 84.944305
-1.546273 8.016263 157.447281
36.093285 7.657759 123.496635
-27.938570 6.225996 135.536423
8.027567 12.646676 133.343277
12.031154 -8.778015 102.433754
-4.218097 8.218667 115.860970
-11.386340 -9.653852 135.905533
-15.052423 9.368157 96.940521
-0.484636 -16.100718 101.254562
1.198326 -14.593601 97.586952
-3.009005 -10.873206 140.740784
-1.040628 13.734159 85.844864
15.677814 8.101713 87.699471
-11.278342 -4.916488 120.722176
-32.436428 10.795281 130.620285
-20.557138 6.598473 135.248444
11.091702 -7.342328 101.296082
14.787533 -3.351956 133.930984
-2.839305 12.070306 148.009338
-18.631950 0.977788 148.265335
-29.830542 -0.134112 135.536789
8.839866 11.377756 146.752457
2.493214 14.624899 94.892075
-17.284178 -5.766121 89.686745
22.593338 -0.717379 132.763275
12.124617 5.414406 114.657219
-5.417962 10.697367 100.001633
-1.983444 9.920214 102.835907
41.814316 -0.594164 107.378654
-14.538375 -8.177568 86.769180
-23.556175 1.254939 142.976639
-18.522631 -0.140942 144.318695
-48.823437 -7.209102 111.557198
-5.644909 9.392808 124.550621
-42.101376 2.605817 110.874184
-25.549206 -1.024263 137.117203
-10.120667 3.271118 152.965836
-15.452046 0.413280 134.902634
-25.813169 1.546813 131.096741
6.462705 -10.410299 103.476402
-13.789812 -8.272256 94.085579
-11.429167 -12.961676 129.597000
6.900396 14.283499 89.514473
3.569043 20.859106 77.232330
-4.564527 -14.900074 121.590439
2.216216 8.264864 108.851036
18.814690 9.743898 147.085571
-12.811355 -10.640238 97.073051
12.494425 3.873054 128.487900
-4.974367 11.032249 104.656807
-25.888731 5.924178 128.823547
0.783936 16.746550 96.693199
-22.790579 -5.291331 84.094551
-37.567036 -0.769143 117.401672
41.914509 -3.125158 118.247040
-23.268953 -1.781583 132.312836
46.241940 2.558200 104.805168
20.476610 3.252480 91.848282
-2.759544 9.144647 118.639297
0.950438 -14.544759 136.534332
-21.627424 6.062031 130.762802
-42.860172 -2.669629 110.817551
9.507453 1.113176 151.864807
7.137820 -2.592596 163.023773
53.420090 -2.423472 109.372162
-29.630764 10.164508 128.184875
-17.083368 -5.721889 94.116081
-24.362469 -0.953978 133.459839
-47.753593 -1.429945 106.363953
7.687619 -0.867373 155.094147
-15.664421 -4.392396 98.610939
13.732619 -0.239302 112.960411
37.974625 4.950342 128.865448
-0.785823 -14.806954 134.315369
-4.421905 -12.391083 86.135765
11.532496 13.840528 83.986473
-0.809457 12.791427 146.824860
1.840034 12.182167 138.849609
-14.005523 7.893188 149.611343
-5.926684 -9.433920 81.419312
-43.534828 2.018890 103.118774
-17.602757 7.630389 137.388763
-0.721492 -16.488539 124.038597
-1.572221 -14.872094 130.634140
-0.878298 11.359012 136.128128
5.063889 14.482443 89.296600
-18.007093 5.099810 133.796982
-16.663383 8.436194 133.947998
-16.201040 -5.497684 113.949356
-41.695278 -2.261050 120.123154
-33.201004 0.376590 123.516708
-10.842193 -7.741426 124.345863
7.887935 11.386792 151.861481
5.924695 15.199586 92.160103
11.025130 13.861766 90.805824
