ply
format ascii 1.0
element vertex 2048
property float x
property float y
property float z
end_header
23.080462 5.757809 40.621090
13.920986 4.708152 132.577682
-18.308081 -7.632666 62.846024
12.924817 10.530895 102.466568
-13.410820 6.276379 134.091751
-2.759082 7.244292 111.115471
-15.642005 -1.529143 125.700623
-17.150883 -0.794004 93.734215
2.200136 -13.491068 114.606621
36.432945 1.627773 120.467644
12.538951 10.987365 139.907806
15.397514 10.810779 69.459053
-19.172171 7.177147 77.610130
39.767784 6.979092 119.700478
-21.717867 -10.365749 49.410378
43.815338 1.581531 108.049469
-31.070133 2.196142 129.565842
3.395852 16.306639 41.502338
-52.871784 -2.609152 113.389832
-48.849186 -1.857795 104.664116
-36.362652 5.562979 128.393082
-48.965229 1.174226 104.472397
27.904684 9.736576 125.411232
13.589227 -2.391701 125.557861
-8.810820 0.471936 149.829590
-26.935692 1.493036 130.296997
-1.454751 12.431746 56.465466
-11.636353 -7.137716 108.615952
-1.477302 13.566604 68.028580
-12.283881 -0.933461 126.232544
32.843922 0.658975 124.604393
3.737617 -8.528850 146.867615
-20.127056 9.039166 143.831589
7.261583 11.005062 131.011368
12.214143 -4.709966 143.331055
10.932689 -5.368382 36.503475
-32.913555 1.139884 134.495316
-51.469437 -3.304986 103.185120
3.218076 12.069932 97.146240
5.155208 2.183458 151.549667
9.596642 12.662593 48.068642
-20.239946 0.479776 131.389999
-1.859810 5.862462 117.040291
16.129719 -12.679893 70.561882
-31.447676 9.665586 125.897148
-8.665994 -6.183062 109.032951
14.402831 10.599716 64.976067
2.483962 -13.859115 117.284187
-48.413574 2.622670 107.494225
-17.345760 -3.421730 140.623886
-3.267949 5.428705 110.200981
14.756455 -4.307882 108.281120
28.560633 1.301734 122.549942
6.769166 -12.258157 108.098129
12.758852 -4.408017 113.559349
-12.304033 -13.094726 57.222603
-22.694946 -7.940278 74.915955
-34.010979 2.086120 115.398773
-6.123916 2.009887 150.507385
-21.073063 -12.756339 46.316967
-12.915585 -3.699686 126.351967
-6.515678 -9.992701 40.229904
10.728763 12.163698 51.115643
-27.195684 5.365410 128.663315
-22.034422 -6.041038 62.363811
23.730106 3.167499 43.691963
20.868694 7.776315 131.132217
12.756837 -9.999851 128.290054
22.522507 -2.047024 130.137527
-18.128036 8.211798 55.821484
16.795017 8.704977 63.049801
22.597244 -4.968338 45.076050
-2.892167 15.298896 92.758705
1.302482 13.136380 86.020668
-10.752878 8.571382 64.258842
3.771236 15.227030 70.275223
10.014424 -9.406049 49.253487
18.945686 -0.461703 135.856888
0.115202 11.641870 42.664783
-19.098289 -0.435448 143.154877
1.521214 -10.331741 75.396690
44.307388 -0.702670 116.120110
14.734050 -5.521444 138.919067
22.747158 -2.395677 49.989807
1.620626 16.978975 56.331951
-18.385063 3.553607 133.404282
-11.143955 9.150079 104.038002
18.986357 -6.440246 58.457176
-6.482804 4.903355 111.525681
1.489530 5.823743 159.798111
8.343750 12.608038 82.246315
21.615147 7.482172 72.849686
-2.158517 5.596179 51.985039
-20.890299 0.885978 134.956161
-17.816334 -4.580176 88.339882
25.157501 0.779098 125.182594
7.657928 11.639062 38.816151
10.988434 -10.528314 94.247231
33.962082 9.673655 123.374237
-13.011257 10.549712 61.202950
22.141296 -4.741693 69.112366
16.475761 -6.163861 139.518982
-12.220761 -7.416539 111.840248
21.312374 -6.904806 52.026409
-21.012762 -12.384220 44.407154
24.854549 4.519212 143.138290
11.834879 -8.426195 71.340401
-11.142175 9.088553 142.392395
46.999485 -2.284837 108.469414
11.043974 6.176093 124.662193
30.523869 0.024527 124.148949
-11.139745 -13.276690 51.758377
-13.253325 6.921884 113.731895
15.441870 -8.116425 139.321655
8.637342 -11.489568 77.302185
15.214083 -6.606900 85.827385
6.751813 -19.053907 114.570229
-4.554240 -11.580109 68.539253
14.824513 -10.688073 61.396412
5.467291 15.698600 145.917175
4.440028 7.073838 114.814079
14.908780 -5.565528 98.714157
-29.600653 10.105760 130.115524
20.152876 -0.439238 76.445122
20.543583 -2.002901 38.737747
44.213619 -1.940825 120.938370
-21.218063 2.516647 53.033928
10.709399 -8.635137 116.254921
9.977578 10.637790 137.924500
-28.515869 2.545160 124.748329
-13.415143 -9.560933 44.510239
20.557816 8.231177 44.033298
15.969404 5.322548 134.957184
40.820465 -1.209333 117.066971
17.135201 8.313637 54.263336
20.461790 4.381867 135.818634
5.051622 13.346601 69.280174
0.485334 10.691986 57.056824
3.550902 -9.385183 114.840607
-11.723435 -12.008142 90.824280
2.927336 9.769077 35.969215
18.125433 -5.080769 50.160408
5.817924 17.458769 51.347565
-22.121626 2.914019 36.981438
-10.654613 -1.456438 146.742508
-9.033741 -3.830001 141.301498
16.244987 -0.981515 146.018158
9.338431 10.865048 55.451996
-17.212299 11.117876 80.074089
-17.555727 6.151257 75.209091
-40.792191 -1.514134 117.977081
-18.561588 7.906205 47.897854
28.081053 8.702336 138.320282
18.921883 1.095043 134.241791
-15.129098 -9.895325 95.178352
31.668699 -0.957736 128.130341
4.549270 13.886602 42.024422
-21.997629 6.495007 41.681252
48.492302 -1.138814 119.499458
2.274185 -10.315631 118.162094
-5.638584 -10.478887 99.597855
-16.567568 12.755260 139.484039
-15.490569 4.155324 106.139954
15.390149 -6.997022 72.293190
16.824751 10.442105 146.944000
-11.948811 -2.084225 121.491608
19.173653 -1.418887 56.685314
-20.529743 -7.320429 69.259819
0.981106 9.628311 159.768173
-21.034637 5.135982 130.193008
-1.733892 5.446899 40.619389
0.435639 -14.535211 122.052597
-17.782726 6.145400 55.257866
19.975304 4.319907 72.581078
-24.038811 7.604887 38.656944
-24.103411 -0.152184 55.322273
23.881498 -7.349478 28.305588
3.757225 -14.069677 133.029663
-15.998150 -3.966527 151.292404
5.191542 -11.572407 137.117493
-8.718554 -13.655875 94.774010
4.324553 9.589627 55.636490
-4.195967 14.037810 99.077522
-7.550898 13.027137 71.838684
7.715324 8.873590 112.036621
-9.387737 -12.374918 95.307762
-1.453856 11.412363 149.997330
20.461592 6.969223 62.169312
-36.502068 6.816181 118.610733
-9.543015 7.245320 106.105797
-10.600874 10.689243 152.948334
-15.230274 -12.851493 43.986980
13.798862 1.082587 151.176575
41.439690 -0.472413 110.205971
38.286118 0.042519 121.273300
6.475878 6.190260 154.327606
-18.813921 -5.604036 98.691689
-10.776408 -15.549824 119.710205
-20.913849 1.694142 77.114151
-19.250713 -6.641603 43.604313
14.233599 7.698779 38.991295
7.362365 17.231951 34.095718
-15.450259 11.781193 47.632198
30.502728 8.960411 128.122589
-27.562485 -3.113466 136.526489
13.341928 -4.650650 138.637070
13.619300 5.293402 110.146660
-10.882065 -11.214126 135.986191
-24.699762 3.765361 127.435326
17.775043 -0.217239 88.165924
5.807661 16.887922 38.409153
-1.276290 14.745619 141.266647
20.283651 1.859496 71.596878
11.521571 15.403841 46.480717
11.230742 -10.616980 124.168800
-12.480412 11.419050 62.180187
40.941341 3.543214 109.857460
33.548035 2.118332 119.132568
10.876303 -11.672712 100.488823
7.388783 -11.676702 113.129326
-7.786084 11.947516 90.639420
-2.788911 6.989623 37.510712
-13.442832 -10.292358 37.934181
7.513393 -11.332134 91.236397
-22.083447 2.661957 51.239979
15.263274 -7.684038 103.258278
12.563738 -10.260615 85.965019
-15.835110 -2.990892 127.379372
-10.733749 15.538523 139.131897
-15.788685 -9.008136 130.861710
-19.528673 8.430250 52.081573
0.440857 5.629878 109.360687
-1.744263 14.429417 88.316528
25.488621 0.305044 125.931557
9.574316 -12.716402 131.567215
-5.094025 6.160881 108.203346
-11.394952 14.282781 45.468895
0.426548 6.767959 112.484459
22.270527 13.172024 144.134903
6.385823 9.443476 157.371277
-11.125051 8.876883 79.205009
-2.682201 11.252243 76.159470
21.324543 1.189167 47.522392
13.557436 -8.597234 81.789787
-8.744816 -9.077245 139.357422
-42.736923 9.420406 112.113129
-8.501491 -10.771476 68.509293
21.632215 -3.087073 75.132706
-14.413269 -4.386112 131.994736
36.512981 3.678364 125.238991
30.633738 7.096321 132.145584
20.781786 -5.187567 75.965401
18.610125 3.944311 88.717896
-47.382599 1.970163 118.207420
-14.114097 -9.124186 71.999031
-2.099066 10.776711 127.275864
15.593609 -3.071321 138.369919
-20.615906 -1.834340 36.513355
-5.951548 9.266026 131.467484
24.163263 -10.906640 42.698544
-23.880800 4.396294 140.251892
20.445204 -5.604590 65.488434
15.539177 -15.476840 40.538979
8.620077 -14.205522 135.660080
22.138948 4.255123 62.834076
27.192001 9.423436 132.071381
2.922421 -17.386980 125.645645
-38.315529 8.205916 125.322487
19.581642 -8.084935 91.018394
-8.280438 11.041384 146.412399
-12.359675 -9.299543 72.280663
-21.206526 -3.171319 56.623619
-11.846076 11.647842 39.306236
5.299819 -10.348505 140.864212
12.279895 12.646409 88.076866
-10.627480 9.934932 149.135590
-14.492667 -8.363475 66.607925
34.603088 0.368536 127.791267
20.302103 -2.646079 80.982773
22.693861 6.039225 58.198418
16.795164 -4.170265 105.357430
13.766425 0.125158 149.291519
7.127047 -9.642945 71.850609
17.667130 10.050627 48.561840
-3.475100 2.532764 110.350609
-14.489223 -3.989302 110.971428
12.959491 9.003252 98.380646
-19.656498 9.379570 45.593391
-11.422857 -5.618398 144.572922
-1.402741 12.740494 52.968700
25.259729 6.255764 127.242256
17.935154 -10.089316 42.745483
-17.999737 -7.889638 47.905128
24.373323 -8.058648 60.263313
3.243197 7.278308 109.813972
14.443838 -8.939134 93.548103
5.101120 11.505096 49.346970
4.878632 4.870994 112.982819
18.607679 -9.719268 63.288017
-43.377499 6.545314 112.941406
-21.955862 -0.570739 61.575413
17.783543 12.078797 143.125717
-5.240378 10.772210 150.804688
13.689128 6.625093 152.338882
10.659025 13.758816 78.508492
-9.009133 -10.400913 110.512619
-17.522650 -3.309473 95.305969
7.446783 -1.768549 145.424438
-17.386583 8.142094 62.952415
-6.916471 -4.105183 148.834610
-6.406674 14.061385 60.913273
1.283667 -13.798298 93.825905
-21.696396 -9.373769 84.988884
27.353407 0.827234 137.307861
-7.394731 7.344415 106.262474
4.243537 12.133924 68.143753
-20.228579 -7.649592 49.555214
18.113867 -1.599376 43.078186
-14.914325 1.794445 101.350243
13.253150 0.598000 121.196609
17.946178 -3.210093 79.078514
-17.624584 -5.780647 62.002323
-47.995861 -1.284359 113.720955
-23.034750 -12.176145 39.317261
4.569856 4.838387 157.895645
18.558054 9.200174 60.596638
-3.181237 6.629596 55.886341
57.906517 -1.496021 108.819542
-9.103008 -9.591525 136.480484
11.673733 -5.754214 118.008133
10.228893 -5.839916 147.396378
21.074078 -0.289088 91.851936
21.653765 -0.450440 89.107605
-5.866222 7.540213 127.838860
7.805396 14.441246 43.284393
9.657000 12.149604 71.799706
-20.872889 -3.962778 84.880424
-5.508812 10.254013 106.562836
12.010039 4.626677 109.514732
8.370465 4.396976 117.845436
45.355881 2.282995 117.657074
15.696046 1.869579 136.229507
43.661327 -4.214522 114.963516
-9.564887 4.733455 123.272797
-18.440905 -6.054686 135.756653
-5.311859 -12.942625 124.432045
11.208408 -2.991808 115.844231
-8.612923 -6.805639 146.826019
-2.946875 -10.306096 116.187263
-13.366517 1.961357 150.818222
21.545515 5.146351 131.971130
-12.441365 5.442728 111.638603
-49.578045 4.301795 103.216690
-15.377785 -3.193549 110.466217
-1.824573 12.554281 139.555405
-24.558243 -2.507208 130.468765
11.135722 -9.679982 119.553520
-39.079273 2.404288 113.398705
16.891157 -2.613795 136.247665
10.159114 5.916638 109.599342
17.264370 4.876441 152.174652
-0.546624 12.532410 146.419739
20.837196 -4.042415 71.764473
1.845630 -5.889984 98.688263
-20.394644 7.121842 145.165314
1.076553 6.364421 104.919022
-22.883816 6.545724 57.757057
-17.957680 0.686178 74.393562
27.502932 6.904873 124.103882
12.602946 8.608497 92.440651
40.216125 1.511731 122.462906
-10.536936 6.147550 152.797562
4.390833 15.623685 47.701218
-5.953504 12.902744 130.860397
4.447583 7.207657 117.877640
-5.813804 14.848642 65.356735
19.091372 2.786617 94.399475
12.715241 3.008541 148.571075
-30.659451 1.099586 122.436989
-9.246713 0.819772 120.695732
14.761740 7.545190 78.135628
-37.951836 -0.081117 123.906288
-21.003878 3.522891 70.609314
-7.094232 -4.948572 144.303818
-10.459963 -10.341269 108.181740
-31.408285 5.551805 131.190948
-2.199532 12.584033 94.636330
-19.946270 3.174642 71.699028
15.507631 16.288694 35.400536
-12.468414 1.805869 116.917366
-18.430664 11.137053 147.497528
-10.237092 3.837576 122.243164
-23.209084 -2.698371 69.607468
17.426659 7.255093 86.355644
35.874146 6.862677 120.828453
10.141416 -9.006941 81.023842
22.700397 9.965984 136.651398
16.077614 8.700124 147.736801
-1.938889 6.427364 118.920532
5.191026 11.460875 31.564613
20.420927 -10.261035 49.852127
-15.073291 8.599079 62.769119
18.666512 -1.830512 144.049881
10.758120 -12.230725 132.507095
-12.025319 -3.802977 114.755333
18.546257 -7.789880 49.570587
-3.817953 -14.383181 104.306595
-22.542261 10.365151 43.904572
11.676392 -5.237428 102.229286
-21.542360 -2.528003 64.366982
13.442736 10.648125 44.943413
15.010521 2.447327 111.806221
22.543076 -8.085536 54.613468
-20.404465 -1.528069 94.968124
-21.691277 -11.670435 38.135921
18.674896 9.108130 149.331390
9.661190 11.902026 39.578865
10.183570 9.645507 148.352539
-4.676972 -11.972202 126.069107
18.195108 -7.870401 35.131344
-3.073010 -10.252702 41.561363
-8.713909 -9.294987 116.490608
-6.428563 11.385650 147.205109
31.536444 2.638889 134.397491
-10.766330 9.964818 132.384933
9.679454 5.401700 125.252289
-14.186416 0.465269 148.924545
-14.023531 -7.365410 127.177261
-42.789520 5.299864 118.449821
-13.871983 8.146846 55.141857
7.377523 12.693051 59.621269
-3.319407 10.821452 119.304398
-25.160702 11.010856 141.303802
-8.573049 -9.112308 145.642883
-14.232662 -0.716089 131.483398
23.415592 2.891918 38.844551
24.239149 1.860973 137.675034
33.567612 6.673392 119.776688
17.886711 -3.569182 51.448204
16.297047 -3.978690 133.028885
-12.517059 -8.614802 88.108444
54.759476 -2.094785 107.824699
16.722939 -9.992629 76.280449
12.632109 -10.782986 76.425262
-1.073364 8.616381 126.278053
15.918126 -1.356595 134.040329
-20.833595 -1.946251 95.214859
-18.821121 -5.191697 94.275963
-10.489141 11.042764 146.425995
19.587275 0.362814 89.174004
16.996914 1.780717 150.976852
34.076733 0.142061 131.115891
8.597274 -11.163340 134.426697
-41.927067 2.481194 109.682564
-24.058399 -0.366322 129.381531
-17.316771 -7.958466 54.869263
11.485637 -7.273816 140.673767
-18.844393 9.756333 77.523125
20.331814 3.092762 150.322495
-18.575331 -1.713413 42.379589
30.429970 -3.168774 126.970764
10.217080 9.005461 106.946167
-8.902094 14.909772 136.801102
-21.757208 5.593277 56.145157
3.601081 16.131865 46.795288
4.068134 -14.382957 123.385803
-0.673288 8.629897 122.664482
-26.304045 7.993828 128.505142
2.373474 2.613370 118.790741
42.800488 2.564234 107.337875
-9.967160 11.988647 84.924965
24.342718 -8.610868 38.290676
37.630848 5.592791 118.004570
24.395481 1.785379 48.752998
40.329216 5.343906 125.723389
-11.784582 4.162880 135.240601
20.595751 -11.556835 43.804169
-22.220766 -0.558293 61.891727
-15.945757 9.201498 63.899109
15.658881 -7.827456 66.890381
-20.651913 -5.324255 42.701363
7.417294 -8.658908 138.143341
27.566233 5.150372 118.805870
-6.225020 -13.464900 82.774422
14.095475 -4.847425 108.450142
-13.544205 1.120571 105.399071
-17.396595 5.781347 82.360176
-18.303701 -9.977169 46.719860
-21.610609 7.801030 132.129501
-5.700312 14.397437 77.710297
-3.083282 -11.325898 100.873871
1.171751 -13.399516 139.006424
44.374981 -1.104367 118.940826
2.649702 12.356688 60.382774
14.257098 -11.306321 74.112663
0.259275 12.251187 38.300766
5.867417 10.282353 37.730236
-5.989731 4.097864 153.729248
18.751490 -7.162298 81.951530
14.833143 -10.488121 138.252899
18.586008 0.402917 91.820160
14.118392 10.277174 46.076897
-31.187553 4.069254 121.022690
-22.781902 2.544821 144.992386
-2.993987 -13.096348 116.135178
19.124735 1.500765 135.462372
-15.441066 -9.480079 65.085312
3.693951 -8.933250 144.550064
-12.967533 8.287268 44.743160
13.532436 -8.152141 81.751640
-23.320967 6.507825 137.714706
12.218200 12.424523 46.287560
-14.661941 11.221672 79.494812
1.613886 6.004262 153.934052
-18.849365 -4.525864 136.227127
10.298027 -9.871504 84.438728
-10.232244 5.843140 147.836075
1.246920 9.760936 153.388580
-0.045008 6.036804 158.153900
23.451355 2.259732 34.026875
12.196738 6.847446 155.275391
-24.589169 1.731845 130.711121
-50.642853 1.754506 108.358177
-19.857828 3.044116 93.240753
-11.122766 6.999776 130.583893
-54.226391 -2.600423 109.044434
-7.195866 -14.276580 138.143570
24.649944 9.036897 135.617004
-12.399890 -10.492614 136.298874
-13.216678 7.097789 64.944901
50.178574 -1.609138 114.728081
44.063274 6.401993 109.233589
-14.939201 -9.648047 37.119526
14.500038 8.779360 144.192108
22.219807 -0.710794 55.903393
-12.880280 -1.919847 122.044182
6.383557 13.970816 147.714874
17.699184 0.104618 67.105209
-14.388359 -5.048253 97.980301
-16.759991 6.904463 77.470085
24.204233 3.683123 59.233601
-43.778912 4.129009 113.155716
-14.146972 4.973117 63.955601
-2.019634 12.652170 141.730179
6.521986 12.832619 46.086578
-9.627745 -12.866727 111.358170
35.122513 5.440438 119.463806
-14.435440 -2.196908 132.230148
-11.903010 -10.472554 135.014511
-13.929955 11.044046 145.585037
19.865547 9.233126 145.973328
-21.511080 -3.218526 78.613892
18.387856 8.459208 72.036560
-0.295845 10.610287 133.144196
15.253324 -7.746980 108.004883
43.188885 6.664610 116.507698
19.349457 -1.046752 38.266815
-21.721321 -2.700751 74.250618
10.330650 2.190469 129.935120
5.232844 12.737420 97.030075
-17.366875 -8.734487 59.034714
-4.399884 11.755713 93.444313
21.691452 -6.856245 85.128532
-9.174441 -8.810130 66.237656
20.590473 -2.791177 141.359848
-1.631570 12.696583 82.853195
10.716555 11.887228 89.038551
9.636913 10.384506 74.440109
17.275917 -8.834163 59.956097
-19.052126 6.946474 62.498119
6.904289 -9.609123 116.926765
46.942242 -2.472552 114.340195
7.870864 -11.684093 124.700562
-11.048389 6.625360 153.675720
-20.600513 -7.590258 54.674500
-40.074860 7.245409 117.947243
19.713608 4.723038 145.943848
13.125078 -9.010817 111.345268
-10.648073 -11.514443 91.086311
-10.611235 13.421352 63.258846
26.269968 4.412080 139.527802
24.168205 7.743108 39.902348
31.645658 1.139153 131.619446
13.959846 12.621552 70.482628
-32.244900 9.237204 131.206146
12.523163 -8.867009 123.955833
-10.347947 -9.554416 137.023468
-46.297665 -2.055112 113.285217
9.251564 11.330164 49.198135
-9.995789 -7.463704 118.848213
-38.916798 0.356166 118.036163
-21.690334 0.593408 146.172348
-16.530052 7.397202 53.436756
10.402065 12.377755 140.789413
15.829978 -2.967506 143.747910
11.587588 -12.887661 53.263744
-20.336014 2.060973 60.199768
-5.703198 12.624588 43.676159
21.615141 6.854308 38.868114
-15.228745 -3.898814 128.758499
3.946891 -11.788218 139.088196
17.148237 10.334192 139.751282
5.791340 14.144745 136.214172
28.751247 -1.968430 131.838272
-14.533279 -11.997944 35.881973
5.024415 -9.288468 138.853180
-17.220705 4.343455 150.881683
9.103680 -10.068910 136.982269
-30.281517 0.252064 133.225601
16.857189 -12.456097 85.891823
7.935918 -14.203022 99.719925
-38.349979 -1.029393 124.986099
20.054663 9.349675 135.126053
-13.892376 0.121465 113.191948
-2.294183 14.052771 87.396164
3.807645 11.257118 86.868271
44.914555 -2.278023 119.032379
7.541411 -8.084767 143.618317
19.042749 -1.118447 91.457581
7.236475 -9.200641 107.368591
15.193864 -1.484574 146.973282
-22.976055 5.238874 133.098282
-13.096110 -10.675607 129.310440
14.424438 -2.019756 125.030640
-22.590889 2.700720 147.611862
3.130332 7.893233 52.312218
-7.683646 -7.871976 70.922234
-8.829024 12.242525 76.491158
14.028949 -10.311070 77.863464
21.307526 8.594122 72.338371
24.630117 6.952032 67.351517
-21.085440 2.951775 148.963440
-14.215087 8.741350 101.010101
-20.495777 5.988641 73.682495
-20.878027 -1.615472 135.894836
-11.093221 -9.281480 128.728333
-18.717560 -3.884682 63.548428
-45.672005 4.446849 113.263435
21.510138 9.971393 60.239029
-13.657813 6.608926 128.632385
-2.186917 11.368811 37.959244
-6.916885 -17.985552 118.765709
-33.800491 -2.992017 125.470444
-16.478201 -6.508297 96.484673
31.646109 3.669728 116.272797
12.530134 -6.282286 120.131149
-3.805056 11.533311 141.988846
23.881536 8.377340 53.515026
3.989910 9.943334 61.851105
-9.822563 0.007994 116.146957
8.023939 12.869261 90.726929
-18.910616 9.820757 140.190582
9.557937 9.710942 57.438988
11.636938 8.987061 74.844193
-50.669827 0.233098 108.548340
-24.925037 -1.180882 133.096329
9.101310 -12.433964 39.225964
17.124634 -12.794531 56.939579
-8.136860 10.977883 41.937202
17.193441 -14.197090 41.423668
-8.791602 -7.329690 93.883347
7.705201 -4.426945 147.343109
15.253195 8.305113 136.286743
0.841119 13.402574 131.343048
-9.056336 12.758957 90.471817
38.609787 0.425542 110.079620
6.666510 -12.853389 137.040298
-14.047595 9.637890 76.535042
-17.510372 10.353784 149.257217
-2.422478 6.932551 39.890228
-5.751293 9.357964 134.779602
10.873513 6.306262 108.089836
-16.639990 -11.413884 44.836773
-45.341625 2.338447 107.975365
25.152708 -9.146081 54.354107
-19.253201 -9.873613 63.178055
-8.151118 10.919856 147.617264
-25.110645 3.493073 63.605564
-40.980339 -2.392013 108.319191
2.021658 13.877083 45.291729
19.675262 -10.121965 43.511379
-7.650565 14.327581 69.243286
-17.757538 -9.627424 73.886803
11.125845 -8.408275 42.635872
18.939240 9.248731 74.377892
-20.683470 -2.701460 48.825123
-10.356899 2.601242 112.064636
3.589019 14.131431 94.103867
-15.237422 2.010706 100.699860
2.250690 10.807058 126.901276
14.624140 14.642617 58.160431
-8.045071 9.889923 103.553566
-4.642373 -11.276540 120.956535
-26.826313 3.244367 136.883362
-21.173693 2.492409 76.034264
0.875256 7.618587 159.985840
-13.349081 1.405374 118.290833
-9.341703 7.582875 153.292587
39.176479 3.358136 124.874306
-19.492981 1.531432 133.165970
-22.344210 -9.824327 36.710945
-5.415336 11.763533 50.991074
15.350930 2.321434 126.441750
-8.698127 7.860195 101.801285
-37.412029 9.920735 122.452530
-15.652541 -3.135812 104.686836
-14.782182 -1.193047 106.875031
3.323170 -14.060151 83.169678
22.920673 3.702390 53.234959
19.314775 10.334842 60.326145
23.683302 -8.909456 45.141693
26.659966 7.839802 132.463943
-8.293163 -9.664732 73.513512
-8.868119 2.264437 115.757126
13.997867 -3.874406 131.029556
11.423971 9.127765 104.506363
15.747826 12.980744 84.714897
24.372601 7.876344 38.468872
-8.911215 4.425167 154.028259
35.983559 7.686000 125.198288
15.534537 0.388414 95.746338
6.176433 13.767180 37.485687
-18.887554 -0.026583 77.634644
3.080762 14.770288 143.005310
12.980268 -8.935225 43.879860
47.815121 -6.306021 111.298752
17.846800 -14.493088 41.570755
9.199808 -11.092134 92.828468
-12.785615 6.237807 60.701725
21.161131 2.632412 51.131817
9.414344 -6.572220 141.649353
-43.017159 5.195788 108.238235
-9.567856 -9.627830 111.705963
10.667364 6.242257 108.776115
-2.635325 11.572008 137.206696
8.938822 11.308670 150.926300
-3.476654 12.240478 70.964996
-19.323404 -1.218741 60.353531
13.613403 12.258663 47.406624
14.326415 -9.797528 47.597065
20.540161 5.725750 41.073006
-2.027539 -14.408720 132.527649
3.682270 -12.386328 114.362213
-23.417137 -6.889905 38.115883
22.972103 3.094829 43.543217
18.486938 -2.049882 48.566723
-35.524754 6.624513 125.840942
-2.231070 11.994716 43.323185
18.927116 10.344495 59.769848
-15.409988 9.066098 59.817841
-9.557430 -7.604881 135.655746
-18.181517 1.192594 147.204651
-9.693071 -10.319953 51.406876
24.550295 7.495814 56.455673
-18.995533 -13.739790 46.243336
-14.899505 -11.451538 75.872108
-22.933727 4.253741 39.044876
12.706625 1.264964 107.495026
9.526147 11.276260 100.404007
-15.001668 8.182727 77.650375
-3.579729 9.424626 47.277363
-9.024907 -8.108740 120.613953
2.717556 16.387999 46.027996
22.120081 8.976884 38.695072
-2.610671 9.518446 152.882996
-53.074245 -3.442970 112.390419
2.062717 12.968824 71.128197
-7.294907 -12.130880 109.865570
18.218752 3.292087 78.781052
-11.555701 13.012929 94.743401
14.151155 6.718506 100.419624
3.992776 -11.341053 108.951691
-48.417351 -6.644147 107.114326
-19.590162 9.784027 57.908188
5.017170 13.872340 40.861374
15.196281 16.168758 50.357765
2.377443 16.885338 40.049732
-14.902510 7.336942 153.983505
-12.452347 -10.745302 111.225189
-12.199101 8.844460 74.962090
-3.695888 14.462527 58.144619
-15.999393 7.927656 61.412327
-10.109933 12.747954 134.019669
-28.914047 6.700710 137.680130
-25.433813 1.474192 49.263847
-15.676762 6.684464 101.965797
-6.212001 -13.093505 119.860153
3.165309 6.585072 126.741531
7.228910 -10.701906 104.256615
6.647397 10.607924 142.801071
-48.999504 -0.112075 116.273170
-0.064286 12.527671 76.862762
-10.589665 -9.065013 104.051598
-10.806957 8.667942 123.918427
3.716555 -11.822513 137.184677
-36.945389 -1.323986 127.736656
14.005662 -2.535342 118.796158
-12.093874 -11.930013 133.908722
3.848186 11.226342 138.295654
-3.687366 6.013326 156.183487
-18.921785 -0.055140 70.810432
47.325413 6.882758 109.196617
-1.470405 11.953955 55.565411
-16.695765 13.372632 51.691078
50.362934 1.598619 110.922066
-11.517129 5.888303 108.028122
0.829878 16.481850 50.379395
24.274031 -8.638883 55.887535
1.674423 -8.441632 119.991119
20.812006 -7.253723 57.395355
-30.055378 1.647889 125.763412
24.820368 2.623610 42.737198
21.771740 1.164128 90.431496
1.925149 -12.959277 131.823593
20.532867 2.716326 95.210052
1.730639 13.055288 58.129162
-10.949607 8.998122 37.971832
30.165335 2.801075 122.202972
-11.018887 -7.887851 124.602951
-21.023312 -8.702867 47.121792
-19.546570 -12.804108 37.631809
-22.131721 -6.040399 38.190529
47.306038 0.521306 114.437187
-13.276996 2.650989 110.958015
-52.459846 -0.455995 106.456032
-17.152231 1.054505 147.103226
-3.499689 -12.998360 120.663025
-16.830679 7.291731 52.293774
11.296955 3.585656 117.041878
-20.155443 -4.062706 39.919220
25.775738 -10.858859 41.248074
-5.805115 6.180518 127.977829
-19.752607 -13.320010 34.086369
12.225002 11.082007 135.513916
-16.907587 8.694785 82.654930
-16.859184 6.379003 98.978630
19.530840 3.901037 50.777245
-9.216635 5.561035 108.504494
36.512482 5.976135 128.411652
17.460625 -10.804495 48.227730
47.229477 -0.902881 102.562645
2.505125 9.089983 110.187057
33.788929 8.892853 128.468994
14.798644 2.269570 132.350037
8.162015 -17.305248 134.904541
-14.265997 10.176215 73.913223
-2.923712 10.996702 156.586151
-22.815802 -7.888530 63.337517
-9.117298 -5.264512 121.988022
-1.342842 -14.223678 133.071365
1.752255 11.888248 72.690781
20.094154 -13.008479 35.811539
32.068451 7.061148 130.926590
15.936176 1.666190 126.515984
39.264301 1.111426 114.862175
-18.311398 10.406203 51.703030
-16.847563 -5.927594 91.163353
13.691386 0.434646 101.638847
1.703359 11.864169 99.602760
-17.182766 3.477878 71.502907
-17.624565 0.484228 97.949715
13.011853 2.769217 114.183853
-15.946232 -1.565263 129.085587
11.200420 3.956442 152.210571
-24.204985 2.649841 59.018257
1.124886 13.611951 67.385506
7.330761 14.163939 40.236496
15.292069 8.495328 85.846359
-11.348609 -7.985519 99.165833
-18.244417 10.354398 139.493988
31.647602 1.589626 129.984283
-14.910549 11.981889 144.129074
-42.435223 6.667165 115.571526
38.875969 2.792382 122.962524
-16.532236 4.486161 101.606255
16.194576 -5.806633 85.695656
-48.756657 2.157722 108.993614
-22.027569 -8.712450 42.859531
21.081999 1.652082 44.008621
-19.479204 0.113050 67.569603
-16.587547 7.021044 64.404770
11.626865 -3.809125 32.922722
-18.432173 2.298694 149.892151
23.198006 -10.381471 40.740124
-4.194799 11.182969 91.314049
-19.370037 -0.106817 77.298805
16.586500 -10.017070 39.028008
-0.495654 11.612886 56.675949
11.255629 -4.827661 129.007675
11.380056 11.468572 130.731857
-23.459888 4.818192 35.697624
-18.413914 0.268978 139.499344
33.448364 4.021065 121.145569
-7.009180 -16.038904 134.645874
-32.404297 3.590478 133.809860
10.787678 3.065347 151.725571
-30.475050 -1.009982 132.248444
-19.527582 -3.619202 46.355782
-1.518111 -12.724143 85.262177
-18.917921 -2.702133 75.499565
-23.839018 0.021770 139.172943
-19.759085 -3.082969 36.882736
-10.759154 -10.766448 120.419952
21.225338 -5.851284 38.540585
-9.162784 0.808242 150.095016
21.600092 -2.416079 83.582100
-13.784800 10.395897 36.425316
6.812573 11.241364 142.310669
1.790444 6.269892 110.475273
-21.373476 -10.066242 75.380707
-24.654469 1.844546 48.876839
48.347736 -2.606355 115.992096
28.524063 11.135744 125.573059
1.336035 15.382623 42.163078
19.162949 3.544179 90.428192
-22.937645 -1.812711 53.398094
13.457067 12.246519 48.007397
-21.972286 0.442050 137.740967
-21.457827 4.892362 82.025337
16.676357 7.965863 86.146484
-12.124034 0.992327 159.950058
-21.615805 14.148789 39.225376
29.163029 -1.023629 130.061569
-21.131721 3.916072 71.127724
3.760692 -12.330926 109.036385
-22.363817 1.076311 138.236069
16.153093 -7.758890 50.523338
-11.190199 -4.585253 124.458733
1.348122 16.442286 55.193985
-47.655415 2.464161 108.425789
17.110111 4.660458 134.420303
11.603082 -11.194414 106.674103
-4.211101 11.894024 148.519211
-21.161654 -5.430755 45.470963
-16.850704 -3.103269 138.810638
-8.423212 3.288145 115.819778
31.795464 0.859925 133.398010
-1.750618 9.382612 147.481079
7.032396 -8.908275 137.866058
-6.409077 10.089455 85.583702
-14.738962 8.847324 46.501987
-10.248591 -9.837512 61.637878
6.305099 8.522779 119.103561
8.641428 -8.764007 93.880775
-4.226727 12.228204 58.508808
14.514256 12.654145 76.411690
2.381616 13.458713 62.578922
1.026761 18.877527 45.105076
-22.115835 -5.340805 44.148289
-24.022543 10.954584 138.403473
-14.989418 -6.276411 131.786407
17.248566 -6.616876 138.185059
10.048737 -3.410851 145.966965
13.416245 -5.347292 128.332642
-9.860725 14.143915 53.147732
-9.954495 -12.996352 100.952339
-1.977009 -13.054776 108.045174
3.774110 12.497359 85.133072
-17.406214 -7.723262 75.794617
-12.573009 -1.153808 143.811737
16.375065 -2.361376 107.471611
-30.152538 -0.927936 129.982666
-38.727852 -1.020375 117.290993
14.141497 1.573176 114.363358
21.197012 3.071137 74.112885
-29.320131 9.426534 133.940262
-33.520126 9.004590 124.495758
14.858358 9.315083 90.960579
2.345625 8.266008 125.665024
30.562466 8.606564 132.989853
-33.082184 2.892865 116.364716
20.713388 -8.207155 63.040920
-14.440526 9.371416 149.145081
-13.507723 -3.699558 124.158630
-10.118372 -4.664280 124.062469
-14.023767 1.054551 100.060127
8.891379 2.442621 155.063324
9.746330 3.007227 151.231522
19.923725 8.122436 131.343079
21.148102 9.866264 128.296432
-10.125814 -4.986839 67.856621
-29.958187 4.969193 140.637527
3.761609 -10.229247 133.434906
14.153872 -0.440993 145.516754
-13.828382 -4.730048 103.239426
-46.229141 -5.382148 106.155304
-45.571903 -5.843938 115.849808
-4.712626 -9.533312 137.677383
-14.814867 -8.144561 107.186378
-16.692646 11.885500 52.518959
-4.055882 9.934862 157.416214
-3.381180 -9.754676 139.700958
37.947861 -2.575543 121.603149
18.672344 -6.410067 49.045719
-21.091703 6.197883 36.285740
20.920956 2.571503 77.055702
-18.738609 0.218388 93.045479
-18.605213 -3.747146 88.092690
-25.443626 6.915823 133.786255
10.564831 -11.237926 89.946915
-44.015488 7.572652 117.308128
19.516111 0.977514 63.897919
3.106654 13.499466 102.017128
1.522854 15.629328 53.994484
-21.120773 -5.178827 70.738464
20.967054 5.994261 76.546700
14.658964 -9.222752 36.024345
14.102873 11.814250 60.379833
-6.559217 12.513588 89.676941
5.988234 10.330458 151.500244
10.725209 -11.492359 101.964142
-44.133377 3.214566 118.774582
-14.707572 10.020520 62.510120
6.652493 2.010873 151.465454
-8.686917 -12.529374 128.439651
12.640818 2.835702 130.550354
-8.930067 10.817245 105.219437
-2.218842 14.185520 92.278702
21.310453 -0.760685 54.436234
17.646500 10.280339 141.090408
18.520407 3.388292 135.523712
-16.392488 -10.585616 47.130245
-33.738659 1.388004 119.323311
3.604120 13.719556 143.600098
-18.922024 11.761101 44.159969
-10.167217 4.980534 106.590813
7.484266 11.408476 42.087654
-20.581804 2.689879 48.893063
16.244705 1.932124 149.469849
16.397532 -1.360798 132.683380
-14.360742 8.829516 92.796082
14.760158 -8.559435 93.795273
18.107187 -6.677162 67.524460
-9.401929 -4.139421 115.386749
-21.040846 -6.108469 79.919670
-4.347146 13.361957 102.307014
-8.647816 9.434951 74.699821
50.176445 2.601896 114.231720
5.618300 -2.181432 149.779648
21.422308 0.332080 62.015804
20.195803 -4.272715 88.269958
-46.727745 -3.829161 105.612106
-30.817606 -0.956355 122.747917
17.914652 -10.071412 58.084351
2.564808 13.061789 137.477295
-0.599236 10.327242 127.464081
-10.445737 12.663710 62.453495
-14.884637 6.470655 153.070770
-9.962819 -12.151229 83.790863
12.539076 3.130863 124.545570
-7.601638 -10.272695 84.998421
-21.984112 -3.765219 69.693848
7.571344 11.863342 96.417236
-7.833347 13.499117 73.887177
8.437039 -8.614160 107.584549
21.363470 -9.702609 60.504066
-9.431098 12.326239 97.776703
23.300201 8.496233 58.385876
-8.464910 -0.926741 152.736969
-9.455725 -4.344927 148.099075
29.217066 2.525234 135.600800
-11.012812 12.317471 84.175575
16.778543 -9.787546 53.023907
7.601573 6.250059 103.936646
-3.829018 -7.520414 142.427094
9.430243 8.662221 144.825989
-45.947437 -6.424125 111.124138
16.692186 -9.045906 56.306133
-0.475148 8.894542 108.439453
15.520901 -3.683607 102.535011
49.812775 -3.857306 107.475853
16.192659 11.094297 70.762306
14.452887 2.464333 132.811966
19.123068 13.271593 46.958015
0.222521 7.277506 122.243591
-23.202095 -9.163047 43.176498
-20.227207 9.147071 91.312752
-11.294998 -13.620506 128.817383
23.937426 9.039483 136.164917
-14.619895 -5.003611 108.032547
8.585842 3.783015 123.296112
55.443726 2.667836 109.281921
-20.741634 -4.385413 38.239342
20.097713 -10.542448 55.958286
-26.830544 8.054266 131.244217
49.328194 -3.103811 112.521095
2.284273 7.278422 128.474777
23.374231 6.017029 145.445053
21.808523 6.854015 141.773895
14.909586 -6.546437 109.751556
17.575216 -5.775868 91.205940
-12.007709 11.603369 49.421455
10.110442 12.351254 82.914970
28.057396 13.365850 123.211388
-10.157577 -2.458935 149.325058
47.919777 -1.828739 109.538773
-2.223403 10.241655 74.544403
-1.666902 8.989090 154.153046
-11.667215 13.833168 95.130035
-16.357000 1.430483 137.726486
7.012443 -8.785816 70.765602
-17.093475 5.669534 142.231827
0.519009 10.680401 83.883011
-14.074440 -2.450330 112.148430
15.129854 -7.184659 50.881672
-24.439104 14.623521 41.378071
31.371408 12.154568 126.548477
-6.524093 7.825412 112.792923
18.598091 4.650160 129.299469
49.331547 0.316348 102.084709
-10.547369 7.966146 129.990219
-17.999924 5.653856 149.998657
-29.477074 -0.584898 124.533180
-18.002541 -11.224961 35.592171
-7.368641 -6.173866 141.885452
47.175472 -5.725966 110.036919
16.318264 8.812589 131.334549
32.549110 6.479890 121.538567
-2.787967 13.463500 60.940926
14.270237 -6.821509 60.912567
3.832402 15.242809 43.964031
-15.438457 -8.991686 135.143250
-14.674340 4.696622 109.968788
-4.013949 14.192176 62.681023
23.088663 -3.598211 134.377213
11.122320 -8.710318 124.302048
23.853088 -11.983979 46.675354
-15.685172 -10.399920 46.354824
1.499681 14.048208 145.290405
-4.253707 12.383466 76.440269
-16.577608 8.681955 88.257904
3.579081 11.614097 36.714836
37.588669 5.928260 117.058624
32.436184 10.030345 124.306137
-7.149484 11.887900 61.223881
8.016815 10.857203 51.288254
-2.097136 14.244460 36.413971
48.694847 1.148619 107.402641
11.511106 4.948472 114.928291
-3.190962 10.680466 157.098038
5.584850 6.977641 120.725548
-8.286479 6.102650 112.046013
-45.756432 8.861786 115.922371
7.536956 10.249523 127.984535
29.375874 -2.707820 131.692383
-19.652142 6.952401 68.616852
6.815912 -10.770155 105.743477
14.385805 13.649746 41.129185
-12.310426 10.734858 74.732193
19.094603 -7.538520 48.161842
-0.075099 11.125701 75.146957
8.954605 -0.816932 152.130798
13.932948 -9.019943 42.074718
-6.200955 9.166340 153.759354
-14.732800 -0.381734 119.120033
45.526485 4.691540 109.133453
-0.981751 6.484715 118.985428
-5.020251 10.113086 52.305981
-17.808699 -10.000544 62.870209
-27.000084 9.931055 137.737869
17.409241 13.517736 35.469242
-9.282762 -9.263953 82.968147
16.820862 -4.172841 107.983505
24.693333 5.089894 123.619530
39.433704 6.322588 126.328827
17.646669 0.455427 48.404526
-45.943157 -7.304352 107.029976
19.091494 13.037790 48.525341
16.587936 -9.372569 91.227516
11.361777 5.729473 108.690918
-22.486486 4.573190 58.571533
13.898517 7.897301 99.704964
35.151279 2.982653 116.520973
9.416064 -1.840292 150.766876
-21.626976 11.303041 139.475861
-22.172935 8.627060 138.179337
-17.943972 -2.604624 80.073090
-9.810894 12.102326 147.750092
-8.595937 12.660820 95.532776
-20.248730 0.899479 44.199673
-39.373646 -0.299284 113.991035
7.668194 6.951518 153.793106
14.058578 5.959653 132.976395
-42.149841 -0.648980 116.486778
-19.728256 -12.304488 54.194855
11.598551 -11.607039 89.223824
1.903604 7.567373 117.489052
-9.509460 4.541044 113.458809
14.266826 2.023899 135.319672
-18.475986 -1.667878 42.946636
-14.226740 7.994505 149.286179
11.479897 1.006205 114.631950
20.555628 -0.806739 48.153240
-5.555297 -7.504868 138.159805
-22.794907 -2.873417 78.955826
-17.753159 8.371196 147.261307
21.588663 4.795053 78.011101
7.355045 12.165573 61.787189
3.131165 13.008527 39.772972
24.501413 -2.282201 131.012512
-18.828974 10.499352 132.467361
10.172517 11.620296 136.004623
-44.726883 2.020247 120.617310
15.192376 -10.472444 91.511475
19.858202 7.206336 76.760757
30.068083 2.766499 119.531670
-14.386843 9.556233 73.585114
-14.488631 2.141754 128.505753
13.036323 -1.119935 129.520477
-9.258332 -6.505777 123.564537
11.460316 15.211555 141.607910
16.250748 -3.133973 105.075981
-14.292648 -4.449443 139.294312
-12.734756 -9.892282 136.694794
-3.598810 11.123255 54.202503
-13.466570 8.378704 94.767647
13.616955 13.292741 51.594059
11.509022 4.149181 107.120628
10.227933 11.255584 81.271202
48.742306 -3.844321 114.993294
22.818455 7.974876 51.902626
33.960712 5.642579 121.710091
-11.448860 -2.127213 122.262840
22.315733 -8.884162 42.211536
20.979237 -1.533530 138.771286
4.446676 13.899117 51.441525
-0.097975 7.250259 115.355629
-17.050859 7.573964 80.539398
-22.181780 1.693859 60.580650
19.591305 3.550010 55.149334
2.655070 8.498748 154.974854
14.765859 8.652612 70.300308
39.048309 -3.687938 122.854820
-14.293541 10.486430 149.979660
-6.584495 9.535146 49.280323
19.777491 -1.602640 98.386963
11.980565 -12.173367 131.182449
-19.554033 1.209603 100.746475
19.599981 -7.057844 58.262127
-7.639172 9.294585 153.948959
-9.661474 14.535506 143.103088
8.511218 8.764522 56.704845
11.900540 -11.032180 66.287346
2.015539 -13.827159 125.547768
-34.396507 2.520547 127.103493
2.732563 14.051920 54.044025
7.786211 18.022375 94.067886
-22.129154 2.470975 75.178757
-18.038916 -3.389606 95.459877
-12.740703 -11.658691 49.608643
-2.446006 8.576634 86.133080
-20.599371 -6.022885 35.038048
-30.380131 0.265612 125.372559
-8.203928 -10.621602 47.105934
-17.674183 4.733145 152.747955
20.105375 2.284915 145.360275
7.632102 6.611412 119.178261
-42.015011 3.338634 112.138992
-21.001238 0.482040 143.059448
-0.579383 14.967258 74.235825
-21.644510 -3.329448 75.808525
11.630898 -8.128427 139.549042
-44.554829 -0.503869 108.613152
20.743647 1.271338 46.510254
-10.971786 -11.272902 120.544525
-12.755842 -3.024515 124.202194
-11.343651 -8.138358 113.239616
-14.717198 -0.669683 97.735184
15.310436 12.693278 49.561668
1.921598 -14.103410 126.676842
3.072297 10.928394 103.900848
-9.870217 -10.874829 118.663445
-6.958304 10.620605 134.255981
23.710926 7.426924 41.274414
8.586788 12.502552 69.784554
-19.941479 5.368908 72.519043
-12.675012 15.449895 58.922035
17.604000 9.124576 77.649124
-12.374117 -10.146821 83.341888
-26.327982 2.592651 136.002472
-16.162085 2.394033 104.547226
27.014610 8.934968 137.722519
-9.854199 -10.918701 53.598602
16.897161 3.481788 98.058983
20.738672 -8.104268 83.752342
-8.799139 -2.943801 147.328888
5.046370 4.385899 115.117577
4.470515 12.381800 46.682629
-10.865749 3.831329 113.472488
-20.944550 7.560841 72.301285
-21.025488 -2.194282 50.078152
7.395525 9.785119 97.004135
-25.212965 3.515705 52.817650
-10.302534 7.285636 92.894623
9.949280 -10.791704 91.891273
-2.106330 11.101977 142.181320
-20.686121 7.742722 48.754204
13.521853 -9.884484 40.523663
29.011814 0.494824 135.703369
17.768875 2.111456 149.432114
-24.554886 5.543553 39.974766
35.943924 3.014969 115.784584
-32.427692 0.793345 128.610016
4.798380 -11.005225 119.073479
15.290680 7.741897 103.354599
-17.416918 6.131064 47.967926
-9.035314 -14.005801 100.071320
-9.372621 13.596102 83.897675
25.683962 4.893112 39.084637
-4.216630 14.073271 51.084976
18.051998 -2.182210 80.650276
-8.490953 -6.180524 150.386871
17.173496 10.321148 46.897961
4.125845 13.418933 95.065453
17.719023 -5.344855 136.005203
16.810215 11.231844 82.257286
-37.223064 4.291219 130.176956
-10.208101 14.691373 91.866943
-9.482651 -10.569430 130.160645
6.493525 -11.528595 102.114609
-16.342535 0.212578 152.165833
25.753981 -4.976954 40.790642
-34.452370 2.881700 128.379883
18.009748 5.314721 95.566360
-23.638445 3.524514 131.961624
18.185175 -11.534548 46.375374
-40.528336 5.921476 119.434929
-18.949743 -4.623125 59.691139
-0.180090 7.896529 129.705338
8.668148 6.833915 125.381783
16.160540 9.046010 135.256393
14.035968 -11.182259 82.687691
7.186681 -1.346387 154.067825
23.133327 -6.999220 49.412598
-0.098311 -14.712218 136.766190
-51.086548 -4.810306 107.901932
-10.716225 12.424574 56.238277
7.923815 -12.004529 104.199593
-19.793659 1.530327 145.543198
18.770628 -8.862129 64.412025
-38.316769 2.543012 127.796974
-13.136098 -11.828147 60.722923
6.944199 -12.528601 127.984550
18.129419 -1.477999 138.515244
6.933218 -12.299553 103.622940
15.914194 2.015721 62.922997
-10.044894 -9.465288 87.402924
-1.161020 12.497573 131.689484
16.757864 -0.426750 120.492088
39.869766 1.488532 119.386375
-0.846974 4.704540 119.484795
-2.647761 -14.555722 127.259125
-28.306753 4.389449 136.113251
-20.632555 -9.251750 54.834457
-13.601864 3.568291 133.393906
5.637476 -6.485643 145.495895
-4.689803 -6.302814 141.768997
-16.654591 2.081440 152.430084
-0.377493 11.424541 145.617813
4.786108 12.058777 140.772690
-20.061213 8.616074 82.927162
-21.062401 7.602031 79.997635
-52.071217 1.305750 110.155678
-14.501932 11.315173 72.042236
-2.810112 12.947919 70.308479
5.622246 -11.725267 102.285400
21.522211 -1.564650 66.808769
-17.612309 6.909171 89.918068
-20.600609 -5.436625 42.020592
-7.018682 11.563169 96.066811
-18.562017 -0.388220 148.593323
22.585329 -10.639052 50.721973
-31.730999 9.736317 128.296616
-0.435396 11.735389 138.664139
-11.567782 -9.705396 106.476624
-5.521592 12.106195 69.542648
4.950605 16.172480 37.446163
-15.897275 2.117809 149.614166
-0.954029 12.718690 60.563416
19.909868 -8.195354 80.784515
0.419120 11.051118 55.312847
-43.392513 3.410847 107.891586
35.823895 4.104234 113.905342
10.204765 11.975277 43.710957
8.763576 11.724083 150.187469
2.144699 -15.887939 101.675491
13.070896 -11.873403 59.984032
21.827559 0.819414 55.679092
17.246439 8.083746 152.554199
44.181587 2.166997 119.827255
-4.665446 12.843636 88.823257
13.463675 4.687274 98.135437
14.602664 -9.428439 53.148880
-14.347455 8.868248 153.702606
8.368876 9.823704 46.077633
2.590177 7.200161 152.851486
-3.779749 9.605828 84.957649
7.553088 13.978146 71.513962
0.609417 14.541235 40.739792
-50.147125 2.034614 107.946190
3.577723 11.573531 47.482700
-18.208475 8.218507 87.834534
21.573996 -5.845411 54.566551
8.109501 4.706969 151.281433
12.071566 -10.411211 64.175407
-21.790348 1.910774 34.894348
-38.078377 -1.780236 124.035461
-22.383318 -12.678648 47.462772
25.141720 -10.465562 43.552490
17.968388 -5.481745 59.083733
19.258717 -5.251914 92.525322
10.210167 8.075283 149.923218
2.067360 13.980748 49.361588
-25.299221 5.716977 52.268024
-18.797443 2.678819 84.846382
-11.763666 -8.710808 109.808929
-5.331435 12.831520 52.650757
-10.976636 -6.499801 111.102165
6.149692 13.524121 46.629482
-35.792110 1.792912 128.898819
-11.328091 -10.367777 44.413456
16.389076 12.480935 46.231945
-16.413696 -2.164607 135.797623
10.773294 10.227446 33.931385
-4.195549 9.748182 43.094261
-19.683352 -8.798306 73.680855
12.923992 13.245606 99.174385
10.376907 -11.374842 85.908211
-29.051777 7.903961 134.458572
-13.465253 6.177670 136.507965
18.233540 8.639661 138.613693
17.033983 6.287703 73.745857
-4.467780 3.923074 117.514107
-2.976447 -5.083007 142.431961
1.426198 7.437331 121.118080
-15.067764 6.269544 104.210251
-7.536907 5.359023 152.633972
-19.557964 1.121616 136.705338
-36.842831 1.372939 125.598030
21.461607 -11.120837 42.973297
-39.292351 -3.873697 118.255516
0.859097 -14.095862 129.966110
-15.753972 -4.827718 136.077148
-50.200939 3.507834 114.980469
-15.247839 -9.437603 57.459995
12.407925 -9.186720 118.470825
-6.432743 -14.563892 134.752487
16.691977 11.173884 65.247032
-7.718055 10.604509 35.799690
22.468515 -0.091210 141.901749
-11.559766 -4.376202 121.083237
-6.997595 7.323321 115.006546
-15.094695 -8.695447 36.503986
-20.580839 11.562058 37.372002
10.667872 -10.739861 134.950500
14.808700 4.685341 130.362396
-18.934677 -4.778687 52.686371
22.133457 3.506688 132.448380
40.173157 2.792098 115.587044
-11.763571 10.550246 67.416595
9.788433 -9.970900 119.846352
12.086426 -10.366264 55.100140
-27.561899 5.908307 128.092407
14.111519 -3.547122 121.953842
3.986423 -8.493361 142.408279
15.782071 -1.820360 145.143555
8.042348 0.170392 154.171860
-45.445122 -1.881830 104.631187
-16.599819 -4.667670 102.907455
2.018026 13.719404 66.451416
-21.555895 -1.980402 36.539089
-9.506811 10.041144 63.563251
-8.156467 -10.562028 128.418015
-19.113968 -10.703182 42.174973
-0.223773 10.240508 135.430756
-13.709621 -4.401472 110.028786
14.673244 -1.150714 116.446617
5.245191 15.341586 141.301544
-24.541140 7.818658 46.600315
3.316575 -10.190032 114.833725
20.981979 -4.720267 75.961922
39.357773 1.756002 111.431160
9.160088 -6.423894 119.977928
-18.476807 -4.804865 148.251678
16.346661 -12.702272 43.671410
22.660336 -0.456113 80.066040
-8.347947 -10.035303 85.387329
-1.350179 12.786573 79.982422
21.651287 -4.412898 94.766365
-20.488859 1.365681 138.449570
-12.512629 11.006204 138.409088
15.208770 11.102415 47.670975
-23.634645 4.745077 140.494034
-25.658476 11.513187 128.591278
24.661310 5.775050 62.327805
12.259257 -5.596649 124.568764
-6.541013 9.666960 147.559799
10.962079 -0.257806 154.311752
-46.380928 4.805782 114.189743
11.914990 -11.015474 122.650597
-9.592489 -7.250794 121.665825
12.213046 15.077767 68.181702
25.518717 0.324247 141.125656
-19.597561 -0.912102 78.819221
-19.998705 -6.553561 67.213631
-20.305859 -3.066962 39.943802
24.046570 -0.397551 55.928719
-0.053591 -10.498041 116.683502
-29.644791 8.309072 123.475731
21.339369 -0.568388 91.983017
-34.651245 5.214930 133.555099
22.203197 2.855253 63.970734
-0.174027 9.282363 108.881790
18.296633 -6.903465 70.052994
-7.517266 -10.474519 130.754990
10.144581 2.012941 153.441833
-11.285718 8.451895 81.351570
19.397125 -7.727960 86.681099
-18.975000 9.331487 40.181988
-21.933229 -10.763319 49.219635
-16.630871 6.268631 68.326721
-21.623831 3.659706 49.321911
40.264156 8.889745 112.558922
-1.525694 -13.062080 117.864388
-8.367091 7.186797 131.473373
14.970706 -1.107665 116.361595
34.180809 8.253335 131.552826
-7.882124 -8.167872 89.769867
5.233284 12.377338 77.745148
6.344187 -9.000276 138.146484
4.587024 -16.114075 134.147079
35.194111 6.071082 125.407028
23.798094 0.704408 60.912247
15.566959 1.658907 150.529343
-0.960917 11.085956 56.350155
-18.490788 -11.588840 72.621017
7.190867 -3.655762 146.065002
-15.613999 4.255040 132.956985
1.531739 9.245695 103.702385
24.903259 6.448126 50.188763
31.185249 8.264199 136.267624
1.395115 15.228815 45.189388
-20.615248 7.156963 41.442982
44.890686 -3.679309 114.571854
14.458716 -9.894969 100.993370
-18.152332 -9.944298 59.951950
5.025839 -11.941538 106.398445
-17.231634 0.353107 95.553825
-24.112288 3.658153 39.019955
36.342850 -0.929423 117.469109
13.870312 -6.966523 64.318672
-11.771381 10.965518 39.700409
2.389522 10.653560 149.138412
-7.680196 12.673918 42.795528
-6.436358 -5.494394 145.074265
33.278709 9.428638 119.468048
50.477192 -1.014532 105.491280
7.640460 11.767900 84.555267
-9.937093 11.090814 65.371696
-7.220246 -1.262347 150.540085
-14.264206 11.993452 85.015167
14.801058 10.411406 49.788040
-25.295675 9.097573 140.871262
-19.763407 -1.867277 105.071342
-10.184045 4.186485 122.875015
-24.491812 2.738930 124.064552
30.204443 8.892419 127.611893
11.784083 -10.107428 76.514046
47.948589 2.703723 118.329750
21.020636 1.129680 66.245811
45.038162 -0.330012 106.666153
-23.161930 -4.140453 42.851791
26.314512 -3.215277 130.715042
-17.432673 4.495903 67.702927
-10.363220 11.659763 65.358536
11.708673 4.275823 130.787094
-22.867357 -2.812031 141.796951
19.704643 -0.080378 41.836052
-21.363823 -1.985553 41.622238
3.840488 5.201088 107.828949
-23.587128 -2.556420 78.376442
7.432966 10.951441 137.549469
-41.454590 -0.500765 117.367737
13.189225 12.470371 80.719254
0.821373 -14.438063 132.759201
5.623006 11.807220 105.897026
-32.993717 8.221362 114.293877
15.419903 10.965348 142.736511
44.201042 5.232289 113.424469
-11.567492 12.320671 45.781834
-1.766093 13.318914 131.585709
23.066763 8.902719 140.022644
-6.826138 12.874746 148.819992
17.402340 -4.464465 151.793350
11.144693 13.610854 66.453331
-13.123966 -11.106410 97.852859
-9.489710 14.118327 90.345879
-18.657660 -11.862886 54.465221
15.996473 -10.036534 35.382622
-17.439617 9.265761 66.659775
52.213276 0.535406 109.835617
18.424866 -12.490160 80.465668
20.441460 -1.408316 47.968002
13.678079 1.072200 122.447334
-33.266010 7.804307 131.610733
7.896416 10.123899 128.854675
7.392633 12.951111 86.645248
-21.629822 -3.702574 69.576965
19.119492 -8.174502 52.863770
25.574814 -5.917754 63.996876
-5.523954 4.347542 159.990738
-4.045666 5.002187 108.285339
-4.457855 15.243294 98.398552
9.128426 14.552336 82.892372
39.915417 3.828561 109.994476
-27.339275 2.067834 134.027679
18.088270 -6.331483 140.200851
-21.399487 6.795398 46.816425
-42.070473 -1.195922 116.076141
-14.871555 -11.864024 38.933319
21.396679 -0.869739 46.604290
15.112261 -8.055769 93.233292
-50.382088 -2.280169 107.810646
14.183264 -11.297498 90.696350
-33.179729 3.569923 126.664589
-18.355442 3.682225 88.548424
18.424444 -3.330366 91.836006
6.183793 15.268042 39.075722
-57.275043 -1.991756 107.007095
22.766209 -4.150376 42.453468
-8.118186 10.519851 99.850319
-42.524883 -1.501033 116.619629
-8.263754 -10.095532 94.905853
-21.314827 -0.404884 40.851585
-12.534737 3.154097 91.984070
0.059724 8.561460 106.390297
4.887042 -14.780602 117.290703
-21.389418 6.679082 72.265831
17.716125 -5.919425 73.775002
-17.671749 -13.739052 40.989204
7.503595 -10.526891 69.576027
21.105009 8.569755 42.143131
-2.145400 4.804128 123.811478
3.466807 10.061815 151.247574
-20.081238 4.012993 136.158585
-10.448191 9.133654 98.731606
6.447659 11.962815 100.557945
-11.458679 0.257234 121.184425
-22.242559 0.512135 138.945023
-12.849754 12.705609 81.647682
-8.866731 2.000288 115.277016
12.284655 -9.979399 135.740128
15.993006 9.595034 73.527863
-12.984632 4.906786 152.313675
20.273224 -3.333232 89.417648
-17.489891 -7.427498 88.042053
-6.092628 -10.235292 91.017380
-8.190856 8.326777 128.545013
2.204316 -10.554739 115.466652
16.451981 6.078466 103.996201
-15.531389 2.460144 104.812431
-23.516426 9.567103 44.245770
3.801589 -10.178649 135.805283
21.407333 -6.130507 32.331177
-6.696729 11.898219 59.540596
-18.388687 9.906534 40.653519
1.693823 5.828772 108.250313
-20.550486 2.614956 89.034088
-21.971928 -0.063093 143.692017
9.565559 14.303847 68.439651
17.752787 9.360474 56.666298
53.601421 -0.836185 107.885872
-16.471556 -4.358029 91.204475
-43.717030 0.095903 114.622772
-12.337293 6.670330 150.713089
23.145748 -4.468937 53.557648
-21.987228 -15.924599 54.114773
-21.398560 -9.371545 57.601784
-24.355021 0.492813 136.194534
29.720463 6.901901 120.918922
-7.452240 4.956688 125.258667
11.234110 12.702934 149.415741
17.905872 1.151536 133.753586
20.018213 10.661163 52.137089
8.670424 8.338938 131.023590
26.302393 -4.709126 132.392563
10.488841 10.588437 71.116600
1.386110 8.268001 123.767799
32.452053 4.198276 125.249550
13.021640 -12.159087 136.953171
47.875870 -0.756393 109.933884
-15.123666 9.019437 43.808640
11.519258 -10.711234 78.184830
17.078945 -10.875998 62.634106
-17.519558 4.389625 133.675354
15.249534 -4.396891 134.505539
15.978703 6.672815 148.854019
11.761752 9.042807 138.870316
15.867643 6.745430 100.973808
19.880283 -9.709589 69.471115
8.020665 12.510877 94.899231
4.676270 10.019166 91.003540
15.687929 11.352747 38.079769
47.607815 1.547646 115.836555
-20.842934 -13.611687 37.422710
-41.803429 -1.356658 120.428795
-21.184696 9.603171 143.187256
-43.254372 0.108392 117.053497
3.339193 -8.198000 144.659821
0.764084 15.194665 62.466530
-10.487028 -7.685702 153.757843
7.734225 -11.167045 122.112900
13.823141 -10.331061 45.722107
-12.761608 2.901336 150.225021
29.944756 11.043490 134.012161
-15.051212 15.002697 58.587605
9.420179 -12.831788 132.649368
-24.208212 -6.775817 71.373497
3.648667 12.891606 79.682961
2.692080 15.512857 45.825676
-14.356983 10.068205 144.891739
-12.136650 1.571590 114.004936
-9.402438 15.847785 137.353180
-20.872080 -4.857916 82.639656
35.902565 -2.849732 114.295044
18.720919 6.274829 153.493103
-6.148745 -8.913144 78.739944
36.209282 8.833563 118.762856
-14.780074 12.320738 68.774574
14.501775 5.301105 134.416840
-19.992710 -7.766905 71.160118
-7.337937 12.298829 90.395660
-13.697773 9.105150 47.175621
19.908171 10.644217 47.159431
17.658689 7.159455 144.421310
-28.159029 3.483099 122.956230
-7.472319 11.199196 26.976709
8.568765 -8.170452 140.314484
-24.942966 -8.032236 41.192776
8.448435 7.703306 111.109207
16.856724 9.900362 146.099625
-18.959778 -0.771839 37.649002
-44.625603 2.306836 110.968216
-11.192400 -2.844154 148.506165
-21.476923 -2.531990 84.865074
-10.383727 3.860538 118.121597
24.945549 11.296769 57.567451
10.978855 -7.870605 40.298031
14.591423 8.801449 149.282745
14.188191 0.991605 114.371124
29.643082 7.842921 123.755821
-22.740265 4.268851 43.534855
5.416713 2.232137 153.871689
10.923424 -3.856377 148.624329
7.108176 2.259762 158.065796
17.228476 0.716624 89.988884
1.247151 -11.989677 121.550034
-10.401158 -5.619974 100.656166
16.521116 -7.105632 86.217140
8.811876 13.211037 73.669449
24.591125 8.027165 41.227211
11.052869 -7.649729 141.076126
21.016024 0.113889 35.906235
12.245869 6.235316 153.067200
4.709357 12.508187 82.171745
11.662477 8.094085 125.657745
-5.984445 -10.291355 145.151306
12.581975 -7.345245 132.005569
-8.265001 -10.751051 130.169708
-14.675150 -8.137357 77.010544
16.960367 -5.523293 108.992813
7.651442 11.072286 79.742348
-9.845711 -9.963324 55.674469
-6.714385 12.897718 48.995121
-21.288490 -3.443477 94.589355
0.092310 12.813128 133.881546
3.281676 -16.096239 114.285889
17.560202 10.730031 138.421127
-10.888474 -12.700233 59.252522
48.916451 0.229185 112.928711
18.396946 5.314193 148.133896
22.140774 6.773525 49.730320
-7.847667 -8.802881 77.295456
-22.236721 3.899544 138.291306
-11.278303 0.964650 149.751114
-12.660643 -11.873350 127.690147
-23.299355 5.381771 140.430008
20.867962 -3.290679 68.628708
48.441196 -9.766230 102.432587
-22.902075 9.288610 140.050705
15.127829 -11.284451 31.820171
-20.498547 -8.138605 58.676491
-22.621832 9.824850 44.525097
-5.315374 11.258625 69.613983
-9.579671 9.881991 150.319870
10.412650 9.940428 115.546135
-36.544147 -1.614647 120.190865
-3.936764 11.376081 151.194046
-16.925232 -14.338336 38.914257
-9.487123 2.793680 151.718399
-4.182393 10.410699 136.869431
-8.728190 -12.690715 138.610168
21.829903 6.152424 78.548363
35.148106 -0.311809 117.469757
-32.006226 4.687961 131.921326
17.475241 2.803259 93.431763
-10.317721 5.374921 123.832458
-19.960054 -5.361517 42.340347
3.643781 10.848153 126.711830
-13.432308 -8.894676 42.282173
1.183263 13.976633 39.222580
-10.892434 10.968310 81.075836
-11.721743 12.808956 147.716080
13.873907 -8.085802 124.795532
4.533341 -11.076133 129.889893
-49.466373 -5.060955 113.207413
13.089855 7.729249 104.585388
12.416138 13.241047 66.029381
-13.255369 10.295168 140.765961
14.062568 -5.610143 127.328751
-16.572163 2.917003 151.938507
10.478076 -4.193872 118.125862
-19.011189 2.423733 87.831154
-10.203270 -8.284669 82.031960
-6.249567 5.046216 129.516388
17.738644 7.705925 49.405102
1.446412 12.072447 148.316742
-3.353493 -11.872401 115.713989
49.430622 2.106869 110.137146
10.416035 -0.522060 150.660538
-20.863066 -4.235207 44.194794
45.597786 -5.496665 111.804878
-11.808537 11.422771 40.527985
1.223604 12.984555 37.551018
-14.916137 -8.464805 87.549683
22.548248 3.306888 46.580559
7.658308 11.298680 66.825836
-23.144575 -8.129808 42.782688
19.301064 5.677671 73.296478
-21.235731 -0.609207 87.184433
41.305805 -1.915509 122.790199
34.615089 2.503403 120.117149
-12.557177 -2.753186 115.033340
8.850101 7.921262 149.582901
19.261042 5.908707 46.149288
18.414736 -10.200583 41.387737
21.544664 9.592302 140.837860
21.751972 -1.406965 54.406292
-9.745509 4.194333 149.809814
19.963795 1.405624 49.546646
-14.356623 4.912832 135.063980
-11.570744 -10.188652 149.599213
25.415155 5.550851 38.044109
-18.251265 -15.989053 33.827133
32.277077 0.757853 122.346878
20.247604 -2.283510 43.987217
12.905659 0.173142 149.974945
12.701042 9.034140 105.189201
12.729143 10.958365 87.549133
-36.858974 7.246878 122.690536
-20.446327 -11.673951 67.384506
-4.258232 11.334414 71.120934
19.154572 -8.114623 49.205513
-10.034845 -12.346979 48.874084
-23.081045 0.161885 130.855850
-16.693588 -0.751461 100.391243
-24.007210 0.866144 132.326447
1.907509 3.881871 122.612068
23.015549 -8.502330 62.137234
8.739182 12.504662 82.560898
-14.327540 -9.279378 51.394596
-3.656272 11.272202 64.758957
-19.286037 -0.013211 89.978462
-54.004227 -9.414586 107.346123
-45.251221 3.768970 117.826881
18.187202 2.155428 95.662560
12.233573 10.917830 87.175926
10.937922 7.594606 127.111656
20.040920 3.356766 141.129715
13.325211 -3.943021 141.550812
-6.037148 -16.736856 129.674149
25.931465 8.700125 129.067703
-14.325117 0.429817 103.808990
-1.981029 11.923983 78.593849
20.482792 -0.403202 84.288795
5.237363 11.825781 148.192581
-8.764524 -10.362695 97.328514
-19.996788 -7.001565 41.400013
-22.772514 8.964247 43.210453
40.590206 1.499250 120.417015
-0.200556 7.251124 110.709045
-33.089962 2.542088 117.768402
-11.968470 9.976391 52.380085
-4.722253 -11.648333 88.521378
48.966526 5.812640 109.429337
3.144545 -7.497836 141.752380
3.302542 -13.888403 122.221161
-5.453455 -10.265692 119.225304
-39.490585 5.716099 117.743172
3.424931 12.085303 50.360062
26.834261 9.043408 128.912811
18.968851 -11.102675 51.090324
-1.345908 -11.180022 136.486633
-6.497953 11.364209 51.803471
11.536294 11.894099 60.701996
15.043900 -14.482958 38.255337
2.231080 7.895914 135.005768
-21.479116 4.647503 144.800079
1.398894 -11.475518 118.282410
-12.242546 9.882439 51.695675
-32.476479 7.200680 127.296700
-19.577486 -7.678620 61.711872
17.761454 -2.303527 103.532326
23.807547 -1.453566 63.975853
47.346081 -3.192030 114.909088
-5.200184 11.792065 157.484116
-9.946429 -8.061598 77.354240
36.635403 6.460143 117.020996
-16.622875 -7.969217 89.284485
-47.280476 4.284997 113.820518
4.717592 13.006869 93.329750
33.037037 5.575044 118.943192
21.917160 -9.336520 64.861580
-19.611038 12.831747 47.176849
13.152570 11.622999 74.959221
0.946424 14.479630 150.700516
-21.454119 -5.093768 81.318581
24.069698 -5.785656 52.648659
-13.922108 -9.899735 49.877296
12.631836 12.106296 35.273636
8.732302 -9.447819 114.841331
-17.069365 3.089985 134.395996
3.764432 13.458534 146.200439
12.160096 1.169894 114.838921
18.048443 4.019351 90.732079
3.220056 10.905501 65.430687
8.613005 13.090552 87.175636
16.793020 -10.941137 72.296982
16.056892 -6.215592 140.760925
-10.266772 11.075231 148.005753
-9.147206 -16.481066 135.841904
-1.342035 9.112473 88.703079
-4.246511 12.516099 80.460548
-6.022977 -15.246492 130.738571
3.985476 8.061823 115.154755
11.612333 -9.712393 128.100235
3.993553 -9.533606 140.479721
12.681967 3.479914 117.184166
-39.349705 5.518950 127.331062
-14.563787 -0.450640 109.030556
-10.847513 -2.300138 145.170166
17.761829 -9.486290 56.063862
-27.355505 3.241566 122.027885
-16.900177 3.550137 97.548820
52.615025 1.400774 105.245689
-9.179211 -10.990927 122.889145
-4.133450 8.878875 138.251526
6.169250 16.114292 80.861488
10.033196 -9.919839 41.284138
-50.026566 -4.118619 112.536797
19.122822 -2.611260 68.383682
-18.446280 0.849485 84.771744
-19.393950 9.425957 141.386246
-23.650908 8.815718 54.108002
12.853952 -9.240721 85.669655
16.561272 6.344380 77.933632
15.325600 12.179186 62.416931
20.962776 -0.317346 146.020767
13.881674 -4.997534 116.847458
-18.436672 5.668847 134.723557
14.555802 -0.738087 134.013046
-5.215317 11.474338 137.354462
-34.133949 1.453465 130.715469
-21.069847 5.145692 136.901794
2.134196 17.832415 47.128674
14.740055 12.312404 131.972504
19.577852 5.862838 59.388264
-31.301012 2.373899 125.233139
-16.879444 -7.757788 74.515823
-19.922314 -9.054421 76.465561
-1.372479 6.181486 113.578819
11.992382 12.746472 144.957138
-0.356135 4.369465 112.116188
4.303912 14.948819 89.665932
21.843225 0.715331 46.430756
16.959858 -2.638070 132.086411
20.631977 5.614469 144.785294
11.135658 0.969605 115.362366
18.381716 -1.471265 96.680901
23.515413 3.328305 54.839798
-17.743286 10.347037 138.726837
4.489278 -12.683424 123.217461
35.484673 7.986653 129.412323
11.921065 -8.157650 80.680763
1.457681 18.879807 40.629524
20.665295 8.165357 61.693264
-3.703520 6.416915 155.467117
-15.286683 8.092104 79.429245
19.963842 -4.859659 83.333138
-22.509956 0.432318 125.039497
3.853256 -12.211101 112.180489
9.940881 -8.752355 117.704872
9.311682 13.746976 48.118721
24.154135 5.864237 61.239853
2.193737 15.399513 146.119461
-2.668166 11.000799 59.831589
16.257574 -11.511523 77.428444
-18.216022 -3.971163 80.267014
21.349833 0.371831 133.280502
6.902502 7.213262 125.847412
1.129683 13.663458 96.776672
-0.910536 12.003546 74.663994
11.657856 -2.134940 117.563042
14.476367 7.012410 93.658356
-9.493754 4.561549 116.035271
22.870813 7.509485 143.377747
20.540533 -1.369381 136.770691
13.948988 9.638784 146.746185
13.503478 -10.449180 130.836914
-1.014345 8.930950 114.974876
-13.344159 7.652914 104.833107
-18.774937 -8.544971 47.381428
-16.561440 -7.786134 87.922905
-19.964911 7.115611 50.230755
-9.499449 14.344541 86.908569
-22.779848 -0.618199 134.449051
-9.697511 9.636606 107.488640
-19.405008 -2.534007 81.451103
-15.840710 -8.911808 63.995865
16.209209 -9.011169 121.494293
-4.040197 -11.265696 131.546555
-9.625164 -11.705795 41.991505
-41.713314 -1.907890 117.890442
-8.300664 -8.651813 76.810654
-6.213196 -11.155312 119.389519
-11.224427 8.898765 86.188591
41.569832 -1.902301 116.174156
-9.732798 -9.219831 70.385284
-20.972429 0.687519 50.352173
14.870998 2.151193 126.800941
-12.417603 -12.186314 84.615417
18.602446 1.434105 148.726608
-10.821956 8.585463 104.678596
-23.384739 4.322741 53.062767
19.974669 3.828460 95.582108
32.053234 7.331431 131.872086
10.350049 1.334784 149.469727
-9.729596 -8.939322 131.563965
