ply
format ascii 1.0
element vertex 2048
property float x
property float y
property float z
end_header
16.378557 -0.987931 17.977890
11.647071 -8.376138 104.598465
2.458137 4.716448 110.127579
-15.524470 -1.336300 83.883255
-17.840464 2.295307 15.361832
2.474525 0.712796 18.088470
8.597852 -12.440691 78.754677
-3.503807 -0.489296 65.940918
14.758174 -0.285813 82.013885
4.395046 0.953752 48.161346
-11.804657 4.636618 72.963135
13.943381 -3.144985 56.487144
3.316931 -3.508321 67.605125
15.070210 -6.554679 14.366052
-9.971088 8.703738 88.895309
6.331726 -12.679221 106.543579
-4.536156 1.894468 68.433517
-2.532853 7.697648 97.072990
-7.565228 -4.496732 7.876076
11.358047 4.017028 73.293625
17.074461 3.264440 31.441038
11.363432 -9.929425 97.602280
-14.280675 -4.151861 75.692154
-16.214363 -0.968005 33.456234
-5.171120 4.971815 74.927948
-4.236055 -8.918534 63.030090
4.878393 -4.980625 48.806404
12.514057 5.372596 24.141748
-14.490476 -8.100383 89.702133
-5.723552 9.135942 100.798180
-13.771798 -2.025376 37.924477
11.239851 -6.054880 31.505503
-2.983457 -6.018635 55.556908
-17.089680 4.033360 9.015032
-18.290085 4.104668 9.664334
16.770716 -2.175372 87.866463
-12.222392 -6.958174 54.225220
-12.511661 1.728150 67.744545
5.144083 1.550863 65.124283
9.563428 -12.628526 90.567833
-3.683118 5.856328 74.992462
-3.972306 1.584526 26.316620
12.254269 5.899580 2.769006
-1.677369 -5.484449 69.398430
4.247867 4.705916 109.358047
-12.003282 -6.405319 49.188435
-14.882468 -5.485329 77.709206
-10.668459 6.405075 64.039627
0.901776 -5.910923 11.047409
-12.184718 -10.836399 74.766045
15.879294 -1.139136 41.856274
13.424600 0.287421 98.181213
-2.318379 -2.917130 67.223709
-15.805295 -1.288199 91.920708
9.127789 6.688668 54.860214
-12.295201 -6.389223 52.343357
-5.380002 3.431888 44.521427
-9.473597 6.197859 21.638565
-2.812735 3.439523 27.852808
-4.627687 3.797586 15.445858
13.073998 0.629381 94.866287
13.523371 4.148017 102.997444
-14.296997 -7.955170 80.720398
-5.498290 -12.874405 85.549034
1.948601 -1.809907 16.899660
2.399763 -0.133071 8.570857
14.193634 3.594588 12.325877
0.378374 4.298206 107.962807
15.153569 -8.384597 68.991219
-8.556194 -12.361717 72.875641
-6.703351 -3.908389 47.969810
4.237703 -9.754227 86.786369
14.438676 -5.891621 92.630051
4.817962 -11.076557 98.949707
-6.190259 -11.679941 87.458588
-6.979300 -3.786412 41.789291
1.419007 -9.322509 85.380119
14.624126 2.974374 16.861834
5.550276 -9.560969 67.035225
-11.865535 6.905516 43.681683
-15.338271 0.124598 74.142456
3.100682 5.230921 79.353943
-5.098973 0.303227 14.324645
11.783623 5.805241 54.508572
15.895222 -2.831579 41.702908
15.312868 -4.839200 83.329613
16.395031 -5.852996 64.909737
4.170033 -3.729639 45.584732
-0.111411 -6.970594 85.149483
5.157283 3.876360 81.360329
-10.722248 6.283091 64.443794
5.599159 -4.464308 11.011614
-4.647535 -12.371866 89.718330
11.683478 1.219842 69.262947
12.153953 5.281937 61.417107
6.065284 -3.542039 41.644405
-6.522602 6.292569 76.546036
-4.461405 -5.397373 37.785404
10.208950 -11.645893 59.328865
14.698932 -4.199200 46.497303
1.670747 -0.012163 80.170013
8.680245 -11.680360 67.026459
5.483315 -3.329978 42.408550
0.829818 -4.276033 76.667107
-16.427958 -1.139122 72.541306
12.301548 3.086470 56.784264
-6.589387 7.322419 105.265892
13.486245 -7.696836 31.803076
6.788321 -6.822218 52.254768
-6.934803 2.690631 30.971912
4.214458 4.279588 32.436367
-1.394180 1.160363 16.993195
14.848297 3.220429 43.105145
13.679100 -0.459057 57.295845
-11.739050 6.115479 65.230476
12.074397 4.415478 55.304970
-12.417410 5.170441 14.310881
9.180826 -12.514002 72.605293
-10.117492 3.346742 104.956085
14.202306 -6.977349 97.518692
6.129161 -9.749327 87.211334
-14.087528 -5.695930 46.007725
10.182446 7.569673 90.332268
-5.522103 8.296418 89.512650
-8.791250 -10.434575 99.606705
6.540964 12.303698 94.439590
-14.685583 -3.200682 72.523033
5.826939 -12.483647 104.928619
-7.332409 -12.111463 106.176987
16.165148 -6.564219 86.714951
-15.532432 -3.877290 34.358177
-4.151643 -2.332317 14.255788
6.132222 -0.885230 43.398842
-14.269545 2.584966 92.282928
-7.250381 -13.365501 105.343285
15.470092 2.292027 37.750572
-5.965120 -12.724126 69.085426
-5.427781 7.984702 81.201538
0.550892 11.481124 93.692207
4.968321 3.353096 9.071625
15.175463 1.949231 44.217281
-15.097450 -6.201437 6.276496
-14.060416 -6.145455 95.525543
9.221519 -4.837342 21.657108
-1.843908 -5.814238 74.924957
5.879297 -4.183663 19.981182
-15.414038 3.558835 45.778625
5.343647 -0.402834 65.838760
15.465010 -4.208428 44.170433
7.124316 4.111271 111.637619
12.002851 -8.309059 69.094902
-9.742923 -4.621839 27.775543
10.093846 5.531212 67.187424
-14.092206 -2.048858 56.519913
5.567005 1.278542 67.038826
-1.779358 10.113006 97.118645
-5.992270 2.154442 21.284502
-1.635153 -10.523394 83.339592
-4.076340 -11.430603 70.758308
-13.618258 3.081823 107.692612
8.971911 -11.472502 92.788567
-7.329640 5.152609 28.957581
4.958072 4.214786 30.679983
-14.097205 -6.934096 96.633324
7.223561 -0.400482 17.677101
9.974093 3.348433 78.830780
18.015606 -2.638741 91.281937
-6.580416 9.306259 83.648621
-3.273064 -7.712541 54.693153
-0.258556 -11.039008 91.429123
3.983468 1.779797 13.767602
-11.113759 -5.451567 31.074022
4.801763 2.296241 66.743927
-9.890813 8.077971 34.409481
-11.408597 -11.227533 104.968407
9.040817 -7.945545 43.424484
15.403012 -2.617303 72.998779
-12.666523 5.319390 29.954601
6.273140 -9.658345 62.880486
-1.544630 -0.187064 23.516703
16.218491 2.417603 7.411897
-13.744433 -9.337549 71.114342
-15.409722 -4.414108 53.969486
-6.956207 -10.225632 93.206879
-5.453040 -11.732181 103.765549
-15.141908 -4.800092 10.709382
-12.361310 5.256977 89.963654
-17.220619 -0.611322 34.881405
9.891176 6.097671 100.342636
0.661926 -10.993116 84.371048
-4.127072 7.401917 83.385292
-2.165085 4.979226 109.855331
-14.853445 -5.128730 101.224342
-16.716038 3.775737 31.648252
-19.092396 7.568124 9.729200
-7.228948 -3.801340 27.437309
10.580060 -5.091108 10.880481
-11.834403 2.834682 70.866867
-1.872754 -8.730245 76.561783
13.061454 -2.481559 65.288429
-4.796865 3.783525 61.245281
10.963377 -6.996105 34.766712
15.180388 -1.525228 88.773926
7.366537 -11.460030 68.358170
-14.769449 -5.569832 9.912511
-14.352311 -8.386839 101.565079
2.973129 0.731880 63.684906
6.074265 1.451436 10.949631
-14.086089 -4.505573 28.578918
-14.341965 -3.524757 100.288376
9.164789 5.743248 55.339607
-15.794820 -3.729309 75.850197
3.411235 -5.617268 64.575516
2.471388 -0.802483 32.405479
10.828839 2.010473 66.546700
3.179185 -0.347075 18.187656
8.614824 6.857353 27.527254
12.293589 5.988361 96.498421
-8.565831 -5.296249 25.786556
-13.369607 -7.253204 62.520473
-10.040933 -11.509952 106.009712
12.787642 -6.660649 15.345907
-1.403668 -0.438916 24.342443
-8.973943 5.094382 44.533184
-13.333325 -7.615565 39.435387
6.120099 3.327156 108.961380
10.422300 -9.467500 64.221970
-10.096388 5.067688 40.962589
15.192522 -4.322150 66.190697
5.204750 11.017798 90.988647
-3.236697 -4.600892 34.454914
-3.629846 10.050877 86.641014
-12.456731 -11.233234 63.308002
-0.587473 -9.364421 80.605865
3.151641 -12.281794 98.375206
-2.324104 -12.291406 93.482841
15.281842 4.221457 62.955715
5.398577 9.099685 101.558975
1.398228 -0.151147 33.187691
4.617969 1.767013 46.508850
4.849377 6.780422 14.316559
-4.313653 7.484193 87.006096
-1.542093 0.070280 47.717049
-15.596320 3.026259 21.046244
13.036562 -7.668973 74.171646
-5.661357 2.477724 11.396874
-9.563184 7.714074 60.486042
14.649098 5.391177 39.298031
12.549167 -3.845632 55.460602
-15.421575 1.477352 36.411297
-9.084603 4.912086 75.634926
7.724054 10.899509 93.743240
-6.518526 -6.676330 56.873863
10.810938 4.638758 97.178535
13.941298 1.441716 102.182602
-12.117854 -10.078770 81.576492
15.649542 1.361638 32.792397
15.960456 -3.472080 15.584519
5.396089 -3.431870 23.875679
-8.737922 4.691133 107.058746
-2.456866 -1.246196 60.531338
12.757321 -0.951338 74.085190
4.543274 -0.580439 16.271517
-5.191688 -10.845903 68.443756
15.704456 2.983202 48.785645
7.421278 3.546778 44.382046
10.028659 -11.317458 98.809685
-17.840679 4.858859 12.310945
-7.187984 -13.047886 79.583679
7.712308 -5.322551 20.477589
16.656609 5.115746 7.085044
5.497151 -4.956821 21.533331
-0.331668 0.131201 29.163021
-2.944827 -1.054599 11.929912
7.134601 -12.524689 99.409096
13.179506 -8.189537 32.581497
-7.869941 2.343220 44.497360
14.032994 -3.785222 15.952792
-14.717942 -0.344286 93.394485
-8.465128 -9.894467 53.224037
15.317103 -2.909187 31.598030
13.836651 6.733506 20.770697
0.640955 -2.870701 21.592848
2.596001 -12.255560 97.836433
13.090682 -6.392212 52.849998
-17.324024 -3.960566 84.096214
-9.478483 7.674626 95.740364
14.061436 2.023362 44.841648
-10.034040 4.556888 12.389899
-11.977731 -14.517284 74.730194
-5.899649 -0.347675 46.808971
11.084182 6.693469 33.658672
-10.671584 8.498115 83.427597
-3.788508 1.255662 27.683613
16.229397 1.151790 39.356827
-4.586844 -11.495941 96.693108
1.265723 -8.241832 72.734955
-4.219808 1.068785 50.260864
1.793366 4.939204 76.456261
8.104135 -12.044468 68.921928
7.336852 5.501565 49.965771
-16.416929 -0.984804 24.090052
14.777498 0.585429 86.503021
-12.733714 -0.190962 106.590424
14.458374 -6.364890 27.682831
14.620728 -0.510180 52.462997
12.983752 -6.139588 104.324722
9.956204 7.072160 15.737040
7.742257 9.925576 100.816338
-15.347605 -9.348944 68.805672
-7.837037 -10.423634 53.741852
-4.175739 4.423807 71.598289
-16.758568 0.820425 90.170982
13.999962 5.249425 24.029322
-8.230600 -8.428052 46.610516
-16.165129 -2.580330 37.546394
-14.707007 -10.646476 77.006790
16.618076 -2.482973 86.633575
-5.397208 -13.202969 100.474731
4.096026 -5.823637 53.497608
-1.119870 7.826789 92.979416
12.738142 1.411822 86.945755
-5.534853 -1.900307 40.864746
-17.237814 2.961715 12.732369
12.994610 -1.105025 67.759239
7.279933 -4.399834 35.720364
15.378091 3.869563 18.879950
-4.430606 -5.917658 17.877251
5.836732 7.245586 82.329460
-16.659710 -5.690325 91.420441
-7.920432 -7.276333 38.359459
13.161716 -5.433867 27.626719
9.966234 8.136696 96.633789
0.392911 -6.070661 77.940887
-6.224123 -9.204287 4.238533
-12.874743 -2.259929 78.686714
6.463985 -5.787677 49.166389
-7.580869 -3.552055 24.024881
-6.277571 10.880608 97.488213
6.039342 -10.025723 92.178017
-4.187696 -3.375995 36.540665
-12.411922 -5.992083 9.093958
-16.545446 -2.439910 24.403114
13.196323 -1.170986 54.503036
-13.239590 -6.048574 102.576019
-6.979041 -3.723340 43.220642
-10.137350 5.715857 97.746231
-15.366493 -4.147056 25.329212
10.526478 -10.516797 102.725235
11.191566 -11.127552 76.905510
1.740248 -5.768058 10.403020
16.880947 4.666614 8.763400
-4.799401 -13.294641 98.158577
-12.256603 -6.181297 96.497131
-1.616183 2.462336 109.505234
12.608438 2.807413 68.958107
7.511071 8.852757 84.413162
6.435040 -7.259134 61.887024
1.396173 -2.712600 78.926987
7.868466 5.185922 24.613388
-12.681973 -7.243605 18.387793
-10.788692 -10.327868 76.533607
2.710353 -1.037057 18.630520
3.505021 -1.962391 59.713284
2.169740 6.105587 88.659927
12.414420 4.332098 106.443512
-15.288412 7.436749 6.432671
8.490061 6.706221 90.636368
-15.200182 -4.973979 85.701042
5.096397 6.704064 78.614700
2.464479 -0.214670 14.908961
-4.927294 -1.619318 35.888988
-13.408737 1.981868 88.899109
-15.676085 -1.408210 78.005226
14.411501 -3.208607 94.866730
0.609525 -6.191073 78.759499
-10.981554 -10.300664 104.399338
5.555412 -2.485907 48.677158
6.336360 2.251430 48.785030
-13.763180 8.647882 16.885044
4.035000 -12.463719 103.114418
-10.541917 -6.869785 8.442583
-13.994515 -5.865943 95.825500
11.761128 0.848211 69.173119
-16.755144 -3.214288 32.186634
6.009765 -11.352445 98.042625
-13.096204 6.558723 13.519086
8.666549 8.720016 86.038429
-13.419551 -4.970223 21.441399
-12.254091 5.344440 59.446495
-12.840579 0.639215 65.221039
-11.735579 5.354054 79.285835
-3.081090 -9.721972 73.504463
-12.349853 6.846139 57.225895
-6.557535 -14.497122 83.914017
14.201278 -3.958081 52.724312
-12.135751 -3.639201 105.848000
-15.082120 -3.876181 19.822803
-7.197299 8.787675 101.190720
8.248744 -10.549176 97.129814
1.716115 -2.966824 19.841261
5.884774 0.767285 40.670654
10.572859 6.037036 93.891777
-7.685377 8.054837 77.190445
-10.977662 7.188449 44.388668
6.231582 5.134673 72.088493
12.822837 -8.982296 56.020805
14.999652 -8.497970 72.586792
-11.701837 6.653339 95.149017
-14.788018 -6.256546 59.598850
-2.494721 -0.411637 32.619659
15.545386 -6.763623 80.230309
3.663742 4.530052 108.967712
-6.855219 4.293544 8.586683
-12.339414 -11.846693 89.943672
-6.111765 9.510564 98.585495
5.486963 -6.162104 48.304718
-11.176488 3.203087 83.539177
-18.339022 2.414793 32.885170
15.764329 4.357098 30.407921
11.176875 -6.880510 30.614309
-12.412062 -3.644738 104.646576
15.197716 -2.979501 65.068947
14.364210 2.692671 34.334263
-14.094248 -2.676448 20.481104
9.086473 4.579455 109.677299
15.361403 -0.116161 42.088318
5.066034 -12.496235 86.783363
2.846845 -1.328376 56.775097
4.714858 1.316431 9.855268
-0.626404 -0.206774 79.139336
-7.405702 7.858413 70.412483
-8.097106 5.340511 45.433693
15.514238 1.465158 34.512791
5.148896 1.139079 59.381004
-3.757124 -1.912283 53.084492
-12.825169 6.732792 20.947454
5.834165 -7.323905 56.694901
1.702389 -7.143167 65.040184
11.683691 4.709004 58.615383
13.238805 1.297039 96.579681
-16.233208 -2.894834 90.366844
-8.004314 -11.415703 70.024139
-8.786158 -8.312165 38.804043
-11.586102 -4.572973 30.109892
-12.388251 2.767568 97.696465
16.813009 -1.632668 18.889494
14.079405 -9.758662 75.511574
-7.122775 4.835321 54.011505
-10.617755 -9.459979 62.592110
-3.082154 -9.357568 87.527962
12.994542 -0.367011 106.554451
-4.989664 -3.733442 53.771149
9.703553 -5.680819 22.508980
-3.405730 -7.979067 70.642715
-9.174874 4.078472 102.587570
-7.004108 -7.082637 36.294250
16.130554 -0.799442 20.715414
10.327496 -3.870366 38.286156
-5.964262 0.646140 69.424034
16.352203 -0.010912 83.751434
-6.258630 -0.211909 17.091299
-9.209990 -7.933837 46.015141
6.381371 7.948213 84.458855
10.426468 -8.135074 103.335846
-14.982439 -9.538234 74.485931
-14.819306 -3.236360 51.307270
8.770169 -12.886178 90.939957
-13.337415 5.257685 68.905540
-10.965865 6.306342 9.814045
-8.654896 -7.160995 31.407890
-3.150604 -1.065795 24.652525
11.049036 6.321598 61.991306
-1.815274 -7.085847 64.505013
15.847539 1.668060 23.195873
6.951560 -13.096602 74.186165
4.428813 4.720041 80.157051
-13.173905 -6.832222 56.287380
5.469460 -1.565663 15.867891
9.420279 1.386275 7.087109
-4.711309 7.621162 59.592735
11.189063 2.999238 76.010933
8.274044 8.765838 90.971001
-9.898669 6.091007 27.205471
3.787526 1.181926 46.054279
2.102242 -1.807695 19.918762
-14.876431 -5.912632 9.804692
17.786848 -1.277688 20.672525
-4.202073 -2.762894 48.664131
14.367926 -0.018139 48.363152
-16.971003 -0.948254 18.604349
-9.654485 -6.211615 14.028789
-12.443968 1.531377 49.146118
-15.978501 -2.731528 76.895744
0.013476 3.852480 80.545822
12.061629 -8.352386 46.219227
3.194012 -15.162115 98.128769
10.439315 -6.030983 13.708160
-14.050891 -0.961336 49.866550
5.736772 1.367159 24.526903
-6.128227 -13.133650 104.750648
-1.210549 -2.628578 68.520561
11.773016 -7.236310 13.348376
4.571126 7.997336 99.441093
-11.644324 3.096221 51.194981
15.390624 -4.548832 88.242088
9.558093 7.125369 53.245907
-15.446388 -1.277653 19.351667
7.920238 -11.935416 67.477707
-7.608585 -13.602707 84.813385
13.241452 5.813731 29.153173
15.531488 0.693198 35.287930
-3.213058 0.251358 62.337975
-17.998402 0.538704 8.817868
8.343843 -12.582110 97.978401
2.703442 -7.154452 61.431709
3.609677 -11.687838 89.362785
11.648478 7.078410 99.582985
12.822731 -3.892620 19.729282
4.292608 -11.787438 100.272827
14.025780 4.110509 51.586388
13.648540 -1.445825 69.861595
-1.190135 -3.827511 24.343658
12.196741 4.172933 46.796566
16.562489 -4.374564 28.553402
14.108872 6.768161 18.060501
-6.790987 6.342396 103.271866
5.563678 -7.628824 53.586868
5.275742 -11.785124 77.152481
8.983571 -6.148835 36.354179
-10.942030 -0.945072 66.685768
3.128105 4.434028 105.938835
10.127393 -13.493909 86.164146
-8.316310 -8.768325 11.301194
15.142867 -2.860167 53.646305
12.776832 -11.365158 93.222939
-1.140235 -5.206232 74.149567
4.253834 6.733306 106.281685
13.505051 -9.838359 79.682007
-3.051201 0.588189 23.095964
5.234040 -11.912117 85.073807
-9.006249 9.710502 92.481483
13.551716 4.495838 65.255676
7.557559 7.294056 64.212082
-14.743026 -1.805662 47.390236
17.499691 0.169360 77.555176
4.541139 -7.678625 56.889744
-3.315075 9.821065 95.562180
-7.254126 -4.075987 11.738121
10.164040 -6.792269 39.139408
15.012877 1.925780 11.764111
-3.638700 1.756464 61.505165
-13.277137 -6.742822 63.604443
-7.634037 -9.727210 61.499607
11.416716 7.028331 104.063789
8.899419 4.227740 82.762726
-11.819736 7.223305 13.056971
-4.073212 -6.415120 20.939283
-10.932428 -9.769700 105.262283
-5.265930 -5.564821 10.963337
15.625709 0.209037 15.619215
-15.405678 2.438084 36.410332
-3.976003 8.534809 74.096443
6.359216 -8.695050 48.262890
5.623557 2.232627 37.773663
14.451862 3.130549 82.432808
-11.152491 7.131350 36.109760
14.796200 -0.167993 79.388542
-16.707466 0.080375 34.680630
11.670412 2.376034 110.453598
11.098761 1.244584 72.706619
-6.454406 9.073127 81.795929
-12.525329 -5.693126 67.936378
-7.188457 -7.088933 63.382782
3.699208 0.502861 25.262691
-9.333666 7.269689 72.796280
11.629257 -11.106908 98.852821
13.127656 -5.308942 9.044241
12.955336 -7.745462 57.517292
-6.302053 8.933059 91.374306
-11.414372 6.326911 57.397110
13.818083 4.055520 94.719360
-8.434572 6.990211 101.682388
14.404899 3.210240 42.380497
-4.112548 9.193090 96.240219
7.023237 -8.474293 48.715385
6.631622 6.131054 68.114174
-4.848255 -4.573489 50.401821
13.956794 -5.157156 11.915560
15.244604 -0.228013 87.978996
3.945625 0.396810 42.450153
13.388027 0.478589 56.184391
-4.291328 2.237840 16.530422
11.965483 6.293416 91.418541
0.613498 8.394219 89.625587
-4.226353 3.746071 62.988514
5.370116 -9.617547 50.295155
2.469983 -4.428935 11.162351
16.134613 -5.190172 9.074480
-3.784235 -0.293745 40.670845
4.366772 0.138387 23.316355
13.982085 -4.850081 55.125946
-2.641375 -1.258517 11.314155
5.348310 -1.180958 42.816055
-13.243704 1.256065 105.181717
10.764606 -6.864737 102.853325
-10.136669 7.570822 62.122509
-18.344069 3.192376 12.657918
-4.378477 1.733381 65.396805
-3.372178 0.334608 45.426559
13.508977 4.719780 18.435144
13.579979 -4.831208 89.997749
-9.089111 6.289281 17.527821
-3.192156 0.006498 38.943771
-6.358059 3.124949 27.577723
14.518060 5.685023 26.267427
6.373478 -10.465630 89.220970
12.499050 0.768766 102.910637
-4.159015 -13.408323 100.510323
-11.709579 -7.330209 105.397896
-4.662686 -0.010854 29.677607
-6.807705 3.845851 32.877190
-3.509390 -11.216877 80.564583
4.706975 3.044922 35.971745
1.202263 10.927428 98.972961
6.144483 -10.769769 101.510643
-13.872560 5.022256 84.144562
8.207371 -11.156155 63.958000
12.818180 6.467812 80.827118
6.960703 8.247825 91.191864
5.747183 -13.107285 78.209900
-14.521391 -4.258986 8.171289
7.388980 -12.361098 92.691109
0.378654 3.221465 82.486832
10.327465 -11.046563 74.411118
14.256857 -6.229825 80.467125
4.412923 0.733788 34.913998
-17.023201 3.564844 15.085447
-16.847040 4.311102 28.788900
13.511284 1.270258 106.161827
7.316652 -3.787446 39.131210
-13.306897 -0.861232 65.492218
-14.435948 -8.212478 98.501396
-5.971562 -4.215265 37.739277
-3.228007 -1.267222 29.178999
-12.996845 -6.289876 55.467167
-3.193612 -2.833107 31.522900
4.098492 1.094388 27.721207
5.642729 3.613256 32.904388
7.384452 5.106600 57.293465
-15.238458 -8.554225 80.369049
-11.631742 1.375862 67.524971
-9.907237 -5.717495 15.483309
4.104234 0.791365 8.489407
-12.432480 -7.559807 33.998631
13.637584 -3.467772 69.661972
12.797445 2.524274 80.012825
-0.222244 9.623758 96.051506
2.600633 -2.657243 67.594788
-7.782565 6.035937 78.842262
-17.886271 -2.526338 12.933635
-0.713012 -8.076812 93.261307
-14.667782 -8.494948 82.351212
3.256830 -7.189856 61.006229
1.252585 -12.155106 102.407852
6.067978 7.760388 71.894821
6.060808 -9.957147 54.350132
-0.599585 1.418132 76.732140
14.073824 -0.700596 85.705002
1.031367 -3.433698 75.963326
-6.165236 1.144421 48.111336
-12.678222 -6.460896 32.128929
-6.472610 -12.748246 101.446487
14.935195 -6.330996 91.767555
13.516065 -1.844875 67.929710
10.714468 -11.609456 88.824669
14.282860 6.036279 28.096052
12.354285 -4.407199 77.178864
-3.890978 2.020793 44.494598
17.106689 -4.074002 25.127697
14.856625 -7.713816 68.475716
11.189519 5.353624 54.922737
5.746562 2.643897 22.576637
5.071147 -1.192750 34.595364
14.638696 -6.995243 99.785240
-11.694012 5.868451 34.132450
14.803100 -6.384716 7.381640
3.045142 -1.217257 39.094772
8.204676 -5.338495 6.562335
3.867159 -12.347709 86.629738
13.637833 -1.371281 34.399826
-15.476521 0.902468 43.492477
-9.419161 5.038861 89.170128
16.885292 -3.191809 12.586603
11.677871 7.476586 62.559654
-16.248682 -5.344103 83.081291
-11.385512 4.903274 9.619016
1.885180 -1.621125 15.803452
-14.021455 -3.537923 50.699814
10.642391 5.010417 67.455338
-13.146514 3.883243 63.325970
13.146063 -5.392838 108.207642
-10.422997 5.311615 46.406803
15.651246 -3.533144 85.664192
-0.836054 -6.179478 75.665794
11.745983 -12.608294 96.277710
16.220287 -4.423108 10.229203
-14.578419 -4.946513 53.801224
5.880872 -8.876047 61.625435
-3.049199 -9.564024 68.026222
2.386312 -0.778469 33.802414
12.768906 -7.227331 105.092056
-10.013711 7.370468 64.926201
-7.716475 -10.292694 97.885689
-12.008930 -11.604737 72.114853
14.205092 0.034804 43.909348
-6.796798 3.988453 40.536411
10.426443 -9.572548 97.143791
-2.266907 -4.069350 20.949829
-1.096901 -6.418374 74.149796
10.071249 -2.779654 9.807041
-13.497324 6.751705 33.426964
-8.880816 -9.954014 68.930611
-0.021533 -0.396567 73.895103
-4.730585 -1.217183 43.588387
-4.558984 -5.076899 28.577993
7.601191 1.551912 45.115250
-12.272957 -5.042465 13.352941
6.330704 -12.500335 96.168030
13.364504 -1.260331 96.947510
5.978406 -3.118753 26.559439
5.684927 -8.226510 63.557644
-16.769045 -3.035462 42.448296
10.334778 -7.053877 50.478428
-11.375965 6.634531 102.141747
14.379055 -1.638371 49.966709
13.023626 0.733132 104.687546
0.425616 -0.816969 72.826523
-4.662296 3.339110 43.153683
-1.188678 -1.752111 17.643696
12.319123 -7.866266 83.085350
8.002047 -12.320694 102.721039
12.016873 3.514857 65.683319
-9.226881 6.455008 101.113998
4.482155 -4.107401 13.365309
3.177383 -9.582835 69.122795
-16.228195 -0.398062 12.880217
15.529168 -2.929014 86.625504
2.261605 -2.956469 14.385080
13.280270 -7.236552 103.606140
-10.516392 -10.918709 81.941650
-13.927913 -2.930946 21.337852
-14.117105 -6.082978 55.520641
1.399800 2.401085 85.591438
8.422762 5.897364 16.575935
5.295031 4.366828 16.029100
15.099355 -0.367157 33.976505
-11.697703 5.793238 22.973959
11.879727 6.138309 19.619492
11.861933 5.236063 59.467728
-4.434124 4.068180 65.153442
-5.018544 -1.029673 16.757643
-13.002096 5.372962 45.669930
5.336684 -2.217225 23.810268
4.072266 1.431176 22.625433
-13.520479 -0.185131 87.707642
-10.592496 -5.184943 18.967060
9.690043 6.474867 94.344688
-13.801672 -4.829381 47.066216
-12.465555 4.411098 43.530277
2.826614 -3.588536 11.997851
-7.834767 4.207603 22.396988
9.393029 7.916591 70.964775
-9.125379 -3.565222 21.274059
-16.299788 0.285785 19.026754
14.282004 -3.348048 87.268150
-14.348639 -0.332437 95.765129
4.426397 -7.396982 62.736332
11.578234 3.892998 73.188477
7.381777 -4.975537 19.795315
-10.422268 -10.677837 62.031017
11.376351 -5.396056 34.325668
10.887888 -10.403819 97.104500
5.635240 1.784079 9.796454
-15.313393 -3.492688 21.457069
12.956256 -9.288510 95.463669
-5.607426 3.355164 25.719536
17.171532 -1.137892 24.397636
-12.132895 3.910193 98.283432
-16.019968 -5.546358 75.180534
-13.288781 -3.800035 66.049950
-6.801130 6.474136 52.440273
16.609152 -2.127042 16.427412
11.065464 0.133131 54.423203
3.271871 -3.401462 12.114332
4.997519 2.606726 47.655830
-2.144117 -1.001723 35.372417
5.836644 2.306074 57.033440
-1.047215 -5.905137 75.841339
-6.976542 7.260762 84.536827
4.170640 -5.669436 8.906983
-11.141953 5.396870 36.089161
-6.442604 -11.976352 88.893478
-6.404242 6.566575 47.367088
6.787238 -5.544628 24.147701
-8.162837 9.505488 59.563774
-0.334130 1.414522 79.605797
8.088285 -9.908901 58.849075
10.545502 3.818954 71.748352
-14.027631 -4.937085 106.090645
10.733492 5.258044 53.347954
-15.319262 -2.952514 87.121094
-12.836092 -5.897345 7.006727
6.457159 -12.785156 71.794899
15.014133 -9.457907 70.632858
10.106513 5.218055 48.130680
2.743548 0.044423 66.581421
11.807940 -8.233489 55.548443
13.593467 1.447011 93.837822
-12.953250 -10.905747 88.870796
7.844099 -12.592776 101.830162
12.329598 0.637637 108.157265
-15.897118 -6.046340 99.364746
-11.075369 -8.039757 106.649002
-4.290078 0.239054 7.220068
-5.360652 5.847339 104.877434
-3.924965 -6.842722 43.266651
15.784177 0.974564 45.842098
7.759982 -12.473224 85.212654
-15.501739 3.901820 32.145298
12.279189 7.012665 60.342220
12.727251 1.655727 66.528015
15.347609 -0.723223 39.325268
9.429010 4.995294 42.548115
-17.062054 1.930735 16.463104
2.084851 -0.035343 56.176086
7.253828 6.695383 51.051765
-7.817504 -4.138542 41.300587
-12.158681 -2.801540 107.729782
-9.870115 7.970070 75.678535
6.560263 9.432688 97.495247
1.867794 -12.286307 94.298950
-7.374635 2.061115 12.861165
-19.049160 -1.974506 19.417345
-13.485652 3.800519 60.166344
5.546942 2.241810 59.642212
12.462962 -5.498667 15.381739
-15.137907 1.177593 19.675344
-7.274474 7.062147 41.828892
-12.116518 6.240987 52.733391
-11.442095 -11.472922 82.220093
12.951977 -10.320333 73.791611
13.075308 2.970815 107.724342
-6.558139 7.795145 72.259605
2.847529 -5.789857 59.707714
-15.186190 6.556942 36.632408
12.855518 6.460373 10.598025
8.749699 -10.849889 88.812546
6.323646 9.426299 83.507957
-5.408054 -13.878203 79.258057
-14.390624 -2.604197 13.051469
12.328543 -6.419055 31.285908
-11.809340 5.373881 24.504438
4.737045 -2.699823 29.504387
10.350935 7.194869 80.125122
14.324001 5.204312 43.310696
-10.294474 4.588342 107.348686
2.605269 -3.221033 50.691662
-8.247643 -10.061644 107.713737
-13.459624 3.397493 92.489014
9.341789 4.889802 12.577183
2.574100 1.168391 12.982619
8.381756 7.036731 69.778732
5.828519 3.724564 64.678177
-18.164778 4.850033 16.528364
6.348430 -10.854893 100.876419
-14.603013 -2.475052 63.315063
-5.811768 -2.359024 43.215061
0.525924 -1.949549 11.487583
8.096940 -10.527245 97.789497
-12.117964 2.083682 43.997238
-6.580966 6.191223 51.945175
13.206879 0.459212 80.872543
3.431903 2.952785 76.336166
-4.490323 -4.500430 54.430458
-14.532002 -6.043304 89.528595
-8.144636 -8.714606 54.932423
-15.518110 -2.510361 26.495260
16.695927 -6.632648 84.321625
-6.151551 3.435548 30.627510
4.421856 1.841726 44.790745
0.379689 -8.684716 85.710037
-9.814449 -10.759653 104.870285
-0.528850 3.050635 80.776909
-5.314651 6.728166 86.228149
5.602124 2.342089 26.836769
8.112386 -4.877983 27.177622
5.460447 3.427596 45.721626
9.195533 7.678910 54.202423
8.710318 8.917473 52.363682
2.503600 -5.294521 17.468769
3.041884 -12.917532 95.643967
-3.271313 -9.698957 83.508537
11.832302 -2.849189 63.242134
0.939788 -4.617675 74.943703
-14.899784 -3.652574 66.061714
-6.275433 3.656632 21.427879
0.333362 5.278923 103.182320
-1.167042 6.122711 108.559113
13.005191 -2.897510 98.817398
9.855201 4.216600 105.326622
9.045229 8.722879 89.570221
-12.904200 -6.209123 53.762554
0.662038 -12.937813 104.373505
-14.869238 -2.214753 53.808468
-3.597003 -5.762508 19.059252
-3.614958 -3.910782 9.430074
-20.622604 -0.457941 7.815171
11.819086 -4.259073 27.758739
-7.188348 6.723419 88.386917
-12.665335 -4.208083 51.399406
12.992493 7.389584 38.589149
4.670111 7.799615 102.433495
-4.393715 -3.755957 23.037323
-2.103030 10.045995 92.164429
-2.461237 -4.617161 23.027897
16.123243 -8.857511 85.398438
9.313074 2.768996 68.626839
0.913811 -3.973752 75.366180
-11.469818 -10.131622 62.363670
16.583044 3.303374 91.646584
-7.136367 6.099541 30.637491
-10.496896 2.956102 46.055935
-5.015656 -6.276410 42.160172
0.369455 -7.575019 82.378464
12.904351 4.878390 34.750114
-12.540667 -6.184255 41.402985
6.773933 -4.182558 32.942757
16.755291 -0.728234 24.844315
-15.420615 -6.076032 87.155617
-12.709705 0.975804 67.031113
-12.028045 1.817723 75.952652
13.406806 1.301529 73.021141
1.602115 4.645029 110.681107
-14.414124 -3.508672 34.302551
-4.150665 2.480104 59.823822
17.034897 -1.032197 17.907246
-12.916560 -0.872285 91.601135
15.547566 -6.422701 101.125633
-11.477873 5.233597 43.515308
8.889564 9.320339 90.939720
13.047699 -6.560007 59.053955
-3.111759 -7.296809 54.687645
8.818439 5.412232 59.963146
-6.101207 3.752142 22.389221
-9.282863 5.351168 49.734112
-3.883244 2.190792 34.272610
10.302697 8.054810 65.822296
-14.877781 -4.743547 64.909592
13.712589 6.608373 10.937799
-13.500387 2.206545 43.390930
13.563310 0.259621 105.455315
-11.571657 -9.823099 105.911354
-9.871428 4.435109 61.868187
3.731617 3.603255 108.436523
-3.031015 -1.716050 38.142658
5.991571 3.370056 33.597557
-10.668724 -12.308769 105.246483
14.028047 -2.259395 47.004940
4.311467 -4.092318 39.449368
12.853258 -6.804963 74.354172
-9.150242 3.223942 104.698524
-9.779958 -4.903217 18.390804
-14.697296 -0.582578 83.828484
12.188239 6.490038 84.511200
14.176038 -3.248860 36.284786
-12.442820 -0.012850 60.689827
-6.186564 -10.890456 74.407463
-11.594121 -12.125048 78.457878
-10.045700 -8.853176 48.719307
-11.176459 7.248379 64.185112
9.194913 -5.461824 14.570563
13.751925 -0.224336 72.497871
1.550371 -0.703889 22.048435
12.971903 -2.445756 64.140190
-4.087257 0.037162 21.177370
-4.475969 -9.483423 77.484863
13.599113 -6.043653 102.562798
-4.974778 -7.291826 53.583168
-3.773082 -11.372355 84.023361
12.537980 4.693460 76.472679
4.749979 -1.940141 51.430355
-11.149287 4.089693 108.352913
-15.375850 -2.853426 90.530716
-9.284063 -11.582409 103.820763
6.581502 5.049120 70.121689
-9.164463 7.324890 14.327828
-10.690038 -6.139880 24.921988
-14.766259 -4.855966 104.060318
12.895951 -7.279915 72.574677
-11.656031 5.354018 46.224579
-2.456019 8.249597 93.884529
-6.261735 -5.227633 52.137043
-10.707666 5.184036 108.412491
13.143340 -6.863175 56.804447
-4.795033 8.164554 85.472778
0.524880 -2.062246 76.595154
-11.635098 1.258232 103.312660
4.177212 -4.558390 13.151005
1.724358 -5.001942 71.146561
-11.733231 4.812212 97.797585
-13.158430 -3.788784 48.133507
-10.327488 7.561718 22.313477
-16.539045 2.352805 19.872038
-15.450395 -4.902980 73.356781
-13.982788 -5.604700 99.693596
-19.608044 2.212636 5.815621
2.631742 -4.998735 11.727601
-13.121741 -7.628602 41.623322
-8.912214 -5.676048 17.656269
-14.512472 -1.416646 70.766052
-8.107018 -11.604353 99.642189
-16.260262 -3.879891 18.800863
-11.897788 2.872608 44.142681
-11.501334 7.806441 36.925423
15.762804 -6.926233 76.456329
14.676868 -0.562134 69.012802
2.857098 -2.181091 26.280613
2.426231 -2.981177 75.323936
6.115855 3.518518 25.218782
-13.111101 -4.677957 104.876411
-8.898350 -8.460989 44.572624
-17.625284 4.905230 16.961401
7.409388 4.735615 106.705734
10.465880 5.120929 7.275698
-11.499866 2.737183 58.751209
13.525687 0.405754 81.876129
-3.001605 -0.542372 35.719524
-4.401198 3.621395 64.984108
1.241640 -1.614861 72.881241
-10.020062 -4.688979 11.458996
12.749332 -5.309066 46.626358
9.826659 7.875776 68.644089
8.387900 7.639082 78.097511
-3.364314 -0.107558 29.511473
12.086436 -3.659259 101.048782
2.991363 -3.717948 8.593917
-9.335590 4.132878 46.512138
11.613847 -8.257103 55.365635
14.557146 -0.257876 87.406250
-4.561386 -3.408340 12.728427
-3.766883 5.829517 108.286224
5.613927 -13.986857 105.145523
-15.370648 -4.636162 80.438431
2.029900 -0.114116 13.789238
8.319324 -10.506322 104.996300
-9.859912 -6.019118 18.022255
12.009781 5.183435 54.354057
2.912538 3.399545 75.279236
-12.398070 -2.802649 14.878007
-8.074098 3.514786 109.471848
2.634978 -14.443489 102.517624
-5.391261 6.332520 72.957489
12.714522 -10.944668 79.227890
3.102049 -0.145754 55.085155
-17.752050 1.282655 33.638023
-1.020412 -4.067475 63.706570
6.618664 -4.912545 41.399200
13.817758 -1.155340 47.558315
-15.422390 -3.460922 39.820827
15.143122 -0.043949 3.619920
-3.655697 -0.581159 44.448631
1.894425 -1.224467 26.375881
13.042329 -6.502950 33.726814
-6.623346 3.911749 106.244629
-15.735613 -4.843964 98.167877
2.870703 -11.483871 69.420601
-11.686731 7.179382 67.064079
-2.156538 -12.527221 91.327980
-15.916452 1.678320 14.108444
-4.585772 -0.063879 13.801453
12.284936 -4.838381 13.271341
13.542240 -5.190663 79.235573
2.373520 -1.998803 13.864260
-7.139320 6.705102 33.391750
-3.090469 -2.658870 59.052990
-11.203759 -11.206716 87.429245
-11.518082 7.312205 22.612682
-14.363206 -3.045110 88.783012
-15.824818 -2.208156 22.959934
-6.440904 5.032536 107.394058
-10.776165 4.006691 103.452797
-4.158289 2.824049 50.779354
-3.114284 -13.221102 105.810616
1.200162 8.034185 88.955101
-13.311285 8.231679 16.888021
15.776114 0.524866 26.044493
-11.078182 -3.666023 26.957218
6.544288 -5.115999 10.425945
-5.459700 3.288759 45.894337
-10.313445 -7.098322 11.750038
-14.504873 -6.816239 83.697128
14.065705 -5.214564 102.491577
-6.837847 2.736485 11.613826
-13.336890 -4.818209 41.687141
17.000546 -4.100546 70.754402
7.234362 4.416333 45.697716
-5.506782 -12.895695 83.346909
-9.434039 6.024689 56.691208
1.878771 -0.430008 15.931820
10.943110 5.287619 73.824059
10.709723 -9.110036 59.667763
2.643267 -7.987751 63.863808
-17.432842 -9.723146 7.544814
11.356044 2.143961 63.026752
-11.036706 -2.907281 29.386551
14.030548 -0.819896 54.371536
4.770322 -13.123688 91.591362
-2.966614 3.275769 58.735188
7.353304 -4.974909 33.178829
-1.691534 0.384923 14.413536
-9.996958 5.900742 93.662209
10.359485 8.501114 91.163376
0.325690 -14.066494 100.546997
-6.894505 -10.378095 65.020180
12.946386 -0.135595 53.587379
8.759296 7.959845 95.000435
7.845136 -13.367612 101.084854
-15.169327 -7.454843 78.007172
1.836669 3.147572 83.463623
10.025703 6.567752 29.839092
16.393894 1.900100 9.294950
13.757999 -5.029620 16.087639
-14.211052 -3.199853 42.407612
10.756461 5.062744 66.066895
-13.392072 -0.826855 66.995018
-16.014999 -0.096054 43.938297
-7.610653 4.160259 106.267776
-11.691033 0.734051 62.431889
-9.890269 -10.595891 93.029762
12.859915 6.676592 21.514139
3.017049 -9.505468 60.359627
-0.781785 8.467332 87.567490
-13.740248 3.779413 57.036114
1.063067 -5.988594 76.916016
-16.593561 1.171399 29.428375
4.096033 -10.014825 69.407982
-8.723222 8.906571 69.962761
-13.218891 5.598489 25.814739
2.732279 1.934239 23.225130
-13.972587 -0.434990 40.433052
14.356255 3.397744 85.758163
8.993514 5.563621 104.093567
-1.683375 -4.484420 72.682014
8.893261 3.643015 106.978279
17.680246 2.539600 22.425621
-7.705350 -13.654809 102.834503
12.406778 -5.141743 12.166793
-11.532669 3.513684 75.725853
2.753522 4.941803 84.263802
4.018491 10.990277 91.377602
-2.593789 0.726077 48.549324
3.012223 -2.053009 55.903343
14.254674 -0.502418 53.899029
-3.338334 -15.419473 102.269424
8.703771 8.211570 92.264160
-15.251820 -1.750926 77.258011
-16.421595 0.914814 12.105570
-17.943583 3.609891 25.426329
9.588816 -8.953677 45.807716
5.405122 -14.239041 104.763634
-2.340736 -0.273041 53.947628
14.974355 -4.056725 12.484136
-15.462256 1.964069 27.044672
-8.746673 -13.095303 72.149048
11.070733 -4.596424 11.634866
0.876776 0.392055 11.025782
8.567252 4.407513 39.273163
14.465908 -6.852860 102.976830
4.605420 -3.851019 22.173260
12.778090 -0.522913 63.989094
0.640920 -7.346882 77.050941
0.383826 -11.440108 91.372093
1.100989 4.481688 76.088417
-4.709445 2.858756 34.161446
12.725053 -6.314612 39.749725
2.377944 -8.580750 89.518066
11.478711 6.747976 63.782990
16.566542 -0.451750 79.535728
10.204094 7.378897 94.995491
3.281772 -9.808764 72.107132
16.604139 -9.580755 5.474337
15.992306 2.210456 34.906559
5.303351 -3.332074 30.410625
-14.158596 -2.956967 106.001678
11.880262 7.906669 11.193191
14.462858 -0.812501 81.958603
7.205447 5.385969 106.813126
-16.268496 -2.699468 8.779387
-1.319548 -9.539182 84.796921
1.296527 -10.594757 88.797577
-14.097702 -4.297335 30.615383
-4.586047 -8.621046 85.581360
-17.640480 -0.308028 88.116684
-13.789605 -0.041037 96.512619
-5.730792 11.113878 97.513931
-16.761013 3.765262 17.505692
-17.902836 0.194471 20.097582
12.292869 -10.415204 70.367302
-14.488630 0.899613 77.269394
-9.582107 -11.071095 103.813179
-12.865566 -6.062350 31.730955
9.260156 8.574758 39.463966
-0.925525 7.816424 103.577194
-12.658938 -10.341040 87.011040
-15.128119 5.308294 31.222820
-0.059125 6.987859 86.928123
0.334409 -7.177607 84.033920
-0.713815 10.432844 96.488701
5.318454 -11.285941 92.302605
3.299959 -8.137959 62.607227
-15.686810 -1.455917 45.357922
5.699595 -2.656787 17.841059
-7.607296 -7.800947 46.229355
-13.305182 6.909607 15.618879
-5.231288 1.668027 24.410990
5.430696 -8.300161 76.854897
3.242179 -9.700473 75.051773
7.392275 -12.801725 69.504761
5.297821 -13.746373 105.995285
-7.112718 -13.241685 68.145004
-15.384163 3.100410 23.648182
15.529828 7.138368 25.118950
-1.351800 -11.790733 104.306122
-2.344222 -0.549692 26.510635
-5.105484 4.432187 30.926134
-15.017396 -0.099798 49.654457
-13.809374 -5.964644 94.304916
-4.794238 -12.657578 103.507614
16.871725 2.413770 15.566662
14.399223 -3.673302 50.665081
-13.989852 -9.824461 91.047943
6.713844 -13.314175 68.701950
13.412999 -9.160006 104.126450
3.746674 -0.207269 54.492828
-13.888654 -3.024944 68.147179
-7.591019 -7.833481 44.336796
-1.501557 -2.081264 80.821426
8.223076 -14.025007 100.088699
-1.025852 0.024467 71.175232
12.739783 -7.977274 66.369179
-13.378198 -0.547653 62.188587
-13.821034 5.385003 27.379669
-9.290203 3.639490 47.399261
-16.187717 -2.691213 19.513535
0.835564 -1.977405 79.321739
-14.240038 1.057179 66.688232
12.615793 -6.039120 37.350876
-11.647439 -6.867593 45.517761
-4.168604 2.646456 50.435822
-5.853034 6.133710 75.520187
-1.244082 -1.111534 74.929611
12.347497 4.549334 96.783409
-8.094294 1.585263 36.409191
2.467607 -11.467392 91.722954
13.943209 -3.002853 9.396678
15.731159 2.030292 34.016834
-12.686324 -5.262436 26.692760
-8.666850 -9.312184 48.178448
13.797379 1.166018 107.776817
14.375587 -10.560495 86.488724
-7.438523 4.115480 30.007975
16.049942 -2.258405 11.270735
-13.169910 -2.601529 18.186411
14.655247 -7.592566 82.746880
-3.863630 -3.262272 29.343769
9.762258 6.674797 54.386475
14.001067 5.775879 8.607959
-11.788815 -5.824305 20.485985
2.212847 6.512863 82.757195
8.036899 -12.700272 66.525352
-7.492692 6.835505 97.475090
14.353065 1.154479 99.435310
-13.244816 -3.674114 22.429905
5.033488 9.014322 86.599419
15.970096 -6.837874 86.841171
3.607970 3.205546 60.894703
-14.815052 0.571959 106.470703
11.037935 7.793810 94.306229
3.385309 -10.290120 95.168365
-16.450171 -3.811670 64.387970
14.208239 2.244949 62.346832
-6.048019 1.430694 29.993502
-14.478767 -3.588960 103.211754
15.191658 -8.129294 85.773216
-8.246805 5.784757 32.670124
-13.960447 -4.323715 24.593908
9.298993 1.656236 81.660454
-8.148790 -13.577236 84.771248
-7.281533 7.883430 60.491970
-2.251016 -12.947384 103.640747
14.726707 -11.041929 64.647797
14.050398 0.155795 16.527319
-11.500789 -6.577829 105.576431
2.459431 8.574229 96.453255
14.361943 -8.998999 87.109787
0.421852 -0.014774 20.142303
-2.238387 6.031367 110.062225
10.442532 4.033772 94.748688
5.448712 2.999678 80.670204
7.630516 5.980266 63.068253
-11.005795 8.531340 29.119146
15.730121 1.834127 22.442698
-11.293479 3.477522 9.614765
-5.477506 4.027296 45.290619
-5.880740 9.658101 87.972717
8.247781 6.229376 32.347626
13.285291 -9.312671 68.228035
-6.166924 -10.077385 57.726658
-12.762365 -1.438817 86.005249
-6.339358 -10.460632 72.753044
2.921940 -4.823296 59.927456
13.534138 -5.465847 92.913467
-13.526972 -6.483381 22.089766
6.122440 3.841014 35.760288
-5.302306 -3.701592 35.246792
-9.404346 -11.712283 104.597481
9.951623 5.860258 16.016661
9.534309 5.658161 107.868874
15.543460 1.062651 16.683849
-14.786047 -1.005916 94.970169
16.878012 5.375289 26.539803
4.185532 -3.904253 42.207031
12.550567 -6.500566 37.758896
11.978631 -11.143459 101.264313
4.752681 2.802665 63.356827
-12.542093 -8.270511 106.237915
4.001694 2.030826 20.343792
-13.894603 0.396582 96.105560
7.071998 8.831804 83.425690
-11.568401 5.090833 69.597687
2.787423 1.028217 70.025017
10.020604 -11.227530 83.569191
15.684589 2.458873 12.326668
17.644835 -3.957250 16.897144
-10.964821 -11.566081 81.846191
-15.953354 -6.738856 80.763603
-2.852595 -8.728826 74.188896
1.370312 -4.688730 7.543007
-14.178542 -3.070874 43.545109
12.349620 -5.263349 50.060802
-14.612068 -4.751492 86.108650
-9.943254 -10.909926 51.533161
-0.264683 0.190540 78.423248
7.531906 7.729514 54.036011
-9.842757 9.336445 91.154419
14.815314 -2.459371 60.923042
1.619757 6.368985 84.537331
9.483337 -11.323469 103.612801
-4.182080 -12.992929 102.010185
7.252316 4.332720 107.822762
-12.953015 -10.589700 72.070518
-13.307568 -0.132737 52.965000
-14.749866 0.275970 19.255392
-8.701560 8.168250 83.870857
-15.742239 -4.550715 61.084023
-12.701694 1.521558 107.274940
-8.821644 -11.248503 81.640739
-7.580870 4.937981 32.400692
-12.709852 -9.496016 84.783043
14.778883 -4.286967 26.897999
-15.236667 5.777154 6.264865
2.480666 -3.100160 77.668968
1.910578 -1.798144 39.151924
-12.540522 -0.244470 52.467751
14.815598 5.157997 19.084471
-7.859941 4.966758 14.039453
2.680130 -0.667077 20.028337
11.645448 -12.139237 64.449608
-12.410882 -7.675927 53.616833
12.541377 8.785668 32.830528
0.648535 -2.224785 14.205518
9.395550 5.409408 50.162636
-16.058298 -6.106342 63.303226
15.889853 -3.032592 6.527734
11.454588 -8.223459 67.485229
14.803045 -0.817472 87.054688
-11.860302 0.604243 105.958290
-5.625813 -7.357469 48.906254
-7.426973 -8.298358 48.681931
-9.875874 -4.823007 18.991762
2.026510 -8.481701 74.155067
4.285675 3.046906 66.121300
14.028757 0.471597 54.171314
-13.378753 1.055063 90.792763
6.306041 2.579046 19.407429
10.045514 -10.393521 62.705566
-15.479985 -7.363255 78.251984
13.373614 1.339517 9.460198
9.245397 -11.375191 104.293510
-3.755684 1.385071 29.527060
-1.563572 -15.447467 105.036201
6.159443 -0.968621 45.114414
-13.736838 -10.013188 81.910110
-13.677680 -3.328823 23.242201
-15.644959 1.426818 86.061783
4.856461 -9.929085 64.426666
-4.478041 1.669769 9.915923
0.097341 -13.305578 105.975899
-12.167996 -8.765906 6.960920
-1.634235 0.020290 11.261500
15.992065 -3.566324 45.085815
18.079115 -1.507663 27.679863
1.761888 -11.636366 100.223938
-5.775353 -6.504903 45.480453
5.315778 -6.662942 50.938889
11.200278 7.438733 34.622360
-8.130324 -8.175603 52.804039
8.043499 3.545008 57.310913
14.034147 3.000624 26.168198
13.310795 7.735581 21.707537
-6.233724 1.138280 44.208244
-6.556699 -11.948031 79.066628
-14.550085 3.227767 89.350540
2.043634 9.442799 100.243111
15.742060 1.163646 27.383514
9.985807 5.629222 7.120473
-18.595266 0.053788 28.572283
-4.839525 1.201336 25.174126
13.246691 4.970533 39.407970
11.254807 -9.247208 92.318001
-14.251328 -0.157114 87.274841
-5.064284 -10.982555 81.714752
3.653363 -11.999213 92.324806
8.624499 -7.991104 37.948250
-3.296765 4.768306 111.371704
-9.962989 5.805353 58.579174
-14.921354 -6.060040 7.807743
-11.112224 -5.253437 25.692738
13.583316 -4.293280 8.283941
13.007551 6.217232 19.321671
-13.746396 -4.553766 37.502857
5.644481 -6.970319 51.416336
-0.591450 -5.480245 62.430134
-2.117561 -1.920437 8.596363
17.076578 4.579265 22.627167
3.915461 -10.581456 85.298637
-2.602270 -7.451804 61.555283
-1.983285 -3.615482 37.217899
-3.026703 -13.654388 96.310081
0.480113 -3.502778 77.707230
-14.172738 3.086877 40.182270
13.945369 -6.550757 35.755962
-12.884604 4.735481 58.205620
-13.730635 -6.525959 105.671455
14.335042 -6.699077 62.436256
8.688322 6.005079 63.874939
15.681966 -2.577986 90.685860
-8.460985 -5.481507 104.494034
-3.959677 1.107125 48.743793
0.512674 -12.636338 105.310608
-5.808478 6.877983 58.346977
-14.000375 -8.783267 44.402046
0.761470 -7.588448 77.829018
4.014629 1.883243 41.960697
5.107729 5.242256 83.958115
-12.309248 -10.422636 66.984917
14.397833 1.368854 38.185772
12.280302 4.523313 58.595192
12.403301 -11.398779 71.461998
-5.485877 -11.554127 78.119537
-3.518910 -0.785829 51.460751
5.450888 -3.362193 29.169558
-1.568427 -5.374004 69.915146
1.577998 3.279249 83.243851
-12.242985 -8.662473 52.510731
-2.118146 -3.439759 60.854156
-4.896362 2.678048 107.353874
-8.585469 -10.740594 66.171394
-2.264873 -0.844475 18.905563
1.084905 -1.045204 12.093289
0.215002 -1.597079 78.215065
-12.116786 -2.456005 60.656982
-11.605235 -2.391236 78.210266
-3.752920 2.264401 32.827255
-5.399649 -3.310412 13.544777
-11.754858 -0.465955 62.833725
-2.547372 -12.938371 100.556351
-1.616091 -9.687177 80.657021
12.196348 -0.634936 73.159103
3.567354 -0.771991 63.251591
2.675459 -6.952632 81.762680
-10.435869 6.179679 77.552055
11.373974 -11.232764 83.468018
-6.268940 5.625651 44.096848
-5.173176 -5.789870 21.648767
13.578988 7.985541 21.597929
9.030460 4.930141 20.158850
15.864389 0.646256 32.848141
-13.311045 -9.491456 75.270294
-7.530282 -10.510227 96.114693
-10.397648 6.087432 13.988537
-5.172591 -0.995752 53.984928
-15.285793 -5.787308 72.061218
14.497697 -8.134352 55.553806
16.071358 5.462819 9.503801
1.470121 -1.839265 81.949425
-3.189129 -2.509372 37.164021
-16.007206 -2.596235 34.964546
9.969885 -12.909920 90.452179
-4.889671 -3.924206 53.273647
-13.331811 1.055004 87.440323
4.105693 -12.207169 100.959648
-9.847911 5.798124 65.917374
2.051427 -4.041019 65.293762
15.446883 -3.322341 14.233401
9.492379 -7.473178 34.019703
8.765277 9.709211 88.609062
-5.457972 -3.272955 26.995634
-9.061878 -6.905482 44.883072
8.278975 -8.597866 56.394844
5.948921 -11.582973 80.674232
16.706804 2.360906 31.952471
12.660501 2.759723 53.143562
0.787592 -3.387044 72.532265
14.342423 1.113915 14.223976
12.091434 3.775184 71.752762
-14.528066 -5.097815 18.085651
0.207227 -11.942378 84.605316
11.708975 -10.751703 71.480316
-1.965828 -0.748766 66.151489
-7.653953 6.916220 20.649019
6.861966 -14.909834 107.220177
-5.590418 1.095979 29.179073
-3.083566 2.430304 72.509880
-12.078012 1.547413 45.703671
5.480916 4.611118 72.351624
-2.103868 5.846154 77.997208
12.339672 1.244874 67.168274
10.484583 6.700720 59.759510
7.905327 7.578570 73.701149
-9.549080 0.369509 5.345901
6.439777 10.409820 87.181793
1.151344 -5.118191 63.172054
-12.501067 -8.469503 63.026646
-12.455153 6.062059 36.222832
8.313053 4.724488 27.254255
-8.633265 5.239385 34.911705
-4.516515 6.091182 105.730835
-8.924250 7.670225 67.886528
12.213722 -1.786722 17.066719
4.092857 -4.031413 25.470139
9.242142 -6.775275 22.285740
-6.278341 -4.546504 31.393860
-6.421742 5.021399 67.019897
-14.844175 3.014771 24.213247
8.473506 -11.668495 100.575630
-8.097157 7.795271 93.914963
12.904472 1.570971 93.028358
14.962508 -5.932123 58.447441
-7.326935 -6.889686 50.211243
2.621332 -1.219864 19.469643
7.265656 -3.890732 10.887580
1.023694 -5.933870 86.103203
10.175801 7.251283 41.930573
10.356127 7.088633 86.939713
-15.583010 1.310225 37.659618
2.279306 -11.491184 83.312057
10.078597 4.592779 98.323494
-12.256507 -10.740353 104.897377
13.233947 5.465387 10.207614
-3.737550 -3.952501 26.986837
-5.593820 0.806840 30.411560
-17.279781 4.528176 14.393517
2.294656 2.598965 15.643747
-4.308795 0.876128 40.641590
-15.044795 0.500367 10.721129
-13.936678 -2.371469 60.588440
-1.381231 -14.480862 103.311813
3.292810 7.048652 87.395859
13.477661 -2.051170 36.887154
17.883984 3.533178 20.167583
-8.742945 6.104114 35.760376
-11.752872 -8.838522 79.292870
10.804587 7.307154 79.107124
-11.788149 4.394424 87.836197
1.778099 -2.263545 7.834910
13.784335 4.159544 96.446220
-2.351945 2.018836 44.792274
11.709236 6.605647 80.522957
-13.625293 -1.424979 103.205750
-9.602558 -10.324036 97.062744
-10.460645 2.165870 64.077950
7.707730 2.862816 46.836006
-15.182510 1.105414 37.562305
-8.401562 4.643674 27.488071
-13.250069 -10.255230 74.505989
-16.857954 -1.473698 90.669807
-2.420316 6.409265 103.490585
-4.126692 -0.118185 9.259093
-15.560698 2.322671 38.153648
11.858723 -5.919867 27.991156
-15.384272 -2.189962 13.007107
7.818558 5.636179 27.294296
8.458380 7.396168 105.354050
-13.001905 -3.758435 27.121483
2.638770 -13.799948 95.725227
3.560135 2.129284 74.208298
-4.224067 -1.041951 40.879723
12.734309 -6.516194 105.415291
0.426602 -14.955109 104.548203
-0.635606 -0.547897 11.798027
3.888266 -3.478864 64.200737
5.897203 8.356360 86.216286
-12.643030 -1.756704 64.948776
6.050175 -3.161632 15.523176
16.282780 -2.941052 10.332940
9.728165 6.094942 50.966923
10.353644 3.216293 108.622719
-3.492270 2.503458 81.354080
13.532446 -9.950421 89.375847
-3.585149 5.997135 48.510818
-11.131171 -7.620028 57.603817
9.502761 -7.642009 29.926464
-15.830786 3.306668 19.657309
-13.668170 -4.886954 11.593060
-13.245456 4.041556 89.587685
-1.000982 8.054242 101.668617
10.075006 -10.445221 90.354973
-15.686846 0.933206 46.395531
-10.687632 5.362553 87.805054
15.506135 7.068886 10.089106
2.825378 2.760905 20.485529
11.950237 -9.397000 73.749886
4.873005 -4.468215 43.738869
4.986105 -8.057343 73.035927
13.998754 -0.889214 54.691162
14.066006 -3.561635 99.616562
3.005589 -4.308255 19.440552
13.451785 -4.068170 38.936893
4.317837 1.700378 66.333191
14.696087 3.684908 18.832565
-15.812164 -4.458982 78.005760
8.183249 -10.285756 84.107849
-14.138314 -0.411475 100.091255
3.246336 -0.720223 43.489674
-10.650880 -11.016189 71.993553
7.935234 5.131352 33.446838
-7.578789 5.823185 60.998638
15.476821 -7.501014 34.213993
-7.898669 -8.885376 47.156296
-9.529077 6.785491 64.285072
2.858213 2.226751 74.989769
7.507109 7.603131 104.170883
10.596251 -10.665944 107.874947
15.809681 -3.540771 96.249077
-9.562585 -6.849686 35.401768
4.578478 -2.935841 27.318691
-5.505809 -8.042727 57.302681
-6.285275 4.604771 60.438263
-9.038118 -10.869235 58.427605
7.712283 -12.468604 81.988243
-8.839969 6.169132 53.897125
13.958430 -7.884330 77.494049
-8.249334 2.740936 29.445929
4.365187 -12.543619 99.117249
15.438979 0.578129 19.241806
4.393622 2.421441 16.050642
-14.001683 6.470405 17.016109
-2.570418 9.476781 97.608803
-0.394023 -8.126288 91.046432
-5.183193 -9.296004 83.924377
-11.996747 -5.852035 48.883224
-1.616823 -3.070117 78.903282
-15.716313 -2.254762 96.456627
18.066851 -4.109006 14.406004
15.839643 -2.332187 31.756994
-5.253405 2.015463 26.135025
-1.969151 -0.157588 27.326319
-2.971164 0.117594 54.504585
9.153485 8.868721 88.310272
15.061276 -1.390774 41.788364
3.753131 0.640077 61.340988
8.602981 -7.885587 56.374683
9.128069 -10.261676 85.693748
0.012887 8.628874 92.138184
-13.263201 0.973537 104.488617
-0.144747 6.071730 106.595444
2.877229 1.047593 54.307453
-15.959211 -0.848959 28.825279
-12.643195 1.880782 83.956192
-6.432374 -10.288379 71.375504
-4.153677 3.525132 73.691460
5.994499 3.745957 44.044693
-1.261632 -3.520639 37.591370
13.043530 -4.668103 20.621038
-10.212423 5.991811 40.849762
-13.021004 -5.613594 58.700062
5.214427 -9.279916 70.395271
6.440603 1.623603 7.824446
-16.281235 -3.249072 52.825703
9.336393 5.755866 44.514133
-15.519117 -1.347754 88.138924
9.643090 5.077841 20.763445
-5.255841 10.175030 86.964691
-11.888790 8.587111 40.957981
-15.912766 -6.195354 82.802574
0.705079 -7.105686 76.991219
7.778326 -5.378712 9.525181
-5.950643 8.756601 81.755463
-8.197542 -6.336726 5.197347
-8.172587 5.054170 48.676640
-12.428335 -5.776381 30.275635
-11.844026 -5.408125 52.102833
12.091641 4.616324 19.307753
0.405082 9.648378 100.560974
-13.878925 5.278172 33.498211
-6.850572 -5.424790 11.868209
-13.905446 -8.337213 76.893517
5.131623 -0.010585 52.842957
-0.990449 2.849048 20.870663
4.388812 -2.955430 58.296619
17.191872 -3.293875 15.813025
-2.954514 -5.893992 65.463676
11.144674 4.517410 23.760513
-8.894732 -7.238455 33.827793
13.822448 -4.475996 70.052094
3.978402 -10.869541 89.740570
-4.765337 -4.958524 8.236689
-0.610577 9.694472 104.425896
14.466766 -8.934799 97.091911
4.798096 1.509277 45.271938
4.560276 1.998956 40.866184
13.125999 2.107917 105.545731
2.560557 2.283167 13.480145
-4.260448 9.927127 99.980347
13.842781 -8.864305 62.113739
8.671310 1.130565 45.220753
-3.624905 -0.628893 52.671501
5.895089 1.105784 37.132946
-17.419283 -0.548467 26.958935
-10.132794 -9.510148 96.162643
-1.367672 9.601477 90.774132
-2.068988 -0.288979 47.685783
8.840828 -11.016503 98.950165
-17.646709 2.782367 5.741323
-16.594765 3.756058 12.885079
-3.740055 -5.408201 21.341507
-10.722496 -9.162156 62.190125
-11.719772 7.522984 26.165075
-1.633477 0.055646 19.590855
-12.235741 -8.470831 104.616257
14.442775 2.012851 67.765457
10.983507 6.419932 13.286229
3.174242 -10.939402 85.638069
-13.343217 -10.513782 91.893272
15.363372 5.086788 14.648520
-7.887675 -11.316472 58.642776
11.495144 6.283812 81.995735
-0.809792 9.588928 93.302429
-10.963770 5.204276 66.704178
-1.415328 -0.317161 11.138404
-4.635846 4.731119 81.007645
6.847076 5.038464 62.683559
-13.736689 -1.253147 97.657715
-0.347850 -1.810163 6.583169
11.496433 -8.191619 99.054626
13.696757 -4.950134 102.929886
-0.712036 -2.141952 23.097940
5.928328 5.202503 65.484558
-5.788346 6.021217 66.709633
14.868922 4.391925 47.326595
-4.031420 4.862642 72.315025
7.502346 4.054409 21.949739
-8.143463 -5.167400 31.179293
-3.707211 6.039058 80.127998
-10.481131 -6.154061 24.230837
13.366635 7.574396 32.879002
4.393633 -8.193176 46.848801
13.763852 6.663213 24.862919
7.162087 6.157385 89.367241
10.437208 5.428767 80.398529
-8.289160 6.818155 58.476940
12.002843 -4.093195 103.863014
6.095009 7.977292 99.417587
14.625721 -0.641024 101.884026
-0.576960 3.033966 85.992981
-4.273427 -1.962146 16.261423
14.524009 -5.309878 59.089016
7.206425 2.853648 7.404594
-13.773255 -2.042965 49.264236
-3.157808 -11.428632 89.625198
-12.087392 -9.763578 87.930931
2.787860 -1.699546 21.277672
14.535215 4.939942 28.207232
11.821733 7.726097 15.301364
-6.793464 6.476729 106.135818
-9.759062 -10.901559 92.259087
1.696702 -2.953259 8.180172
15.742071 -1.041860 15.862389
3.977239 -4.303639 26.305643
2.367004 0.536735 38.505314
7.807127 4.703121 10.584791
4.138907 -8.954902 82.219254
-7.031075 -8.744137 60.160362
-13.019848 -4.144284 56.215309
-3.685513 0.893124 20.846544
-11.896322 7.116810 47.475945
4.117243 -12.714458 98.095047
0.910091 -4.036880 60.149010
-6.223862 -4.116449 22.447538
-4.870879 6.788678 78.319267
-0.087738 5.150772 106.506798
8.070906 5.657698 44.966030
16.094391 -3.277752 38.195236
12.462003 -1.126150 60.178459
-13.579432 -6.331940 102.268288
8.967083 -9.503884 58.962261
-1.735303 -3.016015 19.762617
-10.784660 6.398728 24.267525
-0.313993 -5.974812 78.847435
-2.570833 -4.965250 26.718685
5.663423 -12.809851 95.644569
13.116131 -6.678258 28.526165
13.331433 -6.785322 81.405830
-2.287539 -1.822978 46.457920
-9.881613 -5.716266 25.181959
-0.133835 -4.534015 76.060722
-8.419394 4.662041 34.401474
14.012730 -6.334785 69.672951
-13.135181 5.429063 6.687118
-13.283902 -3.299999 10.259094
-9.669455 6.504643 54.766224
13.321797 -6.738008 67.725731
15.117413 -2.733424 100.359100
-11.460011 2.840599 99.466774
-16.701540 4.364028 27.434290
7.815589 -9.941895 61.510494
10.703629 2.819954 99.022614
4.705143 -14.416190 104.151054
-8.718213 3.498367 107.883400
-13.552216 -0.868505 67.264572
12.480213 1.763270 108.372978
5.907123 3.488525 51.763138
-0.131278 6.496694 105.901993
-2.663356 -2.919426 17.999058
5.172098 -3.939121 24.946247
16.281767 -0.871547 14.608105
13.707691 -7.140402 28.725231
13.633406 0.460779 90.612663
10.252270 4.557542 19.080641
4.773936 2.631430 16.755831
-15.461007 -1.652000 41.522583
13.610764 -2.279357 66.818878
2.968728 -15.947027 102.440826
3.940199 -3.424721 20.322327
15.434266 -1.011780 86.498123
-15.476080 1.798130 33.787983
8.185104 5.399014 52.715309
0.677951 7.625475 91.800468
-10.614246 -10.080560 98.093483
-9.285151 5.110347 71.712776
-14.316485 -7.177164 36.841476
15.526993 -5.634161 49.274788
4.043470 -14.439636 75.884583
-16.134892 1.376625 43.237175
-16.033730 -5.574693 88.564804
-1.073119 0.217145 16.440887
-11.115641 6.603363 42.339775
-5.405197 2.457648 18.453302
13.895737 -5.991043 64.535309
10.015100 -9.667418 103.156021
-12.010070 -7.236549 47.681953
8.410475 6.677491 28.005251
-15.285680 4.137239 21.883455
-4.641064 -0.837471 16.947956
-15.026027 -1.015364 39.967655
12.923041 -1.376807 104.119583
-3.062281 -1.648908 51.756153
2.655269 -0.654761 67.903778
4.056168 -4.399209 13.783071
4.492859 4.153387 79.289146
-4.813973 -2.463879 37.423615
13.959008 -6.015438 24.308413
-14.203425 -3.695158 31.056871
14.853729 2.518188 24.016033
-3.291426 -4.848342 58.921032
15.136709 4.493366 49.814594
-9.264393 4.836422 52.122849
-0.048459 -1.752873 22.583111
3.989006 -3.674058 53.793056
1.266042 -2.393496 63.262486
-6.126066 -9.732141 66.183990
-10.970353 -6.660605 55.415405
5.279509 -7.197178 64.030098
-2.518435 7.064611 105.018227
5.529587 0.900827 47.737122
7.202004 9.756740 98.174042
0.926752 -11.790369 101.153328
6.401136 -4.929159 13.727970
14.076370 7.624729 44.391521
6.610645 -5.194973 38.257427
-3.668484 -8.896284 68.425346
11.554658 -4.919946 20.618444
4.473691 -2.185478 55.074100
-4.581972 -8.220837 48.276955
8.367393 4.322847 34.298576
-3.509242 6.261914 69.041840
15.882563 -3.407207 55.287220
2.144358 11.551471 89.662483
6.491274 -11.779080 89.597618
15.476089 -1.494742 51.581535
-7.576783 9.017577 58.293705
-13.494370 -1.344650 63.926426
-8.037621 8.241378 98.955284
-2.371063 5.280141 78.517235
-0.902339 8.115000 102.050003
-6.035917 3.901529 48.776554
-7.214504 6.076196 33.036377
4.430488 6.704966 81.022720
-18.117657 1.714448 11.173895
9.652675 -13.088470 85.887352
4.309978 6.640323 80.702446
-15.803435 -3.209720 94.408203
-7.131176 3.688283 28.770807
-0.685540 -6.850829 71.691345
-6.010310 6.175698 57.190479
-2.871259 -11.746972 86.916679
-11.139234 -10.375217 80.261581
-6.498838 5.456258 37.703239
-13.647701 -0.386154 78.668488
13.468592 5.498251 33.710644
-11.081837 2.227729 56.841877
-8.553424 4.657861 80.977951
8.607004 7.228462 101.179184
-12.745036 2.673749 89.649696
6.103717 4.154976 17.180731
9.105275 -9.794748 53.775757
3.694753 -11.807302 103.503090
0.451138 -11.158195 104.196831
-0.268664 -4.943059 74.652336
17.040499 4.066773 22.576815
-4.601069 -2.324477 52.407520
-1.416307 -0.968744 62.830311
-16.771023 -0.934296 26.991095
15.445183 -2.248668 91.379837
10.793512 -9.024928 74.312164
1.974748 -3.082169 62.807053
1.143221 8.646211 101.956367
-6.829256 -10.155246 59.868481
8.918665 7.250529 68.302635
-14.590664 -3.966742 71.177521
-16.604298 5.623384 32.742226
13.425747 1.262020 69.171211
-9.097178 -12.580700 87.595520
-15.489014 4.893379 9.713203
16.383863 2.233792 40.181698
12.190208 6.855672 77.701790
-6.909442 -12.601650 104.386269
8.018682 3.629221 10.290154
12.114162 -11.741843 70.044899
-15.923393 5.637128 13.540039
3.732526 -8.318699 71.066299
-16.154837 -5.887404 97.940231
-1.117668 -0.368209 14.241976
7.727336 3.650715 47.149368
-4.446652 7.615108 83.203094
-7.856321 8.551088 104.663307
13.707886 -3.916153 9.470638
9.065638 6.352262 30.472462
-14.331048 -3.762020 15.472160
-13.101375 -9.007091 95.996147
2.421953 -3.103647 8.308764
8.971170 -11.649240 65.527397
16.355061 -4.526959 41.825523
10.559541 3.649197 70.529671
-5.440424 -1.212584 39.045162
4.881226 2.948904 48.617970
-5.064659 -0.275782 25.981873
3.985609 7.006485 105.408646
5.914238 3.830265 49.476757
-12.699198 -2.933856 66.150314
-2.746972 -0.419965 9.962519
7.520490 -5.101269 25.452541
-14.777259 3.296729 34.262398
12.219985 6.477868 58.493973
8.529011 8.109072 39.510193
12.260335 -5.820800 32.855991
3.917472 -5.775005 31.345268
-15.948270 -0.052840 15.554555
-5.660745 -1.892740 10.587268
12.064388 -6.835472 97.883163
5.741288 -3.210429 23.723179
-10.421992 4.465707 73.323395
15.472648 -2.268598 30.440813
3.151841 -2.570530 15.673072
3.345126 -3.513784 26.613079
13.643235 -4.262982 52.325130
6.726263 -8.986426 52.266163
-10.853268 -11.293533 72.798012
7.369659 -5.566953 36.394146
-13.986462 0.503695 87.715561
-15.355982 -3.939272 90.237839
-8.350216 4.278027 45.183025
16.230715 -5.440396 26.926403
13.023900 5.012987 74.183945
-13.584847 0.475988 70.417442
-6.029129 5.227968 17.669638
-7.219726 5.378860 15.437441
-12.576571 -13.330176 74.984901
-12.087678 -3.309134 42.783398
12.127579 4.110603 62.037231
-16.131187 5.011099 11.429151
-15.062235 -3.281591 71.455818
-3.295597 -3.276463 49.229706
12.058175 -6.645236 52.941833
15.558450 0.370525 15.285744
-3.724800 -0.033855 42.522476
13.968142 -4.148216 42.494457
0.966500 -6.663544 72.398758
6.623575 6.455830 109.647163
-3.130685 -8.814906 72.343369
17.499880 -4.393731 12.818991
16.281651 -4.127541 92.222595
12.212028 -10.980258 88.468826
4.590021 -3.005002 15.191171
-12.614486 -9.058713 58.860844
5.728219 -9.202686 61.072487
-11.111824 6.140409 29.674259
-17.458292 6.693971 9.832651
-13.291663 -1.331605 63.679390
-14.716324 3.799978 37.706696
-17.541475 -2.656576 31.404922
11.898291 -12.228657 86.636604
-12.668957 -4.843799 53.367367
13.833088 -1.266947 106.569267
-12.086961 5.664443 60.448891
6.517818 -8.271671 63.780052
12.049884 -10.413871 69.449013
11.334336 6.781651 20.986074
-1.459198 -0.569733 31.663265
-3.181175 1.863086 30.681808
15.709743 2.372590 52.182407
13.954079 -3.171254 15.568457
8.751780 6.306777 58.115070
-1.495656 -0.814799 19.309296
6.518060 3.785199 57.005753
-7.506662 3.303839 7.608550
