ply
format ascii 1.0
element vertex 2048
property float x
property float y
property float z
end_header
11.289211 1.533896 120.666359
-8.574834 -10.275912 125.477730
9.578465 -8.767291 117.437195
-9.268292 -9.767340 106.293800
5.672287 5.025729 150.766586
-6.912800 8.946315 133.991135
8.973388 4.033817 107.695549
3.304023 2.156446 152.678940
-11.965036 8.454397 137.993057
1.058791 -13.581514 121.946457
1.278870 8.671438 137.371017
-11.041350 1.798029 109.808266
7.260932 -3.962203 146.939499
6.318764 -10.700308 129.872284
9.796972 -10.880206 104.025185
5.017768 9.842330 135.199234
4.469489 8.980140 136.886292
13.330876 -1.504993 107.443069
11.371614 -0.493852 118.058823
4.060170 -12.293651 112.861351
7.429975 3.848860 117.010628
-4.680940 -10.206636 137.704773
1.037522 -12.902125 127.697426
12.840492 6.245831 143.936798
10.657549 -11.254608 101.448845
12.398345 0.738692 104.503960
-1.691445 7.566162 110.746994
8.867637 9.083385 141.332779
-8.201216 4.632913 118.261864
-13.621166 7.782845 136.560959
-3.154024 10.141685 126.034363
15.271052 -4.099023 142.195877
11.147211 8.023163 138.930740
-5.956703 -10.848836 104.597328
-14.872066 7.014171 133.877792
-4.209682 -13.822291 114.900948
-2.836812 -13.650784 106.441925
8.747128 8.578213 135.601776
-14.366591 -5.654445 131.632904
5.254807 -14.210024 124.725639
8.116014 2.665251 114.785980
12.035828 -4.989403 129.701614
12.549702 -5.357155 109.889168
-14.589941 6.241185 137.015366
-6.147050 5.169004 148.019119
-10.756822 8.344344 141.909912
-4.848273 -3.563663 148.589722
-15.135797 3.438416 133.768967
-1.721866 5.882325 118.584877
11.762402 -7.214398 107.527985
-2.370477 10.917967 129.036453
-3.315438 6.866264 146.071198
9.842373 5.917559 125.545906
7.786093 4.152107 147.247025
2.581940 -14.503299 122.745872
11.868043 -5.701878 126.853119
7.460602 -12.295205 125.186394
-18.154381 0.591878 140.937637
-4.443900 -13.030976 127.626816
-4.019660 -12.016177 133.481216
8.230090 3.988250 146.023544
-6.387887 10.091258 135.452240
-7.292701 -7.130354 142.590668
-8.630453 6.498882 145.732498
-14.615822 2.939773 132.106308
8.156011 3.264260 109.643204
0.824796 -13.259874 111.008308
13.619395 -1.291805 115.350914
13.505520 -1.336025 117.500999
5.474049 9.794476 123.091286
-14.242116 -6.037322 134.957886
-1.352005 8.230891 146.243179
-1.156589 -10.304956 139.110840
-5.569160 4.737373 119.302048
-11.076070 -6.943235 119.762161
1.256586 9.182676 142.464066
-7.826983 -9.319781 138.192307
-3.043584 7.332006 119.190025
13.040962 -0.064115 114.938042
-13.597787 -8.739023 107.469299
-6.346118 -12.432323 125.634224
-8.958977 -11.912011 116.770256
9.828535 10.589414 134.628006
-1.084114 -12.570944 125.516327
6.886145 9.010652 140.155319
-2.994490 -11.767900 130.413910
19.042669 -2.970541 142.038574
-3.834344 -12.979968 131.417145
-7.538177 -10.613643 135.290268
-6.363989 1.355472 147.169556
-17.225084 -4.187993 138.324753
-12.697783 3.314961 125.491020
-8.912446 -11.118689 122.725403
-4.099852 6.396369 114.249260
9.591454 11.068151 138.802628
13.451288 5.068834 132.749161
-9.347991 -1.262465 146.905762
-0.965810 10.036077 135.268204
-7.817222 9.279080 141.665710
-11.916690 9.277505 137.129364
-11.892879 0.758709 110.908096
10.167185 8.523489 137.429703
-0.904120 -13.284119 102.410912
11.130719 -6.338812 106.000481
-0.137675 6.168219 118.716446
2.048788 7.081909 112.375687
-12.578930 -0.733628 117.375862
8.561883 -11.154387 111.103867
2.312973 6.769522 142.560165
6.020849 -4.767715 147.254150
1.481378 7.639125 146.826233
11.301580 1.944454 106.624481
-8.297460 -7.166650 141.765213
-4.111650 4.331731 149.646301
-4.615962 4.624057 110.834633
-12.480612 -3.253549 144.890182
11.743961 4.566685 107.174026
2.631492 8.784791 126.766975
-6.235027 5.237955 110.589615
11.397099 3.147619 127.494156
0.085138 8.812238 121.266281
-12.912444 -6.786649 134.469086
12.882727 1.680349 104.574097
0.544449 8.907838 141.731079
-14.714487 -1.370677 145.451645
-16.119390 5.107584 136.016144
-10.001068 -7.197273 119.576607
10.167955 8.408801 126.415085
3.157549 -13.746844 108.629288
12.512611 -5.087260 104.988281
2.550363 7.043475 106.216705
-4.445902 1.107083 150.343262
6.793206 5.581043 116.619720
-11.489757 8.434424 143.403519
-13.198103 1.575193 105.713921
-12.971585 -1.858763 123.552315
6.356353 -11.405764 128.273331
8.669405 3.162172 117.546211
11.293479 -3.925471 124.081512
-15.510344 5.308889 135.016525
5.360917 5.795365 111.728355
-2.805136 7.538780 148.634827
-8.016349 8.120111 120.903809
2.631688 -5.536702 149.529892
7.779319 2.341670 113.769440
-12.313707 -9.207186 130.346680
4.312604 6.670686 145.703506
-2.297076 10.119325 133.600388
5.969065 -7.392765 142.652145
-13.600719 -3.650532 114.784828
-15.162409 -7.506368 135.273849
6.884990 -1.756202 145.257675
-4.342444 6.362963 147.121216
-11.224181 3.510567 120.368690
-1.410408 10.946321 131.753159
-3.939050 6.243264 150.717789
0.465076 -13.280877 130.970932
8.160248 -12.594390 117.164894
12.136806 -3.409272 143.936523
-10.854996 -8.797495 138.587677
12.158962 -0.599311 115.141556
0.959867 11.051297 141.245117
-8.468158 -10.543905 117.942268
-4.188083 4.074104 113.524414
10.856882 -5.700488 121.834023
14.424355 -4.827473 109.815079
-5.837176 -1.447756 151.661911
-3.824168 -13.572427 110.347282
-12.736917 -7.687368 110.567062
-1.365899 -8.628900 143.354858
-12.739562 8.258399 137.077057
12.935825 -4.306455 115.679344
-7.946897 -8.919105 138.035583
3.302688 8.456058 129.923523
14.154375 -0.775287 147.038696
-0.696683 7.528748 151.686340
-5.555421 8.768304 143.441528
8.847425 -9.296988 118.914299
7.786922 -7.508031 141.199646
1.478274 -13.021534 129.872589
11.666246 -7.382831 136.803894
2.364253 4.943419 150.447357
10.161211 6.660139 132.181320
-14.402372 -5.917356 113.876976
11.266877 6.721593 132.370071
-13.730227 -7.032513 137.100174
14.060449 -5.501294 141.038849
10.282844 -9.280325 128.953033
-9.145827 6.762935 124.846535
-12.125143 -3.638831 128.448044
8.991844 9.408587 141.353455
6.825763 9.955254 131.306229
13.416591 2.601277 131.384918
-3.684434 -7.252268 148.560837
0.500700 -6.539582 145.497177
-12.388612 7.684915 129.968704
10.669732 -10.294541 103.363274
-9.385831 8.369986 126.063103
-2.669524 8.740122 139.467407
17.515327 5.028072 136.582001
-6.591776 -10.495765 109.702805
14.271475 -0.458673 128.957916
-7.465326 2.178449 114.648056
0.141455 8.628073 132.840149
8.769581 -10.190250 116.467712
13.339937 3.411305 130.527512
-5.012638 6.353116 110.439178
-11.692711 -7.910325 125.536232
-12.536448 0.124908 117.624596
3.134670 4.246849 112.415634
-15.628655 -5.702851 134.611557
4.772560 -11.135393 137.170395
-19.418352 -1.395004 143.832245
-1.598915 8.435431 148.566711
9.971782 3.700113 119.593132
16.170391 -5.488585 135.245331
9.888601 -10.478109 115.588486
-10.071931 -11.485497 130.689346
7.552521 9.250153 125.439117
-11.370391 6.677120 130.586960
7.040339 5.028298 107.300003
-12.294726 1.178467 146.233673
2.219529 4.526730 113.201828
-3.821830 6.034801 147.028503
13.580572 4.052815 129.296753
10.380672 8.149886 127.694191
-10.686923 -6.657305 114.945084
8.737412 -10.107402 134.679199
-10.537641 9.279460 129.603058
3.068767 8.364719 141.480698
-11.938331 -7.880103 134.416565
11.664652 0.654983 125.288895
13.722955 0.063155 114.273941
-11.317158 8.645241 137.976044
1.679272 -6.700338 148.195404
-7.340169 -13.060140 109.095589
-10.184472 -0.888261 145.312393
4.678743 8.332846 124.635193
-9.869596 4.710532 147.295181
-9.951686 4.744264 117.657585
6.175968 -12.303009 114.873619
-8.640376 -11.942889 130.042999
-3.032434 9.572725 137.319336
-12.261136 -1.935991 105.648918
11.601171 3.315384 126.272881
-11.017994 7.546028 129.392868
6.262958 7.243155 145.384323
-11.845469 0.750253 122.335693
11.282120 -6.646422 141.817383
7.500451 4.129771 147.206207
12.836625 -5.140432 125.961800
10.532932 7.836943 126.708145
2.995234 -12.289024 124.067574
-0.781873 10.422765 140.957245
-8.098166 3.882488 146.424149
-14.154903 -1.232572 109.094292
13.950320 -2.042334 120.568542
-7.398731 -12.876142 132.600235
13.089539 -6.423799 108.809952
-11.176694 -0.725216 116.290718
8.305147 -11.349704 136.522705
9.982946 -0.522005 113.630783
13.135794 2.004567 145.472992
5.694620 -8.126806 146.681702
-18.779339 -2.392590 142.379425
5.700859 -9.517498 141.681580
-13.659669 -1.825158 145.691940
8.174093 -11.577099 121.652298
13.104885 -4.570884 110.522026
13.294989 -7.034370 130.454865
12.755651 -5.000556 113.136147
-7.470294 5.502906 122.180382
10.498426 6.064532 124.234299
4.502596 -3.213761 148.629257
13.776212 7.809798 140.776398
-12.970442 -8.838524 108.956688
5.284776 -12.247219 131.271545
4.562544 -0.864795 149.780624
14.873057 3.090650 133.760086
4.811427 3.645036 152.052048
4.766673 6.390032 145.820999
-17.112698 -2.827881 144.016907
-19.699972 5.261984 141.565933
12.207602 -4.559557 103.623878
-1.210163 4.032159 111.346382
-13.720387 -3.629305 105.878380
-15.523350 2.631659 132.280594
1.080933 -7.102396 146.793564
-10.978312 0.832442 117.394554
-1.736089 -12.424562 113.353165
-18.087133 0.711512 144.877380
-4.371107 -12.159164 134.274475
12.595673 -1.506017 115.337318
-7.807053 9.586864 136.010941
10.142889 3.939634 106.956032
2.588149 3.793805 114.191490
9.481427 9.083046 137.924911
10.677751 2.393245 103.483185
0.212637 11.194560 136.104080
-13.494901 3.690001 130.790039
-12.743746 -7.479171 103.462837
-3.160379 -14.482992 122.184776
2.440622 9.262672 129.433441
0.554509 -13.628592 119.681168
-11.981234 -6.377235 129.383209
-3.064150 -12.998004 109.122368
10.598935 -6.188879 127.270683
15.830828 -3.204190 141.624954
4.455755 -13.523693 106.754883
2.951191 -14.664585 114.262024
-10.253878 4.791903 123.750069
-1.689566 8.904305 149.852814
1.893063 9.960352 127.480141
1.117397 -13.299876 125.228371
-4.709940 -12.694984 124.197693
12.937366 -5.713223 116.048981
-5.384462 3.231954 151.154816
10.200743 -7.571850 122.206230
4.521546 -12.205877 125.215157
-16.163654 -0.301568 145.995346
11.743814 -3.743543 117.997993
-8.424809 3.429078 114.820312
-12.148858 4.764540 126.657051
10.926081 9.295321 133.273666
11.451089 -1.858891 110.085457
4.132694 -8.913516 139.068253
12.382659 -5.097684 114.387352
-1.525735 8.245498 142.789642
-6.978913 -4.535775 146.927551
-12.234637 6.672998 133.879486
-6.325900 -13.805879 132.215012
-2.321495 9.751110 139.441193
7.940653 9.802617 139.372620
11.873193 2.064903 105.504433
9.908075 5.819859 128.186005
-10.545879 0.359580 113.535896
2.020879 7.096221 153.018005
0.343978 -14.490271 126.588295
7.336757 -11.794105 115.363785
-13.892511 -4.243879 121.999184
8.943098 3.654363 108.461044
6.059221 4.873693 116.576767
3.968634 5.471482 115.414078
8.433595 -11.049487 103.033844
-1.295560 7.184088 110.105736
-17.002628 0.136856 144.984802
-12.482025 3.731070 146.290573
4.586902 4.876333 114.184334
6.313225 11.009695 129.669220
12.342449 6.798522 131.550034
-12.792190 8.405547 143.045151
-11.700877 3.142202 124.412628
4.814491 -13.533610 114.645782
-4.268106 -4.125447 149.138107
-10.650384 10.017252 137.248489
-12.487027 -1.779827 112.761894
0.965164 -13.801644 115.831345
14.430481 4.105399 144.954819
3.447016 -10.161798 133.759399
12.791261 -1.609937 109.521652
5.378668 4.783118 107.129822
15.701200 2.163768 130.694473
19.335876 6.637039 138.999359
-18.000736 -3.618393 140.470245
7.442231 -12.714949 112.238914
-3.843458 7.145783 116.831261
9.803280 -5.640475 143.922684
-14.354624 1.593878 128.345856
-12.183871 5.095079 124.241486
-1.260515 6.028595 116.656265
6.925937 9.622784 142.955719
-15.600125 6.088134 133.859573
-12.096422 1.666787 124.273148
-5.297749 8.629351 125.857666
-4.751758 -13.137097 119.650612
-3.503764 7.101765 109.600334
-9.044200 2.127276 149.158234
-8.578261 -10.501742 107.093842
-10.650841 5.781345 124.479698
-9.281228 1.702781 146.509567
-4.394156 6.950622 116.119774
-1.477046 7.191024 103.832542
4.857826 -3.267965 150.076340
-9.515901 -11.831027 108.788834
11.217963 0.461068 112.983093
-9.434640 1.667137 115.919609
13.311224 -3.230863 104.222527
11.140360 -6.555157 141.757858
-12.852541 7.487194 133.787460
6.310258 -12.495863 132.639206
-17.091799 5.230473 133.792053
17.773899 -2.702581 134.297287
-10.436019 3.696716 146.292435
5.962008 -11.442106 134.834381
-13.389224 7.220936 140.279877
9.958014 7.151664 124.972404
2.927963 9.012748 127.546173
10.038724 4.596730 120.334854
7.703257 -12.020420 113.565445
3.438769 -13.970416 105.525192
11.586325 2.121465 115.352570
2.441875 -14.733120 121.718948
-3.555193 -13.416632 107.027046
2.868123 8.094907 138.233307
20.476061 2.116431 145.119675
9.675797 3.550031 113.778557
6.478709 10.729101 138.966583
10.806180 -11.482022 133.199295
14.136503 -3.061903 113.691185
16.000463 5.033159 142.308289
-12.024975 -6.930036 124.322800
7.958403 -11.129294 109.065659
1.863288 7.303582 119.348991
-1.722477 9.699996 122.076889
-10.678726 2.528878 119.454132
10.964604 -6.856849 139.544479
6.132273 -12.394816 128.498749
4.896369 -0.707332 149.422104
-12.202255 7.970639 135.058044
-5.379540 -2.673122 147.900909
-4.403483 -10.042650 140.987625
12.997674 -3.951269 116.802345
1.351729 9.188835 128.509995
1.159563 9.195252 130.304657
-3.527857 -12.788014 131.645370
-8.840046 3.046731 108.388428
-5.580180 -10.590036 139.717422
-3.948767 10.682334 126.070625
-17.996593 -1.024845 144.988235
16.655935 5.525412 137.855209
10.498661 -8.553078 109.485275
12.722647 -4.995634 130.785599
-12.097851 0.840038 106.467270
0.904817 9.657137 136.745850
8.775779 -8.276649 140.574387
-12.419307 -4.441361 109.319092
10.007241 9.681643 143.451431
11.747798 5.288372 145.139893
-7.356948 -12.470663 132.651505
-7.728857 -1.543929 145.912796
18.675083 7.548596 141.662491
1.829608 -10.487809 134.835571
10.046350 7.406077 146.030289
14.127121 4.698535 133.344315
17.497503 5.808015 143.440201
12.105044 8.326746 137.532486
18.412735 3.401738 144.525848
1.100215 -13.949407 117.012535
-11.873486 -2.019449 121.031586
11.039215 -8.495720 130.711594
-10.889782 -8.877967 127.133850
-3.404436 -13.276175 118.575203
-3.010640 -7.068604 147.300751
1.817530 8.799485 151.351227
-5.529352 -8.605240 141.939011
-7.672850 -7.157614 144.217056
13.559252 -8.084977 135.456329
-6.471064 -13.029915 123.772980
-9.344718 8.249707 127.840721
-6.505262 0.906613 147.835297
-2.740088 8.251624 144.035660
-19.901405 6.012716 136.120117
-10.129602 8.163547 134.010025
1.728140 6.469918 105.721626
6.684491 3.548085 114.982864
-13.247553 8.502954 136.830933
2.571395 8.919588 134.968384
3.099084 5.158031 115.535866
17.241610 -6.519447 135.467728
-11.712630 8.542714 145.219757
13.021551 -1.937537 126.878624
8.885242 -7.966421 137.645569
-7.865416 -10.299564 134.955612
-7.590113 -11.695742 129.910202
-9.656759 -8.655213 123.167107
-12.828424 0.640216 118.769218
-1.461936 -11.746390 106.183174
-14.914992 7.388124 137.179520
0.451337 -13.086258 111.031052
-12.879488 -0.062031 145.755646
-10.149298 -7.488254 117.392982
-17.192921 6.232273 138.168625
-10.003029 6.101009 127.005722
-18.063883 -2.815801 143.872253
4.074488 0.907871 153.130264
16.651333 6.674880 140.727951
-2.779528 -13.522748 114.457390
-6.292185 8.917480 136.154221
-11.852798 -6.002007 123.771919
3.884079 8.673912 120.396362
10.021445 -7.791583 120.572960
-3.751935 5.244313 151.055923
-11.179990 -2.899511 147.054657
-8.222825 6.382728 121.920502
-1.339211 -13.230003 116.053673
-4.111458 -11.336039 136.292221
-0.100610 9.133330 152.804901
-13.947844 -3.987876 108.819733
-13.097780 -1.620323 120.770790
1.885817 7.286278 104.130974
9.005033 5.607396 127.008224
3.360237 5.096719 153.483261
-3.572257 11.019979 128.605194
0.395300 7.148905 104.101654
-2.212435 -4.328475 149.920273
-1.026117 -13.103199 116.367790
16.860664 -4.168694 135.706085
-8.247565 2.772218 111.891846
11.593082 1.345270 108.193840
-4.040963 -4.597724 145.962891
9.815662 7.774925 132.807632
4.994840 8.338888 141.815002
-10.169159 2.383226 114.640877
-14.291350 -4.487007 110.205780
-17.141714 -3.206142 134.873291
8.311771 -10.493762 109.086502
-9.542548 -10.150671 106.337547
16.309753 -4.051457 140.907059
6.345764 2.391702 149.337860
-10.116509 -3.583995 145.484528
1.558512 9.841717 139.910049
16.750805 2.837143 144.336823
19.031151 -2.505228 139.449463
-0.864302 -12.620920 105.170982
-6.965689 -12.485033 130.354065
-1.847455 5.656243 111.907784
0.203287 -14.169921 117.039513
-11.111325 4.938481 120.755478
-8.537601 -9.066637 126.601578
13.133190 -3.017240 118.446632
7.361302 -11.837415 119.059341
-10.953805 -7.327870 120.200378
-6.832891 8.278426 143.309906
-2.651057 7.743927 141.023102
9.950042 -0.349890 144.942368
15.322112 0.211994 129.918610
0.844184 7.774118 104.682503
-9.226901 -10.440254 118.631050
-9.848828 -10.931736 132.538910
11.342168 -1.013678 115.832642
12.985689 -7.666922 110.703354
8.036294 4.382510 119.324898
14.667192 -2.399362 129.117432
-12.058736 -1.967876 108.560516
7.226003 9.882415 137.004822
11.214972 2.334272 108.631432
-9.523766 2.772619 145.843338
0.105552 -12.103856 105.004669
-7.994266 -11.451247 134.442535
-5.742450 -11.306353 133.684631
17.882189 -0.645708 144.494781
3.038981 -13.669069 106.776764
-10.308853 9.073242 140.698059
-2.810639 6.545426 105.352333
4.275784 5.014393 113.648026
-12.232963 1.304142 127.954926
-13.999139 7.745752 136.272507
7.317871 -10.098222 133.275696
-6.976933 9.338655 125.860176
-4.024564 7.203145 118.267525
12.283341 -4.072927 104.665604
14.183058 -7.811644 137.847748
5.982942 8.949312 127.597847
2.085589 8.703954 143.845840
18.388233 5.423693 137.623718
5.902214 5.809623 106.196106
-0.592840 6.279444 107.417648
17.313900 -3.453985 136.680984
-4.326734 5.536696 112.872284
5.252598 -6.471194 143.101639
8.564001 8.992130 130.885437
12.711500 -7.046404 107.530045
14.601911 -2.415738 117.289322
11.845526 -2.740672 110.995750
11.946632 -7.508987 113.843994
-13.404409 -2.929961 147.005615
-8.090160 -10.315965 133.075790
-9.517952 1.540147 146.911407
-9.943187 6.707078 145.471375
9.526745 9.474149 128.196625
-13.457497 7.138692 143.360474
19.366495 4.626950 143.711273
9.563188 8.928418 134.272644
1.259111 8.681271 136.573517
1.404679 10.788328 125.204681
-7.982506 -6.443784 146.055481
12.407953 -0.736339 109.728249
-8.941888 -10.515051 129.457077
-13.641718 -2.294857 128.000839
9.631989 -10.349859 106.750938
-0.594066 7.453484 119.751480
-4.601151 4.728091 112.180000
15.608699 -5.354373 135.615585
-5.977496 5.012410 146.610504
-9.973771 0.604915 115.823967
-4.091853 -7.216613 146.699890
10.087568 1.404921 145.244690
-6.595889 -11.968384 130.737244
11.781365 -5.312279 129.295242
-10.556993 -9.888361 112.801132
-11.440350 -0.207443 114.811134
-1.417510 7.367404 150.175751
-9.262623 7.152909 144.658417
12.491729 -1.720883 127.243462
-2.824941 6.305949 118.723167
10.521270 -8.919643 129.741425
-11.615067 9.309026 135.376068
12.971657 2.695608 107.867661
12.040029 8.245088 138.666519
13.926518 -1.578028 117.183846
-14.342397 -5.441730 137.416168
-13.234522 -4.178988 108.833435
0.756691 -13.862051 105.188202
-2.745981 10.354507 131.283218
-12.075925 5.822880 127.026604
13.500873 -3.638247 103.588043
-8.312468 -12.329324 103.655365
13.324910 -2.934020 112.019600
-17.848078 0.539644 144.178879
-12.896662 -8.713735 132.116898
12.498350 7.151637 131.501144
12.874539 0.432975 127.554802
1.124742 9.104527 130.750656
1.174222 6.074652 152.004990
-8.763423 -9.939422 116.479919
10.034190 8.439403 128.882004
5.781800 -11.509938 107.414429
14.168095 -7.732316 138.178802
-5.726586 3.811672 113.186661
2.485535 6.693301 119.991722
-13.169937 -1.784512 104.525276
13.507782 -2.727010 130.013474
0.922514 7.710361 149.661179
-9.722302 4.802383 123.658524
1.699171 9.616197 130.524292
2.669690 -13.788257 105.956940
-10.316069 -9.948063 109.101845
7.659364 6.335347 119.275444
11.284369 -6.394030 104.516014
6.193127 2.870366 151.716263
1.153542 8.853018 142.538040
-2.359363 -12.742391 116.696739
-7.031826 8.542352 124.670959
-8.251113 -11.840526 130.506744
-2.740389 7.072144 146.683029
16.465960 1.092587 143.936722
-5.578109 -1.954440 148.322647
13.707758 -0.852405 146.529251
11.498907 6.455013 143.536438
10.483360 7.769878 143.111649
18.714888 3.816315 135.454422
4.666510 -2.686404 146.993103
-1.983011 -12.549820 117.705200
-11.932215 1.752723 105.194153
-13.428076 -7.294704 118.306778
6.587904 -11.661044 109.832245
-4.357314 8.641855 128.372375
-2.822317 6.594861 114.747475
-13.329005 0.584846 128.597870
15.583454 -0.939560 128.858337
1.218333 -12.843087 130.358459
-8.578934 6.019272 125.300117
8.369922 -10.557318 121.649719
5.091441 9.700171 128.528046
-8.628082 9.620388 130.072830
3.408691 7.637892 128.390533
7.579041 1.287067 148.891739
-9.129508 -11.196904 109.540703
-16.484842 2.069609 133.147064
-10.429343 4.676767 125.074310
10.456771 7.209725 125.743240
-3.879745 -13.666627 112.251762
3.523539 -12.037021 130.002960
-6.755670 8.546564 125.645317
8.284566 -9.070718 116.173782
8.633397 4.302563 119.052299
-10.490819 -8.578147 113.090546
-4.169757 8.033640 145.363556
-11.906037 -8.686625 133.166702
2.791108 -13.033298 110.020889
-9.564222 8.761679 141.625549
-8.559384 1.232509 115.273369
-6.234353 8.863796 128.302444
-12.786242 -8.185553 130.214172
7.950254 -12.101442 102.934471
11.092150 3.782982 119.796494
12.398595 -4.068638 117.060646
-12.081581 8.436330 135.017822
11.655460 6.114896 142.638062
0.424406 -14.205031 112.014305
-1.126408 -9.239453 140.745773
-0.058411 -14.796352 121.252693
-4.717701 9.792390 129.120819
-15.264065 7.170674 137.343826
-7.076131 -1.770475 147.513733
10.862419 2.197236 111.617500
-14.229907 -2.729363 113.006302
7.579547 8.296231 124.377502
10.103468 3.156958 109.618355
-10.970679 2.815526 116.840996
12.439120 2.998902 126.800079
-17.365677 -4.133790 142.275726
-2.545326 -13.274489 110.055016
9.968461 6.075575 124.517601
-14.915380 6.936898 142.304169
9.852578 9.045966 141.698257
-14.608063 -5.442994 111.410858
4.350014 9.656415 138.686722
-4.911177 -11.559440 113.057098
18.212532 -3.579021 141.244141
12.148092 1.485537 128.010345
2.109154 -10.301680 137.966217
4.249198 -4.677803 150.960175
-3.406326 -10.016840 138.912781
12.695178 -0.571005 119.426338
7.420604 9.617246 127.176567
3.931390 8.050842 129.652954
-11.703126 -10.205665 134.619431
-2.236583 8.353513 142.619247
-5.204625 9.035662 140.997238
6.036762 -4.683603 148.424820
1.097188 -13.629708 124.876717
-1.126329 11.149331 133.168716
-12.473181 4.612265 133.455688
8.660364 -9.511976 110.544586
-9.943584 -8.928925 112.954041
-1.397828 10.002837 139.683670
0.833099 9.253152 132.395691
12.530397 -2.800374 105.340302
-10.107721 -9.108253 125.919586
7.256524 5.384155 110.454353
-7.034582 7.775158 142.940094
-11.546673 -4.562611 123.325981
15.301021 7.465708 142.593964
-9.855192 8.170267 143.648712
7.622411 5.237896 109.788986
9.854702 -6.800131 114.413330
-7.682046 7.479719 143.341293
9.747497 6.873382 128.683624
-4.612985 -12.946343 117.033516
11.165602 2.906840 107.643539
0.198092 -10.631778 136.576630
14.689338 -1.382124 130.262360
-14.711032 -1.076822 128.986771
8.043739 -11.304563 124.383133
11.991756 -1.604055 122.254524
2.411182 6.712732 115.448265
0.133501 -13.458296 118.291603
-2.346161 6.291366 105.348679
-14.149904 2.488057 145.953445
-1.731395 11.432180 128.547119
7.481132 -13.431765 118.151337
-8.922874 -8.685886 117.561050
10.499485 2.973026 104.575714
6.842340 5.208251 146.002808
6.069945 -13.147091 128.793243
-12.542518 -6.368041 108.186073
-13.310025 2.474220 145.740967
4.201923 8.221423 140.210434
18.759447 -3.412233 136.362518
4.704569 4.464078 151.548584
2.346021 9.230146 130.497513
-7.504259 6.178204 117.207230
-12.877172 -6.461961 138.928772
-10.785737 -9.872725 127.530731
6.985468 3.961181 148.381775
-12.303279 -4.977784 106.816299
-0.790625 7.860871 115.656998
-1.970758 -12.528069 112.322556
-9.599651 4.288852 145.094666
11.584322 6.725064 143.979156
18.014996 6.984638 137.120361
3.310178 8.505988 143.717255
13.521748 -6.582884 139.879608
10.931584 -10.979836 133.543793
-14.377501 5.006998 143.796951
-5.763839 3.718792 150.256668
-13.262178 -0.702745 121.692146
5.221318 0.686448 151.570114
11.901898 -11.808032 133.453491
-17.375666 5.036606 135.671585
8.756457 9.293492 140.670639
3.139295 6.342550 115.783401
2.553309 -13.157624 125.420578
15.190283 -4.848570 133.161545
14.159443 0.828611 130.748596
-10.410571 -8.584149 109.373451
3.458214 5.569237 145.588898
8.117941 -10.840769 115.084969
5.426163 -6.250429 147.117157
9.718882 1.973869 111.603096
-13.060503 -5.125197 123.049423
-9.880437 4.764194 121.672699
-20.807369 -2.794546 139.465683
-6.216358 9.273330 143.408875
-3.948985 8.213146 145.235275
12.503690 -5.112006 116.472588
0.761502 -15.212039 123.476883
-0.133926 -14.942265 118.489143
3.751217 6.167144 147.120697
2.914807 -12.469959 132.079514
9.670939 -7.896428 116.102249
14.382283 -3.677369 132.139664
5.436153 -4.277837 147.753601
20.096565 4.915469 139.614578
1.376397 8.104701 153.682281
-13.595456 -5.606392 110.996155
-10.167505 -8.693378 128.589142
-12.187628 -9.549871 132.574341
-4.953605 6.097070 114.925392
5.651710 2.380315 152.894958
6.896392 -12.065684 110.710564
9.892663 -10.521160 106.533241
12.311744 -0.381558 130.310501
4.498622 4.589587 149.210266
-9.238442 -0.357674 147.613953
-14.425362 -3.753031 141.909378
0.923899 -13.226460 106.003662
-12.596306 2.813609 132.303482
10.335990 8.446331 137.857590
-3.873917 -6.514449 144.458847
-8.565870 0.537145 147.192719
17.130701 -5.443079 140.105789
-13.805666 1.930048 125.466629
-5.596530 9.918010 137.963303
7.881310 -8.299913 137.296738
3.401445 8.433892 131.089523
-12.925470 -7.440799 137.354111
11.777418 5.193910 130.346542
-8.611406 6.071436 118.352554
14.024586 -3.498993 117.562065
-4.818417 8.552701 130.690445
2.899731 -5.435427 150.253693
-2.125450 -3.877572 148.860596
-8.404804 2.927613 114.152847
3.724893 -10.820333 106.296097
10.843497 -7.346637 125.815208
-9.407591 -11.568345 132.512894
-13.487419 4.273408 131.949280
-5.251885 -12.589480 127.946007
14.637103 -1.136481 129.034821
11.195473 -6.776194 107.750870
12.251400 -0.427502 107.359879
9.903177 -9.085783 122.197075
0.329185 5.314333 113.966202
-12.623907 3.086377 127.064171
1.160878 6.734182 111.526566
2.640624 8.447044 144.623962
10.902203 5.421936 145.180695
-11.106236 -9.933048 109.778587
5.735256 2.600232 152.680374
7.061409 3.750858 117.074379
8.473719 7.815986 125.111855
-10.608098 -11.088240 113.690887
-1.725278 -9.760396 139.937988
0.206274 -13.000536 118.928810
10.427308 3.071155 119.205200
0.231912 9.663764 133.132965
12.449528 5.930750 144.992935
0.212183 10.779656 124.489578
5.626360 8.674104 120.305443
1.777236 -12.405335 114.301208
-6.837648 -11.290663 114.168510
12.482981 -5.266848 129.857803
10.878746 -10.557681 124.467255
11.295332 6.158039 144.758545
-2.763652 6.835633 146.441971
8.869240 -10.592073 111.987953
11.632033 1.595877 108.260513
18.491417 4.154313 143.729691
0.646202 8.966947 135.433578
2.083766 -14.425025 115.350731
-6.686557 0.213558 150.464142
-8.448295 -11.289258 114.929688
10.391141 -4.807209 143.409058
5.515136 -1.648384 148.590775
-11.444306 3.281570 110.539680
-9.120250 9.701162 135.658020
-15.274745 -2.692077 134.759430
-6.783965 -3.820373 147.137970
-8.247102 4.795854 148.014969
10.870222 -9.608030 134.637924
3.786641 -12.772263 121.933830
4.648201 4.999344 113.919319
4.032828 6.420002 108.754646
-9.376545 4.660597 146.137695
4.031988 -13.488970 122.251762
-15.146032 0.623852 131.561996
-11.159760 -6.701817 126.981483
-3.968414 5.563722 107.194641
-0.941118 5.122704 114.291534
20.380995 -6.066903 143.006577
-11.339603 5.932750 134.493240
9.613781 9.209844 141.186417
2.206514 8.034622 144.901672
5.588659 0.903154 152.064896
11.784144 4.313324 104.743980
13.513309 -4.305266 111.089340
7.235032 9.011443 126.365372
16.634689 3.966792 145.923462
-6.840450 9.432741 140.996292
-9.748490 -9.642656 122.818779
10.168763 7.694171 122.175903
-3.554460 7.075674 114.816704
-4.719264 5.177974 148.564011
-5.587504 8.764980 130.489426
-10.026279 4.659613 116.148972
16.557537 3.493175 145.381516
-5.200894 -13.343399 121.915123
11.491959 -8.943881 105.828430
-9.049840 -7.887519 140.969559
15.769987 8.325581 142.091568
7.727271 3.194167 111.135078
9.948520 -10.597078 121.455223
-0.391385 10.073220 139.860184
-6.711323 7.921610 127.100082
-7.813062 7.820111 122.790245
17.891941 -1.496816 143.207321
-8.664297 4.192761 110.044174
-7.354292 -8.600129 139.150528
-8.432836 -10.764088 119.465958
10.468602 -0.802033 145.785004
0.802709 -11.646374 134.721420
-3.690911 -10.113583 139.630844
-1.998546 -13.061674 131.159485
5.258229 3.800976 115.617752
-0.661431 -6.238438 147.285004
-12.625579 3.826059 128.232437
-10.753577 -8.837284 137.348358
-7.556923 4.566460 146.147324
9.816072 -10.210035 115.496155
-9.893576 4.611115 109.714470
-4.384637 5.678836 117.042206
-4.957661 2.652128 149.203293
9.354166 8.396412 144.248871
12.261515 1.755748 105.359055
-11.967601 7.266045 131.642914
11.056090 6.893848 127.339973
2.717606 9.556285 142.638779
5.245648 -2.797709 149.635880
-13.009759 -2.998017 103.866920
11.877162 8.803384 141.667435
4.805149 7.554656 143.672165
11.776365 -8.942741 135.576523
7.821535 -13.001346 126.745331
7.497389 -12.228137 111.566841
-2.874920 -12.611946 132.593933
10.766114 -7.756694 107.470512
-3.229366 9.694642 130.277405
-11.827063 -6.317628 118.419495
11.940383 -7.019585 106.511070
-9.874944 -12.853626 129.226624
13.362224 -4.569965 117.476715
-8.926607 0.961700 146.836380
-11.198581 9.124635 130.550568
4.831397 10.575268 136.185165
3.761410 6.700242 153.538712
0.566315 9.832449 146.926712
-1.902494 6.945853 110.210342
-8.810023 7.108668 123.771355
1.112807 7.886554 150.426865
0.273739 7.956004 147.781113
-7.373485 -12.795814 110.890038
-7.824461 -11.287631 122.495476
-13.464478 -2.066303 119.687851
-9.880598 -2.990094 145.318802
20.674389 5.415259 143.779190
1.437274 8.704556 153.843155
-1.992454 9.912652 131.942413
-10.543237 -7.019636 140.409531
-0.591412 -13.749123 110.469269
3.480835 -13.591311 106.802147
-5.675702 8.157278 104.999527
-12.238941 1.591760 123.599083
11.315413 -6.846262 140.518677
9.578033 -9.017063 116.788536
-17.589293 -4.999787 137.675797
13.048289 -8.156706 109.553062
-17.987333 2.779624 133.707718
-5.792747 -8.006190 142.713867
-1.766544 3.520012 112.543594
4.016926 -8.756344 140.041229
-13.837145 8.156103 141.206360
-2.946543 -6.418231 150.609482
-0.657282 -11.875370 132.497177
-7.585012 -3.394429 146.271927
15.514467 7.018549 140.308060
13.840655 -4.069769 131.314774
-12.181533 -1.204267 111.789841
-10.191287 -9.589526 108.300507
5.551510 4.184482 116.227394
13.209659 -6.168581 104.689522
11.024471 2.209611 117.313675
-10.629514 -8.077840 106.209816
2.401988 -13.576997 106.875793
-10.342318 2.044971 111.977928
-4.561556 -8.991048 140.390747
3.257828 5.587414 119.225151
2.804943 -13.376199 107.426491
7.727974 -11.790033 108.026886
-6.914050 4.090880 111.794395
-9.273314 -10.222794 108.307953
-5.100528 -10.861789 137.965439
7.042666 7.444674 120.141083
-2.727677 8.734776 120.966591
5.690681 1.430162 147.683578
-3.561903 9.516565 122.362335
-20.016575 -3.738490 141.614410
-11.221091 -6.728174 140.516678
-12.192727 5.151511 126.498718
-13.600746 -5.438857 117.904030
-8.016645 -9.985249 119.017288
5.823774 -11.632898 107.727646
4.018783 9.908198 129.771561
4.436779 -13.271326 123.522095
11.481320 -4.823003 127.911079
-5.884752 6.695468 146.169617
-15.669299 -5.125785 133.677795
-4.273812 -14.248412 114.594383
9.011780 8.089873 143.958878
-8.226923 -11.928614 121.754387
17.336752 -4.527225 139.707565
-11.361735 0.833652 116.684471
16.608963 3.071611 144.773392
-2.079786 8.216586 121.658760
-11.641473 1.819945 105.286507
-6.580643 8.920232 141.093018
-3.261225 -10.524342 140.557297
-2.917848 3.607996 110.277710
-8.691171 4.236571 108.355453
-12.458416 4.918304 145.213989
5.748247 5.707818 111.570976
12.393072 -7.247770 105.159111
7.610043 -11.955239 104.586571
-10.723408 -2.569332 146.311417
-8.223963 5.387494 122.566856
-13.038826 -7.131258 111.505295
11.416183 2.534353 125.127159
11.653317 -4.135345 125.041405
-11.369623 -8.425722 126.001434
2.242735 7.025688 115.857460
3.255194 8.878629 129.826157
6.003788 -4.911326 145.306763
-13.806377 -3.242579 144.292847
-3.967496 8.439958 142.478897
-4.850643 4.706959 153.191330
-13.081514 1.249941 124.458817
6.310547 -12.607861 133.028839
-7.457414 9.806633 135.832932
-7.150312 -7.196230 140.502716
9.666332 -11.034930 118.720886
16.767475 1.282927 132.182465
-5.977402 4.662424 111.323982
-9.434302 6.541399 142.515411
9.061521 -9.778500 120.919632
-2.622547 5.871017 110.751335
-4.503739 -12.728365 120.629776
12.519611 -4.751486 105.856155
0.037665 9.533477 135.724640
8.154554 2.892817 117.342232
8.171290 -12.131105 109.407486
-2.893414 9.834388 132.809097
6.976274 -4.331616 144.510132
-0.053674 3.245314 112.585327
3.576249 -11.835998 134.234818
-8.615504 4.046928 145.369888
-2.745601 9.075834 133.478745
-16.854263 -4.570060 133.487885
-10.488629 -6.570307 117.409912
-6.567904 6.000436 116.931046
16.936657 7.805899 137.195465
-8.157623 9.878670 129.275314
-9.373986 -10.747068 127.400185
-10.827061 -7.699905 139.120880
-6.855933 9.570677 127.776489
6.469626 6.546660 104.752548
-1.522242 -14.339159 105.233223
-8.671891 -10.916436 108.146057
-18.957401 -3.513252 141.533020
-2.404993 4.661137 111.797737
2.492231 9.511225 146.224609
5.368469 2.329724 150.639343
-11.384029 -4.342774 126.506035
11.053783 2.967511 127.442322
3.244282 5.811878 151.524963
0.581973 9.112648 145.915680
-11.658894 1.529830 117.791443
-15.231118 2.214172 146.788849
-6.228031 3.616244 111.623695
3.181590 10.546754 135.175278
-12.549814 0.267703 120.071968
-6.667335 -13.810616 131.654099
-12.579235 9.725581 137.566208
7.765998 8.524692 124.845856
-17.975922 4.283756 134.809433
-13.256539 0.315738 103.290817
5.206671 -11.917897 109.390099
-13.371597 0.486174 107.536041
-3.160194 -9.634540 137.109100
-14.217148 7.096621 138.560684
6.402429 9.564194 130.843201
4.711015 -3.171173 149.857727
9.042924 -10.073938 113.493614
0.092026 7.924596 115.300720
17.873413 7.268274 138.357697
1.889789 7.428651 152.647614
-3.757082 -13.135163 118.407585
-5.039275 -7.144887 145.768112
-9.717506 4.669820 104.653732
-4.870955 -10.037938 136.498001
11.489352 6.013120 127.943565
-6.847758 -12.265795 125.043907
12.934281 -4.169840 108.101486
-7.419712 -12.311886 103.740501
13.410233 -9.119870 104.259674
-13.893452 -6.765568 138.006912
6.595196 4.774892 111.800087
-15.811722 6.804097 140.476273
11.079659 3.221871 124.324501
-3.695967 4.065695 152.404388
-10.471233 -8.896618 122.344025
-12.155616 0.990897 126.960419
6.373670 1.319724 151.844177
-13.223369 6.887539 135.847290
0.152470 7.155531 149.704224
-9.725925 -6.978166 140.085739
-15.729887 7.090215 140.882538
-12.019092 1.520317 129.602280
16.410717 -3.997731 134.015396
7.362547 -11.645317 114.342453
-17.748518 -1.604598 142.453094
2.872899 8.506816 129.452713
-11.681008 -8.246553 115.261520
-8.177276 1.742577 146.664352
-7.057434 6.077096 148.080460
1.288525 7.285076 149.876297
-3.472801 -8.419902 146.411407
-14.913685 3.447784 145.682617
-2.203181 -11.269722 137.081024
8.260908 4.105246 113.062363
-10.110455 7.984720 134.115356
-13.973217 -1.144430 127.701065
-12.740963 -1.567548 115.182518
7.903900 10.479976 137.235260
-4.799538 6.245233 107.619553
-5.652326 -13.908760 126.506493
2.911042 -13.935390 123.664627
18.675137 6.572745 138.172119
-7.495293 7.188892 118.759750
-10.020864 -7.225130 127.816658
16.248325 0.596704 144.563568
-5.749356 -8.779446 138.008865
1.493758 8.991908 132.634796
0.464702 8.937615 130.836655
3.869069 -12.561170 103.054466
-7.577403 2.778025 114.568710
-10.140850 7.917497 136.958282
-9.316724 -11.021984 106.633156
10.986031 -0.309789 121.919365
8.727179 9.649337 142.305206
-17.681551 4.274857 134.781128
-8.808291 -5.396843 143.646057
12.825664 1.703215 106.913071
-12.427550 -1.516181 114.554146
-4.044838 9.726274 124.745148
-13.388650 4.450201 144.594330
-1.917524 -13.094150 130.810883
15.153066 4.670588 132.293610
-7.660399 -12.033618 112.603806
-16.241503 3.161885 133.924149
-4.839705 9.958992 126.776657
12.682915 -3.484279 105.446251
11.093563 -8.296212 133.621323
-14.167739 -4.286994 105.033623
-4.937244 -10.761277 135.971298
-9.784273 -10.288321 129.245529
-15.986340 -0.243508 145.900650
-18.701395 6.550203 138.170059
-17.923109 -0.651004 145.133911
-3.581285 9.967922 131.137085
-0.083954 -13.283334 106.302078
-1.730437 6.607736 150.371368
13.161721 -4.438412 114.073189
-10.924586 8.967887 145.225754
-6.067100 -12.818158 122.750671
-10.416211 3.247542 106.092209
-5.037585 -6.806418 144.453690
0.585635 9.182855 121.741066
-2.088820 8.969417 127.404877
-5.939071 9.888024 130.809006
9.458450 -10.243896 127.423012
16.057922 2.965986 132.333755
18.832237 6.211780 141.070267
9.605960 2.449517 108.669762
8.824076 8.332869 137.226791
4.894546 9.579842 124.880394
17.080967 6.302682 143.022400
-4.334627 9.836523 121.856575
14.301973 -3.661549 107.316086
-13.512742 1.180566 129.081863
-1.425982 12.525559 135.674164
8.291027 -12.013117 119.517952
-0.379729 -8.797693 142.311508
-6.910310 -11.791641 101.825348
-7.904151 5.662242 106.278206
15.570872 4.607923 133.958252
0.721546 -10.777080 135.251205
-15.923553 -1.352495 131.152893
15.588922 7.009196 138.408798
-5.414068 8.650945 130.695480
-8.795314 -6.969765 142.746048
-10.782020 -6.990254 124.161469
10.761518 -7.432558 118.610443
10.610692 -4.497228 120.079224
-6.801507 3.943322 148.996414
8.380254 8.824915 134.362976
17.720736 6.730059 136.951340
5.702050 -11.547458 115.003487
6.506428 1.770836 148.834625
1.395062 -7.665499 140.810989
4.108415 7.298250 147.148407
-11.230763 -2.377392 123.347519
7.074686 -8.802303 141.929703
-5.956094 8.085932 120.347221
8.116984 -6.714618 142.077499
-17.900793 6.829542 137.428940
10.760157 2.674721 115.222977
-0.523146 11.625504 136.326828
10.438715 -9.197858 119.715134
-0.106353 8.494995 150.097672
11.765650 -8.423403 109.442825
4.342670 6.677669 118.926270
13.937854 -3.087587 115.809860
2.319015 -7.638643 140.658142
-3.800425 -9.706959 139.210602
8.815198 -11.124042 120.893265
-4.224897 9.741902 135.258682
4.835253 -12.625407 111.102753
4.963693 9.332407 134.906372
-16.628901 -4.521975 136.006805
4.776957 2.202432 151.906967
0.885379 6.484135 110.555664
-15.636768 -6.297492 132.555054
-0.131678 -9.858705 140.963547
6.248568 -12.666559 105.279434
-3.435927 -12.226257 121.882027
-5.153018 -5.795209 147.171310
14.627735 -5.472015 129.795319
-13.500690 -0.389390 124.245598
-14.687398 2.467543 144.723999
-10.242328 -11.551706 130.868561
0.703009 9.743392 124.267059
10.597347 -12.074068 103.632317
-8.695460 -10.543820 115.152687
-0.277366 5.499594 149.418930
-5.474672 1.590851 150.614883
-2.511816 -11.486756 136.179657
-18.985813 5.641733 142.401123
9.919005 -9.127022 138.081375
-10.301441 4.769052 120.305061
-12.081683 -8.619131 117.656815
7.579419 -11.517767 103.719940
13.668720 7.768028 142.951157
-5.072178 9.142594 136.177124
12.747192 -2.523204 106.315491
-4.449370 -2.894081 146.681122
0.563772 5.928260 108.573540
-10.731009 -9.381643 113.351707
-1.544738 -12.305230 120.535835
-1.857480 -10.098790 140.605682
1.052803 10.398378 136.854492
16.101597 4.366682 142.831406
-13.058810 -2.748516 118.886948
4.214958 0.453273 152.669281
-8.553532 -10.197083 136.822647
-12.498533 0.594750 110.386055
3.695619 -12.318175 127.837654
-9.473312 3.314043 115.462013
-1.775703 -12.460442 132.703995
-11.846570 -7.411709 105.556946
8.887896 2.560654 148.012222
3.801222 10.392521 126.602394
-10.080855 6.875148 125.533104
-0.093246 6.857413 114.674271
-10.164424 -9.534537 120.153923
6.408000 5.869132 118.657410
5.832384 0.059376 150.845612
-12.375690 -5.371329 131.001816
12.933341 6.214189 143.361633
8.583825 12.211375 140.875092
-9.535593 1.290891 144.905823
-16.718193 -2.190891 143.163116
9.221400 -8.012168 138.636978
12.142854 -7.110885 126.647705
13.802244 7.959507 137.797531
14.758197 -2.887935 128.802963
5.330904 -2.199135 151.485336
-6.649247 -0.652471 147.314865
-11.715502 6.339983 143.105286
1.347365 8.431340 137.873566
0.886096 11.101563 125.221268
-18.555143 -1.928912 144.831299
-14.079843 -5.956955 138.310745
3.721673 -13.627764 105.461540
-7.835618 -12.485484 124.375534
-0.754171 -10.129868 139.750839
0.781932 -11.110838 127.920097
-1.922057 6.481225 110.081039
9.657761 -10.579511 121.307953
2.150082 -12.893935 109.097595
-5.359444 -14.087347 114.848648
-10.331992 -10.372581 110.892807
-8.885819 8.859064 135.812057
8.920271 8.154243 145.035263
-11.543568 0.502630 146.279114
-4.954962 5.461099 147.036194
8.256260 4.990895 109.275185
-3.315390 -12.505713 101.528374
7.210927 10.103922 139.994766
-13.371369 -5.086207 111.655716
6.339558 5.739403 107.773621
-17.430067 -2.161973 145.116745
11.172703 -8.926220 106.472778
-12.493201 6.796606 143.324493
-9.862313 -8.295649 124.411064
-9.013161 5.278919 118.074699
0.993968 8.202423 144.859238
-4.726250 -12.286259 124.326218
-3.986436 6.622682 115.776756
-10.317301 3.860551 117.491043
-16.908607 7.916223 138.972290
2.058689 -13.372788 127.741928
11.726115 1.338246 113.136452
-7.088731 -9.999701 135.397507
-10.126490 -9.184550 110.318481
-7.165277 2.444455 115.448944
-2.172483 -13.551271 104.226677
-6.005632 9.527421 137.204346
-2.219419 -4.808759 149.297165
-10.998162 0.194870 116.286850
-3.143364 -10.062117 137.660004
-12.468353 4.075258 124.282463
-8.569347 -7.954286 138.023163
1.918111 8.912531 147.730499
-2.149814 -12.872028 126.672096
13.548176 8.729611 140.093338
7.788538 8.580005 142.053665
17.507601 1.186221 144.811951
-11.142304 -1.289559 146.188721
9.457949 4.654472 124.709366
2.162860 -7.264023 147.230637
4.329540 -12.579497 119.283310
4.409768 6.705325 116.090218
-4.009862 7.091827 152.353638
-12.750051 -5.842943 142.033340
11.293004 1.707473 120.990082
-6.563063 -3.679792 146.869003
-10.140824 -8.690160 107.904167
-13.862653 -7.278378 112.180527
-13.780109 -2.614537 123.950752
12.785186 -2.826780 121.057724
2.465779 -12.943457 130.782257
6.922383 -11.974690 105.486320
-7.476654 -12.189005 126.585945
-1.824541 -12.839347 107.566780
-3.481419 -12.959964 107.233650
8.564015 -6.804014 141.508255
7.039879 0.061909 149.740784
4.355591 -7.051492 143.725632
9.588920 5.086362 103.824272
2.288901 -12.575051 107.353210
11.446489 0.572878 119.850700
-13.534987 -0.275878 128.361450
2.596305 7.539109 108.643463
10.100848 4.474264 121.801628
-4.187547 5.924842 149.458038
6.212578 7.694947 145.742981
-16.797653 -2.186956 142.790894
11.435293 -8.995438 133.243805
5.905674 5.012611 107.717125
-18.229397 0.045979 144.775085
-12.260606 -4.177757 144.358398
-8.523395 4.405031 147.504166
6.112003 -3.601103 152.472183
-13.292035 8.537344 138.890808
-18.967485 5.239372 142.204773
-13.909828 -3.983285 110.529388
14.931180 4.918776 142.134842
-14.236396 -3.157807 130.235077
17.214365 0.191436 144.321915
-2.597569 6.571401 106.983688
-2.224978 -9.148660 139.928040
9.776643 6.100968 125.164467
-12.908195 6.589604 142.896118
-13.786774 -1.846226 105.389961
12.158183 -0.192918 121.370277
-4.228209 -5.217710 148.121948
-7.642583 9.316987 138.643875
-2.410940 -12.935426 107.058578
-13.276242 -4.924239 106.642349
14.717857 3.368922 132.423019
-4.141501 9.197329 142.161484
-7.057202 6.636698 109.508125
-10.784834 -4.730427 142.858475
4.397064 6.039463 109.812805
4.534222 9.953476 136.690674
-6.219154 10.294580 133.503128
0.140249 7.467361 119.740097
10.505022 -8.362046 113.054153
-15.198050 2.144862 144.579712
-12.964005 0.193022 119.424545
18.024031 -5.309562 138.785294
-9.274198 -10.271208 127.906944
-3.104265 5.603389 110.286629
7.366636 7.857822 103.139771
5.267144 -10.672018 134.884918
9.000818 5.472443 119.040512
9.700522 1.471016 110.686432
3.060222 -13.628854 124.628716
-5.767025 -11.980417 118.936424
-9.910904 4.209661 107.411232
4.727428 -4.877945 145.961014
6.559439 0.013869 151.623199
10.888137 2.318567 114.044334
-13.602902 -1.324787 116.578499
2.897172 -5.014713 148.062057
0.668369 9.606709 143.993347
-16.292530 0.491868 145.997620
5.383862 5.907479 148.780243
-5.969890 7.689757 121.273857
16.558113 7.916460 140.718292
-3.478989 -13.464680 116.057137
5.782759 3.653860 113.091965
-12.220136 6.314576 143.801300
-11.544231 6.934833 143.853424
-5.243505 6.210394 114.836098
6.089197 -9.085856 139.745499
18.702799 -0.574771 142.674179
14.839951 -0.457648 128.671646
-0.225164 -13.373151 116.449417
-13.113926 -1.020793 108.771454
-7.695315 -9.821228 110.981125
-6.171718 -4.035875 150.744293
6.346814 3.938943 107.318619
4.717010 8.821828 129.774612
-13.098688 -4.283249 143.089752
-7.687040 3.486424 111.354668
13.612803 0.888937 129.024216
-11.178509 3.755917 124.396797
3.143410 -5.285417 146.814911
-10.216631 2.896190 123.991104
-1.448131 -10.425247 135.744049
13.808648 -3.592799 129.802689
-11.634554 -3.242545 113.488770
-10.530474 7.475342 146.214676
-15.885575 7.707155 135.574844
6.907938 -12.765987 123.381386
-10.415945 -10.770571 111.010605
-4.239007 -13.917547 117.519707
3.084598 -4.455263 148.772018
2.019669 -8.077485 142.395081
-11.917949 0.535404 118.341110
12.125079 7.702072 137.486710
-5.762525 -6.556001 147.217377
-11.046736 3.358823 129.984100
-0.829318 7.155225 115.506935
-10.264103 -7.653238 138.449677
10.349022 -7.617826 123.472275
-3.049181 -13.141819 107.652367
4.574736 -5.154339 149.266068
-8.776651 9.274416 134.123032
-5.697565 8.115423 130.994995
-13.203364 7.699459 141.783005
13.433948 -4.700871 114.838402
-7.862303 10.455719 132.426788
14.507866 1.754567 145.307220
-6.763478 -1.418259 150.186386
-13.639553 7.364487 141.715805
-15.116622 5.670924 135.454056
-12.319892 -2.905298 116.769257
-1.796111 10.483698 135.715347
10.831532 -3.497811 143.958679
-5.959557 8.703382 143.833679
-4.392595 6.289717 147.039932
-8.715816 9.100777 135.577545
-16.846069 -3.800942 144.408859
-1.823389 8.900743 124.779388
-6.356841 -8.305018 144.151764
-2.021269 11.650393 129.953430
-6.218576 5.640294 122.227432
4.377918 -11.266163 102.029198
-7.853379 -10.647069 104.872688
1.885591 -7.607669 144.219955
-13.219869 -5.019228 115.791855
6.644881 -12.003576 121.236649
5.611023 -1.233768 147.675385
13.751365 8.342433 138.593964
-6.252898 -11.165034 134.169418
2.399348 6.818607 114.962502
7.939605 3.389323 113.607559
-7.220455 -11.988991 120.186974
-5.376671 -8.156663 145.383102
-10.439820 -4.211610 142.097473
-13.054449 4.233315 126.929451
2.259728 -5.012598 148.132309
1.332964 9.514666 145.404999
13.256259 5.851028 134.508026
8.195375 -7.924376 141.216949
13.734672 5.942204 144.086029
-0.399765 9.726791 134.426559
-6.061813 7.329013 120.069946
18.777782 -3.860842 136.790619
7.504158 7.797139 143.538406
-6.140318 -12.108126 133.158020
13.130958 -5.601655 137.481659
-11.101724 -8.294070 138.408325
-10.321578 -7.557381 121.471931
11.468419 4.865880 146.120209
-12.678811 -4.728318 118.769386
-8.256725 2.509807 112.070107
6.678181 0.398925 153.726593
15.797698 -1.094850 145.626404
17.462561 7.188372 135.772964
16.374935 4.980958 135.337463
-14.682294 -4.004561 142.678543
12.578226 -3.930250 124.268524
-3.985188 9.472008 126.414589
13.598548 -5.903134 140.991089
3.515231 5.722705 108.854164
2.128888 -14.173361 117.547218
0.847245 5.310350 112.045448
-1.029136 -11.791818 131.318420
-10.809145 -8.144028 108.087784
-12.458037 8.123190 139.261536
-18.351416 5.001747 136.771912
-11.165872 -6.071016 120.671921
-6.091834 -1.071748 148.085175
-9.067976 7.357446 144.204056
-12.139108 1.614131 117.594193
-1.129133 -12.976263 103.259964
5.556256 -12.852092 129.304276
2.016161 7.209477 105.998459
11.724841 -3.693013 145.659866
-4.160962 7.452941 145.420898
-2.144714 4.795449 108.952827
-0.921744 10.237891 126.688316
2.734751 10.029275 141.056992
-3.598659 -12.294312 108.850906
13.120753 3.937541 129.632309
3.614403 -4.928436 150.937927
-11.561163 2.657708 146.167557
12.597335 1.058729 114.442741
-9.764145 -9.077920 115.519478
15.817585 4.427842 145.992905
4.059345 7.521839 103.943832
-4.630990 -11.115785 150.591003
-7.837357 -5.817217 147.370560
4.466476 -14.400576 126.455925
13.508287 4.460157 144.729538
13.142106 -6.142543 111.267601
-11.869161 -7.165262 104.436623
4.907762 -12.075406 109.120270
6.861996 -13.395942 114.721596
9.167421 4.492388 119.737282
-14.661965 7.360152 143.776459
-12.799545 3.996964 130.625198
-6.085861 9.972645 132.663284
-12.452670 2.657507 115.374474
-17.264004 -2.938599 135.927155
-9.600004 -7.932671 116.348129
0.006338 8.242394 120.547256
-13.863941 7.610113 136.977722
-4.896408 -12.209173 129.919983
12.596856 4.956061 144.413803
8.999551 2.854311 111.910446
7.660177 5.957565 106.865257
15.847465 0.617407 145.156982
-11.968336 -1.180272 112.260872
-8.815557 8.914768 129.577347
-6.918982 -12.382148 116.591347
10.958742 -8.748030 124.624107
-12.424794 0.862126 122.201248
-9.621643 4.415876 145.928360
16.968727 -3.168096 142.499802
-0.919178 7.563500 105.518616
-4.169597 -5.754421 148.481049
-11.955894 -6.705340 138.113480
-17.599230 -3.086771 137.389877
14.047238 -6.660235 137.902481
19.036871 2.364278 144.584351
-7.769153 6.088901 108.188042
12.233501 -2.112674 127.388771
3.419570 7.517315 134.296722
6.539392 -3.446521 148.443085
18.715832 -4.617527 137.598999
-6.668649 -0.556358 151.894699
-9.883093 7.040860 124.557259
6.434354 6.249864 105.229004
9.479741 8.746526 143.997330
3.657193 -12.773197 117.670319
12.713854 -8.531890 132.568466
4.404981 -13.128180 111.491074
-5.153851 5.885788 147.069717
12.527940 -3.455052 121.707069
4.315821 -12.083632 117.809654
-0.694168 8.854061 144.420807
6.775436 0.060413 148.529099
1.183646 9.793304 143.738373
1.042413 8.199077 120.150146
12.111712 -8.238795 136.927719
4.161012 -12.062437 132.150177
7.136895 -0.101798 147.930725
2.371283 8.475278 132.344162
-1.120533 7.324923 121.945892
10.762912 0.863930 111.937180
5.663855 -4.704677 146.361893
-2.579712 9.575249 136.093399
-4.357224 7.490294 152.350006
-17.855354 4.120017 134.655975
-9.261103 -4.888546 145.470413
10.632225 -7.711616 117.053024
1.224275 9.966618 134.808350
11.838476 6.713632 130.317078
8.505836 -8.801908 121.074493
4.126882 -6.036185 146.318726
10.691176 -3.074133 145.922684
-1.705114 -13.947577 118.662888
12.291615 -0.703182 109.867027
7.511393 -10.350693 134.971344
17.250711 0.352511 145.696487
-16.233944 4.036334 135.240585
10.872170 5.480964 124.083649
9.106722 5.203753 120.537781
-13.892687 6.424802 137.677261
12.277576 0.933312 107.642960
-7.235156 6.397186 106.171410
10.039244 -2.160036 146.480362
2.097954 6.781073 146.386871
-4.597523 6.786177 118.142532
-5.808872 4.327835 110.276138
2.395262 5.444507 151.974792
-3.744142 -4.379050 148.309738
4.589654 4.648826 110.816437
-10.504227 7.367849 143.106430
7.706946 9.280665 137.983826
1.950374 9.631501 133.757187
7.785637 -12.570923 121.112099
-6.013180 -12.006950 134.050385
-1.988458 5.189796 112.052917
1.810197 -6.381730 147.322540
10.680740 -8.106862 127.384285
11.390526 1.846110 114.471260
10.263813 5.269555 127.094345
-10.540413 -8.886663 116.302551
6.171508 -13.320367 123.035339
-3.084692 -4.706571 150.042984
1.293546 9.247202 123.374542
-11.338316 8.299204 138.450790
-8.774078 6.163853 121.486496
-5.848574 -11.826006 135.534760
-11.632652 -2.767221 144.134659
13.632553 -1.851024 106.590118
-15.078510 -3.852738 131.360443
-12.319186 -4.366080 127.393661
-12.072229 3.214107 145.492035
7.203517 5.471699 147.557358
-10.083122 3.281812 111.354225
13.283357 -6.509802 134.433609
-14.211505 -0.816482 146.307053
-7.391500 -10.293188 115.070404
8.129995 -11.820400 116.195999
13.161449 -6.348683 129.223618
-2.105043 7.595985 148.524292
17.032671 2.519859 132.706863
10.381644 -9.918213 104.540970
-9.757288 8.568370 143.982758
-3.467928 -12.521921 134.487457
11.143976 -5.142600 128.425980
7.260570 6.614662 106.422256
-11.380141 -5.196868 118.796661
-14.173451 -3.161711 144.019318
-6.011142 4.332970 150.570236
1.311900 8.773679 124.838257
-12.361999 -0.992124 108.289169
4.270082 -12.672642 114.181908
6.812478 -12.596807 122.950630
8.074238 -10.978272 131.502319
-14.027969 -4.542997 103.127975
19.948532 -4.676695 134.044983
-12.934180 -5.202554 125.837540
-4.030910 6.481081 117.910851
-12.926859 -7.589060 112.267860
8.682580 -11.928419 121.495842
-5.847366 5.063348 116.229042
-0.152364 6.836093 111.713989
-10.479196 0.489081 145.855103
-12.687854 6.026078 129.924316
3.528591 5.714759 109.893166
-11.796552 -4.146639 119.565697
5.035575 7.786157 121.318176
-21.257923 -2.439287 140.340393
-4.321719 6.157690 108.497910
-1.186851 -13.442604 132.495163
11.996251 -5.126155 115.513535
11.626379 8.653975 145.103027
-8.886087 7.799037 142.882065
13.286938 4.833903 130.221237
-8.156087 3.604259 112.688690
11.090048 2.161752 117.803810
9.408588 7.116782 134.331238
7.346261 -2.007427 147.737350
-3.707430 -14.504153 117.903824
-14.515600 -4.507153 110.922508
2.861810 8.481373 122.756744
-12.203741 -8.549832 130.324219
-15.510469 -4.808348 133.952759
-11.601059 1.704597 111.189583
-5.644329 -12.371654 134.227905
7.819190 -12.566292 127.730560
8.224261 6.035695 107.539856
7.560632 4.028720 118.560852
-0.070966 4.988769 112.612801
-11.409049 -9.216525 135.416214
13.035955 -5.546185 119.605476
12.431896 -5.365917 128.893158
10.357627 -1.217599 111.257851
2.358989 5.673941 107.135139
2.281176 -10.444021 137.699432
7.094992 -8.748776 141.516373
6.760574 11.208867 137.697403
-7.056357 -4.083222 146.828568
-12.788014 -2.662992 146.030304
-17.139900 -4.458587 139.734787
-1.173371 -6.013207 145.287399
-8.408247 4.177566 147.480652
-13.130628 -4.441828 109.804329
-11.164576 -6.752053 141.942932
7.323174 -2.380286 151.944534
-0.454234 -6.342605 148.301941
2.051280 6.304875 111.222160
-6.490065 5.987445 105.730148
9.972525 -9.661057 120.984177
13.870218 7.166117 140.239334
-12.501469 7.842227 142.724304
4.438298 0.447731 150.776520
-11.975040 6.567103 130.483353
12.617908 -5.849589 117.253448
13.897676 -6.605481 138.461136
0.281424 -12.453405 115.466789
-7.149743 8.957501 141.448105
-5.060170 -13.040012 109.640823
-9.361652 4.010155 110.866440
-5.760561 6.104292 146.986511
4.043844 -5.629105 150.062347
-5.221437 -13.504351 127.042778
3.215963 5.201053 115.547302
9.968856 -8.411281 111.078224
-14.018765 -8.843616 134.367004
-5.818330 5.593487 116.609261
12.335403 3.079322 128.314285
7.934944 10.269544 128.619553
-7.819869 -9.791865 137.546585
6.860296 -12.899413 115.698883
4.455480 0.672726 151.554626
-5.034780 -12.913789 127.043564
-4.519828 -8.574605 142.674194
7.636103 -11.082682 126.699211
12.578198 1.735977 107.053261
2.622672 4.321715 113.030991
-1.909302 -13.750247 118.221786
-17.220741 5.441970 135.319778
-3.935316 6.914490 153.310211
12.332151 8.866901 136.796677
0.098642 11.185630 151.551056
1.220807 9.866516 145.666901
-8.100881 8.938554 127.657967
3.460270 6.147468 116.838402
-13.356078 -1.828840 110.142914
-12.217488 5.185797 145.485748
4.978910 -12.664817 124.820831
-11.653861 -7.233303 123.204971
0.604720 5.331173 108.341873
-0.912373 10.282188 140.589859
-1.482395 5.534778 116.928299
12.060773 -9.723708 135.125076
-3.983744 -13.202691 119.592743
4.575653 4.677022 113.843712
1.265093 -13.429087 103.815018
-16.315395 5.347057 142.693054
7.550086 1.984548 115.493546
15.374542 -6.453554 138.619827
-6.862708 5.697967 110.401054
12.741215 -3.051492 118.764702
3.882726 6.873095 145.836349
3.743102 5.943343 117.125107
-2.749697 -13.123623 134.144180
3.725159 -12.956504 130.543716
11.032163 1.134906 146.527481
-7.379788 -12.228344 113.502556
-9.647207 1.384180 114.713806
-5.478626 -13.206784 129.557755
-10.001863 8.520555 132.957489
10.796150 3.108683 121.230698
4.164909 4.359093 148.059128
11.837082 -1.710336 111.655716
7.650602 5.155138 108.394241
-4.525519 -13.190549 135.172867
-3.380868 10.365260 138.027832
-9.996185 -10.603895 125.399132
12.697804 9.085550 139.890808
14.745202 -4.837737 115.288406
-13.677476 -4.132469 128.791809
-4.487998 9.993028 125.345245
7.020442 -12.153707 118.716087
4.604107 -6.055717 145.328186
-11.743010 0.411493 120.051247
-9.048799 -6.114765 144.435516
-8.679316 9.351848 131.285690
4.627576 6.486176 108.606758
-18.716383 -2.827567 138.269882
-7.757627 6.955399 123.858826
0.639108 10.175975 142.437286
-11.171283 -9.618552 134.530624
8.491491 -5.825061 146.592056
-2.495346 5.261068 149.945343
14.284348 -5.252752 109.522110
-18.552727 -0.294624 143.392868
-10.572341 2.773449 108.051414
-10.373674 5.707450 123.992897
10.297043 -8.428521 118.900558
5.849656 9.233270 142.208115
0.116530 7.240376 141.832611
15.262879 1.850448 144.248856
-6.856451 10.440790 138.300629
-14.772882 -7.672738 135.754349
-15.299722 -0.149962 144.201431
0.411938 11.031227 134.708939
8.398471 4.379795 112.323837
-16.485689 -2.150017 144.680618
-7.828424 9.512292 135.648285
-2.860772 9.153172 133.961639
10.354571 2.654557 121.399971
4.096319 9.098695 135.254333
-4.971288 -11.389626 135.291489
-13.461423 7.944069 141.836517
-6.915574 -0.922402 149.710938
13.805627 5.638931 133.907547
12.573604 -0.829168 126.030853
9.613996 3.109079 117.798264
-2.175736 -13.137667 119.169609
-13.640003 4.211812 134.602341
9.695420 8.347672 140.543488
9.634226 7.304287 133.783249
-10.264337 1.084041 147.216171
12.434959 -6.591963 112.039948
-16.266472 -2.213865 134.029694
9.705005 7.936970 124.378616
5.496836 9.308448 127.415512
5.790519 -1.296661 148.528976
-12.950622 6.550382 127.123482
7.288193 10.078237 139.309326
-12.424429 -5.139543 130.309601
-5.822327 8.249645 126.864571
2.214151 5.395475 151.921997
-12.244966 -3.881728 145.521698
10.435146 -7.893617 120.985298
-13.014750 -2.143053 108.146973
18.158167 1.569372 144.305588
1.402447 6.597771 111.699234
-13.974888 5.382662 132.846619
2.940991 -13.607778 106.388016
-12.886086 5.826611 128.518311
-14.236100 -1.755135 118.852989
-10.186546 9.402214 140.406311
7.179564 -10.786844 106.641640
-1.973956 7.351194 111.194069
6.983805 9.797488 133.429001
-5.639769 -13.441985 114.818169
6.327037 -11.447452 134.214325
1.467567 6.365462 114.600220
-7.513291 -12.200501 119.273277
1.997433 -8.444650 140.079849
8.404654 8.461548 144.450455
-8.276320 0.722166 148.491150
6.312722 9.396418 136.693863
14.675921 -0.814340 145.305008
-0.775579 6.661859 152.630188
-12.224155 -3.662807 126.833107
5.953002 2.174520 115.499321
14.577402 -6.178951 139.977432
5.091311 4.134994 112.802719
-12.561718 7.005625 128.191910
9.152149 -11.551636 105.038956
-12.992540 -3.381188 104.734177
0.980278 -12.959757 110.478836
-15.743571 -2.870913 144.714615
-7.195880 -11.681239 116.686035
-16.814245 3.736917 135.384338
2.249797 -13.691827 125.201347
3.667385 -10.880427 133.632721
1.349852 -6.323932 147.541580
-9.566624 7.154013 145.451172
-12.741423 5.736357 131.054398
14.030225 0.721814 127.068649
9.270695 -9.573002 125.055611
11.333936 -6.086005 123.869652
-3.704758 10.726214 129.464188
6.184474 8.647212 125.156754
2.463324 4.987568 112.479813
7.980200 1.359939 148.029480
-16.908543 -3.109055 136.652603
0.984248 -13.566844 116.042953
3.599022 -11.189074 136.360962
-11.564111 -7.838500 113.226669
-6.606375 7.787240 145.998901
-5.366410 3.648956 149.193741
-12.372112 6.524422 130.493942
-15.402060 7.042779 138.907288
-6.311479 2.079747 150.503708
-8.040642 10.129195 134.172668
18.593557 2.943075 144.937576
15.291472 5.415504 134.580933
-12.932874 -2.449582 126.570938
-13.170195 -4.026034 145.830109
3.267684 -13.841851 130.292984
14.019229 4.180599 133.833176
3.490306 -6.685782 148.244278
13.307438 -10.015848 100.920464
9.296246 -4.943700 141.451553
-12.936977 -6.582123 103.628120
7.690910 -12.295358 126.652451
5.460441 3.098843 150.949219
-11.394050 -1.339650 112.354576
-9.737622 -9.138683 136.181549
19.311546 5.698205 139.468414
-16.428345 -2.559376 142.049377
2.415564 8.432091 133.634338
11.357502 3.203666 120.092796
11.714827 -10.229618 102.792572
7.134742 -11.918217 121.285767
8.050022 -4.152023 145.560104
4.710149 2.853687 150.973312
-4.799384 1.326805 150.693115
1.525450 -5.608196 147.472702
3.927271 9.096678 140.242203
8.861562 -11.188843 115.203857
-0.041504 7.763516 153.654266
-3.190088 8.819292 120.152283
-14.768597 4.755131 132.044449
-7.356742 -9.707431 137.240982
11.240150 1.123100 113.487465
7.178510 -0.791672 149.421112
-8.935695 7.139909 145.013901
-14.896020 -3.004227 130.849976
-5.810628 0.591231 146.771225
-4.364236 9.545470 139.685776
-3.256646 10.310786 124.213028
9.116961 10.763806 131.787231
-10.641306 -5.434901 142.769409
12.672250 -2.171457 126.720688
0.471899 -10.774655 135.260056
-5.340452 7.498286 125.239784
9.055776 5.860912 119.328957
-11.977141 -6.384796 117.062141
11.105779 2.427191 108.067589
-2.850631 -10.523190 140.495117
12.009418 1.529818 123.269119
6.585727 -1.578516 150.623413
-3.493062 -12.572051 124.958282
-5.167735 -7.587483 146.135315
-8.027096 5.872932 124.639046
-13.262896 3.504023 128.426361
12.637112 -3.359038 144.597351
17.228333 0.762504 132.417191
-13.251096 -2.529145 124.511787
-5.266200 -7.752840 144.607330
-8.736074 -11.238438 133.776382
9.159380 8.873074 131.911453
8.637751 -10.822260 108.279106
-12.264543 1.967286 125.326797
-13.448286 0.571104 103.563347
4.325014 9.111654 140.614456
-1.362521 10.966660 135.594452
1.043872 9.729636 139.398254
1.642777 8.695020 139.666611
-12.200618 -1.347553 112.699059
8.719575 -11.402813 128.366882
8.410905 3.879624 114.481461
13.516496 -3.894932 142.946533
-8.141082 5.952231 118.296318
10.356251 -9.846323 107.739143
8.204581 4.073420 109.819748
4.016853 -5.407717 145.536926
-6.507504 -7.796515 144.910385
10.570296 -5.848412 142.976791
12.752888 -0.566459 114.244598
-2.443348 8.808150 147.473740
-6.823011 -10.064193 137.168121
10.754354 5.541439 127.811775
12.234998 -3.709901 146.084702
-13.830831 7.214317 139.175919
7.332714 1.474494 150.542603
-8.418792 -11.683519 114.212936
9.863790 -9.897703 124.169861
13.319247 -5.302616 141.738754
10.320595 5.267429 124.053268
0.357741 10.680293 139.241089
-10.343936 3.195499 115.586937
13.775043 -2.981421 121.677979
4.292225 4.220215 151.676544
-7.016625 6.946096 119.647751
-0.603911 -13.172995 130.365326
14.401113 -2.264014 111.058052
-8.230145 6.975550 143.780136
19.416035 -4.305427 136.487885
9.833241 -10.283628 119.752190
12.236439 -9.674915 135.036850
12.724818 2.152941 129.300674
-2.280181 -11.368036 135.984207
5.948242 1.269398 149.850891
-14.582053 -5.022040 131.729645
13.442163 -2.817981 110.924690
-7.425328 3.769131 146.970612
3.248457 2.636369 151.532288
-9.660735 -10.021563 110.760971
6.995439 -11.306894 120.082573
11.930145 1.320526 118.915611
-11.107201 3.330370 105.871849
-1.646621 9.432730 144.520325
7.048667 0.347371 149.217239
12.724422 -4.655542 105.501884
-5.457580 8.808581 134.730225
-0.413633 6.578513 112.066322
9.524952 -10.874152 113.874802
-4.312791 -8.707792 143.389709
7.618445 2.938730 115.061798
-0.706988 11.470390 131.014587
6.238186 -12.435968 105.954369
-6.787321 -12.485663 120.680969
-12.939936 7.936897 135.308151
-7.391114 -9.971550 116.233459
-12.212530 8.331980 139.822372
-5.290997 5.134264 110.921165
-10.365011 5.431643 126.048950
-4.780051 4.216908 108.179596
1.934353 5.643222 118.760857
-4.549047 -2.889030 146.143127
-5.685544 9.191714 105.337372
