ply
format ascii 1.0
element vertex 2048
property float x
property float y
property float z
end_header
5.451621 6.955771 121.430733
-5.020432 -16.090775 140.791306
-7.247537 -0.209412 148.973709
-3.234504 -12.919382 135.746445
-8.109187 16.753759 144.091919
-4.291176 14.177303 137.693497
-4.964249 6.496638 109.908455
-2.604159 -17.107389 134.354111
-9.266908 -13.349579 140.385559
2.489199 -13.026850 125.777855
-17.634054 -2.078848 138.053574
-11.889945 0.088979 121.828049
1.365274 -10.409645 101.379951
-13.779353 -3.259004 134.014221
-2.825482 -22.603008 131.498901
-7.573733 5.563326 115.675140
7.906717 -14.065733 136.329865
0.693248 11.077792 146.846161
-13.145484 13.219168 150.215454
-3.798445 19.520885 144.685165
-12.262182 -8.838391 137.001358
-10.793680 4.269409 113.444122
-4.850883 4.901192 112.665520
5.454319 -7.745215 141.192932
13.787182 -7.616863 107.065926
-5.906200 16.046528 134.876495
-9.217065 12.362608 136.677597
-14.387158 -3.202822 150.062958
4.187622 -12.902422 112.191582
15.092768 -1.167541 144.989105
-13.678364 -6.921667 137.573212
1.561505 -9.821900 139.383560
-11.898142 -11.065750 130.318558
-9.484521 10.667124 149.526794
-5.733726 -11.497143 112.379997
5.993180 -9.453547 118.504959
-15.764222 -3.127452 151.950500
3.991484 10.085714 152.174652
-6.883996 -16.754942 135.253952
-14.663569 2.555124 134.414307
3.124555 -11.054194 109.138954
12.542802 5.407431 105.295700
-6.373639 -12.183735 141.795273
-6.728323 11.657127 149.028992
15.308340 -6.305275 104.015251
-10.533006 8.530026 154.214462
-5.740649 -14.326837 125.437004
-11.259484 16.399826 124.046272
4.395996 7.156699 120.346451
5.552944 -11.018692 125.371147
6.868052 7.406136 153.614182
-8.621140 4.329714 112.790688
6.951904 5.370377 117.807686
6.388142 7.194347 109.091202
-13.404123 -7.545140 107.989555
4.318082 8.200935 104.124771
3.966601 6.224397 153.672195
-3.561294 -14.424530 124.412453
13.218513 5.032810 134.428360
-1.939185 14.677255 142.046783
11.272720 8.131441 106.477760
9.864802 -0.286942 146.909958
-1.254998 14.542407 135.066742
-12.500444 -1.595128 146.947098
-6.700778 -15.076953 135.670639
-11.666521 7.136360 128.374832
-9.768784 -8.952045 104.023041
-5.354168 17.473291 147.370728
0.120448 6.400434 116.060394
2.847844 -12.394106 127.019760
12.624897 -2.528275 120.120697
4.360151 -11.688362 113.197685
-2.703632 18.688791 143.713745
2.302858 8.440564 129.179565
1.731026 -17.361961 128.143707
-9.230496 8.102344 149.966293
-9.374734 -0.251860 150.589539
15.339745 -5.752859 99.767693
-16.199883 -3.933999 104.578705
-8.192426 5.351505 121.850250
-3.571100 14.754238 146.742676
-12.041066 -9.709342 141.049225
-11.589187 -8.515818 114.771225
-2.148257 10.359565 147.316055
17.326719 2.165426 102.822136
-3.643275 -10.353386 123.905945
-12.970867 -10.460526 140.684433
-8.712469 -2.787192 147.453125
-8.142798 -11.483088 120.382767
-10.014607 -13.290886 143.651138
4.235173 10.634970 132.538345
10.556204 1.444085 123.520424
0.400514 -17.582405 129.680634
-12.072401 -3.276716 118.169868
9.347110 11.731505 133.821442
9.622581 -10.678689 127.948242
2.671682 7.597497 109.525826
11.673554 2.801895 108.805252
7.944603 13.407691 139.829865
-8.673314 12.632371 147.968185
-8.994199 11.310434 136.840561
-9.326290 -0.816289 150.093567
-4.773720 -12.600830 126.510269
0.872826 -12.248410 134.919861
8.518840 -11.628446 124.487610
-2.045889 -6.295491 141.347717
-6.417886 -18.443647 135.480392
-12.359298 1.579551 150.730316
-5.913176 15.437587 133.225357
-6.473526 -19.581732 128.929398
-13.521002 5.724316 109.041077
-9.805764 -12.355709 140.164917
-3.493832 12.786098 100.679222
11.765721 -8.850031 125.062622
13.100016 6.052041 133.969971
-2.399642 14.649335 144.753586
-18.956392 -3.582580 103.652931
-3.064693 13.239008 143.563019
-5.713476 -5.416422 140.735321
-0.259127 4.683561 120.943275
14.413334 1.589797 134.291229
-4.214521 13.129779 140.928635
-3.609002 15.999784 138.086456
1.801746 -17.419453 123.711021
-12.910372 9.098429 129.569382
-7.365550 16.852631 144.001236
11.255067 -7.133983 118.141212
-1.938732 -11.724075 131.390121
-11.045938 -19.708055 146.134979
9.836007 -9.382683 104.796600
8.073352 3.313649 113.701492
0.244542 12.474213 133.254211
6.433861 6.171883 115.435387
-8.862532 6.014164 154.092621
5.636840 11.832813 101.530357
-6.738591 12.525167 147.077789
-15.460052 -7.697373 102.714111
2.227145 12.381280 137.482620
-5.037422 -18.330248 139.896591
-11.700535 7.746899 129.771805
-9.522782 -10.344077 127.802414
-8.651499 -21.355373 131.409378
-14.609617 -10.606940 140.179703
-12.185246 -7.419514 130.060623
-1.584708 -11.373651 116.752029
8.915648 12.247850 147.819839
5.644280 -11.719193 124.404991
-10.818718 -10.355935 109.949036
-13.823444 -6.994407 129.879120
-12.996112 -6.101469 147.195709
10.383309 -9.761558 138.327393
-4.353664 17.443354 146.738419
1.655509 12.757516 140.826248
-15.585518 3.248665 129.601471
-1.156605 7.916318 124.042870
-2.143115 15.069757 142.424332
9.693073 -7.388431 140.770050
2.048383 11.435510 138.050598
-12.527384 10.679172 139.157715
-1.650891 7.776153 107.698898
-8.996042 3.535658 120.067337
-10.736294 9.443496 131.693817
-11.047695 15.205405 128.995804
-3.006354 9.121602 105.342957
6.475884 -10.629650 122.925949
-13.607927 1.055362 128.557373
-7.297473 -19.344078 133.221146
-6.699063 -13.671710 140.590912
-3.525835 -12.514930 136.171371
-10.226933 9.009405 154.132370
-5.815475 13.204132 139.316284
0.568902 6.918302 123.985168
14.616763 -3.663224 131.181717
9.705845 -13.793288 129.660416
-8.905095 2.281050 152.232391
-4.745245 -12.280002 135.866074
15.405088 -0.113038 137.505432
-11.874547 -9.184649 129.692444
-3.223047 12.625592 141.260269
-15.018070 -3.108407 109.515327
-12.735223 7.339400 126.245041
1.709362 11.759416 134.583847
-0.633175 12.938525 135.118744
-8.603955 -0.933033 152.011917
10.397700 -10.203423 122.119354
15.522355 8.844436 133.827225
-3.335668 10.357452 132.878693
-2.194191 -12.731193 133.580002
-6.105989 11.033477 103.571945
1.083926 -12.217518 127.470230
1.422639 -13.264323 130.571777
-6.616936 -20.677616 138.269257
-14.490973 -7.500971 135.970490
-12.341351 0.804112 119.377716
-16.784065 6.998020 139.741531
-6.910747 11.796207 143.173645
-2.461900 8.987811 153.109299
-17.440741 -2.499076 104.938736
-3.833498 7.007782 122.724609
-0.350868 -19.973480 127.899628
-9.507950 11.372152 153.797028
-17.443617 -3.922671 151.204285
-12.316528 12.241128 149.429504
4.723823 6.128862 120.482323
-6.135079 4.484089 118.762344
7.471369 -4.832988 143.034119
4.552396 -12.486842 135.758484
-6.939368 14.198198 139.025253
1.166974 14.278745 137.151764
11.864137 5.054439 127.176643
12.166975 -1.809763 146.731125
-6.922297 -22.332466 139.108994
-2.334700 -6.224770 143.303497
-5.047028 -16.953484 131.502701
0.791682 17.449631 140.394562
12.700175 6.436308 102.806854
-14.462667 8.311265 150.008530
-13.685970 -3.549150 138.644241
-9.538321 8.215109 102.803703
-4.663707 -11.191512 107.247375
13.292071 8.327169 130.511520
-2.411510 -9.070478 139.994766
10.589469 -2.923334 118.019699
-9.600740 -11.257744 143.700241
13.351285 -0.810738 149.204849
-7.181314 14.345623 130.236923
-3.661015 -18.831881 124.590065
7.271266 -12.846741 135.856369
-6.952512 11.765404 139.856628
-12.654044 -9.811693 140.759979
-13.772416 -1.006837 146.003372
13.399266 -7.411666 104.645599
-8.252186 -3.968142 143.948380
-0.018868 14.589291 140.543472
12.196994 -9.425222 104.045174
14.207292 -6.249610 106.867294
-7.037082 13.727533 142.223969
-10.661305 -11.356775 140.008667
12.445362 -7.178875 111.766693
0.180212 -9.176773 138.459167
-8.009562 -10.270768 103.876129
-4.354375 14.049006 139.577133
-8.413551 16.492657 131.750183
-10.207705 9.342479 102.857025
-7.577502 -10.721512 126.970413
-5.616343 13.970002 139.554047
-3.574185 -12.435124 127.796417
-4.810942 15.016650 139.582336
-6.101470 9.558420 152.217972
-2.495515 8.422262 106.115501
13.458442 -6.807434 127.639687
14.157900 -3.234541 141.477341
-11.759829 7.544832 152.160553
-14.029976 -2.490625 111.535072
-14.862663 4.462891 151.936859
5.378012 10.419166 102.694794
-4.330388 11.983438 142.915710
7.515167 5.373931 112.002518
-11.298005 12.114798 130.354874
-10.218393 14.066857 127.331802
-8.984269 11.869133 129.637619
10.544540 -8.365658 106.708038
-12.776448 2.029155 110.919289
-2.700422 16.973465 144.231857
-7.295259 -16.223936 145.544403
-14.488292 3.500673 130.791840
-2.786694 13.651842 144.637939
-1.900091 4.893219 113.951958
-11.711021 6.813047 125.704437
-5.091864 -10.600186 112.245583
-6.111000 -10.789609 112.282829
-5.571295 -11.776037 105.834763
5.537694 -2.609281 144.121323
6.422867 13.002144 135.475708
-6.807013 -14.640698 140.166611
-10.375617 -10.293479 137.929779
0.024151 -14.149192 124.289841
-6.845644 -11.435348 108.486206
2.838776 9.006871 106.773102
10.611812 4.058306 117.106400
-4.667353 -18.684484 134.269211
-9.699860 9.733883 129.491013
-1.721998 -13.345447 109.178314
-8.142341 12.216859 136.178467
-4.380667 18.575354 131.506317
12.082849 0.458639 115.555763
-7.873857 5.476599 116.903885
-5.180452 13.180885 148.784622
-12.714949 -6.436490 142.519257
11.570450 -2.256540 113.247276
-10.638109 12.818070 128.533005
-13.035663 1.136294 125.339294
-12.817577 -7.889326 142.228302
-11.594212 1.918642 120.534492
17.333849 -4.002197 104.087845
-10.015108 10.250232 126.773384
-9.814999 -13.211652 128.644150
-1.195533 -15.019372 127.715508
-9.614255 -11.123604 129.376648
-1.150315 8.322431 100.855713
13.969860 3.042141 108.192696
-10.961677 -5.476979 147.153595
12.513119 -4.303265 120.209656
9.840547 -11.412551 131.882599
-1.804003 14.799253 142.727478
5.762036 6.605234 115.756485
-7.537798 -7.668509 143.660416
-12.812462 10.805047 139.589203
-8.183394 -17.085609 143.083527
14.995628 1.750118 106.397209
-15.528894 -1.521730 133.826080
9.561288 4.780748 124.894806
13.431825 -3.595035 127.055206
-0.541979 -10.887484 103.037819
1.235189 16.318527 142.576630
0.045092 -16.827076 127.734863
12.520827 -4.428510 116.310905
-7.571530 4.108044 114.759193
-9.781359 -11.983805 135.239731
-8.180058 -16.393284 143.871552
12.050123 -3.463350 144.426605
-16.222589 3.506822 101.852936
-14.629185 -5.551910 110.408051
11.667639 -1.865316 123.660454
-15.047036 2.166052 102.564064
-5.837558 -12.495907 110.631798
-16.997238 3.482698 102.385620
-6.844977 -2.786998 148.440842
-9.001961 -11.861993 137.896164
-11.129777 -9.602458 114.696922
7.164108 7.633584 106.931427
8.682391 -10.126409 121.561028
-6.869678 -16.467409 138.267899
-7.538899 -19.235233 133.892670
-7.387966 8.788064 151.635040
13.991249 -5.126031 121.571938
-8.999873 5.043927 126.972694
11.982236 -8.858328 108.520454
-4.709095 -11.091697 137.440689
-4.836368 -12.810478 127.914978
-7.101789 -7.808833 140.502808
-4.638972 -13.666644 138.579727
-19.545311 -1.289313 149.607117
12.972628 -10.024978 103.841545
9.923418 5.031617 110.238075
-11.591358 11.303100 140.196518
-8.677999 4.578723 116.817871
16.085644 -5.220926 105.667664
3.273413 5.251337 116.340088
9.810234 -8.017871 117.394943
-12.963987 -7.280159 124.909645
-7.030916 -12.606606 124.265114
1.492073 -10.430579 137.874603
-9.823645 14.355874 128.497726
-9.011355 13.620619 147.133667
6.788927 8.820535 100.636208
-6.358688 -17.855343 132.524399
-4.101216 -11.951435 124.206001
-10.002320 8.844666 154.051254
12.599203 -8.127831 121.186638
-0.224598 11.881190 148.501266
-4.763065 14.574241 139.664963
14.326739 -6.151120 107.068932
1.321390 8.456864 125.123589
12.267948 -7.278424 116.979187
-0.648451 -13.072878 123.497940
2.838464 6.829860 122.852455
-5.372703 -18.973143 136.693283
-6.314881 -12.572035 127.326538
-2.368539 14.316439 144.153076
-8.806007 -9.198053 110.698044
0.870379 -11.041526 99.324310
-0.917377 12.127369 134.538559
-4.864785 17.206873 146.145264
2.633674 9.810839 149.864609
-14.870770 -6.456958 134.988831
-0.790533 13.811820 140.291824
13.866938 -8.438110 99.238617
9.715240 -9.273423 114.969872
13.099767 -5.183637 117.626030
-12.186510 -0.627702 124.817627
-9.833128 11.764074 145.179092
-3.513999 -16.070158 138.005386
11.115389 2.656454 124.434166
14.025694 -7.921751 134.842789
-6.311824 9.024193 128.423218
-0.282055 -11.192762 137.672104
-17.873886 0.161556 101.053230
7.165722 11.706886 132.452896
-11.809754 -14.101924 141.950058
-13.138506 -6.042254 108.343491
12.309797 -7.844484 136.559906
-9.239525 -3.184294 144.695221
2.017376 10.086096 132.150574
-7.781783 -21.750774 136.861404
1.289842 -12.967947 135.397888
2.930883 13.447525 101.943504
11.629369 -2.877846 141.910980
-0.165435 18.062635 140.624039
-8.941238 -19.842270 134.936020
11.841129 7.863605 103.131058
5.311087 -11.526668 100.201675
-15.585886 0.271695 136.603012
-13.424931 -3.389404 145.784164
-6.495238 -7.571780 140.248276
-1.100201 -8.289552 139.515335
-10.058469 11.271333 127.969566
-7.270664 -18.130577 132.794388
-4.714993 -13.498955 123.560196
-13.584079 10.293162 137.032593
-6.756457 6.399597 152.416489
14.312548 -0.887467 127.970886
8.171371 -13.018903 134.562851
-4.224601 -20.489035 139.871185
-7.033251 12.695408 153.433044
-9.105185 10.324739 100.601425
0.629243 -20.454779 126.417290
-8.803549 -9.900247 125.784142
-10.510619 12.265333 126.683067
12.501283 -11.409872 132.105270
-8.246061 -10.753702 136.519135
-8.155261 10.497128 153.123810
-6.896615 -14.520927 132.324997
-11.064898 -4.233945 146.152161
-13.002020 7.547375 126.087677
-11.737924 -12.025440 142.626007
-7.049404 -13.655644 144.717545
-10.527934 4.894366 128.484741
-12.456305 11.615265 140.092682
2.055240 10.978367 134.451355
-5.927537 -10.496531 141.829224
1.767279 -12.755030 105.599907
12.849277 -7.670145 107.524223
13.725415 -4.624385 108.038094
-8.782341 10.278247 127.051018
-12.883180 -9.509739 132.319260
-11.250560 -7.887147 118.812439
-14.905378 -2.611931 139.752579
-4.411016 -15.413653 134.188477
13.801064 -1.787555 124.408493
-4.501619 -12.614740 139.288300
-0.735596 -12.196955 106.430260
8.814887 -4.380520 142.431473
-10.293759 3.225314 153.343445
-4.236915 15.042550 146.981491
9.491842 10.333368 135.148590
15.776425 -1.362541 140.660889
-6.309807 -10.900368 137.673309
0.388131 -13.527637 126.997292
-12.407579 4.156071 108.792801
-9.425428 -4.115992 144.198822
-7.961491 13.195781 134.707825
13.623741 -2.117680 108.535278
7.639064 -11.975744 105.261620
-4.508758 5.981289 113.960297
-2.618551 10.027819 130.557968
14.146699 -6.890121 107.382217
8.104595 4.410316 122.389908
-4.834871 15.788254 137.102203
-3.833766 6.730872 111.532295
-12.445966 -9.430846 141.987259
-17.393921 -1.161582 100.344246
-8.749699 -7.821666 140.355972
3.710676 -13.045111 128.631805
-9.926113 -11.238199 101.449913
3.701360 9.874016 106.550499
14.143551 0.734017 132.806900
-7.250781 15.628876 137.436295
11.243506 -1.616548 145.647736
-11.751160 12.069963 145.615784
-5.649925 -18.870401 140.487961
-14.461305 7.573765 152.139572
10.019341 -9.522427 123.001678
-5.321861 -11.357203 113.410164
-5.380486 13.230371 99.982758
-12.704934 0.099791 127.304115
0.459824 10.451459 131.894852
-13.559443 10.442306 143.097717
-4.616608 -13.226619 127.012337
-4.709973 5.001623 120.487030
-2.702977 15.109739 147.070541
-7.047391 6.965884 112.485062
-13.589864 -3.824964 150.296371
9.881072 6.679603 130.393799
-7.201725 14.338757 135.984039
-2.999825 6.575669 123.921120
-11.576324 10.298885 125.800140
-16.782639 -2.364863 106.034378
-2.461489 -14.678041 132.440247
-0.778092 -11.887403 124.237831
-9.828185 9.789893 130.417328
-10.407791 11.122939 102.708336
-17.879169 4.040166 100.692879
-13.442559 6.105382 105.984665
-9.073227 11.861613 132.056381
-8.250800 2.451037 152.113678
-4.718668 -17.738152 138.655441
-13.803230 0.816208 111.629059
-2.568481 5.335122 115.038445
-8.210224 17.403046 145.504440
-9.515294 4.817908 118.719940
8.283351 -12.533450 130.574493
-3.297615 -15.619081 131.034714
-5.729507 5.362868 121.678780
8.655609 -9.058907 141.452377
12.895560 -5.196031 140.767136
11.481443 1.349783 118.462166
-8.226539 4.775377 117.229256
-11.817739 10.921981 139.137894
5.759936 -11.579807 138.513321
7.002875 11.386477 101.806236
4.866828 -9.901397 101.098839
12.826418 -6.313653 111.291367
-10.282328 -8.657642 119.171288
-13.508286 8.327059 136.935654
2.065847 5.038192 114.819557
-0.301796 -14.324587 125.927025
-2.645952 8.360485 123.285736
-12.194613 -1.712726 113.919739
-3.571138 -12.922043 137.460449
-1.189802 10.224414 102.475143
1.086834 -14.355998 123.253616
-4.519126 -11.401853 119.609459
4.655605 -11.174839 109.017799
14.400578 -8.403688 135.651169
-13.082463 -3.100299 140.600433
14.407283 8.951283 135.853149
-11.388223 12.910434 129.953079
-7.826769 -9.610928 142.927628
-13.792156 6.728663 128.258743
-2.295991 -11.369160 102.120483
-12.156687 -5.290902 149.643906
-4.700395 -17.317394 141.994446
-10.067321 -5.027417 148.874100
-14.353845 5.589086 151.896790
-10.503458 -12.062962 128.851059
-6.109667 11.212271 148.319794
14.773416 -4.427341 134.614944
10.361566 -8.671741 137.844559
-14.169940 -0.653660 113.077713
1.917599 8.259947 150.560944
-12.425227 6.145679 126.113472
11.296723 7.397223 130.316803
2.362866 11.811257 138.328018
-9.520852 10.793187 149.519806
-15.891153 3.828415 151.420517
-5.795248 -11.265717 139.002121
-6.732467 12.847250 143.806656
-11.564282 6.346055 129.103256
-9.785453 -5.995386 143.964584
-15.879341 -2.645773 153.049042
-5.391912 12.635011 138.698746
-6.170306 11.000988 129.813278
-6.674170 12.139050 145.265762
12.695260 -4.457476 139.758408
-2.963637 -14.379986 130.558167
-11.401884 -12.250505 132.287811
11.004775 -8.007338 106.660454
-7.728143 -11.721834 105.728065
-6.135207 -10.553074 111.579460
-9.049608 -1.607918 149.566055
-9.110208 -7.407421 140.601578
9.745197 -6.342233 117.242653
0.342112 11.553173 139.001251
-4.110240 -11.277764 125.807053
-10.072385 14.607912 133.165833
0.930794 -13.029327 129.360428
13.551971 -7.955553 107.000740
3.000766 -11.922609 121.850616
-18.097355 -0.320551 99.973457
-7.774988 13.540389 147.987930
-8.466530 11.468244 136.698303
14.170662 -1.975726 108.975174
-4.487264 -16.528147 130.533478
-12.023226 0.808848 152.522247
8.262196 5.720834 151.238373
-0.430065 -20.226263 123.925354
-11.582582 -13.522495 140.315674
15.163227 0.521859 139.953888
-14.133705 1.877499 133.088669
-0.909669 -12.470762 127.067947
-6.012448 11.266997 131.747284
7.225931 5.871554 123.091568
-13.162677 -3.784271 127.251114
-12.504124 -6.488773 138.052338
-1.981038 -20.223391 122.836220
-9.359359 4.674945 153.302719
-11.329866 7.853755 130.803955
11.964260 -9.665261 121.598244
13.614941 1.968758 131.960800
-6.217715 -13.546239 123.604645
8.731252 4.322684 113.355522
-0.957154 -14.068710 132.399475
-16.761618 1.212349 102.256569
-4.970524 -16.939150 126.179924
13.784433 4.410478 127.127159
-16.765600 -2.903923 104.329018
13.030127 -5.558281 109.776596
4.440643 5.445763 110.662689
-9.542536 2.579777 153.710358
-5.037364 -19.783737 139.081451
3.996410 5.674363 121.860291
-6.806086 7.889113 126.726265
-13.759693 2.252900 152.778259
15.021652 3.393160 106.271057
9.111893 0.928929 150.930481
-4.676911 14.708807 134.390335
6.611086 8.705925 106.709274
11.884097 6.321840 128.654373
-16.676176 4.745323 150.193604
15.437706 -4.294827 139.298508
-8.272079 -19.716619 131.057709
5.859805 -8.502978 140.471893
-13.368611 6.031061 101.238678
5.403085 12.330586 139.724503
-12.863173 -5.855031 141.025772
-16.397419 1.442991 102.233307
5.594736 -13.625891 133.539047
14.386744 -4.816897 130.038452
14.556240 -3.783037 111.097687
-2.299299 -12.633757 132.008179
12.749553 4.685788 106.347710
-8.449839 3.561302 115.510742
-11.314189 -12.378378 144.349655
-12.689220 -8.762753 103.014481
-12.975492 9.794847 153.921890
-3.000095 -13.486629 130.866241
-8.834202 12.048103 138.355118
-11.310125 -7.792994 137.803879
-4.654285 7.283144 122.322983
13.359631 -10.843632 135.753983
-2.685500 6.616306 119.410828
-6.775584 -8.582819 145.048172
4.284317 -10.178939 138.511810
7.915703 -11.753205 121.738228
-12.628985 5.639749 129.541946
-16.884302 -1.555099 146.679382
9.487266 -9.079338 117.929214
-7.262702 -12.762600 129.755692
-6.293190 -16.956652 136.087769
-0.643760 -13.293919 137.744553
-15.306545 -2.041601 129.309967
1.066005 7.306974 121.672653
4.227057 -11.206455 124.402641
-14.084775 7.333583 133.273956
-12.696079 -7.997698 127.744843
-11.054862 -1.370059 121.603760
-1.811873 -3.910775 145.228455
11.701902 -8.805267 111.054886
15.733799 1.997403 137.139603
-10.455660 -15.170580 144.371567
7.203204 10.655084 134.153214
17.495264 7.677135 135.452591
-16.047129 -5.394349 106.351990
2.909883 -8.804700 141.928894
-0.099205 -19.299259 128.828918
-2.513212 -13.231142 127.684067
-4.834298 13.613134 145.974792
2.808614 -11.172858 119.492355
-12.227944 -5.747150 126.097832
2.151410 11.960127 145.622818
12.008463 0.418060 122.629639
17.929516 -1.513514 102.850746
-10.524935 8.681541 126.253891
13.324712 -2.156422 122.599228
-12.126776 -2.683650 150.903992
-13.446936 1.412961 128.064270
0.633405 14.979179 139.935547
17.805029 3.257524 103.120262
-10.168300 -3.690368 119.541512
0.556788 11.260160 132.992020
-11.014177 -8.802379 141.559479
-7.249364 16.871996 136.071686
7.534206 -12.927771 127.896454
-1.018795 -10.291468 117.593987
12.497108 -9.422620 107.202240
-8.752759 -10.324418 104.826370
-11.269693 -7.372840 129.042847
15.815236 2.548759 106.156349
-2.689078 -15.403449 130.186508
-13.789232 -1.612814 136.038132
15.607889 0.136230 133.899963
8.869114 10.456622 151.336029
-9.189073 12.412712 146.112869
-1.052135 16.037226 146.095932
3.372638 -16.006306 123.097748
-6.292935 -19.907907 128.587173
-10.423815 -6.455556 143.413895
-6.396156 -18.361975 128.292755
2.488271 -13.611808 121.143829
-12.663973 -5.783448 140.570572
-0.670512 17.828962 141.524582
-7.543333 -11.604548 124.411781
-4.210846 12.263313 144.435715
5.973126 8.282738 151.764099
-7.966606 14.443268 134.331848
-3.589884 9.440746 126.767204
10.883345 -6.002789 112.589912
-15.173655 -3.050039 107.346191
-15.997383 1.740989 125.082268
-6.475671 -14.516753 137.897385
-11.115592 4.909191 127.580055
-13.430372 4.825956 104.412781
-4.396676 5.903766 111.851501
-11.864247 -7.034759 110.823288
10.604598 -8.547875 137.711014
6.847827 12.745432 136.430313
-6.286329 4.908158 121.238747
-8.134011 -20.597549 131.265350
-5.557857 15.953578 133.308960
-9.368817 7.229695 127.737495
-0.480739 -13.359640 130.742355
-9.526560 10.905481 143.962341
-9.818199 -4.320745 148.735260
-8.898776 -9.486640 113.977478
-10.522272 12.098615 136.042526
1.730811 -13.041419 133.560898
-1.000220 12.382936 133.672638
-14.921735 4.371466 102.533371
-13.385239 8.883210 102.157730
3.516040 6.460871 117.526901
11.082922 -11.459201 127.349625
11.801791 5.131071 126.139977
-12.895613 2.995880 112.137115
-8.513855 12.991708 144.844437
-3.951277 14.652170 150.573563
-13.656545 -3.612911 107.740875
-1.366970 11.314040 140.982620
13.218149 -1.728475 144.178482
7.331655 -8.033415 142.455566
-3.927760 6.124593 109.792877
-4.955451 12.745174 142.947861
-13.970961 -10.923079 142.118973
-11.158461 -5.961770 145.249191
5.338658 -13.079162 110.291176
-4.566122 5.125472 116.026787
-13.457025 -0.649915 152.928040
3.507409 10.069609 104.186600
-4.512253 9.278855 149.998596
-6.962731 13.994521 135.193192
1.983315 9.065405 109.638748
13.222389 -3.772874 140.762939
-1.537341 13.012101 136.989960
-12.213619 -10.720270 144.367981
-8.314230 7.681744 150.278152
12.495326 -5.417491 112.651794
-9.051657 1.186608 151.670959
-0.834608 -11.858804 110.130447
2.132744 -10.711637 114.161736
12.990883 -10.931952 135.998383
-13.277300 0.079287 152.471588
-13.075771 10.528132 150.103317
11.983456 6.816027 103.869362
-13.167412 -1.040912 118.138145
15.078200 -6.698205 103.981789
-6.647829 17.035759 132.224442
-15.894694 -7.607764 143.055222
1.237413 13.114970 137.861511
7.537964 10.356362 101.948524
13.920541 1.811562 128.378296
-0.808867 -14.266667 129.212402
-9.503903 10.473883 133.819427
-9.205509 4.585819 153.244827
-8.249416 3.012986 152.523483
-2.733421 15.176183 133.468826
3.012582 6.561204 110.354317
10.067218 -11.812274 136.821167
-10.245355 -7.346228 97.103355
-16.552258 -7.845079 141.769989
10.913058 6.850619 107.173431
13.613201 -0.198800 123.079910
14.028414 -7.190270 107.507767
-3.900909 14.605607 137.985703
-2.123051 18.067257 144.836487
-12.451555 -0.570024 113.945625
-6.008764 -12.322155 138.199417
-16.563231 -7.311460 102.890350
4.862398 -12.350759 131.031860
-2.711087 -12.940635 133.812012
-2.060156 12.504963 145.324585
-7.806661 6.910549 153.596130
1.292581 6.144739 117.393883
-4.992453 -22.870274 128.703705
7.119020 -11.861314 107.425087
6.381103 -10.721799 137.221924
-1.373256 -7.048386 144.132019
11.722953 -9.112860 122.828026
14.282349 -8.528783 133.318954
7.229258 -11.378164 121.100616
0.161520 -7.482574 141.490479
-4.503955 11.573565 131.988556
-6.622528 14.132222 148.176712
-8.193074 14.069269 145.349136
-0.716135 11.771599 143.159393
-3.926211 12.501853 142.475906
-11.026142 7.894552 103.660187
-8.461481 8.387611 127.960915
-3.950679 -12.825182 136.245224
-2.660916 -14.492058 135.231918
2.839258 12.393621 151.279465
-9.356386 -12.489152 143.554291
15.401288 -2.900714 137.501419
10.543100 -0.226446 118.887405
5.061312 12.228477 139.898178
13.391496 -10.023388 128.764816
2.937150 10.572643 152.008850
-2.784125 -11.491469 113.743736
-14.671287 -0.681362 126.792336
-14.054193 -8.192079 137.887909
-7.594308 -11.145582 110.740738
-13.785978 5.746600 138.148499
3.733056 12.216650 135.968979
-9.350401 -3.907388 144.246750
-5.117125 13.612085 151.143875
3.987401 10.186229 130.916580
-11.628202 5.264237 127.618187
-3.155776 -11.481309 102.945580
-9.347207 11.344094 145.166672
-10.395470 -7.438314 141.672714
14.447239 -2.904913 133.650238
-12.650784 1.397347 153.671402
-10.254972 11.801601 138.695389
-5.705109 10.197829 152.061188
-15.708529 -1.358699 142.759125
-6.584970 -13.647661 141.193008
-16.862780 -3.476277 145.369400
-14.136961 -1.509736 152.404327
-0.734964 -11.826169 100.236153
1.084437 5.234203 116.926689
-0.273346 17.648766 141.471039
-8.414611 -12.919828 142.431808
5.068531 12.206581 133.975876
-14.319418 -0.634082 113.027550
14.959288 -0.620615 104.346725
14.785731 3.277885 103.462296
-5.974358 15.242365 148.073639
2.322835 -12.725574 132.380661
5.381371 -14.536827 133.662109
-6.304076 9.925269 152.287704
10.709499 -9.438964 119.574814
10.718489 8.716824 102.072937
-8.036562 14.707491 132.130386
6.511912 -10.986878 117.499924
-6.968202 -10.486479 143.694534
9.491243 4.379878 109.949677
11.762865 -5.819399 138.791046
11.316110 -7.813259 100.365219
11.904678 -0.736375 120.149040
7.480674 -9.704132 102.266258
-4.729808 -17.225142 132.834930
10.134411 8.818261 99.828995
-8.288734 -17.386971 139.677261
-13.665463 -10.143976 133.927750
5.513070 -9.024708 141.126678
0.207033 13.340296 140.934341
-13.589079 -4.047213 113.921822
-7.954070 4.573899 117.165222
-11.769058 -13.777641 140.149719
-6.972054 11.712054 130.963211
-8.560979 -20.462862 133.921371
-5.150304 14.368550 137.899094
-3.315592 -13.398685 124.599419
-4.439736 17.814213 147.334030
6.278149 -6.793965 142.804047
-3.034374 10.178161 133.426270
-12.021739 7.316259 153.101013
-10.044405 10.504245 150.036301
-14.966159 -6.777645 101.134560
-12.802189 -5.530746 115.556328
-13.646770 10.388213 149.095474
-2.016888 9.533423 127.830162
-10.078695 -10.234285 114.997322
2.545700 12.350216 144.705551
2.833108 9.594225 105.664536
1.190808 14.668384 140.077911
-4.677933 15.643540 147.901627
-5.871625 -18.057310 131.959671
-12.490940 5.472476 131.583176
15.994081 -5.062257 98.811424
14.923717 -6.833366 134.476379
-0.830965 -12.547406 107.596962
-3.946993 -15.282061 133.214584
-13.910348 4.793807 130.653366
-6.730622 14.115637 151.624802
9.866970 10.216625 132.917191
-15.379134 11.263314 149.180145
10.165433 -5.075011 143.738037
3.181541 10.032983 129.999771
1.773107 -12.355236 125.684921
16.397661 -4.267676 133.039200
-12.883655 -8.147840 102.014168
11.303220 -0.416575 117.317459
-0.065384 11.020382 152.026245
-12.233086 -17.168203 145.466812
-12.638398 6.559174 98.620277
13.728257 -5.858023 108.855110
-12.398011 -3.099615 142.890488
-2.466082 -15.676958 124.154182
-5.718661 -18.687481 141.520615
-2.959630 -12.865119 114.751610
11.854523 -7.965128 123.620819
-0.784405 6.665277 124.737564
-10.402840 12.007139 145.487122
-12.380758 -5.304688 119.769272
-17.735596 -10.790245 140.716583
11.407778 6.831851 103.627129
-11.553670 14.371803 147.834473
-5.116717 -17.035414 131.476013
-4.965518 14.153907 138.987823
-10.851425 0.372608 119.470192
-4.660849 -13.262182 124.933937
-4.474925 -15.132915 122.851425
-10.769463 -5.197341 147.377884
2.406391 -10.542773 115.654549
11.525320 -7.019267 105.516525
-2.505297 5.243511 119.881737
-12.054067 8.832523 125.633484
0.840522 10.560811 128.063705
12.064014 -2.885054 115.215729
13.409160 -9.755582 134.761536
-14.692148 8.830711 153.140930
-3.875562 -11.931873 109.366463
-6.832566 -13.502875 138.664139
-4.029896 -18.069656 128.851776
7.224810 8.807693 128.786026
-10.339099 -9.687496 143.082672
1.054129 9.388678 102.142853
15.369933 -4.978817 109.520973
11.597267 -1.808753 143.868286
-10.568015 -8.316119 120.263077
-11.297445 3.626143 125.660400
-7.973306 13.416875 137.433731
-14.581629 -0.744877 137.805496
-10.990265 10.247099 131.235733
5.324862 -11.439447 138.858032
-11.643122 7.639585 127.841362
6.197673 6.313343 110.217880
-15.950083 -2.880872 109.109772
1.924021 10.417443 135.008865
-4.040728 12.681541 149.871170
-11.637498 1.249870 119.192963
-9.346941 -20.457003 130.707993
-13.685431 5.658111 152.069656
-16.860579 3.728232 151.261154
-6.955707 6.099554 122.237167
-4.325261 6.214032 119.792534
-12.355843 -3.232805 141.907684
-9.002458 3.133580 152.341400
15.497353 -4.367168 136.429520
-14.208508 -4.046466 151.396149
0.402521 -12.986938 103.992859
-11.481683 12.379939 136.866165
-7.811605 7.884331 152.802338
-14.739215 7.636074 135.781509
-16.127571 -1.211057 152.386276
-1.317184 8.780426 151.372940
-4.132429 -10.627567 139.388229
-9.093321 -11.668167 143.570404
1.563677 10.375607 134.705124
-7.242940 17.404322 132.962082
-5.862123 -10.672128 113.798157
-17.117670 2.017389 154.717789
8.695885 -5.783080 141.817856
-8.324186 7.130688 153.972473
5.559185 5.109653 113.534477
13.135962 -0.728117 146.472122
13.993762 7.735946 102.628799
-0.321371 -12.489227 127.921684
-3.340673 -6.544624 141.495132
-11.832045 11.690799 137.656784
-7.510996 -8.922302 140.766113
10.548241 10.586450 145.499466
-11.792279 -9.199638 106.087036
-8.762261 -9.723220 110.683807
-1.926309 15.538880 135.678421
9.263263 5.189465 114.575409
2.800080 14.197390 141.209946
9.723005 7.387281 109.933517
13.541800 -1.676320 129.410767
-9.860266 1.228859 120.305298
-6.104167 -12.905640 110.258728
12.681754 -11.146117 132.652542
12.848979 -2.353492 143.808624
-4.644069 12.212479 134.379166
-14.653870 -6.469871 136.149918
-15.536188 -3.097264 152.486328
-5.967925 -7.159967 141.236435
15.336807 -7.117993 130.129944
-10.547212 2.376255 153.182495
-4.625713 14.499725 136.170929
6.691601 10.094924 104.317139
-9.573669 -5.578322 146.451508
3.777864 11.583337 149.635956
-8.960718 15.054832 133.872360
-2.708131 -9.914290 141.051086
9.547042 -10.599088 124.874786
0.162811 -12.568951 136.214630
0.067341 -14.833912 124.603027
9.356991 9.884407 134.209305
-5.485331 12.029357 143.766647
13.206992 -1.918479 142.458939
-2.526609 -12.585402 106.256660
-4.369831 16.546986 147.089355
-9.214380 18.241241 129.558868
-11.462652 5.087412 129.045609
-5.747545 -18.770432 129.542038
13.737677 4.495555 129.787491
-3.106510 -15.698928 138.306778
-6.339042 -11.795815 121.341042
10.505269 -9.887253 123.426003
7.521715 10.072051 150.557999
-10.446441 6.388681 152.891449
-10.156123 10.517635 153.571198
-5.555776 5.267561 113.517708
16.426111 0.449497 103.370064
-14.351736 4.368757 107.444649
6.142265 10.573210 146.394394
-14.074384 -1.777654 129.494156
-3.182440 11.721193 144.527023
-3.882048 -6.390967 146.306122
-13.551077 -0.556713 152.934586
-2.031154 -13.069081 131.589935
14.402316 3.035763 133.610794
4.498191 -12.873914 134.963043
-11.922665 -6.208182 116.860001
13.513788 1.071185 131.807785
14.255288 -9.365164 130.958252
2.366015 7.132919 107.144104
16.479614 -2.205045 103.232956
-0.256257 -13.919652 129.245621
-4.824285 19.586937 143.851135
-3.696853 5.461535 117.441391
-12.135342 -8.857964 124.781502
-14.958599 2.211804 150.889191
12.107858 -1.516032 145.651886
14.060207 -1.720752 125.088631
-1.722493 9.347198 150.099213
-9.559563 -3.399216 146.249741
2.020531 11.208770 101.967308
-12.232920 -7.260767 113.618774
-13.329108 -2.302030 144.379623
-15.069998 8.225153 136.316681
-0.469689 15.472207 133.970505
-7.785301 16.749063 132.715836
14.394220 -6.394928 110.713371
4.190669 6.095109 120.627777
-3.479739 -15.399686 128.537018
15.498613 6.763924 133.501205
-6.303548 -15.584413 133.859848
4.287539 4.550106 115.640160
5.531907 13.245831 146.941559
-14.041739 -8.209158 105.510864
-10.943789 11.211729 150.598740
-1.908655 -15.360293 129.131058
-14.804640 -3.306021 134.241013
-14.994501 -1.587300 139.207520
-4.377168 12.146751 141.376221
-17.280451 -4.211895 151.900024
-7.948666 -3.215259 147.113892
12.555967 -11.758421 132.502975
10.765429 -12.836854 132.638092
5.406583 11.343340 133.081879
-14.134518 12.399265 149.073959
-4.418410 15.881252 148.691574
14.908648 0.526874 106.571030
-10.509802 11.711007 136.815735
0.687658 13.345576 140.280548
-12.819254 -8.576129 137.939133
0.767471 -14.002793 122.284462
-10.882579 -10.959667 138.445251
-6.487463 -17.011490 143.785309
-13.984744 11.901722 151.928268
-0.823119 -14.415876 127.327599
-7.252600 -14.133657 141.346649
13.904410 -2.044834 112.735420
-14.111392 -4.911107 150.928604
-10.198112 6.374402 151.535477
-13.173145 -6.759296 138.227127
-0.930174 -12.946528 127.289597
15.701874 2.142046 129.967499
6.856545 -10.859301 115.095108
-10.629862 2.827786 114.631615
15.011625 9.985866 136.060287
-16.106575 5.215097 127.628860
-7.398344 6.555317 154.059189
11.488233 5.739570 150.553879
0.345434 -12.719137 133.863205
0.637911 11.414700 146.782272
-6.130074 18.751858 145.880142
14.647544 4.072794 133.446259
-9.056046 1.820180 153.197174
-4.323668 -15.969094 143.238281
-13.448278 -3.221884 124.217819
-10.496196 -12.509540 144.423325
-12.456777 -9.974066 139.180176
9.025418 4.952775 125.141342
10.937874 -12.512326 135.300507
-11.754578 8.539910 134.415619
-8.988161 12.415947 132.382782
-2.387927 12.108610 102.220680
13.053988 -6.612645 117.378616
-13.881074 13.100344 147.586182
-8.657282 8.936912 127.289421
0.900085 -13.607537 114.723114
-12.921118 4.132310 152.776962
-16.446213 -0.496058 136.874893
11.957978 -5.467882 115.978317
-9.524999 10.227761 128.484375
-5.245259 -15.868670 143.665665
-0.478606 -17.654102 125.401237
0.970658 -12.178845 116.274834
4.338619 8.882053 122.279564
-15.416818 -2.390891 154.280624
-4.128761 11.249015 135.764053
-11.694343 -7.768827 111.893578
-3.461657 -16.858187 131.965775
-11.393528 0.718465 124.768913
6.689300 13.785546 140.510437
15.796837 2.333612 109.148651
-4.871689 10.613998 129.840927
-14.317615 3.854208 133.304169
13.074784 2.935701 103.591843
-9.976587 -3.762955 143.589142
-1.408126 -14.591856 126.287628
-4.233789 14.823697 144.014236
-3.312147 -12.826819 131.077606
-8.210454 -10.988502 115.308670
7.287992 3.419820 122.064667
-3.321913 -17.274448 141.615112
-0.081054 12.334096 140.089584
2.149557 -12.553209 121.586212
-4.340502 9.748864 105.972313
-3.837894 -15.051526 123.020706
-11.630983 1.608037 113.990608
-3.351280 14.147566 139.924011
-10.456687 7.478742 153.364075
-1.446387 -15.415879 125.417641
-6.639893 -3.041198 148.033173
2.592010 12.817035 138.061462
9.240579 8.360997 125.278053
-11.092559 6.237357 103.011353
-13.353700 7.354066 134.782944
-5.723328 -10.441787 139.511276
1.823479 9.066628 105.788376
6.015449 7.766232 120.740700
11.693770 2.944376 121.171394
-16.899960 2.628303 100.490875
2.237678 -12.126507 109.572044
12.895613 8.847679 134.871719
5.659345 -10.658026 107.302101
-4.254074 -11.310822 123.388336
-10.015593 13.434509 129.583801
-2.047503 12.774105 142.793686
10.226775 0.618915 117.906174
15.387820 -7.172233 101.941345
-16.338608 -6.470663 108.096924
-9.212821 -9.007970 106.994606
-8.203979 13.271113 132.034515
-14.731005 -1.236148 140.786331
-3.021489 10.738727 103.810310
-6.221129 -13.542559 133.963333
13.756710 3.272414 107.953842
-12.731193 9.021252 149.479935
16.351215 1.860103 138.314026
-9.700465 -10.497086 103.159615
-8.655643 5.230360 111.605225
-13.345314 3.043118 130.229324
-4.627614 -14.324136 136.689835
-10.238738 -8.155912 144.287964
-10.250743 10.153931 129.667633
14.715738 -9.195583 133.986847
12.072839 -10.047347 136.377014
-5.394053 12.803694 144.069214
-10.721546 7.648432 154.247559
-4.142717 -12.992252 105.439270
9.380937 3.867106 111.570351
10.137472 6.782626 106.193283
-11.271340 -8.523601 109.854607
-5.626587 -11.407468 141.870560
15.441095 -9.019336 105.019707
-8.319065 -21.636654 132.470825
-12.474325 -8.114213 113.147934
-9.494281 13.952563 150.831924
13.362424 5.212477 104.161942
-0.958598 10.659013 150.237396
16.053427 -0.181273 136.524368
-13.700127 -7.270802 108.525368
-9.220594 0.073257 151.203278
16.026815 -6.678843 137.163574
9.904992 -4.535374 144.602249
-5.696246 14.228129 150.126801
-14.073864 -8.573941 106.820808
-14.566245 -7.018569 130.949020
4.662520 13.209277 138.599152
0.208800 5.417500 114.453705
-16.729544 -2.930763 141.496216
13.095316 -1.050058 130.866806
-13.732418 -2.941100 122.913162
-12.477279 -4.890472 115.831154
1.585599 -11.642950 127.752029
-6.395786 13.298096 152.563248
-7.001312 -8.317379 141.148102
-13.846302 -6.490224 106.976387
-11.527397 3.542884 111.293015
-15.053085 7.373589 125.964378
-11.451976 8.372128 131.444092
-15.587720 -1.205337 146.152664
-6.553864 -9.422074 111.079491
1.675919 10.560781 102.835518
-11.763954 7.002556 127.822601
9.767838 -10.110168 104.462547
-13.073733 -1.816914 123.682564
-5.864642 -17.713022 143.077454
-5.759587 13.337343 147.640793
-2.158163 -10.711791 139.541229
9.872436 -5.560291 139.969360
9.114883 -2.436272 146.031464
-1.890014 -14.631093 129.849594
-2.298565 17.284239 143.785889
-10.906783 6.311886 128.451187
16.724758 2.004237 102.625488
-4.748681 -11.575958 124.198570
-4.663868 12.934819 134.013428
-14.258808 -0.889920 136.937576
-14.613661 0.458875 133.571289
-3.787218 -16.852385 128.301956
-0.861519 10.471580 151.168259
12.987952 -3.955806 121.512207
-16.586588 4.284474 152.641205
-5.635422 -16.873571 124.428352
-12.649256 -9.882343 140.289764
-7.863486 7.806107 127.888390
15.417385 -5.716419 101.864983
1.239882 10.738585 131.019791
-2.866678 -8.939991 140.997482
-8.719739 11.845656 146.964569
-6.683474 15.336803 137.253876
-7.808757 -20.913774 125.796463
-9.744630 -13.479839 143.186859
-12.069074 8.564742 130.677460
13.988577 1.350949 130.928925
-5.700419 -15.382381 138.785522
-1.022568 -13.094226 128.490967
-8.418172 5.654998 154.229858
-11.451537 4.827585 127.048340
-6.663164 -10.716000 143.169495
-5.911231 13.984853 136.841599
-9.488513 -9.985544 102.032112
-12.875873 -6.983345 112.137459
-13.581692 -10.657895 142.154541
-4.945180 -19.074638 139.583557
-8.481037 -11.038181 108.573708
14.775314 6.743006 134.097824
12.981796 0.462562 148.832809
-0.629832 12.707564 137.448639
6.297987 -7.960876 140.657532
-7.780435 8.069615 126.594704
2.930014 9.816552 150.448898
10.905814 8.825887 128.191620
1.347668 8.511857 151.537582
-1.013197 12.638409 131.276001
-10.070923 8.987512 151.776062
-7.178012 -3.524796 148.844513
9.085426 -13.360974 132.568253
-9.960016 6.242359 109.806557
8.508842 -10.822592 106.174072
-12.933253 4.947421 128.524582
-11.931759 -5.018072 141.535278
-3.542723 6.035488 111.918396
-12.877938 4.024192 111.165695
-8.978343 -9.660399 114.373787
-14.084540 10.830807 146.867538
-7.329663 11.932583 151.398987
-8.073080 5.084022 120.200264
-7.553041 15.508640 145.471085
12.313115 -4.252673 123.036377
16.555391 3.512643 134.148804
-10.590866 -9.086561 143.848541
-12.192631 -1.425030 117.465660
1.943031 16.891890 132.261459
-12.064767 -7.107713 122.951286
8.481882 -9.604619 125.900154
-10.883566 -8.238917 143.036087
-4.206789 -19.494452 140.926819
13.256337 -7.920177 101.806900
-1.087309 -11.302954 120.458023
0.508782 -14.176738 125.246490
7.825095 -7.922999 138.835770
-1.733507 16.387762 146.385666
6.240142 -11.132973 117.423630
-10.550900 10.433062 128.206146
4.448064 -11.367736 106.037010
5.638357 -10.939888 118.878983
13.952308 0.953131 112.186119
-3.176805 12.409570 141.005341
-6.109382 -3.870911 145.598877
10.223273 -7.048771 114.417572
-8.508199 -13.169683 130.986511
-7.584892 12.912395 147.717651
-1.260532 10.594611 141.187180
8.048944 -10.671555 129.009323
-14.386457 -0.289650 136.633743
-3.431926 -12.279241 123.358597
5.833590 4.727669 114.625038
12.922521 5.442244 130.386276
-7.471875 10.839357 153.149323
-9.918546 10.082627 152.105606
8.859035 6.602602 152.840897
8.427094 -13.598630 132.851776
11.717101 -7.974550 110.736168
-12.229237 -13.101739 137.790741
-13.564679 4.282085 129.616455
-15.952354 -5.422814 108.335716
-2.694045 8.055986 123.638435
-6.657784 12.381371 144.482071
2.460202 8.904218 151.463745
-13.024358 6.418431 129.611298
10.450130 -7.379965 117.855667
-10.483929 1.613567 118.013214
-5.357097 9.067980 148.457855
-6.468370 14.194409 144.827438
-2.045287 -11.071710 114.111893
-6.205579 12.922618 138.832611
-12.135694 -7.629706 143.985046
-1.712796 6.033535 123.573166
-18.019531 1.420364 99.247681
0.990731 7.874650 105.193710
-1.401436 14.883387 134.706924
-14.780074 4.688278 153.173111
-12.547380 4.149075 109.743248
4.031747 5.145020 118.428596
0.154355 -15.538478 125.547043
-8.241937 -15.804730 145.381927
-1.072357 -11.766667 117.128807
5.063378 6.572645 112.754585
-7.769576 5.286367 154.873871
-1.253621 -17.958847 123.566994
-3.395652 -13.025922 127.760162
10.583529 4.319046 151.276779
13.621565 -8.023764 103.246941
13.973809 -9.187581 109.739594
12.957308 -3.491474 140.787918
-3.449268 -8.615003 141.204575
14.801083 -6.450416 137.907806
-6.966653 -12.097783 143.467270
-0.078241 -11.798733 117.045036
14.254911 -3.501435 128.538559
7.319871 4.950181 115.064880
-9.240404 -15.533658 142.307068
-9.670615 0.658040 148.729507
-6.443080 -22.429695 136.524902
15.569250 -5.472090 136.630920
-10.777537 1.266065 118.050934
-12.041696 8.594445 132.176910
17.731062 -5.379343 102.134468
-5.446945 5.161274 115.871758
-9.975135 11.446627 129.922241
-11.459998 -10.647975 140.121201
-8.434557 7.350588 108.885582
-6.141933 -7.604242 142.192245
-13.858847 -7.645788 107.393227
-9.739846 -14.770500 133.930069
-13.220306 6.775486 151.072311
-8.354315 -13.067469 135.039948
-15.180789 -2.901157 138.748413
-11.022169 -5.401373 149.692245
-13.744034 0.063160 112.312325
-9.601418 -8.585149 144.904175
11.342433 -4.514947 114.562263
-8.962440 8.303218 152.279556
-10.427249 7.184737 152.581909
-5.331711 -16.769064 135.440872
16.294891 -3.517339 102.360252
-8.001896 10.725430 130.474167
-3.265552 14.293365 144.285004
9.042115 3.723510 122.326309
-11.471012 -1.329982 147.876648
-10.105489 14.843987 128.998657
-0.779135 18.251900 142.031021
-17.445654 -1.824032 144.283493
1.808929 12.515036 142.366089
-10.619165 11.843369 129.698441
-0.841088 -19.144819 132.630035
-10.507462 5.633256 153.228928
-12.752118 4.461227 107.809494
15.275126 -3.201097 108.225258
-0.854875 -11.411964 111.445763
-6.681664 5.268743 112.042717
-11.681057 8.663898 154.239288
0.116733 14.161612 139.092163
-7.580791 11.075066 137.813385
12.436284 7.477506 151.728302
-6.116014 -18.303560 131.440048
6.183070 8.459828 126.340256
-7.389548 -10.275364 144.789352
-1.728430 8.620233 104.611458
-12.401068 -8.056402 139.339493
0.192175 -12.074070 105.348648
9.604091 -11.824144 130.391678
-2.087174 13.351270 139.379105
-7.315547 -11.600715 112.232086
-5.662928 13.955704 136.002136
-10.616709 14.580395 127.996475
-6.676710 -20.383858 130.890961
-10.752885 8.176126 128.984039
-3.713216 6.260865 114.034782
-11.544645 -1.318129 121.090271
7.404373 -11.011818 116.485153
-10.570143 11.337370 148.384766
-3.448737 13.434960 146.166901
-10.183768 2.684436 151.151642
11.632665 -13.323980 129.808517
2.069066 9.794994 132.918320
0.949603 -7.390755 141.784348
4.907018 11.997413 145.146835
0.031701 15.353291 144.278900
-10.348465 4.589959 107.585915
-4.114832 15.751880 134.631271
14.414374 -0.247720 108.146919
0.651644 -16.323586 122.609695
-14.048269 -6.768553 129.804688
12.883526 1.177371 125.187965
-0.147414 19.439569 140.211136
-3.931737 6.590272 121.814331
-14.861843 -4.738095 129.466660
12.997174 4.877960 102.791298
-2.976865 6.016021 111.413155
3.468644 10.088679 150.224075
-7.938381 -15.423532 145.592850
11.302814 8.515932 103.689743
-6.723302 9.687579 133.888397
-10.603989 6.272670 106.796143
-14.316628 2.170970 109.140587
13.360435 -3.515922 126.178879
7.357494 -8.760265 138.276779
-3.918791 -12.443842 105.242706
-11.342481 8.897251 125.353714
14.422971 -1.787518 137.703918
11.373879 -0.417543 115.813675
0.771692 6.629742 109.263741
-14.082289 -1.300015 146.161499
-16.272373 0.013380 106.184288
-5.954384 4.831654 116.084778
13.828009 -4.107452 123.468086
-9.501627 -10.844379 119.192184
-0.414202 14.567653 137.934113
-11.988926 -2.693574 118.317154
-11.170110 -14.394852 139.100143
12.122050 -6.188344 124.443130
11.342972 -11.813923 130.138321
-3.822108 -12.323389 105.029945
-6.319070 -12.464213 126.897766
-10.013050 -8.381210 143.541824
-14.164468 -1.893607 153.027328
8.787437 7.450918 124.781143
15.449288 -6.865793 105.085648
-12.582835 9.765410 138.933731
-4.074552 13.284657 135.877213
12.792602 -5.940380 114.579735
12.302299 12.050900 98.580742
-3.544532 11.504744 134.148788
6.221107 4.547300 112.308258
12.104897 -11.916831 130.921188
12.759739 -2.736660 143.625702
-12.816639 -6.279347 114.520569
9.314266 3.632694 115.667717
15.584229 3.250893 133.920502
-11.006703 2.693547 123.595070
13.647826 -8.052606 106.093666
-12.201928 5.109845 128.346970
11.082693 -2.355331 147.581589
-8.319209 15.307676 129.895996
-7.345839 2.518394 152.139160
-8.208607 -17.245577 135.697983
-13.303135 -2.776825 116.723366
-11.736335 -9.384780 142.153229
-7.887076 -11.262872 141.382767
-8.067979 14.884652 133.194366
-9.896679 -5.703816 141.110382
-4.909557 -20.230209 135.059311
-14.447068 -4.258698 126.669044
-10.574916 13.385940 129.281281
11.302587 -1.881333 121.526306
-9.213538 -9.840605 140.308563
-10.711444 -4.839275 145.797989
-3.222964 -7.051243 143.646317
14.718751 2.949359 109.997414
16.178160 2.576515 103.784592
1.839656 -12.925287 117.864868
-2.452760 -10.903048 107.191658
1.417391 -15.713541 121.819740
16.089119 -2.091767 105.152527
11.341758 -9.412498 101.650719
-13.641006 -5.002036 140.441284
4.064636 7.976881 106.635132
0.548760 -19.426556 124.479271
-11.044918 -8.285720 127.210381
-12.871248 0.461592 144.432816
-6.771821 7.556642 151.662308
-15.017327 1.178472 129.055130
-12.143200 -1.789675 152.182755
-5.993596 14.586257 135.249237
10.875216 -9.346457 108.508461
-13.916750 -4.900252 112.428635
-15.408262 0.758035 145.745789
-5.266272 -21.886087 132.299316
0.900205 -18.196095 128.867111
-13.287233 -2.304459 110.348282
-8.084288 10.441340 153.474182
-3.981069 -12.710859 125.781044
-4.037813 14.892168 146.410812
9.999588 6.560010 106.307869
-11.203802 -7.145250 141.948425
-9.193128 8.088258 128.867584
15.343060 -2.390876 138.874817
14.741352 -7.541866 131.047516
7.211710 9.418450 150.588089
-3.644693 -11.709671 141.231537
-0.190721 6.793658 119.548553
-7.962699 9.824709 102.318375
11.766368 -5.965343 114.463928
-1.718509 -15.821786 134.148834
1.777400 -12.598184 130.369370
-1.359757 16.068777 146.356613
-1.992167 15.823881 134.527740
-8.444942 7.143214 111.335808
-0.071503 -12.875793 127.353340
-13.814201 -7.133124 150.517639
-12.330211 -2.629104 148.448776
-8.514228 -8.560343 145.553238
-2.034045 -12.500556 128.221619
-2.684730 12.028090 98.511574
-7.325504 -17.394846 143.019302
-7.356950 -9.920105 102.849556
-3.860740 13.330884 144.525726
3.875442 10.459841 129.254486
-9.605374 -1.282539 147.232651
-4.189433 11.851982 148.142715
-14.683003 -3.969325 150.707809
2.395318 -11.018783 103.743805
-12.215166 -11.998449 128.001160
-8.867278 -15.249572 140.344467
11.510268 4.285707 126.393318
-16.463736 -14.744254 140.798447
10.565237 2.444653 121.837212
11.457376 -7.613085 145.306244
11.879340 -8.547357 112.890366
-16.109003 -5.813849 132.168976
-11.601129 -1.917331 145.564163
-11.495851 -8.115827 109.059265
-10.989595 -11.539649 135.946411
-14.630287 -3.651159 152.469208
12.711641 -2.201524 145.503464
-1.573292 -11.943047 124.128014
-6.512995 13.721457 140.759186
-3.484704 13.574372 148.311142
-7.778908 3.924876 113.113197
-3.998623 15.373292 140.696365
-13.326504 -5.543306 129.782730
6.791004 -10.464140 116.478867
-12.664781 4.269877 152.601776
8.774223 8.949245 106.680244
-1.888770 -16.793282 130.658340
4.807447 8.229497 109.238594
10.207073 10.164485 129.872253
12.056698 3.611676 127.186813
-4.916885 -16.678188 134.714050
-12.241485 -1.365524 119.618706
-13.108239 6.361281 133.363144
-1.959698 11.620889 149.690659
0.352332 10.605121 103.386482
-13.741087 1.763488 134.972427
-1.040612 7.151473 120.731369
-15.161512 0.978871 136.717697
8.970693 -9.396918 116.830154
3.490699 11.003808 133.838577
-9.792991 -9.322001 120.564713
15.111932 -1.067276 139.507126
-10.596848 -6.328558 117.976295
6.785238 10.917071 102.969612
-13.584470 -1.837738 114.840195
15.535166 -4.384076 140.500259
-7.320102 14.984775 136.266922
-9.233168 -10.151065 101.638702
1.932323 7.285850 120.136940
0.429731 -9.598095 140.494125
-4.394312 -11.990743 136.994171
13.387327 -0.982330 128.320282
14.812408 -2.772160 132.322189
-8.715231 -20.396185 132.426361
4.989808 10.321720 127.150291
-6.307107 -14.143909 125.093430
-7.892940 9.401882 153.195221
-17.160936 1.446088 101.295845
-0.794496 -20.941322 129.922226
-9.783555 -8.737131 112.216751
-4.313206 16.232380 135.664246
-12.922946 -1.464586 116.588943
-6.201212 8.129736 124.933205
-9.329102 -11.014752 141.990189
-4.219241 13.372802 143.753052
4.498196 -14.862001 133.079514
8.734284 -8.984946 120.728035
6.261604 5.603617 124.096863
-4.613744 -17.653578 135.475052
-1.819105 -12.075503 127.869240
-2.509798 -14.049882 129.618179
-9.191590 -4.488158 147.482391
15.524050 -4.400892 129.676819
-4.422049 10.222363 151.450821
-1.184167 -13.216299 105.695190
-6.851887 -13.400443 134.978622
0.591416 -11.957021 124.363365
9.623854 6.335958 128.440659
-7.419762 9.859845 151.315460
-10.802185 -12.273660 144.777008
-7.703479 -4.882936 145.219986
0.064902 -12.765297 112.031326
-5.610643 15.111042 148.634766
-13.046926 8.703317 133.321167
-7.314703 -8.255551 145.211670
5.486642 8.948045 128.685181
-13.438431 4.851245 151.845428
7.800069 -6.345909 142.156448
-11.533580 9.889862 151.753342
6.054838 5.374679 116.256569
-11.566725 9.996140 130.821808
10.072384 6.329240 128.902817
-3.154333 -16.451302 133.726624
-7.089147 -11.377180 141.968903
-2.300013 7.900741 109.677361
-11.926155 -21.633310 134.561615
6.748503 5.328100 111.961456
-11.571285 -1.906262 143.498901
10.797637 -7.428672 139.485168
10.899088 -5.580691 116.792976
-11.200520 -2.613989 143.188843
-11.266521 -9.759960 106.445427
11.679526 -2.786618 122.094391
-13.158661 -3.888876 142.142944
-7.308628 15.433127 134.378647
-4.878766 9.566397 105.782394
-11.649764 2.468681 115.670525
-5.569139 -15.153237 140.831467
-0.691250 -14.325104 132.509033
-15.161324 -9.169980 142.426849
-11.701425 -10.993706 108.940872
-10.578178 12.717805 129.819748
-9.036442 13.565992 129.103867
-2.937610 11.838008 148.482574
-5.367676 -25.148960 130.407196
-12.147631 -7.510688 151.611740
0.718920 -10.891809 137.362610
-7.630182 -4.081392 146.678391
-0.092469 -12.163318 123.209381
9.226092 7.932923 129.454086
-8.301307 -3.615413 147.154053
-13.937355 -1.671193 153.426453
-10.245168 10.510561 128.930496
-6.786816 -19.103416 134.012726
-8.963068 2.535462 150.272659
-13.452078 -6.386310 144.373932
-0.196063 13.280663 135.779846
-7.087653 7.573158 109.538383
-7.505106 17.478867 143.151352
4.302454 -4.530614 142.770615
2.311176 4.782351 114.096909
-14.030836 -3.653797 132.428619
-15.557800 2.197633 136.940262
-11.549526 -5.477819 120.533775
-12.537628 -5.471093 142.642075
-3.136899 13.275535 138.793365
-15.593095 -5.413261 102.759956
-7.847836 -8.245585 141.097015
-12.364835 -3.108428 148.481384
15.864935 -8.530806 132.980148
13.697296 -5.749100 114.593636
-16.138033 0.320982 110.163597
-12.617359 -7.320598 139.330154
11.045369 3.799224 112.588890
-9.667540 13.582343 132.452301
-4.046330 -18.576380 134.358673
-14.056232 3.129619 107.313087
-2.301592 -15.798508 126.045700
-3.208258 11.887886 147.056091
-10.644420 -14.405958 143.212326
-9.783876 -9.197277 118.092834
-7.298114 7.911193 107.011444
-11.624146 -7.407435 151.818726
1.126372 7.627262 122.612984
-10.250445 11.996128 145.411972
-13.161628 -4.521867 139.590668
1.592872 -17.098198 123.851685
-4.094708 15.026035 136.466446
4.393517 -6.374759 142.231873
5.859746 8.637444 124.423073
-0.081290 -15.946038 122.806732
0.031694 12.816356 133.319580
-10.902635 7.480683 130.422165
9.021633 4.791866 122.384941
13.365546 -4.745190 114.874168
-2.931109 -9.322774 138.797302
15.167441 -1.285280 133.514801
-14.819407 -6.103292 103.922554
-2.595006 10.551362 146.205719
-6.010675 11.826119 144.326462
-1.286257 10.789419 102.765091
-9.585294 5.708954 154.001572
-6.499557 -15.105188 142.501556
-0.237530 -6.639242 143.172211
-2.961647 16.898949 146.012054
-12.890749 -5.238232 141.229782
-7.180912 -10.872265 117.635529
-9.561420 12.520189 130.361191
-6.366301 13.156339 144.116882
-7.061129 8.546491 152.546875
4.198578 6.122402 117.967323
0.083382 10.199463 104.444618
14.980037 -3.003207 136.636124
-5.618586 -16.639540 143.436218
4.909046 -10.853259 110.805763
-3.721638 -16.532488 133.548630
7.855574 9.443088 101.733238
-11.661647 6.372219 130.489182
-0.493256 -10.772707 138.329819
-13.457889 -0.562176 125.552185
-10.580863 -1.998904 149.990402
-3.314477 -16.692446 133.937485
-2.338122 -11.202492 110.234291
-13.345846 3.104043 153.375671
-10.739958 3.188386 120.240303
10.551761 -8.067444 121.284126
-6.888322 -7.888299 144.222900
-6.050831 -20.435345 137.668762
11.765636 -9.659095 109.282898
-12.162021 -3.341682 141.812820
-13.207384 -5.488728 111.904305
3.955293 -10.522420 114.459229
4.588631 -10.894881 102.144783
-15.632757 -6.019641 132.512436
2.541858 9.683192 104.306358
14.327567 -6.357466 138.633148
-9.472737 -8.734039 145.827194
-9.177481 8.621940 106.517067
7.613905 -10.384568 122.368568
-9.153925 6.558006 153.052719
-0.986237 -9.594442 137.941101
-6.611824 -18.486544 125.578659
-16.405216 -4.675647 103.035385
8.734205 -3.824098 144.559235
-0.792214 10.372220 152.295761
1.428429 9.233189 105.221268
-10.538586 -15.941345 146.754150
-12.526824 -5.217985 137.537292
-6.118857 -16.270481 127.605141
-4.286593 -7.759281 140.876007
-1.177442 -12.389149 104.924889
8.465129 -13.508807 130.533340
-2.724469 -23.427418 130.372650
-12.975905 -10.297352 139.580399
6.860554 -1.590936 144.635269
-16.303825 -1.160057 107.335541
-8.821606 13.502226 146.113022
14.861629 4.736887 129.778412
7.452830 12.025763 138.871109
-1.977834 15.525732 143.044067
-3.684133 16.331526 147.866241
5.072235 8.455823 106.769684
-8.821853 -10.927010 127.493294
-11.861112 8.991329 131.059433
-3.633770 11.281664 148.289047
-7.487197 -7.978436 138.870636
-4.300000 -16.538755 134.419861
-12.268344 -12.489952 134.380280
-11.985611 -4.164527 149.590515
-4.743388 17.432251 133.167679
9.020494 11.300365 140.560638
-14.572478 -8.012408 134.055893
-1.583082 5.851194 114.413597
-5.597626 -19.708357 127.988464
-6.251967 9.465743 151.493484
0.513083 -13.278982 101.880234
-2.163259 15.158973 132.252563
0.433391 -12.539450 121.690269
-2.351104 -12.528739 123.850777
-0.566125 13.141146 138.594666
11.786421 -8.695830 111.144402
12.413814 5.992116 130.106842
-8.625249 9.277105 106.460945
-0.601773 16.043049 143.123856
-11.788311 -9.109565 118.152344
-11.098397 7.964615 152.278961
15.165672 -4.567367 132.486496
-6.101810 17.627733 133.893509
-8.564422 -6.622888 142.404343
14.320271 -11.020953 133.497955
-4.259195 20.718262 142.015656
-5.422368 -20.054710 134.362488
-10.193118 -11.729164 140.933533
7.187539 13.522756 137.588181
-3.863337 -17.619900 133.678101
-6.229115 5.327324 117.030823
1.216260 -13.644616 126.947586
1.921237 -12.759603 130.699692
-0.838052 -19.114941 127.256195
-0.309123 10.073879 150.564301
-12.989312 -9.925155 135.864594
-11.021823 -0.513037 148.540039
-6.671641 -22.249796 135.338333
2.928442 -12.364553 137.283997
-3.598233 19.198715 143.960449
-14.872505 10.378873 153.155518
6.440876 -13.286907 135.092529
1.183703 12.299844 145.144226
-2.905517 7.457991 117.149918
9.192594 12.394727 134.550674
6.186826 9.413853 108.544212
-16.108107 6.283585 153.006866
-10.773730 13.880183 132.240952
-5.879556 16.522753 147.644669
-4.192784 -12.615255 125.000481
-6.109859 12.748810 144.953445
-4.585399 6.212849 115.773315
10.260198 6.221178 127.592918
-7.985491 4.597111 112.258385
10.951452 -12.208429 130.577515
4.357981 9.824777 149.711548
5.662992 -6.698000 142.959366
-5.416098 -20.741385 138.267990
-4.499988 16.858547 145.699188
-1.075163 13.552670 135.485550
-11.788956 -8.658524 136.601227
-11.843302 1.171194 121.368752
1.204312 -14.840627 123.621094
-13.492885 9.500397 128.051544
-3.746513 -13.503809 127.612419
14.315141 5.384030 100.291885
-8.700794 1.005710 151.275314
-0.243075 9.769603 122.946213
-3.012377 -9.236639 140.867004
11.490217 9.223692 134.513641
-2.962870 18.785160 142.520599
8.261724 11.742268 136.087234
13.016253 -10.218916 136.675858
-11.347878 -1.547496 146.665756
-3.832745 -4.878269 146.939987
1.614276 7.722497 110.322624
12.704699 4.663150 131.256485
-11.356215 3.014964 118.093597
-8.383927 8.678641 130.714539
-12.002077 -6.163958 140.393158
-5.061880 -10.799475 103.273407
-3.642614 11.882954 135.632431
3.572320 6.069577 122.014816
11.251387 2.457249 123.073952
-6.525142 -19.411125 142.071152
5.122991 10.251899 130.107819
-5.146657 -11.278988 123.666634
0.339452 -13.080073 135.705063
-1.911348 9.094076 110.746063
-13.620965 -3.672566 112.514381
-9.015781 7.063006 154.360275
-2.886412 -11.254416 119.570145
-5.415053 -17.258043 137.697769
12.624347 4.214698 126.765007
12.596688 -2.469868 115.748802
-4.779600 -9.405277 140.395615
-6.316335 -6.837191 142.655121
-8.095811 -2.348201 146.639084
0.125068 -12.993078 109.438377
14.175474 -7.039766 107.103127
-0.946427 -8.989081 138.507660
-6.876184 -18.650085 132.233963
8.997780 -10.566436 109.106895
-3.921489 13.628034 137.328415
-13.268849 -1.346300 147.574905
-10.275749 -11.659967 143.378906
-10.273180 -7.199783 111.787781
0.467195 10.690389 135.265839
-11.661755 -10.081218 130.170227
-0.245602 14.373984 139.741348
11.424796 -4.941631 114.727783
-8.342096 12.974895 147.271408
-1.893276 -11.799461 119.403137
-10.989188 9.316765 127.387115
-6.213457 11.599574 134.615005
-11.709867 8.409729 128.171387
-0.223078 10.561575 144.628922
-4.761007 -12.410973 137.385590
-2.355142 -13.111628 126.438713
15.476796 -2.524381 144.052750
-5.809695 -19.591650 139.865860
7.539776 9.858516 129.736160
13.785006 3.412733 133.247574
4.664065 -13.140364 126.274597
-4.789015 -14.959073 131.830765
-2.700830 16.552856 145.318542
6.614595 12.117466 136.013031
-13.879234 -0.272498 152.724762
-15.440401 9.923412 152.139099
-6.427504 -20.637892 129.373291
-9.213770 13.121835 135.540710
-13.518531 -5.824894 131.143234
11.165982 -6.208202 115.593727
-7.545531 3.786315 153.898514
0.657564 -14.818734 132.444580
-1.037827 -12.761512 134.393616
7.509845 -8.857468 100.137871
-4.983730 -17.157063 140.681870
0.669746 -13.935975 125.213364
14.392889 8.216905 135.580429
1.186347 7.681606 107.940338
13.167344 -0.782178 120.433807
-2.514099 7.634515 108.896553
13.782166 -3.778035 131.294006
-15.058537 -4.628579 133.335205
0.533852 -12.619277 119.918983
-9.459643 -14.937584 133.536377
-6.054763 15.070304 149.061661
-8.368057 13.055397 136.523041
2.184446 13.068191 135.113785
13.350494 -4.883814 123.158806
-14.036726 -4.083086 123.104523
-8.432167 6.413146 148.732407
10.617393 -13.360009 133.670761
-14.914911 0.147554 105.146080
15.977402 3.557989 102.162254
-2.458900 -12.912249 104.962639
-7.490264 -15.523019 125.815025
2.668629 -12.335530 129.250839
-5.142924 -10.682119 119.996437
-7.278983 -14.788239 138.154846
-11.945520 -13.234583 132.703995
9.421112 -9.895825 119.025719
6.630885 7.473228 108.943222
-7.053170 -17.798731 140.581741
-4.967955 -14.314886 137.629227
13.729193 -1.986706 111.687302
-8.830500 0.419942 152.443420
13.188639 -5.635638 139.248428
-7.502716 -14.747654 143.448975
9.507121 3.098711 151.538315
-16.858643 5.865776 126.799500
-3.660199 12.938560 138.575562
-0.359960 -12.523634 129.908539
-15.772228 -5.278897 107.814697
-8.032515 15.269538 133.296616
-1.514200 7.171964 120.270515
-15.108772 -6.246680 141.117599
-13.374022 -2.726321 119.791039
-2.698082 12.634931 141.877686
4.513533 5.622641 120.765511
-11.313452 -4.058514 144.614304
-3.871080 14.455970 144.681610
-11.208756 5.550676 125.402962
16.917912 -2.119584 106.144691
-10.081117 -7.357610 139.862854
-6.863542 -13.976909 136.878342
-5.818098 -15.828818 135.927658
13.812414 1.602874 132.165070
0.179057 -12.586996 131.733521
-7.174127 15.875623 133.681717
-10.967532 -7.567357 126.770515
-15.358418 6.338358 135.369781
-10.361333 -12.054447 140.035492
1.193505 11.102267 136.132233
3.600329 8.938306 153.279877
-12.552935 -0.971513 142.853348
10.094718 -5.384670 142.418320
-9.910306 4.244577 113.593666
-13.207916 0.273292 127.279030
-6.760079 3.916672 112.261719
-1.364378 -17.490189 124.642822
-12.554438 -1.617407 151.707138
10.043562 -6.794337 141.093323
-12.420293 7.350356 130.782867
-12.386402 -6.932304 101.949829
11.012198 2.366163 126.818977
6.636083 -13.278233 101.154503
-8.426196 -15.052736 141.417725
4.084650 -15.067768 123.976913
0.008518 11.641690 143.205963
10.207004 -9.569769 108.676254
-5.458748 -17.052599 133.459625
3.696051 13.839342 142.452560
11.917117 -5.784202 119.079483
6.016335 10.750925 130.582657
10.089314 6.959167 151.295166
-12.498711 -1.197112 151.494659
3.043855 -11.915818 128.850662
-13.553217 3.365790 132.389481
13.407414 8.813230 134.230743
-10.050104 10.275694 138.433716
0.517844 -11.678307 104.183899
-15.085055 -1.696293 102.913795
-15.202175 6.081857 134.034836
1.127062 9.819711 130.782211
-1.425037 -14.610143 127.973907
-5.116187 -6.537811 143.379364
-11.584244 -11.209739 142.986145
-15.186972 7.086095 124.127174
15.116059 -0.781565 140.789597
15.751563 -1.974142 103.969193
-1.426795 -18.126598 123.858467
-8.706661 -10.848411 119.765022
-7.570270 12.185225 149.830505
-6.507145 -16.750416 126.753677
12.649695 -8.993584 128.899597
14.359840 8.242470 100.943314
-5.426515 12.097453 137.240250
-12.852300 0.140415 153.268768
11.347415 6.689637 105.752899
4.209462 -10.357490 118.255486
-9.130791 14.211300 128.279160
1.129915 9.875543 129.188126
-12.089795 5.659464 151.506195
-6.307719 -13.916920 135.447754
-10.881237 -6.287800 139.534912
-9.941961 -3.682487 146.287659
-6.314053 -12.713256 138.548752
-8.285017 -4.536328 140.269730
-5.494167 -13.266410 140.945221
-6.680093 -11.161029 142.995529
-5.506558 -11.793743 102.517708
14.262970 -2.972607 126.122498
10.191767 12.108061 135.254028
-11.135937 -4.001115 144.445908
-4.058902 -12.401616 121.157936
10.399866 -1.480560 146.671295
-3.057270 12.675376 142.303421
-2.593660 -13.195040 124.703812
-7.557678 -13.267179 140.404266
-5.539718 -15.507062 127.880630
-7.944426 10.809696 149.684601
-4.549389 6.234599 111.297569
-12.637448 -1.846759 152.975784
-6.953787 -20.443604 138.375458
-12.975348 -4.689244 128.613724
-5.074983 13.805202 148.649017
-2.883447 -15.855366 129.568909
-9.402650 3.541507 119.181252
-1.205316 13.580144 138.146423
6.738948 -10.002025 118.241379
-14.888440 -2.244523 134.673096
10.275519 -13.204603 132.710678
-10.791082 11.466950 129.849045
-13.361787 7.931051 126.448090
12.205214 3.555892 111.756363
