ply
format ascii 1.0
element vertex 2048
property float x
property float y
property float z
end_header
-18.107016 -0.903106 57.347572
-5.604201 11.742482 132.679230
3.161100 -14.709808 134.443497
-18.482962 -6.087933 65.906181
2.244807 8.737484 64.361526
16.093706 -6.896985 62.720947
10.751746 5.479627 110.093491
13.753515 8.322875 83.030502
-6.360327 11.044550 146.773148
18.129507 0.860557 86.751480
4.790371 -6.200768 148.175842
-15.277558 -3.456762 111.191628
1.105598 -8.236948 56.180367
-8.160727 -0.970987 152.018494
15.647753 -0.739159 131.360580
-7.117363 -9.239256 75.817284
8.629652 -6.793301 140.703430
0.428698 7.916086 102.743813
17.523626 5.577608 54.333714
13.159451 -8.272999 129.301178
-17.556221 -5.679543 94.785614
-18.514236 -4.818487 79.573189
-2.526217 7.062955 106.346008
2.697138 10.649859 81.210655
14.630072 -1.636241 124.699486
-2.189037 -12.870778 102.179970
7.153801 13.418842 91.388046
13.614229 -7.376397 61.529148
-5.429787 13.215244 141.459244
8.597410 -11.600747 92.168045
12.498419 8.566623 58.901321
-6.113776 1.551477 155.734131
17.398632 -5.591022 63.547424
8.522107 -8.995883 111.309349
-1.594587 8.518878 82.591530
20.586473 0.654634 87.521576
6.088083 4.657275 155.505157
-14.129729 -8.450913 65.243523
12.563707 -7.671110 55.927341
-12.076417 -2.049722 148.505493
-0.529262 -8.899325 65.521553
19.951525 -4.008455 75.348877
-7.316074 10.415658 146.376022
-2.458338 -13.933749 119.155052
8.183822 6.709609 126.631340
-18.705240 -5.157176 68.684662
15.894785 -8.559700 93.812698
14.890203 -2.544838 145.946381
-7.102507 9.049724 136.446625
-18.910475 7.001171 84.026558
-0.708166 -11.355602 118.886528
-11.892079 2.186616 125.163116
-19.641695 -5.591206 66.664627
5.087564 -8.230128 69.434952
1.416028 11.697078 91.142761
12.134825 -7.024428 112.801208
-0.603641 -12.468678 134.590332
16.655365 -7.733789 93.595856
-13.362868 -7.467887 134.606476
8.760458 11.303922 149.603500
12.321471 -7.799079 123.944046
-0.545518 -8.705849 58.163517
2.421880 12.547359 133.471848
-12.519722 5.036813 108.734619
1.835274 8.873086 82.331192
-13.834589 3.571158 130.220520
-18.509790 -9.583846 76.219193
3.918656 8.768089 155.833969
-14.812477 9.487240 95.129448
9.240314 -6.766177 142.692123
4.363855 -9.671278 110.330360
-6.184343 8.822382 57.927769
0.132084 4.205903 114.394745
-9.902756 -10.639990 125.182968
21.122286 1.825456 85.448509
11.157483 8.647211 57.235466
13.468023 9.630263 133.296585
0.708181 8.617307 69.830391
-4.895142 8.339148 153.330795
10.240414 -7.263874 88.271721
1.418544 -6.794328 60.940830
21.028772 -0.234357 82.886185
0.996184 -13.002039 120.916763
-2.150795 15.223965 90.663628
-15.661434 -1.897689 139.290771
4.156835 -10.803912 102.504189
-18.521496 4.876001 90.075218
21.536524 -5.479877 84.204628
-5.186069 -14.789618 131.720871
5.403276 7.852067 124.064613
5.095650 5.844428 153.399094
19.325964 3.501817 81.163239
-14.294790 -1.135771 131.733200
-16.646688 6.443715 63.484970
16.375042 -10.022090 80.300545
-8.221404 10.577939 151.078720
-2.459592 -10.053452 60.164715
2.930516 5.317566 121.594902
16.237589 -4.873099 66.838982
15.548068 -2.677314 131.225647
16.278336 -4.287441 102.684639
-8.486968 8.221457 92.884354
13.056180 3.121107 126.039429
4.338249 11.871346 103.952522
12.320715 -7.568110 55.661774
10.487833 7.291602 51.415810
-19.855227 -3.349257 87.407310
-7.887973 11.399276 147.283783
14.386179 1.050403 127.669624
17.977226 1.783374 99.722580
0.831040 8.715382 122.390831
14.732273 -5.132046 102.309082
-12.811310 -8.163330 98.122047
2.232014 -5.902121 62.091854
14.809130 -3.866296 142.864456
-12.919757 -4.445162 109.182877
8.343943 -8.250081 88.475082
-1.497749 4.222014 119.326515
10.039358 5.838982 111.497925
3.837356 9.826530 63.908871
1.992580 -10.221470 78.866127
1.896108 -12.475328 111.392143
18.551235 -2.492771 73.705788
14.565119 -2.282979 106.828674
-10.803120 -2.731244 115.172188
-3.365469 10.059761 71.999290
14.624163 -9.348274 76.683701
-11.964692 -8.320086 78.784714
-10.286710 7.113628 78.740677
6.107003 -11.172843 103.102776
-2.048732 -10.713675 139.703964
12.750804 -1.567320 128.399414
-14.159017 4.255764 129.063950
-15.544118 3.500643 131.852173
-16.289251 -8.274026 82.582375
4.906593 -12.518530 79.819626
0.585981 7.450473 155.607849
18.017855 8.821511 71.922218
17.706926 6.806749 55.935680
5.021687 -8.177940 60.472813
-8.021432 -7.541955 71.289825
-15.116182 -3.734004 131.656021
-7.559680 -11.454073 84.798172
-7.024717 3.848148 155.206635
17.974037 1.606557 65.166519
-13.176676 9.414441 68.021706
-7.307971 12.733138 136.100586
7.031523 10.055453 86.046860
8.042592 -9.740861 126.558907
0.703138 12.195751 57.545486
6.217198 11.154956 101.823463
-11.338902 -5.458670 117.384674
1.263767 -12.326098 123.514359
-0.671321 11.782951 148.393112
14.992936 4.063255 101.860168
-13.419091 -8.417089 98.007408
2.028609 -8.216589 140.117462
-3.481632 4.942458 157.409119
-19.007097 -2.725849 60.790855
-18.207165 5.781296 77.272957
7.227344 6.241464 56.369953
1.746435 -12.301385 104.641296
4.248398 10.155593 54.506996
1.603601 10.686495 104.088333
-0.058891 -10.666783 126.905022
8.929245 5.907066 153.401932
-20.119667 -2.727751 80.788704
-3.543463 13.951797 96.250366
6.184989 10.327421 57.629581
5.339595 -11.295986 137.530273
4.032169 7.875703 71.326271
-1.858632 -11.152905 77.670403
-13.842672 6.932356 106.705345
16.491550 -7.417078 93.358322
14.245651 0.219115 112.383667
9.003569 -7.644992 67.025383
-11.140191 4.792191 108.366226
-19.588711 -1.373447 73.209694
-6.621587 4.822814 155.055206
-0.659121 10.221600 57.074150
-15.881785 5.218940 134.859787
11.470991 11.820921 88.934555
15.719087 -3.340875 132.198502
-2.469002 10.843578 71.495186
-9.351392 -5.968091 59.118462
-3.620208 11.303841 152.973892
-2.085367 9.499887 62.971279
4.726539 11.941348 127.773468
11.610296 9.789955 99.012070
-4.422585 13.162878 139.001495
19.568644 0.749286 53.261295
-16.192329 -8.709226 90.265060
11.218784 6.038922 152.546906
4.815915 11.578879 86.441368
-2.832873 8.661983 59.622025
0.740721 -11.403029 115.995346
9.688887 3.457237 153.120804
-6.817549 -15.691673 132.306763
4.421782 0.427315 151.725250
1.644183 6.264407 117.703056
-2.504271 4.240879 109.942596
18.705458 3.499776 101.029953
8.205715 -8.461129 54.307552
-16.350941 -8.325237 87.428986
-18.358101 5.052791 82.918121
17.038242 -6.652273 90.629440
10.737772 1.121022 113.157608
9.038437 -0.670167 151.603363
10.138507 2.521234 113.472130
12.442364 11.527306 139.732956
-4.837259 -11.469358 102.694527
-2.184729 4.206981 157.513977
8.388167 -8.817082 74.652687
-9.488100 -11.952158 85.701607
-5.067541 -4.562513 147.774200
-13.040586 8.746844 141.759018
17.870903 5.888005 90.717850
15.557316 11.033778 91.596596
19.040195 3.407296 55.484135
13.779373 -8.401606 68.154259
-14.434523 -6.882189 102.046310
6.140120 10.358991 157.442429
18.071199 -10.165894 85.682358
19.679699 -3.427292 68.209152
3.455061 0.064274 152.142426
5.345865 -8.831944 53.832191
-7.839810 -3.040195 146.429230
9.526337 2.841363 113.961250
15.144686 -4.394594 129.894760
-4.466060 9.374614 104.575462
-10.698326 8.995961 130.239944
11.018655 5.173945 114.296936
-7.991001 -10.586675 121.138046
-6.823249 -8.483245 105.415222
11.921938 10.320107 83.615143
14.006056 9.266676 56.260086
-12.674653 -9.537624 86.111870
12.267920 11.189496 140.676666
17.695738 -8.315930 67.837662
-5.736835 -7.745697 94.133530
-16.988127 -3.873909 97.088318
10.712165 9.652462 149.508560
7.675274 8.193995 147.165207
-11.669989 10.321611 141.544693
6.711048 -11.525105 101.702408
-3.631818 6.384181 159.530533
-0.456968 8.648941 120.397118
17.318134 3.656739 152.630020
-3.336948 -6.149515 63.451252
5.918252 1.273525 150.769424
8.454328 -9.989996 93.725189
-17.720106 -4.702926 58.117920
17.905186 -8.727821 83.276810
-8.676269 -11.472865 92.603645
11.211295 10.047305 132.047974
15.929310 -7.761497 84.640160
-4.535191 10.826901 59.109455
-16.000114 3.640517 130.809235
-13.510815 -4.534823 124.215103
17.909641 2.163084 62.784527
5.228901 8.983886 71.699715
-8.423908 8.329302 74.881310
6.837126 -9.439433 82.925575
13.376692 -5.683630 110.576805
5.667655 6.646404 117.930893
19.220417 -2.766594 58.475533
-15.150676 6.024450 106.097229
1.054604 -9.786600 84.663757
9.023823 12.690419 136.031662
4.052219 8.714809 156.418045
5.465469 -10.554665 104.047783
14.466478 11.599457 91.481659
-2.176152 -15.078238 130.324783
-9.704817 12.254266 87.827179
6.740879 11.568779 102.211105
-8.996468 -9.162687 88.956993
-1.192663 -11.773993 91.461838
-4.734250 5.997060 112.924194
-15.642570 -7.979754 72.903801
2.829379 9.953320 73.575615
-6.573572 9.042156 58.843189
1.264668 -7.776727 73.484520
3.460259 9.332508 78.692360
-16.601851 8.103920 68.128807
-15.436954 -5.672521 133.771988
-0.037403 -6.592772 55.561108
1.919029 -11.230127 115.854698
9.757964 13.336871 148.540359
-15.225841 -8.591036 95.673149
-8.936209 -6.348236 143.163116
-19.326567 5.199157 71.073692
-8.199801 -8.423509 105.317276
-5.122315 6.208317 124.424416
-11.804275 -13.247606 134.777725
-1.340035 -13.608175 125.760536
-18.194046 7.759082 85.519188
-11.919475 8.391817 58.738491
10.034300 -8.734348 117.767601
5.315354 -9.849497 141.776367
-15.562948 10.070551 82.726120
19.174747 7.627038 135.282852
14.597729 9.415427 145.831146
5.055091 12.884363 137.933533
1.953589 9.535079 80.757179
-8.669877 8.992609 55.966805
-11.095173 8.429368 58.927624
11.620189 8.794558 128.422684
-1.486215 6.772569 123.027473
4.772619 -10.273822 67.381195
15.598552 -7.392388 139.012268
-0.132646 -15.049909 133.927414
-9.478270 -13.829565 130.472214
-11.874533 -6.528177 66.179840
-11.708242 11.671892 142.561752
0.230511 -12.632160 95.393959
-9.664058 10.930806 89.818008
-12.620854 10.151843 148.221451
-12.989101 -8.726297 105.345123
10.773938 8.709658 84.362244
16.660145 -2.312745 99.860649
-15.985807 -7.086830 67.063042
5.911852 -12.009632 99.813675
-15.336069 8.665692 133.886078
7.779492 -10.004957 55.767101
-10.346871 1.615725 149.331131
12.421363 -8.464492 139.411514
-9.963293 4.840961 122.555855
5.744010 11.170862 87.519981
-5.379794 -12.331934 109.129486
8.476327 -8.984061 114.723396
18.034990 4.557442 99.230339
-16.724775 8.763729 58.346569
-5.987128 6.222974 126.631287
-1.426070 -14.958770 127.492645
-9.672033 5.023744 123.340698
18.536184 4.865997 73.075790
-12.719152 9.577383 137.217239
-13.136455 -3.159960 120.570992
-15.192571 -7.532565 133.980164
-6.496133 -9.037654 70.679321
2.822662 10.125470 148.130890
-13.779001 -7.779454 96.702339
7.112091 -10.514012 72.083282
6.002929 4.226673 112.114777
-7.746215 3.935914 154.595657
-14.182582 8.657089 66.443253
8.264012 10.493288 92.417145
14.223658 4.338978 133.753235
-5.705224 -10.968949 104.389648
-13.817527 12.314023 87.065056
-8.492568 7.896032 61.395046
7.900806 -0.793788 144.116882
11.581958 -0.516673 120.858322
12.947038 -9.880877 133.460724
-11.792859 12.189934 139.048737
16.193865 6.240986 152.244232
-12.997856 10.761240 149.718628
3.127259 9.598239 106.620514
-12.692863 -9.887357 91.902771
-16.030745 6.758327 90.222961
6.884114 1.325220 150.781555
-13.083817 -1.956819 144.017090
-9.677702 -10.970748 83.970268
13.226234 -1.014867 116.045158
-11.291767 11.308419 59.491230
-10.150756 -10.627899 120.419174
-6.231693 12.112247 136.601822
-0.004874 -11.606552 123.881310
5.242995 5.688652 119.627205
18.547579 -7.748833 73.437630
-3.227026 7.937397 125.842384
8.268833 8.757816 148.758118
7.763597 -7.006198 141.194733
19.980743 -1.337295 81.922928
-12.859214 6.956086 82.173477
16.390972 -8.664794 99.789940
3.669008 11.302713 149.342422
12.132030 -2.829728 149.022034
-2.658650 -8.236937 139.653671
4.738829 9.639709 69.135597
-16.208057 3.559633 58.539738
2.833964 -10.631301 95.347412
0.309111 8.378716 120.698280
4.753072 -10.888544 82.849983
14.855241 -1.244455 112.472778
14.159594 11.605155 139.850159
3.519553 -10.087417 114.828339
-13.820601 -1.279067 126.945221
15.911745 -5.020533 135.069092
-11.727967 11.523458 97.814987
10.555648 8.231718 64.500725
7.655605 7.724133 151.055161
18.581232 2.555323 69.465233
-0.020893 -11.373830 98.190224
12.039516 -0.178521 147.038849
7.105540 -10.210396 120.921181
8.225971 -11.638577 135.737595
9.323530 -9.774192 137.610703
-19.710821 0.601534 82.684265
4.688141 12.810006 95.897682
6.899065 9.118078 71.859108
-14.348312 -1.338753 123.362831
-9.816854 -7.836668 67.584831
2.713890 -9.824946 85.724792
18.877977 2.356500 67.530563
12.928859 -8.514085 104.442207
8.241379 3.183655 154.118607
1.220795 13.049280 144.081360
7.736283 -6.536565 58.655972
-16.985991 -4.731017 130.917816
-12.865978 -9.094021 107.607292
-0.345956 -14.175494 127.873474
-16.121046 -4.689683 96.825386
-15.242373 -7.108764 62.785389
-12.598070 7.896607 55.248947
-8.854638 6.789784 108.952950
7.532072 -4.710917 144.980011
-13.684989 -8.699890 69.881783
-13.012114 8.383657 52.567291
0.012403 6.964767 111.245949
7.567593 5.324972 116.447426
-5.370076 9.372824 68.192352
-13.188805 -9.025144 63.764450
-18.354631 7.529928 81.147003
15.499798 3.533563 102.294380
5.829466 5.280403 121.018715
11.462456 -9.650404 76.301865
-6.546615 -8.177917 139.816864
-17.250858 6.526082 71.020691
-6.022882 7.233365 71.193932
11.663630 12.190238 133.791626
-18.084051 -8.120780 69.171661
8.766847 -10.372309 119.114616
-17.851990 3.315808 101.256218
-2.322241 7.637188 108.310349
0.096576 -9.715111 86.986702
-3.567829 -12.152200 118.853401
-4.533950 1.270114 154.896408
19.049099 -1.271958 68.563316
-4.341050 9.202798 128.883072
-18.253521 4.971232 85.920898
12.214135 -5.923021 60.407387
-10.727829 12.735201 90.121841
17.271780 -2.041222 95.831398
13.270372 8.758660 67.803246
-12.887858 -7.728138 63.527901
5.595973 -0.815972 151.779297
-17.018932 9.853715 138.309418
-9.547359 -9.336405 119.078285
12.710707 -9.483065 94.659805
-6.861724 -11.166747 114.494843
20.630260 4.045703 87.158974
7.629054 -9.775769 76.503975
4.043483 3.570978 156.747620
-8.199407 -10.595737 87.177589
14.080225 6.104081 150.729141
-4.267083 -11.485525 123.234718
-18.205929 -5.371407 81.960083
-12.679159 3.647462 108.281845
18.413288 -1.080369 98.794807
-3.436829 5.869183 111.808556
6.279984 -9.614569 146.661728
-1.645409 -13.004099 130.145996
13.383034 2.549081 125.683746
-6.597565 -11.071592 138.131393
-19.010603 -2.071617 70.545601
-8.748291 12.291240 93.922791
-19.892540 0.055446 75.467812
-9.136886 -0.690473 151.358780
-9.409084 1.827076 118.851860
18.654121 -4.549994 84.311287
-10.039544 -10.212351 139.092606
8.865459 11.478016 97.334991
17.225050 -0.593432 92.815636
4.137156 8.461636 63.139847
-4.563513 10.736234 84.469650
2.649535 -11.664756 123.377541
7.467483 -12.260207 130.322952
2.750115 9.215322 64.588120
-3.024331 10.534791 84.946793
15.204694 5.780440 138.337097
15.164295 7.990602 83.138412
1.587147 12.758915 143.962128
14.289611 6.225679 93.029945
0.033390 -7.839777 64.413353
-4.015725 9.805651 152.345322
-3.393116 -11.572156 80.001640
-1.212171 -8.208766 59.981480
5.023510 8.342040 63.753384
-11.487123 -9.543544 74.974838
-1.693211 11.834731 124.467422
-7.508495 5.121881 117.232330
14.375484 10.279659 71.756439
15.759733 -1.080357 136.541031
-19.549751 4.387953 74.852638
9.201501 11.515582 143.453323
6.852025 14.120728 93.435524
12.598400 -10.584940 71.667686
7.048084 11.562790 92.154488
0.886982 -12.284719 119.005676
10.149714 6.723867 122.805466
-18.908770 -5.452532 81.206192
-12.702285 -10.066486 74.334770
-18.942293 -2.999742 56.124966
1.020506 -12.897926 120.590797
-5.424233 -5.064432 146.005264
-12.625182 -4.626242 128.473557
-8.343763 -10.337485 126.165237
-6.375855 10.034801 108.500092
-6.475986 -9.772416 81.198471
7.389649 9.731533 74.034859
14.524614 10.514192 145.738922
-6.921819 11.575257 87.346024
18.848370 -0.057222 95.819267
11.726377 2.166392 111.502686
-2.842659 -6.449576 72.646507
5.054490 -12.117598 134.243439
1.946912 9.201350 152.393768
5.775952 6.384339 106.638077
-19.649822 3.070387 88.229889
-7.788252 -10.321819 90.164200
-6.612246 -10.915130 88.944832
-11.795527 -0.373313 119.525429
-9.569944 -11.862880 79.844116
19.316574 0.203551 63.859932
15.357821 5.286988 72.025375
-10.714694 1.369372 116.337280
-19.096083 2.299248 80.846542
-16.607605 6.411058 94.878090
14.883141 7.715605 100.079994
6.763402 5.146172 126.207550
5.479011 -9.238023 144.460464
-13.169990 -3.061739 128.425903
-0.991569 -8.977221 90.871613
-7.128116 -9.629563 69.815514
-9.464397 -15.593540 129.370285
11.447225 2.821036 122.521713
-1.849299 12.077141 95.156754
1.111386 -12.099100 119.414452
11.397243 -10.005351 138.935501
6.430776 3.006450 152.199738
-16.818123 -9.013701 76.867012
-12.195556 3.507097 124.260315
7.407829 3.030332 153.808121
11.595475 -2.331978 112.728851
-7.256520 3.287402 151.944534
-11.108475 11.307808 137.492966
-14.851816 -5.715487 138.272751
-8.659599 -10.863156 118.784019
-15.581046 -2.114908 136.339386
-9.086433 8.486713 86.292328
-12.424393 -11.488699 133.531326
9.333583 -11.526955 126.369118
-0.658883 11.077593 124.164619
-0.695521 -9.550473 76.356049
-14.762957 -5.696463 60.646683
-1.495518 -10.214501 141.780853
-18.888268 4.976717 79.134399
-12.275760 5.077735 121.542633
-5.895152 -6.460026 66.237457
-10.252439 13.326518 90.193222
-3.819921 -14.390210 135.593353
13.371536 8.973383 72.161736
-15.968757 5.631031 153.010605
-11.983368 -9.047492 96.631660
12.198272 -6.350975 140.468994
8.645830 2.084358 110.796211
7.354776 8.965058 59.702908
15.687137 -10.477565 89.020836
17.951101 -3.808733 144.248672
-17.379625 -5.498968 53.098259
-10.664924 -8.853072 119.874832
10.513798 -6.993052 115.410400
-7.059965 -9.449631 92.659088
5.072859 -11.815791 108.356628
-4.248664 8.599613 59.905487
19.602419 1.476454 89.492828
-8.318666 11.073177 94.935982
-6.001650 11.261226 131.206375
5.168144 6.906565 115.857162
2.849419 9.924792 154.549637
-19.892107 -3.000596 61.344967
11.066159 1.203875 121.965691
-5.852168 -11.513668 120.769081
-18.307219 6.138227 82.717400
14.755853 8.329839 137.922791
-6.636468 -12.839255 133.438293
6.013730 5.114961 121.753357
-6.427545 12.579683 131.727432
-19.048574 4.492161 74.018463
-1.282788 8.816840 103.533783
13.099074 -0.506624 123.087479
-19.552113 -6.619705 90.591873
-12.637244 -11.890162 132.810257
-13.685598 7.725137 61.483833
7.780988 -10.254640 80.316689
2.038023 -14.671455 133.688873
7.035532 -7.967382 99.940720
-8.041123 9.583091 87.207520
-7.533794 -10.945254 117.651939
-8.333144 11.688278 57.075371
-10.016558 11.902459 91.696350
-4.572814 -8.048909 72.904877
15.115763 4.365673 134.581329
21.740965 -0.573160 68.776886
17.794722 0.915644 96.922104
-18.349260 -0.716493 93.272804
-5.822327 -13.478117 101.711639
4.935262 -9.862363 87.179680
-1.624013 8.896781 126.347527
6.161915 12.137331 96.847572
-16.889433 -7.164176 96.433998
16.943405 -3.264689 96.759254
-17.455849 -6.699282 58.571728
-7.844923 -9.744311 113.976616
17.463404 5.430040 150.213730
-3.105814 -13.448111 129.400085
17.554033 6.673762 90.449219
-1.615198 10.955384 104.754662
6.464292 10.272144 151.751358
-9.149438 -8.860973 115.967491
2.128965 12.122209 148.568146
-8.999981 -10.920283 118.692345
8.950795 -0.089782 147.824554
-17.390421 -6.491612 96.099472
-9.984674 10.542085 98.095085
16.598032 5.479156 92.613213
-13.793351 -9.420895 74.738335
13.074300 -4.999761 125.152824
14.244689 -5.158184 143.361649
-7.282631 4.863629 155.967392
19.785250 0.807119 95.965599
-19.299541 -2.323108 71.816055
12.820619 -9.945728 80.791985
18.666075 1.354363 74.985748
-10.166133 11.262792 126.771156
-8.258673 8.877482 65.763306
-12.540342 -1.271303 122.526176
-16.120863 -4.712829 143.832092
-13.693458 -7.786545 126.700180
-17.704395 3.667940 91.113640
4.939531 10.307008 84.082520
13.542385 -5.262733 55.231472
12.062574 -7.340529 67.074860
12.472661 -2.247772 115.328773
-16.900791 -8.076669 74.426292
-2.690939 7.337967 73.738014
15.769367 -7.446539 77.042740
5.977663 7.927823 150.489349
-10.959896 -7.403916 67.584755
-17.668835 -8.005521 83.735252
10.322037 -10.229848 72.033394
6.275727 9.340960 80.367653
15.179152 4.657221 105.570572
-10.152235 5.250774 127.761337
17.940386 -0.229538 100.390938
-10.954417 0.592097 118.900887
-10.703445 8.775944 103.360519
6.941116 1.699979 153.326126
12.735922 7.634453 73.363342
-13.572136 1.290589 118.638557
-1.840714 -13.407748 110.965096
11.686147 3.056309 153.660538
-4.917748 -12.244581 142.691467
3.181750 12.213639 86.466988
-17.806725 5.660849 54.806377
-2.698370 -9.110463 57.236549
17.075293 -8.112315 101.865585
-8.030857 8.684928 124.069916
12.373176 -10.134850 138.197372
18.816551 -4.916275 53.803112
-4.949712 -8.583005 142.728699
4.817240 -1.909613 153.290543
15.934356 -4.911451 90.412849
-1.656243 -11.895538 83.619095
-4.342349 9.871254 103.049255
14.138224 -6.435830 140.537628
14.959080 -5.748690 101.742729
-5.282784 -12.337941 110.179428
3.145136 -12.530154 117.724632
-7.812244 -8.121594 112.794525
1.675080 -10.052844 139.559952
-6.249860 -8.625662 69.749443
-6.658473 10.081310 78.879852
-5.547265 6.987288 118.326836
8.680231 8.066713 153.011368
-10.752352 8.382041 106.128777
-6.348977 10.952891 93.665222
-0.776364 -11.480851 107.472801
8.315392 -8.633325 67.547676
-16.902847 -8.010499 94.844025
-5.816893 -10.802856 124.543968
-18.633213 1.183995 92.587303
-11.276896 -7.879253 61.218544
-6.688275 -4.515796 146.645874
15.273774 8.113783 147.786102
-0.773180 10.225440 83.717751
-14.680292 -8.311032 128.096481
-8.569653 -11.625272 107.929573
2.344230 -11.034305 101.002174
-19.397243 0.235826 57.086723
-11.120440 -12.066817 84.482193
8.228598 8.345684 83.334625
14.586675 9.906063 86.390320
4.152338 10.542451 151.054794
-13.515210 5.299265 151.710449
12.691384 -10.982699 85.013222
-1.436041 -7.172641 147.186539
13.168974 -3.264457 123.840309
16.373575 -0.269715 95.639008
7.857064 -8.873687 111.271446
9.853574 7.924550 85.863182
8.696048 -8.876773 76.686569
14.855876 -6.144120 143.549774
-8.167826 -8.316404 142.684128
5.756574 -10.311392 79.563698
-19.723162 2.902887 78.125130
2.071743 13.338596 94.592316
13.027770 -3.121357 147.398712
-14.799590 -6.646153 106.180344
-7.852889 8.131160 59.027588
-13.400278 0.763689 112.969772
17.296204 6.371909 90.777725
9.480836 11.688672 94.108406
7.564224 9.749326 56.836365
-13.513279 -7.252754 99.772392
8.353958 -11.429365 112.399467
-7.771687 6.430612 113.655472
-12.612511 3.213799 115.394356
-13.015548 7.896883 97.285866
-18.111557 -8.811217 65.886162
12.166424 10.981506 89.620529
13.470013 6.613913 152.103683
2.065732 8.488089 124.095192
19.999554 -6.870254 89.113007
-1.230161 -11.843723 87.170517
-12.492178 -4.280285 119.392273
-10.040288 -7.105355 61.052822
6.793671 11.478283 135.886902
-15.420860 -9.391642 87.520279
-16.750896 6.901409 66.706291
-11.633138 1.521113 112.664604
7.808027 8.325027 74.824669
-8.655945 12.054687 95.244553
-11.214163 8.903710 61.669090
-3.159366 7.675231 159.230347
2.844517 3.668870 155.656403
19.293446 5.093266 91.050835
11.324954 8.582633 78.339119
-11.696457 -8.628999 73.322105
4.215601 12.236997 95.066841
4.420295 -10.917355 92.133278
3.198710 -9.645261 62.869183
3.039115 -12.153669 139.066986
12.087890 10.369172 93.011047
-12.663116 10.440579 97.217354
17.758736 -1.988189 54.870182
5.356294 -9.121368 107.856918
12.113979 -9.888199 119.812187
-0.592940 -8.112947 54.277447
-13.492739 -2.864869 128.928680
-11.690588 -7.982458 52.257339
13.910569 7.644274 82.046638
2.486002 -10.686961 139.078812
14.076470 7.111344 69.577530
6.726893 -4.811830 148.388077
-12.277704 -9.235519 76.215683
-13.259339 7.862967 102.738754
6.632022 2.944218 153.169754
16.041740 -8.589875 83.931252
-13.412769 8.923620 146.535553
15.895369 8.604929 149.714920
19.072128 -3.966879 82.707603
11.865936 -10.631044 93.549500
-0.335408 -11.055668 100.488884
15.708544 -5.168365 130.462158
16.343567 -6.115176 147.629303
2.147382 -11.977491 102.806602
-14.488283 -6.305149 142.769028
-13.258251 -5.606654 109.667862
15.470878 -5.933578 55.301243
-20.495770 -6.402709 82.355705
-9.069649 -8.057295 74.488594
-16.616379 4.187381 56.813148
11.460833 3.298814 113.544601
2.893275 11.388948 57.371883
10.264883 12.984284 91.256248
-10.601810 11.341944 97.354347
-11.155204 3.829989 108.295143
-11.659549 3.126311 115.028145
16.593866 -5.603209 56.906223
-6.226941 -10.958563 73.158684
-11.043904 -8.021013 67.643143
-17.201685 -3.038511 60.588482
2.575599 9.445565 68.008675
-12.526443 -10.187379 92.680641
6.922022 7.106347 59.629993
-5.154434 8.761937 68.851883
-1.324386 10.908284 98.415443
-20.151175 -0.648865 77.298431
-19.449198 -1.859504 81.962212
7.599968 10.264620 55.243294
6.170204 -10.329033 101.983223
0.806790 -13.766710 122.162544
2.737880 -12.685387 111.964531
4.887487 13.965449 87.273376
-12.395800 -9.081253 110.224808
-18.236467 -4.631123 64.499130
19.198158 2.759364 55.205467
-9.353209 -2.111197 149.035767
16.100496 1.841343 133.767838
-0.329409 11.258090 132.044937
18.982306 -7.439023 80.690369
-3.677559 -8.969763 83.128433
-12.161611 -8.901004 140.076492
0.307924 11.396501 132.840958
7.195888 1.519324 153.356308
-18.043762 -3.615465 63.532455
-13.286810 -9.146248 129.693832
8.549280 -9.553780 124.883041
-5.232114 -9.447489 98.892952
7.889264 10.157394 147.262695
-10.094776 12.222862 93.860275
-0.647959 13.312297 91.875961
-15.844849 -7.387333 54.040783
-0.709426 -10.396472 81.193871
-3.086184 7.861755 123.537689
3.349770 -12.492969 81.678360
-0.143601 7.295550 70.685143
10.771241 3.706398 117.677963
-2.295461 13.363496 138.945465
6.901803 -6.609570 141.287994
5.778094 10.969444 129.523193
-14.353703 -6.277939 138.487961
0.316956 -11.930163 99.949547
2.743487 12.783624 94.845825
2.377783 7.234380 157.232666
20.339823 1.414029 91.520760
-8.880248 -9.849201 112.576347
-13.345819 7.116615 82.261520
-4.276057 12.709470 100.530853
14.380996 8.602025 60.102257
-0.889248 -4.581898 145.501419
-4.895802 -6.512772 61.854645
13.900268 -0.153431 128.647842
5.512173 8.144487 107.419029
-12.960551 8.526801 62.293930
-10.611423 11.334780 134.800552
9.822680 -8.081370 115.561119
15.841477 -5.955580 88.224396
1.252666 -10.635661 81.528885
5.094511 8.152731 156.722305
-10.649818 -6.266812 119.649818
11.013886 9.836396 70.591560
-4.474986 8.190635 60.301201
18.506094 3.664328 82.107040
10.514233 6.399764 123.957268
15.999592 -8.686252 84.211945
4.808883 12.611429 138.514404
9.599333 9.718375 82.741982
5.615021 -10.524259 142.346420
1.673485 -9.921446 141.831650
15.373854 1.387314 130.108276
19.612492 3.208681 88.398415
-20.914539 -5.213848 65.525398
11.368436 -7.115601 119.302574
0.361789 11.700334 149.603546
-3.352941 -15.731851 127.034103
-7.646392 -8.669838 63.060349
1.197582 -11.101919 135.549652
0.467913 -10.463093 79.718277
17.495480 4.356323 81.376236
-3.379716 -9.517664 83.449257
8.060312 9.827400 127.656647
-13.973107 8.902397 94.039726
0.223870 12.113841 155.356323
1.807703 -13.324034 134.471069
14.962893 -6.961430 131.502258
-7.367805 -9.140794 142.917648
-13.768563 3.982157 129.127274
-2.656111 -11.315354 102.946503
13.500704 6.018405 127.039490
-13.980040 -10.395719 99.917511
1.516976 -12.825319 101.154099
16.025864 -9.184013 83.770607
2.498381 11.152505 83.044716
-20.540758 -2.592220 70.225914
17.343540 6.562190 83.118454
-1.349794 7.048667 61.812672
4.957120 7.638617 155.394211
6.492266 12.815218 142.287064
13.713363 -9.038268 90.160675
14.358764 9.850316 71.635521
12.007791 -11.444808 131.760315
-14.640457 -1.261636 112.260757
17.896042 9.417907 82.960716
-8.146513 -2.387666 146.832993
7.889469 7.966141 155.065704
2.011725 -10.864689 105.773277
-9.353877 6.571812 158.053955
-13.309278 -10.638376 138.956528
-17.333628 -3.332675 55.223022
11.076436 7.484116 55.568451
12.199238 12.993142 141.906586
14.014174 -2.816103 112.661888
-1.773137 10.258000 100.325104
6.953115 12.193642 84.052673
3.119058 -13.939198 106.465408
-20.523741 -2.148458 90.287926
8.597195 4.862617 117.782417
11.395211 -7.379275 69.352402
15.377351 1.100260 151.560410
0.745556 9.667459 105.944481
8.142354 5.857631 108.817383
9.918552 -9.644943 123.290634
8.744554 11.547741 147.136215
2.124753 10.736540 127.374817
13.093711 5.786820 128.299149
4.683379 9.497325 103.178322
-7.746171 0.554441 151.199097
-14.298928 7.327561 58.772766
-1.752321 -10.906725 110.488747
7.528030 8.233888 127.376389
-6.172266 -9.546816 110.637016
-11.619868 -8.026319 106.149666
-0.490514 14.021993 139.480576
13.979812 -1.532649 147.530869
-6.795368 3.144627 156.323975
16.956121 -1.354154 100.197296
19.097040 4.061933 83.724358
0.624911 -10.993403 72.711800
12.901655 9.585752 56.863529
8.706985 13.521321 92.132866
-6.731746 -10.139826 102.461197
5.490890 2.266079 153.211365
3.542638 -9.456811 138.737503
0.735646 -11.041742 102.114510
-8.378730 3.024864 151.986862
3.608846 -6.460485 52.579002
11.300704 9.065401 82.042961
10.261703 -3.075396 120.991928
-8.201066 -8.253930 63.076649
-12.110372 -7.675140 112.388016
4.399810 -9.425246 85.257858
-11.142556 -7.470063 103.003708
13.201346 -7.835239 62.725731
10.049944 6.161660 110.889999
10.285572 10.045919 78.913010
-2.733634 -8.190629 60.241795
2.175097 -7.969898 62.112938
13.820699 5.272672 110.761414
-6.400104 -11.182377 120.717178
22.350363 -4.582591 85.541054
12.864289 -7.829848 107.556030
9.709027 -10.193127 98.043350
-12.210881 1.116528 111.784531
14.081766 7.822754 89.021690
-15.768698 8.484418 135.897156
-12.136033 -8.238832 109.914009
9.771836 9.682631 124.309929
-17.268419 -4.657975 60.294907
-7.214786 -9.367613 52.969639
-16.901564 -4.274339 139.861130
-11.745897 -0.465919 146.180847
-13.303218 -8.126204 51.786621
18.031828 6.216257 57.581673
10.746322 4.629238 119.972694
5.896880 10.136494 66.010666
14.878848 6.470493 81.452225
-16.415989 8.507113 87.294189
-17.776505 5.824228 71.226456
-8.022539 6.611225 111.122208
11.614060 -10.111888 77.370178
3.435410 -10.523414 138.215988
10.054641 2.950952 118.284912
-16.636845 -6.668294 57.978867
15.400527 -8.628288 137.847702
-10.982623 4.204660 124.451088
10.317472 -5.460945 62.280460
-0.563809 9.493429 77.866226
3.784591 7.765525 79.039345
-0.534440 10.486968 68.326302
10.612312 13.343120 94.601753
-9.997678 11.263211 93.080421
8.012022 5.112132 125.273514
10.954350 -8.712152 102.313286
-15.227345 0.339610 130.317825
-15.775540 -6.069414 65.567871
5.109682 5.636793 119.334702
-14.951214 -4.903761 143.192795
6.886920 10.103099 105.238724
13.869585 3.968095 111.636940
-6.005130 11.226637 98.632431
-7.860193 8.703622 109.844261
19.687305 1.965281 87.663223
5.305423 -8.400963 91.340027
15.146317 -6.727155 56.620121
-18.560452 6.449826 55.432461
-14.594904 6.202346 133.900391
15.695351 -9.749614 132.721741
17.790779 -1.848169 75.486069
-1.740882 -12.356918 110.782776
-5.548762 9.087318 124.919128
5.516613 -9.210408 139.305130
7.932609 1.617652 152.128937
5.681403 -9.856302 145.957382
3.798223 7.539961 154.565521
-11.080796 -9.480381 76.329926
12.387181 -2.643261 114.739578
-2.936285 11.213594 100.245247
-20.524553 2.769109 85.190125
-9.781075 -5.531244 144.339966
-10.094316 5.265195 124.345238
-17.150621 6.030008 78.980377
-4.684969 -9.848175 143.510223
0.166833 -10.937857 70.669212
-12.079269 4.683289 124.280304
-9.940282 -7.954975 113.486420
13.040265 -4.323498 109.834358
3.421211 -9.127307 54.568642
-0.324950 8.397191 81.821518
-5.160361 12.733556 143.505142
-3.211251 5.448963 113.511299
-4.581287 -7.746279 58.389091
-2.842243 10.795727 101.738365
-9.012989 -8.664030 59.401909
-7.131926 -7.798075 74.799774
-12.669043 4.982573 101.393677
16.553486 6.366731 150.113998
-5.193178 10.807280 126.136116
-6.694878 9.483039 62.440472
17.445766 9.100526 95.491776
9.136973 -10.446746 91.997391
-16.726410 4.235017 64.970718
13.826518 8.744111 60.625004
-12.482905 9.989149 81.478317
-3.014773 6.347025 155.127899
-8.971317 -9.749562 141.832657
-12.319094 -11.678706 86.795921
-13.963224 8.840997 84.790443
-15.021937 1.039447 122.452171
12.308794 -8.961080 89.309128
-0.864791 -11.500719 124.635475
-6.245990 8.727704 155.969421
13.084796 -8.227762 143.557617
-6.284303 -9.560193 110.937538
-18.369486 2.655408 60.166229
-7.002849 13.261669 95.730072
-12.438951 4.490674 155.042221
15.163883 7.956199 62.272339
5.194022 10.584983 150.848312
16.863947 -3.123480 144.230911
0.777958 10.953208 100.521454
6.275775 -2.377462 150.485245
15.739122 2.311449 131.568970
-14.746787 -9.190728 85.561150
-10.223212 -9.862027 80.561287
5.629843 9.618413 100.005424
16.926374 -1.481308 134.232819
-11.085027 8.265939 72.620399
-14.621696 -6.607715 69.029366
-2.841750 -11.967937 133.129318
-0.330443 9.661839 87.123268
-9.058919 9.832641 148.949585
-14.599981 -4.559393 54.860683
12.544325 8.932906 91.346245
-18.456852 4.203881 66.912987
-2.023505 -8.716751 63.772877
7.825562 -13.832366 124.452484
-16.362059 6.152707 136.452454
-1.293589 -13.830686 119.369629
-8.738886 6.827655 108.261505
-13.885363 -2.421801 145.863510
2.054440 -10.208924 85.808800
4.228109 12.181056 139.576584
-4.141461 -0.619496 151.563629
18.284397 4.903133 76.971481
2.489702 12.900739 145.591965
14.040277 -2.871904 127.630127
-0.723006 -10.066164 110.674667
-14.178605 -7.213090 99.056175
13.752084 9.851749 90.022858
-11.119103 -2.126501 115.366371
6.938190 7.202352 110.910538
17.368675 -8.778351 72.679604
-7.333130 10.059433 128.512558
5.534192 10.968836 124.049553
5.335212 10.163781 61.012207
0.042571 13.974427 92.896019
11.996306 3.976568 109.351540
-14.556988 7.537053 90.762115
11.007399 -10.411774 122.858398
12.652616 -2.785741 116.045143
-12.990853 -1.875403 142.845139
-14.626980 -4.629710 144.546310
14.102841 -4.889575 100.694939
17.365826 -6.917126 84.110672
-13.749995 -9.212868 139.090729
14.661216 -6.432153 106.474312
-14.528892 8.171054 79.308685
14.872161 -7.645323 136.259033
-13.361832 10.182769 94.601082
17.608751 -1.131718 149.516922
-21.194220 5.310556 77.636238
10.695210 0.181399 148.857651
-13.084689 -11.292089 75.182632
5.715530 9.763778 84.345085
-17.929470 -0.469850 103.685524
13.813395 -9.212239 129.979614
-0.288663 -9.284171 84.027840
-18.498087 -3.654195 96.440666
-12.300444 -5.666248 125.809532
-1.770854 -10.925595 108.941551
-4.338654 9.747258 129.328903
-16.038263 -2.171027 95.821289
1.157796 -12.680899 107.370049
0.546075 -12.593129 119.276627
12.770559 -10.874272 79.474937
14.676426 -5.738830 53.311520
-1.532056 9.941923 152.387100
0.719833 -12.787967 132.250702
11.109805 -10.696448 138.232941
-17.401752 6.446318 138.351974
17.352158 -3.813527 59.696583
14.181258 5.482088 131.759155
12.069775 -10.740046 130.399796
-15.983244 -9.305273 81.445183
15.637198 6.714022 79.579414
-9.361410 -3.766941 144.885147
-4.541513 9.291589 62.896400
12.415301 9.202025 98.745644
-16.988991 1.232421 132.027176
-17.157393 5.168125 83.662712
0.942190 8.296220 122.661385
-16.721846 -3.066919 133.356979
14.705228 -9.615987 130.564178
-5.498927 -8.075110 72.507278
18.048988 -2.986577 70.403206
-15.071560 -7.041475 134.929169
17.266800 -6.701679 97.532845
-17.998035 10.206652 63.283413
-17.634453 -0.066454 96.573601
-6.504101 10.448246 136.817703
-13.723462 0.085824 111.967255
9.551442 6.253326 126.766167
3.212791 10.451308 135.971664
18.685787 6.345187 81.286255
-9.683479 -11.843259 88.885933
6.317864 5.985219 121.328156
-8.965925 6.710944 104.975983
-3.868174 10.443955 60.225220
-9.250583 9.390802 97.367180
22.429802 -5.165836 75.978821
9.957285 -6.844763 119.936394
-8.932587 -10.143992 101.516129
-5.626277 -8.223498 64.004875
7.440962 -15.886975 129.877960
-7.674227 -9.491289 141.844070
-8.106532 -7.418042 146.111267
17.968666 -6.478217 86.330246
17.884169 7.688508 66.957672
17.177549 -5.309085 53.641804
15.508002 3.032886 102.159737
-5.025923 -12.414124 111.345970
22.446779 2.154614 86.201630
-4.047990 5.679432 109.906250
8.745726 11.330598 92.539497
-8.969459 -8.820268 103.984230
14.171236 6.906709 102.205574
-12.950818 -6.399655 70.050705
15.655689 -6.468993 102.075470
-0.784375 7.126126 83.887550
18.770615 6.512543 70.151772
13.050918 5.813769 132.607773
-20.864878 -2.807230 65.047867
15.323569 -5.326765 106.034431
-1.285567 7.347402 156.214081
19.265766 -3.964068 93.292824
9.402939 8.372263 151.963837
1.382306 -11.126914 99.112968
-21.519594 4.134743 80.866371
-11.911725 4.262528 130.606018
-15.274531 9.368035 139.437210
-8.757092 -8.414068 60.556408
-2.071047 14.383317 95.630310
6.573387 -9.350652 145.901169
-17.958210 2.335113 63.216419
6.986486 -7.355850 64.352760
-18.821020 -1.487812 64.272133
2.500313 7.167483 155.153275
17.768536 6.167658 81.345764
12.693766 -7.727483 98.534546
-9.751075 -10.823028 124.242958
-4.094732 -11.256771 87.013580
13.670303 3.992263 102.198341
18.349285 -5.864520 83.008926
-8.522083 3.688213 116.422897
-16.262648 3.558511 151.149048
2.113143 10.249044 85.252640
4.582779 -0.711642 154.924393
14.372820 -7.662549 104.364624
-13.792450 -2.677373 126.459839
-6.871263 -10.210986 83.969116
16.053942 8.069981 135.451965
-17.599398 -5.456711 137.101868
7.160288 -7.050889 57.361618
20.576906 -4.898188 84.263168
15.311744 5.679209 97.050514
6.111004 2.654007 154.876984
-13.474116 -10.790741 94.199051
-12.583101 -9.162817 121.985855
4.934257 11.001386 133.521362
6.660300 8.689169 129.526367
-11.089684 -10.971857 120.376190
-12.428646 -9.143186 53.546185
14.999448 -8.501415 87.252892
-10.307480 -7.705552 69.671097
4.937363 -14.023146 101.888474
0.121852 -13.083580 81.912575
11.751132 4.639920 125.905762
8.211439 9.852573 127.823349
-6.848886 12.602314 142.772003
0.099106 10.676096 61.925045
6.595317 -4.210557 147.408234
1.552506 -14.826993 128.601959
-11.717923 7.988906 70.227829
-19.734358 -1.729825 89.362961
1.034611 -9.651256 64.143158
-1.056903 4.690011 109.977608
12.049279 -2.371303 148.835281
14.136988 -3.815304 127.727905
8.870202 9.585079 150.141891
-6.762475 9.404974 153.590576
16.779846 4.861651 96.912025
-20.702507 -3.201021 77.268974
-9.887937 -12.759314 128.674057
-14.403871 9.060856 77.956421
-11.462813 -9.626780 86.353363
15.953546 6.944265 100.124702
-20.698847 2.319752 71.666718
6.059507 -10.072378 147.160629
22.173826 -3.257316 90.795738
8.696298 6.884062 118.303337
8.081381 10.501573 151.939499
6.100287 -4.792180 55.426842
9.942783 7.474799 85.589661
10.797783 9.204053 148.870148
-5.953331 7.537334 108.918716
-12.108153 -8.670621 117.321831
3.100053 10.490961 129.799759
-10.094540 7.259823 120.028419
-17.782875 -5.106854 59.226673
7.057835 -2.283798 146.200287
-16.084248 7.830585 150.495316
-11.596914 -8.245597 111.276550
-7.736191 -7.933849 54.722263
-7.573295 -6.464156 142.148727
-13.710217 6.067240 100.862999
15.780310 -4.314664 104.499298
-0.970986 -12.002990 101.768486
8.900226 -15.860258 133.025513
6.342613 12.635255 97.801567
-20.955742 1.484575 90.838242
-16.081827 -5.508863 101.514053
-15.320872 10.204755 86.781349
-12.642450 4.493940 121.163017
16.038532 9.604877 142.304291
1.381219 -12.895564 125.482422
8.903496 10.317234 66.707253
-2.820047 7.574210 109.649216
14.834815 -6.474062 142.192108
15.418541 -8.160226 97.392921
0.009379 -9.409923 90.853378
-0.940983 13.915343 140.617477
1.816213 -11.515064 134.020370
12.579373 -9.421193 93.709862
-6.057310 -3.582529 145.529907
15.812657 -9.072080 74.038612
1.569892 11.800786 80.456993
-0.418673 -7.258281 58.699852
6.434385 -1.822461 152.544403
19.280581 -2.654543 61.416740
6.486864 6.685882 125.194809
13.844320 -9.244048 128.387390
13.736118 -1.882063 137.853210
-18.877672 5.257344 88.997513
14.021364 -3.203676 147.252930
-15.438637 7.822510 66.933281
-12.346895 8.721275 57.714409
8.032436 -9.318039 110.155464
-13.780620 -10.610313 75.119225
-0.658399 -9.814941 141.839386
0.278181 -11.894461 110.886650
-5.750951 12.094357 93.484169
-5.695016 8.699054 123.050407
-7.637205 -10.691051 95.402931
15.164859 -8.427051 92.370491
-5.014954 -11.025533 110.317741
-7.117156 9.660132 72.970963
-2.328181 -9.679570 63.201630
-16.919556 -2.991332 100.631416
-7.531314 -11.996993 76.401329
-9.144121 -8.518705 83.877739
-10.644650 -8.053406 63.715595
5.723190 -10.390081 107.157951
-20.073820 -1.966132 85.162491
0.814540 -10.754696 127.895470
5.312025 8.646975 82.228172
-19.612417 3.794826 80.434357
3.941294 10.944233 148.158264
-8.640272 6.344505 59.972523
-6.212608 6.310286 57.565277
-17.505896 -8.155951 71.207138
2.366436 13.735682 96.354897
2.682239 -9.262617 72.461304
11.084435 4.013697 152.243530
15.264664 -9.518776 76.307518
-7.020782 3.658999 112.769348
-5.157553 -6.582840 146.665268
16.433758 -9.151680 71.864029
-15.776951 -7.411619 64.572121
-14.445510 10.266101 90.058014
14.607925 10.400477 79.212364
-13.116628 -6.409286 61.814194
18.353962 -1.771844 57.487476
-5.810108 -10.276772 140.481689
20.145754 -5.181591 80.148911
16.321705 -3.135878 134.965698
-3.731601 -13.080374 124.718971
18.660181 7.917051 67.936874
16.156517 -5.797816 143.508301
-10.168754 8.959097 74.887711
19.519619 9.740581 151.589096
-15.866373 -8.271960 60.667801
-9.759080 3.994426 111.957634
7.736413 -11.084937 102.197578
-5.376096 6.166790 125.451500
-2.101211 7.931165 155.500183
18.199223 3.303232 86.615654
-10.714910 10.296703 138.864639
2.978150 14.272019 93.781586
10.439877 11.672807 141.070190
-0.036719 -9.598251 73.850876
7.575463 -12.190791 137.904968
14.892533 -8.538640 56.352936
-6.090890 12.206977 130.339676
8.866410 6.593750 105.329582
5.283647 7.905858 113.772423
11.020686 -8.338322 65.981911
-15.905842 5.070694 135.929504
0.416777 -10.905740 111.551010
-9.318885 5.780684 110.084801
-19.909166 2.267888 55.354862
5.475384 -0.308458 152.805664
-5.977685 7.392223 103.145767
-3.925109 -9.454577 116.738075
-3.446447 -11.489155 113.970192
-16.835333 -3.416190 93.564674
-5.527964 7.675068 125.291847
-1.708891 -10.277351 142.648438
13.883245 -8.361857 105.993576
16.789179 5.679335 96.423965
-18.406151 6.038621 137.961563
21.049549 1.899323 85.548691
13.073132 -9.702775 77.571358
-20.993326 -4.050935 83.784698
11.125162 -7.622249 87.489815
-2.251506 -7.282330 60.550087
5.030902 -12.823964 138.704346
10.307097 10.583779 63.336189
11.783536 -1.127718 145.952637
-6.274737 -10.709515 76.675278
-11.984449 -7.164483 123.316048
8.635897 -7.519360 79.849792
7.344206 9.323477 52.668831
-19.060434 -4.077666 68.788803
-4.462394 -6.949938 148.281403
-11.075718 8.283235 57.056793
-18.068718 2.383305 68.342514
-3.475049 -11.447990 117.093529
-16.368717 -6.097854 64.742294
-18.594231 3.819485 71.029663
-11.811937 7.374594 104.177284
19.220407 2.486415 55.837666
17.530048 -6.851730 69.632965
17.198414 7.186617 86.878883
-13.383142 9.105310 152.530182
10.892967 -3.656375 122.961800
16.872559 -8.971697 89.306328
3.600359 -11.143984 142.284409
-11.911077 12.088000 90.286598
-17.257750 -0.687850 98.614738
15.727180 -11.043757 74.240379
5.971884 7.621249 73.924629
9.137108 -9.319894 84.547607
-1.589546 14.326809 144.352371
-0.815878 10.243293 73.003090
11.809648 -7.693882 96.996162
13.704649 3.333019 125.479134
16.589329 -5.711986 139.189377
4.696499 13.056587 98.691643
8.996341 -10.280887 104.335938
-0.289814 9.954042 131.774918
-11.936949 -5.713706 114.101532
-2.297091 -8.413569 85.403557
9.026634 9.735762 149.031876
-14.907207 8.080596 92.966888
8.303590 -8.359994 74.150101
8.951405 7.344896 126.680740
12.712371 10.212574 87.719864
-16.530445 2.863963 135.806335
1.515608 9.345172 100.182899
19.522749 4.479755 59.533039
18.721064 1.211709 85.140579
-1.927700 -10.772757 98.615692
-1.013516 11.493860 147.129440
1.954576 -8.057741 73.237938
2.650212 -13.235306 126.925415
11.134699 10.113325 88.350510
-1.601045 -7.739893 61.647644
-0.420980 -7.684834 72.539963
-0.807626 -12.005249 104.433578
15.206124 8.505565 135.284195
8.565119 -0.576664 119.280624
-19.209705 -2.787293 79.209991
-4.916701 -7.548272 72.817711
9.210271 6.508310 122.299789
14.855392 4.300714 136.351028
17.419144 10.989792 144.734177
-11.655229 6.558244 104.452385
-14.999327 -8.908205 97.336082
-13.778914 -0.003488 112.404572
-10.368751 -9.205469 102.404480
17.032988 9.484253 90.976814
2.212478 5.903041 120.976250
1.922591 -11.139003 138.387711
-3.923799 10.126035 133.927338
12.818560 3.376238 124.678963
-6.711237 8.767837 150.594315
-8.253538 -9.213182 97.597488
-7.357858 -13.103930 129.211594
3.696763 11.218173 149.543640
15.291531 -0.786803 123.140320
19.516310 -3.094872 54.940098
13.894708 -3.406407 110.035950
17.307402 8.978071 85.149582
12.979113 9.823864 136.779373
4.916018 7.181847 107.099190
-10.344150 -9.248282 125.762627
-3.769588 -3.083302 150.758484
14.074341 2.389668 151.872864
0.051696 10.139776 148.251511
-14.738854 -4.315804 124.294411
4.201441 11.760270 99.538521
-6.913157 -10.453068 96.658150
-6.376991 0.417435 153.271545
-1.973224 -12.588087 85.522896
-11.415900 -9.010915 105.292992
20.657475 -6.671349 87.156303
16.245182 -12.130900 77.750084
-14.369303 -7.434174 50.015118
-16.994793 -6.715801 101.968636
-12.607039 5.797766 126.699257
-1.746181 -11.447134 134.820343
1.237110 -8.644197 65.241547
-2.006132 -14.087112 124.561302
17.535288 0.626355 97.312782
13.638608 9.229066 93.760254
6.610484 12.775697 89.033867
-8.954926 -14.890980 135.499863
-0.238826 -11.812907 117.996483
16.537542 -2.199474 126.496712
12.380532 -4.304098 145.790741
-4.239268 10.110795 131.004349
8.463668 5.689743 150.653809
-8.438194 -11.453280 76.220535
-3.608531 -10.733943 119.774475
13.770726 -0.448532 127.509338
-7.861946 4.984702 113.226219
-1.197889 -6.583238 68.506416
-7.892075 -2.298015 150.994659
16.096056 7.117172 66.883034
15.939904 9.113293 69.310905
15.533701 2.248803 125.847641
-4.952082 10.055920 78.356194
-9.401865 -10.538853 131.302521
14.023869 -5.240975 119.433205
-8.157112 9.769578 85.616096
7.025313 8.654117 69.639618
-8.734569 -9.069612 140.420059
8.969362 11.331413 148.790833
-19.999878 1.712395 65.522270
19.256821 -6.929601 91.305862
-13.090876 11.274456 98.664825
-4.307515 9.853155 65.618317
-11.132519 -7.457370 105.048607
11.721328 -8.983543 59.974873
-13.466442 -9.350869 128.123123
-16.082739 8.565265 70.956703
12.678161 -4.201810 122.080109
13.411254 -9.525892 131.866531
-6.554716 12.079235 86.091286
2.122753 7.567935 66.829987
9.287165 12.510546 133.892578
-2.296180 -13.074936 132.824112
4.275739 9.591081 57.912582
-3.987463 -2.398102 151.308487
-4.050419 7.763955 70.348793
-15.610978 7.601181 148.841202
17.226845 -3.666722 99.255150
2.273401 -2.241169 150.185562
18.087399 -0.100704 94.693756
13.522823 -4.086193 146.047806
10.448509 11.989078 134.611450
-7.658658 -10.091817 138.738800
-19.387072 3.709535 97.036148
-14.454543 -9.521921 87.262810
-5.510752 -9.071245 144.256775
1.026766 -7.689871 92.015724
-14.014915 -9.611595 93.288971
-8.836867 7.888609 132.920319
-8.726347 8.379343 59.365784
-19.480591 -3.624623 67.688576
-9.628175 8.611547 86.439972
11.895725 3.118592 153.073029
-12.217956 12.276793 139.769119
-12.313587 -0.044438 108.448471
-6.077811 -9.528482 71.604012
-16.064064 4.965245 57.330605
-11.976062 8.457912 87.348412
-0.075487 -8.768490 65.453033
-17.119789 -8.338340 86.712349
-12.165065 -0.606291 118.840508
1.543126 -11.863027 98.282410
16.610649 -1.088575 147.812271
-2.106998 -7.211972 56.201767
-17.003263 3.913156 69.444496
0.422935 9.400282 157.915710
-13.881374 -6.280116 56.596622
-0.168930 9.409845 73.517738
0.668935 12.163681 98.382072
0.494892 -8.177827 90.057396
-13.690369 8.534304 85.681015
8.994379 7.075165 58.426201
7.632595 12.475332 145.896347
12.551360 -4.022690 121.476082
16.782488 3.301576 97.290733
19.043842 -5.306373 71.630478
13.784886 -2.060680 118.805542
0.753614 -11.492246 85.098526
-16.107271 -5.247590 142.185638
16.106264 8.662864 70.496536
15.941541 -7.431693 57.997807
14.386112 9.606071 95.226669
8.863571 2.764171 115.155411
-15.898771 -4.919312 107.701286
-3.571679 8.156285 80.239105
-4.549381 -10.122309 52.459404
10.317490 -9.434589 139.700882
-9.158346 -9.631119 61.284878
16.253557 8.786402 76.753716
10.022269 9.749913 67.113762
-14.142754 7.588704 65.925041
-13.092729 -1.586872 129.622818
-1.368799 -5.810495 55.289413
8.575288 -4.303665 144.804718
-15.011219 10.330996 145.582657
-8.398608 -11.785736 123.976662
-3.015153 -7.391109 143.165298
-7.734075 10.919628 134.192078
-18.423750 3.065085 87.025871
0.976337 -7.990587 61.682346
15.938641 6.908523 69.344734
5.538634 11.791373 124.937920
-17.249216 2.155036 69.887520
-2.570100 7.803558 55.079739
-4.075545 -12.567735 111.720688
-14.408197 8.094501 60.518261
0.035973 11.518708 131.959076
-17.803013 6.396418 80.678474
0.614787 15.027071 95.303558
4.886180 9.214108 68.512917
8.064529 11.274076 89.035194
-16.843439 -3.743569 56.144478
-10.237527 5.984139 125.813286
10.028812 -11.123366 114.111717
22.535028 0.186886 84.663742
12.061958 8.353541 132.395355
-13.093799 11.053748 60.507523
19.513840 -1.454173 81.762093
14.116586 0.780733 147.524429
15.563084 -7.231233 91.724571
-8.613156 -9.485340 138.944916
0.911524 9.837929 122.645164
1.550592 9.186765 64.580215
-6.805721 9.405039 150.509811
16.047928 8.556243 57.694557
14.563466 -1.783180 108.539330
-0.503760 -11.167473 140.488419
-12.856316 11.156375 144.807434
5.805890 6.205765 116.897270
-1.582562 9.774276 92.910904
13.470313 4.462107 132.060135
1.695470 -9.504272 74.739731
-9.755185 -8.933811 114.348839
13.237309 4.835061 125.681496
8.630814 -0.367284 149.287506
0.716420 8.468839 121.461349
-17.078279 4.321287 149.428833
7.563920 10.482593 141.909241
19.264208 -0.675629 82.395599
19.126841 5.261117 96.408775
21.469353 -1.003549 61.597279
-7.740499 9.585572 125.429710
-10.609793 5.585657 153.843918
-17.478550 2.814791 55.961899
16.143108 8.864749 94.519913
5.744040 5.531594 120.750107
-1.076330 8.253748 55.628796
3.136883 -10.321279 143.052521
2.758723 7.782517 67.402893
21.085022 -0.384392 62.534821
19.365191 2.720537 65.483589
-12.855292 -4.890760 119.438591
-13.429113 -8.517776 133.487213
-8.304122 -13.364111 130.710632
6.687692 -8.081248 66.672325
-10.106998 4.930207 123.584091
10.834027 -6.062725 54.153610
-16.917362 6.924687 71.991035
-13.047369 -4.267901 123.165855
-4.458120 -5.578157 148.960464
-15.085924 7.806753 138.104858
5.018671 12.414520 93.298904
13.127088 -7.700264 59.275047
-15.780536 -4.935068 103.722549
17.885242 3.599134 67.529495
19.087778 0.912188 61.196747
16.505497 -6.074922 128.300507
11.025702 -7.884552 77.499077
-3.646362 -9.854926 144.971237
10.393148 7.860719 62.478539
-12.635139 -9.657563 92.641243
17.594639 9.261589 60.237419
3.211457 7.438721 110.416237
-11.663064 -10.693864 78.924545
-18.559307 -5.881715 81.594315
-4.268274 -11.203847 118.736092
-4.941728 7.286187 126.609116
-0.322991 10.713337 147.450760
2.666057 -10.115815 144.142899
-6.574081 -8.819736 92.564072
-9.703308 -9.671668 135.420105
-3.462031 -12.713485 118.110710
1.996129 9.906062 149.875122
-8.562580 -7.880239 145.920013
1.709378 -9.158055 84.371956
-9.660005 10.045854 100.420609
-7.744182 -10.660934 79.385323
-13.837999 3.990252 152.772995
-4.740483 8.798470 158.423889
-19.973881 -4.030313 82.018135
3.992076 -8.937036 145.972183
0.997051 -10.928992 120.750412
-4.661108 11.396894 87.892960
7.087078 -10.853574 106.793205
8.307211 -10.171626 127.388985
17.186741 -1.643990 97.078316
-9.855660 -10.821282 127.319740
-15.717250 -4.069119 114.292763
-19.651888 3.811873 65.247688
4.387904 10.147284 88.567085
-3.337608 8.907899 129.262390
-11.577427 9.937665 74.356651
15.514988 -4.252130 147.196609
-13.454969 -8.377254 121.914284
-0.463825 -9.909494 73.216011
-5.825605 7.532932 111.577484
-6.401546 10.081595 129.567459
-20.549442 5.463381 85.405647
18.569305 -3.604862 90.990692
-8.000512 7.824119 126.959206
14.970990 3.748545 107.942421
1.074571 11.590780 131.310135
-8.140980 5.451653 126.446709
-15.422868 -5.610671 140.076614
-10.548100 6.093975 64.830147
-18.995207 2.510697 81.546310
-4.883676 -10.632384 124.314507
-13.432062 -4.854642 97.171883
19.572092 2.889646 59.736420
7.182803 14.060965 138.320953
-5.196443 10.294844 134.701569
14.554450 -2.010696 126.012375
-0.978527 11.933974 148.073898
15.153678 -4.481190 134.646301
-14.540451 1.158672 134.630798
13.930579 -7.290863 78.719131
7.381640 -8.211773 92.564758
19.349852 4.510061 55.495995
10.385554 12.589747 88.435944
-10.747436 -10.688143 101.898003
6.446963 -9.772485 91.203064
0.555516 10.595627 81.267586
-5.524783 -12.202785 121.228279
8.352986 10.112417 96.970016
-17.166229 6.657550 74.396515
12.619434 0.778240 129.773682
-11.146716 3.159642 114.450081
-9.534894 10.642267 100.985641
3.395874 -14.023805 115.622429
18.005346 -8.981641 77.876160
15.511996 3.537763 102.703346
5.778362 5.247574 109.626297
3.307910 -11.601734 94.836227
-13.821312 8.111786 134.760864
-6.354856 -6.028845 147.246719
-2.860090 -9.178819 83.531372
16.989185 -6.607025 109.069923
14.262675 5.302227 59.007557
19.907024 5.515879 86.553917
0.586061 6.255189 119.549866
-4.485072 9.486340 56.657185
7.306249 -7.801693 143.330170
21.376833 -0.323802 75.806702
13.819128 8.549308 95.717079
-11.187270 7.711864 83.227180
-10.849451 9.068738 65.337784
0.957583 8.627934 156.540634
3.632019 9.209516 78.971825
-2.283439 6.182643 156.523483
6.601408 -13.691864 135.697937
-0.701786 -10.484149 107.066025
6.228475 10.044888 75.978737
-2.770892 11.907404 136.836243
-16.413879 -8.618965 77.289841
3.946565 -13.124587 118.301880
-2.448759 10.431132 151.044632
7.917777 7.188773 116.429787
11.465098 -10.648030 76.005882
4.039268 -9.678144 82.845909
14.766476 3.333858 128.566940
-1.660395 -13.621162 121.204056
-15.901933 -0.503591 148.941467
20.885220 -3.905270 86.715385
2.968825 -8.724113 60.644871
19.999199 -0.872792 87.190964
-5.121599 -10.515250 117.756271
-6.954194 -10.209033 76.505928
17.198868 -6.892499 59.803722
-13.577564 -10.826894 71.826553
-16.095270 -3.653168 144.047607
-7.814018 -6.522536 141.929688
-14.306124 10.492612 99.116127
12.442918 4.683238 124.998421
-7.440434 -10.461614 142.341660
-14.009069 8.531213 69.270660
-16.209404 -8.252846 136.124146
18.551329 5.344137 78.357689
-4.614803 5.571917 112.641953
-7.083040 -10.916952 123.631546
-12.728465 10.351345 132.258148
11.989216 10.967303 139.356049
18.042383 -4.287403 96.424011
-15.986544 -4.706952 143.290848
-4.192325 -10.108850 90.157669
13.623418 5.687544 102.470215
2.425269 8.046253 71.839394
12.063848 -7.875504 99.846245
1.110827 9.559214 126.197075
-3.082621 9.940633 125.497749
-18.326723 -2.245218 144.858414
-1.526999 10.687411 73.881462
5.248625 10.833513 146.162964
-7.740638 12.436695 102.358452
-7.413374 9.794809 134.346542
16.270802 10.842970 146.225967
12.282437 8.118651 100.094109
16.584450 4.521568 131.358093
5.911718 2.485561 152.733063
-16.725433 -5.259473 67.256706
10.834655 -8.428985 102.116409
3.641517 6.447956 108.067741
-8.985473 3.174443 119.754082
7.382226 4.531964 117.260475
17.280432 -8.850168 90.385567
4.959373 -10.904634 124.178673
-17.395641 5.989430 69.698143
4.077074 -10.924673 123.670929
-5.343742 8.617135 147.245331
0.048952 -14.915786 136.181732
15.293743 -9.214354 87.613174
-14.539696 -7.451755 80.146942
15.201261 -7.273584 130.395142
-2.123056 -10.116726 78.244759
16.884674 1.216844 99.085861
0.447274 10.961425 141.433029
-3.975051 -2.039124 152.158844
6.856621 6.716555 58.906548
-8.941483 11.760566 89.467072
-15.452562 7.936095 84.392174
-14.865603 -8.284683 81.690773
8.155663 11.933117 144.629456
-6.428309 11.023853 78.282639
-6.995899 -5.784835 140.324265
17.791983 -3.041569 96.922920
3.722442 12.159187 142.202057
-8.836488 7.626504 75.024803
-8.762085 -9.356720 77.456551
16.408600 3.215636 56.476387
-1.567331 -11.362676 86.286736
11.785501 4.846204 154.926544
2.813970 10.629854 99.321159
-0.289543 8.360085 101.668533
4.104547 -11.364950 117.484314
-12.901587 3.074793 151.844101
-20.060190 -3.680974 74.191544
-3.538952 7.710128 58.485020
16.979338 -7.622603 72.659836
-0.861115 8.758159 156.559143
-9.877523 11.475800 97.380875
-23.125952 -4.858179 80.660843
-7.194856 -2.074251 146.939713
6.842964 -5.847381 148.416046
-5.121773 -11.303885 82.095001
14.306563 -4.834460 53.322014
14.761863 3.533452 132.837936
-7.009998 -9.976956 74.551292
-0.710405 8.942800 72.555931
14.021297 7.926918 150.411560
-1.293934 7.171090 66.437233
15.195225 6.035225 150.760696
-19.917995 -1.619078 56.589409
6.263724 -0.933939 149.876526
17.041801 7.311328 138.021362
17.587721 5.424199 79.304916
-14.602962 -0.519362 135.355194
18.694418 6.476047 62.198753
11.373936 -11.596217 108.325394
-7.383303 11.423041 103.007370
16.115311 5.279734 104.661034
-13.578757 -0.716710 110.597031
12.960847 -7.827840 123.810181
-9.519918 -8.950115 101.992035
15.893746 -4.468506 130.964813
-15.135809 8.956070 67.224312
-7.335165 -9.851505 98.192528
-0.285084 -13.144357 137.647659
4.910614 4.463748 113.128082
-10.835110 3.722485 152.091949
-12.904487 9.018959 77.672874
19.808094 -3.399891 86.890442
3.511388 11.583769 151.698914
0.421784 11.404612 101.118927
-18.187351 -4.386441 99.817268
6.007748 -9.440761 91.689888
-21.650852 1.719976 90.932289
-11.786963 2.555091 152.408234
9.477268 -11.434167 92.031616
-16.168730 9.945819 149.010132
7.038148 5.724861 154.369751
-19.063404 3.248508 85.882820
2.662954 -8.424759 74.293434
2.257856 6.831797 122.416771
-8.603310 7.148326 108.685265
-6.520009 -3.526259 147.282211
5.825066 -1.207687 147.242203
7.982813 -10.930431 84.326668
-1.755133 -13.010842 97.375793
0.266302 8.910719 75.632599
13.123797 -6.032182 108.461128
-10.306854 5.807020 65.796005
4.422779 10.546715 146.664413
-0.985135 6.482316 115.377243
5.162870 1.823114 156.567780
-7.933513 5.592939 152.833252
11.947338 3.320072 119.536926
-6.211618 -4.576023 148.365723
19.705038 3.966954 85.790283
-1.865080 11.924325 88.164291
-8.152304 10.680079 99.995827
-9.642025 -9.147240 98.636223
-1.797288 -12.810412 123.969383
-14.762987 -5.179248 143.161972
-8.647918 13.340164 89.365341
15.647388 -2.704631 146.584854
-12.282538 -9.602351 135.741043
-15.111389 -3.332365 139.305099
10.770707 -8.889649 111.749855
-8.358790 -9.111766 104.475838
-5.203815 10.031583 87.355865
-21.378237 3.099558 67.219719
13.670679 8.089957 133.622345
16.118923 -2.161399 146.752335
-0.330193 -11.254751 92.944702
1.930820 -8.660659 89.855904
-5.826314 -11.386741 125.402557
-10.099093 6.787306 102.694946
-7.563933 4.344450 115.720596
-5.582913 6.622210 112.226509
12.891939 9.271708 89.036003
-6.118508 -13.795369 103.212563
11.973314 -11.421601 138.333878
-17.033016 7.317314 92.963165
-13.121333 -6.958604 53.557102
-2.652654 -8.408499 89.786224
-17.704803 -7.432019 81.198143
-5.345508 14.057327 135.335266
8.536392 5.879090 153.060333
12.590553 -7.396130 142.474930
20.376911 2.547393 62.789097
-3.368584 12.371103 69.626183
-14.607051 7.493879 102.812111
-15.259237 2.879792 99.778328
-12.606922 8.839915 85.211761
-18.452425 2.887522 60.874756
-7.970847 -10.128141 101.112953
-6.110501 5.768260 116.031998
16.056227 -0.989722 142.000793
-14.049229 9.651287 137.633026
1.181591 -8.723125 71.370300
-2.943117 10.663309 70.069359
-9.373139 -9.549737 105.112267
-15.778330 0.451365 99.291809
10.286835 11.338322 83.333504
-19.414444 -1.008603 98.388771
-1.800791 -11.964786 114.419884
-17.433628 -1.975391 98.105858
-2.261501 9.649193 126.172668
5.897429 -4.260821 146.108978
13.755855 -14.426799 134.573837
-14.097387 -9.929248 90.175140
4.370440 11.790130 95.158752
-8.544950 8.538687 71.919022
15.846889 -10.121305 82.929008
16.762354 1.692855 100.076508
2.298810 -8.034562 58.574490
-19.555851 -1.202777 57.927002
-8.255251 10.900053 82.452087
11.654538 8.380183 95.711906
-10.511459 -5.362619 145.375839
-15.203492 -6.839197 98.375183
17.958851 0.791553 62.830025
19.351309 2.838893 80.487663
-10.923395 -11.343517 77.772095
13.133183 -10.891486 136.560349
-10.702120 9.319277 84.164871
12.588433 1.434383 120.349480
-4.053673 11.921224 94.666283
-17.197197 -0.596088 53.112354
2.824387 7.470171 67.820625
-11.253599 2.976837 106.288521
-7.151141 8.985929 129.110641
-7.493514 12.182614 136.533661
16.022207 8.618214 72.945183
4.432673 15.015915 91.146515
9.249196 -8.850318 72.370834
-10.130999 2.422333 112.477829
5.794416 -9.948999 117.646866
5.423299 5.518556 157.810623
11.623211 -1.973724 129.009766
-19.127266 -6.685866 73.510941
12.243395 -10.732759 96.232643
13.684686 9.478078 137.798523
-8.865063 -11.036708 91.207504
12.448421 5.224408 107.823524
-1.095836 -11.021728 69.518684
-1.274416 -11.651369 54.775043
-9.480085 -8.211782 104.550110
3.093971 8.475466 117.179214
5.297709 10.030172 148.518173
11.729857 -9.877505 79.161163
-2.181557 8.941118 63.694450
-3.309527 -7.950012 60.412277
-11.334703 -9.889492 121.665672
14.807266 2.753083 107.345917
-5.879502 -6.724784 55.061272
16.880486 -0.807221 135.118332
-14.739046 4.657820 105.458748
11.647394 -12.273377 100.577988
-11.359732 -6.770579 119.570381
-13.985584 10.690071 61.624653
-15.394050 -4.015326 127.663940
16.984938 -6.376489 102.117775
-2.874438 9.794685 58.194027
-12.836956 -10.294848 130.635696
1.073943 -11.326906 98.815254
9.110420 -14.790235 133.197159
12.656680 -7.898651 103.317291
11.171955 -13.294653 128.542496
-7.817138 11.003366 84.082718
15.741059 -3.242707 108.875595
6.282465 -12.945448 131.154419
12.258618 -8.368270 141.134232
18.784410 -6.320692 77.563705
12.826488 -2.465741 146.023376
18.257072 5.440871 92.355446
2.446655 9.376206 58.553898
0.783121 8.201671 105.513397
-11.573381 1.861308 113.648117
14.910769 8.609124 150.824158
5.457159 10.610832 134.542511
-8.558526 -8.798161 52.245476
5.921836 -2.227573 149.985764
-11.406271 -13.303198 129.134933
9.595165 -11.677401 114.461716
10.102238 7.282251 68.306465
16.024446 -7.812689 91.985016
20.308985 1.461867 54.700638
5.892210 -10.899890 122.426636
13.701542 -7.697930 88.858612
-2.970421 -8.403522 142.734268
9.989942 7.097798 65.474197
11.123430 4.439742 122.722809
11.249923 -8.525817 124.024055
15.004759 -3.779843 98.628738
-17.073475 -0.509917 100.982185
6.131467 4.496132 117.789200
14.570526 -3.932443 111.031944
4.070232 4.801318 114.087135
-9.609012 -7.854786 89.803642
-16.336834 1.705847 104.491531
-9.152480 13.558924 93.295456
10.642892 -9.701128 55.732292
-17.582310 -6.217915 100.142456
-5.843636 -9.544669 88.986168
12.516280 8.788559 56.830715
2.268672 -10.045564 78.720436
16.267502 -3.518089 53.865959
-8.337405 -8.235273 70.025795
-4.580908 7.639411 125.401009
-9.680162 9.186055 151.643082
-11.585119 9.613767 136.823898
4.160746 -9.357213 104.291496
17.728891 -3.129791 52.937836
-0.893301 -10.772555 97.119560
-6.167848 -10.278041 96.367065
14.582759 9.459632 62.044598
14.523856 0.627520 148.814941
-9.279038 -9.884268 79.737129
-9.909855 12.384332 144.163986
-9.387560 1.588936 120.248711
15.111705 -4.402166 130.638977
-6.083137 -11.083103 85.931519
-14.704993 -7.018290 64.215714
-14.553938 -3.947809 141.529449
-3.651262 -6.438179 146.289886
0.874995 6.792586 121.463310
