ply
format ascii 1.0
element vertex 2048
property float x
property float y
property float z
end_header
1.786884 -9.158647 95.989197
13.180337 -4.639961 112.921089
-6.698902 -10.726037 61.306297
7.641996 -10.248253 61.659691
14.059958 -5.084466 110.666016
13.227851 -8.893408 71.647743
7.006227 -10.642529 66.506409
-5.665044 -10.659773 87.723267
-17.431011 -5.930237 95.478973
-0.580651 -10.532286 98.212631
-2.229933 -13.341020 108.531059
-12.746102 -8.892450 98.947052
5.131311 12.782873 83.839401
-16.990883 -7.936881 83.058067
3.243610 -7.884239 77.646645
20.975155 3.780434 48.862953
-18.874535 -8.027687 62.767826
-1.496272 -9.032592 50.975719
20.982153 -4.342451 73.666222
-21.330801 0.100124 64.179497
18.153185 -7.991746 73.785545
-4.738490 -9.758080 48.460148
-9.040002 12.520921 73.189491
18.474386 -8.141984 67.503799
16.197985 -8.431871 81.569016
15.961226 3.919973 100.644218
-4.052787 -9.620319 55.993305
-12.362784 -5.749425 112.176888
-18.843157 -6.816568 73.818138
-25.470242 -2.000608 58.944130
-2.659605 -11.263377 112.702675
-16.341677 8.198400 80.812477
-2.244363 6.690776 117.197868
-11.314731 9.034647 64.922012
3.369825 -13.890313 112.624908
10.232635 9.548259 64.514313
16.101595 8.555445 85.043648
20.817352 -2.212495 85.576126
-20.171402 6.877972 68.868141
-11.647108 9.908344 89.696007
24.317987 0.141544 64.559898
1.418894 13.101168 60.348587
12.798161 4.013875 105.672081
19.856184 5.319756 78.839600
-12.138552 -11.035122 72.074646
2.591763 -10.279205 48.759869
-18.022966 6.604153 61.775269
-21.970631 -3.894921 52.488285
-10.696569 -8.017748 55.757160
-0.546218 7.964231 74.920135
10.288226 11.039799 75.710968
10.003829 10.210661 66.082458
-13.959270 -1.009224 116.629562
15.503668 -9.114420 78.882797
-12.061985 -7.529866 50.514675
18.912170 -3.289146 84.520256
2.845008 13.743260 75.028870
3.112837 13.756870 57.420116
-20.983538 6.841914 73.347031
4.698176 13.614721 68.619995
24.194969 -2.136761 63.554989
-21.287685 1.459796 52.992500
19.555609 7.609158 59.684258
-1.071417 -10.648513 95.743370
21.260632 -0.330715 77.613556
15.049382 -8.032196 73.037819
-12.535159 -6.528932 55.808701
8.714102 -12.064663 108.894821
-2.360746 -11.466285 97.790657
-0.879665 -12.910692 111.931160
-4.840399 7.876006 106.085663
20.492439 -6.257392 71.665154
-10.646027 10.164160 95.018723
12.322292 8.601346 80.412285
-18.709984 -1.595023 91.080452
-11.215307 10.446896 88.167686
12.010510 0.366577 112.778862
-2.899509 15.034629 50.395176
-16.164249 9.253914 62.186672
-7.293224 -8.497130 45.954166
7.407938 12.463551 73.394920
-16.832674 6.802859 85.123596
-16.900963 0.614141 102.077721
0.301930 14.728074 49.143467
-19.784327 8.394836 72.841179
1.084392 -8.650230 104.245094
5.471384 -11.676741 76.090942
0.486520 13.012744 83.976646
18.718782 -8.123138 76.075615
8.948561 13.477081 60.303452
20.719803 8.307810 66.504906
17.702002 -7.799743 57.946354
4.696321 11.095227 102.112350
12.770993 9.562581 72.561226
5.224607 9.752918 88.474762
23.178534 1.521508 63.142090
-7.051117 12.990113 55.711212
-21.738182 -1.675049 79.830696
-14.031651 -8.284843 62.677540
16.539492 -5.482579 97.002785
-19.543011 2.116435 59.164059
0.229309 11.990446 96.840958
19.997990 4.308695 53.014519
10.130521 9.491235 90.946526
10.813412 -10.495007 93.036095
16.425915 -11.800064 83.026489
-2.311291 -8.137372 82.530128
1.111185 -10.761099 85.969597
17.613144 8.746354 58.272915
-2.930102 -7.450820 76.446014
-6.122255 -9.990145 113.982483
19.325289 -4.431901 85.614136
-20.097157 1.904176 71.390236
-11.136980 -8.589211 93.776634
-5.162606 -11.125400 83.205681
-9.704537 11.819170 62.144669
-4.358394 -10.778622 102.253883
19.658779 6.432506 82.889168
-14.485754 -8.235304 93.037605
3.271886 9.048832 74.241974
-20.241148 6.877814 52.736027
-9.978935 10.943087 61.702034
-13.322994 -3.207931 116.041862
-2.899796 -10.230274 97.489960
13.525839 -9.594208 76.649857
-0.449679 11.681738 86.789665
1.975301 -10.921618 108.122856
14.172930 5.780664 97.101936
14.859613 7.453994 80.658096
-2.354077 14.743690 61.593987
20.708574 -1.439687 49.677319
-8.896181 10.609104 73.605865
-14.907182 10.605762 58.778278
-7.665907 -9.624039 59.501835
14.157541 -8.093169 59.057083
6.691342 13.820123 60.604591
20.756395 0.197100 77.594254
-5.425315 5.731842 116.539459
-16.844696 -8.480598 86.404526
-18.899618 -7.779252 50.661369
-10.973408 2.654206 113.937233
14.406639 6.276868 102.959358
11.305407 -9.100342 115.952087
-4.590405 13.690575 61.078167
-14.058366 -5.887471 106.726494
18.807039 2.664864 63.263206
12.219713 8.684226 54.563614
22.341299 -0.043478 69.265076
-17.464636 11.112795 49.998173
3.568199 13.014619 62.887951
-14.223507 -3.086382 110.362610
-21.037231 -2.671137 79.538094
13.533455 -5.805629 110.595329
-20.085327 -5.951370 60.760315
4.538355 -11.836959 110.474236
-13.947051 -0.639531 110.531662
-13.267735 10.174750 68.388550
17.268944 8.708064 51.325836
-2.797874 13.590446 91.199074
-10.087832 10.771475 62.528568
16.091618 8.460749 97.020134
-16.674377 -7.194857 102.096848
-11.933320 -0.760194 112.901512
15.670992 -4.812154 103.552589
-18.910255 7.099988 83.844002
10.115601 -7.174922 47.347687
5.877925 15.179521 61.087212
-13.973140 -8.874793 62.047710
11.295070 8.219090 101.398705
-16.869240 -8.664757 62.149918
-0.331213 -10.267482 91.801460
-19.886801 5.806844 73.405342
-10.007874 10.872871 96.090630
-22.755117 0.806998 56.691063
-4.434832 12.436213 83.936256
19.893127 10.013741 56.664207
13.384407 8.905417 91.497711
20.251961 -5.270397 86.761421
-4.406336 -10.130613 53.941959
16.988781 7.341905 82.099937
17.673679 -8.548320 86.697014
-21.737833 -4.885516 58.939930
-13.373983 2.476936 112.172203
-16.445040 -5.185278 96.713753
-16.341797 -8.566033 103.435234
-11.449728 3.476722 116.336937
17.423294 0.560197 96.110718
-17.365255 -8.226253 52.101784
-19.987728 7.462175 53.281502
3.861284 -11.235503 91.910851
14.695223 10.718401 71.188599
17.116011 6.178056 83.010246
14.424163 -7.658638 58.252724
-4.872694 -10.807855 90.162132
-12.602781 0.387287 111.262070
18.771263 -8.361259 48.900475
17.205231 -7.902848 85.406006
4.733768 13.228620 82.427299
-11.274691 9.816358 75.976440
8.198265 -9.891733 84.242241
11.504966 10.435234 48.826786
-22.875450 -0.041369 54.664627
16.756468 -10.378426 85.654114
1.901183 8.804724 107.661911
20.955790 -1.712139 76.383736
-12.823100 -9.701930 74.458176
-13.461987 8.401560 95.597076
-0.340762 15.822005 48.485989
8.176646 -12.464836 74.413559
-0.564589 12.657878 88.924103
8.853022 12.052490 65.926941
-0.302249 10.958471 80.773994
-11.090136 -10.036447 48.210831
3.045273 13.190776 70.373047
-19.959078 -3.901109 73.753601
-20.926119 3.173038 66.010750
5.249569 7.630072 115.957954
-13.883374 -7.524885 72.808853
14.751169 5.270987 101.410896
20.501850 3.869961 83.144730
7.228886 7.171754 114.846809
-7.692772 12.069971 51.030415
1.967708 -11.380982 99.866730
0.994756 -8.681491 87.803581
-16.221886 -6.022831 106.371071
-10.300106 8.084111 84.665321
8.036540 9.082859 106.522827
-8.044502 12.659044 78.901245
-14.813226 -9.897150 54.549648
-20.400595 -1.808666 89.470322
-16.271095 -9.222596 58.975704
-6.194449 11.687814 98.000298
8.679206 5.299144 108.408127
19.363165 4.024901 49.086414
4.180518 12.460667 91.490814
14.597736 0.060381 113.263313
-20.099302 7.172768 54.299702
-20.264589 -3.480335 72.553741
-19.236780 -6.822594 91.312569
16.765522 9.790240 76.403450
-7.943784 -11.668632 70.024063
6.487922 -11.931964 62.754189
-24.866194 -1.161862 67.979553
-2.109878 -12.494903 100.868324
3.781503 -10.217800 53.473106
20.809116 2.521951 81.174522
-19.036987 9.979229 58.003078
-7.924923 -12.003252 103.912178
-2.815385 11.508361 84.085251
-12.649463 -7.266095 104.760460
8.451777 -11.476111 110.216721
9.281424 11.855048 85.072914
17.729019 -5.711051 91.758171
14.963679 -11.526806 77.949203
16.960423 8.517882 61.719139
19.875053 4.281913 51.295792
12.609096 -8.002539 63.873470
-15.912729 -9.264859 92.074677
11.756263 10.463268 49.851772
20.815338 8.350142 55.908669
-18.811157 11.152675 56.826767
-12.296647 2.097449 112.103394
9.323182 10.449854 101.994431
12.794829 -0.342778 108.492607
-18.539682 -8.944415 67.641708
10.714236 -9.474124 76.867325
-3.912561 14.954216 58.639362
-21.262011 -2.784328 71.118271
11.034271 -8.725923 102.687012
20.614403 -7.310445 57.659229
3.742745 14.281919 48.127392
-7.101584 -8.472052 48.880913
1.309251 -13.087557 59.464344
21.641153 -6.351553 65.521767
-1.550263 10.615404 81.386955
11.849092 4.530797 111.435623
-14.628545 -7.888721 98.275978
-15.284030 -11.160079 76.794441
-21.492210 -1.819975 70.953529
1.708759 13.964881 87.255783
11.213492 7.418060 100.089325
-20.216631 7.024451 58.128548
22.303625 -1.456282 74.033646
14.825308 8.125745 58.200634
-16.570278 -7.380416 64.073242
-7.961144 7.107081 110.343475
3.097261 -15.250961 112.357765
-17.892071 0.982776 97.792915
9.248529 12.217426 96.255539
26.439812 -0.977654 65.078316
14.065459 -9.513421 60.473553
15.664612 -3.119507 103.538315
19.841988 1.383929 90.049072
7.460288 6.286401 108.216103
15.538615 -3.353162 107.091469
-22.258041 11.617323 46.432354
20.151644 -4.491649 77.976204
19.500553 7.001932 78.387360
13.941175 9.677278 74.877907
-1.555024 6.080453 109.865059
-20.015276 0.253645 85.254623
5.186687 13.243608 90.140968
-18.116354 3.818697 65.937668
10.325225 9.894193 74.730217
22.519377 -2.148567 72.853134
20.163826 0.082585 61.502769
16.738129 8.296045 80.944862
0.736900 -8.202217 71.329475
-1.042511 -8.473946 79.280396
7.651042 11.104283 50.344112
-21.660299 -5.710584 54.991398
-1.618767 14.401527 70.004692
-13.717381 8.876005 49.351574
-6.779074 -10.486204 90.113831
-4.131457 11.433914 98.029129
-16.175419 0.075270 94.474960
-17.959875 5.147447 90.837830
-0.002914 -13.815593 103.058228
19.283775 10.096971 55.069256
23.069786 -1.072223 53.362232
12.716233 9.840425 58.252502
-3.634482 -12.366097 106.945557
0.941200 11.423151 97.605225
-20.076014 4.128608 82.880478
5.571434 13.793933 94.509697
-19.242767 1.738036 71.646172
-10.570143 -9.522593 52.402195
22.755661 5.134113 58.353607
16.836933 -2.489902 99.148323
-20.215939 3.842807 69.087265
18.222603 8.268568 77.830833
12.726087 6.231095 104.460739
-19.373245 5.747364 54.475445
-17.534344 -8.481582 86.631950
-13.047502 8.970226 61.623810
14.024023 -7.576866 108.789108
3.198943 15.203445 71.650681
-17.087831 -8.381155 64.153419
-14.150187 9.332253 74.489510
7.827365 -9.036238 103.540047
19.136900 3.390238 77.304962
4.247989 13.378378 72.258514
-12.863822 -11.212394 78.921585
-13.190859 10.706719 65.274315
-19.961912 -4.648759 79.966194
1.269513 -12.386021 104.829430
-18.506428 8.113470 70.150551
2.113128 -12.612176 114.746033
-2.736697 11.734094 99.030762
3.281641 6.941475 108.637314
-20.553883 -5.709552 64.406754
8.732260 13.035664 91.094177
1.697550 -6.060677 46.459316
11.617176 9.272507 65.299835
-13.000120 10.324161 89.676888
-17.924971 4.870558 94.835060
14.968052 0.181760 104.282372
-18.163307 2.088174 96.104599
14.658527 -7.982790 104.025795
-12.446628 -5.831534 110.769966
7.622191 15.018048 66.695122
9.563565 -10.681311 47.827950
13.277364 9.380774 93.672424
-13.599227 -7.614096 108.545166
-22.827291 1.011129 70.909515
-20.394001 1.265842 50.285904
17.220646 8.040650 80.327950
18.169924 -5.141835 89.508293
8.916974 10.993806 64.776947
21.841103 0.550008 52.061104
14.404632 0.805498 106.177475
-12.286268 -3.645339 114.565750
-18.498526 -7.266222 57.103466
-5.856765 -10.471526 99.888840
5.191355 13.243376 76.328667
-23.576111 -1.052165 79.606361
-15.527578 -7.787834 55.152081
-10.380009 -6.894767 114.895760
-10.767972 5.851877 107.684570
3.952485 11.709770 94.686340
20.668493 -5.786234 53.954510
11.577141 -7.531196 110.593613
21.291880 -1.450291 50.171551
-12.048118 9.612567 76.168427
-18.261992 8.628083 85.715858
-7.705313 -10.437546 61.002220
11.588059 10.078768 52.885479
16.033518 -6.996106 83.847931
-14.562513 6.965691 81.324570
-6.166030 12.595052 50.047924
-8.228647 -10.969095 85.907501
-21.660919 12.074570 52.561821
-13.867705 -10.302313 87.908073
19.322731 -6.889340 52.609497
14.690784 9.496514 57.357620
13.730679 -10.221644 73.465515
5.286263 -11.764086 69.159821
-12.525550 10.183146 68.167809
-12.906009 -8.020577 60.042252
5.867013 13.542986 78.982788
7.657339 12.830033 67.195457
20.950325 -5.990817 64.758484
-0.335044 12.064284 67.319496
15.638675 -7.857591 101.997864
-14.552021 -8.950350 67.709602
4.239492 9.901475 102.491859
-25.217072 -1.394406 61.045628
22.518381 7.644889 56.841755
-15.312173 -0.356282 104.965919
14.096681 8.899714 86.037453
18.441090 -7.512136 77.446655
16.144142 -3.564583 106.597824
-9.064037 -9.328260 111.209869
-4.352843 -11.684927 58.780220
9.210427 -9.387341 87.147339
-1.083925 -10.111199 75.579720
13.497244 -9.229931 54.536636
-10.286920 -10.577394 75.281296
11.052595 -10.979311 71.457382
21.470331 -4.501486 74.260414
19.149107 0.242663 95.788994
-21.534988 -3.864649 64.757675
6.536804 11.577220 89.062088
8.890167 -8.454531 83.362526
-11.927188 2.220984 115.551399
-11.351982 -8.688094 108.389343
-2.632345 11.999413 100.357887
8.773677 12.352326 61.268127
-18.893522 -7.080835 81.829185
18.790155 -9.130939 72.293610
0.538949 -10.934614 67.039993
-1.816546 -11.959883 63.955994
19.974424 9.177311 60.869560
1.739829 10.328312 66.085403
-21.904266 -6.079568 50.610592
2.646413 11.264091 59.369461
-15.983567 7.616330 87.531471
3.635453 13.332789 90.429123
-14.374892 -3.285315 118.941849
10.929849 11.532913 56.677509
16.652300 -3.747754 96.797363
13.401022 8.580216 63.317303
-0.542844 9.864438 73.883270
-15.240109 -10.944409 91.511452
24.219263 -0.105185 69.015839
-19.496147 7.197789 54.000492
-4.225233 14.054540 49.778893
13.658294 -8.931351 51.666737
19.738993 8.915706 64.290512
-0.854666 6.994901 85.188156
23.037312 -4.734954 72.910141
-15.324668 -4.441416 111.718147
-19.613226 -6.630507 61.612679
-12.727438 8.651293 54.760803
-11.563959 3.110126 114.851570
16.277460 -6.402794 49.129002
14.194272 -1.685283 112.504128
-2.066752 -11.576779 87.355888
21.145458 9.736056 53.309757
9.566543 10.287053 55.933014
-19.277800 -8.847366 76.704887
-18.651304 3.310490 81.108101
0.807108 9.321187 85.072037
-9.499736 -9.265164 109.622734
14.945348 -8.396057 99.799522
1.643106 13.551393 90.581818
-18.194782 9.407210 49.220913
16.362995 8.413297 75.852608
19.521048 6.170043 78.621162
-6.231662 12.012450 95.642853
1.145442 -10.761223 106.561485
18.457182 -0.847087 92.871529
-20.357878 -4.229527 78.244850
3.934605 -9.458504 77.497231
13.657830 -7.831771 117.917854
-19.518911 1.962813 65.926849
0.236111 10.908249 75.075035
9.957174 -9.974146 50.299965
5.048463 4.205802 116.644043
22.181671 9.507931 50.367805
-0.315246 10.969133 85.049568
-11.676784 -9.024981 54.942860
2.658894 12.586638 87.609077
19.857849 0.585885 68.415779
3.358891 8.134032 80.395493
1.704998 -8.386896 80.427010
-18.819452 1.897056 96.393417
19.487490 -7.875816 64.754700
-15.237910 -6.381601 102.192261
-6.062995 13.291570 54.663555
-4.477567 14.235378 51.420650
-7.923128 11.993829 80.488182
-19.617971 -5.066366 73.166718
21.899567 -3.492547 69.967957
13.691217 9.180057 64.617104
14.301842 -8.990556 98.340591
-8.719592 -9.204967 54.232468
-15.551938 -5.792821 103.135139
5.450597 11.088707 98.468208
-21.053419 2.458828 53.532520
12.953939 9.694526 72.857170
19.810411 3.573894 52.690243
-10.317780 12.066865 93.976479
-5.181625 4.873498 111.312531
24.066769 -0.026786 68.019981
10.112890 10.735974 62.735458
-11.892719 9.314328 102.106468
-12.865067 -9.416403 83.637733
14.451727 -7.783204 50.833275
-0.487900 8.347815 69.866211
4.948169 -9.202737 92.610703
-4.690012 11.873324 85.196320
19.183483 2.661605 94.714455
-11.879575 -8.468244 51.082909
7.912413 -9.165590 58.962311
1.042742 11.642731 97.128693
21.596689 -3.090604 82.241440
3.712321 -9.906874 73.711372
11.381292 -8.806677 105.827377
-22.118982 -6.255752 49.943947
-19.813480 -3.967383 76.535782
7.223928 -13.055667 68.861168
-18.217003 8.012658 60.529366
-7.680982 -11.156182 90.461914
11.565571 10.746751 94.792816
-9.406424 12.524829 90.731750
-15.406746 -5.499341 96.866676
16.054066 -9.576180 56.689041
-20.106699 7.863755 53.374649
15.542291 9.714111 51.007595
-5.778883 6.648840 109.114517
-20.723255 -3.087433 83.335983
6.694003 14.723723 61.816231
-20.460526 2.510710 69.502625
4.568222 -12.467067 60.658039
-15.865003 7.889583 69.022804
21.860134 -4.867342 46.008480
4.537780 -12.250492 58.463387
17.832891 8.057325 57.901268
14.223674 10.315546 62.544994
6.151475 -11.376391 115.513840
13.822592 7.391570 70.509232
20.391590 1.069947 67.262245
0.213296 -7.444708 48.326103
22.125641 -3.374239 54.555084
24.637825 -1.592547 64.301895
-1.664760 9.629819 73.997719
-12.506052 -10.331009 90.183372
-1.411745 9.252254 87.770164
20.677794 0.795713 62.066261
19.131285 4.579519 81.901573
19.347733 3.216295 77.617477
12.366487 9.138299 56.760818
-3.067981 15.139248 53.460953
-8.686982 11.986250 99.017372
-6.392543 13.715961 71.053444
-15.035862 6.485392 91.224678
16.663010 -9.454515 81.635864
-19.623856 6.398823 64.695724
8.297610 -10.084292 106.574593
-12.489089 -9.408695 95.499298
-20.867861 -2.785136 79.225845
-0.648787 -11.524908 99.053772
-18.331457 8.272860 68.454834
3.604429 7.983603 105.288658
-6.461096 6.216024 111.545502
18.631920 -8.628113 53.259056
21.843203 -3.747167 83.515717
-16.210966 6.760310 90.171310
6.753687 10.958303 95.222496
-22.989861 0.323703 82.132698
12.392626 -0.983660 110.272034
19.405916 9.838375 58.669212
7.803442 -7.703437 50.735172
14.968321 -8.972798 86.573334
-17.082359 -6.244670 91.475586
19.856178 1.409286 55.056637
-20.344782 4.414626 62.810741
6.272439 -9.415583 81.762955
21.044903 -0.768490 54.282795
-1.431926 8.527616 82.322563
-8.310314 -10.597374 63.944946
-17.144405 -5.917477 91.122665
17.451490 6.679261 92.824562
-4.606555 5.460670 110.374901
-5.879454 12.860231 72.714294
18.497019 6.650143 79.811317
-10.962212 13.128270 92.789093
-0.837014 -7.793645 77.835045
-17.226549 -8.071515 97.481361
-16.599745 10.554020 62.329704
-16.995314 8.499105 69.481934
14.752212 0.454463 109.858772
8.658978 12.460919 95.284393
9.857905 11.491603 83.985832
14.808295 -8.487425 52.507900
16.456461 1.376288 101.587761
19.204611 -4.518611 80.963821
7.449848 -9.968023 91.507233
17.975163 -9.663164 71.835907
1.732825 10.170135 72.060226
-12.598288 7.758099 57.051449
-19.828712 -7.413785 60.465614
-10.129529 -8.549309 113.841911
-4.610430 -9.258449 69.679848
-11.377651 -8.790650 87.362106
-21.688118 0.595277 62.330479
-5.666652 13.867485 49.407158
16.988249 8.374760 80.279556
1.148078 -10.965585 65.549309
19.569288 6.631211 59.067749
-16.495926 6.811549 98.230446
16.903410 -1.161766 92.974281
12.038029 -10.614754 90.908585
-10.229534 -10.819956 73.355270
-10.404363 10.754588 64.369400
16.761156 -8.751131 70.986008
12.947104 -10.571079 49.812817
-6.035247 -11.469965 112.120453
8.713075 9.823395 55.184071
11.263097 5.223608 110.774940
-13.749189 -9.770643 93.521912
8.433577 -10.875875 55.634228
22.411591 5.412730 53.922871
-9.591046 10.643368 82.263206
-14.416301 -7.947278 54.682293
-18.369432 -9.472010 54.252651
10.289567 10.983020 89.177002
-16.866840 10.491633 54.873211
1.317216 9.426258 81.563812
11.488695 11.547792 95.211411
-12.037513 10.273264 98.736069
1.859299 -8.344632 83.804565
5.580729 -11.217934 111.477997
-5.510897 12.785281 92.023628
-10.009128 -9.258537 97.465111
9.759666 -7.826972 108.891212
-19.541010 5.303767 56.520023
-16.430506 1.270811 103.133003
0.098618 6.032066 110.736252
-19.699820 8.231017 64.550148
-18.952147 7.870679 72.768707
13.586612 3.190358 107.295151
-10.478974 9.829532 72.160461
-10.395280 8.578970 48.555946
12.166369 -10.131380 96.334923
-1.121173 5.970576 111.713852
4.363873 12.940775 93.474724
3.756227 13.279535 75.661736
-15.948462 9.707473 53.388351
-9.479203 9.322710 102.975189
-1.276334 -9.825370 67.820122
15.575164 8.492570 91.483330
-2.368909 9.570347 106.394554
5.351294 -11.252290 81.162498
-12.370829 8.389811 98.463303
13.930117 6.568250 93.906456
17.987619 8.617185 62.651058
1.981083 4.532467 113.804535
-12.213000 9.750362 79.623474
-2.880031 10.342324 88.009422
-22.995733 -4.914255 52.523335
12.535998 -9.161393 67.475525
9.556711 -10.869598 73.393990
1.585037 -12.843554 99.112534
-6.715919 -12.079308 67.860893
-19.371197 6.117397 72.329659
22.918053 5.790215 50.939297
21.366064 4.415354 70.208130
21.374817 6.431487 71.359970
20.055956 3.106153 76.123383
-21.028627 1.421127 56.279755
-9.647556 -9.244735 90.945877
12.183122 9.597147 77.561699
20.386677 -0.562309 58.464664
-20.249569 5.923090 70.837547
-0.631702 -10.404860 69.125694
13.529409 -10.474555 74.266159
-17.881516 -6.597429 85.129265
2.265741 15.357613 46.294121
12.548360 2.444905 113.481194
20.019373 -2.684773 79.372589
6.569483 14.456499 52.877464
-9.153850 13.354909 91.788445
21.938032 2.740889 56.277710
-6.414263 -12.293034 103.692192
-25.280777 -1.017339 71.529785
-4.758260 -10.051323 89.453468
4.891613 15.254456 56.052761
-8.563954 -10.147250 98.690636
3.455156 14.251856 72.922455
-5.890896 -9.382354 107.503571
7.165597 -12.046155 116.119087
20.552687 6.664392 67.082581
10.034823 -7.048400 55.757954
-8.986639 -9.667048 85.521118
-12.845890 9.322179 52.050331
13.962317 9.604194 49.348812
-1.878590 -10.129291 52.518772
21.781733 -5.061456 66.408829
-6.498006 -10.138390 72.127197
18.647055 8.289936 69.531807
2.705720 -11.855079 55.415279
-23.274485 -2.620983 67.111389
-18.562489 10.700586 52.039383
-7.889133 12.095328 86.202988
-6.455083 12.892072 56.675644
20.261383 5.028528 80.732071
21.886755 4.162817 55.120922
22.007034 5.072561 56.814400
-13.382010 8.516007 77.196632
19.502237 4.715591 85.414673
18.795589 -5.301326 45.763725
4.080480 13.741067 66.873367
-5.587170 13.046071 70.980125
14.641663 -8.353731 97.002533
5.672909 9.732100 104.816154
2.890549 14.295098 43.824707
16.472446 5.121962 98.639946
0.078461 12.180927 98.481537
-19.861721 2.850596 71.794945
0.753769 -7.819261 86.155670
-19.939629 8.455911 65.003021
16.555508 -6.913899 51.146347
-1.822496 -12.637480 113.895111
-15.255467 8.621879 93.069504
21.401365 3.546600 75.582077
-19.002876 5.526349 76.917961
-4.582485 -11.999665 105.481819
11.468138 -7.583444 102.071968
-12.896423 -9.281266 49.319706
-11.943233 8.671156 57.739388
-2.871526 6.435001 109.992966
13.199658 9.720937 62.773190
-11.333335 -10.919265 84.107109
-6.427273 -8.500829 71.577194
-17.393776 -8.579749 88.926842
-15.480495 8.988970 54.074329
2.749056 13.866223 47.458973
20.658953 -4.061282 82.223534
15.432025 8.202365 77.098671
-6.208478 -10.228089 50.469849
3.249127 12.659122 67.730919
-20.790634 -3.082486 84.227585
-9.353228 -10.727042 83.969398
3.737129 12.862238 96.794861
-14.141861 3.409689 109.592804
10.343986 -8.943460 55.723614
-7.273976 5.407940 113.339508
6.838012 11.763882 83.210152
-4.037838 15.590020 48.220783
18.408451 1.645363 96.123322
1.873892 12.380294 57.339615
8.720446 14.715700 93.915665
-12.014945 -7.720165 107.951607
0.085704 -10.957537 92.426941
7.425529 12.653998 56.889580
-20.922037 8.233665 53.349438
-19.686241 6.792061 57.789864
16.577061 -4.093925 101.547546
-17.779766 -8.065827 59.562336
-23.741299 -0.027141 67.490349
5.719846 -11.567453 113.403221
-1.403856 12.627856 92.980835
1.239833 -11.077840 100.908699
8.129147 13.961987 61.796234
2.193228 -11.678254 108.395660
-10.310353 -3.399871 116.844330
0.385059 11.111783 65.388062
-1.672157 7.275310 111.945648
-16.448339 -1.810629 105.020790
-0.916084 -10.289014 86.649345
14.786978 -2.990501 112.552406
-11.783315 2.188005 111.740974
19.552101 1.905832 72.531273
-3.802945 8.898617 106.102608
2.692739 -12.720518 111.558266
11.012964 8.199366 62.388374
-10.173602 11.776244 85.027611
-11.180714 -10.555492 67.158936
-15.372334 -10.496527 88.691391
8.199927 -10.840549 87.798592
-9.899242 6.437886 109.237877
13.005819 -9.782533 95.964432
-10.361828 10.789510 69.629639
14.405129 6.773571 96.068665
-24.389149 -1.353848 56.524269
-15.681965 7.915160 61.825352
-8.504541 -10.271902 55.676567
24.049946 -0.067488 67.316872
-10.253531 9.726858 68.011047
13.998218 -4.485408 113.661469
15.809744 -8.114370 69.743599
18.247419 2.246589 55.467953
14.032827 8.475937 61.398621
14.868954 -9.712250 91.238770
-2.027256 -9.114182 94.072075
0.091831 -14.051391 60.689949
-21.005785 3.440523 70.782852
-22.826031 -2.389879 53.180038
-8.273362 -12.077389 109.134766
2.547213 7.933054 82.865036
13.049512 -10.949350 76.434265
23.600710 -2.071085 63.476067
-17.629217 9.190507 53.667381
4.806089 -9.700198 112.152664
18.936552 8.722115 53.454956
14.294666 -9.289775 92.696404
-22.908855 -3.359938 48.357159
-12.060458 5.509130 106.096764
12.580619 8.097799 78.028877
-19.200932 -7.188484 78.719414
-0.777203 -10.637285 89.576775
-18.373625 9.432492 56.841221
-12.202862 -8.742476 110.448586
-6.802599 13.268452 58.026283
-1.588890 9.758640 82.044678
13.163796 9.428139 82.483040
7.481866 12.328557 82.753532
-17.982903 -0.715825 94.778305
-20.516836 2.377273 77.435051
20.030619 -7.397682 58.093872
-10.507739 -9.175237 109.250648
0.048306 -10.697174 61.433289
13.483381 -9.832041 92.444038
-4.127344 -9.910277 58.917389
8.226713 -9.347064 110.059944
-21.823904 1.176069 76.183144
-0.450593 12.692964 52.487621
-9.961719 -8.869917 104.830811
18.717096 4.265032 87.542030
20.145292 7.697560 77.351730
14.218282 -8.519725 90.727005
-14.477677 9.607052 86.874893
-8.555659 -9.380939 84.688919
-11.681992 8.628780 77.982262
8.227012 -8.849418 114.585724
21.526987 -4.732719 75.732216
15.496835 -2.192161 111.510109
0.658181 14.094344 48.770012
15.788173 -4.253984 108.443314
2.741479 -5.569728 80.324402
-7.535121 -11.249898 108.319069
9.213586 9.817195 104.368782
10.110014 5.240013 111.605591
18.877491 -6.518545 55.403076
-19.812984 4.204710 58.481770
-13.626674 0.370787 110.897858
16.878622 -9.692455 79.774033
12.405989 8.769552 68.106873
4.361371 -12.279446 94.725327
-12.248187 -9.638638 91.069489
22.406681 3.454728 67.832558
19.171835 -5.000485 89.117332
22.988070 7.588541 64.734512
-20.046396 3.323619 84.651024
6.176991 15.101610 58.241238
-6.861300 8.958628 104.772873
-13.900841 -8.186899 70.715683
1.169658 12.528008 97.550087
20.450827 -5.039924 76.025200
-4.068451 9.521111 105.370285
-19.721134 -7.776031 60.487274
-2.097817 11.799720 98.161980
-8.914553 6.969793 107.765724
18.602766 0.106450 92.615257
-5.397321 13.317543 50.147778
15.689947 -8.757556 71.253410
-18.214725 -5.218984 88.864182
12.354912 -11.038523 78.860748
-5.103720 12.530829 85.004425
20.358393 5.893396 67.546776
17.947273 5.695415 82.230431
-18.307116 -7.198676 50.532043
-2.034062 -9.371319 72.028954
-13.314246 -7.913501 60.991119
-15.907293 -6.073004 92.584892
-7.273674 -8.904988 98.626495
13.990392 -9.940154 82.308006
-7.814007 -8.929362 55.877548
1.570907 -11.410863 68.214294
-2.468085 12.921846 91.980019
-17.314552 -8.099232 47.558044
19.463875 1.103943 56.866272
22.366646 -0.502454 48.964764
7.391599 -8.419972 117.329872
8.673450 13.023551 84.425323
-11.663693 9.678981 52.359085
-4.447161 13.967117 83.026024
-15.186396 10.227006 71.294327
14.465854 8.918137 79.964661
-2.763093 6.868404 112.229576
-1.318393 -8.514367 89.096207
-4.471513 14.003698 67.097504
11.876764 -8.752118 96.658340
10.665253 10.419471 102.284775
8.272837 12.928181 77.585045
8.685065 13.113613 76.351540
2.868445 14.451504 64.239853
-4.782546 -9.909412 80.917107
20.842045 1.394542 82.067650
6.978184 -9.715068 62.017761
5.997104 -8.877009 54.440216
20.257326 -5.247065 79.121475
-19.091955 -8.105399 57.863281
7.713404 13.205464 56.130501
-15.444204 -8.890598 50.620983
10.415987 -11.166034 68.833633
-15.627104 -2.103975 107.473808
20.925377 6.350485 65.187210
-0.145665 11.208527 71.858040
-16.940180 -4.433659 93.292351
21.580503 -0.615828 69.597939
19.422092 9.437902 52.166885
-18.798058 2.965560 93.533638
-11.994346 9.245726 60.384636
-5.321436 13.600882 64.303780
19.405825 3.993266 89.898491
-6.499508 14.686551 55.053257
-19.374596 2.843410 92.993492
-22.249891 -4.363339 55.531395
-12.891626 -10.826978 86.046547
7.430727 -9.886415 63.874489
10.947910 -10.171221 105.758057
19.341236 2.559598 68.149590
-19.533129 -8.428865 57.132404
1.605600 13.689947 47.934528
-10.823154 3.490163 113.258003
-20.078613 -5.600286 72.264847
9.667232 10.918623 79.346184
22.591171 -3.316859 50.637745
-5.383070 11.330176 103.164207
10.002197 2.612578 112.170258
16.410675 -9.396849 70.514755
-6.197619 12.662935 72.925865
-12.678485 2.342179 111.662430
-6.081584 -11.312411 109.618958
-22.538948 -0.972807 48.209175
8.571794 11.931114 95.397186
7.865329 5.269639 111.941124
-19.827953 -6.537140 71.767715
10.586844 -10.029100 76.558167
18.856371 1.237394 81.443817
3.168806 13.659937 77.786560
6.573041 -12.096391 63.255859
-17.198444 7.316517 84.374893
17.179049 1.912564 98.678978
6.664053 12.113443 91.030014
-13.254354 -0.614984 115.018761
9.019097 -11.525715 106.676392
5.195583 -9.444944 74.750359
-21.080460 3.330351 87.771706
-20.842028 0.633296 85.544800
-0.274550 13.345780 47.853825
-6.662780 3.782998 117.851669
12.038936 -10.184123 91.096336
-19.823639 5.740987 76.575577
-20.522247 -4.195941 55.080475
6.890352 -13.027946 69.000992
-16.488846 10.327263 53.023533
20.349758 0.265662 65.839180
1.089043 11.529886 77.507118
22.823223 -1.425364 76.319016
-6.166365 -11.476529 86.361488
-24.450912 -1.020607 69.828987
-8.530901 -10.728799 57.228565
-20.418558 0.564347 49.204056
-7.119846 11.652428 84.710854
-9.808871 12.837019 46.996082
-20.432632 -4.412246 68.785858
14.318761 7.802118 67.400833
-9.872045 -11.342521 78.593559
12.446996 7.456420 99.297424
17.574396 -6.406585 90.534981
4.597490 -13.647607 62.050339
-10.905005 10.918957 65.612091
-13.300844 -8.046739 97.284821
21.374630 3.528837 69.700699
-9.153933 -10.758635 62.370361
-15.270893 -7.212322 109.566895
1.958532 11.409933 81.338333
15.703321 -10.352342 86.127319
-20.204386 -5.683129 58.059097
7.147855 13.759809 60.037525
5.351073 12.505055 87.062851
-5.484518 6.338447 115.584709
-15.581390 -7.510480 102.016640
17.164949 7.570724 80.409187
-8.639834 12.405555 93.304710
17.770081 -7.222957 58.926598
8.933861 -11.120558 81.441597
9.139287 7.584802 107.872955
13.780311 -10.588570 68.125252
-20.290804 6.716722 57.923740
4.403004 13.062641 65.517441
-15.108218 -7.467493 99.091431
-23.008112 -2.421762 79.725159
14.384082 9.670328 54.675484
16.988493 7.206529 88.053925
5.424470 12.815143 102.729149
-1.685144 14.104102 83.763153
-12.322015 -8.495252 114.657524
-15.475284 3.164111 105.127365
16.301989 5.484353 93.425293
-0.181047 -13.831999 103.070976
5.598299 12.843486 88.293976
-23.203726 0.477052 61.791916
-7.040327 -8.130180 50.548111
4.568321 12.232769 92.331612
14.219419 -8.999861 71.674149
-18.666662 -6.016156 53.263725
22.196022 1.031363 56.876114
8.868116 3.003885 111.211296
14.837974 -6.941414 96.427116
6.515139 13.740639 98.910255
12.669193 -9.632532 67.678177
20.060984 2.881965 57.907158
-17.376711 -8.040896 84.342163
-13.615668 -0.289563 111.975586
10.593042 -4.312517 111.910995
4.340584 10.452954 82.094299
-18.768499 10.713713 53.788105
2.945856 5.729877 108.857544
15.142186 -9.466934 74.932434
-7.685780 12.232691 56.353752
-11.450895 -8.399420 85.058952
8.465488 10.859623 91.425949
-0.919966 14.539466 70.709427
0.700997 -14.004378 58.988186
-4.930845 12.988703 79.011383
16.153988 0.399270 102.405731
21.117002 2.930797 88.047928
-19.294493 9.307719 55.379799
-6.035786 14.168227 75.855949
8.075826 10.994088 53.851406
-1.387749 13.270882 78.788445
-6.355134 6.304358 113.086670
2.618021 -10.086148 80.548996
13.477585 -7.660195 104.813484
-3.876687 -9.786731 72.695999
8.953368 -12.934959 73.919357
14.875824 8.276628 57.346127
16.782646 7.517917 81.794037
-20.274988 2.511928 60.035675
-13.852974 -9.924944 56.135056
-19.301853 2.338081 91.633308
-15.892885 -3.737007 107.519966
-20.112839 -5.514184 81.726273
19.160870 1.431109 91.700554
12.592457 -10.539962 105.662209
-20.672737 -0.995373 69.986313
-21.285967 2.199526 72.931396
6.118401 -11.033936 100.839584
-16.934328 -9.524146 79.677963
-0.271136 10.585385 103.843246
16.923506 3.363978 101.697090
20.643061 -1.168942 57.092705
18.889811 -6.539445 58.979771
9.435128 -9.387008 114.569786
-1.865852 12.803493 88.679008
11.167554 -10.794062 84.478905
-3.513096 12.547385 85.156082
11.557590 -10.913429 47.652149
15.970356 -0.133379 92.754707
17.614103 8.239421 76.623863
-21.346922 -3.083883 72.201500
-7.754753 -11.298379 59.913681
-21.560968 0.001632 78.994865
6.465469 13.772347 68.752312
6.457693 8.555390 107.795097
10.798392 -11.299953 68.388245
-6.979867 -7.558735 78.477417
10.790895 8.728657 55.284714
-0.876302 -11.099144 54.669716
11.922278 -9.709805 62.838898
-12.197774 -3.426694 111.887985
-12.448344 7.553630 69.081444
7.357940 14.308046 95.695137
20.791945 -5.170655 76.979790
20.451443 -2.208259 55.701126
-14.378317 9.329720 90.735367
4.376069 14.344537 52.625019
-18.586040 0.264714 95.250717
19.939705 -4.600289 70.574608
-6.838429 -10.401555 75.753799
14.088278 -6.616703 108.230232
-15.146336 7.448509 78.224541
0.282016 8.290705 107.618492
-16.355463 5.620469 97.153481
-21.409040 -0.452523 86.755463
-12.850908 -8.407875 67.866119
5.958190 -10.060026 82.514969
0.232609 12.352125 92.768921
-17.478189 -6.347617 79.304825
-6.685249 -8.474356 78.513748
7.003493 13.241758 49.842152
-20.163546 3.642431 64.084793
-9.767217 6.603869 108.862068
16.135939 1.114873 103.171570
9.033503 10.122026 50.660820
-16.125931 -0.762034 108.126472
21.723366 -2.128809 75.034470
12.344981 -9.043938 63.428699
-19.832773 3.493382 53.090103
-18.510643 0.646355 84.145119
-7.225182 7.246878 109.872742
-0.678148 10.804335 60.928722
0.729991 -10.780792 102.033615
-8.977652 12.253016 90.215675
19.932098 -2.646321 87.868942
-18.325920 8.692515 70.954819
19.317450 11.144846 49.286819
-8.270771 -9.198801 107.505272
-2.646005 11.922120 99.608032
0.175073 -7.472330 81.976822
8.220449 -9.933453 70.302635
22.279686 -3.303225 76.147598
-4.953651 -10.716441 101.030327
5.397221 -9.287268 59.754017
15.962927 -5.577592 101.599083
14.691216 5.794312 82.373627
20.758585 3.445570 75.734451
-1.520591 -11.029161 62.321209
-3.383079 -9.929697 112.884560
-8.134578 -11.059479 111.713425
-20.026033 -3.476866 65.598900
3.895520 14.848869 57.519455
5.019431 -10.832026 94.519150
-23.989223 -2.083867 59.900185
14.153523 3.603330 107.317032
15.758427 7.661032 84.265907
-10.008724 12.581166 74.917603
-16.257170 -8.950492 86.985359
-13.094737 9.792753 97.082123
-2.810670 -11.932863 109.627319
-4.102901 -7.844283 75.731277
-14.838636 -9.164121 86.180275
0.777841 -8.855758 80.370377
-16.994349 -3.231495 103.332611
0.884913 -10.621450 57.560062
-23.636732 -3.130046 61.009598
-19.408579 0.808876 76.973183
-11.814344 10.314910 100.553070
17.024366 -7.616744 57.090374
-16.105978 8.714223 80.843964
12.555579 10.239590 88.288048
-14.707040 7.872146 97.853958
7.973035 -6.071251 118.648041
-10.094414 9.174839 47.385460
22.257448 -0.929696 80.310081
-2.485832 14.124038 59.257729
-0.443534 -12.037201 113.941589
-24.908705 0.587960 63.782913
19.054693 -2.277943 98.957863
-4.985197 -11.653935 86.668938
-20.978867 9.398271 52.316521
23.606956 -3.156348 58.646553
-23.067078 0.188916 75.289711
10.526573 6.806797 109.338707
-15.380463 -9.053574 95.343651
-20.298912 -5.910632 73.762955
14.462839 -8.116625 94.645729
-17.192722 2.333411 97.786392
7.635757 12.456035 51.975769
9.951814 11.502388 61.645996
-9.585325 9.469830 61.077274
-7.458123 -8.655433 90.974068
11.950326 -9.414366 65.714180
-21.570648 1.980549 66.217697
4.224512 -12.358541 103.729240
-2.646384 -9.321211 86.287750
-16.297182 8.569564 84.722343
6.383652 -9.599653 56.708405
-3.834828 -10.530668 69.012276
-6.845172 -10.100805 112.547386
8.014785 -9.863916 56.646118
0.183375 14.350751 94.168030
-15.716818 -6.090990 103.489738
-19.822660 6.135516 72.780014
-12.294348 -1.776299 112.264656
-0.979783 12.585728 83.079697
12.683378 -10.755425 84.270668
17.169336 -6.276102 98.333282
21.677444 -1.007858 63.796665
-0.214040 -9.895069 72.910416
6.628293 11.269906 103.190910
17.243307 7.065923 91.981125
1.586883 10.241080 107.428635
9.874224 5.864850 106.833855
-12.032315 11.730305 87.908089
8.567215 9.879979 101.786438
-11.183409 13.460063 99.000786
16.046612 7.162133 74.409546
-12.235408 10.522189 80.097351
21.715458 0.914100 83.562500
8.164938 10.509290 56.124973
-17.834358 -2.299731 102.132439
10.879225 -9.223349 84.542747
5.445721 13.931077 87.769058
-11.043717 -9.869229 103.687378
-20.133604 1.481393 51.097492
24.592960 -2.360013 66.964111
-1.150802 -9.063411 73.567436
7.796515 -12.061787 73.864746
-18.462044 2.362502 74.189453
15.046872 -4.223747 110.696556
-18.827820 10.557283 56.221493
-18.973059 -6.630318 77.968346
14.514565 10.460732 82.293083
-19.193426 5.583253 64.377075
9.060077 -7.638659 67.467415
21.008829 2.196034 78.253532
-7.901666 12.984001 54.565784
0.318170 9.900186 67.327126
-20.686554 9.558547 53.811546
-9.975619 12.985627 53.795349
-10.404408 11.992758 68.306839
-13.185272 8.924765 57.864716
2.431450 -11.415541 60.830673
19.811935 8.597683 49.065098
-6.809661 13.723212 94.645462
1.703369 -9.799053 86.156731
-15.713949 5.522913 101.128357
-1.764934 -6.407946 78.351631
13.041482 -5.691844 119.754265
8.434829 -9.933967 105.504868
7.158969 -14.452718 111.091599
12.996058 -4.245214 111.936096
3.740115 12.392247 87.595039
16.116346 -5.227773 97.389534
-20.223433 -5.767717 78.352234
-6.031814 -12.534159 105.608833
6.606459 -9.896481 74.699905
-13.397905 8.702290 94.630127
-0.094011 -10.305080 63.914131
-22.939661 -6.028115 65.276680
-25.100603 -0.262388 67.959335
-3.920000 15.369551 62.521259
-17.554518 7.831631 66.077332
-14.252305 -9.362498 92.917992
11.649150 -7.068542 113.209763
1.782741 10.268125 99.491486
0.299149 -12.416089 108.171104
7.362590 11.257036 97.025024
-22.944527 -4.820549 53.634991
-5.944134 -10.023079 74.009827
16.041054 6.796120 86.438522
12.644862 6.772781 100.976334
-15.321769 -8.934464 82.320915
-19.116175 -7.068173 59.645889
12.782260 7.306970 100.864960
1.109266 -11.593314 89.109695
4.532310 -10.354962 81.841446
17.326565 8.365892 67.050224
-14.050231 8.247719 64.135544
-12.066525 -9.617478 72.107079
3.085660 14.934522 72.544342
-9.590487 -10.381986 66.379471
17.384340 -8.443992 70.148109
-22.038507 1.159260 51.967693
-19.605452 2.094636 86.255432
-11.709321 -9.129765 94.876884
4.985517 14.807223 80.840385
15.368662 5.126043 102.458603
-5.751808 13.293862 74.498085
-18.599375 7.781291 58.759865
-4.319728 -9.026640 81.808945
-10.051829 10.817050 64.682014
-5.499914 -9.564600 91.544067
-2.772825 13.012486 75.576660
-9.438492 12.815642 73.245552
5.958405 -10.925516 92.439331
-17.568941 3.209327 96.295639
2.813753 10.475574 69.676659
17.075006 -1.562720 103.064957
16.696329 -4.735168 98.570290
-20.239115 4.094506 81.857864
-4.331838 13.714463 74.563675
-9.606764 -10.912861 84.161629
16.013800 7.022388 89.958488
2.458803 8.460596 108.499985
-12.553863 -9.380193 77.576874
0.978837 15.427422 47.432507
-19.207739 3.467746 87.972946
-21.454241 -5.771021 56.393471
-7.355506 -9.578492 56.760071
10.844125 -11.281012 85.922714
5.791596 -11.002403 100.215607
-3.398354 -12.353515 60.313206
18.239756 -1.857645 97.114342
15.650076 8.410423 62.561272
22.355440 -2.333535 77.211227
-9.263608 -11.488179 73.954971
1.762222 -9.495904 100.391914
15.572010 -9.349908 83.373314
14.164421 3.277755 106.671524
-20.213261 1.301603 66.848846
10.048960 3.017731 117.312981
-23.317715 -4.056520 69.300438
17.598032 -7.326577 69.636986
-19.711824 6.858485 69.431999
-16.253849 -9.170696 90.459976
-15.769232 4.699443 103.535164
-21.328453 -2.938129 71.892509
16.662895 7.931210 65.530502
-13.142685 9.363368 84.966095
19.788509 -5.476978 71.681168
-6.456154 -10.586535 75.134529
-14.367596 8.493991 70.242569
10.011567 -10.380299 88.387169
-10.802850 -8.899576 50.725769
-0.403328 6.848437 116.567719
-20.244326 7.615755 69.717354
-18.645514 4.317809 63.241638
11.870510 1.989546 111.103279
3.300318 13.241898 82.221970
-19.453751 6.318708 50.857227
22.239563 -5.396478 48.686405
-20.454975 6.656832 64.093010
-5.601244 4.574228 113.958328
-11.164196 -9.601339 82.200813
13.399138 5.861462 104.666992
-5.008945 11.695498 87.287376
20.767550 0.292303 59.395805
6.008241 6.981670 109.269409
-18.277632 10.159910 68.605888
-3.860492 10.990373 97.408875
-1.710549 12.263486 72.875618
-14.884515 -9.529683 105.151520
-4.006634 5.579682 112.470810
-17.364866 -4.497258 93.277596
-10.407436 11.758441 55.331287
-11.204832 -8.095971 91.007553
-9.734967 6.521448 107.223373
-15.274858 -10.331670 57.515102
-22.510590 0.158222 58.325180
4.141712 -11.918263 98.399483
-0.725706 -8.859087 71.192764
6.727210 13.529123 53.305180
10.604687 10.623119 99.438942
-18.901445 -6.229083 87.599365
9.606116 10.376920 52.457474
13.006917 3.299942 110.771706
17.339016 -7.877811 77.273872
-11.792442 10.532580 97.198097
-21.511473 2.095242 56.958080
-11.940457 -9.116645 84.112854
-16.329428 -4.735541 103.260017
20.547873 -6.948543 85.660515
-9.834969 -9.775308 94.248924
20.414986 8.530873 55.602703
20.209560 3.471598 90.163490
19.085365 4.986467 86.755852
-10.338496 -10.769545 100.722145
7.106136 -10.793097 68.121414
-20.687120 -5.891560 76.592880
20.830584 3.789509 65.713531
-4.473589 14.454627 57.694782
17.963490 0.599932 96.809219
6.100049 14.213924 50.700020
-15.526838 8.418480 67.994316
18.817661 -8.366411 57.595860
-5.863931 -10.236180 105.060905
-21.603271 5.557175 58.000652
-24.157589 1.868180 72.933739
20.354544 -0.845846 87.580261
4.465403 -10.447248 57.919338
-12.156246 -9.432932 67.322876
-9.863643 10.858364 52.535393
-19.669436 6.117499 59.336788
6.798840 -10.988780 74.514915
-1.125503 -12.700110 95.565788
13.060428 -8.043550 71.605972
19.486687 -2.674280 97.814217
10.937260 9.376949 65.186821
3.665565 13.740862 63.444363
-22.893497 -1.013044 55.228043
-16.089245 -8.524383 103.578812
20.436417 1.058449 68.629326
-20.222710 2.527305 67.977913
13.671140 -11.449385 74.783005
5.423844 -11.235604 60.557175
-3.372995 -13.152309 108.324013
18.995684 -0.357226 69.338051
3.584592 -11.935519 114.328178
-12.887850 -8.971100 106.459404
9.133665 11.960490 72.071938
-20.828932 -2.800630 76.228470
-15.998275 -1.858021 99.518906
20.190477 6.603039 73.672371
6.896368 -11.489520 74.360390
-16.040049 0.850249 100.904350
14.415312 -8.091410 99.448929
20.349995 -1.321227 78.715179
0.842343 13.395967 51.642757
-18.897297 -1.637532 93.801285
2.369781 -11.457225 104.184479
17.975266 -3.734245 95.294144
-12.045779 -12.982242 79.997162
-1.750230 10.676729 73.125183
-11.045815 11.508595 84.005493
3.239059 7.553203 110.158203
3.758426 -10.615265 56.372635
12.425789 8.619562 64.869164
1.859133 7.060158 82.547318
12.829877 10.133483 83.472511
-0.523709 -8.660076 50.665527
14.889756 -11.255475 95.363495
-23.843075 -0.803291 55.546989
20.830034 2.562184 79.881195
16.695925 -4.666578 103.574486
-11.015428 0.699505 115.547211
8.120370 11.590162 83.952644
9.432144 -8.422077 99.563011
6.121115 13.460452 91.181633
5.455328 -10.944618 61.645744
14.712971 8.832006 62.500702
-16.668928 8.965506 55.159424
5.226665 -11.569072 72.229881
20.608543 5.044897 59.360798
0.646602 8.575709 69.478195
1.679860 13.482850 86.851814
0.094726 13.659723 58.538746
-19.001295 3.639341 61.095409
-1.927102 15.319280 62.387520
1.310249 -13.532489 104.317673
4.829301 10.797981 103.348694
10.214108 11.063914 73.739914
-6.459725 15.693404 63.810272
0.394641 11.440053 61.112747
-15.834316 -9.365472 54.329483
-16.826294 -2.461833 100.662415
19.165733 5.025836 87.235077
-24.788387 0.484768 65.874619
3.874267 -12.503608 106.323006
-23.580919 0.965117 60.721046
16.367823 -2.901246 105.617874
-2.601868 -11.470475 67.423706
-19.374086 1.203208 59.409084
2.511478 10.226197 63.174820
-17.847372 -9.790781 68.747536
11.383670 -10.092548 78.798630
11.988746 10.508115 74.040550
17.460882 3.177070 92.314957
2.556172 -11.332301 98.622063
2.082860 11.803255 73.028458
-15.998584 -0.278725 107.081345
-4.399229 -10.417018 94.523064
-10.536129 11.657936 59.580467
-12.723230 8.152823 71.549408
20.594971 1.430713 56.905594
-19.066715 -7.821150 73.356094
-8.217915 12.969603 94.151085
19.184244 -9.619790 60.891426
-17.489119 11.191351 53.631756
0.126221 -8.944203 86.567543
5.756136 13.065455 59.734909
1.949447 10.968800 104.020294
21.223305 -2.542829 76.880295
11.000583 -8.798557 99.066307
-1.606957 11.673631 60.350964
-15.041011 -1.956944 109.550049
21.679100 1.389576 58.677818
-9.579765 -9.760650 83.664360
-10.875392 8.733779 49.812054
15.700308 -7.550090 98.247353
5.177564 13.794544 47.950455
-19.308891 -4.487148 86.520729
-22.186523 1.376057 71.279045
-20.370628 -0.025878 88.021660
6.685450 -11.984652 100.999916
-16.602993 -6.915228 90.900696
6.356795 -13.020081 106.637520
-11.450688 -7.066079 51.246899
1.391586 -12.400283 102.204666
-16.970564 -8.170423 69.677040
-10.089173 -8.185798 49.820992
-14.960373 -9.611914 63.151405
1.837416 -10.784557 71.576324
-9.542692 -10.485194 65.985977
11.218180 8.809428 63.259823
10.555119 10.559962 82.320366
-20.427931 -2.276732 87.465393
9.565526 9.722569 78.755821
5.521040 -10.262692 62.283936
-5.564692 -10.770830 84.600281
11.596637 7.467740 102.760483
4.149852 14.822292 59.792892
2.313409 5.668952 115.878502
21.247768 5.014949 84.767067
20.664160 2.295314 87.694054
14.044754 4.120328 105.373596
-5.280956 -10.993313 61.228680
-14.537858 -1.976693 109.938866
12.230630 -8.580439 73.751297
-16.979870 -6.004804 88.278725
23.771875 -0.206733 60.360519
16.655771 -9.943188 67.748787
-0.758647 -10.817603 63.953407
8.288499 -10.469238 105.963058
-12.384119 -5.439506 112.431564
2.534837 8.836148 76.140022
2.560532 -10.563392 91.855560
-20.581289 5.222925 53.992607
9.677699 2.755755 114.784050
-9.296116 9.959066 97.623611
0.717007 -11.402485 109.644890
8.573022 12.901952 56.850578
-15.993618 -9.196514 89.737518
-14.928373 9.421203 80.254791
5.161008 14.733925 66.785912
-8.039482 15.260744 50.645981
-12.230583 8.683760 68.626877
22.986679 -3.199029 55.080681
19.249311 -6.014184 90.371414
-12.593944 -7.481120 109.871826
2.908933 11.227367 85.409950
2.591057 -11.152490 67.501518
15.770827 -4.691426 100.954124
10.346792 -8.022995 108.344635
-8.308717 -11.778295 68.994476
20.576302 -5.510711 65.468399
-10.232748 -11.309432 72.249573
0.309505 13.446076 73.842514
20.868757 -6.505569 65.802963
1.684902 9.735416 87.449997
16.159384 -10.259855 73.762833
4.396187 13.350003 73.700226
-1.398876 -11.007410 87.245377
11.731635 -8.004830 95.635193
17.677675 -8.045165 86.072792
-20.873291 -0.532085 81.506409
-3.446682 8.519099 105.697128
23.463354 5.127245 61.771667
-20.830091 -6.459510 55.364483
-16.509169 9.167690 69.205627
21.489382 0.242651 52.737507
-0.001231 9.236972 106.180847
17.812042 7.533850 65.028915
0.399791 10.137633 84.967140
-8.691253 -8.095537 55.214191
-10.503471 -11.777626 65.250076
-13.916224 9.794052 93.280289
-14.206412 1.678443 106.870972
3.724625 12.313287 96.954628
-13.823220 -3.015568 105.651764
-9.195500 8.728085 103.310921
-2.000057 13.219148 95.819046
-11.764193 -6.432280 54.741138
16.774992 7.526506 86.851929
-13.468860 1.657794 111.918152
8.639287 13.572923 95.415123
12.471510 8.277358 70.028885
-2.632184 13.239486 93.913246
-10.642941 10.808766 100.087059
-17.981243 -6.115891 94.224739
-8.231172 -8.521970 51.877609
-2.187077 -13.533388 94.124046
-0.448431 10.454810 67.313629
-7.506782 14.120802 55.652382
7.893318 11.042827 97.179863
22.118322 -1.656707 76.927139
21.072020 3.897651 71.276199
14.460647 9.478331 90.562202
16.797409 2.370242 100.035721
20.898434 2.415261 73.925858
2.285298 13.592121 83.298698
0.766885 -12.035857 114.072571
-19.161901 -5.688943 71.095451
18.367424 -5.867520 56.264694
-14.175104 1.421576 111.151329
13.370424 -9.327765 86.626297
-6.402815 -9.000136 97.879272
-13.057446 -11.074683 75.861847
10.817754 9.976783 99.487137
17.232565 -10.337179 71.485306
-6.067534 -8.326832 77.044518
-13.143460 8.021738 68.999107
20.277611 7.818794 52.943539
17.860903 -5.782152 83.667091
3.484061 -10.424178 55.803669
-21.927240 -3.745770 52.385040
-14.664545 -6.838233 106.059013
0.407602 12.033329 79.455734
7.994601 13.758582 55.028011
-1.612468 -6.467000 86.828491
-1.759119 -6.638278 83.630905
19.946083 -6.851801 58.296898
18.838879 -6.914778 89.541893
-13.887147 -2.526124 113.739754
4.165881 -10.115519 84.190956
-4.441440 -11.932886 101.463196
-2.293016 12.698669 89.413658
-18.022680 -7.714409 68.354469
-1.800512 -7.642871 77.607254
20.886414 5.959441 76.322464
-7.553068 11.741688 53.357296
5.188011 12.091171 99.292892
-15.210016 -9.432814 55.960865
-18.995176 6.514134 64.590500
-23.208313 -2.367851 65.894470
-11.202803 9.727590 67.445831
20.863735 10.371725 52.541855
7.211292 12.383223 51.160156
-9.067190 10.723439 76.908310
3.298629 7.199699 110.039330
15.183895 -7.913629 95.796738
13.709021 9.325631 61.170250
16.293821 6.982361 82.328102
-7.550196 11.090063 80.946701
19.411320 1.132321 52.640606
7.494508 -9.715079 61.613979
-20.167545 0.688409 48.454567
17.302078 -7.579160 61.084721
7.136679 16.113108 60.714714
15.646478 -7.510864 95.650978
-16.390608 -9.547882 66.448959
-4.049561 12.634574 67.373268
-17.873899 1.488900 100.050186
12.661180 -5.242024 108.501930
22.049202 3.671586 56.964195
5.942547 11.729540 87.113350
-1.474979 9.538376 106.921646
-23.650963 0.148683 65.648109
-7.613487 -7.459796 48.560085
-11.857904 -8.472579 89.493683
20.761808 6.226524 84.237038
-13.594790 -9.183433 69.661613
-23.527903 -0.601699 50.793808
-4.112043 -10.421993 102.944969
12.954149 8.711347 56.011002
-17.085415 7.424031 85.483788
-20.274920 -6.127399 71.701698
-25.126392 -0.776655 50.616226
-18.793406 -7.268594 58.405762
-10.900241 8.874299 83.182167
15.201293 8.504819 69.074516
11.526534 -9.720556 79.265923
21.603046 0.046594 63.456501
-5.113455 -10.146208 68.129349
-3.531258 9.279837 102.762680
2.465328 -8.789372 49.693691
-15.802935 9.100206 99.200180
14.855534 -6.702529 49.873234
-1.050966 9.355847 83.595619
-2.181191 6.329371 115.464073
-18.294493 -0.646602 92.807541
1.296730 8.125644 108.230072
8.362860 -10.324039 55.459011
11.869779 9.759315 73.872528
20.777878 -4.809920 52.599159
23.381733 6.311146 49.297310
-8.008446 -9.168236 97.452461
-23.375469 0.939425 56.069996
3.079879 -14.555655 112.371696
11.983685 -4.102206 112.168854
-8.886497 10.734599 65.500656
22.573698 -0.738777 57.599106
-11.218910 -10.114191 79.064064
2.953851 9.560908 64.575340
-11.340931 -8.631270 109.061104
-19.410904 -7.402155 50.820034
-12.844544 -6.702252 52.753750
-8.637558 10.309088 77.637444
18.608038 8.255095 55.194237
4.279274 -9.333794 70.468201
17.944826 8.453905 65.065735
2.274518 12.601170 98.758308
1.669452 -9.597152 54.121193
-0.599867 -9.690991 50.829170
22.796677 -0.727687 74.547974
-20.171986 2.570636 50.206726
-24.077568 -2.167950 66.695450
6.240179 -10.659161 102.395638
-3.132806 -9.055801 74.154404
14.738718 8.185359 92.983315
15.349725 2.996270 103.547981
-22.887539 -2.491217 68.789764
-4.454837 14.106878 68.407158
-5.552780 -10.423039 55.687046
15.148398 -7.549534 95.903610
8.078938 -10.585861 75.486282
8.523098 -9.168597 60.286366
-13.121161 -0.285167 108.195374
-8.119240 -9.265126 54.232933
0.790045 -13.916093 107.418251
10.408385 -9.645408 106.919579
12.259934 9.817839 82.168701
-0.917489 12.405373 84.752686
-18.251253 -7.243527 63.375000
2.803638 13.693025 59.929218
20.651613 0.309566 55.816193
0.548431 10.661304 82.446701
21.857666 0.311637 60.779316
18.922567 -6.346792 67.344391
-9.114353 -9.843204 98.367218
17.749775 -9.616472 71.676331
-8.562476 12.774496 93.393860
14.248626 -8.159314 101.582878
-2.448077 6.463906 109.697220
4.134356 16.741385 64.946213
-16.891190 -9.795218 65.745888
-9.462878 -8.328639 101.415634
1.388664 -10.670492 53.117718
20.505846 0.219996 52.115314
-3.591484 6.656815 110.943405
-4.462711 12.335966 89.430893
-15.623074 2.383106 102.337860
-14.978570 -4.507995 107.079048
-18.595592 10.098856 62.744396
-13.466996 -9.730989 56.059471
0.204394 13.530968 95.940193
-8.862092 -9.503648 90.097404
1.466869 11.371954 88.576950
-19.492655 6.963484 76.664993
-5.876335 -10.216484 111.252396
-3.979764 13.513642 83.074516
-24.446482 -3.139637 61.912846
-4.105517 -11.594524 96.369652
-5.532667 5.165850 120.498360
22.791180 -1.956880 55.469997
-11.517411 -9.311613 59.866528
-20.840294 7.324336 54.571079
-11.341773 8.645797 99.739075
12.002489 10.946968 61.684582
22.595579 5.886063 62.877903
-1.852321 -8.144445 75.583931
-2.092210 -10.852189 115.255836
20.666656 1.202065 53.918880
2.999188 13.236022 50.660828
2.053972 -11.777105 109.685547
-5.853578 13.806191 66.677261
-6.251525 12.289456 93.325768
9.388855 12.222098 73.969276
-10.143184 -9.382083 101.297256
15.470522 8.998610 49.941792
21.779236 -1.245223 81.837959
23.641392 -1.429866 57.910019
15.730013 7.313873 86.218086
1.733886 -14.414720 100.811989
-1.153333 -6.116312 78.649498
9.795183 -10.872327 93.418282
12.157650 -10.983521 82.533440
7.855381 13.090794 83.881584
-20.615316 1.181492 70.712280
-0.764603 11.466622 61.703766
5.836134 14.448128 72.171013
-2.814026 -9.955401 52.906887
9.944031 10.160538 55.752804
-14.907381 7.875464 78.556847
-20.425766 4.171046 61.609840
17.685417 1.772420 92.082642
16.376884 -9.550928 83.513252
5.555863 -12.413849 104.824600
-18.625937 -6.588986 90.721123
22.218761 -3.625869 51.992287
-18.652603 -5.335479 90.513687
7.319300 -9.809146 57.004066
19.450607 -6.997352 49.541702
8.406852 14.413134 78.805740
7.262119 13.797789 59.544415
-16.609386 -8.520315 91.480003
12.839347 -9.316119 90.141403
18.977459 -4.077900 83.483055
-4.956795 -12.400518 64.290321
15.146525 -4.030343 106.806755
-1.356617 12.734633 82.859184
-10.706393 -10.250948 71.093170
-11.523934 -8.898858 63.617607
-17.766809 3.377249 92.723396
-21.296669 -1.751163 74.821587
-9.172042 -10.161313 75.673668
3.608070 -9.227449 48.851513
-19.319492 5.360559 92.392914
19.870358 -4.249385 89.103554
20.146973 0.929299 62.635262
17.941349 -7.866906 78.747353
7.399166 -11.074827 111.861115
-6.868376 -9.577503 87.583443
-22.689592 0.311336 46.964252
-17.735296 -8.431334 52.259468
9.288734 -11.922122 69.879784
2.256653 12.214288 67.598610
7.825396 -11.977841 69.135803
6.050468 -13.198190 105.415718
-6.984037 -12.032958 105.433762
12.614579 -6.282507 108.380867
7.859161 -10.553492 58.455669
-19.804413 -6.338449 60.257267
-0.437699 4.914709 109.044708
-6.790207 -9.094715 82.162155
-5.835280 5.480507 111.046570
17.790575 5.235775 86.806824
-0.753313 12.033262 51.442078
9.984248 -7.729809 116.480316
2.949461 11.915119 74.007896
-4.634598 -9.663402 85.135292
14.291703 -9.634531 53.414459
13.826736 0.844205 107.223640
17.594509 -9.116705 68.294762
9.988802 -7.635672 114.205307
13.873287 9.649561 72.963127
16.502522 0.763151 96.259979
-6.972341 -10.569584 104.209846
7.613900 -9.583386 60.961834
-9.123566 10.128409 75.295036
9.662958 10.517868 76.650009
-12.223025 9.700083 98.491440
-5.945761 -10.653753 75.559082
-14.110872 10.576750 49.361736
7.716407 11.591397 101.435234
-16.546152 7.658077 57.241158
20.629572 -2.650457 75.772903
16.009457 8.908819 67.571136
18.384548 -6.244661 80.621315
-3.414077 5.604271 113.396278
14.341084 -6.252091 109.510628
-23.122280 0.925595 70.938377
-6.759584 -10.810328 77.790230
11.377252 5.861402 110.579292
-4.606730 -10.657908 102.357849
16.673958 7.824840 61.174625
-18.341814 0.526674 91.261459
-6.551193 -9.294046 107.384750
5.085701 11.231041 93.196899
12.299713 -10.996649 69.614906
8.882193 -12.847816 72.902084
-18.479630 -6.287603 93.574272
1.795474 14.838532 81.790764
-22.327389 -4.782021 66.307007
18.666759 -8.139543 64.073090
4.379267 13.123908 81.838562
11.920687 10.765979 89.230484
3.829283 14.566748 70.327576
-8.470900 8.320964 108.601547
4.441619 11.483862 89.613327
-11.512114 -10.937609 80.983376
8.629195 11.065820 70.921417
18.944992 -6.857555 74.954895
9.253862 -8.849533 58.594646
8.290586 11.930751 85.296936
-20.177238 -3.684856 67.605553
-8.465294 -11.131545 71.713737
-16.269844 7.386972 91.973572
-20.611444 7.526516 56.581059
-7.314999 -8.615336 49.182949
-8.167603 11.790046 64.025826
1.912434 -9.798857 69.682655
-13.515077 9.732603 55.730236
-0.089700 -12.184832 112.476402
-14.631383 -10.981935 95.209778
-0.569221 12.505407 98.941856
-6.443898 -9.818886 95.814644
-19.164976 -5.852791 63.310696
-18.993412 11.358927 51.525314
13.497725 9.422565 74.365791
-5.018230 14.900180 66.079445
13.610718 -10.446201 72.471443
-5.576076 -10.404028 71.425163
3.133231 10.681263 85.460762
6.862277 14.748034 46.421738
-19.962151 -6.065463 73.956810
3.629348 12.055754 72.784859
23.399387 -0.871466 65.025421
-1.635352 -7.856586 92.649750
-8.621778 11.393363 98.553123
0.348233 12.666725 87.408325
11.336640 9.971848 55.050041
17.889929 -8.416786 61.451408
14.661929 8.263107 44.372021
6.972104 -11.508670 86.787292
11.148280 10.456755 52.504051
16.718704 -9.741891 58.880028
13.201092 8.528880 104.380554
-2.022023 12.900728 51.100277
17.088562 -0.642992 97.833603
17.785294 -5.702923 99.169930
-10.517651 -9.819185 95.005058
14.226514 8.059579 95.686119
3.672729 -8.784909 87.555061
6.968376 -11.541152 85.564270
-18.797623 5.144384 60.697334
2.504661 -13.411646 64.700195
-9.358437 -10.077187 84.239960
-7.866143 -10.839128 71.487305
-21.796146 -4.850086 75.134254
-19.055536 0.267232 51.212776
13.351058 8.452851 86.934616
15.547122 7.489243 86.525085
2.465420 9.974311 84.532288
13.834264 -0.883262 109.961304
-9.905783 10.946844 68.926361
21.189484 6.263772 71.697205
2.396712 -8.634007 93.656952
12.990201 9.038327 77.809097
16.472391 -8.260536 91.300018
-9.084801 -11.131088 105.510208
-1.740291 -9.953278 71.867752
-14.884226 -7.904256 52.535397
-9.695666 6.146859 106.600433
3.455173 10.963772 76.033989
21.101505 7.504077 63.220661
20.524084 -0.595347 64.913673
18.550495 -3.747598 93.382057
-14.828753 -11.422348 86.554710
21.488317 8.451380 63.952690
-18.738756 4.711603 81.792862
-2.833543 -7.666414 77.939529
21.014372 -0.290491 64.888123
19.812881 -7.250357 78.187592
6.176403 -8.683035 104.180397
3.486415 13.705612 86.228386
12.873600 8.066046 93.607613
2.553242 -11.401318 59.500374
0.796277 11.849258 72.497322
9.046838 11.684290 95.231773
-7.320551 -9.578021 86.663383
5.862361 13.017591 99.413956
22.575665 -4.288133 52.477005
-22.034824 -4.407818 78.583519
6.562482 -9.202012 52.119232
22.804766 -1.395546 53.670036
20.780464 5.110031 53.996098
-9.409785 8.828914 102.611504
9.661891 -8.443074 53.707298
10.836087 12.286189 59.256519
-21.203873 -6.809885 86.910019
8.046437 -10.433123 102.561600
-19.689459 6.089573 79.214836
15.062844 5.155359 95.893784
22.224731 2.934251 69.543243
-20.176489 -3.510663 54.279133
-20.062429 -4.027315 73.642754
11.400280 -7.972611 61.981663
-11.020545 -7.683805 49.454433
18.127142 -6.196716 89.303741
13.715523 9.777193 76.205421
14.223552 3.822532 106.159081
-15.465152 -9.603947 77.482391
19.671459 4.586472 70.598259
11.501559 9.615058 62.160892
21.168743 -5.100361 74.998695
3.691990 -13.067085 111.200111
2.458239 -11.767564 107.511307
0.427408 11.883904 88.194496
22.605204 -1.645719 82.582382
-20.282394 -0.924358 79.257927
0.642865 -7.576105 78.434921
-8.050668 -11.579569 67.910530
-3.905782 16.790285 48.723068
-3.450706 16.588369 62.581135
-15.260633 -8.587582 102.651154
4.609903 10.896543 81.424469
6.282814 -11.386309 59.455410
-11.266098 -9.792686 97.476120
-11.250301 -8.261847 56.190189
-2.804333 -10.872876 74.342674
-6.046975 -9.785385 51.926659
-16.631960 3.039410 98.744431
-2.103120 10.591324 106.902267
-0.867802 12.001376 79.894424
13.358892 -10.724011 84.990372
16.986593 9.443811 49.948425
7.880322 -10.601430 84.901932
-13.741209 -1.191715 112.245041
-12.346842 -6.736561 59.300743
-18.692822 -0.727931 91.532082
-15.971002 8.297301 90.866516
-9.732863 12.101807 52.914684
-7.815584 11.860371 66.825249
-24.535789 -1.382626 71.472809
-8.603855 12.160558 50.006031
20.100601 -6.725056 76.210190
-17.947115 4.580612 75.535294
-22.480482 -1.099447 54.752663
-18.273432 -8.882504 76.401581
20.589088 6.869288 66.551926
7.856811 12.682899 82.674438
13.371739 12.919358 49.422775
-0.685041 -7.969191 81.082489
7.086863 12.028357 67.621933
18.051523 -1.762347 103.339096
-9.124214 -9.983769 78.595787
-7.750994 9.513672 107.555626
-5.950009 -12.846875 117.220238
17.051678 9.467669 54.750153
2.439422 13.564944 79.376030
-11.652658 11.372808 79.074997
3.045883 -8.090137 49.244663
-10.147476 9.817574 49.072201
14.876703 9.898378 67.417549
1.691562 -8.524838 82.867844
11.475920 11.689063 96.649551
11.137303 8.914191 64.563370
22.506577 -1.810413 81.729729
8.766033 -8.035095 109.438438
1.189177 13.628793 75.784615
-22.671391 1.334647 79.281364
13.005445 7.891362 99.085716
-19.464275 1.975116 90.770714
15.302036 -8.303229 84.894363
-16.750437 -7.884518 79.890327
21.140774 2.120209 86.728615
-12.942558 -10.126722 82.760277
5.554214 -11.622914 86.625015
19.646536 0.377951 65.841110
-10.209673 -8.880634 59.816345
12.606504 -9.041850 100.006424
-3.706250 -7.854483 88.388069
-18.997740 5.862117 82.026436
12.787192 8.753278 89.902214
-1.618203 -11.462726 61.716732
15.988330 -3.264850 114.827560
10.282800 -10.380713 73.444122
14.838204 -1.671249 108.992500
2.312184 -10.108890 95.706436
21.465666 3.770392 62.078701
-20.839485 -1.543883 85.107803
20.549414 0.633941 50.178471
-14.474251 7.981256 104.025017
22.163330 -3.793890 71.118134
12.602032 5.460490 107.149590
-13.089476 9.954441 75.793137
-7.964946 -10.093040 100.842110
12.633771 -7.859967 109.379364
19.035101 6.407156 72.917923
-9.773862 -7.883895 113.820137
19.473156 -3.497269 91.662605
3.241635 -10.670969 53.698895
-20.027529 -2.363637 75.188179
2.769060 14.167393 73.094681
-9.027728 -9.767467 86.609352
19.536959 10.192233 59.719761
13.786188 8.214486 84.553055
11.647125 5.698746 107.194511
-14.162118 -9.370184 89.980087
-14.552968 7.852974 93.478706
9.990458 -9.548429 55.833630
-10.696381 -1.892952 115.751587
4.706527 13.185329 65.538712
4.668615 -8.966701 81.989677
-16.455023 11.219460 49.750427
-16.619215 4.255362 90.984009
-13.604624 9.721472 100.570786
-9.190001 10.107718 48.460644
-21.400139 10.900635 50.626373
-17.081507 0.257297 103.610138
2.330312 12.766457 67.446327
