ply
format ascii 1.0
element vertex 2048
property float x
property float y
property float z
end_header
8.706348 -11.309802 69.239944
-4.614730 -7.758633 54.512714
-2.657962 -9.891966 81.311310
10.838636 3.088920 46.383881
5.367389 4.745067 26.565271
13.126644 -4.348885 114.252136
8.382911 5.414895 79.231750
-16.645643 -6.724854 48.796532
15.223528 -8.769966 66.172592
-2.702531 -4.811090 67.615250
-15.147614 -2.726117 90.850616
2.547870 7.666524 86.582207
-0.404125 -15.757696 105.095207
14.984852 2.643707 82.508179
-7.322977 -12.956955 58.434162
-12.448934 0.888066 82.769852
12.022673 3.383030 46.931923
13.452730 2.528301 79.110855
4.859568 -13.984107 113.034767
4.151634 -11.200266 113.064949
6.230881 -8.453393 52.743145
15.921663 -2.518960 43.657368
-5.261539 -2.644488 36.546162
12.834976 1.546434 95.972771
15.278701 -3.440262 85.017578
13.304147 -1.982691 97.986557
1.449548 7.541720 88.907928
-9.589676 -5.939914 21.301744
-3.748963 1.952750 50.030056
1.285461 -2.083678 57.351891
-5.374354 3.722977 70.967018
12.671815 -3.305265 101.274788
-15.232485 2.702832 26.789101
15.346612 -2.250753 97.384270
-13.829958 0.606779 81.715950
6.899413 6.757812 34.811359
10.223882 -4.272452 13.665340
-9.251596 6.075086 81.683243
11.213419 -11.430673 96.432800
-10.331007 3.565307 18.441694
8.113441 -2.871676 38.017845
11.926848 -12.342516 100.112808
15.284342 2.108230 39.021038
6.976631 2.404282 61.846596
3.065188 2.397672 73.698029
13.870232 -11.703783 76.589539
6.730518 3.767368 56.319168
-8.106563 11.084958 97.476501
15.483459 -2.913131 18.497089
10.008451 3.033881 74.891121
5.363102 8.867202 83.565689
-12.180842 -8.436024 51.475563
-7.958752 -2.540640 21.328564
11.468266 6.438873 84.601524
-6.370357 -10.069038 92.479546
-2.878450 3.147068 45.996876
-13.965667 -5.733442 95.904366
0.196575 -0.997578 79.505432
0.885339 7.538545 102.177818
3.113431 -12.357564 103.526489
13.584293 -11.877599 73.297836
16.248543 -6.532639 55.978092
-0.689979 7.671638 88.822052
14.256148 -6.899167 94.469337
7.007989 -11.424724 87.619911
2.280555 -6.182835 69.188187
14.502620 -5.725413 53.718670
-3.004846 -12.442858 98.695358
6.337403 2.615105 51.027325
-4.619411 2.321157 67.789726
10.253995 1.810601 64.302490
-2.479661 1.353438 55.353493
6.873925 3.352206 22.129145
-9.029799 -8.784400 43.643337
7.509763 -11.372501 79.240547
2.994092 -12.093073 94.833771
0.152088 -3.515352 77.880280
-8.913509 -4.909119 30.263739
8.102492 -10.303877 57.446674
-12.565055 0.366092 29.114676
-17.592758 -2.521594 86.677231
14.284205 -10.986727 72.491356
-7.241834 6.358556 97.556686
11.601851 8.197021 99.505501
8.969915 0.882229 69.011177
13.854042 4.337927 86.356522
4.973933 -7.419013 49.523613
2.614901 -5.920851 53.751141
7.212770 -11.046674 111.354805
-19.052494 1.934725 35.279755
5.365172 0.925984 73.290939
19.129614 -0.325366 17.417307
18.002317 2.015123 15.713222
-3.933966 4.356509 84.111237
-4.357913 3.531942 117.093918
16.976009 -3.902601 78.152374
-5.040399 10.790445 93.951157
-7.779946 -7.855959 43.745476
-13.318448 5.363139 27.751238
6.172022 -12.143780 107.416039
-9.975613 8.456435 55.629044
11.039706 -2.685101 10.818183
16.011789 -2.792672 23.763132
-14.483028 -3.720768 19.056105
0.347643 7.525135 113.078606
15.239628 -6.350556 85.974731
13.755142 -2.592070 8.242517
11.486071 9.837440 89.375961
-9.715180 -5.532948 42.065533
-6.988823 4.097583 20.967522
-8.038292 5.172052 45.852890
-15.883945 1.248692 18.014404
-12.300015 -10.243007 81.692566
-10.023265 -1.177809 115.390022
12.580558 -8.171937 101.684158
7.277288 2.606931 113.872993
10.672422 5.021780 11.178446
-16.086567 -3.135758 86.255318
4.176687 -4.176439 51.611504
5.093798 -5.857547 52.746246
-5.868473 -6.446704 53.477680
-11.754761 -11.792359 66.802429
-12.069570 -10.822235 82.440079
15.577599 -3.864427 83.412773
14.488470 -1.104591 14.866035
14.198971 -0.950601 24.980864
-8.892508 3.878905 61.503555
15.065247 -1.993726 62.140400
-13.257074 1.493803 52.595486
-11.686457 0.652969 57.097027
1.722582 -14.648578 104.072777
11.397732 -12.081841 72.335861
2.934378 -1.417648 48.456753
14.746109 -5.885971 97.389717
-15.755695 -3.609940 40.936325
15.371409 0.486460 59.593231
7.957175 -12.395600 83.466972
13.147279 -6.418365 97.258156
8.732981 -6.748751 37.487373
-8.061497 6.766053 31.098707
18.428638 -1.314666 36.630924
13.447739 1.589052 57.330273
3.306280 -0.687919 44.798801
0.496858 -5.476492 81.278389
-9.280208 3.590224 63.296951
-3.517022 -12.588453 85.168106
-13.703943 -5.259119 106.338005
12.710445 -5.548861 68.058372
7.849505 -0.137389 20.621439
16.888197 -4.674404 70.936935
9.318840 5.146728 8.986749
0.846026 10.061793 91.330795
-15.434514 -0.883257 88.846443
-8.214079 3.594690 29.783766
-7.573075 -7.814287 50.880352
-6.453110 1.830590 56.697895
7.548978 2.788499 66.384521
17.014862 -7.784304 70.158043
-1.545846 -14.936155 111.161270
-12.108874 -3.637287 96.752274
13.280653 4.486153 45.607800
-7.850418 -0.936008 9.249342
-12.969933 -7.123201 73.844147
1.150089 -13.476541 117.761673
-9.835456 4.500042 75.825867
10.060876 1.115104 54.509499
13.042241 -1.959801 71.527763
2.540231 -6.023547 59.622597
-8.228139 -14.091321 108.169930
-12.866282 -2.830863 48.254307
-11.431756 2.774364 73.567848
-12.548545 1.429996 64.094528
16.874849 -4.561397 20.835939
-12.959993 -6.499276 72.425453
4.454511 12.020880 95.051430
15.437596 -3.030923 35.145107
-4.981950 -9.971378 70.884331
-8.087376 3.132922 110.346077
16.276257 -4.054468 8.239773
3.952794 -11.770151 72.097839
4.447155 4.586978 47.145542
-14.824129 -3.008881 50.040497
8.258397 5.867800 36.612091
11.153570 -9.587976 40.820957
2.670203 7.633755 106.539261
9.685479 2.603334 63.945435
-11.491051 -8.388625 49.343178
-1.528825 3.637956 82.670471
-5.083354 -1.206941 55.623917
-16.833048 2.188296 22.025898
15.141822 3.714819 25.574389
-14.281388 4.615273 49.204136
9.345660 6.130559 97.810936
-7.549645 -9.048579 114.592010
16.729252 -0.999524 30.032604
-15.278826 -7.396629 75.015793
14.025068 3.005407 104.841629
-1.943019 -1.954576 73.248688
-9.968839 -12.528805 77.998436
13.281654 -0.429834 15.411114
14.134832 -7.626637 65.531258
-5.133138 -10.675698 69.047180
-11.827793 -11.311000 75.449860
-6.543221 -6.994561 59.763096
14.174269 -0.769124 10.388741
17.132366 -3.875055 90.181282
-16.788460 3.680449 34.915405
12.679983 -13.753197 82.286987
6.064972 1.737231 58.897362
-13.847135 -2.529526 25.449890
10.843639 -4.556264 10.769582
-7.600223 4.469244 61.719475
-15.073033 -7.302820 47.311104
-12.637187 -6.650964 107.527252
-6.983353 4.434234 44.977722
-11.154720 2.432565 18.182348
2.351999 -13.144651 108.622734
-13.113328 -2.606766 100.241219
0.228505 -5.837241 81.451454
-8.846143 1.724497 117.193954
5.724990 5.141994 82.948715
-2.153295 -5.075845 51.723076
-15.557136 0.980452 59.784248
-1.797408 1.930791 78.057457
-12.575197 -8.298150 65.159508
-2.642429 -4.131265 66.993401
15.482417 -4.823905 98.870674
-3.694622 0.984001 33.849621
-16.327728 -7.385849 62.727661
-1.816470 9.658788 84.982826
-16.110258 0.321192 51.649441
-3.251587 -5.428099 50.441849
17.627207 -2.077216 21.907455
-14.689300 -1.879517 91.335480
5.448891 -3.081130 43.227501
10.221964 -5.760272 114.122032
-11.272661 8.417814 86.925629
13.420968 -1.984046 19.230879
-9.194464 3.865298 48.720222
-14.530249 -10.393982 80.954254
-13.157331 -9.104166 93.308044
-17.609125 -0.857983 29.006245
-12.954254 0.675442 65.916061
-16.817705 -3.500578 40.711830
-8.573667 -3.057555 30.575193
12.808799 3.831673 52.608902
0.243492 9.564747 101.445740
12.630739 -6.931897 43.434734
-6.131077 4.211941 73.192871
-4.650178 -2.199978 45.501602
11.929456 5.474103 45.846382
-5.895998 4.691674 67.236046
1.419265 -2.287876 63.950165
9.666450 6.026227 84.721947
-2.168431 9.010542 98.869987
-1.567984 9.438408 95.925270
12.057602 -6.986171 19.408342
-8.990483 -5.367886 35.536098
-8.835861 -4.764093 116.739395
-11.813601 2.427535 51.617405
-5.854445 -6.648696 37.913528
13.242544 5.378277 96.024551
12.924361 -7.853781 101.627068
14.643884 -3.441157 57.360394
-16.361809 0.204557 13.493436
-4.980174 -4.917659 47.753304
-8.434610 9.770258 100.475075
-4.446261 -13.551951 101.293922
8.360010 -6.499532 34.256649
-15.297521 -5.820585 50.984642
12.092722 2.090374 102.878319
-2.141840 -0.917985 72.164139
15.296519 4.406573 37.855568
-1.565409 -0.289734 63.353779
9.415296 -5.257808 9.832178
15.184770 -4.155826 52.843613
-11.373159 -8.780304 49.048641
10.845347 6.932045 94.818527
-12.160410 -10.968031 66.957611
-15.318201 -4.769421 92.260475
10.956579 3.717999 76.270485
17.256235 1.345763 35.292770
-0.618679 0.834204 75.307114
-10.398026 3.066256 54.137447
-8.706690 -7.805271 34.509304
-8.415082 1.679302 58.256721
7.107980 5.292595 51.707451
-13.943531 -8.589312 68.376900
-11.349965 -8.456498 115.447906
-5.008178 4.694635 74.047661
-14.132223 5.135419 30.708502
2.725730 8.156374 107.344788
-7.654356 -5.716326 41.059166
-11.428301 0.709142 48.137146
-10.917581 -10.200803 100.701385
15.063471 -2.144329 26.977865
-13.566055 -4.315017 53.283592
3.477705 3.440390 112.386284
15.293139 6.379133 35.019287
3.577207 -5.392798 62.796921
12.217925 5.961754 65.950264
14.033681 -0.718455 66.821762
15.430449 -4.044139 60.703121
-6.803829 -0.388804 30.446985
13.028151 -8.475428 61.824356
-10.475468 -14.189720 66.386086
-9.622965 6.352960 74.088943
-7.016941 -2.070472 7.843829
-0.311211 0.867428 75.590073
-14.255140 5.590030 25.389235
12.781517 5.753241 50.654736
-1.855068 10.923080 100.050476
-2.245074 -9.109395 87.748672
14.602836 -2.630850 96.091087
14.130221 -3.854763 9.325293
-14.164968 5.433994 36.396175
6.389564 5.793125 77.288445
-15.292866 -0.497094 86.784431
11.128202 5.706546 40.407112
15.069670 6.416998 29.718760
-12.557931 6.993784 29.306143
11.188911 -2.376758 14.258457
13.203444 -0.044951 65.907494
-11.713587 7.884254 22.503696
10.057729 6.610475 13.804736
3.928798 -4.271488 36.963760
5.881999 8.434520 89.629982
-1.364640 -1.394957 56.980404
15.189689 -3.222452 61.971703
13.895317 5.260792 24.002508
2.902411 -13.253833 101.810661
-3.106107 8.525774 103.433678
11.969683 -8.275712 109.044655
12.484662 -8.469976 68.416107
-4.274095 -7.056161 59.282127
11.034052 -4.012964 118.452698
-16.756828 -4.471539 29.532036
-12.096063 -12.926001 69.170654
-3.228735 -11.641030 78.989555
13.174171 -10.531953 61.213615
-2.481005 -2.051423 75.642036
4.287411 -13.191978 112.433594
-8.590664 3.254233 17.778406
-14.144552 -10.827079 71.514221
16.917238 -2.743042 65.605217
-14.642972 -1.264069 11.950221
10.699993 -7.460225 50.943035
13.038612 -4.564947 104.598488
-11.464451 -7.252343 104.693306
12.075939 -1.960239 109.417084
16.741774 -1.397140 47.365532
-14.765053 -2.650081 92.037880
3.673163 -13.601659 109.514305
-3.228512 -13.629327 105.171288
-16.178020 -6.011749 99.029152
-4.349695 1.773294 69.282829
10.841070 -8.587912 43.479351
14.804401 -3.672682 37.199051
12.485953 -9.731074 69.643250
-11.585037 1.651304 76.184662
-11.425272 -6.452165 102.743484
-9.096156 -5.012836 45.565304
12.658095 3.031223 18.722158
13.452590 4.914137 85.119537
9.673168 -1.795081 33.063560
0.378223 -0.625509 74.902664
-10.374581 8.659307 85.288048
11.114563 3.562471 99.814491
3.706335 -11.087596 65.616920
-12.506818 0.054646 103.397194
-7.028715 -12.718994 70.728088
4.238581 -4.029260 33.074734
-6.224688 -13.286105 105.535614
17.161444 -1.448081 63.177490
4.745028 -10.253683 58.770729
13.589688 -4.633017 47.914726
-7.023643 5.231724 31.948753
11.516585 -3.901922 7.529480
-6.645901 5.724609 36.196766
9.468913 4.718616 42.716690
7.254579 9.393259 89.168861
-11.200615 -11.594633 83.017021
-11.008085 -12.222258 90.489166
9.720922 -10.186883 61.223122
7.468178 3.704694 70.829720
5.627733 2.283644 50.217129
0.786090 8.176270 87.836304
-2.690351 -4.759404 51.916679
11.320533 2.126822 53.803635
-14.928607 0.208063 89.128929
-5.699185 2.122600 27.849747
-12.829008 -9.667244 94.226913
16.229122 -3.034323 53.146347
10.125059 6.571847 29.328493
-4.808030 -12.617059 97.846733
-0.639631 -7.708052 83.028572
-16.663353 3.535212 38.283443
15.461785 -3.038633 97.136307
16.458296 -2.655021 17.515066
7.571707 9.139333 91.620003
-14.248358 3.255126 52.304756
0.604987 -6.228527 69.993385
-7.686435 4.135262 69.001595
-9.389439 1.962301 61.447670
6.785381 -15.231082 68.217949
4.946826 5.313636 60.941456
8.417543 -4.460844 20.923916
-3.123746 -0.862809 35.474735
-11.135851 -4.715622 25.968840
14.686105 -2.846794 56.150833
3.170331 11.890337 100.656418
3.568187 -5.393033 49.200962
-14.433818 -6.123192 63.660351
-11.080576 6.606159 24.950319
-1.594151 -3.990761 69.296684
-3.560248 1.994491 46.883076
16.619614 -3.703545 14.757085
4.534701 -11.285998 82.181763
-17.091455 -1.340125 30.320164
11.006187 4.916649 85.305870
-18.714067 -1.831302 45.464256
-15.481662 -0.378947 55.963799
-15.452202 -6.262354 78.331352
-16.268959 -4.707829 71.547150
16.278685 2.724435 28.572968
14.267174 -6.024835 57.257687
6.540544 5.969911 42.631302
12.308291 -3.741231 100.870697
8.774320 4.029207 110.633911
16.007614 -6.282436 37.661407
7.534895 4.516069 30.602486
-3.931623 -9.903152 69.500534
1.854650 0.954365 81.370232
-16.422152 1.027244 82.072304
17.476213 -6.903223 83.781693
13.632850 5.399257 27.414169
-11.573689 8.225457 37.117825
12.727289 -8.176808 117.599716
10.634248 -3.328884 16.995611
-6.265127 3.374997 32.970688
10.117774 -5.397578 23.936682
8.750647 4.001334 110.009209
16.897331 -4.040486 20.488758
-6.179942 2.907986 57.722462
-11.945668 -11.928936 87.923683
-7.124626 1.786531 48.098732
9.438216 -13.945151 79.618896
16.396107 1.730036 10.748939
1.227914 -1.221819 55.689514
12.264216 -7.060789 112.320427
5.005664 1.688295 40.238972
8.603214 -1.769986 112.122772
13.282535 -2.539768 107.404480
-9.164513 -7.274257 47.422871
-16.051521 1.025435 34.389122
12.464381 -10.943024 73.139816
8.608436 -1.850975 9.865339
4.552667 1.539911 29.946308
-11.725312 2.277229 58.264126
12.906007 4.823695 11.096170
2.516636 -9.776274 72.429657
16.301344 -1.200969 25.157940
8.073019 -0.034723 23.368639
15.498509 -9.122071 59.546024
-14.461110 0.987600 88.303078
-9.474293 -8.870620 57.185143
-16.433981 -2.578004 90.196724
11.460742 8.222331 85.738968
13.854559 -3.514550 98.168434
6.946341 2.588428 21.352554
-13.261703 2.176274 84.016380
-14.454453 -5.408188 84.904877
15.695634 -9.403688 74.301743
12.200974 4.565918 59.483658
4.810429 3.086635 58.872616
-13.513436 -0.994598 97.260895
-1.592213 -9.047986 73.748650
-0.835516 8.649983 104.169968
-12.303729 -7.420143 36.447296
15.056698 -2.920687 22.123524
-3.631303 -11.140090 67.397194
-15.855305 6.649830 23.422583
-7.194961 -13.864711 84.590675
-11.508163 6.547427 90.616318
0.551857 -11.940509 70.633423
3.233778 -0.410694 37.470356
-8.120782 -7.619585 117.367378
-12.865111 -2.460615 21.782789
-14.130777 -7.449641 67.321159
14.221670 -5.180476 61.588497
-10.606158 7.406559 39.427750
-10.151647 -10.899115 97.603546
-3.699114 -1.666470 60.369759
-0.759730 0.408185 82.915680
-11.140601 6.868075 40.744884
-9.399916 -9.749109 46.127800
0.693382 -12.479040 95.394814
15.519941 0.583517 16.756294
-14.445551 -0.386142 21.208275
-15.397028 0.092799 10.703544
-3.160418 5.800358 85.343170
-7.131094 3.480375 22.168505
-8.656703 -11.508571 106.463356
11.841811 4.232093 24.508865
10.487910 -5.136964 10.662454
-10.774451 5.854131 17.299402
-10.872736 2.366675 14.276560
-1.641721 8.349755 99.392212
8.868645 -1.846357 25.520306
-17.327143 -0.783637 22.042788
0.647360 -8.989320 79.528053
10.591004 7.647241 36.484528
-4.242619 -0.092432 56.187416
3.752283 -13.376910 72.483307
-11.550328 2.771203 56.371342
1.797050 -3.921847 80.525360
-9.724822 3.123825 51.892525
1.439443 -13.552385 112.855240
9.661724 5.622861 13.684828
-2.737875 -7.527771 74.633919
5.323047 9.014335 101.174828
-2.697526 -1.936625 63.459194
10.968102 -4.558795 35.322952
-13.582458 -11.492514 82.058037
-13.795424 -4.516934 42.465874
5.696082 2.258818 42.786083
-7.082829 -11.931134 110.424210
-15.307463 -4.477289 39.641697
7.605058 5.547820 111.949699
-11.684434 0.953876 73.537834
14.835252 -5.716711 95.925850
9.630564 6.374536 87.108932
-13.914878 6.043208 35.367413
14.211484 5.996428 38.355648
5.120047 1.796303 72.585373
8.149375 4.146855 75.614891
10.207887 -8.556296 49.190685
14.574255 -6.865407 65.974976
14.654784 4.623503 47.587593
5.385340 3.557288 113.325684
11.314009 7.970340 90.438446
-10.396897 -4.695691 116.472885
1.398485 1.223816 70.054581
15.941273 -5.091448 71.000648
5.862936 -7.805151 64.441467
-13.006395 1.791651 105.610283
-8.330721 2.290133 20.162846
11.798041 -9.345112 72.330559
-10.136957 -4.697810 31.050610
7.939220 -1.670730 117.255272
-14.872094 -3.792606 40.266224
2.903391 -2.036918 56.393856
16.161184 -3.799428 13.077477
-9.726308 -10.186730 103.220169
-14.465561 -3.488199 13.027494
10.870509 7.361009 22.542908
-9.104131 -7.830741 117.044571
13.828877 -7.740297 80.623886
8.243114 0.853998 11.488621
-2.681151 2.865733 110.860191
10.001663 -4.909214 15.215998
16.332321 0.986637 80.276138
1.697882 -5.289364 49.663254
-15.240172 -1.078010 50.837337
-2.645576 0.341730 48.343632
14.222300 -3.306882 35.247421
-14.400534 5.724200 24.302206
9.223580 10.084233 103.677048
8.872592 4.603128 74.745178
0.085173 -13.246972 100.610817
1.171672 10.048218 94.641724
9.191570 2.677759 110.264755
-0.561387 -3.118180 77.641891
-17.205534 -0.194851 81.847107
2.695029 -7.516305 68.054184
-11.809152 -5.735401 108.478493
-14.683941 -5.148330 74.583252
15.978736 -1.297429 39.882885
-16.855782 -8.486809 74.305069
14.746926 0.278306 59.712914
8.674648 -5.587399 46.212345
9.129560 10.200699 96.735680
16.985723 0.086497 31.955011
-13.748466 -3.926044 28.942646
-4.065452 -11.356553 68.461540
-16.144602 3.835921 11.593901
-11.476936 4.744728 44.313923
-5.544670 1.535862 45.774723
-2.192878 -2.211974 69.516281
7.504237 -11.606475 64.850365
-12.556448 -0.758994 109.539337
16.384281 -0.947974 15.450613
15.234451 -6.359774 52.485443
1.776991 -7.496349 73.013359
10.930675 -12.565744 64.407898
11.642294 -9.096025 55.118797
1.936987 -1.660679 50.996666
-14.195374 -7.723365 61.522644
11.869436 -0.294477 106.475578
-1.238806 3.386605 68.473808
9.586117 7.436489 38.249493
-9.056033 -1.574176 22.818007
9.973848 3.329863 20.386950
-7.780210 -11.169852 84.873444
11.147925 -12.151405 69.774132
6.923016 -10.087532 58.800411
-3.413109 -11.675728 96.364395
-0.032907 -3.699652 85.099266
14.960141 0.220619 50.728077
-12.980042 2.640811 98.156570
13.286617 -4.132472 16.913967
0.974673 1.342273 85.194725
-3.408371 -10.515882 70.742149
-7.443399 -1.952841 37.932594
-18.009830 -4.824118 65.630142
5.131483 1.667971 60.175018
-12.491595 -8.700909 103.212570
-6.340394 10.821766 98.358345
-10.691454 8.927031 33.180710
-5.281231 -15.075315 66.249428
6.247425 -0.844033 39.376057
-15.505951 -3.998657 37.280872
11.461962 3.563740 49.275192
11.532193 -0.277500 109.456421
9.920435 3.831559 69.944550
-5.322230 -11.114186 90.081993
5.896834 -2.338722 28.228743
13.926229 -7.804302 61.793518
-3.758257 -7.742092 51.471722
-14.192266 3.114044 84.784370
5.155372 3.837290 113.801353
-8.127208 5.773388 33.086987
15.450656 -3.175253 16.271080
-13.781937 1.428876 38.750633
-11.871041 -5.134273 36.310951
-12.336562 1.814644 83.841011
-15.484508 -1.802387 16.959845
3.315985 5.619377 108.335022
-8.455697 5.230968 42.696152
-15.038134 -3.563261 85.812653
-5.602844 -1.116979 13.764424
11.202259 3.997632 80.985855
-13.053128 1.642256 77.793312
-14.665101 -3.344644 93.466553
-1.736947 5.194969 67.836449
7.182023 3.345643 58.907505
2.196486 4.163980 112.527237
1.882492 0.192274 77.533882
12.508533 -11.599075 76.338661
9.587817 7.759264 85.758186
-7.973743 -3.967144 30.124605
-1.999083 0.062341 70.229820
-4.433473 3.699684 114.102409
15.343760 -2.808654 45.383453
-8.180608 -1.114635 18.637053
13.750715 4.754101 62.608479
14.695337 5.179962 13.825558
-1.284858 6.143153 109.894844
5.237625 8.597226 94.591080
-1.787574 8.867009 90.745857
7.791945 -1.744848 25.777739
-18.130142 -6.491597 81.840057
1.545305 -1.551281 58.553085
7.228250 9.426620 89.747017
12.201651 -2.164365 43.724117
-2.205630 -1.666586 55.611870
-15.058071 -3.078768 56.360638
6.429040 -13.259577 113.389267
14.520846 -6.872147 101.959755
11.969497 -10.148036 91.236618
-16.125765 -6.151725 66.317741
-10.657181 -12.091254 71.871490
-9.279334 -10.710425 109.161850
-0.382663 -3.220454 58.344891
-6.449274 -13.917043 88.569839
-3.903025 -11.744028 78.052666
4.369268 -10.355795 116.108795
-2.905525 -13.749269 102.539497
17.509859 3.032789 12.607714
-13.188444 -9.484482 51.894070
8.774176 6.453464 98.470825
5.994320 -13.107146 111.142616
14.291671 0.510935 84.660843
7.057148 8.226743 47.822296
8.436872 8.465361 89.907486
5.957805 9.609646 105.339935
-5.514006 -10.518652 70.636497
12.555200 1.385725 76.440140
2.549036 8.329877 90.285393
14.945923 -0.355696 18.130339
-9.657893 3.055176 51.465488
14.046450 -2.890845 99.976738
5.575782 0.685654 59.112556
-3.592037 -5.649981 54.396400
-10.756585 5.005622 80.366211
1.916517 -6.521181 70.332565
-6.375021 3.144208 117.353363
11.597897 -9.137983 45.004589
-5.024790 -12.784247 103.349693
14.835351 -6.196986 59.475254
-9.181920 2.028368 58.382877
2.518645 9.314575 90.841125
-12.828773 -5.044459 23.304396
16.104607 0.859085 33.097466
-11.464060 -3.782613 107.225624
5.397059 -8.238248 60.328190
14.053089 -10.757813 72.048965
13.703123 1.853190 17.109526
4.852040 2.063818 67.047661
-11.955553 -9.649463 85.239243
-9.610886 -10.045842 106.523933
4.134011 4.763252 41.331841
4.300006 2.184433 22.492405
-0.605152 -4.619627 73.074936
1.926775 9.368444 101.900490
2.919266 -0.882270 49.252792
-2.214734 2.269373 55.155968
-16.422459 -6.206892 57.943096
-16.634056 -2.685553 40.693615
10.312973 5.975693 77.708389
-1.784216 6.425508 87.433571
17.332573 0.490549 33.769257
-9.627679 2.027647 54.390934
-4.657391 -1.067056 18.558731
-0.674579 -2.752667 73.616699
-11.897652 -9.871737 90.833511
-6.008527 2.423273 50.732540
8.915428 -6.234614 49.955933
-2.812845 7.453005 88.038193
-11.785042 0.710962 115.601585
12.772050 -11.168397 95.816605
11.660851 -3.535059 29.862368
-11.668348 -8.579210 95.550926
-11.165085 3.253989 18.611536
1.814724 2.201087 67.242996
-17.357212 -4.765079 75.158592
-12.989110 -9.362609 72.312340
-15.961595 4.907797 27.164986
-8.878456 2.607624 119.330185
-9.248136 -5.166144 19.246820
-5.812834 6.320468 32.944981
-14.403942 -4.778138 58.607800
11.843550 -10.909267 87.860031
18.424789 0.323338 30.989828
16.814371 -8.056699 52.568024
-2.212497 9.205894 87.627831
16.161722 -5.978761 93.429337
-8.998847 -11.803797 89.782150
12.947827 -2.681817 45.285149
-9.265665 -11.546221 109.801346
-0.975560 -2.054485 61.257549
-7.854330 -0.543944 117.232079
12.362738 -11.309725 83.478882
-12.625478 3.714601 17.611403
1.958290 -3.699045 64.603348
8.063477 -12.677800 75.880936
0.638646 -13.969152 112.819496
12.882486 -2.630481 29.530785
12.448236 1.315944 55.946575
-12.502266 -4.194664 28.747856
12.731314 2.281342 104.428795
-8.633746 -6.984635 33.502918
8.039328 3.109031 113.923874
3.403416 6.353693 113.853645
-14.480975 0.352281 85.187317
3.109316 4.223505 116.314545
-8.003646 -7.531726 49.173733
1.326574 -0.310373 62.977505
14.235571 -1.209095 106.154518
-3.609577 -5.031840 66.759621
-0.998615 -7.253438 83.570328
12.491479 -1.477962 56.282406
-13.612967 -5.224943 46.041386
-4.740914 -9.650121 71.653404
-15.321896 -1.146162 75.106606
-2.532423 -11.188535 91.437660
2.287490 7.078176 105.161499
-9.005329 -1.895634 15.177332
17.740511 0.751759 41.111324
-9.222878 4.778620 9.946044
15.767443 -6.149204 79.536667
15.734214 -1.947804 43.018948
3.236333 -1.243834 78.400162
-9.257400 -10.602690 101.120483
1.182233 -6.816800 69.649132
6.975554 -4.231334 39.569092
14.025991 -4.800280 11.890607
1.064051 -4.252872 74.444527
13.485752 1.856255 86.868561
5.835341 4.229378 36.436634
16.442411 -4.878641 38.974064
6.401807 -9.800105 76.915260
15.117501 -2.533270 87.455383
12.930332 -3.435856 58.779758
-10.797129 6.306777 28.919466
-7.289526 -11.154034 108.761902
-10.101451 -7.892566 111.065605
-18.474091 -5.774881 66.718857
-12.785567 -3.265495 108.781586
17.446365 -2.064966 52.815781
2.886657 -1.500127 45.309566
-10.908632 -4.818904 36.412502
12.423783 -4.503914 8.322552
13.763377 0.569646 80.540520
-8.878146 -13.835680 76.885651
3.841487 -11.398609 75.397903
4.164237 5.857345 70.173798
1.001000 -2.933692 62.823936
12.208599 -5.778950 53.370815
-11.449950 -6.294063 40.861191
11.696945 -10.881178 86.070450
-8.365550 1.001945 114.935814
14.454933 2.279941 92.077507
-14.986607 -1.866944 41.699654
10.284551 -5.393172 19.619175
-9.528627 6.389895 43.780365
-4.249085 11.164182 92.495842
9.750921 2.532010 17.898006
15.160099 -5.270421 26.902767
12.967860 -3.067465 56.682835
9.410265 5.734236 96.693649
-5.117671 -9.801893 94.217819
-3.570741 -1.922704 34.664783
-7.077825 -4.061243 41.098881
-10.968784 -2.704367 115.206062
-5.137251 -12.740654 97.625389
-4.819030 -2.189046 59.206211
-12.237562 1.826511 53.792114
1.496204 0.237408 45.934052
12.212939 7.015306 92.653618
1.595142 -11.282891 87.494225
4.357802 8.456021 93.502068
8.302666 -12.484790 97.161957
-11.876886 4.150022 76.024925
-13.742800 -3.852921 68.585876
1.995499 3.547195 79.464447
-8.905195 -0.929128 115.556381
11.662349 3.842721 74.700935
2.000027 4.081221 76.517052
-8.878654 3.677384 52.591110
-16.677641 -6.145712 57.083218
3.665686 7.919394 89.497520
14.056971 -4.701079 22.250542
5.023677 -11.855951 69.201538
-4.273098 7.049849 45.460789
1.572622 -11.594558 87.851372
-0.797995 9.400002 103.463295
15.683343 -3.621268 73.530090
12.666351 8.324126 31.715265
-15.925042 0.846052 14.461160
-15.123541 -3.894423 96.297775
-15.314918 -9.505639 83.074165
-1.307238 2.606815 70.328087
-4.017874 -12.091035 85.703888
-8.807615 6.464518 28.763906
6.146234 -10.128689 58.501743
-7.909620 2.602173 70.287666
1.621012 8.026969 88.487099
-17.851240 1.661795 49.039665
-3.088202 -10.900653 92.234009
11.699649 6.563649 40.142624
14.352088 2.353708 67.872925
-9.687366 5.719562 79.609055
9.553564 -11.577499 58.224075
-1.849286 5.417433 74.407272
9.108747 -3.864333 28.187080
6.676220 2.658566 49.476723
5.599065 -1.767141 23.420298
-8.889073 -11.697680 69.270660
16.714392 -9.158911 74.723320
10.145460 -5.695797 5.212319
-16.168686 1.967805 33.421688
-13.933612 3.590686 54.154518
7.901376 -11.179793 73.765556
11.123012 3.430855 17.492514
-14.565106 -8.633871 54.031384
-11.468571 2.050810 96.672020
12.887080 -0.850524 65.975250
-3.474341 -10.494168 83.615280
5.515710 9.255994 97.646782
15.056284 -4.196724 92.904526
9.421478 -1.960226 23.027472
17.296312 -2.100248 72.902702
-13.450328 -3.221828 22.156961
2.406135 -7.701989 61.165703
-14.210800 -1.578628 91.979271
-8.869990 -9.924112 52.076832
-4.550917 1.668594 41.103970
15.056361 2.025562 94.629601
-16.186230 -5.339780 70.670990
14.942749 -7.685563 85.929192
0.123038 -5.944252 84.480064
3.379588 10.419768 95.925262
-11.848827 6.113406 28.673336
11.260198 -6.654138 41.494034
-11.186826 4.595464 13.232454
14.740985 -5.362370 45.402416
-5.888603 6.303874 79.902184
13.946211 -5.658122 88.102097
12.132483 -6.142967 61.075508
12.174852 -10.338746 95.448059
-13.340076 -6.120153 96.171059
-2.316590 -13.300350 112.414177
7.297927 -5.010563 34.183796
6.769869 -10.996470 115.830872
5.948405 -2.051124 30.075930
13.624880 -3.275596 72.665886
-12.501733 -6.730742 109.086975
-12.692428 6.783232 97.380699
-5.816528 0.802281 33.034752
13.104265 3.154210 97.156021
-2.323289 -5.200187 64.053177
-9.740141 5.509133 86.373604
14.028614 -7.172558 63.646061
1.000687 -3.549954 66.478500
12.383926 -3.527198 30.203367
-18.264738 -0.039779 51.254356
-11.326611 -4.804403 106.058655
13.576899 -3.673239 16.469078
11.962585 -13.398493 81.201370
8.897606 -12.179964 81.005844
-0.271552 3.707642 111.867447
14.112716 -5.695926 80.770439
-4.739328 3.088609 113.871727
13.740788 -3.855525 11.435210
-5.952618 -15.894618 77.402069
-1.713592 9.909778 98.661133
3.314025 1.417524 51.158836
-2.614799 -5.714068 69.081665
-2.932870 -5.701665 48.373356
9.482568 4.654980 49.805424
2.733590 10.041285 95.637329
14.063488 4.146982 68.946785
-3.339575 -11.386606 74.804878
-6.021873 3.435567 74.528008
-3.974249 4.148919 62.879753
-10.924308 0.191338 106.705093
-3.297283 10.460868 91.394997
3.737290 4.136550 31.221191
6.831242 -11.811142 112.202065
5.389635 4.372041 52.785286
4.126904 3.135532 78.801132
-7.688662 -11.431630 75.564842
-8.492227 -10.171284 41.277905
7.626907 9.653877 98.840218
-6.688384 6.532356 33.956055
-14.658880 -3.479685 105.360542
-16.447405 0.664654 56.558151
11.620569 -0.013110 101.704079
-8.627544 1.055915 56.511494
-8.497900 4.229031 29.482239
9.555767 -2.343518 31.443590
-13.906092 -2.290563 28.783155
-7.409698 2.664543 58.940346
0.980570 -4.898781 57.343700
15.939565 -1.600566 17.164639
10.236393 -5.725861 39.290878
-15.787490 -3.883023 20.491423
-11.373150 5.865150 99.169289
8.587300 -13.396325 86.097885
15.694736 5.321670 96.537010
6.419872 -3.984391 39.609673
-3.649852 -9.957569 67.636436
-10.563149 0.479987 53.606503
9.664991 8.326792 88.807915
0.457433 -2.571748 54.725178
1.021662 -2.114027 85.108414
14.732629 -3.642863 27.381290
9.806020 -6.392627 38.145374
-2.080483 -7.998821 65.948799
10.227826 -8.245241 53.899986
-7.172261 -12.490768 73.324356
-2.123709 -8.750208 76.459999
1.394332 -8.843022 82.064400
-8.816942 6.339438 16.304909
12.436803 1.970927 70.801331
-15.951100 -0.772349 59.977837
-7.164959 10.287043 97.027374
-2.410658 2.873713 78.818825
-7.781680 -5.987150 39.660866
-7.595910 -8.462921 114.181091
-5.513894 5.062267 113.742126
1.692128 -1.075940 62.627480
10.097265 -11.623564 46.252663
12.777985 6.113572 35.888405
-5.617226 -12.766988 97.320198
-12.094944 3.335335 52.248772
-7.777921 -3.196840 27.393793
2.014141 -7.921874 70.316315
3.203093 2.129450 76.091858
13.359797 -4.257962 28.709322
-3.302785 -0.043854 52.775425
-0.071776 8.526677 86.520035
0.903057 0.626509 64.932350
-2.082882 -10.842240 82.965637
-0.569479 -6.201988 84.868805
8.769018 -6.748160 53.307255
16.895107 -0.608170 81.051483
5.435914 7.021811 84.161034
-4.409060 1.350090 49.805923
-6.818407 -4.516765 44.142658
-8.921820 -11.118686 85.630875
7.266219 -13.613721 114.250725
17.148581 5.028115 20.338211
-13.844960 -4.572679 32.836475
-14.267014 -7.582304 42.666813
-14.197710 -6.515792 23.483934
6.419897 -9.629158 51.848248
-9.720996 8.342780 84.823372
-15.013133 -6.721589 90.655640
13.073967 -8.404811 69.948494
-11.369825 5.839578 24.715687
4.654815 3.637684 82.361092
-11.057871 -0.566190 58.639362
-10.866278 -11.820045 104.518753
6.255157 -7.259068 36.294975
-7.642628 8.370693 92.273895
7.173392 -10.700513 108.541428
14.590302 1.431284 91.725357
-9.024150 5.577966 28.920336
12.651331 -10.756970 56.667515
14.490297 -6.307371 73.905594
-2.078811 11.549739 95.095657
3.996094 -8.814759 64.238297
-5.639952 2.892611 48.536713
5.185090 -0.955344 23.996246
9.465044 4.476378 17.099688
15.299209 -5.671423 46.133865
10.674482 6.455086 54.270321
-15.279447 -0.935892 10.640334
14.777809 -5.189275 100.219635
-3.338013 -5.696309 64.764122
-16.226213 -7.321360 50.807869
-7.414881 5.125826 70.509735
-14.523426 2.628100 61.845947
4.427395 9.187237 90.780251
8.641079 -12.299896 82.971786
7.618598 1.404846 18.852543
-14.478414 -10.713472 82.559654
-6.915694 -12.683638 83.344147
6.990160 -8.938947 50.316135
11.113141 5.732970 36.503834
-0.453119 -6.454112 84.334496
-14.901342 0.956724 84.158272
-3.233036 0.491413 60.752445
-9.341999 6.307002 70.862106
9.406838 -10.587513 79.348083
1.753252 0.036185 66.514198
11.007794 -11.910141 61.211380
13.809024 -11.133965 86.054359
-13.904415 0.924748 62.396584
0.899782 10.736262 99.709503
-13.400472 3.847411 87.034096
10.603354 -1.290040 114.037865
12.378591 -10.890044 76.509834
-15.050478 -4.330393 45.199417
7.585679 3.014022 109.582550
-14.518799 -4.869327 56.829285
14.898832 2.220346 84.294762
-15.012512 -1.802305 37.473335
4.607164 2.394203 40.554462
12.223205 4.642371 16.731407
2.010139 9.002202 99.268860
1.925211 -12.982809 114.341949
5.545347 3.547273 60.350460
14.487064 -2.528323 107.522545
13.872887 -6.421446 11.877421
8.603280 3.642277 108.929344
-17.259148 5.253641 33.694023
-8.031881 0.509074 116.623215
14.819788 -1.516678 98.553406
8.349174 -1.417327 21.106340
13.948689 -13.663791 72.404594
-9.798140 -10.103620 59.108665
10.082008 -10.658876 107.177521
-2.372878 -7.165037 56.202076
-13.526821 -12.783022 66.956360
-14.852729 -1.722302 23.934664
15.071738 -1.596428 103.580200
4.388689 3.136042 70.142838
-3.224810 -8.735642 67.346123
-18.169491 5.179298 27.620422
4.722909 3.399465 81.688324
3.004487 -2.735209 78.222809
-1.267160 9.559676 95.803932
3.664664 -12.204949 98.814331
-6.271420 -12.635591 93.279579
-13.807418 4.801698 83.738205
-4.830178 -1.544630 44.044197
11.340211 1.356950 74.464668
-3.830736 -5.186671 53.972897
9.287536 -9.440318 93.043617
4.094568 -5.917217 65.729546
5.404512 4.286186 34.832249
-7.750293 4.912577 26.304464
-15.889660 -3.793572 84.114914
4.525522 5.128446 106.368355
16.800920 -0.410580 40.037331
11.215429 -9.917882 58.453941
-6.949829 -12.343391 91.672256
-1.071421 8.592808 104.645927
16.332664 -0.015124 28.877081
-13.852214 -11.831932 60.920940
-0.839790 1.735294 86.917458
16.617382 -0.624032 74.206505
15.716863 -2.892813 51.249462
-12.787560 2.306797 45.159100
0.320539 8.854163 107.697792
-2.355740 4.642705 82.724342
-2.689222 -15.259955 104.547501
6.409161 -11.621576 94.052933
-11.976477 9.324719 89.369057
11.803514 -7.306819 33.554909
8.552888 9.838321 96.738411
1.495248 8.942084 98.465546
15.327323 -0.067424 83.413208
13.564295 1.012208 103.406517
-7.313762 7.878072 85.839836
-1.050742 3.741456 115.096596
-15.369823 -3.763458 58.482788
0.643586 8.435638 102.451164
3.022607 -2.978347 64.200180
5.598909 -11.565205 61.762108
-3.856713 -10.699376 109.089920
-13.280479 -10.285663 87.885010
8.323437 -3.094666 17.342226
14.945784 3.906451 25.437645
-2.289607 -11.052908 87.249222
10.333735 -9.044344 41.816425
-3.702779 3.272593 65.918037
0.477190 3.425653 73.365814
14.699723 -8.103655 89.160919
0.337183 8.825062 88.594437
-13.444118 -5.012933 39.273602
13.507173 -5.853481 68.956360
3.905913 -12.020695 77.714699
-9.798167 -2.408714 117.274002
2.904358 -3.511930 70.759239
-0.763757 -3.244786 62.296440
-11.082653 -11.196406 65.526871
15.608197 0.278562 61.674965
17.450827 -3.777474 27.268391
-13.608680 2.550554 16.636547
4.604595 -10.714943 68.374916
-14.780296 6.499921 28.083109
4.514908 8.328488 104.933525
-0.494615 -6.189693 78.692917
3.749390 8.440598 100.282013
-10.411870 1.460823 59.330170
8.500349 3.940628 50.650475
-1.526391 -2.167193 56.115074
15.893871 -6.235649 95.292229
2.970568 -4.213092 65.848778
-12.800865 -0.310540 102.269356
11.219039 7.252429 95.052818
-12.696345 -2.918137 28.056097
14.169432 -3.937831 76.467567
1.905323 3.991548 43.895351
6.086349 1.860816 12.587209
12.948509 -5.469326 101.377304
13.366433 -3.188226 62.534805
13.492369 3.115766 39.578777
10.950294 -11.326814 52.647602
-14.652023 -1.865821 15.217174
10.632622 6.824042 31.969521
-11.751008 -5.182158 113.654388
-2.876180 -6.927304 82.122162
-7.652851 6.163343 78.889359
-7.472465 -14.435360 82.807373
-13.332778 -3.675200 7.826907
-0.423785 -13.335233 107.450668
10.943320 9.100055 39.303474
8.224710 -2.311784 23.001839
13.726942 3.044058 96.210968
-3.298788 -6.134087 53.331333
8.445898 10.566289 88.655510
13.339636 4.796420 99.460426
16.958696 -3.345834 88.259995
7.722445 -0.060561 67.378273
-5.213979 4.662043 59.229919
15.785920 -0.371665 33.561577
10.989783 4.927688 28.163763
0.796577 -3.165028 78.200104
-6.770080 -14.531236 66.946297
-8.317105 -14.461434 82.150337
-11.998023 5.229448 25.063932
-0.443707 -0.733711 74.237556
-15.019969 1.663510 37.339252
7.404627 2.260274 20.230909
-9.054554 8.613826 38.122471
-0.140394 2.945667 84.345955
-15.003994 -4.336438 76.099670
-3.206122 4.186159 114.822327
-4.338973 -1.045316 41.671021
13.577816 -7.930842 53.168388
13.487326 3.398784 94.744019
-15.745367 -2.382528 63.593117
-18.022013 1.981238 41.836006
2.768226 8.947124 88.684288
7.666979 -11.905449 83.012314
-2.708295 -4.949131 50.716370
-12.047232 -7.747941 39.497585
13.203776 -10.668623 86.171921
14.249089 -3.192243 56.974636
-14.900169 0.727039 26.216858
-12.626609 -1.585060 73.058075
-16.044807 -5.338292 89.249977
6.682241 3.864117 48.375946
13.067857 5.686633 86.479271
6.275109 -14.754407 82.649742
-9.579801 -11.357378 69.501495
-9.105699 4.668256 82.886322
1.525010 -5.484680 86.123314
4.489174 -12.762533 94.248871
1.996738 9.095313 93.902946
-15.446886 -8.914100 90.158112
4.396595 8.230507 102.134178
-3.022590 -5.090172 47.010441
13.038943 -12.989624 69.320518
10.168798 -9.607831 89.511902
-2.808960 11.863696 93.917763
-12.530945 4.068599 54.642147
6.928506 4.930565 49.181213
-0.249044 -3.205213 49.855221
-15.874390 -3.654092 14.144045
17.080311 0.742327 25.704659
-15.240050 -1.533591 69.951294
-14.098074 -5.627152 89.058052
15.643483 -2.972438 68.208572
-0.010644 -6.272860 69.926140
-13.688639 3.769204 70.588936
1.360551 -5.230554 50.534912
-16.239660 0.960411 32.578686
-3.262636 2.337019 44.859001
14.934131 2.052043 82.055321
13.214644 -5.380586 11.385804
-1.625412 -14.027175 103.093651
17.337173 3.515388 39.081200
-6.583225 6.370814 12.233169
0.137086 11.083170 88.465813
-6.108605 -0.634118 52.624870
11.347917 -10.631435 99.319122
0.782135 -5.547286 74.902573
-14.437830 -3.937297 22.229332
-6.261093 -3.191329 37.136200
8.954372 4.721593 113.756783
5.022166 -10.655439 68.769638
7.317596 -13.111832 107.660744
17.665688 2.115573 50.601784
11.926138 5.666714 78.458183
3.384630 -4.316083 55.096169
-12.588333 2.452238 60.418484
6.973972 6.205317 78.218887
14.180593 -1.220908 81.180443
-1.839995 6.740386 106.218468
-4.684226 -9.668149 62.442165
14.081812 1.592008 90.038475
-13.492850 1.925631 49.515675
13.010887 -4.542113 14.727757
8.282710 4.001586 18.458700
11.257612 -1.910117 112.682755
5.914539 -8.889658 75.483391
7.159457 -14.188312 108.104462
11.272796 8.008458 93.214554
-14.926925 -7.174356 94.347878
14.088099 0.885563 11.010575
-0.755871 -0.183261 84.906921
-5.005098 -13.609472 103.453255
-1.753445 -11.188358 104.880348
12.512782 -7.296932 98.911552
-7.853727 4.988285 116.256752
6.249339 -0.257944 49.040123
1.260466 -3.813723 64.877342
9.457823 -10.429278 95.057846
-13.586496 -0.741026 105.201584
6.719998 5.826724 107.239349
7.492613 -2.398863 16.029610
2.207544 -14.560229 110.312485
-9.182935 -5.603391 11.017007
13.866858 -0.728537 40.649487
-0.004884 -3.042218 66.136703
5.618798 -6.201998 35.809742
8.332268 -7.447095 47.566849
-12.584650 -5.066002 43.774719
15.682847 -5.230597 55.811363
-11.405391 -10.851649 97.001907
4.140118 8.188385 98.387573
-5.470987 -1.032730 26.929909
9.464754 -0.883235 23.285980
-0.601398 -2.724914 79.877464
-8.743851 -13.024390 79.449059
11.193725 4.785309 13.850349
14.380527 -4.445932 13.031224
-18.008102 -5.623544 51.970936
-10.229390 -1.869085 19.735657
17.106283 2.671527 38.089622
13.265171 -10.091784 60.083832
2.974657 1.888742 48.325527
-8.472038 1.127088 113.830444
4.279494 4.139998 76.700546
-14.708925 -0.157927 66.271690
-10.680820 8.043697 80.384254
-15.204628 -0.202406 96.153069
14.753951 -6.876649 99.185585
13.535839 -0.850850 82.864655
16.626787 -0.313496 18.271317
-15.236957 -6.761037 79.061760
1.863496 3.603919 114.109108
14.288487 3.072606 21.857038
-16.445705 -4.237003 68.906715
-14.297220 2.803071 11.649585
-14.970451 2.518881 86.266365
-13.625874 -0.694078 50.324188
14.377159 -4.442612 59.147316
9.208575 4.999004 105.929985
10.289952 -6.260964 117.319977
7.825624 10.346316 87.031464
6.356127 -12.986290 68.048721
15.120595 6.666176 30.360413
0.165496 3.699139 82.620132
-9.715874 4.456833 10.752005
-5.391366 10.582282 92.838219
-11.953365 -1.133322 46.202900
2.491788 -2.358178 50.326748
12.043839 -8.749417 101.588036
16.527567 -1.668499 58.494476
9.949683 4.712694 66.448601
11.938560 6.990843 33.160774
6.808424 6.760036 106.376404
2.449084 -11.426602 116.129288
7.117753 -9.425754 61.442722
8.411155 6.139513 14.629554
10.880890 4.209727 77.899307
7.723188 9.259675 93.309830
9.893776 -3.804635 36.104145
7.404960 -11.584243 98.878006
-14.023065 -7.836878 98.229881
8.940606 2.025305 116.625748
-14.303658 -2.807960 49.127083
-15.304398 -5.831094 50.970127
15.545376 5.012716 25.310072
-7.672904 -9.932592 64.242226
-3.094914 -1.664755 41.164913
-1.069109 -8.560471 62.000641
-5.839737 -0.798796 35.192795
-0.189515 6.736459 107.212982
9.267551 -10.516926 114.838760
7.012686 12.296499 93.374039
12.489161 7.350910 95.435150
15.024946 -10.212097 63.179466
12.846203 -6.046907 50.525230
9.480704 6.479707 72.601334
-11.767468 3.714799 77.506287
-17.587597 1.489404 13.606661
8.970090 5.093141 81.072952
-10.667512 -3.388707 20.119303
-4.936067 -11.802044 94.844780
-14.267405 4.942541 86.100815
-9.897748 4.700991 29.422462
13.116103 -10.044985 85.037659
16.439419 -4.458281 56.399578
-7.472478 0.420664 11.189870
10.257243 -8.286408 57.240425
-7.011550 8.238670 77.723686
6.435873 -12.292684 79.052849
-12.961235 -4.582351 58.200642
-5.729032 5.679978 36.764755
10.698934 -6.783963 115.579910
14.167878 -9.091846 90.729988
-3.540995 4.684998 83.242935
18.409914 -2.850953 59.671719
5.027593 -0.955921 34.978523
-3.194291 0.424607 43.624744
-8.655569 9.457817 94.325645
-10.125842 -14.026718 66.302780
-1.444656 -1.844055 77.468643
14.330799 0.577189 10.278336
-12.783639 6.615769 90.578903
-1.039913 -1.516001 47.327747
-15.327315 -3.131183 37.787560
7.754258 2.501477 58.144325
-14.105772 -5.217124 102.232841
0.330435 -14.242510 95.750374
-4.041797 8.269114 102.334236
-14.938882 -5.521723 76.541008
10.090323 -7.143048 116.571510
13.269818 3.713738 93.102676
13.757021 -8.566770 55.494999
12.495252 -8.713696 73.209320
10.814080 -11.485354 111.411934
-19.183233 -0.131860 31.004347
6.022669 -11.414964 112.990562
3.800901 -3.525288 49.892494
-7.500923 -11.786934 114.188080
15.792321 -2.318881 38.433372
15.658313 -8.022984 76.117561
-3.744797 -7.910357 61.314697
0.901194 -12.196775 90.438538
-11.156747 -0.046743 72.326485
3.894841 2.947057 35.008919
10.003305 7.351022 34.461990
11.455531 7.522710 90.568253
6.487787 7.252495 37.435810
-16.880905 -1.653700 58.927296
-13.274049 2.596110 61.053413
16.254333 -10.330944 60.306515
9.875360 4.550059 14.922908
2.536524 -5.589969 77.970703
-15.073680 -6.408507 43.900715
-8.009016 -9.476475 59.437576
15.191385 -5.116175 73.426796
3.408113 5.525782 79.282707
7.981753 -10.859137 102.939171
7.021385 1.225045 26.691334
12.680605 -1.917069 60.209362
8.618570 -4.530511 20.743530
0.157167 -5.728179 58.144386
-11.556690 3.338957 105.318611
2.168663 0.387475 80.487595
-13.389926 1.323527 13.871825
17.147898 2.083293 21.510557
-13.682135 1.853939 63.461121
7.704760 2.891124 10.926980
11.564361 1.952978 49.131813
15.310777 0.901654 67.551300
-17.320814 -0.629016 26.160458
-15.741230 0.085104 22.300056
0.938746 -1.002309 84.353325
-8.262835 3.960655 36.296993
-8.773415 -1.302066 19.173748
-16.904404 -2.356896 86.361496
2.617299 8.629298 93.340157
10.992137 4.055874 65.801277
-15.078052 -0.070730 98.641197
16.701702 -7.765116 87.357239
15.494493 -7.526760 48.818474
11.956470 5.064830 102.688866
9.125810 3.033948 21.951044
12.423643 -6.283433 35.649925
-9.520979 4.108485 51.671043
11.875430 8.680529 37.304585
-16.425764 5.764834 34.750427
-6.281285 -8.268213 59.988091
9.326955 -12.802749 68.339539
-4.960699 -12.696845 109.019249
-14.200774 -4.027314 48.015869
-12.031059 -11.256499 105.858765
11.864874 -7.650458 65.019417
-2.014364 -5.279523 68.740089
9.326511 7.710360 101.996269
-4.213737 -14.115402 108.781326
-9.015579 6.086504 26.592981
-7.757205 3.681124 39.512756
4.946307 -10.650514 69.658066
4.382208 -14.282688 100.710762
-11.660454 -8.869816 102.982971
-10.727726 -12.376537 107.455254
-1.675881 11.163209 99.108826
1.806578 -2.943594 40.594826
4.975043 2.202548 32.891850
-5.061767 4.627452 71.590607
11.412545 3.628820 108.431503
-4.038641 6.880373 44.934887
10.836270 -3.017066 110.042923
15.208817 0.613961 22.122477
14.555261 4.296223 44.566742
-14.659208 -2.666806 46.813900
2.723358 -6.699286 84.068672
1.304868 6.718204 85.400421
1.788900 5.459512 109.937332
-0.962492 0.549866 70.575081
-17.812340 -2.928467 94.181763
13.419968 -10.874089 53.756073
1.262381 -8.422414 80.775223
-7.738873 0.655928 23.057283
-4.976130 -11.407455 61.987396
-5.949207 4.398933 24.241259
12.172188 -4.972930 11.794439
0.296347 -13.888269 108.606598
-12.601841 -4.907049 32.359589
14.160887 -11.081137 82.530495
6.694221 10.495588 93.425934
14.749493 2.912714 11.505191
-11.195400 2.517390 60.975105
11.281382 4.090636 99.830223
5.497690 11.257731 94.937355
-5.675989 -2.495415 36.779224
-8.671307 -11.220094 66.730530
4.341439 8.949039 84.510895
14.085278 -9.047235 77.905304
13.416539 -7.042385 35.503597
-1.502487 11.632113 94.801094
-6.802652 2.788332 55.737915
5.750805 -7.384609 47.650810
8.311316 5.083644 86.907875
13.770915 -4.228262 101.150360
-12.362214 -7.666369 119.020973
-3.467900 -10.865405 84.842964
3.979905 -6.090200 56.629627
-14.926591 0.994891 93.929138
-10.944154 6.000949 46.413177
-10.840122 -9.655787 45.069698
-10.578058 -7.399027 18.468161
-9.459157 -9.412024 101.827965
-11.788047 5.461473 19.378233
4.324134 -12.269125 114.791649
-3.444707 -0.350458 71.058220
-2.536516 10.278273 100.009682
8.432158 4.403962 47.863815
-14.443170 -3.001568 53.625462
12.296953 -11.305444 91.002571
-10.031993 -4.152146 34.840427
14.386331 -2.636444 90.900276
-12.104876 4.952665 9.778677
-7.379617 6.358410 83.921417
-13.867661 0.210725 86.327477
12.740337 3.041319 72.781937
8.296347 3.213842 24.101597
-16.074585 -0.868247 27.551756
4.498569 1.346699 67.421860
7.041170 9.933508 83.075630
13.376421 -1.644776 102.864990
6.074364 3.759838 47.721626
6.680051 -13.659539 74.831764
1.738423 -0.119477 67.313049
1.437087 -4.092902 67.527313
-16.786798 3.355081 46.892551
5.860779 5.072440 78.372971
6.144686 -1.166507 34.021004
6.146216 -3.071161 11.247924
14.649595 7.733516 39.768204
8.918266 -11.187771 51.344730
14.512805 -5.769005 100.894409
-16.093477 -9.473772 91.123421
5.920128 9.982220 99.897812
-1.160036 -11.640282 92.101151
0.477837 -8.634846 70.076355
-10.483883 -7.171482 47.043251
-10.130043 -10.585289 97.212791
-5.283948 1.436337 57.770985
-6.130440 -0.880731 57.888092
-14.716463 -2.762930 52.916348
11.811385 4.642035 49.020218
-7.419463 7.090144 75.631554
-3.439103 -6.926968 63.696911
13.960739 -8.639085 70.181229
15.333302 -3.389870 31.331152
-7.997095 -10.436572 105.850563
-15.029689 -6.644146 85.627274
-4.653949 -9.815686 62.891098
13.391001 -12.746232 82.219696
-16.309917 -2.623461 48.657063
-11.851008 -5.777939 10.603683
15.452656 2.580473 80.282372
5.524148 -12.260569 71.946846
-0.758949 -13.644033 100.308922
-8.551184 4.913179 13.203621
15.221788 1.559384 38.111858
16.070707 -6.272243 64.735207
-14.781583 -5.908721 66.977867
6.076063 -0.140328 15.094170
12.418264 2.580900 94.177155
-17.499752 -2.173456 49.043949
14.227370 3.187603 44.563480
-8.409904 2.529201 20.028814
-11.834212 -5.141705 32.433449
-12.347481 -6.631545 105.377640
-15.716745 4.019550 30.761286
6.899611 0.598877 13.173453
13.063085 -8.178744 75.319031
9.843910 -5.028069 31.330196
-13.502449 -6.379968 80.784988
12.664898 -9.990777 94.622955
2.473008 10.602540 86.205200
-5.694080 2.092658 72.273125
-13.583727 -7.882542 80.058098
-5.858400 -4.458693 51.224556
4.567775 -1.560315 31.023909
15.392752 -0.834978 45.713264
3.076274 -0.999917 40.919197
10.004095 -5.276853 40.525707
-17.891066 -2.380144 89.213196
-8.193709 -8.755556 38.862148
-8.255741 6.677517 39.087055
-15.659576 1.264266 35.016113
-0.253825 9.682136 95.917664
-12.607258 -4.839646 31.531193
-9.051257 -10.155568 96.986473
1.791763 -11.235857 68.141479
-5.389977 -13.094728 112.579079
13.618645 -5.340649 71.669609
-9.767906 -3.017846 116.779869
-14.023986 1.205170 13.347271
-12.317641 -11.621499 74.519775
-14.022980 1.164357 84.385056
-3.277660 -2.556918 53.647808
-15.272522 -0.505020 16.631008
-8.167553 -4.112863 38.857758
0.010453 5.586562 87.304665
8.444132 5.300251 24.097353
-5.189832 -12.485708 102.799629
-13.064383 2.331346 44.193584
4.940643 2.702063 71.524750
-13.511759 2.958564 28.058771
4.923763 5.586722 108.045731
1.473781 1.706411 81.154327
-11.515888 -7.676198 45.479893
-4.425979 0.443931 55.121590
-1.365442 -1.393901 79.429253
10.276710 -10.206685 112.467690
-11.147525 -13.128534 75.954903
17.199762 -0.135995 43.505726
-6.816066 1.191211 30.489491
-0.439150 -1.957883 80.154266
-9.120565 -13.766028 85.857826
-10.478128 1.703358 54.632248
11.096369 -6.215556 19.608810
-10.222962 6.241333 42.744167
-6.516615 3.662034 65.364464
4.671867 -11.909530 108.440987
-5.408597 -15.749021 108.416321
10.962785 3.994293 74.655212
7.982728 -8.730133 50.943546
4.144453 1.519412 32.653233
-9.101223 -6.372982 115.044197
-0.801771 0.486361 73.681107
2.851182 -0.606981 49.453136
-7.705365 1.902766 9.816537
1.732664 -5.232326 60.005379
-4.934117 10.797099 92.801514
-13.664756 -2.355891 102.349220
-14.087317 -7.108033 50.674366
2.553656 5.999692 108.088272
14.744918 -4.058342 58.535244
0.615693 -10.190599 78.204391
-10.645306 1.645453 107.869293
12.614974 1.039248 51.160370
11.525060 -5.833563 27.928389
-12.124310 4.992465 46.399551
1.898662 -1.777876 68.544418
-7.439632 -1.839823 29.735487
7.679904 5.533998 60.604115
4.111925 -12.635877 107.109879
7.519247 0.865691 114.935799
-15.694351 -5.728587 93.098747
-0.476629 -7.412731 84.028633
-10.799668 4.386315 68.217178
5.529699 -9.618292 106.501892
-15.181848 0.775929 16.805136
14.406638 -3.232354 70.778641
-12.561046 3.667660 102.174812
-9.380731 -4.772971 9.928976
-16.186623 -1.912238 27.537790
13.302255 0.926687 75.412704
4.069264 0.016422 55.601650
6.355124 -12.383178 61.095219
4.645481 1.006763 57.340733
-10.113782 5.829297 36.921673
7.282580 -2.507315 18.262314
14.371006 -1.467021 17.185774
-18.268278 -5.371538 55.729103
-12.790487 0.120321 67.430145
-5.505838 -1.603518 34.193317
9.231325 -12.915951 116.373322
-15.015345 -5.809443 43.617008
-12.782362 -12.129041 90.348839
-7.066498 -7.302624 35.749229
6.977215 -13.152988 103.734352
-0.936671 2.832153 81.428406
-9.050915 -9.891851 58.244099
-13.855120 -5.842967 16.455709
7.029078 -11.006810 63.631420
10.369765 -4.826724 42.306377
-4.247534 -3.810780 47.920696
-10.778281 -1.239818 111.311630
3.486173 -11.052232 66.890160
14.259332 -4.851162 95.320679
6.809334 1.051549 114.505440
-11.069394 -5.579768 31.181511
6.600899 6.771872 41.909981
-7.468594 3.690949 112.726486
-14.342443 0.005020 100.387764
13.230850 -3.054698 20.708662
14.203184 -9.857996 64.956688
-13.371378 -1.269792 22.092781
-1.566125 -5.445702 81.142525
15.931349 -4.368520 50.823383
-4.760375 -11.073511 95.996185
-10.886138 -11.708067 70.829399
-14.305830 0.479369 43.183899
16.728729 -2.325419 34.061333
8.231863 5.823317 52.873211
16.812778 2.089431 28.505365
-4.097626 3.437856 76.683395
14.993100 -7.353535 87.304520
11.379142 -6.717290 105.819336
9.888567 0.806235 115.490776
13.688400 5.704015 43.574810
-15.668033 -7.086679 44.291656
2.618730 2.719001 72.167747
-14.300859 1.629917 74.930504
13.202689 -1.017225 86.137161
14.261105 -4.185286 23.440380
-12.181492 -5.911635 30.152800
7.519305 1.910257 116.510628
2.749460 0.618566 47.240067
-1.179221 1.440428 54.713615
-15.367836 -3.691908 77.697800
-2.677923 5.316363 105.405899
11.629108 -3.619547 28.914705
0.873562 -11.167973 86.265915
-11.145285 -6.305676 113.916801
-13.946040 -2.026008 47.248653
10.254226 -10.861914 80.159332
12.633691 -3.264425 14.171995
-14.940440 5.715571 30.127707
-13.809854 -8.260953 80.994606
2.181307 -8.727555 74.653572
2.724939 3.092128 41.188194
-11.362972 -9.442332 100.821869
-10.283215 -9.090780 98.059021
1.252657 -10.277982 81.352631
-16.193132 0.300265 22.068508
-15.281626 6.736622 30.561394
5.163084 2.200887 38.067539
-11.016223 7.120852 92.468491
9.369275 -9.928155 58.923988
15.381617 -3.441905 63.667583
8.020853 -9.935992 112.231155
-13.997699 -3.830571 57.407463
-9.627048 -2.608677 24.419044
-2.689692 4.193736 114.218407
-6.859391 -10.076583 102.882607
15.990711 5.554560 87.343590
-2.794642 8.972927 92.761116
0.210631 -9.290164 87.369629
-7.544134 8.174129 87.772751
-2.727755 -10.224105 87.496872
15.376021 -4.798001 51.633854
9.966742 -4.462223 11.777336
-6.360091 8.061924 101.683777
-6.896452 -0.417883 28.842093
-0.579849 -3.990792 77.347206
-1.685593 -9.012300 89.491745
-15.381463 -7.837691 83.568474
-12.415489 -12.519782 85.058258
-4.648075 8.663079 102.589897
-17.662542 0.157400 39.346008
-14.788591 2.934352 18.673098
-13.668564 3.432891 81.163818
5.545563 -12.010612 98.345764
-1.312250 -2.543205 80.190575
-12.374478 -4.295598 40.507969
7.249399 0.502385 24.830175
-6.004128 7.641208 85.085602
12.310789 -1.409320 111.480148
6.385054 -2.927036 41.959297
-8.437588 -10.563722 98.964180
14.092427 -5.280555 11.667079
2.885370 -0.459045 33.966652
-4.238069 -9.469877 73.280212
-8.627271 4.624242 69.159035
12.508072 5.434387 75.939865
0.251808 -10.892747 101.804886
-4.153581 -1.413983 24.815113
17.763634 0.264431 15.140399
-4.258441 -4.946302 45.065807
9.697191 -9.593658 54.266045
-8.078054 5.890523 105.248451
-2.081825 -12.238880 95.742020
14.326494 1.715558 51.833023
-6.917586 4.814183 50.034740
6.131666 -12.044013 96.515602
-1.524172 9.998329 96.675217
15.861016 -1.280100 32.849842
12.693252 -6.545081 56.451225
-0.713344 -5.715087 77.118622
1.293846 -3.446295 43.013916
-9.947022 -11.457694 104.696945
-13.625505 -6.472143 42.734890
-4.427246 -0.866905 57.314770
14.134923 -1.511654 53.726368
-7.496964 2.478162 17.708599
15.007192 4.644094 36.522873
-15.884218 -3.549863 31.295147
11.986815 -1.111921 105.342712
-14.108664 3.081082 26.951015
-2.493324 -1.621523 34.010872
-12.942251 3.682817 100.559921
16.497961 6.875142 34.642136
-2.091767 2.475635 47.212597
-13.378892 -2.550532 99.303383
-4.779602 2.041902 38.541992
-2.680623 5.089885 107.687355
-15.211952 3.097659 89.584869
5.120518 -6.565950 50.052769
3.580093 -13.334260 90.123756
-4.937113 1.922155 30.870337
13.881997 -14.814585 64.205345
-12.584500 -4.040014 40.174744
-8.134863 -14.535784 73.251022
-6.186980 -11.799294 94.082336
14.424670 5.855897 29.747562
-15.785287 -7.359703 83.579208
14.728177 1.100690 62.196404
4.522494 5.945856 106.146866
-2.931610 11.009927 97.928207
-12.986176 -3.722569 20.395687
-1.317038 9.001962 86.900864
11.196926 -9.310038 93.107986
-6.745317 -12.065203 112.788002
-2.664686 -0.029334 64.732491
14.239828 -7.474800 101.166122
-12.108198 -11.006609 86.014084
11.908411 4.422476 12.746608
-13.648909 3.905697 47.262218
13.159262 3.076389 22.622019
16.676035 -8.099312 76.267212
-12.567070 3.941098 97.368507
6.652251 -2.943194 48.834423
9.650690 -3.621263 33.310795
-15.480803 -3.533141 85.591949
5.783460 3.708539 29.376295
10.801532 5.739457 78.288612
-2.578659 -13.886058 98.911469
-14.281287 -1.651868 19.480532
3.740886 -0.160559 29.266251
13.303016 -2.201166 16.219431
-10.871318 -11.091376 69.566605
-14.783710 -0.771340 68.529083
-6.467280 3.112572 57.468147
-16.737076 1.111424 31.592993
-7.048357 4.177474 110.888878
-6.222816 8.941088 98.428413
-14.275103 -5.497644 62.724468
12.183263 -9.702420 84.912956
3.830048 -7.793598 62.222248
7.981436 -12.841042 61.289032
-9.677960 -13.902339 92.476288
-8.176486 -4.224747 13.996858
-12.081676 -5.557910 25.392563
-10.748808 5.686944 31.254049
10.985845 4.544334 60.320206
11.181607 1.653799 10.073183
-8.243393 -13.109946 93.561417
-1.250592 8.045229 87.516090
14.878619 -10.333935 77.271027
-14.006347 9.072004 88.756508
13.644775 -2.155204 110.526451
-13.760938 -4.059304 46.567043
13.825894 -9.493811 71.916458
15.954017 -3.460986 49.375957
11.333120 -9.003988 92.429733
12.087929 3.527878 56.781818
12.394341 4.189034 102.237549
9.237186 8.111113 101.523972
14.832127 3.379592 11.166892
-11.563144 2.763971 77.238533
16.482033 -4.260156 9.940988
11.489419 1.951168 60.545170
13.549702 0.853906 94.682930
3.930313 8.527737 87.454063
-11.066505 5.480855 99.106728
6.625577 6.476696 86.423393
-12.438521 4.645895 84.594460
-8.567703 -7.950660 46.537739
-10.125427 -10.181602 114.065056
3.019069 4.092583 109.602852
14.339746 0.962156 61.834942
7.949205 3.460118 71.020905
2.805702 -1.250780 39.486839
13.846253 -6.709857 38.898788
-5.018789 9.628584 101.963753
14.346539 -5.217642 94.524063
13.861791 3.501036 101.070236
-4.229393 5.246515 109.848747
-17.631752 -5.925911 84.108910
3.905932 7.834101 85.553085
16.905556 5.015409 41.371990
-13.954632 -7.720445 93.638954
-11.057035 2.514014 29.451897
6.765306 4.542943 11.955790
14.442804 5.353570 38.071594
8.507743 7.339500 27.590336
-6.844201 -11.890856 98.187325
12.103566 1.622371 114.990273
12.832050 -4.826748 33.174171
-8.203900 -5.744139 40.725945
-5.549287 4.093208 9.936325
15.958686 -7.722848 67.344276
7.063960 0.039911 31.964933
-2.028702 -0.331839 60.758099
-4.917806 -11.387706 77.220108
-16.842476 -3.152721 50.702415
1.624569 -1.652252 43.690830
-9.138953 3.521616 43.201363
11.605844 5.126311 58.961063
-9.624661 1.605378 24.474121
-14.933280 -10.364374 71.863174
-9.966539 -10.658440 108.466118
14.895685 5.753590 92.443764
-8.235818 -8.685602 55.029202
6.030254 9.547910 90.984779
-6.613186 -0.621564 34.357197
-9.583491 -8.359423 51.949512
15.882907 -1.560444 60.303463
-2.562689 -10.837925 86.639870
-11.311046 -4.492608 26.852154
7.122494 -1.640043 14.842851
-13.811110 -6.327131 61.856121
-0.904019 0.194261 68.032402
-15.207098 -4.273649 84.134995
16.892721 -6.536425 88.386024
6.571625 -7.248900 63.277962
11.056539 -2.098974 117.237572
5.634174 -3.998576 57.001480
9.454403 -3.233528 14.999603
8.454987 -12.321744 92.253212
-3.980464 -2.260921 33.950737
-14.634327 -11.095287 89.774330
-14.951207 -4.951257 54.313877
13.339486 -6.783778 42.327400
-5.086479 -11.066753 54.770527
-3.609880 -2.498536 49.914852
8.912512 6.362070 57.837925
-15.706695 -6.229678 58.387421
-11.820021 -2.093992 17.974533
-13.546712 4.507133 47.130928
-16.229412 -2.344690 23.969067
-13.319848 2.228997 39.211742
14.801184 6.835509 86.545265
9.209776 7.546003 24.083927
2.712562 1.700807 60.247597
-7.869683 4.946759 39.985706
5.695863 3.929394 69.004562
-16.042110 -6.091158 40.195698
0.070946 -5.401475 75.909607
2.303886 -5.027073 67.506660
-16.433987 -3.285265 52.977112
14.275052 1.677868 82.249290
11.379278 4.367906 27.169548
-0.430742 -3.057682 84.186279
-11.448625 -7.247434 106.302444
8.758801 -9.659131 46.260509
-0.164873 3.047915 81.684975
3.902134 -12.760243 96.841324
-9.517178 1.180185 65.802956
8.589977 6.680046 103.445206
5.312909 4.045756 114.153008
-11.607278 7.450943 39.903652
-5.467399 -1.510136 33.668034
-10.957700 -7.714650 46.977268
16.008820 -2.624148 106.426155
-1.627389 1.547055 78.354836
5.127222 -5.087314 38.948574
-19.294228 -3.886256 42.778305
-14.818352 5.081192 52.285873
1.934554 -4.236814 69.358749
-11.811959 -4.386140 63.346569
-1.536758 -0.145911 56.097111
-11.426713 -11.754070 70.432472
-7.661085 2.118661 113.842697
-8.055166 -4.498195 44.375690
16.164949 -1.577722 30.895580
2.132491 -0.288960 34.922226
-16.114645 -5.999722 68.792526
16.051029 -1.510566 55.560020
-3.834445 -12.670228 85.224220
17.608715 1.565670 40.701412
5.764713 -12.768051 74.436356
-10.060944 -7.061759 43.349129
1.767953 1.287180 61.919983
-15.047369 0.948338 21.241844
11.429873 2.476994 96.620010
-10.765985 3.832561 107.238739
6.604821 -1.129310 30.855844
12.229655 1.162212 103.362579
7.925153 -2.828079 29.212547
-0.052443 -4.520104 73.366905
12.950804 -6.886091 59.593788
-5.423387 -13.021573 78.294136
12.435751 -9.809998 70.149933
15.283459 -1.303013 16.127050
-2.487520 -11.829811 95.627480
-2.050496 -8.761998 96.565582
11.820824 -12.415672 91.226326
7.729635 8.472506 86.690376
-6.466270 -12.367154 115.937569
8.268931 6.454660 64.647552
12.902188 0.681785 72.977081
-6.792988 2.934439 33.811710
-7.630032 -0.076149 10.586338
14.569078 -3.562196 38.092918
-13.591976 -4.255764 8.330198
-2.849893 -14.858374 110.544533
-8.644862 3.864942 66.439949
-2.647041 4.093966 78.171463
11.688052 3.864610 86.235168
-0.772395 -9.786220 81.034409
3.475529 0.503387 49.643208
-10.752064 -9.949367 82.862068
-7.255563 -5.141035 34.724918
-8.412310 6.851077 102.632629
-1.817461 -2.537549 69.950272
9.818181 5.213675 12.549920
3.564038 7.572877 93.896469
-10.724818 6.646340 79.444710
15.321696 -1.419259 10.346863
-4.008269 9.031878 94.576813
-10.442877 6.155657 43.694241
0.276963 -4.791503 73.103905
3.984353 -11.000886 92.957466
10.718727 1.394554 52.334995
13.748199 -4.021578 60.207943
-2.248687 5.440546 79.797859
-16.608906 0.913389 82.854065
-13.094169 2.956703 44.191696
-11.651919 1.562578 63.072186
13.342940 4.073008 88.053192
-12.249990 -10.387634 83.605423
5.062144 -11.116809 108.333237
-4.001341 1.178329 51.041538
-16.055761 -4.334856 57.476082
4.374807 9.179147 87.164459
7.673628 -4.530610 36.871605
6.726468 -0.928251 20.152399
2.118312 -9.789204 79.554131
-9.909489 -4.123576 15.401373
1.914344 -12.847290 113.555428
-11.897128 6.425060 83.512436
-2.501726 -4.198408 59.087399
0.175173 -14.054633 109.756409
13.531631 -10.356326 95.734413
15.126688 1.836981 22.563496
-12.535286 3.533039 75.887901
-5.102198 -11.687940 109.683228
-5.954122 -7.964255 55.929131
5.577435 -11.038774 90.099022
-1.053909 -3.089535 74.925125
17.671591 -2.599551 21.897451
8.444956 -12.250960 85.528847
14.294178 -8.375638 47.565453
8.702806 -8.142800 118.799370
-9.188147 2.339999 10.827003
-4.159965 4.159234 26.296652
-11.708987 6.026254 55.436710
0.823593 -13.491722 118.141884
3.875316 -4.487919 46.582336
