ply
format ascii 1.0
element vertex 2048
property float x
property float y
property float z
end_header
-5.576389 -10.941203 97.111038
-14.007373 4.617361 86.603889
-12.399329 4.328950 39.251007
-18.297995 1.382795 86.447144
14.925195 5.350201 41.272213
-16.536978 -2.171682 14.720042
-16.356030 4.274107 9.610785
18.981291 -5.429714 79.665100
18.899841 2.928948 63.082687
6.964088 5.893905 38.753399
-11.167620 5.734429 41.236595
-18.029776 -2.609768 61.467422
-7.397974 2.313433 49.996250
-1.904467 -5.162901 67.827477
-8.988164 3.551613 22.503374
11.065608 4.642239 25.390345
-2.427780 8.856859 99.318901
12.841577 -6.212489 51.747482
-15.832269 -0.544840 36.520130
15.126896 3.909077 37.536865
9.938653 6.006151 74.377319
14.501402 -7.287820 52.010880
16.837341 -0.499046 30.681192
2.908588 -5.580458 57.252541
16.717745 -1.466071 14.572313
12.428123 -11.953564 72.128654
6.039327 -3.323468 29.486889
15.346337 -1.295006 100.229843
2.166375 3.620939 74.823746
18.157751 2.821330 63.912949
15.300573 6.452406 44.906399
-11.241351 3.859507 67.426582
18.436710 -2.668775 83.765900
-6.610559 2.088004 17.736761
7.075839 -11.962303 72.582092
19.037512 -0.852431 94.953598
4.575714 2.276141 62.248219
0.499701 0.055508 54.591183
2.287694 -0.587277 50.329956
-19.259390 0.722523 79.454514
5.291941 4.712029 75.256294
-16.391834 3.152326 64.281204
15.617602 5.280414 70.540642
-13.431702 3.645915 28.606367
-11.735322 5.238707 33.654057
4.257783 -1.139019 47.852806
-7.460742 8.158874 79.718498
-6.999983 5.120272 51.533154
-11.330937 -2.041063 107.094604
-10.682151 -4.807970 38.700478
3.467899 4.780359 75.490700
8.790874 2.482533 12.000489
-13.400375 -0.759387 105.681602
15.136264 -5.400350 53.159225
18.971012 -5.282020 69.863770
12.820045 -8.212732 105.046768
-15.275895 -6.883921 89.848824
-15.615197 -3.329066 35.441074
10.278345 5.139968 46.690285
7.698903 -9.523212 60.386478
3.159196 5.251072 72.418716
12.077913 3.972176 93.620346
2.929533 1.733470 73.159767
-10.231462 -11.526610 107.270576
-0.809169 3.345703 81.340363
4.295645 10.555694 91.687805
-7.732830 -7.776917 42.649590
15.240606 -3.109789 53.639183
1.749645 -4.007567 74.390419
-7.452818 -4.495953 41.855461
5.058632 -13.296770 91.193069
13.543577 -1.821024 19.559046
-7.890086 8.236246 76.863640
1.834739 8.539577 99.795860
10.767856 6.168710 87.466774
-4.178627 6.704798 82.467201
-6.178012 -4.025904 44.646393
-2.567938 -10.256595 90.953239
8.371807 7.894060 86.353172
-8.615207 3.305608 107.289810
-0.856172 -0.035888 79.985146
-2.171525 -3.543218 57.484634
14.307450 4.293073 16.923328
7.294590 -2.292994 29.992189
4.407032 -1.645605 49.981056
-7.242825 -12.459104 86.165169
6.883184 9.915816 82.760178
5.463009 3.642556 59.039368
-1.955331 8.571710 103.996994
9.326773 7.947553 81.182915
9.435301 -10.133724 51.516125
-12.982385 5.537800 55.517956
-5.311760 -0.629078 43.601383
6.920048 -1.631578 11.612832
-14.200529 -6.907945 23.795128
-14.968760 -8.785654 69.950203
-15.847880 -4.207388 53.867928
-6.727706 -11.978940 87.448174
-7.154470 -1.037979 25.618626
-0.946271 -6.809735 83.704300
10.683592 6.737046 77.267448
-8.128575 0.390611 11.805524
14.270452 0.591881 14.633803
5.103716 -5.801052 48.410622
8.583193 -10.692327 95.894455
10.027357 6.090066 32.413074
-7.101742 2.674825 15.326000
-11.511948 4.201603 83.384163
-16.238958 2.078317 72.367409
-19.367012 -2.090739 81.491173
-7.286901 -4.303426 20.475069
-4.763083 11.039283 98.054939
14.820103 -3.730065 44.760052
-10.309635 -12.957636 92.452461
-3.431763 5.064551 103.644028
14.173964 -4.389441 42.564667
15.013467 -8.791122 86.866219
-2.186473 8.428463 92.967842
-6.545009 2.242652 12.053688
-5.963500 0.090443 35.315712
14.902180 -6.738951 89.561264
16.508305 1.156176 46.627556
-3.797552 -11.274378 78.342384
-16.905445 -2.048444 46.871109
1.760152 -14.506390 98.765266
13.232959 5.574189 44.831177
13.298957 6.605160 81.776924
-13.058842 -1.930492 15.013279
-10.831823 -7.647565 47.933830
-13.795977 5.919801 40.788891
-1.951645 -1.108234 49.732231
-14.029087 -9.773579 67.689613
-16.761494 -5.846411 56.214314
10.540837 -12.238519 96.845963
-11.956088 6.424103 42.915699
10.794847 6.330276 46.788933
-2.517783 9.190841 93.048042
-6.143491 -4.681807 24.153776
-17.398487 -0.921369 54.484032
12.859941 -2.758656 109.291496
-10.802240 -2.828220 18.680344
13.215599 4.268617 20.755299
-7.834197 6.117632 75.145996
6.383170 3.512082 54.046921
-4.455606 -5.869978 50.297882
9.489175 2.278204 111.162956
-8.633200 5.053361 108.991722
7.127884 -8.453653 45.395767
-17.576937 1.466972 11.695943
3.879157 3.310288 79.008713
-16.615133 3.541174 46.225319
11.145351 5.306486 97.499977
-4.174385 -0.686027 43.329376
13.316560 8.032564 43.440681
-8.669594 -12.650939 80.742012
14.363396 -3.145429 102.043594
-4.914025 0.546869 27.392487
15.155079 -5.569679 62.434437
-9.959677 5.862220 14.086783
9.156625 6.378399 35.765614
1.791788 9.435778 86.516212
6.214916 -4.907180 48.636513
-5.277345 3.668790 58.084183
-19.709732 1.506127 78.937454
8.251442 -1.480656 28.661705
-18.352842 1.418983 66.241325
-9.125944 -2.401990 13.935254
-4.913642 9.093598 85.036888
12.243961 7.161444 69.592934
-16.971954 1.292419 65.822769
16.577761 -7.690928 82.330559
-16.883553 1.451916 83.344902
9.527367 -5.434856 19.461491
2.793334 -4.928679 62.001507
-13.399638 5.798616 58.572300
-7.482858 -14.301943 90.556839
-11.008627 7.025823 47.910191
6.117946 9.203424 94.397720
13.853660 -6.932995 101.769249
-5.728986 -7.337821 61.569626
-5.726783 3.900719 20.015162
8.459825 -6.510784 31.901869
-5.808207 0.156643 42.343891
-4.013246 4.302911 106.778297
-0.256094 -13.130477 105.499733
-14.869828 -0.267746 108.905899
-6.582685 -2.004141 27.536863
-18.810329 -2.085270 78.984520
-19.534805 -0.159145 30.320766
-12.883593 3.397328 79.881836
-6.860913 6.962141 75.439499
-1.497428 3.764563 64.003220
-17.070410 2.187526 42.964478
6.454403 -8.808991 50.260761
4.646832 -1.332137 31.663574
-7.940575 5.254705 109.679565
4.847982 6.071893 74.464088
12.126507 -4.986578 106.897285
11.805752 -7.428573 103.963425
-15.478801 1.439388 19.210129
-0.400764 -7.008958 84.789444
-15.130228 -5.929164 42.505165
-3.122879 3.229646 64.938492
17.398783 -4.870946 83.638939
-12.422900 -9.679474 50.447502
-2.829485 -2.348004 69.015938
-4.823794 5.425525 69.498749
-17.867577 -4.634472 79.917458
10.536553 5.146229 35.186298
1.774867 5.775634 77.918556
-1.103886 -5.268727 83.402992
-2.963360 -10.497916 86.310814
15.842256 -0.684243 13.887446
0.029030 -14.614228 104.486992
1.720467 -11.101987 84.916382
13.742145 -8.899929 62.229980
9.986086 -10.821777 107.898819
3.198741 0.417522 49.507500
11.684946 6.030451 63.567810
15.116017 -0.549808 44.944851
10.129013 5.584480 22.807697
-15.966353 -3.580015 48.647751
-5.773639 -3.538329 36.791473
7.605340 -11.506724 71.509125
-2.948196 8.955874 93.184990
-12.173655 -7.166003 99.325432
-14.456578 -8.785225 87.230103
-9.068476 -12.421033 90.441223
-15.060168 -0.065683 28.248384
-15.059830 -0.728930 100.940620
-13.079363 -1.904104 105.462021
4.646796 7.682693 95.662109
7.040838 -1.793846 9.498435
2.382964 5.005160 109.485184
17.708784 -2.201484 62.646366
19.051910 -3.620093 89.276009
5.731464 -14.073830 92.627464
19.337643 -1.362810 89.473610
-16.269419 4.161773 71.306007
-2.792211 -0.551108 59.354668
5.638011 4.938152 38.684612
-7.738631 6.794189 101.029160
-8.009148 5.903416 31.231831
-18.414604 0.546379 67.169930
15.491666 1.725651 28.752289
10.086175 -4.533790 27.957815
14.057818 -8.990029 53.978027
-15.291048 0.936556 87.339836
15.263110 2.294624 103.022369
6.322751 -14.249803 106.709938
15.183043 0.754770 42.077839
5.824416 -4.975413 52.708153
-8.525966 -2.297123 11.519989
17.526670 -4.950724 78.871574
-5.213346 -0.556595 23.544531
15.698389 1.586668 48.318645
14.355167 1.898853 42.616570
-9.129390 -11.796453 101.964134
-1.645434 -9.374864 84.873260
-7.196897 4.189949 60.841953
-10.780722 -13.787514 80.937630
2.142733 7.434160 86.374710
-12.362679 1.326651 60.879356
0.463210 -1.519129 80.427582
-6.247818 -6.896673 43.116188
7.563401 0.460727 26.834446
-4.383672 -5.857641 54.598598
-5.750300 -12.650964 81.097336
9.262699 -3.360535 17.435724
-0.948634 -6.196304 80.975525
15.679549 1.663817 26.187912
-15.998427 -3.878915 56.445728
-10.672556 -4.367018 19.716963
6.694934 -6.262877 43.474026
4.584804 -8.279705 64.132538
14.417570 3.949005 45.709290
-11.668200 3.505535 108.847206
-16.203087 -2.803497 102.059807
-14.911819 4.670475 56.533386
-7.040188 -2.994231 32.285549
5.938934 -12.172577 80.988480
16.512699 -5.694399 68.485344
10.062146 -4.520475 16.249388
14.747559 -0.918893 27.256268
6.441518 0.886249 17.732792
-0.836012 -7.967831 77.732742
-8.717313 -9.560504 49.009857
-12.399500 -13.558832 88.035286
13.170371 5.489766 25.999346
11.517526 -7.291800 45.783260
13.971257 3.926593 34.837193
5.420197 4.108631 31.523346
-15.682540 -1.538873 28.015240
11.927673 -5.144252 48.849651
11.297812 -10.721047 57.924549
-11.392681 -12.710165 93.702782
7.166646 0.867262 25.940845
13.594202 2.155540 98.865433
14.005607 -5.395662 48.128826
-7.961568 -10.454876 58.150486
-11.614150 -9.432285 101.096291
-0.970704 4.621057 111.112961
-14.063345 -2.317358 107.094421
13.957386 -9.919221 64.111305
13.136255 -10.845680 81.335663
13.506342 -11.977242 72.074448
10.123881 -7.093753 41.034691
3.318240 4.258626 77.711922
17.671520 2.407701 71.558868
-8.200710 5.411156 63.798508
-7.391896 -6.094183 44.638817
-6.005756 -8.907989 61.663193
5.588660 -12.040509 106.219681
-16.968344 2.696650 9.522408
-6.411135 3.792318 71.824760
2.053402 0.233575 73.506943
14.308476 -2.010978 16.272264
-11.151115 -7.799078 42.783932
10.671936 4.238987 11.729031
7.631338 2.952580 24.141304
8.169086 2.443886 43.785984
-11.267871 5.306810 44.774399
-13.578145 0.076982 92.072823
-6.602076 -3.328185 28.584578
8.998278 -10.192163 55.149094
6.191916 1.631959 51.106487
7.835020 7.755874 66.278786
14.445933 -10.455882 95.679039
-8.459414 2.266468 14.924265
4.565153 -5.618437 62.055565
8.145084 2.007766 21.064117
-0.218536 5.697349 88.892014
-6.984085 -11.935687 99.674629
8.098721 9.438513 93.445061
-16.486990 1.903053 81.163322
1.525562 -2.328453 73.224586
8.235365 -5.112403 36.876610
10.269868 6.585451 40.954922
14.893251 -7.287460 66.619553
-16.360983 -3.777072 24.511444
19.403345 -2.332087 75.694557
-5.709744 5.730169 106.385300
-16.471643 -7.580449 74.896011
-5.881180 5.466394 34.972332
5.464966 0.324420 50.184875
3.698553 9.175402 90.871620
11.828922 -11.381677 67.048836
-7.022522 -11.575069 73.570648
-8.068341 -11.553337 103.943825
7.928547 2.986202 43.952408
11.603601 -5.120685 106.298096
-12.079237 7.111940 23.965580
-8.870279 -0.521774 15.460903
-3.018046 -1.337816 46.116718
5.010629 1.433528 62.768299
-14.367908 -5.321071 14.826040
-7.497608 -11.142017 59.323349
-12.829911 5.132669 97.188683
-14.439292 2.699642 99.771378
3.159579 -1.425229 50.856712
-12.368700 -4.973430 15.110322
5.906099 -7.137852 41.541164
-2.904946 -12.871841 105.150475
-16.228531 4.912717 72.480385
-11.721746 -5.868646 44.303345
12.691643 -11.992637 71.872871
15.194658 -5.638151 30.143555
12.599781 -8.578103 56.052032
0.850284 0.374669 63.344994
13.826097 -2.323272 33.303730
14.302231 -5.820806 88.039024
8.300265 2.760644 19.825745
-15.589267 -3.972075 43.013523
-9.205954 6.110458 28.519581
10.849157 6.407081 95.507942
8.315619 4.103905 108.935707
-12.910357 6.311578 39.364536
-3.332336 6.238960 79.245613
14.327758 -8.815156 99.276436
-5.688427 2.812846 45.811211
14.485471 -4.434376 45.420315
-13.881276 4.487717 71.752190
-15.220401 4.726325 63.568565
18.423960 -6.904946 81.826126
4.768856 -14.229060 107.425507
15.238132 5.533178 75.103287
11.048589 -10.360557 102.244835
-5.895095 -4.734875 40.103085
10.165991 -12.475113 58.747490
12.975091 -15.370577 95.031693
-11.008834 -4.317914 32.333763
15.512325 -1.131667 98.750549
12.734967 7.317755 91.088737
-12.163611 6.454581 26.692457
-12.897193 3.724399 102.014488
-16.797373 -1.276989 90.999146
4.176473 4.078469 73.789444
-13.865223 2.128670 36.169800
-5.237782 1.862469 48.807827
-16.251022 2.460958 48.690125
-6.755169 -12.855618 80.710052
3.647061 -2.042103 50.335003
6.888298 4.287422 54.716347
8.705016 4.543362 49.959198
13.975228 -2.706995 34.708366
3.214835 -11.953773 101.091927
-10.945795 -7.069817 105.956085
-0.365883 -8.038565 79.104240
-15.003358 -10.900847 71.628273
-15.309510 -4.102232 30.221195
-13.412531 5.635850 38.859299
13.640697 -7.480769 61.652390
-15.716712 -7.438838 71.359879
17.098633 -2.905646 99.995354
15.164800 -1.796389 26.425720
-3.750698 -5.180535 52.516830
-0.764709 -6.703372 85.695908
13.779669 -9.615433 75.965820
7.916087 -9.187889 89.074547
-0.123955 -3.342913 65.492363
-13.016623 -2.506783 25.469753
-9.343291 -12.065941 103.199036
-15.923908 2.067624 62.772652
12.926290 -5.198660 45.954941
-15.829550 2.830833 24.984303
-17.921234 -4.104066 81.603294
-3.024958 3.770017 71.720207
4.139412 9.637662 95.650040
12.354960 5.716065 32.314899
-15.908531 2.250811 60.640404
-7.441241 -0.115113 12.622887
4.319526 -7.091381 59.093361
17.168678 -3.683665 13.066678
-20.083441 -0.530907 79.513474
-7.537484 -5.283243 13.034985
1.867177 -12.709019 102.796577
-11.253804 -6.468870 47.313873
19.332022 -4.486953 81.494141
-7.630090 -3.789382 35.810246
-8.772992 -12.233148 105.254272
-3.414386 3.805044 43.813744
-0.130635 -4.331845 76.214493
11.840932 5.754094 30.469345
5.445427 10.342638 95.956421
-17.338512 2.775262 29.572868
-14.715952 3.884112 70.796379
5.819843 1.085745 53.499847
7.549828 4.973068 51.418995
-3.856566 -1.338320 49.906677
-0.276939 -11.184921 99.001900
-3.810383 -12.612701 98.238060
15.957556 0.965665 74.737656
13.726616 -10.848978 67.987549
14.813120 4.539960 96.459007
-17.133770 -5.808566 101.520546
-12.007741 5.747734 103.999229
-14.363157 -12.495525 73.412865
-0.587681 -10.964450 75.612701
9.772735 -10.472854 47.842110
-13.595468 -9.069760 53.695053
15.815094 1.320639 72.795586
3.551911 10.742790 101.454788
10.005280 1.407387 109.714005
-16.466665 -5.425030 88.599243
4.576096 -12.420598 96.551437
4.875383 0.262448 19.486082
2.630371 -14.985272 109.350296
-8.121602 -12.430598 68.741661
-13.377723 -8.640930 99.206856
6.867391 -9.859974 63.824448
8.297508 6.626200 58.381004
-16.352465 -5.620876 70.723518
-16.453230 2.489371 17.168060
-9.774857 3.433006 55.998337
11.528183 3.421928 101.800514
16.567453 -8.098849 84.921165
1.965182 -6.178197 68.178909
7.235756 9.338719 79.008713
17.499815 -2.072080 43.038181
-0.854439 7.453914 96.016014
8.678027 -7.535994 59.741955
-10.163217 -11.589799 95.613136
-14.853937 -3.501949 67.665909
14.532970 -10.971214 87.231369
-2.452998 -11.001969 96.163261
-9.392223 -5.253122 15.356684
14.016053 -0.930754 107.223839
-3.892033 4.328393 81.833420
-3.941353 1.331262 60.875057
2.780412 8.555438 93.583702
-13.260886 -5.971783 47.491364
4.524321 2.693722 59.217255
-14.055435 5.002167 69.149300
18.223703 0.001778 85.875160
0.305090 -1.115945 68.268738
-6.095309 -11.700841 70.461273
-11.932560 -5.520507 16.175119
14.435445 -10.416698 70.289795
2.760881 8.146957 97.610931
15.619114 -4.946495 7.272456
-2.244812 -11.404414 95.481705
9.192504 -11.908593 100.795845
-7.719090 -4.412405 36.258526
-0.057279 7.704376 93.221268
-5.886297 5.760810 19.347939
-8.292476 6.262683 22.052818
-10.500560 -11.185077 98.228966
-2.319728 -4.082247 49.750870
-3.335572 4.477288 78.065468
-15.624943 -6.683346 77.340614
-5.643148 9.057959 96.521492
-5.543631 -5.946693 42.985195
-18.830805 2.894555 81.275505
7.061733 -5.157913 41.578835
-5.485823 10.216164 89.111565
-7.937118 -12.402453 109.372009
-8.530183 -11.290200 101.040169
-8.004465 -14.176222 100.243690
6.705294 7.345045 72.112709
-10.454418 -9.442104 53.608055
-10.399803 -8.111044 37.971207
5.832365 4.093042 54.912529
-10.721076 -10.509693 107.433098
-16.142931 -3.784925 64.561928
7.733716 -13.769431 77.446877
-13.474173 -8.351076 65.912689
-13.982786 -8.546307 103.623314
-12.493958 -8.131478 61.440041
-4.121168 -10.928499 85.813011
6.668932 7.032029 96.214203
8.278026 -6.088597 23.923704
-11.235956 6.406766 78.451950
-13.927620 -0.735723 40.260532
12.780766 7.332995 57.249168
-8.148640 -8.784543 58.835217
-8.997359 6.786018 85.120277
9.803704 6.321383 99.773193
8.833345 -1.370246 11.316739
-8.851053 4.064310 107.399513
-5.869503 1.093271 20.353001
-10.999194 -11.639224 100.583115
-16.297903 3.362472 56.487827
-18.092928 -3.193217 70.882172
-14.185844 -3.685748 24.059866
5.279880 -0.169242 45.950565
-1.360717 0.558864 67.867279
-11.393678 -0.986458 110.142105
-2.428125 -7.917686 59.630100
13.911196 -10.310368 90.532654
-7.988039 0.613481 22.440624
-6.618589 -3.123773 36.211987
-9.025597 5.038417 25.270567
15.169357 0.639248 31.403803
18.465910 5.112423 63.316917
-0.689452 -9.418866 89.651077
16.360964 3.172349 93.829247
9.900039 5.621021 61.917557
5.118103 -5.340827 46.983719
15.406749 -12.458823 83.289642
1.040044 8.133580 94.153008
10.113379 -2.801336 25.882626
-6.763664 7.492400 103.560379
-15.425035 -2.816168 23.032618
-14.110544 -1.206513 102.556557
13.327600 -6.419952 10.604116
7.773747 1.941556 19.518051
6.047078 7.453784 67.310020
-0.990937 -4.913845 80.691719
-17.001244 -2.901107 59.948624
3.771497 -10.734516 89.545792
9.787026 4.737479 41.580990
-7.726430 -10.779681 68.639496
-17.749302 -0.611339 66.034576
-7.269728 -6.300549 47.357071
10.455491 -2.923067 22.682951
18.768093 -5.313173 71.584869
10.064523 -7.916645 57.159191
-5.100848 6.662154 71.155640
10.311538 -10.774516 107.047218
-11.161539 -11.423555 96.341331
1.536022 -14.587762 106.951180
-12.876533 6.383218 98.108948
-13.070918 -8.940920 98.281166
-15.060764 -6.034793 85.449089
-7.640999 -10.565478 101.481819
9.448022 3.530933 35.434944
-14.421036 5.926307 56.865143
-7.320144 6.190197 64.868217
9.614956 5.325596 64.625290
2.753774 -4.171305 75.104195
-1.248796 5.302294 106.113136
16.640749 -7.640144 67.171989
16.245838 -0.281097 67.936409
6.595538 6.319749 86.342743
1.574674 -10.455007 78.950401
-17.274836 -4.119049 101.924622
-0.426567 -8.227408 81.472923
-13.973182 4.333033 13.521994
6.989231 -6.913764 52.195648
10.645941 6.623733 19.690571
15.514756 3.658222 32.480057
14.735252 0.913643 98.764969
9.506755 -5.452282 32.971607
-17.059210 1.294643 54.016640
0.374646 -13.300794 107.275642
-8.217744 -3.384025 22.271406
12.724862 -5.580565 105.617294
-13.133995 5.151515 19.115652
-8.751805 -9.725529 59.122551
-9.785501 -11.294082 70.509750
5.683017 5.549683 56.629509
16.058069 -2.711560 32.665016
-1.192011 2.898957 84.894203
0.944937 -3.727754 80.959755
16.824902 5.288789 41.872890
-13.996807 3.646634 48.190582
9.467392 -10.066507 104.998001
7.577206 2.695669 20.368061
-11.034776 3.509569 15.297141
3.318461 -5.354265 37.834122
9.558246 4.597828 15.348632
-6.885378 -12.724025 60.141567
7.945810 5.438337 11.847394
3.459852 -9.193919 67.029205
17.591936 3.599715 21.079636
13.646729 -0.711558 100.513100
-8.185503 6.612952 28.177181
-16.149384 1.890746 57.923744
-11.074657 4.409004 11.370002
5.734490 -2.882679 38.983006
1.860219 10.648319 92.623146
15.351561 -6.746293 97.854958
-3.305593 -10.553804 93.532974
5.276045 -12.363382 82.349518
-7.547935 -10.318747 74.587807
-15.672445 -4.944098 39.085892
-5.282229 -0.730820 13.875351
-11.341312 -9.149978 65.934669
15.818701 4.686804 34.795002
-3.070746 -10.792706 96.394928
-6.465740 1.939328 19.145002
-7.281132 12.363705 91.281258
14.355516 -7.517879 88.351448
-11.515426 -9.461137 109.412163
-12.174511 -12.616864 70.383949
-17.942255 2.078685 77.339104
-6.788654 1.226204 28.861101
-14.277880 2.645661 35.631977
4.688893 -5.101157 42.970745
15.316986 -2.216006 30.502661
-8.395638 -9.692179 95.813660
16.452913 3.698453 52.626438
-13.574723 -5.737313 96.174133
-5.044384 3.531337 37.673664
-15.137578 1.519266 31.774746
6.207079 -12.843163 101.927422
12.027511 3.249043 33.654182
-2.854541 3.788353 108.372818
4.771927 -4.680766 54.535450
14.766005 8.001586 48.564426
-8.887378 -9.510468 53.670723
16.931553 -2.558389 72.049606
14.977921 4.979235 51.626678
16.589869 -5.076964 68.772141
-9.627893 -7.599212 44.311115
6.543516 0.456625 28.471455
-11.719336 4.261786 102.866570
-18.963676 -2.615057 43.494968
2.163692 -1.546808 68.159973
2.327002 -9.352998 71.893364
14.810762 5.001835 45.804119
9.836237 4.055449 22.852779
14.961446 -3.251348 51.631107
16.400768 2.237623 76.980881
14.528447 -12.587905 75.450478
-5.287997 0.545775 36.888409
1.158378 -4.990216 62.435619
1.469074 -9.505559 77.368126
-9.241160 -7.571433 17.317053
-6.389869 -5.507119 48.459705
0.944242 -3.326739 71.978394
8.889432 -13.840345 70.685066
-17.258842 -3.765504 26.315704
11.493142 -0.101772 100.059120
-10.557774 4.514151 11.368204
0.114901 2.093697 87.651581
-9.600977 -11.450206 70.378311
-3.325458 -3.390517 44.820271
9.665301 4.016429 14.121898
12.266422 -12.174070 83.173058
16.384062 2.820000 60.800236
10.788445 1.583077 110.911354
-11.196915 3.973317 47.455406
-12.578690 -6.379700 41.024391
12.689019 -11.986418 90.907860
-7.877324 1.492104 20.281742
-11.799593 5.807500 13.480133
9.691406 5.628726 47.387978
15.283675 5.363896 50.788372
14.846942 5.437961 67.298035
-9.916276 4.207430 41.384384
-17.885590 -3.136587 87.831070
-17.470291 -6.136118 102.520729
4.751751 -4.736447 56.514824
-1.581008 3.808672 66.391930
-17.181232 2.564812 52.400455
-12.314712 -11.001681 96.600426
14.547335 -3.388560 107.926697
-15.321369 3.880969 31.672703
-3.879689 1.181974 52.706165
4.606681 -7.414205 63.252369
1.237701 -2.882596 82.504395
-12.402378 -4.414856 22.484579
14.649281 -6.458101 89.126434
-8.509524 5.814404 78.625015
-0.207705 -11.540435 93.144318
-6.167750 -6.873528 53.486584
4.180229 10.198860 86.496025
12.060938 7.540377 90.541550
8.714472 -9.326913 55.272537
14.296179 3.372172 29.524866
7.583131 -11.592567 86.722000
-5.892575 -4.342741 41.225834
-10.610686 3.812779 20.347801
5.977925 -2.169808 44.047714
19.933634 -3.756257 93.048851
5.824347 8.105810 93.943367
15.151546 2.848078 76.902039
-8.112032 6.694972 15.599199
-17.730532 -3.947188 31.083181
8.182055 -5.570515 16.811546
18.166756 -5.548375 86.189919
-4.870639 -11.462318 93.477936
-18.766768 1.061948 68.772049
-5.279680 -11.778380 103.036766
-9.148797 6.368708 24.225208
-8.038368 3.556690 24.464750
19.473007 -2.669168 76.494904
-15.222335 6.468143 39.789021
-0.114653 7.336704 102.839333
-3.816346 -12.811630 98.714645
-11.410493 7.622554 74.808754
-12.933372 3.172284 68.491287
16.934858 2.708737 80.508041
15.281235 -6.018322 87.544891
-7.773044 7.698626 86.448700
14.660076 2.844876 93.591110
-11.636871 6.074309 44.538406
-2.635750 5.017606 111.087494
8.619633 -13.277636 66.396591
-11.733305 0.337656 109.454613
-9.342907 6.401558 105.992393
14.721259 -3.420557 99.693169
-4.908410 -3.677482 36.490467
4.387256 7.297155 89.549728
-8.316998 6.571593 31.850657
17.480228 -2.287459 98.681900
-11.538628 -10.860173 94.488914
-4.768227 -9.545710 92.948441
8.088949 -10.803468 92.747963
3.949918 -1.805273 48.287815
-12.607268 3.859123 43.178539
-16.059628 0.069131 27.807425
-11.589149 -7.704945 106.526711
8.169359 -4.678314 24.824942
13.569227 3.949387 31.604218
-1.064145 5.144261 109.278839
-8.698516 6.048400 54.164696
11.680329 -9.474575 50.927071
11.661272 6.230212 70.602119
17.506819 -6.458586 78.395203
-16.946178 2.399880 68.640297
6.072664 0.016000 32.098526
-11.120438 -8.328629 101.440300
-11.286016 -11.909343 90.256126
-13.729804 4.434855 43.067848
-6.051360 2.987427 40.510536
12.800588 -8.143707 78.578133
14.382512 -7.240285 65.124908
-10.693811 -10.059654 54.691284
6.668487 -0.812790 16.185631
2.296228 -9.015032 80.268341
7.353089 -3.930339 38.494568
-16.835491 -1.917129 33.631271
1.637253 -9.865469 95.175743
-2.676405 -4.606580 67.341805
-10.541517 7.508511 99.929840
-3.940455 8.399409 101.116638
-1.109027 -3.022430 77.043999
-10.459645 6.149486 86.931061
11.010157 -4.019702 20.062017
13.357814 -11.686657 94.176567
12.491907 7.032537 13.079271
-13.023841 0.765248 83.751060
-8.391119 3.405443 17.966757
8.509192 7.592995 67.364830
-11.939138 4.947980 79.719185
-1.720379 -11.178947 94.388245
-4.316999 3.957621 79.908508
-11.272001 -9.858953 98.471863
13.010915 -9.684199 52.327358
3.021449 1.712220 47.806480
9.863663 4.516288 44.637882
10.071120 7.253307 24.620623
11.960966 -10.467476 87.893288
0.701704 -6.860322 86.892517
11.821297 -1.199541 43.821815
10.157892 -11.402267 79.860130
3.443564 9.407674 97.509903
-1.382592 -6.532130 75.877182
0.664395 6.300841 101.954155
-14.254367 -9.091753 93.973808
2.177862 -3.373661 64.564064
-16.846699 4.245371 72.266792
14.085529 5.082076 32.334454
11.331974 -12.472701 90.656166
-7.010525 5.743036 108.710556
-15.558102 -7.934744 97.142593
0.113169 -1.087297 78.705956
8.902506 -10.492146 87.397659
11.316187 4.817886 28.154243
-18.757376 -2.358558 79.844971
-6.473710 -3.163175 31.987898
7.053290 -8.172486 46.900539
-3.954393 -10.618255 92.011192
5.705867 -11.932204 82.458771
10.101147 1.124560 110.918983
-15.204080 -4.835237 46.056534
-4.466221 6.528677 61.817844
-17.799719 -4.404308 88.530045
14.297425 -11.510256 78.310181
3.277620 6.833016 83.828217
-2.755065 5.116173 108.930237
20.035154 0.238553 88.165955
16.042263 -7.600867 83.731010
11.411871 -0.946800 104.502312
-13.163578 5.002512 59.206177
0.605828 2.345238 78.216965
-12.087790 -11.407109 109.236099
8.958473 8.892275 85.277550
3.423465 -9.389850 71.770332
-10.734118 3.473900 106.473053
-8.079000 8.683472 78.692421
8.948379 -11.424514 105.253937
4.555830 9.159509 105.269135
9.670591 -11.686002 80.002678
-12.569664 6.944977 30.999338
-8.090028 7.908999 89.838959
14.420506 -3.336509 14.278939
-2.986138 5.928496 82.864464
11.297475 -6.449556 35.687817
3.639480 6.092621 104.945587
-4.892630 3.689466 107.358971
4.187330 2.442154 36.497570
-13.785463 2.468877 87.199631
-6.505834 1.543495 44.188389
-8.866911 -12.937948 81.456741
-3.718218 -9.626859 61.257015
14.292500 -11.192469 85.741219
-12.717162 5.133459 104.265793
-15.813653 -7.115900 90.379997
-14.459407 4.622509 49.671017
-8.971786 -3.496390 29.009502
12.134855 5.480308 10.671722
5.849879 -13.714293 91.824211
-16.822916 3.609550 67.886703
1.885157 0.900355 68.904045
13.370956 6.925104 64.665428
8.794797 -11.547744 96.701996
16.199999 0.921217 31.464783
-14.002108 3.127429 69.282715
9.185672 6.131080 33.408913
16.999100 -8.036793 77.220055
-13.050684 4.412324 57.016857
16.438795 -2.820595 16.511005
6.935854 9.125558 106.046959
-5.739656 5.360394 66.704628
0.393079 6.416654 87.894470
-1.721877 2.767323 110.159950
-11.409150 -6.964259 102.126678
-9.605685 -9.576509 103.472672
14.533108 -8.945957 100.600578
-9.656017 7.193495 70.117233
-14.560792 -6.123969 87.109848
2.554452 1.968885 72.773071
-16.506981 -4.552535 36.101696
-9.556836 2.555034 50.463291
9.562298 4.586331 29.451059
-11.031301 -4.879170 39.725494
4.608541 8.227139 100.964218
-17.134386 -5.644048 70.573372
6.660163 6.934801 105.026253
-4.080539 8.598561 103.238998
16.472107 3.643595 70.488609
-6.083879 10.680408 80.639618
18.559008 0.109051 86.403259
14.487749 2.445786 88.313240
5.757873 -8.966224 58.272224
-4.974613 3.279833 75.189316
-2.756818 -12.190699 98.620384
-5.043963 -2.567193 33.091419
15.595118 -7.139928 57.728863
-0.294489 -8.714331 82.233864
-0.663150 2.870589 81.734879
9.440727 4.669255 11.190086
5.781998 -11.553189 77.275932
3.079380 -7.939089 61.178989
-11.594234 6.018362 14.117307
-1.190636 -6.460019 77.540916
0.245581 2.895276 82.778419
4.406834 -4.670891 48.883240
14.538783 2.869297 99.954361
-13.189960 3.129553 87.752235
13.826267 -11.135871 92.428963
12.318663 -9.248475 88.439339
-9.935421 -11.238900 51.392914
13.830072 5.318034 67.279182
-17.247135 -1.092488 56.459946
-4.639160 0.577981 32.051399
-19.861168 -3.136166 60.947716
-16.455408 -2.650735 80.869438
15.053237 -9.439079 66.060127
14.181346 6.606485 29.963346
1.588851 -11.190338 96.635666
-0.588859 3.108275 75.504814
8.232675 8.042144 69.936119
-4.095081 -12.443219 69.131554
-16.366489 2.699458 40.059708
14.199173 2.961967 28.895660
-2.593657 -6.354877 76.826828
-19.091986 -1.506360 73.083092
15.134716 -1.325375 39.694126
5.865667 -6.598586 47.796272
8.431030 3.741311 23.744835
-2.428952 -6.201227 81.532867
-6.024802 -7.430937 47.758476
5.110083 5.294084 66.153175
0.562073 -6.678623 80.211105
-10.787304 -4.451527 24.113802
-14.595712 1.464091 49.574406
3.470098 -10.678061 96.268005
-8.992801 -11.048183 97.994873
-8.342612 4.587520 34.648083
-18.403662 0.405251 68.038719
8.540184 8.959527 106.903069
15.004359 3.953272 41.965466
-16.154285 -2.759611 25.505466
-5.743645 1.564867 60.712940
15.777960 -2.404990 23.652897
-15.153427 0.396112 98.485825
-14.131897 -0.329816 13.284706
-9.428923 -5.889910 18.947807
10.796038 -4.146900 29.044220
6.327593 -4.159602 21.017597
-15.951450 -5.387163 76.005013
10.386991 7.634417 39.936565
-8.109435 -10.613522 61.431324
9.877098 -12.064819 89.362015
12.702181 7.642804 63.744534
-11.924690 -3.421050 20.658543
-1.342483 -8.553471 83.021622
0.595338 -0.938869 82.006943
4.146757 3.126312 65.833199
-1.983075 8.876874 91.353752
16.712135 2.560651 20.127890
-8.767256 4.279245 21.154697
-11.496353 3.704719 61.942532
14.589573 -6.080710 56.806721
-14.627361 3.913515 82.829010
-7.086833 3.913261 69.050285
15.685702 1.834986 38.212444
5.147685 1.589412 51.120686
-20.468348 -1.942143 69.934883
14.853678 3.735545 47.924667
-20.691225 -3.104111 91.136307
-12.792684 6.041532 80.034317
14.131700 -3.493574 108.761978
-17.127342 -3.860774 58.689102
-4.513816 -0.837769 37.791935
12.899595 -5.439559 105.961090
-5.437515 -2.327655 39.543457
7.953224 7.145474 26.642170
2.022982 9.150930 91.714066
-13.668526 -9.798262 63.491337
-13.530672 5.251990 15.527030
14.220277 -7.836345 60.695656
-11.576749 -10.789928 95.186905
-8.034694 -11.766611 106.088272
-12.189206 1.472906 111.272926
-10.358349 -3.776076 25.577738
-8.415912 -14.318934 101.293953
7.182740 4.478128 33.911514
13.185154 5.461311 71.872658
-19.076488 -2.437282 77.225510
0.759699 -5.082227 73.203552
-14.324276 -5.520505 47.004997
-6.540524 -12.237527 68.888535
17.206509 -3.516138 61.944447
-15.981292 1.814395 35.090759
-14.621258 -4.693294 16.043877
16.239765 2.522798 82.388191
-7.541492 0.013982 25.024946
-17.576767 -3.262500 75.475464
5.770356 -10.722997 65.773796
15.279476 -8.956923 103.099739
-15.311955 -1.932940 41.282066
13.185265 6.421786 26.195328
-6.316190 0.764205 24.840017
-7.157121 -12.158699 69.558144
14.541710 0.647464 21.848940
10.183529 6.287630 105.915405
-13.208517 6.348022 27.098797
1.158287 5.819717 108.253578
-10.997339 -10.016569 60.079670
5.217682 8.364021 80.028000
-17.850607 3.188395 61.308525
9.486668 -7.938468 44.657570
-11.598271 3.374494 93.960388
9.329979 -4.948593 26.155109
4.810398 0.112352 29.776814
13.858979 5.030928 87.636337
-4.811099 9.280652 88.549149
10.699875 6.831633 73.931816
-6.626000 -1.298783 33.135426
-9.619257 7.191797 34.164871
4.923595 4.858151 102.880852
-12.365260 -11.714832 72.487488
14.813408 -1.230224 43.042778
-15.201145 3.805270 76.998047
3.741644 -13.905766 105.580231
12.672357 6.561100 47.443272
-5.538669 -12.529840 87.851997
8.598808 9.380636 76.571465
-3.268492 1.523219 54.709145
-6.855100 -0.247938 35.705486
15.101034 2.342734 20.558880
-3.068597 5.306480 86.594498
5.157623 2.209809 50.673595
15.710124 3.922411 85.289490
14.372431 4.617798 49.653141
-9.419945 -9.108177 90.237518
-11.517869 6.202754 38.192745
-18.057989 -4.146734 85.465454
-16.155001 0.960780 14.289567
13.865545 -9.529613 96.191933
-6.209248 8.526829 99.041489
-5.942923 -7.960384 48.920963
14.521755 3.131283 91.243309
8.955103 5.200928 14.261106
-10.351514 -12.149706 106.293953
16.057770 -10.192871 75.186119
14.236316 -10.642089 101.901268
19.799274 0.252251 79.055046
12.722845 -6.941057 47.776001
12.213648 -5.433756 106.962173
-3.064256 -12.091412 75.548691
-8.987756 6.108329 25.392025
7.898592 -0.576935 14.716478
-10.926846 8.836812 91.018005
9.967084 -11.900729 78.124634
-11.011123 -9.797897 58.321293
0.382006 10.541492 94.914047
15.438018 -10.868134 76.839088
-16.180397 3.640971 40.575573
11.955038 6.997083 67.345932
3.576570 -8.333261 81.385925
16.297798 0.545693 90.211151
-15.201086 -4.352385 28.803055
-2.956415 -13.890166 103.519737
15.162917 3.662551 57.556431
-11.585649 -11.862189 90.830162
10.396275 -12.501934 85.972527
3.536121 0.034381 53.402874
-6.868723 9.253171 84.835419
12.580156 6.016937 77.681648
12.679823 5.365233 10.583611
11.692419 5.192348 35.834423
-12.627980 5.458833 24.546053
11.864558 -8.658007 64.515770
-1.665535 -4.211611 56.673378
-10.947495 5.649641 74.396347
-13.620497 -6.538993 65.324577
-14.136333 -1.149973 102.325951
15.754390 0.655969 100.785385
-3.599745 10.624803 88.600945
2.601520 -4.271992 64.673058
-4.399584 -9.973612 82.042526
-14.346638 -11.509631 93.276199
9.727048 -10.521132 51.685543
-16.776665 -5.505852 101.072838
-1.408477 -8.225407 70.886581
-6.172363 5.476405 25.706114
-6.378792 -12.226731 67.471672
1.891771 7.537204 108.452141
13.207754 7.053021 46.343483
-14.678634 -6.092131 104.971107
16.048265 -10.471198 58.724667
-5.169940 -10.091854 82.348701
-2.035929 -1.664858 61.100555
-1.808985 -12.447639 89.166626
-15.892763 4.121056 58.869370
4.524541 11.594432 95.134048
3.546695 1.285311 39.933140
8.604316 -1.879211 13.342732
6.727973 5.034196 56.503376
1.263628 -1.574864 65.770164
11.891665 -14.534152 78.601547
15.369854 6.503663 54.100960
-1.175009 -11.473552 102.646332
8.813634 5.634980 54.926579
12.487178 8.900092 51.784309
-9.860205 -10.015813 63.910057
14.527564 -10.944887 67.712639
8.281616 -2.499876 30.223982
15.069616 -9.331825 74.032578
-0.148674 6.968954 107.964417
21.521175 -3.777331 79.371506
-8.777693 -1.979235 18.138769
-15.643755 0.849394 52.306622
1.759335 -11.639896 97.757713
-7.419443 4.575459 37.015121
-9.497509 5.870556 24.034628
-6.792044 1.916394 13.389712
-15.240860 -0.327778 21.527174
-16.332476 -0.309290 92.823700
-15.936131 1.719606 48.771740
-13.790812 -5.833964 51.784393
-15.852713 -1.547610 24.928316
13.146865 4.234919 18.186642
-4.586995 -10.532258 80.011452
0.038116 -6.635230 86.382469
-14.475050 -2.149139 98.895004
3.036070 10.067022 90.078522
-14.440150 1.193574 18.503799
-16.804388 -0.883913 87.107903
6.062535 -11.960581 81.034683
-10.645387 6.344217 51.878109
5.644882 7.349845 72.234535
-1.505539 5.804077 73.962990
-3.704393 6.941572 112.000031
16.679050 -6.748375 76.229744
-11.633039 -9.140932 61.095978
-16.310932 -2.415649 102.251610
3.349860 -10.958999 92.724899
-4.958176 8.773219 102.731171
1.391686 6.751335 108.488022
16.854786 -3.893359 74.794571
-14.954187 -4.385532 54.884762
13.058388 -8.525758 49.875240
10.499155 -9.668849 71.370079
-4.651813 0.677111 67.871323
1.456721 -2.312748 30.654966
8.451735 7.290418 76.485779
-14.996359 -8.987504 82.945053
8.983852 -14.243944 99.456161
-12.771846 -3.604005 35.930946
8.532148 -9.256799 54.480183
-6.789411 5.563895 59.872707
19.020359 0.838517 76.542557
19.670223 -2.683253 76.727524
11.114672 -0.278782 105.400406
-3.536519 -11.402288 93.853798
-15.156775 -0.063603 18.093111
-4.293683 10.041191 87.323463
-16.039288 -0.186104 29.940697
-8.353626 1.379708 21.567179
3.723196 2.442724 62.480564
-16.743793 2.732147 68.549019
8.454134 8.825271 97.497688
-11.996951 -5.608674 16.825426
6.942745 2.152153 19.847286
12.644428 5.602446 55.148991
10.812637 -12.040575 87.285439
-11.277196 -10.433658 74.800797
14.999890 6.967931 72.005615
-8.266846 -7.942616 58.262794
-10.298182 -11.363303 53.426193
8.769982 2.669878 111.974709
16.549435 0.335719 87.415855
-1.332478 -4.431993 71.805099
-12.609336 -2.830457 108.050591
6.040626 0.514396 22.318169
8.263499 5.660840 49.200569
-15.632136 3.844727 65.306595
-16.474642 1.218798 20.517756
2.078700 -7.867851 80.829926
1.067429 -1.085199 64.055222
-14.700212 5.154682 22.537386
-8.500341 -2.279501 12.980447
6.053144 -12.336975 65.507698
-12.863865 -10.549333 79.351204
-0.179994 -1.384799 72.761536
17.205236 1.109221 84.975700
-6.001912 2.973213 47.618008
-15.860858 -1.883609 51.427830
-7.341347 -14.270867 79.106483
-6.329818 -11.216026 91.643524
-11.817125 5.179685 51.817055
-10.177623 -8.979724 50.804401
1.604372 10.953498 96.474457
11.808431 -3.176223 107.518303
-1.053636 5.103436 86.238937
-13.432994 -9.961224 61.269844
-15.620076 -2.814292 82.807770
-16.575903 -0.469869 73.184029
-2.600743 -1.231653 58.542004
13.610030 -3.748700 108.192810
-5.032619 0.466605 38.495331
-17.027281 -3.066448 81.321571
-3.596509 1.140643 43.888943
-11.995709 8.163940 79.593567
19.038824 -6.674167 71.878891
11.535023 2.374222 16.701195
0.403750 -1.237663 77.443283
-12.439180 -13.501617 74.462807
-10.904019 4.370452 44.883884
-12.642712 6.373347 42.578186
-0.386199 2.090951 80.379440
17.587238 -4.765170 59.118149
-5.948060 7.069183 68.516464
-6.008231 2.223960 55.410084
-7.932303 6.947736 50.427544
14.744243 -6.082548 96.983742
-11.145540 5.227305 42.403042
-0.043732 -12.189982 105.883522
-14.824739 -7.284304 90.257042
-10.797896 5.658489 38.035873
-6.464021 -4.188097 40.008316
-14.169510 2.931255 11.749825
-13.673778 -3.755400 31.234936
16.277241 4.971752 73.958443
14.172660 -8.383167 58.455715
-13.356962 -3.083015 98.927788
4.033264 -0.308361 53.064449
-15.371016 -7.495140 91.314827
14.949133 3.424125 51.703133
9.629265 6.997842 92.224518
-3.863500 3.563582 60.746391
4.816806 3.614339 77.769547
4.281044 -13.257656 84.691025
-17.721113 2.231212 62.751106
-7.321702 -0.666817 14.016345
-0.688684 2.253541 80.881210
-16.096327 0.766004 84.248436
13.655350 2.464490 23.860670
-0.445073 -10.600610 80.835678
13.855158 -12.122688 99.899612
-2.436416 -3.255680 70.248642
16.460987 -7.165471 54.886192
19.048712 -4.458911 81.896194
19.013697 0.849549 73.095581
-4.688383 -2.164825 38.174938
-11.945151 7.089459 22.884357
15.504574 -2.429698 39.609383
8.051606 -5.054369 32.153648
-8.355489 -0.641565 12.930307
10.612556 -13.930456 84.242554
-12.362817 2.596955 68.835182
-16.488684 -2.705629 93.906242
-4.174864 -11.504495 62.012562
-16.234043 -4.052138 68.745560
-10.488485 -11.560936 54.144783
10.354035 8.646084 68.277008
13.040980 4.267005 19.993893
4.238383 -9.074405 85.722786
12.965463 -5.759841 91.204865
12.176476 -1.826289 11.815110
-10.669745 -11.577799 75.057739
-4.492587 -2.411623 30.723183
5.524998 7.520754 77.908203
3.149977 4.445589 63.188587
6.026155 -12.932539 102.834122
-10.944068 0.582451 104.245819
17.535027 -6.278578 73.825127
-4.009360 -6.297670 52.136509
-16.510315 -1.392507 41.890934
-11.633863 8.930285 70.398727
15.500971 -0.118870 20.072388
17.431999 -4.836996 89.019501
-0.153051 10.003809 96.546967
-17.052387 1.097603 79.468079
-18.937841 -3.176404 90.809593
8.798407 5.683678 48.749504
-2.023930 0.853076 41.952991
-7.621255 2.857310 10.827597
3.566511 -0.068681 48.550674
-13.126605 -6.432486 40.153358
17.581450 -8.594151 71.073288
-9.424736 4.862854 15.344910
-0.737413 -1.099337 68.935135
7.583190 9.059478 93.962357
6.030781 2.747621 62.074516
6.691619 -12.733990 102.207100
-13.936908 3.164195 72.436432
17.011045 -3.484787 66.399559
14.118877 -11.834144 71.893143
-3.757729 -12.680267 99.348885
5.516641 -5.516773 41.862064
15.304890 -1.320353 13.849339
12.001437 -7.038985 42.016994
-16.372972 -1.480864 49.595444
-10.714718 2.127775 106.912880
0.446814 5.986798 109.675026
-5.112977 -1.334070 23.028376
-16.900984 -3.690560 49.459099
16.493900 -8.576778 82.002563
-20.041649 -6.118230 77.211975
6.639326 5.508764 39.140556
-11.394634 6.219599 42.494598
-0.022187 3.057788 83.807709
-3.277583 -13.524233 104.325058
8.785940 4.872247 22.069853
-10.530996 5.362568 45.204422
2.644731 0.368135 44.761051
2.056040 0.845669 45.568638
5.608210 -3.713928 55.651478
-4.273771 -12.325695 82.814224
3.220540 2.613978 64.614983
2.516042 -9.850480 71.514748
10.215790 6.757761 67.824516
13.611831 -10.452791 89.506271
15.960831 4.309629 17.037439
-17.820951 -2.178030 96.776199
8.960574 -12.155381 95.930450
13.207143 5.715572 53.021248
-18.300278 -3.028055 69.665459
5.539485 -5.725617 56.268047
6.955871 -11.667070 65.304970
-14.945353 2.476362 90.395332
-12.651131 4.140750 85.383926
13.638553 -9.268497 45.199867
3.947072 5.313114 109.520203
18.996107 2.102498 32.756123
-17.581400 2.258941 73.619614
-14.429067 -7.428541 59.543056
-4.695167 7.958357 104.882072
2.014814 -8.790842 87.944855
15.686946 -1.953499 36.956646
-10.469428 -11.057304 62.408810
9.616434 5.510165 12.494545
7.983555 -3.611234 31.356991
12.457902 -0.790098 111.230682
-9.688617 7.888991 87.867477
12.589891 -3.255638 29.042437
-8.475565 6.798905 101.622749
-19.625135 -1.309052 76.349442
4.887885 -10.530264 72.282516
15.982473 -0.459736 54.076191
-6.899685 -12.812696 93.611046
-13.689730 3.205511 104.862968
-1.513695 6.861754 109.691307
8.167459 2.363405 53.954170
17.025240 -1.218897 83.858459
12.878038 -5.777411 44.474533
-3.275506 -7.249419 62.405853
5.263669 -1.514990 23.845737
-7.630261 5.673468 41.107002
-14.686010 4.449292 34.652607
-6.321326 3.414335 31.862560
11.997004 -5.263311 11.775158
-6.992393 5.847699 63.775257
-9.137922 7.566243 38.703571
18.024084 2.527506 77.614113
15.468502 2.283448 72.901482
17.186882 0.139647 31.805775
-18.133076 -5.708148 79.312714
-4.912707 0.443545 36.448124
17.173746 2.604850 64.078629
6.951083 -0.414415 19.066734
-12.556856 -7.753747 110.101204
-6.973847 1.546401 20.929321
-0.223342 2.104563 82.640976
-8.397335 -4.785569 38.556736
-8.416644 -7.114323 49.611916
11.440323 -8.729035 102.011581
-3.255551 -3.665733 71.532471
5.735856 0.523531 34.450825
-1.438523 -7.175648 85.100380
17.680269 0.217049 80.410828
-13.239094 -4.799489 48.825829
-17.275362 -5.040449 79.915321
17.311678 -4.840762 92.827415
18.543556 4.261298 81.842125
5.311379 -8.745625 63.393726
19.285440 -5.394904 88.731491
-19.747229 -0.825840 61.173702
5.946951 -7.130605 51.709862
-10.741471 -8.505975 106.189560
-10.255997 -10.029101 64.495781
6.829463 9.824831 96.649132
-6.113141 -9.624173 80.261093
-18.603451 -5.799868 82.073219
7.183324 8.373645 102.328598
-0.955313 2.389697 64.653763
-15.136078 2.330683 95.070740
3.779375 -12.611604 107.616295
-5.039508 8.069880 85.382706
16.167177 -0.300902 33.470833
2.753676 -5.563168 64.091797
-7.216998 3.122451 47.162830
6.718120 -11.593137 68.371254
-11.693970 -5.940387 42.051933
5.990889 3.733626 10.350439
-11.081190 2.535615 61.398006
-4.479067 -10.776213 77.750229
-11.226878 -10.010060 71.500542
-15.816158 -0.467498 90.898582
7.954442 8.777771 83.299889
-13.817352 -10.718494 68.233788
-18.480410 -4.999037 84.119072
-5.192035 0.744866 10.458775
15.524199 -4.444678 104.730591
-11.884006 -1.766805 109.089836
-2.884286 -5.923803 66.601746
-11.154406 -8.913010 104.348907
-0.582764 4.137198 89.695709
9.436712 8.330835 60.388885
-16.379789 0.627582 92.766266
11.641840 5.105886 51.529255
-8.548214 3.364194 22.697504
-0.592471 -11.221579 96.592545
-18.870552 -0.500292 74.861847
-8.495018 6.328825 22.935942
-9.772626 -12.038121 92.061363
-12.787561 -12.898211 91.590073
-10.738827 -5.697947 22.538843
-18.303839 -4.930118 52.516544
-17.012268 -1.256860 31.008524
-2.859851 -14.032541 102.761139
-4.693298 8.795184 105.821327
4.819865 -5.703108 42.055984
-11.638434 -13.515977 87.221031
19.314356 -2.589208 92.197098
15.685108 1.923228 67.635017
-12.565569 -2.306296 110.064583
-4.989523 -0.896222 52.489079
14.481358 -2.952101 101.761894
-12.713871 6.644112 12.467895
10.567158 7.130765 33.607731
15.019925 -11.921055 66.228477
-4.734343 2.298599 76.299858
-6.868547 -0.205608 10.859297
-20.532734 0.735940 86.749290
-13.754045 -5.066908 48.606800
-17.128538 1.316980 66.257309
-10.436979 -11.504617 80.916840
0.856605 -13.757706 102.273994
-9.518487 -7.515304 104.395691
-11.472803 -6.262011 37.966896
2.117635 -0.724780 73.352486
5.753141 2.629822 47.114109
13.032117 5.868247 21.624359
-18.769188 -6.518989 69.290268
-10.287984 -8.840157 104.774071
-18.436253 -2.378344 86.412758
-15.224479 -5.164052 79.036301
-6.090186 2.641315 57.316769
-11.710405 3.735899 85.831085
2.114805 -11.566984 83.165375
-1.667752 1.871967 86.491638
16.214846 -7.117152 86.923370
-1.631227 -11.648937 107.483475
8.430651 -10.515551 60.118160
16.826668 -3.509818 88.021469
-18.192671 -0.978883 24.140873
-14.055830 -6.334997 30.285038
17.287542 -8.232557 83.543854
-11.075881 5.435299 93.725861
3.033883 3.167296 64.318390
-12.821299 2.223279 14.019361
13.950860 -11.498246 68.069740
3.185892 -5.030115 64.066467
14.288413 -8.645704 59.028896
13.616544 2.275134 45.344456
-0.121249 -7.729411 81.119728
-7.509794 5.700486 28.850760
9.061753 -8.072741 44.144245
11.306906 -6.877109 31.694641
-3.930347 -0.995270 58.079048
15.681370 6.010384 41.302456
0.464427 -12.043310 101.815369
12.987991 -9.404289 83.355988
-4.188340 5.036268 70.134926
17.582253 -0.017325 61.989925
-13.858050 -3.382806 32.957832
16.856865 -2.399973 67.157150
-13.430199 -13.079763 75.770203
-1.072089 -8.523031 80.914772
-4.179769 2.209872 49.770096
10.517215 3.221152 64.668694
-13.300183 -6.453297 27.198767
3.646430 1.186390 42.783909
4.248474 1.846683 63.899860
-7.814433 9.517959 88.376778
8.053773 -7.379007 45.825520
-15.426088 -9.005661 74.531525
1.036637 -0.880548 55.272511
-7.584254 7.596125 107.876091
6.727715 6.737907 107.973259
0.340371 -5.023848 79.594177
-12.814083 -9.588416 102.765274
6.411892 6.046290 34.527096
-5.050691 -9.984818 65.040375
14.432817 -6.346454 32.558270
3.830853 5.608988 70.653229
-8.991633 -5.865391 18.577562
-6.654230 5.125730 78.463646
6.259357 0.115543 33.940277
4.538748 -9.839200 66.510902
8.961717 -5.295751 35.793301
1.317804 6.467460 87.333008
8.830194 -6.546788 35.114391
-3.718853 12.294243 90.338715
-11.555625 5.926474 76.892128
-6.292094 8.599179 100.170052
-5.082805 -5.075705 48.752697
-7.638729 -0.830173 24.694027
-0.261617 0.399142 78.271805
6.264814 0.685109 25.005781
-0.438260 -0.406399 82.462540
-7.067142 -6.441616 25.382658
12.839374 5.189034 64.436951
12.546515 -3.534556 107.013435
8.534690 1.666818 110.700043
-13.442657 -3.003902 33.029922
6.092976 -7.396291 64.089638
13.439669 -7.884130 103.095154
-12.432142 3.388064 96.029457
-5.117933 -10.665176 50.781643
-3.699917 14.485484 93.415771
-6.311391 -14.059614 99.990295
-6.765023 7.093625 64.015915
12.962399 7.478713 54.961761
-17.309795 5.052156 65.465309
13.727376 0.467229 103.705040
-15.349714 -6.834665 74.695427
-2.783792 -0.887557 57.722347
14.968963 2.567037 91.976189
-8.009831 6.169918 25.156683
-11.628742 -10.130993 47.354614
-5.450969 6.548579 76.603844
7.939353 -12.267914 74.090355
15.717853 1.539102 14.093397
-7.152885 7.243145 74.330116
9.093242 3.249943 26.849731
16.705753 -2.217486 89.950577
-15.115938 -8.143798 86.820854
-17.240580 1.065333 76.207611
-11.350767 1.026149 108.412941
5.232088 7.542192 82.422882
2.283614 0.550425 85.960144
6.971230 10.023794 95.824181
-14.054879 2.612107 15.345193
-5.656943 10.399599 97.080727
-11.156399 2.998726 56.213722
7.961743 3.231712 14.986320
18.418503 -1.633101 87.484337
3.083229 5.280534 79.849701
2.751414 -6.814959 62.365120
-13.716301 -6.450747 20.307327
7.498661 -11.396232 54.838364
-2.738406 -8.659074 54.974922
4.098210 5.414496 109.907333
14.659891 -7.127644 55.579941
7.196108 -2.586958 30.962503
-14.666729 0.476474 105.059906
15.881344 4.485355 60.808720
14.517580 7.628355 42.363953
8.819042 3.252839 30.509665
-10.840690 -12.975606 95.186935
14.525917 5.001872 78.289001
5.289102 -11.874508 88.654366
-1.485666 -15.871921 107.594261
13.329409 -6.324557 102.991814
-3.147776 9.154674 98.999115
15.082730 -6.942605 97.002548
-11.428505 -11.395638 80.645744
-3.755953 -1.681221 62.058319
19.299887 0.297793 66.022308
0.679177 8.069624 95.953278
-14.925139 -3.811174 62.327232
-11.530294 -8.974405 101.081001
-10.645081 -11.000894 104.833328
-16.521374 -0.087018 35.715775
-6.179970 -4.928867 32.974411
16.186607 5.726568 18.686914
15.077376 -6.725871 56.482929
15.651673 2.491110 26.484518
7.958606 10.147156 89.274277
-4.241855 -8.498119 93.707390
-10.754764 -5.365821 19.208948
9.890082 -10.765703 101.042648
-3.938574 -10.738290 100.180565
-6.195987 -10.711127 69.513123
16.606426 -3.493196 60.260792
2.984169 1.830308 65.740044
-11.385055 5.654934 91.141754
13.602697 -0.405394 52.299957
-13.853105 6.965690 33.889698
9.984843 -6.650041 20.546558
-5.472970 9.993967 93.077690
10.648359 -11.056007 96.839760
10.620914 -11.441461 66.734299
9.698413 -9.793324 54.663784
13.582440 -7.642609 59.953850
-2.853004 -8.147750 76.003662
11.256102 -5.926974 32.439308
-8.881474 -11.470582 82.443954
9.856389 6.472087 54.143860
12.560209 -13.082395 68.216103
-10.545353 -12.217730 82.032967
2.385473 2.693495 64.492622
12.019702 -7.542892 47.376263
9.242918 9.570793 92.242554
-4.482770 -6.107755 54.531586
17.725965 5.446805 61.436428
-5.219604 -10.978951 69.109764
3.142501 -7.222795 72.044136
14.046876 -8.220915 109.726555
8.418654 6.636047 66.792229
-14.400809 0.194408 87.739395
-7.880508 -8.848428 49.395241
11.147152 -4.150241 17.097132
9.234603 -12.216079 86.756310
13.643956 -10.821982 75.568199
12.335881 2.141386 104.826538
7.512354 -11.943318 103.121948
15.800156 -4.935105 58.794205
-19.789221 -0.400275 58.418110
-6.122943 5.084188 110.173553
8.927363 -14.066319 82.227036
6.758948 5.605728 13.554985
13.268866 -7.775033 95.485771
-0.956670 1.275269 58.574074
-6.513194 -10.974662 57.997242
-14.371420 -1.302095 94.087181
4.695147 -10.255082 73.717262
18.183624 -4.904324 72.884239
9.618616 -5.952511 25.913231
8.762193 -11.886313 81.032188
-3.916411 -0.012302 32.882538
8.867467 -11.411458 87.959908
-7.260400 -11.628636 53.387287
-9.278787 -5.459874 8.381882
-10.792165 4.145574 34.372482
14.775725 -1.036269 45.088017
2.934401 -10.599255 103.056770
3.017571 -9.996473 82.989975
13.004979 4.205426 13.577042
6.337009 -0.855941 20.785742
12.608065 0.670235 103.544106
-10.816554 -4.914107 18.499018
15.347026 3.999961 50.131649
-17.060020 -2.710077 54.390362
7.952952 -4.723886 38.003090
-5.296229 -0.853195 47.445362
11.376195 3.655191 84.342049
-15.237493 1.948558 23.450008
12.547078 4.338409 10.618642
5.143049 -1.619973 21.679459
17.915928 2.982406 59.995914
-8.524661 6.513011 108.322990
3.802051 -5.134030 59.800293
-13.891000 -1.872467 106.114891
11.836231 -8.421334 52.973980
-9.485057 -5.782034 20.597189
13.707571 -14.909889 93.584091
-1.789981 -5.238887 75.527542
13.256084 -6.418911 52.358959
-14.850212 2.958213 50.248249
17.846935 -5.284022 95.350998
8.189538 8.095846 103.184212
15.863306 5.306500 53.095688
8.959298 -10.714122 99.059418
4.649789 9.139238 88.787117
-8.208931 4.519834 9.925372
-10.415521 6.520719 91.561127
6.911754 2.833240 26.986544
-13.094876 2.698352 92.847633
-4.313943 -1.683535 55.446739
-0.990467 -6.999188 87.064026
-17.417881 -4.945500 71.846313
-6.872252 0.559345 9.582256
0.684561 5.183580 110.354286
-0.280751 7.039131 101.942398
3.011518 -1.096892 41.583725
-7.461614 7.148166 83.097839
2.589942 -10.858119 95.571899
-18.300943 3.598097 78.800751
9.306081 8.079071 97.099030
-4.282065 -7.877191 70.084450
-0.357049 4.907086 87.107742
9.791436 1.478853 110.315567
16.277689 -2.589799 87.273834
4.717042 6.768313 84.325073
13.700171 -9.977078 94.762001
17.212917 -2.708966 67.511940
3.466872 2.462491 53.788990
16.544821 -0.719947 94.856354
-10.025336 5.501413 108.369141
15.150452 -0.841364 35.006466
15.179154 6.324437 57.048584
10.771102 -9.938869 107.575172
-4.258682 3.777179 44.502800
8.851673 5.188099 27.916880
-18.286682 -2.296891 67.406441
-11.345227 6.813698 30.925127
6.869809 4.919039 62.906078
-0.321939 -2.195359 75.759941
5.574509 -10.635966 74.769676
3.675497 -5.319426 42.431290
-9.677665 3.331786 52.756008
-14.487714 4.417857 51.400635
-11.984866 5.980430 87.972115
-12.638738 -10.447592 72.395035
-10.726707 5.700908 30.165941
13.252006 -10.841580 78.660896
-15.044781 -4.686893 37.849659
3.142652 10.513295 94.512283
-11.430634 -7.851732 44.947166
11.352918 7.974043 61.858986
-12.157724 -7.948352 61.592659
3.500459 -10.134872 71.271629
15.619816 1.488232 37.321774
12.685691 -2.022102 17.777126
9.286588 6.586759 58.226570
13.261797 -6.660330 61.359951
5.589399 1.728935 27.894482
-1.410745 -6.550523 69.037323
-9.681042 4.717128 77.794342
-11.603493 5.833736 82.881325
-15.411592 -8.468112 86.177406
-19.091923 -2.896803 73.733765
1.726527 4.391613 79.743881
9.820143 -11.054617 52.057690
-2.251348 -14.380048 108.851738
6.620494 -5.891280 15.944225
5.936344 -4.889502 57.372299
-19.774376 -3.165489 73.883209
-9.741933 7.445992 105.549385
-15.790103 2.128570 72.136818
17.638359 -7.902862 100.221115
16.511465 -2.489562 97.566582
-11.610359 6.398463 16.056900
-15.732676 -6.596316 103.763756
18.178539 -2.302994 88.121323
-1.829693 -7.283673 86.517883
13.909386 -12.694876 78.347527
15.240487 -5.708540 63.288441
-5.856174 -11.806922 74.861252
-6.503985 -1.684053 40.602165
-4.492029 -10.553696 81.814896
-12.086904 6.635563 39.660206
14.639376 7.450900 26.920382
1.600546 -4.162324 78.513313
7.141344 4.669528 45.122280
9.925746 -4.857440 34.738045
11.506424 -10.130548 106.564140
-15.299499 -7.408523 79.686623
6.004829 -12.910836 74.293648
-16.895947 3.523828 73.780113
8.545601 -6.176507 36.142803
4.983560 -10.172517 73.654526
16.933056 -1.552190 22.667850
10.326801 8.388502 32.273506
-12.802554 1.933178 98.001274
12.479758 -7.548030 48.471539
5.959939 2.538408 52.416916
-9.987695 7.436138 86.265007
-4.462591 0.090958 52.961842
-16.011351 0.824447 83.195175
-12.424218 -5.906833 107.881348
-17.554342 -4.577410 56.484093
12.802650 5.508131 93.040810
1.278371 0.982870 66.313156
-11.777799 -3.789922 14.276219
-14.361908 4.491811 27.520201
5.728778 3.742575 108.345245
-6.726626 -13.234086 88.222336
4.310671 7.941184 77.644135
-3.977654 -13.593331 90.618431
-11.371130 -4.992167 22.601229
-10.728400 6.335490 29.434275
-9.400064 9.037236 86.556602
-17.931646 -3.936372 67.631042
12.034925 -10.944237 76.429932
10.128170 -13.934228 76.002533
-3.094196 1.270817 48.319077
-13.967345 4.619664 70.153069
11.945220 -4.233759 104.802582
-3.689762 1.482177 69.457443
-13.599650 -8.843783 97.460564
-8.500440 -3.995917 14.607250
-10.705561 2.725346 58.003025
17.957369 1.193404 72.235611
-3.124592 -8.881246 74.568382
-11.553303 -9.296793 100.777802
13.266189 -0.081524 102.968086
-11.889703 4.971350 36.547962
-8.407964 7.383928 84.605232
-12.364998 5.396270 90.739204
12.174909 -1.821980 20.075539
13.002742 9.853991 14.881663
10.797397 -8.941160 102.747147
-0.552709 -7.112139 80.812180
-17.083809 -0.803170 69.652145
9.417000 -2.146228 20.134933
-1.234570 -0.317704 74.635017
9.077063 3.905739 16.103243
9.107778 -6.423852 31.538265
9.919474 -7.583724 48.880531
12.480975 5.596525 94.020561
5.817763 1.951517 13.995500
-14.797690 -7.157162 81.617683
16.110329 -4.953691 89.894600
-18.905907 -2.421714 79.176979
-6.148848 -3.920267 37.915810
15.465960 -0.898128 37.102081
12.358035 4.598010 22.530794
5.173632 5.379567 60.173264
-5.881778 -7.395057 44.106979
7.995587 2.149299 26.258909
18.461901 -0.197071 81.789268
-0.307232 0.311103 80.095177
-14.260337 -6.281589 93.738815
-18.281721 -2.148691 69.512474
-13.292210 5.115448 12.639961
-14.488931 -5.773667 54.527962
-16.047516 3.030755 66.961624
3.816753 6.621542 77.857643
14.260819 1.857537 16.485498
-10.192863 -8.844412 56.922676
15.941631 -2.697080 44.419632
-13.066150 0.276946 110.901199
-20.416388 0.074353 73.084648
-3.034756 -2.452368 55.218773
-14.898499 -4.325953 34.965424
-12.280171 -8.482635 99.636368
11.403925 -6.954650 32.174316
-5.856991 -1.363037 26.282373
17.417454 0.109195 70.651878
-13.677651 -3.697608 103.515739
17.091650 1.830619 22.165951
13.446117 5.070538 50.381313
-2.037106 -8.118617 86.210800
12.133080 1.600629 96.058891
5.424857 -6.306670 44.766716
14.793512 1.735432 82.648392
11.381980 -10.557174 66.068871
10.621994 5.677371 85.316597
13.798530 0.760736 99.266266
14.181808 -3.099777 51.973366
-7.031313 -2.068783 25.419701
17.366117 -3.115341 99.521690
14.909080 4.640258 19.409931
5.025773 -0.662851 25.962782
-17.570393 4.715262 61.110249
-9.718519 1.860303 109.402718
-10.271131 6.974147 31.221518
12.504067 -6.479782 36.786087
-4.871922 5.359195 73.138672
-6.051784 -4.893558 41.958569
14.841194 -9.368052 76.511589
14.098862 -3.529037 30.563437
5.273916 -3.203511 30.949724
16.054146 4.806710 63.659885
-9.753934 -7.308074 106.220627
2.948271 3.086303 60.259270
-9.086396 4.302154 57.346508
2.976479 -10.034386 73.964859
-4.874486 0.476740 35.567871
0.737873 -12.929682 97.603470
-20.480656 -4.414946 76.966728
-16.298597 0.380505 49.902798
-11.251996 6.526903 8.128172
-16.232992 3.695152 26.777674
17.342152 -2.534267 66.272713
16.150627 -3.503059 100.216446
-10.919093 5.092941 67.280342
-5.065897 5.112167 63.290894
18.400082 2.566267 92.976929
1.025745 8.403700 101.354126
-4.600893 -12.074925 86.644783
6.837229 -4.836928 36.385693
-12.176350 5.892422 24.217978
15.623043 6.077471 51.601051
-9.652215 7.271925 82.670891
-7.465062 6.375894 68.422050
9.239905 -4.797957 34.070831
11.612356 3.620682 24.396513
12.430919 -3.668314 111.002663
-18.648932 2.242515 33.989128
1.767520 -7.337821 72.347145
-0.822217 -11.727980 92.184708
2.871782 6.967102 104.487152
-13.248317 -8.150854 103.538666
-1.532656 -13.825611 104.867592
17.304140 -0.467126 96.847328
6.577303 -11.581903 88.459076
11.986235 2.146863 87.469635
-13.682590 6.382372 22.645252
-9.626980 -11.574646 66.417343
-15.600895 1.288477 36.282547
9.619465 -12.119495 107.391068
10.298946 -0.726974 35.491962
3.796555 6.910467 81.715759
5.051970 0.634518 27.845800
16.691624 -3.970141 61.170597
14.065117 0.208068 54.213036
5.273664 7.157703 96.826561
-8.648380 6.243371 14.720215
2.652849 0.102892 68.486862
-10.765450 3.945446 61.396397
12.751691 -9.293736 85.409836
11.153774 -5.426275 23.050774
5.886448 0.557857 29.307810
18.641390 -2.809852 76.300423
-15.345415 -4.899606 30.794886
15.004818 2.719634 21.460516
15.357162 -9.627658 83.052109
2.750726 1.086458 84.256416
1.137617 0.478592 73.272873
2.864536 -13.754905 102.883888
-13.242551 5.848467 37.490398
9.816430 5.130955 50.701229
-13.446340 -2.759350 95.394997
-12.111980 6.402330 14.401452
2.348302 -10.632648 80.223053
-1.013746 -5.917297 80.489174
-19.721870 2.079014 62.812901
-6.403386 1.203823 28.612188
-10.954321 -10.445932 100.142921
-8.893084 -10.317606 69.932785
-6.786387 2.805530 28.898790
14.066712 3.190505 88.198357
-8.019629 8.511371 88.018158
-14.317627 -0.827834 26.217180
-16.014753 -2.030284 64.308556
-2.939176 4.432248 112.358757
6.840056 -3.746567 53.019760
15.785324 6.861739 40.941277
-8.287643 4.094436 37.782349
15.857248 1.178330 43.219116
-0.032561 -9.425838 81.985359
16.841267 -6.202786 71.242882
9.312412 2.487517 14.101012
-13.877212 -1.141314 106.968391
-12.711939 -0.789849 110.284645
2.606921 -5.921697 58.998539
15.996504 -8.256756 69.982475
-8.973146 -12.083081 99.617432
3.506883 -10.481236 94.220589
15.611436 -6.314575 63.392345
19.699368 -8.349355 84.945435
-19.815350 2.477752 72.187859
-5.696736 -0.016977 20.537310
15.864561 -4.320819 98.414719
-17.494644 2.490434 72.396950
3.837248 -5.751258 48.986805
-8.862684 -10.975598 56.613781
5.827119 1.743770 23.307367
-10.971027 5.979614 29.539932
-16.741236 -3.086970 74.428741
-1.219212 -7.731603 85.392525
8.600369 4.791004 51.284191
7.354456 3.678761 39.897358
-13.328141 5.143814 94.281342
-16.222229 -1.824341 80.288116
11.489362 -8.862697 106.662788
10.296527 5.758266 105.862892
18.031876 -3.112562 73.187950
11.011821 -4.969031 18.431437
-15.447680 1.065643 25.345320
11.724596 6.320654 27.417568
8.070364 5.136541 57.578110
-8.717024 -7.207503 43.041626
13.883368 -2.797926 17.925200
5.183737 -12.372161 105.864815
8.242723 10.322761 83.616600
-10.713607 9.473541 78.811981
14.505633 3.910523 30.872864
-15.076926 -6.738499 84.609978
-8.380816 -14.925508 79.720139
-6.392040 2.889952 37.077335
-6.678929 -1.059938 22.894724
-15.011798 4.670137 37.333752
4.590304 2.974815 111.767265
-9.871222 6.342286 63.769588
-3.908552 -4.369853 59.075966
7.146412 -8.866407 49.024242
-13.253486 -10.423303 83.587585
1.265033 -12.936278 106.853745
3.097038 -1.433982 50.477818
-18.021818 -0.758185 70.955338
-18.086533 -2.757885 70.865952
-8.983360 3.248751 42.526962
-14.906332 -9.119183 90.529572
-14.369334 -8.738921 97.833534
-10.474676 -11.374004 108.902534
5.854318 5.981006 61.681385
-9.313585 -9.284174 47.921307
-17.157425 1.971584 87.581131
3.459511 -0.767220 50.695583
-7.358644 -4.184215 23.891933
20.436897 -1.521204 86.126907
-8.485698 -5.146286 21.036180
-13.601554 -3.154760 27.124722
-5.876546 -3.065324 41.847305
-13.232697 5.991266 45.059361
14.842162 -1.498963 104.562393
-5.319840 -10.805004 102.793518
-14.534502 3.940294 53.532696
8.972732 5.241919 65.001549
6.136609 4.794830 42.378368
2.032056 -4.178913 75.548096
-14.413330 -3.263621 102.687126
16.838133 3.347668 76.757881
-11.939517 4.607707 97.081024
-5.424157 -1.982002 46.480034
-17.344091 3.163735 71.432137
-4.767498 -12.664951 92.751266
5.260666 6.097291 104.268570
16.837357 4.717174 61.439983
-12.002099 6.757370 80.054588
-14.273217 -11.024016 103.544716
-1.881815 -10.973672 75.860046
-11.518546 6.824438 29.738880
14.052385 4.258223 82.109268
-9.518712 -6.522882 42.777298
-5.724625 -10.036890 87.088486
-4.771831 -2.045084 50.133137
10.894348 3.981497 21.030014
1.959234 -4.717238 53.059883
-8.872295 -8.616179 51.644535
-13.152428 -0.701613 27.369169
13.960601 4.026572 77.440681
-5.187814 3.320083 30.707912
-4.367046 -7.749027 61.181290
-15.522469 3.346279 39.668114
-7.417504 -12.507791 96.450851
17.365610 -0.348371 43.873096
13.939129 2.351052 91.615463
14.777946 -1.733821 39.005325
3.425645 -2.463153 40.488785
7.360450 5.943258 99.214180
2.024879 7.169721 87.719574
9.037199 -11.062381 67.838303
6.596576 -0.414888 29.154072
