ply
format ascii 1.0
element vertex 2048
property float x
property float y
property float z
end_header
7.399031 2.350325 154.504578
0.566335 -13.014137 124.453888
37.261848 1.130192 114.075706
7.747969 -13.674116 107.551994
-13.004800 -6.280900 129.056290
-22.585894 7.760967 131.692749
36.991665 4.679259 127.085938
10.680962 -2.977860 145.099426
-21.418049 -4.154489 138.841721
18.324902 -1.403678 133.621857
9.684039 9.942413 104.287781
-13.093972 7.645281 152.424026
-16.505316 5.541967 153.895462
-16.192129 -6.437348 105.252274
-24.177465 2.033603 145.277725
5.292908 10.322524 107.049385
-37.937283 7.072879 118.778091
-25.302078 10.703691 129.525650
-10.686147 7.933418 131.058029
44.637901 4.287043 115.232094
-49.274990 -4.070231 105.309105
7.819041 -6.260310 145.115936
12.322928 -6.343979 114.730629
-12.576569 -7.927020 127.576515
-23.646059 5.560689 131.161362
-11.476582 4.744389 153.215118
-30.999817 5.389624 120.277107
3.618215 10.239746 110.064308
-5.300735 -12.464507 134.674026
5.318672 7.613203 157.149673
39.186043 -1.590380 124.676056
-9.191478 -9.592319 139.052567
-17.540310 -2.502580 143.533157
24.581228 9.471256 134.945633
-45.317028 2.255789 108.645439
-7.973569 -11.067748 129.099762
10.928808 -6.089497 141.190994
3.536971 -12.809528 119.440514
-42.589790 3.532023 122.791962
8.133543 1.593202 112.371933
-49.453979 -13.415098 105.320152
-3.161150 13.196438 131.400208
20.970884 4.113386 148.846954
-5.120033 -12.915476 103.282181
6.870697 -16.031389 113.809387
-9.628279 1.330283 149.281326
-13.753628 7.179060 129.519684
48.608898 3.335439 113.762962
-16.513416 -0.881719 151.620605
-27.313858 3.691231 126.764153
35.144135 9.533074 119.051422
-33.744186 3.785997 127.159935
-45.313313 -3.580648 111.137550
3.182970 -12.415519 118.807686
-15.555247 1.286548 149.151840
41.316666 -1.678424 112.969124
9.299587 3.833050 111.589363
5.798510 -2.106951 151.972916
45.054066 1.716175 106.865891
40.964687 1.731093 122.900093
46.697266 4.387671 110.452652
32.944332 -0.781846 119.756622
26.474216 4.054689 126.096390
17.113510 -1.408647 112.353470
-49.275833 0.099983 105.176987
28.658493 3.907270 135.319870
-6.047402 -14.747135 119.815231
5.302563 11.772202 103.172516
-8.914970 -2.940342 146.447098
-49.407074 3.026192 107.869881
-32.099495 -2.047845 130.323334
-8.882597 9.937052 103.227173
17.130568 -4.235507 104.233620
-44.676624 0.505255 122.233078
20.085350 6.957212 135.230606
-31.698654 2.841621 117.032036
32.783657 7.563233 121.867378
2.927040 9.697042 149.962601
-13.747234 6.277094 109.514191
5.678555 12.510477 105.630470
-5.963100 11.251714 150.035431
44.978733 -2.672572 116.786964
-5.457419 12.750478 108.012650
37.112202 7.385628 117.249390
8.387389 -15.906397 107.575287
-3.591052 -3.440539 146.396332
15.803957 7.132150 140.690765
-46.130024 1.544126 117.647705
-38.959198 6.857697 120.870056
13.246525 -5.433645 144.106644
-9.692092 -13.605645 117.054390
2.240733 9.833805 148.813248
-27.629240 2.412524 133.717468
-6.225085 6.440957 118.444580
32.400558 6.487335 121.983574
-4.624864 -13.252981 122.961647
44.196430 -0.373500 109.621399
-45.901402 -3.318125 105.135536
10.487247 -10.200483 130.471603
-23.431791 7.813076 132.708466
33.535942 -1.200175 129.304062
-10.065453 5.962903 154.332748
3.774050 7.726562 127.818863
-13.357233 -1.599771 116.330376
14.999017 -0.718633 111.622810
-5.538767 -13.142053 111.503967
-6.364839 5.226315 157.789948
-35.839642 6.493086 128.608414
-21.785009 2.473277 138.389771
10.267535 -13.141442 129.440475
9.426794 13.540143 141.637848
-9.777522 -14.110407 102.958443
-33.131439 1.297673 114.173012
22.590536 9.097401 138.480865
23.549047 7.027631 132.490158
24.758711 9.917836 131.544739
-21.848177 -0.236545 123.985794
12.168508 -6.728016 113.623009
-21.243130 6.933902 134.906631
4.412788 13.400167 144.471313
23.451944 7.241834 141.012589
-52.214592 -3.960802 111.968575
-6.458510 7.993025 123.094727
-29.931808 3.236117 117.483231
-16.737633 -1.391804 142.623535
-15.395023 -0.019413 105.144249
35.535336 8.723700 129.020416
-37.541958 -0.086413 126.803673
-7.887847 -5.820756 143.354828
-47.764690 -4.134496 113.350754
29.650326 6.400959 124.691879
1.860693 9.134184 153.246735
-23.730236 7.294382 140.203766
31.263794 -1.982722 117.885063
16.061615 7.665088 137.357712
14.082886 -3.285474 141.373535
3.352404 10.422271 103.382965
-12.292585 8.288190 103.594383
52.888302 -3.579577 106.667183
-13.945873 -8.984900 109.304115
-11.941682 8.086185 151.508347
1.218365 8.213486 156.885376
26.365154 2.434798 124.947372
-23.128181 7.324220 143.890884
-42.160202 0.283260 109.053169
-24.639221 10.114418 136.615845
-29.886648 -2.903854 117.852745
-13.428755 0.293872 111.340500
15.707816 1.217795 101.415688
13.672590 -9.086960 130.424072
27.458754 6.378285 139.426758
35.771572 3.748863 118.586502
0.343962 -10.744826 110.353249
11.899612 -11.344517 113.330025
-2.887887 -11.723942 139.720810
-48.339268 -5.153191 112.690056
3.375326 10.609019 149.301590
10.502430 2.805555 117.603020
5.215299 -7.619557 146.909027
7.485506 -14.777532 137.253555
14.505637 10.839362 150.183304
-35.307648 3.947189 132.224014
32.572887 7.432381 119.986443
0.868118 -12.060517 135.477921
-15.044472 10.110987 150.788940
-42.907688 6.340927 121.230354
3.083627 12.783828 108.842590
3.768221 8.846235 154.265259
-14.847797 -1.214781 106.644081
36.729553 -1.254031 116.912521
32.537056 5.358498 133.166916
12.135559 -6.206461 141.772446
8.480263 6.269149 106.518745
-36.411686 8.224625 121.353653
-11.313268 8.928318 153.570053
-49.186577 1.567151 108.394272
-16.304705 -8.483256 100.186501
6.536364 13.110651 146.770523
10.220101 -12.904482 121.701050
-14.286120 7.012149 101.244957
14.659986 -7.845092 133.812119
-8.657571 8.303576 122.392113
-33.820396 1.070433 127.575851
18.066339 4.990489 132.102402
-6.962832 -9.131729 144.254944
-2.330748 -12.226257 105.112785
24.052755 9.473961 138.673157
-6.724418 6.428987 155.660553
12.628304 -1.676174 125.439728
-7.607693 -11.618122 121.520065
-50.279686 -0.270864 112.358437
-12.182503 -7.708442 136.954773
-1.666829 11.354862 108.833076
4.913743 -14.284972 119.562263
-19.808184 8.168062 145.972931
-43.328327 2.314477 116.792999
35.522915 5.178580 118.353958
15.380024 -1.334430 143.130920
0.640382 14.075994 139.370728
40.282440 -1.436563 121.605980
46.729038 2.363235 110.617767
39.533550 1.398970 122.944687
38.146942 6.541701 118.306587
13.497288 4.959678 100.869728
5.662694 -13.338922 121.014755
15.752271 -3.538472 133.409897
-5.898809 9.493961 130.658569
4.619374 -13.167083 125.668739
-29.412848 3.095611 120.345581
11.533957 7.160232 98.730003
6.518476 9.993285 153.697083
-16.189501 2.183602 103.583473
17.722824 6.696116 134.885162
10.603439 3.075492 127.116737
-8.762797 9.336008 128.397263
14.219488 -6.724464 102.209793
-15.472912 2.239315 105.542320
-25.097095 8.796489 133.744965
27.359686 -0.379852 123.122467
45.923073 -1.486312 104.899925
-14.460554 -7.655552 101.946442
10.131042 -5.222575 145.264786
-5.526706 -11.200457 137.367920
12.167840 -6.501059 113.173134
15.026079 -3.692048 131.551010
50.090984 -0.696661 116.243286
5.588779 9.181695 108.579109
-8.135809 -13.374126 124.489014
29.053034 0.073884 126.333023
7.192439 -5.154000 144.337830
10.751179 6.793541 103.041039
5.928174 -10.812400 137.458939
18.820969 -1.774998 140.009659
-17.315340 -4.927436 106.796547
-10.468144 5.358113 117.976273
8.467227 7.439546 104.284592
11.918837 2.959343 151.877365
-47.464146 0.187745 117.420448
29.794388 1.517579 127.475876
13.963019 -2.092729 147.214554
-14.202748 -2.287362 133.088058
-22.127720 1.748199 147.531113
16.215261 -0.915722 145.365158
-22.921991 -0.262568 129.989807
14.624493 -1.742462 121.502457
50.619923 -0.618992 119.223015
11.902978 -7.246566 121.679001
-8.315173 9.983022 152.709915
-5.730841 13.513375 141.691681
-7.946465 5.019814 124.516388
-6.143068 -13.435975 132.011642
5.703497 -13.281154 118.332947
-37.223186 1.134537 125.603210
25.152628 0.031451 125.947243
-12.090258 -6.287032 141.115524
-12.730522 -1.573665 125.765884
-14.090613 -7.851045 113.753410
12.565706 -5.383097 112.052124
7.600939 -1.496409 151.226959
-12.796283 3.114415 151.585556
43.997387 -1.107175 111.450485
-1.900802 13.112315 99.095581
6.267579 8.640662 103.027855
25.761621 8.609732 136.575348
47.038521 -1.198916 118.018295
46.734932 -3.260150 104.798210
14.272526 2.017298 148.198349
41.982597 6.354523 119.282867
31.367722 7.034093 122.391418
-39.248360 0.815148 109.027458
-38.424915 3.643924 126.275719
-9.856672 13.114193 146.201721
-1.444277 -13.358269 102.951515
2.164972 9.426412 104.451355
-8.151079 11.317475 131.805450
-42.388985 0.147029 107.789154
-51.733540 0.968280 103.209152
-10.153853 -11.109439 124.579369
-12.984402 11.790849 139.084641
-43.156105 -2.349793 118.966866
-43.694244 -4.769260 113.901215
-35.223595 7.410031 128.853333
-5.533986 -12.864710 138.084503
7.487499 1.148067 150.865585
-11.841746 -0.980993 124.189453
9.320733 5.774874 105.852509
43.035538 -3.479856 115.571693
1.586583 -13.540152 123.966415
-13.898789 -8.604211 134.995956
-13.714912 -8.012221 103.559235
-10.354967 -9.731651 125.001328
-38.642513 -0.558175 115.361069
-16.647039 9.050104 138.021362
-38.518940 -0.994423 122.303238
12.830919 -5.637404 127.362244
-38.719292 -0.141004 123.410156
6.523473 -13.870046 128.789291
-7.775232 5.286564 122.318260
-17.921007 10.887894 147.966217
-10.731105 6.355162 104.730370
-9.624643 12.139941 149.749695
38.951103 -1.721301 120.553177
34.810436 -0.227494 119.832115
42.383240 0.978605 119.531700
-45.667027 -5.501429 104.738121
-7.997133 -14.716103 104.174118
42.287712 7.415278 120.538231
-32.182617 8.599654 124.565216
32.997070 4.076560 131.670670
14.850029 -4.241203 131.666626
6.893152 4.647108 120.329918
48.367023 1.265004 103.429588
-9.241299 9.342979 131.697906
35.655159 6.969834 127.174515
-30.613266 0.903049 122.029060
11.859263 2.228045 109.747017
35.021893 8.030746 122.626465
1.493020 7.495203 114.250130
3.518740 -12.568443 134.930847
-40.820446 5.104376 124.102135
10.366654 -11.576318 115.199150
15.041039 0.386202 107.382256
-21.150318 1.191347 128.145203
-6.403663 -11.759712 101.638695
34.010479 0.735199 123.873070
5.081592 -16.045918 108.667999
32.648502 5.837777 122.552536
-22.021004 1.553118 144.125000
6.444222 -13.741194 131.098373
14.849543 -0.000652 104.371681
13.664410 -11.477887 102.295082
3.207519 -13.929986 106.490112
4.372349 10.526394 105.655220
11.347783 5.080956 127.099770
-41.927700 -0.043282 118.473534
-13.512588 -0.463833 125.100945
-2.872861 -15.052676 125.999214
45.930252 0.805242 118.644211
-1.825216 8.435226 106.891769
-9.733706 0.809648 152.276398
20.311310 10.281714 146.183563
10.219044 -9.219212 107.420013
43.378677 -1.929993 110.134514
10.566130 -13.020782 130.463898
1.933024 14.796701 145.042068
-21.774311 3.491955 131.863678
0.161988 13.273468 140.177139
-38.807518 1.895362 125.098152
4.697893 -13.849030 113.092705
-1.409261 12.543245 149.235062
-11.966421 -9.942261 123.148865
5.063798 8.083012 158.887283
48.632523 1.937077 109.865433
50.474255 -0.828585 102.995491
-27.265654 2.301769 125.714409
-9.306275 9.666759 131.937057
13.144694 13.845728 140.889389
-10.699009 4.288361 118.417221
-51.552982 0.014173 113.947502
14.751837 4.603281 107.014748
26.274553 0.646415 128.707428
-10.905687 -15.768577 100.300117
-21.240118 5.553177 146.716324
21.995165 9.297103 131.643127
-21.701139 8.138576 141.366760
49.913422 1.857010 102.803108
31.803637 2.846806 115.160217
-29.801821 6.768089 121.095718
-6.178666 -14.921780 107.184380
-21.977091 0.784174 129.659088
-22.837646 7.552999 140.200455
-13.680139 11.534005 139.934692
-35.785797 1.288169 116.715828
11.797481 -16.153191 102.095230
-14.581265 0.868270 129.767761
44.400417 0.593336 120.013596
-21.990934 5.576905 146.577362
-51.140545 0.534998 107.289055
-3.266711 -16.822502 133.206757
29.358234 2.855899 135.760345
0.457498 -13.993598 127.669312
43.052856 -4.131652 118.385483
-4.610221 7.979598 121.465149
7.509247 8.955516 151.511307
-10.481819 -13.650690 130.023895
4.469039 -12.289229 139.078720
14.204956 -9.069770 104.037125
30.060968 7.908330 129.540939
-10.725098 3.579725 113.157372
-5.754581 10.885360 141.542282
-14.958412 2.162153 110.157120
-24.930000 -1.333247 126.936913
-17.549044 6.676983 148.709839
15.016493 -3.985796 145.785980
-41.604847 4.632298 112.788040
15.252766 6.484935 153.056641
51.091389 3.994425 102.150993
6.097413 13.253326 145.230331
-4.570943 -11.642898 105.330795
19.985332 3.094738 149.453064
-11.700101 -10.616689 133.309479
10.450129 0.881927 119.024147
39.571537 5.273660 120.465477
33.721233 0.114284 120.908241
-47.298439 0.743106 103.261276
13.168020 3.756729 108.624939
-11.312066 3.045876 123.975761
-18.937143 -1.477554 145.815216
-11.859222 3.251267 123.388916
-36.976246 1.980241 116.281929
-12.252200 8.708746 153.275345
50.523235 3.102755 102.763779
-41.567467 4.198294 109.739067
36.070335 -2.582119 121.447708
-7.388384 -13.484738 117.111473
37.830780 7.130630 116.098701
37.799377 7.126736 124.167473
30.165953 8.102966 129.184998
8.037827 11.187366 152.121429
-17.617693 -4.747868 109.055214
7.251967 -14.561609 101.058022
-9.535666 -0.423326 148.524185
11.092896 -10.876481 129.313553
15.715497 -5.190290 142.659042
-5.366359 2.047969 150.983704
4.619094 3.011742 155.439651
-8.097465 -14.863980 105.217888
-16.359886 -6.064022 140.544876
-34.216187 7.045201 133.466339
-16.964764 -3.783123 141.811844
-15.935426 2.539004 103.813049
-14.091779 -1.051226 109.790039
13.699697 -10.137241 127.724365
-38.679855 7.666362 119.012268
1.157629 9.741619 131.027557
23.885626 -0.404732 128.193619
-7.937637 -11.685729 124.223114
13.235244 -8.473370 116.090508
-11.947407 -9.427618 139.024658
3.034257 11.691436 148.404099
5.408354 -6.187975 139.415878
-2.952383 -12.447200 134.506088
-12.882246 -3.054139 124.587959
15.073761 3.076014 108.615524
8.340374 -2.826083 143.459442
24.851387 -0.974576 131.664383
20.608192 7.586570 129.788544
-11.909716 8.263144 150.890793
-20.299313 -1.444114 136.350372
-12.060783 -0.142081 149.409241
-31.945194 4.120116 122.512421
22.960297 10.581893 132.612900
-11.572467 -0.902964 119.192978
-31.203358 7.995914 130.707336
-11.234199 -9.652863 137.871552
-7.702255 -3.041129 141.772736
-9.019412 -5.572254 143.968033
24.892355 2.638844 130.650391
38.411964 0.488016 113.148613
3.696686 -14.099489 119.860466
27.444147 0.000993 136.054047
6.414731 6.086297 111.839844
-15.306711 12.238929 143.460068
2.418329 9.316122 127.188698
13.808002 -8.087555 103.060822
15.509506 3.359282 129.473099
-8.453245 8.369661 151.884079
-45.280403 -4.798403 111.452263
-42.879723 -1.723555 119.399124
-14.224981 -0.298232 146.687576
16.340963 -2.442311 104.036255
9.674147 11.076203 102.720016
-54.301205 -6.914696 108.570984
9.259277 6.101875 108.156792
23.244780 3.523204 141.865829
12.455727 7.755436 152.970703
22.356850 6.973968 147.309921
23.815516 8.841455 133.323349
-26.918484 -1.264627 131.592804
15.888917 -2.800619 134.039398
13.092400 -6.628390 107.779251
-3.391626 -14.641339 118.091133
12.440917 -4.017621 148.783234
-27.113398 1.241947 133.491028
21.344831 6.093638 144.502853
-14.020960 -0.254193 127.221283
51.161629 -3.833305 115.319160
-20.515923 1.966986 131.232147
0.246643 8.520191 121.966705
9.154397 10.106983 132.857910
-35.440514 -2.408165 117.684212
-44.993103 -4.028450 108.536148
-22.208733 9.225550 131.740799
24.226749 0.063271 133.819229
-12.932795 8.158512 135.077362
16.773127 2.105666 103.825233
9.378849 10.039341 136.098953
14.908230 -2.124202 113.210915
0.493492 -13.126945 99.474579
3.477477 -12.989273 132.206085
7.847574 6.677363 123.371506
-3.505357 6.395740 123.714119
-9.682398 -8.669576 110.892738
-30.226236 3.812715 121.156525
25.844469 0.820544 137.257111
45.772583 2.267118 118.889595
-10.523361 10.090670 148.851334
-13.117096 3.453064 118.185562
-34.920841 0.559914 120.938454
17.941761 6.363550 133.106018
40.028244 0.694345 112.840248
16.331829 -4.373798 135.852798
7.054292 -7.852259 141.651566
7.710732 5.650328 110.899719
-40.743111 2.981216 107.279724
-35.417053 6.529914 119.512886
-18.354429 8.278921 141.299225
6.647100 -6.212243 148.041260
-6.656239 10.029804 152.005798
5.631702 10.192842 97.891373
13.984967 -9.096974 138.212784
11.998955 4.845492 125.047050
-6.045898 6.301440 152.295822
-40.090733 -1.441678 118.746880
-8.017020 11.480154 148.821533
-1.673669 -11.821408 127.888702
-6.675532 -13.604158 121.858078
37.521133 7.569527 123.922806
12.151890 -1.251678 115.733948
-1.168691 10.915339 149.785004
48.867279 2.008478 114.764526
31.027487 5.463777 133.397034
-3.687002 -11.023070 138.836945
22.486069 8.065551 138.216782
3.845526 6.504809 109.194267
-11.845601 10.361753 145.434280
5.641967 14.116639 136.878906
-1.039937 8.468355 102.294456
-14.321367 0.804949 126.752464
-52.159950 -1.286969 108.024857
-11.422622 7.021186 105.325851
-5.971732 11.781826 148.017853
4.784163 15.616307 99.199608
-34.961834 -1.074833 126.703606
13.803551 -0.356284 113.813042
32.037483 1.006137 117.792839
-26.865566 12.910117 134.589096
0.873368 13.899358 148.911407
42.125740 2.374161 123.118202
-36.987595 0.183473 124.682068
16.995073 11.950397 141.245377
-34.644028 -0.516196 123.735527
-18.391594 8.436779 146.998947
9.858011 -10.927576 140.570480
5.799215 8.742844 103.268929
-6.818742 9.987996 103.207176
3.379549 -4.323874 148.719315
6.997554 5.199994 114.233574
3.280587 9.528072 102.767441
12.141090 8.331577 131.287811
1.775200 -10.798951 132.611404
10.219513 -12.617302 108.642578
-39.312813 1.467670 125.272903
-2.683185 9.942020 132.858383
39.711185 5.173488 118.997681
-14.462314 -5.151472 112.234718
1.830255 -12.738982 102.041092
-12.396791 -11.927835 105.763916
-16.914188 10.164828 99.191681
31.278503 3.473995 119.729431
21.577459 -1.519248 135.784103
20.607214 9.916577 139.952209
-2.956539 6.847556 120.502220
-46.924706 -3.888532 116.485909
13.955758 -3.550214 131.813812
8.967928 7.157697 107.210205
-1.824278 11.099251 112.978424
-22.089615 4.150736 131.173172
4.003142 -9.147416 136.952637
48.303337 -1.524476 106.153687
9.939574 -3.003628 147.842834
11.640621 -5.853575 124.855759
-14.009904 -0.598404 149.094803
43.260090 2.472922 122.150360
1.924677 -12.242661 135.562027
-29.615856 2.081427 125.860847
47.170345 -1.054945 104.208809
20.731207 7.005155 131.792984
-2.613036 10.513917 104.379959
13.723808 -8.605380 134.778061
-2.210576 7.718356 113.724716
15.034329 -4.658157 131.562622
-0.053192 9.898064 104.175621
-6.629504 6.919938 128.928421
-15.556753 9.765022 102.330643
-5.453934 -11.602364 102.217094
-11.160414 -8.087799 140.638443
21.180138 6.370707 144.390533
-39.587734 0.657403 123.849335
2.954519 -14.709476 121.996216
26.774487 -0.288639 130.239349
-3.035343 -13.212278 104.978767
0.713256 8.701527 160.382309
-37.113651 -1.253726 121.604507
19.146725 6.206704 137.656586
11.104533 1.715724 153.063217
14.049459 -7.261881 142.627548
-40.446259 6.385602 117.279671
2.473637 -12.652703 108.344177
-13.627868 4.226574 108.563347
30.602053 7.657231 131.468796
8.456285 12.718243 144.980896
-42.046032 -1.866728 115.160500
-5.298676 5.864208 156.874374
-3.970291 9.729837 153.865479
-3.244208 14.395421 148.100555
-17.495316 -6.994731 140.040604
-25.292440 8.399430 136.350204
-30.616426 6.186530 119.995338
13.938881 11.179879 142.032288
-12.132499 -9.466594 112.434578
-27.747421 4.200137 135.769302
-18.161839 -0.365955 145.893555
-0.572625 -13.209802 109.938324
-13.345288 5.122328 131.362061
52.180477 -0.623028 108.265320
-9.345277 -14.124775 101.726387
-16.215429 -7.442772 136.172943
-6.764222 -13.629485 115.514252
-32.895367 5.411498 117.350983
-51.451130 -1.301558 105.817131
-19.317841 8.319442 140.661530
27.483704 6.551531 133.485489
20.719614 -3.068749 135.014572
30.004120 2.531750 135.063644
14.120152 1.951444 112.823936
11.701576 3.275428 126.663139
6.209511 4.757295 115.464249
-1.305169 -12.696319 116.814751
-20.472441 9.182446 143.651718
19.247181 5.194744 147.458786
-44.750866 -4.486700 109.536774
-23.676102 4.647012 133.353287
20.975534 7.770627 132.660736
-15.921312 -2.776745 146.569778
-1.661447 10.251576 113.188103
-23.385227 1.936077 141.763702
-28.273800 4.440326 137.604645
-3.818731 5.388903 156.728073
-5.852532 -6.402896 146.283951
-1.233841 8.229946 122.073509
-11.309373 -11.883812 122.585838
10.632234 7.374346 128.900436
-9.272294 -0.970006 152.097870
41.054810 -1.183822 118.431419
23.004017 2.845533 136.292587
11.112423 8.787024 125.614586
-10.150722 -14.958797 104.224762
37.952297 4.854352 125.764442
5.254346 1.932549 154.285797
7.061513 -6.523358 142.317078
24.242439 6.598697 142.171722
-6.910171 11.807204 99.921021
-41.823044 5.296345 119.437416
4.865808 -11.825951 128.564880
3.045787 8.298765 156.523575
34.237114 0.672906 127.725822
-36.254379 1.381037 122.711845
-14.282988 -1.847881 113.437218
-19.888544 -0.798739 147.226227
13.959896 3.407775 109.939598
-10.127485 11.170208 144.252579
-50.111172 -0.602657 104.124817
47.849075 -2.453865 111.459778
6.376518 -14.204082 105.838783
-7.718890 -13.451509 103.559944
5.448311 -13.383050 128.558304
-10.684619 11.348745 148.087433
-17.834826 11.233027 145.548157
0.102821 -12.725736 118.660622
-12.160589 -4.311851 122.851707
34.434021 -1.704539 120.574913
13.704834 -2.194413 106.234421
3.384603 -12.390237 113.155502
12.353864 0.352308 120.657448
-10.408895 1.352119 148.834259
-12.390003 0.534712 121.751175
-9.259525 10.189271 134.044052
-13.165133 0.164047 128.837570
48.669868 0.832827 105.277931
39.368908 -0.363595 122.540466
-12.443687 2.322984 130.383118
8.480187 -10.516002 118.441780
15.942226 4.781799 108.874596
7.519158 10.876607 130.544724
1.295827 16.765301 148.656998
-25.600004 0.795774 138.693680
27.174339 2.883669 125.278809
1.706305 10.821774 134.342163
-5.275697 -14.984043 109.158180
6.487203 -1.231773 148.672150
-7.001333 -11.681832 136.492416
3.565041 11.739677 147.039841
-32.549931 5.702554 121.874802
13.529874 -1.472007 147.969864
20.571289 2.301966 140.140701
18.588892 -10.083083 100.214149
4.214293 -14.006063 124.513786
50.923489 0.718053 109.256920
-28.225451 0.948138 133.089966
-15.279030 -9.527959 136.712845
-13.180793 -8.685059 104.338783
8.004019 6.500659 106.792656
-9.791309 3.279010 153.761414
-9.691014 -3.928833 143.617004
-13.475311 10.440782 149.360443
-10.766088 -13.049489 130.116211
-52.681778 -3.351235 103.054153
-48.306366 -1.092071 115.378212
5.454088 -15.737957 116.888458
-5.478181 -11.844505 102.716652
15.155072 1.344590 104.916931
-12.053195 12.151766 145.284241
5.136689 -14.308422 118.935181
14.600939 6.609744 133.983734
17.117090 3.513747 107.064598
15.378404 -1.021512 142.992111
0.410530 -11.986799 104.434837
39.588642 3.504784 109.969620
-14.519325 5.943233 100.790482
7.806008 -15.391945 98.199715
21.374931 2.968836 130.461639
48.686852 2.245967 106.707520
39.107513 6.680865 121.052132
-7.470261 -13.883281 117.635811
-15.611674 -6.833457 130.178558
10.052752 3.293185 112.202103
-44.807991 0.567742 105.304344
16.695599 8.599196 152.446960
0.369983 -12.024180 116.861137
-0.887583 15.069678 142.060654
0.008353 8.774417 102.448395
1.113369 -12.810064 128.952957
12.771538 10.070415 146.330582
20.453720 -1.084894 144.273849
-7.776070 5.946381 107.539040
-48.707962 -3.082768 102.052094
41.262699 -1.637506 110.202400
-19.845404 -2.275341 135.322433
-36.690010 4.565952 125.922127
14.563723 12.304536 138.985123
-4.555607 -11.860365 119.940720
-5.812846 -13.650546 118.040894
-56.940807 0.635937 102.519875
-13.270846 -2.233667 123.015144
-5.922724 12.512575 145.299576
0.442226 -11.694084 110.717476
-6.824327 5.719443 155.367966
13.655949 -4.643982 121.475319
0.288314 12.919315 142.272171
10.553537 2.647261 120.929413
-32.179214 2.346553 120.484573
9.706766 -13.694506 111.220505
-2.423481 11.825410 142.039276
-2.664459 -12.538130 110.751228
-19.233864 1.991767 152.063812
-53.074745 -3.446380 112.396332
-13.005202 -9.521973 138.935501
-38.811592 6.579284 124.069725
6.762362 5.855553 106.497391
1.123000 -13.395514 102.539780
21.656847 1.098040 141.210693
-22.661634 -1.052131 140.620880
0.291072 -12.468026 107.643135
33.450928 6.114901 125.329124
-32.464279 0.272101 124.729858
-49.491379 2.392956 109.734879
-6.987163 5.642990 122.051414
2.099282 -11.140484 124.476135
-13.062666 3.373721 153.162964
5.556368 -2.308477 151.103699
49.972858 -1.252504 109.698524
53.611427 -3.587112 108.925613
3.875365 8.515887 127.443565
13.790025 -7.286435 127.886833
0.086177 -13.021080 101.931694
-34.189304 0.194095 128.121933
-6.855765 9.783416 104.836334
6.066034 -5.033264 146.803375
-41.785084 0.854187 107.184929
4.491446 12.741375 104.886787
-19.786963 -3.311864 143.394760
-40.554985 5.646126 111.025406
-30.242481 1.288770 123.319382
-43.562611 1.579703 120.095390
48.379211 1.443376 113.042686
5.272987 -13.986177 119.706085
-36.444889 1.188669 115.967735
-3.436159 8.925860 154.859756
7.398826 -4.618484 149.526260
-5.015532 -15.129119 109.824577
4.142095 11.871840 103.443077
7.956526 6.433700 120.482841
-14.134550 -5.929281 126.932724
7.428533 10.272197 150.014618
-11.790556 9.013628 104.634956
-14.574702 -7.147369 104.129059
33.592789 1.777664 132.266113
41.957180 -2.378615 119.098007
4.947004 -15.337828 118.756973
-32.949345 -2.177934 118.326424
40.733673 0.940511 125.414162
-26.534355 -0.291764 131.111954
2.826525 6.116353 120.040962
3.505025 -11.853025 107.789993
-4.891021 -10.732618 103.738853
0.713428 6.989301 108.624451
-4.542700 9.349276 155.277802
22.152853 4.171864 129.471222
5.931804 -13.492601 110.916351
11.979982 1.411220 120.607094
-4.062645 12.332397 142.886002
13.882803 -11.766824 130.637421
14.313875 -8.727000 132.182190
-8.297674 -7.407499 146.108475
18.949892 -3.579182 134.809387
-27.657797 3.362744 127.193985
2.247348 -10.513523 129.291367
-10.247855 0.653103 119.160393
49.668816 -1.760430 108.651146
3.682570 -13.419350 127.335220
-30.298256 6.031365 132.465881
4.317546 10.203606 106.078613
-33.846485 -2.571487 121.844505
-46.557228 1.157790 106.227654
26.106934 8.593775 128.652466
-11.067915 -13.983093 136.005539
-17.201656 -1.493523 142.850433
14.585187 0.404402 111.853760
-24.344370 6.009293 144.351074
-13.528550 -5.716572 130.481934
-7.822177 -12.634882 106.841171
15.232016 8.315309 135.777359
48.564686 3.432184 102.433685
-1.309528 -12.690907 119.143661
-33.500431 4.795581 127.985275
49.447830 -4.921771 108.494904
8.688996 -15.252482 103.224297
-46.360435 2.757941 111.690887
17.966900 -5.627720 136.875031
-8.217716 -10.383059 139.218018
-8.720300 5.244522 126.186180
-30.749203 8.458591 126.373787
-35.319687 8.486537 120.393967
34.655548 -0.845649 117.263710
-35.011555 -0.608081 125.280563
-15.706163 -7.290440 110.759674
-22.212572 7.296730 136.301956
-16.986162 0.599265 148.290787
17.745481 8.856561 139.256638
22.024790 3.491146 129.641312
-1.243114 -12.592256 113.167511
3.129459 -14.156352 132.885483
-10.367153 8.785954 150.481903
-34.591347 6.536181 128.874527
30.010149 -0.514874 122.479256
8.145615 8.812788 151.565338
-18.723783 4.740054 152.313202
-9.664476 3.955660 111.508545
-48.228142 -6.085210 105.303322
-1.114274 -11.705462 123.601822
-8.421010 12.012054 141.276230
-19.122595 11.300373 137.730164
-39.774513 -1.984436 112.578285
36.689018 5.372273 113.053894
14.949513 -1.934970 150.000061
-4.847876 1.327492 150.234940
1.908964 -12.416890 108.643806
-7.799023 7.079753 108.030998
33.970009 3.314570 130.753525
-39.389591 2.184193 122.429459
-31.616333 0.848586 129.112274
-10.674664 -14.538448 107.195694
-38.012962 0.146020 123.305153
9.980603 2.285534 148.870590
-8.664448 -0.864335 149.715408
-12.353467 13.698049 100.721344
-2.056807 11.524982 142.498550
-3.919343 6.455573 113.214462
-15.460382 9.495365 141.425140
6.121992 -14.915688 131.532104
31.156931 7.829551 121.362907
-11.765757 -8.883914 128.585449
13.491338 -7.065563 126.455780
5.062023 15.417667 97.046280
6.475723 9.284877 126.478828
-14.295185 -6.236818 129.504532
42.810066 4.314795 118.650452
-11.721190 -7.217038 134.863373
25.844852 -2.248979 135.568207
-7.912493 -12.509198 135.995544
37.136490 6.858171 118.031441
-5.986113 -10.689672 123.692589
-2.657542 11.569654 145.287750
7.819003 10.829810 146.854126
51.727520 1.040451 113.429283
6.193603 -15.987661 100.863747
22.902708 1.119267 138.400070
-25.016758 5.508265 127.116997
-10.855947 -8.995968 106.163902
15.250380 0.146610 130.225723
21.601973 -0.095883 145.288101
25.987410 2.221661 134.759079
-4.642513 11.565090 152.775055
15.331258 4.309897 100.812996
16.430082 0.028014 145.461517
-11.524273 9.517037 133.394958
-16.546513 4.854190 131.735626
-5.798383 -7.138959 140.744247
-9.400898 4.406376 114.511429
-37.309391 7.261033 130.178421
-12.614687 -1.521893 146.652328
-15.970287 -1.621121 111.081978
32.625721 2.042317 133.208496
-17.127773 -2.362550 139.413712
-25.148830 3.556098 128.091339
7.785218 -1.790830 148.600754
18.933502 -2.291328 140.117737
11.367744 -15.062649 106.006744
-38.735802 -1.707167 120.253693
-11.567275 -4.209060 143.853043
12.323958 10.632405 137.845291
29.212973 8.073269 131.541168
-8.712017 -11.627170 114.080040
32.497822 0.265408 120.870674
5.308389 -15.187212 111.020950
-17.689503 10.849416 140.965958
-3.572541 13.290709 105.217079
-38.423065 7.779529 122.179054
8.985114 -4.897368 145.495193
-5.847046 -10.249628 144.441040
13.792268 -4.516343 126.424789
44.079174 0.647622 118.554070
-6.615521 5.190991 119.110710
1.913980 5.815996 107.192337
1.881470 -12.712266 107.145760
-31.453066 2.246887 120.973946
27.519815 8.839137 130.249832
18.285488 5.122963 132.915695
14.109597 -0.580434 129.992813
-15.697533 11.704268 143.783447
-1.702667 14.272367 137.882492
-3.222325 13.714310 136.555679
0.478963 -17.657785 132.605209
25.581902 5.485912 125.541031
-0.279739 -11.403429 98.759224
-13.275043 -11.269685 116.237671
19.740685 -0.434694 140.396881
-19.181583 -1.296260 132.725174
10.285812 -6.084456 143.250061
-21.045376 8.959342 133.370117
12.940625 -9.054220 136.578476
-13.570865 -8.201777 128.562912
-31.877016 2.071347 120.126648
-24.413027 5.319816 126.464172
-36.058197 6.646288 127.642845
-9.733381 -14.150697 117.182587
-29.633297 3.761137 124.553421
-0.317230 12.481391 130.961166
-5.091541 -11.697303 128.599777
53.624638 -6.037483 110.067856
3.575171 -7.415677 143.804443
1.373801 -14.437483 135.390320
30.620129 5.249923 130.410736
11.609882 5.846475 154.148865
30.729870 8.210662 123.518280
-11.575440 -2.475793 120.030731
4.328364 5.366061 158.303513
-13.734635 -0.127775 127.366142
49.346378 -2.484397 103.654137
39.263702 -2.226486 113.041107
-26.427059 3.760684 138.353943
-7.348524 -4.840155 146.164703
-12.517629 -1.958025 119.791779
-8.674334 -11.549176 112.743172
-19.373852 -0.866676 107.459702
41.862720 3.989874 121.835358
25.077044 -3.121008 133.425613
52.328148 -4.171573 110.083771
54.063389 -1.117127 106.376419
-24.336054 3.412887 129.646576
41.201107 1.097436 107.308441
-14.689461 7.288242 134.689606
-37.165562 5.955079 123.839104
-43.948650 6.922514 116.515152
-13.073543 -11.500967 128.455933
6.151449 -13.647081 105.353600
-33.923603 2.738269 133.299866
-20.457548 10.985030 141.687988
15.163056 -10.109424 130.854996
4.605667 -3.792822 144.021042
-7.020754 10.907930 102.675667
-42.916222 -1.569079 107.913605
29.780346 3.337202 118.290909
28.057201 1.412888 133.286957
47.899414 2.892871 114.439865
-8.801584 12.168506 139.109283
-19.683388 3.693655 100.635422
-29.797966 7.799144 127.730186
-13.585998 3.351599 102.246521
-10.743628 3.665587 154.189163
-3.196434 8.437182 111.876709
33.439915 3.976018 132.282913
13.447785 -8.378854 125.793091
-32.209213 1.965404 117.189636
31.315580 3.798934 123.582718
-47.852142 -2.020936 111.142662
-12.055481 10.617008 138.013763
26.706135 3.003027 140.146881
-13.046185 -3.212539 150.026474
1.383458 -11.293074 112.704575
-0.805006 -12.037779 107.054031
-24.173429 7.494777 138.483353
10.463045 1.924215 120.101555
35.068943 1.090537 117.100052
-49.576401 0.128632 103.959740
-21.090666 6.505980 147.323608
1.320101 9.934299 106.584610
5.541197 7.973331 106.666222
40.727283 2.929250 111.830238
-9.838065 -3.864625 143.607361
2.195998 14.280621 145.196823
-34.714230 5.733787 124.831314
-51.195107 0.906191 105.426949
-16.830364 3.351724 106.671257
-2.714718 -12.553649 111.423248
-18.161030 -0.911925 109.936562
6.489058 -15.971965 106.080452
40.691345 -4.534289 111.368851
18.073238 5.510621 135.577057
-25.832645 -0.851710 133.263763
10.476843 -11.081447 134.350739
11.803101 -7.928845 109.180161
9.369627 -3.011527 147.532135
-6.143008 -4.855194 144.433502
-17.869665 9.925431 134.526199
-35.559418 -0.366758 119.002151
45.679256 4.037780 105.637115
-12.148734 0.842828 148.295898
-56.326317 -9.588824 109.395866
-8.786190 -13.593982 106.786888
15.900585 -3.860347 114.516876
-51.633839 -3.772465 113.107697
-1.351776 8.763336 116.019897
-21.610128 9.864283 140.188995
3.203167 -16.007421 98.994904
-32.777283 0.240947 126.699562
-15.042376 -7.210895 131.143372
46.973228 -3.482111 104.064003
-25.945269 4.480376 137.244644
-14.838546 1.272730 129.802185
37.054699 -4.162970 117.170753
-0.188808 6.440648 111.709755
51.840725 -5.307500 110.351753
37.875511 2.313104 109.982864
-33.574486 -0.932343 126.902039
5.864641 13.325459 137.472198
-10.716106 11.863148 143.976746
48.885506 -5.456567 105.379333
13.192674 -10.243834 101.486282
42.389629 4.643728 119.847969
-47.907352 -4.478512 105.562675
-12.262043 3.664340 104.128365
-8.620991 -4.946607 142.463684
13.325442 -1.663133 132.809189
9.556396 -11.101208 106.556480
29.852716 1.840524 135.958221
-11.944517 1.622796 116.560730
20.439232 8.694953 144.387421
28.480076 8.630327 135.546295
2.260961 3.847403 121.478844
-13.223761 7.914081 137.097336
-12.501346 0.232854 112.427170
1.370011 -10.112290 128.822922
-18.931032 11.159711 143.064331
-20.553816 4.378644 148.603653
-32.599346 -1.489689 116.174652
15.015156 -6.126175 99.997269
-9.718959 -11.385403 134.232803
-33.066700 1.181824 124.492043
14.572496 -6.749107 116.225395
48.192226 2.780061 106.855713
-4.978011 5.758725 118.764328
15.665524 -3.735624 141.741684
-11.733969 8.296438 131.498901
9.065474 -11.540494 120.117767
11.479015 12.142968 138.154800
19.231621 1.520475 147.557404
0.317550 -13.449551 116.321625
-41.217541 -1.081674 109.798317
-20.922850 6.006113 128.544556
-4.397558 12.127245 135.380600
-16.052597 2.174660 151.502121
35.520325 9.592612 122.571716
32.365517 5.122960 118.374344
10.208994 4.153625 117.131111
-19.241728 9.136085 146.124283
33.849751 7.356549 130.903015
-39.685642 4.927980 127.793495
-8.782972 -2.237629 144.980042
11.573022 -12.094175 133.181015
-8.130778 -12.376675 139.243942
22.335398 4.975592 149.609314
6.205642 7.811333 130.758514
-6.715713 5.211520 124.234741
1.294833 -12.943499 125.069267
-6.615027 7.688071 156.730499
13.858261 1.822429 106.759247
-42.062447 1.028277 109.814613
45.404247 4.094766 109.450455
6.251111 6.760347 123.889877
-45.223690 -5.013764 117.580032
-16.169327 7.700634 104.181366
25.203176 -2.979302 130.733963
14.195199 -3.202197 120.383011
-4.394547 -12.088611 110.402985
-13.238578 3.054785 147.555420
44.246983 -2.832703 114.604431
-18.552996 -1.153465 143.193573
15.419548 10.416275 136.611649
-51.493301 -1.090605 113.464363
-26.484621 6.629444 138.261597
-30.172617 0.244823 132.339371
31.716204 6.078694 121.319725
2.199290 10.360562 151.583572
-29.209774 11.633427 124.011055
10.286085 13.083961 143.309906
-12.863998 -6.656050 105.558777
-8.360464 -1.111195 152.163651
-32.376221 6.726475 132.151276
-17.264240 -5.649098 103.270126
16.206594 -0.339746 140.213120
49.087463 -0.746880 112.973671
-16.249193 -4.179828 105.292290
-5.714566 11.660529 111.836510
4.219458 -12.691957 137.774094
20.943077 -0.562447 131.365005
13.645431 6.217054 130.571259
24.046721 1.208752 131.434448
-0.182793 -13.111480 128.412552
-4.149898 13.328689 147.894455
-15.641842 1.466377 129.333511
-27.552834 5.924801 122.578339
-5.975668 -14.352352 119.323845
-14.332314 -1.506187 146.377350
-24.486504 0.502269 135.523285
13.432962 -9.333804 124.950111
16.018673 11.438022 144.619232
-10.952665 -10.669402 131.982788
-1.620656 13.003961 137.381073
1.694042 9.300025 149.253342
-8.369308 -7.763071 142.019653
46.755611 -2.194524 107.172501
-12.726795 -9.359099 103.479248
-1.760419 5.868105 112.530182
-10.828749 -15.044825 133.969360
14.458385 -2.297406 137.660080
-17.806019 -3.856927 102.308220
10.642461 6.739415 151.515442
29.721651 7.720792 134.848694
12.749528 11.134505 133.808884
-18.607002 0.087547 137.541595
-14.112370 -4.281657 141.043900
34.256439 -0.120103 127.261795
-1.277336 13.654713 142.135345
2.881536 5.342401 114.920212
40.465172 0.016733 117.379585
7.795380 11.589895 145.570984
-14.215546 -10.261523 107.851059
-6.070409 5.522460 154.126648
-0.501048 9.361029 150.232407
35.066383 1.087166 125.583633
41.565598 4.127315 118.363503
9.947552 11.388170 150.901154
-12.338615 -5.961828 121.198936
6.623214 11.635182 152.330704
33.282215 2.234984 127.797699
-6.937353 13.060781 100.703339
45.889641 0.537546 117.971382
-48.934078 -0.690425 106.789886
38.892239 4.153488 126.132286
9.566639 3.703014 150.383896
17.492222 8.139372 147.418610
-30.576946 6.976060 124.881615
30.236519 7.652884 129.912231
-47.207863 -4.779334 104.174957
44.102928 3.804369 106.922119
-18.677219 -4.131996 133.053482
38.967300 3.850436 110.525627
11.908244 3.266555 129.373489
45.444038 2.006237 104.761597
49.315689 -8.773616 108.583168
45.417923 2.553007 109.957436
-30.166059 0.001286 121.810501
27.857338 10.014849 131.680664
16.247419 0.714662 112.740067
-4.524710 -13.540131 136.346588
-23.664402 -1.119228 139.382507
-0.043978 -13.333940 107.169212
17.240765 -2.663274 147.244461
-4.003377 5.815049 118.051620
-12.938661 -11.972829 136.667984
-26.137192 0.646203 126.406509
26.124249 -0.313650 125.604767
-48.434917 -5.199211 112.032295
-7.908265 4.196968 111.244148
50.816479 0.484279 109.168358
-10.640936 2.556853 152.689789
-15.553727 9.181949 144.682617
-12.267512 7.800686 152.024078
-40.566956 1.855533 121.298470
13.153239 -12.288780 127.940147
-3.729354 13.210338 151.599030
-23.204954 10.106787 137.657364
16.923815 7.995068 141.684982
14.395293 10.262300 133.822128
-13.204126 -10.003764 128.379135
-16.575552 -3.657873 101.897217
7.672590 -15.623361 102.452339
-43.305832 -1.817892 109.458252
-13.076572 -6.238213 125.898033
6.952086 11.176099 149.439484
-18.478067 6.562369 145.107086
-36.007366 8.912029 120.551918
-10.176635 13.062720 145.522720
-15.633897 -3.082142 133.682602
36.508171 7.410623 119.708015
-47.586597 -3.411390 112.451118
-7.143858 -9.122128 141.286911
-9.250948 -12.678247 118.931671
12.514903 -4.890794 115.931946
4.207318 -14.261548 103.329315
-33.993038 0.956484 116.570580
13.767467 -4.738197 127.986519
-51.989498 -3.875082 108.902191
15.873897 12.791577 142.986008
-18.819294 6.928019 149.944016
-0.118118 13.814556 147.728271
47.471256 -2.617106 109.576462
-44.679527 4.723784 117.826103
19.191666 7.089944 148.499054
-26.252439 -1.730019 135.796066
17.691631 10.278185 149.491196
-12.468603 8.452445 136.356384
25.297451 4.437044 140.393478
-5.317240 -13.313520 131.565918
-27.269274 4.119317 128.604553
24.963175 7.323431 134.726685
-19.830622 9.179840 144.295242
-37.774296 -0.605150 111.045822
-11.606952 3.011979 150.393234
-5.280975 -2.681291 150.123550
11.407824 -12.504909 125.412079
-39.494301 6.787829 118.291801
34.053280 7.892042 126.915794
-22.060339 -0.443223 132.539246
2.189215 -12.539044 110.001396
-32.610237 5.256002 117.727135
1.836678 5.859982 107.411102
-43.314426 4.214138 107.483734
9.932899 -9.271764 137.461197
-38.505512 2.249911 125.599808
-48.131023 2.346166 114.607597
37.546150 6.613697 122.704018
35.520920 -0.857920 125.365555
-1.055423 -12.726971 106.566902
-30.026922 8.235779 127.589554
12.082592 -8.139113 109.045128
6.380988 -6.652892 142.720947
-17.087549 -2.530580 138.528168
-1.433382 5.887518 111.405396
43.722931 3.740353 118.429665
32.889019 10.374651 128.000275
21.039732 1.225653 132.916595
19.763395 8.169629 147.394989
13.040743 -4.315250 117.304512
-26.300222 8.961589 129.346008
-6.111686 13.906956 144.874496
-21.937944 7.193775 145.227219
-6.774240 8.278106 154.964142
-26.775368 1.444126 127.893333
8.996660 8.039217 126.748642
11.834167 -13.602262 113.839607
-10.082918 -12.825733 134.166977
18.489010 8.246391 138.247910
26.809692 3.123539 125.289574
-29.130241 8.211809 130.157684
-42.377659 2.669359 106.373520
26.926235 7.919889 123.814560
-18.989841 4.607010 135.450073
27.058609 0.498347 126.098267
-13.418238 8.154265 128.809464
9.323776 -8.542515 121.873604
-13.079131 -7.338968 103.632973
18.513121 4.591306 151.056030
16.951015 -3.261860 134.736740
-12.442917 3.052631 121.351044
-3.644265 -8.401521 141.922913
-12.227999 -11.812488 138.428558
19.716927 2.177425 103.761879
11.779184 8.326221 129.341995
-12.045897 6.061954 133.242874
42.776814 5.154937 115.725548
35.058723 -0.030619 117.133873
49.913242 0.925242 108.923332
-25.681732 5.508355 141.341003
-1.343961 -13.458184 122.020050
4.976045 12.858523 101.767212
-22.695265 -0.437667 133.018631
6.668052 -6.053427 139.398621
-53.069897 -0.779969 110.224762
-28.210508 8.046584 128.726410
-13.733753 6.149514 104.549652
-8.463909 -5.218513 141.363846
-19.752686 9.003164 134.934006
-0.046448 9.517680 117.803871
-0.856333 -9.805715 121.491585
-4.841795 -14.526952 113.920128
32.857174 -2.391096 126.744347
-8.299487 6.675676 128.493530
-10.167353 1.253232 115.065865
2.388176 11.925638 131.945847
-6.511317 -9.137843 143.594086
2.118133 9.724945 112.216484
3.617662 13.372326 148.122223
22.044928 8.989002 132.067047
-21.037455 3.997717 129.782486
-5.567241 -15.143922 115.396484
7.243011 11.027213 137.412384
37.257721 -0.571448 121.985527
-16.354952 -2.819429 111.254929
-1.717587 7.333733 112.227592
20.856930 7.526558 129.898041
4.765945 -14.918551 115.643639
12.097631 -10.076819 108.018761
20.261284 3.824691 130.668884
-29.698748 1.415276 130.808640
8.863017 3.637246 154.667374
-4.970787 12.081655 101.960968
-35.787651 9.591701 121.228622
11.613907 -8.053791 126.335854
12.089987 7.083495 151.798615
9.597091 -11.366118 136.752380
-47.360657 2.999100 106.465637
17.111357 -4.245054 105.531433
8.187865 -16.827068 101.953476
2.931917 -10.025245 142.164612
2.608232 6.873744 115.501488
0.047138 6.069204 112.682617
-3.288528 9.718153 134.967972
-14.653241 -7.061764 101.655739
-5.216276 -9.304001 120.166267
-33.072506 6.054645 129.641068
-13.672794 3.556959 130.897095
-29.270514 1.728692 124.478737
23.014513 2.717244 143.130280
-16.386461 3.082224 150.412491
-8.836002 -0.817195 142.477295
-46.031361 3.628139 112.093079
27.529636 5.278686 123.688805
-7.172637 10.255621 108.286964
-19.894186 -1.598454 134.357605
0.704881 -13.744223 126.410500
7.616348 -15.012260 132.364899
-11.184522 -2.729625 144.666199
9.245374 5.106162 117.402969
-5.175210 8.113209 111.145912
45.437016 -3.310234 107.234535
-10.261006 8.207063 153.968307
-20.829849 9.158407 142.112045
18.371397 5.691759 133.143326
2.411598 6.381305 116.741638
-14.539487 11.587024 146.650177
-15.235918 -3.649039 114.745377
29.557411 2.171932 128.906128
8.064792 6.758554 109.808586
15.672723 -9.137048 133.339630
-12.950509 -4.691200 118.612350
-11.242157 5.059331 124.424919
-43.115734 4.793825 114.921768
6.627749 -9.734207 134.180450
32.305721 8.510754 126.156662
-41.457527 -0.402827 121.708679
-3.293222 7.738668 129.061203
-39.221962 -1.456214 110.963676
-6.063802 -5.929359 139.931046
7.268415 -13.586901 105.936272
5.994672 1.999408 150.313202
9.800022 3.671604 149.802383
4.099848 9.512081 124.299667
-8.087666 12.118447 99.781654
12.417784 2.236131 112.422256
11.579819 -0.788527 129.650085
-5.900891 -14.882900 124.210365
27.809769 6.101218 135.924728
15.454974 9.921854 144.879715
-7.522120 -1.517307 146.746399
55.095966 -0.794276 108.333359
20.604372 -2.008755 133.429550
8.937803 -15.660063 110.656624
28.505911 7.295794 130.579147
7.676850 6.430718 118.445969
-10.688797 -14.737127 106.303009
32.026566 1.684745 118.272163
24.877195 1.701647 127.861679
12.313394 -9.585446 127.907318
-35.502823 1.424712 133.459167
-13.144257 -11.351921 109.111458
-11.607805 -0.528716 122.216957
-9.892357 9.619301 102.187485
0.341212 10.901438 133.289566
-23.329676 -1.204717 136.538620
15.669529 6.632760 151.894043
-21.228983 4.998907 133.994675
26.301723 8.885340 132.195892
7.995961 -3.590378 147.374680
-5.711890 13.167033 146.143219
-19.172886 8.408610 137.185547
7.620761 -16.259003 107.129410
24.433283 10.289130 141.718201
-11.231104 8.164647 128.623779
47.406815 2.070141 106.991562
-12.880292 -0.360581 121.956886
-1.228855 -13.784847 111.760208
-43.681572 -1.612168 109.761734
-7.824712 6.209735 155.784348
9.903830 8.135728 102.706772
-0.427761 6.106447 116.176811
-50.409927 0.993681 104.415016
30.303915 0.010747 126.377861
8.988508 -11.152637 136.412048
-14.970631 -0.469369 146.314560
8.218277 -15.621473 106.881279
13.447474 4.408644 101.769470
2.650188 -13.519933 121.129417
-0.632407 13.766067 140.414001
0.084208 12.880128 137.732986
24.321260 4.604642 122.659485
-12.392641 11.521440 148.445908
-15.798077 6.522765 154.948639
16.022686 14.066952 142.728317
-17.593544 -2.389364 145.080383
0.370769 11.851179 148.967621
-37.374805 7.200513 116.167610
-48.548542 -0.341196 104.563705
39.209152 7.332148 123.955338
8.085394 12.553653 148.758987
13.443731 -10.126784 107.751785
-47.032413 2.719786 117.189209
-38.027161 3.334101 125.345917
46.211308 -0.690929 105.635735
-3.861648 6.363511 127.199249
-20.245787 7.530441 146.876785
20.724499 1.595727 133.158829
-1.046682 -9.675967 101.051498
7.438915 -12.402884 118.320496
6.494534 9.756715 103.620636
-5.209923 -13.082492 105.644928
-18.162577 9.465693 136.185501
6.893484 11.679066 134.381790
45.676807 3.714417 104.903252
-13.543575 2.337121 152.509369
12.199120 -7.687520 123.961739
46.872410 5.066949 109.552895
-22.376410 10.923522 139.878906
1.510248 8.414009 109.844963
11.900395 7.825487 153.176544
-20.668276 -3.491196 141.786133
-3.420672 13.005226 146.662064
6.087406 0.599383 150.836105
18.066322 1.606618 133.459412
-9.913784 6.831212 127.155609
4.175430 -3.984509 144.343567
-15.925014 -5.315012 143.158600
-21.166769 1.066669 145.379196
14.934126 -4.577011 103.948524
-32.704437 5.622239 131.917740
8.876310 4.923349 153.445572
11.451738 -1.172962 142.186203
-2.767204 -17.403700 119.254501
3.239180 5.699941 116.426941
14.154516 -6.389182 129.371445
-14.767794 -1.553073 119.159065
-12.083130 -3.388375 144.841599
-11.530985 7.211766 134.106277
43.417480 0.129878 118.767998
-27.236254 0.251084 133.732391
-4.552553 -11.996468 101.953461
-12.135428 -7.987106 114.930031
-11.546624 9.926353 136.527130
44.991348 -2.637717 104.704918
-20.474386 7.479622 134.792831
-1.343892 13.348753 141.861633
-35.449665 1.774927 111.720779
5.167734 13.151153 142.384613
-13.094718 -0.849443 119.356293
34.655445 -2.025885 121.139893
-8.834908 -9.202183 136.706070
-15.210218 7.023594 132.070419
42.116421 2.332904 107.093155
37.345238 -0.222052 122.824265
-5.826623 11.253785 134.390976
21.721724 8.254532 140.905533
13.617720 2.757146 111.743011
-16.334181 0.725690 105.587540
-5.464603 4.808906 121.628952
-14.702063 4.298112 152.107788
-18.938271 -4.814286 106.898811
23.865002 8.811027 138.655136
-4.208040 -10.554598 110.390038
36.841164 5.880327 116.705338
10.882755 -0.466780 150.666229
-16.648254 -5.796251 134.165131
-19.321972 4.836591 149.462738
36.965069 5.823022 128.612778
5.772027 1.832838 155.009064
14.895852 -0.744648 125.780022
4.501338 14.131258 144.970917
13.912808 -3.344063 128.578995
-5.261916 7.927413 156.690872
3.419339 15.829006 141.871597
-14.581754 0.063768 146.354752
-29.624887 -0.455509 127.802696
13.619887 -3.470560 132.983154
8.792810 10.952289 148.102875
-20.236355 8.032407 135.619644
-1.739208 -14.965760 124.754074
15.914479 1.307857 108.386963
-40.178864 3.414519 123.651154
-1.868366 9.116070 110.037521
-0.627634 14.325007 144.549576
47.675186 -1.021808 116.267090
-20.650293 8.243739 133.534195
-15.727727 4.567273 105.914833
-7.802118 11.624477 150.584732
-12.236643 1.382863 122.815781
-33.883324 2.386441 117.142792
-10.290263 3.951630 113.597626
-15.411299 1.900431 112.832710
7.314535 -3.899668 145.500412
-37.706696 -0.879227 118.104088
-16.653545 3.017116 100.843910
3.080624 12.595905 107.829910
28.134529 6.479571 125.637245
51.327095 -1.253126 115.092987
13.838860 -2.179746 122.074524
-3.800112 -13.326591 113.899712
14.181951 0.939597 120.422363
41.298599 3.647352 114.015129
-23.503695 -2.353790 141.237778
1.249926 7.631617 155.108353
-4.570761 -14.600102 134.446243
0.147033 -12.003148 119.681435
7.603440 -14.761562 104.781471
8.514394 10.671547 104.822937
14.266630 0.909739 128.767181
-4.749918 10.024759 105.800896
36.634754 9.723152 125.058434
-22.923025 5.779571 128.170441
0.428406 -15.394402 103.711914
46.004383 2.940153 111.304146
-5.421164 -13.322741 126.463707
6.129847 -4.643568 147.357376
13.157894 13.553642 147.646057
13.415450 10.074108 145.134903
-6.409567 9.514463 129.433441
10.978238 10.966493 142.998550
-19.628071 9.004483 139.832550
29.431675 7.326071 129.554306
7.318981 -15.466588 131.993988
9.066489 -14.989565 107.602753
49.117130 -3.011247 116.426048
38.317127 7.038351 122.895050
7.869672 -6.639929 140.990616
10.319324 -4.425998 125.852654
-52.288765 -1.918804 111.305077
-26.788813 6.367459 137.514618
-31.064280 5.834370 124.063988
-10.997391 -0.127337 144.586288
-6.870468 6.801093 124.078941
-0.343341 8.018260 111.069611
-11.261488 -10.837057 118.980850
-12.696208 -2.472105 147.661224
-21.277899 0.313735 140.364075
-0.584417 14.017074 142.084915
-3.573575 9.434350 113.757462
8.526327 -4.528044 146.821274
-7.473219 -6.876414 148.965012
-27.027588 6.302291 125.599113
10.454288 3.576420 119.424767
15.980757 -6.767054 137.500595
-38.977989 4.386878 113.224030
24.094416 3.764583 128.042114
-2.521410 6.460911 124.427261
-3.895027 -14.257068 108.160118
13.818644 7.822999 131.618500
-24.681480 0.212118 124.569794
-21.479279 0.493811 133.458389
11.812506 -10.916389 107.225357
-9.366711 -0.917075 118.853065
9.724361 -10.255064 110.573975
-6.535455 1.227845 150.772324
-14.680840 -8.643103 104.200592
30.798548 -2.353691 129.425827
-11.681572 -9.979140 126.845856
43.670303 3.720109 114.266357
-35.261578 8.298526 123.257988
-21.843557 -0.146030 140.467728
23.660198 8.360274 132.939560
-18.758091 3.697917 148.739059
34.126930 7.634135 126.195389
18.000069 -2.946520 135.424454
1.852099 7.550726 156.182297
-4.750043 -9.017591 141.463211
12.960537 -9.496585 115.872726
1.678707 -12.753378 116.998955
-30.997128 9.199109 127.197449
12.145641 9.057588 107.184502
-4.535873 12.958188 144.737213
14.090307 11.429669 142.751465
8.031245 5.794610 111.405914
-0.566282 8.778288 109.816246
26.684494 -0.959947 123.974274
-11.439639 -10.892443 117.002930
-17.899302 -0.623527 133.939392
-7.573216 -14.499266 100.477997
-4.037929 -12.834088 113.754974
19.897413 8.018806 138.093735
-0.197167 -11.748143 100.373070
15.767631 -0.457478 146.553696
-33.638474 8.186937 120.728203
1.455531 10.599213 101.782639
-0.156941 13.228613 141.232178
-9.942362 -9.753730 137.598236
-14.640388 4.962497 115.386459
-13.795646 10.809500 145.719177
-36.559692 6.651161 118.770317
-27.490025 10.000316 126.462524
12.041991 -5.708362 123.284790
-46.919361 -8.275776 110.348145
17.097380 -3.442934 141.821838
-6.493738 -13.903771 106.016006
-44.173450 -0.700804 109.820023
-37.549664 -0.331348 112.975266
29.375687 -3.025062 126.456139
46.596447 -6.244676 114.900406
-47.063572 1.981707 102.605232
40.396809 -0.444173 123.234581
-35.708309 -0.245070 117.246490
28.528553 -2.299120 123.146736
-1.475309 -12.864926 102.316399
43.329216 -0.072566 121.791901
-26.449894 4.771270 140.963867
41.010201 -0.635907 109.525360
1.152495 9.903041 145.887268
-10.942986 11.979417 146.261383
-20.609331 4.209406 150.373154
-31.373800 6.382186 119.703911
40.405231 7.600223 121.511139
43.721577 2.790293 106.795784
29.881725 1.122084 119.108078
-0.326653 -12.986599 101.467903
20.103706 1.624542 132.041855
11.936244 -16.715826 134.682251
0.162669 10.800581 150.648468
-27.442602 5.740757 135.023697
-46.219902 -2.391223 111.097519
11.134520 -8.674575 116.831207
-13.816588 9.910012 141.080627
-13.173038 -2.868057 124.350647
-49.898090 -5.004518 110.488785
-52.453327 -7.463129 102.910576
7.108109 -14.151747 102.590263
7.149685 6.785811 125.903137
-7.055509 -11.471900 136.674454
4.124076 12.491986 145.297806
-17.761959 -1.868353 140.811844
-5.044941 14.407029 134.718765
10.599520 8.849778 152.046326
13.985757 -5.606198 129.168503
15.524224 7.540611 138.021332
13.980659 5.535099 112.944916
14.191914 -6.533125 143.538040
-0.503037 7.181216 114.342010
-11.162666 -4.971010 143.189346
13.677018 -0.886106 124.661629
-35.203865 4.040712 119.292473
28.768791 9.247838 136.639297
-4.280826 10.361406 152.223480
-41.035995 7.053934 116.978363
-19.247635 6.556958 150.052933
37.174644 -0.698898 115.370132
-1.813601 -13.281767 137.622665
-13.460366 0.717473 130.260544
6.063302 -13.498464 121.417587
-18.094938 -2.873507 128.562317
-13.122473 -1.904945 152.095154
35.878593 3.657119 115.487579
-14.345205 8.285961 150.043716
-2.537278 -12.726273 119.859985
10.106851 -8.969942 118.746521
36.383144 1.276631 121.865112
21.076891 2.628840 145.235901
23.096697 9.069316 143.188690
-26.825836 6.083189 135.001144
10.360451 -12.592309 135.946594
6.077562 7.758674 111.022552
-12.842064 3.008271 112.157196
12.425308 -9.339822 107.470856
-33.097504 7.991076 120.079109
15.556591 3.760399 105.346870
5.906315 -11.513784 100.728874
10.315937 -13.653424 105.432938
17.750387 10.068484 142.316376
11.806877 -12.104156 134.022324
29.769407 0.590471 129.706223
-5.900640 -6.057422 145.398972
34.348862 7.037336 128.650116
-51.982704 2.404058 112.313530
2.025554 -14.097034 116.114059
-10.635985 -14.910390 132.910629
10.837160 -0.958039 148.382080
-4.515777 7.392736 153.521454
5.037340 -10.732039 127.620300
-30.116590 3.449911 121.366905
11.339798 1.043067 111.524948
-42.162395 3.760244 111.673134
-57.674259 -8.727086 105.188332
-6.999216 13.002282 139.713440
-10.836848 5.907201 126.589600
22.197874 4.277946 129.560989
-17.151680 4.972993 102.496605
6.906016 8.342686 131.141098
-26.124895 -2.888313 130.686829
-7.115694 11.120752 132.593872
-38.005196 -1.465664 112.152527
-29.361059 2.256969 125.170166
4.114423 11.188048 99.242157
-0.052070 9.637323 98.267456
13.574569 -8.325843 129.672272
-51.225807 -3.944170 111.286255
53.637173 0.456264 110.197090
6.372088 12.920586 145.638046
-15.198778 0.824609 107.199203
-6.245780 -0.490798 151.512817
-14.973831 9.745715 140.852432
-5.927942 -4.462965 144.213303
-30.635103 1.604090 136.839966
1.640227 12.378322 135.759430
-5.452298 -13.479693 135.928741
-19.365723 7.120772 133.776306
6.000939 -13.916222 103.825157
-20.663563 2.475072 133.345062
4.476115 -14.254120 128.659332
10.028533 13.535634 138.917572
-21.328890 -0.181586 141.236374
-18.813820 9.948910 136.956299
-8.335485 -9.217963 122.021378
20.340364 8.119721 144.165817
-50.800312 -6.992164 106.436516
-42.849072 2.814814 112.792336
-7.412875 -9.618771 141.255081
9.712005 -12.862554 136.135788
-37.157284 -0.684207 122.352310
10.258455 -8.813914 140.289261
22.529621 2.759406 147.179260
-34.688385 3.962796 131.888138
11.733362 10.079051 147.554718
-5.128358 11.428802 134.355743
-41.642834 4.693943 124.389877
-37.044899 6.368900 127.469635
-3.610000 -1.393893 146.851288
-26.311653 0.379436 131.280853
-4.324204 13.992223 132.808350
7.216685 -4.872540 145.244705
14.985409 -2.158587 127.071495
34.996796 2.296333 114.681450
13.929828 -5.572306 127.489487
-5.006704 -13.355254 127.902107
4.738637 8.770232 128.978973
10.848627 12.918826 142.210022
-14.692396 11.207374 144.657364
-7.828679 5.081523 151.026566
9.278560 7.497703 151.303635
20.140581 0.040228 145.191116
11.502520 6.389452 123.034538
3.108392 9.168894 108.903389
10.142298 11.156873 131.971039
7.907179 12.389785 137.248642
-26.201012 9.202568 132.880188
40.389065 4.522933 113.116501
-10.965756 -10.923399 123.392288
11.012654 6.529900 131.710922
-11.102652 -1.164302 150.251923
-0.070117 9.643291 153.577896
-10.704472 9.545453 106.735291
-12.022922 -8.517963 122.601280
-47.740360 5.716721 104.877747
-13.087303 -8.789382 121.251717
8.162208 13.663969 144.684692
-3.838017 -12.387927 124.761482
-30.680017 9.743099 131.751602
48.809204 -3.347746 111.081818
11.104302 9.748622 147.440369
-11.967627 -8.651139 119.809685
11.803663 -16.551964 110.745743
18.970907 3.400909 151.848862
-47.053242 -2.764927 104.732742
-33.013634 3.534135 132.154144
-12.880345 5.965404 112.942581
18.645962 8.273292 142.152969
17.766270 1.464172 103.122139
-15.371911 -6.376764 109.699944
-2.517052 -10.369125 140.812546
-27.009842 9.019738 135.346069
-38.054310 -1.438901 121.889420
-47.145752 -0.489018 115.718536
-14.991021 -1.848354 110.828377
11.535995 -15.059619 104.939056
-49.005291 1.525068 101.560364
-1.781292 6.438748 117.255653
30.951429 3.352314 123.638214
-10.778092 -10.311818 115.321190
47.465416 -3.792800 109.264969
5.774259 7.504207 105.071167
-2.530787 -12.143912 139.310898
-18.481642 -1.412963 144.794601
21.464973 6.616630 145.254837
-10.941092 7.431218 120.857407
3.239438 8.592342 113.369728
28.219971 1.973019 133.696350
4.673878 13.883095 144.693558
-9.481002 3.458742 152.476776
4.878643 -3.173817 149.282043
5.655164 -11.707075 122.917130
47.139160 -5.217092 106.026520
-7.240303 -13.290325 136.206009
-21.685167 -0.597284 137.059982
5.306984 9.220474 129.167847
-42.926785 -3.551727 116.044250
21.660208 7.988894 142.826859
-9.196589 -12.542809 129.038025
-5.477246 4.673965 156.925064
-12.693298 4.969848 151.910919
18.787905 8.446611 134.821533
3.406973 -11.790184 138.727020
32.902145 -1.961813 121.746819
8.233928 7.490194 129.830246
3.733074 12.112380 137.884857
9.572244 6.265844 107.421379
-5.386716 9.982956 105.728050
49.232353 -6.171901 109.079178
51.404354 0.463572 103.258461
30.856667 4.458329 123.581238
-51.534290 1.268475 108.014565
13.496572 -10.934189 139.513611
-36.890392 2.417426 128.307846
45.142632 1.144611 105.930542
-29.457733 8.066844 133.153229
41.926483 -2.087310 113.939003
-3.599288 8.950270 108.993584
6.213211 9.842974 152.937378
-32.677208 10.078149 126.124451
-30.973759 0.426060 135.859467
15.905757 -2.984786 140.812973
-5.037626 -3.182718 146.441498
9.303385 12.376909 103.572762
1.398020 11.824359 141.574142
-3.650763 9.700179 152.553040
-5.971435 12.570013 135.897476
17.749517 8.981195 133.527985
-8.820401 10.617901 137.000824
-3.590291 8.218303 104.828873
7.783975 8.052084 110.484993
-21.155403 8.800104 131.779388
-14.116104 -3.624037 134.700363
-13.532456 4.867882 107.095154
-1.017511 -10.684081 140.996078
49.664955 2.612989 110.100914
-13.865673 2.186838 113.569466
-48.694439 -5.517255 111.855133
20.768866 -2.047024 146.063614
24.159891 3.738675 142.977707
-16.012907 2.211460 150.666245
4.004790 13.042443 145.355896
12.159408 -1.964651 147.698624
34.893200 -0.150233 115.066231
40.027508 -3.605790 108.765373
37.438362 -2.758893 118.639839
8.145318 -14.614323 106.639969
1.307834 9.328721 150.830627
-13.904922 2.245775 121.493340
40.243961 6.065661 125.813591
11.924593 -5.490279 123.272324
10.146886 -13.913943 108.378250
-26.456320 9.945198 136.684311
2.889781 9.750697 124.404259
14.838296 -8.038546 136.924347
-29.099321 5.320240 132.884293
21.867371 5.765157 147.515396
-20.758989 7.858212 139.340286
-43.486523 1.579598 107.754936
-17.647846 -0.900422 101.622505
9.714802 5.426420 125.513710
2.672273 -8.934136 139.095795
20.384535 0.720499 148.711212
-14.329563 8.122232 135.454330
-10.736991 9.857015 141.027908
-6.224878 9.836997 103.745285
5.108373 10.249035 134.169617
26.978346 -0.322117 131.156570
-12.701578 3.875448 128.007797
51.855564 0.383863 101.895065
28.529194 0.838322 131.190384
-45.894218 1.460868 118.797066
48.104504 -5.927544 112.723854
7.689358 -11.175391 132.682770
-4.013807 -11.832747 139.720947
-7.238345 -14.532493 104.720726
4.071740 -11.982257 124.420876
-1.482949 6.610791 120.703674
-4.986085 -12.989074 105.340508
8.194839 8.117685 104.946953
-3.005351 9.705053 150.695312
31.807907 1.684121 133.427383
8.578959 -3.872255 148.266159
10.258845 2.158927 116.590797
15.033376 2.599924 105.416595
26.567766 1.449338 128.492584
-2.709125 -14.244046 132.986359
-8.656330 8.695250 133.365814
-0.750481 9.929503 116.245331
29.974661 1.338366 125.977188
-14.334679 -5.696747 139.553162
-11.638331 -9.040318 138.215973
45.472290 -1.440804 108.678658
-45.314445 -0.859214 111.036545
-5.411757 11.244632 150.044159
10.429623 -12.759339 121.282715
-25.859177 4.238464 136.319092
-44.799557 -3.379198 116.695389
39.934422 6.280363 113.317696
-0.581222 -13.864075 113.052338
11.424083 5.212516 112.699989
-4.356695 10.500142 152.010559
-1.365214 8.356845 158.157837
20.116802 0.621409 140.910202
-17.523359 -1.339989 130.570969
18.620789 -0.510902 145.356613
-42.242065 0.930516 122.571724
-13.012326 8.251199 152.892014
52.423466 -6.027154 106.768906
13.522998 -3.664367 128.487717
14.834826 -1.464725 148.323959
2.900097 13.876583 145.227249
-12.054223 6.217029 110.330162
32.781857 1.669330 126.615906
-3.757378 6.564916 122.200569
-22.981112 4.357949 143.116776
-19.250174 -0.343097 135.213486
-15.548117 -6.471357 101.760498
-17.157486 1.004909 132.638901
8.034119 -2.439503 150.746750
-5.043609 7.932012 106.079132
-16.785242 -0.051876 104.078415
26.496105 0.616066 124.475105
-34.630970 7.116609 129.038437
55.962280 -0.511787 107.020119
-27.218317 6.381288 134.889496
-13.091663 5.519270 106.666954
-43.093307 3.548531 110.320534
-13.097445 -5.495261 128.911041
16.020901 -8.146594 136.096695
0.261644 6.988577 108.946045
-11.901524 8.712736 130.617325
27.027321 8.262572 125.896713
-4.093930 -15.179206 138.959824
12.640810 -6.065039 123.194893
53.794140 -4.406182 111.011955
1.196025 6.003294 109.525459
-21.595201 1.726100 143.409668
27.275560 7.796553 136.002502
11.066524 -1.716385 117.121292
35.436127 1.603236 117.540848
14.083998 2.774225 106.668739
0.900969 -12.536748 118.441826
6.789571 -13.790519 109.893906
-22.261606 -1.466893 140.133209
4.193754 -11.598838 95.485214
-53.327969 -0.080485 109.678795
9.741335 0.030974 148.519028
5.715425 -15.479020 127.282211
-11.640862 -11.812403 105.885582
-18.814146 8.497454 137.093796
-1.334727 -12.387640 99.044937
-11.961293 -7.142251 116.869850
6.168530 10.138038 102.869560
-25.069904 4.860549 139.390579
-31.705210 1.936846 121.245987
-13.344810 -5.094030 124.514069
5.262964 13.546529 134.604553
39.300846 9.228341 124.719955
-49.203217 -3.465740 103.123703
-4.872794 6.086834 154.801025
-19.895784 11.367116 144.932541
-5.046116 10.817509 106.038078
-0.260761 -13.675809 115.979645
-29.463884 8.660610 129.258972
-14.328737 -5.769386 139.402206
-5.105512 3.308065 152.914825
55.230633 -1.672673 109.125969
-1.913521 6.069963 156.607117
11.700069 3.679693 108.794304
10.639874 -12.691133 110.034546
54.640427 0.489777 107.928810
8.739593 1.624275 115.583176
-9.488261 -15.330167 112.808609
-6.605298 4.961421 153.501709
6.901170 4.073484 155.038208
-7.170899 -14.473315 135.429779
-45.408333 -4.436401 111.183823
2.464415 14.401649 147.863678
-31.599249 -1.332227 123.302795
17.465012 10.028281 149.133728
-8.035834 -13.752851 110.948853
-4.743409 9.240232 135.930893
-38.954323 9.043512 117.871414
10.636217 -10.461256 127.088432
10.697019 12.585798 139.224518
-16.591181 0.550179 130.813049
32.448555 1.647724 120.426964
1.822263 -15.268708 134.324631
-11.216115 0.420806 147.046341
-7.803444 0.451036 143.365616
4.766482 -6.777657 144.470322
-38.303967 8.266560 124.519707
32.136475 0.199470 129.711624
43.652489 -0.164955 119.319069
