ply
format ascii 1.0
element vertex 2048
property float x
property float y
property float z
end_header
31.001686 -4.633741 127.276352
-46.488823 0.134170 127.287315
25.699696 8.437814 128.376724
-45.927956 -2.798917 112.687263
-20.236486 7.877673 148.149857
-39.058277 9.410470 109.531784
-25.665840 -4.250080 140.201691
8.064438 11.798400 134.553070
50.448780 0.834811 107.480537
-49.495239 1.154292 124.962852
50.118675 -10.415760 111.309914
50.003719 -13.846623 112.421349
17.087791 9.320734 147.356339
47.648773 6.280540 123.121635
-12.347002 6.970285 130.978943
29.451233 1.859831 139.622787
-41.347225 8.536932 120.724899
-31.858150 -0.640394 112.658188
-10.834789 8.451434 129.612656
-37.013268 -0.665304 137.522247
25.536160 5.853283 138.163513
-5.004037 5.796422 156.868256
-44.979294 -8.931881 123.907349
-33.796196 1.278501 110.135406
38.852692 -8.318212 111.270935
-37.009544 -3.714284 108.572044
-55.906094 0.176471 112.225273
20.223597 1.209397 126.254692
-50.716709 -2.563600 130.039124
56.191132 -0.087228 116.101341
7.049838 0.290229 150.627823
-10.382484 8.047101 151.636292
-7.368304 11.075598 130.448013
46.236614 -8.499184 111.626244
-22.452999 0.050635 127.576340
30.202053 2.721588 119.279007
24.139532 -5.980148 144.140900
27.518095 2.385444 143.551804
7.214449 15.162979 133.234253
1.304777 9.786917 140.255493
26.982250 2.952156 140.758347
-33.336399 -0.228766 113.223816
-31.574097 9.765882 123.057159
-22.876661 9.427089 136.781891
18.946840 12.098589 136.137466
-13.863750 -2.924345 133.877518
31.692881 8.459239 130.255829
-22.408056 3.494936 124.210640
15.262182 12.787275 141.485321
23.401278 9.697329 130.397202
-41.474312 9.714890 121.287308
52.017971 -0.909215 111.988846
-53.854786 -3.064194 120.993126
-28.986032 2.445016 114.285736
3.766112 13.477091 135.722900
-27.891285 6.143867 120.295753
-31.915964 7.360425 122.043556
26.785715 8.962353 136.640335
-57.125851 -1.336397 119.714790
-32.330582 7.981589 121.737038
-44.651772 9.429866 109.750023
-17.420137 -3.814576 135.646271
-46.358845 -13.942105 116.963165
-55.226307 -3.431239 114.345734
27.275826 7.914407 128.760376
-27.107342 -3.112900 117.435692
33.776333 0.878419 131.314468
51.284004 0.639922 121.941887
4.355198 11.603673 148.698990
53.043041 0.062747 120.707428
39.060417 -11.852413 123.629738
10.497821 6.732186 151.484955
48.951187 -5.243992 110.006844
15.443794 -2.335419 146.915359
-10.167175 -13.053085 137.539124
-41.941010 -1.988664 107.430664
-35.246346 -5.502519 123.480736
15.829005 0.270649 136.210739
46.004894 -4.854291 109.932030
42.241966 -7.488384 125.057785
-33.532040 -7.663658 118.011444
-43.157120 1.844893 106.081406
-52.879261 2.971962 123.267647
-34.518799 -1.308457 131.752213
31.789457 1.914663 136.996918
-50.291298 7.633702 110.527550
25.755150 7.858129 137.695602
41.142975 0.838693 127.404152
16.718779 5.781608 134.032471
15.671896 1.995167 134.618210
-39.666874 6.749271 129.422745
5.608087 13.796813 134.192276
-47.853382 2.660552 109.482018
36.412258 -11.625259 120.601936
31.394278 -1.231397 134.740784
43.701973 0.039178 106.378242
53.713924 -0.275103 110.859764
-12.161467 12.148048 149.531784
12.118714 14.001094 139.865967
47.009403 -6.691251 109.434097
-47.388210 -5.524911 111.923347
42.097763 -0.797667 126.230888
-19.635519 1.985784 136.774460
-47.225311 5.752562 107.732437
-20.317768 9.561697 143.198792
2.403111 13.947956 142.226456
-34.723606 -7.294572 115.595268
24.351006 5.210085 127.516457
2.723226 9.939160 148.447250
-34.517273 -1.623117 139.867554
-56.907036 -5.767518 115.715881
-52.176582 -3.456529 124.528427
-33.919151 6.608638 132.764526
-46.329205 -9.050352 118.325638
-27.564362 -2.992566 111.116440
42.997936 8.263874 109.374809
20.342815 -1.223036 126.555809
-40.674664 3.685889 128.614609
25.755404 4.902545 125.543007
-5.990058 10.350770 149.336975
-9.805441 -6.289319 141.616440
-34.710369 -3.589070 109.699890
38.990562 0.624759 111.141144
-8.320597 10.822306 130.761887
-46.065475 -6.600200 113.466148
39.772884 -8.732339 121.606216
1.868099 10.211456 147.811005
-56.262249 4.558544 119.787376
33.685360 -10.533864 122.921906
-26.350943 -3.434367 132.632996
36.972004 1.310961 108.544724
0.860123 -6.751413 143.416138
9.196455 -10.306993 136.553497
20.474380 11.021948 134.273972
-44.207581 -2.139495 107.574280
-41.533768 -6.774426 120.831985
-45.216461 8.940955 113.591003
48.918419 -4.252293 121.175758
-22.634319 3.358126 125.248177
13.998875 1.766973 150.757782
-38.773636 -5.448559 110.083893
23.081921 8.507960 130.888855
8.144063 4.866697 152.746460
-44.489372 10.304225 119.243141
10.248875 -2.582760 131.899292
-51.978256 6.049851 116.291862
-25.175430 6.900659 128.434021
26.243420 8.079026 140.451691
-16.181259 -5.269404 139.551102
29.996317 7.703652 130.331635
21.460087 -2.550200 137.812378
-43.498436 10.758271 111.442200
-45.796780 -2.644204 130.062103
-45.292065 2.414024 127.222038
13.074390 -10.641776 140.369339
-13.848076 -1.709681 136.451981
-35.998398 -6.052074 113.002441
42.516426 -13.380691 113.565277
52.455090 5.751451 109.193497
0.436999 12.226816 136.783173
-46.238686 8.997921 119.228142
-49.215172 5.131545 121.998116
-28.807249 6.971256 122.151085
-26.296778 6.319272 127.427620
29.302715 -8.019199 126.449089
28.750238 9.483306 129.443100
-23.641567 -6.110747 140.158493
-48.876057 -10.605514 112.507065
29.443726 4.290679 124.788864
19.407566 3.101133 151.235764
-5.735243 -14.851167 130.832336
6.514404 10.328619 134.603683
50.006630 3.630069 121.844040
-22.622231 3.585972 129.792404
-13.133387 9.988396 147.693329
20.964909 -0.146827 144.722687
26.258387 5.705056 141.077393
35.557758 -7.807283 122.687553
29.995569 2.067222 138.003815
-31.811295 4.573695 110.391724
42.290783 -10.488178 110.624634
-8.429064 -9.524850 138.419052
39.714962 -6.517850 130.511200
-16.460571 -3.432734 143.880768
-20.877377 9.701006 146.086227
6.943352 10.070109 129.901398
1.584492 -15.345374 133.256851
-53.933125 6.973701 117.218445
-52.504807 -8.531235 113.326454
-14.509657 7.260968 139.937332
58.152115 2.108098 112.861977
-39.292408 -10.350135 117.054199
-3.723179 -4.218433 144.503799
50.898045 3.155115 111.241287
-36.911152 -0.344545 135.336136
19.627874 -4.683558 139.549088
11.106621 5.133360 126.328735
29.972063 11.445387 125.957436
-5.995707 -0.713724 154.965942
-15.999667 13.643168 144.938507
-22.636580 4.035146 150.936188
-32.382851 -4.517556 124.887009
13.685353 -5.282291 131.357788
45.995323 8.248153 111.426674
-55.945446 -8.542831 117.285995
-34.465439 -8.375628 123.548027
19.621601 -3.576298 146.576584
24.866404 12.100970 129.623566
-27.149551 1.166209 143.911362
39.926186 -9.791982 117.628647
-43.135853 3.810266 130.205048
-53.657551 -0.699709 115.113312
-17.165937 4.296957 125.603279
-50.971359 -8.438907 112.027817
-54.064220 -6.084181 118.674088
44.392010 3.007783 105.770355
-16.949484 9.624273 147.595230
8.681915 10.842528 143.981644
20.472063 9.394739 130.918991
-24.329081 7.007809 145.624023
27.698030 -0.722220 118.508156
39.177063 6.937857 115.989952
-43.297138 1.457773 105.451942
-53.006088 -9.068339 116.937302
-26.065729 8.566607 128.759399
-29.504890 -4.561022 115.600861
29.301168 7.825412 122.756439
33.372131 0.007392 110.319427
32.390850 4.262937 117.033997
57.141960 2.496792 119.356911
-8.663187 11.333661 148.481979
44.376713 8.923713 121.813614
-4.192254 11.067079 140.275391
45.079311 -3.399013 124.206459
-38.530212 -3.349545 128.340103
35.411217 1.267354 109.772713
51.990009 1.870581 118.483665
-35.117149 7.871978 121.409729
48.637203 -9.303638 119.887726
36.516174 -10.624146 110.742348
-7.980833 9.979672 147.506760
34.503490 3.799360 129.722076
-27.753424 -1.275358 138.520355
39.489124 11.996076 119.879036
42.017128 -11.126454 113.603920
-29.228960 7.425148 137.954254
39.585934 -3.130301 128.935516
25.668955 13.615562 131.731354
0.634323 -13.007043 134.893082
23.659655 -4.315518 140.402374
-53.101452 -0.425945 114.885002
-39.697468 4.738886 127.258163
39.851498 -9.503342 129.463287
40.559723 -0.862684 129.944992
-21.435158 -2.329773 147.817780
-52.057388 -2.297189 112.839493
-48.735157 -10.149179 120.463791
32.773514 -5.648259 130.016174
19.804752 0.929214 135.353363
-15.509521 -1.798702 136.019470
-0.673478 13.323388 152.765610
-26.570358 11.354921 141.322601
54.669777 -7.128605 119.869087
31.073080 -7.961587 119.701691
15.484084 9.091716 152.319702
28.519926 9.317551 133.752182
-25.459864 -2.461621 125.205368
18.076248 10.003009 138.771103
37.294594 5.384395 110.295074
-51.637341 -9.818931 114.545448
-22.814156 -0.856313 148.960556
-15.647880 -3.832026 136.739410
-6.613941 9.236670 138.481949
18.603493 9.427139 146.470642
-22.392168 -0.002758 145.112411
-30.102646 -0.232964 144.182587
-23.276365 7.986077 127.678734
24.034454 10.295553 132.626907
27.497555 -6.592183 128.168915
-13.507195 0.180389 149.815521
3.444869 -8.340411 141.376373
11.461048 9.777781 151.517105
30.796625 -2.390786 131.801041
-28.667191 0.846655 140.342010
-29.670242 9.363119 121.362198
47.617146 5.384233 107.683075
8.250937 -12.077509 129.959808
22.641947 -2.019033 130.735382
-53.303158 3.434673 112.099724
27.554697 1.728593 139.174759
-30.822004 1.987341 141.786743
-35.555786 7.457740 127.267960
33.790783 7.926411 120.556076
-30.311407 5.615040 114.633926
-52.949608 3.227074 116.900352
-8.311908 -4.111758 146.521606
25.598560 -7.325819 127.246689
-14.000530 7.255888 131.808228
-6.347999 8.389849 152.766617
-22.055691 1.132543 149.368851
20.403633 7.850788 133.640762
44.221645 -1.256973 124.378181
13.197110 6.630941 153.861664
-50.900913 0.200503 128.977600
-31.638224 1.139546 135.949356
24.582071 -2.723202 139.500092
-51.323990 0.684938 111.660637
43.141090 2.938901 125.520317
-21.786821 7.033818 147.842346
40.489788 6.431552 106.440720
-55.452026 2.913906 119.314819
-29.411610 0.092478 136.086563
50.620579 -2.631505 121.693039
-31.357771 -1.307529 112.352112
-16.009262 -6.208499 131.975296
4.798837 6.934242 156.207092
49.596630 -4.065915 107.145241
2.957739 11.306512 140.654892
-24.680006 3.913542 125.646423
32.566296 5.056339 134.864319
-6.831844 10.599005 152.280396
10.047354 3.432276 152.187897
29.868145 13.581565 128.126190
28.483192 -1.194830 142.173904
14.306165 -2.929891 143.016785
-5.287666 11.450795 121.686440
-49.506058 1.564683 110.430382
36.339088 -4.471495 128.734451
47.905094 -14.532262 115.206551
48.428860 -4.930162 109.556580
-13.426229 12.235556 133.936005
45.709759 8.776620 118.508171
32.116001 3.178955 120.346970
48.080463 -8.804688 111.395729
33.536461 9.704204 125.122620
37.668655 -3.089373 115.402512
-51.674515 -5.088268 121.209106
-34.376324 -1.526548 108.961716
-3.101936 12.085457 143.906174
-26.751635 -3.750594 134.221878
-48.715477 7.653779 110.133232
46.924938 -8.645672 123.453445
21.509682 3.167665 148.174896
-4.599827 9.730219 126.897888
-24.846174 0.150267 146.659698
56.166592 -1.869713 115.469528
48.313560 -2.119543 102.480537
-32.046791 -0.277240 140.096176
12.679045 12.287704 143.211990
-20.426702 8.235633 128.384125
-20.139965 -0.441963 127.935898
51.027500 1.248470 112.169006
-50.163139 1.326216 113.598724
6.805481 5.722793 152.829010
-22.924253 -0.593362 118.317154
30.930029 11.386399 126.807137
-8.674110 6.823200 126.700920
-44.347301 -6.402536 122.390923
-33.940857 -3.239881 112.681343
-33.999123 8.298491 116.510719
27.421785 7.182237 140.402359
46.090603 -8.834413 107.175667
-37.175488 -0.953618 110.401642
-27.414820 -7.773345 117.647995
-34.907520 1.815316 108.704117
-35.369377 8.206800 128.937988
26.720074 4.244878 126.646210
-25.893940 3.667817 121.490036
-38.135448 -2.456260 128.282150
-19.525251 -0.611871 138.175140
52.903622 -2.579565 113.003540
47.083828 9.389030 110.387779
31.999603 -6.082953 114.832977
11.828098 9.524104 136.274933
-15.645643 6.635435 136.223038
5.915764 -8.320879 149.625381
-39.305161 8.067844 111.494049
10.782898 -10.917832 137.872101
-6.613305 10.132545 149.188309
-55.648315 4.104496 118.195435
37.211369 -7.923368 126.510437
26.106520 -7.236746 135.727097
-26.287384 -3.735320 120.403122
21.216932 -4.421427 143.449753
-36.982441 -1.010947 136.175247
-55.018826 -6.124101 118.070343
48.113361 -5.849885 109.955139
-28.370630 4.051755 138.232849
-8.149411 3.059569 153.507904
-7.430412 9.847642 135.702515
-49.546959 7.124165 118.766075
25.401590 4.686498 139.821045
9.802748 -14.135222 133.797729
49.472408 8.025124 121.021103
-32.236919 10.087052 129.509140
-18.785688 -2.773857 143.134521
36.086758 -9.410606 121.356926
-45.918133 -10.323191 119.774155
19.142385 0.176926 148.267090
-1.030462 9.684354 130.905106
24.842073 7.728437 130.383698
36.518585 0.643882 110.567978
40.624939 -11.437325 110.248474
34.687546 -5.953117 133.420441
27.464634 1.064893 141.612244
5.378205 5.403868 156.694473
-25.581564 4.109400 127.563354
45.843822 8.664325 116.483894
13.148574 -2.804859 142.438675
-27.791080 -1.766101 129.379990
-51.931862 3.373746 126.529045
17.476278 8.691257 142.718872
31.465176 -1.141296 114.272835
-20.242603 -3.785081 146.361633
43.624161 -6.440230 128.231293
43.870186 -1.074505 113.778908
-25.467886 1.610123 122.990700
-45.471809 -9.607488 112.521523
-41.999649 10.198852 112.357628
34.316574 7.057613 115.617088
0.135384 15.442930 139.827652
31.177422 -1.267029 140.722702
51.912422 -7.226031 119.691010
-32.958107 4.396794 116.795639
56.625774 -4.862287 116.305832
-43.068920 11.672671 111.318893
43.815125 -7.177906 124.929932
47.112629 -1.475339 106.398033
-10.608188 0.090146 149.087280
-6.501408 7.434631 153.106003
-45.037071 -9.865831 119.669579
-38.684940 6.851675 113.549736
36.022053 -11.044497 117.285400
-29.115969 -2.227501 145.206680
-45.649574 -8.461504 123.632706
-27.804451 7.117639 129.139191
-38.539337 -11.720439 111.042931
1.629718 7.990037 125.133209
48.108917 4.290689 108.068901
-16.106932 8.330735 139.450256
-52.629707 -1.293696 114.718117
28.957741 8.631204 127.467911
-0.113683 -11.058203 140.286697
-0.037420 -2.792634 152.074417
25.198441 -3.214019 124.976776
-13.150288 -7.811804 141.992569
46.005238 -1.206452 110.390984
50.262753 -7.023600 122.058258
2.183154 13.628688 148.335144
-50.065258 5.984837 121.387711
46.787598 9.851809 112.640770
51.543510 -2.010884 121.128975
15.279425 2.887969 152.321304
30.300129 0.138417 138.369202
-26.910334 -4.724366 127.455528
15.381873 1.685113 153.216690
16.885923 1.592128 132.821640
41.813202 3.577767 108.505318
50.710083 -0.686710 119.884911
-51.123203 3.972007 109.234642
14.243672 7.715833 139.013062
-23.248924 9.150543 142.424011
-46.073643 0.528478 126.103539
-40.860718 0.825349 131.907471
-36.450504 3.909666 117.381256
1.133416 11.108332 152.833008
49.965145 -10.638824 113.221436
-42.586502 -4.338056 128.470566
-19.616177 4.759768 150.972565
-26.418627 -5.290435 120.360344
27.009497 -7.791344 125.745285
-55.137913 -2.920855 116.634926
-1.612860 9.108667 152.935486
51.170341 -7.422834 114.598366
-47.197029 -13.034361 118.991562
-47.893929 3.388258 112.764732
47.244659 -10.443686 116.026558
46.669655 -3.873651 110.178665
-28.021791 10.603512 134.784424
-33.183254 5.167112 108.972359
-18.349171 -2.969771 135.591766
42.687069 9.880691 110.431969
20.780262 -1.173195 149.287750
-40.704700 6.312806 107.393295
27.172075 3.679085 123.867523
-40.014244 -3.756710 130.042572
7.222040 7.085927 154.753098
-19.056856 13.708870 142.362579
-46.578285 -0.341674 109.402306
14.586843 -1.925429 142.510666
-43.695343 8.844076 110.821716
39.226780 -10.604623 123.677025
44.272247 6.255555 106.584961
-38.474869 7.658294 111.779144
-40.027683 8.403255 115.133568
13.856730 0.840239 148.805588
27.803940 6.371640 122.345444
45.948444 5.462785 105.173492
-12.171363 5.557032 151.504440
50.303726 2.106037 112.381950
42.147327 4.740473 128.839020
-24.264498 8.062195 141.472092
-11.913489 -6.467452 146.973282
21.175480 9.675012 139.135910
-10.732869 2.000822 151.700302
5.356327 -2.526567 148.733459
-6.738349 -6.620161 143.698257
7.116488 -5.890938 146.271164
33.030983 -0.917449 136.014923
24.886900 8.711946 139.506775
13.869235 1.876820 136.313934
38.474739 -10.377360 115.525375
31.382893 7.648599 131.074066
-34.350811 10.114233 130.492905
49.256927 7.202178 111.669891
38.858410 -3.489517 108.660896
-11.652165 -0.250552 126.286308
32.527584 -3.863223 130.984970
-24.962387 6.039319 139.697021
-51.429920 2.693496 113.121681
3.718868 -12.863574 137.597580
-18.736938 10.443196 142.253723
10.694534 -0.260945 148.459061
38.933804 -6.252789 112.418922
52.073906 4.418433 110.654716
36.370098 -4.810428 128.559036
35.984222 -4.851802 118.494637
12.552127 -8.859658 131.257645
34.914661 -3.694166 113.208893
-14.638168 -7.164119 135.873566
-46.217621 2.619512 125.084686
31.025667 1.149112 132.944107
16.729561 11.865478 141.807510
-52.189579 -1.640561 113.391586
-41.786705 7.386817 109.441399
25.783829 -9.705891 124.106720
37.719246 0.018999 126.521347
-42.642551 -8.190401 121.092262
12.021451 -4.200200 137.648209
35.796394 1.121789 128.269730
-42.959549 1.578154 130.250748
-18.389627 0.523915 137.093842
-27.001219 6.338756 142.081894
-6.260621 6.438563 154.969299
36.418468 9.110815 128.847076
47.309906 9.676686 123.467804
-16.552603 -2.052058 143.237534
-53.296612 3.658370 119.411865
26.918081 -3.552957 123.048378
34.835777 1.245324 113.873009
-14.307611 1.690813 132.625946
45.844269 -10.209138 109.036674
9.690049 6.198657 153.285706
-18.916367 -4.571177 136.424576
-47.326889 -0.787945 128.719345
-30.554544 2.459675 114.987556
50.436211 -7.396294 121.386345
39.755848 -9.830984 120.288620
2.076697 -15.118905 134.251221
48.971085 -10.118968 123.388161
-5.885268 8.183431 126.640137
9.038598 13.477819 150.169617
48.566235 2.708583 110.545013
41.764977 -3.407457 123.650185
6.844851 12.006967 136.245956
38.143108 -4.531921 130.105026
37.931690 -1.786195 113.571671
30.739344 2.105953 116.980881
-36.277790 7.574229 126.208710
-47.392906 -11.983534 118.135208
-45.918972 -2.679322 106.422455
25.265787 -3.526170 142.152252
-12.722210 2.558752 132.638809
-30.887764 -0.066520 112.542290
-5.375943 -13.528725 133.259216
-41.861221 -8.242027 113.873375
-46.197201 -11.158278 113.929749
30.010483 2.016572 120.167046
-19.542919 7.810591 136.651611
-26.105330 8.744025 130.259415
-21.575895 7.759664 143.633453
-46.669849 0.032165 109.671341
-30.131969 8.469264 135.321121
43.966057 -7.583105 108.296341
-42.601944 2.946971 123.916679
-2.883279 10.860466 149.701080
29.217306 9.709154 131.103149
4.606602 11.405107 147.052444
18.815182 9.246608 149.518646
15.555411 7.677676 128.081635
-37.768581 -3.666409 131.961761
-6.225324 5.530557 155.066742
-55.661758 -4.974136 122.236252
24.251005 -1.501497 140.027695
47.140388 -0.601815 106.594109
23.774780 3.930529 127.857872
7.626997 5.887744 128.396255
-55.046139 -3.346908 124.361252
-30.417168 3.962526 110.340569
-46.684757 1.484733 108.539619
25.932070 -4.907800 129.861710
52.901852 5.239586 111.072563
5.643856 6.150293 152.437988
53.846169 -5.533997 119.132996
-3.408600 11.304684 150.350372
-44.989784 3.064438 129.032364
-3.905207 11.844400 146.121719
-5.826222 -7.974696 143.712326
-22.173277 -2.245400 133.692429
-13.913729 4.715069 125.057701
-44.881470 -4.594287 109.680511
-2.117237 -3.624811 149.517685
24.754726 -3.298348 128.321487
-44.980492 -3.679017 126.271561
48.270882 0.345541 107.131767
-30.075573 9.200375 126.518982
-30.554985 -5.127144 117.217552
16.447317 0.721804 136.247559
14.201325 -5.808991 139.735687
50.591133 4.167334 114.256279
-45.162743 10.116963 115.417709
-56.068623 -3.373196 120.330643
-4.596335 13.535138 143.130051
-23.321390 11.023639 134.402634
-0.878162 -4.404196 146.394485
-43.515053 -9.416339 118.973900
-32.638287 -5.206920 115.030754
43.408642 -5.818573 106.353004
4.755338 -9.139777 142.773315
3.237222 -15.685972 131.393417
3.395983 -4.864350 145.028503
1.342254 13.099847 136.317291
-25.109474 8.894409 128.076813
41.518929 -0.806316 129.876480
46.518539 -3.341428 123.975288
-41.557255 6.365428 123.763290
42.029751 -4.642690 108.381142
30.721424 7.789202 120.009148
-3.375317 9.983598 150.598755
35.804859 9.889600 122.055893
13.310823 -8.275210 135.786560
7.715455 13.624377 139.428619
33.974136 -2.303189 133.553223
-1.295545 10.266309 153.341095
-47.351204 1.955099 108.244247
44.454399 3.710153 111.765343
-13.792155 -6.524991 139.303528
-15.199017 2.915326 132.071716
47.382965 3.888560 109.441483
12.686657 -0.073738 151.641144
21.688610 11.233407 137.240768
32.840458 -3.815169 116.117439
-48.288277 -5.595267 109.426178
25.199631 3.462966 140.607391
-20.144308 1.464755 138.651337
15.764188 -0.918334 143.581039
30.138205 11.973294 129.043732
-53.920029 -2.591024 121.188446
25.738039 -5.763584 120.259445
-51.904469 -2.173666 126.737648
-49.899090 -12.497694 116.478554
21.655518 10.096196 142.382126
47.600788 -3.554518 124.579155
-34.118492 5.086983 113.109009
24.611654 3.899796 144.048477
-30.955305 4.920959 142.089722
13.156176 7.872462 139.121780
5.456517 -2.896974 154.382721
2.156721 12.446243 150.235794
-9.520121 11.421466 147.376160
46.852810 8.423292 109.679962
-45.646664 -1.686830 129.335785
-45.715942 -1.112329 131.630692
49.650589 -2.006983 106.690010
-11.204643 -12.711120 133.650009
-29.454102 -3.351571 125.564758
31.455719 2.973740 134.657272
46.306839 8.121591 106.877808
41.795052 -1.958929 124.603859
18.262516 -4.434909 148.339874
48.944897 -7.555811 120.147827
44.823715 1.705631 106.524651
-26.271961 -2.826513 119.112373
-0.275033 -5.229811 149.708847
34.981926 -9.491318 114.439842
43.946827 -2.905001 107.143448
-23.326279 -1.848348 145.781738
12.193499 -13.576953 137.965515
30.486015 -0.866578 137.700912
1.628569 -17.243835 129.577621
-29.531389 -4.198759 112.482346
35.614792 4.702422 114.644897
56.717964 2.783782 114.181358
32.921803 -7.838906 117.124207
31.964092 -9.360821 119.911049
-37.308430 -5.665852 128.272827
43.366344 0.698875 107.268906
41.256565 -10.156600 109.869308
-37.902790 0.852082 134.677551
-4.087049 -2.609998 145.155243
-33.769688 2.980065 109.165749
0.322882 -5.296527 146.422134
-21.268059 5.447670 147.513229
52.935204 -3.777024 112.690567
35.000237 -10.543746 121.582970
-54.870235 -3.100332 121.051514
-2.492042 -1.333791 147.770813
-47.288589 5.504253 121.731575
22.025122 -3.421889 128.261520
-15.957747 12.653686 143.309189
41.443802 7.080407 110.648872
53.367420 -3.405499 111.329369
20.188679 -3.072540 134.562408
-24.848837 9.838799 139.212509
-6.773952 6.209080 155.388000
40.604904 0.619505 127.441505
-23.953114 7.323497 144.361572
-27.119080 -2.424740 132.488968
20.695002 -3.802525 138.771729
-47.263157 10.018252 115.372803
-42.851143 -8.829515 109.965286
-23.343683 4.920968 145.096695
27.856680 -1.465373 121.906303
-33.733223 0.759238 139.134094
37.418945 0.778265 111.461067
30.268068 -4.575176 135.044647
0.722110 -11.113725 139.128235
-44.428154 6.535261 108.327591
15.396676 -1.757005 135.613586
30.995361 11.335310 126.453156
-53.833111 -7.458822 113.845810
48.711273 -3.291016 108.297440
-22.718580 -2.455448 147.651062
-11.377665 13.785548 139.744476
-24.243046 -2.969131 121.550529
17.058270 2.968296 138.054352
45.592148 -12.674476 113.757149
21.873755 9.103436 127.408455
-34.390476 9.932728 122.558449
16.321487 4.535504 136.437424
48.819046 0.401690 121.652870
-48.652103 1.517578 107.648308
23.391628 -2.652864 132.357254
-32.778965 1.190930 139.238312
-42.300526 6.477060 112.903076
-49.713219 -8.751472 120.763344
19.494900 11.862094 144.483124
-41.430439 5.232994 106.904709
38.806190 -9.412127 125.219826
35.839207 -0.459076 113.402000
12.084789 9.046799 134.526611
6.805387 7.714823 153.929413
45.236359 -7.410460 109.008865
31.525354 -12.066918 116.561348
-14.827334 1.691345 132.609070
-33.377033 2.571556 107.665604
5.231405 -1.618086 151.628677
-37.113983 -4.306174 129.811707
34.462891 -2.120198 112.423737
27.444033 1.675414 120.917160
-29.644180 3.936340 141.487762
47.453941 -5.943784 108.723488
-30.859869 -2.468794 133.402634
53.162514 -1.460699 119.306213
-3.170731 -2.536131 151.636902
-49.392159 0.153133 111.483032
35.350346 -9.025227 128.089417
-3.694191 -6.404283 139.108505
8.832604 12.017787 134.233383
25.380032 0.933213 142.495422
-27.316036 -5.458601 118.770569
23.208206 3.579221 128.805191
48.238110 7.679999 108.088188
-21.568361 1.919248 132.889542
1.240324 -11.180417 137.109787
48.905537 0.179173 123.211899
3.334900 12.190260 130.339447
53.800301 -5.296953 116.753914
-11.637438 7.496043 148.983475
-50.131516 -3.858580 112.611885
-3.588939 9.291093 129.318039
32.231728 -10.678347 115.970192
44.871353 -5.473779 123.731209
11.184801 -1.955776 140.426605
-43.913292 -14.263612 113.435524
-33.107582 -2.332162 135.112274
15.774397 -2.675525 138.324097
19.224953 8.520491 145.016129
27.274420 10.598104 127.886917
33.155449 -10.305598 119.265472
-45.698334 11.677045 116.181046
26.733940 4.676417 122.105148
-32.769520 0.592918 141.673782
41.047333 7.448542 108.175064
46.443462 4.654202 108.366310
37.593597 -7.442804 108.833099
50.606205 3.321851 121.320671
23.912525 -5.529937 140.726593
38.863182 -10.696924 123.041771
31.147802 -8.324780 119.259331
-3.442378 12.367987 145.852310
32.060787 -10.891443 118.831657
20.128323 5.296015 134.965866
-6.409575 -3.776736 146.502579
-55.298744 4.658139 119.317459
52.798264 -1.154196 119.043854
-10.587974 -1.609032 149.330170
15.180490 10.070642 139.889404
33.190907 4.824238 113.293121
21.165806 -1.952314 134.209946
16.080219 4.202454 150.802155
-31.807623 5.370670 119.016869
-45.652706 4.873251 109.534859
-33.672203 9.872582 124.817711
-24.073538 1.840655 145.431763
26.218670 -1.730087 128.160675
-23.192108 -2.410048 126.828514
-36.206955 7.193763 108.605515
-57.729275 -5.333333 121.223907
-46.293877 -0.275024 107.334618
-2.256506 10.907070 149.921997
36.850651 -9.387713 115.180519
-41.026733 -9.634515 120.794090
38.637215 9.181007 125.837616
-46.468956 -12.891443 114.058609
39.030178 7.657763 112.036026
-5.088408 -1.634968 150.925797
51.609497 2.607510 108.909554
-26.935125 7.335419 128.455109
-28.435112 2.474223 113.797668
3.856068 11.172416 146.935944
-11.253457 0.412608 150.095032
28.775517 -2.024271 137.014954
-24.174656 9.321522 141.148819
13.491946 7.057241 150.525970
-46.268482 -3.072237 108.902321
-50.663109 2.237867 112.513519
-28.799870 -2.482036 137.861664
-50.971363 3.293597 125.720734
31.131372 4.058755 134.839874
-44.958183 12.858173 113.895393
-47.993511 -7.325392 110.871979
25.110123 10.572807 132.841263
-11.613171 13.126837 139.914322
-11.776970 11.473148 131.635941
-47.423622 -5.073167 129.423309
-42.327560 -3.190119 134.875702
-20.322269 10.589162 131.318573
-45.446621 -0.023215 106.141899
2.149693 13.627788 136.958954
-26.653477 -6.454737 131.155701
-35.364357 -0.246535 107.723015
-21.958908 5.467884 130.694504
50.114498 -6.655812 113.105034
-9.548553 10.341922 142.563965
-17.769543 9.298455 139.433731
45.075569 -7.721974 109.301765
-32.278473 -3.753511 115.280975
29.166853 -3.924841 120.395630
-43.353271 -11.237031 115.191795
5.483376 10.853535 120.071167
-44.763977 -5.847998 127.603470
24.184847 8.242749 129.156204
10.744625 6.586255 130.920761
-16.598019 -1.636327 140.306671
-29.382277 -0.432965 142.423965
26.258587 0.267534 120.630554
25.921082 12.660630 130.128174
-10.510782 -13.750938 130.829453
36.013916 9.189426 122.832657
30.756979 3.365784 128.113754
-38.573097 7.742890 110.044823
-35.384243 7.810041 110.543869
-10.220109 0.552797 148.685501
-18.795681 -1.776123 146.053391
45.701118 4.641388 109.227043
46.746761 -12.865458 116.817039
-46.579140 -3.824629 109.179527
-2.884553 -15.282913 132.158981
-47.368767 -3.265858 123.763596
-26.953148 2.028766 144.272491
-44.438732 -6.720044 122.612686
43.072704 5.494542 107.039230
49.749172 7.285157 116.925804
45.288872 0.995568 111.385605
-10.963390 -10.221021 140.905014
-16.532713 -3.667400 138.284805
-33.069187 -7.266394 119.398209
-29.111601 3.022960 139.096420
-12.556045 -11.313915 131.180588
-50.303791 7.087788 122.865372
24.846262 5.904767 143.465057
-11.771256 3.383752 125.425339
32.318661 0.288901 112.636070
2.490486 -4.975064 146.341736
-35.627529 -1.258418 113.106499
-15.035230 2.874002 131.765854
-16.669228 9.082841 150.249207
-10.574541 -8.711429 137.440445
25.670658 -0.031689 142.332932
-21.283525 5.102448 148.271805
-30.216080 -3.482177 115.249115
-17.181791 6.707031 136.798035
18.783386 6.018978 149.706482
-9.066554 -0.897875 152.353119
-49.285347 -7.712592 112.133812
6.385513 -15.660462 132.365723
-7.997787 -8.659730 137.974991
13.679298 -9.114685 130.197800
-43.703960 4.023638 125.541664
1.992123 13.035086 135.012833
-49.944622 -10.259329 115.586975
-53.158119 2.056065 112.366302
24.578766 -3.819338 141.193314
35.914421 -2.649661 128.238007
-28.114300 -1.041766 130.740524
-44.780849 4.628043 125.781448
-13.669758 -5.120900 143.793274
-1.764027 -3.652065 148.338318
11.858492 -6.948167 144.262955
-7.174607 2.689986 150.695984
16.198654 -5.010317 142.348877
29.049904 -2.298384 119.239342
50.625526 -11.033636 118.647148
30.975847 0.367424 113.467659
25.991814 -6.529684 122.967758
-32.905418 8.974334 123.953957
48.216301 -12.645727 112.765739
-37.185104 4.667235 108.198906
42.056770 -0.765863 114.442177
24.262438 7.619426 127.049126
36.000336 8.064779 125.344833
-8.704079 -3.649975 144.556366
28.285730 6.984101 135.170410
17.709959 5.879298 147.581772
-21.774651 10.658484 144.801712
-30.298904 3.924754 114.162003
-38.659779 10.338963 111.624535
-20.126162 11.142729 141.178452
-53.214756 -5.220481 121.442398
-32.440254 6.026585 121.296921
-40.663029 -8.142815 110.486115
51.252476 -7.185124 120.348442
39.145283 8.231497 117.349022
-36.603043 -1.902666 138.786163
-45.076904 4.852333 125.067451
52.209633 4.868892 114.812141
-35.919796 -0.737543 110.502487
-48.775673 0.079913 126.903358
41.422695 -9.061796 123.383347
-49.720737 -2.837324 125.017776
-32.932011 -3.565896 136.524521
-50.731903 -2.508020 123.138748
-16.924488 2.679807 138.754318
-32.220451 6.741952 134.242859
-0.517493 11.111207 134.980560
-19.939138 -0.602873 146.907150
23.290960 0.842567 147.304413
-10.594524 13.399777 139.803604
25.038696 11.826935 136.861053
-43.047325 -8.507393 124.397934
-37.594547 5.216691 128.986115
52.447899 -0.643820 118.334045
49.972198 7.312533 110.001503
36.319973 2.056777 129.033371
37.080021 -13.404928 117.600212
3.675902 11.113023 127.079247
-1.223987 -10.433001 134.913620
-35.623043 -9.105316 123.403954
56.485378 3.782617 115.735092
-35.691109 -4.299490 123.902115
-37.750378 -3.822222 127.614189
-32.717495 5.766189 114.254967
33.513714 2.217524 109.960373
-17.165733 -1.441820 146.479752
-25.685114 -3.189186 142.584808
52.228195 -7.594317 116.591812
-25.416681 0.451852 117.466400
45.759647 -11.939358 111.839119
44.472565 -13.452877 118.443146
36.196922 -10.670444 114.976418
49.516747 -9.939124 124.034920
-23.212002 -0.608641 143.216934
-12.213623 3.777842 129.086929
28.452093 0.231069 118.778969
39.463142 0.454955 109.872841
-24.891432 6.533218 124.775093
37.664318 -5.075287 111.231323
-28.719643 2.944949 138.527679
-13.618569 4.140144 129.372604
-49.750088 -6.277167 118.546722
-1.087449 -6.738000 148.650131
-41.755928 -3.515265 107.547974
16.580357 10.404358 137.339218
-15.009776 8.932327 149.163925
42.392635 9.346047 110.285843
20.539268 7.568408 133.982697
11.946405 5.192402 135.206055
46.105598 7.940376 110.453880
-14.395196 7.841448 131.229324
26.166950 1.658244 125.680992
33.065693 -1.883259 138.088577
42.015152 5.944449 126.708946
40.694092 -1.954674 108.933807
-12.579485 4.877249 151.029709
-53.810314 9.935315 117.857124
49.926727 -7.721640 107.214424
-44.615238 -8.864985 118.910385
14.569931 10.372375 144.400635
-42.057144 -1.140619 105.825195
31.792315 -1.623316 112.559990
-51.858395 -1.947850 121.990143
8.993914 -12.562346 132.926819
20.888172 -3.266561 136.937042
0.369405 8.508573 151.757675
38.724621 -8.547780 114.415894
35.584427 -1.972447 114.170250
-26.706585 -4.727859 139.013977
30.585270 3.328897 118.547195
34.652824 4.600037 128.009445
48.314617 9.752498 119.737442
35.787811 -5.772727 113.713898
38.492538 -8.097072 127.596222
-8.228189 -13.083761 138.283905
52.308254 -6.534529 114.290161
19.291286 -3.381394 147.065247
46.419868 -2.042353 120.908592
51.978954 6.444097 111.834656
21.055780 9.661857 146.655228
26.912439 5.467621 135.742249
23.974548 -0.123590 141.943085
-39.924534 -1.543748 132.265198
-21.469450 -1.313734 122.539658
44.204556 -6.137404 105.967323
14.286159 -9.101035 134.153091
-52.247452 6.127010 112.652885
50.558353 5.976790 114.649597
19.364208 -2.498459 134.209396
-15.271521 8.978756 133.850113
34.461182 -9.622804 118.440224
-44.304886 1.717189 106.834900
-27.601183 9.717599 137.455811
-37.550224 0.823909 107.117470
49.495087 -13.040653 112.415047
17.179516 0.347115 135.361908
-21.444361 -1.512450 142.808441
49.463638 1.475149 108.457108
6.688140 12.624420 147.575272
1.304632 -5.007136 147.533554
-52.770058 -2.661995 114.021454
-41.702576 -3.283142 107.729019
25.106594 9.131516 138.585007
-44.113625 -7.439831 107.027061
-20.886826 -2.180683 145.717377
25.922686 -4.947928 134.371216
29.907272 -7.994076 124.033875
-8.983061 8.519682 130.138107
-15.228857 -8.015142 131.663208
-21.833235 4.741164 132.186295
5.651953 0.197939 153.584015
31.404997 8.297206 131.031799
10.339517 -3.081935 142.453201
8.747884 3.260974 153.638580
-52.225784 -7.976068 117.194283
-26.423975 11.259139 131.691238
-41.122173 5.523342 108.048363
42.355408 1.455288 125.725204
-49.007233 -10.262260 117.870895
-32.262257 -0.489567 137.580856
-43.893082 -10.051523 112.072578
-19.532682 6.980365 136.738098
47.720673 2.735168 124.080444
-43.697319 8.409994 118.811691
3.204038 -6.346786 140.591660
4.274452 -11.629982 132.367310
-5.117376 -7.474549 139.742889
-22.265165 8.217132 141.676285
7.480821 4.440021 151.570755
30.255917 8.108716 124.196442
33.995510 -2.437877 134.582657
-36.065571 -3.852706 131.299362
37.183949 9.871312 119.150658
-12.947633 -7.550955 132.234680
16.268473 -3.802083 142.775620
-43.242287 5.087523 107.717834
-53.542423 6.684796 119.791695
27.614901 4.186362 126.958641
28.255270 10.504121 124.783028
-14.257366 10.594520 149.569427
-40.192486 -3.166862 127.829575
35.849888 -4.367026 113.660744
48.716763 7.930657 114.945564
0.135344 -10.254201 139.060074
-52.481312 -5.125185 115.350342
39.072178 6.667581 117.893021
-17.839373 3.151092 133.643051
-39.184258 -10.412519 115.084633
27.343794 -1.011796 135.764359
-23.011789 -0.621605 149.372528
-33.790012 -5.994981 124.831612
-36.744671 -2.184175 109.638588
-4.661034 10.058710 154.120255
24.434744 6.182272 141.795334
-46.106792 -5.134476 110.190025
-48.001354 -1.933654 129.568634
29.817743 1.011944 133.561401
-31.746452 -8.966164 120.601387
23.987507 3.140285 144.125183
33.723518 -10.115173 117.502632
33.828053 -5.362905 111.524872
17.677704 -9.995719 131.831100
-28.066832 -4.752209 115.724342
-56.687630 0.121639 114.025269
-45.965946 2.926968 109.308823
-53.874149 -5.477535 114.456383
-50.950851 4.966335 119.742752
-20.684393 8.651292 139.976746
-43.010998 8.620112 121.597549
0.791037 -6.588892 142.292221
-52.747471 5.396723 118.423973
-52.093288 -1.670785 123.514984
54.242455 -3.573016 118.172943
15.121625 -3.826306 143.593384
21.859837 9.275233 133.763702
-26.658525 11.865166 132.047424
-33.631264 7.697037 123.340843
-4.065923 -5.410425 146.005096
-50.242401 -8.887715 112.402229
21.819700 12.178953 134.311386
-12.412813 -11.706064 135.298645
-40.922508 -13.002505 112.571327
33.389488 -10.128491 113.430107
-44.157246 9.969253 116.631485
23.269022 7.088384 130.227188
-3.237792 9.894459 136.605652
-46.894974 3.570236 108.431839
-9.525326 9.125601 146.111588
35.094532 -6.359847 113.056396
46.188766 -9.874452 108.525780
-34.116867 2.691347 109.380951
-50.175671 -3.981391 121.422852
25.904268 2.556957 125.843224
-17.262085 9.730355 138.915283
-40.786350 -3.229355 110.592468
-25.857140 -2.211095 137.202621
41.221237 8.965625 109.049446
-30.834057 10.259989 128.288437
44.757713 -0.668635 104.063812
-37.789124 5.403708 129.203781
43.326973 6.997323 110.698059
-45.980705 -3.446797 104.253212
36.015923 -2.026479 116.388496
50.615585 5.819812 117.535210
-32.837761 -4.149953 125.883812
38.031696 -10.593535 122.935181
46.184052 -9.715857 113.046059
37.471821 5.659690 127.543922
-31.474070 5.757760 118.096420
20.291573 2.328434 150.582397
32.993042 12.330055 124.729095
18.445644 3.330935 151.533157
-44.630821 0.241013 107.517685
38.656345 7.397486 115.736832
12.327987 10.030094 133.741013
0.344018 11.945974 151.335953
31.534641 1.625512 135.838135
16.375740 -0.303583 147.387955
-25.428028 -3.428363 145.458679
-23.512135 -1.562040 130.116333
21.355602 6.422790 146.970749
-45.259567 8.344955 113.126976
-25.633265 -7.525890 121.146194
28.273754 -7.503067 121.474983
-29.487001 -1.738803 111.471214
40.583477 -4.382693 127.280838
-5.071682 8.687558 152.637558
-32.331673 10.284002 128.773270
27.049196 2.234128 140.890076
26.893665 5.293464 139.547043
-17.884171 5.365493 134.018814
-50.873764 3.858170 108.815170
5.082775 9.101105 129.930161
-3.831509 12.556468 135.552200
-36.106731 3.119080 134.090729
17.262524 4.379912 154.547867
35.782253 -10.891490 125.134804
-50.920010 13.345085 113.845306
-35.680344 7.466609 109.689125
-23.137493 0.699583 120.292274
6.647395 -2.297068 147.110565
36.811550 10.912931 126.670578
52.298527 -0.876517 123.421478
-52.905937 3.439947 116.003166
-38.674160 -0.434281 110.115112
49.523354 -1.475908 120.494637
39.457108 -8.791598 111.188026
-41.123436 6.426839 114.537407
42.157257 -3.202152 122.713081
-6.012237 8.562286 129.199570
-49.901325 4.479798 114.403099
16.463411 7.755035 150.708313
29.932241 -3.569629 129.374496
30.192719 -4.292727 129.015854
-20.424509 5.119791 148.875809
-40.655460 8.904838 118.902573
-42.458660 2.293873 133.507080
24.034882 5.362550 142.327332
-39.844398 10.343692 106.709343
6.441871 12.042946 132.036682
54.683121 0.476425 112.818314
-46.270447 9.682602 116.992897
-24.372463 -2.302619 137.014954
50.305508 -0.026530 123.598137
22.518436 -4.845183 141.985641
-8.068633 -14.503901 132.605484
-58.518475 -4.663581 117.496475
-5.094992 9.682926 156.140411
-12.914167 9.082272 136.194061
28.879520 -7.042277 119.683228
-39.500423 7.991460 109.141678
-29.558102 0.082037 112.264030
13.830709 -8.108519 137.707031
46.707478 0.081315 107.985146
-14.233606 12.810830 140.951797
-36.361496 3.684482 133.211426
23.528896 -1.553238 145.150818
36.490448 9.413671 129.267273
21.948975 -5.414964 134.809631
-42.491665 6.427922 118.541832
52.119591 -7.589341 109.872963
-33.264595 -3.246481 111.366905
-53.874363 1.963431 113.502602
49.154953 -7.662552 120.968857
36.407539 4.790676 111.141838
-32.827507 2.980410 108.340652
29.471214 4.094600 118.805443
-33.460175 3.814387 130.992126
44.678574 4.371212 109.458084
27.757191 -7.747762 126.963303
-21.127895 -2.394001 147.135254
-39.850914 2.919015 128.647949
-24.330095 -1.669818 143.139908
-7.773083 13.216775 139.124832
-43.901287 -13.635276 113.744354
8.613962 9.822072 132.988983
30.194311 10.810858 126.479111
-11.633355 -13.070055 132.971573
37.378117 -11.154264 111.982719
26.861336 -3.871667 117.469009
46.532860 6.269203 118.200821
-39.403709 -10.862634 117.299591
-22.764547 2.327873 148.321732
48.847878 1.936339 109.643600
50.825138 1.273130 108.917091
35.299290 -0.490142 128.431992
-39.170006 -8.128150 113.003639
45.285698 -6.899582 109.072899
-28.544920 -0.932187 142.216049
0.326261 -5.920134 150.216324
43.919876 3.092251 122.122635
29.695883 11.488128 131.343735
-57.041527 -0.225004 123.384514
0.385068 13.755650 144.548431
25.640274 -5.123032 124.541710
-27.002377 8.544656 140.944992
8.776121 -10.577500 142.104385
-30.611835 7.983352 133.202789
46.031544 5.551411 123.525780
54.661366 0.706269 118.570015
41.369518 0.250642 107.897705
-6.073756 7.478062 151.467422
6.028184 10.504319 160.688812
43.864262 9.485735 110.838058
51.261307 4.913813 115.646309
-6.109126 -11.734283 137.081696
15.940934 -2.668326 144.218491
-39.098492 4.879728 108.073364
-40.722649 -1.527017 134.095764
38.030258 -0.276132 126.484131
-41.419147 0.604453 106.554108
-17.882288 -0.519144 144.412689
30.553499 -7.788838 129.677490
24.605305 -3.175751 125.879990
16.552887 2.908248 132.754761
13.635121 7.561973 151.300873
15.888411 1.214203 130.741547
-46.123844 9.140779 113.985519
33.006657 0.472087 135.887238
-18.832199 9.223788 148.471313
-38.033894 7.395712 118.341705
32.161308 1.147595 139.201920
-5.302764 9.387953 129.080368
-6.431542 8.080194 152.799423
-41.702705 10.823771 109.011032
21.558964 -7.234481 144.416321
-47.847916 7.808943 109.941025
6.320079 8.665851 154.438187
32.256554 0.078363 132.707748
13.890688 -5.546168 132.164963
53.489868 4.761411 119.010071
23.843098 1.731532 139.937057
15.599994 3.415182 153.912003
-1.984559 -6.640822 160.290848
-39.270966 -7.713571 110.384399
43.448879 1.421696 109.475227
31.506742 7.325225 121.315331
-50.617050 -6.352983 119.080406
-15.774912 -1.064360 132.412262
25.432907 2.297957 126.355774
28.037033 -4.774823 131.066620
42.345184 10.325025 123.263374
41.328526 -12.678936 116.165146
5.126205 4.726627 152.837540
30.211172 3.030626 116.566589
-3.624395 12.785802 153.772034
52.524609 -9.168393 115.511276
46.094467 4.945539 108.912422
-27.053095 4.384831 139.386810
-27.084835 7.035282 140.428513
32.909210 7.312247 129.569382
22.633068 5.922617 145.730469
45.858326 -3.961664 124.124779
41.027752 -3.272420 127.180923
20.725353 -1.564829 130.599487
48.087868 4.223789 105.181816
-48.285324 4.363177 111.061378
25.055866 -4.247085 121.154160
-30.372168 -3.856277 120.061363
27.177153 6.186187 142.533112
48.258930 6.838941 116.051178
46.049049 -13.063455 114.195480
-27.671267 0.246984 138.789764
-26.288721 -3.139886 124.963432
47.014275 -3.557062 110.788139
-16.700089 10.851830 146.218170
5.069818 12.662587 132.251740
-19.105846 1.754478 150.137863
-25.944628 5.747641 130.820526
-46.544376 -1.850843 108.492386
-30.106289 8.773957 124.391281
4.392541 9.272424 128.520645
-1.937241 11.023862 140.208511
32.560524 7.941443 125.123795
48.825142 -9.003243 122.306885
-33.215290 -9.565308 118.171906
-1.902848 13.236405 141.388412
13.404808 -10.169961 130.264511
-46.827702 -12.015706 116.292305
-17.515026 3.096642 148.180573
-33.716446 8.746313 121.735565
4.170840 9.547003 152.084641
-48.805943 3.790372 127.027702
22.835146 9.425756 141.238983
-26.866177 -4.978923 121.629890
49.336998 2.703866 109.670486
36.862507 -1.174833 112.334091
45.757614 -7.512180 120.365845
-50.130291 6.041769 111.192505
-33.470741 -6.059265 125.268654
21.704201 8.843037 146.118866
-45.554604 6.629337 125.995941
-7.082486 9.152642 152.021042
5.987837 8.181775 131.386688
16.176008 9.225926 138.070618
-42.034664 10.570536 116.764908
12.264108 -3.450905 131.049026
34.694344 -8.113968 127.036263
-43.744774 -11.792311 113.170929
21.833132 9.148719 142.742477
-13.342339 1.491240 149.662567
6.666183 -8.153036 143.944321
-26.399158 -0.724410 115.850052
-52.716915 -6.896305 115.440361
24.043058 9.196348 130.406479
28.148834 -1.822435 139.811432
31.974482 -3.638406 117.671944
24.636099 2.501552 125.559128
12.381666 8.176510 131.078918
50.308155 -10.211782 117.807297
6.504308 13.244035 139.250641
2.421910 -1.504696 150.349350
-55.747406 -3.918738 120.460815
-39.390057 -4.946028 111.523300
10.026481 11.915949 137.048233
-18.940313 -0.907337 146.591400
-38.798702 0.687683 105.160034
-16.043697 -0.875484 141.846283
-45.721710 8.625247 114.726402
-14.516706 0.679863 131.598129
-32.922512 1.091596 133.977798
43.200619 0.475988 124.796402
56.508785 0.425416 107.444962
-28.221640 8.870337 140.010529
-50.013180 -0.672750 128.188232
-38.976570 -3.364508 128.109375
-39.653057 -9.608274 113.191429
-14.133064 -3.072440 147.239502
-47.447010 -5.574154 112.291420
-51.706657 2.604457 113.458893
19.125288 8.966106 134.230896
38.418549 -2.465839 132.650162
46.899857 -10.024875 117.639870
-12.734200 5.169167 127.719566
8.788234 -5.697306 147.497559
15.119241 -5.225484 134.685013
39.827301 -3.654596 112.897057
57.035698 -4.731847 115.442513
-42.054657 8.251044 108.531685
27.767141 1.947967 140.696503
-46.797501 11.269618 117.492752
-44.675961 10.436444 120.324387
-42.006573 -2.495368 132.593277
52.823765 -0.593096 110.905495
6.359139 -7.043377 143.961243
-25.599064 2.416899 118.756149
52.762375 2.111161 110.857422
13.577216 11.526149 148.778854
16.308920 4.504693 150.328949
-14.129196 1.830765 124.015839
-22.558140 -4.293952 133.797623
15.077313 -3.524738 144.278244
-54.708969 -4.548755 119.932968
52.345829 -7.547492 112.989281
-42.111427 -7.079215 112.157021
-18.961626 -2.064605 143.533371
15.002232 11.656124 145.824844
12.901112 9.934809 150.297028
-44.529522 -5.803069 123.796501
-49.597813 10.005683 112.109207
16.041584 9.316311 151.219284
-40.773354 10.487445 117.481743
-8.924252 9.872408 149.916397
-13.610819 -12.580824 131.420547
33.507675 1.104243 111.808586
37.859577 2.503889 127.978416
-43.247124 5.413544 106.023193
-31.602262 -5.519109 125.035110
-39.288769 -9.129784 120.160172
-42.330112 8.702073 118.524269
50.157589 -7.421977 111.342491
-51.061813 -10.097236 116.211937
-29.775627 -2.377269 125.625244
-33.350544 3.614640 126.892662
-39.174671 -6.274999 125.328491
53.401062 3.137716 118.636391
3.013890 -0.751283 151.077133
43.320831 -11.186552 120.006065
39.232212 -0.910430 127.364914
35.828068 -5.607603 125.889153
-28.329575 5.930334 137.314163
46.297112 3.861542 108.791451
-45.026817 8.842677 116.182137
32.519428 0.610734 139.149445
-14.815413 -12.270123 132.805634
-43.836197 11.936341 117.199249
-3.944781 11.816544 138.709793
19.828978 11.093367 144.520950
31.975788 -6.044855 132.708267
28.228214 0.995057 124.751617
38.696430 10.860291 113.407562
-27.577648 1.438852 119.035522
-46.512531 -3.886882 111.024101
35.683086 2.917238 129.843460
-32.445374 -1.778984 131.212433
-12.367522 -6.067337 144.449722
53.512928 3.219366 114.129463
55.995258 0.882919 116.058487
-40.701263 0.371406 108.683784
16.482000 -1.239491 129.922440
2.810000 12.370018 148.699692
-48.171638 3.210766 109.454971
38.720943 6.400472 110.284615
-37.378784 -0.151934 137.160355
-50.875889 -0.463480 123.178780
32.372837 -7.534555 126.611809
51.665981 -9.196133 114.477562
-8.425313 -1.193039 146.712082
33.116508 -1.252622 139.922333
26.202579 -5.037790 135.877899
20.859486 0.163732 145.327591
8.162622 2.360612 154.813858
-43.159161 -1.314177 131.526077
-56.606453 -5.123526 114.615807
1.340997 -13.544187 131.536102
46.855385 10.194694 111.326370
-20.286100 -0.505882 126.819511
54.739811 -6.737318 115.532990
55.190521 -10.434201 117.141876
-15.370008 1.566542 137.439667
30.335522 -6.019186 118.064590
-33.645702 5.306091 118.036942
32.950161 -1.561562 131.388855
24.925440 3.730871 138.690155
43.779953 -2.688643 108.156418
44.843300 -7.365644 125.241463
35.912548 -9.418730 120.392265
31.832312 9.177180 130.919785
-32.446156 0.320867 136.819687
-30.264080 -3.426798 114.227531
36.834972 6.679791 118.413734
30.543530 4.677906 113.882301
-53.879066 3.847198 116.622559
27.899921 12.218472 130.128128
41.626606 -3.138520 113.497810
5.837495 1.141388 154.129303
33.297260 -2.873087 134.734650
-54.497833 -2.467838 118.159149
-41.120693 -12.037753 112.994453
-37.755852 -9.741388 110.140007
42.933155 8.946690 117.778107
-24.984671 -3.951558 121.086441
-41.769619 1.762998 109.185501
40.253822 -9.449138 108.578934
-49.485786 -2.220611 131.283005
11.121744 -5.932265 142.200760
-28.679241 2.868380 111.695358
-49.069569 -10.140269 116.999863
47.790779 1.577496 106.506523
15.540985 11.660312 142.243408
-4.854051 10.834331 144.565247
43.488583 8.275948 126.552063
41.839508 2.912426 125.604782
4.619452 13.759356 145.867767
-30.039051 5.544572 116.986214
-21.708839 10.471654 141.274796
41.252663 7.045551 112.395050
52.706264 -6.107819 114.427986
14.647278 9.828186 141.791718
44.056973 6.910683 120.323341
-31.350634 -5.380142 123.636749
24.494982 1.462148 146.380264
-43.497005 -3.214098 110.474510
-39.588871 1.084643 137.735474
-24.042477 3.449389 123.746452
-51.972252 8.398375 117.812775
41.781704 3.937385 107.190865
-38.911434 -2.235432 107.459274
53.356186 -4.629129 109.119102
-34.634331 5.748152 124.983795
-34.888397 -1.446386 112.703171
-27.175810 -4.166926 136.603302
-40.261894 6.641603 121.813240
-14.540708 3.958293 138.804382
-50.652893 10.042249 115.486916
-52.847427 5.634511 116.280479
-41.744251 -0.520667 134.945816
-0.545730 -5.979782 147.652863
-37.782013 5.750898 125.305237
4.752693 9.387856 127.992355
-11.896412 9.398079 128.136108
-6.784151 8.997658 152.123566
-5.710174 -15.959727 129.128540
-34.424034 -4.549497 122.220123
-31.114622 8.818927 129.194107
-47.962891 -7.893560 111.553001
-39.991982 8.451610 111.444626
-42.959034 -3.151340 107.958046
-50.894024 -9.790252 114.862450
-49.699654 -1.146958 114.279343
-35.439510 3.824603 130.186920
30.152849 6.108302 134.938065
19.113045 0.966516 149.584671
24.676781 -4.368648 131.683136
28.111397 -7.280693 129.696396
-13.314098 9.933348 149.924255
-29.423208 -2.422640 127.819931
13.658431 4.212579 151.996338
44.145531 -5.408738 107.435135
33.795048 8.867107 124.081253
-27.522625 -6.403500 133.062393
-29.461187 -1.947210 134.308289
-13.372482 5.731340 130.796570
29.969894 -4.584582 137.466736
46.889179 -7.747873 109.811890
32.508446 2.844973 130.775116
-38.649776 3.610985 107.314476
-49.347759 -7.135440 112.492920
31.614264 -0.004313 134.444885
-11.562731 5.039836 133.921463
54.595596 0.935184 117.728218
15.784864 -1.351999 134.025421
-30.827124 -2.363353 130.800934
-16.380413 2.978303 153.513763
-40.991470 -15.630784 115.453049
23.283102 1.965782 146.913528
-10.678046 -11.829247 128.686249
23.810780 10.660141 138.542374
2.675167 10.555478 125.960175
46.806870 5.389209 123.624611
25.624378 2.625781 118.654671
-10.815042 -7.281942 144.771118
-12.522184 7.709944 128.872925
-50.997211 5.675672 112.944412
-31.190178 -2.076858 143.458237
9.017821 1.016909 152.426117
-37.238068 -8.012200 110.308662
35.807789 8.060926 117.369331
-56.662952 -2.111125 115.184464
28.405872 12.620661 127.356972
-40.389198 -5.561357 127.840683
-3.860395 9.549827 148.276917
-23.085419 8.343074 138.569382
-37.394779 8.334466 122.027824
-52.077991 -7.331009 120.528534
-20.383694 10.860235 133.663895
-44.787624 11.532957 113.964897
-35.395023 -0.329491 138.189819
48.953903 -6.071274 108.215736
-17.770872 7.289559 138.234192
27.778385 3.739479 127.613571
-28.313707 8.466407 125.818886
-12.371898 -5.076873 132.133331
25.932436 6.159447 135.074524
37.869663 -9.262029 111.120148
-34.293354 7.451881 109.402802
50.194221 -7.125152 117.391129
-26.891392 3.566869 120.553581
-40.726028 -4.728408 129.292374
9.898758 8.783496 150.075851
-5.865667 -1.621456 151.612961
20.319134 -3.477672 140.221664
26.392838 11.317381 135.179764
-6.392287 12.114535 148.043304
-0.811860 12.686370 148.947113
28.836601 -0.922367 117.024338
44.933956 -7.303877 106.838470
30.652985 9.977952 126.553474
-43.272377 0.389525 105.309464
-45.439892 -2.926729 129.733902
-38.130726 6.375098 108.706429
-51.314232 4.712030 126.708931
-52.329685 7.810392 119.208115
-34.474625 3.428984 109.815353
-18.431452 8.985617 141.997604
40.970097 -1.931153 129.285233
-35.503307 4.967729 134.194870
-41.660625 -7.312707 121.686829
-32.627747 -3.027946 130.745956
27.044672 -2.614379 139.654419
-29.672688 -4.363443 129.088623
-33.136868 -5.224013 121.530655
-22.928360 -4.805676 132.569672
-31.997101 11.203056 120.529144
21.049250 6.933844 131.663361
-27.200808 1.465026 139.682373
19.706467 -3.235189 144.140778
-37.623478 0.869107 132.578918
-21.711859 -3.866577 141.837112
-38.549015 -5.333348 131.312576
10.854683 -8.097638 140.953857
14.428473 4.387546 134.511230
11.856546 -12.871468 133.817841
-51.052471 -8.663875 121.651588
7.718938 -7.623930 142.078735
5.618285 8.167787 154.347412
29.732946 -1.225967 138.298203
-2.058071 12.967400 151.914795
23.644953 5.997920 126.092186
-26.714308 -3.646998 117.049393
-23.962431 9.679111 130.875854
-6.533043 -11.994214 137.585114
34.357288 -8.129059 126.923431
8.451763 10.101598 135.590652
-40.017143 -7.602612 124.792473
5.019202 13.547153 137.343384
-30.857662 3.067908 135.428146
52.069637 -3.752186 120.498619
-20.369732 0.276818 127.214821
-50.358242 7.973962 109.692047
-52.826653 -7.912810 116.249092
-22.997606 2.684983 146.075333
19.857826 5.875934 149.965668
18.448238 2.279428 126.579048
27.530210 0.318466 140.450836
-53.367451 -6.719204 120.680756
-29.768154 -1.555244 118.635574
28.057615 1.861369 141.008835
-47.185543 4.990277 127.385735
26.999344 7.125025 126.177315
-50.548912 3.759566 113.887184
-53.066444 6.364595 117.889870
23.256105 -2.438967 140.866684
10.391850 12.637568 134.475449
-10.834634 11.503338 137.490616
2.046539 -5.736234 142.521088
19.204723 7.672826 149.816132
-25.802382 -1.625458 134.901642
-23.811954 7.849839 146.942627
14.838116 -2.178113 137.241501
-18.539402 -2.936105 135.362549
37.387062 -8.486293 111.230789
12.818688 -1.459801 146.527069
50.051079 -9.960352 115.693604
27.105152 10.314982 137.263245
-37.280903 2.291517 135.103928
2.423887 -12.226599 132.246429
38.858776 2.736162 128.457825
-47.588207 9.210109 122.652115
-53.620419 -2.701887 116.125504
52.375469 4.877898 112.604599
36.579384 0.496337 111.149582
-47.202526 -1.681813 132.600006
41.125874 1.572375 112.200760
-45.034229 7.572386 121.298431
16.199112 10.899012 148.342773
14.139803 12.453117 142.109497
14.061832 -1.017405 146.898621
-54.213062 -9.631742 116.872414
-52.213215 3.958803 119.768280
-8.481724 1.440844 156.299973
25.986912 8.479902 141.767899
28.373217 -0.890185 134.947845
46.188473 -0.556248 109.886497
-48.747414 9.279890 124.010773
19.851990 4.127122 148.040665
45.877060 0.076833 107.488663
33.738609 -5.912169 113.049141
-43.642902 9.289692 121.084465
-53.190544 3.037901 116.459221
-36.716751 2.122452 107.523636
36.209915 -11.435219 114.274712
-38.079998 6.671158 122.653618
21.419558 2.675128 134.867111
47.227173 -6.442351 111.771942
-37.370548 -5.461402 128.870468
41.087116 10.689789 119.129059
-42.009781 6.264421 125.432541
-37.800789 3.166900 130.155151
40.595345 8.872615 118.914291
3.347983 8.957629 157.457031
28.109442 6.400975 132.078262
-13.029596 -13.581992 135.784637
-34.373737 6.372307 112.837669
31.088974 7.956161 133.816162
-45.360100 -6.066032 122.027672
48.369370 -8.195952 112.697044
29.645380 2.320857 116.446342
-25.166193 -2.103047 128.229248
-26.324276 3.225962 121.609360
37.535152 -2.798741 132.961075
27.732061 10.792318 134.290283
-52.027206 -8.056776 117.945267
-38.981098 7.633262 104.995857
-37.922222 10.699796 112.528137
-46.895527 9.956292 116.974335
-35.793430 -5.062319 126.478088
30.727110 3.211372 117.696983
3.082829 12.134534 140.364395
55.335140 -2.218896 114.807343
4.946223 12.377737 143.379425
-27.410000 9.096567 137.189407
34.850285 4.745006 129.572113
32.390011 -7.468363 129.550842
-8.094903 3.129397 150.460510
-44.294888 -11.267082 120.055962
-38.644028 -0.612809 130.658875
3.742241 12.003870 145.531555
26.395508 -5.416772 130.095505
-37.372742 7.872975 120.419662
58.630272 -0.396955 115.356720
21.702188 11.789412 136.296005
-36.477646 7.131680 129.599121
16.827724 5.575477 150.610794
18.055862 -3.907487 139.361267
12.779633 10.115074 147.044357
16.511774 -4.077871 137.209198
-36.856697 7.181890 124.723663
-14.332906 12.012087 146.308197
-8.398119 5.061194 154.852493
39.142197 8.554499 125.907196
-37.124584 7.619632 113.776009
38.873123 0.809151 107.220207
-43.189945 -8.886467 125.707451
13.541256 -9.920300 139.510483
4.111187 8.880730 127.753883
21.844522 4.122002 146.523636
55.605217 4.818176 112.174660
-56.957504 5.589034 115.325394
37.082184 -3.461239 133.873825
-17.551325 9.336508 142.888672
-17.713541 7.966028 138.196320
47.814423 -8.332602 121.488007
-30.690176 -5.037127 122.352608
-35.007015 -1.774362 127.784264
32.183392 -8.286372 115.747627
12.936173 10.228487 149.599640
47.367744 0.563725 109.748589
21.173359 7.033126 129.873047
-45.133522 3.561262 106.411079
-46.248325 10.691507 110.705971
0.696334 12.696561 140.454651
-34.574688 -4.133213 125.240982
-47.134163 -8.174761 126.330101
26.558687 -6.952575 120.553314
16.881855 -9.485600 121.547729
26.705908 4.133819 123.876007
16.487316 5.176863 152.225220
14.686337 11.810951 137.050232
29.501467 9.757556 133.176193
22.786114 -2.264514 134.683533
11.628444 9.117004 128.159058
-47.569946 -11.836497 116.638130
23.271683 -0.519707 142.316376
0.484030 11.325569 153.618362
36.674969 4.648426 114.261711
33.136597 0.382657 135.103394
37.465111 -8.570100 122.287445
-29.609526 4.884797 113.201889
53.416176 -4.226394 115.324593
-45.285442 -2.401183 132.406082
34.345684 -1.570192 131.322311
11.197839 8.184820 133.115524
51.606777 -10.085343 120.005714
26.040451 2.536585 143.411850
30.156317 1.912253 133.168015
4.189494 9.544774 157.334946
-19.122261 0.420156 135.415665
33.820858 7.136894 121.646881
-37.774521 -9.045033 115.051903
7.678927 10.808064 129.316086
44.877941 -3.484484 110.448662
-6.223249 -12.432215 136.235229
-35.041920 3.927011 109.698761
-0.750287 9.388253 156.823029
-44.982780 -7.298690 111.339455
29.172377 -6.330888 128.021774
28.771742 3.540305 120.742737
-19.086281 -5.554304 143.677002
7.307683 14.266761 144.564972
-49.107994 0.471771 109.163544
-18.456570 7.681898 147.780624
33.570393 1.078351 135.554367
-24.623079 4.907504 145.791962
6.822936 9.796219 128.720398
31.878283 3.763003 113.622299
6.458943 3.831738 155.033401
41.460934 6.748881 112.620781
45.714375 -12.630580 113.241013
4.737319 13.205305 137.661285
32.596310 -10.847635 120.475334
44.251575 -5.981555 107.220055
33.372829 12.840811 128.534180
-14.987372 -3.926552 134.687943
17.452604 -2.552166 145.029343
38.849861 -10.295896 112.021584
-37.376717 2.863524 131.111343
-34.269611 -2.569959 139.832962
-34.665115 -6.935294 120.032814
46.607582 -1.486843 119.976509
13.883953 -8.433464 135.922729
-2.045162 11.544837 155.209534
14.296452 -4.835847 141.334091
54.286671 -7.745559 118.142975
-13.296309 -10.099891 129.886261
11.927273 -14.759488 131.393097
5.756613 -1.793372 151.749573
-15.370605 -7.725846 138.253937
42.816631 -6.368423 128.567856
-31.878727 2.816005 135.058487
32.048992 6.408073 128.517181
-27.120234 0.602248 113.936966
26.219585 -1.008289 141.465210
48.208096 -8.069219 117.268181
34.439865 -2.579098 134.321289
-27.584177 -5.899215 128.370926
47.967716 1.600234 121.609589
52.078220 -1.747085 113.502808
17.332952 0.132672 130.011246
-27.955372 3.632527 112.019745
-36.423367 1.927178 108.079506
31.018497 -3.564938 130.492981
-6.584368 -13.352189 133.627090
-51.934624 -3.907432 125.847145
40.643337 -1.319552 126.090706
-12.268446 -13.527579 135.865784
-47.712315 4.028605 108.755920
-36.697533 7.519199 129.107956
-53.227173 3.126248 116.398254
40.471684 1.760152 124.630402
18.353323 -2.471653 146.383820
-31.289179 -5.724609 117.299164
-14.497280 11.798277 143.146729
-11.458476 8.172524 137.509216
-5.753711 -0.237979 150.969070
20.660910 4.690151 144.141113
-18.006592 -3.217137 143.373810
-47.809525 10.303774 113.223473
37.642418 -1.593843 113.197792
-25.859125 0.195771 142.675201
35.380932 -4.560393 132.237747
24.803879 11.208913 142.271072
-43.050270 -13.561483 113.584381
5.005618 -9.453255 137.235001
44.733788 7.736443 119.412933
26.921793 0.853809 142.709961
38.235641 9.182663 120.632774
-45.044254 5.323280 123.006729
-17.720509 9.134372 145.149109
47.301186 5.168314 119.420609
50.476097 0.872901 109.323692
-23.541239 -5.056609 119.549286
31.914934 -5.694986 128.290070
46.341190 -6.863732 126.874565
48.205601 -0.101952 121.199974
-25.457211 8.294292 137.371353
39.289005 -2.014563 128.666779
-26.658886 1.290536 123.280937
-43.672329 5.186150 107.707344
9.475812 10.575690 148.468216
-22.638315 6.808075 133.293686
44.738312 6.884114 114.122040
11.887636 6.883977 150.728897
-53.210819 -11.568889 116.566673
53.683571 5.651416 111.643326
-53.286476 6.679812 119.257011
-41.145245 6.278479 109.398048
34.066021 -6.857977 132.697998
-46.040768 -14.039140 118.647652
-43.053745 4.883603 125.371704
-36.753464 5.163334 127.125763
54.603882 -3.503455 117.233696
-22.915693 -1.981197 144.634064
41.736778 -11.878208 118.375893
-52.857616 -5.107347 111.803627
51.236591 -5.044220 121.483826
45.950630 -8.603987 111.548714
-4.272187 -16.155924 129.927872
46.727867 5.784725 123.775818
-41.126686 -10.479522 114.659798
10.097561 8.002909 151.320587
-35.566471 -5.664852 115.229919
18.880039 11.914382 146.162796
28.335913 3.744421 124.020576
-24.527943 0.045923 125.919762
-10.553634 -3.851126 147.336838
32.500732 -0.370460 136.436142
51.561474 0.932513 110.107887
-34.739075 -0.555429 137.845520
-17.122967 11.843554 140.073761
-31.744429 3.174368 107.929558
-58.222233 -0.405858 114.820541
-41.827442 1.777767 135.208557
-27.000046 -3.559714 118.988510
24.362234 7.945596 132.739059
-6.276322 1.027199 153.890884
-31.117809 -3.068543 130.387100
-37.849445 -5.576337 126.030876
-16.817698 -2.223114 140.168915
-46.811501 -7.077022 110.379631
-41.968262 -4.193845 128.327072
22.971592 -8.176558 127.756126
-16.356756 11.524840 142.670593
26.379801 -3.256135 120.744179
11.530813 8.021221 130.893372
-45.439838 -12.691236 113.986626
28.669504 5.511622 120.317406
18.036734 9.554635 151.691681
40.856201 -1.515665 123.699593
-30.395672 4.645150 115.986115
41.614780 6.958956 109.016632
41.562576 5.750475 107.751076
18.988855 -2.522964 137.649918
30.188066 8.200667 132.440323
44.261963 7.263336 109.035606
-23.023367 1.656014 148.517929
-47.756111 1.417421 104.589844
-44.457447 -1.597181 107.643410
44.225357 -7.688572 108.958435
-6.168492 -7.826484 140.725189
-42.697525 5.076468 106.135918
35.941154 0.334256 136.596634
-3.175085 9.373454 133.219955
20.774281 -2.081592 144.005997
-51.454838 0.323193 112.431305
16.599798 4.915649 135.194412
43.278671 7.068084 122.254593
-29.874048 7.395202 124.062866
31.136875 -4.810907 115.782448
54.626282 0.058851 119.768440
-33.899887 10.963589 128.338318
33.479473 9.013144 127.090302
36.521015 -8.403422 125.643768
-33.565929 4.750501 131.723145
-11.459967 -10.892987 133.262726
2.246532 -9.650250 139.198242
7.659251 -1.776434 147.855331
-28.906713 2.730574 138.432220
-17.590317 -0.290275 129.449722
-33.252232 8.927192 127.203445
51.935078 -8.316468 113.194016
-46.674736 -1.203103 108.533867
55.080639 -0.018193 117.665062
18.825163 10.941624 147.040070
37.648834 -6.157276 127.866600
-46.266846 -9.572176 120.633102
-37.088329 8.870602 115.870567
27.248348 12.005079 132.861176
3.558326 7.982339 154.357483
3.110618 -5.641010 154.042267
19.501358 8.658902 134.226196
-6.183462 -12.521096 139.117035
10.292201 13.198551 142.980133
44.174435 -9.024044 126.394226
24.485205 -0.067837 145.317734
-58.150558 -5.935816 117.710571
-49.137627 -3.907221 112.810966
44.211651 -9.667434 111.381073
53.058018 -0.232521 115.222542
14.357031 11.347448 145.301865
-30.509575 10.079927 126.253815
43.593170 8.190565 114.464760
-41.084797 9.596431 119.782639
54.155617 4.943717 119.723091
-45.659718 10.829641 114.683487
-12.459914 -4.284081 142.201813
-39.744514 -9.783031 117.140373
-29.791677 8.611131 125.731125
-37.540604 -6.688682 118.070206
31.902563 7.172394 121.663582
19.602587 6.712255 151.295288
-28.322613 -3.738407 137.383545
-18.376846 2.768639 134.940781
24.303455 6.848162 137.390015
-34.828766 1.946250 107.954727
55.058456 2.158747 113.543602
22.467154 7.413117 145.615601
46.334995 3.417631 122.861870
48.740685 -8.924427 114.421936
52.860714 0.195222 118.504890
-50.814850 6.536774 110.003418
50.178211 -2.885427 109.651649
29.045900 -2.316844 120.465721
-54.445156 0.613807 109.284470
-47.070984 7.997164 117.983063
30.348352 9.924927 123.265717
41.390892 -8.809162 108.250427
-42.984077 -2.881830 135.163177
-27.523617 -7.553397 119.342758
-21.374556 -3.415679 147.765213
-15.305570 12.340435 141.058609
-45.861607 -6.665248 112.076836
28.288723 5.627986 136.442108
30.839180 5.804506 122.152916
46.389122 -0.688718 107.881493
38.534798 7.488336 127.299438
-42.992069 7.002817 107.713333
14.760973 12.117240 144.020172
21.381163 -7.744401 136.199020
